<?xml version="1.0" encoding="utf-8" standalone="no"?>
<!DOCTYPE svg PUBLIC "-//W3C//DTD SVG 1.1//EN"
  "http://www.w3.org/Graphics/SVG/1.1/DTD/svg11.dtd">
<!-- Created with matplotlib (http://matplotlib.org/) -->
<svg height="333pt" version="1.1" viewBox="0 0 378 333" width="378pt" xmlns="http://www.w3.org/2000/svg" xmlns:xlink="http://www.w3.org/1999/xlink">
 <defs>
  <style type="text/css">
*{stroke-linecap:butt;stroke-linejoin:round;}
  </style>
 </defs>
 <g id="figure_1">
  <g id="patch_1">
   <path d="M 0 333.7245 
L 378.52 333.7245 
L 378.52 0 
L 0 0 
z
" style="fill:#ffffff;"/>
  </g>
  <g id="axes_1">
   <g id="patch_2">
    <path d="M 10.7 276.812 
L 367.82 276.812 
L 367.82 10.7 
L 10.7 10.7 
z
" style="fill:#ffffff;"/>
   </g>
   <g id="matplotlib.axis_1">
    <g id="xtick_1">
     <g id="line2d_1">
      <path clip-path="url(#pbb28828b20)" d="M 10.587903 276.812 
L 10.587903 10.7 
" style="fill:none;stroke:#b0b0b0;stroke-linecap:square;stroke-width:0.8;"/>
     </g>
     <g id="line2d_2">
      <defs>
       <path d="M 0 0 
L 0 3.5 
" id="ma65f85417d" style="stroke:#000000;stroke-width:0.8;"/>
      </defs>
      <g>
       <use style="stroke:#000000;stroke-width:0.8;" x="10.587903" xlink:href="#ma65f85417d" y="276.812"/>
      </g>
     </g>
    </g>
    <g id="xtick_2">
     <g id="line2d_3">
      <path clip-path="url(#pbb28828b20)" d="M 88.408603 276.812 
L 88.408603 10.7 
" style="fill:none;stroke:#b0b0b0;stroke-linecap:square;stroke-width:0.8;"/>
     </g>
     <g id="line2d_4">
      <g>
       <use style="stroke:#000000;stroke-width:0.8;" x="88.408603" xlink:href="#ma65f85417d" y="276.812"/>
      </g>
     </g>
     <g id="text_1">
      <!-- -5 -->
      <defs>
       <path d="M 4.890625 31.390625 
L 31.203125 31.390625 
L 31.203125 23.390625 
L 4.890625 23.390625 
z
" id="DejaVuSans-2d"/>
       <path d="M 10.796875 72.90625 
L 49.515625 72.90625 
L 49.515625 64.59375 
L 19.828125 64.59375 
L 19.828125 46.734375 
Q 21.96875 47.46875 24.109375 47.828125 
Q 26.265625 48.1875 28.421875 48.1875 
Q 40.625 48.1875 47.75 41.5 
Q 54.890625 34.8125 54.890625 23.390625 
Q 54.890625 11.625 47.5625 5.09375 
Q 40.234375 -1.421875 26.90625 -1.421875 
Q 22.3125 -1.421875 17.546875 -0.640625 
Q 12.796875 0.140625 7.71875 1.703125 
L 7.71875 11.625 
Q 12.109375 9.234375 16.796875 8.0625 
Q 21.484375 6.890625 26.703125 6.890625 
Q 35.15625 6.890625 40.078125 11.328125 
Q 45.015625 15.765625 45.015625 23.390625 
Q 45.015625 31 40.078125 35.4375 
Q 35.15625 39.890625 26.703125 39.890625 
Q 22.75 39.890625 18.8125 39.015625 
Q 14.890625 38.140625 10.796875 36.28125 
z
" id="DejaVuSans-35"/>
      </defs>
      <g transform="translate(78.438291 299.008875)scale(0.2 -0.2)">
       <use xlink:href="#DejaVuSans-2d"/>
       <use x="36.083984" xlink:href="#DejaVuSans-35"/>
      </g>
     </g>
    </g>
    <g id="xtick_3">
     <g id="line2d_5">
      <path clip-path="url(#pbb28828b20)" d="M 166.229304 276.812 
L 166.229304 10.7 
" style="fill:none;stroke:#b0b0b0;stroke-linecap:square;stroke-width:0.8;"/>
     </g>
     <g id="line2d_6">
      <g>
       <use style="stroke:#000000;stroke-width:0.8;" x="166.229304" xlink:href="#ma65f85417d" y="276.812"/>
      </g>
     </g>
     <g id="text_2">
      <!-- -2 -->
      <defs>
       <path d="M 19.1875 8.296875 
L 53.609375 8.296875 
L 53.609375 0 
L 7.328125 0 
L 7.328125 8.296875 
Q 12.9375 14.109375 22.625 23.890625 
Q 32.328125 33.6875 34.8125 36.53125 
Q 39.546875 41.84375 41.421875 45.53125 
Q 43.3125 49.21875 43.3125 52.78125 
Q 43.3125 58.59375 39.234375 62.25 
Q 35.15625 65.921875 28.609375 65.921875 
Q 23.96875 65.921875 18.8125 64.3125 
Q 13.671875 62.703125 7.8125 59.421875 
L 7.8125 69.390625 
Q 13.765625 71.78125 18.9375 73 
Q 24.125 74.21875 28.421875 74.21875 
Q 39.75 74.21875 46.484375 68.546875 
Q 53.21875 62.890625 53.21875 53.421875 
Q 53.21875 48.921875 51.53125 44.890625 
Q 49.859375 40.875 45.40625 35.40625 
Q 44.1875 33.984375 37.640625 27.21875 
Q 31.109375 20.453125 19.1875 8.296875 
" id="DejaVuSans-32"/>
      </defs>
      <g transform="translate(156.258992 299.008875)scale(0.2 -0.2)">
       <use xlink:href="#DejaVuSans-2d"/>
       <use x="36.083984" xlink:href="#DejaVuSans-32"/>
      </g>
     </g>
    </g>
    <g id="xtick_4">
     <g id="line2d_7">
      <path clip-path="url(#pbb28828b20)" d="M 244.050005 276.812 
L 244.050005 10.7 
" style="fill:none;stroke:#b0b0b0;stroke-linecap:square;stroke-width:0.8;"/>
     </g>
     <g id="line2d_8">
      <g>
       <use style="stroke:#000000;stroke-width:0.8;" x="244.050005" xlink:href="#ma65f85417d" y="276.812"/>
      </g>
     </g>
     <g id="text_3">
      <!-- 1 -->
      <defs>
       <path d="M 12.40625 8.296875 
L 28.515625 8.296875 
L 28.515625 63.921875 
L 10.984375 60.40625 
L 10.984375 69.390625 
L 28.421875 72.90625 
L 38.28125 72.90625 
L 38.28125 8.296875 
L 54.390625 8.296875 
L 54.390625 0 
L 12.40625 0 
z
" id="DejaVuSans-31"/>
      </defs>
      <g transform="translate(237.687505 299.008875)scale(0.2 -0.2)">
       <use xlink:href="#DejaVuSans-31"/>
      </g>
     </g>
    </g>
    <g id="xtick_5">
     <g id="line2d_9">
      <path clip-path="url(#pbb28828b20)" d="M 321.870706 276.812 
L 321.870706 10.7 
" style="fill:none;stroke:#b0b0b0;stroke-linecap:square;stroke-width:0.8;"/>
     </g>
     <g id="line2d_10">
      <g>
       <use style="stroke:#000000;stroke-width:0.8;" x="321.870706" xlink:href="#ma65f85417d" y="276.812"/>
      </g>
     </g>
     <g id="text_4">
      <!-- 4 -->
      <defs>
       <path d="M 37.796875 64.3125 
L 12.890625 25.390625 
L 37.796875 25.390625 
z
M 35.203125 72.90625 
L 47.609375 72.90625 
L 47.609375 25.390625 
L 58.015625 25.390625 
L 58.015625 17.1875 
L 47.609375 17.1875 
L 47.609375 0 
L 37.796875 0 
L 37.796875 17.1875 
L 4.890625 17.1875 
L 4.890625 26.703125 
z
" id="DejaVuSans-34"/>
      </defs>
      <g transform="translate(315.508206 299.008875)scale(0.2 -0.2)">
       <use xlink:href="#DejaVuSans-34"/>
      </g>
     </g>
    </g>
    <g id="text_5">
     <!-- log10 of Df -->
     <defs>
      <path d="M 9.421875 75.984375 
L 18.40625 75.984375 
L 18.40625 0 
L 9.421875 0 
z
" id="DejaVuSans-6c"/>
      <path d="M 30.609375 48.390625 
Q 23.390625 48.390625 19.1875 42.75 
Q 14.984375 37.109375 14.984375 27.296875 
Q 14.984375 17.484375 19.15625 11.84375 
Q 23.34375 6.203125 30.609375 6.203125 
Q 37.796875 6.203125 41.984375 11.859375 
Q 46.1875 17.53125 46.1875 27.296875 
Q 46.1875 37.015625 41.984375 42.703125 
Q 37.796875 48.390625 30.609375 48.390625 
M 30.609375 56 
Q 42.328125 56 49.015625 48.375 
Q 55.71875 40.765625 55.71875 27.296875 
Q 55.71875 13.875 49.015625 6.21875 
Q 42.328125 -1.421875 30.609375 -1.421875 
Q 18.84375 -1.421875 12.171875 6.21875 
Q 5.515625 13.875 5.515625 27.296875 
Q 5.515625 40.765625 12.171875 48.375 
Q 18.84375 56 30.609375 56 
" id="DejaVuSans-6f"/>
      <path d="M 45.40625 27.984375 
Q 45.40625 37.75 41.375 43.109375 
Q 37.359375 48.484375 30.078125 48.484375 
Q 22.859375 48.484375 18.828125 43.109375 
Q 14.796875 37.75 14.796875 27.984375 
Q 14.796875 18.265625 18.828125 12.890625 
Q 22.859375 7.515625 30.078125 7.515625 
Q 37.359375 7.515625 41.375 12.890625 
Q 45.40625 18.265625 45.40625 27.984375 
M 54.390625 6.78125 
Q 54.390625 -7.171875 48.1875 -13.984375 
Q 42 -20.796875 29.203125 -20.796875 
Q 24.46875 -20.796875 20.265625 -20.09375 
Q 16.0625 -19.390625 12.109375 -17.921875 
L 12.109375 -9.1875 
Q 16.0625 -11.328125 19.921875 -12.34375 
Q 23.78125 -13.375 27.78125 -13.375 
Q 36.625 -13.375 41.015625 -8.765625 
Q 45.40625 -4.15625 45.40625 5.171875 
L 45.40625 9.625 
Q 42.625 4.78125 38.28125 2.390625 
Q 33.9375 0 27.875 0 
Q 17.828125 0 11.671875 7.65625 
Q 5.515625 15.328125 5.515625 27.984375 
Q 5.515625 40.671875 11.671875 48.328125 
Q 17.828125 56 27.875 56 
Q 33.9375 56 38.28125 53.609375 
Q 42.625 51.21875 45.40625 46.390625 
L 45.40625 54.6875 
L 54.390625 54.6875 
z
" id="DejaVuSans-67"/>
      <path d="M 31.78125 66.40625 
Q 24.171875 66.40625 20.328125 58.90625 
Q 16.5 51.421875 16.5 36.375 
Q 16.5 21.390625 20.328125 13.890625 
Q 24.171875 6.390625 31.78125 6.390625 
Q 39.453125 6.390625 43.28125 13.890625 
Q 47.125 21.390625 47.125 36.375 
Q 47.125 51.421875 43.28125 58.90625 
Q 39.453125 66.40625 31.78125 66.40625 
M 31.78125 74.21875 
Q 44.046875 74.21875 50.515625 64.515625 
Q 56.984375 54.828125 56.984375 36.375 
Q 56.984375 17.96875 50.515625 8.265625 
Q 44.046875 -1.421875 31.78125 -1.421875 
Q 19.53125 -1.421875 13.0625 8.265625 
Q 6.59375 17.96875 6.59375 36.375 
Q 6.59375 54.828125 13.0625 64.515625 
Q 19.53125 74.21875 31.78125 74.21875 
" id="DejaVuSans-30"/>
      <path id="DejaVuSans-20"/>
      <path d="M 37.109375 75.984375 
L 37.109375 68.5 
L 28.515625 68.5 
Q 23.6875 68.5 21.796875 66.546875 
Q 19.921875 64.59375 19.921875 59.515625 
L 19.921875 54.6875 
L 34.71875 54.6875 
L 34.71875 47.703125 
L 19.921875 47.703125 
L 19.921875 0 
L 10.890625 0 
L 10.890625 47.703125 
L 2.296875 47.703125 
L 2.296875 54.6875 
L 10.890625 54.6875 
L 10.890625 58.5 
Q 10.890625 67.625 15.140625 71.796875 
Q 19.390625 75.984375 28.609375 75.984375 
z
" id="DejaVuSans-66"/>
      <path d="M 19.671875 64.796875 
L 19.671875 8.109375 
L 31.59375 8.109375 
Q 46.6875 8.109375 53.6875 14.9375 
Q 60.6875 21.78125 60.6875 36.53125 
Q 60.6875 51.171875 53.6875 57.984375 
Q 46.6875 64.796875 31.59375 64.796875 
z
M 9.8125 72.90625 
L 30.078125 72.90625 
Q 51.265625 72.90625 61.171875 64.09375 
Q 71.09375 55.28125 71.09375 36.53125 
Q 71.09375 17.671875 61.125 8.828125 
Q 51.171875 0 30.078125 0 
L 9.8125 0 
z
" id="DejaVuSans-44"/>
     </defs>
     <g transform="translate(134.074063 322.365125)scale(0.2 -0.2)">
      <use xlink:href="#DejaVuSans-6c"/>
      <use x="27.783203" xlink:href="#DejaVuSans-6f"/>
      <use x="88.964844" xlink:href="#DejaVuSans-67"/>
      <use x="152.441406" xlink:href="#DejaVuSans-31"/>
      <use x="216.064453" xlink:href="#DejaVuSans-30"/>
      <use x="279.6875" xlink:href="#DejaVuSans-20"/>
      <use x="311.474609" xlink:href="#DejaVuSans-6f"/>
      <use x="372.65625" xlink:href="#DejaVuSans-66"/>
      <use x="407.861328" xlink:href="#DejaVuSans-20"/>
      <use x="439.648438" xlink:href="#DejaVuSans-44"/>
      <use x="516.650391" xlink:href="#DejaVuSans-66"/>
     </g>
    </g>
   </g>
   <g id="matplotlib.axis_2">
    <g id="ytick_1">
     <g id="line2d_11">
      <path clip-path="url(#pbb28828b20)" d="M 10.7 276.812 
L 367.82 276.812 
" style="fill:none;stroke:#b0b0b0;stroke-linecap:square;stroke-width:0.8;"/>
     </g>
     <g id="line2d_12">
      <defs>
       <path d="M 0 0 
L -3.5 0 
" id="mbd46b0719b" style="stroke:#000000;stroke-width:0.8;"/>
      </defs>
      <g>
       <use style="stroke:#000000;stroke-width:0.8;" x="10.7" xlink:href="#mbd46b0719b" y="276.812"/>
      </g>
     </g>
    </g>
    <g id="ytick_2">
     <g id="line2d_13">
      <path clip-path="url(#pbb28828b20)" d="M 10.7 224.116554 
L 367.82 224.116554 
" style="fill:none;stroke:#b0b0b0;stroke-linecap:square;stroke-width:0.8;"/>
     </g>
     <g id="line2d_14">
      <g>
       <use style="stroke:#000000;stroke-width:0.8;" x="10.7" xlink:href="#mbd46b0719b" y="224.116554"/>
      </g>
     </g>
    </g>
    <g id="ytick_3">
     <g id="line2d_15">
      <path clip-path="url(#pbb28828b20)" d="M 10.7 171.421109 
L 367.82 171.421109 
" style="fill:none;stroke:#b0b0b0;stroke-linecap:square;stroke-width:0.8;"/>
     </g>
     <g id="line2d_16">
      <g>
       <use style="stroke:#000000;stroke-width:0.8;" x="10.7" xlink:href="#mbd46b0719b" y="171.421109"/>
      </g>
     </g>
    </g>
    <g id="ytick_4">
     <g id="line2d_17">
      <path clip-path="url(#pbb28828b20)" d="M 10.7 118.725663 
L 367.82 118.725663 
" style="fill:none;stroke:#b0b0b0;stroke-linecap:square;stroke-width:0.8;"/>
     </g>
     <g id="line2d_18">
      <g>
       <use style="stroke:#000000;stroke-width:0.8;" x="10.7" xlink:href="#mbd46b0719b" y="118.725663"/>
      </g>
     </g>
    </g>
    <g id="ytick_5">
     <g id="line2d_19">
      <path clip-path="url(#pbb28828b20)" d="M 10.7 66.030218 
L 367.82 66.030218 
" style="fill:none;stroke:#b0b0b0;stroke-linecap:square;stroke-width:0.8;"/>
     </g>
     <g id="line2d_20">
      <g>
       <use style="stroke:#000000;stroke-width:0.8;" x="10.7" xlink:href="#mbd46b0719b" y="66.030218"/>
      </g>
     </g>
    </g>
    <g id="ytick_6">
     <g id="line2d_21">
      <path clip-path="url(#pbb28828b20)" d="M 10.7 13.334772 
L 367.82 13.334772 
" style="fill:none;stroke:#b0b0b0;stroke-linecap:square;stroke-width:0.8;"/>
     </g>
     <g id="line2d_22">
      <g>
       <use style="stroke:#000000;stroke-width:0.8;" x="10.7" xlink:href="#mbd46b0719b" y="13.334772"/>
      </g>
     </g>
    </g>
   </g>
   <g id="line2d_23">
    <path clip-path="url(#pbb28828b20)" d="M 10.587903 276.812 
L 10.587903 268.029426 
L 10.587903 268.029426 
L 10.587903 259.246851 
L 10.587903 259.246851 
L 10.587903 250.464277 
L 10.587903 250.464277 
L 10.587903 241.681703 
L 10.587903 241.681703 
L 10.587903 232.899129 
L 10.587903 232.899129 
L 10.587903 224.116554 
L 10.587903 224.116554 
L 10.587903 215.33398 
L 10.587903 215.33398 
L 10.587903 206.551406 
L 10.587903 206.551406 
L 10.587903 197.768832 
L 10.587903 197.768832 
L 10.587903 188.986257 
L 10.587903 188.986257 
L 10.587903 180.203683 
L 10.587903 180.203683 
L 10.587903 171.421109 
L 10.587903 171.421109 
L 10.587903 162.638535 
L 89.8742 162.638535 
L 89.8742 153.85596 
L 102.257302 153.85596 
L 102.257302 145.073386 
L 104.074811 145.073386 
L 104.074811 136.290812 
L 107.92711 136.290812 
L 107.92711 127.508238 
L 108.657413 127.508238 
L 108.657413 118.725663 
L 109.281178 118.725663 
L 109.281178 109.943089 
L 109.877254 109.943089 
L 109.877254 101.160515 
L 111.322368 101.160515 
L 111.322368 92.377941 
L 116.7431 92.377941 
L 116.7431 83.595366 
L 116.829467 83.595366 
L 116.829467 74.812792 
L 121.814397 74.812792 
L 121.814397 66.030218 
L 122.47382 66.030218 
L 122.47382 57.247644 
L 126.383267 57.247644 
L 126.383267 48.465069 
L 133.321394 48.465069 
L 133.321394 39.682495 
L 134.596322 39.682495 
L 134.596322 30.899921 
L 200.82 30.899921 
L 200.82 22.117347 
L 205.594941 22.117347 
L 205.594941 13.334772 
L 205.594941 13.334772 
L 205.594941 13.334772 
L 367.82 13.334772 
" style="fill:none;stroke:#ff0000;stroke-linecap:square;stroke-width:3;"/>
   </g>
   <g id="line2d_24">
    <path clip-path="url(#pbb28828b20)" d="M 236.981019 276.812 
L 236.981019 268.029426 
L 237.730789 268.029426 
L 237.730789 259.246851 
L 240.748816 259.246851 
L 240.748816 250.464277 
L 243.712828 250.464277 
L 243.712828 241.681703 
L 244.825292 241.681703 
L 244.825292 232.899129 
L 246.452991 232.899129 
L 246.452991 224.116554 
L 246.891082 224.116554 
L 246.891082 215.33398 
L 246.946434 215.33398 
L 246.946434 206.551406 
L 248.957118 206.551406 
L 248.957118 197.768832 
L 250.26112 197.768832 
L 250.26112 188.986257 
L 251.274243 188.986257 
L 251.274243 180.203683 
L 251.440803 180.203683 
L 251.440803 171.421109 
L 251.891698 171.421109 
L 251.891698 162.638535 
L 252.847966 162.638535 
L 252.847966 153.85596 
L 254.993564 153.85596 
L 254.993564 145.073386 
L 271.575312 145.073386 
L 271.575312 136.290812 
L 274.688441 136.290812 
L 274.688441 127.508238 
L 275.27332 127.508238 
L 275.27332 118.725663 
L 276.359858 118.725663 
L 276.359858 109.943089 
L 276.815942 109.943089 
L 276.815942 101.160515 
L 282.35957 101.160515 
L 282.35957 92.377941 
L 283.480736 92.377941 
L 283.480736 83.595366 
L 285.564991 83.595366 
L 285.564991 74.812792 
L 288.126887 74.812792 
L 288.126887 66.030218 
L 290.902838 66.030218 
L 290.902838 57.247644 
L 293.773604 57.247644 
L 293.773604 48.465069 
L 293.885245 48.465069 
L 293.885245 39.682495 
L 295.738051 39.682495 
L 295.738051 30.899921 
L 296.157838 30.899921 
L 296.157838 22.117347 
L 297.594185 22.117347 
L 297.594185 13.334772 
L 297.594185 13.334772 
L 297.594185 13.334772 
L 367.82 13.334772 
" style="fill:none;stroke:#00bfbf;stroke-linecap:square;stroke-width:1.5;"/>
   </g>
   <g id="line2d_25">
    <path clip-path="url(#pbb28828b20)" d="M 236.981019 276.812 
L 236.981019 268.029426 
L 237.730789 268.029426 
L 237.730789 259.246851 
L 240.748816 259.246851 
L 240.748816 250.464277 
L 243.712828 250.464277 
L 243.712828 241.681703 
L 244.825292 241.681703 
L 244.825292 232.899129 
L 246.452991 232.899129 
L 246.452991 224.116554 
L 246.891082 224.116554 
L 246.891082 215.33398 
L 246.946434 215.33398 
L 246.946434 206.551406 
L 248.957118 206.551406 
L 248.957118 197.768832 
L 250.26112 197.768832 
L 250.26112 188.986257 
L 251.274243 188.986257 
L 251.274243 180.203683 
L 251.440803 180.203683 
L 251.440803 171.421109 
L 251.891698 171.421109 
L 251.891698 162.638535 
L 252.847966 162.638535 
L 252.847966 153.85596 
L 254.993564 153.85596 
L 254.993564 145.073386 
L 271.575312 145.073386 
L 271.575312 136.290812 
L 274.688441 136.290812 
L 274.688441 127.508238 
L 275.27332 127.508238 
L 275.27332 118.725663 
L 276.359858 118.725663 
L 276.359858 109.943089 
L 276.815942 109.943089 
L 276.815942 101.160515 
L 282.35957 101.160515 
L 282.35957 92.377941 
L 283.480736 92.377941 
L 283.480736 83.595366 
L 285.564991 83.595366 
L 285.564991 74.812792 
L 288.126887 74.812792 
L 288.126887 66.030218 
L 290.902838 66.030218 
L 290.902838 57.247644 
L 293.773604 57.247644 
L 293.773604 48.465069 
L 293.885245 48.465069 
L 293.885245 39.682495 
L 295.738051 39.682495 
L 295.738051 30.899921 
L 296.157838 30.899921 
L 296.157838 22.117347 
L 297.594185 22.117347 
L 297.594185 13.334772 
L 297.594185 13.334772 
L 297.594185 13.334772 
L 367.82 13.334772 
" style="fill:none;stroke:#bf00bf;stroke-linecap:square;stroke-width:1.5;"/>
   </g>
   <g id="line2d_26">
    <path clip-path="url(#pbb28828b20)" d="M 236.981019 276.812 
L 236.981019 268.029426 
L 237.730789 268.029426 
L 237.730789 259.246851 
L 240.748816 259.246851 
L 240.748816 250.464277 
L 243.712828 250.464277 
L 243.712828 241.681703 
L 244.825292 241.681703 
L 244.825292 232.899129 
L 246.452991 232.899129 
L 246.452991 224.116554 
L 246.891082 224.116554 
L 246.891082 215.33398 
L 246.946434 215.33398 
L 246.946434 206.551406 
L 248.957118 206.551406 
L 248.957118 197.768832 
L 250.26112 197.768832 
L 250.26112 188.986257 
L 251.274243 188.986257 
L 251.274243 180.203683 
L 251.440803 180.203683 
L 251.440803 171.421109 
L 251.891698 171.421109 
L 251.891698 162.638535 
L 252.847966 162.638535 
L 252.847966 153.85596 
L 254.993564 153.85596 
L 254.993564 145.073386 
L 271.575312 145.073386 
L 271.575312 136.290812 
L 274.688441 136.290812 
L 274.688441 127.508238 
L 275.27332 127.508238 
L 275.27332 118.725663 
L 276.359858 118.725663 
L 276.359858 109.943089 
L 276.815942 109.943089 
L 276.815942 101.160515 
L 282.35957 101.160515 
L 282.35957 92.377941 
L 283.480736 92.377941 
L 283.480736 83.595366 
L 285.564991 83.595366 
L 285.564991 74.812792 
L 288.126887 74.812792 
L 288.126887 66.030218 
L 290.902838 66.030218 
L 290.902838 57.247644 
L 293.773604 57.247644 
L 293.773604 48.465069 
L 293.885245 48.465069 
L 293.885245 39.682495 
L 295.738051 39.682495 
L 295.738051 30.899921 
L 296.157838 30.899921 
L 296.157838 22.117347 
L 297.594185 22.117347 
L 297.594185 13.334772 
L 297.594185 13.334772 
L 297.594185 13.334772 
L 367.82 13.334772 
" style="fill:none;stroke:#000000;stroke-linecap:square;stroke-width:1.5;"/>
   </g>
   <g id="line2d_27">
    <path clip-path="url(#pbb28828b20)" d="M 236.981019 276.812 
L 236.981019 268.029426 
L 237.730789 268.029426 
L 237.730789 259.246851 
L 240.748816 259.246851 
L 240.748816 250.464277 
L 243.712828 250.464277 
L 243.712828 241.681703 
L 244.825292 241.681703 
L 244.825292 232.899129 
L 246.452991 232.899129 
L 246.452991 224.116554 
L 246.891082 224.116554 
L 246.891082 215.33398 
L 246.946434 215.33398 
L 246.946434 206.551406 
L 248.957118 206.551406 
L 248.957118 197.768832 
L 250.26112 197.768832 
L 250.26112 188.986257 
L 251.274243 188.986257 
L 251.274243 180.203683 
L 251.440803 180.203683 
L 251.440803 171.421109 
L 251.891698 171.421109 
L 251.891698 162.638535 
L 252.847966 162.638535 
L 252.847966 153.85596 
L 254.993564 153.85596 
L 254.993564 145.073386 
L 271.575312 145.073386 
L 271.575312 136.290812 
L 274.688441 136.290812 
L 274.688441 127.508238 
L 275.27332 127.508238 
L 275.27332 118.725663 
L 276.359858 118.725663 
L 276.359858 109.943089 
L 276.815942 109.943089 
L 276.815942 101.160515 
L 282.35957 101.160515 
L 282.35957 92.377941 
L 283.480736 92.377941 
L 283.480736 83.595366 
L 285.564991 83.595366 
L 285.564991 74.812792 
L 288.126887 74.812792 
L 288.126887 66.030218 
L 290.902838 66.030218 
L 290.902838 57.247644 
L 293.773604 57.247644 
L 293.773604 48.465069 
L 293.885245 48.465069 
L 293.885245 39.682495 
L 295.738051 39.682495 
L 295.738051 30.899921 
L 296.157838 30.899921 
L 296.157838 22.117347 
L 297.594185 22.117347 
L 297.594185 13.334772 
L 297.594185 13.334772 
L 297.594185 13.334772 
L 367.82 13.334772 
" style="fill:none;stroke:#00bfbf;stroke-linecap:square;stroke-width:1.5;"/>
   </g>
   <g id="line2d_28">
    <path clip-path="url(#pbb28828b20)" d="M 216.337407 276.812 
L 216.337407 268.029426 
L 222.342995 268.029426 
L 222.342995 259.246851 
L 223.583008 259.246851 
L 223.583008 250.464277 
L 225.20506 250.464277 
L 225.20506 241.681703 
L 234.012301 241.681703 
L 234.012301 232.899129 
L 234.613298 232.899129 
L 234.613298 224.116554 
L 235.586623 224.116554 
L 235.586623 215.33398 
L 236.981019 215.33398 
L 236.981019 206.551406 
L 238.591524 206.551406 
L 238.591524 197.768832 
L 240.036408 197.768832 
L 240.036408 188.986257 
L 240.704324 188.986257 
L 240.704324 180.203683 
L 242.588685 180.203683 
L 242.588685 171.421109 
L 242.841775 171.421109 
L 242.841775 162.638535 
L 243.487487 162.638535 
L 243.487487 153.85596 
L 245.583503 153.85596 
L 245.583503 145.073386 
L 249.470575 145.073386 
L 249.470575 136.290812 
L 251.430466 136.290812 
L 251.430466 127.508238 
L 251.600572 127.508238 
L 251.600572 118.725663 
L 252.304656 118.725663 
L 252.304656 109.943089 
L 253.359082 109.943089 
L 253.359082 101.160515 
L 255.509871 101.160515 
L 255.509871 92.377941 
L 256.176199 92.377941 
L 256.176199 83.595366 
L 257.87012 83.595366 
L 257.87012 74.812792 
L 260.599237 74.812792 
L 260.599237 66.030218 
L 268.805516 66.030218 
L 268.805516 57.247644 
L 269.320086 57.247644 
L 269.320086 48.465069 
L 271.7515 48.465069 
L 271.7515 39.682495 
L 273.416672 39.682495 
L 273.416672 30.899921 
L 276.045661 30.899921 
L 276.045661 22.117347 
L 279.858949 22.117347 
L 279.858949 13.334772 
L 279.858949 13.334772 
L 279.858949 13.334772 
L 367.82 13.334772 
" style="fill:none;stroke:#bf00bf;stroke-linecap:square;stroke-width:1.5;"/>
   </g>
   <g id="line2d_29">
    <path clip-path="url(#pbb28828b20)" d="M 201.603318 276.812 
L 201.603318 268.029426 
L 204.257202 268.029426 
L 204.257202 259.246851 
L 205.322253 259.246851 
L 205.322253 250.464277 
L 208.959352 250.464277 
L 208.959352 241.681703 
L 209.776471 241.681703 
L 209.776471 232.899129 
L 213.511597 232.899129 
L 213.511597 224.116554 
L 216.369192 224.116554 
L 216.369192 215.33398 
L 216.567866 215.33398 
L 216.567866 206.551406 
L 217.401136 206.551406 
L 217.401136 197.768832 
L 219.652692 197.768832 
L 219.652692 188.986257 
L 221.053953 188.986257 
L 221.053953 180.203683 
L 222.708866 180.203683 
L 222.708866 171.421109 
L 224.099759 171.421109 
L 224.099759 162.638535 
L 224.212046 162.638535 
L 224.212046 153.85596 
L 224.940276 153.85596 
L 224.940276 145.073386 
L 225.41745 145.073386 
L 225.41745 136.290812 
L 225.763815 136.290812 
L 225.763815 127.508238 
L 227.241583 127.508238 
L 227.241583 118.725663 
L 229.014844 118.725663 
L 229.014844 109.943089 
L 229.320621 109.943089 
L 229.320621 101.160515 
L 232.128112 101.160515 
L 232.128112 92.377941 
L 232.21162 92.377941 
L 232.21162 83.595366 
L 232.467034 83.595366 
L 232.467034 74.812792 
L 233.021724 74.812792 
L 233.021724 66.030218 
L 234.419212 66.030218 
L 234.419212 57.247644 
L 234.784358 57.247644 
L 234.784358 48.465069 
L 235.139698 48.465069 
L 235.139698 39.682495 
L 237.42349 39.682495 
L 237.42349 30.899921 
L 239.033999 30.899921 
L 239.033999 22.117347 
L 271.280172 22.117347 
L 271.280172 13.334772 
L 271.280172 13.334772 
L 271.280172 13.334772 
L 367.82 13.334772 
" style="fill:none;stroke:#000000;stroke-linecap:square;stroke-width:1.5;"/>
   </g>
   <g id="line2d_30">
    <path clip-path="url(#pbb28828b20)" d="M -1 268.029426 
L 164.051752 268.029426 
L 164.051752 259.246851 
L 164.07338 259.246851 
L 164.07338 250.464277 
L 173.066531 250.464277 
L 173.066531 241.681703 
L 175.433427 241.681703 
L 175.433427 232.899129 
L 182.402246 232.899129 
L 182.402246 224.116554 
L 190.532411 224.116554 
L 190.532411 215.33398 
L 195.80092 215.33398 
L 195.80092 206.551406 
L 197.962473 206.551406 
L 197.962473 197.768832 
L 198.013246 197.768832 
L 198.013246 188.986257 
L 200.16045 188.986257 
L 200.16045 180.203683 
L 200.562609 180.203683 
L 200.562609 171.421109 
L 201.113764 171.421109 
L 201.113764 162.638535 
L 203.643722 162.638535 
L 203.643722 153.85596 
L 205.747487 153.85596 
L 205.747487 145.073386 
L 207.954232 145.073386 
L 207.954232 136.290812 
L 208.529204 136.290812 
L 208.529204 127.508238 
L 209.024822 127.508238 
L 209.024822 118.725663 
L 209.3227 118.725663 
L 209.3227 109.943089 
L 210.13012 109.943089 
L 210.13012 101.160515 
L 211.41918 101.160515 
L 211.41918 92.377941 
L 211.449965 92.377941 
L 211.449965 83.595366 
L 212.567182 83.595366 
L 212.567182 74.812792 
L 213.511597 74.812792 
L 213.511597 66.030218 
L 214.28306 66.030218 
L 214.28306 57.247644 
L 215.612315 57.247644 
L 215.612315 48.465069 
L 222.628447 48.465069 
L 222.628447 39.682495 
L 223.320843 39.682495 
L 223.320843 30.899921 
L 224.033338 30.899921 
L 224.033338 22.117347 
L 225.657436 22.117347 
L 225.657436 13.334772 
L 225.657436 13.334772 
L 225.657436 13.334772 
L 367.82 13.334772 
" style="fill:none;stroke:#00bfbf;stroke-linecap:square;stroke-width:1.5;"/>
   </g>
   <g id="line2d_31">
    <path clip-path="url(#pbb28828b20)" d="M 10.587903 276.812 
L 10.587903 268.029426 
L 10.587903 268.029426 
L 10.587903 259.246851 
L 10.587903 259.246851 
L 10.587903 250.464277 
L 10.587903 250.464277 
L 10.587903 241.681703 
L 10.587903 241.681703 
L 10.587903 232.899129 
L 10.587903 232.899129 
L 10.587903 224.116554 
L 10.587903 224.116554 
L 10.587903 215.33398 
L 10.587903 215.33398 
L 10.587903 206.551406 
L 10.587903 206.551406 
L 10.587903 197.768832 
L 10.587903 197.768832 
L 10.587903 188.986257 
L 10.587903 188.986257 
L 10.587903 180.203683 
L 10.587903 180.203683 
L 10.587903 171.421109 
L 10.587903 171.421109 
L 10.587903 162.638535 
L 89.8742 162.638535 
L 89.8742 153.85596 
L 102.257302 153.85596 
L 102.257302 145.073386 
L 104.074811 145.073386 
L 104.074811 136.290812 
L 107.92711 136.290812 
L 107.92711 127.508238 
L 108.657413 127.508238 
L 108.657413 118.725663 
L 109.281178 118.725663 
L 109.281178 109.943089 
L 109.877254 109.943089 
L 109.877254 101.160515 
L 111.322368 101.160515 
L 111.322368 92.377941 
L 116.7431 92.377941 
L 116.7431 83.595366 
L 116.829467 83.595366 
L 116.829467 74.812792 
L 121.814397 74.812792 
L 121.814397 66.030218 
L 122.47382 66.030218 
L 122.47382 57.247644 
L 126.383267 57.247644 
L 126.383267 48.465069 
L 133.321394 48.465069 
L 133.321394 39.682495 
L 134.596322 39.682495 
L 134.596322 30.899921 
L 200.82 30.899921 
L 200.82 22.117347 
L 205.594941 22.117347 
L 205.594941 13.334772 
L 205.594941 13.334772 
L 205.594941 13.334772 
L 367.82 13.334772 
" style="fill:none;stroke:#bf00bf;stroke-linecap:square;stroke-width:1.5;"/>
   </g>
   <g id="patch_3">
    <path d="M 10.7 276.812 
L 10.7 10.7 
" style="fill:none;stroke:#000000;stroke-linecap:square;stroke-linejoin:miter;stroke-width:0.8;"/>
   </g>
   <g id="patch_4">
    <path d="M 367.82 276.812 
L 367.82 10.7 
" style="fill:none;stroke:#000000;stroke-linecap:square;stroke-linejoin:miter;stroke-width:0.8;"/>
   </g>
   <g id="patch_5">
    <path d="M 10.7 276.812 
L 367.82 276.812 
" style="fill:none;stroke:#000000;stroke-linecap:square;stroke-linejoin:miter;stroke-width:0.8;"/>
   </g>
   <g id="patch_6">
    <path d="M 10.7 10.7 
L 367.82 10.7 
" style="fill:none;stroke:#000000;stroke-linecap:square;stroke-linejoin:miter;stroke-width:0.8;"/>
   </g>
   <g id="text_6">
    <!-- {f7, f8}, 5-D -->
    <defs>
     <path d="M 51.125 -9.28125 
L 51.125 -16.3125 
L 48.09375 -16.3125 
Q 35.9375 -16.3125 31.8125 -12.6875 
Q 27.6875 -9.078125 27.6875 1.703125 
L 27.6875 13.375 
Q 27.6875 20.75 25.046875 23.578125 
Q 22.40625 26.421875 15.484375 26.421875 
L 12.5 26.421875 
L 12.5 33.40625 
L 15.484375 33.40625 
Q 22.46875 33.40625 25.078125 36.203125 
Q 27.6875 39.015625 27.6875 46.296875 
L 27.6875 58.015625 
Q 27.6875 68.796875 31.8125 72.390625 
Q 35.9375 75.984375 48.09375 75.984375 
L 51.125 75.984375 
L 51.125 69 
L 47.796875 69 
Q 40.921875 69 38.8125 66.84375 
Q 36.71875 64.703125 36.71875 57.8125 
L 36.71875 45.703125 
Q 36.71875 38.03125 34.5 34.5625 
Q 32.28125 31.109375 26.90625 29.890625 
Q 32.328125 28.5625 34.515625 25.09375 
Q 36.71875 21.625 36.71875 14.015625 
L 36.71875 1.90625 
Q 36.71875 -4.984375 38.8125 -7.125 
Q 40.921875 -9.28125 47.796875 -9.28125 
z
" id="DejaVuSans-7b"/>
     <path d="M 8.203125 72.90625 
L 55.078125 72.90625 
L 55.078125 68.703125 
L 28.609375 0 
L 18.3125 0 
L 43.21875 64.59375 
L 8.203125 64.59375 
z
" id="DejaVuSans-37"/>
     <path d="M 11.71875 12.40625 
L 22.015625 12.40625 
L 22.015625 4 
L 14.015625 -11.625 
L 7.71875 -11.625 
L 11.71875 4 
z
" id="DejaVuSans-2c"/>
     <path d="M 31.78125 34.625 
Q 24.75 34.625 20.71875 30.859375 
Q 16.703125 27.09375 16.703125 20.515625 
Q 16.703125 13.921875 20.71875 10.15625 
Q 24.75 6.390625 31.78125 6.390625 
Q 38.8125 6.390625 42.859375 10.171875 
Q 46.921875 13.96875 46.921875 20.515625 
Q 46.921875 27.09375 42.890625 30.859375 
Q 38.875 34.625 31.78125 34.625 
M 21.921875 38.8125 
Q 15.578125 40.375 12.03125 44.71875 
Q 8.5 49.078125 8.5 55.328125 
Q 8.5 64.0625 14.71875 69.140625 
Q 20.953125 74.21875 31.78125 74.21875 
Q 42.671875 74.21875 48.875 69.140625 
Q 55.078125 64.0625 55.078125 55.328125 
Q 55.078125 49.078125 51.53125 44.71875 
Q 48 40.375 41.703125 38.8125 
Q 48.828125 37.15625 52.796875 32.3125 
Q 56.78125 27.484375 56.78125 20.515625 
Q 56.78125 9.90625 50.3125 4.234375 
Q 43.84375 -1.421875 31.78125 -1.421875 
Q 19.734375 -1.421875 13.25 4.234375 
Q 6.78125 9.90625 6.78125 20.515625 
Q 6.78125 27.484375 10.78125 32.3125 
Q 14.796875 37.15625 21.921875 38.8125 
M 18.3125 54.390625 
Q 18.3125 48.734375 21.84375 45.5625 
Q 25.390625 42.390625 31.78125 42.390625 
Q 38.140625 42.390625 41.71875 45.5625 
Q 45.3125 48.734375 45.3125 54.390625 
Q 45.3125 60.0625 41.71875 63.234375 
Q 38.140625 66.40625 31.78125 66.40625 
Q 25.390625 66.40625 21.84375 63.234375 
Q 18.3125 60.0625 18.3125 54.390625 
" id="DejaVuSans-38"/>
     <path d="M 12.5 -9.28125 
L 15.921875 -9.28125 
Q 22.75 -9.28125 24.828125 -7.171875 
Q 26.90625 -5.078125 26.90625 1.90625 
L 26.90625 14.015625 
Q 26.90625 21.625 29.09375 25.09375 
Q 31.296875 28.5625 36.71875 29.890625 
Q 31.296875 31.109375 29.09375 34.5625 
Q 26.90625 38.03125 26.90625 45.703125 
L 26.90625 57.8125 
Q 26.90625 64.75 24.828125 66.875 
Q 22.75 69 15.921875 69 
L 12.5 69 
L 12.5 75.984375 
L 15.578125 75.984375 
Q 27.734375 75.984375 31.8125 72.390625 
Q 35.890625 68.796875 35.890625 58.015625 
L 35.890625 46.296875 
Q 35.890625 39.015625 38.515625 36.203125 
Q 41.15625 33.40625 48.09375 33.40625 
L 51.125 33.40625 
L 51.125 26.421875 
L 48.09375 26.421875 
Q 41.15625 26.421875 38.515625 23.578125 
Q 35.890625 20.75 35.890625 13.375 
L 35.890625 1.703125 
Q 35.890625 -9.078125 31.8125 -12.6875 
Q 27.734375 -16.3125 15.578125 -16.3125 
L 12.5 -16.3125 
z
" id="DejaVuSans-7d"/>
    </defs>
    <g transform="translate(234.930725 271.48976)scale(0.2 -0.2)">
     <use xlink:href="#DejaVuSans-7b"/>
     <use x="63.623047" xlink:href="#DejaVuSans-66"/>
     <use x="98.828125" xlink:href="#DejaVuSans-37"/>
     <use x="162.451172" xlink:href="#DejaVuSans-2c"/>
     <use x="194.238281" xlink:href="#DejaVuSans-20"/>
     <use x="226.025391" xlink:href="#DejaVuSans-66"/>
     <use x="261.230469" xlink:href="#DejaVuSans-38"/>
     <use x="324.853516" xlink:href="#DejaVuSans-7d"/>
     <use x="388.476562" xlink:href="#DejaVuSans-2c"/>
     <use x="420.263672" xlink:href="#DejaVuSans-20"/>
     <use x="452.050781" xlink:href="#DejaVuSans-35"/>
     <use x="515.673828" xlink:href="#DejaVuSans-2d"/>
     <use x="551.757812" xlink:href="#DejaVuSans-44"/>
    </g>
   </g>
   <g id="text_7">
    <!-- v2.0.1 -->
    <defs>
     <path d="M 2.984375 54.6875 
L 12.5 54.6875 
L 29.59375 8.796875 
L 46.6875 54.6875 
L 56.203125 54.6875 
L 35.6875 0 
L 23.484375 0 
z
" id="DejaVuSans-76"/>
     <path d="M 10.6875 12.40625 
L 21 12.40625 
L 21 0 
L 10.6875 0 
z
" id="DejaVuSans-2e"/>
    </defs>
    <g style="fill:#808080;" transform="translate(173.57875 272.071193)scale(0.1 -0.1)">
     <use xlink:href="#DejaVuSans-76"/>
     <use x="59.179688" xlink:href="#DejaVuSans-32"/>
     <use x="122.802734" xlink:href="#DejaVuSans-2e"/>
     <use x="154.589844" xlink:href="#DejaVuSans-30"/>
     <use x="218.212891" xlink:href="#DejaVuSans-2e"/>
     <use x="250" xlink:href="#DejaVuSans-31"/>
    </g>
   </g>
  </g>
 </g>
 <defs>
  <clipPath id="pbb28828b20">
   <rect height="266.112" width="357.12" x="10.7" y="10.7"/>
  </clipPath>
 </defs>
</svg>
