<?xml version="1.0" encoding="utf-8" standalone="no"?>
<!DOCTYPE svg PUBLIC "-//W3C//DTD SVG 1.1//EN"
  "http://www.w3.org/Graphics/SVG/1.1/DTD/svg11.dtd">
<!-- Created with matplotlib (http://matplotlib.org/) -->
<svg height="353pt" version="1.1" viewBox="0 0 441 353" width="441pt" xmlns="http://www.w3.org/2000/svg" xmlns:xlink="http://www.w3.org/1999/xlink">
 <defs>
  <style type="text/css">
*{stroke-linecap:butt;stroke-linejoin:round;}
  </style>
 </defs>
 <g id="figure_1">
  <g id="patch_1">
   <path d="M -0 353.22225 
L 441.802544 353.22225 
L 441.802544 0 
L -0 0 
z
" style="fill:#ffffff;"/>
  </g>
  <g id="axes_1">
   <g id="patch_2">
    <path d="M 73.113325 298.245375 
L 430.233325 298.245375 
L 430.233325 32.133375 
L 73.113325 32.133375 
z
" style="fill:#ffffff;"/>
   </g>
   <g id="matplotlib.axis_1">
    <g id="xtick_1">
     <g id="line2d_1">
      <path clip-path="url(#pf75da51bf0)" d="M 73.113325 298.245375 
L 73.113325 32.133375 
" style="fill:none;stroke:#b0b0b0;stroke-linecap:square;stroke-width:0.8;"/>
     </g>
     <g id="line2d_2">
      <defs>
       <path d="M 0 0 
L 0 3.5 
" id="m0b6e82862b" style="stroke:#000000;stroke-width:0.8;"/>
      </defs>
      <g>
       <use style="stroke:#000000;stroke-width:0.8;" x="73.113325" xlink:href="#m0b6e82862b" y="298.245375"/>
      </g>
     </g>
     <g id="text_1">
      <!-- 0 -->
      <defs>
       <path d="M 31.78125 66.40625 
Q 24.171875 66.40625 20.328125 58.90625 
Q 16.5 51.421875 16.5 36.375 
Q 16.5 21.390625 20.328125 13.890625 
Q 24.171875 6.390625 31.78125 6.390625 
Q 39.453125 6.390625 43.28125 13.890625 
Q 47.125 21.390625 47.125 36.375 
Q 47.125 51.421875 43.28125 58.90625 
Q 39.453125 66.40625 31.78125 66.40625 
M 31.78125 74.21875 
Q 44.046875 74.21875 50.515625 64.515625 
Q 56.984375 54.828125 56.984375 36.375 
Q 56.984375 17.96875 50.515625 8.265625 
Q 44.046875 -1.421875 31.78125 -1.421875 
Q 19.53125 -1.421875 13.0625 8.265625 
Q 6.59375 17.96875 6.59375 36.375 
Q 6.59375 54.828125 13.0625 64.515625 
Q 19.53125 74.21875 31.78125 74.21875 
" id="DejaVuSans-30"/>
      </defs>
      <g transform="translate(66.750825 320.44225)scale(0.2 -0.2)">
       <use xlink:href="#DejaVuSans-30"/>
      </g>
     </g>
    </g>
    <g id="xtick_2">
     <g id="line2d_3">
      <path clip-path="url(#pf75da51bf0)" d="M 155.39904 298.245375 
L 155.39904 32.133375 
" style="fill:none;stroke:#b0b0b0;stroke-linecap:square;stroke-width:0.8;"/>
     </g>
     <g id="line2d_4">
      <g>
       <use style="stroke:#000000;stroke-width:0.8;" x="155.39904" xlink:href="#m0b6e82862b" y="298.245375"/>
      </g>
     </g>
     <g id="text_2">
      <!-- 2 -->
      <defs>
       <path d="M 19.1875 8.296875 
L 53.609375 8.296875 
L 53.609375 0 
L 7.328125 0 
L 7.328125 8.296875 
Q 12.9375 14.109375 22.625 23.890625 
Q 32.328125 33.6875 34.8125 36.53125 
Q 39.546875 41.84375 41.421875 45.53125 
Q 43.3125 49.21875 43.3125 52.78125 
Q 43.3125 58.59375 39.234375 62.25 
Q 35.15625 65.921875 28.609375 65.921875 
Q 23.96875 65.921875 18.8125 64.3125 
Q 13.671875 62.703125 7.8125 59.421875 
L 7.8125 69.390625 
Q 13.765625 71.78125 18.9375 73 
Q 24.125 74.21875 28.421875 74.21875 
Q 39.75 74.21875 46.484375 68.546875 
Q 53.21875 62.890625 53.21875 53.421875 
Q 53.21875 48.921875 51.53125 44.890625 
Q 49.859375 40.875 45.40625 35.40625 
Q 44.1875 33.984375 37.640625 27.21875 
Q 31.109375 20.453125 19.1875 8.296875 
" id="DejaVuSans-32"/>
      </defs>
      <g transform="translate(149.03654 320.44225)scale(0.2 -0.2)">
       <use xlink:href="#DejaVuSans-32"/>
      </g>
     </g>
    </g>
    <g id="xtick_3">
     <g id="line2d_5">
      <path clip-path="url(#pf75da51bf0)" d="M 237.684754 298.245375 
L 237.684754 32.133375 
" style="fill:none;stroke:#b0b0b0;stroke-linecap:square;stroke-width:0.8;"/>
     </g>
     <g id="line2d_6">
      <g>
       <use style="stroke:#000000;stroke-width:0.8;" x="237.684754" xlink:href="#m0b6e82862b" y="298.245375"/>
      </g>
     </g>
     <g id="text_3">
      <!-- 4 -->
      <defs>
       <path d="M 37.796875 64.3125 
L 12.890625 25.390625 
L 37.796875 25.390625 
z
M 35.203125 72.90625 
L 47.609375 72.90625 
L 47.609375 25.390625 
L 58.015625 25.390625 
L 58.015625 17.1875 
L 47.609375 17.1875 
L 47.609375 0 
L 37.796875 0 
L 37.796875 17.1875 
L 4.890625 17.1875 
L 4.890625 26.703125 
z
" id="DejaVuSans-34"/>
      </defs>
      <g transform="translate(231.322254 320.44225)scale(0.2 -0.2)">
       <use xlink:href="#DejaVuSans-34"/>
      </g>
     </g>
    </g>
    <g id="xtick_4">
     <g id="line2d_7">
      <path clip-path="url(#pf75da51bf0)" d="M 319.970468 298.245375 
L 319.970468 32.133375 
" style="fill:none;stroke:#b0b0b0;stroke-linecap:square;stroke-width:0.8;"/>
     </g>
     <g id="line2d_8">
      <g>
       <use style="stroke:#000000;stroke-width:0.8;" x="319.970468" xlink:href="#m0b6e82862b" y="298.245375"/>
      </g>
     </g>
     <g id="text_4">
      <!-- 6 -->
      <defs>
       <path d="M 33.015625 40.375 
Q 26.375 40.375 22.484375 35.828125 
Q 18.609375 31.296875 18.609375 23.390625 
Q 18.609375 15.53125 22.484375 10.953125 
Q 26.375 6.390625 33.015625 6.390625 
Q 39.65625 6.390625 43.53125 10.953125 
Q 47.40625 15.53125 47.40625 23.390625 
Q 47.40625 31.296875 43.53125 35.828125 
Q 39.65625 40.375 33.015625 40.375 
M 52.59375 71.296875 
L 52.59375 62.3125 
Q 48.875 64.0625 45.09375 64.984375 
Q 41.3125 65.921875 37.59375 65.921875 
Q 27.828125 65.921875 22.671875 59.328125 
Q 17.53125 52.734375 16.796875 39.40625 
Q 19.671875 43.65625 24.015625 45.921875 
Q 28.375 48.1875 33.59375 48.1875 
Q 44.578125 48.1875 50.953125 41.515625 
Q 57.328125 34.859375 57.328125 23.390625 
Q 57.328125 12.15625 50.6875 5.359375 
Q 44.046875 -1.421875 33.015625 -1.421875 
Q 20.359375 -1.421875 13.671875 8.265625 
Q 6.984375 17.96875 6.984375 36.375 
Q 6.984375 53.65625 15.1875 63.9375 
Q 23.390625 74.21875 37.203125 74.21875 
Q 40.921875 74.21875 44.703125 73.484375 
Q 48.484375 72.75 52.59375 71.296875 
" id="DejaVuSans-36"/>
      </defs>
      <g transform="translate(313.607968 320.44225)scale(0.2 -0.2)">
       <use xlink:href="#DejaVuSans-36"/>
      </g>
     </g>
    </g>
    <g id="xtick_5">
     <g id="line2d_9">
      <path clip-path="url(#pf75da51bf0)" d="M 402.256183 298.245375 
L 402.256183 32.133375 
" style="fill:none;stroke:#b0b0b0;stroke-linecap:square;stroke-width:0.8;"/>
     </g>
     <g id="line2d_10">
      <g>
       <use style="stroke:#000000;stroke-width:0.8;" x="402.256183" xlink:href="#m0b6e82862b" y="298.245375"/>
      </g>
     </g>
     <g id="text_5">
      <!-- 8 -->
      <defs>
       <path d="M 31.78125 34.625 
Q 24.75 34.625 20.71875 30.859375 
Q 16.703125 27.09375 16.703125 20.515625 
Q 16.703125 13.921875 20.71875 10.15625 
Q 24.75 6.390625 31.78125 6.390625 
Q 38.8125 6.390625 42.859375 10.171875 
Q 46.921875 13.96875 46.921875 20.515625 
Q 46.921875 27.09375 42.890625 30.859375 
Q 38.875 34.625 31.78125 34.625 
M 21.921875 38.8125 
Q 15.578125 40.375 12.03125 44.71875 
Q 8.5 49.078125 8.5 55.328125 
Q 8.5 64.0625 14.71875 69.140625 
Q 20.953125 74.21875 31.78125 74.21875 
Q 42.671875 74.21875 48.875 69.140625 
Q 55.078125 64.0625 55.078125 55.328125 
Q 55.078125 49.078125 51.53125 44.71875 
Q 48 40.375 41.703125 38.8125 
Q 48.828125 37.15625 52.796875 32.3125 
Q 56.78125 27.484375 56.78125 20.515625 
Q 56.78125 9.90625 50.3125 4.234375 
Q 43.84375 -1.421875 31.78125 -1.421875 
Q 19.734375 -1.421875 13.25 4.234375 
Q 6.78125 9.90625 6.78125 20.515625 
Q 6.78125 27.484375 10.78125 32.3125 
Q 14.796875 37.15625 21.921875 38.8125 
M 18.3125 54.390625 
Q 18.3125 48.734375 21.84375 45.5625 
Q 25.390625 42.390625 31.78125 42.390625 
Q 38.140625 42.390625 41.71875 45.5625 
Q 45.3125 48.734375 45.3125 54.390625 
Q 45.3125 60.0625 41.71875 63.234375 
Q 38.140625 66.40625 31.78125 66.40625 
Q 25.390625 66.40625 21.84375 63.234375 
Q 18.3125 60.0625 18.3125 54.390625 
" id="DejaVuSans-38"/>
      </defs>
      <g transform="translate(395.893683 320.44225)scale(0.2 -0.2)">
       <use xlink:href="#DejaVuSans-38"/>
      </g>
     </g>
    </g>
    <g id="xtick_6">
     <g id="line2d_11">
      <defs>
       <path d="M 0 0 
L 0 2 
" id="m8df75a2d9b" style="stroke:#000000;stroke-width:0.6;"/>
      </defs>
      <g>
       <use style="stroke:#000000;stroke-width:0.6;" x="85.498559" xlink:href="#m8df75a2d9b" y="298.245375"/>
      </g>
     </g>
    </g>
    <g id="xtick_7">
     <g id="line2d_12">
      <g>
       <use style="stroke:#000000;stroke-width:0.6;" x="97.883794" xlink:href="#m8df75a2d9b" y="298.245375"/>
      </g>
     </g>
    </g>
    <g id="xtick_8">
     <g id="line2d_13">
      <g>
       <use style="stroke:#000000;stroke-width:0.6;" x="105.128691" xlink:href="#m8df75a2d9b" y="298.245375"/>
      </g>
     </g>
    </g>
    <g id="xtick_9">
     <g id="line2d_14">
      <g>
       <use style="stroke:#000000;stroke-width:0.6;" x="110.269028" xlink:href="#m8df75a2d9b" y="298.245375"/>
      </g>
     </g>
    </g>
    <g id="xtick_10">
     <g id="line2d_15">
      <g>
       <use style="stroke:#000000;stroke-width:0.6;" x="167.784274" xlink:href="#m8df75a2d9b" y="298.245375"/>
      </g>
     </g>
    </g>
    <g id="xtick_11">
     <g id="line2d_16">
      <g>
       <use style="stroke:#000000;stroke-width:0.6;" x="180.169508" xlink:href="#m8df75a2d9b" y="298.245375"/>
      </g>
     </g>
    </g>
    <g id="xtick_12">
     <g id="line2d_17">
      <g>
       <use style="stroke:#000000;stroke-width:0.6;" x="187.414405" xlink:href="#m8df75a2d9b" y="298.245375"/>
      </g>
     </g>
    </g>
    <g id="xtick_13">
     <g id="line2d_18">
      <g>
       <use style="stroke:#000000;stroke-width:0.6;" x="192.554742" xlink:href="#m8df75a2d9b" y="298.245375"/>
      </g>
     </g>
    </g>
    <g id="xtick_14">
     <g id="line2d_19">
      <g>
       <use style="stroke:#000000;stroke-width:0.6;" x="250.069988" xlink:href="#m8df75a2d9b" y="298.245375"/>
      </g>
     </g>
    </g>
    <g id="xtick_15">
     <g id="line2d_20">
      <g>
       <use style="stroke:#000000;stroke-width:0.6;" x="262.455222" xlink:href="#m8df75a2d9b" y="298.245375"/>
      </g>
     </g>
    </g>
    <g id="xtick_16">
     <g id="line2d_21">
      <g>
       <use style="stroke:#000000;stroke-width:0.6;" x="269.70012" xlink:href="#m8df75a2d9b" y="298.245375"/>
      </g>
     </g>
    </g>
    <g id="xtick_17">
     <g id="line2d_22">
      <g>
       <use style="stroke:#000000;stroke-width:0.6;" x="274.840456" xlink:href="#m8df75a2d9b" y="298.245375"/>
      </g>
     </g>
    </g>
    <g id="xtick_18">
     <g id="line2d_23">
      <g>
       <use style="stroke:#000000;stroke-width:0.6;" x="332.355702" xlink:href="#m8df75a2d9b" y="298.245375"/>
      </g>
     </g>
    </g>
    <g id="xtick_19">
     <g id="line2d_24">
      <g>
       <use style="stroke:#000000;stroke-width:0.6;" x="344.740936" xlink:href="#m8df75a2d9b" y="298.245375"/>
      </g>
     </g>
    </g>
    <g id="xtick_20">
     <g id="line2d_25">
      <g>
       <use style="stroke:#000000;stroke-width:0.6;" x="351.985834" xlink:href="#m8df75a2d9b" y="298.245375"/>
      </g>
     </g>
    </g>
    <g id="xtick_21">
     <g id="line2d_26">
      <g>
       <use style="stroke:#000000;stroke-width:0.6;" x="357.126171" xlink:href="#m8df75a2d9b" y="298.245375"/>
      </g>
     </g>
    </g>
    <g id="xtick_22">
     <g id="line2d_27">
      <g>
       <use style="stroke:#000000;stroke-width:0.6;" x="414.641417" xlink:href="#m8df75a2d9b" y="298.245375"/>
      </g>
     </g>
    </g>
    <g id="xtick_23">
     <g id="line2d_28">
      <g>
       <use style="stroke:#000000;stroke-width:0.6;" x="427.026651" xlink:href="#m8df75a2d9b" y="298.245375"/>
      </g>
     </g>
    </g>
    <g id="text_6">
     <!-- log10 of (# f-evals / dimension) -->
     <defs>
      <path d="M 9.421875 75.984375 
L 18.40625 75.984375 
L 18.40625 0 
L 9.421875 0 
z
" id="DejaVuSans-6c"/>
      <path d="M 30.609375 48.390625 
Q 23.390625 48.390625 19.1875 42.75 
Q 14.984375 37.109375 14.984375 27.296875 
Q 14.984375 17.484375 19.15625 11.84375 
Q 23.34375 6.203125 30.609375 6.203125 
Q 37.796875 6.203125 41.984375 11.859375 
Q 46.1875 17.53125 46.1875 27.296875 
Q 46.1875 37.015625 41.984375 42.703125 
Q 37.796875 48.390625 30.609375 48.390625 
M 30.609375 56 
Q 42.328125 56 49.015625 48.375 
Q 55.71875 40.765625 55.71875 27.296875 
Q 55.71875 13.875 49.015625 6.21875 
Q 42.328125 -1.421875 30.609375 -1.421875 
Q 18.84375 -1.421875 12.171875 6.21875 
Q 5.515625 13.875 5.515625 27.296875 
Q 5.515625 40.765625 12.171875 48.375 
Q 18.84375 56 30.609375 56 
" id="DejaVuSans-6f"/>
      <path d="M 45.40625 27.984375 
Q 45.40625 37.75 41.375 43.109375 
Q 37.359375 48.484375 30.078125 48.484375 
Q 22.859375 48.484375 18.828125 43.109375 
Q 14.796875 37.75 14.796875 27.984375 
Q 14.796875 18.265625 18.828125 12.890625 
Q 22.859375 7.515625 30.078125 7.515625 
Q 37.359375 7.515625 41.375 12.890625 
Q 45.40625 18.265625 45.40625 27.984375 
M 54.390625 6.78125 
Q 54.390625 -7.171875 48.1875 -13.984375 
Q 42 -20.796875 29.203125 -20.796875 
Q 24.46875 -20.796875 20.265625 -20.09375 
Q 16.0625 -19.390625 12.109375 -17.921875 
L 12.109375 -9.1875 
Q 16.0625 -11.328125 19.921875 -12.34375 
Q 23.78125 -13.375 27.78125 -13.375 
Q 36.625 -13.375 41.015625 -8.765625 
Q 45.40625 -4.15625 45.40625 5.171875 
L 45.40625 9.625 
Q 42.625 4.78125 38.28125 2.390625 
Q 33.9375 0 27.875 0 
Q 17.828125 0 11.671875 7.65625 
Q 5.515625 15.328125 5.515625 27.984375 
Q 5.515625 40.671875 11.671875 48.328125 
Q 17.828125 56 27.875 56 
Q 33.9375 56 38.28125 53.609375 
Q 42.625 51.21875 45.40625 46.390625 
L 45.40625 54.6875 
L 54.390625 54.6875 
z
" id="DejaVuSans-67"/>
      <path d="M 12.40625 8.296875 
L 28.515625 8.296875 
L 28.515625 63.921875 
L 10.984375 60.40625 
L 10.984375 69.390625 
L 28.421875 72.90625 
L 38.28125 72.90625 
L 38.28125 8.296875 
L 54.390625 8.296875 
L 54.390625 0 
L 12.40625 0 
z
" id="DejaVuSans-31"/>
      <path id="DejaVuSans-20"/>
      <path d="M 37.109375 75.984375 
L 37.109375 68.5 
L 28.515625 68.5 
Q 23.6875 68.5 21.796875 66.546875 
Q 19.921875 64.59375 19.921875 59.515625 
L 19.921875 54.6875 
L 34.71875 54.6875 
L 34.71875 47.703125 
L 19.921875 47.703125 
L 19.921875 0 
L 10.890625 0 
L 10.890625 47.703125 
L 2.296875 47.703125 
L 2.296875 54.6875 
L 10.890625 54.6875 
L 10.890625 58.5 
Q 10.890625 67.625 15.140625 71.796875 
Q 19.390625 75.984375 28.609375 75.984375 
z
" id="DejaVuSans-66"/>
      <path d="M 31 75.875 
Q 24.46875 64.65625 21.28125 53.65625 
Q 18.109375 42.671875 18.109375 31.390625 
Q 18.109375 20.125 21.3125 9.0625 
Q 24.515625 -2 31 -13.1875 
L 23.1875 -13.1875 
Q 15.875 -1.703125 12.234375 9.375 
Q 8.59375 20.453125 8.59375 31.390625 
Q 8.59375 42.28125 12.203125 53.3125 
Q 15.828125 64.359375 23.1875 75.875 
z
" id="DejaVuSans-28"/>
      <path d="M 51.125 44 
L 36.921875 44 
L 32.8125 27.6875 
L 47.125 27.6875 
z
M 43.796875 71.78125 
L 38.71875 51.515625 
L 52.984375 51.515625 
L 58.109375 71.78125 
L 65.921875 71.78125 
L 60.890625 51.515625 
L 76.125 51.515625 
L 76.125 44 
L 58.984375 44 
L 54.984375 27.6875 
L 70.515625 27.6875 
L 70.515625 20.21875 
L 53.078125 20.21875 
L 48 0 
L 40.1875 0 
L 45.21875 20.21875 
L 30.90625 20.21875 
L 25.875 0 
L 18.015625 0 
L 23.09375 20.21875 
L 7.71875 20.21875 
L 7.71875 27.6875 
L 24.90625 27.6875 
L 29 44 
L 13.28125 44 
L 13.28125 51.515625 
L 30.90625 51.515625 
L 35.890625 71.78125 
z
" id="DejaVuSans-23"/>
      <path d="M 4.890625 31.390625 
L 31.203125 31.390625 
L 31.203125 23.390625 
L 4.890625 23.390625 
z
" id="DejaVuSans-2d"/>
      <path d="M 56.203125 29.59375 
L 56.203125 25.203125 
L 14.890625 25.203125 
Q 15.484375 15.921875 20.484375 11.0625 
Q 25.484375 6.203125 34.421875 6.203125 
Q 39.59375 6.203125 44.453125 7.46875 
Q 49.3125 8.734375 54.109375 11.28125 
L 54.109375 2.78125 
Q 49.265625 0.734375 44.1875 -0.34375 
Q 39.109375 -1.421875 33.890625 -1.421875 
Q 20.796875 -1.421875 13.15625 6.1875 
Q 5.515625 13.8125 5.515625 26.8125 
Q 5.515625 40.234375 12.765625 48.109375 
Q 20.015625 56 32.328125 56 
Q 43.359375 56 49.78125 48.890625 
Q 56.203125 41.796875 56.203125 29.59375 
M 47.21875 32.234375 
Q 47.125 39.59375 43.09375 43.984375 
Q 39.0625 48.390625 32.421875 48.390625 
Q 24.90625 48.390625 20.390625 44.140625 
Q 15.875 39.890625 15.1875 32.171875 
z
" id="DejaVuSans-65"/>
      <path d="M 2.984375 54.6875 
L 12.5 54.6875 
L 29.59375 8.796875 
L 46.6875 54.6875 
L 56.203125 54.6875 
L 35.6875 0 
L 23.484375 0 
z
" id="DejaVuSans-76"/>
      <path d="M 34.28125 27.484375 
Q 23.390625 27.484375 19.1875 25 
Q 14.984375 22.515625 14.984375 16.5 
Q 14.984375 11.71875 18.140625 8.90625 
Q 21.296875 6.109375 26.703125 6.109375 
Q 34.1875 6.109375 38.703125 11.40625 
Q 43.21875 16.703125 43.21875 25.484375 
L 43.21875 27.484375 
z
M 52.203125 31.203125 
L 52.203125 0 
L 43.21875 0 
L 43.21875 8.296875 
Q 40.140625 3.328125 35.546875 0.953125 
Q 30.953125 -1.421875 24.3125 -1.421875 
Q 15.921875 -1.421875 10.953125 3.296875 
Q 6 8.015625 6 15.921875 
Q 6 25.140625 12.171875 29.828125 
Q 18.359375 34.515625 30.609375 34.515625 
L 43.21875 34.515625 
L 43.21875 35.40625 
Q 43.21875 41.609375 39.140625 45 
Q 35.0625 48.390625 27.6875 48.390625 
Q 23 48.390625 18.546875 47.265625 
Q 14.109375 46.140625 10.015625 43.890625 
L 10.015625 52.203125 
Q 14.9375 54.109375 19.578125 55.046875 
Q 24.21875 56 28.609375 56 
Q 40.484375 56 46.34375 49.84375 
Q 52.203125 43.703125 52.203125 31.203125 
" id="DejaVuSans-61"/>
      <path d="M 44.28125 53.078125 
L 44.28125 44.578125 
Q 40.484375 46.53125 36.375 47.5 
Q 32.28125 48.484375 27.875 48.484375 
Q 21.1875 48.484375 17.84375 46.4375 
Q 14.5 44.390625 14.5 40.28125 
Q 14.5 37.15625 16.890625 35.375 
Q 19.28125 33.59375 26.515625 31.984375 
L 29.59375 31.296875 
Q 39.15625 29.25 43.1875 25.515625 
Q 47.21875 21.78125 47.21875 15.09375 
Q 47.21875 7.46875 41.1875 3.015625 
Q 35.15625 -1.421875 24.609375 -1.421875 
Q 20.21875 -1.421875 15.453125 -0.5625 
Q 10.6875 0.296875 5.421875 2 
L 5.421875 11.28125 
Q 10.40625 8.6875 15.234375 7.390625 
Q 20.0625 6.109375 24.8125 6.109375 
Q 31.15625 6.109375 34.5625 8.28125 
Q 37.984375 10.453125 37.984375 14.40625 
Q 37.984375 18.0625 35.515625 20.015625 
Q 33.0625 21.96875 24.703125 23.78125 
L 21.578125 24.515625 
Q 13.234375 26.265625 9.515625 29.90625 
Q 5.8125 33.546875 5.8125 39.890625 
Q 5.8125 47.609375 11.28125 51.796875 
Q 16.75 56 26.8125 56 
Q 31.78125 56 36.171875 55.265625 
Q 40.578125 54.546875 44.28125 53.078125 
" id="DejaVuSans-73"/>
      <path d="M 25.390625 72.90625 
L 33.6875 72.90625 
L 8.296875 -9.28125 
L 0 -9.28125 
z
" id="DejaVuSans-2f"/>
      <path d="M 45.40625 46.390625 
L 45.40625 75.984375 
L 54.390625 75.984375 
L 54.390625 0 
L 45.40625 0 
L 45.40625 8.203125 
Q 42.578125 3.328125 38.25 0.953125 
Q 33.9375 -1.421875 27.875 -1.421875 
Q 17.96875 -1.421875 11.734375 6.484375 
Q 5.515625 14.40625 5.515625 27.296875 
Q 5.515625 40.1875 11.734375 48.09375 
Q 17.96875 56 27.875 56 
Q 33.9375 56 38.25 53.625 
Q 42.578125 51.265625 45.40625 46.390625 
M 14.796875 27.296875 
Q 14.796875 17.390625 18.875 11.75 
Q 22.953125 6.109375 30.078125 6.109375 
Q 37.203125 6.109375 41.296875 11.75 
Q 45.40625 17.390625 45.40625 27.296875 
Q 45.40625 37.203125 41.296875 42.84375 
Q 37.203125 48.484375 30.078125 48.484375 
Q 22.953125 48.484375 18.875 42.84375 
Q 14.796875 37.203125 14.796875 27.296875 
" id="DejaVuSans-64"/>
      <path d="M 9.421875 54.6875 
L 18.40625 54.6875 
L 18.40625 0 
L 9.421875 0 
z
M 9.421875 75.984375 
L 18.40625 75.984375 
L 18.40625 64.59375 
L 9.421875 64.59375 
z
" id="DejaVuSans-69"/>
      <path d="M 52 44.1875 
Q 55.375 50.25 60.0625 53.125 
Q 64.75 56 71.09375 56 
Q 79.640625 56 84.28125 50.015625 
Q 88.921875 44.046875 88.921875 33.015625 
L 88.921875 0 
L 79.890625 0 
L 79.890625 32.71875 
Q 79.890625 40.578125 77.09375 44.375 
Q 74.3125 48.1875 68.609375 48.1875 
Q 61.625 48.1875 57.5625 43.546875 
Q 53.515625 38.921875 53.515625 30.90625 
L 53.515625 0 
L 44.484375 0 
L 44.484375 32.71875 
Q 44.484375 40.625 41.703125 44.40625 
Q 38.921875 48.1875 33.109375 48.1875 
Q 26.21875 48.1875 22.15625 43.53125 
Q 18.109375 38.875 18.109375 30.90625 
L 18.109375 0 
L 9.078125 0 
L 9.078125 54.6875 
L 18.109375 54.6875 
L 18.109375 46.1875 
Q 21.1875 51.21875 25.484375 53.609375 
Q 29.78125 56 35.6875 56 
Q 41.65625 56 45.828125 52.96875 
Q 50 49.953125 52 44.1875 
" id="DejaVuSans-6d"/>
      <path d="M 54.890625 33.015625 
L 54.890625 0 
L 45.90625 0 
L 45.90625 32.71875 
Q 45.90625 40.484375 42.875 44.328125 
Q 39.84375 48.1875 33.796875 48.1875 
Q 26.515625 48.1875 22.3125 43.546875 
Q 18.109375 38.921875 18.109375 30.90625 
L 18.109375 0 
L 9.078125 0 
L 9.078125 54.6875 
L 18.109375 54.6875 
L 18.109375 46.1875 
Q 21.34375 51.125 25.703125 53.5625 
Q 30.078125 56 35.796875 56 
Q 45.21875 56 50.046875 50.171875 
Q 54.890625 44.34375 54.890625 33.015625 
" id="DejaVuSans-6e"/>
      <path d="M 8.015625 75.875 
L 15.828125 75.875 
Q 23.140625 64.359375 26.78125 53.3125 
Q 30.421875 42.28125 30.421875 31.390625 
Q 30.421875 20.453125 26.78125 9.375 
Q 23.140625 -1.703125 15.828125 -13.1875 
L 8.015625 -13.1875 
Q 14.5 -2 17.703125 9.0625 
Q 20.90625 20.125 20.90625 31.390625 
Q 20.90625 42.671875 17.703125 53.65625 
Q 14.5 64.65625 8.015625 75.875 
" id="DejaVuSans-29"/>
     </defs>
     <g transform="translate(109.328482 342.278812)scale(0.18 -0.18)">
      <use xlink:href="#DejaVuSans-6c"/>
      <use x="27.783203" xlink:href="#DejaVuSans-6f"/>
      <use x="88.964844" xlink:href="#DejaVuSans-67"/>
      <use x="152.441406" xlink:href="#DejaVuSans-31"/>
      <use x="216.064453" xlink:href="#DejaVuSans-30"/>
      <use x="279.6875" xlink:href="#DejaVuSans-20"/>
      <use x="311.474609" xlink:href="#DejaVuSans-6f"/>
      <use x="372.65625" xlink:href="#DejaVuSans-66"/>
      <use x="407.861328" xlink:href="#DejaVuSans-20"/>
      <use x="439.648438" xlink:href="#DejaVuSans-28"/>
      <use x="478.662109" xlink:href="#DejaVuSans-23"/>
      <use x="562.451172" xlink:href="#DejaVuSans-20"/>
      <use x="594.238281" xlink:href="#DejaVuSans-66"/>
      <use x="629.365234" xlink:href="#DejaVuSans-2d"/>
      <use x="665.449219" xlink:href="#DejaVuSans-65"/>
      <use x="726.972656" xlink:href="#DejaVuSans-76"/>
      <use x="786.152344" xlink:href="#DejaVuSans-61"/>
      <use x="847.431641" xlink:href="#DejaVuSans-6c"/>
      <use x="875.214844" xlink:href="#DejaVuSans-73"/>
      <use x="927.314453" xlink:href="#DejaVuSans-20"/>
      <use x="959.101562" xlink:href="#DejaVuSans-2f"/>
      <use x="992.792969" xlink:href="#DejaVuSans-20"/>
      <use x="1024.580078" xlink:href="#DejaVuSans-64"/>
      <use x="1088.056641" xlink:href="#DejaVuSans-69"/>
      <use x="1115.839844" xlink:href="#DejaVuSans-6d"/>
      <use x="1213.251953" xlink:href="#DejaVuSans-65"/>
      <use x="1274.775391" xlink:href="#DejaVuSans-6e"/>
      <use x="1338.154297" xlink:href="#DejaVuSans-73"/>
      <use x="1390.253906" xlink:href="#DejaVuSans-69"/>
      <use x="1418.037109" xlink:href="#DejaVuSans-6f"/>
      <use x="1479.21875" xlink:href="#DejaVuSans-6e"/>
      <use x="1542.597656" xlink:href="#DejaVuSans-29"/>
     </g>
    </g>
   </g>
   <g id="matplotlib.axis_2">
    <g id="ytick_1">
     <g id="line2d_29">
      <path clip-path="url(#pf75da51bf0)" d="M 73.113325 298.245375 
L 430.233325 298.245375 
" style="fill:none;stroke:#b0b0b0;stroke-linecap:square;stroke-width:0.8;"/>
     </g>
     <g id="line2d_30">
      <defs>
       <path d="M 0 0 
L -3.5 0 
" id="m6247e118a4" style="stroke:#000000;stroke-width:0.8;"/>
      </defs>
      <g>
       <use style="stroke:#000000;stroke-width:0.8;" x="73.113325" xlink:href="#m6247e118a4" y="298.245375"/>
      </g>
     </g>
     <g id="text_7">
      <!-- 0.0 -->
      <defs>
       <path d="M 10.6875 12.40625 
L 21 12.40625 
L 21 0 
L 10.6875 0 
z
" id="DejaVuSans-2e"/>
      </defs>
      <g transform="translate(34.307075 305.843812)scale(0.2 -0.2)">
       <use xlink:href="#DejaVuSans-30"/>
       <use x="63.623047" xlink:href="#DejaVuSans-2e"/>
       <use x="95.410156" xlink:href="#DejaVuSans-30"/>
      </g>
     </g>
    </g>
    <g id="ytick_2">
     <g id="line2d_31">
      <path clip-path="url(#pf75da51bf0)" d="M 73.113325 245.549929 
L 430.233325 245.549929 
" style="fill:none;stroke:#b0b0b0;stroke-linecap:square;stroke-width:0.8;"/>
     </g>
     <g id="line2d_32">
      <g>
       <use style="stroke:#000000;stroke-width:0.8;" x="73.113325" xlink:href="#m6247e118a4" y="245.549929"/>
      </g>
     </g>
     <g id="text_8">
      <!-- 0.2 -->
      <g transform="translate(34.307075 253.148367)scale(0.2 -0.2)">
       <use xlink:href="#DejaVuSans-30"/>
       <use x="63.623047" xlink:href="#DejaVuSans-2e"/>
       <use x="95.410156" xlink:href="#DejaVuSans-32"/>
      </g>
     </g>
    </g>
    <g id="ytick_3">
     <g id="line2d_33">
      <path clip-path="url(#pf75da51bf0)" d="M 73.113325 192.854484 
L 430.233325 192.854484 
" style="fill:none;stroke:#b0b0b0;stroke-linecap:square;stroke-width:0.8;"/>
     </g>
     <g id="line2d_34">
      <g>
       <use style="stroke:#000000;stroke-width:0.8;" x="73.113325" xlink:href="#m6247e118a4" y="192.854484"/>
      </g>
     </g>
     <g id="text_9">
      <!-- 0.4 -->
      <g transform="translate(34.307075 200.452921)scale(0.2 -0.2)">
       <use xlink:href="#DejaVuSans-30"/>
       <use x="63.623047" xlink:href="#DejaVuSans-2e"/>
       <use x="95.410156" xlink:href="#DejaVuSans-34"/>
      </g>
     </g>
    </g>
    <g id="ytick_4">
     <g id="line2d_35">
      <path clip-path="url(#pf75da51bf0)" d="M 73.113325 140.159038 
L 430.233325 140.159038 
" style="fill:none;stroke:#b0b0b0;stroke-linecap:square;stroke-width:0.8;"/>
     </g>
     <g id="line2d_36">
      <g>
       <use style="stroke:#000000;stroke-width:0.8;" x="73.113325" xlink:href="#m6247e118a4" y="140.159038"/>
      </g>
     </g>
     <g id="text_10">
      <!-- 0.6 -->
      <g transform="translate(34.307075 147.757476)scale(0.2 -0.2)">
       <use xlink:href="#DejaVuSans-30"/>
       <use x="63.623047" xlink:href="#DejaVuSans-2e"/>
       <use x="95.410156" xlink:href="#DejaVuSans-36"/>
      </g>
     </g>
    </g>
    <g id="ytick_5">
     <g id="line2d_37">
      <path clip-path="url(#pf75da51bf0)" d="M 73.113325 87.463593 
L 430.233325 87.463593 
" style="fill:none;stroke:#b0b0b0;stroke-linecap:square;stroke-width:0.8;"/>
     </g>
     <g id="line2d_38">
      <g>
       <use style="stroke:#000000;stroke-width:0.8;" x="73.113325" xlink:href="#m6247e118a4" y="87.463593"/>
      </g>
     </g>
     <g id="text_11">
      <!-- 0.8 -->
      <g transform="translate(34.307075 95.06203)scale(0.2 -0.2)">
       <use xlink:href="#DejaVuSans-30"/>
       <use x="63.623047" xlink:href="#DejaVuSans-2e"/>
       <use x="95.410156" xlink:href="#DejaVuSans-38"/>
      </g>
     </g>
    </g>
    <g id="ytick_6">
     <g id="line2d_39">
      <path clip-path="url(#pf75da51bf0)" d="M 73.113325 34.768147 
L 430.233325 34.768147 
" style="fill:none;stroke:#b0b0b0;stroke-linecap:square;stroke-width:0.8;"/>
     </g>
     <g id="line2d_40">
      <g>
       <use style="stroke:#000000;stroke-width:0.8;" x="73.113325" xlink:href="#m6247e118a4" y="34.768147"/>
      </g>
     </g>
     <g id="text_12">
      <!-- 1.0 -->
      <g transform="translate(34.307075 42.366585)scale(0.2 -0.2)">
       <use xlink:href="#DejaVuSans-31"/>
       <use x="63.623047" xlink:href="#DejaVuSans-2e"/>
       <use x="95.410156" xlink:href="#DejaVuSans-30"/>
      </g>
     </g>
    </g>
    <g id="text_13">
     <!-- Proportion of function+target pairs -->
     <defs>
      <path d="M 19.671875 64.796875 
L 19.671875 37.40625 
L 32.078125 37.40625 
Q 38.96875 37.40625 42.71875 40.96875 
Q 46.484375 44.53125 46.484375 51.125 
Q 46.484375 57.671875 42.71875 61.234375 
Q 38.96875 64.796875 32.078125 64.796875 
z
M 9.8125 72.90625 
L 32.078125 72.90625 
Q 44.34375 72.90625 50.609375 67.359375 
Q 56.890625 61.8125 56.890625 51.125 
Q 56.890625 40.328125 50.609375 34.8125 
Q 44.34375 29.296875 32.078125 29.296875 
L 19.671875 29.296875 
L 19.671875 0 
L 9.8125 0 
z
" id="DejaVuSans-50"/>
      <path d="M 41.109375 46.296875 
Q 39.59375 47.171875 37.8125 47.578125 
Q 36.03125 48 33.890625 48 
Q 26.265625 48 22.1875 43.046875 
Q 18.109375 38.09375 18.109375 28.8125 
L 18.109375 0 
L 9.078125 0 
L 9.078125 54.6875 
L 18.109375 54.6875 
L 18.109375 46.1875 
Q 20.953125 51.171875 25.484375 53.578125 
Q 30.03125 56 36.53125 56 
Q 37.453125 56 38.578125 55.875 
Q 39.703125 55.765625 41.0625 55.515625 
z
" id="DejaVuSans-72"/>
      <path d="M 18.109375 8.203125 
L 18.109375 -20.796875 
L 9.078125 -20.796875 
L 9.078125 54.6875 
L 18.109375 54.6875 
L 18.109375 46.390625 
Q 20.953125 51.265625 25.265625 53.625 
Q 29.59375 56 35.59375 56 
Q 45.5625 56 51.78125 48.09375 
Q 58.015625 40.1875 58.015625 27.296875 
Q 58.015625 14.40625 51.78125 6.484375 
Q 45.5625 -1.421875 35.59375 -1.421875 
Q 29.59375 -1.421875 25.265625 0.953125 
Q 20.953125 3.328125 18.109375 8.203125 
M 48.6875 27.296875 
Q 48.6875 37.203125 44.609375 42.84375 
Q 40.53125 48.484375 33.40625 48.484375 
Q 26.265625 48.484375 22.1875 42.84375 
Q 18.109375 37.203125 18.109375 27.296875 
Q 18.109375 17.390625 22.1875 11.75 
Q 26.265625 6.109375 33.40625 6.109375 
Q 40.53125 6.109375 44.609375 11.75 
Q 48.6875 17.390625 48.6875 27.296875 
" id="DejaVuSans-70"/>
      <path d="M 18.3125 70.21875 
L 18.3125 54.6875 
L 36.8125 54.6875 
L 36.8125 47.703125 
L 18.3125 47.703125 
L 18.3125 18.015625 
Q 18.3125 11.328125 20.140625 9.421875 
Q 21.96875 7.515625 27.59375 7.515625 
L 36.8125 7.515625 
L 36.8125 0 
L 27.59375 0 
Q 17.1875 0 13.234375 3.875 
Q 9.28125 7.765625 9.28125 18.015625 
L 9.28125 47.703125 
L 2.6875 47.703125 
L 2.6875 54.6875 
L 9.28125 54.6875 
L 9.28125 70.21875 
z
" id="DejaVuSans-74"/>
      <path d="M 8.5 21.578125 
L 8.5 54.6875 
L 17.484375 54.6875 
L 17.484375 21.921875 
Q 17.484375 14.15625 20.5 10.265625 
Q 23.53125 6.390625 29.59375 6.390625 
Q 36.859375 6.390625 41.078125 11.03125 
Q 45.3125 15.671875 45.3125 23.6875 
L 45.3125 54.6875 
L 54.296875 54.6875 
L 54.296875 0 
L 45.3125 0 
L 45.3125 8.40625 
Q 42.046875 3.421875 37.71875 1 
Q 33.40625 -1.421875 27.6875 -1.421875 
Q 18.265625 -1.421875 13.375 4.4375 
Q 8.5 10.296875 8.5 21.578125 
M 31.109375 56 
z
" id="DejaVuSans-75"/>
      <path d="M 48.78125 52.59375 
L 48.78125 44.1875 
Q 44.96875 46.296875 41.140625 47.34375 
Q 37.3125 48.390625 33.40625 48.390625 
Q 24.65625 48.390625 19.8125 42.84375 
Q 14.984375 37.3125 14.984375 27.296875 
Q 14.984375 17.28125 19.8125 11.734375 
Q 24.65625 6.203125 33.40625 6.203125 
Q 37.3125 6.203125 41.140625 7.25 
Q 44.96875 8.296875 48.78125 10.40625 
L 48.78125 2.09375 
Q 45.015625 0.34375 40.984375 -0.53125 
Q 36.96875 -1.421875 32.421875 -1.421875 
Q 20.0625 -1.421875 12.78125 6.34375 
Q 5.515625 14.109375 5.515625 27.296875 
Q 5.515625 40.671875 12.859375 48.328125 
Q 20.21875 56 33.015625 56 
Q 37.15625 56 41.109375 55.140625 
Q 45.0625 54.296875 48.78125 52.59375 
" id="DejaVuSans-63"/>
      <path d="M 46 62.703125 
L 46 35.5 
L 73.1875 35.5 
L 73.1875 27.203125 
L 46 27.203125 
L 46 0 
L 37.796875 0 
L 37.796875 27.203125 
L 10.59375 27.203125 
L 10.59375 35.5 
L 37.796875 35.5 
L 37.796875 62.703125 
z
" id="DejaVuSans-2b"/>
     </defs>
     <g transform="translate(26.563638 323.17875)rotate(-90)scale(0.18 -0.18)">
      <use xlink:href="#DejaVuSans-50"/>
      <use x="60.287109" xlink:href="#DejaVuSans-72"/>
      <use x="101.369141" xlink:href="#DejaVuSans-6f"/>
      <use x="162.550781" xlink:href="#DejaVuSans-70"/>
      <use x="226.027344" xlink:href="#DejaVuSans-6f"/>
      <use x="287.208984" xlink:href="#DejaVuSans-72"/>
      <use x="328.322266" xlink:href="#DejaVuSans-74"/>
      <use x="367.53125" xlink:href="#DejaVuSans-69"/>
      <use x="395.314453" xlink:href="#DejaVuSans-6f"/>
      <use x="456.496094" xlink:href="#DejaVuSans-6e"/>
      <use x="519.875" xlink:href="#DejaVuSans-20"/>
      <use x="551.662109" xlink:href="#DejaVuSans-6f"/>
      <use x="612.84375" xlink:href="#DejaVuSans-66"/>
      <use x="648.048828" xlink:href="#DejaVuSans-20"/>
      <use x="679.835938" xlink:href="#DejaVuSans-66"/>
      <use x="715.041016" xlink:href="#DejaVuSans-75"/>
      <use x="778.419922" xlink:href="#DejaVuSans-6e"/>
      <use x="841.798828" xlink:href="#DejaVuSans-63"/>
      <use x="896.779297" xlink:href="#DejaVuSans-74"/>
      <use x="935.988281" xlink:href="#DejaVuSans-69"/>
      <use x="963.771484" xlink:href="#DejaVuSans-6f"/>
      <use x="1024.953125" xlink:href="#DejaVuSans-6e"/>
      <use x="1088.332031" xlink:href="#DejaVuSans-2b"/>
      <use x="1172.121094" xlink:href="#DejaVuSans-74"/>
      <use x="1211.330078" xlink:href="#DejaVuSans-61"/>
      <use x="1272.609375" xlink:href="#DejaVuSans-72"/>
      <use x="1313.707031" xlink:href="#DejaVuSans-67"/>
      <use x="1377.183594" xlink:href="#DejaVuSans-65"/>
      <use x="1438.707031" xlink:href="#DejaVuSans-74"/>
      <use x="1477.916016" xlink:href="#DejaVuSans-20"/>
      <use x="1509.703125" xlink:href="#DejaVuSans-70"/>
      <use x="1573.179688" xlink:href="#DejaVuSans-61"/>
      <use x="1634.458984" xlink:href="#DejaVuSans-69"/>
      <use x="1662.242188" xlink:href="#DejaVuSans-72"/>
      <use x="1703.355469" xlink:href="#DejaVuSans-73"/>
     </g>
    </g>
   </g>
   <g id="line2d_41">
    <defs>
     <path d="M 0 1.5 
C 0.397805 1.5 0.77937 1.341951 1.06066 1.06066 
C 1.341951 0.77937 1.5 0.397805 1.5 0 
C 1.5 -0.397805 1.341951 -0.77937 1.06066 -1.06066 
C 0.77937 -1.341951 0.397805 -1.5 0 -1.5 
C -0.397805 -1.5 -0.77937 -1.341951 -1.06066 -1.06066 
C -1.341951 -0.77937 -1.5 -0.397805 -1.5 0 
C -1.5 0.397805 -1.341951 0.77937 -1.06066 1.06066 
C -0.77937 1.341951 -0.397805 1.5 0 1.5 
z
" id="m5af9bc5d6b" style="stroke:#00bfbf;"/>
    </defs>
    <g>
     <use style="fill:#00bfbf;stroke:#00bfbf;" x="226.171308" xlink:href="#m5af9bc5d6b" y="34.768147"/>
     <use style="fill:#00bfbf;stroke:#00bfbf;" x="226.171308" xlink:href="#m5af9bc5d6b" y="34.768147"/>
    </g>
   </g>
   <g id="line2d_42">
    <path d="M 60.728091 298.245375 
L 60.728091 219.202207 
L 155.39904 219.202207 
L 155.39904 207.3199 
L 162.643937 207.3199 
L 162.643937 201.637058 
L 171.771429 201.637058 
L 171.771429 199.053948 
L 177.783553 199.053948 
L 177.783553 198.537326 
L 180.169508 198.537326 
L 180.169508 197.504082 
L 182.274069 197.504082 
L 182.274069 195.437594 
L 184.156663 195.437594 
L 184.156663 192.337862 
L 185.859676 192.337862 
L 185.859676 190.787996 
L 187.414405 190.787996 
L 187.414405 190.271374 
L 190.168788 190.271374 
L 190.168788 187.171642 
L 191.40156 187.171642 
L 191.40156 183.555288 
L 194.659303 183.555288 
L 194.659303 183.038666 
L 203.181037 183.038666 
L 203.181037 182.005422 
L 205.489808 182.005422 
L 205.489808 181.4888 
L 206.023224 181.4888 
L 206.023224 180.455556 
L 206.541177 180.455556 
L 206.541177 177.872445 
L 207.534105 177.872445 
L 207.534105 176.839201 
L 208.474749 176.839201 
L 208.474749 172.189603 
L 209.368341 172.189603 
L 209.368341 170.639737 
L 210.630144 170.639737 
L 210.630144 170.123115 
L 211.031692 170.123115 
L 211.031692 169.089871 
L 213.268121 169.089871 
L 213.268121 164.440273 
L 213.615086 164.440273 
L 213.615086 153.074589 
L 213.955441 153.074589 
L 213.955441 147.908369 
L 214.289435 147.908369 
L 214.289435 146.358503 
L 214.617299 146.358503 
L 214.617299 142.225526 
L 214.939256 142.225526 
L 214.939256 133.959574 
L 215.255514 133.959574 
L 215.255514 132.409708 
L 215.566272 132.409708 
L 215.566272 131.376464 
L 215.871717 131.376464 
L 215.871717 127.243488 
L 216.757921 127.243488 
L 216.757921 124.660378 
L 217.043817 124.660378 
L 217.043817 121.044024 
L 217.32521 121.044024 
L 217.32521 120.01078 
L 218.408458 120.01078 
L 218.408458 117.42767 
L 218.926411 117.42767 
L 218.926411 112.778072 
L 219.429771 112.778072 
L 219.429771 111.228206 
L 219.676232 111.228206 
L 219.676232 100.379143 
L 219.919339 100.379143 
L 219.919339 94.179679 
L 220.159183 94.179679 
L 220.159183 93.146435 
L 221.087606 93.146435 
L 221.087606 85.397105 
L 221.312365 85.397105 
L 221.312365 84.880483 
L 221.534332 84.880483 
L 221.534332 82.813995 
L 221.753575 82.813995 
L 221.753575 82.297373 
L 222.184153 82.297373 
L 222.184153 76.614531 
L 222.395613 76.614531 
L 222.395613 72.481554 
L 222.604599 72.481554 
L 222.604599 71.44831 
L 222.811169 71.44831 
L 222.811169 67.831956 
L 223.21728 67.831956 
L 223.21728 64.732224 
L 223.416926 64.732224 
L 223.416926 62.149114 
L 223.614366 62.149114 
L 223.614366 58.016138 
L 223.809648 58.016138 
L 223.809648 54.399784 
L 224.193923 54.399784 
L 224.193923 47.683698 
L 224.383005 47.683698 
L 224.383005 45.61721 
L 224.570108 45.61721 
L 224.570108 43.0341 
L 224.755271 43.0341 
L 224.755271 41.484233 
L 224.938536 41.484233 
L 224.938536 40.967611 
L 225.119939 40.967611 
L 225.119939 39.417745 
L 225.477313 39.417745 
L 225.477313 38.384501 
L 225.82768 38.384501 
L 225.82768 36.834635 
L 226.171308 36.834635 
L 226.171308 34.768147 
L 361.113325 34.768147 
" style="fill:none;stroke:#00bfbf;stroke-linecap:square;stroke-width:1.5;"/>
   </g>
   <g id="line2d_43">
    <defs>
     <path d="M -6 0 
L 6 0 
M 0 6 
L 0 -6 
" id="mddd30f913f" style="stroke:#00bfbf;stroke-width:1.5;"/>
    </defs>
    <g>
     <use style="fill:none;stroke:#00bfbf;stroke-width:1.5;" x="361.113325" xlink:href="#mddd30f913f" y="34.768147"/>
    </g>
   </g>
   <g id="line2d_44"/>
   <g id="line2d_45">
    <defs>
     <path d="M 0 1.5 
C 0.397805 1.5 0.77937 1.341951 1.06066 1.06066 
C 1.341951 0.77937 1.5 0.397805 1.5 0 
C 1.5 -0.397805 1.341951 -0.77937 1.06066 -1.06066 
C 0.77937 -1.341951 0.397805 -1.5 0 -1.5 
C -0.397805 -1.5 -0.77937 -1.341951 -1.06066 -1.06066 
C -1.341951 -0.77937 -1.5 -0.397805 -1.5 0 
C -1.5 0.397805 -1.341951 0.77937 -1.06066 1.06066 
C -0.77937 1.341951 -0.397805 1.5 0 1.5 
z
" id="mc68b01d4f8" style="stroke:#008000;"/>
    </defs>
    <g>
     <use style="fill:#008000;stroke:#008000;" x="239.059903" xlink:href="#mc68b01d4f8" y="34.768147"/>
     <use style="fill:#008000;stroke:#008000;" x="239.059903" xlink:href="#mc68b01d4f8" y="34.768147"/>
    </g>
   </g>
   <g id="line2d_46">
    <path d="M 53.483194 298.245375 
L 53.483194 248.13304 
L 148.154142 248.13304 
L 148.154142 238.317221 
L 155.39904 238.317221 
L 155.39904 237.283977 
L 160.539376 237.283977 
L 160.539376 233.667623 
L 164.526531 233.667623 
L 164.526531 231.084513 
L 167.784274 231.084513 
L 167.784274 227.468159 
L 170.538656 227.468159 
L 170.538656 222.818561 
L 175.029171 222.818561 
L 175.029171 220.235451 
L 176.911765 220.235451 
L 176.911765 218.168963 
L 178.614778 218.168963 
L 178.614778 214.035987 
L 180.169508 214.035987 
L 180.169508 213.519365 
L 181.59972 213.519365 
L 181.59972 213.002743 
L 185.309844 213.002743 
L 185.309844 211.969498 
L 189.296999 211.969498 
L 189.296999 210.936254 
L 191.000013 210.936254 
L 191.000013 209.386388 
L 191.794282 209.386388 
L 191.794282 206.803278 
L 192.554742 206.803278 
L 192.554742 204.220168 
L 193.284154 204.220168 
L 193.284154 202.15368 
L 193.984954 202.15368 
L 193.984954 201.120436 
L 195.309124 201.120436 
L 195.309124 200.603814 
L 195.93614 200.603814 
L 195.93614 196.98746 
L 197.127789 196.98746 
L 197.127789 187.688264 
L 197.695079 187.688264 
L 197.695079 186.65502 
L 199.296279 186.65502 
L 199.296279 183.038666 
L 200.289208 183.038666 
L 200.289208 182.005422 
L 200.765719 182.005422 
L 200.765719 180.972178 
L 201.229852 180.972178 
L 201.229852 179.422312 
L 202.123444 179.422312 
L 202.123444 176.839201 
L 202.974467 176.839201 
L 202.974467 174.772713 
L 203.385247 174.772713 
L 203.385247 173.222847 
L 204.179516 173.222847 
L 204.179516 171.156359 
L 204.563791 171.156359 
L 204.563791 168.573249 
L 204.939976 168.573249 
L 204.939976 168.056627 
L 205.308404 168.056627 
L 205.308404 167.540005 
L 206.023224 167.540005 
L 206.023224 162.890407 
L 206.370188 162.890407 
L 206.370188 161.340541 
L 206.710544 161.340541 
L 206.710544 160.823919 
L 207.044537 160.823919 
L 207.044537 157.724187 
L 207.694358 157.724187 
L 207.694358 157.207565 
L 208.010616 157.207565 
L 208.010616 155.657699 
L 208.321374 155.657699 
L 208.321374 154.624455 
L 208.927131 154.624455 
L 208.927131 153.591211 
L 209.222478 153.591211 
L 209.222478 151.008101 
L 210.898843 151.008101 
L 210.898843 149.974857 
L 211.16356 149.974857 
L 211.16356 149.458235 
L 211.424413 149.458235 
L 211.424413 148.424991 
L 212.431334 148.424991 
L 212.431334 144.292014 
L 212.674442 144.292014 
L 212.674442 143.25877 
L 213.615086 143.25877 
L 213.615086 141.708904 
L 214.067467 141.708904 
L 214.067467 140.67566 
L 214.508678 140.67566 
L 214.508678 140.159038 
L 214.725264 140.159038 
L 214.725264 139.642416 
L 214.939256 139.642416 
L 214.939256 137.059306 
L 215.359701 137.059306 
L 215.359701 135.50944 
L 215.770481 135.50944 
L 215.770481 124.143756 
L 216.172028 124.143756 
L 216.172028 123.110512 
L 216.369468 123.110512 
L 216.369468 121.044024 
L 216.56475 121.044024 
L 216.56475 120.527402 
L 216.757921 120.527402 
L 216.757921 118.977536 
L 216.949025 118.977536 
L 216.949025 117.944292 
L 217.138108 117.944292 
L 217.138108 114.84456 
L 217.32521 114.84456 
L 217.32521 113.811316 
L 217.510374 113.811316 
L 217.510374 109.161717 
L 217.693638 109.161717 
L 217.693638 106.061985 
L 217.875042 106.061985 
L 217.875042 102.445631 
L 218.054622 102.445631 
L 218.054622 99.862521 
L 218.232416 99.862521 
L 218.232416 93.146435 
L 218.408458 93.146435 
L 218.408458 89.013459 
L 218.582782 89.013459 
L 218.582782 88.496837 
L 218.755423 88.496837 
L 218.755423 87.980215 
L 219.095778 87.980215 
L 219.095778 86.946971 
L 219.263555 86.946971 
L 219.263555 85.913727 
L 219.594455 85.913727 
L 219.594455 84.363861 
L 221.16284 84.363861 
L 221.16284 82.813995 
L 221.753575 82.813995 
L 221.753575 79.714263 
L 221.898257 79.714263 
L 221.898257 76.097908 
L 222.041777 76.097908 
L 222.041777 75.581286 
L 222.184153 75.581286 
L 222.184153 74.03142 
L 222.325404 74.03142 
L 222.325404 71.964932 
L 222.879498 71.964932 
L 222.879498 68.348578 
L 223.150233 68.348578 
L 223.150233 67.831956 
L 223.284077 67.831956 
L 223.284077 67.315334 
L 223.548795 67.315334 
L 223.548795 66.798712 
L 223.679697 66.798712 
L 223.679697 61.632492 
L 223.93866 61.632492 
L 223.93866 60.082626 
L 224.3202 60.082626 
L 224.3202 59.049382 
L 224.570108 59.049382 
L 224.570108 58.016138 
L 224.693763 58.016138 
L 224.693763 56.982894 
L 224.816568 56.982894 
L 224.816568 55.433028 
L 225.059676 55.433028 
L 225.059676 54.399784 
L 225.18 54.399784 
L 225.18 53.36654 
L 226.893912 53.36654 
L 226.893912 52.849918 
L 227.430532 52.849918 
L 227.430532 52.333296 
L 228.457718 52.333296 
L 228.457718 51.300052 
L 229.046831 51.300052 
L 229.143155 50.266808 
L 229.429051 50.266808 
L 229.429051 49.750186 
L 229.617138 49.750186 
L 229.710444 47.683698 
L 229.895608 47.683698 
L 229.895608 46.133832 
L 234.498341 46.133832 
L 234.498341 45.61721 
L 234.640152 45.61721 
L 234.640152 42.517478 
L 235.735859 42.517478 
L 235.80216 40.967611 
L 237.201802 40.967611 
L 237.26289 38.384501 
L 237.684754 38.384501 
L 237.744215 37.351257 
L 237.921421 37.351257 
L 237.921421 36.834635 
L 238.154995 36.834635 
L 238.154995 35.801391 
L 238.556542 35.801391 
L 238.556542 35.284769 
L 239.059903 35.284769 
L 239.059903 34.768147 
L 361.113325 34.768147 
L 361.113325 34.768147 
" style="fill:none;stroke:#008000;stroke-linecap:square;stroke-width:1.5;"/>
   </g>
   <g id="line2d_47">
    <defs>
     <path d="M -0 6 
L 6 -6 
L -6 -6 
z
" id="meef538c71f" style="stroke:#008000;stroke-linejoin:miter;stroke-width:1.5;"/>
    </defs>
    <g>
     <use style="fill:none;stroke:#008000;stroke-linejoin:miter;stroke-width:1.5;" x="361.113325" xlink:href="#meef538c71f" y="34.768147"/>
    </g>
   </g>
   <g id="line2d_48"/>
   <g id="line2d_49">
    <defs>
     <path d="M 0 1.5 
C 0.397805 1.5 0.77937 1.341951 1.06066 1.06066 
C 1.341951 0.77937 1.5 0.397805 1.5 0 
C 1.5 -0.397805 1.341951 -0.77937 1.06066 -1.06066 
C 0.77937 -1.341951 0.397805 -1.5 0 -1.5 
C -0.397805 -1.5 -0.77937 -1.341951 -1.06066 -1.06066 
C -1.341951 -0.77937 -1.5 -0.397805 -1.5 0 
C -1.5 0.397805 -1.341951 0.77937 -1.06066 1.06066 
C -0.77937 1.341951 -0.397805 1.5 0 1.5 
z
" id="me89b025be4" style="stroke:#0000ff;"/>
    </defs>
    <g>
     <use style="fill:#0000ff;stroke:#0000ff;" x="308.616947" xlink:href="#me89b025be4" y="34.768147"/>
     <use style="fill:#0000ff;stroke:#0000ff;" x="308.616947" xlink:href="#me89b025be4" y="34.768147"/>
    </g>
   </g>
   <g id="line2d_50">
    <path d="M 44.355702 298.245375 
L 44.355702 263.115078 
L 139.026651 263.115078 
L 139.026651 257.948858 
L 146.271548 257.948858 
L 146.271548 254.849126 
L 151.411885 254.849126 
L 151.411885 250.71615 
L 155.39904 250.71615 
L 155.39904 248.649662 
L 158.656782 248.649662 
L 158.656782 245.033307 
L 161.411165 245.033307 
L 161.411165 244.516685 
L 163.797119 244.516685 
L 163.797119 244.000063 
L 167.784274 244.000063 
L 167.784274 242.966819 
L 169.487287 242.966819 
L 169.487287 240.900331 
L 171.042016 240.900331 
L 171.042016 239.867087 
L 172.472229 239.867087 
L 172.472229 239.350465 
L 173.796399 239.350465 
L 173.796399 238.833843 
L 176.182353 238.833843 
L 176.182353 238.317221 
L 177.265601 238.317221 
L 177.265601 237.800599 
L 179.252993 237.800599 
L 179.252993 236.767355 
L 181.872521 236.767355 
L 181.872521 236.250733 
L 186.181633 236.250733 
L 186.181633 235.217489 
L 191.161716 235.217489 
L 191.161716 234.700867 
L 196.895732 234.700867 
L 196.895732 233.151001 
L 197.583052 233.151001 
L 197.583052 232.634379 
L 197.917046 232.634379 
L 197.917046 231.084513 
L 198.24491 231.084513 
L 198.24491 230.567891 
L 198.566867 230.567891 
L 198.566867 230.051269 
L 198.883125 230.051269 
L 198.883125 226.951537 
L 199.193883 226.951537 
L 199.193883 225.918293 
L 199.499328 225.918293 
L 199.499328 224.368427 
L 200.094987 224.368427 
L 200.094987 223.335183 
L 202.036069 223.335183 
L 202.036069 222.301939 
L 202.296922 222.301939 
L 202.296922 221.785317 
L 202.554022 221.785317 
L 202.554022 220.235451 
L 203.057382 220.235451 
L 203.057382 219.202207 
L 203.786794 219.202207 
L 203.786794 218.685585 
L 207.241977 218.685585 
L 207.241977 216.619097 
L 207.821534 216.619097 
L 207.821534 215.585853 
L 209.104925 215.585853 
L 209.104925 214.552609 
L 210.952101 214.552609 
L 210.952101 214.035987 
L 211.11093 214.035987 
L 211.11093 213.002743 
L 212.480221 213.002743 
L 212.480221 212.48612 
L 212.626084 212.48612 
L 212.626084 210.936254 
L 212.914286 210.936254 
L 212.914286 210.419632 
L 213.056662 210.419632 
L 213.056662 208.353144 
L 213.197913 208.353144 
L 213.197913 204.73679 
L 213.752007 204.73679 
L 213.752007 202.670302 
L 214.939256 202.670302 
L 214.939256 199.57057 
L 215.192708 199.57057 
L 215.192708 199.053948 
L 215.318099 199.053948 
L 215.318099 198.537326 
L 215.566272 198.537326 
L 215.566272 196.470838 
L 215.689077 196.470838 
L 215.689077 195.954216 
L 215.811044 195.954216 
L 215.811044 194.920972 
L 215.932184 194.920972 
L 215.932184 193.887728 
L 216.052509 193.887728 
L 216.052509 193.371106 
L 219.230125 193.371106 
L 219.330227 191.82124 
L 219.919339 191.82124 
L 220.015663 188.204886 
L 220.582953 188.204886 
L 220.675774 187.171642 
L 220.768116 187.171642 
L 220.768116 185.621776 
L 221.042313 185.621776 
L 221.042313 184.588532 
L 221.2228 184.588532 
L 221.2228 182.522044 
L 224.792075 182.522044 
L 224.792075 182.005422 
L 224.938536 182.005422 
L 224.938536 181.4888 
L 225.227904 181.4888 
L 225.227904 180.455556 
L 225.37085 180.455556 
L 225.37085 179.422312 
L 225.653355 179.422312 
L 225.653355 178.90569 
L 226.068912 178.90569 
L 226.068912 177.872445 
L 226.608368 177.872445 
L 226.608368 177.355823 
L 227.196402 177.355823 
L 227.196402 176.839201 
L 227.577943 176.839201 
L 227.577943 176.322579 
L 227.703333 176.322579 
L 227.7657 175.289335 
L 227.82785 175.289335 
L 227.82785 174.772713 
L 228.013014 174.772713 
L 228.013014 173.739469 
L 228.135399 173.739469 
L 228.135399 172.706225 
L 228.256951 172.706225 
L 228.256951 172.189603 
L 228.437743 172.189603 
L 228.497603 165.990139 
L 231.002678 165.990139 
L 231.002678 165.473517 
L 231.157829 165.473517 
L 231.26052 163.407029 
L 232.304573 163.407029 
L 232.400898 161.340541 
L 233.336615 161.340541 
L 233.336615 160.823919 
L 233.608034 160.823919 
L 233.608034 160.307297 
L 233.83111 160.307297 
L 233.919566 158.240809 
L 234.526794 158.240809 
L 234.526794 157.724187 
L 235.031339 157.724187 
L 235.114061 156.690943 
L 235.15528 156.690943 
L 235.237432 155.657699 
L 235.278367 155.657699 
L 235.319209 154.624455 
L 235.441176 154.624455 
L 235.441176 154.107833 
L 235.68264 154.107833 
L 235.68264 153.074589 
L 235.80216 153.074589 
L 235.80216 152.557967 
L 235.960286 152.557967 
L 235.960286 152.041345 
L 236.541099 152.041345 
L 236.541099 151.524723 
L 236.918078 151.524723 
L 236.918078 151.008101 
L 237.32377 151.008101 
L 237.32377 150.491479 
L 237.541234 150.491479 
L 237.648982 146.875125 
L 237.862548 146.875125 
L 237.862548 146.358503 
L 238.556542 146.358503 
L 238.556542 145.325259 
L 238.826765 145.325259 
L 238.860257 143.25877 
L 239.092961 143.25877 
L 239.191771 141.708904 
L 239.257342 141.708904 
L 239.35525 137.059306 
L 239.387767 137.059306 
L 239.387767 136.542684 
L 240.057302 136.542684 
L 240.088568 134.992818 
L 240.33674 134.992818 
L 240.36752 131.376464 
L 240.642185 131.376464 
L 240.672444 125.693622 
L 240.762916 125.693622 
L 240.822977 121.560646 
L 240.882837 121.560646 
L 240.942497 117.944292 
L 242.64551 117.944292 
L 242.699574 115.877804 
L 243.231402 115.877804 
L 243.283725 114.327938 
L 243.465656 114.327938 
L 243.491496 110.194961 
L 243.747858 110.194961 
L 243.798692 106.578607 
L 244.592961 106.578607 
L 244.665645 102.962253 
L 244.762099 102.962253 
L 244.762099 102.445631 
L 245.790091 102.445631 
L 245.790091 99.345899 
L 246.282727 99.345899 
L 246.282727 98.312655 
L 246.997114 98.312655 
L 246.997114 97.796033 
L 249.002368 97.796033 
L 249.002368 96.762789 
L 250.283129 96.762789 
L 250.283129 95.729545 
L 250.580792 95.729545 
L 250.580792 94.696301 
L 250.770788 94.696301 
L 250.770788 94.179679 
L 252.536169 94.179679 
L 252.536169 93.663057 
L 254.606108 93.663057 
L 254.606108 93.146435 
L 255.299443 93.146435 
L 255.339401 91.596569 
L 278.834757 91.596569 
L 278.884698 87.980215 
L 279.040752 87.980215 
L 279.149887 85.913727 
L 279.18495 85.913727 
L 279.289728 81.264129 
L 279.321042 81.264129 
L 279.355771 77.647775 
L 279.48024 77.647775 
L 279.524975 75.064664 
L 279.702803 75.064664 
L 279.763948 74.03142 
L 279.814744 74.03142 
L 279.865395 70.931688 
L 280.029863 70.931688 
L 280.103216 69.381822 
L 280.265519 69.381822 
L 280.364165 65.765468 
L 280.416555 65.765468 
L 280.527375 62.665736 
L 280.640742 62.665736 
L 280.682667 61.11587 
L 280.823841 61.11587 
L 280.846199 58.016138 
L 281.04932 58.016138 
L 281.128041 55.94965 
L 281.175108 55.94965 
L 281.256398 53.36654 
L 281.287565 53.36654 
L 281.290678 52.333296 
L 281.507302 52.333296 
L 281.60852 51.300052 
L 282.171508 51.300052 
L 282.204079 50.266808 
L 283.477039 50.266808 
L 283.477039 49.750186 
L 291.218205 49.750186 
L 291.316181 47.167076 
L 291.337486 47.167076 
L 291.436577 45.100588 
L 291.461264 45.100588 
L 291.564929 43.550722 
L 291.720176 43.550722 
L 291.825807 40.967611 
L 292.013018 40.967611 
L 292.013018 40.450989 
L 292.238823 40.450989 
L 292.238823 39.417745 
L 292.481794 39.417745 
L 292.566473 37.867879 
L 298.677945 37.867879 
L 298.693234 36.834635 
L 298.79639 36.834635 
L 298.895466 35.801391 
L 308.074493 35.801391 
L 308.074493 35.284769 
L 308.616947 35.284769 
L 308.616947 34.768147 
L 361.113325 34.768147 
L 361.113325 34.768147 
" style="fill:none;stroke:#0000ff;stroke-linecap:square;stroke-width:1.5;"/>
   </g>
   <g id="line2d_51">
    <defs>
     <path d="M 0 -6 
L -1.347084 -1.854102 
L -5.706339 -1.854102 
L -2.179628 0.708204 
L -3.526712 4.854102 
L -0 2.291796 
L 3.526712 4.854102 
L 2.179628 0.708204 
L 5.706339 -1.854102 
L 1.347084 -1.854102 
z
" id="m821c1f27b7" style="stroke:#0000ff;stroke-linejoin:bevel;stroke-width:1.5;"/>
    </defs>
    <g>
     <use style="fill:none;stroke:#0000ff;stroke-linejoin:bevel;stroke-width:1.5;" x="361.113325" xlink:href="#m821c1f27b7" y="34.768147"/>
    </g>
   </g>
   <g id="line2d_52"/>
   <g id="line2d_53">
    <path clip-path="url(#pf75da51bf0)" d="M 278.827611 91.596569 
" style="fill:none;stroke:#0000ff;stroke-linecap:square;stroke-width:1.5;"/>
    <defs>
     <path d="M -12 12 
L 12 -12 
M -12 -12 
L 12 12 
" id="mfff15f7de4" style="stroke:#0000ff;stroke-width:3;"/>
    </defs>
    <g clip-path="url(#pf75da51bf0)">
     <use style="fill:#0000ff;stroke:#0000ff;stroke-width:3;" x="278.827611" xlink:href="#mfff15f7de4" y="91.596569"/>
    </g>
   </g>
   <g id="line2d_54">
    <defs>
     <path d="M 0 1.5 
C 0.397805 1.5 0.77937 1.341951 1.06066 1.06066 
C 1.341951 0.77937 1.5 0.397805 1.5 0 
C 1.5 -0.397805 1.341951 -0.77937 1.06066 -1.06066 
C 0.77937 -1.341951 0.397805 -1.5 0 -1.5 
C -0.397805 -1.5 -0.77937 -1.341951 -1.06066 -1.06066 
C -1.341951 -0.77937 -1.5 -0.397805 -1.5 0 
C -1.5 0.397805 -1.341951 0.77937 -1.06066 1.06066 
C -0.77937 1.341951 -0.397805 1.5 0 1.5 
z
" id="me47cfd8f65" style="stroke:#000000;"/>
    </defs>
    <g>
     <use style="stroke:#000000;" x="308.760068" xlink:href="#me47cfd8f65" y="34.768147"/>
     <use style="stroke:#000000;" x="308.760068" xlink:href="#me47cfd8f65" y="34.768147"/>
    </g>
   </g>
   <g id="line2d_55">
    <path d="M 31.970468 298.245375 
L 31.970468 283.779959 
L 139.026651 283.779959 
L 139.026651 281.196849 
L 146.271548 281.196849 
L 146.271548 278.613738 
L 151.411885 278.613738 
L 151.411885 275.514006 
L 155.39904 275.514006 
L 155.39904 273.96414 
L 158.656782 273.96414 
L 158.656782 271.38103 
L 161.411165 271.38103 
L 161.411165 269.314542 
L 163.797119 269.314542 
L 163.797119 267.248054 
L 165.90168 267.248054 
L 165.90168 264.148322 
L 167.784274 264.148322 
L 167.784274 261.04859 
L 169.487287 261.04859 
L 169.487287 260.531968 
L 176.182353 260.531968 
L 176.182353 257.432236 
L 179.252993 257.432236 
L 179.252993 255.88237 
L 180.169508 255.88237 
L 180.169508 254.849126 
L 181.041296 254.849126 
L 181.041296 253.815882 
L 184.156663 253.815882 
L 184.156663 253.29926 
L 186.181633 253.29926 
L 186.181633 252.782638 
L 191.161716 252.782638 
L 191.161716 252.266016 
L 192.554742 252.266016 
L 192.554742 251.749394 
L 193.42653 251.749394 
L 193.42653 250.71615 
L 200.094987 250.71615 
L 200.094987 250.199528 
L 201.502653 250.199528 
L 201.502653 249.682906 
L 206.43878 249.682906 
L 206.43878 249.166284 
L 206.844891 249.166284 
L 206.844891 248.649662 
L 207.821534 248.649662 
L 207.821534 248.13304 
L 208.010616 248.13304 
L 208.010616 247.099796 
L 208.566147 247.099796 
L 208.566147 246.066551 
L 208.74755 246.066551 
L 208.74755 245.549929 
L 208.927131 245.549929 
L 208.927131 244.516685 
L 210.136063 244.516685 
L 210.136063 244.000063 
L 210.466964 244.000063 
L 210.466964 243.483441 
L 214.552206 243.483441 
L 214.552206 242.450197 
L 216.172028 242.450197 
L 216.172028 241.416953 
L 219.725119 241.416953 
L 219.725119 240.900331 
L 220.39585 240.900331 
L 220.39585 239.867087 
L 221.2228 239.867087 
L 221.312365 238.317221 
L 221.578396 238.317221 
L 221.666201 236.250733 
L 222.852198 236.250733 
L 222.852198 235.217489 
L 223.015378 235.217489 
L 223.015378 234.700867 
L 224.041203 234.700867 
L 224.041203 234.184245 
L 224.193923 234.184245 
L 224.193923 232.117757 
L 224.345349 232.117757 
L 224.345349 231.084513 
L 224.644404 231.084513 
L 224.644404 230.051269 
L 225.156 230.051269 
L 225.227904 229.018025 
L 225.29952 229.018025 
L 225.29952 228.501403 
L 228.969395 228.501403 
L 228.969395 227.984781 
L 230.846168 227.984781 
L 230.846168 227.468159 
L 231.106262 227.468159 
L 231.157829 225.401671 
L 231.26052 225.401671 
L 231.362624 224.368427 
L 231.514694 224.368427 
L 231.514694 222.818561 
L 233.290975 222.818561 
L 233.290975 221.785317 
L 235.562316 221.785317 
L 235.562316 221.268695 
L 235.881398 221.268695 
L 235.881398 220.752073 
L 236.992528 220.752073 
L 237.06667 219.718829 
L 237.177309 219.718829 
L 237.214037 218.168963 
L 237.684754 218.168963 
L 237.756084 217.135719 
L 238.893686 217.135719 
L 238.893686 216.619097 
L 239.092961 216.619097 
L 239.191771 214.552609 
L 239.387767 214.552609 
L 239.387767 213.519365 
L 240.702653 213.519365 
L 240.762916 210.936254 
L 240.882837 210.936254 
L 240.912692 209.90301 
L 242.123576 209.90301 
L 242.207007 207.836522 
L 242.29005 207.836522 
L 242.29005 207.3199 
L 243.439779 207.3199 
L 243.439779 206.803278 
L 243.620137 206.803278 
L 243.620137 206.286656 
L 244.175405 206.286656 
L 244.274535 205.253412 
L 244.323895 205.253412 
L 244.323895 204.220168 
L 244.8341 204.220168 
L 244.881939 203.186924 
L 245.925799 203.186924 
L 245.993269 202.15368 
L 246.082833 202.15368 
L 246.082833 201.637058 
L 247.785847 201.637058 
L 247.785847 200.603814 
L 247.987748 200.603814 
L 247.987748 199.57057 
L 248.187394 199.57057 
L 248.187394 197.504082 
L 248.325831 197.504082 
L 248.325831 196.98746 
L 248.869094 196.98746 
L 248.888194 195.954216 
L 249.134655 195.954216 
L 249.22855 193.887728 
L 249.763618 193.887728 
L 249.763618 193.371106 
L 250.016303 193.371106 
L 250.087847 192.337862 
L 250.336019 192.337862 
L 250.336019 190.787996 
L 250.667404 190.787996 
L 250.667404 189.23813 
L 250.941776 189.23813 
L 251.009716 187.171642 
L 251.445137 187.171642 
L 251.445137 186.65502 
L 251.675272 186.65502 
L 251.773001 185.105154 
L 252.426883 185.105154 
L 252.426883 184.588532 
L 252.69114 184.588532 
L 252.69114 184.07191 
L 253.312834 184.07191 
L 253.312834 183.038666 
L 253.971169 183.038666 
L 253.971169 182.522044 
L 254.619965 182.522044 
L 254.730433 180.972178 
L 255.312772 180.972178 
L 255.419051 179.938934 
L 255.445522 179.938934 
L 255.445522 178.389067 
L 255.590418 178.389067 
L 255.590418 177.872445 
L 255.941166 177.872445 
L 255.992548 176.839201 
L 256.684466 176.839201 
L 256.684466 175.805957 
L 257.099171 175.805957 
L 257.099171 175.289335 
L 257.279114 175.289335 
L 257.279114 174.256091 
L 257.469075 174.256091 
L 257.528027 172.189603 
L 257.715374 172.189603 
L 257.761906 171.156359 
L 257.866161 171.156359 
L 257.889246 167.540005 
L 258.288487 167.540005 
L 258.389723 166.506761 
L 258.412142 166.506761 
L 258.412142 165.990139 
L 258.568294 165.990139 
L 258.568294 165.473517 
L 258.909278 165.473517 
L 258.909278 164.956895 
L 259.467031 164.956895 
L 259.551315 162.890407 
L 259.697862 162.890407 
L 259.697862 161.857163 
L 260.02838 161.857163 
L 260.069268 159.274053 
L 260.372982 159.274053 
L 260.483064 156.690943 
L 260.493037 156.690943 
L 260.592471 153.074589 
L 261.052535 153.074589 
L 261.052535 152.041345 
L 261.340118 152.041345 
L 261.425498 149.458235 
L 261.557506 149.458235 
L 261.557506 148.941613 
L 261.883321 148.941613 
L 261.956966 147.391747 
L 262.499837 147.391747 
L 262.499837 146.875125 
L 262.721254 146.875125 
L 262.721254 146.358503 
L 262.878992 146.358503 
L 262.913856 144.808637 
L 263.130232 144.808637 
L 263.198923 142.225526 
L 263.250268 142.225526 
L 263.3185 139.125794 
L 263.739143 139.125794 
L 263.739143 138.09255 
L 264.488167 138.09255 
L 264.520032 135.50944 
L 264.890246 135.50944 
L 264.944734 134.476196 
L 265.298722 134.476196 
L 265.313955 132.409708 
L 265.555931 132.409708 
L 265.608429 130.859842 
L 265.675701 130.859842 
L 265.779845 127.243488 
L 265.99366 127.243488 
L 266.074098 125.177 
L 266.406605 125.177 
L 266.442377 124.143756 
L 266.676693 124.143756 
L 266.676693 123.627134 
L 266.970537 123.627134 
L 267.019045 122.077268 
L 267.088114 122.077268 
L 267.088114 121.560646 
L 267.286917 121.560646 
L 267.286917 121.044024 
L 267.415978 121.044024 
L 267.463293 119.494158 
L 268.125887 119.494158 
L 268.14539 118.460914 
L 268.745948 118.460914 
L 268.783605 117.42767 
L 268.921005 117.42767 
L 268.921005 116.394426 
L 269.051181 116.394426 
L 269.0882 113.294694 
L 269.204926 113.294694 
L 269.204926 112.778072 
L 269.399808 112.778072 
L 269.399808 112.26145 
L 269.64046 112.26145 
L 269.723928 111.228206 
L 270.280247 111.228206 
L 270.309053 109.678339 
L 270.423813 109.678339 
L 270.532157 108.128473 
L 270.554883 108.128473 
L 270.571908 106.578607 
L 270.802977 106.578607 
L 270.830952 103.995497 
L 271.174261 103.995497 
L 271.174261 103.478875 
L 271.878647 103.478875 
L 271.915516 101.412387 
L 272.051794 101.412387 
L 272.051794 100.895765 
L 272.181858 100.895765 
L 272.181858 100.379143 
L 272.388011 100.379143 
L 272.388011 99.862521 
L 272.642402 99.862521 
L 272.642402 99.345899 
L 273.32629 99.345899 
L 273.423268 97.279411 
L 274.129647 97.279411 
L 274.129647 96.762789 
L 278.891821 96.762789 
L 278.891821 96.246167 
L 279.16392 96.246167 
L 279.16392 95.729545 
L 279.542151 95.729545 
L 279.651687 92.113191 
L 279.665332 92.113191 
L 279.675559 91.079947 
L 280.485084 91.079947 
L 280.530624 90.046703 
L 280.807855 90.046703 
L 280.827037 88.496837 
L 281.00192 88.496837 
L 281.020895 86.946971 
L 281.178241 86.946971 
L 281.287565 83.847239 
L 281.290678 83.847239 
L 281.290678 83.330617 
L 281.766862 83.330617 
L 281.766862 82.813995 
L 281.890726 82.813995 
L 281.893737 81.780751 
L 282.034656 81.780751 
L 282.034656 81.264129 
L 282.351385 81.264129 
L 282.380701 80.230885 
L 282.549792 80.230885 
L 282.64529 79.197641 
L 282.928757 79.197641 
L 282.928757 78.681019 
L 283.205001 78.681019 
L 283.221776 77.647775 
L 283.349864 77.647775 
L 283.349864 77.131153 
L 283.766696 77.131153 
L 283.766696 76.097908 
L 284.035718 76.097908 
L 284.057066 74.548042 
L 284.189915 74.548042 
L 284.298119 72.481554 
L 284.30864 72.481554 
L 284.319155 71.44831 
L 284.533366 71.44831 
L 284.533366 70.931688 
L 284.959307 70.931688 
L 284.959307 70.415066 
L 285.073044 70.415066 
L 285.073044 69.898444 
L 285.439621 69.898444 
L 285.439621 69.381822 
L 285.582213 69.381822 
L 285.582213 68.8652 
L 285.70423 68.8652 
L 285.798828 67.831956 
L 285.832665 67.831956 
L 285.924185 66.798712 
L 286.191234 66.798712 
L 286.252661 65.248846 
L 286.306825 65.248846 
L 286.313877 64.215602 
L 286.419336 64.215602 
L 286.419336 63.69898 
L 286.651483 63.69898 
L 286.651483 63.182358 
L 286.876098 63.182358 
L 286.939758 61.632492 
L 286.998669 61.632492 
L 286.998669 60.599248 
L 287.445451 60.599248 
L 287.445451 60.082626 
L 287.734324 60.082626 
L 287.734324 59.566004 
L 288.279484 59.566004 
L 288.386548 58.53276 
L 288.701888 58.53276 
L 288.701888 58.016138 
L 291.613916 58.016138 
L 291.636615 56.466272 
L 291.980526 56.466272 
L 292.084633 54.916406 
L 292.586339 54.916406 
L 292.586339 54.399784 
L 292.971002 54.399784 
L 293.077562 53.36654 
L 293.535255 53.36654 
L 293.62915 52.333296 
L 293.852504 52.333296 
L 293.852504 51.816674 
L 294.139966 51.816674 
L 294.162703 48.716942 
L 294.388504 48.716942 
L 294.388504 48.20032 
L 294.584875 48.20032 
L 294.607054 47.167076 
L 295.125514 47.167076 
L 295.125514 46.650454 
L 295.308309 46.650454 
L 295.408903 44.067344 
L 295.694821 44.067344 
L 295.694821 43.0341 
L 296.251941 43.0341 
L 296.251941 42.517478 
L 299.648854 42.517478 
L 299.648854 42.000855 
L 299.931884 42.000855 
L 300.030331 40.450989 
L 300.197537 40.450989 
L 300.197537 39.934367 
L 300.744552 39.934367 
L 300.744552 39.417745 
L 300.9457 39.417745 
L 300.946737 38.384501 
L 301.860816 38.384501 
L 301.860816 37.867879 
L 302.191526 37.867879 
L 302.191526 37.351257 
L 305.096883 37.351257 
L 305.135453 36.318013 
L 305.623049 36.318013 
L 305.623049 35.801391 
L 305.780297 35.801391 
L 305.780297 35.284769 
L 308.760068 35.284769 
L 308.760068 34.768147 
L 361.113325 34.768147 
L 361.113325 34.768147 
" style="fill:none;stroke:#000000;stroke-linecap:square;stroke-width:1.5;"/>
   </g>
   <g id="line2d_56">
    <defs>
     <path d="M 0 6 
C 1.591219 6 3.117479 5.367802 4.242641 4.242641 
C 5.367802 3.117479 6 1.591219 6 0 
C 6 -1.591219 5.367802 -3.117479 4.242641 -4.242641 
C 3.117479 -5.367802 1.591219 -6 0 -6 
C -1.591219 -6 -3.117479 -5.367802 -4.242641 -4.242641 
C -5.367802 -3.117479 -6 -1.591219 -6 0 
C -6 1.591219 -5.367802 3.117479 -4.242641 4.242641 
C -3.117479 5.367802 -1.591219 6 0 6 
z
" id="mb80a6f238a" style="stroke:#000000;stroke-width:1.5;"/>
    </defs>
    <g>
     <use style="fill:none;stroke:#000000;stroke-width:1.5;" x="361.113325" xlink:href="#mb80a6f238a" y="34.768147"/>
    </g>
   </g>
   <g id="line2d_57"/>
   <g id="line2d_58">
    <path clip-path="url(#pf75da51bf0)" d="M 278.827611 96.762789 
" style="fill:none;stroke:#000000;stroke-linecap:square;stroke-width:1.5;"/>
    <defs>
     <path d="M -12 12 
L 12 -12 
M -12 -12 
L 12 12 
" id="m034639ae0f" style="stroke:#000000;stroke-width:3;"/>
    </defs>
    <g clip-path="url(#pf75da51bf0)">
     <use style="stroke:#000000;stroke-width:3;" x="278.827611" xlink:href="#m034639ae0f" y="96.762789"/>
    </g>
   </g>
   <g id="line2d_59">
    <defs>
     <path d="M 0 1.5 
C 0.397805 1.5 0.77937 1.341951 1.06066 1.06066 
C 1.341951 0.77937 1.5 0.397805 1.5 0 
C 1.5 -0.397805 1.341951 -0.77937 1.06066 -1.06066 
C 0.77937 -1.341951 0.397805 -1.5 0 -1.5 
C -0.397805 -1.5 -0.77937 -1.341951 -1.06066 -1.06066 
C -1.341951 -0.77937 -1.5 -0.397805 -1.5 0 
C -1.5 0.397805 -1.341951 0.77937 -1.06066 1.06066 
C -0.77937 1.341951 -0.397805 1.5 0 1.5 
z
" id="madc7142916" style="stroke:#ff0000;"/>
    </defs>
    <g>
     <use style="fill:#ff0000;stroke:#ff0000;" x="279.343624" xlink:href="#madc7142916" y="241.416953"/>
     <use style="fill:#ff0000;stroke:#ff0000;" x="279.343624" xlink:href="#madc7142916" y="241.416953"/>
    </g>
   </g>
   <g id="line2d_60">
    <path d="M 19.585234 298.245375 
L 19.585234 293.079155 
L 133.886314 293.079155 
L 133.886314 288.429557 
L 139.026651 288.429557 
L 139.026651 286.879691 
L 143.013806 286.879691 
L 143.013806 285.846447 
L 146.271548 285.846447 
L 146.271548 283.779959 
L 149.02593 283.779959 
L 149.02593 283.263337 
L 151.411885 283.263337 
L 151.411885 282.230093 
L 153.516446 282.230093 
L 153.516446 279.646982 
L 155.39904 279.646982 
L 155.39904 278.613738 
L 158.656782 278.613738 
L 158.656782 276.54725 
L 160.086995 276.54725 
L 160.086995 276.030628 
L 161.411165 276.030628 
L 161.411165 274.997384 
L 162.643937 274.997384 
L 162.643937 273.96414 
L 163.797119 273.96414 
L 163.797119 273.447518 
L 164.880367 273.447518 
L 164.880367 270.864408 
L 166.867759 270.864408 
L 166.867759 268.281298 
L 167.784274 268.281298 
L 167.784274 267.248054 
L 168.656062 267.248054 
L 168.656062 264.664944 
L 169.487287 264.664944 
L 169.487287 262.598456 
L 171.042016 262.598456 
L 171.042016 261.04859 
L 171.771429 261.04859 
L 171.771429 260.531968 
L 173.796399 260.531968 
L 173.796399 259.498724 
L 174.423414 259.498724 
L 174.423414 258.982102 
L 175.029171 258.982102 
L 175.029171 257.948858 
L 175.615064 257.948858 
L 175.615064 257.432236 
L 177.783553 257.432236 
L 177.783553 256.398992 
L 178.286914 256.398992 
L 178.286914 255.365748 
L 178.776482 255.365748 
L 178.776482 254.849126 
L 188.844618 254.849126 
L 188.844618 253.815882 
L 189.386117 253.815882 
L 189.386117 252.782638 
L 192.10236 252.782638 
L 192.10236 251.232772 
L 194.856743 251.232772 
L 194.856743 250.71615 
L 200.24085 250.71615 
L 200.24085 249.682906 
L 214.875327 249.682906 
L 214.875327 249.166284 
L 215.192708 249.166284 
L 215.192708 248.649662 
L 221.401483 248.649662 
L 221.401483 248.13304 
L 224.865455 248.13304 
L 224.865455 247.616418 
L 225.191988 247.616418 
L 225.191988 246.583173 
L 228.64638 246.583173 
L 228.64638 245.549929 
L 278.857961 245.549929 
L 278.857961 245.033307 
L 278.879354 245.033307 
L 278.879354 244.516685 
L 278.882917 244.516685 
L 278.882917 244.000063 
L 278.884698 244.000063 
L 278.884698 243.483441 
L 278.897161 243.483441 
L 278.897161 242.450197 
L 278.900721 242.450197 
L 278.900721 241.933575 
L 279.343624 241.933575 
L 279.343624 241.416953 
L 361.113325 241.416953 
" style="fill:none;stroke:#ff0000;stroke-linecap:square;stroke-width:1.5;"/>
   </g>
   <g id="line2d_61">
    <defs>
     <path d="M -6 6 
L 6 6 
L 6 -6 
L -6 -6 
z
" id="m0d7b0a6d92" style="stroke:#ff0000;stroke-linejoin:miter;stroke-width:1.5;"/>
    </defs>
    <g>
     <use style="fill:none;stroke:#ff0000;stroke-linejoin:miter;stroke-width:1.5;" x="361.113325" xlink:href="#m0d7b0a6d92" y="241.416953"/>
    </g>
   </g>
   <g id="line2d_62"/>
   <g id="line2d_63">
    <path clip-path="url(#pf75da51bf0)" d="M 278.827611 245.549929 
" style="fill:none;stroke:#ff0000;stroke-linecap:square;stroke-width:1.5;"/>
    <defs>
     <path d="M -12 12 
L 12 -12 
M -12 -12 
L 12 12 
" id="m365c65eb93" style="stroke:#ff0000;stroke-width:3;"/>
    </defs>
    <g clip-path="url(#pf75da51bf0)">
     <use style="fill:#ff0000;stroke:#ff0000;stroke-width:3;" x="278.827611" xlink:href="#m365c65eb93" y="245.549929"/>
    </g>
   </g>
   <g id="line2d_64">
    <defs>
     <path d="M 0 1.5 
C 0.397805 1.5 0.77937 1.341951 1.06066 1.06066 
C 1.341951 0.77937 1.5 0.397805 1.5 0 
C 1.5 -0.397805 1.341951 -0.77937 1.06066 -1.06066 
C 0.77937 -1.341951 0.397805 -1.5 0 -1.5 
C -0.397805 -1.5 -0.77937 -1.341951 -1.06066 -1.06066 
C -1.341951 -0.77937 -1.5 -0.397805 -1.5 0 
C -1.5 0.397805 -1.341951 0.77937 -1.06066 1.06066 
C -0.77937 1.341951 -0.397805 1.5 0 1.5 
z
" id="m14661764de" style="stroke:#bf00bf;"/>
    </defs>
    <g>
     <use style="fill:#bf00bf;stroke:#bf00bf;" x="303.608574" xlink:href="#m14661764de" y="241.416953"/>
     <use style="fill:#bf00bf;stroke:#bf00bf;" x="303.608574" xlink:href="#m14661764de" y="241.416953"/>
    </g>
   </g>
   <g id="line2d_65">
    <path d="M 7.2 298.245375 
L 7.2 293.079155 
L 130.628571 293.079155 
L 130.628571 292.562533 
L 139.026651 292.562533 
L 139.026651 289.979423 
L 141.131212 289.979423 
L 141.131212 288.429557 
L 143.013806 288.429557 
L 143.013806 287.396313 
L 144.716819 287.396313 
L 144.716819 286.879691 
L 146.271548 286.879691 
L 146.271548 284.813203 
L 147.701761 284.813203 
L 147.701761 283.779959 
L 150.258703 283.779959 
L 150.258703 282.746715 
L 151.411885 282.746715 
L 151.411885 281.196849 
L 152.495133 281.196849 
L 152.495133 279.646982 
L 153.516446 279.646982 
L 153.516446 279.13036 
L 155.39904 279.13036 
L 155.39904 278.613738 
L 156.270828 278.613738 
L 156.270828 276.54725 
L 157.102053 276.54725 
L 157.102053 276.030628 
L 157.896322 276.030628 
L 157.896322 275.514006 
L 159.386194 275.514006 
L 159.386194 274.480762 
L 160.086995 274.480762 
L 160.086995 272.930896 
L 162.03818 272.930896 
L 162.03818 272.414274 
L 162.643937 272.414274 
L 162.643937 271.897652 
L 163.22983 271.897652 
L 163.22983 271.38103 
L 164.34695 271.38103 
L 164.34695 270.347786 
L 164.880367 270.347786 
L 164.880367 269.314542 
L 165.398319 269.314542 
L 165.398319 268.79792 
L 165.90168 268.79792 
L 165.90168 267.248054 
L 166.391248 267.248054 
L 166.391248 265.698188 
L 166.867759 265.698188 
L 166.867759 264.148322 
L 167.331892 264.148322 
L 167.331892 263.6317 
L 168.225484 263.6317 
L 168.225484 263.115078 
L 168.656062 263.115078 
L 168.656062 262.598456 
L 169.076508 262.598456 
L 169.076508 261.565212 
L 169.888835 261.565212 
L 169.888835 260.015346 
L 171.042016 260.015346 
L 171.042016 259.498724 
L 183.240148 259.498724 
L 183.240148 258.46548 
L 191.040576 258.46548 
L 191.040576 257.948858 
L 191.161716 257.948858 
L 191.161716 257.432236 
L 191.40156 257.432236 
L 191.40156 256.915614 
L 195.997648 256.915614 
L 195.997648 256.398992 
L 200.313337 256.398992 
L 200.313337 255.88237 
L 202.807474 255.88237 
L 202.807474 255.365748 
L 203.727134 255.365748 
L 203.727134 254.849126 
L 208.382882 254.849126 
L 208.382882 254.332504 
L 214.552206 254.332504 
L 214.552206 253.815882 
L 217.32521 253.815882 
L 217.32521 253.29926 
L 218.772595 253.29926 
L 218.772595 252.782638 
L 218.926411 252.782638 
L 218.926411 252.266016 
L 224.250858 252.266016 
L 224.250858 251.749394 
L 226.323811 251.749394 
L 226.323811 251.232772 
L 229.513935 251.232772 
L 229.513935 250.71615 
L 233.985622 250.71615 
L 233.985622 250.199528 
L 236.673948 250.199528 
L 236.673948 249.682906 
L 278.857961 249.682906 
L 278.870443 245.549929 
L 279.079554 245.549929 
L 279.092762 244.516685 
L 279.43712 244.516685 
L 279.4423 242.966819 
L 280.224255 242.966819 
L 280.224255 242.450197 
L 298.470544 242.450197 
L 298.470544 241.933575 
L 303.608574 241.933575 
L 303.608574 241.416953 
L 361.113325 241.416953 
L 361.113325 241.416953 
" style="fill:none;stroke:#bf00bf;stroke-linecap:square;stroke-width:1.5;"/>
   </g>
   <g id="line2d_66">
    <defs>
     <path d="M -0 8.485281 
L 8.485281 0 
L 0 -8.485281 
L -8.485281 -0 
z
" id="mfdcbcd48f1" style="stroke:#bf00bf;stroke-linejoin:miter;stroke-width:1.5;"/>
    </defs>
    <g>
     <use style="fill:none;stroke:#bf00bf;stroke-linejoin:miter;stroke-width:1.5;" x="361.113325" xlink:href="#mfdcbcd48f1" y="241.416953"/>
    </g>
   </g>
   <g id="line2d_67"/>
   <g id="line2d_68">
    <path clip-path="url(#pf75da51bf0)" d="M 278.827611 249.682906 
" style="fill:none;stroke:#bf00bf;stroke-linecap:square;stroke-width:1.5;"/>
    <defs>
     <path d="M -12 12 
L 12 -12 
M -12 -12 
L 12 12 
" id="md8f8bd2cc9" style="stroke:#bf00bf;stroke-width:3;"/>
    </defs>
    <g clip-path="url(#pf75da51bf0)">
     <use style="fill:#bf00bf;stroke:#bf00bf;stroke-width:3;" x="278.827611" xlink:href="#md8f8bd2cc9" y="249.682906"/>
    </g>
   </g>
   <g id="line2d_69">
    <path d="M 361.113325 241.416953 
L 392.793325 292.97583 
" style="fill:none;stroke:#bf00bf;stroke-linecap:square;stroke-width:1.5;"/>
    <g>
     <use style="fill:none;stroke:#bf00bf;stroke-linejoin:miter;stroke-width:1.5;" x="361.113325" xlink:href="#mfdcbcd48f1" y="241.416953"/>
     <use style="fill:none;stroke:#bf00bf;stroke-linejoin:miter;stroke-width:1.5;" x="392.793325" xlink:href="#mfdcbcd48f1" y="292.97583"/>
    </g>
   </g>
   <g id="line2d_70">
    <path d="M 361.113325 241.416953 
L 392.793325 242.388203 
" style="fill:none;stroke:#ff0000;stroke-linecap:square;stroke-width:1.5;"/>
    <g>
     <use style="fill:none;stroke:#ff0000;stroke-linejoin:miter;stroke-width:1.5;" x="361.113325" xlink:href="#m0d7b0a6d92" y="241.416953"/>
     <use style="fill:none;stroke:#ff0000;stroke-linejoin:miter;stroke-width:1.5;" x="392.793325" xlink:href="#m0d7b0a6d92" y="242.388203"/>
    </g>
   </g>
   <g id="line2d_71">
    <path d="M 361.113325 34.768147 
L 392.793325 191.800575 
" style="fill:none;stroke:#000000;stroke-linecap:square;stroke-width:1.5;"/>
    <g>
     <use style="fill:none;stroke:#000000;stroke-width:1.5;" x="361.113325" xlink:href="#mb80a6f238a" y="34.768147"/>
     <use style="fill:none;stroke:#000000;stroke-width:1.5;" x="392.793325" xlink:href="#mb80a6f238a" y="191.800575"/>
    </g>
   </g>
   <g id="line2d_72">
    <path d="M 361.113325 34.768147 
L 392.793325 141.212947 
" style="fill:none;stroke:#0000ff;stroke-linecap:square;stroke-width:1.5;"/>
    <g>
     <use style="fill:none;stroke:#0000ff;stroke-linejoin:bevel;stroke-width:1.5;" x="361.113325" xlink:href="#m821c1f27b7" y="34.768147"/>
     <use style="fill:none;stroke:#0000ff;stroke-linejoin:bevel;stroke-width:1.5;" x="392.793325" xlink:href="#m821c1f27b7" y="141.212947"/>
    </g>
   </g>
   <g id="line2d_73">
    <path d="M 361.113325 34.768147 
L 392.793325 90.62532 
" style="fill:none;stroke:#008000;stroke-linecap:square;stroke-width:1.5;"/>
    <g>
     <use style="fill:none;stroke:#008000;stroke-linejoin:miter;stroke-width:1.5;" x="361.113325" xlink:href="#meef538c71f" y="34.768147"/>
     <use style="fill:none;stroke:#008000;stroke-linejoin:miter;stroke-width:1.5;" x="392.793325" xlink:href="#meef538c71f" y="90.62532"/>
    </g>
   </g>
   <g id="line2d_74">
    <path d="M 361.113325 34.768147 
L 392.793325 40.037692 
" style="fill:none;stroke:#00bfbf;stroke-linecap:square;stroke-width:1.5;"/>
    <g>
     <use style="fill:none;stroke:#00bfbf;stroke-width:1.5;" x="361.113325" xlink:href="#mddd30f913f" y="34.768147"/>
     <use style="fill:none;stroke:#00bfbf;stroke-width:1.5;" x="392.793325" xlink:href="#mddd30f913f" y="40.037692"/>
    </g>
   </g>
   <g id="line2d_75">
    <path d="M 361.113325 298.245375 
L 361.113325 34.768147 
" style="fill:none;stroke:#000000;stroke-linecap:square;stroke-width:1.5;"/>
   </g>
   <g id="patch_3">
    <path d="M 73.113325 298.245375 
L 73.113325 32.133375 
" style="fill:none;stroke:#000000;stroke-linecap:square;stroke-linejoin:miter;stroke-width:0.8;"/>
   </g>
   <g id="patch_4">
    <path d="M 430.233325 298.245375 
L 430.233325 32.133375 
" style="fill:none;stroke:#000000;stroke-linecap:square;stroke-linejoin:miter;stroke-width:0.8;"/>
   </g>
   <g id="patch_5">
    <path d="M 73.113325 298.245375 
L 430.233325 298.245375 
" style="fill:none;stroke:#000000;stroke-linecap:square;stroke-linejoin:miter;stroke-width:0.8;"/>
   </g>
   <g id="patch_6">
    <path d="M 73.113325 32.133375 
L 430.233325 32.133375 
" style="fill:none;stroke:#000000;stroke-linecap:square;stroke-linejoin:miter;stroke-width:0.8;"/>
   </g>
   <g id="text_14">
    <!-- 40-D -->
    <defs>
     <path d="M 19.671875 64.796875 
L 19.671875 8.109375 
L 31.59375 8.109375 
Q 46.6875 8.109375 53.6875 14.9375 
Q 60.6875 21.78125 60.6875 36.53125 
Q 60.6875 51.171875 53.6875 57.984375 
Q 46.6875 64.796875 31.59375 64.796875 
z
M 9.8125 72.90625 
L 30.078125 72.90625 
Q 51.265625 72.90625 61.171875 64.09375 
Q 71.09375 55.28125 71.09375 36.53125 
Q 71.09375 17.671875 61.125 8.828125 
Q 51.171875 0 30.078125 0 
L 9.8125 0 
z
" id="DejaVuSans-44"/>
    </defs>
    <g transform="translate(398.553325 297.114893)scale(0.15 -0.15)">
     <use xlink:href="#DejaVuSans-34"/>
     <use x="63.623047" xlink:href="#DejaVuSans-30"/>
     <use x="127.246094" xlink:href="#DejaVuSans-2d"/>
     <use x="163.330078" xlink:href="#DejaVuSans-44"/>
    </g>
   </g>
   <g id="text_15">
    <!-- 20-D -->
    <g transform="translate(398.553325 246.527265)scale(0.15 -0.15)">
     <use xlink:href="#DejaVuSans-32"/>
     <use x="63.623047" xlink:href="#DejaVuSans-30"/>
     <use x="127.246094" xlink:href="#DejaVuSans-2d"/>
     <use x="163.330078" xlink:href="#DejaVuSans-44"/>
    </g>
   </g>
   <g id="text_16">
    <!-- 10-D -->
    <g transform="translate(398.553325 195.939637)scale(0.15 -0.15)">
     <use xlink:href="#DejaVuSans-31"/>
     <use x="63.623047" xlink:href="#DejaVuSans-30"/>
     <use x="127.246094" xlink:href="#DejaVuSans-2d"/>
     <use x="163.330078" xlink:href="#DejaVuSans-44"/>
    </g>
   </g>
   <g id="text_17">
    <!-- 5-D -->
    <defs>
     <path d="M 10.796875 72.90625 
L 49.515625 72.90625 
L 49.515625 64.59375 
L 19.828125 64.59375 
L 19.828125 46.734375 
Q 21.96875 47.46875 24.109375 47.828125 
Q 26.265625 48.1875 28.421875 48.1875 
Q 40.625 48.1875 47.75 41.5 
Q 54.890625 34.8125 54.890625 23.390625 
Q 54.890625 11.625 47.5625 5.09375 
Q 40.234375 -1.421875 26.90625 -1.421875 
Q 22.3125 -1.421875 17.546875 -0.640625 
Q 12.796875 0.140625 7.71875 1.703125 
L 7.71875 11.625 
Q 12.109375 9.234375 16.796875 8.0625 
Q 21.484375 6.890625 26.703125 6.890625 
Q 35.15625 6.890625 40.078125 11.328125 
Q 45.015625 15.765625 45.015625 23.390625 
Q 45.015625 31 40.078125 35.4375 
Q 35.15625 39.890625 26.703125 39.890625 
Q 22.75 39.890625 18.8125 39.015625 
Q 14.890625 38.140625 10.796875 36.28125 
z
" id="DejaVuSans-35"/>
    </defs>
    <g transform="translate(398.553325 145.35201)scale(0.15 -0.15)">
     <use xlink:href="#DejaVuSans-35"/>
     <use x="63.623047" xlink:href="#DejaVuSans-2d"/>
     <use x="99.707031" xlink:href="#DejaVuSans-44"/>
    </g>
   </g>
   <g id="text_18">
    <!-- 3-D -->
    <defs>
     <path d="M 40.578125 39.3125 
Q 47.65625 37.796875 51.625 33 
Q 55.609375 28.21875 55.609375 21.1875 
Q 55.609375 10.40625 48.1875 4.484375 
Q 40.765625 -1.421875 27.09375 -1.421875 
Q 22.515625 -1.421875 17.65625 -0.515625 
Q 12.796875 0.390625 7.625 2.203125 
L 7.625 11.71875 
Q 11.71875 9.328125 16.59375 8.109375 
Q 21.484375 6.890625 26.8125 6.890625 
Q 36.078125 6.890625 40.9375 10.546875 
Q 45.796875 14.203125 45.796875 21.1875 
Q 45.796875 27.640625 41.28125 31.265625 
Q 36.765625 34.90625 28.71875 34.90625 
L 20.21875 34.90625 
L 20.21875 43.015625 
L 29.109375 43.015625 
Q 36.375 43.015625 40.234375 45.921875 
Q 44.09375 48.828125 44.09375 54.296875 
Q 44.09375 59.90625 40.109375 62.90625 
Q 36.140625 65.921875 28.71875 65.921875 
Q 24.65625 65.921875 20.015625 65.03125 
Q 15.375 64.15625 9.8125 62.3125 
L 9.8125 71.09375 
Q 15.4375 72.65625 20.34375 73.4375 
Q 25.25 74.21875 29.59375 74.21875 
Q 40.828125 74.21875 47.359375 69.109375 
Q 53.90625 64.015625 53.90625 55.328125 
Q 53.90625 49.265625 50.4375 45.09375 
Q 46.96875 40.921875 40.578125 39.3125 
" id="DejaVuSans-33"/>
    </defs>
    <g transform="translate(398.553325 94.764382)scale(0.15 -0.15)">
     <use xlink:href="#DejaVuSans-33"/>
     <use x="63.623047" xlink:href="#DejaVuSans-2d"/>
     <use x="99.707031" xlink:href="#DejaVuSans-44"/>
    </g>
   </g>
   <g id="text_19">
    <!-- 2-D -->
    <g transform="translate(398.553325 44.176754)scale(0.15 -0.15)">
     <use xlink:href="#DejaVuSans-32"/>
     <use x="63.623047" xlink:href="#DejaVuSans-2d"/>
     <use x="99.707031" xlink:href="#DejaVuSans-44"/>
    </g>
   </g>
   <g id="text_20">
    <!-- bbob - f22 -->
    <defs>
     <path d="M 48.6875 27.296875 
Q 48.6875 37.203125 44.609375 42.84375 
Q 40.53125 48.484375 33.40625 48.484375 
Q 26.265625 48.484375 22.1875 42.84375 
Q 18.109375 37.203125 18.109375 27.296875 
Q 18.109375 17.390625 22.1875 11.75 
Q 26.265625 6.109375 33.40625 6.109375 
Q 40.53125 6.109375 44.609375 11.75 
Q 48.6875 17.390625 48.6875 27.296875 
M 18.109375 46.390625 
Q 20.953125 51.265625 25.265625 53.625 
Q 29.59375 56 35.59375 56 
Q 45.5625 56 51.78125 48.09375 
Q 58.015625 40.1875 58.015625 27.296875 
Q 58.015625 14.40625 51.78125 6.484375 
Q 45.5625 -1.421875 35.59375 -1.421875 
Q 29.59375 -1.421875 25.265625 0.953125 
Q 20.953125 3.328125 18.109375 8.203125 
L 18.109375 0 
L 9.078125 0 
L 9.078125 75.984375 
L 18.109375 75.984375 
z
" id="DejaVuSans-62"/>
    </defs>
    <g transform="translate(76.684525 50.114612)scale(0.1666 -0.1666)">
     <use xlink:href="#DejaVuSans-62"/>
     <use x="63.476562" xlink:href="#DejaVuSans-62"/>
     <use x="126.953125" xlink:href="#DejaVuSans-6f"/>
     <use x="188.134766" xlink:href="#DejaVuSans-62"/>
     <use x="251.611328" xlink:href="#DejaVuSans-20"/>
     <use x="283.398438" xlink:href="#DejaVuSans-2d"/>
     <use x="319.482422" xlink:href="#DejaVuSans-20"/>
     <use x="351.269531" xlink:href="#DejaVuSans-66"/>
     <use x="386.474609" xlink:href="#DejaVuSans-32"/>
     <use x="450.097656" xlink:href="#DejaVuSans-32"/>
    </g>
    <!-- 51 targets in 100..1e-08 -->
    <g transform="translate(76.684525 68.770168)scale(0.1666 -0.1666)">
     <use xlink:href="#DejaVuSans-35"/>
     <use x="63.623047" xlink:href="#DejaVuSans-31"/>
     <use x="127.246094" xlink:href="#DejaVuSans-20"/>
     <use x="159.033203" xlink:href="#DejaVuSans-74"/>
     <use x="198.242188" xlink:href="#DejaVuSans-61"/>
     <use x="259.521484" xlink:href="#DejaVuSans-72"/>
     <use x="300.619141" xlink:href="#DejaVuSans-67"/>
     <use x="364.095703" xlink:href="#DejaVuSans-65"/>
     <use x="425.619141" xlink:href="#DejaVuSans-74"/>
     <use x="464.828125" xlink:href="#DejaVuSans-73"/>
     <use x="516.927734" xlink:href="#DejaVuSans-20"/>
     <use x="548.714844" xlink:href="#DejaVuSans-69"/>
     <use x="576.498047" xlink:href="#DejaVuSans-6e"/>
     <use x="639.876953" xlink:href="#DejaVuSans-20"/>
     <use x="671.664062" xlink:href="#DejaVuSans-31"/>
     <use x="735.287109" xlink:href="#DejaVuSans-30"/>
     <use x="798.910156" xlink:href="#DejaVuSans-30"/>
     <use x="862.533203" xlink:href="#DejaVuSans-2e"/>
     <use x="894.320312" xlink:href="#DejaVuSans-2e"/>
     <use x="926.107422" xlink:href="#DejaVuSans-31"/>
     <use x="989.730469" xlink:href="#DejaVuSans-65"/>
     <use x="1051.253906" xlink:href="#DejaVuSans-2d"/>
     <use x="1087.337891" xlink:href="#DejaVuSans-30"/>
     <use x="1150.960938" xlink:href="#DejaVuSans-38"/>
    </g>
    <!-- 15 instances -->
    <g transform="translate(76.684525 87.425723)scale(0.1666 -0.1666)">
     <use xlink:href="#DejaVuSans-31"/>
     <use x="63.623047" xlink:href="#DejaVuSans-35"/>
     <use x="127.246094" xlink:href="#DejaVuSans-20"/>
     <use x="159.033203" xlink:href="#DejaVuSans-69"/>
     <use x="186.816406" xlink:href="#DejaVuSans-6e"/>
     <use x="250.195312" xlink:href="#DejaVuSans-73"/>
     <use x="302.294922" xlink:href="#DejaVuSans-74"/>
     <use x="341.503906" xlink:href="#DejaVuSans-61"/>
     <use x="402.783203" xlink:href="#DejaVuSans-6e"/>
     <use x="466.162109" xlink:href="#DejaVuSans-63"/>
     <use x="521.142578" xlink:href="#DejaVuSans-65"/>
     <use x="582.666016" xlink:href="#DejaVuSans-73"/>
    </g>
   </g>
   <g id="text_21">
    <!-- v2.0.1 -->
    <g style="fill:#808080;" transform="translate(235.992075 293.504568)scale(0.1 -0.1)">
     <use xlink:href="#DejaVuSans-76"/>
     <use x="59.179688" xlink:href="#DejaVuSans-32"/>
     <use x="122.802734" xlink:href="#DejaVuSans-2e"/>
     <use x="154.589844" xlink:href="#DejaVuSans-30"/>
     <use x="218.212891" xlink:href="#DejaVuSans-2e"/>
     <use x="250" xlink:href="#DejaVuSans-31"/>
    </g>
   </g>
   <g id="text_22">
    <!-- 22 Gallagher 21 peaks -->
    <defs>
     <path d="M 59.515625 10.40625 
L 59.515625 29.984375 
L 43.40625 29.984375 
L 43.40625 38.09375 
L 69.28125 38.09375 
L 69.28125 6.78125 
Q 63.578125 2.734375 56.6875 0.65625 
Q 49.8125 -1.421875 42 -1.421875 
Q 24.90625 -1.421875 15.25 8.5625 
Q 5.609375 18.5625 5.609375 36.375 
Q 5.609375 54.25 15.25 64.234375 
Q 24.90625 74.21875 42 74.21875 
Q 49.125 74.21875 55.546875 72.453125 
Q 61.96875 70.703125 67.390625 67.28125 
L 67.390625 56.78125 
Q 61.921875 61.421875 55.765625 63.765625 
Q 49.609375 66.109375 42.828125 66.109375 
Q 29.4375 66.109375 22.71875 58.640625 
Q 16.015625 51.171875 16.015625 36.375 
Q 16.015625 21.625 22.71875 14.15625 
Q 29.4375 6.6875 42.828125 6.6875 
Q 48.046875 6.6875 52.140625 7.59375 
Q 56.25 8.5 59.515625 10.40625 
" id="DejaVuSans-47"/>
     <path d="M 54.890625 33.015625 
L 54.890625 0 
L 45.90625 0 
L 45.90625 32.71875 
Q 45.90625 40.484375 42.875 44.328125 
Q 39.84375 48.1875 33.796875 48.1875 
Q 26.515625 48.1875 22.3125 43.546875 
Q 18.109375 38.921875 18.109375 30.90625 
L 18.109375 0 
L 9.078125 0 
L 9.078125 75.984375 
L 18.109375 75.984375 
L 18.109375 46.1875 
Q 21.34375 51.125 25.703125 53.5625 
Q 30.078125 56 35.796875 56 
Q 45.21875 56 50.046875 50.171875 
Q 54.890625 44.34375 54.890625 33.015625 
" id="DejaVuSans-68"/>
     <path d="M 9.078125 75.984375 
L 18.109375 75.984375 
L 18.109375 31.109375 
L 44.921875 54.6875 
L 56.390625 54.6875 
L 27.390625 29.109375 
L 57.625 0 
L 45.90625 0 
L 18.109375 26.703125 
L 18.109375 0 
L 9.078125 0 
z
" id="DejaVuSans-6b"/>
    </defs>
    <g transform="translate(115.923325 26.133375)scale(0.24 -0.24)">
     <use xlink:href="#DejaVuSans-32"/>
     <use x="63.623047" xlink:href="#DejaVuSans-32"/>
     <use x="127.246094" xlink:href="#DejaVuSans-20"/>
     <use x="159.033203" xlink:href="#DejaVuSans-47"/>
     <use x="236.523438" xlink:href="#DejaVuSans-61"/>
     <use x="297.802734" xlink:href="#DejaVuSans-6c"/>
     <use x="325.585938" xlink:href="#DejaVuSans-6c"/>
     <use x="353.369141" xlink:href="#DejaVuSans-61"/>
     <use x="414.648438" xlink:href="#DejaVuSans-67"/>
     <use x="478.125" xlink:href="#DejaVuSans-68"/>
     <use x="541.503906" xlink:href="#DejaVuSans-65"/>
     <use x="603.027344" xlink:href="#DejaVuSans-72"/>
     <use x="644.140625" xlink:href="#DejaVuSans-20"/>
     <use x="675.927734" xlink:href="#DejaVuSans-32"/>
     <use x="739.550781" xlink:href="#DejaVuSans-31"/>
     <use x="803.173828" xlink:href="#DejaVuSans-20"/>
     <use x="834.960938" xlink:href="#DejaVuSans-70"/>
     <use x="898.4375" xlink:href="#DejaVuSans-65"/>
     <use x="959.960938" xlink:href="#DejaVuSans-61"/>
     <use x="1021.240234" xlink:href="#DejaVuSans-6b"/>
     <use x="1079.150391" xlink:href="#DejaVuSans-73"/>
    </g>
   </g>
  </g>
 </g>
 <defs>
  <clipPath id="pf75da51bf0">
   <rect height="266.112" width="357.12" x="73.113325" y="32.133375"/>
  </clipPath>
 </defs>
</svg>
