<?xml version="1.0" encoding="utf-8" standalone="no"?>
<!DOCTYPE svg PUBLIC "-//W3C//DTD SVG 1.1//EN"
  "http://www.w3.org/Graphics/SVG/1.1/DTD/svg11.dtd">
<!-- Created with matplotlib (http://matplotlib.org/) -->
<svg height="353pt" version="1.1" viewBox="0 0 438 353" width="438pt" xmlns="http://www.w3.org/2000/svg" xmlns:xlink="http://www.w3.org/1999/xlink">
 <defs>
  <style type="text/css">
*{stroke-linecap:butt;stroke-linejoin:round;}
  </style>
 </defs>
 <g id="figure_1">
  <g id="patch_1">
   <path d="M 0 353.22225 
L 438.62 353.22225 
L 438.62 0 
L 0 0 
z
" style="fill:#ffffff;"/>
  </g>
  <g id="axes_1">
   <g id="patch_2">
    <path d="M 70.8 298.245375 
L 427.92 298.245375 
L 427.92 32.133375 
L 70.8 32.133375 
z
" style="fill:#ffffff;"/>
   </g>
   <g id="matplotlib.axis_1">
    <g id="xtick_1">
     <g id="line2d_1">
      <path clip-path="url(#p2cdc9df09f)" d="M 70.8 298.245375 
L 70.8 32.133375 
" style="fill:none;stroke:#b0b0b0;stroke-linecap:square;stroke-width:0.8;"/>
     </g>
     <g id="line2d_2">
      <defs>
       <path d="M 0 0 
L 0 3.5 
" id="m20b260ef60" style="stroke:#000000;stroke-width:0.8;"/>
      </defs>
      <g>
       <use style="stroke:#000000;stroke-width:0.8;" x="70.8" xlink:href="#m20b260ef60" y="298.245375"/>
      </g>
     </g>
     <g id="text_1">
      <!-- 0 -->
      <defs>
       <path d="M 31.78125 66.40625 
Q 24.171875 66.40625 20.328125 58.90625 
Q 16.5 51.421875 16.5 36.375 
Q 16.5 21.390625 20.328125 13.890625 
Q 24.171875 6.390625 31.78125 6.390625 
Q 39.453125 6.390625 43.28125 13.890625 
Q 47.125 21.390625 47.125 36.375 
Q 47.125 51.421875 43.28125 58.90625 
Q 39.453125 66.40625 31.78125 66.40625 
M 31.78125 74.21875 
Q 44.046875 74.21875 50.515625 64.515625 
Q 56.984375 54.828125 56.984375 36.375 
Q 56.984375 17.96875 50.515625 8.265625 
Q 44.046875 -1.421875 31.78125 -1.421875 
Q 19.53125 -1.421875 13.0625 8.265625 
Q 6.59375 17.96875 6.59375 36.375 
Q 6.59375 54.828125 13.0625 64.515625 
Q 19.53125 74.21875 31.78125 74.21875 
" id="DejaVuSans-30"/>
      </defs>
      <g transform="translate(64.4375 320.44225)scale(0.2 -0.2)">
       <use xlink:href="#DejaVuSans-30"/>
      </g>
     </g>
    </g>
    <g id="xtick_2">
     <g id="line2d_3">
      <path clip-path="url(#p2cdc9df09f)" d="M 153.085714 298.245375 
L 153.085714 32.133375 
" style="fill:none;stroke:#b0b0b0;stroke-linecap:square;stroke-width:0.8;"/>
     </g>
     <g id="line2d_4">
      <g>
       <use style="stroke:#000000;stroke-width:0.8;" x="153.085714" xlink:href="#m20b260ef60" y="298.245375"/>
      </g>
     </g>
     <g id="text_2">
      <!-- 2 -->
      <defs>
       <path d="M 19.1875 8.296875 
L 53.609375 8.296875 
L 53.609375 0 
L 7.328125 0 
L 7.328125 8.296875 
Q 12.9375 14.109375 22.625 23.890625 
Q 32.328125 33.6875 34.8125 36.53125 
Q 39.546875 41.84375 41.421875 45.53125 
Q 43.3125 49.21875 43.3125 52.78125 
Q 43.3125 58.59375 39.234375 62.25 
Q 35.15625 65.921875 28.609375 65.921875 
Q 23.96875 65.921875 18.8125 64.3125 
Q 13.671875 62.703125 7.8125 59.421875 
L 7.8125 69.390625 
Q 13.765625 71.78125 18.9375 73 
Q 24.125 74.21875 28.421875 74.21875 
Q 39.75 74.21875 46.484375 68.546875 
Q 53.21875 62.890625 53.21875 53.421875 
Q 53.21875 48.921875 51.53125 44.890625 
Q 49.859375 40.875 45.40625 35.40625 
Q 44.1875 33.984375 37.640625 27.21875 
Q 31.109375 20.453125 19.1875 8.296875 
" id="DejaVuSans-32"/>
      </defs>
      <g transform="translate(146.723214 320.44225)scale(0.2 -0.2)">
       <use xlink:href="#DejaVuSans-32"/>
      </g>
     </g>
    </g>
    <g id="xtick_3">
     <g id="line2d_5">
      <path clip-path="url(#p2cdc9df09f)" d="M 235.371429 298.245375 
L 235.371429 32.133375 
" style="fill:none;stroke:#b0b0b0;stroke-linecap:square;stroke-width:0.8;"/>
     </g>
     <g id="line2d_6">
      <g>
       <use style="stroke:#000000;stroke-width:0.8;" x="235.371429" xlink:href="#m20b260ef60" y="298.245375"/>
      </g>
     </g>
     <g id="text_3">
      <!-- 4 -->
      <defs>
       <path d="M 37.796875 64.3125 
L 12.890625 25.390625 
L 37.796875 25.390625 
z
M 35.203125 72.90625 
L 47.609375 72.90625 
L 47.609375 25.390625 
L 58.015625 25.390625 
L 58.015625 17.1875 
L 47.609375 17.1875 
L 47.609375 0 
L 37.796875 0 
L 37.796875 17.1875 
L 4.890625 17.1875 
L 4.890625 26.703125 
z
" id="DejaVuSans-34"/>
      </defs>
      <g transform="translate(229.008929 320.44225)scale(0.2 -0.2)">
       <use xlink:href="#DejaVuSans-34"/>
      </g>
     </g>
    </g>
    <g id="xtick_4">
     <g id="line2d_7">
      <path clip-path="url(#p2cdc9df09f)" d="M 317.657143 298.245375 
L 317.657143 32.133375 
" style="fill:none;stroke:#b0b0b0;stroke-linecap:square;stroke-width:0.8;"/>
     </g>
     <g id="line2d_8">
      <g>
       <use style="stroke:#000000;stroke-width:0.8;" x="317.657143" xlink:href="#m20b260ef60" y="298.245375"/>
      </g>
     </g>
     <g id="text_4">
      <!-- 6 -->
      <defs>
       <path d="M 33.015625 40.375 
Q 26.375 40.375 22.484375 35.828125 
Q 18.609375 31.296875 18.609375 23.390625 
Q 18.609375 15.53125 22.484375 10.953125 
Q 26.375 6.390625 33.015625 6.390625 
Q 39.65625 6.390625 43.53125 10.953125 
Q 47.40625 15.53125 47.40625 23.390625 
Q 47.40625 31.296875 43.53125 35.828125 
Q 39.65625 40.375 33.015625 40.375 
M 52.59375 71.296875 
L 52.59375 62.3125 
Q 48.875 64.0625 45.09375 64.984375 
Q 41.3125 65.921875 37.59375 65.921875 
Q 27.828125 65.921875 22.671875 59.328125 
Q 17.53125 52.734375 16.796875 39.40625 
Q 19.671875 43.65625 24.015625 45.921875 
Q 28.375 48.1875 33.59375 48.1875 
Q 44.578125 48.1875 50.953125 41.515625 
Q 57.328125 34.859375 57.328125 23.390625 
Q 57.328125 12.15625 50.6875 5.359375 
Q 44.046875 -1.421875 33.015625 -1.421875 
Q 20.359375 -1.421875 13.671875 8.265625 
Q 6.984375 17.96875 6.984375 36.375 
Q 6.984375 53.65625 15.1875 63.9375 
Q 23.390625 74.21875 37.203125 74.21875 
Q 40.921875 74.21875 44.703125 73.484375 
Q 48.484375 72.75 52.59375 71.296875 
" id="DejaVuSans-36"/>
      </defs>
      <g transform="translate(311.294643 320.44225)scale(0.2 -0.2)">
       <use xlink:href="#DejaVuSans-36"/>
      </g>
     </g>
    </g>
    <g id="xtick_5">
     <g id="line2d_9">
      <path clip-path="url(#p2cdc9df09f)" d="M 399.942857 298.245375 
L 399.942857 32.133375 
" style="fill:none;stroke:#b0b0b0;stroke-linecap:square;stroke-width:0.8;"/>
     </g>
     <g id="line2d_10">
      <g>
       <use style="stroke:#000000;stroke-width:0.8;" x="399.942857" xlink:href="#m20b260ef60" y="298.245375"/>
      </g>
     </g>
     <g id="text_5">
      <!-- 8 -->
      <defs>
       <path d="M 31.78125 34.625 
Q 24.75 34.625 20.71875 30.859375 
Q 16.703125 27.09375 16.703125 20.515625 
Q 16.703125 13.921875 20.71875 10.15625 
Q 24.75 6.390625 31.78125 6.390625 
Q 38.8125 6.390625 42.859375 10.171875 
Q 46.921875 13.96875 46.921875 20.515625 
Q 46.921875 27.09375 42.890625 30.859375 
Q 38.875 34.625 31.78125 34.625 
M 21.921875 38.8125 
Q 15.578125 40.375 12.03125 44.71875 
Q 8.5 49.078125 8.5 55.328125 
Q 8.5 64.0625 14.71875 69.140625 
Q 20.953125 74.21875 31.78125 74.21875 
Q 42.671875 74.21875 48.875 69.140625 
Q 55.078125 64.0625 55.078125 55.328125 
Q 55.078125 49.078125 51.53125 44.71875 
Q 48 40.375 41.703125 38.8125 
Q 48.828125 37.15625 52.796875 32.3125 
Q 56.78125 27.484375 56.78125 20.515625 
Q 56.78125 9.90625 50.3125 4.234375 
Q 43.84375 -1.421875 31.78125 -1.421875 
Q 19.734375 -1.421875 13.25 4.234375 
Q 6.78125 9.90625 6.78125 20.515625 
Q 6.78125 27.484375 10.78125 32.3125 
Q 14.796875 37.15625 21.921875 38.8125 
M 18.3125 54.390625 
Q 18.3125 48.734375 21.84375 45.5625 
Q 25.390625 42.390625 31.78125 42.390625 
Q 38.140625 42.390625 41.71875 45.5625 
Q 45.3125 48.734375 45.3125 54.390625 
Q 45.3125 60.0625 41.71875 63.234375 
Q 38.140625 66.40625 31.78125 66.40625 
Q 25.390625 66.40625 21.84375 63.234375 
Q 18.3125 60.0625 18.3125 54.390625 
" id="DejaVuSans-38"/>
      </defs>
      <g transform="translate(393.580357 320.44225)scale(0.2 -0.2)">
       <use xlink:href="#DejaVuSans-38"/>
      </g>
     </g>
    </g>
    <g id="xtick_6">
     <g id="line2d_11">
      <defs>
       <path d="M 0 0 
L 0 2 
" id="maf59819e31" style="stroke:#000000;stroke-width:0.6;"/>
      </defs>
      <g>
       <use style="stroke:#000000;stroke-width:0.6;" x="83.185234" xlink:href="#maf59819e31" y="298.245375"/>
      </g>
     </g>
    </g>
    <g id="xtick_7">
     <g id="line2d_12">
      <g>
       <use style="stroke:#000000;stroke-width:0.6;" x="95.570468" xlink:href="#maf59819e31" y="298.245375"/>
      </g>
     </g>
    </g>
    <g id="xtick_8">
     <g id="line2d_13">
      <g>
       <use style="stroke:#000000;stroke-width:0.6;" x="102.815366" xlink:href="#maf59819e31" y="298.245375"/>
      </g>
     </g>
    </g>
    <g id="xtick_9">
     <g id="line2d_14">
      <g>
       <use style="stroke:#000000;stroke-width:0.6;" x="107.955702" xlink:href="#maf59819e31" y="298.245375"/>
      </g>
     </g>
    </g>
    <g id="xtick_10">
     <g id="line2d_15">
      <g>
       <use style="stroke:#000000;stroke-width:0.6;" x="165.470948" xlink:href="#maf59819e31" y="298.245375"/>
      </g>
     </g>
    </g>
    <g id="xtick_11">
     <g id="line2d_16">
      <g>
       <use style="stroke:#000000;stroke-width:0.6;" x="177.856183" xlink:href="#maf59819e31" y="298.245375"/>
      </g>
     </g>
    </g>
    <g id="xtick_12">
     <g id="line2d_17">
      <g>
       <use style="stroke:#000000;stroke-width:0.6;" x="185.10108" xlink:href="#maf59819e31" y="298.245375"/>
      </g>
     </g>
    </g>
    <g id="xtick_13">
     <g id="line2d_18">
      <g>
       <use style="stroke:#000000;stroke-width:0.6;" x="190.241417" xlink:href="#maf59819e31" y="298.245375"/>
      </g>
     </g>
    </g>
    <g id="xtick_14">
     <g id="line2d_19">
      <g>
       <use style="stroke:#000000;stroke-width:0.6;" x="247.756663" xlink:href="#maf59819e31" y="298.245375"/>
      </g>
     </g>
    </g>
    <g id="xtick_15">
     <g id="line2d_20">
      <g>
       <use style="stroke:#000000;stroke-width:0.6;" x="260.141897" xlink:href="#maf59819e31" y="298.245375"/>
      </g>
     </g>
    </g>
    <g id="xtick_16">
     <g id="line2d_21">
      <g>
       <use style="stroke:#000000;stroke-width:0.6;" x="267.386794" xlink:href="#maf59819e31" y="298.245375"/>
      </g>
     </g>
    </g>
    <g id="xtick_17">
     <g id="line2d_22">
      <g>
       <use style="stroke:#000000;stroke-width:0.6;" x="272.527131" xlink:href="#maf59819e31" y="298.245375"/>
      </g>
     </g>
    </g>
    <g id="xtick_18">
     <g id="line2d_23">
      <g>
       <use style="stroke:#000000;stroke-width:0.6;" x="330.042377" xlink:href="#maf59819e31" y="298.245375"/>
      </g>
     </g>
    </g>
    <g id="xtick_19">
     <g id="line2d_24">
      <g>
       <use style="stroke:#000000;stroke-width:0.6;" x="342.427611" xlink:href="#maf59819e31" y="298.245375"/>
      </g>
     </g>
    </g>
    <g id="xtick_20">
     <g id="line2d_25">
      <g>
       <use style="stroke:#000000;stroke-width:0.6;" x="349.672509" xlink:href="#maf59819e31" y="298.245375"/>
      </g>
     </g>
    </g>
    <g id="xtick_21">
     <g id="line2d_26">
      <g>
       <use style="stroke:#000000;stroke-width:0.6;" x="354.812845" xlink:href="#maf59819e31" y="298.245375"/>
      </g>
     </g>
    </g>
    <g id="xtick_22">
     <g id="line2d_27">
      <g>
       <use style="stroke:#000000;stroke-width:0.6;" x="412.328091" xlink:href="#maf59819e31" y="298.245375"/>
      </g>
     </g>
    </g>
    <g id="xtick_23">
     <g id="line2d_28">
      <g>
       <use style="stroke:#000000;stroke-width:0.6;" x="424.713325" xlink:href="#maf59819e31" y="298.245375"/>
      </g>
     </g>
    </g>
    <g id="text_6">
     <!-- log10 of (# f-evals / dimension) -->
     <defs>
      <path d="M 9.421875 75.984375 
L 18.40625 75.984375 
L 18.40625 0 
L 9.421875 0 
z
" id="DejaVuSans-6c"/>
      <path d="M 30.609375 48.390625 
Q 23.390625 48.390625 19.1875 42.75 
Q 14.984375 37.109375 14.984375 27.296875 
Q 14.984375 17.484375 19.15625 11.84375 
Q 23.34375 6.203125 30.609375 6.203125 
Q 37.796875 6.203125 41.984375 11.859375 
Q 46.1875 17.53125 46.1875 27.296875 
Q 46.1875 37.015625 41.984375 42.703125 
Q 37.796875 48.390625 30.609375 48.390625 
M 30.609375 56 
Q 42.328125 56 49.015625 48.375 
Q 55.71875 40.765625 55.71875 27.296875 
Q 55.71875 13.875 49.015625 6.21875 
Q 42.328125 -1.421875 30.609375 -1.421875 
Q 18.84375 -1.421875 12.171875 6.21875 
Q 5.515625 13.875 5.515625 27.296875 
Q 5.515625 40.765625 12.171875 48.375 
Q 18.84375 56 30.609375 56 
" id="DejaVuSans-6f"/>
      <path d="M 45.40625 27.984375 
Q 45.40625 37.75 41.375 43.109375 
Q 37.359375 48.484375 30.078125 48.484375 
Q 22.859375 48.484375 18.828125 43.109375 
Q 14.796875 37.75 14.796875 27.984375 
Q 14.796875 18.265625 18.828125 12.890625 
Q 22.859375 7.515625 30.078125 7.515625 
Q 37.359375 7.515625 41.375 12.890625 
Q 45.40625 18.265625 45.40625 27.984375 
M 54.390625 6.78125 
Q 54.390625 -7.171875 48.1875 -13.984375 
Q 42 -20.796875 29.203125 -20.796875 
Q 24.46875 -20.796875 20.265625 -20.09375 
Q 16.0625 -19.390625 12.109375 -17.921875 
L 12.109375 -9.1875 
Q 16.0625 -11.328125 19.921875 -12.34375 
Q 23.78125 -13.375 27.78125 -13.375 
Q 36.625 -13.375 41.015625 -8.765625 
Q 45.40625 -4.15625 45.40625 5.171875 
L 45.40625 9.625 
Q 42.625 4.78125 38.28125 2.390625 
Q 33.9375 0 27.875 0 
Q 17.828125 0 11.671875 7.65625 
Q 5.515625 15.328125 5.515625 27.984375 
Q 5.515625 40.671875 11.671875 48.328125 
Q 17.828125 56 27.875 56 
Q 33.9375 56 38.28125 53.609375 
Q 42.625 51.21875 45.40625 46.390625 
L 45.40625 54.6875 
L 54.390625 54.6875 
z
" id="DejaVuSans-67"/>
      <path d="M 12.40625 8.296875 
L 28.515625 8.296875 
L 28.515625 63.921875 
L 10.984375 60.40625 
L 10.984375 69.390625 
L 28.421875 72.90625 
L 38.28125 72.90625 
L 38.28125 8.296875 
L 54.390625 8.296875 
L 54.390625 0 
L 12.40625 0 
z
" id="DejaVuSans-31"/>
      <path id="DejaVuSans-20"/>
      <path d="M 37.109375 75.984375 
L 37.109375 68.5 
L 28.515625 68.5 
Q 23.6875 68.5 21.796875 66.546875 
Q 19.921875 64.59375 19.921875 59.515625 
L 19.921875 54.6875 
L 34.71875 54.6875 
L 34.71875 47.703125 
L 19.921875 47.703125 
L 19.921875 0 
L 10.890625 0 
L 10.890625 47.703125 
L 2.296875 47.703125 
L 2.296875 54.6875 
L 10.890625 54.6875 
L 10.890625 58.5 
Q 10.890625 67.625 15.140625 71.796875 
Q 19.390625 75.984375 28.609375 75.984375 
z
" id="DejaVuSans-66"/>
      <path d="M 31 75.875 
Q 24.46875 64.65625 21.28125 53.65625 
Q 18.109375 42.671875 18.109375 31.390625 
Q 18.109375 20.125 21.3125 9.0625 
Q 24.515625 -2 31 -13.1875 
L 23.1875 -13.1875 
Q 15.875 -1.703125 12.234375 9.375 
Q 8.59375 20.453125 8.59375 31.390625 
Q 8.59375 42.28125 12.203125 53.3125 
Q 15.828125 64.359375 23.1875 75.875 
z
" id="DejaVuSans-28"/>
      <path d="M 51.125 44 
L 36.921875 44 
L 32.8125 27.6875 
L 47.125 27.6875 
z
M 43.796875 71.78125 
L 38.71875 51.515625 
L 52.984375 51.515625 
L 58.109375 71.78125 
L 65.921875 71.78125 
L 60.890625 51.515625 
L 76.125 51.515625 
L 76.125 44 
L 58.984375 44 
L 54.984375 27.6875 
L 70.515625 27.6875 
L 70.515625 20.21875 
L 53.078125 20.21875 
L 48 0 
L 40.1875 0 
L 45.21875 20.21875 
L 30.90625 20.21875 
L 25.875 0 
L 18.015625 0 
L 23.09375 20.21875 
L 7.71875 20.21875 
L 7.71875 27.6875 
L 24.90625 27.6875 
L 29 44 
L 13.28125 44 
L 13.28125 51.515625 
L 30.90625 51.515625 
L 35.890625 71.78125 
z
" id="DejaVuSans-23"/>
      <path d="M 4.890625 31.390625 
L 31.203125 31.390625 
L 31.203125 23.390625 
L 4.890625 23.390625 
z
" id="DejaVuSans-2d"/>
      <path d="M 56.203125 29.59375 
L 56.203125 25.203125 
L 14.890625 25.203125 
Q 15.484375 15.921875 20.484375 11.0625 
Q 25.484375 6.203125 34.421875 6.203125 
Q 39.59375 6.203125 44.453125 7.46875 
Q 49.3125 8.734375 54.109375 11.28125 
L 54.109375 2.78125 
Q 49.265625 0.734375 44.1875 -0.34375 
Q 39.109375 -1.421875 33.890625 -1.421875 
Q 20.796875 -1.421875 13.15625 6.1875 
Q 5.515625 13.8125 5.515625 26.8125 
Q 5.515625 40.234375 12.765625 48.109375 
Q 20.015625 56 32.328125 56 
Q 43.359375 56 49.78125 48.890625 
Q 56.203125 41.796875 56.203125 29.59375 
M 47.21875 32.234375 
Q 47.125 39.59375 43.09375 43.984375 
Q 39.0625 48.390625 32.421875 48.390625 
Q 24.90625 48.390625 20.390625 44.140625 
Q 15.875 39.890625 15.1875 32.171875 
z
" id="DejaVuSans-65"/>
      <path d="M 2.984375 54.6875 
L 12.5 54.6875 
L 29.59375 8.796875 
L 46.6875 54.6875 
L 56.203125 54.6875 
L 35.6875 0 
L 23.484375 0 
z
" id="DejaVuSans-76"/>
      <path d="M 34.28125 27.484375 
Q 23.390625 27.484375 19.1875 25 
Q 14.984375 22.515625 14.984375 16.5 
Q 14.984375 11.71875 18.140625 8.90625 
Q 21.296875 6.109375 26.703125 6.109375 
Q 34.1875 6.109375 38.703125 11.40625 
Q 43.21875 16.703125 43.21875 25.484375 
L 43.21875 27.484375 
z
M 52.203125 31.203125 
L 52.203125 0 
L 43.21875 0 
L 43.21875 8.296875 
Q 40.140625 3.328125 35.546875 0.953125 
Q 30.953125 -1.421875 24.3125 -1.421875 
Q 15.921875 -1.421875 10.953125 3.296875 
Q 6 8.015625 6 15.921875 
Q 6 25.140625 12.171875 29.828125 
Q 18.359375 34.515625 30.609375 34.515625 
L 43.21875 34.515625 
L 43.21875 35.40625 
Q 43.21875 41.609375 39.140625 45 
Q 35.0625 48.390625 27.6875 48.390625 
Q 23 48.390625 18.546875 47.265625 
Q 14.109375 46.140625 10.015625 43.890625 
L 10.015625 52.203125 
Q 14.9375 54.109375 19.578125 55.046875 
Q 24.21875 56 28.609375 56 
Q 40.484375 56 46.34375 49.84375 
Q 52.203125 43.703125 52.203125 31.203125 
" id="DejaVuSans-61"/>
      <path d="M 44.28125 53.078125 
L 44.28125 44.578125 
Q 40.484375 46.53125 36.375 47.5 
Q 32.28125 48.484375 27.875 48.484375 
Q 21.1875 48.484375 17.84375 46.4375 
Q 14.5 44.390625 14.5 40.28125 
Q 14.5 37.15625 16.890625 35.375 
Q 19.28125 33.59375 26.515625 31.984375 
L 29.59375 31.296875 
Q 39.15625 29.25 43.1875 25.515625 
Q 47.21875 21.78125 47.21875 15.09375 
Q 47.21875 7.46875 41.1875 3.015625 
Q 35.15625 -1.421875 24.609375 -1.421875 
Q 20.21875 -1.421875 15.453125 -0.5625 
Q 10.6875 0.296875 5.421875 2 
L 5.421875 11.28125 
Q 10.40625 8.6875 15.234375 7.390625 
Q 20.0625 6.109375 24.8125 6.109375 
Q 31.15625 6.109375 34.5625 8.28125 
Q 37.984375 10.453125 37.984375 14.40625 
Q 37.984375 18.0625 35.515625 20.015625 
Q 33.0625 21.96875 24.703125 23.78125 
L 21.578125 24.515625 
Q 13.234375 26.265625 9.515625 29.90625 
Q 5.8125 33.546875 5.8125 39.890625 
Q 5.8125 47.609375 11.28125 51.796875 
Q 16.75 56 26.8125 56 
Q 31.78125 56 36.171875 55.265625 
Q 40.578125 54.546875 44.28125 53.078125 
" id="DejaVuSans-73"/>
      <path d="M 25.390625 72.90625 
L 33.6875 72.90625 
L 8.296875 -9.28125 
L 0 -9.28125 
z
" id="DejaVuSans-2f"/>
      <path d="M 45.40625 46.390625 
L 45.40625 75.984375 
L 54.390625 75.984375 
L 54.390625 0 
L 45.40625 0 
L 45.40625 8.203125 
Q 42.578125 3.328125 38.25 0.953125 
Q 33.9375 -1.421875 27.875 -1.421875 
Q 17.96875 -1.421875 11.734375 6.484375 
Q 5.515625 14.40625 5.515625 27.296875 
Q 5.515625 40.1875 11.734375 48.09375 
Q 17.96875 56 27.875 56 
Q 33.9375 56 38.25 53.625 
Q 42.578125 51.265625 45.40625 46.390625 
M 14.796875 27.296875 
Q 14.796875 17.390625 18.875 11.75 
Q 22.953125 6.109375 30.078125 6.109375 
Q 37.203125 6.109375 41.296875 11.75 
Q 45.40625 17.390625 45.40625 27.296875 
Q 45.40625 37.203125 41.296875 42.84375 
Q 37.203125 48.484375 30.078125 48.484375 
Q 22.953125 48.484375 18.875 42.84375 
Q 14.796875 37.203125 14.796875 27.296875 
" id="DejaVuSans-64"/>
      <path d="M 9.421875 54.6875 
L 18.40625 54.6875 
L 18.40625 0 
L 9.421875 0 
z
M 9.421875 75.984375 
L 18.40625 75.984375 
L 18.40625 64.59375 
L 9.421875 64.59375 
z
" id="DejaVuSans-69"/>
      <path d="M 52 44.1875 
Q 55.375 50.25 60.0625 53.125 
Q 64.75 56 71.09375 56 
Q 79.640625 56 84.28125 50.015625 
Q 88.921875 44.046875 88.921875 33.015625 
L 88.921875 0 
L 79.890625 0 
L 79.890625 32.71875 
Q 79.890625 40.578125 77.09375 44.375 
Q 74.3125 48.1875 68.609375 48.1875 
Q 61.625 48.1875 57.5625 43.546875 
Q 53.515625 38.921875 53.515625 30.90625 
L 53.515625 0 
L 44.484375 0 
L 44.484375 32.71875 
Q 44.484375 40.625 41.703125 44.40625 
Q 38.921875 48.1875 33.109375 48.1875 
Q 26.21875 48.1875 22.15625 43.53125 
Q 18.109375 38.875 18.109375 30.90625 
L 18.109375 0 
L 9.078125 0 
L 9.078125 54.6875 
L 18.109375 54.6875 
L 18.109375 46.1875 
Q 21.1875 51.21875 25.484375 53.609375 
Q 29.78125 56 35.6875 56 
Q 41.65625 56 45.828125 52.96875 
Q 50 49.953125 52 44.1875 
" id="DejaVuSans-6d"/>
      <path d="M 54.890625 33.015625 
L 54.890625 0 
L 45.90625 0 
L 45.90625 32.71875 
Q 45.90625 40.484375 42.875 44.328125 
Q 39.84375 48.1875 33.796875 48.1875 
Q 26.515625 48.1875 22.3125 43.546875 
Q 18.109375 38.921875 18.109375 30.90625 
L 18.109375 0 
L 9.078125 0 
L 9.078125 54.6875 
L 18.109375 54.6875 
L 18.109375 46.1875 
Q 21.34375 51.125 25.703125 53.5625 
Q 30.078125 56 35.796875 56 
Q 45.21875 56 50.046875 50.171875 
Q 54.890625 44.34375 54.890625 33.015625 
" id="DejaVuSans-6e"/>
      <path d="M 8.015625 75.875 
L 15.828125 75.875 
Q 23.140625 64.359375 26.78125 53.3125 
Q 30.421875 42.28125 30.421875 31.390625 
Q 30.421875 20.453125 26.78125 9.375 
Q 23.140625 -1.703125 15.828125 -13.1875 
L 8.015625 -13.1875 
Q 14.5 -2 17.703125 9.0625 
Q 20.90625 20.125 20.90625 31.390625 
Q 20.90625 42.671875 17.703125 53.65625 
Q 14.5 64.65625 8.015625 75.875 
" id="DejaVuSans-29"/>
     </defs>
     <g transform="translate(107.015156 342.278812)scale(0.18 -0.18)">
      <use xlink:href="#DejaVuSans-6c"/>
      <use x="27.783203" xlink:href="#DejaVuSans-6f"/>
      <use x="88.964844" xlink:href="#DejaVuSans-67"/>
      <use x="152.441406" xlink:href="#DejaVuSans-31"/>
      <use x="216.064453" xlink:href="#DejaVuSans-30"/>
      <use x="279.6875" xlink:href="#DejaVuSans-20"/>
      <use x="311.474609" xlink:href="#DejaVuSans-6f"/>
      <use x="372.65625" xlink:href="#DejaVuSans-66"/>
      <use x="407.861328" xlink:href="#DejaVuSans-20"/>
      <use x="439.648438" xlink:href="#DejaVuSans-28"/>
      <use x="478.662109" xlink:href="#DejaVuSans-23"/>
      <use x="562.451172" xlink:href="#DejaVuSans-20"/>
      <use x="594.238281" xlink:href="#DejaVuSans-66"/>
      <use x="629.365234" xlink:href="#DejaVuSans-2d"/>
      <use x="665.449219" xlink:href="#DejaVuSans-65"/>
      <use x="726.972656" xlink:href="#DejaVuSans-76"/>
      <use x="786.152344" xlink:href="#DejaVuSans-61"/>
      <use x="847.431641" xlink:href="#DejaVuSans-6c"/>
      <use x="875.214844" xlink:href="#DejaVuSans-73"/>
      <use x="927.314453" xlink:href="#DejaVuSans-20"/>
      <use x="959.101562" xlink:href="#DejaVuSans-2f"/>
      <use x="992.792969" xlink:href="#DejaVuSans-20"/>
      <use x="1024.580078" xlink:href="#DejaVuSans-64"/>
      <use x="1088.056641" xlink:href="#DejaVuSans-69"/>
      <use x="1115.839844" xlink:href="#DejaVuSans-6d"/>
      <use x="1213.251953" xlink:href="#DejaVuSans-65"/>
      <use x="1274.775391" xlink:href="#DejaVuSans-6e"/>
      <use x="1338.154297" xlink:href="#DejaVuSans-73"/>
      <use x="1390.253906" xlink:href="#DejaVuSans-69"/>
      <use x="1418.037109" xlink:href="#DejaVuSans-6f"/>
      <use x="1479.21875" xlink:href="#DejaVuSans-6e"/>
      <use x="1542.597656" xlink:href="#DejaVuSans-29"/>
     </g>
    </g>
   </g>
   <g id="matplotlib.axis_2">
    <g id="ytick_1">
     <g id="line2d_29">
      <path clip-path="url(#p2cdc9df09f)" d="M 70.8 298.245375 
L 427.92 298.245375 
" style="fill:none;stroke:#b0b0b0;stroke-linecap:square;stroke-width:0.8;"/>
     </g>
     <g id="line2d_30">
      <defs>
       <path d="M 0 0 
L -3.5 0 
" id="mdcbad0e184" style="stroke:#000000;stroke-width:0.8;"/>
      </defs>
      <g>
       <use style="stroke:#000000;stroke-width:0.8;" x="70.8" xlink:href="#mdcbad0e184" y="298.245375"/>
      </g>
     </g>
     <g id="text_7">
      <!-- 0.0 -->
      <defs>
       <path d="M 10.6875 12.40625 
L 21 12.40625 
L 21 0 
L 10.6875 0 
z
" id="DejaVuSans-2e"/>
      </defs>
      <g transform="translate(31.99375 305.843812)scale(0.2 -0.2)">
       <use xlink:href="#DejaVuSans-30"/>
       <use x="63.623047" xlink:href="#DejaVuSans-2e"/>
       <use x="95.410156" xlink:href="#DejaVuSans-30"/>
      </g>
     </g>
    </g>
    <g id="ytick_2">
     <g id="line2d_31">
      <path clip-path="url(#p2cdc9df09f)" d="M 70.8 245.549929 
L 427.92 245.549929 
" style="fill:none;stroke:#b0b0b0;stroke-linecap:square;stroke-width:0.8;"/>
     </g>
     <g id="line2d_32">
      <g>
       <use style="stroke:#000000;stroke-width:0.8;" x="70.8" xlink:href="#mdcbad0e184" y="245.549929"/>
      </g>
     </g>
     <g id="text_8">
      <!-- 0.2 -->
      <g transform="translate(31.99375 253.148367)scale(0.2 -0.2)">
       <use xlink:href="#DejaVuSans-30"/>
       <use x="63.623047" xlink:href="#DejaVuSans-2e"/>
       <use x="95.410156" xlink:href="#DejaVuSans-32"/>
      </g>
     </g>
    </g>
    <g id="ytick_3">
     <g id="line2d_33">
      <path clip-path="url(#p2cdc9df09f)" d="M 70.8 192.854484 
L 427.92 192.854484 
" style="fill:none;stroke:#b0b0b0;stroke-linecap:square;stroke-width:0.8;"/>
     </g>
     <g id="line2d_34">
      <g>
       <use style="stroke:#000000;stroke-width:0.8;" x="70.8" xlink:href="#mdcbad0e184" y="192.854484"/>
      </g>
     </g>
     <g id="text_9">
      <!-- 0.4 -->
      <g transform="translate(31.99375 200.452921)scale(0.2 -0.2)">
       <use xlink:href="#DejaVuSans-30"/>
       <use x="63.623047" xlink:href="#DejaVuSans-2e"/>
       <use x="95.410156" xlink:href="#DejaVuSans-34"/>
      </g>
     </g>
    </g>
    <g id="ytick_4">
     <g id="line2d_35">
      <path clip-path="url(#p2cdc9df09f)" d="M 70.8 140.159038 
L 427.92 140.159038 
" style="fill:none;stroke:#b0b0b0;stroke-linecap:square;stroke-width:0.8;"/>
     </g>
     <g id="line2d_36">
      <g>
       <use style="stroke:#000000;stroke-width:0.8;" x="70.8" xlink:href="#mdcbad0e184" y="140.159038"/>
      </g>
     </g>
     <g id="text_10">
      <!-- 0.6 -->
      <g transform="translate(31.99375 147.757476)scale(0.2 -0.2)">
       <use xlink:href="#DejaVuSans-30"/>
       <use x="63.623047" xlink:href="#DejaVuSans-2e"/>
       <use x="95.410156" xlink:href="#DejaVuSans-36"/>
      </g>
     </g>
    </g>
    <g id="ytick_5">
     <g id="line2d_37">
      <path clip-path="url(#p2cdc9df09f)" d="M 70.8 87.463593 
L 427.92 87.463593 
" style="fill:none;stroke:#b0b0b0;stroke-linecap:square;stroke-width:0.8;"/>
     </g>
     <g id="line2d_38">
      <g>
       <use style="stroke:#000000;stroke-width:0.8;" x="70.8" xlink:href="#mdcbad0e184" y="87.463593"/>
      </g>
     </g>
     <g id="text_11">
      <!-- 0.8 -->
      <g transform="translate(31.99375 95.06203)scale(0.2 -0.2)">
       <use xlink:href="#DejaVuSans-30"/>
       <use x="63.623047" xlink:href="#DejaVuSans-2e"/>
       <use x="95.410156" xlink:href="#DejaVuSans-38"/>
      </g>
     </g>
    </g>
    <g id="ytick_6">
     <g id="line2d_39">
      <path clip-path="url(#p2cdc9df09f)" d="M 70.8 34.768147 
L 427.92 34.768147 
" style="fill:none;stroke:#b0b0b0;stroke-linecap:square;stroke-width:0.8;"/>
     </g>
     <g id="line2d_40">
      <g>
       <use style="stroke:#000000;stroke-width:0.8;" x="70.8" xlink:href="#mdcbad0e184" y="34.768147"/>
      </g>
     </g>
     <g id="text_12">
      <!-- 1.0 -->
      <g transform="translate(31.99375 42.366585)scale(0.2 -0.2)">
       <use xlink:href="#DejaVuSans-31"/>
       <use x="63.623047" xlink:href="#DejaVuSans-2e"/>
       <use x="95.410156" xlink:href="#DejaVuSans-30"/>
      </g>
     </g>
    </g>
    <g id="text_13">
     <!-- Proportion of function+target pairs -->
     <defs>
      <path d="M 19.671875 64.796875 
L 19.671875 37.40625 
L 32.078125 37.40625 
Q 38.96875 37.40625 42.71875 40.96875 
Q 46.484375 44.53125 46.484375 51.125 
Q 46.484375 57.671875 42.71875 61.234375 
Q 38.96875 64.796875 32.078125 64.796875 
z
M 9.8125 72.90625 
L 32.078125 72.90625 
Q 44.34375 72.90625 50.609375 67.359375 
Q 56.890625 61.8125 56.890625 51.125 
Q 56.890625 40.328125 50.609375 34.8125 
Q 44.34375 29.296875 32.078125 29.296875 
L 19.671875 29.296875 
L 19.671875 0 
L 9.8125 0 
z
" id="DejaVuSans-50"/>
      <path d="M 41.109375 46.296875 
Q 39.59375 47.171875 37.8125 47.578125 
Q 36.03125 48 33.890625 48 
Q 26.265625 48 22.1875 43.046875 
Q 18.109375 38.09375 18.109375 28.8125 
L 18.109375 0 
L 9.078125 0 
L 9.078125 54.6875 
L 18.109375 54.6875 
L 18.109375 46.1875 
Q 20.953125 51.171875 25.484375 53.578125 
Q 30.03125 56 36.53125 56 
Q 37.453125 56 38.578125 55.875 
Q 39.703125 55.765625 41.0625 55.515625 
z
" id="DejaVuSans-72"/>
      <path d="M 18.109375 8.203125 
L 18.109375 -20.796875 
L 9.078125 -20.796875 
L 9.078125 54.6875 
L 18.109375 54.6875 
L 18.109375 46.390625 
Q 20.953125 51.265625 25.265625 53.625 
Q 29.59375 56 35.59375 56 
Q 45.5625 56 51.78125 48.09375 
Q 58.015625 40.1875 58.015625 27.296875 
Q 58.015625 14.40625 51.78125 6.484375 
Q 45.5625 -1.421875 35.59375 -1.421875 
Q 29.59375 -1.421875 25.265625 0.953125 
Q 20.953125 3.328125 18.109375 8.203125 
M 48.6875 27.296875 
Q 48.6875 37.203125 44.609375 42.84375 
Q 40.53125 48.484375 33.40625 48.484375 
Q 26.265625 48.484375 22.1875 42.84375 
Q 18.109375 37.203125 18.109375 27.296875 
Q 18.109375 17.390625 22.1875 11.75 
Q 26.265625 6.109375 33.40625 6.109375 
Q 40.53125 6.109375 44.609375 11.75 
Q 48.6875 17.390625 48.6875 27.296875 
" id="DejaVuSans-70"/>
      <path d="M 18.3125 70.21875 
L 18.3125 54.6875 
L 36.8125 54.6875 
L 36.8125 47.703125 
L 18.3125 47.703125 
L 18.3125 18.015625 
Q 18.3125 11.328125 20.140625 9.421875 
Q 21.96875 7.515625 27.59375 7.515625 
L 36.8125 7.515625 
L 36.8125 0 
L 27.59375 0 
Q 17.1875 0 13.234375 3.875 
Q 9.28125 7.765625 9.28125 18.015625 
L 9.28125 47.703125 
L 2.6875 47.703125 
L 2.6875 54.6875 
L 9.28125 54.6875 
L 9.28125 70.21875 
z
" id="DejaVuSans-74"/>
      <path d="M 8.5 21.578125 
L 8.5 54.6875 
L 17.484375 54.6875 
L 17.484375 21.921875 
Q 17.484375 14.15625 20.5 10.265625 
Q 23.53125 6.390625 29.59375 6.390625 
Q 36.859375 6.390625 41.078125 11.03125 
Q 45.3125 15.671875 45.3125 23.6875 
L 45.3125 54.6875 
L 54.296875 54.6875 
L 54.296875 0 
L 45.3125 0 
L 45.3125 8.40625 
Q 42.046875 3.421875 37.71875 1 
Q 33.40625 -1.421875 27.6875 -1.421875 
Q 18.265625 -1.421875 13.375 4.4375 
Q 8.5 10.296875 8.5 21.578125 
M 31.109375 56 
z
" id="DejaVuSans-75"/>
      <path d="M 48.78125 52.59375 
L 48.78125 44.1875 
Q 44.96875 46.296875 41.140625 47.34375 
Q 37.3125 48.390625 33.40625 48.390625 
Q 24.65625 48.390625 19.8125 42.84375 
Q 14.984375 37.3125 14.984375 27.296875 
Q 14.984375 17.28125 19.8125 11.734375 
Q 24.65625 6.203125 33.40625 6.203125 
Q 37.3125 6.203125 41.140625 7.25 
Q 44.96875 8.296875 48.78125 10.40625 
L 48.78125 2.09375 
Q 45.015625 0.34375 40.984375 -0.53125 
Q 36.96875 -1.421875 32.421875 -1.421875 
Q 20.0625 -1.421875 12.78125 6.34375 
Q 5.515625 14.109375 5.515625 27.296875 
Q 5.515625 40.671875 12.859375 48.328125 
Q 20.21875 56 33.015625 56 
Q 37.15625 56 41.109375 55.140625 
Q 45.0625 54.296875 48.78125 52.59375 
" id="DejaVuSans-63"/>
      <path d="M 46 62.703125 
L 46 35.5 
L 73.1875 35.5 
L 73.1875 27.203125 
L 46 27.203125 
L 46 0 
L 37.796875 0 
L 37.796875 27.203125 
L 10.59375 27.203125 
L 10.59375 35.5 
L 37.796875 35.5 
L 37.796875 62.703125 
z
" id="DejaVuSans-2b"/>
     </defs>
     <g transform="translate(24.250312 323.17875)rotate(-90)scale(0.18 -0.18)">
      <use xlink:href="#DejaVuSans-50"/>
      <use x="60.287109" xlink:href="#DejaVuSans-72"/>
      <use x="101.369141" xlink:href="#DejaVuSans-6f"/>
      <use x="162.550781" xlink:href="#DejaVuSans-70"/>
      <use x="226.027344" xlink:href="#DejaVuSans-6f"/>
      <use x="287.208984" xlink:href="#DejaVuSans-72"/>
      <use x="328.322266" xlink:href="#DejaVuSans-74"/>
      <use x="367.53125" xlink:href="#DejaVuSans-69"/>
      <use x="395.314453" xlink:href="#DejaVuSans-6f"/>
      <use x="456.496094" xlink:href="#DejaVuSans-6e"/>
      <use x="519.875" xlink:href="#DejaVuSans-20"/>
      <use x="551.662109" xlink:href="#DejaVuSans-6f"/>
      <use x="612.84375" xlink:href="#DejaVuSans-66"/>
      <use x="648.048828" xlink:href="#DejaVuSans-20"/>
      <use x="679.835938" xlink:href="#DejaVuSans-66"/>
      <use x="715.041016" xlink:href="#DejaVuSans-75"/>
      <use x="778.419922" xlink:href="#DejaVuSans-6e"/>
      <use x="841.798828" xlink:href="#DejaVuSans-63"/>
      <use x="896.779297" xlink:href="#DejaVuSans-74"/>
      <use x="935.988281" xlink:href="#DejaVuSans-69"/>
      <use x="963.771484" xlink:href="#DejaVuSans-6f"/>
      <use x="1024.953125" xlink:href="#DejaVuSans-6e"/>
      <use x="1088.332031" xlink:href="#DejaVuSans-2b"/>
      <use x="1172.121094" xlink:href="#DejaVuSans-74"/>
      <use x="1211.330078" xlink:href="#DejaVuSans-61"/>
      <use x="1272.609375" xlink:href="#DejaVuSans-72"/>
      <use x="1313.707031" xlink:href="#DejaVuSans-67"/>
      <use x="1377.183594" xlink:href="#DejaVuSans-65"/>
      <use x="1438.707031" xlink:href="#DejaVuSans-74"/>
      <use x="1477.916016" xlink:href="#DejaVuSans-20"/>
      <use x="1509.703125" xlink:href="#DejaVuSans-70"/>
      <use x="1573.179688" xlink:href="#DejaVuSans-61"/>
      <use x="1634.458984" xlink:href="#DejaVuSans-69"/>
      <use x="1662.242188" xlink:href="#DejaVuSans-72"/>
      <use x="1703.355469" xlink:href="#DejaVuSans-73"/>
     </g>
    </g>
   </g>
   <g id="line2d_41">
    <defs>
     <path d="M 0 1.5 
C 0.397805 1.5 0.77937 1.341951 1.06066 1.06066 
C 1.341951 0.77937 1.5 0.397805 1.5 0 
C 1.5 -0.397805 1.341951 -0.77937 1.06066 -1.06066 
C 0.77937 -1.341951 0.397805 -1.5 0 -1.5 
C -0.397805 -1.5 -0.77937 -1.341951 -1.06066 -1.06066 
C -1.341951 -0.77937 -1.5 -0.397805 -1.5 0 
C -1.5 0.397805 -1.341951 0.77937 -1.06066 1.06066 
C -0.77937 1.341951 -0.397805 1.5 0 1.5 
z
" id="mb176d1ecef" style="stroke:#000080;"/>
    </defs>
    <g>
     <use style="fill:#000080;stroke:#000080;" x="348.031545" xlink:href="#mb176d1ecef" y="117.42767"/>
     <use style="fill:#000080;stroke:#000080;" x="348.031545" xlink:href="#mb176d1ecef" y="117.42767"/>
    </g>
   </g>
   <g id="line2d_42">
    <path d="M 136.713325 298.245375 
L 136.713325 296.178887 
L 143.958223 296.178887 
L 143.958223 293.079155 
L 149.098559 293.079155 
L 149.098559 291.012667 
L 153.085714 291.012667 
L 153.085714 287.912935 
L 156.343457 287.912935 
L 156.343457 286.363069 
L 159.097839 286.363069 
L 159.097839 283.263337 
L 161.483794 283.263337 
L 161.483794 279.13036 
L 163.588354 279.13036 
L 163.588354 277.063872 
L 165.470948 277.063872 
L 165.470948 273.447518 
L 167.173962 273.447518 
L 167.173962 272.930896 
L 170.158903 272.930896 
L 170.158903 271.38103 
L 171.483073 271.38103 
L 171.483073 270.347786 
L 172.715846 270.347786 
L 172.715846 268.79792 
L 173.869028 268.79792 
L 173.869028 265.698188 
L 175.973589 265.698188 
L 175.973589 264.664944 
L 176.939668 264.664944 
L 176.939668 264.148322 
L 180.353465 264.148322 
L 180.353465 263.115078 
L 181.843337 263.115078 
L 181.843337 262.598456 
L 183.218486 262.598456 
L 183.218486 260.531968 
L 183.868307 260.531968 
L 183.868307 260.015346 
L 185.10108 260.015346 
L 185.10108 259.498724 
L 185.686972 259.498724 
L 185.686972 258.46548 
L 193.122975 258.46548 
L 193.122975 257.948858 
L 193.499159 257.948858 
L 193.499159 256.398992 
L 194.228571 256.398992 
L 194.228571 255.88237 
L 195.60372 255.88237 
L 195.60372 255.365748 
L 195.931585 255.365748 
L 195.931585 254.332504 
L 196.253542 254.332504 
L 196.253542 252.782638 
L 197.186003 252.782638 
L 197.186003 252.266016 
L 198.916526 252.266016 
L 198.916526 251.749394 
L 199.189327 251.749394 
L 199.189327 251.232772 
L 200.990517 251.232772 
L 200.990517 250.71615 
L 201.473469 250.71615 
L 201.473469 250.199528 
L 202.174269 250.199528 
L 202.174269 248.649662 
L 202.401892 248.649662 
L 202.401892 248.13304 
L 202.626651 248.13304 
L 202.626651 247.616418 
L 208.955034 247.616418 
L 208.955034 247.099796 
L 209.871548 247.099796 
L 209.871548 246.066551 
L 211.84326 246.066551 
L 211.84326 245.549929 
L 211.976109 245.549929 
L 211.976109 245.033307 
L 212.497843 245.033307 
L 212.497843 242.966819 
L 212.753106 242.966819 
L 212.753106 242.450197 
L 213.497719 242.450197 
L 213.497719 241.416953 
L 219.088158 241.416953 
L 219.088158 240.900331 
L 219.870828 240.900331 
L 219.870828 240.383709 
L 221.103601 240.383709 
L 221.103601 239.867087 
L 221.804401 239.867087 
L 221.804401 238.833843 
L 222.77048 238.833843 
L 222.842675 237.800599 
L 222.986194 237.800599 
L 222.986194 236.767355 
L 225.699689 236.767355 
L 225.699689 235.734111 
L 226.064357 235.734111 
L 226.064357 235.217489 
L 226.184277 235.217489 
L 226.184277 234.184245 
L 230.561555 234.184245 
L 230.561555 233.667623 
L 230.747683 233.667623 
L 230.840025 232.117757 
L 231.249758 232.117757 
L 231.249758 231.601135 
L 231.517785 231.601135 
L 231.517785 231.084513 
L 233.12785 231.084513 
L 233.12785 230.567891 
L 233.369315 230.567891 
L 233.369315 230.051269 
L 234.973941 230.051269 
L 234.973941 229.018025 
L 236.311157 229.018025 
L 236.34503 227.468159 
L 236.713458 227.468159 
L 236.713458 226.434915 
L 237.041925 226.434915 
L 237.041925 225.401671 
L 238.298549 225.401671 
L 238.298549 224.885049 
L 238.449591 224.885049 
L 238.449591 223.851805 
L 239.726428 223.851805 
L 239.726428 223.335183 
L 240.277957 223.335183 
L 240.277957 222.818561 
L 240.600883 222.818561 
L 240.600883 222.301939 
L 241.203973 222.301939 
L 241.203973 221.785317 
L 243.522117 221.785317 
L 243.522117 221.268695 
L 244.254246 221.268695 
L 244.254246 220.235451 
L 244.641296 220.235451 
L 244.641296 219.718829 
L 244.810663 219.718829 
L 244.810663 219.202207 
L 245.593936 219.202207 
L 245.593936 218.685585 
L 245.734551 218.685585 
L 245.734551 218.168963 
L 245.973061 218.168963 
L 245.973061 217.135719 
L 247.595122 217.135719 
L 247.595122 216.619097 
L 247.952139 216.619097 
L 247.952139 216.102475 
L 248.388607 216.102475 
L 248.440274 214.552609 
L 248.611426 214.552609 
L 248.611426 213.519365 
L 249.148348 213.519365 
L 249.148348 213.002743 
L 249.427159 213.002743 
L 249.427159 211.969498 
L 249.573022 211.969498 
L 249.573022 211.452876 
L 250.759464 211.452876 
L 250.759464 210.419632 
L 250.894886 210.419632 
L 250.894886 209.90301 
L 251.657844 209.90301 
L 251.715206 208.869766 
L 252.027444 208.869766 
L 252.027444 208.353144 
L 252.361959 208.353144 
L 252.361959 207.3199 
L 252.9327 207.3199 
L 252.9327 206.286656 
L 253.407803 206.286656 
L 253.407803 205.770034 
L 253.75602 205.770034 
L 253.75602 205.253412 
L 254.160122 205.253412 
L 254.259735 203.186924 
L 254.334083 203.186924 
L 254.334083 202.15368 
L 254.894029 202.15368 
L 254.965788 200.087192 
L 255.506575 200.087192 
L 255.506575 199.57057 
L 255.679438 199.57057 
L 255.679438 199.053948 
L 256.332536 199.053948 
L 256.354636 198.020704 
L 256.628608 198.020704 
L 256.628608 197.504082 
L 256.866277 197.504082 
L 256.866277 196.470838 
L 256.983936 196.470838 
L 257.037163 194.920972 
L 257.643274 194.920972 
L 257.643274 194.40435 
L 257.928681 194.40435 
L 257.928681 193.887728 
L 258.169738 193.887728 
L 258.169738 193.371106 
L 258.397739 193.371106 
L 258.397739 192.337862 
L 259.102707 192.337862 
L 259.102707 191.304618 
L 259.606856 191.304618 
L 259.707832 190.271374 
L 259.853695 190.271374 
L 259.853695 189.23813 
L 260.097171 189.23813 
L 260.097171 188.721508 
L 260.257664 188.721508 
L 260.284273 187.171642 
L 260.954025 187.171642 
L 260.971091 185.621776 
L 261.191479 185.621776 
L 261.191479 185.105154 
L 261.309033 185.105154 
L 261.359177 183.038666 
L 261.44244 183.038666 
L 261.44244 182.005422 
L 261.787966 182.005422 
L 261.812393 180.455556 
L 262.134931 180.455556 
L 262.134931 179.938934 
L 262.93962 179.938934 
L 263.008241 177.872445 
L 263.325033 177.872445 
L 263.369834 176.322579 
L 263.680335 176.322579 
L 263.680335 175.289335 
L 263.86988 175.289335 
L 263.86988 174.772713 
L 264.035895 174.772713 
L 264.071782 173.739469 
L 264.622483 173.739469 
L 264.622483 173.222847 
L 264.774788 173.222847 
L 264.774788 172.706225 
L 265.116184 172.706225 
L 265.116184 171.672981 
L 265.364683 171.672981 
L 265.364683 171.156359 
L 265.799548 171.156359 
L 265.845055 168.573249 
L 266.083687 168.573249 
L 266.179529 167.540005 
L 266.38229 167.540005 
L 266.420053 165.990139 
L 266.756375 165.990139 
L 266.756375 165.473517 
L 266.94052 165.473517 
L 267.007568 163.923651 
L 267.056172 163.923651 
L 267.086483 161.857163 
L 267.594049 161.857163 
L 267.658693 160.823919 
L 267.886018 160.823919 
L 267.914954 159.274053 
L 268.178992 159.274053 
L 268.178992 158.757431 
L 268.315217 158.757431 
L 268.315217 158.240809 
L 268.49525 158.240809 
L 268.539976 157.207565 
L 268.728823 157.207565 
L 268.817007 156.174321 
L 269.470166 156.174321 
L 269.575863 153.074589 
L 269.638983 153.074589 
L 269.638983 152.557967 
L 269.811421 152.557967 
L 269.909954 150.491479 
L 270.033645 150.491479 
L 270.090052 148.424991 
L 270.339177 148.424991 
L 270.389595 147.391747 
L 270.589856 147.391747 
L 270.589856 146.875125 
L 270.851792 146.875125 
L 270.890998 145.325259 
L 271.340564 145.325259 
L 271.340564 144.808637 
L 271.539945 144.808637 
L 271.568247 143.25877 
L 271.858108 143.25877 
L 271.936771 141.708904 
L 272.010492 141.708904 
L 272.051827 139.125794 
L 284.786848 139.125794 
L 284.786848 138.609172 
L 285.357933 138.609172 
L 285.42751 137.575928 
L 285.671057 137.575928 
L 285.671057 137.059306 
L 286.291649 137.059306 
L 286.36181 136.026062 
L 286.527854 136.026062 
L 286.527854 135.50944 
L 286.724689 135.50944 
L 286.754934 134.476196 
L 294.090263 134.476196 
L 294.090263 133.959574 
L 294.234007 133.959574 
L 294.234007 133.442952 
L 294.493265 133.442952 
L 294.598782 132.409708 
L 299.601563 132.409708 
L 299.601563 131.893086 
L 299.743339 131.893086 
L 299.743339 131.376464 
L 300.229459 131.376464 
L 300.276784 130.34322 
L 303.93828 130.34322 
L 303.93828 129.309976 
L 304.316984 129.309976 
L 304.316984 128.793354 
L 307.425322 128.793354 
L 307.425322 128.276732 
L 307.725633 128.276732 
L 307.725633 127.76011 
L 307.853516 127.76011 
L 307.853516 127.243488 
L 310.41957 127.243488 
L 310.41957 126.726866 
L 315.320131 126.726866 
L 315.320131 126.210244 
L 320.51618 126.210244 
L 320.51618 125.693622 
L 321.88482 125.693622 
L 321.88482 125.177 
L 323.328068 125.177 
L 323.328068 124.660378 
L 325.682155 124.660378 
L 325.682155 124.143756 
L 326.857957 124.143756 
L 326.857957 123.110512 
L 327.799204 123.110512 
L 327.799204 122.59389 
L 328.812221 122.59389 
L 328.812221 122.077268 
L 330.630632 122.077268 
L 330.720828 121.044024 
L 331.474843 121.044024 
L 331.474843 120.527402 
L 333.052275 120.527402 
L 333.052275 120.01078 
L 333.839263 120.01078 
L 333.839263 119.494158 
L 334.547419 119.494158 
L 334.547419 118.977536 
L 335.228576 118.977536 
L 335.228576 118.460914 
L 335.842275 118.460914 
L 335.842275 117.944292 
L 348.031545 117.944292 
L 348.031545 117.42767 
L 358.8 117.42767 
L 358.8 117.42767 
" style="fill:none;stroke:#000080;stroke-linecap:square;stroke-width:1.5;"/>
   </g>
   <g id="line2d_43">
    <defs>
     <path d="M 0 6 
C 1.591219 6 3.117479 5.367802 4.242641 4.242641 
C 5.367802 3.117479 6 1.591219 6 0 
C 6 -1.591219 5.367802 -3.117479 4.242641 -4.242641 
C 3.117479 -5.367802 1.591219 -6 0 -6 
C -1.591219 -6 -3.117479 -5.367802 -4.242641 -4.242641 
C -5.367802 -3.117479 -6 -1.591219 -6 0 
C -6 1.591219 -5.367802 3.117479 -4.242641 4.242641 
C -3.117479 5.367802 -1.591219 6 0 6 
z
" id="me07ad4962c" style="stroke:#000080;stroke-width:1.5;"/>
    </defs>
    <g>
     <use style="fill:none;stroke:#000080;stroke-width:1.5;" x="358.8" xlink:href="#me07ad4962c" y="117.42767"/>
    </g>
   </g>
   <g id="line2d_44"/>
   <g id="line2d_45">
    <path clip-path="url(#p2cdc9df09f)" d="M 276.514286 139.125794 
" style="fill:none;stroke:#000080;stroke-linecap:square;stroke-width:1.5;"/>
    <defs>
     <path d="M -12 12 
L 12 -12 
M -12 -12 
L 12 12 
" id="m4d552d4df3" style="stroke:#000080;stroke-width:3;"/>
    </defs>
    <g clip-path="url(#p2cdc9df09f)">
     <use style="fill:#000080;stroke:#000080;stroke-width:3;" x="276.514286" xlink:href="#m4d552d4df3" y="139.125794"/>
    </g>
   </g>
   <g id="line2d_46">
    <defs>
     <path d="M 0 1.5 
C 0.397805 1.5 0.77937 1.341951 1.06066 1.06066 
C 1.341951 0.77937 1.5 0.397805 1.5 0 
C 1.5 -0.397805 1.341951 -0.77937 1.06066 -1.06066 
C 0.77937 -1.341951 0.397805 -1.5 0 -1.5 
C -0.397805 -1.5 -0.77937 -1.341951 -1.06066 -1.06066 
C -1.341951 -0.77937 -1.5 -0.397805 -1.5 0 
C -1.5 0.397805 -1.341951 0.77937 -1.06066 1.06066 
C -0.77937 1.341951 -0.397805 1.5 0 1.5 
z
" id="m46113a9d79" style="stroke:#ff00ff;"/>
    </defs>
    <g>
     <use style="fill:#ff00ff;stroke:#ff00ff;" x="356.235331" xlink:href="#m46113a9d79" y="34.768147"/>
     <use style="fill:#ff00ff;stroke:#ff00ff;" x="356.235331" xlink:href="#m46113a9d79" y="34.768147"/>
    </g>
   </g>
   <g id="line2d_47">
    <path d="M 42.042377 298.245375 
L 42.042377 294.112399 
L 136.713325 294.112399 
L 136.713325 293.079155 
L 143.958223 293.079155 
L 143.958223 289.979423 
L 149.098559 289.979423 
L 149.098559 286.363069 
L 153.085714 286.363069 
L 153.085714 282.746715 
L 156.343457 282.746715 
L 156.343457 282.230093 
L 159.097839 282.230093 
L 159.097839 281.713471 
L 161.483794 281.713471 
L 161.483794 279.13036 
L 163.588354 279.13036 
L 163.588354 277.580494 
L 165.470948 277.580494 
L 165.470948 273.96414 
L 167.173962 273.96414 
L 167.173962 270.864408 
L 168.728691 270.864408 
L 168.728691 269.314542 
L 170.158903 269.314542 
L 170.158903 267.764676 
L 172.715846 267.764676 
L 172.715846 264.664944 
L 177.856183 264.664944 
L 177.856183 264.148322 
L 180.353465 264.148322 
L 180.353465 263.6317 
L 181.113925 263.6317 
L 181.113925 262.598456 
L 183.218486 262.598456 
L 183.218486 262.081834 
L 185.10108 262.081834 
L 185.10108 261.04859 
L 187.33751 261.04859 
L 187.33751 260.531968 
L 188.358823 260.531968 
L 188.358823 260.015346 
L 188.848391 260.015346 
L 188.848391 259.498724 
L 192.738699 259.498724 
L 192.738699 258.46548 
L 197.186003 258.46548 
L 197.186003 257.948858 
L 200.744057 257.948858 
L 200.744057 257.432236 
L 203.918885 257.432236 
L 203.918885 256.915614 
L 204.125455 256.915614 
L 204.125455 256.398992 
L 210.60096 256.398992 
L 210.60096 255.88237 
L 210.743337 255.88237 
L 210.743337 254.332504 
L 211.84326 254.332504 
L 211.84326 253.29926 
L 211.976109 253.29926 
L 211.976109 252.782638 
L 213.004774 252.782638 
L 213.004774 251.749394 
L 213.129291 251.749394 
L 213.129291 250.199528 
L 213.252946 250.199528 
L 213.252946 249.166284 
L 213.497719 249.166284 
L 213.497719 248.649662 
L 213.739183 248.649662 
L 213.739183 248.13304 
L 219.785538 248.13304 
L 219.785538 247.616418 
L 221.880598 247.616418 
L 221.880598 246.583173 
L 222.032023 246.583173 
L 222.032023 246.066551 
L 222.405066 246.066551 
L 222.478749 244.516685 
L 222.55213 244.516685 
L 222.55213 242.966819 
L 222.986194 242.966819 
L 222.986194 242.450197 
L 224.754065 242.450197 
L 224.754065 241.416953 
L 225.760986 241.416953 
L 225.760986 240.383709 
L 229.69912 240.383709 
L 229.69912 239.867087 
L 230.326135 239.867087 
L 230.326135 238.317221 
L 230.747683 238.317221 
L 230.747683 236.250733 
L 230.886018 236.250733 
L 230.886018 235.734111 
L 231.249758 235.734111 
L 231.339548 233.667623 
L 233.764643 233.667623 
L 233.764643 233.151001 
L 235.010444 233.151001 
L 235.010444 232.634379 
L 235.478317 232.634379 
L 235.513805 231.601135 
L 236.311157 231.601135 
L 236.311157 231.084513 
L 236.647033 231.084513 
L 236.746577 230.051269 
L 236.812633 230.051269 
L 236.812633 229.018025 
L 237.009349 229.018025 
L 237.009349 228.501403 
L 237.806453 228.501403 
L 237.806453 227.468159 
L 239.444145 227.468159 
L 239.444145 226.951537 
L 239.949086 226.951537 
L 239.949086 226.434915 
L 240.467039 226.434915 
L 240.547466 225.401671 
L 241.434532 225.401671 
L 241.510729 224.368427 
L 242.279636 224.368427 
L 242.279636 223.335183 
L 243.814122 223.335183 
L 243.814122 222.818561 
L 244.470308 222.818561 
L 244.534621 221.268695 
L 244.704997 221.268695 
L 244.704997 220.752073 
L 245.02014 220.752073 
L 245.103247 219.202207 
L 245.573757 219.202207 
L 245.573757 218.685585 
L 245.714531 218.685585 
L 245.814409 215.585853 
L 247.120072 215.585853 
L 247.120072 215.069231 
L 247.702978 215.069231 
L 247.702978 214.035987 
L 248.215297 214.035987 
L 248.215297 213.519365 
L 248.440274 213.519365 
L 248.440274 213.002743 
L 249.312881 213.002743 
L 249.312881 212.48612 
L 249.717704 212.48612 
L 249.717704 211.969498 
L 250.300497 211.969498 
L 250.300497 211.452876 
L 250.969679 211.452876 
L 250.969679 210.936254 
L 252.223338 210.936254 
L 252.223338 210.419632 
L 252.649608 210.419632 
L 252.649608 209.90301 
L 253.065945 209.90301 
L 253.065945 208.869766 
L 253.329491 208.869766 
L 253.329491 207.3199 
L 254.172604 207.3199 
L 254.172604 206.803278 
L 254.518609 206.803278 
L 254.518609 205.770034 
L 254.846028 205.770034 
L 254.846028 205.253412 
L 254.97772 205.253412 
L 254.97772 204.73679 
L 256.132393 204.73679 
L 256.132393 204.220168 
L 256.343589 204.220168 
L 256.343589 202.670302 
L 256.541393 202.670302 
L 256.541393 202.15368 
L 257.111415 202.15368 
L 257.111415 201.120436 
L 257.663812 201.120436 
L 257.663812 200.087192 
L 258.825972 200.087192 
L 258.825972 199.57057 
L 260.141897 199.57057 
L 260.141897 199.053948 
L 260.583107 199.053948 
L 260.583107 198.537326 
L 260.954025 198.537326 
L 260.954025 198.020704 
L 261.755345 198.020704 
L 261.820528 196.98746 
L 262.238515 196.98746 
L 262.238515 196.470838 
L 263.0766 196.470838 
L 263.152248 193.887728 
L 263.848112 193.887728 
L 263.848112 193.371106 
L 264.078951 193.371106 
L 264.078951 192.854484 
L 264.306845 192.854484 
L 264.306845 192.337862 
L 264.740287 192.337862 
L 264.809223 190.271374 
L 265.351339 190.271374 
L 265.358012 188.204886 
L 266.128478 188.204886 
L 266.128478 187.688264 
L 266.426339 187.688264 
L 266.426339 187.171642 
L 267.098593 187.171642 
L 267.098593 186.138398 
L 267.646957 186.138398 
L 267.70556 185.105154 
L 267.822193 185.105154 
L 267.822193 184.07191 
L 268.133352 184.07191 
L 268.190384 182.522044 
L 268.528805 182.522044 
L 268.528805 182.005422 
L 268.953928 182.005422 
L 269.04101 179.422312 
L 269.084392 179.422312 
L 269.12767 177.872445 
L 269.417081 177.872445 
L 269.417081 177.355823 
L 270.394629 177.355823 
L 270.394629 176.322579 
L 270.540001 176.322579 
L 270.540001 175.805957 
L 271.605914 175.805957 
L 271.605914 175.289335 
L 271.85347 175.289335 
L 271.85347 174.772713 
L 272.074749 174.772713 
L 272.074749 173.739469 
L 276.958982 173.739469 
L 277.032034 172.706225 
L 277.813167 172.706225 
L 277.813167 171.672981 
L 278.314497 171.672981 
L 278.350004 168.573249 
L 278.452898 168.573249 
L 278.452898 168.056627 
L 279.298253 168.056627 
L 279.356262 166.506761 
L 279.447472 166.506761 
L 279.462629 165.473517 
L 279.887795 165.473517 
L 279.887795 164.956895 
L 280.198706 164.956895 
L 280.198706 164.440273 
L 280.349273 164.440273 
L 280.349273 163.407029 
L 281.521007 163.407029 
L 281.591078 161.340541 
L 281.711709 161.340541 
L 281.711709 160.823919 
L 281.871294 160.823919 
L 281.871294 160.307297 
L 282.160216 160.307297 
L 282.22783 158.757431 
L 282.643446 158.757431 
L 282.744596 156.690943 
L 283.022325 156.690943 
L 283.022325 156.174321 
L 283.818645 156.174321 
L 283.818645 155.141077 
L 283.991148 155.141077 
L 283.991148 154.107833 
L 284.178299 154.107833 
L 284.178299 153.591211 
L 284.466855 153.591211 
L 284.466855 153.074589 
L 284.912365 153.074589 
L 284.912365 152.557967 
L 285.076885 152.557967 
L 285.076885 152.041345 
L 285.242097 152.041345 
L 285.242097 151.524723 
L 285.466528 151.524723 
L 285.466528 151.008101 
L 285.713819 151.008101 
L 285.805412 149.458235 
L 286.431695 149.458235 
L 286.431695 148.941613 
L 286.613348 148.941613 
L 286.714595 147.908369 
L 286.81728 147.908369 
L 286.81728 146.875125 
L 289.330268 146.875125 
L 289.330268 146.358503 
L 289.842638 146.358503 
L 289.842638 145.841881 
L 290.919703 145.841881 
L 290.919703 145.325259 
L 291.058001 145.325259 
L 291.058001 144.808637 
L 291.522215 144.808637 
L 291.617618 143.775392 
L 292.225626 143.775392 
L 292.225626 143.25877 
L 292.448216 143.25877 
L 292.515477 141.192282 
L 292.747477 141.192282 
L 292.747477 140.159038 
L 293.137913 140.159038 
L 293.137913 139.125794 
L 293.30486 139.125794 
L 293.370369 138.09255 
L 293.521378 138.09255 
L 293.580601 137.059306 
L 293.662911 137.059306 
L 293.688897 134.992818 
L 293.776152 134.992818 
L 293.791106 133.959574 
L 293.930527 133.959574 
L 293.930527 133.442952 
L 294.130308 133.442952 
L 294.130308 132.92633 
L 294.327879 132.92633 
L 294.327879 132.409708 
L 294.516767 132.409708 
L 294.577989 131.376464 
L 294.748816 131.376464 
L 294.748816 130.859842 
L 297.182201 130.859842 
L 297.182201 130.34322 
L 297.3411 130.34322 
L 297.3411 129.826598 
L 297.611976 129.826598 
L 297.611976 129.309976 
L 297.839849 129.309976 
L 297.839849 128.276732 
L 298.049868 128.276732 
L 298.106526 127.243488 
L 298.247919 127.243488 
L 298.247919 126.726866 
L 298.586716 126.726866 
L 298.620971 125.693622 
L 298.75528 125.693622 
L 298.75528 125.177 
L 299.078615 125.177 
L 299.078615 124.660378 
L 299.205525 124.660378 
L 299.247629 123.627134 
L 299.397196 123.627134 
L 299.455684 122.59389 
L 299.546506 122.59389 
L 299.651558 119.494158 
L 299.688718 119.494158 
L 299.795853 118.460914 
L 300.228511 118.460914 
L 300.228511 117.944292 
L 302.068688 117.944292 
L 302.068688 117.42767 
L 302.872063 117.42767 
L 302.872063 116.911048 
L 303.025089 116.911048 
L 303.057479 115.877804 
L 303.184047 115.877804 
L 303.184047 115.361182 
L 303.383755 115.361182 
L 303.409157 114.327938 
L 303.529327 114.327938 
L 303.529327 113.294694 
L 303.782037 113.294694 
L 303.823939 112.26145 
L 303.895102 112.26145 
L 303.99441 111.228206 
L 304.064899 111.228206 
L 304.097749 109.678339 
L 304.325275 109.678339 
L 304.325275 109.161717 
L 305.900403 109.161717 
L 305.999491 107.611851 
L 306.615927 107.611851 
L 306.615927 106.578607 
L 306.776955 106.578607 
L 306.776955 106.061985 
L 306.970373 106.061985 
L 306.970373 105.545363 
L 307.090205 105.545363 
L 307.090205 105.028741 
L 307.293688 105.028741 
L 307.389806 102.445631 
L 307.525777 102.445631 
L 307.525777 101.412387 
L 307.744314 101.412387 
L 307.744314 100.895765 
L 308.848417 100.895765 
L 308.848417 100.379143 
L 309.048557 100.379143 
L 309.048557 99.862521 
L 309.18228 99.862521 
L 309.18228 99.345899 
L 309.603367 99.345899 
L 309.603367 98.829277 
L 309.956015 98.829277 
L 310.057459 97.796033 
L 310.147453 97.796033 
L 310.147453 97.279411 
L 310.393832 97.279411 
L 310.42707 95.729545 
L 310.71345 95.729545 
L 310.71345 95.212923 
L 311.736198 95.212923 
L 311.736198 94.696301 
L 312.220855 94.696301 
L 312.25425 93.146435 
L 312.393929 93.146435 
L 312.488672 91.596569 
L 312.513471 91.596569 
L 312.513471 91.079947 
L 312.6606 91.079947 
L 312.753474 89.013459 
L 312.872043 89.013459 
L 312.893517 87.463593 
L 313.91312 87.463593 
L 313.91312 86.946971 
L 314.644858 86.946971 
L 314.644858 86.430349 
L 314.896863 86.430349 
L 314.897697 84.880483 
L 315.086038 84.880483 
L 315.131785 83.847239 
L 315.332346 83.847239 
L 315.332346 83.330617 
L 316.807462 83.330617 
L 316.908363 82.297373 
L 316.925869 82.297373 
L 317.021663 80.747507 
L 317.259656 80.747507 
L 317.259656 80.230885 
L 318.314595 80.230885 
L 318.314595 79.714263 
L 318.436801 79.714263 
L 318.526549 77.131153 
L 318.796136 77.131153 
L 318.8216 76.097908 
L 319.537307 76.097908 
L 319.645062 75.064664 
L 320.15225 75.064664 
L 320.15225 74.548042 
L 320.43224 74.548042 
L 320.43224 74.03142 
L 321.390057 74.03142 
L 321.459807 72.998176 
L 321.525546 72.998176 
L 321.525546 72.481554 
L 321.694829 72.481554 
L 321.742658 70.415066 
L 321.828035 70.415066 
L 321.900045 68.8652 
L 322.817391 68.8652 
L 322.909518 67.831956 
L 322.947831 67.831956 
L 323.017593 66.798712 
L 323.22971 66.798712 
L 323.22971 66.28209 
L 324.232832 66.28209 
L 324.232832 65.765468 
L 324.381109 65.765468 
L 324.492125 64.215602 
L 324.519163 64.215602 
L 324.592035 63.182358 
L 325.428581 63.182358 
L 325.428581 62.665736 
L 325.601695 62.665736 
L 325.694466 60.599248 
L 326.643348 60.599248 
L 326.744422 58.016138 
L 326.775555 58.016138 
L 326.777271 56.982894 
L 327.726329 56.982894 
L 327.809533 55.433028 
L 328.597119 55.433028 
L 328.683702 54.399784 
L 328.80303 54.399784 
L 328.822554 53.36654 
L 329.489468 53.36654 
L 329.489468 52.849918 
L 329.645438 52.849918 
L 329.645438 52.333296 
L 330.411272 52.333296 
L 330.411272 51.816674 
L 330.536329 51.816674 
L 330.536329 51.300052 
L 331.391863 51.300052 
L 331.459169 50.266808 
L 332.175187 50.266808 
L 332.266137 48.716942 
L 332.793134 48.716942 
L 332.793134 48.20032 
L 332.999808 48.20032 
L 332.999808 47.683698 
L 333.694492 47.683698 
L 333.799488 46.133832 
L 334.408155 46.133832 
L 334.431372 45.100588 
L 335.117151 45.100588 
L 335.117151 44.583966 
L 335.835041 44.583966 
L 335.835041 44.067344 
L 336.408713 44.067344 
L 336.408713 43.550722 
L 338.193405 43.550722 
L 338.193405 43.0341 
L 339.295751 43.0341 
L 339.295751 42.517478 
L 340.329805 42.517478 
L 340.374559 41.484233 
L 340.840365 41.484233 
L 340.879475 40.450989 
L 341.74402 40.450989 
L 341.74402 39.934367 
L 342.693643 39.934367 
L 342.715898 38.901123 
L 343.92584 38.901123 
L 343.92584 38.384501 
L 345.167642 38.384501 
L 345.167642 37.867879 
L 345.557663 37.867879 
L 345.557663 37.351257 
L 346.616957 37.351257 
L 346.616957 36.834635 
L 350.165998 36.834635 
L 350.165998 36.318013 
L 351.258346 36.318013 
L 351.258346 35.801391 
L 354.729834 35.801391 
L 354.729834 35.284769 
L 356.235331 35.284769 
L 356.235331 34.768147 
L 358.8 34.768147 
L 358.8 34.768147 
" style="fill:none;stroke:#ff00ff;stroke-linecap:square;stroke-width:1.5;"/>
   </g>
   <g id="line2d_48">
    <defs>
     <path d="M -0 8.485281 
L 5.091169 0 
L 0 -8.485281 
L -5.091169 -0 
z
" id="m856f87d467" style="stroke:#ff00ff;stroke-linejoin:miter;stroke-width:1.5;"/>
    </defs>
    <g>
     <use style="fill:none;stroke:#ff00ff;stroke-linejoin:miter;stroke-width:1.5;" x="358.8" xlink:href="#m856f87d467" y="34.768147"/>
    </g>
   </g>
   <g id="line2d_49"/>
   <g id="line2d_50">
    <path clip-path="url(#p2cdc9df09f)" d="M 276.514286 173.739469 
" style="fill:none;stroke:#ff00ff;stroke-linecap:square;stroke-width:1.5;"/>
    <defs>
     <path d="M -12 12 
L 12 -12 
M -12 -12 
L 12 12 
" id="m133e76217d" style="stroke:#ff00ff;stroke-width:3;"/>
    </defs>
    <g clip-path="url(#p2cdc9df09f)">
     <use style="fill:#ff00ff;stroke:#ff00ff;stroke-width:3;" x="276.514286" xlink:href="#m133e76217d" y="173.739469"/>
    </g>
   </g>
   <g id="line2d_51">
    <defs>
     <path d="M 0 1.5 
C 0.397805 1.5 0.77937 1.341951 1.06066 1.06066 
C 1.341951 0.77937 1.5 0.397805 1.5 0 
C 1.5 -0.397805 1.341951 -0.77937 1.06066 -1.06066 
C 0.77937 -1.341951 0.397805 -1.5 0 -1.5 
C -0.397805 -1.5 -0.77937 -1.341951 -1.06066 -1.06066 
C -1.341951 -0.77937 -1.5 -0.397805 -1.5 0 
C -1.5 0.397805 -1.341951 0.77937 -1.06066 1.06066 
C -0.77937 1.341951 -0.397805 1.5 0 1.5 
z
" id="m40cc7a2221" style="stroke:#ffa500;"/>
    </defs>
    <g>
     <use style="fill:#ffa500;stroke:#ffa500;" x="251.484646" xlink:href="#m40cc7a2221" y="34.768147"/>
     <use style="fill:#ffa500;stroke:#ffa500;" x="251.484646" xlink:href="#m40cc7a2221" y="34.768147"/>
    </g>
   </g>
   <g id="line2d_52">
    <path d="M 42.042377 298.245375 
L 42.042377 281.713471 
L 136.713325 281.713471 
L 136.713325 276.54725 
L 143.958223 276.54725 
L 143.958223 273.447518 
L 149.098559 273.447518 
L 149.098559 269.314542 
L 153.085714 269.314542 
L 153.085714 268.281298 
L 156.343457 268.281298 
L 156.343457 267.248054 
L 159.097839 267.248054 
L 159.097839 266.731432 
L 161.483794 266.731432 
L 161.483794 265.698188 
L 163.588354 265.698188 
L 163.588354 264.664944 
L 165.470948 264.664944 
L 165.470948 264.148322 
L 167.173962 264.148322 
L 167.173962 263.115078 
L 168.728691 263.115078 
L 168.728691 261.04859 
L 170.158903 261.04859 
L 170.158903 260.531968 
L 173.869028 260.531968 
L 173.869028 260.015346 
L 174.952275 260.015346 
L 174.952275 259.498724 
L 175.973589 259.498724 
L 175.973589 256.398992 
L 176.939668 256.398992 
L 176.939668 255.365748 
L 177.856183 255.365748 
L 177.856183 254.849126 
L 178.727971 254.849126 
L 178.727971 254.332504 
L 179.559196 254.332504 
L 179.559196 251.749394 
L 180.353465 251.749394 
L 180.353465 249.166284 
L 181.843337 249.166284 
L 181.843337 248.649662 
L 183.868307 248.649662 
L 183.868307 247.099796 
L 185.10108 247.099796 
L 185.10108 245.549929 
L 185.686972 245.549929 
L 185.686972 244.516685 
L 187.33751 244.516685 
L 187.33751 243.483441 
L 188.848391 243.483441 
L 188.848391 242.450197 
L 190.682627 242.450197 
L 190.682627 241.933575 
L 191.113205 241.933575 
L 191.113205 241.416953 
L 191.94443 241.416953 
L 191.94443 240.900331 
L 194.582407 240.900331 
L 194.582407 239.867087 
L 194.929372 239.867087 
L 194.929372 239.350465 
L 195.269727 239.350465 
L 195.269727 238.833843 
L 196.880557 238.833843 
L 196.880557 237.800599 
L 198.072206 237.800599 
L 198.072206 237.283977 
L 198.358102 237.283977 
L 198.358102 236.767355 
L 198.639496 236.767355 
L 198.639496 236.250733 
L 200.494149 236.250733 
L 200.494149 235.734111 
L 200.744057 235.734111 
L 200.744057 234.700867 
L 201.473469 234.700867 
L 201.473469 234.184245 
L 201.94371 234.184245 
L 201.94371 233.667623 
L 203.284447 233.667623 
L 203.284447 233.151001 
L 203.498439 233.151001 
L 203.498439 232.634379 
L 204.329664 232.634379 
L 204.329664 231.601135 
L 204.731212 231.601135 
L 204.731212 231.084513 
L 206.069557 231.084513 
L 206.069557 230.567891 
L 206.252821 230.567891 
L 206.252821 230.051269 
L 207.822738 230.051269 
L 207.822738 229.534647 
L 208.316819 229.534647 
L 208.316819 228.501403 
L 213.129291 228.501403 
L 213.129291 227.984781 
L 214.09537 227.984781 
L 214.09537 227.468159 
L 214.212539 227.468159 
L 214.212539 225.401671 
L 214.328944 225.401671 
L 214.328944 224.885049 
L 214.444595 224.885049 
L 214.444595 224.368427 
L 214.559503 224.368427 
L 214.559503 223.851805 
L 215.011885 223.851805 
L 215.011885 222.818561 
L 215.123213 222.818561 
L 215.123213 221.785317 
L 215.453095 221.785317 
L 215.453095 221.268695 
L 215.989716 221.268695 
L 215.989716 220.752073 
L 216.613085 220.752073 
L 216.613085 220.235451 
L 216.816134 220.235451 
L 216.816134 219.202207 
L 217.016902 219.202207 
L 217.116446 217.652341 
L 217.215438 217.652341 
L 217.313885 216.619097 
L 217.606014 216.619097 
L 217.702338 214.035987 
L 217.798146 214.035987 
L 217.893443 212.48612 
L 217.988234 212.48612 
L 218.082525 210.419632 
L 218.176321 210.419632 
L 218.269628 208.869766 
L 218.454791 208.869766 
L 218.546658 202.670302 
L 218.728987 202.670302 
L 218.819459 201.120436 
L 218.909475 201.120436 
L 218.99904 197.504082 
L 219.176833 197.504082 
L 219.265071 195.437594 
L 222.405066 195.437594 
L 222.405066 194.920972 
L 222.55213 194.920972 
L 222.62521 193.887728 
L 222.697993 193.887728 
L 222.697993 192.854484 
L 225.57646 192.854484 
L 225.57646 192.337862 
L 225.699689 192.337862 
L 225.760986 191.304618 
L 226.303398 191.304618 
L 226.362663 190.271374 
L 226.421731 190.271374 
L 226.421731 189.23813 
L 226.539285 189.23813 
L 226.539285 188.204886 
L 226.65607 188.204886 
L 226.714178 186.65502 
L 226.772097 186.65502 
L 226.82983 185.621776 
L 227.001915 185.621776 
L 227.001915 185.105154 
L 227.228815 185.105154 
L 227.228815 184.07191 
L 227.341194 184.07191 
L 227.341194 183.038666 
L 227.45287 183.038666 
L 227.45287 182.522044 
L 227.619086 182.522044 
L 227.619086 180.972178 
L 227.78377 180.972178 
L 227.78377 179.422312 
L 228.054915 179.422312 
L 228.054915 178.90569 
L 228.322007 178.90569 
L 228.322007 177.355823 
L 228.480367 177.355823 
L 228.532843 175.805957 
L 228.689353 175.805957 
L 228.792936 171.672981 
L 228.844504 171.672981 
L 228.947195 169.089871 
L 228.998319 169.089871 
L 229.100132 165.473517 
L 229.402136 165.473517 
L 229.451977 164.440273 
L 229.600672 164.440273 
L 229.600672 163.923651 
L 229.748141 163.923651 
L 229.845781 162.890407 
L 229.894402 162.890407 
L 229.894402 162.373785 
L 230.18338 162.373785 
L 230.18338 160.307297 
L 230.420676 160.307297 
L 230.420676 158.757431 
L 230.561555 158.757431 
L 230.654862 157.207565 
L 230.793914 157.207565 
L 230.793914 156.690943 
L 231.068813 156.690943 
L 231.068813 155.657699 
L 231.249758 155.657699 
L 231.249758 154.624455 
L 231.428888 154.624455 
L 231.473392 153.074589 
L 231.738109 153.074589 
L 231.738109 152.557967 
L 232.170773 152.557967 
L 232.170773 151.524723 
L 232.467522 151.524723 
L 232.467522 150.491479 
L 233.168322 150.491479 
L 233.168322 149.974857 
L 233.289189 149.974857 
L 233.369315 148.424991 
L 233.488835 148.424991 
L 233.488835 147.391747 
L 233.60756 147.391747 
L 233.646961 145.325259 
L 233.725502 145.325259 
L 233.764643 142.742148 
L 234.52999 142.742148 
L 234.52999 142.225526 
L 234.753345 142.225526 
L 234.863983 141.192282 
L 234.937364 141.192282 
L 234.937364 140.159038 
L 235.119507 140.159038 
L 235.119507 139.642416 
L 235.263897 139.642416 
L 235.371429 137.575928 
L 236.378839 137.575928 
L 236.378839 137.059306 
L 236.613728 137.059306 
L 236.613728 136.542684 
L 236.878446 136.542684 
L 236.944017 135.50944 
L 237.806453 135.50944 
L 237.837609 133.959574 
L 238.084923 133.959574 
L 238.14622 132.92633 
L 238.237773 132.92633 
L 238.32886 129.309976 
L 238.419484 129.309976 
L 238.449591 126.210244 
L 238.569511 126.210244 
L 238.569511 125.693622 
L 238.924519 125.693622 
L 238.924519 123.627134 
L 239.585844 123.627134 
L 239.64221 122.59389 
L 240.00432 122.59389 
L 240.059384 116.911048 
L 240.250781 116.911048 
L 240.250781 116.394426 
L 240.865601 116.394426 
L 240.944257 115.361182 
L 241.022569 115.361182 
L 241.126454 112.778072 
L 241.152331 112.778072 
L 241.255466 107.611851 
L 241.306811 107.611851 
L 241.383553 100.895765 
L 241.737389 100.895765 
L 241.737389 100.379143 
L 241.86208 100.379143 
L 241.96121 98.829277 
L 242.157835 98.829277 
L 242.157835 97.796033 
L 242.303896 97.796033 
L 242.376482 94.179679 
L 242.424709 94.179679 
L 242.496806 93.146435 
L 242.568614 93.146435 
L 242.568614 92.629813 
L 243.109757 92.629813 
L 243.109757 92.113191 
L 243.362883 92.113191 
L 243.362883 91.596569 
L 243.476766 91.596569 
L 243.544749 88.496837 
L 243.679943 88.496837 
L 243.724782 87.463593 
L 243.814122 87.463593 
L 243.814122 86.946971 
L 244.556007 86.946971 
L 244.620012 84.880483 
L 244.683789 84.880483 
L 244.683789 84.363861 
L 244.831722 84.363861 
L 244.894749 82.297373 
L 244.957554 82.297373 
L 244.999302 81.264129 
L 245.370708 81.264129 
L 245.370708 80.747507 
L 245.573757 80.747507 
L 245.654335 77.647775 
L 245.694488 77.647775 
L 245.754549 75.064664 
L 245.854204 75.064664 
L 245.854204 74.03142 
L 245.973061 74.03142 
L 245.973061 72.998176 
L 246.555769 72.998176 
L 246.593949 69.898444 
L 246.670064 69.898444 
L 246.764755 64.215602 
L 246.82133 64.215602 
L 246.840148 61.632492 
L 247.083001 61.632492 
L 247.138579 60.082626 
L 247.377436 60.082626 
L 247.450293 58.53276 
L 247.504741 58.53276 
L 247.613143 54.916406 
L 247.649131 54.916406 
L 247.738786 47.683698 
L 247.792363 47.683698 
L 247.899039 44.067344 
L 248.215297 44.067344 
L 248.319485 41.484233 
L 248.440274 41.484233 
L 248.508931 40.450989 
L 248.64546 40.450989 
L 248.64546 39.934367 
L 249.443425 39.934367 
L 249.443425 39.417745 
L 249.589156 39.417745 
L 249.589156 38.901123 
L 249.987836 38.901123 
L 249.987836 38.384501 
L 250.191687 38.384501 
L 250.238401 37.351257 
L 250.683783 37.351257 
L 250.683783 36.834635 
L 250.834825 36.834635 
L 250.834825 35.801391 
L 251.103523 35.801391 
L 251.103523 35.284769 
L 251.484646 35.284769 
L 251.484646 34.768147 
L 358.8 34.768147 
L 358.8 34.768147 
" style="fill:none;stroke:#ffa500;stroke-linecap:square;stroke-width:1.5;"/>
   </g>
   <g id="line2d_53">
    <defs>
     <path d="M 0 -6 
L -1.347084 -1.854102 
L -5.706339 -1.854102 
L -2.179628 0.708204 
L -3.526712 4.854102 
L -0 2.291796 
L 3.526712 4.854102 
L 2.179628 0.708204 
L 5.706339 -1.854102 
L 1.347084 -1.854102 
z
" id="mb662d16825" style="stroke:#ffa500;stroke-linejoin:bevel;stroke-width:1.5;"/>
    </defs>
    <g>
     <use style="fill:none;stroke:#ffa500;stroke-linejoin:bevel;stroke-width:1.5;" x="358.8" xlink:href="#mb662d16825" y="34.768147"/>
    </g>
   </g>
   <g id="line2d_54"/>
   <g id="line2d_55">
    <defs>
     <path d="M 0 1.5 
C 0.397805 1.5 0.77937 1.341951 1.06066 1.06066 
C 1.341951 0.77937 1.5 0.397805 1.5 0 
C 1.5 -0.397805 1.341951 -0.77937 1.06066 -1.06066 
C 0.77937 -1.341951 0.397805 -1.5 0 -1.5 
C -0.397805 -1.5 -0.77937 -1.341951 -1.06066 -1.06066 
C -1.341951 -0.77937 -1.5 -0.397805 -1.5 0 
C -1.5 0.397805 -1.341951 0.77937 -1.06066 1.06066 
C -0.77937 1.341951 -0.397805 1.5 0 1.5 
z
" id="mac3fc8bb4b" style="stroke:#6495ed;"/>
    </defs>
    <g>
     <use style="fill:#6495ed;stroke:#6495ed;" x="297.11689" xlink:href="#mac3fc8bb4b" y="34.768147"/>
     <use style="fill:#6495ed;stroke:#6495ed;" x="297.11689" xlink:href="#mac3fc8bb4b" y="34.768147"/>
    </g>
   </g>
   <g id="line2d_56">
    <path d="M 42.042377 298.245375 
L 42.042377 272.414274 
L 136.713325 272.414274 
L 136.713325 268.281298 
L 143.958223 268.281298 
L 143.958223 263.6317 
L 149.098559 263.6317 
L 149.098559 262.598456 
L 153.085714 262.598456 
L 153.085714 258.982102 
L 156.343457 258.982102 
L 156.343457 258.46548 
L 159.097839 258.46548 
L 159.097839 255.88237 
L 161.483794 255.88237 
L 161.483794 254.332504 
L 163.588354 254.332504 
L 163.588354 252.782638 
L 165.470948 252.782638 
L 165.470948 252.266016 
L 167.173962 252.266016 
L 167.173962 251.232772 
L 170.158903 251.232772 
L 170.158903 250.199528 
L 171.483073 250.199528 
L 171.483073 249.682906 
L 195.269727 249.682906 
L 195.269727 249.166284 
L 195.60372 249.166284 
L 195.60372 248.13304 
L 197.186003 248.13304 
L 197.186003 247.099796 
L 202.848618 247.099796 
L 202.848618 246.066551 
L 204.125455 246.066551 
L 204.125455 245.549929 
L 204.531566 245.549929 
L 204.531566 244.516685 
L 204.731212 244.516685 
L 204.731212 242.450197 
L 206.967641 242.450197 
L 206.967641 240.900331 
L 208.316819 240.900331 
L 208.316819 240.383709 
L 208.478522 240.383709 
L 208.478522 239.350465 
L 209.419167 239.350465 
L 209.419167 238.833843 
L 209.722023 238.833843 
L 209.722023 238.317221 
L 210.019832 238.317221 
L 210.019832 235.734111 
L 210.166896 235.734111 
L 210.166896 235.217489 
L 211.438682 235.217489 
L 211.438682 234.700867 
L 211.709416 234.700867 
L 211.709416 233.667623 
L 211.84326 233.667623 
L 211.84326 232.634379 
L 211.976109 232.634379 
L 211.976109 231.084513 
L 212.107978 231.084513 
L 212.107978 227.468159 
L 212.497843 227.468159 
L 212.497843 226.951537 
L 212.753106 226.951537 
L 212.753106 226.434915 
L 212.879383 226.434915 
L 212.879383 225.918293 
L 213.004774 225.918293 
L 213.004774 225.401671 
L 213.129291 225.401671 
L 213.129291 224.368427 
L 213.618859 224.368427 
L 213.618859 217.135719 
L 213.739183 217.135719 
L 213.739183 216.102475 
L 213.858703 216.102475 
L 213.858703 215.585853 
L 216.714898 215.585853 
L 216.714898 214.552609 
L 217.702338 214.552609 
L 217.702338 214.035987 
L 217.988234 214.035987 
L 217.988234 213.519365 
L 218.454791 213.519365 
L 218.546658 210.419632 
L 222.182176 210.419632 
L 222.182176 208.869766 
L 222.331078 208.869766 
L 222.331078 208.353144 
L 222.62521 208.353144 
L 222.62521 207.3199 
L 222.986194 207.3199 
L 222.986194 198.537326 
L 223.128571 198.537326 
L 223.128571 197.504082 
L 223.891985 197.504082 
L 223.891985 196.470838 
L 224.161697 196.470838 
L 224.161697 195.437594 
L 224.818687 195.437594 
L 224.818687 189.23813 
L 225.074866 189.23813 
L 225.074866 188.204886 
L 225.327423 188.204886 
L 225.390008 186.138398 
L 225.57646 186.138398 
L 225.63818 184.07191 
L 225.699689 184.07191 
L 225.699689 177.355823 
L 225.943626 177.355823 
L 225.943626 168.573249 
L 226.064357 168.573249 
L 226.124418 160.823919 
L 226.243937 160.823919 
L 226.243937 155.657699 
L 229.201368 155.657699 
L 229.201368 154.107833 
L 230.326135 154.107833 
L 230.326135 144.292014 
L 230.608269 144.292014 
L 230.608269 143.775392 
L 230.747683 143.775392 
L 230.793914 142.742148 
L 231.068813 142.742148 
L 231.159515 139.642416 
L 231.204693 139.642416 
L 231.204693 138.09255 
L 231.428888 138.09255 
L 231.517785 127.76011 
L 231.606241 127.76011 
L 231.606241 127.243488 
L 232.759423 127.243488 
L 232.759423 125.177 
L 232.924107 125.177 
L 233.005883 121.560646 
L 233.046632 121.560646 
L 233.046632 120.527402 
L 233.449084 120.527402 
L 233.488835 118.460914 
L 235.442758 118.460914 
L 235.442758 109.678339 
L 235.760265 109.678339 
L 235.760265 107.095229 
L 236.140821 107.095229 
L 236.175018 106.061985 
L 236.34503 106.061985 
L 236.34503 105.545363 
L 237.041925 105.545363 
L 237.139299 99.862521 
L 237.33247 99.862521 
L 237.33247 98.312655 
L 238.115598 98.312655 
L 238.115598 97.796033 
L 244.620012 97.796033 
L 244.662555 89.013459 
L 244.78958 89.013459 
L 244.78958 87.463593 
L 246.971325 87.463593 
L 246.971325 80.230885 
L 247.083001 80.230885 
L 247.083001 79.197641 
L 247.48661 79.197641 
L 247.577082 62.149114 
L 247.631146 62.149114 
L 247.631146 61.632492 
L 277.021616 61.632492 
L 277.035505 58.016138 
L 277.321291 58.016138 
L 277.369049 56.466272 
L 277.477732 56.466272 
L 277.555441 50.266808 
L 277.813167 50.266808 
L 277.899358 45.61721 
L 278.018018 45.61721 
L 278.018018 45.100588 
L 278.38544 45.100588 
L 278.38544 43.0341 
L 279.264583 43.0341 
L 279.292136 40.450989 
L 279.643513 40.450989 
L 279.733272 38.384501 
L 289.146176 38.384501 
L 289.146176 37.867879 
L 289.56076 37.867879 
L 289.605474 35.801391 
L 290.532548 35.801391 
L 290.532548 35.284769 
L 297.11689 35.284769 
L 297.11689 34.768147 
L 358.8 34.768147 
L 358.8 34.768147 
" style="fill:none;stroke:#6495ed;stroke-linecap:square;stroke-width:1.5;"/>
   </g>
   <g id="line2d_57">
    <defs>
     <path d="M -0 6 
L 6 -6 
L -6 -6 
z
" id="ma19378e56b" style="stroke:#6495ed;stroke-linejoin:miter;stroke-width:1.5;"/>
    </defs>
    <g>
     <use style="fill:none;stroke:#6495ed;stroke-linejoin:miter;stroke-width:1.5;" x="358.8" xlink:href="#ma19378e56b" y="34.768147"/>
    </g>
   </g>
   <g id="line2d_58"/>
   <g id="line2d_59">
    <path clip-path="url(#p2cdc9df09f)" d="M 276.514286 61.632492 
" style="fill:none;stroke:#6495ed;stroke-linecap:square;stroke-width:1.5;"/>
    <defs>
     <path d="M -12 12 
L 12 -12 
M -12 -12 
L 12 12 
" id="md14c70551e" style="stroke:#6495ed;stroke-width:3;"/>
    </defs>
    <g clip-path="url(#p2cdc9df09f)">
     <use style="fill:#6495ed;stroke:#6495ed;stroke-width:3;" x="276.514286" xlink:href="#md14c70551e" y="61.632492"/>
    </g>
   </g>
   <g id="line2d_60">
    <path d="M 358.8 117.42767 
L 390.48 292.97583 
" style="fill:none;stroke:#000080;stroke-linecap:square;stroke-width:1.5;"/>
    <g>
     <use style="fill:none;stroke:#000080;stroke-width:1.5;" x="358.8" xlink:href="#me07ad4962c" y="117.42767"/>
     <use style="fill:none;stroke:#000080;stroke-width:1.5;" x="390.48" xlink:href="#me07ad4962c" y="292.97583"/>
    </g>
   </g>
   <g id="line2d_61">
    <path d="M 358.8 34.768147 
L 390.48 208.663118 
" style="fill:none;stroke:#ff00ff;stroke-linecap:square;stroke-width:1.5;"/>
    <g>
     <use style="fill:none;stroke:#ff00ff;stroke-linejoin:miter;stroke-width:1.5;" x="358.8" xlink:href="#m856f87d467" y="34.768147"/>
     <use style="fill:none;stroke:#ff00ff;stroke-linejoin:miter;stroke-width:1.5;" x="390.48" xlink:href="#m856f87d467" y="208.663118"/>
    </g>
   </g>
   <g id="line2d_62">
    <path d="M 358.8 34.768147 
L 390.48 124.350405 
" style="fill:none;stroke:#6495ed;stroke-linecap:square;stroke-width:1.5;"/>
    <g>
     <use style="fill:none;stroke:#6495ed;stroke-linejoin:miter;stroke-width:1.5;" x="358.8" xlink:href="#ma19378e56b" y="34.768147"/>
     <use style="fill:none;stroke:#6495ed;stroke-linejoin:miter;stroke-width:1.5;" x="390.48" xlink:href="#ma19378e56b" y="124.350405"/>
    </g>
   </g>
   <g id="line2d_63">
    <path d="M 358.8 34.768147 
L 390.48 40.037692 
" style="fill:none;stroke:#ffa500;stroke-linecap:square;stroke-width:1.5;"/>
    <g>
     <use style="fill:none;stroke:#ffa500;stroke-linejoin:bevel;stroke-width:1.5;" x="358.8" xlink:href="#mb662d16825" y="34.768147"/>
     <use style="fill:none;stroke:#ffa500;stroke-linejoin:bevel;stroke-width:1.5;" x="390.48" xlink:href="#mb662d16825" y="40.037692"/>
    </g>
   </g>
   <g id="line2d_64">
    <path d="M 358.8 298.245375 
L 358.8 34.768147 
" style="fill:none;stroke:#000000;stroke-linecap:square;stroke-width:1.5;"/>
   </g>
   <g id="patch_3">
    <path d="M 70.8 298.245375 
L 70.8 32.133375 
" style="fill:none;stroke:#000000;stroke-linecap:square;stroke-linejoin:miter;stroke-width:0.8;"/>
   </g>
   <g id="patch_4">
    <path d="M 427.92 298.245375 
L 427.92 32.133375 
" style="fill:none;stroke:#000000;stroke-linecap:square;stroke-linejoin:miter;stroke-width:0.8;"/>
   </g>
   <g id="patch_5">
    <path d="M 70.8 298.245375 
L 427.92 298.245375 
" style="fill:none;stroke:#000000;stroke-linecap:square;stroke-linejoin:miter;stroke-width:0.8;"/>
   </g>
   <g id="patch_6">
    <path d="M 70.8 32.133375 
L 427.92 32.133375 
" style="fill:none;stroke:#000000;stroke-linecap:square;stroke-linejoin:miter;stroke-width:0.8;"/>
   </g>
   <g id="text_14">
    <!-- f8 -->
    <g transform="translate(396.24 297.114893)scale(0.15 -0.15)">
     <use xlink:href="#DejaVuSans-66"/>
     <use x="35.205078" xlink:href="#DejaVuSans-38"/>
    </g>
   </g>
   <g id="text_15">
    <!-- f9 -->
    <defs>
     <path d="M 10.984375 1.515625 
L 10.984375 10.5 
Q 14.703125 8.734375 18.5 7.8125 
Q 22.3125 6.890625 25.984375 6.890625 
Q 35.75 6.890625 40.890625 13.453125 
Q 46.046875 20.015625 46.78125 33.40625 
Q 43.953125 29.203125 39.59375 26.953125 
Q 35.25 24.703125 29.984375 24.703125 
Q 19.046875 24.703125 12.671875 31.3125 
Q 6.296875 37.9375 6.296875 49.421875 
Q 6.296875 60.640625 12.9375 67.421875 
Q 19.578125 74.21875 30.609375 74.21875 
Q 43.265625 74.21875 49.921875 64.515625 
Q 56.59375 54.828125 56.59375 36.375 
Q 56.59375 19.140625 48.40625 8.859375 
Q 40.234375 -1.421875 26.421875 -1.421875 
Q 22.703125 -1.421875 18.890625 -0.6875 
Q 15.09375 0.046875 10.984375 1.515625 
M 30.609375 32.421875 
Q 37.25 32.421875 41.125 36.953125 
Q 45.015625 41.5 45.015625 49.421875 
Q 45.015625 57.28125 41.125 61.84375 
Q 37.25 66.40625 30.609375 66.40625 
Q 23.96875 66.40625 20.09375 61.84375 
Q 16.21875 57.28125 16.21875 49.421875 
Q 16.21875 41.5 20.09375 36.953125 
Q 23.96875 32.421875 30.609375 32.421875 
" id="DejaVuSans-39"/>
    </defs>
    <g transform="translate(396.24 212.80218)scale(0.15 -0.15)">
     <use xlink:href="#DejaVuSans-66"/>
     <use x="35.205078" xlink:href="#DejaVuSans-39"/>
    </g>
   </g>
   <g id="text_16">
    <!-- f7 -->
    <defs>
     <path d="M 8.203125 72.90625 
L 55.078125 72.90625 
L 55.078125 68.703125 
L 28.609375 0 
L 18.3125 0 
L 43.21875 64.59375 
L 8.203125 64.59375 
z
" id="DejaVuSans-37"/>
    </defs>
    <g transform="translate(396.24 128.489467)scale(0.15 -0.15)">
     <use xlink:href="#DejaVuSans-66"/>
     <use x="35.205078" xlink:href="#DejaVuSans-37"/>
    </g>
   </g>
   <g id="text_17">
    <!-- f6 -->
    <g transform="translate(396.24 44.176754)scale(0.15 -0.15)">
     <use xlink:href="#DejaVuSans-66"/>
     <use x="35.205078" xlink:href="#DejaVuSans-36"/>
    </g>
   </g>
   <g id="text_18">
    <!-- bbob -->
    <defs>
     <path d="M 48.6875 27.296875 
Q 48.6875 37.203125 44.609375 42.84375 
Q 40.53125 48.484375 33.40625 48.484375 
Q 26.265625 48.484375 22.1875 42.84375 
Q 18.109375 37.203125 18.109375 27.296875 
Q 18.109375 17.390625 22.1875 11.75 
Q 26.265625 6.109375 33.40625 6.109375 
Q 40.53125 6.109375 44.609375 11.75 
Q 48.6875 17.390625 48.6875 27.296875 
M 18.109375 46.390625 
Q 20.953125 51.265625 25.265625 53.625 
Q 29.59375 56 35.59375 56 
Q 45.5625 56 51.78125 48.09375 
Q 58.015625 40.1875 58.015625 27.296875 
Q 58.015625 14.40625 51.78125 6.484375 
Q 45.5625 -1.421875 35.59375 -1.421875 
Q 29.59375 -1.421875 25.265625 0.953125 
Q 20.953125 3.328125 18.109375 8.203125 
L 18.109375 0 
L 9.078125 0 
L 9.078125 75.984375 
L 18.109375 75.984375 
z
" id="DejaVuSans-62"/>
    </defs>
    <g transform="translate(74.3712 50.114612)scale(0.1666 -0.1666)">
     <use xlink:href="#DejaVuSans-62"/>
     <use x="63.476562" xlink:href="#DejaVuSans-62"/>
     <use x="126.953125" xlink:href="#DejaVuSans-6f"/>
     <use x="188.134766" xlink:href="#DejaVuSans-62"/>
    </g>
    <!-- Misc. moderate functions, 5-D -->
    <defs>
     <path d="M 9.8125 72.90625 
L 24.515625 72.90625 
L 43.109375 23.296875 
L 61.8125 72.90625 
L 76.515625 72.90625 
L 76.515625 0 
L 66.890625 0 
L 66.890625 64.015625 
L 48.09375 14.015625 
L 38.1875 14.015625 
L 19.390625 64.015625 
L 19.390625 0 
L 9.8125 0 
z
" id="DejaVuSans-4d"/>
     <path d="M 11.71875 12.40625 
L 22.015625 12.40625 
L 22.015625 4 
L 14.015625 -11.625 
L 7.71875 -11.625 
L 11.71875 4 
z
" id="DejaVuSans-2c"/>
     <path d="M 10.796875 72.90625 
L 49.515625 72.90625 
L 49.515625 64.59375 
L 19.828125 64.59375 
L 19.828125 46.734375 
Q 21.96875 47.46875 24.109375 47.828125 
Q 26.265625 48.1875 28.421875 48.1875 
Q 40.625 48.1875 47.75 41.5 
Q 54.890625 34.8125 54.890625 23.390625 
Q 54.890625 11.625 47.5625 5.09375 
Q 40.234375 -1.421875 26.90625 -1.421875 
Q 22.3125 -1.421875 17.546875 -0.640625 
Q 12.796875 0.140625 7.71875 1.703125 
L 7.71875 11.625 
Q 12.109375 9.234375 16.796875 8.0625 
Q 21.484375 6.890625 26.703125 6.890625 
Q 35.15625 6.890625 40.078125 11.328125 
Q 45.015625 15.765625 45.015625 23.390625 
Q 45.015625 31 40.078125 35.4375 
Q 35.15625 39.890625 26.703125 39.890625 
Q 22.75 39.890625 18.8125 39.015625 
Q 14.890625 38.140625 10.796875 36.28125 
z
" id="DejaVuSans-35"/>
     <path d="M 19.671875 64.796875 
L 19.671875 8.109375 
L 31.59375 8.109375 
Q 46.6875 8.109375 53.6875 14.9375 
Q 60.6875 21.78125 60.6875 36.53125 
Q 60.6875 51.171875 53.6875 57.984375 
Q 46.6875 64.796875 31.59375 64.796875 
z
M 9.8125 72.90625 
L 30.078125 72.90625 
Q 51.265625 72.90625 61.171875 64.09375 
Q 71.09375 55.28125 71.09375 36.53125 
Q 71.09375 17.671875 61.125 8.828125 
Q 51.171875 0 30.078125 0 
L 9.8125 0 
z
" id="DejaVuSans-44"/>
    </defs>
    <g transform="translate(74.3712 68.770168)scale(0.1666 -0.1666)">
     <use xlink:href="#DejaVuSans-4d"/>
     <use x="86.279297" xlink:href="#DejaVuSans-69"/>
     <use x="114.0625" xlink:href="#DejaVuSans-73"/>
     <use x="166.162109" xlink:href="#DejaVuSans-63"/>
     <use x="221.142578" xlink:href="#DejaVuSans-2e"/>
     <use x="252.929688" xlink:href="#DejaVuSans-20"/>
     <use x="284.716797" xlink:href="#DejaVuSans-6d"/>
     <use x="382.128906" xlink:href="#DejaVuSans-6f"/>
     <use x="443.310547" xlink:href="#DejaVuSans-64"/>
     <use x="506.787109" xlink:href="#DejaVuSans-65"/>
     <use x="568.310547" xlink:href="#DejaVuSans-72"/>
     <use x="609.423828" xlink:href="#DejaVuSans-61"/>
     <use x="670.703125" xlink:href="#DejaVuSans-74"/>
     <use x="709.912109" xlink:href="#DejaVuSans-65"/>
     <use x="771.435547" xlink:href="#DejaVuSans-20"/>
     <use x="803.222656" xlink:href="#DejaVuSans-66"/>
     <use x="838.427734" xlink:href="#DejaVuSans-75"/>
     <use x="901.806641" xlink:href="#DejaVuSans-6e"/>
     <use x="965.185547" xlink:href="#DejaVuSans-63"/>
     <use x="1020.166016" xlink:href="#DejaVuSans-74"/>
     <use x="1059.375" xlink:href="#DejaVuSans-69"/>
     <use x="1087.158203" xlink:href="#DejaVuSans-6f"/>
     <use x="1148.339844" xlink:href="#DejaVuSans-6e"/>
     <use x="1211.71875" xlink:href="#DejaVuSans-73"/>
     <use x="1263.818359" xlink:href="#DejaVuSans-2c"/>
     <use x="1295.605469" xlink:href="#DejaVuSans-20"/>
     <use x="1327.392578" xlink:href="#DejaVuSans-35"/>
     <use x="1391.015625" xlink:href="#DejaVuSans-2d"/>
     <use x="1427.099609" xlink:href="#DejaVuSans-44"/>
    </g>
    <!-- 51 targets in 100..1e-08 -->
    <g transform="translate(74.3712 87.425723)scale(0.1666 -0.1666)">
     <use xlink:href="#DejaVuSans-35"/>
     <use x="63.623047" xlink:href="#DejaVuSans-31"/>
     <use x="127.246094" xlink:href="#DejaVuSans-20"/>
     <use x="159.033203" xlink:href="#DejaVuSans-74"/>
     <use x="198.242188" xlink:href="#DejaVuSans-61"/>
     <use x="259.521484" xlink:href="#DejaVuSans-72"/>
     <use x="300.619141" xlink:href="#DejaVuSans-67"/>
     <use x="364.095703" xlink:href="#DejaVuSans-65"/>
     <use x="425.619141" xlink:href="#DejaVuSans-74"/>
     <use x="464.828125" xlink:href="#DejaVuSans-73"/>
     <use x="516.927734" xlink:href="#DejaVuSans-20"/>
     <use x="548.714844" xlink:href="#DejaVuSans-69"/>
     <use x="576.498047" xlink:href="#DejaVuSans-6e"/>
     <use x="639.876953" xlink:href="#DejaVuSans-20"/>
     <use x="671.664062" xlink:href="#DejaVuSans-31"/>
     <use x="735.287109" xlink:href="#DejaVuSans-30"/>
     <use x="798.910156" xlink:href="#DejaVuSans-30"/>
     <use x="862.533203" xlink:href="#DejaVuSans-2e"/>
     <use x="894.320312" xlink:href="#DejaVuSans-2e"/>
     <use x="926.107422" xlink:href="#DejaVuSans-31"/>
     <use x="989.730469" xlink:href="#DejaVuSans-65"/>
     <use x="1051.253906" xlink:href="#DejaVuSans-2d"/>
     <use x="1087.337891" xlink:href="#DejaVuSans-30"/>
     <use x="1150.960938" xlink:href="#DejaVuSans-38"/>
    </g>
    <!-- 15 instances -->
    <g transform="translate(74.3712 106.081279)scale(0.1666 -0.1666)">
     <use xlink:href="#DejaVuSans-31"/>
     <use x="63.623047" xlink:href="#DejaVuSans-35"/>
     <use x="127.246094" xlink:href="#DejaVuSans-20"/>
     <use x="159.033203" xlink:href="#DejaVuSans-69"/>
     <use x="186.816406" xlink:href="#DejaVuSans-6e"/>
     <use x="250.195312" xlink:href="#DejaVuSans-73"/>
     <use x="302.294922" xlink:href="#DejaVuSans-74"/>
     <use x="341.503906" xlink:href="#DejaVuSans-61"/>
     <use x="402.783203" xlink:href="#DejaVuSans-6e"/>
     <use x="466.162109" xlink:href="#DejaVuSans-63"/>
     <use x="521.142578" xlink:href="#DejaVuSans-65"/>
     <use x="582.666016" xlink:href="#DejaVuSans-73"/>
    </g>
   </g>
   <g id="text_19">
    <!-- v2.0.1 -->
    <g style="fill:#808080;" transform="translate(233.67875 293.504568)scale(0.1 -0.1)">
     <use xlink:href="#DejaVuSans-76"/>
     <use x="59.179688" xlink:href="#DejaVuSans-32"/>
     <use x="122.802734" xlink:href="#DejaVuSans-2e"/>
     <use x="154.589844" xlink:href="#DejaVuSans-30"/>
     <use x="218.212891" xlink:href="#DejaVuSans-2e"/>
     <use x="250" xlink:href="#DejaVuSans-31"/>
    </g>
   </g>
  </g>
 </g>
 <defs>
  <clipPath id="p2cdc9df09f">
   <rect height="266.112" width="357.12" x="70.8" y="32.133375"/>
  </clipPath>
 </defs>
</svg>
