<?xml version="1.0" encoding="utf-8" standalone="no"?>
<!DOCTYPE svg PUBLIC "-//W3C//DTD SVG 1.1//EN"
  "http://www.w3.org/Graphics/SVG/1.1/DTD/svg11.dtd">
<!-- Created with matplotlib (http://matplotlib.org/) -->
<svg height="353pt" version="1.1" viewBox="0 0 438 353" width="438pt" xmlns="http://www.w3.org/2000/svg" xmlns:xlink="http://www.w3.org/1999/xlink">
 <defs>
  <style type="text/css">
*{stroke-linecap:butt;stroke-linejoin:round;}
  </style>
 </defs>
 <g id="figure_1">
  <g id="patch_1">
   <path d="M 0 353.22225 
L 438.62 353.22225 
L 438.62 0 
L 0 0 
z
" style="fill:#ffffff;"/>
  </g>
  <g id="axes_1">
   <g id="patch_2">
    <path d="M 70.8 298.245375 
L 427.92 298.245375 
L 427.92 32.133375 
L 70.8 32.133375 
z
" style="fill:#ffffff;"/>
   </g>
   <g id="matplotlib.axis_1">
    <g id="xtick_1">
     <g id="line2d_1">
      <path clip-path="url(#p3787281bc8)" d="M 70.8 298.245375 
L 70.8 32.133375 
" style="fill:none;stroke:#b0b0b0;stroke-linecap:square;stroke-width:0.8;"/>
     </g>
     <g id="line2d_2">
      <defs>
       <path d="M 0 0 
L 0 3.5 
" id="m8963b641ef" style="stroke:#000000;stroke-width:0.8;"/>
      </defs>
      <g>
       <use style="stroke:#000000;stroke-width:0.8;" x="70.8" xlink:href="#m8963b641ef" y="298.245375"/>
      </g>
     </g>
     <g id="text_1">
      <!-- 0 -->
      <defs>
       <path d="M 31.78125 66.40625 
Q 24.171875 66.40625 20.328125 58.90625 
Q 16.5 51.421875 16.5 36.375 
Q 16.5 21.390625 20.328125 13.890625 
Q 24.171875 6.390625 31.78125 6.390625 
Q 39.453125 6.390625 43.28125 13.890625 
Q 47.125 21.390625 47.125 36.375 
Q 47.125 51.421875 43.28125 58.90625 
Q 39.453125 66.40625 31.78125 66.40625 
M 31.78125 74.21875 
Q 44.046875 74.21875 50.515625 64.515625 
Q 56.984375 54.828125 56.984375 36.375 
Q 56.984375 17.96875 50.515625 8.265625 
Q 44.046875 -1.421875 31.78125 -1.421875 
Q 19.53125 -1.421875 13.0625 8.265625 
Q 6.59375 17.96875 6.59375 36.375 
Q 6.59375 54.828125 13.0625 64.515625 
Q 19.53125 74.21875 31.78125 74.21875 
" id="DejaVuSans-30"/>
      </defs>
      <g transform="translate(64.4375 320.44225)scale(0.2 -0.2)">
       <use xlink:href="#DejaVuSans-30"/>
      </g>
     </g>
    </g>
    <g id="xtick_2">
     <g id="line2d_3">
      <path clip-path="url(#p3787281bc8)" d="M 153.085714 298.245375 
L 153.085714 32.133375 
" style="fill:none;stroke:#b0b0b0;stroke-linecap:square;stroke-width:0.8;"/>
     </g>
     <g id="line2d_4">
      <g>
       <use style="stroke:#000000;stroke-width:0.8;" x="153.085714" xlink:href="#m8963b641ef" y="298.245375"/>
      </g>
     </g>
     <g id="text_2">
      <!-- 2 -->
      <defs>
       <path d="M 19.1875 8.296875 
L 53.609375 8.296875 
L 53.609375 0 
L 7.328125 0 
L 7.328125 8.296875 
Q 12.9375 14.109375 22.625 23.890625 
Q 32.328125 33.6875 34.8125 36.53125 
Q 39.546875 41.84375 41.421875 45.53125 
Q 43.3125 49.21875 43.3125 52.78125 
Q 43.3125 58.59375 39.234375 62.25 
Q 35.15625 65.921875 28.609375 65.921875 
Q 23.96875 65.921875 18.8125 64.3125 
Q 13.671875 62.703125 7.8125 59.421875 
L 7.8125 69.390625 
Q 13.765625 71.78125 18.9375 73 
Q 24.125 74.21875 28.421875 74.21875 
Q 39.75 74.21875 46.484375 68.546875 
Q 53.21875 62.890625 53.21875 53.421875 
Q 53.21875 48.921875 51.53125 44.890625 
Q 49.859375 40.875 45.40625 35.40625 
Q 44.1875 33.984375 37.640625 27.21875 
Q 31.109375 20.453125 19.1875 8.296875 
" id="DejaVuSans-32"/>
      </defs>
      <g transform="translate(146.723214 320.44225)scale(0.2 -0.2)">
       <use xlink:href="#DejaVuSans-32"/>
      </g>
     </g>
    </g>
    <g id="xtick_3">
     <g id="line2d_5">
      <path clip-path="url(#p3787281bc8)" d="M 235.371429 298.245375 
L 235.371429 32.133375 
" style="fill:none;stroke:#b0b0b0;stroke-linecap:square;stroke-width:0.8;"/>
     </g>
     <g id="line2d_6">
      <g>
       <use style="stroke:#000000;stroke-width:0.8;" x="235.371429" xlink:href="#m8963b641ef" y="298.245375"/>
      </g>
     </g>
     <g id="text_3">
      <!-- 4 -->
      <defs>
       <path d="M 37.796875 64.3125 
L 12.890625 25.390625 
L 37.796875 25.390625 
z
M 35.203125 72.90625 
L 47.609375 72.90625 
L 47.609375 25.390625 
L 58.015625 25.390625 
L 58.015625 17.1875 
L 47.609375 17.1875 
L 47.609375 0 
L 37.796875 0 
L 37.796875 17.1875 
L 4.890625 17.1875 
L 4.890625 26.703125 
z
" id="DejaVuSans-34"/>
      </defs>
      <g transform="translate(229.008929 320.44225)scale(0.2 -0.2)">
       <use xlink:href="#DejaVuSans-34"/>
      </g>
     </g>
    </g>
    <g id="xtick_4">
     <g id="line2d_7">
      <path clip-path="url(#p3787281bc8)" d="M 317.657143 298.245375 
L 317.657143 32.133375 
" style="fill:none;stroke:#b0b0b0;stroke-linecap:square;stroke-width:0.8;"/>
     </g>
     <g id="line2d_8">
      <g>
       <use style="stroke:#000000;stroke-width:0.8;" x="317.657143" xlink:href="#m8963b641ef" y="298.245375"/>
      </g>
     </g>
     <g id="text_4">
      <!-- 6 -->
      <defs>
       <path d="M 33.015625 40.375 
Q 26.375 40.375 22.484375 35.828125 
Q 18.609375 31.296875 18.609375 23.390625 
Q 18.609375 15.53125 22.484375 10.953125 
Q 26.375 6.390625 33.015625 6.390625 
Q 39.65625 6.390625 43.53125 10.953125 
Q 47.40625 15.53125 47.40625 23.390625 
Q 47.40625 31.296875 43.53125 35.828125 
Q 39.65625 40.375 33.015625 40.375 
M 52.59375 71.296875 
L 52.59375 62.3125 
Q 48.875 64.0625 45.09375 64.984375 
Q 41.3125 65.921875 37.59375 65.921875 
Q 27.828125 65.921875 22.671875 59.328125 
Q 17.53125 52.734375 16.796875 39.40625 
Q 19.671875 43.65625 24.015625 45.921875 
Q 28.375 48.1875 33.59375 48.1875 
Q 44.578125 48.1875 50.953125 41.515625 
Q 57.328125 34.859375 57.328125 23.390625 
Q 57.328125 12.15625 50.6875 5.359375 
Q 44.046875 -1.421875 33.015625 -1.421875 
Q 20.359375 -1.421875 13.671875 8.265625 
Q 6.984375 17.96875 6.984375 36.375 
Q 6.984375 53.65625 15.1875 63.9375 
Q 23.390625 74.21875 37.203125 74.21875 
Q 40.921875 74.21875 44.703125 73.484375 
Q 48.484375 72.75 52.59375 71.296875 
" id="DejaVuSans-36"/>
      </defs>
      <g transform="translate(311.294643 320.44225)scale(0.2 -0.2)">
       <use xlink:href="#DejaVuSans-36"/>
      </g>
     </g>
    </g>
    <g id="xtick_5">
     <g id="line2d_9">
      <path clip-path="url(#p3787281bc8)" d="M 399.942857 298.245375 
L 399.942857 32.133375 
" style="fill:none;stroke:#b0b0b0;stroke-linecap:square;stroke-width:0.8;"/>
     </g>
     <g id="line2d_10">
      <g>
       <use style="stroke:#000000;stroke-width:0.8;" x="399.942857" xlink:href="#m8963b641ef" y="298.245375"/>
      </g>
     </g>
     <g id="text_5">
      <!-- 8 -->
      <defs>
       <path d="M 31.78125 34.625 
Q 24.75 34.625 20.71875 30.859375 
Q 16.703125 27.09375 16.703125 20.515625 
Q 16.703125 13.921875 20.71875 10.15625 
Q 24.75 6.390625 31.78125 6.390625 
Q 38.8125 6.390625 42.859375 10.171875 
Q 46.921875 13.96875 46.921875 20.515625 
Q 46.921875 27.09375 42.890625 30.859375 
Q 38.875 34.625 31.78125 34.625 
M 21.921875 38.8125 
Q 15.578125 40.375 12.03125 44.71875 
Q 8.5 49.078125 8.5 55.328125 
Q 8.5 64.0625 14.71875 69.140625 
Q 20.953125 74.21875 31.78125 74.21875 
Q 42.671875 74.21875 48.875 69.140625 
Q 55.078125 64.0625 55.078125 55.328125 
Q 55.078125 49.078125 51.53125 44.71875 
Q 48 40.375 41.703125 38.8125 
Q 48.828125 37.15625 52.796875 32.3125 
Q 56.78125 27.484375 56.78125 20.515625 
Q 56.78125 9.90625 50.3125 4.234375 
Q 43.84375 -1.421875 31.78125 -1.421875 
Q 19.734375 -1.421875 13.25 4.234375 
Q 6.78125 9.90625 6.78125 20.515625 
Q 6.78125 27.484375 10.78125 32.3125 
Q 14.796875 37.15625 21.921875 38.8125 
M 18.3125 54.390625 
Q 18.3125 48.734375 21.84375 45.5625 
Q 25.390625 42.390625 31.78125 42.390625 
Q 38.140625 42.390625 41.71875 45.5625 
Q 45.3125 48.734375 45.3125 54.390625 
Q 45.3125 60.0625 41.71875 63.234375 
Q 38.140625 66.40625 31.78125 66.40625 
Q 25.390625 66.40625 21.84375 63.234375 
Q 18.3125 60.0625 18.3125 54.390625 
" id="DejaVuSans-38"/>
      </defs>
      <g transform="translate(393.580357 320.44225)scale(0.2 -0.2)">
       <use xlink:href="#DejaVuSans-38"/>
      </g>
     </g>
    </g>
    <g id="xtick_6">
     <g id="line2d_11">
      <defs>
       <path d="M 0 0 
L 0 2 
" id="m9aa5898868" style="stroke:#000000;stroke-width:0.6;"/>
      </defs>
      <g>
       <use style="stroke:#000000;stroke-width:0.6;" x="83.185234" xlink:href="#m9aa5898868" y="298.245375"/>
      </g>
     </g>
    </g>
    <g id="xtick_7">
     <g id="line2d_12">
      <g>
       <use style="stroke:#000000;stroke-width:0.6;" x="95.570468" xlink:href="#m9aa5898868" y="298.245375"/>
      </g>
     </g>
    </g>
    <g id="xtick_8">
     <g id="line2d_13">
      <g>
       <use style="stroke:#000000;stroke-width:0.6;" x="102.815366" xlink:href="#m9aa5898868" y="298.245375"/>
      </g>
     </g>
    </g>
    <g id="xtick_9">
     <g id="line2d_14">
      <g>
       <use style="stroke:#000000;stroke-width:0.6;" x="107.955702" xlink:href="#m9aa5898868" y="298.245375"/>
      </g>
     </g>
    </g>
    <g id="xtick_10">
     <g id="line2d_15">
      <g>
       <use style="stroke:#000000;stroke-width:0.6;" x="165.470948" xlink:href="#m9aa5898868" y="298.245375"/>
      </g>
     </g>
    </g>
    <g id="xtick_11">
     <g id="line2d_16">
      <g>
       <use style="stroke:#000000;stroke-width:0.6;" x="177.856183" xlink:href="#m9aa5898868" y="298.245375"/>
      </g>
     </g>
    </g>
    <g id="xtick_12">
     <g id="line2d_17">
      <g>
       <use style="stroke:#000000;stroke-width:0.6;" x="185.10108" xlink:href="#m9aa5898868" y="298.245375"/>
      </g>
     </g>
    </g>
    <g id="xtick_13">
     <g id="line2d_18">
      <g>
       <use style="stroke:#000000;stroke-width:0.6;" x="190.241417" xlink:href="#m9aa5898868" y="298.245375"/>
      </g>
     </g>
    </g>
    <g id="xtick_14">
     <g id="line2d_19">
      <g>
       <use style="stroke:#000000;stroke-width:0.6;" x="247.756663" xlink:href="#m9aa5898868" y="298.245375"/>
      </g>
     </g>
    </g>
    <g id="xtick_15">
     <g id="line2d_20">
      <g>
       <use style="stroke:#000000;stroke-width:0.6;" x="260.141897" xlink:href="#m9aa5898868" y="298.245375"/>
      </g>
     </g>
    </g>
    <g id="xtick_16">
     <g id="line2d_21">
      <g>
       <use style="stroke:#000000;stroke-width:0.6;" x="267.386794" xlink:href="#m9aa5898868" y="298.245375"/>
      </g>
     </g>
    </g>
    <g id="xtick_17">
     <g id="line2d_22">
      <g>
       <use style="stroke:#000000;stroke-width:0.6;" x="272.527131" xlink:href="#m9aa5898868" y="298.245375"/>
      </g>
     </g>
    </g>
    <g id="xtick_18">
     <g id="line2d_23">
      <g>
       <use style="stroke:#000000;stroke-width:0.6;" x="330.042377" xlink:href="#m9aa5898868" y="298.245375"/>
      </g>
     </g>
    </g>
    <g id="xtick_19">
     <g id="line2d_24">
      <g>
       <use style="stroke:#000000;stroke-width:0.6;" x="342.427611" xlink:href="#m9aa5898868" y="298.245375"/>
      </g>
     </g>
    </g>
    <g id="xtick_20">
     <g id="line2d_25">
      <g>
       <use style="stroke:#000000;stroke-width:0.6;" x="349.672509" xlink:href="#m9aa5898868" y="298.245375"/>
      </g>
     </g>
    </g>
    <g id="xtick_21">
     <g id="line2d_26">
      <g>
       <use style="stroke:#000000;stroke-width:0.6;" x="354.812845" xlink:href="#m9aa5898868" y="298.245375"/>
      </g>
     </g>
    </g>
    <g id="xtick_22">
     <g id="line2d_27">
      <g>
       <use style="stroke:#000000;stroke-width:0.6;" x="412.328091" xlink:href="#m9aa5898868" y="298.245375"/>
      </g>
     </g>
    </g>
    <g id="xtick_23">
     <g id="line2d_28">
      <g>
       <use style="stroke:#000000;stroke-width:0.6;" x="424.713325" xlink:href="#m9aa5898868" y="298.245375"/>
      </g>
     </g>
    </g>
    <g id="text_6">
     <!-- log10 of (# f-evals / dimension) -->
     <defs>
      <path d="M 9.421875 75.984375 
L 18.40625 75.984375 
L 18.40625 0 
L 9.421875 0 
z
" id="DejaVuSans-6c"/>
      <path d="M 30.609375 48.390625 
Q 23.390625 48.390625 19.1875 42.75 
Q 14.984375 37.109375 14.984375 27.296875 
Q 14.984375 17.484375 19.15625 11.84375 
Q 23.34375 6.203125 30.609375 6.203125 
Q 37.796875 6.203125 41.984375 11.859375 
Q 46.1875 17.53125 46.1875 27.296875 
Q 46.1875 37.015625 41.984375 42.703125 
Q 37.796875 48.390625 30.609375 48.390625 
M 30.609375 56 
Q 42.328125 56 49.015625 48.375 
Q 55.71875 40.765625 55.71875 27.296875 
Q 55.71875 13.875 49.015625 6.21875 
Q 42.328125 -1.421875 30.609375 -1.421875 
Q 18.84375 -1.421875 12.171875 6.21875 
Q 5.515625 13.875 5.515625 27.296875 
Q 5.515625 40.765625 12.171875 48.375 
Q 18.84375 56 30.609375 56 
" id="DejaVuSans-6f"/>
      <path d="M 45.40625 27.984375 
Q 45.40625 37.75 41.375 43.109375 
Q 37.359375 48.484375 30.078125 48.484375 
Q 22.859375 48.484375 18.828125 43.109375 
Q 14.796875 37.75 14.796875 27.984375 
Q 14.796875 18.265625 18.828125 12.890625 
Q 22.859375 7.515625 30.078125 7.515625 
Q 37.359375 7.515625 41.375 12.890625 
Q 45.40625 18.265625 45.40625 27.984375 
M 54.390625 6.78125 
Q 54.390625 -7.171875 48.1875 -13.984375 
Q 42 -20.796875 29.203125 -20.796875 
Q 24.46875 -20.796875 20.265625 -20.09375 
Q 16.0625 -19.390625 12.109375 -17.921875 
L 12.109375 -9.1875 
Q 16.0625 -11.328125 19.921875 -12.34375 
Q 23.78125 -13.375 27.78125 -13.375 
Q 36.625 -13.375 41.015625 -8.765625 
Q 45.40625 -4.15625 45.40625 5.171875 
L 45.40625 9.625 
Q 42.625 4.78125 38.28125 2.390625 
Q 33.9375 0 27.875 0 
Q 17.828125 0 11.671875 7.65625 
Q 5.515625 15.328125 5.515625 27.984375 
Q 5.515625 40.671875 11.671875 48.328125 
Q 17.828125 56 27.875 56 
Q 33.9375 56 38.28125 53.609375 
Q 42.625 51.21875 45.40625 46.390625 
L 45.40625 54.6875 
L 54.390625 54.6875 
z
" id="DejaVuSans-67"/>
      <path d="M 12.40625 8.296875 
L 28.515625 8.296875 
L 28.515625 63.921875 
L 10.984375 60.40625 
L 10.984375 69.390625 
L 28.421875 72.90625 
L 38.28125 72.90625 
L 38.28125 8.296875 
L 54.390625 8.296875 
L 54.390625 0 
L 12.40625 0 
z
" id="DejaVuSans-31"/>
      <path id="DejaVuSans-20"/>
      <path d="M 37.109375 75.984375 
L 37.109375 68.5 
L 28.515625 68.5 
Q 23.6875 68.5 21.796875 66.546875 
Q 19.921875 64.59375 19.921875 59.515625 
L 19.921875 54.6875 
L 34.71875 54.6875 
L 34.71875 47.703125 
L 19.921875 47.703125 
L 19.921875 0 
L 10.890625 0 
L 10.890625 47.703125 
L 2.296875 47.703125 
L 2.296875 54.6875 
L 10.890625 54.6875 
L 10.890625 58.5 
Q 10.890625 67.625 15.140625 71.796875 
Q 19.390625 75.984375 28.609375 75.984375 
z
" id="DejaVuSans-66"/>
      <path d="M 31 75.875 
Q 24.46875 64.65625 21.28125 53.65625 
Q 18.109375 42.671875 18.109375 31.390625 
Q 18.109375 20.125 21.3125 9.0625 
Q 24.515625 -2 31 -13.1875 
L 23.1875 -13.1875 
Q 15.875 -1.703125 12.234375 9.375 
Q 8.59375 20.453125 8.59375 31.390625 
Q 8.59375 42.28125 12.203125 53.3125 
Q 15.828125 64.359375 23.1875 75.875 
z
" id="DejaVuSans-28"/>
      <path d="M 51.125 44 
L 36.921875 44 
L 32.8125 27.6875 
L 47.125 27.6875 
z
M 43.796875 71.78125 
L 38.71875 51.515625 
L 52.984375 51.515625 
L 58.109375 71.78125 
L 65.921875 71.78125 
L 60.890625 51.515625 
L 76.125 51.515625 
L 76.125 44 
L 58.984375 44 
L 54.984375 27.6875 
L 70.515625 27.6875 
L 70.515625 20.21875 
L 53.078125 20.21875 
L 48 0 
L 40.1875 0 
L 45.21875 20.21875 
L 30.90625 20.21875 
L 25.875 0 
L 18.015625 0 
L 23.09375 20.21875 
L 7.71875 20.21875 
L 7.71875 27.6875 
L 24.90625 27.6875 
L 29 44 
L 13.28125 44 
L 13.28125 51.515625 
L 30.90625 51.515625 
L 35.890625 71.78125 
z
" id="DejaVuSans-23"/>
      <path d="M 4.890625 31.390625 
L 31.203125 31.390625 
L 31.203125 23.390625 
L 4.890625 23.390625 
z
" id="DejaVuSans-2d"/>
      <path d="M 56.203125 29.59375 
L 56.203125 25.203125 
L 14.890625 25.203125 
Q 15.484375 15.921875 20.484375 11.0625 
Q 25.484375 6.203125 34.421875 6.203125 
Q 39.59375 6.203125 44.453125 7.46875 
Q 49.3125 8.734375 54.109375 11.28125 
L 54.109375 2.78125 
Q 49.265625 0.734375 44.1875 -0.34375 
Q 39.109375 -1.421875 33.890625 -1.421875 
Q 20.796875 -1.421875 13.15625 6.1875 
Q 5.515625 13.8125 5.515625 26.8125 
Q 5.515625 40.234375 12.765625 48.109375 
Q 20.015625 56 32.328125 56 
Q 43.359375 56 49.78125 48.890625 
Q 56.203125 41.796875 56.203125 29.59375 
M 47.21875 32.234375 
Q 47.125 39.59375 43.09375 43.984375 
Q 39.0625 48.390625 32.421875 48.390625 
Q 24.90625 48.390625 20.390625 44.140625 
Q 15.875 39.890625 15.1875 32.171875 
z
" id="DejaVuSans-65"/>
      <path d="M 2.984375 54.6875 
L 12.5 54.6875 
L 29.59375 8.796875 
L 46.6875 54.6875 
L 56.203125 54.6875 
L 35.6875 0 
L 23.484375 0 
z
" id="DejaVuSans-76"/>
      <path d="M 34.28125 27.484375 
Q 23.390625 27.484375 19.1875 25 
Q 14.984375 22.515625 14.984375 16.5 
Q 14.984375 11.71875 18.140625 8.90625 
Q 21.296875 6.109375 26.703125 6.109375 
Q 34.1875 6.109375 38.703125 11.40625 
Q 43.21875 16.703125 43.21875 25.484375 
L 43.21875 27.484375 
z
M 52.203125 31.203125 
L 52.203125 0 
L 43.21875 0 
L 43.21875 8.296875 
Q 40.140625 3.328125 35.546875 0.953125 
Q 30.953125 -1.421875 24.3125 -1.421875 
Q 15.921875 -1.421875 10.953125 3.296875 
Q 6 8.015625 6 15.921875 
Q 6 25.140625 12.171875 29.828125 
Q 18.359375 34.515625 30.609375 34.515625 
L 43.21875 34.515625 
L 43.21875 35.40625 
Q 43.21875 41.609375 39.140625 45 
Q 35.0625 48.390625 27.6875 48.390625 
Q 23 48.390625 18.546875 47.265625 
Q 14.109375 46.140625 10.015625 43.890625 
L 10.015625 52.203125 
Q 14.9375 54.109375 19.578125 55.046875 
Q 24.21875 56 28.609375 56 
Q 40.484375 56 46.34375 49.84375 
Q 52.203125 43.703125 52.203125 31.203125 
" id="DejaVuSans-61"/>
      <path d="M 44.28125 53.078125 
L 44.28125 44.578125 
Q 40.484375 46.53125 36.375 47.5 
Q 32.28125 48.484375 27.875 48.484375 
Q 21.1875 48.484375 17.84375 46.4375 
Q 14.5 44.390625 14.5 40.28125 
Q 14.5 37.15625 16.890625 35.375 
Q 19.28125 33.59375 26.515625 31.984375 
L 29.59375 31.296875 
Q 39.15625 29.25 43.1875 25.515625 
Q 47.21875 21.78125 47.21875 15.09375 
Q 47.21875 7.46875 41.1875 3.015625 
Q 35.15625 -1.421875 24.609375 -1.421875 
Q 20.21875 -1.421875 15.453125 -0.5625 
Q 10.6875 0.296875 5.421875 2 
L 5.421875 11.28125 
Q 10.40625 8.6875 15.234375 7.390625 
Q 20.0625 6.109375 24.8125 6.109375 
Q 31.15625 6.109375 34.5625 8.28125 
Q 37.984375 10.453125 37.984375 14.40625 
Q 37.984375 18.0625 35.515625 20.015625 
Q 33.0625 21.96875 24.703125 23.78125 
L 21.578125 24.515625 
Q 13.234375 26.265625 9.515625 29.90625 
Q 5.8125 33.546875 5.8125 39.890625 
Q 5.8125 47.609375 11.28125 51.796875 
Q 16.75 56 26.8125 56 
Q 31.78125 56 36.171875 55.265625 
Q 40.578125 54.546875 44.28125 53.078125 
" id="DejaVuSans-73"/>
      <path d="M 25.390625 72.90625 
L 33.6875 72.90625 
L 8.296875 -9.28125 
L 0 -9.28125 
z
" id="DejaVuSans-2f"/>
      <path d="M 45.40625 46.390625 
L 45.40625 75.984375 
L 54.390625 75.984375 
L 54.390625 0 
L 45.40625 0 
L 45.40625 8.203125 
Q 42.578125 3.328125 38.25 0.953125 
Q 33.9375 -1.421875 27.875 -1.421875 
Q 17.96875 -1.421875 11.734375 6.484375 
Q 5.515625 14.40625 5.515625 27.296875 
Q 5.515625 40.1875 11.734375 48.09375 
Q 17.96875 56 27.875 56 
Q 33.9375 56 38.25 53.625 
Q 42.578125 51.265625 45.40625 46.390625 
M 14.796875 27.296875 
Q 14.796875 17.390625 18.875 11.75 
Q 22.953125 6.109375 30.078125 6.109375 
Q 37.203125 6.109375 41.296875 11.75 
Q 45.40625 17.390625 45.40625 27.296875 
Q 45.40625 37.203125 41.296875 42.84375 
Q 37.203125 48.484375 30.078125 48.484375 
Q 22.953125 48.484375 18.875 42.84375 
Q 14.796875 37.203125 14.796875 27.296875 
" id="DejaVuSans-64"/>
      <path d="M 9.421875 54.6875 
L 18.40625 54.6875 
L 18.40625 0 
L 9.421875 0 
z
M 9.421875 75.984375 
L 18.40625 75.984375 
L 18.40625 64.59375 
L 9.421875 64.59375 
z
" id="DejaVuSans-69"/>
      <path d="M 52 44.1875 
Q 55.375 50.25 60.0625 53.125 
Q 64.75 56 71.09375 56 
Q 79.640625 56 84.28125 50.015625 
Q 88.921875 44.046875 88.921875 33.015625 
L 88.921875 0 
L 79.890625 0 
L 79.890625 32.71875 
Q 79.890625 40.578125 77.09375 44.375 
Q 74.3125 48.1875 68.609375 48.1875 
Q 61.625 48.1875 57.5625 43.546875 
Q 53.515625 38.921875 53.515625 30.90625 
L 53.515625 0 
L 44.484375 0 
L 44.484375 32.71875 
Q 44.484375 40.625 41.703125 44.40625 
Q 38.921875 48.1875 33.109375 48.1875 
Q 26.21875 48.1875 22.15625 43.53125 
Q 18.109375 38.875 18.109375 30.90625 
L 18.109375 0 
L 9.078125 0 
L 9.078125 54.6875 
L 18.109375 54.6875 
L 18.109375 46.1875 
Q 21.1875 51.21875 25.484375 53.609375 
Q 29.78125 56 35.6875 56 
Q 41.65625 56 45.828125 52.96875 
Q 50 49.953125 52 44.1875 
" id="DejaVuSans-6d"/>
      <path d="M 54.890625 33.015625 
L 54.890625 0 
L 45.90625 0 
L 45.90625 32.71875 
Q 45.90625 40.484375 42.875 44.328125 
Q 39.84375 48.1875 33.796875 48.1875 
Q 26.515625 48.1875 22.3125 43.546875 
Q 18.109375 38.921875 18.109375 30.90625 
L 18.109375 0 
L 9.078125 0 
L 9.078125 54.6875 
L 18.109375 54.6875 
L 18.109375 46.1875 
Q 21.34375 51.125 25.703125 53.5625 
Q 30.078125 56 35.796875 56 
Q 45.21875 56 50.046875 50.171875 
Q 54.890625 44.34375 54.890625 33.015625 
" id="DejaVuSans-6e"/>
      <path d="M 8.015625 75.875 
L 15.828125 75.875 
Q 23.140625 64.359375 26.78125 53.3125 
Q 30.421875 42.28125 30.421875 31.390625 
Q 30.421875 20.453125 26.78125 9.375 
Q 23.140625 -1.703125 15.828125 -13.1875 
L 8.015625 -13.1875 
Q 14.5 -2 17.703125 9.0625 
Q 20.90625 20.125 20.90625 31.390625 
Q 20.90625 42.671875 17.703125 53.65625 
Q 14.5 64.65625 8.015625 75.875 
" id="DejaVuSans-29"/>
     </defs>
     <g transform="translate(107.015156 342.278812)scale(0.18 -0.18)">
      <use xlink:href="#DejaVuSans-6c"/>
      <use x="27.783203" xlink:href="#DejaVuSans-6f"/>
      <use x="88.964844" xlink:href="#DejaVuSans-67"/>
      <use x="152.441406" xlink:href="#DejaVuSans-31"/>
      <use x="216.064453" xlink:href="#DejaVuSans-30"/>
      <use x="279.6875" xlink:href="#DejaVuSans-20"/>
      <use x="311.474609" xlink:href="#DejaVuSans-6f"/>
      <use x="372.65625" xlink:href="#DejaVuSans-66"/>
      <use x="407.861328" xlink:href="#DejaVuSans-20"/>
      <use x="439.648438" xlink:href="#DejaVuSans-28"/>
      <use x="478.662109" xlink:href="#DejaVuSans-23"/>
      <use x="562.451172" xlink:href="#DejaVuSans-20"/>
      <use x="594.238281" xlink:href="#DejaVuSans-66"/>
      <use x="629.365234" xlink:href="#DejaVuSans-2d"/>
      <use x="665.449219" xlink:href="#DejaVuSans-65"/>
      <use x="726.972656" xlink:href="#DejaVuSans-76"/>
      <use x="786.152344" xlink:href="#DejaVuSans-61"/>
      <use x="847.431641" xlink:href="#DejaVuSans-6c"/>
      <use x="875.214844" xlink:href="#DejaVuSans-73"/>
      <use x="927.314453" xlink:href="#DejaVuSans-20"/>
      <use x="959.101562" xlink:href="#DejaVuSans-2f"/>
      <use x="992.792969" xlink:href="#DejaVuSans-20"/>
      <use x="1024.580078" xlink:href="#DejaVuSans-64"/>
      <use x="1088.056641" xlink:href="#DejaVuSans-69"/>
      <use x="1115.839844" xlink:href="#DejaVuSans-6d"/>
      <use x="1213.251953" xlink:href="#DejaVuSans-65"/>
      <use x="1274.775391" xlink:href="#DejaVuSans-6e"/>
      <use x="1338.154297" xlink:href="#DejaVuSans-73"/>
      <use x="1390.253906" xlink:href="#DejaVuSans-69"/>
      <use x="1418.037109" xlink:href="#DejaVuSans-6f"/>
      <use x="1479.21875" xlink:href="#DejaVuSans-6e"/>
      <use x="1542.597656" xlink:href="#DejaVuSans-29"/>
     </g>
    </g>
   </g>
   <g id="matplotlib.axis_2">
    <g id="ytick_1">
     <g id="line2d_29">
      <path clip-path="url(#p3787281bc8)" d="M 70.8 298.245375 
L 427.92 298.245375 
" style="fill:none;stroke:#b0b0b0;stroke-linecap:square;stroke-width:0.8;"/>
     </g>
     <g id="line2d_30">
      <defs>
       <path d="M 0 0 
L -3.5 0 
" id="m3ce4b4e46d" style="stroke:#000000;stroke-width:0.8;"/>
      </defs>
      <g>
       <use style="stroke:#000000;stroke-width:0.8;" x="70.8" xlink:href="#m3ce4b4e46d" y="298.245375"/>
      </g>
     </g>
     <g id="text_7">
      <!-- 0.0 -->
      <defs>
       <path d="M 10.6875 12.40625 
L 21 12.40625 
L 21 0 
L 10.6875 0 
z
" id="DejaVuSans-2e"/>
      </defs>
      <g transform="translate(31.99375 305.843812)scale(0.2 -0.2)">
       <use xlink:href="#DejaVuSans-30"/>
       <use x="63.623047" xlink:href="#DejaVuSans-2e"/>
       <use x="95.410156" xlink:href="#DejaVuSans-30"/>
      </g>
     </g>
    </g>
    <g id="ytick_2">
     <g id="line2d_31">
      <path clip-path="url(#p3787281bc8)" d="M 70.8 245.549929 
L 427.92 245.549929 
" style="fill:none;stroke:#b0b0b0;stroke-linecap:square;stroke-width:0.8;"/>
     </g>
     <g id="line2d_32">
      <g>
       <use style="stroke:#000000;stroke-width:0.8;" x="70.8" xlink:href="#m3ce4b4e46d" y="245.549929"/>
      </g>
     </g>
     <g id="text_8">
      <!-- 0.2 -->
      <g transform="translate(31.99375 253.148367)scale(0.2 -0.2)">
       <use xlink:href="#DejaVuSans-30"/>
       <use x="63.623047" xlink:href="#DejaVuSans-2e"/>
       <use x="95.410156" xlink:href="#DejaVuSans-32"/>
      </g>
     </g>
    </g>
    <g id="ytick_3">
     <g id="line2d_33">
      <path clip-path="url(#p3787281bc8)" d="M 70.8 192.854484 
L 427.92 192.854484 
" style="fill:none;stroke:#b0b0b0;stroke-linecap:square;stroke-width:0.8;"/>
     </g>
     <g id="line2d_34">
      <g>
       <use style="stroke:#000000;stroke-width:0.8;" x="70.8" xlink:href="#m3ce4b4e46d" y="192.854484"/>
      </g>
     </g>
     <g id="text_9">
      <!-- 0.4 -->
      <g transform="translate(31.99375 200.452921)scale(0.2 -0.2)">
       <use xlink:href="#DejaVuSans-30"/>
       <use x="63.623047" xlink:href="#DejaVuSans-2e"/>
       <use x="95.410156" xlink:href="#DejaVuSans-34"/>
      </g>
     </g>
    </g>
    <g id="ytick_4">
     <g id="line2d_35">
      <path clip-path="url(#p3787281bc8)" d="M 70.8 140.159038 
L 427.92 140.159038 
" style="fill:none;stroke:#b0b0b0;stroke-linecap:square;stroke-width:0.8;"/>
     </g>
     <g id="line2d_36">
      <g>
       <use style="stroke:#000000;stroke-width:0.8;" x="70.8" xlink:href="#m3ce4b4e46d" y="140.159038"/>
      </g>
     </g>
     <g id="text_10">
      <!-- 0.6 -->
      <g transform="translate(31.99375 147.757476)scale(0.2 -0.2)">
       <use xlink:href="#DejaVuSans-30"/>
       <use x="63.623047" xlink:href="#DejaVuSans-2e"/>
       <use x="95.410156" xlink:href="#DejaVuSans-36"/>
      </g>
     </g>
    </g>
    <g id="ytick_5">
     <g id="line2d_37">
      <path clip-path="url(#p3787281bc8)" d="M 70.8 87.463593 
L 427.92 87.463593 
" style="fill:none;stroke:#b0b0b0;stroke-linecap:square;stroke-width:0.8;"/>
     </g>
     <g id="line2d_38">
      <g>
       <use style="stroke:#000000;stroke-width:0.8;" x="70.8" xlink:href="#m3ce4b4e46d" y="87.463593"/>
      </g>
     </g>
     <g id="text_11">
      <!-- 0.8 -->
      <g transform="translate(31.99375 95.06203)scale(0.2 -0.2)">
       <use xlink:href="#DejaVuSans-30"/>
       <use x="63.623047" xlink:href="#DejaVuSans-2e"/>
       <use x="95.410156" xlink:href="#DejaVuSans-38"/>
      </g>
     </g>
    </g>
    <g id="ytick_6">
     <g id="line2d_39">
      <path clip-path="url(#p3787281bc8)" d="M 70.8 34.768147 
L 427.92 34.768147 
" style="fill:none;stroke:#b0b0b0;stroke-linecap:square;stroke-width:0.8;"/>
     </g>
     <g id="line2d_40">
      <g>
       <use style="stroke:#000000;stroke-width:0.8;" x="70.8" xlink:href="#m3ce4b4e46d" y="34.768147"/>
      </g>
     </g>
     <g id="text_12">
      <!-- 1.0 -->
      <g transform="translate(31.99375 42.366585)scale(0.2 -0.2)">
       <use xlink:href="#DejaVuSans-31"/>
       <use x="63.623047" xlink:href="#DejaVuSans-2e"/>
       <use x="95.410156" xlink:href="#DejaVuSans-30"/>
      </g>
     </g>
    </g>
    <g id="text_13">
     <!-- Proportion of function+target pairs -->
     <defs>
      <path d="M 19.671875 64.796875 
L 19.671875 37.40625 
L 32.078125 37.40625 
Q 38.96875 37.40625 42.71875 40.96875 
Q 46.484375 44.53125 46.484375 51.125 
Q 46.484375 57.671875 42.71875 61.234375 
Q 38.96875 64.796875 32.078125 64.796875 
z
M 9.8125 72.90625 
L 32.078125 72.90625 
Q 44.34375 72.90625 50.609375 67.359375 
Q 56.890625 61.8125 56.890625 51.125 
Q 56.890625 40.328125 50.609375 34.8125 
Q 44.34375 29.296875 32.078125 29.296875 
L 19.671875 29.296875 
L 19.671875 0 
L 9.8125 0 
z
" id="DejaVuSans-50"/>
      <path d="M 41.109375 46.296875 
Q 39.59375 47.171875 37.8125 47.578125 
Q 36.03125 48 33.890625 48 
Q 26.265625 48 22.1875 43.046875 
Q 18.109375 38.09375 18.109375 28.8125 
L 18.109375 0 
L 9.078125 0 
L 9.078125 54.6875 
L 18.109375 54.6875 
L 18.109375 46.1875 
Q 20.953125 51.171875 25.484375 53.578125 
Q 30.03125 56 36.53125 56 
Q 37.453125 56 38.578125 55.875 
Q 39.703125 55.765625 41.0625 55.515625 
z
" id="DejaVuSans-72"/>
      <path d="M 18.109375 8.203125 
L 18.109375 -20.796875 
L 9.078125 -20.796875 
L 9.078125 54.6875 
L 18.109375 54.6875 
L 18.109375 46.390625 
Q 20.953125 51.265625 25.265625 53.625 
Q 29.59375 56 35.59375 56 
Q 45.5625 56 51.78125 48.09375 
Q 58.015625 40.1875 58.015625 27.296875 
Q 58.015625 14.40625 51.78125 6.484375 
Q 45.5625 -1.421875 35.59375 -1.421875 
Q 29.59375 -1.421875 25.265625 0.953125 
Q 20.953125 3.328125 18.109375 8.203125 
M 48.6875 27.296875 
Q 48.6875 37.203125 44.609375 42.84375 
Q 40.53125 48.484375 33.40625 48.484375 
Q 26.265625 48.484375 22.1875 42.84375 
Q 18.109375 37.203125 18.109375 27.296875 
Q 18.109375 17.390625 22.1875 11.75 
Q 26.265625 6.109375 33.40625 6.109375 
Q 40.53125 6.109375 44.609375 11.75 
Q 48.6875 17.390625 48.6875 27.296875 
" id="DejaVuSans-70"/>
      <path d="M 18.3125 70.21875 
L 18.3125 54.6875 
L 36.8125 54.6875 
L 36.8125 47.703125 
L 18.3125 47.703125 
L 18.3125 18.015625 
Q 18.3125 11.328125 20.140625 9.421875 
Q 21.96875 7.515625 27.59375 7.515625 
L 36.8125 7.515625 
L 36.8125 0 
L 27.59375 0 
Q 17.1875 0 13.234375 3.875 
Q 9.28125 7.765625 9.28125 18.015625 
L 9.28125 47.703125 
L 2.6875 47.703125 
L 2.6875 54.6875 
L 9.28125 54.6875 
L 9.28125 70.21875 
z
" id="DejaVuSans-74"/>
      <path d="M 8.5 21.578125 
L 8.5 54.6875 
L 17.484375 54.6875 
L 17.484375 21.921875 
Q 17.484375 14.15625 20.5 10.265625 
Q 23.53125 6.390625 29.59375 6.390625 
Q 36.859375 6.390625 41.078125 11.03125 
Q 45.3125 15.671875 45.3125 23.6875 
L 45.3125 54.6875 
L 54.296875 54.6875 
L 54.296875 0 
L 45.3125 0 
L 45.3125 8.40625 
Q 42.046875 3.421875 37.71875 1 
Q 33.40625 -1.421875 27.6875 -1.421875 
Q 18.265625 -1.421875 13.375 4.4375 
Q 8.5 10.296875 8.5 21.578125 
M 31.109375 56 
z
" id="DejaVuSans-75"/>
      <path d="M 48.78125 52.59375 
L 48.78125 44.1875 
Q 44.96875 46.296875 41.140625 47.34375 
Q 37.3125 48.390625 33.40625 48.390625 
Q 24.65625 48.390625 19.8125 42.84375 
Q 14.984375 37.3125 14.984375 27.296875 
Q 14.984375 17.28125 19.8125 11.734375 
Q 24.65625 6.203125 33.40625 6.203125 
Q 37.3125 6.203125 41.140625 7.25 
Q 44.96875 8.296875 48.78125 10.40625 
L 48.78125 2.09375 
Q 45.015625 0.34375 40.984375 -0.53125 
Q 36.96875 -1.421875 32.421875 -1.421875 
Q 20.0625 -1.421875 12.78125 6.34375 
Q 5.515625 14.109375 5.515625 27.296875 
Q 5.515625 40.671875 12.859375 48.328125 
Q 20.21875 56 33.015625 56 
Q 37.15625 56 41.109375 55.140625 
Q 45.0625 54.296875 48.78125 52.59375 
" id="DejaVuSans-63"/>
      <path d="M 46 62.703125 
L 46 35.5 
L 73.1875 35.5 
L 73.1875 27.203125 
L 46 27.203125 
L 46 0 
L 37.796875 0 
L 37.796875 27.203125 
L 10.59375 27.203125 
L 10.59375 35.5 
L 37.796875 35.5 
L 37.796875 62.703125 
z
" id="DejaVuSans-2b"/>
     </defs>
     <g transform="translate(24.250312 323.17875)rotate(-90)scale(0.18 -0.18)">
      <use xlink:href="#DejaVuSans-50"/>
      <use x="60.287109" xlink:href="#DejaVuSans-72"/>
      <use x="101.369141" xlink:href="#DejaVuSans-6f"/>
      <use x="162.550781" xlink:href="#DejaVuSans-70"/>
      <use x="226.027344" xlink:href="#DejaVuSans-6f"/>
      <use x="287.208984" xlink:href="#DejaVuSans-72"/>
      <use x="328.322266" xlink:href="#DejaVuSans-74"/>
      <use x="367.53125" xlink:href="#DejaVuSans-69"/>
      <use x="395.314453" xlink:href="#DejaVuSans-6f"/>
      <use x="456.496094" xlink:href="#DejaVuSans-6e"/>
      <use x="519.875" xlink:href="#DejaVuSans-20"/>
      <use x="551.662109" xlink:href="#DejaVuSans-6f"/>
      <use x="612.84375" xlink:href="#DejaVuSans-66"/>
      <use x="648.048828" xlink:href="#DejaVuSans-20"/>
      <use x="679.835938" xlink:href="#DejaVuSans-66"/>
      <use x="715.041016" xlink:href="#DejaVuSans-75"/>
      <use x="778.419922" xlink:href="#DejaVuSans-6e"/>
      <use x="841.798828" xlink:href="#DejaVuSans-63"/>
      <use x="896.779297" xlink:href="#DejaVuSans-74"/>
      <use x="935.988281" xlink:href="#DejaVuSans-69"/>
      <use x="963.771484" xlink:href="#DejaVuSans-6f"/>
      <use x="1024.953125" xlink:href="#DejaVuSans-6e"/>
      <use x="1088.332031" xlink:href="#DejaVuSans-2b"/>
      <use x="1172.121094" xlink:href="#DejaVuSans-74"/>
      <use x="1211.330078" xlink:href="#DejaVuSans-61"/>
      <use x="1272.609375" xlink:href="#DejaVuSans-72"/>
      <use x="1313.707031" xlink:href="#DejaVuSans-67"/>
      <use x="1377.183594" xlink:href="#DejaVuSans-65"/>
      <use x="1438.707031" xlink:href="#DejaVuSans-74"/>
      <use x="1477.916016" xlink:href="#DejaVuSans-20"/>
      <use x="1509.703125" xlink:href="#DejaVuSans-70"/>
      <use x="1573.179688" xlink:href="#DejaVuSans-61"/>
      <use x="1634.458984" xlink:href="#DejaVuSans-69"/>
      <use x="1662.242188" xlink:href="#DejaVuSans-72"/>
      <use x="1703.355469" xlink:href="#DejaVuSans-73"/>
     </g>
    </g>
   </g>
   <g id="line2d_41">
    <defs>
     <path d="M 0 1.5 
C 0.397805 1.5 0.77937 1.341951 1.06066 1.06066 
C 1.341951 0.77937 1.5 0.397805 1.5 0 
C 1.5 -0.397805 1.341951 -0.77937 1.06066 -1.06066 
C 0.77937 -1.341951 0.397805 -1.5 0 -1.5 
C -0.397805 -1.5 -0.77937 -1.341951 -1.06066 -1.06066 
C -1.341951 -0.77937 -1.5 -0.397805 -1.5 0 
C -1.5 0.397805 -1.341951 0.77937 -1.06066 1.06066 
C -0.77937 1.341951 -0.397805 1.5 0 1.5 
z
" id="mfe53604214" style="stroke:#000080;"/>
    </defs>
    <g>
     <use style="fill:#000080;stroke:#000080;" x="357.924128" xlink:href="#mfe53604214" y="34.768147"/>
     <use style="fill:#000080;stroke:#000080;" x="357.924128" xlink:href="#mfe53604214" y="34.768147"/>
    </g>
   </g>
   <g id="line2d_42">
    <path d="M 51.169868 298.245375 
L 51.169868 263.6317 
L 145.840817 263.6317 
L 145.840817 258.46548 
L 153.085714 258.46548 
L 153.085714 257.948858 
L 158.226051 257.948858 
L 158.226051 255.88237 
L 165.470948 255.88237 
L 165.470948 254.332504 
L 172.715846 254.332504 
L 172.715846 253.815882 
L 179.286395 253.815882 
L 179.286395 252.266016 
L 186.983674 252.266016 
L 186.983674 251.749394 
L 187.855462 251.749394 
L 187.855462 251.232772 
L 190.970829 251.232772 
L 190.970829 250.71615 
L 192.995799 250.71615 
L 192.995799 249.166284 
L 194.228571 249.166284 
L 194.228571 247.616418 
L 194.814464 247.616418 
L 194.814464 247.099796 
L 195.381753 247.099796 
L 195.381753 246.066551 
L 197.486314 246.066551 
L 197.486314 245.549929 
L 199.810118 245.549929 
L 199.810118 245.033307 
L 201.473469 245.033307 
L 201.473469 244.516685 
L 202.250466 244.516685 
L 202.250466 244.000063 
L 202.995079 244.000063 
L 202.995079 242.966819 
L 204.056863 242.966819 
L 204.056863 240.900331 
L 210.118009 240.900331 
L 210.118009 239.350465 
L 211.976109 239.350465 
L 211.976109 238.833843 
L 212.62593 238.833843 
L 212.62593 236.250733 
L 212.83739 236.250733 
L 212.83739 233.151001 
L 213.046376 233.151001 
L 213.046376 231.601135 
L 213.252946 231.601135 
L 213.252946 230.567891 
L 214.056143 230.567891 
L 214.056143 230.051269 
L 214.444595 230.051269 
L 214.444595 229.534647 
L 214.824782 229.534647 
L 214.824782 229.018025 
L 215.011885 229.018025 
L 215.011885 227.468159 
L 215.197048 227.468159 
L 215.197048 224.885049 
L 215.380313 224.885049 
L 215.380313 223.335183 
L 215.741297 223.335183 
L 215.741297 220.752073 
L 216.095133 220.752073 
L 216.095133 220.235451 
L 218.546658 220.235451 
L 218.546658 218.685585 
L 219.294387 218.685585 
L 219.294387 217.652341 
L 219.870828 217.652341 
L 219.870828 217.135719 
L 220.291274 217.135719 
L 220.291274 216.102475 
L 220.566173 216.102475 
L 220.566173 215.585853 
L 220.970752 215.585853 
L 220.970752 215.069231 
L 221.103601 215.069231 
L 221.103601 214.035987 
L 221.235469 214.035987 
L 221.235469 211.969498 
L 221.366372 211.969498 
L 221.366372 211.452876 
L 221.753422 211.452876 
L 221.753422 210.419632 
L 221.880598 210.419632 
L 221.880598 209.90301 
L 222.006875 209.90301 
L 222.006875 207.836522 
L 222.132265 207.836522 
L 222.132265 206.803278 
L 222.256782 206.803278 
L 222.256782 205.253412 
L 222.380438 205.253412 
L 222.380438 204.73679 
L 222.74635 204.73679 
L 222.74635 202.670302 
L 222.986194 202.670302 
L 222.986194 202.15368 
L 228.392563 202.15368 
L 228.480367 200.603814 
L 228.91303 200.603814 
L 228.91303 200.087192 
L 229.083204 200.087192 
L 229.083204 199.57057 
L 229.584212 199.57057 
L 229.666364 198.020704 
L 229.748141 198.020704 
L 229.748141 197.504082 
L 229.991248 197.504082 
L 229.991248 196.470838 
L 230.467759 196.470838 
L 230.545957 193.887728 
L 230.855369 193.887728 
L 230.931892 192.337862 
L 231.008089 192.337862 
L 231.083962 190.271374 
L 232.04207 190.271374 
L 232.04207 188.721508 
L 232.537456 188.721508 
L 232.537456 188.204886 
L 235.071117 188.204886 
L 235.071117 187.688264 
L 235.191848 187.688264 
L 235.251909 185.621776 
L 238.17679 185.621776 
L 238.227624 184.588532 
L 238.429525 184.588532 
L 238.429525 180.972178 
L 238.678736 180.972178 
L 238.678736 179.938934 
L 238.973272 179.938934 
L 238.973272 179.422312 
L 240.196305 179.422312 
L 240.287006 178.389067 
L 241.678901 178.389067 
L 241.678901 177.872445 
L 242.255342 177.872445 
L 242.295813 176.322579 
L 242.536735 176.322579 
L 242.536735 174.772713 
L 244.641296 174.772713 
L 244.712061 172.706225 
L 245.674423 172.706225 
L 245.674423 172.189603 
L 245.874069 172.189603 
L 245.940125 170.639737 
L 246.13684 170.639737 
L 246.13684 170.123115 
L 246.491954 170.123115 
L 246.491954 169.089871 
L 247.845781 169.089871 
L 247.845781 168.573249 
L 249.159364 168.573249 
L 249.159364 167.540005 
L 276.75683 167.540005 
L 276.75683 167.023383 
L 277.082878 167.023383 
L 277.186428 162.890407 
L 277.249415 162.890407 
L 277.346323 161.340541 
L 277.374726 161.340541 
L 277.386074 159.790675 
L 277.717651 159.790675 
L 277.817597 158.757431 
L 277.867361 158.757431 
L 277.938999 155.657699 
L 278.114125 155.657699 
L 278.206467 153.591211 
L 278.496662 153.591211 
L 278.544573 152.041345 
L 278.613552 152.041345 
L 278.724419 151.008101 
L 278.964895 151.008101 
L 278.970087 149.974857 
L 279.289077 149.974857 
L 279.324737 148.941613 
L 279.441406 148.941613 
L 279.481809 147.391747 
L 279.786912 147.391747 
L 279.786912 145.841881 
L 279.974376 145.841881 
L 279.974376 145.325259 
L 289.227059 145.325259 
L 289.326197 142.742148 
L 289.496936 142.742148 
L 289.606046 139.642416 
L 289.620353 139.642416 
L 289.717339 136.026062 
L 289.762797 136.026062 
L 289.765635 134.992818 
L 289.929434 134.992818 
L 290.038737 131.893086 
L 290.127924 131.893086 
L 290.202831 128.793354 
L 290.340725 128.793354 
L 290.422953 127.243488 
L 290.461197 127.243488 
L 290.461197 126.726866 
L 290.610653 126.726866 
L 290.610653 125.177 
L 296.542965 125.177 
L 296.64171 119.494158 
L 296.828028 119.494158 
L 296.910006 116.394426 
L 296.972664 116.394426 
L 297.012424 113.811316 
L 297.185573 113.811316 
L 297.185573 112.26145 
L 297.303182 112.26145 
L 297.38116 109.678339 
L 301.585959 109.678339 
L 301.661931 105.028741 
L 301.717246 105.028741 
L 301.823031 102.962253 
L 301.838917 102.962253 
L 301.838917 102.445631 
L 302.019883 102.445631 
L 302.098305 99.862521 
L 302.160796 99.862521 
L 302.160796 99.345899 
L 305.421374 99.345899 
L 305.512102 98.312655 
L 305.541461 98.312655 
L 305.618736 94.179679 
L 305.691025 94.179679 
L 305.797756 90.563325 
L 305.976145 90.563325 
L 306.019608 89.530081 
L 308.780028 89.530081 
L 308.879594 87.463593 
L 308.915574 87.463593 
L 309.025014 83.330617 
L 309.052028 83.330617 
L 309.158721 80.230885 
L 311.491288 80.230885 
L 311.599456 77.647775 
L 311.661211 77.647775 
L 311.732714 76.614531 
L 311.789876 76.614531 
L 311.827882 74.03142 
L 313.777616 74.03142 
L 313.854415 72.998176 
L 313.985097 72.998176 
L 314.063195 70.931688 
L 314.113377 70.931688 
L 314.113377 70.415066 
L 315.872225 70.415066 
L 315.941856 69.381822 
L 316.054919 69.381822 
L 316.133574 67.315334 
L 316.169213 67.315334 
L 316.19638 66.28209 
L 317.831398 66.28209 
L 317.889695 64.215602 
L 317.975909 64.215602 
L 318.039568 61.632492 
L 319.493936 61.632492 
L 319.601098 58.53276 
L 319.650177 58.53276 
L 319.703903 56.982894 
L 321.096119 56.982894 
L 321.181895 54.916406 
L 321.234139 54.916406 
L 321.234139 54.399784 
L 322.548729 54.399784 
L 322.638192 53.36654 
L 323.820083 53.36654 
L 323.820083 52.849918 
L 323.941585 52.849918 
L 323.943261 51.816674 
L 325.139883 51.816674 
L 325.139883 51.300052 
L 326.241122 51.300052 
L 326.241122 50.266808 
L 327.364416 50.266808 
L 327.364416 49.233564 
L 328.305442 49.233564 
L 328.307411 48.20032 
L 329.313895 48.20032 
L 329.328159 46.650454 
L 330.151337 46.650454 
L 330.232256 45.61721 
L 331.095048 45.61721 
L 331.095048 45.100588 
L 331.844473 45.100588 
L 331.907899 44.067344 
L 332.656327 44.067344 
L 332.695133 43.0341 
L 334.118413 43.0341 
L 334.118413 42.517478 
L 334.811698 42.517478 
L 334.87748 41.484233 
L 335.503015 41.484233 
L 335.503015 40.967611 
L 339.098791 40.967611 
L 339.098791 40.450989 
L 340.143977 40.450989 
L 340.143977 39.417745 
L 340.644503 39.417745 
L 340.644503 38.901123 
L 342.522803 38.901123 
L 342.522803 38.384501 
L 343.781653 38.384501 
L 343.781653 37.867879 
L 345.390215 37.867879 
L 345.390215 37.351257 
L 346.486452 37.351257 
L 346.486452 36.834635 
L 346.821311 36.834635 
L 346.821311 36.318013 
L 347.189292 36.318013 
L 347.189292 35.801391 
L 350.885615 35.801391 
L 350.885615 35.284769 
L 357.924128 35.284769 
L 357.924128 34.768147 
L 358.8 34.768147 
L 358.8 34.768147 
" style="fill:none;stroke:#000080;stroke-linecap:square;stroke-width:1.5;"/>
   </g>
   <g id="line2d_43">
    <defs>
     <path d="M 0 6 
C 1.591219 6 3.117479 5.367802 4.242641 4.242641 
C 5.367802 3.117479 6 1.591219 6 0 
C 6 -1.591219 5.367802 -3.117479 4.242641 -4.242641 
C 3.117479 -5.367802 1.591219 -6 0 -6 
C -1.591219 -6 -3.117479 -5.367802 -4.242641 -4.242641 
C -5.367802 -3.117479 -6 -1.591219 -6 0 
C -6 1.591219 -5.367802 3.117479 -4.242641 4.242641 
C -3.117479 5.367802 -1.591219 6 0 6 
z
" id="me7705a9159" style="stroke:#000080;stroke-width:1.5;"/>
    </defs>
    <g>
     <use style="fill:none;stroke:#000080;stroke-width:1.5;" x="358.8" xlink:href="#me7705a9159" y="34.768147"/>
    </g>
   </g>
   <g id="line2d_44"/>
   <g id="line2d_45">
    <path clip-path="url(#p3787281bc8)" d="M 276.514286 167.540005 
" style="fill:none;stroke:#000080;stroke-linecap:square;stroke-width:1.5;"/>
    <defs>
     <path d="M -12 12 
L 12 -12 
M -12 -12 
L 12 12 
" id="mc90642dd19" style="stroke:#000080;stroke-width:3;"/>
    </defs>
    <g clip-path="url(#p3787281bc8)">
     <use style="fill:#000080;stroke:#000080;stroke-width:3;" x="276.514286" xlink:href="#mc90642dd19" y="167.540005"/>
    </g>
   </g>
   <g id="line2d_46">
    <defs>
     <path d="M 0 1.5 
C 0.397805 1.5 0.77937 1.341951 1.06066 1.06066 
C 1.341951 0.77937 1.5 0.397805 1.5 0 
C 1.5 -0.397805 1.341951 -0.77937 1.06066 -1.06066 
C 0.77937 -1.341951 0.397805 -1.5 0 -1.5 
C -0.397805 -1.5 -0.77937 -1.341951 -1.06066 -1.06066 
C -1.341951 -0.77937 -1.5 -0.397805 -1.5 0 
C -1.5 0.397805 -1.341951 0.77937 -1.06066 1.06066 
C -0.77937 1.341951 -0.397805 1.5 0 1.5 
z
" id="m34f288cb6f" style="stroke:#ff00ff;"/>
    </defs>
    <g>
     <use style="fill:#ff00ff;stroke:#ff00ff;" x="308.780028" xlink:href="#m34f288cb6f" y="34.768147"/>
     <use style="fill:#ff00ff;stroke:#ff00ff;" x="308.780028" xlink:href="#m34f288cb6f" y="34.768147"/>
    </g>
   </g>
   <g id="line2d_47">
    <path d="M 51.169868 298.245375 
L 51.169868 257.948858 
L 145.840817 257.948858 
L 145.840817 253.29926 
L 153.085714 253.29926 
L 153.085714 250.71615 
L 158.226051 250.71615 
L 158.226051 246.066551 
L 162.213206 246.066551 
L 162.213206 245.033307 
L 165.470948 245.033307 
L 165.470948 244.516685 
L 168.225331 244.516685 
L 168.225331 244.000063 
L 170.611285 244.000063 
L 170.611285 242.966819 
L 172.715846 242.966819 
L 172.715846 242.450197 
L 176.301453 242.450197 
L 176.301453 241.933575 
L 185.10108 241.933575 
L 185.10108 241.416953 
L 186.983674 241.416953 
L 186.983674 240.900331 
L 187.855462 240.900331 
L 187.855462 240.383709 
L 189.480956 240.383709 
L 189.480956 239.867087 
L 190.241417 239.867087 
L 190.241417 238.833843 
L 191.671629 238.833843 
L 191.671629 237.283977 
L 192.995799 237.283977 
L 192.995799 236.767355 
L 193.622815 236.767355 
L 193.622815 236.250733 
L 195.381753 236.250733 
L 195.381753 234.700867 
L 195.931585 234.700867 
L 195.931585 234.184245 
L 196.465001 234.184245 
L 196.465001 233.667623 
L 197.486314 233.667623 
L 197.486314 233.151001 
L 198.452393 233.151001 
L 198.452393 232.634379 
L 201.071921 232.634379 
L 201.071921 231.084513 
L 201.473469 231.084513 
L 201.473469 229.018025 
L 201.866191 229.018025 
L 201.866191 226.951537 
L 203.709898 226.951537 
L 203.709898 225.401671 
L 206.909153 225.401671 
L 206.909153 223.851805 
L 208.044018 223.851805 
L 208.044018 222.818561 
L 210.60096 222.818561 
L 210.60096 222.301939 
L 211.301761 222.301939 
L 211.301761 221.785317 
L 212.195353 221.785317 
L 212.195353 219.718829 
L 212.411938 219.718829 
L 212.411938 219.202207 
L 212.62593 219.202207 
L 212.62593 217.652341 
L 214.056143 217.652341 
L 214.056143 216.619097 
L 214.251425 216.619097 
L 214.251425 215.585853 
L 214.444595 215.585853 
L 214.444595 215.069231 
L 214.6357 215.069231 
L 214.6357 210.936254 
L 214.824782 210.936254 
L 214.824782 209.90301 
L 215.011885 209.90301 
L 215.011885 208.353144 
L 215.197048 208.353144 
L 215.197048 204.73679 
L 215.561716 204.73679 
L 215.561716 201.637058 
L 215.919091 201.637058 
L 215.919091 201.120436 
L 216.095133 201.120436 
L 216.095133 199.57057 
L 216.269457 199.57057 
L 216.269457 198.537326 
L 216.442097 198.537326 
L 216.442097 198.020704 
L 216.613085 198.020704 
L 216.613085 194.40435 
L 216.782453 194.40435 
L 216.782453 192.854484 
L 217.28113 192.854484 
L 217.28113 191.304618 
L 218.393283 191.304618 
L 218.393283 190.271374 
L 219.44025 190.271374 
L 219.44025 189.23813 
L 219.728452 189.23813 
L 219.728452 188.204886 
L 220.012079 188.204886 
L 220.012079 187.171642 
L 220.291274 187.171642 
L 220.291274 186.65502 
L 220.429252 186.65502 
L 220.429252 186.138398 
L 220.702053 186.138398 
L 220.702053 185.105154 
L 220.836907 185.105154 
L 220.836907 184.588532 
L 220.970752 184.588532 
L 220.970752 184.07191 
L 221.235469 184.07191 
L 221.235469 183.038666 
L 221.366372 183.038666 
L 221.366372 182.522044 
L 221.496322 182.522044 
L 221.496322 182.005422 
L 221.625334 182.005422 
L 221.625334 179.938934 
L 222.006875 179.938934 
L 222.006875 179.422312 
L 222.256782 179.422312 
L 222.256782 178.389067 
L 222.380438 178.389067 
L 222.380438 174.256091 
L 222.503243 174.256091 
L 222.503243 173.739469 
L 222.74635 173.739469 
L 222.74635 170.123115 
L 222.866675 170.123115 
L 222.866675 164.956895 
L 222.986194 164.956895 
L 222.986194 164.440273 
L 228.215649 164.440273 
L 228.304325 160.307297 
L 228.392563 160.307297 
L 228.392563 159.790675 
L 228.654691 159.790675 
L 228.654691 159.274053 
L 229.50168 159.274053 
L 229.50168 158.240809 
L 229.829544 158.240809 
L 229.829544 156.174321 
L 230.467759 156.174321 
L 230.545957 154.624455 
L 230.855369 154.624455 
L 230.931892 153.591211 
L 231.008089 153.591211 
L 231.008089 152.041345 
L 231.384274 152.041345 
L 231.45857 149.974857 
L 231.532558 149.974857 
L 231.606241 143.775392 
L 231.679621 143.775392 
L 231.752702 141.708904 
L 231.825484 141.708904 
L 231.825484 141.192282 
L 232.04207 141.192282 
L 232.04207 140.159038 
L 232.185016 140.159038 
L 232.185016 139.642416 
L 232.326827 139.642416 
L 232.397313 137.059306 
L 232.467522 137.059306 
L 232.537456 134.476196 
L 232.676508 134.476196 
L 232.676508 133.442952 
L 233.816699 133.442952 
L 233.816699 132.409708 
L 234.138656 132.409708 
L 234.202357 128.793354 
L 234.454914 128.793354 
L 234.454914 128.276732 
L 234.703951 128.276732 
L 234.765672 126.726866 
L 234.82718 126.726866 
L 234.888477 125.177 
L 235.010444 125.177 
L 235.010444 122.59389 
L 235.131584 122.59389 
L 235.131584 121.044024 
L 235.371429 121.044024 
L 235.371429 120.527402 
L 238.17679 120.527402 
L 238.278313 116.911048 
L 238.479646 116.911048 
L 238.479646 115.877804 
L 239.166966 115.877804 
L 239.166966 115.361182 
L 239.50096 115.361182 
L 239.50096 113.811316 
L 239.967517 113.811316 
L 239.967517 112.778072 
L 240.377249 112.778072 
L 240.4222 111.228206 
L 243.278906 111.228206 
L 243.278906 110.711584 
L 245.096336 110.711584 
L 245.096336 109.678339 
L 245.607376 109.678339 
L 245.607376 109.161717 
L 277.048227 109.161717 
L 277.151978 102.962253 
L 277.192163 102.962253 
L 277.232259 100.895765 
L 277.323568 100.895765 
L 277.386074 94.179679 
L 277.67305 94.179679 
L 277.767694 90.046703 
L 277.828668 90.046703 
L 277.938999 75.581286 
L 277.949995 75.581286 
L 278.032248 71.964932 
L 278.114125 71.964932 
L 278.195628 69.381822 
L 278.491331 69.381822 
L 278.523295 67.315334 
L 278.62414 67.315334 
L 278.634722 65.765468 
L 279.099398 65.765468 
L 279.099398 65.248846 
L 279.222662 65.248846 
L 279.222662 64.732224 
L 289.183147 64.732224 
L 289.288357 63.69898 
L 289.30292 63.69898 
L 289.337825 58.53276 
L 289.488294 58.53276 
L 289.597456 53.883162 
L 289.606046 53.883162 
L 289.700262 48.716942 
L 289.734399 48.716942 
L 289.771308 45.61721 
L 289.937866 45.61721 
L 289.991174 44.067344 
L 290.376403 44.067344 
L 290.376403 43.550722 
L 296.330072 43.550722 
L 296.35952 42.000855 
L 296.541023 42.000855 
L 296.618525 40.450989 
L 296.691842 40.450989 
L 296.722623 38.901123 
L 296.828028 38.901123 
L 296.828028 38.384501 
L 301.500837 38.384501 
L 301.500837 37.867879 
L 301.65464 37.867879 
L 301.717246 36.834635 
L 305.443804 36.834635 
L 305.448523 35.801391 
L 305.618736 35.801391 
L 305.618736 35.284769 
L 308.780028 35.284769 
L 308.780028 34.768147 
L 358.8 34.768147 
L 358.8 34.768147 
" style="fill:none;stroke:#ff00ff;stroke-linecap:square;stroke-width:1.5;"/>
   </g>
   <g id="line2d_48">
    <defs>
     <path d="M -0 8.485281 
L 5.091169 0 
L 0 -8.485281 
L -5.091169 -0 
z
" id="m56a8841e5a" style="stroke:#ff00ff;stroke-linejoin:miter;stroke-width:1.5;"/>
    </defs>
    <g>
     <use style="fill:none;stroke:#ff00ff;stroke-linejoin:miter;stroke-width:1.5;" x="358.8" xlink:href="#m56a8841e5a" y="34.768147"/>
    </g>
   </g>
   <g id="line2d_49"/>
   <g id="line2d_50">
    <path clip-path="url(#p3787281bc8)" d="M 276.514286 109.161717 
" style="fill:none;stroke:#ff00ff;stroke-linecap:square;stroke-width:1.5;"/>
    <defs>
     <path d="M -12 12 
L 12 -12 
M -12 -12 
L 12 12 
" id="m585bbfe265" style="stroke:#ff00ff;stroke-width:3;"/>
    </defs>
    <g clip-path="url(#p3787281bc8)">
     <use style="fill:#ff00ff;stroke:#ff00ff;stroke-width:3;" x="276.514286" xlink:href="#m585bbfe265" y="109.161717"/>
    </g>
   </g>
   <g id="line2d_51">
    <defs>
     <path d="M 0 1.5 
C 0.397805 1.5 0.77937 1.341951 1.06066 1.06066 
C 1.341951 0.77937 1.5 0.397805 1.5 0 
C 1.5 -0.397805 1.341951 -0.77937 1.06066 -1.06066 
C 0.77937 -1.341951 0.397805 -1.5 0 -1.5 
C -0.397805 -1.5 -0.77937 -1.341951 -1.06066 -1.06066 
C -1.341951 -0.77937 -1.5 -0.397805 -1.5 0 
C -1.5 0.397805 -1.341951 0.77937 -1.06066 1.06066 
C -0.77937 1.341951 -0.397805 1.5 0 1.5 
z
" id="md359a97add" style="stroke:#ffa500;"/>
    </defs>
    <g>
     <use style="fill:#ffa500;stroke:#ffa500;" x="297.325496" xlink:href="#md359a97add" y="34.768147"/>
     <use style="fill:#ffa500;stroke:#ffa500;" x="297.325496" xlink:href="#md359a97add" y="34.768147"/>
    </g>
   </g>
   <g id="line2d_52">
    <path d="M 51.169868 298.245375 
L 51.169868 249.166284 
L 145.840817 249.166284 
L 145.840817 244.000063 
L 153.085714 244.000063 
L 153.085714 241.933575 
L 158.226051 241.933575 
L 158.226051 241.416953 
L 162.213206 241.416953 
L 162.213206 240.900331 
L 170.611285 240.900331 
L 170.611285 239.867087 
L 172.715846 239.867087 
L 172.715846 238.317221 
L 177.856183 238.317221 
L 177.856183 237.800599 
L 180.610565 237.800599 
L 180.610565 236.767355 
L 181.843337 236.767355 
L 181.843337 235.734111 
L 182.996519 235.734111 
L 182.996519 234.184245 
L 186.983674 234.184245 
L 186.983674 233.667623 
L 188.686687 233.667623 
L 188.686687 233.151001 
L 189.480956 233.151001 
L 189.480956 232.117757 
L 192.995799 232.117757 
L 192.995799 231.601135 
L 194.228571 231.601135 
L 194.228571 231.084513 
L 197.486314 231.084513 
L 197.486314 230.567891 
L 197.975882 230.567891 
L 197.975882 229.018025 
L 198.452393 229.018025 
L 198.452393 228.501403 
L 198.916526 228.501403 
L 198.916526 227.468159 
L 200.240696 227.468159 
L 200.240696 226.951537 
L 201.473469 226.951537 
L 201.473469 225.401671 
L 201.866191 225.401671 
L 201.866191 224.885049 
L 202.250466 224.885049 
L 202.250466 224.368427 
L 202.995079 224.368427 
L 202.995079 223.335183 
L 204.056863 223.335183 
L 204.056863 222.301939 
L 206.008049 222.301939 
L 206.008049 221.785317 
L 207.485594 221.785317 
L 207.485594 220.235451 
L 209.111088 220.235451 
L 209.111088 218.168963 
L 210.361116 218.168963 
L 210.361116 216.619097 
L 210.60096 216.619097 
L 210.60096 215.585853 
L 211.301761 215.585853 
L 211.301761 215.069231 
L 211.529383 215.069231 
L 211.529383 214.552609 
L 212.411938 214.552609 
L 212.411938 214.035987 
L 212.83739 214.035987 
L 212.83739 210.936254 
L 213.046376 210.936254 
L 213.046376 208.869766 
L 213.252946 208.869766 
L 213.252946 207.3199 
L 213.659057 207.3199 
L 213.659057 206.803278 
L 213.858703 206.803278 
L 213.858703 204.73679 
L 214.251425 204.73679 
L 214.251425 199.57057 
L 214.444595 199.57057 
L 214.444595 198.020704 
L 214.824782 198.020704 
L 214.824782 197.504082 
L 215.011885 197.504082 
L 215.011885 196.98746 
L 215.380313 196.98746 
L 215.380313 196.470838 
L 215.561716 196.470838 
L 215.561716 194.920972 
L 215.741297 194.920972 
L 215.741297 192.854484 
L 215.919091 192.854484 
L 215.919091 190.271374 
L 216.095133 190.271374 
L 216.095133 189.23813 
L 216.269457 189.23813 
L 216.269457 187.171642 
L 216.442097 187.171642 
L 216.442097 185.105154 
L 217.766267 185.105154 
L 217.766267 183.555288 
L 218.23858 183.555288 
L 218.23858 183.038666 
L 218.393283 183.038666 
L 218.393283 180.455556 
L 218.99904 180.455556 
L 218.99904 179.422312 
L 219.728452 179.422312 
L 219.728452 178.389067 
L 219.870828 178.389067 
L 219.870828 177.872445 
L 220.012079 177.872445 
L 220.012079 174.772713 
L 220.429252 174.772713 
L 220.429252 174.256091 
L 220.566173 174.256091 
L 220.566173 173.222847 
L 220.702053 173.222847 
L 220.702053 172.189603 
L 220.836907 172.189603 
L 220.836907 170.639737 
L 221.103601 170.639737 
L 221.103601 168.056627 
L 221.366372 168.056627 
L 221.366372 167.540005 
L 221.496322 167.540005 
L 221.496322 166.506761 
L 221.625334 166.506761 
L 221.625334 165.990139 
L 221.880598 165.990139 
L 221.880598 164.440273 
L 222.006875 164.440273 
L 222.006875 162.890407 
L 222.132265 162.890407 
L 222.132265 161.340541 
L 222.256782 161.340541 
L 222.256782 160.823919 
L 222.380438 160.823919 
L 222.380438 158.757431 
L 222.503243 158.757431 
L 222.503243 157.207565 
L 222.74635 157.207565 
L 222.74635 155.141077 
L 222.866675 155.141077 
L 222.866675 154.624455 
L 222.986194 154.624455 
L 222.986194 153.591211 
L 223.801168 153.591211 
L 223.801168 153.074589 
L 224.250704 153.074589 
L 224.250704 151.524723 
L 225.63818 151.524723 
L 225.63818 150.491479 
L 226.441377 150.491479 
L 226.441377 149.458235 
L 227.020934 149.458235 
L 227.020934 148.941613 
L 227.303813 148.941613 
L 227.397119 147.908369 
L 227.582282 147.908369 
L 227.67415 146.875125 
L 227.94695 146.875125 
L 227.94695 145.325259 
L 228.126531 145.325259 
L 228.215649 143.775392 
L 228.304325 143.775392 
L 228.392563 141.192282 
L 228.91303 141.192282 
L 228.91303 140.67566 
L 229.50168 140.67566 
L 229.50168 139.642416 
L 229.991248 139.642416 
L 230.071554 138.609172 
L 230.31033 138.609172 
L 230.31033 138.09255 
L 230.545957 138.09255 
L 230.623814 134.992818 
L 230.855369 134.992818 
L 230.855369 134.476196 
L 231.083962 134.476196 
L 231.159515 131.376464 
L 231.234749 131.376464 
L 231.309668 128.793354 
L 231.384274 128.793354 
L 231.384274 128.276732 
L 231.532558 128.276732 
L 231.532558 127.76011 
L 231.679621 127.76011 
L 231.679621 125.693622 
L 231.825484 125.693622 
L 231.825484 124.143756 
L 231.970166 124.143756 
L 231.970166 123.627134 
L 232.113686 123.627134 
L 232.185016 118.977536 
L 232.256062 118.977536 
L 232.256062 113.294694 
L 232.397313 113.294694 
L 232.397313 111.744828 
L 233.222141 111.744828 
L 233.222141 111.228206 
L 233.488835 111.228206 
L 233.488835 110.194961 
L 233.751606 110.194961 
L 233.816699 107.095229 
L 233.946179 107.095229 
L 234.010569 103.478875 
L 234.202357 103.478875 
L 234.265832 100.895765 
L 234.579866 100.895765 
L 234.642016 99.345899 
L 234.765672 99.345899 
L 234.82718 97.796033 
L 234.949565 97.796033 
L 235.010444 93.663057 
L 235.071117 93.663057 
L 235.131584 91.596569 
L 235.191848 91.596569 
L 235.251909 89.013459 
L 235.549222 89.013459 
L 235.549222 88.496837 
L 235.783562 88.496837 
L 235.783562 87.463593 
L 236.014867 87.463593 
L 236.072229 85.913727 
L 237.660334 85.913727 
L 237.660334 84.880483 
L 238.227624 84.880483 
L 238.278313 82.297373 
L 239.215064 82.297373 
L 239.215064 81.780751 
L 239.453627 81.780751 
L 239.453627 81.264129 
L 239.921405 81.264129 
L 240.013509 79.714263 
L 240.059384 79.714263 
L 240.105141 77.647775 
L 240.287006 77.647775 
L 240.287006 76.614531 
L 240.467039 76.614531 
L 240.55638 74.03142 
L 241.886914 74.03142 
L 241.886914 73.514798 
L 242.010569 73.514798 
L 242.010569 72.481554 
L 242.174123 72.481554 
L 242.174123 71.964932 
L 242.536735 71.964932 
L 242.536735 70.415066 
L 244.137936 70.415066 
L 244.137936 67.831956 
L 244.92269 67.831956 
L 244.992351 66.28209 
L 245.165325 66.28209 
L 245.165325 65.765468 
L 246.038753 65.765468 
L 246.104204 62.149114 
L 246.169416 62.149114 
L 246.169416 61.11587 
L 247.456351 61.11587 
L 247.456351 60.082626 
L 247.577082 60.082626 
L 247.577082 59.566004 
L 248.197873 59.566004 
L 248.197873 59.049382 
L 253.768788 59.049382 
L 253.768788 58.53276 
L 253.959213 58.53276 
L 253.959213 56.982894 
L 277.077108 56.982894 
L 277.077108 56.466272 
L 277.834201 56.466272 
L 277.938999 54.399784 
L 277.95549 54.399784 
L 278.059582 52.849918 
L 278.086874 52.849918 
L 278.179357 50.78343 
L 278.217299 50.78343 
L 278.28755 48.20032 
L 278.43258 48.20032 
L 278.496662 46.133832 
L 278.576442 46.133832 
L 278.68754 43.0341 
L 278.692813 43.0341 
L 278.803191 42.000855 
L 278.881618 42.000855 
L 278.881618 41.484233 
L 279.431291 41.484233 
L 279.431291 40.967611 
L 279.742223 40.967611 
L 279.846324 39.417745 
L 280.96704 39.417745 
L 280.96704 38.901123 
L 289.37846 38.901123 
L 289.37846 38.384501 
L 289.748604 38.384501 
L 289.791151 36.834635 
L 290.021964 36.834635 
L 290.038737 35.801391 
L 290.586282 35.801391 
L 290.586282 35.284769 
L 297.325496 35.284769 
L 297.325496 34.768147 
L 358.8 34.768147 
L 358.8 34.768147 
" style="fill:none;stroke:#ffa500;stroke-linecap:square;stroke-width:1.5;"/>
   </g>
   <g id="line2d_53">
    <defs>
     <path d="M 0 -6 
L -1.347084 -1.854102 
L -5.706339 -1.854102 
L -2.179628 0.708204 
L -3.526712 4.854102 
L -0 2.291796 
L 3.526712 4.854102 
L 2.179628 0.708204 
L 5.706339 -1.854102 
L 1.347084 -1.854102 
z
" id="mf916825b46" style="stroke:#ffa500;stroke-linejoin:bevel;stroke-width:1.5;"/>
    </defs>
    <g>
     <use style="fill:none;stroke:#ffa500;stroke-linejoin:bevel;stroke-width:1.5;" x="358.8" xlink:href="#mf916825b46" y="34.768147"/>
    </g>
   </g>
   <g id="line2d_54"/>
   <g id="line2d_55">
    <path clip-path="url(#p3787281bc8)" d="M 276.514286 56.982894 
" style="fill:none;stroke:#ffa500;stroke-linecap:square;stroke-width:1.5;"/>
    <defs>
     <path d="M -12 12 
L 12 -12 
M -12 -12 
L 12 12 
" id="m77e35b8c69" style="stroke:#ffa500;stroke-width:3;"/>
    </defs>
    <g clip-path="url(#p3787281bc8)">
     <use style="fill:#ffa500;stroke:#ffa500;stroke-width:3;" x="276.514286" xlink:href="#m77e35b8c69" y="56.982894"/>
    </g>
   </g>
   <g id="line2d_56">
    <defs>
     <path d="M 0 1.5 
C 0.397805 1.5 0.77937 1.341951 1.06066 1.06066 
C 1.341951 0.77937 1.5 0.397805 1.5 0 
C 1.5 -0.397805 1.341951 -0.77937 1.06066 -1.06066 
C 0.77937 -1.341951 0.397805 -1.5 0 -1.5 
C -0.397805 -1.5 -0.77937 -1.341951 -1.06066 -1.06066 
C -1.341951 -0.77937 -1.5 -0.397805 -1.5 0 
C -1.5 0.397805 -1.341951 0.77937 -1.06066 1.06066 
C -0.77937 1.341951 -0.397805 1.5 0 1.5 
z
" id="m781deac05e" style="stroke:#6495ed;"/>
    </defs>
    <g>
     <use style="fill:#6495ed;stroke:#6495ed;" x="314.037687" xlink:href="#m781deac05e" y="34.768147"/>
     <use style="fill:#6495ed;stroke:#6495ed;" x="314.037687" xlink:href="#m781deac05e" y="34.768147"/>
    </g>
   </g>
   <g id="line2d_57">
    <path d="M 51.169868 298.245375 
L 51.169868 274.480762 
L 145.840817 274.480762 
L 145.840817 272.414274 
L 153.085714 272.414274 
L 153.085714 271.38103 
L 165.470948 271.38103 
L 165.470948 270.347786 
L 168.225331 270.347786 
L 168.225331 268.281298 
L 170.611285 268.281298 
L 170.611285 267.764676 
L 172.715846 267.764676 
L 172.715846 266.731432 
L 174.59844 266.731432 
L 174.59844 266.21481 
L 180.610565 266.21481 
L 180.610565 265.181566 
L 181.843337 265.181566 
L 181.843337 264.148322 
L 182.996519 264.148322 
L 182.996519 263.115078 
L 186.983674 263.115078 
L 186.983674 262.598456 
L 187.855462 262.598456 
L 187.855462 261.565212 
L 189.480956 261.565212 
L 189.480956 261.04859 
L 190.970829 261.04859 
L 190.970829 260.531968 
L 201.866191 260.531968 
L 201.866191 260.015346 
L 203.709898 260.015346 
L 203.709898 258.982102 
L 208.316819 258.982102 
L 208.316819 257.948858 
L 209.111088 257.948858 
L 209.111088 256.915614 
L 209.62164 256.915614 
L 209.62164 256.398992 
L 209.871548 256.398992 
L 209.871548 254.332504 
L 210.60096 254.332504 
L 210.60096 252.782638 
L 211.071201 252.782638 
L 211.071201 252.266016 
L 211.301761 252.266016 
L 211.301761 251.749394 
L 213.046376 251.749394 
L 213.046376 251.232772 
L 214.056143 251.232772 
L 214.056143 250.71615 
L 214.444595 250.71615 
L 214.444595 248.649662 
L 214.6357 248.649662 
L 214.6357 248.13304 
L 215.011885 248.13304 
L 215.011885 247.616418 
L 215.197048 247.616418 
L 215.197048 246.066551 
L 215.380313 246.066551 
L 215.380313 245.549929 
L 215.561716 245.549929 
L 215.561716 245.033307 
L 215.741297 245.033307 
L 215.741297 242.450197 
L 215.919091 242.450197 
L 215.919091 241.933575 
L 216.095133 241.933575 
L 216.095133 240.383709 
L 220.291274 240.383709 
L 220.291274 238.833843 
L 220.566173 238.833843 
L 220.566173 236.767355 
L 220.836907 236.767355 
L 220.836907 236.250733 
L 220.970752 236.250733 
L 220.970752 235.217489 
L 221.103601 235.217489 
L 221.103601 234.184245 
L 221.496322 234.184245 
L 221.496322 232.117757 
L 221.880598 232.117757 
L 221.880598 227.984781 
L 222.006875 227.984781 
L 222.006875 226.951537 
L 222.132265 226.951537 
L 222.132265 225.401671 
L 222.256782 225.401671 
L 222.256782 224.368427 
L 222.380438 224.368427 
L 222.380438 220.752073 
L 222.503243 220.752073 
L 222.503243 218.168963 
L 222.62521 218.168963 
L 222.62521 216.102475 
L 222.74635 216.102475 
L 222.74635 214.552609 
L 222.866675 214.552609 
L 222.866675 214.035987 
L 222.986194 214.035987 
L 222.986194 213.002743 
L 228.215649 213.002743 
L 228.215649 208.869766 
L 229.083204 208.869766 
L 229.167687 207.836522 
L 229.335464 207.836522 
L 229.335464 206.803278 
L 230.071554 206.803278 
L 230.071554 203.186924 
L 230.623814 203.186924 
L 230.701333 199.57057 
L 230.778517 199.57057 
L 230.778517 197.504082 
L 230.931892 197.504082 
L 231.008089 195.954216 
L 231.159515 195.954216 
L 231.159515 195.437594 
L 231.309668 195.437594 
L 231.384274 193.371106 
L 231.45857 193.371106 
L 231.532558 189.23813 
L 231.606241 189.23813 
L 231.679621 185.105154 
L 231.752702 185.105154 
L 231.825484 183.038666 
L 231.897972 183.038666 
L 231.970166 180.455556 
L 232.04207 180.455556 
L 232.113686 173.222847 
L 232.397313 173.222847 
L 232.397313 172.189603 
L 234.202357 172.189603 
L 234.202357 171.156359 
L 234.703951 171.156359 
L 234.703951 170.639737 
L 234.949565 170.639737 
L 234.949565 169.606493 
L 235.191848 169.606493 
L 235.191848 168.573249 
L 235.311769 168.573249 
L 235.371429 167.540005 
L 235.43089 167.540005 
L 235.43089 165.473517 
L 237.396399 165.473517 
L 237.396399 164.956895 
L 237.660334 164.956895 
L 237.660334 164.440273 
L 237.816844 164.440273 
L 237.816844 163.923651 
L 239.967517 163.923651 
L 239.967517 163.407029 
L 240.511765 163.407029 
L 240.511765 162.373785 
L 242.655989 162.373785 
L 242.655989 160.823919 
L 242.774452 160.823919 
L 242.852993 158.240809 
L 242.931191 158.240809 
L 243.009048 155.657699 
L 243.4313 155.657699 
L 243.4313 155.141077 
L 243.657482 155.141077 
L 243.657482 154.107833 
L 243.843804 154.107833 
L 243.843804 153.591211 
L 243.991475 153.591211 
L 244.101433 151.524723 
L 244.210718 151.524723 
L 244.319339 149.458235 
L 244.391388 149.458235 
L 244.463148 144.808637 
L 244.534621 144.808637 
L 244.57025 141.192282 
L 245.061742 141.192282 
L 245.061742 140.67566 
L 245.336641 140.67566 
L 245.438648 139.125794 
L 245.472521 139.125794 
L 245.472521 137.059306 
L 245.607376 137.059306 
L 245.607376 136.542684 
L 245.74122 136.542684 
L 245.74122 136.026062 
L 246.038753 136.026062 
L 246.071509 134.992818 
L 247.963917 134.992818 
L 247.963917 134.476196 
L 248.197873 134.476196 
L 248.197873 133.959574 
L 248.543161 133.959574 
L 248.543161 132.92633 
L 248.656791 132.92633 
L 248.656791 131.893086 
L 248.853919 131.893086 
L 248.853919 130.859842 
L 249.021173 130.859842 
L 249.104216 127.76011 
L 250.587459 127.76011 
L 250.587459 123.627134 
L 251.5522 123.627134 
L 251.576265 120.527402 
L 251.719977 120.527402 
L 251.743817 117.42767 
L 277.111702 117.42767 
L 277.111702 116.394426 
L 277.277972 116.394426 
L 277.386074 107.095229 
L 277.67305 107.095229 
L 277.74547 103.478875 
L 277.795435 103.478875 
L 277.905971 94.179679 
L 277.916988 94.179679 
L 277.966476 87.980215 
L 278.114125 87.980215 
L 278.222713 84.363861 
L 278.228125 84.363861 
L 278.228125 83.847239 
L 278.437929 83.847239 
L 278.453966 82.297373 
L 278.666432 82.297373 
L 278.740202 81.264129 
L 279.032273 81.264129 
L 279.063285 79.197641 
L 279.176538 79.197641 
L 279.278875 73.514798 
L 279.365404 73.514798 
L 279.411044 72.481554 
L 279.501976 72.481554 
L 279.501976 71.964932 
L 279.776991 71.964932 
L 279.88089 67.831956 
L 279.925234 67.831956 
L 280.003797 64.732224 
L 280.401098 64.732224 
L 280.501441 62.665736 
L 289.200725 62.665736 
L 289.276697 61.11587 
L 289.326197 61.11587 
L 289.34073 60.082626 
L 289.496936 60.082626 
L 289.60032 56.466272 
L 289.608908 56.466272 
L 289.628932 54.916406 
L 289.745764 54.916406 
L 289.771308 53.883162 
L 289.895668 53.883162 
L 289.898484 52.849918 
L 290.219435 52.849918 
L 290.326983 49.750186 
L 290.4038 49.750186 
L 290.412011 48.20032 
L 290.626882 48.20032 
L 290.726637 47.167076 
L 290.998786 47.167076 
L 290.998786 46.650454 
L 296.416316 46.650454 
L 296.431952 44.583966 
L 296.539081 44.583966 
L 296.64171 40.967611 
L 296.80891 40.967611 
L 296.81656 39.934367 
L 297.104853 39.934367 
L 297.166833 37.867879 
L 297.561797 37.867879 
L 297.561797 37.351257 
L 301.584495 37.351257 
L 301.613755 36.318013 
L 301.956896 36.318013 
L 301.956896 35.801391 
L 302.078376 35.801391 
L 302.078376 35.284769 
L 314.037687 35.284769 
L 314.037687 34.768147 
L 358.8 34.768147 
L 358.8 34.768147 
" style="fill:none;stroke:#6495ed;stroke-linecap:square;stroke-width:1.5;"/>
   </g>
   <g id="line2d_58">
    <defs>
     <path d="M -0 6 
L 6 -6 
L -6 -6 
z
" id="m1ec498dd49" style="stroke:#6495ed;stroke-linejoin:miter;stroke-width:1.5;"/>
    </defs>
    <g>
     <use style="fill:none;stroke:#6495ed;stroke-linejoin:miter;stroke-width:1.5;" x="358.8" xlink:href="#m1ec498dd49" y="34.768147"/>
    </g>
   </g>
   <g id="line2d_59"/>
   <g id="line2d_60">
    <path clip-path="url(#p3787281bc8)" d="M 276.514286 117.42767 
" style="fill:none;stroke:#6495ed;stroke-linecap:square;stroke-width:1.5;"/>
    <defs>
     <path d="M -12 12 
L 12 -12 
M -12 -12 
L 12 12 
" id="m6e9b965958" style="stroke:#6495ed;stroke-width:3;"/>
    </defs>
    <g clip-path="url(#p3787281bc8)">
     <use style="fill:#6495ed;stroke:#6495ed;stroke-width:3;" x="276.514286" xlink:href="#m6e9b965958" y="117.42767"/>
    </g>
   </g>
   <g id="line2d_61">
    <path d="M 358.8 34.768147 
L 390.48 292.97583 
" style="fill:none;stroke:#000080;stroke-linecap:square;stroke-width:1.5;"/>
    <g>
     <use style="fill:none;stroke:#000080;stroke-width:1.5;" x="358.8" xlink:href="#me7705a9159" y="34.768147"/>
     <use style="fill:none;stroke:#000080;stroke-width:1.5;" x="390.48" xlink:href="#me7705a9159" y="292.97583"/>
    </g>
   </g>
   <g id="line2d_62">
    <path d="M 358.8 34.768147 
L 390.48 208.663118 
" style="fill:none;stroke:#6495ed;stroke-linecap:square;stroke-width:1.5;"/>
    <g>
     <use style="fill:none;stroke:#6495ed;stroke-linejoin:miter;stroke-width:1.5;" x="358.8" xlink:href="#m1ec498dd49" y="34.768147"/>
     <use style="fill:none;stroke:#6495ed;stroke-linejoin:miter;stroke-width:1.5;" x="390.48" xlink:href="#m1ec498dd49" y="208.663118"/>
    </g>
   </g>
   <g id="line2d_63">
    <path d="M 358.8 34.768147 
L 390.48 124.350405 
" style="fill:none;stroke:#ff00ff;stroke-linecap:square;stroke-width:1.5;"/>
    <g>
     <use style="fill:none;stroke:#ff00ff;stroke-linejoin:miter;stroke-width:1.5;" x="358.8" xlink:href="#m56a8841e5a" y="34.768147"/>
     <use style="fill:none;stroke:#ff00ff;stroke-linejoin:miter;stroke-width:1.5;" x="390.48" xlink:href="#m56a8841e5a" y="124.350405"/>
    </g>
   </g>
   <g id="line2d_64">
    <path d="M 358.8 34.768147 
L 390.48 40.037692 
" style="fill:none;stroke:#ffa500;stroke-linecap:square;stroke-width:1.5;"/>
    <g>
     <use style="fill:none;stroke:#ffa500;stroke-linejoin:bevel;stroke-width:1.5;" x="358.8" xlink:href="#mf916825b46" y="34.768147"/>
     <use style="fill:none;stroke:#ffa500;stroke-linejoin:bevel;stroke-width:1.5;" x="390.48" xlink:href="#mf916825b46" y="40.037692"/>
    </g>
   </g>
   <g id="line2d_65">
    <path d="M 358.8 298.245375 
L 358.8 34.768147 
" style="fill:none;stroke:#000000;stroke-linecap:square;stroke-width:1.5;"/>
   </g>
   <g id="patch_3">
    <path d="M 70.8 298.245375 
L 70.8 32.133375 
" style="fill:none;stroke:#000000;stroke-linecap:square;stroke-linejoin:miter;stroke-width:0.8;"/>
   </g>
   <g id="patch_4">
    <path d="M 427.92 298.245375 
L 427.92 32.133375 
" style="fill:none;stroke:#000000;stroke-linecap:square;stroke-linejoin:miter;stroke-width:0.8;"/>
   </g>
   <g id="patch_5">
    <path d="M 70.8 298.245375 
L 427.92 298.245375 
" style="fill:none;stroke:#000000;stroke-linecap:square;stroke-linejoin:miter;stroke-width:0.8;"/>
   </g>
   <g id="patch_6">
    <path d="M 70.8 32.133375 
L 427.92 32.133375 
" style="fill:none;stroke:#000000;stroke-linecap:square;stroke-linejoin:miter;stroke-width:0.8;"/>
   </g>
   <g id="text_14">
    <!-- f18 -->
    <g transform="translate(396.24 297.114893)scale(0.15 -0.15)">
     <use xlink:href="#DejaVuSans-66"/>
     <use x="35.205078" xlink:href="#DejaVuSans-31"/>
     <use x="98.828125" xlink:href="#DejaVuSans-38"/>
    </g>
   </g>
   <g id="text_15">
    <!-- f15 -->
    <defs>
     <path d="M 10.796875 72.90625 
L 49.515625 72.90625 
L 49.515625 64.59375 
L 19.828125 64.59375 
L 19.828125 46.734375 
Q 21.96875 47.46875 24.109375 47.828125 
Q 26.265625 48.1875 28.421875 48.1875 
Q 40.625 48.1875 47.75 41.5 
Q 54.890625 34.8125 54.890625 23.390625 
Q 54.890625 11.625 47.5625 5.09375 
Q 40.234375 -1.421875 26.90625 -1.421875 
Q 22.3125 -1.421875 17.546875 -0.640625 
Q 12.796875 0.140625 7.71875 1.703125 
L 7.71875 11.625 
Q 12.109375 9.234375 16.796875 8.0625 
Q 21.484375 6.890625 26.703125 6.890625 
Q 35.15625 6.890625 40.078125 11.328125 
Q 45.015625 15.765625 45.015625 23.390625 
Q 45.015625 31 40.078125 35.4375 
Q 35.15625 39.890625 26.703125 39.890625 
Q 22.75 39.890625 18.8125 39.015625 
Q 14.890625 38.140625 10.796875 36.28125 
z
" id="DejaVuSans-35"/>
    </defs>
    <g transform="translate(396.24 212.80218)scale(0.15 -0.15)">
     <use xlink:href="#DejaVuSans-66"/>
     <use x="35.205078" xlink:href="#DejaVuSans-31"/>
     <use x="98.828125" xlink:href="#DejaVuSans-35"/>
    </g>
   </g>
   <g id="text_16">
    <!-- f16 -->
    <g transform="translate(396.24 128.489467)scale(0.15 -0.15)">
     <use xlink:href="#DejaVuSans-66"/>
     <use x="35.205078" xlink:href="#DejaVuSans-31"/>
     <use x="98.828125" xlink:href="#DejaVuSans-36"/>
    </g>
   </g>
   <g id="text_17">
    <!-- f17 -->
    <defs>
     <path d="M 8.203125 72.90625 
L 55.078125 72.90625 
L 55.078125 68.703125 
L 28.609375 0 
L 18.3125 0 
L 43.21875 64.59375 
L 8.203125 64.59375 
z
" id="DejaVuSans-37"/>
    </defs>
    <g transform="translate(396.24 44.176754)scale(0.15 -0.15)">
     <use xlink:href="#DejaVuSans-66"/>
     <use x="35.205078" xlink:href="#DejaVuSans-31"/>
     <use x="98.828125" xlink:href="#DejaVuSans-37"/>
    </g>
   </g>
   <g id="text_18">
    <!-- bbob -->
    <defs>
     <path d="M 48.6875 27.296875 
Q 48.6875 37.203125 44.609375 42.84375 
Q 40.53125 48.484375 33.40625 48.484375 
Q 26.265625 48.484375 22.1875 42.84375 
Q 18.109375 37.203125 18.109375 27.296875 
Q 18.109375 17.390625 22.1875 11.75 
Q 26.265625 6.109375 33.40625 6.109375 
Q 40.53125 6.109375 44.609375 11.75 
Q 48.6875 17.390625 48.6875 27.296875 
M 18.109375 46.390625 
Q 20.953125 51.265625 25.265625 53.625 
Q 29.59375 56 35.59375 56 
Q 45.5625 56 51.78125 48.09375 
Q 58.015625 40.1875 58.015625 27.296875 
Q 58.015625 14.40625 51.78125 6.484375 
Q 45.5625 -1.421875 35.59375 -1.421875 
Q 29.59375 -1.421875 25.265625 0.953125 
Q 20.953125 3.328125 18.109375 8.203125 
L 18.109375 0 
L 9.078125 0 
L 9.078125 75.984375 
L 18.109375 75.984375 
z
" id="DejaVuSans-62"/>
    </defs>
    <g transform="translate(74.3712 50.114612)scale(0.1666 -0.1666)">
     <use xlink:href="#DejaVuSans-62"/>
     <use x="63.476562" xlink:href="#DejaVuSans-62"/>
     <use x="126.953125" xlink:href="#DejaVuSans-6f"/>
     <use x="188.134766" xlink:href="#DejaVuSans-62"/>
    </g>
    <!-- Multi-modal functions, 3-D -->
    <defs>
     <path d="M 9.8125 72.90625 
L 24.515625 72.90625 
L 43.109375 23.296875 
L 61.8125 72.90625 
L 76.515625 72.90625 
L 76.515625 0 
L 66.890625 0 
L 66.890625 64.015625 
L 48.09375 14.015625 
L 38.1875 14.015625 
L 19.390625 64.015625 
L 19.390625 0 
L 9.8125 0 
z
" id="DejaVuSans-4d"/>
     <path d="M 11.71875 12.40625 
L 22.015625 12.40625 
L 22.015625 4 
L 14.015625 -11.625 
L 7.71875 -11.625 
L 11.71875 4 
z
" id="DejaVuSans-2c"/>
     <path d="M 40.578125 39.3125 
Q 47.65625 37.796875 51.625 33 
Q 55.609375 28.21875 55.609375 21.1875 
Q 55.609375 10.40625 48.1875 4.484375 
Q 40.765625 -1.421875 27.09375 -1.421875 
Q 22.515625 -1.421875 17.65625 -0.515625 
Q 12.796875 0.390625 7.625 2.203125 
L 7.625 11.71875 
Q 11.71875 9.328125 16.59375 8.109375 
Q 21.484375 6.890625 26.8125 6.890625 
Q 36.078125 6.890625 40.9375 10.546875 
Q 45.796875 14.203125 45.796875 21.1875 
Q 45.796875 27.640625 41.28125 31.265625 
Q 36.765625 34.90625 28.71875 34.90625 
L 20.21875 34.90625 
L 20.21875 43.015625 
L 29.109375 43.015625 
Q 36.375 43.015625 40.234375 45.921875 
Q 44.09375 48.828125 44.09375 54.296875 
Q 44.09375 59.90625 40.109375 62.90625 
Q 36.140625 65.921875 28.71875 65.921875 
Q 24.65625 65.921875 20.015625 65.03125 
Q 15.375 64.15625 9.8125 62.3125 
L 9.8125 71.09375 
Q 15.4375 72.65625 20.34375 73.4375 
Q 25.25 74.21875 29.59375 74.21875 
Q 40.828125 74.21875 47.359375 69.109375 
Q 53.90625 64.015625 53.90625 55.328125 
Q 53.90625 49.265625 50.4375 45.09375 
Q 46.96875 40.921875 40.578125 39.3125 
" id="DejaVuSans-33"/>
     <path d="M 19.671875 64.796875 
L 19.671875 8.109375 
L 31.59375 8.109375 
Q 46.6875 8.109375 53.6875 14.9375 
Q 60.6875 21.78125 60.6875 36.53125 
Q 60.6875 51.171875 53.6875 57.984375 
Q 46.6875 64.796875 31.59375 64.796875 
z
M 9.8125 72.90625 
L 30.078125 72.90625 
Q 51.265625 72.90625 61.171875 64.09375 
Q 71.09375 55.28125 71.09375 36.53125 
Q 71.09375 17.671875 61.125 8.828125 
Q 51.171875 0 30.078125 0 
L 9.8125 0 
z
" id="DejaVuSans-44"/>
    </defs>
    <g transform="translate(74.3712 68.770168)scale(0.1666 -0.1666)">
     <use xlink:href="#DejaVuSans-4d"/>
     <use x="86.279297" xlink:href="#DejaVuSans-75"/>
     <use x="149.658203" xlink:href="#DejaVuSans-6c"/>
     <use x="177.441406" xlink:href="#DejaVuSans-74"/>
     <use x="216.650391" xlink:href="#DejaVuSans-69"/>
     <use x="244.433594" xlink:href="#DejaVuSans-2d"/>
     <use x="280.517578" xlink:href="#DejaVuSans-6d"/>
     <use x="377.929688" xlink:href="#DejaVuSans-6f"/>
     <use x="439.111328" xlink:href="#DejaVuSans-64"/>
     <use x="502.587891" xlink:href="#DejaVuSans-61"/>
     <use x="563.867188" xlink:href="#DejaVuSans-6c"/>
     <use x="591.650391" xlink:href="#DejaVuSans-20"/>
     <use x="623.4375" xlink:href="#DejaVuSans-66"/>
     <use x="658.642578" xlink:href="#DejaVuSans-75"/>
     <use x="722.021484" xlink:href="#DejaVuSans-6e"/>
     <use x="785.400391" xlink:href="#DejaVuSans-63"/>
     <use x="840.380859" xlink:href="#DejaVuSans-74"/>
     <use x="879.589844" xlink:href="#DejaVuSans-69"/>
     <use x="907.373047" xlink:href="#DejaVuSans-6f"/>
     <use x="968.554688" xlink:href="#DejaVuSans-6e"/>
     <use x="1031.933594" xlink:href="#DejaVuSans-73"/>
     <use x="1084.033203" xlink:href="#DejaVuSans-2c"/>
     <use x="1115.820312" xlink:href="#DejaVuSans-20"/>
     <use x="1147.607422" xlink:href="#DejaVuSans-33"/>
     <use x="1211.230469" xlink:href="#DejaVuSans-2d"/>
     <use x="1247.314453" xlink:href="#DejaVuSans-44"/>
    </g>
    <!-- 51 targets in 100..1e-08 -->
    <g transform="translate(74.3712 87.425723)scale(0.1666 -0.1666)">
     <use xlink:href="#DejaVuSans-35"/>
     <use x="63.623047" xlink:href="#DejaVuSans-31"/>
     <use x="127.246094" xlink:href="#DejaVuSans-20"/>
     <use x="159.033203" xlink:href="#DejaVuSans-74"/>
     <use x="198.242188" xlink:href="#DejaVuSans-61"/>
     <use x="259.521484" xlink:href="#DejaVuSans-72"/>
     <use x="300.619141" xlink:href="#DejaVuSans-67"/>
     <use x="364.095703" xlink:href="#DejaVuSans-65"/>
     <use x="425.619141" xlink:href="#DejaVuSans-74"/>
     <use x="464.828125" xlink:href="#DejaVuSans-73"/>
     <use x="516.927734" xlink:href="#DejaVuSans-20"/>
     <use x="548.714844" xlink:href="#DejaVuSans-69"/>
     <use x="576.498047" xlink:href="#DejaVuSans-6e"/>
     <use x="639.876953" xlink:href="#DejaVuSans-20"/>
     <use x="671.664062" xlink:href="#DejaVuSans-31"/>
     <use x="735.287109" xlink:href="#DejaVuSans-30"/>
     <use x="798.910156" xlink:href="#DejaVuSans-30"/>
     <use x="862.533203" xlink:href="#DejaVuSans-2e"/>
     <use x="894.320312" xlink:href="#DejaVuSans-2e"/>
     <use x="926.107422" xlink:href="#DejaVuSans-31"/>
     <use x="989.730469" xlink:href="#DejaVuSans-65"/>
     <use x="1051.253906" xlink:href="#DejaVuSans-2d"/>
     <use x="1087.337891" xlink:href="#DejaVuSans-30"/>
     <use x="1150.960938" xlink:href="#DejaVuSans-38"/>
    </g>
    <!-- 15 instances -->
    <g transform="translate(74.3712 106.081279)scale(0.1666 -0.1666)">
     <use xlink:href="#DejaVuSans-31"/>
     <use x="63.623047" xlink:href="#DejaVuSans-35"/>
     <use x="127.246094" xlink:href="#DejaVuSans-20"/>
     <use x="159.033203" xlink:href="#DejaVuSans-69"/>
     <use x="186.816406" xlink:href="#DejaVuSans-6e"/>
     <use x="250.195312" xlink:href="#DejaVuSans-73"/>
     <use x="302.294922" xlink:href="#DejaVuSans-74"/>
     <use x="341.503906" xlink:href="#DejaVuSans-61"/>
     <use x="402.783203" xlink:href="#DejaVuSans-6e"/>
     <use x="466.162109" xlink:href="#DejaVuSans-63"/>
     <use x="521.142578" xlink:href="#DejaVuSans-65"/>
     <use x="582.666016" xlink:href="#DejaVuSans-73"/>
    </g>
   </g>
   <g id="text_19">
    <!-- v2.0.1 -->
    <g style="fill:#808080;" transform="translate(233.67875 293.504568)scale(0.1 -0.1)">
     <use xlink:href="#DejaVuSans-76"/>
     <use x="59.179688" xlink:href="#DejaVuSans-32"/>
     <use x="122.802734" xlink:href="#DejaVuSans-2e"/>
     <use x="154.589844" xlink:href="#DejaVuSans-30"/>
     <use x="218.212891" xlink:href="#DejaVuSans-2e"/>
     <use x="250" xlink:href="#DejaVuSans-31"/>
    </g>
   </g>
  </g>
 </g>
 <defs>
  <clipPath id="p3787281bc8">
   <rect height="266.112" width="357.12" x="70.8" y="32.133375"/>
  </clipPath>
 </defs>
</svg>
