<?xml version="1.0" encoding="utf-8" standalone="no"?>
<!DOCTYPE svg PUBLIC "-//W3C//DTD SVG 1.1//EN"
  "http://www.w3.org/Graphics/SVG/1.1/DTD/svg11.dtd">
<!-- Created with matplotlib (http://matplotlib.org/) -->
<svg height="353pt" version="1.1" viewBox="0 0 441 353" width="441pt" xmlns="http://www.w3.org/2000/svg" xmlns:xlink="http://www.w3.org/1999/xlink">
 <defs>
  <style type="text/css">
*{stroke-linecap:butt;stroke-linejoin:round;}
  </style>
 </defs>
 <g id="figure_1">
  <g id="patch_1">
   <path d="M -0 353.22225 
L 441.802544 353.22225 
L 441.802544 0 
L -0 0 
z
" style="fill:#ffffff;"/>
  </g>
  <g id="axes_1">
   <g id="patch_2">
    <path d="M 73.113325 298.245375 
L 430.233325 298.245375 
L 430.233325 32.133375 
L 73.113325 32.133375 
z
" style="fill:#ffffff;"/>
   </g>
   <g id="matplotlib.axis_1">
    <g id="xtick_1">
     <g id="line2d_1">
      <path clip-path="url(#p2721e2e748)" d="M 73.113325 298.245375 
L 73.113325 32.133375 
" style="fill:none;stroke:#b0b0b0;stroke-linecap:square;stroke-width:0.8;"/>
     </g>
     <g id="line2d_2">
      <defs>
       <path d="M 0 0 
L 0 3.5 
" id="m509b0c8ef7" style="stroke:#000000;stroke-width:0.8;"/>
      </defs>
      <g>
       <use style="stroke:#000000;stroke-width:0.8;" x="73.113325" xlink:href="#m509b0c8ef7" y="298.245375"/>
      </g>
     </g>
     <g id="text_1">
      <!-- 0 -->
      <defs>
       <path d="M 31.78125 66.40625 
Q 24.171875 66.40625 20.328125 58.90625 
Q 16.5 51.421875 16.5 36.375 
Q 16.5 21.390625 20.328125 13.890625 
Q 24.171875 6.390625 31.78125 6.390625 
Q 39.453125 6.390625 43.28125 13.890625 
Q 47.125 21.390625 47.125 36.375 
Q 47.125 51.421875 43.28125 58.90625 
Q 39.453125 66.40625 31.78125 66.40625 
M 31.78125 74.21875 
Q 44.046875 74.21875 50.515625 64.515625 
Q 56.984375 54.828125 56.984375 36.375 
Q 56.984375 17.96875 50.515625 8.265625 
Q 44.046875 -1.421875 31.78125 -1.421875 
Q 19.53125 -1.421875 13.0625 8.265625 
Q 6.59375 17.96875 6.59375 36.375 
Q 6.59375 54.828125 13.0625 64.515625 
Q 19.53125 74.21875 31.78125 74.21875 
" id="DejaVuSans-30"/>
      </defs>
      <g transform="translate(66.750825 320.44225)scale(0.2 -0.2)">
       <use xlink:href="#DejaVuSans-30"/>
      </g>
     </g>
    </g>
    <g id="xtick_2">
     <g id="line2d_3">
      <path clip-path="url(#p2721e2e748)" d="M 155.39904 298.245375 
L 155.39904 32.133375 
" style="fill:none;stroke:#b0b0b0;stroke-linecap:square;stroke-width:0.8;"/>
     </g>
     <g id="line2d_4">
      <g>
       <use style="stroke:#000000;stroke-width:0.8;" x="155.39904" xlink:href="#m509b0c8ef7" y="298.245375"/>
      </g>
     </g>
     <g id="text_2">
      <!-- 2 -->
      <defs>
       <path d="M 19.1875 8.296875 
L 53.609375 8.296875 
L 53.609375 0 
L 7.328125 0 
L 7.328125 8.296875 
Q 12.9375 14.109375 22.625 23.890625 
Q 32.328125 33.6875 34.8125 36.53125 
Q 39.546875 41.84375 41.421875 45.53125 
Q 43.3125 49.21875 43.3125 52.78125 
Q 43.3125 58.59375 39.234375 62.25 
Q 35.15625 65.921875 28.609375 65.921875 
Q 23.96875 65.921875 18.8125 64.3125 
Q 13.671875 62.703125 7.8125 59.421875 
L 7.8125 69.390625 
Q 13.765625 71.78125 18.9375 73 
Q 24.125 74.21875 28.421875 74.21875 
Q 39.75 74.21875 46.484375 68.546875 
Q 53.21875 62.890625 53.21875 53.421875 
Q 53.21875 48.921875 51.53125 44.890625 
Q 49.859375 40.875 45.40625 35.40625 
Q 44.1875 33.984375 37.640625 27.21875 
Q 31.109375 20.453125 19.1875 8.296875 
" id="DejaVuSans-32"/>
      </defs>
      <g transform="translate(149.03654 320.44225)scale(0.2 -0.2)">
       <use xlink:href="#DejaVuSans-32"/>
      </g>
     </g>
    </g>
    <g id="xtick_3">
     <g id="line2d_5">
      <path clip-path="url(#p2721e2e748)" d="M 237.684754 298.245375 
L 237.684754 32.133375 
" style="fill:none;stroke:#b0b0b0;stroke-linecap:square;stroke-width:0.8;"/>
     </g>
     <g id="line2d_6">
      <g>
       <use style="stroke:#000000;stroke-width:0.8;" x="237.684754" xlink:href="#m509b0c8ef7" y="298.245375"/>
      </g>
     </g>
     <g id="text_3">
      <!-- 4 -->
      <defs>
       <path d="M 37.796875 64.3125 
L 12.890625 25.390625 
L 37.796875 25.390625 
z
M 35.203125 72.90625 
L 47.609375 72.90625 
L 47.609375 25.390625 
L 58.015625 25.390625 
L 58.015625 17.1875 
L 47.609375 17.1875 
L 47.609375 0 
L 37.796875 0 
L 37.796875 17.1875 
L 4.890625 17.1875 
L 4.890625 26.703125 
z
" id="DejaVuSans-34"/>
      </defs>
      <g transform="translate(231.322254 320.44225)scale(0.2 -0.2)">
       <use xlink:href="#DejaVuSans-34"/>
      </g>
     </g>
    </g>
    <g id="xtick_4">
     <g id="line2d_7">
      <path clip-path="url(#p2721e2e748)" d="M 319.970468 298.245375 
L 319.970468 32.133375 
" style="fill:none;stroke:#b0b0b0;stroke-linecap:square;stroke-width:0.8;"/>
     </g>
     <g id="line2d_8">
      <g>
       <use style="stroke:#000000;stroke-width:0.8;" x="319.970468" xlink:href="#m509b0c8ef7" y="298.245375"/>
      </g>
     </g>
     <g id="text_4">
      <!-- 6 -->
      <defs>
       <path d="M 33.015625 40.375 
Q 26.375 40.375 22.484375 35.828125 
Q 18.609375 31.296875 18.609375 23.390625 
Q 18.609375 15.53125 22.484375 10.953125 
Q 26.375 6.390625 33.015625 6.390625 
Q 39.65625 6.390625 43.53125 10.953125 
Q 47.40625 15.53125 47.40625 23.390625 
Q 47.40625 31.296875 43.53125 35.828125 
Q 39.65625 40.375 33.015625 40.375 
M 52.59375 71.296875 
L 52.59375 62.3125 
Q 48.875 64.0625 45.09375 64.984375 
Q 41.3125 65.921875 37.59375 65.921875 
Q 27.828125 65.921875 22.671875 59.328125 
Q 17.53125 52.734375 16.796875 39.40625 
Q 19.671875 43.65625 24.015625 45.921875 
Q 28.375 48.1875 33.59375 48.1875 
Q 44.578125 48.1875 50.953125 41.515625 
Q 57.328125 34.859375 57.328125 23.390625 
Q 57.328125 12.15625 50.6875 5.359375 
Q 44.046875 -1.421875 33.015625 -1.421875 
Q 20.359375 -1.421875 13.671875 8.265625 
Q 6.984375 17.96875 6.984375 36.375 
Q 6.984375 53.65625 15.1875 63.9375 
Q 23.390625 74.21875 37.203125 74.21875 
Q 40.921875 74.21875 44.703125 73.484375 
Q 48.484375 72.75 52.59375 71.296875 
" id="DejaVuSans-36"/>
      </defs>
      <g transform="translate(313.607968 320.44225)scale(0.2 -0.2)">
       <use xlink:href="#DejaVuSans-36"/>
      </g>
     </g>
    </g>
    <g id="xtick_5">
     <g id="line2d_9">
      <path clip-path="url(#p2721e2e748)" d="M 402.256183 298.245375 
L 402.256183 32.133375 
" style="fill:none;stroke:#b0b0b0;stroke-linecap:square;stroke-width:0.8;"/>
     </g>
     <g id="line2d_10">
      <g>
       <use style="stroke:#000000;stroke-width:0.8;" x="402.256183" xlink:href="#m509b0c8ef7" y="298.245375"/>
      </g>
     </g>
     <g id="text_5">
      <!-- 8 -->
      <defs>
       <path d="M 31.78125 34.625 
Q 24.75 34.625 20.71875 30.859375 
Q 16.703125 27.09375 16.703125 20.515625 
Q 16.703125 13.921875 20.71875 10.15625 
Q 24.75 6.390625 31.78125 6.390625 
Q 38.8125 6.390625 42.859375 10.171875 
Q 46.921875 13.96875 46.921875 20.515625 
Q 46.921875 27.09375 42.890625 30.859375 
Q 38.875 34.625 31.78125 34.625 
M 21.921875 38.8125 
Q 15.578125 40.375 12.03125 44.71875 
Q 8.5 49.078125 8.5 55.328125 
Q 8.5 64.0625 14.71875 69.140625 
Q 20.953125 74.21875 31.78125 74.21875 
Q 42.671875 74.21875 48.875 69.140625 
Q 55.078125 64.0625 55.078125 55.328125 
Q 55.078125 49.078125 51.53125 44.71875 
Q 48 40.375 41.703125 38.8125 
Q 48.828125 37.15625 52.796875 32.3125 
Q 56.78125 27.484375 56.78125 20.515625 
Q 56.78125 9.90625 50.3125 4.234375 
Q 43.84375 -1.421875 31.78125 -1.421875 
Q 19.734375 -1.421875 13.25 4.234375 
Q 6.78125 9.90625 6.78125 20.515625 
Q 6.78125 27.484375 10.78125 32.3125 
Q 14.796875 37.15625 21.921875 38.8125 
M 18.3125 54.390625 
Q 18.3125 48.734375 21.84375 45.5625 
Q 25.390625 42.390625 31.78125 42.390625 
Q 38.140625 42.390625 41.71875 45.5625 
Q 45.3125 48.734375 45.3125 54.390625 
Q 45.3125 60.0625 41.71875 63.234375 
Q 38.140625 66.40625 31.78125 66.40625 
Q 25.390625 66.40625 21.84375 63.234375 
Q 18.3125 60.0625 18.3125 54.390625 
" id="DejaVuSans-38"/>
      </defs>
      <g transform="translate(395.893683 320.44225)scale(0.2 -0.2)">
       <use xlink:href="#DejaVuSans-38"/>
      </g>
     </g>
    </g>
    <g id="xtick_6">
     <g id="line2d_11">
      <defs>
       <path d="M 0 0 
L 0 2 
" id="m4ca3a4988d" style="stroke:#000000;stroke-width:0.6;"/>
      </defs>
      <g>
       <use style="stroke:#000000;stroke-width:0.6;" x="85.498559" xlink:href="#m4ca3a4988d" y="298.245375"/>
      </g>
     </g>
    </g>
    <g id="xtick_7">
     <g id="line2d_12">
      <g>
       <use style="stroke:#000000;stroke-width:0.6;" x="97.883794" xlink:href="#m4ca3a4988d" y="298.245375"/>
      </g>
     </g>
    </g>
    <g id="xtick_8">
     <g id="line2d_13">
      <g>
       <use style="stroke:#000000;stroke-width:0.6;" x="105.128691" xlink:href="#m4ca3a4988d" y="298.245375"/>
      </g>
     </g>
    </g>
    <g id="xtick_9">
     <g id="line2d_14">
      <g>
       <use style="stroke:#000000;stroke-width:0.6;" x="110.269028" xlink:href="#m4ca3a4988d" y="298.245375"/>
      </g>
     </g>
    </g>
    <g id="xtick_10">
     <g id="line2d_15">
      <g>
       <use style="stroke:#000000;stroke-width:0.6;" x="167.784274" xlink:href="#m4ca3a4988d" y="298.245375"/>
      </g>
     </g>
    </g>
    <g id="xtick_11">
     <g id="line2d_16">
      <g>
       <use style="stroke:#000000;stroke-width:0.6;" x="180.169508" xlink:href="#m4ca3a4988d" y="298.245375"/>
      </g>
     </g>
    </g>
    <g id="xtick_12">
     <g id="line2d_17">
      <g>
       <use style="stroke:#000000;stroke-width:0.6;" x="187.414405" xlink:href="#m4ca3a4988d" y="298.245375"/>
      </g>
     </g>
    </g>
    <g id="xtick_13">
     <g id="line2d_18">
      <g>
       <use style="stroke:#000000;stroke-width:0.6;" x="192.554742" xlink:href="#m4ca3a4988d" y="298.245375"/>
      </g>
     </g>
    </g>
    <g id="xtick_14">
     <g id="line2d_19">
      <g>
       <use style="stroke:#000000;stroke-width:0.6;" x="250.069988" xlink:href="#m4ca3a4988d" y="298.245375"/>
      </g>
     </g>
    </g>
    <g id="xtick_15">
     <g id="line2d_20">
      <g>
       <use style="stroke:#000000;stroke-width:0.6;" x="262.455222" xlink:href="#m4ca3a4988d" y="298.245375"/>
      </g>
     </g>
    </g>
    <g id="xtick_16">
     <g id="line2d_21">
      <g>
       <use style="stroke:#000000;stroke-width:0.6;" x="269.70012" xlink:href="#m4ca3a4988d" y="298.245375"/>
      </g>
     </g>
    </g>
    <g id="xtick_17">
     <g id="line2d_22">
      <g>
       <use style="stroke:#000000;stroke-width:0.6;" x="274.840456" xlink:href="#m4ca3a4988d" y="298.245375"/>
      </g>
     </g>
    </g>
    <g id="xtick_18">
     <g id="line2d_23">
      <g>
       <use style="stroke:#000000;stroke-width:0.6;" x="332.355702" xlink:href="#m4ca3a4988d" y="298.245375"/>
      </g>
     </g>
    </g>
    <g id="xtick_19">
     <g id="line2d_24">
      <g>
       <use style="stroke:#000000;stroke-width:0.6;" x="344.740936" xlink:href="#m4ca3a4988d" y="298.245375"/>
      </g>
     </g>
    </g>
    <g id="xtick_20">
     <g id="line2d_25">
      <g>
       <use style="stroke:#000000;stroke-width:0.6;" x="351.985834" xlink:href="#m4ca3a4988d" y="298.245375"/>
      </g>
     </g>
    </g>
    <g id="xtick_21">
     <g id="line2d_26">
      <g>
       <use style="stroke:#000000;stroke-width:0.6;" x="357.126171" xlink:href="#m4ca3a4988d" y="298.245375"/>
      </g>
     </g>
    </g>
    <g id="xtick_22">
     <g id="line2d_27">
      <g>
       <use style="stroke:#000000;stroke-width:0.6;" x="414.641417" xlink:href="#m4ca3a4988d" y="298.245375"/>
      </g>
     </g>
    </g>
    <g id="xtick_23">
     <g id="line2d_28">
      <g>
       <use style="stroke:#000000;stroke-width:0.6;" x="427.026651" xlink:href="#m4ca3a4988d" y="298.245375"/>
      </g>
     </g>
    </g>
    <g id="text_6">
     <!-- log10 of (# f-evals / dimension) -->
     <defs>
      <path d="M 9.421875 75.984375 
L 18.40625 75.984375 
L 18.40625 0 
L 9.421875 0 
z
" id="DejaVuSans-6c"/>
      <path d="M 30.609375 48.390625 
Q 23.390625 48.390625 19.1875 42.75 
Q 14.984375 37.109375 14.984375 27.296875 
Q 14.984375 17.484375 19.15625 11.84375 
Q 23.34375 6.203125 30.609375 6.203125 
Q 37.796875 6.203125 41.984375 11.859375 
Q 46.1875 17.53125 46.1875 27.296875 
Q 46.1875 37.015625 41.984375 42.703125 
Q 37.796875 48.390625 30.609375 48.390625 
M 30.609375 56 
Q 42.328125 56 49.015625 48.375 
Q 55.71875 40.765625 55.71875 27.296875 
Q 55.71875 13.875 49.015625 6.21875 
Q 42.328125 -1.421875 30.609375 -1.421875 
Q 18.84375 -1.421875 12.171875 6.21875 
Q 5.515625 13.875 5.515625 27.296875 
Q 5.515625 40.765625 12.171875 48.375 
Q 18.84375 56 30.609375 56 
" id="DejaVuSans-6f"/>
      <path d="M 45.40625 27.984375 
Q 45.40625 37.75 41.375 43.109375 
Q 37.359375 48.484375 30.078125 48.484375 
Q 22.859375 48.484375 18.828125 43.109375 
Q 14.796875 37.75 14.796875 27.984375 
Q 14.796875 18.265625 18.828125 12.890625 
Q 22.859375 7.515625 30.078125 7.515625 
Q 37.359375 7.515625 41.375 12.890625 
Q 45.40625 18.265625 45.40625 27.984375 
M 54.390625 6.78125 
Q 54.390625 -7.171875 48.1875 -13.984375 
Q 42 -20.796875 29.203125 -20.796875 
Q 24.46875 -20.796875 20.265625 -20.09375 
Q 16.0625 -19.390625 12.109375 -17.921875 
L 12.109375 -9.1875 
Q 16.0625 -11.328125 19.921875 -12.34375 
Q 23.78125 -13.375 27.78125 -13.375 
Q 36.625 -13.375 41.015625 -8.765625 
Q 45.40625 -4.15625 45.40625 5.171875 
L 45.40625 9.625 
Q 42.625 4.78125 38.28125 2.390625 
Q 33.9375 0 27.875 0 
Q 17.828125 0 11.671875 7.65625 
Q 5.515625 15.328125 5.515625 27.984375 
Q 5.515625 40.671875 11.671875 48.328125 
Q 17.828125 56 27.875 56 
Q 33.9375 56 38.28125 53.609375 
Q 42.625 51.21875 45.40625 46.390625 
L 45.40625 54.6875 
L 54.390625 54.6875 
z
" id="DejaVuSans-67"/>
      <path d="M 12.40625 8.296875 
L 28.515625 8.296875 
L 28.515625 63.921875 
L 10.984375 60.40625 
L 10.984375 69.390625 
L 28.421875 72.90625 
L 38.28125 72.90625 
L 38.28125 8.296875 
L 54.390625 8.296875 
L 54.390625 0 
L 12.40625 0 
z
" id="DejaVuSans-31"/>
      <path id="DejaVuSans-20"/>
      <path d="M 37.109375 75.984375 
L 37.109375 68.5 
L 28.515625 68.5 
Q 23.6875 68.5 21.796875 66.546875 
Q 19.921875 64.59375 19.921875 59.515625 
L 19.921875 54.6875 
L 34.71875 54.6875 
L 34.71875 47.703125 
L 19.921875 47.703125 
L 19.921875 0 
L 10.890625 0 
L 10.890625 47.703125 
L 2.296875 47.703125 
L 2.296875 54.6875 
L 10.890625 54.6875 
L 10.890625 58.5 
Q 10.890625 67.625 15.140625 71.796875 
Q 19.390625 75.984375 28.609375 75.984375 
z
" id="DejaVuSans-66"/>
      <path d="M 31 75.875 
Q 24.46875 64.65625 21.28125 53.65625 
Q 18.109375 42.671875 18.109375 31.390625 
Q 18.109375 20.125 21.3125 9.0625 
Q 24.515625 -2 31 -13.1875 
L 23.1875 -13.1875 
Q 15.875 -1.703125 12.234375 9.375 
Q 8.59375 20.453125 8.59375 31.390625 
Q 8.59375 42.28125 12.203125 53.3125 
Q 15.828125 64.359375 23.1875 75.875 
z
" id="DejaVuSans-28"/>
      <path d="M 51.125 44 
L 36.921875 44 
L 32.8125 27.6875 
L 47.125 27.6875 
z
M 43.796875 71.78125 
L 38.71875 51.515625 
L 52.984375 51.515625 
L 58.109375 71.78125 
L 65.921875 71.78125 
L 60.890625 51.515625 
L 76.125 51.515625 
L 76.125 44 
L 58.984375 44 
L 54.984375 27.6875 
L 70.515625 27.6875 
L 70.515625 20.21875 
L 53.078125 20.21875 
L 48 0 
L 40.1875 0 
L 45.21875 20.21875 
L 30.90625 20.21875 
L 25.875 0 
L 18.015625 0 
L 23.09375 20.21875 
L 7.71875 20.21875 
L 7.71875 27.6875 
L 24.90625 27.6875 
L 29 44 
L 13.28125 44 
L 13.28125 51.515625 
L 30.90625 51.515625 
L 35.890625 71.78125 
z
" id="DejaVuSans-23"/>
      <path d="M 4.890625 31.390625 
L 31.203125 31.390625 
L 31.203125 23.390625 
L 4.890625 23.390625 
z
" id="DejaVuSans-2d"/>
      <path d="M 56.203125 29.59375 
L 56.203125 25.203125 
L 14.890625 25.203125 
Q 15.484375 15.921875 20.484375 11.0625 
Q 25.484375 6.203125 34.421875 6.203125 
Q 39.59375 6.203125 44.453125 7.46875 
Q 49.3125 8.734375 54.109375 11.28125 
L 54.109375 2.78125 
Q 49.265625 0.734375 44.1875 -0.34375 
Q 39.109375 -1.421875 33.890625 -1.421875 
Q 20.796875 -1.421875 13.15625 6.1875 
Q 5.515625 13.8125 5.515625 26.8125 
Q 5.515625 40.234375 12.765625 48.109375 
Q 20.015625 56 32.328125 56 
Q 43.359375 56 49.78125 48.890625 
Q 56.203125 41.796875 56.203125 29.59375 
M 47.21875 32.234375 
Q 47.125 39.59375 43.09375 43.984375 
Q 39.0625 48.390625 32.421875 48.390625 
Q 24.90625 48.390625 20.390625 44.140625 
Q 15.875 39.890625 15.1875 32.171875 
z
" id="DejaVuSans-65"/>
      <path d="M 2.984375 54.6875 
L 12.5 54.6875 
L 29.59375 8.796875 
L 46.6875 54.6875 
L 56.203125 54.6875 
L 35.6875 0 
L 23.484375 0 
z
" id="DejaVuSans-76"/>
      <path d="M 34.28125 27.484375 
Q 23.390625 27.484375 19.1875 25 
Q 14.984375 22.515625 14.984375 16.5 
Q 14.984375 11.71875 18.140625 8.90625 
Q 21.296875 6.109375 26.703125 6.109375 
Q 34.1875 6.109375 38.703125 11.40625 
Q 43.21875 16.703125 43.21875 25.484375 
L 43.21875 27.484375 
z
M 52.203125 31.203125 
L 52.203125 0 
L 43.21875 0 
L 43.21875 8.296875 
Q 40.140625 3.328125 35.546875 0.953125 
Q 30.953125 -1.421875 24.3125 -1.421875 
Q 15.921875 -1.421875 10.953125 3.296875 
Q 6 8.015625 6 15.921875 
Q 6 25.140625 12.171875 29.828125 
Q 18.359375 34.515625 30.609375 34.515625 
L 43.21875 34.515625 
L 43.21875 35.40625 
Q 43.21875 41.609375 39.140625 45 
Q 35.0625 48.390625 27.6875 48.390625 
Q 23 48.390625 18.546875 47.265625 
Q 14.109375 46.140625 10.015625 43.890625 
L 10.015625 52.203125 
Q 14.9375 54.109375 19.578125 55.046875 
Q 24.21875 56 28.609375 56 
Q 40.484375 56 46.34375 49.84375 
Q 52.203125 43.703125 52.203125 31.203125 
" id="DejaVuSans-61"/>
      <path d="M 44.28125 53.078125 
L 44.28125 44.578125 
Q 40.484375 46.53125 36.375 47.5 
Q 32.28125 48.484375 27.875 48.484375 
Q 21.1875 48.484375 17.84375 46.4375 
Q 14.5 44.390625 14.5 40.28125 
Q 14.5 37.15625 16.890625 35.375 
Q 19.28125 33.59375 26.515625 31.984375 
L 29.59375 31.296875 
Q 39.15625 29.25 43.1875 25.515625 
Q 47.21875 21.78125 47.21875 15.09375 
Q 47.21875 7.46875 41.1875 3.015625 
Q 35.15625 -1.421875 24.609375 -1.421875 
Q 20.21875 -1.421875 15.453125 -0.5625 
Q 10.6875 0.296875 5.421875 2 
L 5.421875 11.28125 
Q 10.40625 8.6875 15.234375 7.390625 
Q 20.0625 6.109375 24.8125 6.109375 
Q 31.15625 6.109375 34.5625 8.28125 
Q 37.984375 10.453125 37.984375 14.40625 
Q 37.984375 18.0625 35.515625 20.015625 
Q 33.0625 21.96875 24.703125 23.78125 
L 21.578125 24.515625 
Q 13.234375 26.265625 9.515625 29.90625 
Q 5.8125 33.546875 5.8125 39.890625 
Q 5.8125 47.609375 11.28125 51.796875 
Q 16.75 56 26.8125 56 
Q 31.78125 56 36.171875 55.265625 
Q 40.578125 54.546875 44.28125 53.078125 
" id="DejaVuSans-73"/>
      <path d="M 25.390625 72.90625 
L 33.6875 72.90625 
L 8.296875 -9.28125 
L 0 -9.28125 
z
" id="DejaVuSans-2f"/>
      <path d="M 45.40625 46.390625 
L 45.40625 75.984375 
L 54.390625 75.984375 
L 54.390625 0 
L 45.40625 0 
L 45.40625 8.203125 
Q 42.578125 3.328125 38.25 0.953125 
Q 33.9375 -1.421875 27.875 -1.421875 
Q 17.96875 -1.421875 11.734375 6.484375 
Q 5.515625 14.40625 5.515625 27.296875 
Q 5.515625 40.1875 11.734375 48.09375 
Q 17.96875 56 27.875 56 
Q 33.9375 56 38.25 53.625 
Q 42.578125 51.265625 45.40625 46.390625 
M 14.796875 27.296875 
Q 14.796875 17.390625 18.875 11.75 
Q 22.953125 6.109375 30.078125 6.109375 
Q 37.203125 6.109375 41.296875 11.75 
Q 45.40625 17.390625 45.40625 27.296875 
Q 45.40625 37.203125 41.296875 42.84375 
Q 37.203125 48.484375 30.078125 48.484375 
Q 22.953125 48.484375 18.875 42.84375 
Q 14.796875 37.203125 14.796875 27.296875 
" id="DejaVuSans-64"/>
      <path d="M 9.421875 54.6875 
L 18.40625 54.6875 
L 18.40625 0 
L 9.421875 0 
z
M 9.421875 75.984375 
L 18.40625 75.984375 
L 18.40625 64.59375 
L 9.421875 64.59375 
z
" id="DejaVuSans-69"/>
      <path d="M 52 44.1875 
Q 55.375 50.25 60.0625 53.125 
Q 64.75 56 71.09375 56 
Q 79.640625 56 84.28125 50.015625 
Q 88.921875 44.046875 88.921875 33.015625 
L 88.921875 0 
L 79.890625 0 
L 79.890625 32.71875 
Q 79.890625 40.578125 77.09375 44.375 
Q 74.3125 48.1875 68.609375 48.1875 
Q 61.625 48.1875 57.5625 43.546875 
Q 53.515625 38.921875 53.515625 30.90625 
L 53.515625 0 
L 44.484375 0 
L 44.484375 32.71875 
Q 44.484375 40.625 41.703125 44.40625 
Q 38.921875 48.1875 33.109375 48.1875 
Q 26.21875 48.1875 22.15625 43.53125 
Q 18.109375 38.875 18.109375 30.90625 
L 18.109375 0 
L 9.078125 0 
L 9.078125 54.6875 
L 18.109375 54.6875 
L 18.109375 46.1875 
Q 21.1875 51.21875 25.484375 53.609375 
Q 29.78125 56 35.6875 56 
Q 41.65625 56 45.828125 52.96875 
Q 50 49.953125 52 44.1875 
" id="DejaVuSans-6d"/>
      <path d="M 54.890625 33.015625 
L 54.890625 0 
L 45.90625 0 
L 45.90625 32.71875 
Q 45.90625 40.484375 42.875 44.328125 
Q 39.84375 48.1875 33.796875 48.1875 
Q 26.515625 48.1875 22.3125 43.546875 
Q 18.109375 38.921875 18.109375 30.90625 
L 18.109375 0 
L 9.078125 0 
L 9.078125 54.6875 
L 18.109375 54.6875 
L 18.109375 46.1875 
Q 21.34375 51.125 25.703125 53.5625 
Q 30.078125 56 35.796875 56 
Q 45.21875 56 50.046875 50.171875 
Q 54.890625 44.34375 54.890625 33.015625 
" id="DejaVuSans-6e"/>
      <path d="M 8.015625 75.875 
L 15.828125 75.875 
Q 23.140625 64.359375 26.78125 53.3125 
Q 30.421875 42.28125 30.421875 31.390625 
Q 30.421875 20.453125 26.78125 9.375 
Q 23.140625 -1.703125 15.828125 -13.1875 
L 8.015625 -13.1875 
Q 14.5 -2 17.703125 9.0625 
Q 20.90625 20.125 20.90625 31.390625 
Q 20.90625 42.671875 17.703125 53.65625 
Q 14.5 64.65625 8.015625 75.875 
" id="DejaVuSans-29"/>
     </defs>
     <g transform="translate(109.328482 342.278812)scale(0.18 -0.18)">
      <use xlink:href="#DejaVuSans-6c"/>
      <use x="27.783203" xlink:href="#DejaVuSans-6f"/>
      <use x="88.964844" xlink:href="#DejaVuSans-67"/>
      <use x="152.441406" xlink:href="#DejaVuSans-31"/>
      <use x="216.064453" xlink:href="#DejaVuSans-30"/>
      <use x="279.6875" xlink:href="#DejaVuSans-20"/>
      <use x="311.474609" xlink:href="#DejaVuSans-6f"/>
      <use x="372.65625" xlink:href="#DejaVuSans-66"/>
      <use x="407.861328" xlink:href="#DejaVuSans-20"/>
      <use x="439.648438" xlink:href="#DejaVuSans-28"/>
      <use x="478.662109" xlink:href="#DejaVuSans-23"/>
      <use x="562.451172" xlink:href="#DejaVuSans-20"/>
      <use x="594.238281" xlink:href="#DejaVuSans-66"/>
      <use x="629.365234" xlink:href="#DejaVuSans-2d"/>
      <use x="665.449219" xlink:href="#DejaVuSans-65"/>
      <use x="726.972656" xlink:href="#DejaVuSans-76"/>
      <use x="786.152344" xlink:href="#DejaVuSans-61"/>
      <use x="847.431641" xlink:href="#DejaVuSans-6c"/>
      <use x="875.214844" xlink:href="#DejaVuSans-73"/>
      <use x="927.314453" xlink:href="#DejaVuSans-20"/>
      <use x="959.101562" xlink:href="#DejaVuSans-2f"/>
      <use x="992.792969" xlink:href="#DejaVuSans-20"/>
      <use x="1024.580078" xlink:href="#DejaVuSans-64"/>
      <use x="1088.056641" xlink:href="#DejaVuSans-69"/>
      <use x="1115.839844" xlink:href="#DejaVuSans-6d"/>
      <use x="1213.251953" xlink:href="#DejaVuSans-65"/>
      <use x="1274.775391" xlink:href="#DejaVuSans-6e"/>
      <use x="1338.154297" xlink:href="#DejaVuSans-73"/>
      <use x="1390.253906" xlink:href="#DejaVuSans-69"/>
      <use x="1418.037109" xlink:href="#DejaVuSans-6f"/>
      <use x="1479.21875" xlink:href="#DejaVuSans-6e"/>
      <use x="1542.597656" xlink:href="#DejaVuSans-29"/>
     </g>
    </g>
   </g>
   <g id="matplotlib.axis_2">
    <g id="ytick_1">
     <g id="line2d_29">
      <path clip-path="url(#p2721e2e748)" d="M 73.113325 298.245375 
L 430.233325 298.245375 
" style="fill:none;stroke:#b0b0b0;stroke-linecap:square;stroke-width:0.8;"/>
     </g>
     <g id="line2d_30">
      <defs>
       <path d="M 0 0 
L -3.5 0 
" id="m5739cc88b1" style="stroke:#000000;stroke-width:0.8;"/>
      </defs>
      <g>
       <use style="stroke:#000000;stroke-width:0.8;" x="73.113325" xlink:href="#m5739cc88b1" y="298.245375"/>
      </g>
     </g>
     <g id="text_7">
      <!-- 0.0 -->
      <defs>
       <path d="M 10.6875 12.40625 
L 21 12.40625 
L 21 0 
L 10.6875 0 
z
" id="DejaVuSans-2e"/>
      </defs>
      <g transform="translate(34.307075 305.843812)scale(0.2 -0.2)">
       <use xlink:href="#DejaVuSans-30"/>
       <use x="63.623047" xlink:href="#DejaVuSans-2e"/>
       <use x="95.410156" xlink:href="#DejaVuSans-30"/>
      </g>
     </g>
    </g>
    <g id="ytick_2">
     <g id="line2d_31">
      <path clip-path="url(#p2721e2e748)" d="M 73.113325 245.549929 
L 430.233325 245.549929 
" style="fill:none;stroke:#b0b0b0;stroke-linecap:square;stroke-width:0.8;"/>
     </g>
     <g id="line2d_32">
      <g>
       <use style="stroke:#000000;stroke-width:0.8;" x="73.113325" xlink:href="#m5739cc88b1" y="245.549929"/>
      </g>
     </g>
     <g id="text_8">
      <!-- 0.2 -->
      <g transform="translate(34.307075 253.148367)scale(0.2 -0.2)">
       <use xlink:href="#DejaVuSans-30"/>
       <use x="63.623047" xlink:href="#DejaVuSans-2e"/>
       <use x="95.410156" xlink:href="#DejaVuSans-32"/>
      </g>
     </g>
    </g>
    <g id="ytick_3">
     <g id="line2d_33">
      <path clip-path="url(#p2721e2e748)" d="M 73.113325 192.854484 
L 430.233325 192.854484 
" style="fill:none;stroke:#b0b0b0;stroke-linecap:square;stroke-width:0.8;"/>
     </g>
     <g id="line2d_34">
      <g>
       <use style="stroke:#000000;stroke-width:0.8;" x="73.113325" xlink:href="#m5739cc88b1" y="192.854484"/>
      </g>
     </g>
     <g id="text_9">
      <!-- 0.4 -->
      <g transform="translate(34.307075 200.452921)scale(0.2 -0.2)">
       <use xlink:href="#DejaVuSans-30"/>
       <use x="63.623047" xlink:href="#DejaVuSans-2e"/>
       <use x="95.410156" xlink:href="#DejaVuSans-34"/>
      </g>
     </g>
    </g>
    <g id="ytick_4">
     <g id="line2d_35">
      <path clip-path="url(#p2721e2e748)" d="M 73.113325 140.159038 
L 430.233325 140.159038 
" style="fill:none;stroke:#b0b0b0;stroke-linecap:square;stroke-width:0.8;"/>
     </g>
     <g id="line2d_36">
      <g>
       <use style="stroke:#000000;stroke-width:0.8;" x="73.113325" xlink:href="#m5739cc88b1" y="140.159038"/>
      </g>
     </g>
     <g id="text_10">
      <!-- 0.6 -->
      <g transform="translate(34.307075 147.757476)scale(0.2 -0.2)">
       <use xlink:href="#DejaVuSans-30"/>
       <use x="63.623047" xlink:href="#DejaVuSans-2e"/>
       <use x="95.410156" xlink:href="#DejaVuSans-36"/>
      </g>
     </g>
    </g>
    <g id="ytick_5">
     <g id="line2d_37">
      <path clip-path="url(#p2721e2e748)" d="M 73.113325 87.463593 
L 430.233325 87.463593 
" style="fill:none;stroke:#b0b0b0;stroke-linecap:square;stroke-width:0.8;"/>
     </g>
     <g id="line2d_38">
      <g>
       <use style="stroke:#000000;stroke-width:0.8;" x="73.113325" xlink:href="#m5739cc88b1" y="87.463593"/>
      </g>
     </g>
     <g id="text_11">
      <!-- 0.8 -->
      <g transform="translate(34.307075 95.06203)scale(0.2 -0.2)">
       <use xlink:href="#DejaVuSans-30"/>
       <use x="63.623047" xlink:href="#DejaVuSans-2e"/>
       <use x="95.410156" xlink:href="#DejaVuSans-38"/>
      </g>
     </g>
    </g>
    <g id="ytick_6">
     <g id="line2d_39">
      <path clip-path="url(#p2721e2e748)" d="M 73.113325 34.768147 
L 430.233325 34.768147 
" style="fill:none;stroke:#b0b0b0;stroke-linecap:square;stroke-width:0.8;"/>
     </g>
     <g id="line2d_40">
      <g>
       <use style="stroke:#000000;stroke-width:0.8;" x="73.113325" xlink:href="#m5739cc88b1" y="34.768147"/>
      </g>
     </g>
     <g id="text_12">
      <!-- 1.0 -->
      <g transform="translate(34.307075 42.366585)scale(0.2 -0.2)">
       <use xlink:href="#DejaVuSans-31"/>
       <use x="63.623047" xlink:href="#DejaVuSans-2e"/>
       <use x="95.410156" xlink:href="#DejaVuSans-30"/>
      </g>
     </g>
    </g>
    <g id="text_13">
     <!-- Proportion of function+target pairs -->
     <defs>
      <path d="M 19.671875 64.796875 
L 19.671875 37.40625 
L 32.078125 37.40625 
Q 38.96875 37.40625 42.71875 40.96875 
Q 46.484375 44.53125 46.484375 51.125 
Q 46.484375 57.671875 42.71875 61.234375 
Q 38.96875 64.796875 32.078125 64.796875 
z
M 9.8125 72.90625 
L 32.078125 72.90625 
Q 44.34375 72.90625 50.609375 67.359375 
Q 56.890625 61.8125 56.890625 51.125 
Q 56.890625 40.328125 50.609375 34.8125 
Q 44.34375 29.296875 32.078125 29.296875 
L 19.671875 29.296875 
L 19.671875 0 
L 9.8125 0 
z
" id="DejaVuSans-50"/>
      <path d="M 41.109375 46.296875 
Q 39.59375 47.171875 37.8125 47.578125 
Q 36.03125 48 33.890625 48 
Q 26.265625 48 22.1875 43.046875 
Q 18.109375 38.09375 18.109375 28.8125 
L 18.109375 0 
L 9.078125 0 
L 9.078125 54.6875 
L 18.109375 54.6875 
L 18.109375 46.1875 
Q 20.953125 51.171875 25.484375 53.578125 
Q 30.03125 56 36.53125 56 
Q 37.453125 56 38.578125 55.875 
Q 39.703125 55.765625 41.0625 55.515625 
z
" id="DejaVuSans-72"/>
      <path d="M 18.109375 8.203125 
L 18.109375 -20.796875 
L 9.078125 -20.796875 
L 9.078125 54.6875 
L 18.109375 54.6875 
L 18.109375 46.390625 
Q 20.953125 51.265625 25.265625 53.625 
Q 29.59375 56 35.59375 56 
Q 45.5625 56 51.78125 48.09375 
Q 58.015625 40.1875 58.015625 27.296875 
Q 58.015625 14.40625 51.78125 6.484375 
Q 45.5625 -1.421875 35.59375 -1.421875 
Q 29.59375 -1.421875 25.265625 0.953125 
Q 20.953125 3.328125 18.109375 8.203125 
M 48.6875 27.296875 
Q 48.6875 37.203125 44.609375 42.84375 
Q 40.53125 48.484375 33.40625 48.484375 
Q 26.265625 48.484375 22.1875 42.84375 
Q 18.109375 37.203125 18.109375 27.296875 
Q 18.109375 17.390625 22.1875 11.75 
Q 26.265625 6.109375 33.40625 6.109375 
Q 40.53125 6.109375 44.609375 11.75 
Q 48.6875 17.390625 48.6875 27.296875 
" id="DejaVuSans-70"/>
      <path d="M 18.3125 70.21875 
L 18.3125 54.6875 
L 36.8125 54.6875 
L 36.8125 47.703125 
L 18.3125 47.703125 
L 18.3125 18.015625 
Q 18.3125 11.328125 20.140625 9.421875 
Q 21.96875 7.515625 27.59375 7.515625 
L 36.8125 7.515625 
L 36.8125 0 
L 27.59375 0 
Q 17.1875 0 13.234375 3.875 
Q 9.28125 7.765625 9.28125 18.015625 
L 9.28125 47.703125 
L 2.6875 47.703125 
L 2.6875 54.6875 
L 9.28125 54.6875 
L 9.28125 70.21875 
z
" id="DejaVuSans-74"/>
      <path d="M 8.5 21.578125 
L 8.5 54.6875 
L 17.484375 54.6875 
L 17.484375 21.921875 
Q 17.484375 14.15625 20.5 10.265625 
Q 23.53125 6.390625 29.59375 6.390625 
Q 36.859375 6.390625 41.078125 11.03125 
Q 45.3125 15.671875 45.3125 23.6875 
L 45.3125 54.6875 
L 54.296875 54.6875 
L 54.296875 0 
L 45.3125 0 
L 45.3125 8.40625 
Q 42.046875 3.421875 37.71875 1 
Q 33.40625 -1.421875 27.6875 -1.421875 
Q 18.265625 -1.421875 13.375 4.4375 
Q 8.5 10.296875 8.5 21.578125 
M 31.109375 56 
z
" id="DejaVuSans-75"/>
      <path d="M 48.78125 52.59375 
L 48.78125 44.1875 
Q 44.96875 46.296875 41.140625 47.34375 
Q 37.3125 48.390625 33.40625 48.390625 
Q 24.65625 48.390625 19.8125 42.84375 
Q 14.984375 37.3125 14.984375 27.296875 
Q 14.984375 17.28125 19.8125 11.734375 
Q 24.65625 6.203125 33.40625 6.203125 
Q 37.3125 6.203125 41.140625 7.25 
Q 44.96875 8.296875 48.78125 10.40625 
L 48.78125 2.09375 
Q 45.015625 0.34375 40.984375 -0.53125 
Q 36.96875 -1.421875 32.421875 -1.421875 
Q 20.0625 -1.421875 12.78125 6.34375 
Q 5.515625 14.109375 5.515625 27.296875 
Q 5.515625 40.671875 12.859375 48.328125 
Q 20.21875 56 33.015625 56 
Q 37.15625 56 41.109375 55.140625 
Q 45.0625 54.296875 48.78125 52.59375 
" id="DejaVuSans-63"/>
      <path d="M 46 62.703125 
L 46 35.5 
L 73.1875 35.5 
L 73.1875 27.203125 
L 46 27.203125 
L 46 0 
L 37.796875 0 
L 37.796875 27.203125 
L 10.59375 27.203125 
L 10.59375 35.5 
L 37.796875 35.5 
L 37.796875 62.703125 
z
" id="DejaVuSans-2b"/>
     </defs>
     <g transform="translate(26.563638 323.17875)rotate(-90)scale(0.18 -0.18)">
      <use xlink:href="#DejaVuSans-50"/>
      <use x="60.287109" xlink:href="#DejaVuSans-72"/>
      <use x="101.369141" xlink:href="#DejaVuSans-6f"/>
      <use x="162.550781" xlink:href="#DejaVuSans-70"/>
      <use x="226.027344" xlink:href="#DejaVuSans-6f"/>
      <use x="287.208984" xlink:href="#DejaVuSans-72"/>
      <use x="328.322266" xlink:href="#DejaVuSans-74"/>
      <use x="367.53125" xlink:href="#DejaVuSans-69"/>
      <use x="395.314453" xlink:href="#DejaVuSans-6f"/>
      <use x="456.496094" xlink:href="#DejaVuSans-6e"/>
      <use x="519.875" xlink:href="#DejaVuSans-20"/>
      <use x="551.662109" xlink:href="#DejaVuSans-6f"/>
      <use x="612.84375" xlink:href="#DejaVuSans-66"/>
      <use x="648.048828" xlink:href="#DejaVuSans-20"/>
      <use x="679.835938" xlink:href="#DejaVuSans-66"/>
      <use x="715.041016" xlink:href="#DejaVuSans-75"/>
      <use x="778.419922" xlink:href="#DejaVuSans-6e"/>
      <use x="841.798828" xlink:href="#DejaVuSans-63"/>
      <use x="896.779297" xlink:href="#DejaVuSans-74"/>
      <use x="935.988281" xlink:href="#DejaVuSans-69"/>
      <use x="963.771484" xlink:href="#DejaVuSans-6f"/>
      <use x="1024.953125" xlink:href="#DejaVuSans-6e"/>
      <use x="1088.332031" xlink:href="#DejaVuSans-2b"/>
      <use x="1172.121094" xlink:href="#DejaVuSans-74"/>
      <use x="1211.330078" xlink:href="#DejaVuSans-61"/>
      <use x="1272.609375" xlink:href="#DejaVuSans-72"/>
      <use x="1313.707031" xlink:href="#DejaVuSans-67"/>
      <use x="1377.183594" xlink:href="#DejaVuSans-65"/>
      <use x="1438.707031" xlink:href="#DejaVuSans-74"/>
      <use x="1477.916016" xlink:href="#DejaVuSans-20"/>
      <use x="1509.703125" xlink:href="#DejaVuSans-70"/>
      <use x="1573.179688" xlink:href="#DejaVuSans-61"/>
      <use x="1634.458984" xlink:href="#DejaVuSans-69"/>
      <use x="1662.242188" xlink:href="#DejaVuSans-72"/>
      <use x="1703.355469" xlink:href="#DejaVuSans-73"/>
     </g>
    </g>
   </g>
   <g id="line2d_41">
    <defs>
     <path d="M 0 1.5 
C 0.397805 1.5 0.77937 1.341951 1.06066 1.06066 
C 1.341951 0.77937 1.5 0.397805 1.5 0 
C 1.5 -0.397805 1.341951 -0.77937 1.06066 -1.06066 
C 0.77937 -1.341951 0.397805 -1.5 0 -1.5 
C -0.397805 -1.5 -0.77937 -1.341951 -1.06066 -1.06066 
C -1.341951 -0.77937 -1.5 -0.397805 -1.5 0 
C -1.5 0.397805 -1.341951 0.77937 -1.06066 1.06066 
C -0.77937 1.341951 -0.397805 1.5 0 1.5 
z
" id="mf67e0780be" style="stroke:#00bfbf;"/>
    </defs>
    <g>
     <use style="fill:#00bfbf;stroke:#00bfbf;" x="244.929651" xlink:href="#mf67e0780be" y="34.768147"/>
     <use style="fill:#00bfbf;stroke:#00bfbf;" x="244.929651" xlink:href="#mf67e0780be" y="34.768147"/>
    </g>
   </g>
   <g id="line2d_42">
    <path d="M 60.728091 298.245375 
L 60.728091 240.383709 
L 155.39904 240.383709 
L 155.39904 235.734111 
L 162.643937 235.734111 
L 162.643937 233.667623 
L 167.784274 233.667623 
L 167.784274 232.634379 
L 171.771429 232.634379 
L 171.771429 232.117757 
L 175.029171 232.117757 
L 175.029171 231.084513 
L 177.783553 231.084513 
L 177.783553 230.567891 
L 180.169508 230.567891 
L 180.169508 230.051269 
L 182.274069 230.051269 
L 182.274069 229.018025 
L 184.156663 229.018025 
L 184.156663 228.501403 
L 187.414405 228.501403 
L 187.414405 227.984781 
L 195.625382 227.984781 
L 195.625382 226.434915 
L 196.541897 226.434915 
L 196.541897 225.918293 
L 199.039179 225.918293 
L 199.039179 225.401671 
L 199.799639 225.401671 
L 199.799639 222.301939 
L 203.786794 222.301939 
L 203.786794 221.268695 
L 206.023224 221.268695 
L 206.023224 219.718829 
L 206.541177 219.718829 
L 206.541177 219.202207 
L 207.044537 219.202207 
L 207.044537 218.685585 
L 208.010616 218.685585 
L 208.010616 215.069231 
L 211.424413 215.069231 
L 211.424413 212.48612 
L 211.808689 212.48612 
L 211.808689 211.969498 
L 212.184874 211.969498 
L 212.184874 211.452876 
L 212.553301 211.452876 
L 212.553301 210.419632 
L 213.615086 210.419632 
L 213.615086 209.386388 
L 213.955441 209.386388 
L 213.955441 208.353144 
L 214.617299 208.353144 
L 214.617299 205.770034 
L 215.566272 205.770034 
L 215.566272 205.253412 
L 215.871717 205.253412 
L 215.871717 204.220168 
L 216.467376 204.220168 
L 216.467376 203.703546 
L 217.602241 203.703546 
L 217.602241 203.186924 
L 219.179863 203.186924 
L 219.179863 201.120436 
L 219.429771 201.120436 
L 219.429771 199.57057 
L 219.919339 199.57057 
L 219.919339 198.537326 
L 220.159183 198.537326 
L 220.159183 196.98746 
L 221.087606 196.98746 
L 221.087606 195.954216 
L 221.534332 195.954216 
L 221.534332 195.437594 
L 221.753575 195.437594 
L 221.753575 194.40435 
L 221.970161 194.40435 
L 221.970161 193.887728 
L 222.395613 193.887728 
L 222.395613 193.371106 
L 222.604599 193.371106 
L 222.604599 191.304618 
L 223.015378 191.304618 
L 223.015378 190.787996 
L 223.21728 190.787996 
L 223.21728 190.271374 
L 223.416926 190.271374 
L 223.416926 189.754752 
L 223.614366 189.754752 
L 223.614366 188.721508 
L 223.809648 188.721508 
L 223.809648 186.138398 
L 224.002818 186.138398 
L 224.002818 185.105154 
L 224.193923 185.105154 
L 224.193923 183.555288 
L 224.383005 183.555288 
L 224.383005 183.038666 
L 224.570108 183.038666 
L 224.570108 181.4888 
L 224.755271 181.4888 
L 224.755271 174.256091 
L 224.938536 174.256091 
L 224.938536 173.739469 
L 225.119939 173.739469 
L 225.119939 170.123115 
L 225.29952 170.123115 
L 225.29952 165.473517 
L 225.477313 165.473517 
L 225.477313 161.857163 
L 225.653355 161.857163 
L 225.653355 160.307297 
L 225.82768 160.307297 
L 225.82768 154.107833 
L 226.340675 154.107833 
L 226.340675 153.074589 
L 226.508452 153.074589 
L 226.508452 151.008101 
L 228.256951 151.008101 
L 228.256951 149.974857 
L 228.705546 149.974857 
L 228.705546 148.941613 
L 228.85261 148.941613 
L 228.85261 148.424991 
L 229.286675 148.424991 
L 229.286675 147.908369 
L 229.570301 147.908369 
L 229.570301 146.875125 
L 229.849496 146.875125 
L 229.849496 145.841881 
L 229.987475 145.841881 
L 229.987475 143.25877 
L 230.260276 143.25877 
L 230.260276 142.742148 
L 230.39513 142.742148 
L 230.39513 141.708904 
L 230.528974 141.708904 
L 230.528974 140.159038 
L 230.661823 140.159038 
L 230.661823 138.609172 
L 230.793692 138.609172 
L 230.793692 135.50944 
L 231.054545 135.50944 
L 231.054545 134.476196 
L 231.183557 134.476196 
L 231.183557 133.442952 
L 231.311645 133.442952 
L 231.311645 130.34322 
L 231.43882 130.34322 
L 231.43882 129.309976 
L 231.690488 129.309976 
L 231.690488 123.627134 
L 231.815005 123.627134 
L 231.815005 120.527402 
L 231.93866 120.527402 
L 231.93866 119.494158 
L 232.061466 119.494158 
L 232.061466 118.977536 
L 232.183433 118.977536 
L 232.183433 116.911048 
L 232.304573 116.911048 
L 232.304573 116.394426 
L 232.424898 116.394426 
L 232.424898 114.84456 
L 232.544417 114.84456 
L 232.544417 113.294694 
L 232.663143 113.294694 
L 232.663143 112.778072 
L 232.781085 112.778072 
L 232.781085 111.228206 
L 232.898253 111.228206 
L 232.898253 110.194961 
L 233.359391 110.194961 
L 233.359391 109.678339 
L 235.093417 109.678339 
L 235.093417 109.161717 
L 235.501848 109.161717 
L 235.501848 108.128473 
L 235.702616 108.128473 
L 235.702616 107.611851 
L 235.9996 107.611851 
L 235.9996 105.028741 
L 236.194882 105.028741 
L 236.194882 104.512119 
L 236.579157 104.512119 
L 236.673948 103.478875 
L 236.862036 103.478875 
L 236.955342 100.379143 
L 237.414702 100.379143 
L 237.414702 99.862521 
L 237.684754 99.862521 
L 237.684754 98.312655 
L 237.862548 98.312655 
L 237.862548 96.762789 
L 238.03859 96.762789 
L 238.125964 93.663057 
L 238.299443 93.663057 
L 238.385554 87.463593 
L 238.556542 87.463593 
L 238.556542 86.430349 
L 239.142435 86.430349 
L 239.142435 85.397105 
L 239.468802 85.397105 
L 239.468802 84.880483 
L 239.709724 84.880483 
L 239.709724 84.363861 
L 240.182037 84.363861 
L 240.259556 80.747507 
L 240.33674 80.747507 
L 240.33674 79.197641 
L 240.490115 79.197641 
L 240.566312 76.097908 
L 240.642185 76.097908 
L 240.717737 72.998176 
L 240.867891 72.998176 
L 240.942497 70.415066 
L 241.016792 70.415066 
L 241.090781 66.798712 
L 241.164464 66.798712 
L 241.237844 65.248846 
L 241.310924 65.248846 
L 241.383707 63.69898 
L 241.456194 63.69898 
L 241.528389 59.049382 
L 241.600293 59.049382 
L 241.671909 55.94965 
L 241.743239 55.94965 
L 241.814285 50.78343 
L 241.88505 50.78343 
L 241.88505 48.20032 
L 242.025744 48.20032 
L 242.095678 46.650454 
L 242.64551 46.650454 
L 242.64551 46.133832 
L 242.780364 46.133832 
L 242.847412 45.100588 
L 243.113114 45.100588 
L 243.178926 43.0341 
L 243.244497 43.0341 
L 243.244497 41.484233 
L 243.568791 41.484233 
L 243.568791 39.417745 
L 244.013137 39.417745 
L 244.013137 38.901123 
L 244.385403 38.901123 
L 244.385403 37.867879 
L 244.62934 37.867879 
L 244.62934 36.834635 
L 244.810132 36.834635 
L 244.810132 36.318013 
L 244.929651 36.318013 
L 244.929651 34.768147 
L 361.113325 34.768147 
L 361.113325 34.768147 
" style="fill:none;stroke:#00bfbf;stroke-linecap:square;stroke-width:1.5;"/>
   </g>
   <g id="line2d_43">
    <defs>
     <path d="M -6 0 
L 6 0 
M 0 6 
L 0 -6 
" id="m0aeb2cfbbc" style="stroke:#00bfbf;stroke-width:1.5;"/>
    </defs>
    <g>
     <use style="fill:none;stroke:#00bfbf;stroke-width:1.5;" x="361.113325" xlink:href="#m0aeb2cfbbc" y="34.768147"/>
    </g>
   </g>
   <g id="line2d_44"/>
   <g id="line2d_45">
    <defs>
     <path d="M 0 1.5 
C 0.397805 1.5 0.77937 1.341951 1.06066 1.06066 
C 1.341951 0.77937 1.5 0.397805 1.5 0 
C 1.5 -0.397805 1.341951 -0.77937 1.06066 -1.06066 
C 0.77937 -1.341951 0.397805 -1.5 0 -1.5 
C -0.397805 -1.5 -0.77937 -1.341951 -1.06066 -1.06066 
C -1.341951 -0.77937 -1.5 -0.397805 -1.5 0 
C -1.5 0.397805 -1.341951 0.77937 -1.06066 1.06066 
C -0.77937 1.341951 -0.397805 1.5 0 1.5 
z
" id="m86b8add6ed" style="stroke:#008000;"/>
    </defs>
    <g>
     <use style="fill:#008000;stroke:#008000;" x="299.512004" xlink:href="#m86b8add6ed" y="34.768147"/>
     <use style="fill:#008000;stroke:#008000;" x="299.512004" xlink:href="#m86b8add6ed" y="34.768147"/>
    </g>
   </g>
   <g id="line2d_46">
    <path d="M 53.483194 298.245375 
L 53.483194 246.583173 
L 148.154142 246.583173 
L 148.154142 242.966819 
L 155.39904 242.966819 
L 155.39904 241.416953 
L 175.029171 241.416953 
L 175.029171 240.383709 
L 176.911765 240.383709 
L 176.911765 239.867087 
L 181.59972 239.867087 
L 181.59972 239.350465 
L 182.92389 239.350465 
L 182.92389 238.833843 
L 184.156663 238.833843 
L 184.156663 236.767355 
L 185.309844 236.767355 
L 185.309844 236.250733 
L 188.380485 236.250733 
L 188.380485 235.217489 
L 189.296999 235.217489 
L 189.296999 234.184245 
L 191.000013 234.184245 
L 191.000013 233.151001 
L 193.984954 233.151001 
L 193.984954 232.117757 
L 194.659303 232.117757 
L 194.659303 231.601135 
L 195.309124 231.601135 
L 195.309124 229.534647 
L 199.296279 229.534647 
L 199.296279 229.018025 
L 201.229852 229.018025 
L 201.229852 228.501403 
L 203.786794 228.501403 
L 203.786794 227.984781 
L 204.939976 227.984781 
L 204.939976 226.434915 
L 205.308404 226.434915 
L 205.308404 225.401671 
L 206.370188 225.401671 
L 206.370188 224.885049 
L 208.321374 224.885049 
L 208.321374 224.368427 
L 209.222478 224.368427 
L 209.222478 223.851805 
L 209.798919 223.851805 
L 209.798919 222.818561 
L 211.424413 222.818561 
L 211.424413 222.301939 
L 212.674442 222.301939 
L 212.674442 219.718829 
L 212.914286 219.718829 
L 212.914286 218.685585 
L 213.615086 218.685585 
L 213.615086 217.652341 
L 213.842708 217.652341 
L 213.842708 217.135719 
L 214.067467 217.135719 
L 214.067467 216.619097 
L 214.508678 216.619097 
L 214.508678 216.102475 
L 214.725264 216.102475 
L 214.725264 215.585853 
L 214.939256 215.585853 
L 214.939256 215.069231 
L 215.150715 215.069231 
L 215.150715 213.002743 
L 215.566272 213.002743 
L 215.566272 212.48612 
L 215.972383 212.48612 
L 215.972383 209.386388 
L 216.172028 209.386388 
L 216.172028 208.869766 
L 216.369468 208.869766 
L 216.369468 208.353144 
L 216.56475 208.353144 
L 216.56475 203.703546 
L 216.757921 203.703546 
L 216.757921 202.670302 
L 217.32521 202.670302 
L 217.32521 200.603814 
L 217.510374 200.603814 
L 217.510374 199.57057 
L 217.875042 199.57057 
L 217.875042 195.437594 
L 218.054622 195.437594 
L 218.054622 190.787996 
L 218.232416 190.787996 
L 218.232416 189.754752 
L 218.408458 189.754752 
L 218.408458 188.204886 
L 218.582782 188.204886 
L 218.582782 185.621776 
L 218.755423 185.621776 
L 218.755423 184.07191 
L 219.263555 184.07191 
L 219.263555 183.555288 
L 220.079592 183.555288 
L 220.079592 182.522044 
L 220.706608 182.522044 
L 220.706608 181.4888 
L 222.184153 181.4888 
L 222.184153 180.455556 
L 222.325404 180.455556 
L 222.325404 178.90569 
L 222.742577 178.90569 
L 222.742577 177.355823 
L 222.879498 177.355823 
L 222.879498 175.805957 
L 223.150233 175.805957 
L 223.150233 175.289335 
L 223.416926 175.289335 
L 223.416926 171.672981 
L 223.548795 171.672981 
L 223.548795 170.123115 
L 223.679697 170.123115 
L 223.679697 169.089871 
L 223.809648 169.089871 
L 223.809648 168.056627 
L 223.93866 168.056627 
L 223.93866 165.473517 
L 224.193923 165.473517 
L 224.193923 164.440273 
L 224.3202 164.440273 
L 224.3202 163.923651 
L 224.445591 163.923651 
L 224.445591 162.373785 
L 224.570108 162.373785 
L 224.570108 161.340541 
L 224.816568 161.340541 
L 224.816568 159.790675 
L 225.059676 159.790675 
L 225.059676 159.274053 
L 225.18 159.274053 
L 225.18 158.240809 
L 225.769761 158.240809 
L 225.769761 157.724187 
L 226.227942 157.724187 
L 226.227942 157.207565 
L 226.56403 157.207565 
L 226.56403 156.174321 
L 226.784627 156.174321 
L 226.784627 155.141077 
L 227.640748 155.141077 
L 227.640748 154.624455 
L 227.848519 154.624455 
L 227.951506 153.591211 
L 228.053902 153.591211 
L 228.053902 153.074589 
L 228.754702 153.074589 
L 228.754702 151.524723 
L 229.33426 151.524723 
L 229.33426 151.008101 
L 229.895608 151.008101 
L 229.987475 148.941613 
L 230.439856 148.941613 
L 230.528974 146.358503 
L 230.61765 146.358503 
L 230.705888 142.742148 
L 232.623655 142.742148 
L 232.623655 142.225526 
L 232.859282 142.225526 
L 232.937139 139.642416 
L 233.091842 139.642416 
L 233.091842 138.609172 
L 233.397288 138.609172 
L 233.47284 135.50944 
L 233.622993 135.50944 
L 233.697599 130.859842 
L 233.771895 130.859842 
L 233.771895 129.826598 
L 234.13881 129.826598 
L 234.13881 128.276732 
L 234.283491 128.276732 
L 234.355395 127.243488 
L 234.427011 127.243488 
L 234.498341 123.627134 
L 234.569387 123.627134 
L 234.569387 118.977536 
L 234.710638 118.977536 
L 234.710638 117.42767 
L 235.535467 117.42767 
L 235.535467 116.911048 
L 235.80216 116.911048 
L 235.80216 115.877804 
L 236.064931 115.877804 
L 236.130025 114.84456 
L 236.194882 114.84456 
L 236.194882 113.811316 
L 236.323894 113.811316 
L 236.323894 112.778072 
L 236.515682 112.778072 
L 236.579157 111.228206 
L 236.642407 111.228206 
L 236.642407 110.711584 
L 236.893192 110.711584 
L 236.893192 109.678339 
L 237.078997 109.678339 
L 237.140505 108.128473 
L 237.201802 108.128473 
L 237.26289 105.028741 
L 237.32377 105.028741 
L 237.384442 101.929009 
L 237.44491 101.929009 
L 237.505173 100.379143 
L 237.565234 100.379143 
L 237.565234 99.345899 
L 237.684754 99.345899 
L 237.744215 97.796033 
L 237.862548 97.796033 
L 237.862548 97.279411 
L 238.328193 97.279411 
L 238.328193 96.762789 
L 238.442732 96.762789 
L 238.442732 94.696301 
L 238.837936 94.696301 
L 238.837936 94.179679 
L 238.949264 94.179679 
L 239.059903 93.146435 
L 239.97366 93.146435 
L 240.078152 90.046703 
L 240.540949 90.046703 
L 240.591639 88.496837 
L 241.383707 88.496837 
L 241.383707 87.463593 
L 241.528389 87.463593 
L 241.528389 86.946971 
L 241.766952 86.946971 
L 241.766952 86.430349 
L 241.955536 86.430349 
L 241.955536 85.913727 
L 242.1885 85.913727 
L 242.234731 83.847239 
L 242.372709 83.847239 
L 242.418466 82.813995 
L 242.555038 82.813995 
L 242.555038 82.297373 
L 242.780364 82.297373 
L 242.869705 80.747507 
L 243.908338 80.747507 
L 243.908338 79.714263 
L 244.075722 79.714263 
L 244.075722 79.197641 
L 244.200239 79.197641 
L 244.200239 78.681019 
L 244.323895 78.681019 
L 244.323895 78.164397 
L 244.487448 78.164397 
L 244.487448 77.647775 
L 244.770114 77.647775 
L 244.770114 76.614531 
L 246.267997 76.614531 
L 246.267997 76.097908 
L 246.451261 76.097908 
L 246.451261 74.548042 
L 247.236015 74.548042 
L 247.305676 73.514798 
L 248.220453 73.514798 
L 248.220453 72.998176 
L 248.417529 72.998176 
L 248.417529 70.931688 
L 249.67859 70.931688 
L 249.67859 70.415066 
L 249.890407 70.415066 
L 249.980423 68.8652 
L 250.511198 68.8652 
L 250.511198 68.348578 
L 250.998411 68.348578 
L 250.998411 66.798712 
L 256.272539 66.798712 
L 256.272539 65.765468 
L 279.07603 65.765468 
L 279.07603 65.248846 
L 279.396203 65.248846 
L 279.453805 63.69898 
L 279.528411 63.69898 
L 279.625505 62.149114 
L 279.653962 62.149114 
L 279.659648 61.11587 
L 279.913661 61.11587 
L 279.913661 60.599248 
L 280.20276 60.599248 
L 280.279801 57.499516 
L 280.367444 57.499516 
L 280.411105 54.399784 
L 280.492682 54.399784 
L 280.530624 49.233564 
L 280.606268 49.233564 
L 280.606268 48.716942 
L 280.809987 48.716942 
L 280.916282 46.133832 
L 280.963909 46.133832 
L 281.021948 45.100588 
L 281.643151 45.100588 
L 281.643151 44.583966 
L 281.82034 44.583966 
L 281.82034 44.067344 
L 282.055549 44.067344 
L 282.055549 43.550722 
L 283.261786 43.550722 
L 283.280365 42.517478 
L 291.784322 42.517478 
L 291.784322 42.000855 
L 292.013587 42.000855 
L 292.07896 39.934367 
L 292.231511 39.934367 
L 292.332493 38.901123 
L 292.615547 38.901123 
L 292.615547 38.384501 
L 292.771793 38.384501 
L 292.771793 37.867879 
L 298.99939 37.867879 
L 299.070513 36.318013 
L 299.122235 36.318013 
L 299.122235 35.801391 
L 299.489531 35.801391 
L 299.512004 34.768147 
L 361.113325 34.768147 
L 361.113325 34.768147 
" style="fill:none;stroke:#008000;stroke-linecap:square;stroke-width:1.5;"/>
   </g>
   <g id="line2d_47">
    <defs>
     <path d="M -0 6 
L 6 -6 
L -6 -6 
z
" id="m269e889440" style="stroke:#008000;stroke-linejoin:miter;stroke-width:1.5;"/>
    </defs>
    <g>
     <use style="fill:none;stroke:#008000;stroke-linejoin:miter;stroke-width:1.5;" x="361.113325" xlink:href="#m269e889440" y="34.768147"/>
    </g>
   </g>
   <g id="line2d_48"/>
   <g id="line2d_49">
    <path clip-path="url(#p2721e2e748)" d="M 278.827611 65.765468 
" style="fill:none;stroke:#008000;stroke-linecap:square;stroke-width:1.5;"/>
    <defs>
     <path d="M -12 12 
L 12 -12 
M -12 -12 
L 12 12 
" id="m5053a527b5" style="stroke:#008000;stroke-width:3;"/>
    </defs>
    <g clip-path="url(#p2721e2e748)">
     <use style="fill:#008000;stroke:#008000;stroke-width:3;" x="278.827611" xlink:href="#m5053a527b5" y="65.765468"/>
    </g>
   </g>
   <g id="line2d_50">
    <defs>
     <path d="M 0 1.5 
C 0.397805 1.5 0.77937 1.341951 1.06066 1.06066 
C 1.341951 0.77937 1.5 0.397805 1.5 0 
C 1.5 -0.397805 1.341951 -0.77937 1.06066 -1.06066 
C 0.77937 -1.341951 0.397805 -1.5 0 -1.5 
C -0.397805 -1.5 -0.77937 -1.341951 -1.06066 -1.06066 
C -1.341951 -0.77937 -1.5 -0.397805 -1.5 0 
C -1.5 0.397805 -1.341951 0.77937 -1.06066 1.06066 
C -0.77937 1.341951 -0.397805 1.5 0 1.5 
z
" id="m92f7ed323e" style="stroke:#0000ff;"/>
    </defs>
    <g>
     <use style="fill:#0000ff;stroke:#0000ff;" x="335.805386" xlink:href="#m92f7ed323e" y="96.762789"/>
     <use style="fill:#0000ff;stroke:#0000ff;" x="335.805386" xlink:href="#m92f7ed323e" y="96.762789"/>
    </g>
   </g>
   <g id="line2d_51">
    <path d="M 44.355702 298.245375 
L 44.355702 256.915614 
L 139.026651 256.915614 
L 139.026651 251.232772 
L 146.271548 251.232772 
L 146.271548 248.649662 
L 151.411885 248.649662 
L 151.411885 247.099796 
L 155.39904 247.099796 
L 155.39904 246.583173 
L 158.656782 246.583173 
L 158.656782 246.066551 
L 161.411165 246.066551 
L 161.411165 245.549929 
L 167.784274 245.549929 
L 167.784274 244.000063 
L 169.487287 244.000063 
L 169.487287 242.966819 
L 173.796399 242.966819 
L 173.796399 241.933575 
L 177.265601 241.933575 
L 177.265601 241.416953 
L 181.872521 241.416953 
L 181.872521 240.900331 
L 182.66679 240.900331 
L 182.66679 240.383709 
L 186.181633 240.383709 
L 186.181633 239.867087 
L 187.414405 239.867087 
L 187.414405 239.350465 
L 188.000298 239.350465 
L 188.000298 238.833843 
L 188.567587 238.833843 
L 188.567587 238.317221 
L 189.117419 238.317221 
L 189.117419 237.283977 
L 191.161716 237.283977 
L 191.161716 236.250733 
L 194.659303 236.250733 
L 194.659303 235.734111 
L 199.193883 235.734111 
L 199.193883 234.700867 
L 203.303843 234.700867 
L 203.303843 233.667623 
L 207.241977 233.667623 
L 207.241977 233.151001 
L 208.927131 233.151001 
L 208.927131 231.601135 
L 209.104925 231.601135 
L 209.104925 231.084513 
L 209.280967 231.084513 
L 209.280967 230.567891 
L 209.798919 230.567891 
L 209.798919 229.534647 
L 213.056662 229.534647 
L 213.056662 228.501403 
L 213.197913 228.501403 
L 213.197913 226.434915 
L 213.338055 226.434915 
L 213.338055 225.918293 
L 213.615086 225.918293 
L 213.615086 225.401671 
L 213.887887 225.401671 
L 213.887887 224.885049 
L 214.022741 224.885049 
L 214.022741 224.368427 
L 214.156585 224.368427 
L 214.156585 223.851805 
L 214.552206 223.851805 
L 214.552206 223.335183 
L 214.939256 223.335183 
L 214.939256 221.785317 
L 215.066432 221.785317 
L 215.066432 221.268695 
L 215.192708 221.268695 
L 215.192708 220.752073 
L 215.689077 220.752073 
L 215.689077 220.235451 
L 215.811044 220.235451 
L 215.811044 219.202207 
L 215.932184 219.202207 
L 215.932184 216.619097 
L 216.052509 216.619097 
L 216.052509 216.102475 
L 220.206768 216.102475 
L 220.206768 215.585853 
L 224.718392 215.585853 
L 224.792075 213.519365 
L 225.441896 213.519365 
L 225.441896 213.002743 
L 225.583147 213.002743 
L 225.583147 210.419632 
L 225.931464 210.419632 
L 225.931464 209.90301 
L 226.674669 209.90301 
L 226.674669 208.869766 
L 227.388191 208.869766 
L 227.388191 208.353144 
L 227.514916 208.353144 
L 227.577943 206.803278 
L 227.82785 206.803278 
L 227.889785 205.253412 
L 228.013014 205.253412 
L 228.074311 204.220168 
L 228.196278 204.220168 
L 228.256951 202.670302 
L 228.317418 202.670302 
L 228.377682 200.603814 
L 228.497603 200.603814 
L 228.557263 198.537326 
L 230.582233 198.537326 
L 230.582233 198.020704 
L 230.898491 198.020704 
L 230.898491 197.504082 
L 231.209248 197.504082 
L 231.209248 196.98746 
L 232.921595 196.98746 
L 232.968187 195.954216 
L 233.199343 195.954216 
L 233.199343 195.437594 
L 233.697599 195.437594 
L 233.697599 194.920972 
L 234.182337 194.920972 
L 234.182337 194.40435 
L 235.196403 194.40435 
L 235.196403 193.887728 
L 235.359957 193.887728 
L 235.359957 193.371106 
L 235.642622 193.371106 
L 235.642622 192.854484 
L 235.80216 192.854484 
L 235.80216 192.337862 
L 236.50296 192.337862 
L 236.50296 191.304618 
L 237.505173 191.304618 
L 237.541234 189.23813 
L 238.316698 189.23813 
L 238.316698 188.721508 
L 239.059903 188.721508 
L 239.059903 187.688264 
L 239.290038 187.688264 
L 239.290038 186.65502 
L 240.428923 186.65502 
L 240.428923 186.138398 
L 240.882837 186.138398 
L 240.882837 185.621776 
L 241.001958 185.621776 
L 241.001958 185.105154 
L 242.454987 185.105154 
L 242.454987 184.588532 
L 243.257583 184.588532 
L 243.257583 184.07191 
L 243.413865 184.07191 
L 243.413865 183.555288 
L 244.617222 183.555288 
L 244.713937 182.522044 
L 244.929651 182.522044 
L 244.929651 181.4888 
L 246.826534 181.4888 
L 246.826534 179.938934 
L 247.081797 179.938934 
L 247.081797 179.422312 
L 248.007814 179.422312 
L 248.007814 178.90569 
L 249.26597 178.90569 
L 249.26597 178.389067 
L 249.926468 178.389067 
L 249.926468 177.872445 
L 250.63281 177.872445 
L 250.63281 176.839201 
L 250.941776 176.839201 
L 250.941776 176.322579 
L 254.70288 176.322579 
L 254.70288 175.805957 
L 279.300172 175.805957 
L 279.341888 174.772713 
L 279.5181 174.772713 
L 279.5181 174.256091 
L 279.658511 174.256091 
L 279.706205 173.222847 
L 279.814744 173.222847 
L 279.882247 170.639737 
L 280.166325 170.639737 
L 280.19283 168.573249 
L 280.29517 168.573249 
L 280.354325 165.990139 
L 280.426361 165.990139 
L 280.537121 164.440273 
L 280.660104 164.440273 
L 280.701984 162.890407 
L 280.858961 162.890407 
L 280.858961 162.373785 
L 281.020895 162.373785 
L 281.020895 161.857163 
L 281.146882 161.857163 
L 281.159432 159.790675 
L 281.296904 159.790675 
L 281.324894 157.724187 
L 281.482677 157.724187 
L 281.534964 156.690943 
L 281.596282 156.690943 
L 281.65434 154.624455 
L 281.757765 154.624455 
L 281.757765 154.107833 
L 281.953838 154.107833 
L 282.061514 152.557967 
L 282.491666 152.557967 
L 282.491666 152.041345 
L 291.741005 152.041345 
L 291.817173 150.491479 
L 291.899895 150.491479 
L 291.992503 148.941613 
L 292.028388 148.941613 
L 292.084633 146.358503 
L 292.250629 146.358503 
L 292.343119 144.808637 
L 292.379981 144.808637 
L 292.490114 143.25877 
L 292.503417 143.25877 
L 292.503417 142.742148 
L 292.844243 142.742148 
L 292.844243 142.225526 
L 298.811578 142.225526 
L 298.868712 140.67566 
L 299.006708 140.67566 
L 299.097734 137.575928 
L 299.268164 137.575928 
L 299.328396 136.026062 
L 299.387296 136.026062 
L 299.424574 134.992818 
L 299.561719 134.992818 
L 299.601988 133.959574 
L 299.938464 133.959574 
L 299.938464 133.442952 
L 304.011376 133.442952 
L 304.035803 130.859842 
L 304.127974 130.859842 
L 304.211041 127.243488 
L 304.299739 127.243488 
L 304.376882 125.177 
L 307.941172 125.177 
L 307.941172 124.660378 
L 308.064755 124.660378 
L 308.148748 123.627134 
L 308.216488 123.627134 
L 308.216488 123.110512 
L 308.488307 123.110512 
L 308.488307 122.59389 
L 311.135981 122.59389 
L 311.135981 122.077268 
L 311.253946 122.077268 
L 311.346255 120.01078 
L 311.40349 120.01078 
L 311.40349 119.494158 
L 313.872442 119.494158 
L 313.969704 116.394426 
L 314.020132 116.394426 
L 314.078867 114.327938 
L 316.191157 114.327938 
L 316.291545 111.744828 
L 316.405338 111.744828 
L 316.405338 111.228206 
L 318.281387 111.228206 
L 318.378144 109.161717 
L 318.415999 109.161717 
L 318.438206 108.128473 
L 320.260425 108.128473 
L 320.26605 106.578607 
L 321.833897 106.578607 
L 321.942393 105.028741 
L 323.491602 105.028741 
L 323.538198 103.995497 
L 324.919308 103.995497 
L 325.011181 102.962253 
L 326.21061 102.962253 
L 326.310383 101.929009 
L 327.413905 101.929009 
L 327.521489 100.379143 
L 328.553858 100.379143 
L 328.553858 99.862521 
L 331.532235 99.862521 
L 331.532235 99.345899 
L 331.681299 99.345899 
L 331.681299 98.829277 
L 333.341989 98.829277 
L 333.341989 98.312655 
L 334.960954 98.312655 
L 334.960954 97.796033 
L 335.710414 97.796033 
L 335.805386 96.762789 
L 361.113325 96.762789 
L 361.113325 96.762789 
" style="fill:none;stroke:#0000ff;stroke-linecap:square;stroke-width:1.5;"/>
   </g>
   <g id="line2d_52">
    <defs>
     <path d="M 0 -6 
L -1.347084 -1.854102 
L -5.706339 -1.854102 
L -2.179628 0.708204 
L -3.526712 4.854102 
L -0 2.291796 
L 3.526712 4.854102 
L 2.179628 0.708204 
L 5.706339 -1.854102 
L 1.347084 -1.854102 
z
" id="mbd58462698" style="stroke:#0000ff;stroke-linejoin:bevel;stroke-width:1.5;"/>
    </defs>
    <g>
     <use style="fill:none;stroke:#0000ff;stroke-linejoin:bevel;stroke-width:1.5;" x="361.113325" xlink:href="#mbd58462698" y="96.762789"/>
    </g>
   </g>
   <g id="line2d_53"/>
   <g id="line2d_54">
    <path clip-path="url(#p2721e2e748)" d="M 278.827611 175.805957 
" style="fill:none;stroke:#0000ff;stroke-linecap:square;stroke-width:1.5;"/>
    <defs>
     <path d="M -12 12 
L 12 -12 
M -12 -12 
L 12 12 
" id="mf894bc5f49" style="stroke:#0000ff;stroke-width:3;"/>
    </defs>
    <g clip-path="url(#p2721e2e748)">
     <use style="fill:#0000ff;stroke:#0000ff;stroke-width:3;" x="278.827611" xlink:href="#mf894bc5f49" y="175.805957"/>
    </g>
   </g>
   <g id="line2d_55">
    <defs>
     <path d="M 0 1.5 
C 0.397805 1.5 0.77937 1.341951 1.06066 1.06066 
C 1.341951 0.77937 1.5 0.397805 1.5 0 
C 1.5 -0.397805 1.341951 -0.77937 1.06066 -1.06066 
C 0.77937 -1.341951 0.397805 -1.5 0 -1.5 
C -0.397805 -1.5 -0.77937 -1.341951 -1.06066 -1.06066 
C -1.341951 -0.77937 -1.5 -0.397805 -1.5 0 
C -1.5 0.397805 -1.341951 0.77937 -1.06066 1.06066 
C -0.77937 1.341951 -0.397805 1.5 0 1.5 
z
" id="m135f72881e" style="stroke:#000000;"/>
    </defs>
    <g>
     <use style="stroke:#000000;" x="344.872408" xlink:href="#m135f72881e" y="158.757431"/>
     <use style="stroke:#000000;" x="344.872408" xlink:href="#m135f72881e" y="158.757431"/>
    </g>
   </g>
   <g id="line2d_56">
    <path d="M 31.970468 298.245375 
L 31.970468 265.181566 
L 139.026651 265.181566 
L 139.026651 260.531968 
L 146.271548 260.531968 
L 146.271548 257.948858 
L 151.411885 257.948858 
L 151.411885 255.365748 
L 155.39904 255.365748 
L 155.39904 254.332504 
L 158.656782 254.332504 
L 158.656782 253.815882 
L 161.411165 253.815882 
L 161.411165 251.232772 
L 167.784274 251.232772 
L 167.784274 250.199528 
L 171.042016 250.199528 
L 171.042016 248.649662 
L 172.472229 248.649662 
L 172.472229 248.13304 
L 175.029171 248.13304 
L 175.029171 247.616418 
L 176.182353 247.616418 
L 176.182353 246.583173 
L 183.427251 246.583173 
L 183.427251 246.066551 
L 188.000298 246.066551 
L 188.000298 245.033307 
L 206.642989 245.033307 
L 206.642989 244.516685 
L 208.74755 244.516685 
L 208.74755 244.000063 
L 208.927131 244.000063 
L 208.927131 243.483441 
L 211.11093 243.483441 
L 211.11093 242.966819 
L 214.682156 242.966819 
L 214.682156 242.450197 
L 215.566272 242.450197 
L 215.566272 241.933575 
L 215.932184 241.933575 
L 215.932184 241.416953 
L 217.766421 241.416953 
L 217.766421 240.900331 
L 219.12946 240.900331 
L 219.12946 240.383709 
L 224.269796 240.383709 
L 224.269796 239.350465 
L 224.420583 239.350465 
L 224.495502 238.317221 
L 224.865455 238.317221 
L 224.938536 236.250733 
L 228.013014 236.250733 
L 228.013014 235.217489 
L 228.377682 235.217489 
L 228.377682 234.700867 
L 230.582233 234.700867 
L 230.582233 234.184245 
L 230.741061 234.184245 
L 230.741061 233.151001 
L 230.95066 233.151001 
L 231.002678 232.117757 
L 231.157829 232.117757 
L 231.157829 231.601135 
L 232.921595 231.601135 
L 232.921595 230.567891 
L 233.336615 230.567891 
L 233.336615 230.051269 
L 234.095176 230.051269 
L 234.095176 229.018025 
L 235.400612 229.018025 
L 235.481647 226.951537 
L 235.602514 226.951537 
L 235.642622 225.918293 
L 237.432833 225.918293 
L 237.432833 225.401671 
L 239.452624 225.401671 
L 239.452624 224.885049 
L 240.305906 224.885049 
L 240.398248 223.335183 
L 240.822977 223.335183 
L 240.852932 222.301939 
L 242.317645 222.301939 
L 242.317645 221.785317 
L 242.454987 221.785317 
L 242.454987 220.752073 
L 243.465656 220.752073 
L 243.465656 219.718829 
L 244.397679 219.718829 
L 244.397679 219.202207 
L 244.738034 219.202207 
L 244.738034 218.685585 
L 244.929651 218.685585 
L 244.929651 217.652341 
L 246.50224 217.652341 
L 246.50224 217.135719 
L 247.102905 217.135719 
L 247.102905 216.619097 
L 248.047877 216.619097 
L 248.047877 216.102475 
L 249.191051 216.102475 
L 249.191051 215.069231 
L 249.854274 215.069231 
L 249.854274 214.552609 
L 252.458176 214.552609 
L 252.458176 213.002743 
L 252.675703 213.002743 
L 252.675703 211.452876 
L 253.268071 211.452876 
L 253.268071 210.936254 
L 254.536663 210.936254 
L 254.536663 210.419632 
L 255.458743 210.419632 
L 255.458743 209.90301 
L 260.592471 209.90301 
L 260.592471 208.353144 
L 263.530059 208.353144 
L 263.530059 206.803278 
L 278.895381 206.803278 
L 278.895381 206.286656 
L 279.240908 206.286656 
L 279.240908 205.770034 
L 280.179582 205.770034 
L 280.179582 205.253412 
L 280.334628 205.253412 
L 280.351044 204.220168 
L 280.507869 204.220168 
L 280.507869 203.703546 
L 280.698766 203.703546 
L 280.698766 203.186924 
L 280.839814 203.186924 
L 280.839814 202.670302 
L 281.231425 202.670302 
L 281.324894 201.637058 
L 281.454934 201.637058 
L 281.538035 200.603814 
L 282.070457 200.603814 
L 282.070457 200.087192 
L 282.630853 200.087192 
L 282.659715 199.053948 
L 283.10402 199.053948 
L 283.10402 198.537326 
L 283.369275 198.537326 
L 283.452228 196.98746 
L 283.636112 196.98746 
L 283.636112 196.470838 
L 291.255677 196.470838 
L 291.255677 195.954216 
L 291.443634 195.954216 
L 291.443634 195.437594 
L 291.992503 195.437594 
L 291.992503 194.920972 
L 292.247257 194.920972 
L 292.343119 193.887728 
L 292.619401 193.887728 
L 292.672173 192.854484 
L 292.915859 192.854484 
L 292.915859 192.337862 
L 293.161073 192.337862 
L 293.173886 191.304618 
L 293.47868 191.304618 
L 293.47868 190.787996 
L 293.627589 190.787996 
L 293.674356 189.23813 
L 293.778362 189.23813 
L 293.778362 188.721508 
L 294.173305 188.721508 
L 294.173305 188.204886 
L 299.027489 188.204886 
L 299.027489 187.688264 
L 299.55724 187.688264 
L 299.60534 186.65502 
L 299.77987 186.65502 
L 299.829582 184.588532 
L 299.999761 184.588532 
L 300.103269 183.038666 
L 300.208341 183.038666 
L 300.208341 182.005422 
L 300.824031 182.005422 
L 300.824031 181.4888 
L 304.172152 181.4888 
L 304.172152 180.972178 
L 304.339209 180.972178 
L 304.339209 179.938934 
L 304.469868 179.938934 
L 304.469868 179.422312 
L 304.591129 179.422312 
L 304.598733 178.389067 
L 305.401521 178.389067 
L 305.401521 177.872445 
L 308.253017 177.872445 
L 308.253017 177.355823 
L 308.590618 177.355823 
L 308.610875 175.805957 
L 311.308576 175.805957 
L 311.367089 174.772713 
L 311.428869 174.772713 
L 311.445001 173.739469 
L 311.541486 173.739469 
L 311.541486 173.222847 
L 311.701714 173.222847 
L 311.705119 171.672981 
L 312.065264 171.672981 
L 312.065264 170.639737 
L 314.026612 170.639737 
L 314.114612 168.573249 
L 316.345468 168.573249 
L 316.345468 168.056627 
L 316.510172 168.056627 
L 316.510172 167.540005 
L 316.633789 167.540005 
L 316.633789 167.023383 
L 320.324304 167.023383 
L 320.377479 165.990139 
L 323.664482 165.990139 
L 323.664482 165.473517 
L 323.849804 165.473517 
L 323.849804 164.956895 
L 326.355688 164.956895 
L 326.355688 164.440273 
L 327.5346 164.440273 
L 327.5346 163.923651 
L 327.714358 163.923651 
L 327.714358 163.407029 
L 330.641268 163.407029 
L 330.641268 162.890407 
L 331.727257 162.890407 
L 331.727257 162.373785 
L 334.400444 162.373785 
L 334.400444 161.857163 
L 335.061827 161.857163 
L 335.061827 161.340541 
L 335.813633 161.340541 
L 335.832029 160.307297 
L 339.160676 160.307297 
L 339.160676 159.790675 
L 340.904133 159.790675 
L 340.904133 159.274053 
L 344.872408 159.274053 
L 344.872408 158.757431 
L 361.113325 158.757431 
L 361.113325 158.757431 
" style="fill:none;stroke:#000000;stroke-linecap:square;stroke-width:1.5;"/>
   </g>
   <g id="line2d_57">
    <defs>
     <path d="M 0 6 
C 1.591219 6 3.117479 5.367802 4.242641 4.242641 
C 5.367802 3.117479 6 1.591219 6 0 
C 6 -1.591219 5.367802 -3.117479 4.242641 -4.242641 
C 3.117479 -5.367802 1.591219 -6 0 -6 
C -1.591219 -6 -3.117479 -5.367802 -4.242641 -4.242641 
C -5.367802 -3.117479 -6 -1.591219 -6 0 
C -6 1.591219 -5.367802 3.117479 -4.242641 4.242641 
C -3.117479 5.367802 -1.591219 6 0 6 
z
" id="mccdd2a4a77" style="stroke:#000000;stroke-width:1.5;"/>
    </defs>
    <g>
     <use style="fill:none;stroke:#000000;stroke-width:1.5;" x="361.113325" xlink:href="#mccdd2a4a77" y="158.757431"/>
    </g>
   </g>
   <g id="line2d_58"/>
   <g id="line2d_59">
    <path clip-path="url(#p2721e2e748)" d="M 278.827611 206.803278 
" style="fill:none;stroke:#000000;stroke-linecap:square;stroke-width:1.5;"/>
    <defs>
     <path d="M -12 12 
L 12 -12 
M -12 -12 
L 12 12 
" id="m005b5f2ba0" style="stroke:#000000;stroke-width:3;"/>
    </defs>
    <g clip-path="url(#p2721e2e748)">
     <use style="stroke:#000000;stroke-width:3;" x="278.827611" xlink:href="#m005b5f2ba0" y="206.803278"/>
    </g>
   </g>
   <g id="line2d_60">
    <defs>
     <path d="M 0 1.5 
C 0.397805 1.5 0.77937 1.341951 1.06066 1.06066 
C 1.341951 0.77937 1.5 0.397805 1.5 0 
C 1.5 -0.397805 1.341951 -0.77937 1.06066 -1.06066 
C 0.77937 -1.341951 0.397805 -1.5 0 -1.5 
C -0.397805 -1.5 -0.77937 -1.341951 -1.06066 -1.06066 
C -1.341951 -0.77937 -1.5 -0.397805 -1.5 0 
C -1.5 0.397805 -1.341951 0.77937 -1.06066 1.06066 
C -0.77937 1.341951 -0.397805 1.5 0 1.5 
z
" id="m4e556f66fd" style="stroke:#ff0000;"/>
    </defs>
    <g>
     <use style="fill:#ff0000;stroke:#ff0000;" x="339.196839" xlink:href="#m4e556f66fd" y="225.918293"/>
     <use style="fill:#ff0000;stroke:#ff0000;" x="339.196839" xlink:href="#m4e556f66fd" y="225.918293"/>
    </g>
   </g>
   <g id="line2d_61">
    <path d="M 19.585234 298.245375 
L 19.585234 271.38103 
L 126.641417 271.38103 
L 126.641417 267.248054 
L 133.886314 267.248054 
L 133.886314 266.731432 
L 139.026651 266.731432 
L 139.026651 265.698188 
L 143.013806 265.698188 
L 143.013806 263.6317 
L 146.271548 263.6317 
L 146.271548 262.598456 
L 149.02593 262.598456 
L 149.02593 262.081834 
L 151.411885 262.081834 
L 151.411885 261.04859 
L 153.516446 261.04859 
L 153.516446 260.015346 
L 160.086995 260.015346 
L 160.086995 258.982102 
L 162.643937 258.982102 
L 162.643937 257.432236 
L 165.90168 257.432236 
L 165.90168 256.915614 
L 169.487287 256.915614 
L 169.487287 256.398992 
L 177.265601 256.398992 
L 177.265601 255.88237 
L 187.114094 255.88237 
L 187.114094 255.365748 
L 191.871801 255.365748 
L 191.871801 254.849126 
L 212.914286 254.849126 
L 212.914286 253.815882 
L 216.052509 253.815882 
L 216.052509 253.29926 
L 218.196998 253.29926 
L 218.196998 252.266016 
L 225.191988 252.266016 
L 225.191988 251.749394 
L 229.959964 251.749394 
L 229.959964 251.232772 
L 231.132064 251.232772 
L 231.132064 250.71615 
L 235.702616 250.71615 
L 235.702616 250.199528 
L 235.782296 250.199528 
L 235.782296 249.682906 
L 238.195558 249.682906 
L 238.195558 248.13304 
L 239.757521 248.13304 
L 239.757521 247.616418 
L 243.165783 247.616418 
L 243.165783 247.099796 
L 245.515544 247.099796 
L 245.515544 246.583173 
L 247.123989 246.583173 
L 247.123989 246.066551 
L 249.580916 246.066551 
L 249.580916 245.033307 
L 250.00734 245.033307 
L 250.00734 244.516685 
L 250.485031 244.516685 
L 250.485031 243.483441 
L 254.107104 243.483441 
L 254.107104 242.966819 
L 259.001648 242.966819 
L 259.001648 242.450197 
L 280.365805 242.450197 
L 280.365805 241.933575 
L 280.718065 241.933575 
L 280.718065 241.416953 
L 281.104461 241.416953 
L 281.104461 240.900331 
L 282.004766 240.900331 
L 282.004766 240.383709 
L 292.387512 240.383709 
L 292.387512 239.867087 
L 292.546585 239.867087 
L 292.546585 238.833843 
L 292.915046 238.833843 
L 292.915046 237.800599 
L 299.637149 237.800599 
L 299.637149 237.283977 
L 304.277391 237.283977 
L 304.277391 236.767355 
L 305.013304 236.767355 
L 305.013304 236.250733 
L 308.267469 236.250733 
L 308.267469 235.734111 
L 308.302177 235.734111 
L 308.302177 234.700867 
L 308.726239 234.700867 
L 308.726239 234.184245 
L 311.298708 234.184245 
L 311.298708 233.667623 
L 311.442409 233.667623 
L 311.442409 233.151001 
L 316.434762 233.151001 
L 316.434762 232.634379 
L 316.704933 232.634379 
L 316.704933 232.117757 
L 318.730738 232.117757 
L 318.730738 231.084513 
L 320.332535 231.084513 
L 320.332535 230.567891 
L 321.986821 230.567891 
L 321.986821 230.051269 
L 323.523412 230.051269 
L 323.523412 229.534647 
L 323.530441 229.534647 
L 323.530441 228.501403 
L 332.506585 228.501403 
L 332.506585 227.984781 
L 333.505841 227.984781 
L 333.505841 227.468159 
L 336.576962 227.468159 
L 336.576962 226.951537 
L 337.268814 226.951537 
L 337.268814 226.434915 
L 339.196839 226.434915 
L 339.196839 225.918293 
L 361.113325 225.918293 
" style="fill:none;stroke:#ff0000;stroke-linecap:square;stroke-width:1.5;"/>
   </g>
   <g id="line2d_62">
    <defs>
     <path d="M -6 6 
L 6 6 
L 6 -6 
L -6 -6 
z
" id="m2ae71046b0" style="stroke:#ff0000;stroke-linejoin:miter;stroke-width:1.5;"/>
    </defs>
    <g>
     <use style="fill:none;stroke:#ff0000;stroke-linejoin:miter;stroke-width:1.5;" x="361.113325" xlink:href="#m2ae71046b0" y="225.918293"/>
    </g>
   </g>
   <g id="line2d_63"/>
   <g id="line2d_64">
    <path clip-path="url(#p2721e2e748)" d="M 278.827611 242.450197 
" style="fill:none;stroke:#ff0000;stroke-linecap:square;stroke-width:1.5;"/>
    <defs>
     <path d="M -12 12 
L 12 -12 
M -12 -12 
L 12 12 
" id="m3d0ae6c36c" style="stroke:#ff0000;stroke-width:3;"/>
    </defs>
    <g clip-path="url(#p2721e2e748)">
     <use style="fill:#ff0000;stroke:#ff0000;stroke-width:3;" x="278.827611" xlink:href="#m3d0ae6c36c" y="242.450197"/>
    </g>
   </g>
   <g id="line2d_65">
    <defs>
     <path d="M 0 1.5 
C 0.397805 1.5 0.77937 1.341951 1.06066 1.06066 
C 1.341951 0.77937 1.5 0.397805 1.5 0 
C 1.5 -0.397805 1.341951 -0.77937 1.06066 -1.06066 
C 0.77937 -1.341951 0.397805 -1.5 0 -1.5 
C -0.397805 -1.5 -0.77937 -1.341951 -1.06066 -1.06066 
C -1.341951 -0.77937 -1.5 -0.397805 -1.5 0 
C -1.5 0.397805 -1.341951 0.77937 -1.06066 1.06066 
C -0.77937 1.341951 -0.397805 1.5 0 1.5 
z
" id="m4c52ae82b7" style="stroke:#bf00bf;"/>
    </defs>
    <g>
     <use style="fill:#bf00bf;stroke:#bf00bf;" x="340.880225" xlink:href="#m4c52ae82b7" y="246.583173"/>
     <use style="fill:#bf00bf;stroke:#bf00bf;" x="340.880225" xlink:href="#m4c52ae82b7" y="246.583173"/>
    </g>
   </g>
   <g id="line2d_66">
    <path d="M 7.2 298.245375 
L 7.2 273.96414 
L 114.256183 273.96414 
L 114.256183 272.414274 
L 121.50108 272.414274 
L 121.50108 271.38103 
L 130.628571 271.38103 
L 130.628571 270.347786 
L 136.640696 270.347786 
L 136.640696 269.831164 
L 139.026651 269.831164 
L 139.026651 267.248054 
L 143.013806 267.248054 
L 143.013806 265.698188 
L 146.271548 265.698188 
L 146.271548 265.181566 
L 159.386194 265.181566 
L 159.386194 264.148322 
L 162.643937 264.148322 
L 162.643937 263.6317 
L 188.427444 263.6317 
L 188.427444 262.598456 
L 188.706639 262.598456 
L 188.706639 262.081834 
L 224.99315 262.081834 
L 224.99315 261.565212 
L 227.034991 261.565212 
L 227.034991 260.531968 
L 229.863342 260.531968 
L 229.863342 259.498724 
L 252.352343 259.498724 
L 252.352343 258.46548 
L 263.639088 258.46548 
L 263.639088 257.432236 
L 279.684929 257.432236 
L 279.684929 256.915614 
L 279.945301 256.915614 
L 279.945301 256.398992 
L 280.647198 256.398992 
L 280.647198 255.88237 
L 280.724494 255.88237 
L 280.724494 255.365748 
L 291.268151 255.365748 
L 291.268151 254.849126 
L 293.13582 254.849126 
L 293.13582 254.332504 
L 299.112668 254.332504 
L 299.112668 253.815882 
L 304.07064 253.815882 
L 304.07064 253.29926 
L 304.09151 253.29926 
L 304.09151 252.782638 
L 308.379426 252.782638 
L 308.379426 252.266016 
L 311.17344 252.266016 
L 311.17344 251.749394 
L 313.868922 251.749394 
L 313.868922 251.232772 
L 314.168218 251.232772 
L 314.168218 250.71615 
L 316.483804 250.71615 
L 316.483804 250.199528 
L 320.371976 250.199528 
L 320.371976 249.682906 
L 321.854492 249.682906 
L 321.854492 249.166284 
L 323.387124 249.166284 
L 323.387124 248.649662 
L 323.563424 248.649662 
L 323.563424 248.13304 
L 324.805162 248.13304 
L 324.805162 247.616418 
L 331.651632 247.616418 
L 331.651632 247.099796 
L 340.880225 247.099796 
L 340.880225 246.583173 
L 361.113325 246.583173 
" style="fill:none;stroke:#bf00bf;stroke-linecap:square;stroke-width:1.5;"/>
   </g>
   <g id="line2d_67">
    <defs>
     <path d="M -0 8.485281 
L 8.485281 0 
L 0 -8.485281 
L -8.485281 -0 
z
" id="m5b25159bbe" style="stroke:#bf00bf;stroke-linejoin:miter;stroke-width:1.5;"/>
    </defs>
    <g>
     <use style="fill:none;stroke:#bf00bf;stroke-linejoin:miter;stroke-width:1.5;" x="361.113325" xlink:href="#m5b25159bbe" y="246.583173"/>
    </g>
   </g>
   <g id="line2d_68"/>
   <g id="line2d_69">
    <path clip-path="url(#p2721e2e748)" d="M 278.827611 257.432236 
" style="fill:none;stroke:#bf00bf;stroke-linecap:square;stroke-width:1.5;"/>
    <defs>
     <path d="M -12 12 
L 12 -12 
M -12 -12 
L 12 12 
" id="ma150de3ead" style="stroke:#bf00bf;stroke-width:3;"/>
    </defs>
    <g clip-path="url(#p2721e2e748)">
     <use style="fill:#bf00bf;stroke:#bf00bf;stroke-width:3;" x="278.827611" xlink:href="#ma150de3ead" y="257.432236"/>
    </g>
   </g>
   <g id="line2d_70">
    <path d="M 361.113325 246.583173 
L 392.793325 292.97583 
" style="fill:none;stroke:#bf00bf;stroke-linecap:square;stroke-width:1.5;"/>
    <g>
     <use style="fill:none;stroke:#bf00bf;stroke-linejoin:miter;stroke-width:1.5;" x="361.113325" xlink:href="#m5b25159bbe" y="246.583173"/>
     <use style="fill:none;stroke:#bf00bf;stroke-linejoin:miter;stroke-width:1.5;" x="392.793325" xlink:href="#m5b25159bbe" y="292.97583"/>
    </g>
   </g>
   <g id="line2d_71">
    <path d="M 361.113325 225.918293 
L 392.793325 242.388203 
" style="fill:none;stroke:#ff0000;stroke-linecap:square;stroke-width:1.5;"/>
    <g>
     <use style="fill:none;stroke:#ff0000;stroke-linejoin:miter;stroke-width:1.5;" x="361.113325" xlink:href="#m2ae71046b0" y="225.918293"/>
     <use style="fill:none;stroke:#ff0000;stroke-linejoin:miter;stroke-width:1.5;" x="392.793325" xlink:href="#m2ae71046b0" y="242.388203"/>
    </g>
   </g>
   <g id="line2d_72">
    <path d="M 361.113325 158.757431 
L 392.793325 191.800575 
" style="fill:none;stroke:#000000;stroke-linecap:square;stroke-width:1.5;"/>
    <g>
     <use style="fill:none;stroke:#000000;stroke-width:1.5;" x="361.113325" xlink:href="#mccdd2a4a77" y="158.757431"/>
     <use style="fill:none;stroke:#000000;stroke-width:1.5;" x="392.793325" xlink:href="#mccdd2a4a77" y="191.800575"/>
    </g>
   </g>
   <g id="line2d_73">
    <path d="M 361.113325 96.762789 
L 392.793325 141.212947 
" style="fill:none;stroke:#0000ff;stroke-linecap:square;stroke-width:1.5;"/>
    <g>
     <use style="fill:none;stroke:#0000ff;stroke-linejoin:bevel;stroke-width:1.5;" x="361.113325" xlink:href="#mbd58462698" y="96.762789"/>
     <use style="fill:none;stroke:#0000ff;stroke-linejoin:bevel;stroke-width:1.5;" x="392.793325" xlink:href="#mbd58462698" y="141.212947"/>
    </g>
   </g>
   <g id="line2d_74">
    <path d="M 361.113325 34.768147 
L 392.793325 90.62532 
" style="fill:none;stroke:#008000;stroke-linecap:square;stroke-width:1.5;"/>
    <g>
     <use style="fill:none;stroke:#008000;stroke-linejoin:miter;stroke-width:1.5;" x="361.113325" xlink:href="#m269e889440" y="34.768147"/>
     <use style="fill:none;stroke:#008000;stroke-linejoin:miter;stroke-width:1.5;" x="392.793325" xlink:href="#m269e889440" y="90.62532"/>
    </g>
   </g>
   <g id="line2d_75">
    <path d="M 361.113325 34.768147 
L 392.793325 40.037692 
" style="fill:none;stroke:#00bfbf;stroke-linecap:square;stroke-width:1.5;"/>
    <g>
     <use style="fill:none;stroke:#00bfbf;stroke-width:1.5;" x="361.113325" xlink:href="#m0aeb2cfbbc" y="34.768147"/>
     <use style="fill:none;stroke:#00bfbf;stroke-width:1.5;" x="392.793325" xlink:href="#m0aeb2cfbbc" y="40.037692"/>
    </g>
   </g>
   <g id="line2d_76">
    <path d="M 361.113325 298.245375 
L 361.113325 34.768147 
" style="fill:none;stroke:#000000;stroke-linecap:square;stroke-width:1.5;"/>
   </g>
   <g id="patch_3">
    <path d="M 73.113325 298.245375 
L 73.113325 32.133375 
" style="fill:none;stroke:#000000;stroke-linecap:square;stroke-linejoin:miter;stroke-width:0.8;"/>
   </g>
   <g id="patch_4">
    <path d="M 430.233325 298.245375 
L 430.233325 32.133375 
" style="fill:none;stroke:#000000;stroke-linecap:square;stroke-linejoin:miter;stroke-width:0.8;"/>
   </g>
   <g id="patch_5">
    <path d="M 73.113325 298.245375 
L 430.233325 298.245375 
" style="fill:none;stroke:#000000;stroke-linecap:square;stroke-linejoin:miter;stroke-width:0.8;"/>
   </g>
   <g id="patch_6">
    <path d="M 73.113325 32.133375 
L 430.233325 32.133375 
" style="fill:none;stroke:#000000;stroke-linecap:square;stroke-linejoin:miter;stroke-width:0.8;"/>
   </g>
   <g id="text_14">
    <!-- 40-D -->
    <defs>
     <path d="M 19.671875 64.796875 
L 19.671875 8.109375 
L 31.59375 8.109375 
Q 46.6875 8.109375 53.6875 14.9375 
Q 60.6875 21.78125 60.6875 36.53125 
Q 60.6875 51.171875 53.6875 57.984375 
Q 46.6875 64.796875 31.59375 64.796875 
z
M 9.8125 72.90625 
L 30.078125 72.90625 
Q 51.265625 72.90625 61.171875 64.09375 
Q 71.09375 55.28125 71.09375 36.53125 
Q 71.09375 17.671875 61.125 8.828125 
Q 51.171875 0 30.078125 0 
L 9.8125 0 
z
" id="DejaVuSans-44"/>
    </defs>
    <g transform="translate(398.553325 297.114893)scale(0.15 -0.15)">
     <use xlink:href="#DejaVuSans-34"/>
     <use x="63.623047" xlink:href="#DejaVuSans-30"/>
     <use x="127.246094" xlink:href="#DejaVuSans-2d"/>
     <use x="163.330078" xlink:href="#DejaVuSans-44"/>
    </g>
   </g>
   <g id="text_15">
    <!-- 20-D -->
    <g transform="translate(398.553325 246.527265)scale(0.15 -0.15)">
     <use xlink:href="#DejaVuSans-32"/>
     <use x="63.623047" xlink:href="#DejaVuSans-30"/>
     <use x="127.246094" xlink:href="#DejaVuSans-2d"/>
     <use x="163.330078" xlink:href="#DejaVuSans-44"/>
    </g>
   </g>
   <g id="text_16">
    <!-- 10-D -->
    <g transform="translate(398.553325 195.939637)scale(0.15 -0.15)">
     <use xlink:href="#DejaVuSans-31"/>
     <use x="63.623047" xlink:href="#DejaVuSans-30"/>
     <use x="127.246094" xlink:href="#DejaVuSans-2d"/>
     <use x="163.330078" xlink:href="#DejaVuSans-44"/>
    </g>
   </g>
   <g id="text_17">
    <!-- 5-D -->
    <defs>
     <path d="M 10.796875 72.90625 
L 49.515625 72.90625 
L 49.515625 64.59375 
L 19.828125 64.59375 
L 19.828125 46.734375 
Q 21.96875 47.46875 24.109375 47.828125 
Q 26.265625 48.1875 28.421875 48.1875 
Q 40.625 48.1875 47.75 41.5 
Q 54.890625 34.8125 54.890625 23.390625 
Q 54.890625 11.625 47.5625 5.09375 
Q 40.234375 -1.421875 26.90625 -1.421875 
Q 22.3125 -1.421875 17.546875 -0.640625 
Q 12.796875 0.140625 7.71875 1.703125 
L 7.71875 11.625 
Q 12.109375 9.234375 16.796875 8.0625 
Q 21.484375 6.890625 26.703125 6.890625 
Q 35.15625 6.890625 40.078125 11.328125 
Q 45.015625 15.765625 45.015625 23.390625 
Q 45.015625 31 40.078125 35.4375 
Q 35.15625 39.890625 26.703125 39.890625 
Q 22.75 39.890625 18.8125 39.015625 
Q 14.890625 38.140625 10.796875 36.28125 
z
" id="DejaVuSans-35"/>
    </defs>
    <g transform="translate(398.553325 145.35201)scale(0.15 -0.15)">
     <use xlink:href="#DejaVuSans-35"/>
     <use x="63.623047" xlink:href="#DejaVuSans-2d"/>
     <use x="99.707031" xlink:href="#DejaVuSans-44"/>
    </g>
   </g>
   <g id="text_18">
    <!-- 3-D -->
    <defs>
     <path d="M 40.578125 39.3125 
Q 47.65625 37.796875 51.625 33 
Q 55.609375 28.21875 55.609375 21.1875 
Q 55.609375 10.40625 48.1875 4.484375 
Q 40.765625 -1.421875 27.09375 -1.421875 
Q 22.515625 -1.421875 17.65625 -0.515625 
Q 12.796875 0.390625 7.625 2.203125 
L 7.625 11.71875 
Q 11.71875 9.328125 16.59375 8.109375 
Q 21.484375 6.890625 26.8125 6.890625 
Q 36.078125 6.890625 40.9375 10.546875 
Q 45.796875 14.203125 45.796875 21.1875 
Q 45.796875 27.640625 41.28125 31.265625 
Q 36.765625 34.90625 28.71875 34.90625 
L 20.21875 34.90625 
L 20.21875 43.015625 
L 29.109375 43.015625 
Q 36.375 43.015625 40.234375 45.921875 
Q 44.09375 48.828125 44.09375 54.296875 
Q 44.09375 59.90625 40.109375 62.90625 
Q 36.140625 65.921875 28.71875 65.921875 
Q 24.65625 65.921875 20.015625 65.03125 
Q 15.375 64.15625 9.8125 62.3125 
L 9.8125 71.09375 
Q 15.4375 72.65625 20.34375 73.4375 
Q 25.25 74.21875 29.59375 74.21875 
Q 40.828125 74.21875 47.359375 69.109375 
Q 53.90625 64.015625 53.90625 55.328125 
Q 53.90625 49.265625 50.4375 45.09375 
Q 46.96875 40.921875 40.578125 39.3125 
" id="DejaVuSans-33"/>
    </defs>
    <g transform="translate(398.553325 94.764382)scale(0.15 -0.15)">
     <use xlink:href="#DejaVuSans-33"/>
     <use x="63.623047" xlink:href="#DejaVuSans-2d"/>
     <use x="99.707031" xlink:href="#DejaVuSans-44"/>
    </g>
   </g>
   <g id="text_19">
    <!-- 2-D -->
    <g transform="translate(398.553325 44.176754)scale(0.15 -0.15)">
     <use xlink:href="#DejaVuSans-32"/>
     <use x="63.623047" xlink:href="#DejaVuSans-2d"/>
     <use x="99.707031" xlink:href="#DejaVuSans-44"/>
    </g>
   </g>
   <g id="text_20">
    <!-- bbob - f17 -->
    <defs>
     <path d="M 48.6875 27.296875 
Q 48.6875 37.203125 44.609375 42.84375 
Q 40.53125 48.484375 33.40625 48.484375 
Q 26.265625 48.484375 22.1875 42.84375 
Q 18.109375 37.203125 18.109375 27.296875 
Q 18.109375 17.390625 22.1875 11.75 
Q 26.265625 6.109375 33.40625 6.109375 
Q 40.53125 6.109375 44.609375 11.75 
Q 48.6875 17.390625 48.6875 27.296875 
M 18.109375 46.390625 
Q 20.953125 51.265625 25.265625 53.625 
Q 29.59375 56 35.59375 56 
Q 45.5625 56 51.78125 48.09375 
Q 58.015625 40.1875 58.015625 27.296875 
Q 58.015625 14.40625 51.78125 6.484375 
Q 45.5625 -1.421875 35.59375 -1.421875 
Q 29.59375 -1.421875 25.265625 0.953125 
Q 20.953125 3.328125 18.109375 8.203125 
L 18.109375 0 
L 9.078125 0 
L 9.078125 75.984375 
L 18.109375 75.984375 
z
" id="DejaVuSans-62"/>
     <path d="M 8.203125 72.90625 
L 55.078125 72.90625 
L 55.078125 68.703125 
L 28.609375 0 
L 18.3125 0 
L 43.21875 64.59375 
L 8.203125 64.59375 
z
" id="DejaVuSans-37"/>
    </defs>
    <g transform="translate(76.684525 50.114612)scale(0.1666 -0.1666)">
     <use xlink:href="#DejaVuSans-62"/>
     <use x="63.476562" xlink:href="#DejaVuSans-62"/>
     <use x="126.953125" xlink:href="#DejaVuSans-6f"/>
     <use x="188.134766" xlink:href="#DejaVuSans-62"/>
     <use x="251.611328" xlink:href="#DejaVuSans-20"/>
     <use x="283.398438" xlink:href="#DejaVuSans-2d"/>
     <use x="319.482422" xlink:href="#DejaVuSans-20"/>
     <use x="351.269531" xlink:href="#DejaVuSans-66"/>
     <use x="386.474609" xlink:href="#DejaVuSans-31"/>
     <use x="450.097656" xlink:href="#DejaVuSans-37"/>
    </g>
    <!-- 51 targets in 100..1e-08 -->
    <g transform="translate(76.684525 68.770168)scale(0.1666 -0.1666)">
     <use xlink:href="#DejaVuSans-35"/>
     <use x="63.623047" xlink:href="#DejaVuSans-31"/>
     <use x="127.246094" xlink:href="#DejaVuSans-20"/>
     <use x="159.033203" xlink:href="#DejaVuSans-74"/>
     <use x="198.242188" xlink:href="#DejaVuSans-61"/>
     <use x="259.521484" xlink:href="#DejaVuSans-72"/>
     <use x="300.619141" xlink:href="#DejaVuSans-67"/>
     <use x="364.095703" xlink:href="#DejaVuSans-65"/>
     <use x="425.619141" xlink:href="#DejaVuSans-74"/>
     <use x="464.828125" xlink:href="#DejaVuSans-73"/>
     <use x="516.927734" xlink:href="#DejaVuSans-20"/>
     <use x="548.714844" xlink:href="#DejaVuSans-69"/>
     <use x="576.498047" xlink:href="#DejaVuSans-6e"/>
     <use x="639.876953" xlink:href="#DejaVuSans-20"/>
     <use x="671.664062" xlink:href="#DejaVuSans-31"/>
     <use x="735.287109" xlink:href="#DejaVuSans-30"/>
     <use x="798.910156" xlink:href="#DejaVuSans-30"/>
     <use x="862.533203" xlink:href="#DejaVuSans-2e"/>
     <use x="894.320312" xlink:href="#DejaVuSans-2e"/>
     <use x="926.107422" xlink:href="#DejaVuSans-31"/>
     <use x="989.730469" xlink:href="#DejaVuSans-65"/>
     <use x="1051.253906" xlink:href="#DejaVuSans-2d"/>
     <use x="1087.337891" xlink:href="#DejaVuSans-30"/>
     <use x="1150.960938" xlink:href="#DejaVuSans-38"/>
    </g>
    <!-- 15 instances -->
    <g transform="translate(76.684525 87.425723)scale(0.1666 -0.1666)">
     <use xlink:href="#DejaVuSans-31"/>
     <use x="63.623047" xlink:href="#DejaVuSans-35"/>
     <use x="127.246094" xlink:href="#DejaVuSans-20"/>
     <use x="159.033203" xlink:href="#DejaVuSans-69"/>
     <use x="186.816406" xlink:href="#DejaVuSans-6e"/>
     <use x="250.195312" xlink:href="#DejaVuSans-73"/>
     <use x="302.294922" xlink:href="#DejaVuSans-74"/>
     <use x="341.503906" xlink:href="#DejaVuSans-61"/>
     <use x="402.783203" xlink:href="#DejaVuSans-6e"/>
     <use x="466.162109" xlink:href="#DejaVuSans-63"/>
     <use x="521.142578" xlink:href="#DejaVuSans-65"/>
     <use x="582.666016" xlink:href="#DejaVuSans-73"/>
    </g>
   </g>
   <g id="text_21">
    <!-- v2.0.1 -->
    <g style="fill:#808080;" transform="translate(235.992075 293.504568)scale(0.1 -0.1)">
     <use xlink:href="#DejaVuSans-76"/>
     <use x="59.179688" xlink:href="#DejaVuSans-32"/>
     <use x="122.802734" xlink:href="#DejaVuSans-2e"/>
     <use x="154.589844" xlink:href="#DejaVuSans-30"/>
     <use x="218.212891" xlink:href="#DejaVuSans-2e"/>
     <use x="250" xlink:href="#DejaVuSans-31"/>
    </g>
   </g>
   <g id="text_22">
    <!-- 17 Schaffer F7, condition 10 -->
    <defs>
     <path d="M 53.515625 70.515625 
L 53.515625 60.890625 
Q 47.90625 63.578125 42.921875 64.890625 
Q 37.9375 66.21875 33.296875 66.21875 
Q 25.25 66.21875 20.875 63.09375 
Q 16.5 59.96875 16.5 54.203125 
Q 16.5 49.359375 19.40625 46.890625 
Q 22.3125 44.4375 30.421875 42.921875 
L 36.375 41.703125 
Q 47.40625 39.59375 52.65625 34.296875 
Q 57.90625 29 57.90625 20.125 
Q 57.90625 9.515625 50.796875 4.046875 
Q 43.703125 -1.421875 29.984375 -1.421875 
Q 24.8125 -1.421875 18.96875 -0.25 
Q 13.140625 0.921875 6.890625 3.21875 
L 6.890625 13.375 
Q 12.890625 10.015625 18.65625 8.296875 
Q 24.421875 6.59375 29.984375 6.59375 
Q 38.421875 6.59375 43.015625 9.90625 
Q 47.609375 13.234375 47.609375 19.390625 
Q 47.609375 24.75 44.3125 27.78125 
Q 41.015625 30.8125 33.5 32.328125 
L 27.484375 33.5 
Q 16.453125 35.6875 11.515625 40.375 
Q 6.59375 45.0625 6.59375 53.421875 
Q 6.59375 63.09375 13.40625 68.65625 
Q 20.21875 74.21875 32.171875 74.21875 
Q 37.3125 74.21875 42.625 73.28125 
Q 47.953125 72.359375 53.515625 70.515625 
" id="DejaVuSans-53"/>
     <path d="M 54.890625 33.015625 
L 54.890625 0 
L 45.90625 0 
L 45.90625 32.71875 
Q 45.90625 40.484375 42.875 44.328125 
Q 39.84375 48.1875 33.796875 48.1875 
Q 26.515625 48.1875 22.3125 43.546875 
Q 18.109375 38.921875 18.109375 30.90625 
L 18.109375 0 
L 9.078125 0 
L 9.078125 75.984375 
L 18.109375 75.984375 
L 18.109375 46.1875 
Q 21.34375 51.125 25.703125 53.5625 
Q 30.078125 56 35.796875 56 
Q 45.21875 56 50.046875 50.171875 
Q 54.890625 44.34375 54.890625 33.015625 
" id="DejaVuSans-68"/>
     <path d="M 9.8125 72.90625 
L 51.703125 72.90625 
L 51.703125 64.59375 
L 19.671875 64.59375 
L 19.671875 43.109375 
L 48.578125 43.109375 
L 48.578125 34.8125 
L 19.671875 34.8125 
L 19.671875 0 
L 9.8125 0 
z
" id="DejaVuSans-46"/>
     <path d="M 11.71875 12.40625 
L 22.015625 12.40625 
L 22.015625 4 
L 14.015625 -11.625 
L 7.71875 -11.625 
L 11.71875 4 
z
" id="DejaVuSans-2c"/>
    </defs>
    <g transform="translate(82.10395 26.133375)scale(0.24 -0.24)">
     <use xlink:href="#DejaVuSans-31"/>
     <use x="63.623047" xlink:href="#DejaVuSans-37"/>
     <use x="127.246094" xlink:href="#DejaVuSans-20"/>
     <use x="159.033203" xlink:href="#DejaVuSans-53"/>
     <use x="222.509766" xlink:href="#DejaVuSans-63"/>
     <use x="277.490234" xlink:href="#DejaVuSans-68"/>
     <use x="340.869141" xlink:href="#DejaVuSans-61"/>
     <use x="402.148438" xlink:href="#DejaVuSans-66"/>
     <use x="437.353516" xlink:href="#DejaVuSans-66"/>
     <use x="472.558594" xlink:href="#DejaVuSans-65"/>
     <use x="534.082031" xlink:href="#DejaVuSans-72"/>
     <use x="575.195312" xlink:href="#DejaVuSans-20"/>
     <use x="606.982422" xlink:href="#DejaVuSans-46"/>
     <use x="664.501953" xlink:href="#DejaVuSans-37"/>
     <use x="728.125" xlink:href="#DejaVuSans-2c"/>
     <use x="759.912109" xlink:href="#DejaVuSans-20"/>
     <use x="791.699219" xlink:href="#DejaVuSans-63"/>
     <use x="846.679688" xlink:href="#DejaVuSans-6f"/>
     <use x="907.861328" xlink:href="#DejaVuSans-6e"/>
     <use x="971.240234" xlink:href="#DejaVuSans-64"/>
     <use x="1034.716797" xlink:href="#DejaVuSans-69"/>
     <use x="1062.5" xlink:href="#DejaVuSans-74"/>
     <use x="1101.708984" xlink:href="#DejaVuSans-69"/>
     <use x="1129.492188" xlink:href="#DejaVuSans-6f"/>
     <use x="1190.673828" xlink:href="#DejaVuSans-6e"/>
     <use x="1254.052734" xlink:href="#DejaVuSans-20"/>
     <use x="1285.839844" xlink:href="#DejaVuSans-31"/>
     <use x="1349.462891" xlink:href="#DejaVuSans-30"/>
    </g>
   </g>
  </g>
 </g>
 <defs>
  <clipPath id="p2721e2e748">
   <rect height="266.112" width="357.12" x="73.113325" y="32.133375"/>
  </clipPath>
 </defs>
</svg>
