<?xml version="1.0" encoding="utf-8" standalone="no"?>
<!DOCTYPE svg PUBLIC "-//W3C//DTD SVG 1.1//EN"
  "http://www.w3.org/Graphics/SVG/1.1/DTD/svg11.dtd">
<!-- Created with matplotlib (http://matplotlib.org/) -->
<svg height="353pt" version="1.1" viewBox="0 0 439 353" width="439pt" xmlns="http://www.w3.org/2000/svg" xmlns:xlink="http://www.w3.org/1999/xlink">
 <defs>
  <style type="text/css">
*{stroke-linecap:butt;stroke-linejoin:round;}
  </style>
 </defs>
 <g id="figure_1">
  <g id="patch_1">
   <path d="M 0 353.22225 
L 439.489219 353.22225 
L 439.489219 0 
L 0 0 
z
" style="fill:#ffffff;"/>
  </g>
  <g id="axes_1">
   <g id="patch_2">
    <path d="M 70.8 298.245375 
L 427.92 298.245375 
L 427.92 32.133375 
L 70.8 32.133375 
z
" style="fill:#ffffff;"/>
   </g>
   <g id="matplotlib.axis_1">
    <g id="xtick_1">
     <g id="line2d_1">
      <path clip-path="url(#p58c41bb4fa)" d="M 70.8 298.245375 
L 70.8 32.133375 
" style="fill:none;stroke:#b0b0b0;stroke-linecap:square;stroke-width:0.8;"/>
     </g>
     <g id="line2d_2">
      <defs>
       <path d="M 0 0 
L 0 3.5 
" id="mb5b498fb45" style="stroke:#000000;stroke-width:0.8;"/>
      </defs>
      <g>
       <use style="stroke:#000000;stroke-width:0.8;" x="70.8" xlink:href="#mb5b498fb45" y="298.245375"/>
      </g>
     </g>
     <g id="text_1">
      <!-- 0 -->
      <defs>
       <path d="M 31.78125 66.40625 
Q 24.171875 66.40625 20.328125 58.90625 
Q 16.5 51.421875 16.5 36.375 
Q 16.5 21.390625 20.328125 13.890625 
Q 24.171875 6.390625 31.78125 6.390625 
Q 39.453125 6.390625 43.28125 13.890625 
Q 47.125 21.390625 47.125 36.375 
Q 47.125 51.421875 43.28125 58.90625 
Q 39.453125 66.40625 31.78125 66.40625 
M 31.78125 74.21875 
Q 44.046875 74.21875 50.515625 64.515625 
Q 56.984375 54.828125 56.984375 36.375 
Q 56.984375 17.96875 50.515625 8.265625 
Q 44.046875 -1.421875 31.78125 -1.421875 
Q 19.53125 -1.421875 13.0625 8.265625 
Q 6.59375 17.96875 6.59375 36.375 
Q 6.59375 54.828125 13.0625 64.515625 
Q 19.53125 74.21875 31.78125 74.21875 
" id="DejaVuSans-30"/>
      </defs>
      <g transform="translate(64.4375 320.44225)scale(0.2 -0.2)">
       <use xlink:href="#DejaVuSans-30"/>
      </g>
     </g>
    </g>
    <g id="xtick_2">
     <g id="line2d_3">
      <path clip-path="url(#p58c41bb4fa)" d="M 153.085714 298.245375 
L 153.085714 32.133375 
" style="fill:none;stroke:#b0b0b0;stroke-linecap:square;stroke-width:0.8;"/>
     </g>
     <g id="line2d_4">
      <g>
       <use style="stroke:#000000;stroke-width:0.8;" x="153.085714" xlink:href="#mb5b498fb45" y="298.245375"/>
      </g>
     </g>
     <g id="text_2">
      <!-- 2 -->
      <defs>
       <path d="M 19.1875 8.296875 
L 53.609375 8.296875 
L 53.609375 0 
L 7.328125 0 
L 7.328125 8.296875 
Q 12.9375 14.109375 22.625 23.890625 
Q 32.328125 33.6875 34.8125 36.53125 
Q 39.546875 41.84375 41.421875 45.53125 
Q 43.3125 49.21875 43.3125 52.78125 
Q 43.3125 58.59375 39.234375 62.25 
Q 35.15625 65.921875 28.609375 65.921875 
Q 23.96875 65.921875 18.8125 64.3125 
Q 13.671875 62.703125 7.8125 59.421875 
L 7.8125 69.390625 
Q 13.765625 71.78125 18.9375 73 
Q 24.125 74.21875 28.421875 74.21875 
Q 39.75 74.21875 46.484375 68.546875 
Q 53.21875 62.890625 53.21875 53.421875 
Q 53.21875 48.921875 51.53125 44.890625 
Q 49.859375 40.875 45.40625 35.40625 
Q 44.1875 33.984375 37.640625 27.21875 
Q 31.109375 20.453125 19.1875 8.296875 
" id="DejaVuSans-32"/>
      </defs>
      <g transform="translate(146.723214 320.44225)scale(0.2 -0.2)">
       <use xlink:href="#DejaVuSans-32"/>
      </g>
     </g>
    </g>
    <g id="xtick_3">
     <g id="line2d_5">
      <path clip-path="url(#p58c41bb4fa)" d="M 235.371429 298.245375 
L 235.371429 32.133375 
" style="fill:none;stroke:#b0b0b0;stroke-linecap:square;stroke-width:0.8;"/>
     </g>
     <g id="line2d_6">
      <g>
       <use style="stroke:#000000;stroke-width:0.8;" x="235.371429" xlink:href="#mb5b498fb45" y="298.245375"/>
      </g>
     </g>
     <g id="text_3">
      <!-- 4 -->
      <defs>
       <path d="M 37.796875 64.3125 
L 12.890625 25.390625 
L 37.796875 25.390625 
z
M 35.203125 72.90625 
L 47.609375 72.90625 
L 47.609375 25.390625 
L 58.015625 25.390625 
L 58.015625 17.1875 
L 47.609375 17.1875 
L 47.609375 0 
L 37.796875 0 
L 37.796875 17.1875 
L 4.890625 17.1875 
L 4.890625 26.703125 
z
" id="DejaVuSans-34"/>
      </defs>
      <g transform="translate(229.008929 320.44225)scale(0.2 -0.2)">
       <use xlink:href="#DejaVuSans-34"/>
      </g>
     </g>
    </g>
    <g id="xtick_4">
     <g id="line2d_7">
      <path clip-path="url(#p58c41bb4fa)" d="M 317.657143 298.245375 
L 317.657143 32.133375 
" style="fill:none;stroke:#b0b0b0;stroke-linecap:square;stroke-width:0.8;"/>
     </g>
     <g id="line2d_8">
      <g>
       <use style="stroke:#000000;stroke-width:0.8;" x="317.657143" xlink:href="#mb5b498fb45" y="298.245375"/>
      </g>
     </g>
     <g id="text_4">
      <!-- 6 -->
      <defs>
       <path d="M 33.015625 40.375 
Q 26.375 40.375 22.484375 35.828125 
Q 18.609375 31.296875 18.609375 23.390625 
Q 18.609375 15.53125 22.484375 10.953125 
Q 26.375 6.390625 33.015625 6.390625 
Q 39.65625 6.390625 43.53125 10.953125 
Q 47.40625 15.53125 47.40625 23.390625 
Q 47.40625 31.296875 43.53125 35.828125 
Q 39.65625 40.375 33.015625 40.375 
M 52.59375 71.296875 
L 52.59375 62.3125 
Q 48.875 64.0625 45.09375 64.984375 
Q 41.3125 65.921875 37.59375 65.921875 
Q 27.828125 65.921875 22.671875 59.328125 
Q 17.53125 52.734375 16.796875 39.40625 
Q 19.671875 43.65625 24.015625 45.921875 
Q 28.375 48.1875 33.59375 48.1875 
Q 44.578125 48.1875 50.953125 41.515625 
Q 57.328125 34.859375 57.328125 23.390625 
Q 57.328125 12.15625 50.6875 5.359375 
Q 44.046875 -1.421875 33.015625 -1.421875 
Q 20.359375 -1.421875 13.671875 8.265625 
Q 6.984375 17.96875 6.984375 36.375 
Q 6.984375 53.65625 15.1875 63.9375 
Q 23.390625 74.21875 37.203125 74.21875 
Q 40.921875 74.21875 44.703125 73.484375 
Q 48.484375 72.75 52.59375 71.296875 
" id="DejaVuSans-36"/>
      </defs>
      <g transform="translate(311.294643 320.44225)scale(0.2 -0.2)">
       <use xlink:href="#DejaVuSans-36"/>
      </g>
     </g>
    </g>
    <g id="xtick_5">
     <g id="line2d_9">
      <path clip-path="url(#p58c41bb4fa)" d="M 399.942857 298.245375 
L 399.942857 32.133375 
" style="fill:none;stroke:#b0b0b0;stroke-linecap:square;stroke-width:0.8;"/>
     </g>
     <g id="line2d_10">
      <g>
       <use style="stroke:#000000;stroke-width:0.8;" x="399.942857" xlink:href="#mb5b498fb45" y="298.245375"/>
      </g>
     </g>
     <g id="text_5">
      <!-- 8 -->
      <defs>
       <path d="M 31.78125 34.625 
Q 24.75 34.625 20.71875 30.859375 
Q 16.703125 27.09375 16.703125 20.515625 
Q 16.703125 13.921875 20.71875 10.15625 
Q 24.75 6.390625 31.78125 6.390625 
Q 38.8125 6.390625 42.859375 10.171875 
Q 46.921875 13.96875 46.921875 20.515625 
Q 46.921875 27.09375 42.890625 30.859375 
Q 38.875 34.625 31.78125 34.625 
M 21.921875 38.8125 
Q 15.578125 40.375 12.03125 44.71875 
Q 8.5 49.078125 8.5 55.328125 
Q 8.5 64.0625 14.71875 69.140625 
Q 20.953125 74.21875 31.78125 74.21875 
Q 42.671875 74.21875 48.875 69.140625 
Q 55.078125 64.0625 55.078125 55.328125 
Q 55.078125 49.078125 51.53125 44.71875 
Q 48 40.375 41.703125 38.8125 
Q 48.828125 37.15625 52.796875 32.3125 
Q 56.78125 27.484375 56.78125 20.515625 
Q 56.78125 9.90625 50.3125 4.234375 
Q 43.84375 -1.421875 31.78125 -1.421875 
Q 19.734375 -1.421875 13.25 4.234375 
Q 6.78125 9.90625 6.78125 20.515625 
Q 6.78125 27.484375 10.78125 32.3125 
Q 14.796875 37.15625 21.921875 38.8125 
M 18.3125 54.390625 
Q 18.3125 48.734375 21.84375 45.5625 
Q 25.390625 42.390625 31.78125 42.390625 
Q 38.140625 42.390625 41.71875 45.5625 
Q 45.3125 48.734375 45.3125 54.390625 
Q 45.3125 60.0625 41.71875 63.234375 
Q 38.140625 66.40625 31.78125 66.40625 
Q 25.390625 66.40625 21.84375 63.234375 
Q 18.3125 60.0625 18.3125 54.390625 
" id="DejaVuSans-38"/>
      </defs>
      <g transform="translate(393.580357 320.44225)scale(0.2 -0.2)">
       <use xlink:href="#DejaVuSans-38"/>
      </g>
     </g>
    </g>
    <g id="xtick_6">
     <g id="line2d_11">
      <defs>
       <path d="M 0 0 
L 0 2 
" id="m6226f266be" style="stroke:#000000;stroke-width:0.6;"/>
      </defs>
      <g>
       <use style="stroke:#000000;stroke-width:0.6;" x="83.185234" xlink:href="#m6226f266be" y="298.245375"/>
      </g>
     </g>
    </g>
    <g id="xtick_7">
     <g id="line2d_12">
      <g>
       <use style="stroke:#000000;stroke-width:0.6;" x="95.570468" xlink:href="#m6226f266be" y="298.245375"/>
      </g>
     </g>
    </g>
    <g id="xtick_8">
     <g id="line2d_13">
      <g>
       <use style="stroke:#000000;stroke-width:0.6;" x="102.815366" xlink:href="#m6226f266be" y="298.245375"/>
      </g>
     </g>
    </g>
    <g id="xtick_9">
     <g id="line2d_14">
      <g>
       <use style="stroke:#000000;stroke-width:0.6;" x="107.955702" xlink:href="#m6226f266be" y="298.245375"/>
      </g>
     </g>
    </g>
    <g id="xtick_10">
     <g id="line2d_15">
      <g>
       <use style="stroke:#000000;stroke-width:0.6;" x="165.470948" xlink:href="#m6226f266be" y="298.245375"/>
      </g>
     </g>
    </g>
    <g id="xtick_11">
     <g id="line2d_16">
      <g>
       <use style="stroke:#000000;stroke-width:0.6;" x="177.856183" xlink:href="#m6226f266be" y="298.245375"/>
      </g>
     </g>
    </g>
    <g id="xtick_12">
     <g id="line2d_17">
      <g>
       <use style="stroke:#000000;stroke-width:0.6;" x="185.10108" xlink:href="#m6226f266be" y="298.245375"/>
      </g>
     </g>
    </g>
    <g id="xtick_13">
     <g id="line2d_18">
      <g>
       <use style="stroke:#000000;stroke-width:0.6;" x="190.241417" xlink:href="#m6226f266be" y="298.245375"/>
      </g>
     </g>
    </g>
    <g id="xtick_14">
     <g id="line2d_19">
      <g>
       <use style="stroke:#000000;stroke-width:0.6;" x="247.756663" xlink:href="#m6226f266be" y="298.245375"/>
      </g>
     </g>
    </g>
    <g id="xtick_15">
     <g id="line2d_20">
      <g>
       <use style="stroke:#000000;stroke-width:0.6;" x="260.141897" xlink:href="#m6226f266be" y="298.245375"/>
      </g>
     </g>
    </g>
    <g id="xtick_16">
     <g id="line2d_21">
      <g>
       <use style="stroke:#000000;stroke-width:0.6;" x="267.386794" xlink:href="#m6226f266be" y="298.245375"/>
      </g>
     </g>
    </g>
    <g id="xtick_17">
     <g id="line2d_22">
      <g>
       <use style="stroke:#000000;stroke-width:0.6;" x="272.527131" xlink:href="#m6226f266be" y="298.245375"/>
      </g>
     </g>
    </g>
    <g id="xtick_18">
     <g id="line2d_23">
      <g>
       <use style="stroke:#000000;stroke-width:0.6;" x="330.042377" xlink:href="#m6226f266be" y="298.245375"/>
      </g>
     </g>
    </g>
    <g id="xtick_19">
     <g id="line2d_24">
      <g>
       <use style="stroke:#000000;stroke-width:0.6;" x="342.427611" xlink:href="#m6226f266be" y="298.245375"/>
      </g>
     </g>
    </g>
    <g id="xtick_20">
     <g id="line2d_25">
      <g>
       <use style="stroke:#000000;stroke-width:0.6;" x="349.672509" xlink:href="#m6226f266be" y="298.245375"/>
      </g>
     </g>
    </g>
    <g id="xtick_21">
     <g id="line2d_26">
      <g>
       <use style="stroke:#000000;stroke-width:0.6;" x="354.812845" xlink:href="#m6226f266be" y="298.245375"/>
      </g>
     </g>
    </g>
    <g id="xtick_22">
     <g id="line2d_27">
      <g>
       <use style="stroke:#000000;stroke-width:0.6;" x="412.328091" xlink:href="#m6226f266be" y="298.245375"/>
      </g>
     </g>
    </g>
    <g id="xtick_23">
     <g id="line2d_28">
      <g>
       <use style="stroke:#000000;stroke-width:0.6;" x="424.713325" xlink:href="#m6226f266be" y="298.245375"/>
      </g>
     </g>
    </g>
    <g id="text_6">
     <!-- log10 of (# f-evals / dimension) -->
     <defs>
      <path d="M 9.421875 75.984375 
L 18.40625 75.984375 
L 18.40625 0 
L 9.421875 0 
z
" id="DejaVuSans-6c"/>
      <path d="M 30.609375 48.390625 
Q 23.390625 48.390625 19.1875 42.75 
Q 14.984375 37.109375 14.984375 27.296875 
Q 14.984375 17.484375 19.15625 11.84375 
Q 23.34375 6.203125 30.609375 6.203125 
Q 37.796875 6.203125 41.984375 11.859375 
Q 46.1875 17.53125 46.1875 27.296875 
Q 46.1875 37.015625 41.984375 42.703125 
Q 37.796875 48.390625 30.609375 48.390625 
M 30.609375 56 
Q 42.328125 56 49.015625 48.375 
Q 55.71875 40.765625 55.71875 27.296875 
Q 55.71875 13.875 49.015625 6.21875 
Q 42.328125 -1.421875 30.609375 -1.421875 
Q 18.84375 -1.421875 12.171875 6.21875 
Q 5.515625 13.875 5.515625 27.296875 
Q 5.515625 40.765625 12.171875 48.375 
Q 18.84375 56 30.609375 56 
" id="DejaVuSans-6f"/>
      <path d="M 45.40625 27.984375 
Q 45.40625 37.75 41.375 43.109375 
Q 37.359375 48.484375 30.078125 48.484375 
Q 22.859375 48.484375 18.828125 43.109375 
Q 14.796875 37.75 14.796875 27.984375 
Q 14.796875 18.265625 18.828125 12.890625 
Q 22.859375 7.515625 30.078125 7.515625 
Q 37.359375 7.515625 41.375 12.890625 
Q 45.40625 18.265625 45.40625 27.984375 
M 54.390625 6.78125 
Q 54.390625 -7.171875 48.1875 -13.984375 
Q 42 -20.796875 29.203125 -20.796875 
Q 24.46875 -20.796875 20.265625 -20.09375 
Q 16.0625 -19.390625 12.109375 -17.921875 
L 12.109375 -9.1875 
Q 16.0625 -11.328125 19.921875 -12.34375 
Q 23.78125 -13.375 27.78125 -13.375 
Q 36.625 -13.375 41.015625 -8.765625 
Q 45.40625 -4.15625 45.40625 5.171875 
L 45.40625 9.625 
Q 42.625 4.78125 38.28125 2.390625 
Q 33.9375 0 27.875 0 
Q 17.828125 0 11.671875 7.65625 
Q 5.515625 15.328125 5.515625 27.984375 
Q 5.515625 40.671875 11.671875 48.328125 
Q 17.828125 56 27.875 56 
Q 33.9375 56 38.28125 53.609375 
Q 42.625 51.21875 45.40625 46.390625 
L 45.40625 54.6875 
L 54.390625 54.6875 
z
" id="DejaVuSans-67"/>
      <path d="M 12.40625 8.296875 
L 28.515625 8.296875 
L 28.515625 63.921875 
L 10.984375 60.40625 
L 10.984375 69.390625 
L 28.421875 72.90625 
L 38.28125 72.90625 
L 38.28125 8.296875 
L 54.390625 8.296875 
L 54.390625 0 
L 12.40625 0 
z
" id="DejaVuSans-31"/>
      <path id="DejaVuSans-20"/>
      <path d="M 37.109375 75.984375 
L 37.109375 68.5 
L 28.515625 68.5 
Q 23.6875 68.5 21.796875 66.546875 
Q 19.921875 64.59375 19.921875 59.515625 
L 19.921875 54.6875 
L 34.71875 54.6875 
L 34.71875 47.703125 
L 19.921875 47.703125 
L 19.921875 0 
L 10.890625 0 
L 10.890625 47.703125 
L 2.296875 47.703125 
L 2.296875 54.6875 
L 10.890625 54.6875 
L 10.890625 58.5 
Q 10.890625 67.625 15.140625 71.796875 
Q 19.390625 75.984375 28.609375 75.984375 
z
" id="DejaVuSans-66"/>
      <path d="M 31 75.875 
Q 24.46875 64.65625 21.28125 53.65625 
Q 18.109375 42.671875 18.109375 31.390625 
Q 18.109375 20.125 21.3125 9.0625 
Q 24.515625 -2 31 -13.1875 
L 23.1875 -13.1875 
Q 15.875 -1.703125 12.234375 9.375 
Q 8.59375 20.453125 8.59375 31.390625 
Q 8.59375 42.28125 12.203125 53.3125 
Q 15.828125 64.359375 23.1875 75.875 
z
" id="DejaVuSans-28"/>
      <path d="M 51.125 44 
L 36.921875 44 
L 32.8125 27.6875 
L 47.125 27.6875 
z
M 43.796875 71.78125 
L 38.71875 51.515625 
L 52.984375 51.515625 
L 58.109375 71.78125 
L 65.921875 71.78125 
L 60.890625 51.515625 
L 76.125 51.515625 
L 76.125 44 
L 58.984375 44 
L 54.984375 27.6875 
L 70.515625 27.6875 
L 70.515625 20.21875 
L 53.078125 20.21875 
L 48 0 
L 40.1875 0 
L 45.21875 20.21875 
L 30.90625 20.21875 
L 25.875 0 
L 18.015625 0 
L 23.09375 20.21875 
L 7.71875 20.21875 
L 7.71875 27.6875 
L 24.90625 27.6875 
L 29 44 
L 13.28125 44 
L 13.28125 51.515625 
L 30.90625 51.515625 
L 35.890625 71.78125 
z
" id="DejaVuSans-23"/>
      <path d="M 4.890625 31.390625 
L 31.203125 31.390625 
L 31.203125 23.390625 
L 4.890625 23.390625 
z
" id="DejaVuSans-2d"/>
      <path d="M 56.203125 29.59375 
L 56.203125 25.203125 
L 14.890625 25.203125 
Q 15.484375 15.921875 20.484375 11.0625 
Q 25.484375 6.203125 34.421875 6.203125 
Q 39.59375 6.203125 44.453125 7.46875 
Q 49.3125 8.734375 54.109375 11.28125 
L 54.109375 2.78125 
Q 49.265625 0.734375 44.1875 -0.34375 
Q 39.109375 -1.421875 33.890625 -1.421875 
Q 20.796875 -1.421875 13.15625 6.1875 
Q 5.515625 13.8125 5.515625 26.8125 
Q 5.515625 40.234375 12.765625 48.109375 
Q 20.015625 56 32.328125 56 
Q 43.359375 56 49.78125 48.890625 
Q 56.203125 41.796875 56.203125 29.59375 
M 47.21875 32.234375 
Q 47.125 39.59375 43.09375 43.984375 
Q 39.0625 48.390625 32.421875 48.390625 
Q 24.90625 48.390625 20.390625 44.140625 
Q 15.875 39.890625 15.1875 32.171875 
z
" id="DejaVuSans-65"/>
      <path d="M 2.984375 54.6875 
L 12.5 54.6875 
L 29.59375 8.796875 
L 46.6875 54.6875 
L 56.203125 54.6875 
L 35.6875 0 
L 23.484375 0 
z
" id="DejaVuSans-76"/>
      <path d="M 34.28125 27.484375 
Q 23.390625 27.484375 19.1875 25 
Q 14.984375 22.515625 14.984375 16.5 
Q 14.984375 11.71875 18.140625 8.90625 
Q 21.296875 6.109375 26.703125 6.109375 
Q 34.1875 6.109375 38.703125 11.40625 
Q 43.21875 16.703125 43.21875 25.484375 
L 43.21875 27.484375 
z
M 52.203125 31.203125 
L 52.203125 0 
L 43.21875 0 
L 43.21875 8.296875 
Q 40.140625 3.328125 35.546875 0.953125 
Q 30.953125 -1.421875 24.3125 -1.421875 
Q 15.921875 -1.421875 10.953125 3.296875 
Q 6 8.015625 6 15.921875 
Q 6 25.140625 12.171875 29.828125 
Q 18.359375 34.515625 30.609375 34.515625 
L 43.21875 34.515625 
L 43.21875 35.40625 
Q 43.21875 41.609375 39.140625 45 
Q 35.0625 48.390625 27.6875 48.390625 
Q 23 48.390625 18.546875 47.265625 
Q 14.109375 46.140625 10.015625 43.890625 
L 10.015625 52.203125 
Q 14.9375 54.109375 19.578125 55.046875 
Q 24.21875 56 28.609375 56 
Q 40.484375 56 46.34375 49.84375 
Q 52.203125 43.703125 52.203125 31.203125 
" id="DejaVuSans-61"/>
      <path d="M 44.28125 53.078125 
L 44.28125 44.578125 
Q 40.484375 46.53125 36.375 47.5 
Q 32.28125 48.484375 27.875 48.484375 
Q 21.1875 48.484375 17.84375 46.4375 
Q 14.5 44.390625 14.5 40.28125 
Q 14.5 37.15625 16.890625 35.375 
Q 19.28125 33.59375 26.515625 31.984375 
L 29.59375 31.296875 
Q 39.15625 29.25 43.1875 25.515625 
Q 47.21875 21.78125 47.21875 15.09375 
Q 47.21875 7.46875 41.1875 3.015625 
Q 35.15625 -1.421875 24.609375 -1.421875 
Q 20.21875 -1.421875 15.453125 -0.5625 
Q 10.6875 0.296875 5.421875 2 
L 5.421875 11.28125 
Q 10.40625 8.6875 15.234375 7.390625 
Q 20.0625 6.109375 24.8125 6.109375 
Q 31.15625 6.109375 34.5625 8.28125 
Q 37.984375 10.453125 37.984375 14.40625 
Q 37.984375 18.0625 35.515625 20.015625 
Q 33.0625 21.96875 24.703125 23.78125 
L 21.578125 24.515625 
Q 13.234375 26.265625 9.515625 29.90625 
Q 5.8125 33.546875 5.8125 39.890625 
Q 5.8125 47.609375 11.28125 51.796875 
Q 16.75 56 26.8125 56 
Q 31.78125 56 36.171875 55.265625 
Q 40.578125 54.546875 44.28125 53.078125 
" id="DejaVuSans-73"/>
      <path d="M 25.390625 72.90625 
L 33.6875 72.90625 
L 8.296875 -9.28125 
L 0 -9.28125 
z
" id="DejaVuSans-2f"/>
      <path d="M 45.40625 46.390625 
L 45.40625 75.984375 
L 54.390625 75.984375 
L 54.390625 0 
L 45.40625 0 
L 45.40625 8.203125 
Q 42.578125 3.328125 38.25 0.953125 
Q 33.9375 -1.421875 27.875 -1.421875 
Q 17.96875 -1.421875 11.734375 6.484375 
Q 5.515625 14.40625 5.515625 27.296875 
Q 5.515625 40.1875 11.734375 48.09375 
Q 17.96875 56 27.875 56 
Q 33.9375 56 38.25 53.625 
Q 42.578125 51.265625 45.40625 46.390625 
M 14.796875 27.296875 
Q 14.796875 17.390625 18.875 11.75 
Q 22.953125 6.109375 30.078125 6.109375 
Q 37.203125 6.109375 41.296875 11.75 
Q 45.40625 17.390625 45.40625 27.296875 
Q 45.40625 37.203125 41.296875 42.84375 
Q 37.203125 48.484375 30.078125 48.484375 
Q 22.953125 48.484375 18.875 42.84375 
Q 14.796875 37.203125 14.796875 27.296875 
" id="DejaVuSans-64"/>
      <path d="M 9.421875 54.6875 
L 18.40625 54.6875 
L 18.40625 0 
L 9.421875 0 
z
M 9.421875 75.984375 
L 18.40625 75.984375 
L 18.40625 64.59375 
L 9.421875 64.59375 
z
" id="DejaVuSans-69"/>
      <path d="M 52 44.1875 
Q 55.375 50.25 60.0625 53.125 
Q 64.75 56 71.09375 56 
Q 79.640625 56 84.28125 50.015625 
Q 88.921875 44.046875 88.921875 33.015625 
L 88.921875 0 
L 79.890625 0 
L 79.890625 32.71875 
Q 79.890625 40.578125 77.09375 44.375 
Q 74.3125 48.1875 68.609375 48.1875 
Q 61.625 48.1875 57.5625 43.546875 
Q 53.515625 38.921875 53.515625 30.90625 
L 53.515625 0 
L 44.484375 0 
L 44.484375 32.71875 
Q 44.484375 40.625 41.703125 44.40625 
Q 38.921875 48.1875 33.109375 48.1875 
Q 26.21875 48.1875 22.15625 43.53125 
Q 18.109375 38.875 18.109375 30.90625 
L 18.109375 0 
L 9.078125 0 
L 9.078125 54.6875 
L 18.109375 54.6875 
L 18.109375 46.1875 
Q 21.1875 51.21875 25.484375 53.609375 
Q 29.78125 56 35.6875 56 
Q 41.65625 56 45.828125 52.96875 
Q 50 49.953125 52 44.1875 
" id="DejaVuSans-6d"/>
      <path d="M 54.890625 33.015625 
L 54.890625 0 
L 45.90625 0 
L 45.90625 32.71875 
Q 45.90625 40.484375 42.875 44.328125 
Q 39.84375 48.1875 33.796875 48.1875 
Q 26.515625 48.1875 22.3125 43.546875 
Q 18.109375 38.921875 18.109375 30.90625 
L 18.109375 0 
L 9.078125 0 
L 9.078125 54.6875 
L 18.109375 54.6875 
L 18.109375 46.1875 
Q 21.34375 51.125 25.703125 53.5625 
Q 30.078125 56 35.796875 56 
Q 45.21875 56 50.046875 50.171875 
Q 54.890625 44.34375 54.890625 33.015625 
" id="DejaVuSans-6e"/>
      <path d="M 8.015625 75.875 
L 15.828125 75.875 
Q 23.140625 64.359375 26.78125 53.3125 
Q 30.421875 42.28125 30.421875 31.390625 
Q 30.421875 20.453125 26.78125 9.375 
Q 23.140625 -1.703125 15.828125 -13.1875 
L 8.015625 -13.1875 
Q 14.5 -2 17.703125 9.0625 
Q 20.90625 20.125 20.90625 31.390625 
Q 20.90625 42.671875 17.703125 53.65625 
Q 14.5 64.65625 8.015625 75.875 
" id="DejaVuSans-29"/>
     </defs>
     <g transform="translate(107.015156 342.278812)scale(0.18 -0.18)">
      <use xlink:href="#DejaVuSans-6c"/>
      <use x="27.783203" xlink:href="#DejaVuSans-6f"/>
      <use x="88.964844" xlink:href="#DejaVuSans-67"/>
      <use x="152.441406" xlink:href="#DejaVuSans-31"/>
      <use x="216.064453" xlink:href="#DejaVuSans-30"/>
      <use x="279.6875" xlink:href="#DejaVuSans-20"/>
      <use x="311.474609" xlink:href="#DejaVuSans-6f"/>
      <use x="372.65625" xlink:href="#DejaVuSans-66"/>
      <use x="407.861328" xlink:href="#DejaVuSans-20"/>
      <use x="439.648438" xlink:href="#DejaVuSans-28"/>
      <use x="478.662109" xlink:href="#DejaVuSans-23"/>
      <use x="562.451172" xlink:href="#DejaVuSans-20"/>
      <use x="594.238281" xlink:href="#DejaVuSans-66"/>
      <use x="629.365234" xlink:href="#DejaVuSans-2d"/>
      <use x="665.449219" xlink:href="#DejaVuSans-65"/>
      <use x="726.972656" xlink:href="#DejaVuSans-76"/>
      <use x="786.152344" xlink:href="#DejaVuSans-61"/>
      <use x="847.431641" xlink:href="#DejaVuSans-6c"/>
      <use x="875.214844" xlink:href="#DejaVuSans-73"/>
      <use x="927.314453" xlink:href="#DejaVuSans-20"/>
      <use x="959.101562" xlink:href="#DejaVuSans-2f"/>
      <use x="992.792969" xlink:href="#DejaVuSans-20"/>
      <use x="1024.580078" xlink:href="#DejaVuSans-64"/>
      <use x="1088.056641" xlink:href="#DejaVuSans-69"/>
      <use x="1115.839844" xlink:href="#DejaVuSans-6d"/>
      <use x="1213.251953" xlink:href="#DejaVuSans-65"/>
      <use x="1274.775391" xlink:href="#DejaVuSans-6e"/>
      <use x="1338.154297" xlink:href="#DejaVuSans-73"/>
      <use x="1390.253906" xlink:href="#DejaVuSans-69"/>
      <use x="1418.037109" xlink:href="#DejaVuSans-6f"/>
      <use x="1479.21875" xlink:href="#DejaVuSans-6e"/>
      <use x="1542.597656" xlink:href="#DejaVuSans-29"/>
     </g>
    </g>
   </g>
   <g id="matplotlib.axis_2">
    <g id="ytick_1">
     <g id="line2d_29">
      <path clip-path="url(#p58c41bb4fa)" d="M 70.8 298.245375 
L 427.92 298.245375 
" style="fill:none;stroke:#b0b0b0;stroke-linecap:square;stroke-width:0.8;"/>
     </g>
     <g id="line2d_30">
      <defs>
       <path d="M 0 0 
L -3.5 0 
" id="m0873d5eae8" style="stroke:#000000;stroke-width:0.8;"/>
      </defs>
      <g>
       <use style="stroke:#000000;stroke-width:0.8;" x="70.8" xlink:href="#m0873d5eae8" y="298.245375"/>
      </g>
     </g>
     <g id="text_7">
      <!-- 0.0 -->
      <defs>
       <path d="M 10.6875 12.40625 
L 21 12.40625 
L 21 0 
L 10.6875 0 
z
" id="DejaVuSans-2e"/>
      </defs>
      <g transform="translate(31.99375 305.843812)scale(0.2 -0.2)">
       <use xlink:href="#DejaVuSans-30"/>
       <use x="63.623047" xlink:href="#DejaVuSans-2e"/>
       <use x="95.410156" xlink:href="#DejaVuSans-30"/>
      </g>
     </g>
    </g>
    <g id="ytick_2">
     <g id="line2d_31">
      <path clip-path="url(#p58c41bb4fa)" d="M 70.8 245.549929 
L 427.92 245.549929 
" style="fill:none;stroke:#b0b0b0;stroke-linecap:square;stroke-width:0.8;"/>
     </g>
     <g id="line2d_32">
      <g>
       <use style="stroke:#000000;stroke-width:0.8;" x="70.8" xlink:href="#m0873d5eae8" y="245.549929"/>
      </g>
     </g>
     <g id="text_8">
      <!-- 0.2 -->
      <g transform="translate(31.99375 253.148367)scale(0.2 -0.2)">
       <use xlink:href="#DejaVuSans-30"/>
       <use x="63.623047" xlink:href="#DejaVuSans-2e"/>
       <use x="95.410156" xlink:href="#DejaVuSans-32"/>
      </g>
     </g>
    </g>
    <g id="ytick_3">
     <g id="line2d_33">
      <path clip-path="url(#p58c41bb4fa)" d="M 70.8 192.854484 
L 427.92 192.854484 
" style="fill:none;stroke:#b0b0b0;stroke-linecap:square;stroke-width:0.8;"/>
     </g>
     <g id="line2d_34">
      <g>
       <use style="stroke:#000000;stroke-width:0.8;" x="70.8" xlink:href="#m0873d5eae8" y="192.854484"/>
      </g>
     </g>
     <g id="text_9">
      <!-- 0.4 -->
      <g transform="translate(31.99375 200.452921)scale(0.2 -0.2)">
       <use xlink:href="#DejaVuSans-30"/>
       <use x="63.623047" xlink:href="#DejaVuSans-2e"/>
       <use x="95.410156" xlink:href="#DejaVuSans-34"/>
      </g>
     </g>
    </g>
    <g id="ytick_4">
     <g id="line2d_35">
      <path clip-path="url(#p58c41bb4fa)" d="M 70.8 140.159038 
L 427.92 140.159038 
" style="fill:none;stroke:#b0b0b0;stroke-linecap:square;stroke-width:0.8;"/>
     </g>
     <g id="line2d_36">
      <g>
       <use style="stroke:#000000;stroke-width:0.8;" x="70.8" xlink:href="#m0873d5eae8" y="140.159038"/>
      </g>
     </g>
     <g id="text_10">
      <!-- 0.6 -->
      <g transform="translate(31.99375 147.757476)scale(0.2 -0.2)">
       <use xlink:href="#DejaVuSans-30"/>
       <use x="63.623047" xlink:href="#DejaVuSans-2e"/>
       <use x="95.410156" xlink:href="#DejaVuSans-36"/>
      </g>
     </g>
    </g>
    <g id="ytick_5">
     <g id="line2d_37">
      <path clip-path="url(#p58c41bb4fa)" d="M 70.8 87.463593 
L 427.92 87.463593 
" style="fill:none;stroke:#b0b0b0;stroke-linecap:square;stroke-width:0.8;"/>
     </g>
     <g id="line2d_38">
      <g>
       <use style="stroke:#000000;stroke-width:0.8;" x="70.8" xlink:href="#m0873d5eae8" y="87.463593"/>
      </g>
     </g>
     <g id="text_11">
      <!-- 0.8 -->
      <g transform="translate(31.99375 95.06203)scale(0.2 -0.2)">
       <use xlink:href="#DejaVuSans-30"/>
       <use x="63.623047" xlink:href="#DejaVuSans-2e"/>
       <use x="95.410156" xlink:href="#DejaVuSans-38"/>
      </g>
     </g>
    </g>
    <g id="ytick_6">
     <g id="line2d_39">
      <path clip-path="url(#p58c41bb4fa)" d="M 70.8 34.768147 
L 427.92 34.768147 
" style="fill:none;stroke:#b0b0b0;stroke-linecap:square;stroke-width:0.8;"/>
     </g>
     <g id="line2d_40">
      <g>
       <use style="stroke:#000000;stroke-width:0.8;" x="70.8" xlink:href="#m0873d5eae8" y="34.768147"/>
      </g>
     </g>
     <g id="text_12">
      <!-- 1.0 -->
      <g transform="translate(31.99375 42.366585)scale(0.2 -0.2)">
       <use xlink:href="#DejaVuSans-31"/>
       <use x="63.623047" xlink:href="#DejaVuSans-2e"/>
       <use x="95.410156" xlink:href="#DejaVuSans-30"/>
      </g>
     </g>
    </g>
    <g id="text_13">
     <!-- Proportion of function+target pairs -->
     <defs>
      <path d="M 19.671875 64.796875 
L 19.671875 37.40625 
L 32.078125 37.40625 
Q 38.96875 37.40625 42.71875 40.96875 
Q 46.484375 44.53125 46.484375 51.125 
Q 46.484375 57.671875 42.71875 61.234375 
Q 38.96875 64.796875 32.078125 64.796875 
z
M 9.8125 72.90625 
L 32.078125 72.90625 
Q 44.34375 72.90625 50.609375 67.359375 
Q 56.890625 61.8125 56.890625 51.125 
Q 56.890625 40.328125 50.609375 34.8125 
Q 44.34375 29.296875 32.078125 29.296875 
L 19.671875 29.296875 
L 19.671875 0 
L 9.8125 0 
z
" id="DejaVuSans-50"/>
      <path d="M 41.109375 46.296875 
Q 39.59375 47.171875 37.8125 47.578125 
Q 36.03125 48 33.890625 48 
Q 26.265625 48 22.1875 43.046875 
Q 18.109375 38.09375 18.109375 28.8125 
L 18.109375 0 
L 9.078125 0 
L 9.078125 54.6875 
L 18.109375 54.6875 
L 18.109375 46.1875 
Q 20.953125 51.171875 25.484375 53.578125 
Q 30.03125 56 36.53125 56 
Q 37.453125 56 38.578125 55.875 
Q 39.703125 55.765625 41.0625 55.515625 
z
" id="DejaVuSans-72"/>
      <path d="M 18.109375 8.203125 
L 18.109375 -20.796875 
L 9.078125 -20.796875 
L 9.078125 54.6875 
L 18.109375 54.6875 
L 18.109375 46.390625 
Q 20.953125 51.265625 25.265625 53.625 
Q 29.59375 56 35.59375 56 
Q 45.5625 56 51.78125 48.09375 
Q 58.015625 40.1875 58.015625 27.296875 
Q 58.015625 14.40625 51.78125 6.484375 
Q 45.5625 -1.421875 35.59375 -1.421875 
Q 29.59375 -1.421875 25.265625 0.953125 
Q 20.953125 3.328125 18.109375 8.203125 
M 48.6875 27.296875 
Q 48.6875 37.203125 44.609375 42.84375 
Q 40.53125 48.484375 33.40625 48.484375 
Q 26.265625 48.484375 22.1875 42.84375 
Q 18.109375 37.203125 18.109375 27.296875 
Q 18.109375 17.390625 22.1875 11.75 
Q 26.265625 6.109375 33.40625 6.109375 
Q 40.53125 6.109375 44.609375 11.75 
Q 48.6875 17.390625 48.6875 27.296875 
" id="DejaVuSans-70"/>
      <path d="M 18.3125 70.21875 
L 18.3125 54.6875 
L 36.8125 54.6875 
L 36.8125 47.703125 
L 18.3125 47.703125 
L 18.3125 18.015625 
Q 18.3125 11.328125 20.140625 9.421875 
Q 21.96875 7.515625 27.59375 7.515625 
L 36.8125 7.515625 
L 36.8125 0 
L 27.59375 0 
Q 17.1875 0 13.234375 3.875 
Q 9.28125 7.765625 9.28125 18.015625 
L 9.28125 47.703125 
L 2.6875 47.703125 
L 2.6875 54.6875 
L 9.28125 54.6875 
L 9.28125 70.21875 
z
" id="DejaVuSans-74"/>
      <path d="M 8.5 21.578125 
L 8.5 54.6875 
L 17.484375 54.6875 
L 17.484375 21.921875 
Q 17.484375 14.15625 20.5 10.265625 
Q 23.53125 6.390625 29.59375 6.390625 
Q 36.859375 6.390625 41.078125 11.03125 
Q 45.3125 15.671875 45.3125 23.6875 
L 45.3125 54.6875 
L 54.296875 54.6875 
L 54.296875 0 
L 45.3125 0 
L 45.3125 8.40625 
Q 42.046875 3.421875 37.71875 1 
Q 33.40625 -1.421875 27.6875 -1.421875 
Q 18.265625 -1.421875 13.375 4.4375 
Q 8.5 10.296875 8.5 21.578125 
M 31.109375 56 
z
" id="DejaVuSans-75"/>
      <path d="M 48.78125 52.59375 
L 48.78125 44.1875 
Q 44.96875 46.296875 41.140625 47.34375 
Q 37.3125 48.390625 33.40625 48.390625 
Q 24.65625 48.390625 19.8125 42.84375 
Q 14.984375 37.3125 14.984375 27.296875 
Q 14.984375 17.28125 19.8125 11.734375 
Q 24.65625 6.203125 33.40625 6.203125 
Q 37.3125 6.203125 41.140625 7.25 
Q 44.96875 8.296875 48.78125 10.40625 
L 48.78125 2.09375 
Q 45.015625 0.34375 40.984375 -0.53125 
Q 36.96875 -1.421875 32.421875 -1.421875 
Q 20.0625 -1.421875 12.78125 6.34375 
Q 5.515625 14.109375 5.515625 27.296875 
Q 5.515625 40.671875 12.859375 48.328125 
Q 20.21875 56 33.015625 56 
Q 37.15625 56 41.109375 55.140625 
Q 45.0625 54.296875 48.78125 52.59375 
" id="DejaVuSans-63"/>
      <path d="M 46 62.703125 
L 46 35.5 
L 73.1875 35.5 
L 73.1875 27.203125 
L 46 27.203125 
L 46 0 
L 37.796875 0 
L 37.796875 27.203125 
L 10.59375 27.203125 
L 10.59375 35.5 
L 37.796875 35.5 
L 37.796875 62.703125 
z
" id="DejaVuSans-2b"/>
     </defs>
     <g transform="translate(24.250312 323.17875)rotate(-90)scale(0.18 -0.18)">
      <use xlink:href="#DejaVuSans-50"/>
      <use x="60.287109" xlink:href="#DejaVuSans-72"/>
      <use x="101.369141" xlink:href="#DejaVuSans-6f"/>
      <use x="162.550781" xlink:href="#DejaVuSans-70"/>
      <use x="226.027344" xlink:href="#DejaVuSans-6f"/>
      <use x="287.208984" xlink:href="#DejaVuSans-72"/>
      <use x="328.322266" xlink:href="#DejaVuSans-74"/>
      <use x="367.53125" xlink:href="#DejaVuSans-69"/>
      <use x="395.314453" xlink:href="#DejaVuSans-6f"/>
      <use x="456.496094" xlink:href="#DejaVuSans-6e"/>
      <use x="519.875" xlink:href="#DejaVuSans-20"/>
      <use x="551.662109" xlink:href="#DejaVuSans-6f"/>
      <use x="612.84375" xlink:href="#DejaVuSans-66"/>
      <use x="648.048828" xlink:href="#DejaVuSans-20"/>
      <use x="679.835938" xlink:href="#DejaVuSans-66"/>
      <use x="715.041016" xlink:href="#DejaVuSans-75"/>
      <use x="778.419922" xlink:href="#DejaVuSans-6e"/>
      <use x="841.798828" xlink:href="#DejaVuSans-63"/>
      <use x="896.779297" xlink:href="#DejaVuSans-74"/>
      <use x="935.988281" xlink:href="#DejaVuSans-69"/>
      <use x="963.771484" xlink:href="#DejaVuSans-6f"/>
      <use x="1024.953125" xlink:href="#DejaVuSans-6e"/>
      <use x="1088.332031" xlink:href="#DejaVuSans-2b"/>
      <use x="1172.121094" xlink:href="#DejaVuSans-74"/>
      <use x="1211.330078" xlink:href="#DejaVuSans-61"/>
      <use x="1272.609375" xlink:href="#DejaVuSans-72"/>
      <use x="1313.707031" xlink:href="#DejaVuSans-67"/>
      <use x="1377.183594" xlink:href="#DejaVuSans-65"/>
      <use x="1438.707031" xlink:href="#DejaVuSans-74"/>
      <use x="1477.916016" xlink:href="#DejaVuSans-20"/>
      <use x="1509.703125" xlink:href="#DejaVuSans-70"/>
      <use x="1573.179688" xlink:href="#DejaVuSans-61"/>
      <use x="1634.458984" xlink:href="#DejaVuSans-69"/>
      <use x="1662.242188" xlink:href="#DejaVuSans-72"/>
      <use x="1703.355469" xlink:href="#DejaVuSans-73"/>
     </g>
    </g>
   </g>
   <g id="line2d_41">
    <defs>
     <path d="M 0 1.5 
C 0.397805 1.5 0.77937 1.341951 1.06066 1.06066 
C 1.341951 0.77937 1.5 0.397805 1.5 0 
C 1.5 -0.397805 1.341951 -0.77937 1.06066 -1.06066 
C 0.77937 -1.341951 0.397805 -1.5 0 -1.5 
C -0.397805 -1.5 -0.77937 -1.341951 -1.06066 -1.06066 
C -1.341951 -0.77937 -1.5 -0.397805 -1.5 0 
C -1.5 0.397805 -1.341951 0.77937 -1.06066 1.06066 
C -0.77937 1.341951 -0.397805 1.5 0 1.5 
z
" id="m3ef65182bf" style="stroke:#00bfbf;"/>
    </defs>
    <g>
     <use style="fill:#00bfbf;stroke:#00bfbf;" x="238.404412" xlink:href="#m3ef65182bf" y="34.768147"/>
     <use style="fill:#00bfbf;stroke:#00bfbf;" x="238.404412" xlink:href="#m3ef65182bf" y="34.768147"/>
    </g>
   </g>
   <g id="line2d_42">
    <path d="M 58.414766 298.245375 
L 58.414766 232.634379 
L 153.085714 232.634379 
L 153.085714 227.984781 
L 160.330612 227.984781 
L 160.330612 222.818561 
L 165.470948 222.818561 
L 165.470948 222.301939 
L 169.458103 222.301939 
L 169.458103 221.268695 
L 172.715846 221.268695 
L 172.715846 219.202207 
L 179.960743 219.202207 
L 179.960743 218.168963 
L 183.546351 218.168963 
L 183.546351 217.135719 
L 185.10108 217.135719 
L 185.10108 216.102475 
L 186.531292 216.102475 
L 186.531292 213.519365 
L 187.855462 213.519365 
L 187.855462 211.969498 
L 192.345978 211.969498 
L 192.345978 210.936254 
L 193.312057 210.936254 
L 193.312057 210.419632 
L 195.10036 210.419632 
L 195.10036 209.386388 
L 200.240696 209.386388 
L 200.240696 208.353144 
L 200.867712 208.353144 
L 200.867712 206.803278 
L 205.22078 206.803278 
L 205.22078 205.770034 
L 206.613806 205.770034 
L 206.613806 205.253412 
L 209.871548 205.253412 
L 209.871548 204.73679 
L 210.239976 204.73679 
L 210.239976 203.703546 
L 210.954796 203.703546 
L 210.954796 203.186924 
L 211.301761 203.186924 
L 211.301761 200.087192 
L 211.642116 200.087192 
L 211.642116 195.954216 
L 212.303974 195.954216 
L 212.303974 193.887728 
L 212.62593 193.887728 
L 212.62593 193.371106 
L 212.942189 193.371106 
L 212.942189 188.721508 
L 213.252946 188.721508 
L 213.252946 180.972178 
L 213.558392 180.972178 
L 213.558392 173.739469 
L 213.858703 173.739469 
L 213.858703 172.706225 
L 214.154051 172.706225 
L 214.154051 171.156359 
L 214.730491 171.156359 
L 214.730491 170.123115 
L 215.011885 170.123115 
L 215.011885 169.606493 
L 215.288915 169.606493 
L 215.288915 161.857163 
L 216.095133 161.857163 
L 216.095133 159.274053 
L 216.355986 159.274053 
L 216.355986 153.591211 
L 216.613085 153.591211 
L 216.613085 152.557967 
L 218.546658 152.557967 
L 218.546658 152.041345 
L 218.774281 152.041345 
L 218.774281 149.974857 
L 218.99904 149.974857 
L 218.99904 145.841881 
L 219.221007 145.841881 
L 219.221007 145.325259 
L 219.44025 145.325259 
L 219.44025 143.25877 
L 219.656836 143.25877 
L 219.656836 134.476196 
L 220.082287 134.476196 
L 220.082287 129.826598 
L 220.291274 129.826598 
L 220.291274 129.309976 
L 220.497844 129.309976 
L 220.497844 126.726866 
L 220.702053 126.726866 
L 220.702053 124.660378 
L 220.903955 124.660378 
L 220.903955 124.143756 
L 221.103601 124.143756 
L 221.103601 123.627134 
L 221.30104 123.627134 
L 221.30104 122.077268 
L 221.496322 122.077268 
L 221.496322 117.42767 
L 221.689493 117.42767 
L 221.689493 116.394426 
L 221.880598 116.394426 
L 221.880598 112.26145 
L 222.06968 112.26145 
L 222.06968 108.128473 
L 222.256782 108.128473 
L 222.256782 103.995497 
L 222.441946 103.995497 
L 222.441946 102.445631 
L 222.62521 102.445631 
L 222.62521 92.113191 
L 222.806614 92.113191 
L 222.806614 89.013459 
L 222.986194 89.013459 
L 222.986194 87.463593 
L 223.163988 87.463593 
L 223.163988 85.397105 
L 223.34003 85.397105 
L 223.34003 84.363861 
L 223.514355 84.363861 
L 223.514355 83.330617 
L 223.686995 83.330617 
L 223.686995 81.780751 
L 224.02735 81.780751 
L 224.02735 81.264129 
L 224.850911 81.264129 
L 224.850911 80.747507 
L 225.483477 80.747507 
L 225.483477 80.230885 
L 225.943626 80.230885 
L 225.943626 78.681019 
L 226.243937 78.681019 
L 226.243937 76.097908 
L 226.685148 76.097908 
L 226.685148 74.03142 
L 226.82983 74.03142 
L 226.82983 70.415066 
L 227.536171 70.415066 
L 227.536171 68.8652 
L 228.348498 68.8652 
L 228.348498 68.348578 
L 228.480367 68.348578 
L 228.480367 66.798712 
L 228.611269 66.798712 
L 228.611269 63.69898 
L 228.74122 63.69898 
L 228.74122 62.665736 
L 228.870232 62.665736 
L 228.870232 61.632492 
L 229.125495 61.632492 
L 229.125495 61.11587 
L 229.991248 61.11587 
L 229.991248 60.082626 
L 230.584928 60.082626 
L 230.584928 59.566004 
L 230.816984 59.566004 
L 230.816984 59.049382 
L 231.272248 59.049382 
L 231.272248 58.53276 
L 232.04207 58.53276 
L 232.04207 57.499516 
L 232.362105 57.499516 
L 232.467522 55.94965 
L 232.780091 55.94965 
L 232.780091 54.916406 
L 233.188523 54.916406 
L 233.188523 53.883162 
L 233.587827 53.883162 
L 233.686274 52.849918 
L 233.784182 52.849918 
L 233.784182 50.78343 
L 233.978403 50.78343 
L 234.074727 48.716942 
L 234.454914 48.716942 
L 234.454914 46.650454 
L 234.734838 46.650454 
L 234.734838 44.583966 
L 234.919047 44.583966 
L 235.010444 43.550722 
L 235.281864 43.550722 
L 235.281864 42.517478 
L 235.549222 42.517478 
L 235.63746 39.934367 
L 235.725264 39.934367 
L 235.725264 39.417745 
L 237.074442 39.417745 
L 237.074442 37.351257 
L 237.236145 37.351257 
L 237.236145 35.284769 
L 238.404412 35.284769 
L 238.404412 34.768147 
L 358.8 34.768147 
L 358.8 34.768147 
" style="fill:none;stroke:#00bfbf;stroke-linecap:square;stroke-width:1.5;"/>
   </g>
   <g id="line2d_43">
    <defs>
     <path d="M -6 0 
L 6 0 
M 0 6 
L 0 -6 
" id="mf9e43e527e" style="stroke:#00bfbf;stroke-width:1.5;"/>
    </defs>
    <g>
     <use style="fill:none;stroke:#00bfbf;stroke-width:1.5;" x="358.8" xlink:href="#mf9e43e527e" y="34.768147"/>
    </g>
   </g>
   <g id="line2d_44"/>
   <g id="line2d_45">
    <defs>
     <path d="M 0 1.5 
C 0.397805 1.5 0.77937 1.341951 1.06066 1.06066 
C 1.341951 0.77937 1.5 0.397805 1.5 0 
C 1.5 -0.397805 1.341951 -0.77937 1.06066 -1.06066 
C 0.77937 -1.341951 0.397805 -1.5 0 -1.5 
C -0.397805 -1.5 -0.77937 -1.341951 -1.06066 -1.06066 
C -1.341951 -0.77937 -1.5 -0.397805 -1.5 0 
C -1.5 0.397805 -1.341951 0.77937 -1.06066 1.06066 
C -0.77937 1.341951 -0.397805 1.5 0 1.5 
z
" id="m1691d0475c" style="stroke:#008000;"/>
    </defs>
    <g>
     <use style="fill:#008000;stroke:#008000;" x="235.251909" xlink:href="#m1691d0475c" y="34.768147"/>
     <use style="fill:#008000;stroke:#008000;" x="235.251909" xlink:href="#m1691d0475c" y="34.768147"/>
    </g>
   </g>
   <g id="line2d_46">
    <path d="M 51.169868 298.245375 
L 51.169868 264.148322 
L 145.840817 264.148322 
L 145.840817 260.015346 
L 153.085714 260.015346 
L 153.085714 257.432236 
L 158.226051 257.432236 
L 158.226051 256.398992 
L 165.470948 256.398992 
L 165.470948 255.88237 
L 168.225331 255.88237 
L 168.225331 254.849126 
L 170.611285 254.849126 
L 170.611285 252.782638 
L 172.715846 252.782638 
L 172.715846 249.166284 
L 174.59844 249.166284 
L 174.59844 248.13304 
L 176.301453 248.13304 
L 176.301453 245.549929 
L 177.856183 245.549929 
L 177.856183 244.000063 
L 181.843337 244.000063 
L 181.843337 241.933575 
L 184.079767 241.933575 
L 184.079767 239.867087 
L 186.067159 239.867087 
L 186.067159 237.283977 
L 187.855462 237.283977 
L 187.855462 236.250733 
L 188.686687 236.250733 
L 188.686687 235.217489 
L 190.241417 235.217489 
L 190.241417 234.700867 
L 190.970829 234.700867 
L 190.970829 233.667623 
L 191.671629 233.667623 
L 191.671629 232.634379 
L 194.814464 232.634379 
L 194.814464 231.601135 
L 196.982954 231.601135 
L 196.982954 228.501403 
L 197.486314 228.501403 
L 197.486314 227.984781 
L 199.368908 227.984781 
L 199.368908 226.951537 
L 201.071921 226.951537 
L 201.071921 226.434915 
L 204.056863 226.434915 
L 204.056863 224.368427 
L 204.397218 224.368427 
L 204.397218 223.335183 
L 206.613806 223.335183 
L 206.613806 222.818561 
L 206.909153 222.818561 
L 206.909153 221.268695 
L 207.199698 221.268695 
L 207.199698 220.752073 
L 207.485594 220.752073 
L 207.485594 218.685585 
L 207.766987 218.685585 
L 207.766987 215.585853 
L 208.044018 215.585853 
L 208.044018 215.069231 
L 208.585517 215.069231 
L 208.585517 214.035987 
L 208.850235 214.035987 
L 208.850235 211.969498 
L 209.871548 211.969498 
L 209.871548 210.936254 
L 210.361116 210.936254 
L 210.361116 207.3199 
L 210.60096 207.3199 
L 210.60096 206.803278 
L 210.837628 206.803278 
L 210.837628 203.703546 
L 211.071201 203.703546 
L 211.071201 199.57057 
L 211.529383 199.57057 
L 211.529383 199.053948 
L 211.754142 199.053948 
L 211.754142 197.504082 
L 211.976109 197.504082 
L 211.976109 196.470838 
L 212.195353 196.470838 
L 212.195353 195.954216 
L 212.62593 195.954216 
L 212.62593 194.920972 
L 212.83739 194.920972 
L 212.83739 189.23813 
L 213.046376 189.23813 
L 213.046376 182.522044 
L 213.252946 182.522044 
L 213.252946 181.4888 
L 213.659057 181.4888 
L 213.659057 179.938934 
L 213.858703 179.938934 
L 213.858703 178.90569 
L 214.056143 178.90569 
L 214.056143 178.389067 
L 214.251425 178.389067 
L 214.251425 174.256091 
L 214.444595 174.256091 
L 214.444595 173.739469 
L 214.6357 173.739469 
L 214.6357 171.672981 
L 214.824782 171.672981 
L 214.824782 165.990139 
L 215.011885 165.990139 
L 215.011885 160.823919 
L 215.197048 160.823919 
L 215.197048 154.624455 
L 215.380313 154.624455 
L 215.380313 152.557967 
L 215.561716 152.557967 
L 215.561716 147.908369 
L 215.741297 147.908369 
L 215.741297 146.358503 
L 216.095133 146.358503 
L 216.095133 145.841881 
L 220.702053 145.841881 
L 220.702053 145.325259 
L 220.970752 145.325259 
L 220.970752 144.808637 
L 221.366372 144.808637 
L 221.366372 143.775392 
L 221.496322 143.775392 
L 221.496322 142.742148 
L 222.132265 142.742148 
L 222.132265 140.159038 
L 222.256782 140.159038 
L 222.256782 138.609172 
L 222.986194 138.609172 
L 222.986194 137.575928 
L 223.10492 137.575928 
L 223.10492 136.026062 
L 223.222862 136.026062 
L 223.222862 135.50944 
L 223.34003 135.50944 
L 223.34003 134.992818 
L 223.456435 134.992818 
L 223.456435 134.476196 
L 224.361343 134.476196 
L 224.361343 133.959574 
L 224.580587 133.959574 
L 224.689208 131.893086 
L 225.011165 131.893086 
L 225.011165 130.859842 
L 225.222624 130.859842 
L 225.327423 127.76011 
L 225.43161 127.76011 
L 225.535194 125.177 
L 225.943626 125.177 
L 226.044291 121.044024 
L 226.243937 121.044024 
L 226.243937 120.01078 
L 226.539285 120.01078 
L 226.636659 117.42767 
L 226.733505 117.42767 
L 226.733505 115.361182 
L 226.925637 115.361182 
L 226.925637 114.84456 
L 227.115725 114.84456 
L 227.210017 112.26145 
L 227.303813 112.26145 
L 227.397119 109.678339 
L 227.489941 109.678339 
L 227.582282 108.645095 
L 227.67415 108.645095 
L 227.765547 101.929009 
L 227.94695 101.929009 
L 228.036966 98.829277 
L 228.126531 98.829277 
L 228.215649 96.762789 
L 228.304325 96.762789 
L 228.392563 89.530081 
L 228.480367 89.530081 
L 228.567742 85.913727 
L 228.654691 85.913727 
L 228.654691 85.397105 
L 228.827331 85.397105 
L 228.91303 84.363861 
L 228.998319 84.363861 
L 228.998319 83.847239 
L 229.418765 83.847239 
L 229.418765 82.297373 
L 229.584212 82.297373 
L 229.666364 81.264129 
L 229.991248 81.264129 
L 229.991248 80.747507 
L 230.231092 80.747507 
L 230.31033 78.164397 
L 230.389218 78.164397 
L 230.389218 76.614531 
L 230.545957 76.614531 
L 230.623814 74.548042 
L 230.701333 74.548042 
L 230.778517 67.831956 
L 230.931892 67.831956 
L 231.008089 65.248846 
L 231.159515 65.248846 
L 231.234749 63.182358 
L 231.309668 63.182358 
L 231.309668 56.466272 
L 231.45857 56.466272 
L 231.532558 54.916406 
L 231.606241 54.916406 
L 231.679621 53.36654 
L 231.752702 53.36654 
L 231.752702 52.333296 
L 231.897972 52.333296 
L 231.970166 45.100588 
L 232.04207 45.100588 
L 232.113686 42.517478 
L 232.256062 42.517478 
L 232.326827 41.484233 
L 234.202357 41.484233 
L 234.265832 40.450989 
L 234.329082 40.450989 
L 234.329082 39.934367 
L 234.517499 39.934367 
L 234.517499 38.901123 
L 234.703951 38.901123 
L 234.703951 37.351257 
L 235.010444 37.351257 
L 235.071117 35.284769 
L 235.251909 35.284769 
L 235.251909 34.768147 
L 358.8 34.768147 
L 358.8 34.768147 
" style="fill:none;stroke:#008000;stroke-linecap:square;stroke-width:1.5;"/>
   </g>
   <g id="line2d_47">
    <defs>
     <path d="M -0 6 
L 6 -6 
L -6 -6 
z
" id="m601b7620a5" style="stroke:#008000;stroke-linejoin:miter;stroke-width:1.5;"/>
    </defs>
    <g>
     <use style="fill:none;stroke:#008000;stroke-linejoin:miter;stroke-width:1.5;" x="358.8" xlink:href="#m601b7620a5" y="34.768147"/>
    </g>
   </g>
   <g id="line2d_48"/>
   <g id="line2d_49">
    <defs>
     <path d="M 0 1.5 
C 0.397805 1.5 0.77937 1.341951 1.06066 1.06066 
C 1.341951 0.77937 1.5 0.397805 1.5 0 
C 1.5 -0.397805 1.341951 -0.77937 1.06066 -1.06066 
C 0.77937 -1.341951 0.397805 -1.5 0 -1.5 
C -0.397805 -1.5 -0.77937 -1.341951 -1.06066 -1.06066 
C -1.341951 -0.77937 -1.5 -0.397805 -1.5 0 
C -1.5 0.397805 -1.341951 0.77937 -1.06066 1.06066 
C -0.77937 1.341951 -0.397805 1.5 0 1.5 
z
" id="mc68896692e" style="stroke:#0000ff;"/>
    </defs>
    <g>
     <use style="fill:#0000ff;stroke:#0000ff;" x="251.103523" xlink:href="#mc68896692e" y="34.768147"/>
     <use style="fill:#0000ff;stroke:#0000ff;" x="251.103523" xlink:href="#mc68896692e" y="34.768147"/>
    </g>
   </g>
   <g id="line2d_50">
    <path d="M 42.042377 298.245375 
L 42.042377 286.363069 
L 136.713325 286.363069 
L 136.713325 278.613738 
L 143.958223 278.613738 
L 143.958223 275.514006 
L 149.098559 275.514006 
L 149.098559 273.447518 
L 153.085714 273.447518 
L 153.085714 272.414274 
L 156.343457 272.414274 
L 156.343457 271.38103 
L 159.097839 271.38103 
L 159.097839 268.79792 
L 161.483794 268.79792 
L 161.483794 267.248054 
L 163.588354 267.248054 
L 163.588354 266.21481 
L 167.173962 266.21481 
L 167.173962 265.698188 
L 168.728691 265.698188 
L 168.728691 264.664944 
L 170.158903 264.664944 
L 170.158903 263.6317 
L 171.483073 263.6317 
L 171.483073 262.081834 
L 173.869028 262.081834 
L 173.869028 261.565212 
L 175.973589 261.565212 
L 175.973589 257.948858 
L 176.939668 257.948858 
L 176.939668 257.432236 
L 177.856183 257.432236 
L 177.856183 256.915614 
L 178.727971 256.915614 
L 178.727971 256.398992 
L 179.559196 256.398992 
L 179.559196 255.88237 
L 180.353465 255.88237 
L 180.353465 254.332504 
L 181.113925 254.332504 
L 181.113925 253.29926 
L 181.843337 253.29926 
L 181.843337 252.782638 
L 183.868307 252.782638 
L 183.868307 251.749394 
L 185.10108 251.749394 
L 185.10108 250.71615 
L 186.804093 250.71615 
L 186.804093 249.166284 
L 187.855462 249.166284 
L 187.855462 248.649662 
L 189.324902 248.649662 
L 189.324902 248.13304 
L 190.241417 248.13304 
L 190.241417 246.583173 
L 191.113205 246.583173 
L 191.113205 245.549929 
L 192.738699 245.549929 
L 192.738699 245.033307 
L 193.867587 245.033307 
L 193.867587 244.516685 
L 194.228571 244.516685 
L 194.228571 244.000063 
L 194.582407 244.000063 
L 194.582407 242.966819 
L 195.269727 242.966819 
L 195.269727 241.933575 
L 198.072206 241.933575 
L 198.072206 241.416953 
L 198.358102 241.416953 
L 198.358102 240.383709 
L 199.458026 240.383709 
L 199.458026 239.867087 
L 200.744057 239.867087 
L 200.744057 238.317221 
L 201.473469 238.317221 
L 201.473469 237.800599 
L 201.94371 237.800599 
L 201.94371 236.767355 
L 203.284447 236.767355 
L 203.284447 236.250733 
L 203.498439 236.250733 
L 203.498439 235.734111 
L 204.329664 235.734111 
L 204.329664 235.217489 
L 205.317104 235.217489 
L 205.317104 234.700867 
L 207.822738 234.700867 
L 207.822738 233.667623 
L 208.153639 233.667623 
L 208.153639 233.151001 
L 213.739183 233.151001 
L 213.739183 232.634379 
L 214.09537 232.634379 
L 214.09537 231.084513 
L 214.212539 231.084513 
L 214.212539 229.534647 
L 214.328944 229.534647 
L 214.328944 225.401671 
L 214.444595 225.401671 
L 214.444595 224.368427 
L 214.559503 224.368427 
L 214.559503 222.301939 
L 214.787126 222.301939 
L 214.787126 221.268695 
L 215.123213 221.268695 
L 215.123213 220.752073 
L 215.453095 220.752073 
L 215.453095 219.718829 
L 215.989716 219.718829 
L 216.095133 218.685585 
L 216.816134 218.685585 
L 216.816134 217.652341 
L 217.116446 217.652341 
L 217.215438 216.102475 
L 217.313885 216.102475 
L 217.411793 213.519365 
L 217.606014 213.519365 
L 217.606014 212.48612 
L 217.798146 212.48612 
L 217.893443 210.936254 
L 217.988234 210.936254 
L 218.082525 208.353144 
L 218.176321 208.353144 
L 218.269628 206.286656 
L 218.454791 206.286656 
L 218.546658 198.537326 
L 218.638055 198.537326 
L 218.728987 196.98746 
L 218.819459 196.98746 
L 218.909475 193.371106 
L 218.99904 193.371106 
L 218.99904 191.82124 
L 219.265071 191.82124 
L 219.265071 191.304618 
L 219.785538 191.304618 
L 219.785538 190.787996 
L 222.405066 190.787996 
L 222.405066 189.754752 
L 222.55213 189.754752 
L 222.62521 188.204886 
L 222.697993 188.204886 
L 222.697993 187.688264 
L 222.986194 187.688264 
L 222.986194 187.171642 
L 226.362663 187.171642 
L 226.421731 185.105154 
L 226.539285 185.105154 
L 226.539285 184.588532 
L 226.714178 184.588532 
L 226.714178 184.07191 
L 227.001915 184.07191 
L 227.001915 183.038666 
L 227.228815 183.038666 
L 227.285093 180.455556 
L 227.341194 180.455556 
L 227.397119 178.389067 
L 227.45287 178.389067 
L 227.45287 177.355823 
L 227.619086 177.355823 
L 227.619086 176.322579 
L 227.78377 176.322579 
L 227.892722 174.256091 
L 228.322007 174.256091 
L 228.322007 173.739469 
L 228.480367 173.739469 
L 228.480367 173.222847 
L 228.637335 173.222847 
L 228.689353 172.189603 
L 228.792936 172.189603 
L 228.895923 167.540005 
L 228.947195 167.540005 
L 228.998319 164.956895 
L 229.100132 164.956895 
L 229.100132 163.923651 
L 229.402136 163.923651 
L 229.402136 163.407029 
L 229.894402 163.407029 
L 229.894402 162.373785 
L 230.231092 162.373785 
L 230.231092 161.857163 
L 230.420676 161.857163 
L 230.420676 161.340541 
L 230.561555 161.340541 
L 230.654862 159.790675 
L 230.793914 159.790675 
L 230.793914 159.274053 
L 230.977649 159.274053 
L 231.068813 157.207565 
L 231.249758 157.207565 
L 231.249758 153.591211 
L 231.562067 153.591211 
L 231.606241 151.524723 
L 231.694261 151.524723 
L 231.738109 150.491479 
L 232.467522 150.491479 
L 232.467522 149.458235 
L 232.634906 149.458235 
L 232.634906 148.941613 
L 232.924107 148.941613 
L 232.924107 148.424991 
L 233.12785 148.424991 
L 233.208702 146.358503 
L 233.248991 146.358503 
L 233.329297 144.292014 
L 233.369315 144.292014 
L 233.369315 143.775392 
L 233.488835 143.775392 
L 233.568073 142.742148 
L 233.60756 142.742148 
L 233.646961 140.67566 
L 233.725502 140.67566 
L 233.764643 138.609172 
L 233.920358 138.609172 
L 233.920358 138.09255 
L 234.52999 138.09255 
L 234.604752 137.059306 
L 234.753345 137.059306 
L 234.753345 136.542684 
L 234.973941 136.542684 
L 234.973941 135.50944 
L 235.119507 135.50944 
L 235.119507 134.992818 
L 235.335657 134.992818 
L 235.335657 134.476196 
L 236.84557 134.476196 
L 236.944017 131.893086 
L 237.1069 131.893086 
L 237.203922 129.826598 
L 238.237773 129.826598 
L 238.32886 126.726866 
L 238.419484 126.726866 
L 238.509652 124.660378 
L 238.599366 124.660378 
L 238.599366 123.627134 
L 239.529299 123.627134 
L 239.529299 121.044024 
L 239.698399 121.044024 
L 239.782353 120.01078 
L 239.81025 120.01078 
L 239.893681 118.460914 
L 240.00432 118.460914 
L 240.031873 116.394426 
L 240.250781 116.394426 
L 240.277957 115.361182 
L 240.574194 115.361182 
L 240.574194 114.84456 
L 240.970399 114.84456 
L 241.074587 111.744828 
L 241.126454 111.744828 
L 241.229738 107.611851 
L 241.255466 107.611851 
L 241.332429 102.445631 
L 241.383553 102.445631 
L 241.409061 100.895765 
L 241.86208 100.895765 
L 241.86208 99.862521 
L 242.303896 99.862521 
L 242.400612 96.762789 
L 242.424709 96.762789 
L 242.520774 95.212923 
L 242.568614 95.212923 
L 242.568614 94.696301 
L 243.109757 94.696301 
L 243.109757 94.179679 
L 243.476766 94.179679 
L 243.476766 92.629813 
L 243.612474 92.629813 
L 243.679943 91.079947 
L 244.319339 91.079947 
L 244.319339 90.563325 
L 244.556007 90.563325 
L 244.620012 89.013459 
L 244.831722 89.013459 
L 244.831722 87.980215 
L 244.957554 87.980215 
L 245.02014 85.397105 
L 245.123964 85.397105 
L 245.144657 83.330617 
L 245.391117 83.330617 
L 245.391117 82.813995 
L 245.553556 82.813995 
L 245.654335 81.780751 
L 245.694488 81.780751 
L 245.774525 78.164397 
L 245.854204 78.164397 
L 245.953307 76.097908 
L 245.973061 76.097908 
L 246.071509 73.514798 
L 246.169416 73.514798 
L 246.169416 72.998176 
L 246.498346 72.998176 
L 246.593949 68.8652 
L 246.632047 68.8652 
L 246.689043 64.732224 
L 246.745857 64.732224 
L 246.840148 59.049382 
L 247.083001 59.049382 
L 247.175535 57.499516 
L 247.377436 57.499516 
L 247.377436 56.466272 
L 247.504741 56.466272 
L 247.540948 54.916406 
L 247.649131 54.916406 
L 247.738786 49.233564 
L 247.792363 49.233564 
L 247.792363 45.100588 
L 248.057868 45.100588 
L 248.057868 44.583966 
L 248.215297 44.583966 
L 248.302162 43.0341 
L 248.371351 43.0341 
L 248.457463 42.000855 
L 248.543161 42.000855 
L 248.560252 40.967611 
L 248.915427 40.967611 
L 248.998962 38.384501 
L 250.14485 38.384501 
L 250.238401 36.834635 
L 250.300497 36.834635 
L 250.300497 36.318013 
L 250.683783 36.318013 
L 250.683783 35.801391 
L 250.834825 35.801391 
L 250.834825 35.284769 
L 251.103523 35.284769 
L 251.103523 34.768147 
L 358.8 34.768147 
L 358.8 34.768147 
" style="fill:none;stroke:#0000ff;stroke-linecap:square;stroke-width:1.5;"/>
   </g>
   <g id="line2d_51">
    <defs>
     <path d="M 0 -6 
L -1.347084 -1.854102 
L -5.706339 -1.854102 
L -2.179628 0.708204 
L -3.526712 4.854102 
L -0 2.291796 
L 3.526712 4.854102 
L 2.179628 0.708204 
L 5.706339 -1.854102 
L 1.347084 -1.854102 
z
" id="m802bdbd630" style="stroke:#0000ff;stroke-linejoin:bevel;stroke-width:1.5;"/>
    </defs>
    <g>
     <use style="fill:none;stroke:#0000ff;stroke-linejoin:bevel;stroke-width:1.5;" x="358.8" xlink:href="#m802bdbd630" y="34.768147"/>
    </g>
   </g>
   <g id="line2d_52"/>
   <g id="line2d_53">
    <defs>
     <path d="M 0 1.5 
C 0.397805 1.5 0.77937 1.341951 1.06066 1.06066 
C 1.341951 0.77937 1.5 0.397805 1.5 0 
C 1.5 -0.397805 1.341951 -0.77937 1.06066 -1.06066 
C 0.77937 -1.341951 0.397805 -1.5 0 -1.5 
C -0.397805 -1.5 -0.77937 -1.341951 -1.06066 -1.06066 
C -1.341951 -0.77937 -1.5 -0.397805 -1.5 0 
C -1.5 0.397805 -1.341951 0.77937 -1.06066 1.06066 
C -0.77937 1.341951 -0.397805 1.5 0 1.5 
z
" id="m542e151987" style="stroke:#000000;"/>
    </defs>
    <g>
     <use style="stroke:#000000;" x="267.966922" xlink:href="#m542e151987" y="34.768147"/>
     <use style="stroke:#000000;" x="267.966922" xlink:href="#m542e151987" y="34.768147"/>
    </g>
   </g>
   <g id="line2d_54">
    <path d="M 136.713325 298.245375 
L 136.713325 296.695509 
L 143.958223 296.695509 
L 143.958223 294.629021 
L 149.098559 294.629021 
L 149.098559 293.595777 
L 153.085714 293.595777 
L 153.085714 289.462801 
L 156.343457 289.462801 
L 156.343457 287.912935 
L 159.097839 287.912935 
L 159.097839 287.396313 
L 161.483794 287.396313 
L 161.483794 286.363069 
L 163.588354 286.363069 
L 163.588354 285.846447 
L 165.470948 285.846447 
L 165.470948 284.296581 
L 167.173962 284.296581 
L 167.173962 283.263337 
L 168.728691 283.263337 
L 168.728691 282.230093 
L 172.715846 282.230093 
L 172.715846 280.163604 
L 173.869028 280.163604 
L 173.869028 278.613738 
L 175.973589 278.613738 
L 175.973589 278.097116 
L 176.939668 278.097116 
L 176.939668 276.54725 
L 178.727971 276.54725 
L 178.727971 276.030628 
L 179.559196 276.030628 
L 179.559196 273.96414 
L 180.353465 273.96414 
L 180.353465 272.930896 
L 181.113925 272.930896 
L 181.113925 271.38103 
L 183.218486 271.38103 
L 183.218486 269.831164 
L 183.868307 269.831164 
L 183.868307 268.79792 
L 184.495323 268.79792 
L 184.495323 265.698188 
L 185.10108 265.698188 
L 185.10108 265.181566 
L 186.254262 265.181566 
L 186.254262 262.081834 
L 186.804093 262.081834 
L 186.804093 261.565212 
L 187.855462 261.565212 
L 187.855462 261.04859 
L 188.358823 261.04859 
L 188.358823 260.015346 
L 189.789035 260.015346 
L 189.789035 259.498724 
L 190.241417 259.498724 
L 190.241417 258.46548 
L 190.682627 258.46548 
L 190.682627 257.948858 
L 191.113205 257.948858 
L 191.113205 257.432236 
L 191.533651 257.432236 
L 191.533651 256.398992 
L 191.94443 256.398992 
L 191.94443 255.88237 
L 192.738699 255.88237 
L 192.738699 255.365748 
L 193.122975 255.365748 
L 193.122975 253.815882 
L 202.401892 253.815882 
L 202.401892 253.29926 
L 202.626651 253.29926 
L 202.626651 252.782638 
L 203.918885 252.782638 
L 203.918885 252.266016 
L 204.125455 252.266016 
L 204.125455 251.749394 
L 204.531566 251.749394 
L 204.531566 251.232772 
L 205.508209 251.232772 
L 205.508209 249.682906 
L 205.884393 249.682906 
L 205.884393 249.166284 
L 206.252821 249.166284 
L 206.252821 248.13304 
L 206.613806 248.13304 
L 206.613806 247.616418 
L 207.314606 247.616418 
L 207.314606 247.099796 
L 208.955034 247.099796 
L 208.955034 246.583173 
L 211.438682 246.583173 
L 211.438682 246.066551 
L 211.574562 246.066551 
L 211.574562 245.549929 
L 212.368831 245.549929 
L 212.368831 245.033307 
L 212.753106 245.033307 
L 212.753106 243.483441 
L 213.497719 243.483441 
L 213.497719 242.966819 
L 213.739183 242.966819 
L 213.739183 241.933575 
L 213.858703 241.933575 
L 213.858703 241.416953 
L 218.176321 241.416953 
L 218.176321 240.900331 
L 220.783088 240.900331 
L 220.783088 239.350465 
L 222.107257 239.350465 
L 222.182176 237.283977 
L 222.256782 237.283977 
L 222.331078 235.217489 
L 222.405066 235.217489 
L 222.405066 233.667623 
L 222.55213 233.667623 
L 222.55213 233.151001 
L 222.697993 233.151001 
L 222.697993 232.634379 
L 222.842675 232.634379 
L 222.914579 230.051269 
L 226.243937 230.051269 
L 226.243937 228.501403 
L 226.82983 228.501403 
L 226.82983 227.984781 
L 227.619086 227.984781 
L 227.619086 227.468159 
L 230.467759 227.468159 
L 230.514719 226.434915 
L 230.608269 226.434915 
L 230.608269 225.918293 
L 230.747683 225.918293 
L 230.747683 225.401671 
L 230.931892 225.401671 
L 230.977649 224.368427 
L 231.068813 224.368427 
L 231.068813 223.851805 
L 231.204693 223.851805 
L 231.249758 221.785317 
L 231.384274 221.785317 
L 231.384274 221.268695 
L 232.256062 221.268695 
L 232.256062 220.235451 
L 233.208702 220.235451 
L 233.208702 219.718829 
L 233.329297 219.718829 
L 233.409244 217.652341 
L 234.604752 217.652341 
L 234.604752 216.102475 
L 234.716312 216.102475 
L 234.716312 214.552609 
L 234.973941 214.552609 
L 234.973941 214.035987 
L 235.655055 214.035987 
L 235.725264 213.002743 
L 236.546932 213.002743 
L 236.546932 212.48612 
L 236.812633 212.48612 
L 236.911262 209.90301 
L 236.944017 209.90301 
L 237.041925 206.286656 
L 237.074442 206.286656 
L 237.074442 205.770034 
L 238.359119 205.770034 
L 238.419484 203.703546 
L 238.569511 203.703546 
L 238.629171 202.15368 
L 238.836426 202.15368 
L 238.836426 200.603814 
L 239.27261 200.603814 
L 239.27261 200.087192 
L 239.949086 200.087192 
L 240.059384 199.053948 
L 240.169004 199.053948 
L 240.223563 198.020704 
L 240.627532 198.020704 
L 240.627532 197.504082 
L 240.760184 197.504082 
L 240.865601 195.954216 
L 240.891858 195.954216 
L 240.891858 195.437594 
L 241.178171 195.437594 
L 241.255466 193.371106 
L 241.306811 193.371106 
L 241.358009 191.304618 
L 242.424709 191.304618 
L 242.424709 190.271374 
L 243.362883 190.271374 
L 243.408524 188.204886 
L 243.544749 188.204886 
L 243.544749 187.688264 
L 243.880836 187.688264 
L 243.880836 187.171642 
L 244.232495 187.171642 
L 244.232495 185.621776 
L 244.556007 185.621776 
L 244.556007 184.588532 
L 244.683789 184.588532 
L 244.768472 182.522044 
L 244.810663 182.522044 
L 244.894749 180.972178 
L 244.97844 180.972178 
L 244.97844 180.455556 
L 245.714531 180.455556 
L 245.794478 178.389067 
L 245.834318 178.389067 
L 245.874069 176.322579 
L 246.632047 176.322579 
L 246.632047 175.805957 
L 247.175535 175.805957 
L 247.193984 174.772713 
L 247.432107 174.772713 
L 247.432107 174.256091 
L 247.613143 174.256091 
L 247.702978 170.123115 
L 247.756663 170.123115 
L 247.792363 168.573249 
L 248.215297 168.573249 
L 248.215297 167.540005 
L 248.405846 167.540005 
L 248.405846 167.023383 
L 248.526055 167.023383 
L 248.577326 164.956895 
L 249.131811 164.956895 
L 249.230804 162.373785 
L 249.26368 162.373785 
L 249.345606 160.823919 
L 249.717704 160.823919 
L 249.717704 160.307297 
L 250.01935 160.307297 
L 250.129211 158.757431 
L 250.638221 158.757431 
L 250.638221 158.240809 
L 250.804718 158.240809 
L 250.894886 156.174321 
L 250.924841 156.174321 
L 251.014405 154.624455 
L 251.044161 154.624455 
L 251.073867 153.591211 
L 251.397413 153.591211 
L 251.455616 152.041345 
L 251.585882 152.041345 
L 251.657844 148.941613 
L 251.715206 148.941613 
L 251.743817 147.391747 
L 252.181541 147.391747 
L 252.181541 146.875125 
L 252.292783 146.875125 
L 252.375762 145.841881 
L 252.417107 145.841881 
L 252.472086 144.808637 
L 252.595173 144.808637 
L 252.636015 143.25877 
L 252.73095 143.25877 
L 252.825383 141.708904 
L 252.892532 141.708904 
L 252.999447 139.642416 
L 253.039375 139.642416 
L 253.065945 137.059306 
L 253.185022 137.059306 
L 253.185022 136.542684 
L 253.563405 136.542684 
L 253.627841 134.476196 
L 253.717663 134.476196 
L 253.794295 130.34322 
L 254.371141 130.34322 
L 254.432734 128.793354 
L 254.66487 128.793354 
L 254.749639 127.76011 
L 254.929944 127.76011 
L 255.025368 122.59389 
L 255.108449 122.59389 
L 255.108449 122.077268 
L 255.367071 122.077268 
L 255.471801 119.494158 
L 255.541282 119.494158 
L 255.575921 117.42767 
L 256.143571 117.42767 
L 256.177063 116.394426 
L 256.365676 116.394426 
L 256.475702 114.84456 
L 256.585054 114.84456 
L 256.682902 110.194961 
L 256.704574 110.194961 
L 256.704574 109.161717 
L 256.909152 109.161717 
L 257.015891 108.128473 
L 257.07963 108.128473 
L 257.07963 107.095229 
L 257.216956 107.095229 
L 257.227476 106.061985 
L 257.394958 106.061985 
L 257.394958 105.545363 
L 257.540228 105.545363 
L 257.612423 104.512119 
L 257.653546 104.512119 
L 257.755942 100.895765 
L 257.878048 100.895765 
L 257.969083 99.345899 
L 258.119785 99.345899 
L 258.219552 98.312655 
L 258.259303 98.312655 
L 258.259303 97.796033 
L 258.525334 97.796033 
L 258.564412 96.246167 
L 258.661733 96.246167 
L 258.73921 92.113191 
L 259.112173 92.113191 
L 259.197147 89.530081 
L 259.468235 89.530081 
L 259.533059 86.946971 
L 259.634452 86.946971 
L 259.698676 83.330617 
L 260.034365 83.330617 
L 260.141897 76.614531 
L 260.150829 76.614531 
L 260.231015 74.03142 
L 260.469436 74.03142 
L 260.52199 72.481554 
L 260.583107 72.481554 
L 260.583107 70.415066 
L 260.825508 70.415066 
L 260.928396 68.8652 
L 260.936943 68.8652 
L 261.005174 67.831956 
L 261.325763 67.831956 
L 261.417502 65.765468 
L 261.500493 65.765468 
L 261.500493 65.248846 
L 261.673532 65.248846 
L 261.763506 64.215602 
L 261.804255 64.215602 
L 261.828659 63.182358 
L 262.182813 63.182358 
L 262.262333 59.049382 
L 262.498792 59.049382 
L 262.608077 56.466272 
L 262.615858 56.466272 
L 262.631409 54.916406 
L 262.870735 54.916406 
L 262.970151 51.300052 
L 263.01585 51.300052 
L 263.01585 50.78343 
L 263.159795 50.78343 
L 263.212537 48.716942 
L 263.317556 48.716942 
L 263.347448 47.167076 
L 263.738871 47.167076 
L 263.768067 45.61721 
L 264.02152 45.61721 
L 264.107597 43.550722 
L 264.15048 43.550722 
L 264.15048 43.0341 
L 264.292687 43.0341 
L 264.292687 42.517478 
L 264.78857 42.517478 
L 264.864181 40.967611 
L 265.089111 40.967611 
L 265.170207 38.901123 
L 265.210618 38.901123 
L 265.210618 38.384501 
L 265.41131 38.384501 
L 265.41131 37.867879 
L 266.122086 37.867879 
L 266.122086 36.834635 
L 266.407474 36.834635 
L 266.407474 35.801391 
L 267.966922 35.801391 
L 267.966922 34.768147 
L 358.8 34.768147 
L 358.8 34.768147 
" style="fill:none;stroke:#000000;stroke-linecap:square;stroke-width:1.5;"/>
   </g>
   <g id="line2d_55">
    <defs>
     <path d="M 0 6 
C 1.591219 6 3.117479 5.367802 4.242641 4.242641 
C 5.367802 3.117479 6 1.591219 6 0 
C 6 -1.591219 5.367802 -3.117479 4.242641 -4.242641 
C 3.117479 -5.367802 1.591219 -6 0 -6 
C -1.591219 -6 -3.117479 -5.367802 -4.242641 -4.242641 
C -5.367802 -3.117479 -6 -1.591219 -6 0 
C -6 1.591219 -5.367802 3.117479 -4.242641 4.242641 
C -3.117479 5.367802 -1.591219 6 0 6 
z
" id="m17b0ee4268" style="stroke:#000000;stroke-width:1.5;"/>
    </defs>
    <g>
     <use style="fill:none;stroke:#000000;stroke-width:1.5;" x="358.8" xlink:href="#m17b0ee4268" y="34.768147"/>
    </g>
   </g>
   <g id="line2d_56"/>
   <g id="line2d_57">
    <defs>
     <path d="M 0 1.5 
C 0.397805 1.5 0.77937 1.341951 1.06066 1.06066 
C 1.341951 0.77937 1.5 0.397805 1.5 0 
C 1.5 -0.397805 1.341951 -0.77937 1.06066 -1.06066 
C 0.77937 -1.341951 0.397805 -1.5 0 -1.5 
C -0.397805 -1.5 -0.77937 -1.341951 -1.06066 -1.06066 
C -1.341951 -0.77937 -1.5 -0.397805 -1.5 0 
C -1.5 0.397805 -1.341951 0.77937 -1.06066 1.06066 
C -0.77937 1.341951 -0.397805 1.5 0 1.5 
z
" id="mc8352de497" style="stroke:#ff0000;"/>
    </defs>
    <g>
     <use style="fill:#ff0000;stroke:#ff0000;" x="346.73132" xlink:href="#mc8352de497" y="86.430349"/>
     <use style="fill:#ff0000;stroke:#ff0000;" x="346.73132" xlink:href="#mc8352de497" y="86.430349"/>
    </g>
   </g>
   <g id="line2d_58">
    <path d="M 169.458103 298.245375 
L 169.458103 297.728753 
L 172.715846 297.728753 
L 172.715846 297.212131 
L 173.869028 297.212131 
L 173.869028 296.695509 
L 175.470228 296.695509 
L 175.470228 296.178887 
L 176.463157 296.178887 
L 176.463157 295.145643 
L 177.403801 295.145643 
L 177.403801 294.629021 
L 178.727971 294.629021 
L 178.727971 294.112399 
L 179.559196 294.112399 
L 179.559196 292.045911 
L 181.843337 292.045911 
L 181.843337 291.529289 
L 186.804093 291.529289 
L 186.804093 291.012667 
L 187.33751 291.012667 
L 187.33751 290.496045 
L 189.558476 290.496045 
L 189.558476 289.979423 
L 190.016657 289.979423 
L 190.016657 289.462801 
L 191.113205 289.462801 
L 191.113205 288.946179 
L 191.324664 288.946179 
L 191.324664 288.429557 
L 191.533651 288.429557 
L 191.533651 287.396313 
L 193.499159 287.396313 
L 193.499159 285.329825 
L 193.867587 285.329825 
L 193.867587 284.813203 
L 195.931585 284.813203 
L 195.931585 284.296581 
L 196.5698 284.296581 
L 196.5698 282.746715 
L 196.880557 282.746715 
L 196.880557 282.230093 
L 197.486314 282.230093 
L 197.486314 281.713471 
L 197.634598 281.713471 
L 197.634598 280.680226 
L 198.072206 280.680226 
L 198.072206 280.163604 
L 198.916526 280.163604 
L 198.916526 279.13036 
L 199.053448 279.13036 
L 199.053448 278.097116 
L 199.189327 278.097116 
L 199.189327 277.580494 
L 200.112609 277.580494 
L 200.112609 277.063872 
L 200.240696 277.063872 
L 200.240696 276.54725 
L 201.112485 276.54725 
L 201.112485 275.514006 
L 203.918885 275.514006 
L 203.918885 274.480762 
L 205.412912 274.480762 
L 205.412912 273.96414 
L 205.603 273.96414 
L 205.603 273.447518 
L 206.434225 273.447518 
L 206.524241 272.414274 
L 206.613806 272.414274 
L 206.613806 270.864408 
L 206.967641 270.864408 
L 206.967641 270.347786 
L 207.485594 270.347786 
L 207.485594 269.831164 
L 207.739047 269.831164 
L 207.739047 269.314542 
L 208.397854 269.314542 
L 208.397854 267.764676 
L 208.718366 267.764676 
L 208.718366 267.248054 
L 215.72342 267.248054 
L 215.776997 266.21481 
L 215.989716 266.21481 
L 216.095133 265.181566 
L 217.460547 265.181566 
L 217.460547 264.148322 
L 218.683579 264.148322 
L 218.728987 263.115078 
L 221.063849 263.115078 
L 221.063849 262.598456 
L 221.457436 262.598456 
L 221.457436 262.081834 
L 222.661639 262.081834 
L 222.661639 261.565212 
L 224.128205 261.565212 
L 224.128205 261.04859 
L 225.358743 261.04859 
L 225.358743 260.531968 
L 227.369178 260.531968 
L 227.425016 258.982102 
L 228.18896 258.982102 
L 228.242298 256.915614 
L 228.689353 256.915614 
L 228.792936 255.88237 
L 228.921577 255.88237 
L 228.921577 254.849126 
L 230.863036 254.849126 
L 230.863036 253.815882 
L 231.159515 253.815882 
L 231.204693 252.266016 
L 233.046632 252.266016 
L 233.046632 251.232772 
L 234.398399 251.232772 
L 234.398399 250.71615 
L 235.317744 250.71615 
L 235.407129 249.166284 
L 236.05504 249.166284 
L 236.05504 248.649662 
L 236.175018 248.649662 
L 236.175018 248.13304 
L 236.862016 248.13304 
L 236.862016 247.099796 
L 237.041925 247.099796 
L 237.041925 246.583173 
L 239.186221 246.583173 
L 239.186221 245.033307 
L 239.949086 245.033307 
L 240.059384 242.966819 
L 240.480469 242.966819 
L 240.480469 242.450197 
L 240.693981 242.450197 
L 240.693981 241.933575 
L 241.100539 241.933575 
L 241.100539 241.416953 
L 241.911714 241.416953 
L 241.911714 240.900331 
L 242.496806 240.900331 
L 242.556666 239.350465 
L 244.19982 239.350465 
L 244.308507 237.283977 
L 244.810663 237.283977 
L 244.852756 236.250733 
L 245.247762 236.250733 
L 245.350276 234.184245 
L 245.874069 234.184245 
L 245.874069 233.667623 
L 246.2959 233.667623 
L 246.305592 232.634379 
L 247.212414 232.634379 
L 247.258407 230.567891 
L 247.459379 230.567891 
L 247.459379 230.051269 
L 247.738786 230.051269 
L 247.738786 229.534647 
L 247.87243 229.534647 
L 247.87243 229.018025 
L 248.543161 229.018025 
L 248.628451 227.468159 
L 248.932166 227.468159 
L 248.982287 226.434915 
L 249.451552 226.434915 
L 249.451552 225.918293 
L 250.947274 225.918293 
L 251.014405 224.368427 
L 251.368241 224.368427 
L 251.368241 223.335183 
L 251.914533 223.335183 
L 252.020408 222.301939 
L 252.437744 222.301939 
L 252.437744 221.785317 
L 252.764734 221.785317 
L 252.764734 220.235451 
L 253.072581 220.235451 
L 253.118966 219.202207 
L 253.381737 219.202207 
L 253.381737 218.685585 
L 254.066227 218.685585 
L 254.072502 216.619097 
L 254.358797 216.619097 
L 254.358797 216.102475 
L 254.683068 216.102475 
L 254.683068 215.585853 
L 254.983683 215.585853 
L 254.983683 214.035987 
L 256.110016 214.035987 
L 256.132393 213.002743 
L 256.28271 213.002743 
L 256.28271 212.48612 
L 256.404262 212.48612 
L 256.404262 211.969498 
L 256.682902 211.969498 
L 256.682902 211.452876 
L 256.828677 211.452876 
L 256.828677 210.419632 
L 256.957264 210.419632 
L 256.957264 209.90301 
L 257.222217 209.90301 
L 257.232734 208.869766 
L 257.943842 208.869766 
L 257.964038 207.836522 
L 258.259303 207.836522 
L 258.358295 206.803278 
L 258.491071 206.803278 
L 258.491071 206.286656 
L 258.715034 206.286656 
L 258.748871 205.253412 
L 258.979183 205.253412 
L 258.979183 204.220168 
L 259.197147 204.220168 
L 259.197147 203.703546 
L 259.889976 203.703546 
L 259.899034 202.15368 
L 260.020878 202.15368 
L 260.12402 198.537326 
L 260.816907 198.537326 
L 260.816907 198.020704 
L 260.96256 198.020704 
L 260.99666 196.98746 
L 261.111267 196.98746 
L 261.111267 196.470838 
L 261.363349 196.470838 
L 261.363349 195.954216 
L 261.603694 195.954216 
L 261.636593 193.371106 
L 262.018683 193.371106 
L 262.038779 192.337862 
L 262.400648 192.337862 
L 262.443897 190.271374 
L 262.635295 190.271374 
L 262.635295 189.754752 
L 263.133366 189.754752 
L 263.208775 187.688264 
L 263.373563 187.688264 
L 263.373563 186.65502 
L 263.738871 186.65502 
L 263.768067 184.588532 
L 263.94225 184.588532 
L 263.94225 184.07191 
L 264.129052 184.07191 
L 264.129052 183.038666 
L 264.437283 183.038666 
L 264.482887 181.4888 
L 264.639856 181.4888 
L 264.650271 179.938934 
L 264.78857 179.938934 
L 264.826415 178.90569 
L 265.149968 178.90569 
L 265.149968 178.389067 
L 265.331303 178.389067 
L 265.331303 177.872445 
L 265.494271 177.872445 
L 265.494271 177.355823 
L 265.980886 177.355823 
L 265.987328 174.772713 
L 266.134867 174.772713 
L 266.144447 173.739469 
L 266.31285 173.739469 
L 266.31285 173.222847 
L 266.460873 173.222847 
L 266.460873 172.706225 
L 266.607679 172.706225 
L 266.607679 172.189603 
L 266.777956 172.189603 
L 266.777956 171.672981 
L 267.071334 171.672981 
L 267.095566 170.123115 
L 267.237269 170.123115 
L 267.237269 169.089871 
L 267.359972 169.089871 
L 267.380837 165.990139 
L 267.52917 165.990139 
L 267.52917 163.923651 
L 267.661626 163.923651 
L 267.673352 162.373785 
L 267.964039 162.373785 
L 267.972687 160.823919 
L 268.101906 160.823919 
L 268.113347 159.274053 
L 268.388574 159.274053 
L 268.394205 157.724187 
L 268.648529 157.724187 
L 268.648529 157.207565 
L 268.814258 157.207565 
L 268.814258 156.690943 
L 269.221975 156.690943 
L 269.224662 155.141077 
L 269.350504 155.141077 
L 269.350504 154.624455 
L 269.617968 154.624455 
L 269.641608 153.591211 
L 269.748909 153.591211 
L 269.748909 152.557967 
L 270.138624 152.557967 
L 270.245527 151.008101 
L 270.265818 151.008101 
L 270.265818 150.491479 
L 270.392112 150.491479 
L 270.500017 148.424991 
L 270.998373 148.424991 
L 271.097849 147.391747 
L 271.109943 147.391747 
L 271.109943 146.875125 
L 271.223223 146.875125 
L 271.249632 143.775392 
L 271.371567 143.775392 
L 271.373949 142.742148 
L 271.485573 142.742148 
L 271.485573 142.225526 
L 271.664609 142.225526 
L 271.720776 140.159038 
L 271.834905 140.159038 
L 271.913671 139.125794 
L 272.295585 139.125794 
L 272.30011 137.575928 
L 272.500309 137.575928 
L 272.524897 136.026062 
L 272.625136 136.026062 
L 272.625136 135.50944 
L 272.749098 135.50944 
L 272.749098 134.476196 
L 272.942174 134.476196 
L 273.053122 133.442952 
L 273.189232 133.442952 
L 273.275116 131.893086 
L 273.300801 131.893086 
L 273.392537 130.34322 
L 273.49227 130.34322 
L 273.591449 127.76011 
L 273.700542 127.76011 
L 273.706816 126.726866 
L 273.900212 126.726866 
L 273.920883 124.660378 
L 274.329361 124.660378 
L 274.329361 123.627134 
L 274.512172 123.627134 
L 274.621762 122.077268 
L 274.838947 122.077268 
L 274.838947 121.044024 
L 275.026356 121.044024 
L 275.026356 120.01078 
L 275.225268 120.01078 
L 275.225268 119.494158 
L 275.603413 119.494158 
L 275.603413 118.977536 
L 284.628702 118.977536 
L 284.628702 118.460914 
L 285.569085 118.460914 
L 285.569085 117.944292 
L 286.493133 117.944292 
L 286.512544 116.911048 
L 287.06055 116.911048 
L 287.06055 116.394426 
L 287.314226 116.394426 
L 287.354209 114.84456 
L 287.452325 114.84456 
L 287.553758 112.778072 
L 287.652702 112.778072 
L 287.652702 112.26145 
L 287.92366 112.26145 
L 287.92649 111.228206 
L 288.31193 111.228206 
L 288.31193 110.711584 
L 293.994458 110.711584 
L 293.994458 110.194961 
L 294.32722 110.194961 
L 294.32722 109.678339 
L 294.587089 109.678339 
L 294.587089 109.161717 
L 295.063515 109.161717 
L 295.063515 108.645095 
L 295.222259 108.645095 
L 295.314837 107.095229 
L 295.344137 107.095229 
L 295.344137 106.578607 
L 295.501654 106.578607 
L 295.501654 106.061985 
L 295.724993 106.061985 
L 295.784041 104.512119 
L 300.367769 104.512119 
L 300.387038 103.478875 
L 300.62454 103.478875 
L 300.668982 102.445631 
L 300.971112 102.445631 
L 301.015155 101.412387 
L 304.949172 101.412387 
L 305.056556 99.862521 
L 308.119675 99.862521 
L 308.21025 98.829277 
L 308.261111 98.829277 
L 308.261111 98.312655 
L 310.855983 98.312655 
L 310.959218 97.279411 
L 311.010612 97.279411 
L 311.010612 96.762789 
L 311.156718 96.762789 
L 311.156718 96.246167 
L 313.430974 96.246167 
L 313.490633 95.212923 
L 315.502279 95.212923 
L 315.502279 94.696301 
L 315.655229 94.696301 
L 315.655229 94.179679 
L 319.187138 94.179679 
L 319.187138 93.663057 
L 324.775324 93.663057 
L 324.775324 92.113191 
L 325.936452 92.113191 
L 325.936452 91.596569 
L 327.026708 91.596569 
L 327.026708 91.079947 
L 328.024167 91.079947 
L 328.053949 90.046703 
L 329.025614 90.046703 
L 329.025614 89.530081 
L 330.823489 89.530081 
L 330.823489 89.013459 
L 333.220803 89.013459 
L 333.233362 87.980215 
L 337.811791 87.980215 
L 337.811791 87.463593 
L 338.932801 87.463593 
L 338.932801 86.946971 
L 346.73132 86.946971 
L 346.73132 86.430349 
L 358.8 86.430349 
L 358.8 86.430349 
" style="fill:none;stroke:#ff0000;stroke-linecap:square;stroke-width:1.5;"/>
   </g>
   <g id="line2d_59">
    <defs>
     <path d="M -6 6 
L 6 6 
L 6 -6 
L -6 -6 
z
" id="m35f60d75de" style="stroke:#ff0000;stroke-linejoin:miter;stroke-width:1.5;"/>
    </defs>
    <g>
     <use style="fill:none;stroke:#ff0000;stroke-linejoin:miter;stroke-width:1.5;" x="358.8" xlink:href="#m35f60d75de" y="86.430349"/>
    </g>
   </g>
   <g id="line2d_60"/>
   <g id="line2d_61">
    <path clip-path="url(#p58c41bb4fa)" d="M 276.514286 118.977536 
" style="fill:none;stroke:#ff0000;stroke-linecap:square;stroke-width:1.5;"/>
    <defs>
     <path d="M -12 12 
L 12 -12 
M -12 -12 
L 12 12 
" id="m79356d998b" style="stroke:#ff0000;stroke-width:3;"/>
    </defs>
    <g clip-path="url(#p58c41bb4fa)">
     <use style="fill:#ff0000;stroke:#ff0000;stroke-width:3;" x="276.514286" xlink:href="#m79356d998b" y="118.977536"/>
    </g>
   </g>
   <g id="line2d_62">
    <defs>
     <path d="M 0 1.5 
C 0.397805 1.5 0.77937 1.341951 1.06066 1.06066 
C 1.341951 0.77937 1.5 0.397805 1.5 0 
C 1.5 -0.397805 1.341951 -0.77937 1.06066 -1.06066 
C 0.77937 -1.341951 0.397805 -1.5 0 -1.5 
C -0.397805 -1.5 -0.77937 -1.341951 -1.06066 -1.06066 
C -1.341951 -0.77937 -1.5 -0.397805 -1.5 0 
C -1.5 0.397805 -1.341951 0.77937 -1.06066 1.06066 
C -0.77937 1.341951 -0.397805 1.5 0 1.5 
z
" id="me75f561c5a" style="stroke:#bf00bf;"/>
    </defs>
    <g>
     <use style="fill:#bf00bf;stroke:#bf00bf;" x="349.064641" xlink:href="#me75f561c5a" y="210.419632"/>
     <use style="fill:#bf00bf;stroke:#bf00bf;" x="349.064641" xlink:href="#me75f561c5a" y="210.419632"/>
    </g>
   </g>
   <g id="line2d_63">
    <path d="M 192.738699 298.245375 
L 192.738699 297.728753 
L 193.867587 297.728753 
L 193.867587 297.212131 
L 200.494149 297.212131 
L 200.494149 296.695509 
L 200.92922 296.695509 
L 200.92922 296.178887 
L 201.473469 296.178887 
L 201.473469 295.145643 
L 206.569079 295.145643 
L 206.569079 294.629021 
L 209.908735 294.629021 
L 209.908735 294.112399 
L 210.093515 294.112399 
L 210.093515 293.595777 
L 210.312759 293.595777 
L 210.312759 293.079155 
L 210.565188 293.079155 
L 210.565188 292.562533 
L 211.809893 292.562533 
L 211.809893 292.045911 
L 212.173549 292.045911 
L 212.173549 291.529289 
L 212.753106 291.529289 
L 212.753106 291.012667 
L 213.739183 291.012667 
L 213.828898 288.946179 
L 215.178618 288.946179 
L 215.178618 287.396313 
L 215.72342 287.396313 
L 215.72342 286.879691 
L 217.116446 286.879691 
L 217.116446 286.363069 
L 217.362906 286.363069 
L 217.362906 285.846447 
L 217.845858 285.846447 
L 217.845858 285.329825 
L 218.292878 285.329825 
L 218.292878 284.813203 
L 218.887013 284.813203 
L 218.887013 284.296581 
L 219.934529 284.296581 
L 219.934529 283.263337 
L 223.287399 283.263337 
L 223.287399 282.746715 
L 223.686995 282.746715 
L 223.686995 281.196849 
L 224.591479 281.196849 
L 224.64041 279.646982 
L 225.760986 279.646982 
L 225.760986 279.13036 
L 227.438948 279.13036 
L 227.438948 278.613738 
L 230.06354 278.613738 
L 230.159476 277.580494 
L 230.816984 277.580494 
L 230.816984 277.063872 
L 232.404346 277.063872 
L 232.404346 276.54725 
L 232.666116 276.54725 
L 232.666116 276.030628 
L 233.359319 276.030628 
L 233.359319 275.514006 
L 234.370075 275.514006 
L 234.407831 273.96414 
L 235.362492 273.96414 
L 235.362492 272.930896 
L 237.468046 272.930896 
L 237.468046 272.414274 
L 240.885297 272.414274 
L 240.885297 270.864408 
L 242.261418 270.864408 
L 242.261418 269.831164 
L 243.328577 269.831164 
L 243.328577 269.314542 
L 243.952829 269.314542 
L 244.013521 268.281298 
L 244.297668 268.281298 
L 244.297668 266.731432 
L 244.810663 266.731432 
L 244.810663 266.21481 
L 245.502952 266.21481 
L 245.502952 265.698188 
L 245.619127 265.698188 
L 245.619127 265.181566 
L 247.253813 265.181566 
L 247.253813 264.664944 
L 248.075428 264.664944 
L 248.075428 264.148322 
L 248.371351 264.148322 
L 248.410153 262.081834 
L 248.923798 262.081834 
L 248.923798 261.565212 
L 250.58873 261.565212 
L 250.58873 261.04859 
L 253.277092 261.04859 
L 253.277092 259.498724 
L 254.346444 259.498724 
L 254.346444 258.982102 
L 255.170506 258.982102 
L 255.170506 258.46548 
L 256.235524 258.46548 
L 256.28271 257.432236 
L 256.426274 257.432236 
L 256.426274 256.915614 
L 256.957264 256.915614 
L 256.957264 256.398992 
L 257.52472 256.398992 
L 257.52472 255.88237 
L 257.878048 255.88237 
L 257.878048 255.365748 
L 258.109778 255.365748 
L 258.109778 254.332504 
L 258.605838 254.332504 
L 258.605838 253.815882 
L 259.803689 253.815882 
L 259.803689 253.29926 
L 260.467243 253.29926 
L 260.467243 252.782638 
L 260.756585 252.782638 
L 260.784617 251.232772 
L 261.946146 251.232772 
L 261.946146 250.71615 
L 262.118942 250.71615 
L 262.128937 249.682906 
L 264.039487 249.682906 
L 264.112963 248.649662 
L 264.822978 248.649662 
L 264.822978 248.13304 
L 265.334644 248.13304 
L 265.336314 246.583173 
L 265.982497 246.583173 
L 265.982497 246.066551 
L 266.134867 246.066551 
L 266.134867 245.549929 
L 266.696116 245.549929 
L 266.801051 244.516685 
L 267.080425 244.516685 
L 267.080425 244.000063 
L 267.237269 244.000063 
L 267.237269 243.483441 
L 268.9512 243.483441 
L 268.9512 242.450197 
L 269.0871 242.450197 
L 269.0871 241.933575 
L 269.499295 241.933575 
L 269.499295 240.900331 
L 270.069561 240.900331 
L 270.124577 239.867087 
L 270.253139 239.867087 
L 270.279754 238.317221 
L 270.950866 238.317221 
L 270.950866 237.800599 
L 271.070003 237.800599 
L 271.070003 237.283977 
L 271.958689 237.283977 
L 271.958689 235.734111 
L 272.125076 235.734111 
L 272.234389 234.700867 
L 272.878777 234.700867 
L 272.966162 233.151001 
L 273.101852 233.151001 
L 273.123467 232.117757 
L 273.868124 232.117757 
L 273.91985 231.084513 
L 274.121183 231.084513 
L 274.178292 230.051269 
L 274.579998 230.051269 
L 274.579998 229.534647 
L 274.732659 229.534647 
L 274.732659 229.018025 
L 275.695309 229.018025 
L 275.695309 228.501403 
L 275.873066 228.501403 
L 275.873066 227.984781 
L 276.056405 227.984781 
L 276.149654 225.918293 
L 276.18245 225.918293 
L 276.18245 225.401671 
L 276.294954 225.401671 
L 276.391468 224.368427 
L 283.788344 224.368427 
L 283.788344 223.851805 
L 284.798091 223.851805 
L 284.798091 223.335183 
L 286.052804 223.335183 
L 286.052804 222.818561 
L 286.327796 222.818561 
L 286.327796 222.301939 
L 288.005561 222.301939 
L 288.005561 221.268695 
L 288.308236 221.268695 
L 288.308236 220.752073 
L 288.718134 220.752073 
L 288.826558 219.202207 
L 288.838216 219.202207 
L 288.878512 218.168963 
L 295.305164 218.168963 
L 295.305164 217.652341 
L 295.507518 217.652341 
L 295.507518 217.135719 
L 296.068914 217.135719 
L 296.103572 216.102475 
L 300.991558 216.102475 
L 300.991558 215.585853 
L 301.274253 215.585853 
L 301.274253 215.069231 
L 305.001494 215.069231 
L 305.001494 214.552609 
L 313.176784 214.552609 
L 313.176784 214.035987 
L 319.349026 214.035987 
L 319.349026 213.519365 
L 327.131269 213.519365 
L 327.131269 213.002743 
L 331.739826 213.002743 
L 331.739826 212.48612 
L 340.038159 212.48612 
L 340.038159 211.969498 
L 343.296485 211.969498 
L 343.296485 211.452876 
L 346.766201 211.452876 
L 346.766201 210.936254 
L 349.064641 210.936254 
L 349.064641 210.419632 
L 358.8 210.419632 
L 358.8 210.419632 
" style="fill:none;stroke:#bf00bf;stroke-linecap:square;stroke-width:1.5;"/>
   </g>
   <g id="line2d_64">
    <defs>
     <path d="M -0 8.485281 
L 8.485281 0 
L 0 -8.485281 
L -8.485281 -0 
z
" id="m7d34d15031" style="stroke:#bf00bf;stroke-linejoin:miter;stroke-width:1.5;"/>
    </defs>
    <g>
     <use style="fill:none;stroke:#bf00bf;stroke-linejoin:miter;stroke-width:1.5;" x="358.8" xlink:href="#m7d34d15031" y="210.419632"/>
    </g>
   </g>
   <g id="line2d_65"/>
   <g id="line2d_66">
    <path clip-path="url(#p58c41bb4fa)" d="M 276.514286 224.368427 
" style="fill:none;stroke:#bf00bf;stroke-linecap:square;stroke-width:1.5;"/>
    <defs>
     <path d="M -12 12 
L 12 -12 
M -12 -12 
L 12 12 
" id="m1a8b419309" style="stroke:#bf00bf;stroke-width:3;"/>
    </defs>
    <g clip-path="url(#p58c41bb4fa)">
     <use style="fill:#bf00bf;stroke:#bf00bf;stroke-width:3;" x="276.514286" xlink:href="#m1a8b419309" y="224.368427"/>
    </g>
   </g>
   <g id="line2d_67">
    <path d="M 358.8 210.419632 
L 390.48 292.97583 
" style="fill:none;stroke:#bf00bf;stroke-linecap:square;stroke-width:1.5;"/>
    <g>
     <use style="fill:none;stroke:#bf00bf;stroke-linejoin:miter;stroke-width:1.5;" x="358.8" xlink:href="#m7d34d15031" y="210.419632"/>
     <use style="fill:none;stroke:#bf00bf;stroke-linejoin:miter;stroke-width:1.5;" x="390.48" xlink:href="#m7d34d15031" y="292.97583"/>
    </g>
   </g>
   <g id="line2d_68">
    <path d="M 358.8 86.430349 
L 390.48 242.388203 
" style="fill:none;stroke:#ff0000;stroke-linecap:square;stroke-width:1.5;"/>
    <g>
     <use style="fill:none;stroke:#ff0000;stroke-linejoin:miter;stroke-width:1.5;" x="358.8" xlink:href="#m35f60d75de" y="86.430349"/>
     <use style="fill:none;stroke:#ff0000;stroke-linejoin:miter;stroke-width:1.5;" x="390.48" xlink:href="#m35f60d75de" y="242.388203"/>
    </g>
   </g>
   <g id="line2d_69">
    <path d="M 358.8 34.768147 
L 390.48 191.800575 
" style="fill:none;stroke:#000000;stroke-linecap:square;stroke-width:1.5;"/>
    <g>
     <use style="fill:none;stroke:#000000;stroke-width:1.5;" x="358.8" xlink:href="#m17b0ee4268" y="34.768147"/>
     <use style="fill:none;stroke:#000000;stroke-width:1.5;" x="390.48" xlink:href="#m17b0ee4268" y="191.800575"/>
    </g>
   </g>
   <g id="line2d_70">
    <path d="M 358.8 34.768147 
L 390.48 141.212947 
" style="fill:none;stroke:#0000ff;stroke-linecap:square;stroke-width:1.5;"/>
    <g>
     <use style="fill:none;stroke:#0000ff;stroke-linejoin:bevel;stroke-width:1.5;" x="358.8" xlink:href="#m802bdbd630" y="34.768147"/>
     <use style="fill:none;stroke:#0000ff;stroke-linejoin:bevel;stroke-width:1.5;" x="390.48" xlink:href="#m802bdbd630" y="141.212947"/>
    </g>
   </g>
   <g id="line2d_71">
    <path d="M 358.8 34.768147 
L 390.48 90.62532 
" style="fill:none;stroke:#00bfbf;stroke-linecap:square;stroke-width:1.5;"/>
    <g>
     <use style="fill:none;stroke:#00bfbf;stroke-width:1.5;" x="358.8" xlink:href="#mf9e43e527e" y="34.768147"/>
     <use style="fill:none;stroke:#00bfbf;stroke-width:1.5;" x="390.48" xlink:href="#mf9e43e527e" y="90.62532"/>
    </g>
   </g>
   <g id="line2d_72">
    <path d="M 358.8 34.768147 
L 390.48 40.037692 
" style="fill:none;stroke:#008000;stroke-linecap:square;stroke-width:1.5;"/>
    <g>
     <use style="fill:none;stroke:#008000;stroke-linejoin:miter;stroke-width:1.5;" x="358.8" xlink:href="#m601b7620a5" y="34.768147"/>
     <use style="fill:none;stroke:#008000;stroke-linejoin:miter;stroke-width:1.5;" x="390.48" xlink:href="#m601b7620a5" y="40.037692"/>
    </g>
   </g>
   <g id="line2d_73">
    <path d="M 358.8 298.245375 
L 358.8 34.768147 
" style="fill:none;stroke:#000000;stroke-linecap:square;stroke-width:1.5;"/>
   </g>
   <g id="patch_3">
    <path d="M 70.8 298.245375 
L 70.8 32.133375 
" style="fill:none;stroke:#000000;stroke-linecap:square;stroke-linejoin:miter;stroke-width:0.8;"/>
   </g>
   <g id="patch_4">
    <path d="M 427.92 298.245375 
L 427.92 32.133375 
" style="fill:none;stroke:#000000;stroke-linecap:square;stroke-linejoin:miter;stroke-width:0.8;"/>
   </g>
   <g id="patch_5">
    <path d="M 70.8 298.245375 
L 427.92 298.245375 
" style="fill:none;stroke:#000000;stroke-linecap:square;stroke-linejoin:miter;stroke-width:0.8;"/>
   </g>
   <g id="patch_6">
    <path d="M 70.8 32.133375 
L 427.92 32.133375 
" style="fill:none;stroke:#000000;stroke-linecap:square;stroke-linejoin:miter;stroke-width:0.8;"/>
   </g>
   <g id="text_14">
    <!-- 40-D -->
    <defs>
     <path d="M 19.671875 64.796875 
L 19.671875 8.109375 
L 31.59375 8.109375 
Q 46.6875 8.109375 53.6875 14.9375 
Q 60.6875 21.78125 60.6875 36.53125 
Q 60.6875 51.171875 53.6875 57.984375 
Q 46.6875 64.796875 31.59375 64.796875 
z
M 9.8125 72.90625 
L 30.078125 72.90625 
Q 51.265625 72.90625 61.171875 64.09375 
Q 71.09375 55.28125 71.09375 36.53125 
Q 71.09375 17.671875 61.125 8.828125 
Q 51.171875 0 30.078125 0 
L 9.8125 0 
z
" id="DejaVuSans-44"/>
    </defs>
    <g transform="translate(396.24 297.114893)scale(0.15 -0.15)">
     <use xlink:href="#DejaVuSans-34"/>
     <use x="63.623047" xlink:href="#DejaVuSans-30"/>
     <use x="127.246094" xlink:href="#DejaVuSans-2d"/>
     <use x="163.330078" xlink:href="#DejaVuSans-44"/>
    </g>
   </g>
   <g id="text_15">
    <!-- 20-D -->
    <g transform="translate(396.24 246.527265)scale(0.15 -0.15)">
     <use xlink:href="#DejaVuSans-32"/>
     <use x="63.623047" xlink:href="#DejaVuSans-30"/>
     <use x="127.246094" xlink:href="#DejaVuSans-2d"/>
     <use x="163.330078" xlink:href="#DejaVuSans-44"/>
    </g>
   </g>
   <g id="text_16">
    <!-- 10-D -->
    <g transform="translate(396.24 195.939637)scale(0.15 -0.15)">
     <use xlink:href="#DejaVuSans-31"/>
     <use x="63.623047" xlink:href="#DejaVuSans-30"/>
     <use x="127.246094" xlink:href="#DejaVuSans-2d"/>
     <use x="163.330078" xlink:href="#DejaVuSans-44"/>
    </g>
   </g>
   <g id="text_17">
    <!-- 5-D -->
    <defs>
     <path d="M 10.796875 72.90625 
L 49.515625 72.90625 
L 49.515625 64.59375 
L 19.828125 64.59375 
L 19.828125 46.734375 
Q 21.96875 47.46875 24.109375 47.828125 
Q 26.265625 48.1875 28.421875 48.1875 
Q 40.625 48.1875 47.75 41.5 
Q 54.890625 34.8125 54.890625 23.390625 
Q 54.890625 11.625 47.5625 5.09375 
Q 40.234375 -1.421875 26.90625 -1.421875 
Q 22.3125 -1.421875 17.546875 -0.640625 
Q 12.796875 0.140625 7.71875 1.703125 
L 7.71875 11.625 
Q 12.109375 9.234375 16.796875 8.0625 
Q 21.484375 6.890625 26.703125 6.890625 
Q 35.15625 6.890625 40.078125 11.328125 
Q 45.015625 15.765625 45.015625 23.390625 
Q 45.015625 31 40.078125 35.4375 
Q 35.15625 39.890625 26.703125 39.890625 
Q 22.75 39.890625 18.8125 39.015625 
Q 14.890625 38.140625 10.796875 36.28125 
z
" id="DejaVuSans-35"/>
    </defs>
    <g transform="translate(396.24 145.35201)scale(0.15 -0.15)">
     <use xlink:href="#DejaVuSans-35"/>
     <use x="63.623047" xlink:href="#DejaVuSans-2d"/>
     <use x="99.707031" xlink:href="#DejaVuSans-44"/>
    </g>
   </g>
   <g id="text_18">
    <!-- 2-D -->
    <g transform="translate(396.24 94.764382)scale(0.15 -0.15)">
     <use xlink:href="#DejaVuSans-32"/>
     <use x="63.623047" xlink:href="#DejaVuSans-2d"/>
     <use x="99.707031" xlink:href="#DejaVuSans-44"/>
    </g>
   </g>
   <g id="text_19">
    <!-- 3-D -->
    <defs>
     <path d="M 40.578125 39.3125 
Q 47.65625 37.796875 51.625 33 
Q 55.609375 28.21875 55.609375 21.1875 
Q 55.609375 10.40625 48.1875 4.484375 
Q 40.765625 -1.421875 27.09375 -1.421875 
Q 22.515625 -1.421875 17.65625 -0.515625 
Q 12.796875 0.390625 7.625 2.203125 
L 7.625 11.71875 
Q 11.71875 9.328125 16.59375 8.109375 
Q 21.484375 6.890625 26.8125 6.890625 
Q 36.078125 6.890625 40.9375 10.546875 
Q 45.796875 14.203125 45.796875 21.1875 
Q 45.796875 27.640625 41.28125 31.265625 
Q 36.765625 34.90625 28.71875 34.90625 
L 20.21875 34.90625 
L 20.21875 43.015625 
L 29.109375 43.015625 
Q 36.375 43.015625 40.234375 45.921875 
Q 44.09375 48.828125 44.09375 54.296875 
Q 44.09375 59.90625 40.109375 62.90625 
Q 36.140625 65.921875 28.71875 65.921875 
Q 24.65625 65.921875 20.015625 65.03125 
Q 15.375 64.15625 9.8125 62.3125 
L 9.8125 71.09375 
Q 15.4375 72.65625 20.34375 73.4375 
Q 25.25 74.21875 29.59375 74.21875 
Q 40.828125 74.21875 47.359375 69.109375 
Q 53.90625 64.015625 53.90625 55.328125 
Q 53.90625 49.265625 50.4375 45.09375 
Q 46.96875 40.921875 40.578125 39.3125 
" id="DejaVuSans-33"/>
    </defs>
    <g transform="translate(396.24 44.176754)scale(0.15 -0.15)">
     <use xlink:href="#DejaVuSans-33"/>
     <use x="63.623047" xlink:href="#DejaVuSans-2d"/>
     <use x="99.707031" xlink:href="#DejaVuSans-44"/>
    </g>
   </g>
   <g id="text_20">
    <!-- bbob - f6 -->
    <defs>
     <path d="M 48.6875 27.296875 
Q 48.6875 37.203125 44.609375 42.84375 
Q 40.53125 48.484375 33.40625 48.484375 
Q 26.265625 48.484375 22.1875 42.84375 
Q 18.109375 37.203125 18.109375 27.296875 
Q 18.109375 17.390625 22.1875 11.75 
Q 26.265625 6.109375 33.40625 6.109375 
Q 40.53125 6.109375 44.609375 11.75 
Q 48.6875 17.390625 48.6875 27.296875 
M 18.109375 46.390625 
Q 20.953125 51.265625 25.265625 53.625 
Q 29.59375 56 35.59375 56 
Q 45.5625 56 51.78125 48.09375 
Q 58.015625 40.1875 58.015625 27.296875 
Q 58.015625 14.40625 51.78125 6.484375 
Q 45.5625 -1.421875 35.59375 -1.421875 
Q 29.59375 -1.421875 25.265625 0.953125 
Q 20.953125 3.328125 18.109375 8.203125 
L 18.109375 0 
L 9.078125 0 
L 9.078125 75.984375 
L 18.109375 75.984375 
z
" id="DejaVuSans-62"/>
    </defs>
    <g transform="translate(74.3712 50.114612)scale(0.1666 -0.1666)">
     <use xlink:href="#DejaVuSans-62"/>
     <use x="63.476562" xlink:href="#DejaVuSans-62"/>
     <use x="126.953125" xlink:href="#DejaVuSans-6f"/>
     <use x="188.134766" xlink:href="#DejaVuSans-62"/>
     <use x="251.611328" xlink:href="#DejaVuSans-20"/>
     <use x="283.398438" xlink:href="#DejaVuSans-2d"/>
     <use x="319.482422" xlink:href="#DejaVuSans-20"/>
     <use x="351.269531" xlink:href="#DejaVuSans-66"/>
     <use x="386.474609" xlink:href="#DejaVuSans-36"/>
    </g>
    <!-- 51 targets in 100..1e-08 -->
    <g transform="translate(74.3712 68.770168)scale(0.1666 -0.1666)">
     <use xlink:href="#DejaVuSans-35"/>
     <use x="63.623047" xlink:href="#DejaVuSans-31"/>
     <use x="127.246094" xlink:href="#DejaVuSans-20"/>
     <use x="159.033203" xlink:href="#DejaVuSans-74"/>
     <use x="198.242188" xlink:href="#DejaVuSans-61"/>
     <use x="259.521484" xlink:href="#DejaVuSans-72"/>
     <use x="300.619141" xlink:href="#DejaVuSans-67"/>
     <use x="364.095703" xlink:href="#DejaVuSans-65"/>
     <use x="425.619141" xlink:href="#DejaVuSans-74"/>
     <use x="464.828125" xlink:href="#DejaVuSans-73"/>
     <use x="516.927734" xlink:href="#DejaVuSans-20"/>
     <use x="548.714844" xlink:href="#DejaVuSans-69"/>
     <use x="576.498047" xlink:href="#DejaVuSans-6e"/>
     <use x="639.876953" xlink:href="#DejaVuSans-20"/>
     <use x="671.664062" xlink:href="#DejaVuSans-31"/>
     <use x="735.287109" xlink:href="#DejaVuSans-30"/>
     <use x="798.910156" xlink:href="#DejaVuSans-30"/>
     <use x="862.533203" xlink:href="#DejaVuSans-2e"/>
     <use x="894.320312" xlink:href="#DejaVuSans-2e"/>
     <use x="926.107422" xlink:href="#DejaVuSans-31"/>
     <use x="989.730469" xlink:href="#DejaVuSans-65"/>
     <use x="1051.253906" xlink:href="#DejaVuSans-2d"/>
     <use x="1087.337891" xlink:href="#DejaVuSans-30"/>
     <use x="1150.960938" xlink:href="#DejaVuSans-38"/>
    </g>
    <!-- 15 instances -->
    <g transform="translate(74.3712 87.425723)scale(0.1666 -0.1666)">
     <use xlink:href="#DejaVuSans-31"/>
     <use x="63.623047" xlink:href="#DejaVuSans-35"/>
     <use x="127.246094" xlink:href="#DejaVuSans-20"/>
     <use x="159.033203" xlink:href="#DejaVuSans-69"/>
     <use x="186.816406" xlink:href="#DejaVuSans-6e"/>
     <use x="250.195312" xlink:href="#DejaVuSans-73"/>
     <use x="302.294922" xlink:href="#DejaVuSans-74"/>
     <use x="341.503906" xlink:href="#DejaVuSans-61"/>
     <use x="402.783203" xlink:href="#DejaVuSans-6e"/>
     <use x="466.162109" xlink:href="#DejaVuSans-63"/>
     <use x="521.142578" xlink:href="#DejaVuSans-65"/>
     <use x="582.666016" xlink:href="#DejaVuSans-73"/>
    </g>
   </g>
   <g id="text_21">
    <!-- v2.0.1 -->
    <g style="fill:#808080;" transform="translate(233.67875 293.504568)scale(0.1 -0.1)">
     <use xlink:href="#DejaVuSans-76"/>
     <use x="59.179688" xlink:href="#DejaVuSans-32"/>
     <use x="122.802734" xlink:href="#DejaVuSans-2e"/>
     <use x="154.589844" xlink:href="#DejaVuSans-30"/>
     <use x="218.212891" xlink:href="#DejaVuSans-2e"/>
     <use x="250" xlink:href="#DejaVuSans-31"/>
    </g>
   </g>
   <g id="text_22">
    <!-- 6 Attractive sector -->
    <defs>
     <path d="M 34.1875 63.1875 
L 20.796875 26.90625 
L 47.609375 26.90625 
z
M 28.609375 72.90625 
L 39.796875 72.90625 
L 67.578125 0 
L 57.328125 0 
L 50.6875 18.703125 
L 17.828125 18.703125 
L 11.1875 0 
L 0.78125 0 
z
" id="DejaVuSans-41"/>
    </defs>
    <g transform="translate(137.859375 26.133375)scale(0.24 -0.24)">
     <use xlink:href="#DejaVuSans-36"/>
     <use x="63.623047" xlink:href="#DejaVuSans-20"/>
     <use x="95.410156" xlink:href="#DejaVuSans-41"/>
     <use x="163.802734" xlink:href="#DejaVuSans-74"/>
     <use x="203.011719" xlink:href="#DejaVuSans-74"/>
     <use x="242.220703" xlink:href="#DejaVuSans-72"/>
     <use x="283.333984" xlink:href="#DejaVuSans-61"/>
     <use x="344.613281" xlink:href="#DejaVuSans-63"/>
     <use x="399.59375" xlink:href="#DejaVuSans-74"/>
     <use x="438.802734" xlink:href="#DejaVuSans-69"/>
     <use x="466.585938" xlink:href="#DejaVuSans-76"/>
     <use x="525.765625" xlink:href="#DejaVuSans-65"/>
     <use x="587.289062" xlink:href="#DejaVuSans-20"/>
     <use x="619.076172" xlink:href="#DejaVuSans-73"/>
     <use x="671.175781" xlink:href="#DejaVuSans-65"/>
     <use x="732.699219" xlink:href="#DejaVuSans-63"/>
     <use x="787.679688" xlink:href="#DejaVuSans-74"/>
     <use x="826.888672" xlink:href="#DejaVuSans-6f"/>
     <use x="888.070312" xlink:href="#DejaVuSans-72"/>
    </g>
   </g>
  </g>
 </g>
 <defs>
  <clipPath id="p58c41bb4fa">
   <rect height="266.112" width="357.12" x="70.8" y="32.133375"/>
  </clipPath>
 </defs>
</svg>
