<?xml version="1.0" encoding="utf-8" standalone="no"?>
<!DOCTYPE svg PUBLIC "-//W3C//DTD SVG 1.1//EN"
  "http://www.w3.org/Graphics/SVG/1.1/DTD/svg11.dtd">
<!-- Created with matplotlib (http://matplotlib.org/) -->
<svg height="353pt" version="1.1" viewBox="0 0 443 353" width="443pt" xmlns="http://www.w3.org/2000/svg" xmlns:xlink="http://www.w3.org/1999/xlink">
 <defs>
  <style type="text/css">
*{stroke-linecap:butt;stroke-linejoin:round;}
  </style>
 </defs>
 <g id="figure_1">
  <g id="patch_1">
   <path d="M 0 353.22225 
L 443.535 353.22225 
L 443.535 0 
L 0 0 
z
" style="fill:#ffffff;"/>
  </g>
  <g id="axes_1">
   <g id="patch_2">
    <path d="M 70.8 298.245375 
L 427.92 298.245375 
L 427.92 32.133375 
L 70.8 32.133375 
z
" style="fill:#ffffff;"/>
   </g>
   <g id="matplotlib.axis_1">
    <g id="xtick_1">
     <g id="line2d_1">
      <path clip-path="url(#p72c3d33dfe)" d="M 70.8 298.245375 
L 70.8 32.133375 
" style="fill:none;stroke:#b0b0b0;stroke-linecap:square;stroke-width:0.8;"/>
     </g>
     <g id="line2d_2">
      <defs>
       <path d="M 0 0 
L 0 3.5 
" id="m33bff3d580" style="stroke:#000000;stroke-width:0.8;"/>
      </defs>
      <g>
       <use style="stroke:#000000;stroke-width:0.8;" x="70.8" xlink:href="#m33bff3d580" y="298.245375"/>
      </g>
     </g>
     <g id="text_1">
      <!-- 0 -->
      <defs>
       <path d="M 31.78125 66.40625 
Q 24.171875 66.40625 20.328125 58.90625 
Q 16.5 51.421875 16.5 36.375 
Q 16.5 21.390625 20.328125 13.890625 
Q 24.171875 6.390625 31.78125 6.390625 
Q 39.453125 6.390625 43.28125 13.890625 
Q 47.125 21.390625 47.125 36.375 
Q 47.125 51.421875 43.28125 58.90625 
Q 39.453125 66.40625 31.78125 66.40625 
M 31.78125 74.21875 
Q 44.046875 74.21875 50.515625 64.515625 
Q 56.984375 54.828125 56.984375 36.375 
Q 56.984375 17.96875 50.515625 8.265625 
Q 44.046875 -1.421875 31.78125 -1.421875 
Q 19.53125 -1.421875 13.0625 8.265625 
Q 6.59375 17.96875 6.59375 36.375 
Q 6.59375 54.828125 13.0625 64.515625 
Q 19.53125 74.21875 31.78125 74.21875 
" id="DejaVuSans-30"/>
      </defs>
      <g transform="translate(64.4375 320.44225)scale(0.2 -0.2)">
       <use xlink:href="#DejaVuSans-30"/>
      </g>
     </g>
    </g>
    <g id="xtick_2">
     <g id="line2d_3">
      <path clip-path="url(#p72c3d33dfe)" d="M 153.085714 298.245375 
L 153.085714 32.133375 
" style="fill:none;stroke:#b0b0b0;stroke-linecap:square;stroke-width:0.8;"/>
     </g>
     <g id="line2d_4">
      <g>
       <use style="stroke:#000000;stroke-width:0.8;" x="153.085714" xlink:href="#m33bff3d580" y="298.245375"/>
      </g>
     </g>
     <g id="text_2">
      <!-- 2 -->
      <defs>
       <path d="M 19.1875 8.296875 
L 53.609375 8.296875 
L 53.609375 0 
L 7.328125 0 
L 7.328125 8.296875 
Q 12.9375 14.109375 22.625 23.890625 
Q 32.328125 33.6875 34.8125 36.53125 
Q 39.546875 41.84375 41.421875 45.53125 
Q 43.3125 49.21875 43.3125 52.78125 
Q 43.3125 58.59375 39.234375 62.25 
Q 35.15625 65.921875 28.609375 65.921875 
Q 23.96875 65.921875 18.8125 64.3125 
Q 13.671875 62.703125 7.8125 59.421875 
L 7.8125 69.390625 
Q 13.765625 71.78125 18.9375 73 
Q 24.125 74.21875 28.421875 74.21875 
Q 39.75 74.21875 46.484375 68.546875 
Q 53.21875 62.890625 53.21875 53.421875 
Q 53.21875 48.921875 51.53125 44.890625 
Q 49.859375 40.875 45.40625 35.40625 
Q 44.1875 33.984375 37.640625 27.21875 
Q 31.109375 20.453125 19.1875 8.296875 
" id="DejaVuSans-32"/>
      </defs>
      <g transform="translate(146.723214 320.44225)scale(0.2 -0.2)">
       <use xlink:href="#DejaVuSans-32"/>
      </g>
     </g>
    </g>
    <g id="xtick_3">
     <g id="line2d_5">
      <path clip-path="url(#p72c3d33dfe)" d="M 235.371429 298.245375 
L 235.371429 32.133375 
" style="fill:none;stroke:#b0b0b0;stroke-linecap:square;stroke-width:0.8;"/>
     </g>
     <g id="line2d_6">
      <g>
       <use style="stroke:#000000;stroke-width:0.8;" x="235.371429" xlink:href="#m33bff3d580" y="298.245375"/>
      </g>
     </g>
     <g id="text_3">
      <!-- 4 -->
      <defs>
       <path d="M 37.796875 64.3125 
L 12.890625 25.390625 
L 37.796875 25.390625 
z
M 35.203125 72.90625 
L 47.609375 72.90625 
L 47.609375 25.390625 
L 58.015625 25.390625 
L 58.015625 17.1875 
L 47.609375 17.1875 
L 47.609375 0 
L 37.796875 0 
L 37.796875 17.1875 
L 4.890625 17.1875 
L 4.890625 26.703125 
z
" id="DejaVuSans-34"/>
      </defs>
      <g transform="translate(229.008929 320.44225)scale(0.2 -0.2)">
       <use xlink:href="#DejaVuSans-34"/>
      </g>
     </g>
    </g>
    <g id="xtick_4">
     <g id="line2d_7">
      <path clip-path="url(#p72c3d33dfe)" d="M 317.657143 298.245375 
L 317.657143 32.133375 
" style="fill:none;stroke:#b0b0b0;stroke-linecap:square;stroke-width:0.8;"/>
     </g>
     <g id="line2d_8">
      <g>
       <use style="stroke:#000000;stroke-width:0.8;" x="317.657143" xlink:href="#m33bff3d580" y="298.245375"/>
      </g>
     </g>
     <g id="text_4">
      <!-- 6 -->
      <defs>
       <path d="M 33.015625 40.375 
Q 26.375 40.375 22.484375 35.828125 
Q 18.609375 31.296875 18.609375 23.390625 
Q 18.609375 15.53125 22.484375 10.953125 
Q 26.375 6.390625 33.015625 6.390625 
Q 39.65625 6.390625 43.53125 10.953125 
Q 47.40625 15.53125 47.40625 23.390625 
Q 47.40625 31.296875 43.53125 35.828125 
Q 39.65625 40.375 33.015625 40.375 
M 52.59375 71.296875 
L 52.59375 62.3125 
Q 48.875 64.0625 45.09375 64.984375 
Q 41.3125 65.921875 37.59375 65.921875 
Q 27.828125 65.921875 22.671875 59.328125 
Q 17.53125 52.734375 16.796875 39.40625 
Q 19.671875 43.65625 24.015625 45.921875 
Q 28.375 48.1875 33.59375 48.1875 
Q 44.578125 48.1875 50.953125 41.515625 
Q 57.328125 34.859375 57.328125 23.390625 
Q 57.328125 12.15625 50.6875 5.359375 
Q 44.046875 -1.421875 33.015625 -1.421875 
Q 20.359375 -1.421875 13.671875 8.265625 
Q 6.984375 17.96875 6.984375 36.375 
Q 6.984375 53.65625 15.1875 63.9375 
Q 23.390625 74.21875 37.203125 74.21875 
Q 40.921875 74.21875 44.703125 73.484375 
Q 48.484375 72.75 52.59375 71.296875 
" id="DejaVuSans-36"/>
      </defs>
      <g transform="translate(311.294643 320.44225)scale(0.2 -0.2)">
       <use xlink:href="#DejaVuSans-36"/>
      </g>
     </g>
    </g>
    <g id="xtick_5">
     <g id="line2d_9">
      <path clip-path="url(#p72c3d33dfe)" d="M 399.942857 298.245375 
L 399.942857 32.133375 
" style="fill:none;stroke:#b0b0b0;stroke-linecap:square;stroke-width:0.8;"/>
     </g>
     <g id="line2d_10">
      <g>
       <use style="stroke:#000000;stroke-width:0.8;" x="399.942857" xlink:href="#m33bff3d580" y="298.245375"/>
      </g>
     </g>
     <g id="text_5">
      <!-- 8 -->
      <defs>
       <path d="M 31.78125 34.625 
Q 24.75 34.625 20.71875 30.859375 
Q 16.703125 27.09375 16.703125 20.515625 
Q 16.703125 13.921875 20.71875 10.15625 
Q 24.75 6.390625 31.78125 6.390625 
Q 38.8125 6.390625 42.859375 10.171875 
Q 46.921875 13.96875 46.921875 20.515625 
Q 46.921875 27.09375 42.890625 30.859375 
Q 38.875 34.625 31.78125 34.625 
M 21.921875 38.8125 
Q 15.578125 40.375 12.03125 44.71875 
Q 8.5 49.078125 8.5 55.328125 
Q 8.5 64.0625 14.71875 69.140625 
Q 20.953125 74.21875 31.78125 74.21875 
Q 42.671875 74.21875 48.875 69.140625 
Q 55.078125 64.0625 55.078125 55.328125 
Q 55.078125 49.078125 51.53125 44.71875 
Q 48 40.375 41.703125 38.8125 
Q 48.828125 37.15625 52.796875 32.3125 
Q 56.78125 27.484375 56.78125 20.515625 
Q 56.78125 9.90625 50.3125 4.234375 
Q 43.84375 -1.421875 31.78125 -1.421875 
Q 19.734375 -1.421875 13.25 4.234375 
Q 6.78125 9.90625 6.78125 20.515625 
Q 6.78125 27.484375 10.78125 32.3125 
Q 14.796875 37.15625 21.921875 38.8125 
M 18.3125 54.390625 
Q 18.3125 48.734375 21.84375 45.5625 
Q 25.390625 42.390625 31.78125 42.390625 
Q 38.140625 42.390625 41.71875 45.5625 
Q 45.3125 48.734375 45.3125 54.390625 
Q 45.3125 60.0625 41.71875 63.234375 
Q 38.140625 66.40625 31.78125 66.40625 
Q 25.390625 66.40625 21.84375 63.234375 
Q 18.3125 60.0625 18.3125 54.390625 
" id="DejaVuSans-38"/>
      </defs>
      <g transform="translate(393.580357 320.44225)scale(0.2 -0.2)">
       <use xlink:href="#DejaVuSans-38"/>
      </g>
     </g>
    </g>
    <g id="xtick_6">
     <g id="line2d_11">
      <defs>
       <path d="M 0 0 
L 0 2 
" id="ma9687b92eb" style="stroke:#000000;stroke-width:0.6;"/>
      </defs>
      <g>
       <use style="stroke:#000000;stroke-width:0.6;" x="83.185234" xlink:href="#ma9687b92eb" y="298.245375"/>
      </g>
     </g>
    </g>
    <g id="xtick_7">
     <g id="line2d_12">
      <g>
       <use style="stroke:#000000;stroke-width:0.6;" x="95.570468" xlink:href="#ma9687b92eb" y="298.245375"/>
      </g>
     </g>
    </g>
    <g id="xtick_8">
     <g id="line2d_13">
      <g>
       <use style="stroke:#000000;stroke-width:0.6;" x="102.815366" xlink:href="#ma9687b92eb" y="298.245375"/>
      </g>
     </g>
    </g>
    <g id="xtick_9">
     <g id="line2d_14">
      <g>
       <use style="stroke:#000000;stroke-width:0.6;" x="107.955702" xlink:href="#ma9687b92eb" y="298.245375"/>
      </g>
     </g>
    </g>
    <g id="xtick_10">
     <g id="line2d_15">
      <g>
       <use style="stroke:#000000;stroke-width:0.6;" x="165.470948" xlink:href="#ma9687b92eb" y="298.245375"/>
      </g>
     </g>
    </g>
    <g id="xtick_11">
     <g id="line2d_16">
      <g>
       <use style="stroke:#000000;stroke-width:0.6;" x="177.856183" xlink:href="#ma9687b92eb" y="298.245375"/>
      </g>
     </g>
    </g>
    <g id="xtick_12">
     <g id="line2d_17">
      <g>
       <use style="stroke:#000000;stroke-width:0.6;" x="185.10108" xlink:href="#ma9687b92eb" y="298.245375"/>
      </g>
     </g>
    </g>
    <g id="xtick_13">
     <g id="line2d_18">
      <g>
       <use style="stroke:#000000;stroke-width:0.6;" x="190.241417" xlink:href="#ma9687b92eb" y="298.245375"/>
      </g>
     </g>
    </g>
    <g id="xtick_14">
     <g id="line2d_19">
      <g>
       <use style="stroke:#000000;stroke-width:0.6;" x="247.756663" xlink:href="#ma9687b92eb" y="298.245375"/>
      </g>
     </g>
    </g>
    <g id="xtick_15">
     <g id="line2d_20">
      <g>
       <use style="stroke:#000000;stroke-width:0.6;" x="260.141897" xlink:href="#ma9687b92eb" y="298.245375"/>
      </g>
     </g>
    </g>
    <g id="xtick_16">
     <g id="line2d_21">
      <g>
       <use style="stroke:#000000;stroke-width:0.6;" x="267.386794" xlink:href="#ma9687b92eb" y="298.245375"/>
      </g>
     </g>
    </g>
    <g id="xtick_17">
     <g id="line2d_22">
      <g>
       <use style="stroke:#000000;stroke-width:0.6;" x="272.527131" xlink:href="#ma9687b92eb" y="298.245375"/>
      </g>
     </g>
    </g>
    <g id="xtick_18">
     <g id="line2d_23">
      <g>
       <use style="stroke:#000000;stroke-width:0.6;" x="330.042377" xlink:href="#ma9687b92eb" y="298.245375"/>
      </g>
     </g>
    </g>
    <g id="xtick_19">
     <g id="line2d_24">
      <g>
       <use style="stroke:#000000;stroke-width:0.6;" x="342.427611" xlink:href="#ma9687b92eb" y="298.245375"/>
      </g>
     </g>
    </g>
    <g id="xtick_20">
     <g id="line2d_25">
      <g>
       <use style="stroke:#000000;stroke-width:0.6;" x="349.672509" xlink:href="#ma9687b92eb" y="298.245375"/>
      </g>
     </g>
    </g>
    <g id="xtick_21">
     <g id="line2d_26">
      <g>
       <use style="stroke:#000000;stroke-width:0.6;" x="354.812845" xlink:href="#ma9687b92eb" y="298.245375"/>
      </g>
     </g>
    </g>
    <g id="xtick_22">
     <g id="line2d_27">
      <g>
       <use style="stroke:#000000;stroke-width:0.6;" x="412.328091" xlink:href="#ma9687b92eb" y="298.245375"/>
      </g>
     </g>
    </g>
    <g id="xtick_23">
     <g id="line2d_28">
      <g>
       <use style="stroke:#000000;stroke-width:0.6;" x="424.713325" xlink:href="#ma9687b92eb" y="298.245375"/>
      </g>
     </g>
    </g>
    <g id="text_6">
     <!-- log10 of (# f-evals / dimension) -->
     <defs>
      <path d="M 9.421875 75.984375 
L 18.40625 75.984375 
L 18.40625 0 
L 9.421875 0 
z
" id="DejaVuSans-6c"/>
      <path d="M 30.609375 48.390625 
Q 23.390625 48.390625 19.1875 42.75 
Q 14.984375 37.109375 14.984375 27.296875 
Q 14.984375 17.484375 19.15625 11.84375 
Q 23.34375 6.203125 30.609375 6.203125 
Q 37.796875 6.203125 41.984375 11.859375 
Q 46.1875 17.53125 46.1875 27.296875 
Q 46.1875 37.015625 41.984375 42.703125 
Q 37.796875 48.390625 30.609375 48.390625 
M 30.609375 56 
Q 42.328125 56 49.015625 48.375 
Q 55.71875 40.765625 55.71875 27.296875 
Q 55.71875 13.875 49.015625 6.21875 
Q 42.328125 -1.421875 30.609375 -1.421875 
Q 18.84375 -1.421875 12.171875 6.21875 
Q 5.515625 13.875 5.515625 27.296875 
Q 5.515625 40.765625 12.171875 48.375 
Q 18.84375 56 30.609375 56 
" id="DejaVuSans-6f"/>
      <path d="M 45.40625 27.984375 
Q 45.40625 37.75 41.375 43.109375 
Q 37.359375 48.484375 30.078125 48.484375 
Q 22.859375 48.484375 18.828125 43.109375 
Q 14.796875 37.75 14.796875 27.984375 
Q 14.796875 18.265625 18.828125 12.890625 
Q 22.859375 7.515625 30.078125 7.515625 
Q 37.359375 7.515625 41.375 12.890625 
Q 45.40625 18.265625 45.40625 27.984375 
M 54.390625 6.78125 
Q 54.390625 -7.171875 48.1875 -13.984375 
Q 42 -20.796875 29.203125 -20.796875 
Q 24.46875 -20.796875 20.265625 -20.09375 
Q 16.0625 -19.390625 12.109375 -17.921875 
L 12.109375 -9.1875 
Q 16.0625 -11.328125 19.921875 -12.34375 
Q 23.78125 -13.375 27.78125 -13.375 
Q 36.625 -13.375 41.015625 -8.765625 
Q 45.40625 -4.15625 45.40625 5.171875 
L 45.40625 9.625 
Q 42.625 4.78125 38.28125 2.390625 
Q 33.9375 0 27.875 0 
Q 17.828125 0 11.671875 7.65625 
Q 5.515625 15.328125 5.515625 27.984375 
Q 5.515625 40.671875 11.671875 48.328125 
Q 17.828125 56 27.875 56 
Q 33.9375 56 38.28125 53.609375 
Q 42.625 51.21875 45.40625 46.390625 
L 45.40625 54.6875 
L 54.390625 54.6875 
z
" id="DejaVuSans-67"/>
      <path d="M 12.40625 8.296875 
L 28.515625 8.296875 
L 28.515625 63.921875 
L 10.984375 60.40625 
L 10.984375 69.390625 
L 28.421875 72.90625 
L 38.28125 72.90625 
L 38.28125 8.296875 
L 54.390625 8.296875 
L 54.390625 0 
L 12.40625 0 
z
" id="DejaVuSans-31"/>
      <path id="DejaVuSans-20"/>
      <path d="M 37.109375 75.984375 
L 37.109375 68.5 
L 28.515625 68.5 
Q 23.6875 68.5 21.796875 66.546875 
Q 19.921875 64.59375 19.921875 59.515625 
L 19.921875 54.6875 
L 34.71875 54.6875 
L 34.71875 47.703125 
L 19.921875 47.703125 
L 19.921875 0 
L 10.890625 0 
L 10.890625 47.703125 
L 2.296875 47.703125 
L 2.296875 54.6875 
L 10.890625 54.6875 
L 10.890625 58.5 
Q 10.890625 67.625 15.140625 71.796875 
Q 19.390625 75.984375 28.609375 75.984375 
z
" id="DejaVuSans-66"/>
      <path d="M 31 75.875 
Q 24.46875 64.65625 21.28125 53.65625 
Q 18.109375 42.671875 18.109375 31.390625 
Q 18.109375 20.125 21.3125 9.0625 
Q 24.515625 -2 31 -13.1875 
L 23.1875 -13.1875 
Q 15.875 -1.703125 12.234375 9.375 
Q 8.59375 20.453125 8.59375 31.390625 
Q 8.59375 42.28125 12.203125 53.3125 
Q 15.828125 64.359375 23.1875 75.875 
z
" id="DejaVuSans-28"/>
      <path d="M 51.125 44 
L 36.921875 44 
L 32.8125 27.6875 
L 47.125 27.6875 
z
M 43.796875 71.78125 
L 38.71875 51.515625 
L 52.984375 51.515625 
L 58.109375 71.78125 
L 65.921875 71.78125 
L 60.890625 51.515625 
L 76.125 51.515625 
L 76.125 44 
L 58.984375 44 
L 54.984375 27.6875 
L 70.515625 27.6875 
L 70.515625 20.21875 
L 53.078125 20.21875 
L 48 0 
L 40.1875 0 
L 45.21875 20.21875 
L 30.90625 20.21875 
L 25.875 0 
L 18.015625 0 
L 23.09375 20.21875 
L 7.71875 20.21875 
L 7.71875 27.6875 
L 24.90625 27.6875 
L 29 44 
L 13.28125 44 
L 13.28125 51.515625 
L 30.90625 51.515625 
L 35.890625 71.78125 
z
" id="DejaVuSans-23"/>
      <path d="M 4.890625 31.390625 
L 31.203125 31.390625 
L 31.203125 23.390625 
L 4.890625 23.390625 
z
" id="DejaVuSans-2d"/>
      <path d="M 56.203125 29.59375 
L 56.203125 25.203125 
L 14.890625 25.203125 
Q 15.484375 15.921875 20.484375 11.0625 
Q 25.484375 6.203125 34.421875 6.203125 
Q 39.59375 6.203125 44.453125 7.46875 
Q 49.3125 8.734375 54.109375 11.28125 
L 54.109375 2.78125 
Q 49.265625 0.734375 44.1875 -0.34375 
Q 39.109375 -1.421875 33.890625 -1.421875 
Q 20.796875 -1.421875 13.15625 6.1875 
Q 5.515625 13.8125 5.515625 26.8125 
Q 5.515625 40.234375 12.765625 48.109375 
Q 20.015625 56 32.328125 56 
Q 43.359375 56 49.78125 48.890625 
Q 56.203125 41.796875 56.203125 29.59375 
M 47.21875 32.234375 
Q 47.125 39.59375 43.09375 43.984375 
Q 39.0625 48.390625 32.421875 48.390625 
Q 24.90625 48.390625 20.390625 44.140625 
Q 15.875 39.890625 15.1875 32.171875 
z
" id="DejaVuSans-65"/>
      <path d="M 2.984375 54.6875 
L 12.5 54.6875 
L 29.59375 8.796875 
L 46.6875 54.6875 
L 56.203125 54.6875 
L 35.6875 0 
L 23.484375 0 
z
" id="DejaVuSans-76"/>
      <path d="M 34.28125 27.484375 
Q 23.390625 27.484375 19.1875 25 
Q 14.984375 22.515625 14.984375 16.5 
Q 14.984375 11.71875 18.140625 8.90625 
Q 21.296875 6.109375 26.703125 6.109375 
Q 34.1875 6.109375 38.703125 11.40625 
Q 43.21875 16.703125 43.21875 25.484375 
L 43.21875 27.484375 
z
M 52.203125 31.203125 
L 52.203125 0 
L 43.21875 0 
L 43.21875 8.296875 
Q 40.140625 3.328125 35.546875 0.953125 
Q 30.953125 -1.421875 24.3125 -1.421875 
Q 15.921875 -1.421875 10.953125 3.296875 
Q 6 8.015625 6 15.921875 
Q 6 25.140625 12.171875 29.828125 
Q 18.359375 34.515625 30.609375 34.515625 
L 43.21875 34.515625 
L 43.21875 35.40625 
Q 43.21875 41.609375 39.140625 45 
Q 35.0625 48.390625 27.6875 48.390625 
Q 23 48.390625 18.546875 47.265625 
Q 14.109375 46.140625 10.015625 43.890625 
L 10.015625 52.203125 
Q 14.9375 54.109375 19.578125 55.046875 
Q 24.21875 56 28.609375 56 
Q 40.484375 56 46.34375 49.84375 
Q 52.203125 43.703125 52.203125 31.203125 
" id="DejaVuSans-61"/>
      <path d="M 44.28125 53.078125 
L 44.28125 44.578125 
Q 40.484375 46.53125 36.375 47.5 
Q 32.28125 48.484375 27.875 48.484375 
Q 21.1875 48.484375 17.84375 46.4375 
Q 14.5 44.390625 14.5 40.28125 
Q 14.5 37.15625 16.890625 35.375 
Q 19.28125 33.59375 26.515625 31.984375 
L 29.59375 31.296875 
Q 39.15625 29.25 43.1875 25.515625 
Q 47.21875 21.78125 47.21875 15.09375 
Q 47.21875 7.46875 41.1875 3.015625 
Q 35.15625 -1.421875 24.609375 -1.421875 
Q 20.21875 -1.421875 15.453125 -0.5625 
Q 10.6875 0.296875 5.421875 2 
L 5.421875 11.28125 
Q 10.40625 8.6875 15.234375 7.390625 
Q 20.0625 6.109375 24.8125 6.109375 
Q 31.15625 6.109375 34.5625 8.28125 
Q 37.984375 10.453125 37.984375 14.40625 
Q 37.984375 18.0625 35.515625 20.015625 
Q 33.0625 21.96875 24.703125 23.78125 
L 21.578125 24.515625 
Q 13.234375 26.265625 9.515625 29.90625 
Q 5.8125 33.546875 5.8125 39.890625 
Q 5.8125 47.609375 11.28125 51.796875 
Q 16.75 56 26.8125 56 
Q 31.78125 56 36.171875 55.265625 
Q 40.578125 54.546875 44.28125 53.078125 
" id="DejaVuSans-73"/>
      <path d="M 25.390625 72.90625 
L 33.6875 72.90625 
L 8.296875 -9.28125 
L 0 -9.28125 
z
" id="DejaVuSans-2f"/>
      <path d="M 45.40625 46.390625 
L 45.40625 75.984375 
L 54.390625 75.984375 
L 54.390625 0 
L 45.40625 0 
L 45.40625 8.203125 
Q 42.578125 3.328125 38.25 0.953125 
Q 33.9375 -1.421875 27.875 -1.421875 
Q 17.96875 -1.421875 11.734375 6.484375 
Q 5.515625 14.40625 5.515625 27.296875 
Q 5.515625 40.1875 11.734375 48.09375 
Q 17.96875 56 27.875 56 
Q 33.9375 56 38.25 53.625 
Q 42.578125 51.265625 45.40625 46.390625 
M 14.796875 27.296875 
Q 14.796875 17.390625 18.875 11.75 
Q 22.953125 6.109375 30.078125 6.109375 
Q 37.203125 6.109375 41.296875 11.75 
Q 45.40625 17.390625 45.40625 27.296875 
Q 45.40625 37.203125 41.296875 42.84375 
Q 37.203125 48.484375 30.078125 48.484375 
Q 22.953125 48.484375 18.875 42.84375 
Q 14.796875 37.203125 14.796875 27.296875 
" id="DejaVuSans-64"/>
      <path d="M 9.421875 54.6875 
L 18.40625 54.6875 
L 18.40625 0 
L 9.421875 0 
z
M 9.421875 75.984375 
L 18.40625 75.984375 
L 18.40625 64.59375 
L 9.421875 64.59375 
z
" id="DejaVuSans-69"/>
      <path d="M 52 44.1875 
Q 55.375 50.25 60.0625 53.125 
Q 64.75 56 71.09375 56 
Q 79.640625 56 84.28125 50.015625 
Q 88.921875 44.046875 88.921875 33.015625 
L 88.921875 0 
L 79.890625 0 
L 79.890625 32.71875 
Q 79.890625 40.578125 77.09375 44.375 
Q 74.3125 48.1875 68.609375 48.1875 
Q 61.625 48.1875 57.5625 43.546875 
Q 53.515625 38.921875 53.515625 30.90625 
L 53.515625 0 
L 44.484375 0 
L 44.484375 32.71875 
Q 44.484375 40.625 41.703125 44.40625 
Q 38.921875 48.1875 33.109375 48.1875 
Q 26.21875 48.1875 22.15625 43.53125 
Q 18.109375 38.875 18.109375 30.90625 
L 18.109375 0 
L 9.078125 0 
L 9.078125 54.6875 
L 18.109375 54.6875 
L 18.109375 46.1875 
Q 21.1875 51.21875 25.484375 53.609375 
Q 29.78125 56 35.6875 56 
Q 41.65625 56 45.828125 52.96875 
Q 50 49.953125 52 44.1875 
" id="DejaVuSans-6d"/>
      <path d="M 54.890625 33.015625 
L 54.890625 0 
L 45.90625 0 
L 45.90625 32.71875 
Q 45.90625 40.484375 42.875 44.328125 
Q 39.84375 48.1875 33.796875 48.1875 
Q 26.515625 48.1875 22.3125 43.546875 
Q 18.109375 38.921875 18.109375 30.90625 
L 18.109375 0 
L 9.078125 0 
L 9.078125 54.6875 
L 18.109375 54.6875 
L 18.109375 46.1875 
Q 21.34375 51.125 25.703125 53.5625 
Q 30.078125 56 35.796875 56 
Q 45.21875 56 50.046875 50.171875 
Q 54.890625 44.34375 54.890625 33.015625 
" id="DejaVuSans-6e"/>
      <path d="M 8.015625 75.875 
L 15.828125 75.875 
Q 23.140625 64.359375 26.78125 53.3125 
Q 30.421875 42.28125 30.421875 31.390625 
Q 30.421875 20.453125 26.78125 9.375 
Q 23.140625 -1.703125 15.828125 -13.1875 
L 8.015625 -13.1875 
Q 14.5 -2 17.703125 9.0625 
Q 20.90625 20.125 20.90625 31.390625 
Q 20.90625 42.671875 17.703125 53.65625 
Q 14.5 64.65625 8.015625 75.875 
" id="DejaVuSans-29"/>
     </defs>
     <g transform="translate(107.015156 342.278812)scale(0.18 -0.18)">
      <use xlink:href="#DejaVuSans-6c"/>
      <use x="27.783203" xlink:href="#DejaVuSans-6f"/>
      <use x="88.964844" xlink:href="#DejaVuSans-67"/>
      <use x="152.441406" xlink:href="#DejaVuSans-31"/>
      <use x="216.064453" xlink:href="#DejaVuSans-30"/>
      <use x="279.6875" xlink:href="#DejaVuSans-20"/>
      <use x="311.474609" xlink:href="#DejaVuSans-6f"/>
      <use x="372.65625" xlink:href="#DejaVuSans-66"/>
      <use x="407.861328" xlink:href="#DejaVuSans-20"/>
      <use x="439.648438" xlink:href="#DejaVuSans-28"/>
      <use x="478.662109" xlink:href="#DejaVuSans-23"/>
      <use x="562.451172" xlink:href="#DejaVuSans-20"/>
      <use x="594.238281" xlink:href="#DejaVuSans-66"/>
      <use x="629.365234" xlink:href="#DejaVuSans-2d"/>
      <use x="665.449219" xlink:href="#DejaVuSans-65"/>
      <use x="726.972656" xlink:href="#DejaVuSans-76"/>
      <use x="786.152344" xlink:href="#DejaVuSans-61"/>
      <use x="847.431641" xlink:href="#DejaVuSans-6c"/>
      <use x="875.214844" xlink:href="#DejaVuSans-73"/>
      <use x="927.314453" xlink:href="#DejaVuSans-20"/>
      <use x="959.101562" xlink:href="#DejaVuSans-2f"/>
      <use x="992.792969" xlink:href="#DejaVuSans-20"/>
      <use x="1024.580078" xlink:href="#DejaVuSans-64"/>
      <use x="1088.056641" xlink:href="#DejaVuSans-69"/>
      <use x="1115.839844" xlink:href="#DejaVuSans-6d"/>
      <use x="1213.251953" xlink:href="#DejaVuSans-65"/>
      <use x="1274.775391" xlink:href="#DejaVuSans-6e"/>
      <use x="1338.154297" xlink:href="#DejaVuSans-73"/>
      <use x="1390.253906" xlink:href="#DejaVuSans-69"/>
      <use x="1418.037109" xlink:href="#DejaVuSans-6f"/>
      <use x="1479.21875" xlink:href="#DejaVuSans-6e"/>
      <use x="1542.597656" xlink:href="#DejaVuSans-29"/>
     </g>
    </g>
   </g>
   <g id="matplotlib.axis_2">
    <g id="ytick_1">
     <g id="line2d_29">
      <path clip-path="url(#p72c3d33dfe)" d="M 70.8 298.245375 
L 427.92 298.245375 
" style="fill:none;stroke:#b0b0b0;stroke-linecap:square;stroke-width:0.8;"/>
     </g>
     <g id="line2d_30">
      <defs>
       <path d="M 0 0 
L -3.5 0 
" id="m1c74887a3d" style="stroke:#000000;stroke-width:0.8;"/>
      </defs>
      <g>
       <use style="stroke:#000000;stroke-width:0.8;" x="70.8" xlink:href="#m1c74887a3d" y="298.245375"/>
      </g>
     </g>
     <g id="text_7">
      <!-- 0.0 -->
      <defs>
       <path d="M 10.6875 12.40625 
L 21 12.40625 
L 21 0 
L 10.6875 0 
z
" id="DejaVuSans-2e"/>
      </defs>
      <g transform="translate(31.99375 305.843812)scale(0.2 -0.2)">
       <use xlink:href="#DejaVuSans-30"/>
       <use x="63.623047" xlink:href="#DejaVuSans-2e"/>
       <use x="95.410156" xlink:href="#DejaVuSans-30"/>
      </g>
     </g>
    </g>
    <g id="ytick_2">
     <g id="line2d_31">
      <path clip-path="url(#p72c3d33dfe)" d="M 70.8 245.549929 
L 427.92 245.549929 
" style="fill:none;stroke:#b0b0b0;stroke-linecap:square;stroke-width:0.8;"/>
     </g>
     <g id="line2d_32">
      <g>
       <use style="stroke:#000000;stroke-width:0.8;" x="70.8" xlink:href="#m1c74887a3d" y="245.549929"/>
      </g>
     </g>
     <g id="text_8">
      <!-- 0.2 -->
      <g transform="translate(31.99375 253.148367)scale(0.2 -0.2)">
       <use xlink:href="#DejaVuSans-30"/>
       <use x="63.623047" xlink:href="#DejaVuSans-2e"/>
       <use x="95.410156" xlink:href="#DejaVuSans-32"/>
      </g>
     </g>
    </g>
    <g id="ytick_3">
     <g id="line2d_33">
      <path clip-path="url(#p72c3d33dfe)" d="M 70.8 192.854484 
L 427.92 192.854484 
" style="fill:none;stroke:#b0b0b0;stroke-linecap:square;stroke-width:0.8;"/>
     </g>
     <g id="line2d_34">
      <g>
       <use style="stroke:#000000;stroke-width:0.8;" x="70.8" xlink:href="#m1c74887a3d" y="192.854484"/>
      </g>
     </g>
     <g id="text_9">
      <!-- 0.4 -->
      <g transform="translate(31.99375 200.452921)scale(0.2 -0.2)">
       <use xlink:href="#DejaVuSans-30"/>
       <use x="63.623047" xlink:href="#DejaVuSans-2e"/>
       <use x="95.410156" xlink:href="#DejaVuSans-34"/>
      </g>
     </g>
    </g>
    <g id="ytick_4">
     <g id="line2d_35">
      <path clip-path="url(#p72c3d33dfe)" d="M 70.8 140.159038 
L 427.92 140.159038 
" style="fill:none;stroke:#b0b0b0;stroke-linecap:square;stroke-width:0.8;"/>
     </g>
     <g id="line2d_36">
      <g>
       <use style="stroke:#000000;stroke-width:0.8;" x="70.8" xlink:href="#m1c74887a3d" y="140.159038"/>
      </g>
     </g>
     <g id="text_10">
      <!-- 0.6 -->
      <g transform="translate(31.99375 147.757476)scale(0.2 -0.2)">
       <use xlink:href="#DejaVuSans-30"/>
       <use x="63.623047" xlink:href="#DejaVuSans-2e"/>
       <use x="95.410156" xlink:href="#DejaVuSans-36"/>
      </g>
     </g>
    </g>
    <g id="ytick_5">
     <g id="line2d_37">
      <path clip-path="url(#p72c3d33dfe)" d="M 70.8 87.463593 
L 427.92 87.463593 
" style="fill:none;stroke:#b0b0b0;stroke-linecap:square;stroke-width:0.8;"/>
     </g>
     <g id="line2d_38">
      <g>
       <use style="stroke:#000000;stroke-width:0.8;" x="70.8" xlink:href="#m1c74887a3d" y="87.463593"/>
      </g>
     </g>
     <g id="text_11">
      <!-- 0.8 -->
      <g transform="translate(31.99375 95.06203)scale(0.2 -0.2)">
       <use xlink:href="#DejaVuSans-30"/>
       <use x="63.623047" xlink:href="#DejaVuSans-2e"/>
       <use x="95.410156" xlink:href="#DejaVuSans-38"/>
      </g>
     </g>
    </g>
    <g id="ytick_6">
     <g id="line2d_39">
      <path clip-path="url(#p72c3d33dfe)" d="M 70.8 34.768147 
L 427.92 34.768147 
" style="fill:none;stroke:#b0b0b0;stroke-linecap:square;stroke-width:0.8;"/>
     </g>
     <g id="line2d_40">
      <g>
       <use style="stroke:#000000;stroke-width:0.8;" x="70.8" xlink:href="#m1c74887a3d" y="34.768147"/>
      </g>
     </g>
     <g id="text_12">
      <!-- 1.0 -->
      <g transform="translate(31.99375 42.366585)scale(0.2 -0.2)">
       <use xlink:href="#DejaVuSans-31"/>
       <use x="63.623047" xlink:href="#DejaVuSans-2e"/>
       <use x="95.410156" xlink:href="#DejaVuSans-30"/>
      </g>
     </g>
    </g>
    <g id="text_13">
     <!-- Proportion of function+target pairs -->
     <defs>
      <path d="M 19.671875 64.796875 
L 19.671875 37.40625 
L 32.078125 37.40625 
Q 38.96875 37.40625 42.71875 40.96875 
Q 46.484375 44.53125 46.484375 51.125 
Q 46.484375 57.671875 42.71875 61.234375 
Q 38.96875 64.796875 32.078125 64.796875 
z
M 9.8125 72.90625 
L 32.078125 72.90625 
Q 44.34375 72.90625 50.609375 67.359375 
Q 56.890625 61.8125 56.890625 51.125 
Q 56.890625 40.328125 50.609375 34.8125 
Q 44.34375 29.296875 32.078125 29.296875 
L 19.671875 29.296875 
L 19.671875 0 
L 9.8125 0 
z
" id="DejaVuSans-50"/>
      <path d="M 41.109375 46.296875 
Q 39.59375 47.171875 37.8125 47.578125 
Q 36.03125 48 33.890625 48 
Q 26.265625 48 22.1875 43.046875 
Q 18.109375 38.09375 18.109375 28.8125 
L 18.109375 0 
L 9.078125 0 
L 9.078125 54.6875 
L 18.109375 54.6875 
L 18.109375 46.1875 
Q 20.953125 51.171875 25.484375 53.578125 
Q 30.03125 56 36.53125 56 
Q 37.453125 56 38.578125 55.875 
Q 39.703125 55.765625 41.0625 55.515625 
z
" id="DejaVuSans-72"/>
      <path d="M 18.109375 8.203125 
L 18.109375 -20.796875 
L 9.078125 -20.796875 
L 9.078125 54.6875 
L 18.109375 54.6875 
L 18.109375 46.390625 
Q 20.953125 51.265625 25.265625 53.625 
Q 29.59375 56 35.59375 56 
Q 45.5625 56 51.78125 48.09375 
Q 58.015625 40.1875 58.015625 27.296875 
Q 58.015625 14.40625 51.78125 6.484375 
Q 45.5625 -1.421875 35.59375 -1.421875 
Q 29.59375 -1.421875 25.265625 0.953125 
Q 20.953125 3.328125 18.109375 8.203125 
M 48.6875 27.296875 
Q 48.6875 37.203125 44.609375 42.84375 
Q 40.53125 48.484375 33.40625 48.484375 
Q 26.265625 48.484375 22.1875 42.84375 
Q 18.109375 37.203125 18.109375 27.296875 
Q 18.109375 17.390625 22.1875 11.75 
Q 26.265625 6.109375 33.40625 6.109375 
Q 40.53125 6.109375 44.609375 11.75 
Q 48.6875 17.390625 48.6875 27.296875 
" id="DejaVuSans-70"/>
      <path d="M 18.3125 70.21875 
L 18.3125 54.6875 
L 36.8125 54.6875 
L 36.8125 47.703125 
L 18.3125 47.703125 
L 18.3125 18.015625 
Q 18.3125 11.328125 20.140625 9.421875 
Q 21.96875 7.515625 27.59375 7.515625 
L 36.8125 7.515625 
L 36.8125 0 
L 27.59375 0 
Q 17.1875 0 13.234375 3.875 
Q 9.28125 7.765625 9.28125 18.015625 
L 9.28125 47.703125 
L 2.6875 47.703125 
L 2.6875 54.6875 
L 9.28125 54.6875 
L 9.28125 70.21875 
z
" id="DejaVuSans-74"/>
      <path d="M 8.5 21.578125 
L 8.5 54.6875 
L 17.484375 54.6875 
L 17.484375 21.921875 
Q 17.484375 14.15625 20.5 10.265625 
Q 23.53125 6.390625 29.59375 6.390625 
Q 36.859375 6.390625 41.078125 11.03125 
Q 45.3125 15.671875 45.3125 23.6875 
L 45.3125 54.6875 
L 54.296875 54.6875 
L 54.296875 0 
L 45.3125 0 
L 45.3125 8.40625 
Q 42.046875 3.421875 37.71875 1 
Q 33.40625 -1.421875 27.6875 -1.421875 
Q 18.265625 -1.421875 13.375 4.4375 
Q 8.5 10.296875 8.5 21.578125 
M 31.109375 56 
z
" id="DejaVuSans-75"/>
      <path d="M 48.78125 52.59375 
L 48.78125 44.1875 
Q 44.96875 46.296875 41.140625 47.34375 
Q 37.3125 48.390625 33.40625 48.390625 
Q 24.65625 48.390625 19.8125 42.84375 
Q 14.984375 37.3125 14.984375 27.296875 
Q 14.984375 17.28125 19.8125 11.734375 
Q 24.65625 6.203125 33.40625 6.203125 
Q 37.3125 6.203125 41.140625 7.25 
Q 44.96875 8.296875 48.78125 10.40625 
L 48.78125 2.09375 
Q 45.015625 0.34375 40.984375 -0.53125 
Q 36.96875 -1.421875 32.421875 -1.421875 
Q 20.0625 -1.421875 12.78125 6.34375 
Q 5.515625 14.109375 5.515625 27.296875 
Q 5.515625 40.671875 12.859375 48.328125 
Q 20.21875 56 33.015625 56 
Q 37.15625 56 41.109375 55.140625 
Q 45.0625 54.296875 48.78125 52.59375 
" id="DejaVuSans-63"/>
      <path d="M 46 62.703125 
L 46 35.5 
L 73.1875 35.5 
L 73.1875 27.203125 
L 46 27.203125 
L 46 0 
L 37.796875 0 
L 37.796875 27.203125 
L 10.59375 27.203125 
L 10.59375 35.5 
L 37.796875 35.5 
L 37.796875 62.703125 
z
" id="DejaVuSans-2b"/>
     </defs>
     <g transform="translate(24.250312 323.17875)rotate(-90)scale(0.18 -0.18)">
      <use xlink:href="#DejaVuSans-50"/>
      <use x="60.287109" xlink:href="#DejaVuSans-72"/>
      <use x="101.369141" xlink:href="#DejaVuSans-6f"/>
      <use x="162.550781" xlink:href="#DejaVuSans-70"/>
      <use x="226.027344" xlink:href="#DejaVuSans-6f"/>
      <use x="287.208984" xlink:href="#DejaVuSans-72"/>
      <use x="328.322266" xlink:href="#DejaVuSans-74"/>
      <use x="367.53125" xlink:href="#DejaVuSans-69"/>
      <use x="395.314453" xlink:href="#DejaVuSans-6f"/>
      <use x="456.496094" xlink:href="#DejaVuSans-6e"/>
      <use x="519.875" xlink:href="#DejaVuSans-20"/>
      <use x="551.662109" xlink:href="#DejaVuSans-6f"/>
      <use x="612.84375" xlink:href="#DejaVuSans-66"/>
      <use x="648.048828" xlink:href="#DejaVuSans-20"/>
      <use x="679.835938" xlink:href="#DejaVuSans-66"/>
      <use x="715.041016" xlink:href="#DejaVuSans-75"/>
      <use x="778.419922" xlink:href="#DejaVuSans-6e"/>
      <use x="841.798828" xlink:href="#DejaVuSans-63"/>
      <use x="896.779297" xlink:href="#DejaVuSans-74"/>
      <use x="935.988281" xlink:href="#DejaVuSans-69"/>
      <use x="963.771484" xlink:href="#DejaVuSans-6f"/>
      <use x="1024.953125" xlink:href="#DejaVuSans-6e"/>
      <use x="1088.332031" xlink:href="#DejaVuSans-2b"/>
      <use x="1172.121094" xlink:href="#DejaVuSans-74"/>
      <use x="1211.330078" xlink:href="#DejaVuSans-61"/>
      <use x="1272.609375" xlink:href="#DejaVuSans-72"/>
      <use x="1313.707031" xlink:href="#DejaVuSans-67"/>
      <use x="1377.183594" xlink:href="#DejaVuSans-65"/>
      <use x="1438.707031" xlink:href="#DejaVuSans-74"/>
      <use x="1477.916016" xlink:href="#DejaVuSans-20"/>
      <use x="1509.703125" xlink:href="#DejaVuSans-70"/>
      <use x="1573.179688" xlink:href="#DejaVuSans-61"/>
      <use x="1634.458984" xlink:href="#DejaVuSans-69"/>
      <use x="1662.242188" xlink:href="#DejaVuSans-72"/>
      <use x="1703.355469" xlink:href="#DejaVuSans-73"/>
     </g>
    </g>
   </g>
   <g id="line2d_41">
    <defs>
     <path d="M 0 1.5 
C 0.397805 1.5 0.77937 1.341951 1.06066 1.06066 
C 1.341951 0.77937 1.5 0.397805 1.5 0 
C 1.5 -0.397805 1.341951 -0.77937 1.06066 -1.06066 
C 0.77937 -1.341951 0.397805 -1.5 0 -1.5 
C -0.397805 -1.5 -0.77937 -1.341951 -1.06066 -1.06066 
C -1.341951 -0.77937 -1.5 -0.397805 -1.5 0 
C -1.5 0.397805 -1.341951 0.77937 -1.06066 1.06066 
C -0.77937 1.341951 -0.397805 1.5 0 1.5 
z
" id="m0f18079616" style="stroke:#00bfbf;"/>
    </defs>
    <g>
     <use style="fill:#00bfbf;stroke:#00bfbf;" x="239.070382" xlink:href="#m0f18079616" y="34.768147"/>
     <use style="fill:#00bfbf;stroke:#00bfbf;" x="239.070382" xlink:href="#m0f18079616" y="34.768147"/>
    </g>
   </g>
   <g id="line2d_42">
    <path d="M 58.414766 298.245375 
L 58.414766 272.414274 
L 153.085714 272.414274 
L 153.085714 259.498724 
L 160.330612 259.498724 
L 160.330612 258.982102 
L 165.470948 258.982102 
L 165.470948 257.948858 
L 169.458103 257.948858 
L 169.458103 256.398992 
L 175.470228 256.398992 
L 175.470228 254.849126 
L 177.856183 254.849126 
L 177.856183 254.332504 
L 179.960743 254.332504 
L 179.960743 253.815882 
L 189.088235 253.815882 
L 189.088235 253.29926 
L 190.241417 253.29926 
L 190.241417 252.782638 
L 191.324664 252.782638 
L 191.324664 252.266016 
L 192.345978 252.266016 
L 192.345978 251.749394 
L 194.228571 251.749394 
L 194.228571 249.682906 
L 196.725854 249.682906 
L 196.725854 249.166284 
L 197.486314 249.166284 
L 197.486314 248.13304 
L 200.867712 248.13304 
L 200.867712 247.099796 
L 202.059361 247.099796 
L 202.059361 243.483441 
L 203.176482 243.483441 
L 203.176482 238.833843 
L 204.731212 238.833843 
L 204.731212 235.217489 
L 205.697291 235.217489 
L 205.697291 231.084513 
L 206.613806 231.084513 
L 206.613806 226.951537 
L 207.055016 226.951537 
L 207.055016 224.368427 
L 207.485594 224.368427 
L 207.485594 220.235451 
L 207.906039 220.235451 
L 207.906039 218.168963 
L 208.316819 218.168963 
L 208.316819 215.585853 
L 208.718366 215.585853 
L 208.718366 213.002743 
L 209.111088 213.002743 
L 209.111088 207.3199 
L 209.495363 207.3199 
L 209.495363 202.15368 
L 209.871548 202.15368 
L 209.871548 195.437594 
L 210.239976 195.437594 
L 210.239976 187.688264 
L 210.60096 187.688264 
L 210.60096 181.4888 
L 222.986194 181.4888 
L 222.986194 180.972178 
L 223.163988 180.972178 
L 223.163988 177.355823 
L 223.34003 177.355823 
L 223.34003 174.256091 
L 223.514355 174.256091 
L 223.514355 171.156359 
L 223.857983 171.156359 
L 223.857983 168.573249 
L 224.02735 168.573249 
L 224.02735 164.440273 
L 224.195127 164.440273 
L 224.195127 158.757431 
L 224.361343 158.757431 
L 224.361343 157.207565 
L 224.526028 157.207565 
L 224.526028 156.690943 
L 224.689208 156.690943 
L 224.689208 154.107833 
L 224.850911 154.107833 
L 224.850911 153.591211 
L 225.011165 153.591211 
L 225.011165 151.008101 
L 226.094412 151.008101 
L 226.094412 150.491479 
L 226.243937 150.491479 
L 226.243937 149.458235 
L 226.685148 149.458235 
L 226.685148 147.908369 
L 226.82983 147.908369 
L 226.82983 146.875125 
L 226.973349 146.875125 
L 226.973349 145.841881 
L 227.397119 145.841881 
L 227.397119 145.325259 
L 227.536171 145.325259 
L 227.536171 143.25877 
L 227.67415 143.25877 
L 227.67415 140.159038 
L 227.811071 140.159038 
L 227.811071 138.609172 
L 227.94695 138.609172 
L 227.94695 131.893086 
L 228.081805 131.893086 
L 228.081805 129.826598 
L 228.215649 129.826598 
L 228.215649 126.210244 
L 228.611269 126.210244 
L 228.611269 122.077268 
L 228.74122 122.077268 
L 228.74122 119.494158 
L 228.870232 119.494158 
L 228.870232 113.811316 
L 228.998319 113.811316 
L 228.998319 113.294694 
L 229.125495 113.294694 
L 229.125495 110.194961 
L 229.251772 110.194961 
L 229.251772 109.678339 
L 229.377163 109.678339 
L 229.377163 105.028741 
L 229.50168 105.028741 
L 229.50168 99.345899 
L 229.625335 99.345899 
L 229.625335 94.179679 
L 229.748141 94.179679 
L 229.748141 88.496837 
L 229.870108 88.496837 
L 229.870108 85.397105 
L 229.991248 85.397105 
L 229.991248 78.164397 
L 230.111572 78.164397 
L 230.111572 72.998176 
L 230.231092 72.998176 
L 230.231092 67.831956 
L 230.931892 67.831956 
L 230.931892 67.315334 
L 231.272248 67.315334 
L 231.272248 66.798712 
L 231.495602 66.798712 
L 231.495602 65.765468 
L 235.460547 65.765468 
L 235.549222 59.049382 
L 235.63746 59.049382 
L 235.63746 58.53276 
L 235.812639 58.53276 
L 235.899589 54.916406 
L 236.243217 54.916406 
L 236.328101 52.333296 
L 236.580361 52.333296 
L 236.580361 51.300052 
L 236.993038 51.300052 
L 237.074442 47.167076 
L 237.475989 47.167076 
L 237.555227 45.61721 
L 237.634115 45.61721 
L 237.712657 43.550722 
L 237.94623 43.550722 
L 237.94623 42.517478 
L 238.17679 42.517478 
L 238.252987 37.867879 
L 238.479646 37.867879 
L 238.479646 37.351257 
L 238.777455 37.351257 
L 238.777455 35.801391 
L 238.924519 35.801391 
L 238.924519 35.284769 
L 239.070382 35.284769 
L 239.070382 34.768147 
L 358.8 34.768147 
L 358.8 34.768147 
" style="fill:none;stroke:#00bfbf;stroke-linecap:square;stroke-width:1.5;"/>
   </g>
   <g id="line2d_43">
    <defs>
     <path d="M -6 0 
L 6 0 
M 0 6 
L 0 -6 
" id="m54c64fe1de" style="stroke:#00bfbf;stroke-width:1.5;"/>
    </defs>
    <g>
     <use style="fill:none;stroke:#00bfbf;stroke-width:1.5;" x="358.8" xlink:href="#m54c64fe1de" y="34.768147"/>
    </g>
   </g>
   <g id="line2d_44"/>
   <g id="line2d_45">
    <defs>
     <path d="M 0 1.5 
C 0.397805 1.5 0.77937 1.341951 1.06066 1.06066 
C 1.341951 0.77937 1.5 0.397805 1.5 0 
C 1.5 -0.397805 1.341951 -0.77937 1.06066 -1.06066 
C 0.77937 -1.341951 0.397805 -1.5 0 -1.5 
C -0.397805 -1.5 -0.77937 -1.341951 -1.06066 -1.06066 
C -1.341951 -0.77937 -1.5 -0.397805 -1.5 0 
C -1.5 0.397805 -1.341951 0.77937 -1.06066 1.06066 
C -0.77937 1.341951 -0.397805 1.5 0 1.5 
z
" id="mb28150d32a" style="stroke:#008000;"/>
    </defs>
    <g>
     <use style="fill:#008000;stroke:#008000;" x="239.735761" xlink:href="#mb28150d32a" y="34.768147"/>
     <use style="fill:#008000;stroke:#008000;" x="239.735761" xlink:href="#mb28150d32a" y="34.768147"/>
    </g>
   </g>
   <g id="line2d_46">
    <path d="M 51.169868 298.245375 
L 51.169868 284.296581 
L 145.840817 284.296581 
L 145.840817 280.163604 
L 153.085714 280.163604 
L 153.085714 278.097116 
L 158.226051 278.097116 
L 158.226051 277.063872 
L 165.470948 277.063872 
L 165.470948 274.997384 
L 172.715846 274.997384 
L 172.715846 274.480762 
L 176.301453 274.480762 
L 176.301453 273.96414 
L 179.286395 273.96414 
L 179.286395 273.447518 
L 180.610565 273.447518 
L 180.610565 272.930896 
L 182.996519 272.930896 
L 182.996519 270.864408 
L 186.067159 270.864408 
L 186.067159 270.347786 
L 186.983674 270.347786 
L 186.983674 269.314542 
L 188.686687 269.314542 
L 188.686687 267.248054 
L 192.995799 267.248054 
L 192.995799 265.698188 
L 193.622815 265.698188 
L 193.622815 265.181566 
L 194.228571 265.181566 
L 194.228571 264.664944 
L 195.381753 264.664944 
L 195.381753 264.148322 
L 196.465001 264.148322 
L 196.465001 258.982102 
L 197.486314 258.982102 
L 197.486314 258.46548 
L 197.975882 258.46548 
L 197.975882 257.948858 
L 198.452393 257.948858 
L 198.452393 257.432236 
L 199.368908 257.432236 
L 199.368908 256.915614 
L 199.810118 256.915614 
L 199.810118 256.398992 
L 200.240696 256.398992 
L 200.240696 255.88237 
L 200.661142 255.88237 
L 200.661142 253.815882 
L 201.071921 253.815882 
L 201.071921 253.29926 
L 201.473469 253.29926 
L 201.473469 252.782638 
L 202.250466 252.782638 
L 202.250466 251.232772 
L 202.995079 251.232772 
L 202.995079 250.71615 
L 203.356063 250.71615 
L 203.356063 248.13304 
L 205.059076 248.13304 
L 205.059076 247.616418 
L 206.313494 247.616418 
L 206.313494 247.099796 
L 208.850235 247.099796 
L 208.850235 245.033307 
L 210.118009 245.033307 
L 210.118009 243.483441 
L 210.60096 243.483441 
L 210.60096 241.933575 
L 211.301761 241.933575 
L 211.301761 240.383709 
L 211.529383 240.383709 
L 211.529383 239.350465 
L 211.754142 239.350465 
L 211.754142 238.833843 
L 212.195353 238.833843 
L 212.195353 238.317221 
L 212.83739 238.317221 
L 212.83739 237.283977 
L 213.858703 237.283977 
L 213.858703 236.767355 
L 214.251425 236.767355 
L 214.251425 235.217489 
L 215.380313 235.217489 
L 215.380313 234.184245 
L 216.095133 234.184245 
L 216.095133 233.667623 
L 216.442097 233.667623 
L 216.442097 232.634379 
L 216.613085 232.634379 
L 216.613085 230.051269 
L 217.44431 230.051269 
L 217.44431 229.534647 
L 218.393283 229.534647 
L 218.393283 227.984781 
L 218.698728 227.984781 
L 218.698728 226.434915 
L 218.849515 226.434915 
L 218.849515 223.335183 
L 219.44025 223.335183 
L 219.44025 221.785317 
L 220.566173 221.785317 
L 220.566173 219.202207 
L 220.836907 219.202207 
L 220.836907 218.168963 
L 221.496322 218.168963 
L 221.496322 216.619097 
L 221.753422 216.619097 
L 221.753422 214.552609 
L 221.880598 214.552609 
L 221.880598 214.035987 
L 222.006875 214.035987 
L 222.006875 213.002743 
L 222.132265 213.002743 
L 222.132265 212.48612 
L 222.256782 212.48612 
L 222.256782 208.869766 
L 222.380438 208.869766 
L 222.380438 208.353144 
L 222.503243 208.353144 
L 222.503243 207.3199 
L 222.62521 207.3199 
L 222.62521 206.286656 
L 222.74635 206.286656 
L 222.74635 205.253412 
L 222.866675 205.253412 
L 222.866675 201.120436 
L 222.986194 201.120436 
L 222.986194 199.053948 
L 223.456435 199.053948 
L 223.456435 197.504082 
L 225.63818 197.504082 
L 225.63818 196.98746 
L 226.044291 196.98746 
L 226.044291 195.954216 
L 226.733505 195.954216 
L 226.733505 195.437594 
L 228.215649 195.437594 
L 228.304325 189.23813 
L 228.480367 189.23813 
L 228.567742 180.455556 
L 228.654691 180.455556 
L 228.74122 176.322579 
L 228.827331 176.322579 
L 228.91303 172.189603 
L 229.083204 172.189603 
L 229.167687 167.023383 
L 229.335464 167.023383 
L 229.335464 166.506761 
L 229.50168 166.506761 
L 229.584212 164.956895 
L 229.666364 164.956895 
L 229.748141 159.790675 
L 229.910579 159.790675 
L 229.991248 157.207565 
L 230.071554 157.207565 
L 230.151501 155.141077 
L 230.31033 155.141077 
L 230.389218 149.974857 
L 230.467759 149.974857 
L 230.545957 146.875125 
L 230.623814 146.875125 
L 230.701333 145.325259 
L 230.778517 145.325259 
L 230.778517 144.808637 
L 231.008089 144.808637 
L 231.083962 141.708904 
L 231.159515 141.708904 
L 231.234749 137.059306 
L 231.309668 137.059306 
L 231.384274 135.50944 
L 231.45857 135.50944 
L 231.532558 130.34322 
L 231.606241 130.34322 
L 231.679621 118.460914 
L 231.752702 118.460914 
L 231.825484 113.294694 
L 231.897972 113.294694 
L 231.970166 102.962253 
L 232.04207 102.962253 
L 232.113686 94.179679 
L 232.185016 94.179679 
L 232.256062 89.013459 
L 232.326827 89.013459 
L 232.397313 83.847239 
L 232.537456 83.847239 
L 232.537456 80.747507 
L 233.422534 80.747507 
L 233.422534 80.230885 
L 233.554891 80.230885 
L 233.554891 79.714263 
L 233.686274 79.714263 
L 233.686274 76.614531 
L 233.816699 76.614531 
L 233.816699 76.097908 
L 233.946179 76.097908 
L 234.010569 72.481554 
L 234.138656 72.481554 
L 234.202357 67.315334 
L 234.265832 67.315334 
L 234.329082 64.215602 
L 234.454914 64.215602 
L 234.517499 62.149114 
L 234.579866 62.149114 
L 234.642016 58.016138 
L 234.703951 58.016138 
L 234.765672 55.94965 
L 234.82718 55.94965 
L 234.82718 50.78343 
L 234.949565 50.78343 
L 235.010444 45.100588 
L 235.071117 45.100588 
L 235.071117 44.583966 
L 235.191848 44.583966 
L 235.251909 41.484233 
L 235.311769 41.484233 
L 235.311769 40.967611 
L 238.227624 40.967611 
L 238.32886 38.901123 
L 239.358583 38.901123 
L 239.358583 37.351257 
L 239.64221 37.351257 
L 239.735761 34.768147 
L 358.8 34.768147 
L 358.8 34.768147 
" style="fill:none;stroke:#008000;stroke-linecap:square;stroke-width:1.5;"/>
   </g>
   <g id="line2d_47">
    <defs>
     <path d="M -0 6 
L 6 -6 
L -6 -6 
z
" id="mdad334859d" style="stroke:#008000;stroke-linejoin:miter;stroke-width:1.5;"/>
    </defs>
    <g>
     <use style="fill:none;stroke:#008000;stroke-linejoin:miter;stroke-width:1.5;" x="358.8" xlink:href="#mdad334859d" y="34.768147"/>
    </g>
   </g>
   <g id="line2d_48"/>
   <g id="line2d_49">
    <defs>
     <path d="M 0 1.5 
C 0.397805 1.5 0.77937 1.341951 1.06066 1.06066 
C 1.341951 0.77937 1.5 0.397805 1.5 0 
C 1.5 -0.397805 1.341951 -0.77937 1.06066 -1.06066 
C 0.77937 -1.341951 0.397805 -1.5 0 -1.5 
C -0.397805 -1.5 -0.77937 -1.341951 -1.06066 -1.06066 
C -1.341951 -0.77937 -1.5 -0.397805 -1.5 0 
C -1.5 0.397805 -1.341951 0.77937 -1.06066 1.06066 
C -0.77937 1.341951 -0.397805 1.5 0 1.5 
z
" id="m30cd256e55" style="stroke:#0000ff;"/>
    </defs>
    <g>
     <use style="fill:#0000ff;stroke:#0000ff;" x="251.686548" xlink:href="#m30cd256e55" y="34.768147"/>
     <use style="fill:#0000ff;stroke:#0000ff;" x="251.686548" xlink:href="#m30cd256e55" y="34.768147"/>
    </g>
   </g>
   <g id="line2d_50">
    <path d="M 42.042377 298.245375 
L 42.042377 290.496045 
L 136.713325 290.496045 
L 136.713325 287.912935 
L 143.958223 287.912935 
L 143.958223 285.329825 
L 149.098559 285.329825 
L 149.098559 281.713471 
L 153.085714 281.713471 
L 153.085714 281.196849 
L 156.343457 281.196849 
L 156.343457 280.680226 
L 159.097839 280.680226 
L 159.097839 280.163604 
L 161.483794 280.163604 
L 161.483794 278.097116 
L 163.588354 278.097116 
L 163.588354 277.063872 
L 168.728691 277.063872 
L 168.728691 276.54725 
L 170.158903 276.54725 
L 170.158903 273.96414 
L 171.483073 273.96414 
L 171.483073 272.414274 
L 172.715846 272.414274 
L 172.715846 270.347786 
L 173.869028 270.347786 
L 173.869028 269.831164 
L 174.952275 269.831164 
L 174.952275 269.314542 
L 175.973589 269.314542 
L 175.973589 268.281298 
L 176.939668 268.281298 
L 176.939668 266.731432 
L 181.113925 266.731432 
L 181.113925 266.21481 
L 181.843337 266.21481 
L 181.843337 265.698188 
L 183.218486 265.698188 
L 183.218486 265.181566 
L 185.10108 265.181566 
L 185.10108 263.6317 
L 186.804093 263.6317 
L 186.804093 261.04859 
L 187.855462 261.04859 
L 187.855462 260.531968 
L 189.324902 260.531968 
L 189.324902 260.015346 
L 191.113205 260.015346 
L 191.113205 258.982102 
L 191.533651 258.982102 
L 191.533651 257.948858 
L 193.122975 257.948858 
L 193.122975 256.915614 
L 202.626651 256.915614 
L 202.626651 255.88237 
L 205.697291 255.88237 
L 205.697291 254.849126 
L 207.988954 254.849126 
L 207.988954 253.815882 
L 208.316819 253.815882 
L 208.316819 252.782638 
L 210.312759 252.782638 
L 210.312759 251.749394 
L 211.84326 251.749394 
L 211.84326 251.232772 
L 212.23888 251.232772 
L 212.23888 250.199528 
L 212.497843 250.199528 
L 212.497843 249.682906 
L 212.62593 249.682906 
L 212.62593 249.166284 
L 212.753106 249.166284 
L 212.753106 248.649662 
L 213.129291 248.649662 
L 213.129291 248.13304 
L 215.883673 248.13304 
L 215.883673 247.616418 
L 220.124281 247.616418 
L 220.124281 246.066551 
L 221.573841 246.066551 
L 221.573841 245.033307 
L 222.256782 245.033307 
L 222.256782 244.000063 
L 222.697993 244.000063 
L 222.77048 241.416953 
L 222.842675 241.416953 
L 222.842675 240.900331 
L 222.986194 240.900331 
L 222.986194 238.317221 
L 224.624114 238.317221 
L 224.624114 235.734111 
L 224.883077 235.734111 
L 224.947236 234.184245 
L 225.074866 234.184245 
L 225.074866 231.601135 
L 225.452375 231.601135 
L 225.452375 231.084513 
L 225.943626 231.084513 
L 225.943626 230.567891 
L 226.124418 230.567891 
L 226.124418 229.534647 
L 226.887376 229.534647 
L 226.887376 229.018025 
L 228.268907 229.018025 
L 228.322007 227.468159 
L 228.895923 227.468159 
L 228.998319 225.918293 
L 229.049298 225.918293 
L 229.049298 225.401671 
L 229.251772 225.401671 
L 229.302034 223.851805 
L 229.748141 223.851805 
L 229.748141 222.818561 
L 230.039475 222.818561 
L 230.039475 222.301939 
L 230.231092 222.301939 
L 230.231092 221.785317 
L 230.608269 221.785317 
L 230.608269 221.268695 
L 230.747683 221.268695 
L 230.840025 220.235451 
L 231.023289 220.235451 
L 231.023289 219.202207 
L 231.339548 219.202207 
L 231.384274 215.585853 
L 231.650305 215.585853 
L 231.650305 215.069231 
L 232.340946 215.069231 
L 232.425429 213.002743 
L 232.509515 213.002743 
L 232.509515 211.969498 
L 232.718013 211.969498 
L 232.759423 209.386388 
L 233.12785 209.386388 
L 233.168322 208.353144 
L 233.289189 208.353144 
L 233.329297 207.3199 
L 233.449084 207.3199 
L 233.449084 204.220168 
L 233.60756 204.220168 
L 233.646961 202.670302 
L 233.920358 202.670302 
L 233.920358 202.15368 
L 234.492492 202.15368 
L 234.492492 201.120436 
L 234.7903 201.120436 
L 234.7903 200.603814 
L 235.010444 200.603814 
L 235.119507 195.437594 
L 235.155714 195.437594 
L 235.227909 191.82124 
L 235.299813 191.82124 
L 235.299813 191.304618 
L 235.93425 191.304618 
L 235.93425 189.754752 
L 236.106558 189.754752 
L 236.106558 189.23813 
L 236.243217 189.23813 
L 236.243217 186.138398 
L 236.713458 186.138398 
L 236.779636 182.522044 
L 236.84557 182.522044 
L 236.944017 180.455556 
L 237.139299 180.455556 
L 237.17164 178.90569 
L 237.396399 178.90569 
L 237.428278 177.872445 
L 237.775242 177.872445 
L 237.775242 177.355823 
L 237.930753 177.355823 
L 237.930753 176.839201 
L 238.054195 176.839201 
L 238.14622 174.772713 
L 238.17679 174.772713 
L 238.268187 172.189603 
L 238.359119 172.189603 
L 238.449591 163.407029 
L 238.479646 163.407029 
L 238.569511 155.141077 
L 238.629171 155.141077 
L 238.629171 151.008101 
L 239.444145 151.008101 
L 239.444145 150.491479 
L 239.64221 150.491479 
L 239.64221 149.974857 
L 239.893681 149.974857 
L 240.00432 147.908369 
L 240.059384 147.908369 
L 240.059384 147.391747 
L 240.250781 147.391747 
L 240.250781 146.875125 
L 240.760184 146.875125 
L 240.839305 144.292014 
L 241.022569 144.292014 
L 241.126454 141.192282 
L 241.178171 141.192282 
L 241.203973 136.026062 
L 241.306811 136.026062 
L 241.383553 129.826598 
L 241.434532 129.826598 
L 241.459967 127.243488 
L 241.611822 127.243488 
L 241.611822 126.726866 
L 241.886914 126.726866 
L 241.911714 124.660378 
L 242.010569 124.660378 
L 242.010569 123.627134 
L 242.157835 123.627134 
L 242.255342 118.977536 
L 242.303896 118.977536 
L 242.400612 114.327938 
L 242.424709 114.327938 
L 242.520774 109.678339 
L 242.568614 109.678339 
L 242.663911 100.895765 
L 242.829467 100.895765 
L 242.829467 100.379143 
L 243.4313 100.379143 
L 243.522117 98.312655 
L 243.544749 98.312655 
L 243.612474 96.246167 
L 243.702376 96.246167 
L 243.747159 93.663057 
L 243.814122 93.663057 
L 243.858626 90.563325 
L 244.145227 90.563325 
L 244.145227 87.980215 
L 244.297668 87.980215 
L 244.297668 87.463593 
L 244.620012 87.463593 
L 244.704997 84.880483 
L 244.78958 84.880483 
L 244.852756 82.297373 
L 245.391117 82.297373 
L 245.391117 80.747507 
L 245.513084 80.747507 
L 245.593936 77.647775 
L 245.654335 77.647775 
L 245.754549 74.548042 
L 245.774525 74.548042 
L 245.874069 72.481554 
L 246.032195 72.481554 
L 246.091133 69.898444 
L 246.324961 69.898444 
L 246.421494 68.8652 
L 246.479164 68.8652 
L 246.517507 64.732224 
L 246.593949 64.732224 
L 246.689043 61.632492 
L 246.708001 61.632492 
L 246.783633 59.566004 
L 246.82133 59.566004 
L 246.840148 56.982894 
L 247.559024 56.982894 
L 247.595122 53.883162 
L 247.720891 53.883162 
L 247.756663 47.683698 
L 248.696391 47.683698 
L 248.713335 45.61721 
L 248.881904 45.61721 
L 248.881904 45.100588 
L 249.197867 45.100588 
L 249.197867 44.067344 
L 249.312881 44.067344 
L 249.312881 43.550722 
L 249.492134 43.550722 
L 249.492134 40.967611 
L 249.908808 40.967611 
L 249.908808 40.450989 
L 250.066516 40.450989 
L 250.176088 36.834635 
L 250.207272 36.834635 
L 250.238401 35.801391 
L 251.686548 35.801391 
L 251.686548 34.768147 
L 358.8 34.768147 
L 358.8 34.768147 
" style="fill:none;stroke:#0000ff;stroke-linecap:square;stroke-width:1.5;"/>
   </g>
   <g id="line2d_51">
    <defs>
     <path d="M 0 -6 
L -1.347084 -1.854102 
L -5.706339 -1.854102 
L -2.179628 0.708204 
L -3.526712 4.854102 
L -0 2.291796 
L 3.526712 4.854102 
L 2.179628 0.708204 
L 5.706339 -1.854102 
L 1.347084 -1.854102 
z
" id="mea4b6a6d3f" style="stroke:#0000ff;stroke-linejoin:bevel;stroke-width:1.5;"/>
    </defs>
    <g>
     <use style="fill:none;stroke:#0000ff;stroke-linejoin:bevel;stroke-width:1.5;" x="358.8" xlink:href="#mea4b6a6d3f" y="34.768147"/>
    </g>
   </g>
   <g id="line2d_52"/>
   <g id="line2d_53">
    <defs>
     <path d="M 0 1.5 
C 0.397805 1.5 0.77937 1.341951 1.06066 1.06066 
C 1.341951 0.77937 1.5 0.397805 1.5 0 
C 1.5 -0.397805 1.341951 -0.77937 1.06066 -1.06066 
C 0.77937 -1.341951 0.397805 -1.5 0 -1.5 
C -0.397805 -1.5 -0.77937 -1.341951 -1.06066 -1.06066 
C -1.341951 -0.77937 -1.5 -0.397805 -1.5 0 
C -1.5 0.397805 -1.341951 0.77937 -1.06066 1.06066 
C -0.77937 1.341951 -0.397805 1.5 0 1.5 
z
" id="m93588478b4" style="stroke:#000000;"/>
    </defs>
    <g>
     <use style="stroke:#000000;" x="256.585054" xlink:href="#m93588478b4" y="34.768147"/>
     <use style="stroke:#000000;" x="256.585054" xlink:href="#m93588478b4" y="34.768147"/>
    </g>
   </g>
   <g id="line2d_54">
    <path d="M 163.588354 298.245375 
L 163.588354 297.728753 
L 183.218486 297.728753 
L 183.218486 297.212131 
L 183.868307 297.212131 
L 183.868307 296.178887 
L 187.33751 296.178887 
L 187.33751 294.629021 
L 187.855462 294.629021 
L 187.855462 293.079155 
L 188.358823 293.079155 
L 188.358823 292.045911 
L 191.113205 292.045911 
L 191.113205 291.012667 
L 191.94443 291.012667 
L 191.94443 289.979423 
L 192.738699 289.979423 
L 192.738699 289.462801 
L 193.867587 289.462801 
L 193.867587 287.396313 
L 196.5698 287.396313 
L 196.5698 285.846447 
L 197.186003 285.846447 
L 197.186003 284.296581 
L 198.072206 284.296581 
L 198.072206 282.746715 
L 198.358102 282.746715 
L 198.358102 281.713471 
L 198.639496 281.713471 
L 198.639496 279.13036 
L 198.916526 279.13036 
L 198.916526 276.54725 
L 199.189327 276.54725 
L 199.189327 274.997384 
L 199.458026 274.997384 
L 199.458026 274.480762 
L 199.722744 274.480762 
L 199.722744 273.96414 
L 199.983597 273.96414 
L 199.983597 272.930896 
L 200.494149 272.930896 
L 200.494149 272.414274 
L 201.473469 272.414274 
L 201.473469 270.864408 
L 202.174269 270.864408 
L 202.174269 269.314542 
L 202.848618 269.314542 
L 202.848618 268.79792 
L 203.067861 268.79792 
L 203.067861 268.281298 
L 203.498439 268.281298 
L 203.498439 267.764676 
L 204.125455 267.764676 
L 204.125455 267.248054 
L 204.329664 267.248054 
L 204.329664 266.731432 
L 204.928651 266.731432 
L 204.928651 266.21481 
L 205.123933 266.21481 
L 205.123933 265.181566 
L 205.317104 265.181566 
L 205.317104 263.6317 
L 205.508209 263.6317 
L 205.508209 263.115078 
L 206.069557 263.115078 
L 206.069557 262.081834 
L 206.434225 262.081834 
L 206.434225 261.565212 
L 215.989716 261.565212 
L 215.989716 260.531968 
L 218.176321 260.531968 
L 218.176321 260.015346 
L 218.454791 260.015346 
L 218.546658 258.46548 
L 218.819459 258.46548 
L 218.819459 257.948858 
L 218.99904 257.948858 
L 218.99904 256.915614 
L 223.128571 256.915614 
L 223.128571 256.398992 
L 224.295042 256.398992 
L 224.295042 255.88237 
L 225.943626 255.88237 
L 225.943626 255.365748 
L 226.597773 255.365748 
L 226.597773 254.332504 
L 226.887376 254.332504 
L 226.887376 253.815882 
L 227.058911 253.815882 
L 227.058911 251.749394 
L 227.228815 251.749394 
L 227.285093 250.199528 
L 227.397119 250.199528 
L 227.397119 249.166284 
L 227.67415 249.166284 
L 227.67415 248.13304 
L 228.054915 248.13304 
L 228.162232 245.549929 
L 228.74122 245.549929 
L 228.74122 245.033307 
L 229.150822 245.033307 
L 229.201368 242.450197 
L 229.402136 242.450197 
L 229.402136 241.933575 
L 229.551245 241.933575 
L 229.600672 239.867087 
L 229.69912 239.867087 
L 229.69912 238.833843 
L 229.894402 238.833843 
L 229.894402 238.317221 
L 230.13554 238.317221 
L 230.13554 237.800599 
L 230.278677 237.800599 
L 230.278677 237.283977 
L 230.420676 237.283977 
L 230.420676 235.734111 
L 230.654862 235.734111 
L 230.654862 234.184245 
L 230.840025 234.184245 
L 230.886018 232.117757 
L 231.159515 232.117757 
L 231.159515 231.601135 
L 231.294709 231.601135 
L 231.294709 231.084513 
L 233.248991 231.084513 
L 233.248991 230.051269 
L 235.083227 230.051269 
L 235.155714 229.018025 
L 235.335657 229.018025 
L 235.442758 226.951537 
L 236.20915 226.951537 
L 236.243217 225.918293 
L 236.513439 225.918293 
L 236.546932 223.335183 
L 236.647033 223.335183 
L 236.713458 219.718829 
L 236.84557 219.718829 
L 236.944017 218.168963 
L 236.976713 218.168963 
L 237.041925 213.519365 
L 237.649851 213.519365 
L 237.681282 212.48612 
L 237.930753 212.48612 
L 237.992581 209.90301 
L 238.054195 209.90301 
L 238.084923 207.836522 
L 238.268187 207.836522 
L 238.359119 205.253412 
L 238.389327 205.253412 
L 238.389327 204.220168 
L 238.509652 204.220168 
L 238.599366 201.120436 
L 239.921405 201.120436 
L 239.921405 200.603814 
L 240.141662 200.603814 
L 240.141662 200.087192 
L 241.100539 200.087192 
L 241.203973 199.053948 
L 241.306811 199.053948 
L 241.332429 196.470838 
L 241.434532 196.470838 
L 241.510729 189.23813 
L 241.586602 189.23813 
L 241.586602 188.204886 
L 241.762397 188.204886 
L 241.762397 187.688264 
L 241.911714 187.688264 
L 241.911714 187.171642 
L 242.084354 187.171642 
L 242.133375 182.522044 
L 242.206655 182.522044 
L 242.279636 178.90569 
L 242.376482 178.90569 
L 242.424709 176.322579 
L 242.496806 176.322579 
L 242.568614 168.056627 
L 242.616326 168.056627 
L 242.663911 165.473517 
L 242.758702 165.473517 
L 242.758702 164.440273 
L 243.24827 164.440273 
L 243.24827 163.407029 
L 243.522117 163.407029 
L 243.589927 160.823919 
L 243.657482 160.823919 
L 243.679943 158.240809 
L 245.913732 158.240809 
L 245.93353 154.624455 
L 246.20843 154.624455 
L 246.286202 153.591211 
L 246.363637 153.591211 
L 246.421494 152.557967 
L 246.498346 152.557967 
L 246.574869 149.458235 
L 246.632047 149.458235 
L 246.726939 142.225526 
L 246.745857 142.225526 
L 246.840148 134.476196 
L 246.858947 134.476196 
L 246.915224 131.376464 
L 247.120072 131.376464 
L 247.120072 130.859842 
L 247.450293 130.859842 
L 247.504741 129.826598 
L 247.613143 129.826598 
L 247.720891 126.210244 
L 247.738786 126.210244 
L 247.756663 122.59389 
L 248.998962 122.59389 
L 248.998962 122.077268 
L 249.312881 122.077268 
L 249.410878 121.044024 
L 249.443425 121.044024 
L 249.540711 117.944292 
L 249.605275 117.944292 
L 249.605275 117.42767 
L 249.972059 117.42767 
L 250.066516 112.26145 
L 250.097891 112.26145 
L 250.207272 100.895765 
L 250.222843 100.895765 
L 250.253945 96.246167 
L 250.834825 96.246167 
L 250.939799 90.563325 
L 250.954745 90.563325 
L 251.05902 84.363861 
L 251.088701 84.363861 
L 251.103523 83.330617 
L 251.353637 83.330617 
L 251.411982 81.780751 
L 251.470137 81.780751 
L 251.571455 76.097908 
L 251.585882 76.097908 
L 251.686548 71.44831 
L 251.700882 71.44831 
L 251.78665 64.215602 
L 251.815147 64.215602 
L 251.815147 62.665736 
L 251.971078 62.665736 
L 251.985186 61.11587 
L 252.223338 61.11587 
L 252.33432 58.53276 
L 252.375762 58.53276 
L 252.430868 55.94965 
L 252.798453 55.94965 
L 252.825383 54.399784 
L 253.012766 54.399784 
L 253.079215 52.333296 
L 253.132197 52.333296 
L 253.198204 50.266808 
L 253.6407 50.266808 
L 253.6407 49.750186 
L 253.781546 49.750186 
L 253.794295 48.20032 
L 253.984451 48.20032 
L 253.997056 47.167076 
L 254.110106 47.167076 
L 254.172604 45.100588 
L 254.309335 45.100588 
L 254.395803 40.450989 
L 254.530843 40.450989 
L 254.530843 39.934367 
L 254.85804 39.934367 
L 254.953848 37.867879 
L 254.989644 37.867879 
L 254.989644 37.351257 
L 256.199357 37.351257 
L 256.199357 36.318013 
L 256.497626 36.318013 
L 256.585054 34.768147 
L 358.8 34.768147 
L 358.8 34.768147 
" style="fill:none;stroke:#000000;stroke-linecap:square;stroke-width:1.5;"/>
   </g>
   <g id="line2d_55">
    <defs>
     <path d="M 0 6 
C 1.591219 6 3.117479 5.367802 4.242641 4.242641 
C 5.367802 3.117479 6 1.591219 6 0 
C 6 -1.591219 5.367802 -3.117479 4.242641 -4.242641 
C 3.117479 -5.367802 1.591219 -6 0 -6 
C -1.591219 -6 -3.117479 -5.367802 -4.242641 -4.242641 
C -5.367802 -3.117479 -6 -1.591219 -6 0 
C -6 1.591219 -5.367802 3.117479 -4.242641 4.242641 
C -3.117479 5.367802 -1.591219 6 0 6 
z
" id="mf0195402af" style="stroke:#000000;stroke-width:1.5;"/>
    </defs>
    <g>
     <use style="fill:none;stroke:#000000;stroke-width:1.5;" x="358.8" xlink:href="#mf0195402af" y="34.768147"/>
    </g>
   </g>
   <g id="line2d_56"/>
   <g id="line2d_57">
    <defs>
     <path d="M 0 1.5 
C 0.397805 1.5 0.77937 1.341951 1.06066 1.06066 
C 1.341951 0.77937 1.5 0.397805 1.5 0 
C 1.5 -0.397805 1.341951 -0.77937 1.06066 -1.06066 
C 0.77937 -1.341951 0.397805 -1.5 0 -1.5 
C -0.397805 -1.5 -0.77937 -1.341951 -1.06066 -1.06066 
C -1.341951 -0.77937 -1.5 -0.397805 -1.5 0 
C -1.5 0.397805 -1.341951 0.77937 -1.06066 1.06066 
C -0.77937 1.341951 -0.397805 1.5 0 1.5 
z
" id="m330c58c850" style="stroke:#ff0000;"/>
    </defs>
    <g>
     <use style="fill:#ff0000;stroke:#ff0000;" x="266.747117" xlink:href="#m330c58c850" y="34.768147"/>
     <use style="fill:#ff0000;stroke:#ff0000;" x="266.747117" xlink:href="#m330c58c850" y="34.768147"/>
    </g>
   </g>
   <g id="line2d_58">
    <path d="M 160.330612 298.245375 
L 160.330612 296.695509 
L 162.567041 296.695509 
L 162.567041 296.178887 
L 163.588354 296.178887 
L 163.588354 295.145643 
L 166.342737 295.145643 
L 166.342737 294.112399 
L 168.728691 294.112399 
L 168.728691 292.045911 
L 170.833252 292.045911 
L 170.833252 291.529289 
L 171.483073 291.529289 
L 171.483073 291.012667 
L 172.110089 291.012667 
L 172.110089 289.979423 
L 173.301738 289.979423 
L 173.301738 288.946179 
L 174.418859 288.946179 
L 174.418859 288.429557 
L 174.952275 288.429557 
L 174.952275 287.396313 
L 175.470228 287.396313 
L 175.470228 286.879691 
L 176.463157 286.879691 
L 176.463157 286.363069 
L 176.939668 286.363069 
L 176.939668 285.846447 
L 179.148416 285.846447 
L 179.148416 285.329825 
L 180.353465 285.329825 
L 180.353465 284.296581 
L 180.73774 284.296581 
L 180.73774 283.263337 
L 181.482353 283.263337 
L 181.482353 282.230093 
L 181.843337 282.230093 
L 181.843337 281.713471 
L 192.738699 281.713471 
L 192.738699 281.196849 
L 193.122975 281.196849 
L 193.122975 280.163604 
L 193.499159 280.163604 
L 193.499159 279.646982 
L 194.048991 279.646982 
L 194.048991 279.13036 
L 194.228571 279.13036 
L 194.228571 278.613738 
L 206.161424 278.613738 
L 206.161424 278.097116 
L 206.524241 278.097116 
L 206.524241 277.580494 
L 209.945844 277.580494 
L 209.945844 277.063872 
L 210.166896 277.063872 
L 210.166896 276.54725 
L 219.13255 276.54725 
L 219.221007 274.997384 
L 219.44025 274.997384 
L 219.483778 273.96414 
L 219.570516 273.96414 
L 219.570516 273.447518 
L 219.870828 273.447518 
L 219.870828 272.930896 
L 220.124281 272.930896 
L 220.124281 272.414274 
L 220.249671 272.414274 
L 220.332779 269.314542 
L 220.497844 269.314542 
L 220.497844 267.764676 
L 220.742616 267.764676 
L 220.783088 264.664944 
L 220.863756 264.664944 
L 220.863756 264.148322 
L 221.063849 264.148322 
L 221.063849 263.115078 
L 221.689493 263.115078 
L 221.689493 262.598456 
L 222.144756 262.598456 
L 222.144756 261.565212 
L 222.697993 261.565212 
L 222.697993 261.04859 
L 225.358743 261.04859 
L 225.358743 260.531968 
L 225.483477 260.531968 
L 225.483477 260.015346 
L 225.791556 260.015346 
L 225.791556 259.498724 
L 225.973885 259.498724 
L 225.973885 258.982102 
L 226.184277 258.982102 
L 226.184277 257.948858 
L 227.48068 257.948858 
L 227.48068 257.432236 
L 227.646639 257.432236 
L 227.646639 256.915614 
L 228.767097 256.915614 
L 228.767097 256.398992 
L 229.94289 256.398992 
L 229.94289 255.88237 
L 231.955751 255.88237 
L 231.955751 255.365748 
L 232.256062 255.365748 
L 232.256062 254.849126 
L 232.425429 254.849126 
L 232.467522 253.815882 
L 232.924107 253.815882 
L 232.924107 253.29926 
L 233.148098 253.29926 
L 233.148098 252.782638 
L 233.349317 252.782638 
L 233.449084 250.71615 
L 233.900968 250.71615 
L 233.900968 249.682906 
L 234.28483 249.682906 
L 234.28483 248.649662 
L 234.436096 248.649662 
L 234.436096 248.13304 
L 234.697767 248.13304 
L 234.771832 247.099796 
L 234.882357 247.099796 
L 234.882357 246.583173 
L 235.065059 246.583173 
L 235.065059 246.066551 
L 235.263897 246.066551 
L 235.263897 245.549929 
L 235.742773 245.549929 
L 235.742773 244.516685 
L 236.157927 244.516685 
L 236.226192 242.966819 
L 237.187788 242.966819 
L 237.187788 242.450197 
L 237.444196 242.450197 
L 237.491865 240.900331 
L 237.915263 240.900331 
L 238.023414 239.350465 
L 238.161511 239.350465 
L 238.161511 237.800599 
L 238.449591 237.800599 
L 238.554565 235.217489 
L 238.569511 235.217489 
L 238.569511 234.184245 
L 240.574194 234.184245 
L 240.680711 231.601135 
L 240.720492 231.601135 
L 240.733732 230.567891 
L 241.358009 230.567891 
L 241.358009 230.051269 
L 241.911714 230.051269 
L 241.948849 227.468159 
L 242.096622 227.468159 
L 242.157835 226.434915 
L 242.303896 226.434915 
L 242.303896 225.918293 
L 242.993503 225.918293 
L 242.993503 224.885049 
L 243.702376 224.885049 
L 243.735974 222.818561 
L 244.024533 222.818561 
L 244.024533 222.301939 
L 244.286822 222.301939 
L 244.319339 220.235451 
L 244.683789 220.235451 
L 244.683789 219.718829 
L 245.360495 219.718829 
L 245.370708 218.685585 
L 245.794478 218.685585 
L 245.864139 211.452876 
L 246.012505 211.452876 
L 246.012505 210.936254 
L 246.811913 210.936254 
L 246.868339 209.386388 
L 247.203201 209.386388 
L 247.304281 206.803278 
L 247.72984 206.803278 
L 247.72984 206.286656 
L 248.423068 206.286656 
L 248.423068 205.770034 
L 248.560252 205.770034 
L 248.628451 203.703546 
L 248.990626 203.703546 
L 249.06551 198.020704 
L 249.386429 198.020704 
L 249.459676 191.82124 
L 249.500239 191.82124 
L 249.500239 191.304618 
L 249.789608 191.304618 
L 249.85328 189.754752 
L 250.238401 189.754752 
L 250.315987 187.688264 
L 250.615396 187.688264 
L 250.638221 186.138398 
L 250.9846 186.138398 
L 250.999509 185.105154 
L 251.36094 185.105154 
L 251.36094 184.588532 
L 251.722363 184.588532 
L 251.743817 182.522044 
L 252.097653 182.522044 
L 252.097653 182.005422 
L 252.292783 182.005422 
L 252.389554 180.455556 
L 252.410223 180.455556 
L 252.444618 179.422312 
L 252.683545 179.422312 
L 252.764734 175.805957 
L 253.059306 175.805957 
L 253.118966 171.672981 
L 253.381737 171.672981 
L 253.466313 170.123115 
L 253.672808 170.123115 
L 253.768788 167.540005 
L 254.078775 167.540005 
L 254.085046 166.506761 
L 254.358797 166.506761 
L 254.395803 163.923651 
L 254.543069 163.923651 
L 254.543069 163.407029 
L 254.670938 163.407029 
L 254.701249 161.340541 
L 255.197036 161.340541 
L 255.291048 155.657699 
L 255.494991 155.657699 
L 255.587453 151.524723 
L 255.810843 151.524723 
L 255.88469 147.908369 
L 255.924327 147.908369 
L 255.924327 146.358503 
L 256.098817 146.358503 
L 256.154742 144.808637 
L 256.393246 144.808637 
L 256.398755 143.25877 
L 256.634045 143.25877 
L 256.731626 140.159038 
L 256.941241 140.159038 
L 256.941241 138.09255 
L 257.472928 138.09255 
L 257.488481 137.059306 
L 257.694575 137.059306 
L 257.776351 131.893086 
L 257.928681 131.893086 
L 258.009395 127.76011 
L 258.184697 127.76011 
L 258.204622 125.693622 
L 258.710195 125.693622 
L 258.73921 124.143756 
L 258.95533 124.143756 
L 258.979183 123.110512 
L 259.183013 123.110512 
L 259.206564 121.044024 
L 259.67118 121.044024 
L 259.684933 119.494158 
L 259.880912 119.494158 
L 259.944258 114.84456 
L 260.079249 114.84456 
L 260.141897 110.711584 
L 260.337373 110.711584 
L 260.337373 109.161717 
L 260.543841 109.161717 
L 260.583107 105.028741 
L 260.795387 105.028741 
L 260.795387 104.512119 
L 261.005174 104.512119 
L 261.017939 102.445631 
L 261.140861 102.445631 
L 261.22094 100.895765 
L 261.396693 100.895765 
L 261.396693 99.862521 
L 261.591341 99.862521 
L 261.632484 94.179679 
L 261.828659 94.179679 
L 261.836786 91.079947 
L 262.042796 91.079947 
L 262.066877 87.980215 
L 262.202727 87.980215 
L 262.262333 84.363861 
L 262.5964 84.363861 
L 262.666349 78.681019 
L 262.816973 78.681019 
L 262.816973 78.164397 
L 263.182418 78.164397 
L 263.197484 76.097908 
L 263.392193 76.097908 
L 263.392193 75.064664 
L 263.573747 75.064664 
L 263.632633 72.481554 
L 263.746175 72.481554 
L 263.749825 70.931688 
L 263.913337 70.931688 
L 263.978325 65.248846 
L 264.118328 65.248846 
L 264.129052 63.69898 
L 264.278517 63.69898 
L 264.299767 62.665736 
L 264.444307 62.665736 
L 264.458346 60.599248 
L 264.643328 60.599248 
L 264.653742 59.049382 
L 264.970183 59.049382 
L 265.00084 56.982894 
L 265.149968 56.982894 
L 265.163463 53.883162 
L 265.297861 53.883162 
L 265.334644 49.750186 
L 265.457816 49.750186 
L 265.500891 44.067344 
L 265.809309 44.067344 
L 265.832065 40.450989 
L 265.96477 40.450989 
L 265.993768 37.351257 
L 266.328656 37.351257 
L 266.338133 36.318013 
L 266.460873 36.318013 
L 266.460873 35.801391 
L 266.688376 35.801391 
L 266.747117 34.768147 
L 358.8 34.768147 
L 358.8 34.768147 
" style="fill:none;stroke:#ff0000;stroke-linecap:square;stroke-width:1.5;"/>
   </g>
   <g id="line2d_59">
    <defs>
     <path d="M -6 6 
L 6 6 
L 6 -6 
L -6 -6 
z
" id="m0dc8e80b37" style="stroke:#ff0000;stroke-linejoin:miter;stroke-width:1.5;"/>
    </defs>
    <g>
     <use style="fill:none;stroke:#ff0000;stroke-linejoin:miter;stroke-width:1.5;" x="358.8" xlink:href="#m0dc8e80b37" y="34.768147"/>
    </g>
   </g>
   <g id="line2d_60"/>
   <g id="line2d_61">
    <defs>
     <path d="M 0 1.5 
C 0.397805 1.5 0.77937 1.341951 1.06066 1.06066 
C 1.341951 0.77937 1.5 0.397805 1.5 0 
C 1.5 -0.397805 1.341951 -0.77937 1.06066 -1.06066 
C 0.77937 -1.341951 0.397805 -1.5 0 -1.5 
C -0.397805 -1.5 -0.77937 -1.341951 -1.06066 -1.06066 
C -1.341951 -0.77937 -1.5 -0.397805 -1.5 0 
C -1.5 0.397805 -1.341951 0.77937 -1.06066 1.06066 
C -0.77937 1.341951 -0.397805 1.5 0 1.5 
z
" id="m97e871cfed" style="stroke:#bf00bf;"/>
    </defs>
    <g>
     <use style="fill:#bf00bf;stroke:#bf00bf;" x="359.327787" xlink:href="#m97e871cfed" y="50.266808"/>
     <use style="fill:#bf00bf;stroke:#bf00bf;" x="359.327787" xlink:href="#m97e871cfed" y="50.266808"/>
    </g>
   </g>
   <g id="line2d_62">
    <path d="M 203.067861 298.245375 
L 203.067861 297.212131 
L 206.569079 297.212131 
L 206.569079 296.695509 
L 213.679122 296.695509 
L 213.679122 296.178887 
L 215.233852 296.178887 
L 215.233852 294.629021 
L 217.460547 294.629021 
L 217.460547 293.595777 
L 219.505502 293.595777 
L 219.505502 293.079155 
L 219.69984 293.079155 
L 219.69984 292.562533 
L 220.040195 292.562533 
L 220.040195 292.045911 
L 220.620649 292.045911 
L 220.681737 289.979423 
L 220.883867 289.979423 
L 220.903955 288.946179 
L 221.083736 288.946179 
L 221.083736 288.429557 
L 221.84254 288.429557 
L 221.84254 287.912935 
L 222.032023 287.912935 
L 222.032023 287.396313 
L 222.697993 287.396313 
L 222.697993 286.879691 
L 222.914579 286.879691 
L 222.914579 286.363069 
L 223.721323 286.363069 
L 223.721323 285.846447 
L 225.436804 285.846447 
L 225.436804 285.329825 
L 225.988995 285.329825 
L 225.988995 283.779959 
L 226.406982 283.779959 
L 226.406982 283.263337 
L 230.479511 283.263337 
L 230.479511 282.746715 
L 230.619929 282.746715 
L 230.619929 282.230093 
L 230.816984 282.230093 
L 230.816984 281.713471 
L 231.738109 281.713471 
L 231.847261 280.163604 
L 232.202804 280.163604 
L 232.202804 279.646982 
L 233.066971 279.646982 
L 233.066971 278.613738 
L 233.832936 278.613738 
L 233.832936 278.097116 
L 234.227774 278.097116 
L 234.227774 277.580494 
L 234.379521 277.580494 
L 234.379521 276.54725 
L 234.679203 276.54725 
L 234.679203 276.030628 
L 236.613728 276.030628 
L 236.613728 275.514006 
L 237.017498 275.514006 
L 237.05006 272.930896 
L 238.169152 272.930896 
L 238.169152 272.414274 
L 238.502155 272.414274 
L 238.502155 271.38103 
L 239.171782 271.38103 
L 239.27261 268.79792 
L 239.294142 268.79792 
L 239.294142 268.281298 
L 239.557594 268.281298 
L 239.557594 267.764676 
L 239.677349 267.764676 
L 239.677349 267.248054 
L 240.114278 267.248054 
L 240.114278 266.731432 
L 241.055098 266.731432 
L 241.055098 266.21481 
L 242.065936 266.21481 
L 242.065936 265.698188 
L 242.723214 265.698188 
L 242.723214 265.181566 
L 242.905814 265.181566 
L 242.905814 264.664944 
L 243.236768 264.664944 
L 243.236768 264.148322 
L 243.527777 264.148322 
L 243.618106 261.565212 
L 243.880836 261.565212 
L 243.974923 258.982102 
L 244.084982 258.982102 
L 244.084982 258.46548 
L 244.620012 258.46548 
L 244.620012 257.948858 
L 244.763191 257.948858 
L 244.763191 257.432236 
L 244.962778 257.432236 
L 244.962778 256.915614 
L 245.992794 256.915614 
L 246.051862 255.365748 
L 246.149878 255.365748 
L 246.149878 254.849126 
L 246.358807 254.849126 
L 246.358807 254.332504 
L 246.863643 254.332504 
L 246.952645 253.29926 
L 247.064437 253.29926 
L 247.064437 252.782638 
L 247.377436 252.782638 
L 247.463921 250.71615 
L 247.554507 250.71615 
L 247.554507 249.682906 
L 247.720891 249.682906 
L 247.796821 248.13304 
L 247.930033 248.13304 
L 247.974217 246.583173 
L 248.075428 246.583173 
L 248.075428 246.066551 
L 248.397228 246.066551 
L 248.397228 245.549929 
L 248.581592 245.549929 
L 248.641209 244.516685 
L 248.85672 244.516685 
L 248.85672 244.000063 
L 250.0036 244.000063 
L 250.0036 243.483441 
L 250.358517 243.483441 
L 250.427893 241.416953 
L 250.661016 241.416953 
L 250.661016 240.383709 
L 250.797184 240.383709 
L 250.797184 239.867087 
L 250.992056 239.867087 
L 251.036727 237.800599 
L 251.203253 237.800599 
L 251.203253 237.283977 
L 251.510009 237.283977 
L 251.510009 236.250733 
L 251.672202 236.250733 
L 251.672202 235.217489 
L 252.118662 235.217489 
L 252.118662 234.700867 
L 252.247674 234.700867 
L 252.261566 233.667623 
L 252.444618 233.667623 
L 252.444618 233.151001 
L 253.105726 233.151001 
L 253.145418 231.601135 
L 253.277092 231.601135 
L 253.277092 230.567891 
L 253.589207 230.567891 
L 253.602094 229.534647 
L 254.200657 229.534647 
L 254.2411 227.468159 
L 254.371141 227.468159 
L 254.395803 225.918293 
L 254.543069 225.918293 
L 254.588842 222.818561 
L 254.683068 222.818561 
L 254.683068 222.301939 
L 255.285187 222.301939 
L 255.285187 221.785317 
L 255.42533 221.785317 
L 255.521044 220.752073 
L 255.730972 220.752073 
L 255.730972 219.718829 
L 256.011785 219.718829 
L 256.051142 218.685585 
L 256.293794 218.685585 
L 256.293794 217.135719 
L 256.555049 217.135719 
L 256.582328 216.102475 
L 256.96527 216.102475 
L 256.96527 214.552609 
L 257.516961 214.552609 
L 257.516961 214.035987 
L 257.755942 214.035987 
L 257.755942 213.002743 
L 258.114782 213.002743 
L 258.114782 212.48612 
L 258.370631 212.48612 
L 258.382958 211.452876 
L 258.627731 211.452876 
L 258.729544 209.386388 
L 258.748871 209.386388 
L 258.775412 208.353144 
L 258.881183 208.353144 
L 258.893163 206.286656 
L 259.010144 206.286656 
L 259.114539 204.220168 
L 259.307481 204.220168 
L 259.372889 202.670302 
L 260.029871 202.670302 
L 260.029871 201.637058 
L 260.141897 201.637058 
L 260.166449 200.603814 
L 260.363864 200.603814 
L 260.388113 198.020704 
L 260.788926 198.020704 
L 260.788926 197.504082 
L 260.917706 197.504082 
L 261.028569 196.470838 
L 261.132411 196.470838 
L 261.132411 195.954216 
L 261.325763 195.954216 
L 261.350829 194.920972 
L 261.84288 194.920972 
L 261.944127 190.271374 
L 262.341501 190.271374 
L 262.357293 187.688264 
L 262.55547 187.688264 
L 262.652769 186.138398 
L 262.838113 186.138398 
L 262.928158 184.588532 
L 263.004436 184.588532 
L 263.004436 184.07191 
L 263.315686 184.07191 
L 263.399639 182.005422 
L 263.786291 182.005422 
L 263.871693 180.455556 
L 263.947666 180.455556 
L 264.053847 177.355823 
L 264.202161 177.355823 
L 264.227057 176.322579 
L 264.389801 176.322579 
L 264.389801 175.805957 
L 264.582461 175.805957 
L 264.657212 174.256091 
L 264.742014 174.256091 
L 264.742014 173.222847 
L 265.00084 173.222847 
L 265.082337 171.156359 
L 265.176949 171.156359 
L 265.24758 169.606493 
L 265.351339 169.606493 
L 265.351339 169.089871 
L 265.494271 169.089871 
L 265.499236 168.056627 
L 265.745765 168.056627 
L 265.849924 164.956895 
L 265.9131 164.956895 
L 265.9131 163.923651 
L 266.149235 163.923651 
L 266.154022 162.373785 
L 266.402755 162.373785 
L 266.468712 160.823919 
L 266.703853 160.823919 
L 266.714679 159.790675 
L 266.928303 159.790675 
L 266.928303 159.274053 
L 267.084968 159.274053 
L 267.175601 156.690943 
L 267.312188 156.690943 
L 267.386794 155.657699 
L 267.46109 155.657699 
L 267.46109 155.141077 
L 267.599935 155.141077 
L 267.599935 154.624455 
L 267.825099 154.624455 
L 267.842526 153.074589 
L 268.107628 153.074589 
L 268.180416 151.524723 
L 268.244396 151.524723 
L 268.244396 151.008101 
L 268.470042 151.008101 
L 268.539976 149.458235 
L 268.679028 149.458235 
L 268.679028 148.941613 
L 268.810133 148.941613 
L 268.893812 145.841881 
L 268.960746 145.841881 
L 269.019279 144.292014 
L 269.084392 144.292014 
L 269.154665 142.742148 
L 269.232721 142.742148 
L 269.301076 139.642416 
L 269.402456 139.642416 
L 269.402456 139.125794 
L 269.554774 139.125794 
L 269.607451 138.09255 
L 269.962885 138.09255 
L 270.068279 134.992818 
L 270.074686 134.992818 
L 270.169233 132.92633 
L 270.268352 132.92633 
L 270.286085 130.34322 
L 270.388337 130.34322 
L 270.447401 129.309976 
L 270.713889 129.309976 
L 270.765728 127.76011 
L 270.846885 127.76011 
L 270.952085 125.177 
L 271.070003 125.177 
L 271.070003 124.143756 
L 271.205194 124.143756 
L 271.260425 122.077268 
L 271.49859 122.077268 
L 271.562354 120.527402 
L 271.618843 120.527402 
L 271.669297 119.494158 
L 271.791901 119.494158 
L 271.830261 117.944292 
L 271.957536 117.944292 
L 272.028875 114.327938 
L 272.074749 114.327938 
L 272.182093 111.744828 
L 272.219625 111.744828 
L 272.255945 109.678339 
L 272.356572 109.678339 
L 272.409485 108.645095 
L 272.581768 108.645095 
L 272.582882 106.578607 
L 272.703819 106.578607 
L 272.747995 105.545363 
L 272.873301 105.545363 
L 272.960713 102.962253 
L 273.016216 102.962253 
L 273.074796 101.412387 
L 273.182774 101.412387 
L 273.182774 100.895765 
L 273.355259 100.895765 
L 273.46368 99.345899 
L 273.660759 99.345899 
L 273.756925 98.312655 
L 273.84013 98.312655 
L 273.84013 97.796033 
L 273.971426 97.796033 
L 274.074134 95.729545 
L 274.121183 95.729545 
L 274.227098 94.179679 
L 274.379771 94.179679 
L 274.424014 93.146435 
L 274.629706 93.146435 
L 274.680267 90.046703 
L 274.778007 90.046703 
L 274.778991 89.013459 
L 274.920203 89.013459 
L 275.024413 83.847239 
L 275.176228 83.847239 
L 275.263636 80.230885 
L 275.324854 80.230885 
L 275.393475 78.681019 
L 275.441923 78.681019 
L 275.541256 75.064664 
L 275.556344 75.064664 
L 275.654108 72.998176 
L 275.732682 72.998176 
L 275.737348 71.44831 
L 276.054572 71.44831 
L 276.164238 67.831956 
L 276.202462 67.831956 
L 276.303092 63.69898 
L 276.343727 63.69898 
L 276.387869 62.665736 
L 276.474933 62.665736 
L 276.477618 61.11587 
L 288.61041 61.11587 
L 288.61041 60.599248 
L 288.768154 60.599248 
L 288.860614 58.53276 
L 288.881196 58.53276 
L 288.881196 58.016138 
L 296.131309 58.016138 
L 296.131309 57.499516 
L 301.275147 57.499516 
L 301.275147 56.982894 
L 305.202446 56.982894 
L 305.264224 53.883162 
L 313.665185 53.883162 
L 313.665185 53.36654 
L 315.750311 53.36654 
L 315.750311 52.849918 
L 320.911684 52.849918 
L 320.911684 52.333296 
L 324.899479 52.333296 
L 324.899479 51.816674 
L 333.298519 51.816674 
L 333.298519 51.300052 
L 334.027995 51.300052 
L 334.027995 50.78343 
L 358.8 50.78343 
L 358.8 50.78343 
" style="fill:none;stroke:#bf00bf;stroke-linecap:square;stroke-width:1.5;"/>
   </g>
   <g id="line2d_63">
    <defs>
     <path d="M -0 8.485281 
L 8.485281 0 
L 0 -8.485281 
L -8.485281 -0 
z
" id="m36266ddb80" style="stroke:#bf00bf;stroke-linejoin:miter;stroke-width:1.5;"/>
    </defs>
    <g>
     <use style="fill:none;stroke:#bf00bf;stroke-linejoin:miter;stroke-width:1.5;" x="358.8" xlink:href="#m36266ddb80" y="50.78343"/>
    </g>
   </g>
   <g id="line2d_64"/>
   <g id="line2d_65">
    <path clip-path="url(#p72c3d33dfe)" d="M 276.514286 61.11587 
" style="fill:none;stroke:#bf00bf;stroke-linecap:square;stroke-width:1.5;"/>
    <defs>
     <path d="M -12 12 
L 12 -12 
M -12 -12 
L 12 12 
" id="m3e76ba81d1" style="stroke:#bf00bf;stroke-width:3;"/>
    </defs>
    <g clip-path="url(#p72c3d33dfe)">
     <use style="fill:#bf00bf;stroke:#bf00bf;stroke-width:3;" x="276.514286" xlink:href="#m3e76ba81d1" y="61.11587"/>
    </g>
   </g>
   <g id="line2d_66">
    <path d="M 358.8 50.78343 
L 390.48 292.97583 
" style="fill:none;stroke:#bf00bf;stroke-linecap:square;stroke-width:1.5;"/>
    <g>
     <use style="fill:none;stroke:#bf00bf;stroke-linejoin:miter;stroke-width:1.5;" x="358.8" xlink:href="#m36266ddb80" y="50.78343"/>
     <use style="fill:none;stroke:#bf00bf;stroke-linejoin:miter;stroke-width:1.5;" x="390.48" xlink:href="#m36266ddb80" y="292.97583"/>
    </g>
   </g>
   <g id="line2d_67">
    <path d="M 358.8 34.768147 
L 390.48 242.388203 
" style="fill:none;stroke:#ff0000;stroke-linecap:square;stroke-width:1.5;"/>
    <g>
     <use style="fill:none;stroke:#ff0000;stroke-linejoin:miter;stroke-width:1.5;" x="358.8" xlink:href="#m0dc8e80b37" y="34.768147"/>
     <use style="fill:none;stroke:#ff0000;stroke-linejoin:miter;stroke-width:1.5;" x="390.48" xlink:href="#m0dc8e80b37" y="242.388203"/>
    </g>
   </g>
   <g id="line2d_68">
    <path d="M 358.8 34.768147 
L 390.48 191.800575 
" style="fill:none;stroke:#000000;stroke-linecap:square;stroke-width:1.5;"/>
    <g>
     <use style="fill:none;stroke:#000000;stroke-width:1.5;" x="358.8" xlink:href="#mf0195402af" y="34.768147"/>
     <use style="fill:none;stroke:#000000;stroke-width:1.5;" x="390.48" xlink:href="#mf0195402af" y="191.800575"/>
    </g>
   </g>
   <g id="line2d_69">
    <path d="M 358.8 34.768147 
L 390.48 141.212947 
" style="fill:none;stroke:#0000ff;stroke-linecap:square;stroke-width:1.5;"/>
    <g>
     <use style="fill:none;stroke:#0000ff;stroke-linejoin:bevel;stroke-width:1.5;" x="358.8" xlink:href="#mea4b6a6d3f" y="34.768147"/>
     <use style="fill:none;stroke:#0000ff;stroke-linejoin:bevel;stroke-width:1.5;" x="390.48" xlink:href="#mea4b6a6d3f" y="141.212947"/>
    </g>
   </g>
   <g id="line2d_70">
    <path d="M 358.8 34.768147 
L 390.48 90.62532 
" style="fill:none;stroke:#008000;stroke-linecap:square;stroke-width:1.5;"/>
    <g>
     <use style="fill:none;stroke:#008000;stroke-linejoin:miter;stroke-width:1.5;" x="358.8" xlink:href="#mdad334859d" y="34.768147"/>
     <use style="fill:none;stroke:#008000;stroke-linejoin:miter;stroke-width:1.5;" x="390.48" xlink:href="#mdad334859d" y="90.62532"/>
    </g>
   </g>
   <g id="line2d_71">
    <path d="M 358.8 34.768147 
L 390.48 40.037692 
" style="fill:none;stroke:#00bfbf;stroke-linecap:square;stroke-width:1.5;"/>
    <g>
     <use style="fill:none;stroke:#00bfbf;stroke-width:1.5;" x="358.8" xlink:href="#m54c64fe1de" y="34.768147"/>
     <use style="fill:none;stroke:#00bfbf;stroke-width:1.5;" x="390.48" xlink:href="#m54c64fe1de" y="40.037692"/>
    </g>
   </g>
   <g id="line2d_72">
    <path d="M 358.8 298.245375 
L 358.8 34.768147 
" style="fill:none;stroke:#000000;stroke-linecap:square;stroke-width:1.5;"/>
   </g>
   <g id="patch_3">
    <path d="M 70.8 298.245375 
L 70.8 32.133375 
" style="fill:none;stroke:#000000;stroke-linecap:square;stroke-linejoin:miter;stroke-width:0.8;"/>
   </g>
   <g id="patch_4">
    <path d="M 427.92 298.245375 
L 427.92 32.133375 
" style="fill:none;stroke:#000000;stroke-linecap:square;stroke-linejoin:miter;stroke-width:0.8;"/>
   </g>
   <g id="patch_5">
    <path d="M 70.8 298.245375 
L 427.92 298.245375 
" style="fill:none;stroke:#000000;stroke-linecap:square;stroke-linejoin:miter;stroke-width:0.8;"/>
   </g>
   <g id="patch_6">
    <path d="M 70.8 32.133375 
L 427.92 32.133375 
" style="fill:none;stroke:#000000;stroke-linecap:square;stroke-linejoin:miter;stroke-width:0.8;"/>
   </g>
   <g id="text_14">
    <!-- 40-D -->
    <defs>
     <path d="M 19.671875 64.796875 
L 19.671875 8.109375 
L 31.59375 8.109375 
Q 46.6875 8.109375 53.6875 14.9375 
Q 60.6875 21.78125 60.6875 36.53125 
Q 60.6875 51.171875 53.6875 57.984375 
Q 46.6875 64.796875 31.59375 64.796875 
z
M 9.8125 72.90625 
L 30.078125 72.90625 
Q 51.265625 72.90625 61.171875 64.09375 
Q 71.09375 55.28125 71.09375 36.53125 
Q 71.09375 17.671875 61.125 8.828125 
Q 51.171875 0 30.078125 0 
L 9.8125 0 
z
" id="DejaVuSans-44"/>
    </defs>
    <g transform="translate(396.24 297.114893)scale(0.15 -0.15)">
     <use xlink:href="#DejaVuSans-34"/>
     <use x="63.623047" xlink:href="#DejaVuSans-30"/>
     <use x="127.246094" xlink:href="#DejaVuSans-2d"/>
     <use x="163.330078" xlink:href="#DejaVuSans-44"/>
    </g>
   </g>
   <g id="text_15">
    <!-- 20-D -->
    <g transform="translate(396.24 246.527265)scale(0.15 -0.15)">
     <use xlink:href="#DejaVuSans-32"/>
     <use x="63.623047" xlink:href="#DejaVuSans-30"/>
     <use x="127.246094" xlink:href="#DejaVuSans-2d"/>
     <use x="163.330078" xlink:href="#DejaVuSans-44"/>
    </g>
   </g>
   <g id="text_16">
    <!-- 10-D -->
    <g transform="translate(396.24 195.939637)scale(0.15 -0.15)">
     <use xlink:href="#DejaVuSans-31"/>
     <use x="63.623047" xlink:href="#DejaVuSans-30"/>
     <use x="127.246094" xlink:href="#DejaVuSans-2d"/>
     <use x="163.330078" xlink:href="#DejaVuSans-44"/>
    </g>
   </g>
   <g id="text_17">
    <!-- 5-D -->
    <defs>
     <path d="M 10.796875 72.90625 
L 49.515625 72.90625 
L 49.515625 64.59375 
L 19.828125 64.59375 
L 19.828125 46.734375 
Q 21.96875 47.46875 24.109375 47.828125 
Q 26.265625 48.1875 28.421875 48.1875 
Q 40.625 48.1875 47.75 41.5 
Q 54.890625 34.8125 54.890625 23.390625 
Q 54.890625 11.625 47.5625 5.09375 
Q 40.234375 -1.421875 26.90625 -1.421875 
Q 22.3125 -1.421875 17.546875 -0.640625 
Q 12.796875 0.140625 7.71875 1.703125 
L 7.71875 11.625 
Q 12.109375 9.234375 16.796875 8.0625 
Q 21.484375 6.890625 26.703125 6.890625 
Q 35.15625 6.890625 40.078125 11.328125 
Q 45.015625 15.765625 45.015625 23.390625 
Q 45.015625 31 40.078125 35.4375 
Q 35.15625 39.890625 26.703125 39.890625 
Q 22.75 39.890625 18.8125 39.015625 
Q 14.890625 38.140625 10.796875 36.28125 
z
" id="DejaVuSans-35"/>
    </defs>
    <g transform="translate(396.24 145.35201)scale(0.15 -0.15)">
     <use xlink:href="#DejaVuSans-35"/>
     <use x="63.623047" xlink:href="#DejaVuSans-2d"/>
     <use x="99.707031" xlink:href="#DejaVuSans-44"/>
    </g>
   </g>
   <g id="text_18">
    <!-- 3-D -->
    <defs>
     <path d="M 40.578125 39.3125 
Q 47.65625 37.796875 51.625 33 
Q 55.609375 28.21875 55.609375 21.1875 
Q 55.609375 10.40625 48.1875 4.484375 
Q 40.765625 -1.421875 27.09375 -1.421875 
Q 22.515625 -1.421875 17.65625 -0.515625 
Q 12.796875 0.390625 7.625 2.203125 
L 7.625 11.71875 
Q 11.71875 9.328125 16.59375 8.109375 
Q 21.484375 6.890625 26.8125 6.890625 
Q 36.078125 6.890625 40.9375 10.546875 
Q 45.796875 14.203125 45.796875 21.1875 
Q 45.796875 27.640625 41.28125 31.265625 
Q 36.765625 34.90625 28.71875 34.90625 
L 20.21875 34.90625 
L 20.21875 43.015625 
L 29.109375 43.015625 
Q 36.375 43.015625 40.234375 45.921875 
Q 44.09375 48.828125 44.09375 54.296875 
Q 44.09375 59.90625 40.109375 62.90625 
Q 36.140625 65.921875 28.71875 65.921875 
Q 24.65625 65.921875 20.015625 65.03125 
Q 15.375 64.15625 9.8125 62.3125 
L 9.8125 71.09375 
Q 15.4375 72.65625 20.34375 73.4375 
Q 25.25 74.21875 29.59375 74.21875 
Q 40.828125 74.21875 47.359375 69.109375 
Q 53.90625 64.015625 53.90625 55.328125 
Q 53.90625 49.265625 50.4375 45.09375 
Q 46.96875 40.921875 40.578125 39.3125 
" id="DejaVuSans-33"/>
    </defs>
    <g transform="translate(396.24 94.764382)scale(0.15 -0.15)">
     <use xlink:href="#DejaVuSans-33"/>
     <use x="63.623047" xlink:href="#DejaVuSans-2d"/>
     <use x="99.707031" xlink:href="#DejaVuSans-44"/>
    </g>
   </g>
   <g id="text_19">
    <!-- 2-D -->
    <g transform="translate(396.24 44.176754)scale(0.15 -0.15)">
     <use xlink:href="#DejaVuSans-32"/>
     <use x="63.623047" xlink:href="#DejaVuSans-2d"/>
     <use x="99.707031" xlink:href="#DejaVuSans-44"/>
    </g>
   </g>
   <g id="text_20">
    <!-- bbob - f4 -->
    <defs>
     <path d="M 48.6875 27.296875 
Q 48.6875 37.203125 44.609375 42.84375 
Q 40.53125 48.484375 33.40625 48.484375 
Q 26.265625 48.484375 22.1875 42.84375 
Q 18.109375 37.203125 18.109375 27.296875 
Q 18.109375 17.390625 22.1875 11.75 
Q 26.265625 6.109375 33.40625 6.109375 
Q 40.53125 6.109375 44.609375 11.75 
Q 48.6875 17.390625 48.6875 27.296875 
M 18.109375 46.390625 
Q 20.953125 51.265625 25.265625 53.625 
Q 29.59375 56 35.59375 56 
Q 45.5625 56 51.78125 48.09375 
Q 58.015625 40.1875 58.015625 27.296875 
Q 58.015625 14.40625 51.78125 6.484375 
Q 45.5625 -1.421875 35.59375 -1.421875 
Q 29.59375 -1.421875 25.265625 0.953125 
Q 20.953125 3.328125 18.109375 8.203125 
L 18.109375 0 
L 9.078125 0 
L 9.078125 75.984375 
L 18.109375 75.984375 
z
" id="DejaVuSans-62"/>
    </defs>
    <g transform="translate(74.3712 50.114612)scale(0.1666 -0.1666)">
     <use xlink:href="#DejaVuSans-62"/>
     <use x="63.476562" xlink:href="#DejaVuSans-62"/>
     <use x="126.953125" xlink:href="#DejaVuSans-6f"/>
     <use x="188.134766" xlink:href="#DejaVuSans-62"/>
     <use x="251.611328" xlink:href="#DejaVuSans-20"/>
     <use x="283.398438" xlink:href="#DejaVuSans-2d"/>
     <use x="319.482422" xlink:href="#DejaVuSans-20"/>
     <use x="351.269531" xlink:href="#DejaVuSans-66"/>
     <use x="386.474609" xlink:href="#DejaVuSans-34"/>
    </g>
    <!-- 51 targets in 100..1e-08 -->
    <g transform="translate(74.3712 68.770168)scale(0.1666 -0.1666)">
     <use xlink:href="#DejaVuSans-35"/>
     <use x="63.623047" xlink:href="#DejaVuSans-31"/>
     <use x="127.246094" xlink:href="#DejaVuSans-20"/>
     <use x="159.033203" xlink:href="#DejaVuSans-74"/>
     <use x="198.242188" xlink:href="#DejaVuSans-61"/>
     <use x="259.521484" xlink:href="#DejaVuSans-72"/>
     <use x="300.619141" xlink:href="#DejaVuSans-67"/>
     <use x="364.095703" xlink:href="#DejaVuSans-65"/>
     <use x="425.619141" xlink:href="#DejaVuSans-74"/>
     <use x="464.828125" xlink:href="#DejaVuSans-73"/>
     <use x="516.927734" xlink:href="#DejaVuSans-20"/>
     <use x="548.714844" xlink:href="#DejaVuSans-69"/>
     <use x="576.498047" xlink:href="#DejaVuSans-6e"/>
     <use x="639.876953" xlink:href="#DejaVuSans-20"/>
     <use x="671.664062" xlink:href="#DejaVuSans-31"/>
     <use x="735.287109" xlink:href="#DejaVuSans-30"/>
     <use x="798.910156" xlink:href="#DejaVuSans-30"/>
     <use x="862.533203" xlink:href="#DejaVuSans-2e"/>
     <use x="894.320312" xlink:href="#DejaVuSans-2e"/>
     <use x="926.107422" xlink:href="#DejaVuSans-31"/>
     <use x="989.730469" xlink:href="#DejaVuSans-65"/>
     <use x="1051.253906" xlink:href="#DejaVuSans-2d"/>
     <use x="1087.337891" xlink:href="#DejaVuSans-30"/>
     <use x="1150.960938" xlink:href="#DejaVuSans-38"/>
    </g>
    <!-- 15 instances -->
    <g transform="translate(74.3712 87.425723)scale(0.1666 -0.1666)">
     <use xlink:href="#DejaVuSans-31"/>
     <use x="63.623047" xlink:href="#DejaVuSans-35"/>
     <use x="127.246094" xlink:href="#DejaVuSans-20"/>
     <use x="159.033203" xlink:href="#DejaVuSans-69"/>
     <use x="186.816406" xlink:href="#DejaVuSans-6e"/>
     <use x="250.195312" xlink:href="#DejaVuSans-73"/>
     <use x="302.294922" xlink:href="#DejaVuSans-74"/>
     <use x="341.503906" xlink:href="#DejaVuSans-61"/>
     <use x="402.783203" xlink:href="#DejaVuSans-6e"/>
     <use x="466.162109" xlink:href="#DejaVuSans-63"/>
     <use x="521.142578" xlink:href="#DejaVuSans-65"/>
     <use x="582.666016" xlink:href="#DejaVuSans-73"/>
    </g>
   </g>
   <g id="text_21">
    <!-- v2.0.1 -->
    <g style="fill:#808080;" transform="translate(233.67875 293.504568)scale(0.1 -0.1)">
     <use xlink:href="#DejaVuSans-76"/>
     <use x="59.179688" xlink:href="#DejaVuSans-32"/>
     <use x="122.802734" xlink:href="#DejaVuSans-2e"/>
     <use x="154.589844" xlink:href="#DejaVuSans-30"/>
     <use x="218.212891" xlink:href="#DejaVuSans-2e"/>
     <use x="250" xlink:href="#DejaVuSans-31"/>
    </g>
   </g>
   <g id="text_22">
    <!-- 4 Skew Rastrigin-Bueche separ -->
    <defs>
     <path d="M 53.515625 70.515625 
L 53.515625 60.890625 
Q 47.90625 63.578125 42.921875 64.890625 
Q 37.9375 66.21875 33.296875 66.21875 
Q 25.25 66.21875 20.875 63.09375 
Q 16.5 59.96875 16.5 54.203125 
Q 16.5 49.359375 19.40625 46.890625 
Q 22.3125 44.4375 30.421875 42.921875 
L 36.375 41.703125 
Q 47.40625 39.59375 52.65625 34.296875 
Q 57.90625 29 57.90625 20.125 
Q 57.90625 9.515625 50.796875 4.046875 
Q 43.703125 -1.421875 29.984375 -1.421875 
Q 24.8125 -1.421875 18.96875 -0.25 
Q 13.140625 0.921875 6.890625 3.21875 
L 6.890625 13.375 
Q 12.890625 10.015625 18.65625 8.296875 
Q 24.421875 6.59375 29.984375 6.59375 
Q 38.421875 6.59375 43.015625 9.90625 
Q 47.609375 13.234375 47.609375 19.390625 
Q 47.609375 24.75 44.3125 27.78125 
Q 41.015625 30.8125 33.5 32.328125 
L 27.484375 33.5 
Q 16.453125 35.6875 11.515625 40.375 
Q 6.59375 45.0625 6.59375 53.421875 
Q 6.59375 63.09375 13.40625 68.65625 
Q 20.21875 74.21875 32.171875 74.21875 
Q 37.3125 74.21875 42.625 73.28125 
Q 47.953125 72.359375 53.515625 70.515625 
" id="DejaVuSans-53"/>
     <path d="M 9.078125 75.984375 
L 18.109375 75.984375 
L 18.109375 31.109375 
L 44.921875 54.6875 
L 56.390625 54.6875 
L 27.390625 29.109375 
L 57.625 0 
L 45.90625 0 
L 18.109375 26.703125 
L 18.109375 0 
L 9.078125 0 
z
" id="DejaVuSans-6b"/>
     <path d="M 4.203125 54.6875 
L 13.1875 54.6875 
L 24.421875 12.015625 
L 35.59375 54.6875 
L 46.1875 54.6875 
L 57.421875 12.015625 
L 68.609375 54.6875 
L 77.59375 54.6875 
L 63.28125 0 
L 52.6875 0 
L 40.921875 44.828125 
L 29.109375 0 
L 18.5 0 
z
" id="DejaVuSans-77"/>
     <path d="M 44.390625 34.1875 
Q 47.5625 33.109375 50.5625 29.59375 
Q 53.5625 26.078125 56.59375 19.921875 
L 66.609375 0 
L 56 0 
L 46.6875 18.703125 
Q 43.0625 26.03125 39.671875 28.421875 
Q 36.28125 30.8125 30.421875 30.8125 
L 19.671875 30.8125 
L 19.671875 0 
L 9.8125 0 
L 9.8125 72.90625 
L 32.078125 72.90625 
Q 44.578125 72.90625 50.734375 67.671875 
Q 56.890625 62.453125 56.890625 51.90625 
Q 56.890625 45.015625 53.6875 40.46875 
Q 50.484375 35.9375 44.390625 34.1875 
M 19.671875 64.796875 
L 19.671875 38.921875 
L 32.078125 38.921875 
Q 39.203125 38.921875 42.84375 42.21875 
Q 46.484375 45.515625 46.484375 51.90625 
Q 46.484375 58.296875 42.84375 61.546875 
Q 39.203125 64.796875 32.078125 64.796875 
z
" id="DejaVuSans-52"/>
     <path d="M 19.671875 34.8125 
L 19.671875 8.109375 
L 35.5 8.109375 
Q 43.453125 8.109375 47.28125 11.40625 
Q 51.125 14.703125 51.125 21.484375 
Q 51.125 28.328125 47.28125 31.5625 
Q 43.453125 34.8125 35.5 34.8125 
z
M 19.671875 64.796875 
L 19.671875 42.828125 
L 34.28125 42.828125 
Q 41.5 42.828125 45.03125 45.53125 
Q 48.578125 48.25 48.578125 53.8125 
Q 48.578125 59.328125 45.03125 62.0625 
Q 41.5 64.796875 34.28125 64.796875 
z
M 9.8125 72.90625 
L 35.015625 72.90625 
Q 46.296875 72.90625 52.390625 68.21875 
Q 58.5 63.53125 58.5 54.890625 
Q 58.5 48.1875 55.375 44.234375 
Q 52.25 40.28125 46.1875 39.3125 
Q 53.46875 37.75 57.5 32.78125 
Q 61.53125 27.828125 61.53125 20.40625 
Q 61.53125 10.640625 54.890625 5.3125 
Q 48.25 0 35.984375 0 
L 9.8125 0 
z
" id="DejaVuSans-42"/>
     <path d="M 54.890625 33.015625 
L 54.890625 0 
L 45.90625 0 
L 45.90625 32.71875 
Q 45.90625 40.484375 42.875 44.328125 
Q 39.84375 48.1875 33.796875 48.1875 
Q 26.515625 48.1875 22.3125 43.546875 
Q 18.109375 38.921875 18.109375 30.90625 
L 18.109375 0 
L 9.078125 0 
L 9.078125 75.984375 
L 18.109375 75.984375 
L 18.109375 46.1875 
Q 21.34375 51.125 25.703125 53.5625 
Q 30.078125 56 35.796875 56 
Q 45.21875 56 50.046875 50.171875 
Q 54.890625 44.34375 54.890625 33.015625 
" id="DejaVuSans-68"/>
    </defs>
    <g transform="translate(62.385 26.133375)scale(0.24 -0.24)">
     <use xlink:href="#DejaVuSans-34"/>
     <use x="63.623047" xlink:href="#DejaVuSans-20"/>
     <use x="95.410156" xlink:href="#DejaVuSans-53"/>
     <use x="158.886719" xlink:href="#DejaVuSans-6b"/>
     <use x="216.75" xlink:href="#DejaVuSans-65"/>
     <use x="278.273438" xlink:href="#DejaVuSans-77"/>
     <use x="360.060547" xlink:href="#DejaVuSans-20"/>
     <use x="391.847656" xlink:href="#DejaVuSans-52"/>
     <use x="461.298828" xlink:href="#DejaVuSans-61"/>
     <use x="522.578125" xlink:href="#DejaVuSans-73"/>
     <use x="574.677734" xlink:href="#DejaVuSans-74"/>
     <use x="613.886719" xlink:href="#DejaVuSans-72"/>
     <use x="655" xlink:href="#DejaVuSans-69"/>
     <use x="682.783203" xlink:href="#DejaVuSans-67"/>
     <use x="746.259766" xlink:href="#DejaVuSans-69"/>
     <use x="774.042969" xlink:href="#DejaVuSans-6e"/>
     <use x="837.421875" xlink:href="#DejaVuSans-2d"/>
     <use x="873.458984" xlink:href="#DejaVuSans-42"/>
     <use x="942.0625" xlink:href="#DejaVuSans-75"/>
     <use x="1005.441406" xlink:href="#DejaVuSans-65"/>
     <use x="1066.964844" xlink:href="#DejaVuSans-63"/>
     <use x="1121.945312" xlink:href="#DejaVuSans-68"/>
     <use x="1185.324219" xlink:href="#DejaVuSans-65"/>
     <use x="1246.847656" xlink:href="#DejaVuSans-20"/>
     <use x="1278.634766" xlink:href="#DejaVuSans-73"/>
     <use x="1330.734375" xlink:href="#DejaVuSans-65"/>
     <use x="1392.257812" xlink:href="#DejaVuSans-70"/>
     <use x="1455.734375" xlink:href="#DejaVuSans-61"/>
     <use x="1517.013672" xlink:href="#DejaVuSans-72"/>
    </g>
   </g>
  </g>
 </g>
 <defs>
  <clipPath id="p72c3d33dfe">
   <rect height="266.112" width="357.12" x="70.8" y="32.133375"/>
  </clipPath>
 </defs>
</svg>
