<?xml version="1.0" encoding="utf-8" standalone="no"?>
<!DOCTYPE svg PUBLIC "-//W3C//DTD SVG 1.1//EN"
  "http://www.w3.org/Graphics/SVG/1.1/DTD/svg11.dtd">
<!-- Created with matplotlib (http://matplotlib.org/) -->
<svg height="353pt" version="1.1" viewBox="0 0 438 353" width="438pt" xmlns="http://www.w3.org/2000/svg" xmlns:xlink="http://www.w3.org/1999/xlink">
 <defs>
  <style type="text/css">
*{stroke-linecap:butt;stroke-linejoin:round;}
  </style>
 </defs>
 <g id="figure_1">
  <g id="patch_1">
   <path d="M 0 353.22225 
L 438.62 353.22225 
L 438.62 0 
L 0 0 
z
" style="fill:#ffffff;"/>
  </g>
  <g id="axes_1">
   <g id="patch_2">
    <path d="M 70.8 298.245375 
L 427.92 298.245375 
L 427.92 32.133375 
L 70.8 32.133375 
z
" style="fill:#ffffff;"/>
   </g>
   <g id="matplotlib.axis_1">
    <g id="xtick_1">
     <g id="line2d_1">
      <path clip-path="url(#p68c7acce0a)" d="M 70.8 298.245375 
L 70.8 32.133375 
" style="fill:none;stroke:#b0b0b0;stroke-linecap:square;stroke-width:0.8;"/>
     </g>
     <g id="line2d_2">
      <defs>
       <path d="M 0 0 
L 0 3.5 
" id="md55767df32" style="stroke:#000000;stroke-width:0.8;"/>
      </defs>
      <g>
       <use style="stroke:#000000;stroke-width:0.8;" x="70.8" xlink:href="#md55767df32" y="298.245375"/>
      </g>
     </g>
     <g id="text_1">
      <!-- 0 -->
      <defs>
       <path d="M 31.78125 66.40625 
Q 24.171875 66.40625 20.328125 58.90625 
Q 16.5 51.421875 16.5 36.375 
Q 16.5 21.390625 20.328125 13.890625 
Q 24.171875 6.390625 31.78125 6.390625 
Q 39.453125 6.390625 43.28125 13.890625 
Q 47.125 21.390625 47.125 36.375 
Q 47.125 51.421875 43.28125 58.90625 
Q 39.453125 66.40625 31.78125 66.40625 
M 31.78125 74.21875 
Q 44.046875 74.21875 50.515625 64.515625 
Q 56.984375 54.828125 56.984375 36.375 
Q 56.984375 17.96875 50.515625 8.265625 
Q 44.046875 -1.421875 31.78125 -1.421875 
Q 19.53125 -1.421875 13.0625 8.265625 
Q 6.59375 17.96875 6.59375 36.375 
Q 6.59375 54.828125 13.0625 64.515625 
Q 19.53125 74.21875 31.78125 74.21875 
" id="DejaVuSans-30"/>
      </defs>
      <g transform="translate(64.4375 320.44225)scale(0.2 -0.2)">
       <use xlink:href="#DejaVuSans-30"/>
      </g>
     </g>
    </g>
    <g id="xtick_2">
     <g id="line2d_3">
      <path clip-path="url(#p68c7acce0a)" d="M 153.085714 298.245375 
L 153.085714 32.133375 
" style="fill:none;stroke:#b0b0b0;stroke-linecap:square;stroke-width:0.8;"/>
     </g>
     <g id="line2d_4">
      <g>
       <use style="stroke:#000000;stroke-width:0.8;" x="153.085714" xlink:href="#md55767df32" y="298.245375"/>
      </g>
     </g>
     <g id="text_2">
      <!-- 2 -->
      <defs>
       <path d="M 19.1875 8.296875 
L 53.609375 8.296875 
L 53.609375 0 
L 7.328125 0 
L 7.328125 8.296875 
Q 12.9375 14.109375 22.625 23.890625 
Q 32.328125 33.6875 34.8125 36.53125 
Q 39.546875 41.84375 41.421875 45.53125 
Q 43.3125 49.21875 43.3125 52.78125 
Q 43.3125 58.59375 39.234375 62.25 
Q 35.15625 65.921875 28.609375 65.921875 
Q 23.96875 65.921875 18.8125 64.3125 
Q 13.671875 62.703125 7.8125 59.421875 
L 7.8125 69.390625 
Q 13.765625 71.78125 18.9375 73 
Q 24.125 74.21875 28.421875 74.21875 
Q 39.75 74.21875 46.484375 68.546875 
Q 53.21875 62.890625 53.21875 53.421875 
Q 53.21875 48.921875 51.53125 44.890625 
Q 49.859375 40.875 45.40625 35.40625 
Q 44.1875 33.984375 37.640625 27.21875 
Q 31.109375 20.453125 19.1875 8.296875 
" id="DejaVuSans-32"/>
      </defs>
      <g transform="translate(146.723214 320.44225)scale(0.2 -0.2)">
       <use xlink:href="#DejaVuSans-32"/>
      </g>
     </g>
    </g>
    <g id="xtick_3">
     <g id="line2d_5">
      <path clip-path="url(#p68c7acce0a)" d="M 235.371429 298.245375 
L 235.371429 32.133375 
" style="fill:none;stroke:#b0b0b0;stroke-linecap:square;stroke-width:0.8;"/>
     </g>
     <g id="line2d_6">
      <g>
       <use style="stroke:#000000;stroke-width:0.8;" x="235.371429" xlink:href="#md55767df32" y="298.245375"/>
      </g>
     </g>
     <g id="text_3">
      <!-- 4 -->
      <defs>
       <path d="M 37.796875 64.3125 
L 12.890625 25.390625 
L 37.796875 25.390625 
z
M 35.203125 72.90625 
L 47.609375 72.90625 
L 47.609375 25.390625 
L 58.015625 25.390625 
L 58.015625 17.1875 
L 47.609375 17.1875 
L 47.609375 0 
L 37.796875 0 
L 37.796875 17.1875 
L 4.890625 17.1875 
L 4.890625 26.703125 
z
" id="DejaVuSans-34"/>
      </defs>
      <g transform="translate(229.008929 320.44225)scale(0.2 -0.2)">
       <use xlink:href="#DejaVuSans-34"/>
      </g>
     </g>
    </g>
    <g id="xtick_4">
     <g id="line2d_7">
      <path clip-path="url(#p68c7acce0a)" d="M 317.657143 298.245375 
L 317.657143 32.133375 
" style="fill:none;stroke:#b0b0b0;stroke-linecap:square;stroke-width:0.8;"/>
     </g>
     <g id="line2d_8">
      <g>
       <use style="stroke:#000000;stroke-width:0.8;" x="317.657143" xlink:href="#md55767df32" y="298.245375"/>
      </g>
     </g>
     <g id="text_4">
      <!-- 6 -->
      <defs>
       <path d="M 33.015625 40.375 
Q 26.375 40.375 22.484375 35.828125 
Q 18.609375 31.296875 18.609375 23.390625 
Q 18.609375 15.53125 22.484375 10.953125 
Q 26.375 6.390625 33.015625 6.390625 
Q 39.65625 6.390625 43.53125 10.953125 
Q 47.40625 15.53125 47.40625 23.390625 
Q 47.40625 31.296875 43.53125 35.828125 
Q 39.65625 40.375 33.015625 40.375 
M 52.59375 71.296875 
L 52.59375 62.3125 
Q 48.875 64.0625 45.09375 64.984375 
Q 41.3125 65.921875 37.59375 65.921875 
Q 27.828125 65.921875 22.671875 59.328125 
Q 17.53125 52.734375 16.796875 39.40625 
Q 19.671875 43.65625 24.015625 45.921875 
Q 28.375 48.1875 33.59375 48.1875 
Q 44.578125 48.1875 50.953125 41.515625 
Q 57.328125 34.859375 57.328125 23.390625 
Q 57.328125 12.15625 50.6875 5.359375 
Q 44.046875 -1.421875 33.015625 -1.421875 
Q 20.359375 -1.421875 13.671875 8.265625 
Q 6.984375 17.96875 6.984375 36.375 
Q 6.984375 53.65625 15.1875 63.9375 
Q 23.390625 74.21875 37.203125 74.21875 
Q 40.921875 74.21875 44.703125 73.484375 
Q 48.484375 72.75 52.59375 71.296875 
" id="DejaVuSans-36"/>
      </defs>
      <g transform="translate(311.294643 320.44225)scale(0.2 -0.2)">
       <use xlink:href="#DejaVuSans-36"/>
      </g>
     </g>
    </g>
    <g id="xtick_5">
     <g id="line2d_9">
      <path clip-path="url(#p68c7acce0a)" d="M 399.942857 298.245375 
L 399.942857 32.133375 
" style="fill:none;stroke:#b0b0b0;stroke-linecap:square;stroke-width:0.8;"/>
     </g>
     <g id="line2d_10">
      <g>
       <use style="stroke:#000000;stroke-width:0.8;" x="399.942857" xlink:href="#md55767df32" y="298.245375"/>
      </g>
     </g>
     <g id="text_5">
      <!-- 8 -->
      <defs>
       <path d="M 31.78125 34.625 
Q 24.75 34.625 20.71875 30.859375 
Q 16.703125 27.09375 16.703125 20.515625 
Q 16.703125 13.921875 20.71875 10.15625 
Q 24.75 6.390625 31.78125 6.390625 
Q 38.8125 6.390625 42.859375 10.171875 
Q 46.921875 13.96875 46.921875 20.515625 
Q 46.921875 27.09375 42.890625 30.859375 
Q 38.875 34.625 31.78125 34.625 
M 21.921875 38.8125 
Q 15.578125 40.375 12.03125 44.71875 
Q 8.5 49.078125 8.5 55.328125 
Q 8.5 64.0625 14.71875 69.140625 
Q 20.953125 74.21875 31.78125 74.21875 
Q 42.671875 74.21875 48.875 69.140625 
Q 55.078125 64.0625 55.078125 55.328125 
Q 55.078125 49.078125 51.53125 44.71875 
Q 48 40.375 41.703125 38.8125 
Q 48.828125 37.15625 52.796875 32.3125 
Q 56.78125 27.484375 56.78125 20.515625 
Q 56.78125 9.90625 50.3125 4.234375 
Q 43.84375 -1.421875 31.78125 -1.421875 
Q 19.734375 -1.421875 13.25 4.234375 
Q 6.78125 9.90625 6.78125 20.515625 
Q 6.78125 27.484375 10.78125 32.3125 
Q 14.796875 37.15625 21.921875 38.8125 
M 18.3125 54.390625 
Q 18.3125 48.734375 21.84375 45.5625 
Q 25.390625 42.390625 31.78125 42.390625 
Q 38.140625 42.390625 41.71875 45.5625 
Q 45.3125 48.734375 45.3125 54.390625 
Q 45.3125 60.0625 41.71875 63.234375 
Q 38.140625 66.40625 31.78125 66.40625 
Q 25.390625 66.40625 21.84375 63.234375 
Q 18.3125 60.0625 18.3125 54.390625 
" id="DejaVuSans-38"/>
      </defs>
      <g transform="translate(393.580357 320.44225)scale(0.2 -0.2)">
       <use xlink:href="#DejaVuSans-38"/>
      </g>
     </g>
    </g>
    <g id="xtick_6">
     <g id="line2d_11">
      <defs>
       <path d="M 0 0 
L 0 2 
" id="m3ee1da3458" style="stroke:#000000;stroke-width:0.6;"/>
      </defs>
      <g>
       <use style="stroke:#000000;stroke-width:0.6;" x="83.185234" xlink:href="#m3ee1da3458" y="298.245375"/>
      </g>
     </g>
    </g>
    <g id="xtick_7">
     <g id="line2d_12">
      <g>
       <use style="stroke:#000000;stroke-width:0.6;" x="95.570468" xlink:href="#m3ee1da3458" y="298.245375"/>
      </g>
     </g>
    </g>
    <g id="xtick_8">
     <g id="line2d_13">
      <g>
       <use style="stroke:#000000;stroke-width:0.6;" x="102.815366" xlink:href="#m3ee1da3458" y="298.245375"/>
      </g>
     </g>
    </g>
    <g id="xtick_9">
     <g id="line2d_14">
      <g>
       <use style="stroke:#000000;stroke-width:0.6;" x="107.955702" xlink:href="#m3ee1da3458" y="298.245375"/>
      </g>
     </g>
    </g>
    <g id="xtick_10">
     <g id="line2d_15">
      <g>
       <use style="stroke:#000000;stroke-width:0.6;" x="165.470948" xlink:href="#m3ee1da3458" y="298.245375"/>
      </g>
     </g>
    </g>
    <g id="xtick_11">
     <g id="line2d_16">
      <g>
       <use style="stroke:#000000;stroke-width:0.6;" x="177.856183" xlink:href="#m3ee1da3458" y="298.245375"/>
      </g>
     </g>
    </g>
    <g id="xtick_12">
     <g id="line2d_17">
      <g>
       <use style="stroke:#000000;stroke-width:0.6;" x="185.10108" xlink:href="#m3ee1da3458" y="298.245375"/>
      </g>
     </g>
    </g>
    <g id="xtick_13">
     <g id="line2d_18">
      <g>
       <use style="stroke:#000000;stroke-width:0.6;" x="190.241417" xlink:href="#m3ee1da3458" y="298.245375"/>
      </g>
     </g>
    </g>
    <g id="xtick_14">
     <g id="line2d_19">
      <g>
       <use style="stroke:#000000;stroke-width:0.6;" x="247.756663" xlink:href="#m3ee1da3458" y="298.245375"/>
      </g>
     </g>
    </g>
    <g id="xtick_15">
     <g id="line2d_20">
      <g>
       <use style="stroke:#000000;stroke-width:0.6;" x="260.141897" xlink:href="#m3ee1da3458" y="298.245375"/>
      </g>
     </g>
    </g>
    <g id="xtick_16">
     <g id="line2d_21">
      <g>
       <use style="stroke:#000000;stroke-width:0.6;" x="267.386794" xlink:href="#m3ee1da3458" y="298.245375"/>
      </g>
     </g>
    </g>
    <g id="xtick_17">
     <g id="line2d_22">
      <g>
       <use style="stroke:#000000;stroke-width:0.6;" x="272.527131" xlink:href="#m3ee1da3458" y="298.245375"/>
      </g>
     </g>
    </g>
    <g id="xtick_18">
     <g id="line2d_23">
      <g>
       <use style="stroke:#000000;stroke-width:0.6;" x="330.042377" xlink:href="#m3ee1da3458" y="298.245375"/>
      </g>
     </g>
    </g>
    <g id="xtick_19">
     <g id="line2d_24">
      <g>
       <use style="stroke:#000000;stroke-width:0.6;" x="342.427611" xlink:href="#m3ee1da3458" y="298.245375"/>
      </g>
     </g>
    </g>
    <g id="xtick_20">
     <g id="line2d_25">
      <g>
       <use style="stroke:#000000;stroke-width:0.6;" x="349.672509" xlink:href="#m3ee1da3458" y="298.245375"/>
      </g>
     </g>
    </g>
    <g id="xtick_21">
     <g id="line2d_26">
      <g>
       <use style="stroke:#000000;stroke-width:0.6;" x="354.812845" xlink:href="#m3ee1da3458" y="298.245375"/>
      </g>
     </g>
    </g>
    <g id="xtick_22">
     <g id="line2d_27">
      <g>
       <use style="stroke:#000000;stroke-width:0.6;" x="412.328091" xlink:href="#m3ee1da3458" y="298.245375"/>
      </g>
     </g>
    </g>
    <g id="xtick_23">
     <g id="line2d_28">
      <g>
       <use style="stroke:#000000;stroke-width:0.6;" x="424.713325" xlink:href="#m3ee1da3458" y="298.245375"/>
      </g>
     </g>
    </g>
    <g id="text_6">
     <!-- log10 of (# f-evals / dimension) -->
     <defs>
      <path d="M 9.421875 75.984375 
L 18.40625 75.984375 
L 18.40625 0 
L 9.421875 0 
z
" id="DejaVuSans-6c"/>
      <path d="M 30.609375 48.390625 
Q 23.390625 48.390625 19.1875 42.75 
Q 14.984375 37.109375 14.984375 27.296875 
Q 14.984375 17.484375 19.15625 11.84375 
Q 23.34375 6.203125 30.609375 6.203125 
Q 37.796875 6.203125 41.984375 11.859375 
Q 46.1875 17.53125 46.1875 27.296875 
Q 46.1875 37.015625 41.984375 42.703125 
Q 37.796875 48.390625 30.609375 48.390625 
M 30.609375 56 
Q 42.328125 56 49.015625 48.375 
Q 55.71875 40.765625 55.71875 27.296875 
Q 55.71875 13.875 49.015625 6.21875 
Q 42.328125 -1.421875 30.609375 -1.421875 
Q 18.84375 -1.421875 12.171875 6.21875 
Q 5.515625 13.875 5.515625 27.296875 
Q 5.515625 40.765625 12.171875 48.375 
Q 18.84375 56 30.609375 56 
" id="DejaVuSans-6f"/>
      <path d="M 45.40625 27.984375 
Q 45.40625 37.75 41.375 43.109375 
Q 37.359375 48.484375 30.078125 48.484375 
Q 22.859375 48.484375 18.828125 43.109375 
Q 14.796875 37.75 14.796875 27.984375 
Q 14.796875 18.265625 18.828125 12.890625 
Q 22.859375 7.515625 30.078125 7.515625 
Q 37.359375 7.515625 41.375 12.890625 
Q 45.40625 18.265625 45.40625 27.984375 
M 54.390625 6.78125 
Q 54.390625 -7.171875 48.1875 -13.984375 
Q 42 -20.796875 29.203125 -20.796875 
Q 24.46875 -20.796875 20.265625 -20.09375 
Q 16.0625 -19.390625 12.109375 -17.921875 
L 12.109375 -9.1875 
Q 16.0625 -11.328125 19.921875 -12.34375 
Q 23.78125 -13.375 27.78125 -13.375 
Q 36.625 -13.375 41.015625 -8.765625 
Q 45.40625 -4.15625 45.40625 5.171875 
L 45.40625 9.625 
Q 42.625 4.78125 38.28125 2.390625 
Q 33.9375 0 27.875 0 
Q 17.828125 0 11.671875 7.65625 
Q 5.515625 15.328125 5.515625 27.984375 
Q 5.515625 40.671875 11.671875 48.328125 
Q 17.828125 56 27.875 56 
Q 33.9375 56 38.28125 53.609375 
Q 42.625 51.21875 45.40625 46.390625 
L 45.40625 54.6875 
L 54.390625 54.6875 
z
" id="DejaVuSans-67"/>
      <path d="M 12.40625 8.296875 
L 28.515625 8.296875 
L 28.515625 63.921875 
L 10.984375 60.40625 
L 10.984375 69.390625 
L 28.421875 72.90625 
L 38.28125 72.90625 
L 38.28125 8.296875 
L 54.390625 8.296875 
L 54.390625 0 
L 12.40625 0 
z
" id="DejaVuSans-31"/>
      <path id="DejaVuSans-20"/>
      <path d="M 37.109375 75.984375 
L 37.109375 68.5 
L 28.515625 68.5 
Q 23.6875 68.5 21.796875 66.546875 
Q 19.921875 64.59375 19.921875 59.515625 
L 19.921875 54.6875 
L 34.71875 54.6875 
L 34.71875 47.703125 
L 19.921875 47.703125 
L 19.921875 0 
L 10.890625 0 
L 10.890625 47.703125 
L 2.296875 47.703125 
L 2.296875 54.6875 
L 10.890625 54.6875 
L 10.890625 58.5 
Q 10.890625 67.625 15.140625 71.796875 
Q 19.390625 75.984375 28.609375 75.984375 
z
" id="DejaVuSans-66"/>
      <path d="M 31 75.875 
Q 24.46875 64.65625 21.28125 53.65625 
Q 18.109375 42.671875 18.109375 31.390625 
Q 18.109375 20.125 21.3125 9.0625 
Q 24.515625 -2 31 -13.1875 
L 23.1875 -13.1875 
Q 15.875 -1.703125 12.234375 9.375 
Q 8.59375 20.453125 8.59375 31.390625 
Q 8.59375 42.28125 12.203125 53.3125 
Q 15.828125 64.359375 23.1875 75.875 
z
" id="DejaVuSans-28"/>
      <path d="M 51.125 44 
L 36.921875 44 
L 32.8125 27.6875 
L 47.125 27.6875 
z
M 43.796875 71.78125 
L 38.71875 51.515625 
L 52.984375 51.515625 
L 58.109375 71.78125 
L 65.921875 71.78125 
L 60.890625 51.515625 
L 76.125 51.515625 
L 76.125 44 
L 58.984375 44 
L 54.984375 27.6875 
L 70.515625 27.6875 
L 70.515625 20.21875 
L 53.078125 20.21875 
L 48 0 
L 40.1875 0 
L 45.21875 20.21875 
L 30.90625 20.21875 
L 25.875 0 
L 18.015625 0 
L 23.09375 20.21875 
L 7.71875 20.21875 
L 7.71875 27.6875 
L 24.90625 27.6875 
L 29 44 
L 13.28125 44 
L 13.28125 51.515625 
L 30.90625 51.515625 
L 35.890625 71.78125 
z
" id="DejaVuSans-23"/>
      <path d="M 4.890625 31.390625 
L 31.203125 31.390625 
L 31.203125 23.390625 
L 4.890625 23.390625 
z
" id="DejaVuSans-2d"/>
      <path d="M 56.203125 29.59375 
L 56.203125 25.203125 
L 14.890625 25.203125 
Q 15.484375 15.921875 20.484375 11.0625 
Q 25.484375 6.203125 34.421875 6.203125 
Q 39.59375 6.203125 44.453125 7.46875 
Q 49.3125 8.734375 54.109375 11.28125 
L 54.109375 2.78125 
Q 49.265625 0.734375 44.1875 -0.34375 
Q 39.109375 -1.421875 33.890625 -1.421875 
Q 20.796875 -1.421875 13.15625 6.1875 
Q 5.515625 13.8125 5.515625 26.8125 
Q 5.515625 40.234375 12.765625 48.109375 
Q 20.015625 56 32.328125 56 
Q 43.359375 56 49.78125 48.890625 
Q 56.203125 41.796875 56.203125 29.59375 
M 47.21875 32.234375 
Q 47.125 39.59375 43.09375 43.984375 
Q 39.0625 48.390625 32.421875 48.390625 
Q 24.90625 48.390625 20.390625 44.140625 
Q 15.875 39.890625 15.1875 32.171875 
z
" id="DejaVuSans-65"/>
      <path d="M 2.984375 54.6875 
L 12.5 54.6875 
L 29.59375 8.796875 
L 46.6875 54.6875 
L 56.203125 54.6875 
L 35.6875 0 
L 23.484375 0 
z
" id="DejaVuSans-76"/>
      <path d="M 34.28125 27.484375 
Q 23.390625 27.484375 19.1875 25 
Q 14.984375 22.515625 14.984375 16.5 
Q 14.984375 11.71875 18.140625 8.90625 
Q 21.296875 6.109375 26.703125 6.109375 
Q 34.1875 6.109375 38.703125 11.40625 
Q 43.21875 16.703125 43.21875 25.484375 
L 43.21875 27.484375 
z
M 52.203125 31.203125 
L 52.203125 0 
L 43.21875 0 
L 43.21875 8.296875 
Q 40.140625 3.328125 35.546875 0.953125 
Q 30.953125 -1.421875 24.3125 -1.421875 
Q 15.921875 -1.421875 10.953125 3.296875 
Q 6 8.015625 6 15.921875 
Q 6 25.140625 12.171875 29.828125 
Q 18.359375 34.515625 30.609375 34.515625 
L 43.21875 34.515625 
L 43.21875 35.40625 
Q 43.21875 41.609375 39.140625 45 
Q 35.0625 48.390625 27.6875 48.390625 
Q 23 48.390625 18.546875 47.265625 
Q 14.109375 46.140625 10.015625 43.890625 
L 10.015625 52.203125 
Q 14.9375 54.109375 19.578125 55.046875 
Q 24.21875 56 28.609375 56 
Q 40.484375 56 46.34375 49.84375 
Q 52.203125 43.703125 52.203125 31.203125 
" id="DejaVuSans-61"/>
      <path d="M 44.28125 53.078125 
L 44.28125 44.578125 
Q 40.484375 46.53125 36.375 47.5 
Q 32.28125 48.484375 27.875 48.484375 
Q 21.1875 48.484375 17.84375 46.4375 
Q 14.5 44.390625 14.5 40.28125 
Q 14.5 37.15625 16.890625 35.375 
Q 19.28125 33.59375 26.515625 31.984375 
L 29.59375 31.296875 
Q 39.15625 29.25 43.1875 25.515625 
Q 47.21875 21.78125 47.21875 15.09375 
Q 47.21875 7.46875 41.1875 3.015625 
Q 35.15625 -1.421875 24.609375 -1.421875 
Q 20.21875 -1.421875 15.453125 -0.5625 
Q 10.6875 0.296875 5.421875 2 
L 5.421875 11.28125 
Q 10.40625 8.6875 15.234375 7.390625 
Q 20.0625 6.109375 24.8125 6.109375 
Q 31.15625 6.109375 34.5625 8.28125 
Q 37.984375 10.453125 37.984375 14.40625 
Q 37.984375 18.0625 35.515625 20.015625 
Q 33.0625 21.96875 24.703125 23.78125 
L 21.578125 24.515625 
Q 13.234375 26.265625 9.515625 29.90625 
Q 5.8125 33.546875 5.8125 39.890625 
Q 5.8125 47.609375 11.28125 51.796875 
Q 16.75 56 26.8125 56 
Q 31.78125 56 36.171875 55.265625 
Q 40.578125 54.546875 44.28125 53.078125 
" id="DejaVuSans-73"/>
      <path d="M 25.390625 72.90625 
L 33.6875 72.90625 
L 8.296875 -9.28125 
L 0 -9.28125 
z
" id="DejaVuSans-2f"/>
      <path d="M 45.40625 46.390625 
L 45.40625 75.984375 
L 54.390625 75.984375 
L 54.390625 0 
L 45.40625 0 
L 45.40625 8.203125 
Q 42.578125 3.328125 38.25 0.953125 
Q 33.9375 -1.421875 27.875 -1.421875 
Q 17.96875 -1.421875 11.734375 6.484375 
Q 5.515625 14.40625 5.515625 27.296875 
Q 5.515625 40.1875 11.734375 48.09375 
Q 17.96875 56 27.875 56 
Q 33.9375 56 38.25 53.625 
Q 42.578125 51.265625 45.40625 46.390625 
M 14.796875 27.296875 
Q 14.796875 17.390625 18.875 11.75 
Q 22.953125 6.109375 30.078125 6.109375 
Q 37.203125 6.109375 41.296875 11.75 
Q 45.40625 17.390625 45.40625 27.296875 
Q 45.40625 37.203125 41.296875 42.84375 
Q 37.203125 48.484375 30.078125 48.484375 
Q 22.953125 48.484375 18.875 42.84375 
Q 14.796875 37.203125 14.796875 27.296875 
" id="DejaVuSans-64"/>
      <path d="M 9.421875 54.6875 
L 18.40625 54.6875 
L 18.40625 0 
L 9.421875 0 
z
M 9.421875 75.984375 
L 18.40625 75.984375 
L 18.40625 64.59375 
L 9.421875 64.59375 
z
" id="DejaVuSans-69"/>
      <path d="M 52 44.1875 
Q 55.375 50.25 60.0625 53.125 
Q 64.75 56 71.09375 56 
Q 79.640625 56 84.28125 50.015625 
Q 88.921875 44.046875 88.921875 33.015625 
L 88.921875 0 
L 79.890625 0 
L 79.890625 32.71875 
Q 79.890625 40.578125 77.09375 44.375 
Q 74.3125 48.1875 68.609375 48.1875 
Q 61.625 48.1875 57.5625 43.546875 
Q 53.515625 38.921875 53.515625 30.90625 
L 53.515625 0 
L 44.484375 0 
L 44.484375 32.71875 
Q 44.484375 40.625 41.703125 44.40625 
Q 38.921875 48.1875 33.109375 48.1875 
Q 26.21875 48.1875 22.15625 43.53125 
Q 18.109375 38.875 18.109375 30.90625 
L 18.109375 0 
L 9.078125 0 
L 9.078125 54.6875 
L 18.109375 54.6875 
L 18.109375 46.1875 
Q 21.1875 51.21875 25.484375 53.609375 
Q 29.78125 56 35.6875 56 
Q 41.65625 56 45.828125 52.96875 
Q 50 49.953125 52 44.1875 
" id="DejaVuSans-6d"/>
      <path d="M 54.890625 33.015625 
L 54.890625 0 
L 45.90625 0 
L 45.90625 32.71875 
Q 45.90625 40.484375 42.875 44.328125 
Q 39.84375 48.1875 33.796875 48.1875 
Q 26.515625 48.1875 22.3125 43.546875 
Q 18.109375 38.921875 18.109375 30.90625 
L 18.109375 0 
L 9.078125 0 
L 9.078125 54.6875 
L 18.109375 54.6875 
L 18.109375 46.1875 
Q 21.34375 51.125 25.703125 53.5625 
Q 30.078125 56 35.796875 56 
Q 45.21875 56 50.046875 50.171875 
Q 54.890625 44.34375 54.890625 33.015625 
" id="DejaVuSans-6e"/>
      <path d="M 8.015625 75.875 
L 15.828125 75.875 
Q 23.140625 64.359375 26.78125 53.3125 
Q 30.421875 42.28125 30.421875 31.390625 
Q 30.421875 20.453125 26.78125 9.375 
Q 23.140625 -1.703125 15.828125 -13.1875 
L 8.015625 -13.1875 
Q 14.5 -2 17.703125 9.0625 
Q 20.90625 20.125 20.90625 31.390625 
Q 20.90625 42.671875 17.703125 53.65625 
Q 14.5 64.65625 8.015625 75.875 
" id="DejaVuSans-29"/>
     </defs>
     <g transform="translate(107.015156 342.278812)scale(0.18 -0.18)">
      <use xlink:href="#DejaVuSans-6c"/>
      <use x="27.783203" xlink:href="#DejaVuSans-6f"/>
      <use x="88.964844" xlink:href="#DejaVuSans-67"/>
      <use x="152.441406" xlink:href="#DejaVuSans-31"/>
      <use x="216.064453" xlink:href="#DejaVuSans-30"/>
      <use x="279.6875" xlink:href="#DejaVuSans-20"/>
      <use x="311.474609" xlink:href="#DejaVuSans-6f"/>
      <use x="372.65625" xlink:href="#DejaVuSans-66"/>
      <use x="407.861328" xlink:href="#DejaVuSans-20"/>
      <use x="439.648438" xlink:href="#DejaVuSans-28"/>
      <use x="478.662109" xlink:href="#DejaVuSans-23"/>
      <use x="562.451172" xlink:href="#DejaVuSans-20"/>
      <use x="594.238281" xlink:href="#DejaVuSans-66"/>
      <use x="629.365234" xlink:href="#DejaVuSans-2d"/>
      <use x="665.449219" xlink:href="#DejaVuSans-65"/>
      <use x="726.972656" xlink:href="#DejaVuSans-76"/>
      <use x="786.152344" xlink:href="#DejaVuSans-61"/>
      <use x="847.431641" xlink:href="#DejaVuSans-6c"/>
      <use x="875.214844" xlink:href="#DejaVuSans-73"/>
      <use x="927.314453" xlink:href="#DejaVuSans-20"/>
      <use x="959.101562" xlink:href="#DejaVuSans-2f"/>
      <use x="992.792969" xlink:href="#DejaVuSans-20"/>
      <use x="1024.580078" xlink:href="#DejaVuSans-64"/>
      <use x="1088.056641" xlink:href="#DejaVuSans-69"/>
      <use x="1115.839844" xlink:href="#DejaVuSans-6d"/>
      <use x="1213.251953" xlink:href="#DejaVuSans-65"/>
      <use x="1274.775391" xlink:href="#DejaVuSans-6e"/>
      <use x="1338.154297" xlink:href="#DejaVuSans-73"/>
      <use x="1390.253906" xlink:href="#DejaVuSans-69"/>
      <use x="1418.037109" xlink:href="#DejaVuSans-6f"/>
      <use x="1479.21875" xlink:href="#DejaVuSans-6e"/>
      <use x="1542.597656" xlink:href="#DejaVuSans-29"/>
     </g>
    </g>
   </g>
   <g id="matplotlib.axis_2">
    <g id="ytick_1">
     <g id="line2d_29">
      <path clip-path="url(#p68c7acce0a)" d="M 70.8 298.245375 
L 427.92 298.245375 
" style="fill:none;stroke:#b0b0b0;stroke-linecap:square;stroke-width:0.8;"/>
     </g>
     <g id="line2d_30">
      <defs>
       <path d="M 0 0 
L -3.5 0 
" id="m84fdca2909" style="stroke:#000000;stroke-width:0.8;"/>
      </defs>
      <g>
       <use style="stroke:#000000;stroke-width:0.8;" x="70.8" xlink:href="#m84fdca2909" y="298.245375"/>
      </g>
     </g>
     <g id="text_7">
      <!-- 0.0 -->
      <defs>
       <path d="M 10.6875 12.40625 
L 21 12.40625 
L 21 0 
L 10.6875 0 
z
" id="DejaVuSans-2e"/>
      </defs>
      <g transform="translate(31.99375 305.843812)scale(0.2 -0.2)">
       <use xlink:href="#DejaVuSans-30"/>
       <use x="63.623047" xlink:href="#DejaVuSans-2e"/>
       <use x="95.410156" xlink:href="#DejaVuSans-30"/>
      </g>
     </g>
    </g>
    <g id="ytick_2">
     <g id="line2d_31">
      <path clip-path="url(#p68c7acce0a)" d="M 70.8 245.549929 
L 427.92 245.549929 
" style="fill:none;stroke:#b0b0b0;stroke-linecap:square;stroke-width:0.8;"/>
     </g>
     <g id="line2d_32">
      <g>
       <use style="stroke:#000000;stroke-width:0.8;" x="70.8" xlink:href="#m84fdca2909" y="245.549929"/>
      </g>
     </g>
     <g id="text_8">
      <!-- 0.2 -->
      <g transform="translate(31.99375 253.148367)scale(0.2 -0.2)">
       <use xlink:href="#DejaVuSans-30"/>
       <use x="63.623047" xlink:href="#DejaVuSans-2e"/>
       <use x="95.410156" xlink:href="#DejaVuSans-32"/>
      </g>
     </g>
    </g>
    <g id="ytick_3">
     <g id="line2d_33">
      <path clip-path="url(#p68c7acce0a)" d="M 70.8 192.854484 
L 427.92 192.854484 
" style="fill:none;stroke:#b0b0b0;stroke-linecap:square;stroke-width:0.8;"/>
     </g>
     <g id="line2d_34">
      <g>
       <use style="stroke:#000000;stroke-width:0.8;" x="70.8" xlink:href="#m84fdca2909" y="192.854484"/>
      </g>
     </g>
     <g id="text_9">
      <!-- 0.4 -->
      <g transform="translate(31.99375 200.452921)scale(0.2 -0.2)">
       <use xlink:href="#DejaVuSans-30"/>
       <use x="63.623047" xlink:href="#DejaVuSans-2e"/>
       <use x="95.410156" xlink:href="#DejaVuSans-34"/>
      </g>
     </g>
    </g>
    <g id="ytick_4">
     <g id="line2d_35">
      <path clip-path="url(#p68c7acce0a)" d="M 70.8 140.159038 
L 427.92 140.159038 
" style="fill:none;stroke:#b0b0b0;stroke-linecap:square;stroke-width:0.8;"/>
     </g>
     <g id="line2d_36">
      <g>
       <use style="stroke:#000000;stroke-width:0.8;" x="70.8" xlink:href="#m84fdca2909" y="140.159038"/>
      </g>
     </g>
     <g id="text_10">
      <!-- 0.6 -->
      <g transform="translate(31.99375 147.757476)scale(0.2 -0.2)">
       <use xlink:href="#DejaVuSans-30"/>
       <use x="63.623047" xlink:href="#DejaVuSans-2e"/>
       <use x="95.410156" xlink:href="#DejaVuSans-36"/>
      </g>
     </g>
    </g>
    <g id="ytick_5">
     <g id="line2d_37">
      <path clip-path="url(#p68c7acce0a)" d="M 70.8 87.463593 
L 427.92 87.463593 
" style="fill:none;stroke:#b0b0b0;stroke-linecap:square;stroke-width:0.8;"/>
     </g>
     <g id="line2d_38">
      <g>
       <use style="stroke:#000000;stroke-width:0.8;" x="70.8" xlink:href="#m84fdca2909" y="87.463593"/>
      </g>
     </g>
     <g id="text_11">
      <!-- 0.8 -->
      <g transform="translate(31.99375 95.06203)scale(0.2 -0.2)">
       <use xlink:href="#DejaVuSans-30"/>
       <use x="63.623047" xlink:href="#DejaVuSans-2e"/>
       <use x="95.410156" xlink:href="#DejaVuSans-38"/>
      </g>
     </g>
    </g>
    <g id="ytick_6">
     <g id="line2d_39">
      <path clip-path="url(#p68c7acce0a)" d="M 70.8 34.768147 
L 427.92 34.768147 
" style="fill:none;stroke:#b0b0b0;stroke-linecap:square;stroke-width:0.8;"/>
     </g>
     <g id="line2d_40">
      <g>
       <use style="stroke:#000000;stroke-width:0.8;" x="70.8" xlink:href="#m84fdca2909" y="34.768147"/>
      </g>
     </g>
     <g id="text_12">
      <!-- 1.0 -->
      <g transform="translate(31.99375 42.366585)scale(0.2 -0.2)">
       <use xlink:href="#DejaVuSans-31"/>
       <use x="63.623047" xlink:href="#DejaVuSans-2e"/>
       <use x="95.410156" xlink:href="#DejaVuSans-30"/>
      </g>
     </g>
    </g>
    <g id="text_13">
     <!-- Proportion of function+target pairs -->
     <defs>
      <path d="M 19.671875 64.796875 
L 19.671875 37.40625 
L 32.078125 37.40625 
Q 38.96875 37.40625 42.71875 40.96875 
Q 46.484375 44.53125 46.484375 51.125 
Q 46.484375 57.671875 42.71875 61.234375 
Q 38.96875 64.796875 32.078125 64.796875 
z
M 9.8125 72.90625 
L 32.078125 72.90625 
Q 44.34375 72.90625 50.609375 67.359375 
Q 56.890625 61.8125 56.890625 51.125 
Q 56.890625 40.328125 50.609375 34.8125 
Q 44.34375 29.296875 32.078125 29.296875 
L 19.671875 29.296875 
L 19.671875 0 
L 9.8125 0 
z
" id="DejaVuSans-50"/>
      <path d="M 41.109375 46.296875 
Q 39.59375 47.171875 37.8125 47.578125 
Q 36.03125 48 33.890625 48 
Q 26.265625 48 22.1875 43.046875 
Q 18.109375 38.09375 18.109375 28.8125 
L 18.109375 0 
L 9.078125 0 
L 9.078125 54.6875 
L 18.109375 54.6875 
L 18.109375 46.1875 
Q 20.953125 51.171875 25.484375 53.578125 
Q 30.03125 56 36.53125 56 
Q 37.453125 56 38.578125 55.875 
Q 39.703125 55.765625 41.0625 55.515625 
z
" id="DejaVuSans-72"/>
      <path d="M 18.109375 8.203125 
L 18.109375 -20.796875 
L 9.078125 -20.796875 
L 9.078125 54.6875 
L 18.109375 54.6875 
L 18.109375 46.390625 
Q 20.953125 51.265625 25.265625 53.625 
Q 29.59375 56 35.59375 56 
Q 45.5625 56 51.78125 48.09375 
Q 58.015625 40.1875 58.015625 27.296875 
Q 58.015625 14.40625 51.78125 6.484375 
Q 45.5625 -1.421875 35.59375 -1.421875 
Q 29.59375 -1.421875 25.265625 0.953125 
Q 20.953125 3.328125 18.109375 8.203125 
M 48.6875 27.296875 
Q 48.6875 37.203125 44.609375 42.84375 
Q 40.53125 48.484375 33.40625 48.484375 
Q 26.265625 48.484375 22.1875 42.84375 
Q 18.109375 37.203125 18.109375 27.296875 
Q 18.109375 17.390625 22.1875 11.75 
Q 26.265625 6.109375 33.40625 6.109375 
Q 40.53125 6.109375 44.609375 11.75 
Q 48.6875 17.390625 48.6875 27.296875 
" id="DejaVuSans-70"/>
      <path d="M 18.3125 70.21875 
L 18.3125 54.6875 
L 36.8125 54.6875 
L 36.8125 47.703125 
L 18.3125 47.703125 
L 18.3125 18.015625 
Q 18.3125 11.328125 20.140625 9.421875 
Q 21.96875 7.515625 27.59375 7.515625 
L 36.8125 7.515625 
L 36.8125 0 
L 27.59375 0 
Q 17.1875 0 13.234375 3.875 
Q 9.28125 7.765625 9.28125 18.015625 
L 9.28125 47.703125 
L 2.6875 47.703125 
L 2.6875 54.6875 
L 9.28125 54.6875 
L 9.28125 70.21875 
z
" id="DejaVuSans-74"/>
      <path d="M 8.5 21.578125 
L 8.5 54.6875 
L 17.484375 54.6875 
L 17.484375 21.921875 
Q 17.484375 14.15625 20.5 10.265625 
Q 23.53125 6.390625 29.59375 6.390625 
Q 36.859375 6.390625 41.078125 11.03125 
Q 45.3125 15.671875 45.3125 23.6875 
L 45.3125 54.6875 
L 54.296875 54.6875 
L 54.296875 0 
L 45.3125 0 
L 45.3125 8.40625 
Q 42.046875 3.421875 37.71875 1 
Q 33.40625 -1.421875 27.6875 -1.421875 
Q 18.265625 -1.421875 13.375 4.4375 
Q 8.5 10.296875 8.5 21.578125 
M 31.109375 56 
z
" id="DejaVuSans-75"/>
      <path d="M 48.78125 52.59375 
L 48.78125 44.1875 
Q 44.96875 46.296875 41.140625 47.34375 
Q 37.3125 48.390625 33.40625 48.390625 
Q 24.65625 48.390625 19.8125 42.84375 
Q 14.984375 37.3125 14.984375 27.296875 
Q 14.984375 17.28125 19.8125 11.734375 
Q 24.65625 6.203125 33.40625 6.203125 
Q 37.3125 6.203125 41.140625 7.25 
Q 44.96875 8.296875 48.78125 10.40625 
L 48.78125 2.09375 
Q 45.015625 0.34375 40.984375 -0.53125 
Q 36.96875 -1.421875 32.421875 -1.421875 
Q 20.0625 -1.421875 12.78125 6.34375 
Q 5.515625 14.109375 5.515625 27.296875 
Q 5.515625 40.671875 12.859375 48.328125 
Q 20.21875 56 33.015625 56 
Q 37.15625 56 41.109375 55.140625 
Q 45.0625 54.296875 48.78125 52.59375 
" id="DejaVuSans-63"/>
      <path d="M 46 62.703125 
L 46 35.5 
L 73.1875 35.5 
L 73.1875 27.203125 
L 46 27.203125 
L 46 0 
L 37.796875 0 
L 37.796875 27.203125 
L 10.59375 27.203125 
L 10.59375 35.5 
L 37.796875 35.5 
L 37.796875 62.703125 
z
" id="DejaVuSans-2b"/>
     </defs>
     <g transform="translate(24.250312 323.17875)rotate(-90)scale(0.18 -0.18)">
      <use xlink:href="#DejaVuSans-50"/>
      <use x="60.287109" xlink:href="#DejaVuSans-72"/>
      <use x="101.369141" xlink:href="#DejaVuSans-6f"/>
      <use x="162.550781" xlink:href="#DejaVuSans-70"/>
      <use x="226.027344" xlink:href="#DejaVuSans-6f"/>
      <use x="287.208984" xlink:href="#DejaVuSans-72"/>
      <use x="328.322266" xlink:href="#DejaVuSans-74"/>
      <use x="367.53125" xlink:href="#DejaVuSans-69"/>
      <use x="395.314453" xlink:href="#DejaVuSans-6f"/>
      <use x="456.496094" xlink:href="#DejaVuSans-6e"/>
      <use x="519.875" xlink:href="#DejaVuSans-20"/>
      <use x="551.662109" xlink:href="#DejaVuSans-6f"/>
      <use x="612.84375" xlink:href="#DejaVuSans-66"/>
      <use x="648.048828" xlink:href="#DejaVuSans-20"/>
      <use x="679.835938" xlink:href="#DejaVuSans-66"/>
      <use x="715.041016" xlink:href="#DejaVuSans-75"/>
      <use x="778.419922" xlink:href="#DejaVuSans-6e"/>
      <use x="841.798828" xlink:href="#DejaVuSans-63"/>
      <use x="896.779297" xlink:href="#DejaVuSans-74"/>
      <use x="935.988281" xlink:href="#DejaVuSans-69"/>
      <use x="963.771484" xlink:href="#DejaVuSans-6f"/>
      <use x="1024.953125" xlink:href="#DejaVuSans-6e"/>
      <use x="1088.332031" xlink:href="#DejaVuSans-2b"/>
      <use x="1172.121094" xlink:href="#DejaVuSans-74"/>
      <use x="1211.330078" xlink:href="#DejaVuSans-61"/>
      <use x="1272.609375" xlink:href="#DejaVuSans-72"/>
      <use x="1313.707031" xlink:href="#DejaVuSans-67"/>
      <use x="1377.183594" xlink:href="#DejaVuSans-65"/>
      <use x="1438.707031" xlink:href="#DejaVuSans-74"/>
      <use x="1477.916016" xlink:href="#DejaVuSans-20"/>
      <use x="1509.703125" xlink:href="#DejaVuSans-70"/>
      <use x="1573.179688" xlink:href="#DejaVuSans-61"/>
      <use x="1634.458984" xlink:href="#DejaVuSans-69"/>
      <use x="1662.242188" xlink:href="#DejaVuSans-72"/>
      <use x="1703.355469" xlink:href="#DejaVuSans-73"/>
     </g>
    </g>
   </g>
   <g id="line2d_41">
    <defs>
     <path d="M 0 1.5 
C 0.397805 1.5 0.77937 1.341951 1.06066 1.06066 
C 1.341951 0.77937 1.5 0.397805 1.5 0 
C 1.5 -0.397805 1.341951 -0.77937 1.06066 -1.06066 
C 0.77937 -1.341951 0.397805 -1.5 0 -1.5 
C -0.397805 -1.5 -0.77937 -1.341951 -1.06066 -1.06066 
C -1.341951 -0.77937 -1.5 -0.397805 -1.5 0 
C -1.5 0.397805 -1.341951 0.77937 -1.06066 1.06066 
C -0.77937 1.341951 -0.397805 1.5 0 1.5 
z
" id="ma77f13ea07" style="stroke:#000080;"/>
    </defs>
    <g>
     <use style="fill:#000080;stroke:#000080;" x="350.601214" xlink:href="#ma77f13ea07" y="34.768147"/>
     <use style="fill:#000080;stroke:#000080;" x="350.601214" xlink:href="#ma77f13ea07" y="34.768147"/>
    </g>
   </g>
   <g id="line2d_42">
    <path d="M 51.169868 298.245375 
L 51.169868 266.21481 
L 145.840817 266.21481 
L 145.840817 261.04859 
L 153.085714 261.04859 
L 153.085714 260.015346 
L 158.226051 260.015346 
L 158.226051 257.432236 
L 165.470948 257.432236 
L 165.470948 254.332504 
L 170.611285 254.332504 
L 170.611285 253.29926 
L 176.301453 253.29926 
L 176.301453 252.782638 
L 179.286395 252.782638 
L 179.286395 252.266016 
L 186.983674 252.266016 
L 186.983674 251.749394 
L 190.970829 251.749394 
L 190.970829 250.71615 
L 192.995799 250.71615 
L 192.995799 248.649662 
L 194.814464 248.649662 
L 194.814464 248.13304 
L 195.381753 248.13304 
L 195.381753 247.616418 
L 199.810118 247.616418 
L 199.810118 247.099796 
L 203.356063 247.099796 
L 203.356063 246.583173 
L 204.731212 246.583173 
L 204.731212 246.066551 
L 208.585517 246.066551 
L 208.585517 245.033307 
L 210.118009 245.033307 
L 210.118009 241.933575 
L 210.60096 241.933575 
L 210.60096 241.416953 
L 211.976109 241.416953 
L 211.976109 240.900331 
L 212.62593 240.900331 
L 212.62593 239.350465 
L 212.83739 239.350465 
L 212.83739 236.250733 
L 213.046376 236.250733 
L 213.046376 235.217489 
L 213.252946 235.217489 
L 213.252946 234.700867 
L 214.056143 234.700867 
L 214.056143 233.667623 
L 214.444595 233.667623 
L 214.444595 231.601135 
L 214.824782 231.601135 
L 214.824782 230.051269 
L 215.011885 230.051269 
L 215.011885 227.984781 
L 215.197048 227.984781 
L 215.197048 226.434915 
L 215.380313 226.434915 
L 215.380313 225.401671 
L 215.561716 225.401671 
L 215.561716 224.368427 
L 215.741297 224.368427 
L 215.741297 217.652341 
L 216.095133 217.652341 
L 216.095133 216.619097 
L 216.269457 216.619097 
L 216.269457 216.102475 
L 217.766267 216.102475 
L 217.766267 215.069231 
L 218.23858 215.069231 
L 218.23858 213.002743 
L 218.849515 213.002743 
L 218.849515 212.48612 
L 219.870828 212.48612 
L 219.870828 211.452876 
L 220.291274 211.452876 
L 220.291274 210.419632 
L 221.235469 210.419632 
L 221.235469 209.90301 
L 221.880598 209.90301 
L 221.880598 208.869766 
L 222.006875 208.869766 
L 222.006875 207.3199 
L 222.256782 207.3199 
L 222.256782 206.286656 
L 222.380438 206.286656 
L 222.380438 205.770034 
L 222.74635 205.770034 
L 222.74635 204.220168 
L 222.866675 204.220168 
L 222.866675 203.703546 
L 228.392563 203.703546 
L 228.480367 201.120436 
L 229.083204 201.120436 
L 229.083204 199.57057 
L 229.666364 199.57057 
L 229.748141 198.537326 
L 230.389218 198.537326 
L 230.467759 197.504082 
L 230.545957 197.504082 
L 230.545957 195.954216 
L 230.855369 195.954216 
L 230.855369 195.437594 
L 231.532558 195.437594 
L 231.532558 194.40435 
L 232.04207 194.40435 
L 232.113686 192.854484 
L 232.397313 192.854484 
L 232.397313 192.337862 
L 233.019476 192.337862 
L 233.019476 191.304618 
L 234.010569 191.304618 
L 234.010569 190.787996 
L 234.454914 190.787996 
L 234.454914 190.271374 
L 235.010444 190.271374 
L 235.071117 189.23813 
L 235.191848 189.23813 
L 235.251909 188.204886 
L 238.227624 188.204886 
L 238.227624 187.688264 
L 238.429525 187.688264 
L 238.429525 186.65502 
L 238.973272 186.65502 
L 238.973272 184.588532 
L 240.196305 184.588532 
L 240.287006 183.555288 
L 242.255342 183.555288 
L 242.295813 182.522044 
L 242.774452 182.522044 
L 242.774452 181.4888 
L 244.712061 181.4888 
L 244.712061 180.972178 
L 245.674423 180.972178 
L 245.674423 180.455556 
L 246.13684 180.455556 
L 246.13684 179.938934 
L 247.845781 179.938934 
L 247.845781 178.389067 
L 277.071335 178.389067 
L 277.14623 176.322579 
L 277.209358 176.322579 
L 277.295084 173.739469 
L 277.334949 173.739469 
L 277.380401 169.606493 
L 277.684211 169.606493 
L 277.78989 168.056627 
L 277.828668 168.056627 
L 277.938999 162.373785 
L 277.944498 162.373785 
L 277.977455 161.340541 
L 278.097779 161.340541 
L 278.206467 158.240809 
L 278.496662 158.240809 
L 278.576442 156.174321 
L 278.634722 156.174321 
L 278.719155 154.624455 
L 279.001207 154.624455 
L 279.021924 153.074589 
L 279.278875 153.074589 
L 279.299273 151.524723 
L 279.441406 151.524723 
L 279.481809 148.941613 
L 279.786912 148.941613 
L 279.786912 147.908369 
L 280.013593 147.908369 
L 280.013593 147.391747 
L 289.279613 147.391747 
L 289.326197 145.325259 
L 289.568794 145.325259 
L 289.626073 140.67566 
L 289.728714 140.67566 
L 289.728714 140.159038 
L 289.915372 140.159038 
L 290.013572 134.476196 
L 290.127924 134.476196 
L 290.186212 130.859842 
L 290.335229 130.859842 
L 290.444816 127.243488 
L 290.610653 127.243488 
L 290.713189 125.177 
L 290.7347 125.177 
L 290.7347 124.660378 
L 296.398709 124.660378 
L 296.422181 123.627134 
L 296.542965 123.627134 
L 296.632054 120.01078 
L 296.718778 120.01078 
L 296.718778 118.977536 
L 296.83758 118.977536 
L 296.847126 116.911048 
L 296.972664 116.911048 
L 297.019987 114.327938 
L 297.185573 114.327938 
L 297.221124 111.744828 
L 297.303182 111.744828 
L 297.303182 110.711584 
L 301.475811 110.711584 
L 301.48612 109.678339 
L 301.621063 109.678339 
L 301.717246 107.095229 
L 301.81436 107.095229 
L 301.90951 105.545363 
L 301.931065 105.545363 
L 302.019883 104.512119 
L 302.074102 104.512119 
L 302.160796 102.962253 
L 302.21459 102.962253 
L 302.225895 101.412387 
L 305.530897 101.412387 
L 305.623409 99.345899 
L 305.696842 99.345899 
L 305.802382 96.762789 
L 305.976145 96.762789 
L 306.028745 94.696301 
L 308.775133 94.696301 
L 308.879594 91.596569 
L 308.897107 91.596569 
L 308.974735 89.530081 
L 309.057812 89.530081 
L 309.162554 86.430349 
L 311.477826 86.430349 
L 311.584402 84.880483 
L 311.615332 84.880483 
L 311.706141 80.747507 
L 311.732714 80.747507 
L 311.824581 78.164397 
L 313.854415 78.164397 
L 313.933085 76.097908 
L 314.000451 76.097908 
L 314.063195 74.03142 
L 314.143854 74.03142 
L 314.143854 73.514798 
L 315.872883 73.514798 
L 315.925458 71.44831 
L 316.064688 71.44831 
L 316.169213 66.28209 
L 316.19638 66.28209 
L 316.19638 65.765468 
L 317.878522 65.765468 
L 317.980589 63.69898 
L 318.034903 63.69898 
L 318.037236 62.665736 
L 319.493936 62.665736 
L 319.601098 60.599248 
L 319.703903 60.599248 
L 319.703903 60.082626 
L 321.038048 60.082626 
L 321.135382 56.466272 
L 321.211698 56.466272 
L 321.230238 55.433028 
L 322.546464 55.433028 
L 322.550994 54.399784 
L 323.820083 54.399784 
L 323.820083 53.883162 
L 323.943261 53.883162 
L 323.943261 53.36654 
L 325.042841 53.36654 
L 325.042841 52.849918 
L 325.156332 52.849918 
L 325.157898 51.816674 
L 326.195382 51.816674 
L 326.278292 50.266808 
L 327.294396 50.266808 
L 327.361648 49.233564 
L 328.28311 49.233564 
L 328.373251 47.167076 
L 329.313895 47.167076 
L 329.313895 46.133832 
L 330.221055 46.133832 
L 330.221055 45.100588 
L 331.019926 45.100588 
L 331.084375 43.550722 
L 331.907899 43.550722 
L 331.907899 43.0341 
L 333.460459 43.0341 
L 333.460459 42.517478 
L 334.115331 42.517478 
L 334.13571 41.484233 
L 334.867935 41.484233 
L 334.867935 40.967611 
L 335.485456 40.967611 
L 335.485456 40.450989 
L 336.190335 40.450989 
L 336.190335 39.934367 
L 337.336443 39.934367 
L 337.414873 38.901123 
L 337.988647 38.901123 
L 337.988647 38.384501 
L 340.650754 38.384501 
L 340.650754 37.867879 
L 342.480541 37.867879 
L 342.517174 36.834635 
L 343.808963 36.834635 
L 343.808963 36.318013 
L 346.491434 36.318013 
L 346.491434 35.801391 
L 350.316235 35.801391 
L 350.316235 35.284769 
L 350.601214 35.284769 
L 350.601214 34.768147 
L 358.8 34.768147 
L 358.8 34.768147 
" style="fill:none;stroke:#000080;stroke-linecap:square;stroke-width:1.5;"/>
   </g>
   <g id="line2d_43">
    <defs>
     <path d="M 0 6 
C 1.591219 6 3.117479 5.367802 4.242641 4.242641 
C 5.367802 3.117479 6 1.591219 6 0 
C 6 -1.591219 5.367802 -3.117479 4.242641 -4.242641 
C 3.117479 -5.367802 1.591219 -6 0 -6 
C -1.591219 -6 -3.117479 -5.367802 -4.242641 -4.242641 
C -5.367802 -3.117479 -6 -1.591219 -6 0 
C -6 1.591219 -5.367802 3.117479 -4.242641 4.242641 
C -3.117479 5.367802 -1.591219 6 0 6 
z
" id="me6ce268268" style="stroke:#000080;stroke-width:1.5;"/>
    </defs>
    <g>
     <use style="fill:none;stroke:#000080;stroke-width:1.5;" x="358.8" xlink:href="#me6ce268268" y="34.768147"/>
    </g>
   </g>
   <g id="line2d_44"/>
   <g id="line2d_45">
    <path clip-path="url(#p68c7acce0a)" d="M 276.514286 178.389067 
" style="fill:none;stroke:#000080;stroke-linecap:square;stroke-width:1.5;"/>
    <defs>
     <path d="M -12 12 
L 12 -12 
M -12 -12 
L 12 12 
" id="m30be7b045d" style="stroke:#000080;stroke-width:3;"/>
    </defs>
    <g clip-path="url(#p68c7acce0a)">
     <use style="fill:#000080;stroke:#000080;stroke-width:3;" x="276.514286" xlink:href="#m30be7b045d" y="178.389067"/>
    </g>
   </g>
   <g id="line2d_46">
    <defs>
     <path d="M 0 1.5 
C 0.397805 1.5 0.77937 1.341951 1.06066 1.06066 
C 1.341951 0.77937 1.5 0.397805 1.5 0 
C 1.5 -0.397805 1.341951 -0.77937 1.06066 -1.06066 
C 0.77937 -1.341951 0.397805 -1.5 0 -1.5 
C -0.397805 -1.5 -0.77937 -1.341951 -1.06066 -1.06066 
C -1.341951 -0.77937 -1.5 -0.397805 -1.5 0 
C -1.5 0.397805 -1.341951 0.77937 -1.06066 1.06066 
C -0.77937 1.341951 -0.397805 1.5 0 1.5 
z
" id="mc04a85a75c" style="stroke:#ff00ff;"/>
    </defs>
    <g>
     <use style="fill:#ff00ff;stroke:#ff00ff;" x="305.850883" xlink:href="#mc04a85a75c" y="34.768147"/>
     <use style="fill:#ff00ff;stroke:#ff00ff;" x="305.850883" xlink:href="#mc04a85a75c" y="34.768147"/>
    </g>
   </g>
   <g id="line2d_47">
    <path d="M 51.169868 298.245375 
L 51.169868 246.066551 
L 145.840817 246.066551 
L 145.840817 245.549929 
L 153.085714 245.549929 
L 153.085714 245.033307 
L 158.226051 245.033307 
L 158.226051 242.966819 
L 165.470948 242.966819 
L 165.470948 239.350465 
L 168.225331 239.350465 
L 168.225331 238.833843 
L 170.611285 238.833843 
L 170.611285 236.250733 
L 174.59844 236.250733 
L 174.59844 235.734111 
L 182.996519 235.734111 
L 182.996519 234.700867 
L 187.855462 234.700867 
L 187.855462 233.151001 
L 190.241417 233.151001 
L 190.241417 232.634379 
L 192.995799 232.634379 
L 192.995799 231.084513 
L 193.622815 231.084513 
L 193.622815 230.051269 
L 196.465001 230.051269 
L 196.465001 226.951537 
L 200.661142 226.951537 
L 200.661142 226.434915 
L 201.866191 226.434915 
L 201.866191 225.918293 
L 203.356063 225.918293 
L 203.356063 224.368427 
L 204.056863 224.368427 
L 204.056863 223.335183 
L 208.850235 223.335183 
L 208.850235 222.301939 
L 211.071201 222.301939 
L 211.071201 220.752073 
L 213.046376 220.752073 
L 213.046376 219.202207 
L 213.252946 219.202207 
L 213.252946 218.685585 
L 213.659057 218.685585 
L 213.659057 218.168963 
L 214.056143 218.168963 
L 214.056143 217.652341 
L 214.251425 217.652341 
L 214.251425 217.135719 
L 214.444595 217.135719 
L 214.444595 215.585853 
L 215.197048 215.585853 
L 215.197048 213.002743 
L 215.561716 213.002743 
L 215.561716 212.48612 
L 215.919091 212.48612 
L 215.919091 211.452876 
L 217.116446 211.452876 
L 217.116446 210.419632 
L 218.082525 210.419632 
L 218.082525 208.869766 
L 218.23858 208.869766 
L 218.23858 206.803278 
L 218.99904 206.803278 
L 218.99904 205.770034 
L 220.152221 205.770034 
L 220.152221 205.253412 
L 220.429252 205.253412 
L 220.429252 203.186924 
L 220.836907 203.186924 
L 220.836907 200.603814 
L 221.103601 200.603814 
L 221.103601 198.537326 
L 221.880598 198.537326 
L 221.880598 198.020704 
L 222.132265 198.020704 
L 222.132265 195.954216 
L 222.256782 195.954216 
L 222.256782 195.437594 
L 222.62521 195.437594 
L 222.62521 192.854484 
L 222.74635 192.854484 
L 222.74635 192.337862 
L 222.866675 192.337862 
L 222.866675 190.787996 
L 222.986194 190.787996 
L 222.986194 190.271374 
L 226.82983 190.271374 
L 226.82983 189.754752 
L 227.94695 189.754752 
L 227.94695 189.23813 
L 228.215649 189.23813 
L 228.304325 187.688264 
L 228.392563 187.688264 
L 228.392563 186.138398 
L 229.666364 186.138398 
L 229.748141 183.038666 
L 229.910579 183.038666 
L 229.910579 182.522044 
L 230.071554 182.522044 
L 230.071554 181.4888 
L 230.31033 181.4888 
L 230.389218 180.455556 
L 230.545957 180.455556 
L 230.545957 179.938934 
L 230.855369 179.938934 
L 230.855369 178.389067 
L 231.384274 178.389067 
L 231.45857 176.322579 
L 231.532558 176.322579 
L 231.606241 172.706225 
L 231.679621 172.706225 
L 231.679621 171.672981 
L 231.897972 171.672981 
L 231.897972 170.123115 
L 232.185016 170.123115 
L 232.185016 169.606493 
L 233.289189 169.606493 
L 233.289189 168.573249 
L 233.422534 168.573249 
L 233.422534 167.023383 
L 234.265832 167.023383 
L 234.265832 166.506761 
L 234.392109 166.506761 
L 234.392109 165.990139 
L 234.517499 165.990139 
L 234.517499 165.473517 
L 234.642016 165.473517 
L 234.642016 162.890407 
L 235.010444 162.890407 
L 235.010444 161.857163 
L 235.191848 161.857163 
L 235.191848 160.307297 
L 235.371429 160.307297 
L 235.371429 159.790675 
L 236.856535 159.790675 
L 236.856535 158.757431 
L 238.227624 158.757431 
L 238.227624 155.141077 
L 238.629171 155.141077 
L 238.728164 153.591211 
L 239.070382 153.591211 
L 239.070382 152.557967 
L 239.64221 152.557967 
L 239.689047 148.941613 
L 239.782353 148.941613 
L 239.875175 147.391747 
L 239.921405 147.391747 
L 239.921405 146.875125 
L 240.150781 146.875125 
L 240.196305 143.25877 
L 240.287006 143.25877 
L 240.377249 141.708904 
L 240.4222 141.708904 
L 240.467039 140.159038 
L 240.55638 140.159038 
L 240.55638 138.09255 
L 240.821753 138.09255 
L 240.821753 137.575928 
L 241.637006 137.575928 
L 241.720698 136.026062 
L 241.886914 136.026062 
L 241.928228 134.992818 
L 242.051598 134.992818 
L 242.133375 132.409708 
L 242.214778 132.409708 
L 242.255342 131.376464 
L 242.41668 131.376464 
L 242.41668 129.826598 
L 242.852993 129.826598 
L 242.852993 128.793354 
L 243.202218 128.793354 
L 243.202218 127.76011 
L 243.732244 127.76011 
L 243.732244 125.177 
L 243.880836 125.177 
L 243.880836 123.627134 
L 244.3554 123.627134 
L 244.3554 123.110512 
L 244.57025 123.110512 
L 244.641296 121.560646 
L 244.92269 121.560646 
L 244.92269 121.044024 
L 245.19972 121.044024 
L 245.19972 119.494158 
L 245.840949 119.494158 
L 245.840949 118.977536 
L 245.973061 118.977536 
L 246.005937 117.42767 
L 246.201933 117.42767 
L 246.299131 112.778072 
L 246.933944 112.778072 
L 246.933944 112.26145 
L 247.365265 112.26145 
L 247.395678 110.194961 
L 247.48661 110.194961 
L 247.546976 108.645095 
L 247.697003 108.645095 
L 247.697003 108.128473 
L 248.313712 108.128473 
L 248.400101 106.578607 
L 248.685085 106.578607 
L 248.685085 105.545363 
L 250.097891 105.545363 
L 250.202078 103.995497 
L 250.408649 103.995497 
L 250.408649 103.478875 
L 250.562024 103.478875 
L 250.562024 102.962253 
L 251.743817 102.962253 
L 251.767626 100.895765 
L 254.600013 100.895765 
L 254.600013 100.379143 
L 254.82198 100.379143 
L 254.82198 99.862521 
L 255.041223 99.862521 
L 255.041223 98.829277 
L 276.786184 98.829277 
L 276.786184 98.312655 
L 277.272264 98.312655 
L 277.369049 95.729545 
L 277.67305 95.729545 
L 277.712082 94.696301 
L 277.784344 94.696301 
L 277.894949 93.146435 
L 277.900461 93.146435 
L 277.927997 90.046703 
L 278.037718 90.046703 
L 278.048654 89.013459 
L 278.152206 89.013459 
L 278.217299 85.397105 
L 278.496662 85.397105 
L 278.512647 82.813995 
L 278.666432 82.813995 
L 278.75597 79.197641 
L 278.787465 79.197641 
L 278.834603 78.164397 
L 278.918099 78.164397 
L 278.985654 74.03142 
L 279.089087 74.03142 
L 279.104551 72.998176 
L 279.289077 72.998176 
L 279.370481 71.44831 
L 279.532184 71.44831 
L 279.562341 69.381822 
L 279.707388 69.381822 
L 279.727302 67.315334 
L 279.88089 67.315334 
L 279.969468 63.69898 
L 280.184161 63.69898 
L 280.184161 63.182358 
L 280.305007 63.182358 
L 280.305007 62.665736 
L 280.506205 62.665736 
L 280.506205 62.149114 
L 281.160959 62.149114 
L 281.229709 60.599248 
L 281.721502 60.599248 
L 281.721502 60.082626 
L 281.841259 60.082626 
L 281.841259 59.566004 
L 282.021591 59.566004 
L 282.021591 58.53276 
L 289.323289 58.53276 
L 289.323289 58.016138 
L 289.488294 58.016138 
L 289.597456 54.916406 
L 289.60032 54.916406 
L 289.617493 53.36654 
L 289.844898 53.36654 
L 289.844898 52.333296 
L 289.991174 52.333296 
L 290.055493 51.300052 
L 290.152928 51.300052 
L 290.233259 49.233564 
L 290.340725 49.233564 
L 290.384627 47.683698 
L 290.474835 47.683698 
L 290.567304 46.650454 
L 290.653898 46.650454 
L 290.688957 45.61721 
L 290.980241 45.61721 
L 290.980241 45.100588 
L 291.69215 45.100588 
L 291.773473 44.067344 
L 296.428044 44.067344 
L 296.428044 43.550722 
L 296.618525 43.550722 
L 296.620458 42.517478 
L 296.929016 42.517478 
L 296.989715 40.967611 
L 297.070955 40.967611 
L 297.118019 39.417745 
L 297.208034 39.417745 
L 297.208034 38.901123 
L 297.499334 38.901123 
L 297.499334 38.384501 
L 301.497895 38.384501 
L 301.497895 37.867879 
L 301.847576 37.867879 
L 301.847576 37.351257 
L 302.085496 37.351257 
L 302.183466 36.318013 
L 302.77945 36.318013 
L 302.77945 35.801391 
L 305.5485 35.801391 
L 305.5485 35.284769 
L 305.850883 35.284769 
L 305.850883 34.768147 
L 358.8 34.768147 
L 358.8 34.768147 
" style="fill:none;stroke:#ff00ff;stroke-linecap:square;stroke-width:1.5;"/>
   </g>
   <g id="line2d_48">
    <defs>
     <path d="M -0 8.485281 
L 5.091169 0 
L 0 -8.485281 
L -5.091169 -0 
z
" id="mff463abfee" style="stroke:#ff00ff;stroke-linejoin:miter;stroke-width:1.5;"/>
    </defs>
    <g>
     <use style="fill:none;stroke:#ff00ff;stroke-linejoin:miter;stroke-width:1.5;" x="358.8" xlink:href="#mff463abfee" y="34.768147"/>
    </g>
   </g>
   <g id="line2d_49"/>
   <g id="line2d_50">
    <path clip-path="url(#p68c7acce0a)" d="M 276.514286 98.829277 
" style="fill:none;stroke:#ff00ff;stroke-linecap:square;stroke-width:1.5;"/>
    <defs>
     <path d="M -12 12 
L 12 -12 
M -12 -12 
L 12 12 
" id="m1cd82cd278" style="stroke:#ff00ff;stroke-width:3;"/>
    </defs>
    <g clip-path="url(#p68c7acce0a)">
     <use style="fill:#ff00ff;stroke:#ff00ff;stroke-width:3;" x="276.514286" xlink:href="#m1cd82cd278" y="98.829277"/>
    </g>
   </g>
   <g id="line2d_51">
    <defs>
     <path d="M 0 1.5 
C 0.397805 1.5 0.77937 1.341951 1.06066 1.06066 
C 1.341951 0.77937 1.5 0.397805 1.5 0 
C 1.5 -0.397805 1.341951 -0.77937 1.06066 -1.06066 
C 0.77937 -1.341951 0.397805 -1.5 0 -1.5 
C -0.397805 -1.5 -0.77937 -1.341951 -1.06066 -1.06066 
C -1.341951 -0.77937 -1.5 -0.397805 -1.5 0 
C -1.5 0.397805 -1.341951 0.77937 -1.06066 1.06066 
C -0.77937 1.341951 -0.397805 1.5 0 1.5 
z
" id="m55266c2c2a" style="stroke:#ffa500;"/>
    </defs>
    <g>
     <use style="fill:#ffa500;stroke:#ffa500;" x="315.872883" xlink:href="#m55266c2c2a" y="34.768147"/>
     <use style="fill:#ffa500;stroke:#ffa500;" x="315.872883" xlink:href="#m55266c2c2a" y="34.768147"/>
    </g>
   </g>
   <g id="line2d_52">
    <path d="M 51.169868 298.245375 
L 51.169868 257.432236 
L 145.840817 257.432236 
L 145.840817 253.815882 
L 153.085714 253.815882 
L 153.085714 251.749394 
L 158.226051 251.749394 
L 158.226051 247.099796 
L 162.213206 247.099796 
L 162.213206 246.583173 
L 168.225331 246.583173 
L 168.225331 245.033307 
L 176.301453 245.033307 
L 176.301453 242.450197 
L 185.10108 242.450197 
L 185.10108 241.416953 
L 187.855462 241.416953 
L 187.855462 240.900331 
L 188.686687 240.900331 
L 188.686687 239.350465 
L 189.480956 239.350465 
L 189.480956 238.833843 
L 190.241417 238.833843 
L 190.241417 237.800599 
L 191.671629 237.800599 
L 191.671629 236.767355 
L 192.995799 236.767355 
L 192.995799 236.250733 
L 193.622815 236.250733 
L 193.622815 235.217489 
L 195.381753 235.217489 
L 195.381753 233.667623 
L 196.465001 233.667623 
L 196.465001 233.151001 
L 197.486314 233.151001 
L 197.486314 232.117757 
L 198.916526 232.117757 
L 198.916526 231.084513 
L 199.368908 231.084513 
L 199.368908 230.567891 
L 201.071921 230.567891 
L 201.071921 229.534647 
L 201.473469 229.534647 
L 201.473469 227.468159 
L 201.866191 227.468159 
L 201.866191 225.918293 
L 202.995079 225.918293 
L 202.995079 225.401671 
L 203.709898 225.401671 
L 203.709898 224.885049 
L 206.613806 224.885049 
L 206.613806 224.368427 
L 206.909153 224.368427 
L 206.909153 223.851805 
L 210.60096 223.851805 
L 210.60096 222.818561 
L 211.301761 222.818561 
L 211.301761 220.235451 
L 212.195353 220.235451 
L 212.195353 219.718829 
L 212.411938 219.718829 
L 212.411938 219.202207 
L 212.62593 219.202207 
L 212.62593 218.168963 
L 213.659057 218.168963 
L 213.659057 217.652341 
L 214.056143 217.652341 
L 214.056143 216.102475 
L 214.251425 216.102475 
L 214.251425 215.585853 
L 214.6357 215.585853 
L 214.6357 210.936254 
L 214.824782 210.936254 
L 214.824782 208.869766 
L 215.011885 208.869766 
L 215.011885 206.803278 
L 215.197048 206.803278 
L 215.197048 204.73679 
L 215.380313 204.73679 
L 215.380313 204.220168 
L 215.561716 204.220168 
L 215.561716 201.120436 
L 216.095133 201.120436 
L 216.095133 198.537326 
L 216.442097 198.537326 
L 216.442097 197.504082 
L 216.613085 197.504082 
L 216.613085 195.437594 
L 216.782453 195.437594 
L 216.782453 192.337862 
L 217.28113 192.337862 
L 217.28113 190.271374 
L 218.393283 190.271374 
L 218.393283 189.754752 
L 219.147324 189.754752 
L 219.147324 189.23813 
L 219.294387 189.23813 
L 219.294387 188.721508 
L 219.44025 188.721508 
L 219.44025 187.171642 
L 219.728452 187.171642 
L 219.728452 186.138398 
L 220.012079 186.138398 
L 220.012079 185.105154 
L 220.291274 185.105154 
L 220.291274 184.588532 
L 220.836907 184.588532 
L 220.836907 184.07191 
L 221.235469 184.07191 
L 221.235469 182.522044 
L 221.366372 182.522044 
L 221.366372 179.938934 
L 221.496322 179.938934 
L 221.496322 178.90569 
L 221.625334 178.90569 
L 221.625334 178.389067 
L 222.132265 178.389067 
L 222.132265 177.355823 
L 222.380438 177.355823 
L 222.380438 175.289335 
L 222.62521 175.289335 
L 222.62521 174.256091 
L 222.74635 174.256091 
L 222.74635 172.706225 
L 222.866675 172.706225 
L 222.866675 169.089871 
L 222.986194 169.089871 
L 222.986194 168.056627 
L 228.215649 168.056627 
L 228.304325 163.407029 
L 228.392563 163.407029 
L 228.392563 162.373785 
L 228.74122 162.373785 
L 228.74122 160.823919 
L 229.167687 160.823919 
L 229.167687 158.757431 
L 229.748141 158.757431 
L 229.748141 158.240809 
L 230.071554 158.240809 
L 230.071554 157.724187 
L 230.467759 157.724187 
L 230.545957 154.624455 
L 230.701333 154.624455 
L 230.701333 153.591211 
L 230.855369 153.591211 
L 230.931892 149.458235 
L 231.008089 149.458235 
L 231.008089 148.424991 
L 231.159515 148.424991 
L 231.159515 147.391747 
L 231.309668 147.391747 
L 231.309668 146.358503 
L 231.45857 146.358503 
L 231.532558 140.159038 
L 231.606241 140.159038 
L 231.679621 138.609172 
L 231.825484 138.609172 
L 231.897972 137.575928 
L 232.04207 137.575928 
L 232.04207 133.959574 
L 232.185016 133.959574 
L 232.256062 129.309976 
L 232.326827 129.309976 
L 232.397313 128.276732 
L 232.467522 128.276732 
L 232.537456 124.143756 
L 233.816699 124.143756 
L 233.816699 123.627134 
L 234.138656 123.627134 
L 234.202357 118.977536 
L 234.454914 118.977536 
L 234.454914 118.460914 
L 234.579866 118.460914 
L 234.579866 116.911048 
L 234.888477 116.911048 
L 234.888477 115.877804 
L 235.010444 115.877804 
L 235.010444 114.84456 
L 235.131584 114.84456 
L 235.131584 113.294694 
L 238.17679 113.294694 
L 238.278313 110.194961 
L 238.479646 110.194961 
L 238.479646 109.161717 
L 239.166966 109.161717 
L 239.166966 108.645095 
L 239.406168 108.645095 
L 239.50096 107.095229 
L 239.875175 107.095229 
L 239.967517 105.028741 
L 242.735052 105.028741 
L 242.735052 104.512119 
L 243.582405 104.512119 
L 243.582405 103.995497 
L 244.174364 103.995497 
L 244.174364 103.478875 
L 245.096336 103.478875 
L 245.096336 101.412387 
L 276.786184 101.412387 
L 276.786184 100.895765 
L 277.071335 100.895765 
L 277.151978 98.312655 
L 277.283678 98.312655 
L 277.380401 89.530081 
L 277.67305 89.530081 
L 277.773246 82.297373 
L 277.795435 82.297373 
L 277.900461 74.548042 
L 277.916988 74.548042 
L 277.977455 68.8652 
L 278.108678 68.8652 
L 278.195628 64.215602 
L 278.491331 64.215602 
L 278.597657 61.632492 
L 278.62414 61.632492 
L 278.634722 60.599248 
L 278.740202 60.599248 
L 278.740202 59.049382 
L 279.099398 59.049382 
L 279.140581 58.016138 
L 279.355246 58.016138 
L 279.355246 56.982894 
L 289.186078 56.982894 
L 289.212434 55.94965 
L 289.300009 55.94965 
L 289.337825 52.333296 
L 289.568794 52.333296 
L 289.643221 50.266808 
L 289.700262 50.266808 
L 289.748604 47.683698 
L 289.932245 47.683698 
L 289.932245 47.167076 
L 290.047117 47.167076 
L 290.047117 46.650454 
L 290.238786 46.650454 
L 290.238786 46.133832 
L 296.335966 46.133832 
L 296.390878 45.100588 
L 296.575941 45.100588 
L 296.643641 44.067344 
L 296.71301 44.067344 
L 296.73031 43.0341 
L 296.83185 43.0341 
L 296.898589 40.967611 
L 301.44042 40.967611 
L 301.44042 40.450989 
L 301.588887 40.450989 
L 301.661931 39.417745 
L 301.720153 39.417745 
L 301.720153 38.901123 
L 301.853346 38.901123 
L 301.853346 38.384501 
L 305.446164 38.384501 
L 305.446164 37.867879 
L 305.561397 37.867879 
L 305.561397 37.351257 
L 305.894652 37.351257 
L 305.894652 36.834635 
L 308.728073 36.834635 
L 308.728073 36.318013 
L 309.035631 36.318013 
L 309.035631 35.801391 
L 311.482034 35.801391 
L 311.482034 35.284769 
L 315.872883 35.284769 
L 315.872883 34.768147 
L 358.8 34.768147 
L 358.8 34.768147 
" style="fill:none;stroke:#ffa500;stroke-linecap:square;stroke-width:1.5;"/>
   </g>
   <g id="line2d_53">
    <defs>
     <path d="M 0 -6 
L -1.347084 -1.854102 
L -5.706339 -1.854102 
L -2.179628 0.708204 
L -3.526712 4.854102 
L -0 2.291796 
L 3.526712 4.854102 
L 2.179628 0.708204 
L 5.706339 -1.854102 
L 1.347084 -1.854102 
z
" id="m0d10eba56c" style="stroke:#ffa500;stroke-linejoin:bevel;stroke-width:1.5;"/>
    </defs>
    <g>
     <use style="fill:none;stroke:#ffa500;stroke-linejoin:bevel;stroke-width:1.5;" x="358.8" xlink:href="#m0d10eba56c" y="34.768147"/>
    </g>
   </g>
   <g id="line2d_54"/>
   <g id="line2d_55">
    <path clip-path="url(#p68c7acce0a)" d="M 276.514286 101.412387 
" style="fill:none;stroke:#ffa500;stroke-linecap:square;stroke-width:1.5;"/>
    <defs>
     <path d="M -12 12 
L 12 -12 
M -12 -12 
L 12 12 
" id="mb24ac049ef" style="stroke:#ffa500;stroke-width:3;"/>
    </defs>
    <g clip-path="url(#p68c7acce0a)">
     <use style="fill:#ffa500;stroke:#ffa500;stroke-width:3;" x="276.514286" xlink:href="#mb24ac049ef" y="101.412387"/>
    </g>
   </g>
   <g id="line2d_56">
    <defs>
     <path d="M 0 1.5 
C 0.397805 1.5 0.77937 1.341951 1.06066 1.06066 
C 1.341951 0.77937 1.5 0.397805 1.5 0 
C 1.5 -0.397805 1.341951 -0.77937 1.06066 -1.06066 
C 0.77937 -1.341951 0.397805 -1.5 0 -1.5 
C -0.397805 -1.5 -0.77937 -1.341951 -1.06066 -1.06066 
C -1.341951 -0.77937 -1.5 -0.397805 -1.5 0 
C -1.5 0.397805 -1.341951 0.77937 -1.06066 1.06066 
C -0.77937 1.341951 -0.397805 1.5 0 1.5 
z
" id="m94d0a26362" style="stroke:#6495ed;"/>
    </defs>
    <g>
     <use style="fill:#6495ed;stroke:#6495ed;" x="305.725898" xlink:href="#m94d0a26362" y="34.768147"/>
     <use style="fill:#6495ed;stroke:#6495ed;" x="305.725898" xlink:href="#m94d0a26362" y="34.768147"/>
    </g>
   </g>
   <g id="line2d_57">
    <path d="M 51.169868 298.245375 
L 51.169868 249.166284 
L 145.840817 249.166284 
L 145.840817 244.516685 
L 153.085714 244.516685 
L 153.085714 242.966819 
L 158.226051 242.966819 
L 158.226051 241.933575 
L 170.611285 241.933575 
L 170.611285 240.900331 
L 172.715846 240.900331 
L 172.715846 240.383709 
L 174.59844 240.383709 
L 174.59844 239.867087 
L 180.610565 239.867087 
L 180.610565 239.350465 
L 181.843337 239.350465 
L 181.843337 238.833843 
L 182.996519 238.833843 
L 182.996519 237.800599 
L 186.067159 237.800599 
L 186.067159 237.283977 
L 188.686687 237.283977 
L 188.686687 236.767355 
L 191.671629 236.767355 
L 191.671629 235.734111 
L 192.345978 235.734111 
L 192.345978 235.217489 
L 192.995799 235.217489 
L 192.995799 234.700867 
L 194.228571 234.700867 
L 194.228571 233.667623 
L 194.814464 233.667623 
L 194.814464 233.151001 
L 196.465001 233.151001 
L 196.465001 231.601135 
L 197.975882 231.601135 
L 197.975882 231.084513 
L 198.452393 231.084513 
L 198.452393 230.567891 
L 199.810118 230.567891 
L 199.810118 230.051269 
L 200.240696 230.051269 
L 200.240696 228.501403 
L 201.473469 228.501403 
L 201.473469 226.434915 
L 201.866191 226.434915 
L 201.866191 225.918293 
L 202.250466 225.918293 
L 202.250466 225.401671 
L 202.626651 225.401671 
L 202.626651 224.885049 
L 202.995079 224.885049 
L 202.995079 223.851805 
L 204.056863 223.851805 
L 204.056863 222.301939 
L 206.909153 222.301939 
L 206.909153 221.785317 
L 207.485594 221.785317 
L 207.485594 221.268695 
L 209.111088 221.268695 
L 209.111088 220.752073 
L 210.361116 220.752073 
L 210.361116 218.685585 
L 210.60096 218.685585 
L 210.60096 217.652341 
L 211.301761 217.652341 
L 211.301761 216.619097 
L 211.529383 216.619097 
L 211.529383 216.102475 
L 211.754142 216.102475 
L 211.754142 215.585853 
L 212.195353 215.585853 
L 212.195353 215.069231 
L 212.411938 215.069231 
L 212.411938 214.552609 
L 212.83739 214.552609 
L 212.83739 209.386388 
L 213.046376 209.386388 
L 213.046376 208.869766 
L 213.252946 208.869766 
L 213.252946 207.836522 
L 213.659057 207.836522 
L 213.659057 205.253412 
L 213.858703 205.253412 
L 213.858703 204.220168 
L 214.251425 204.220168 
L 214.251425 202.670302 
L 214.444595 202.670302 
L 214.444595 202.15368 
L 215.011885 202.15368 
L 215.011885 201.120436 
L 215.197048 201.120436 
L 215.197048 199.57057 
L 215.741297 199.57057 
L 215.741297 192.337862 
L 215.919091 192.337862 
L 215.919091 191.82124 
L 216.095133 191.82124 
L 216.095133 189.754752 
L 216.269457 189.754752 
L 216.269457 187.688264 
L 216.442097 187.688264 
L 216.442097 186.65502 
L 216.95023 186.65502 
L 216.95023 185.621776 
L 218.23858 185.621776 
L 218.23858 185.105154 
L 218.393283 185.105154 
L 218.393283 184.07191 
L 219.44025 184.07191 
L 219.44025 183.555288 
L 219.728452 183.555288 
L 219.728452 183.038666 
L 220.012079 183.038666 
L 220.012079 182.005422 
L 220.152221 182.005422 
L 220.152221 181.4888 
L 220.429252 181.4888 
L 220.429252 179.938934 
L 220.566173 179.938934 
L 220.566173 177.872445 
L 220.702053 177.872445 
L 220.702053 176.322579 
L 220.836907 176.322579 
L 220.836907 175.289335 
L 221.103601 175.289335 
L 221.103601 173.739469 
L 221.366372 173.739469 
L 221.366372 171.672981 
L 221.496322 171.672981 
L 221.496322 170.639737 
L 221.625334 170.639737 
L 221.625334 169.089871 
L 222.006875 169.089871 
L 222.006875 168.573249 
L 222.132265 168.573249 
L 222.132265 165.473517 
L 222.256782 165.473517 
L 222.256782 164.956895 
L 222.380438 164.956895 
L 222.380438 163.923651 
L 222.503243 163.923651 
L 222.503243 163.407029 
L 222.74635 163.407029 
L 222.74635 160.823919 
L 222.866675 160.823919 
L 222.866675 160.307297 
L 222.986194 160.307297 
L 222.986194 159.790675 
L 223.801168 159.790675 
L 223.801168 158.757431 
L 223.914617 158.757431 
L 223.914617 157.724187 
L 224.250704 157.724187 
L 224.250704 157.207565 
L 225.535194 157.207565 
L 225.63818 156.174321 
L 225.740577 156.174321 
L 225.740577 155.657699 
L 226.441377 155.657699 
L 226.441377 154.624455 
L 227.020934 154.624455 
L 227.020934 153.074589 
L 227.582282 153.074589 
L 227.67415 151.524723 
L 227.94695 151.524723 
L 227.94695 150.491479 
L 228.126531 150.491479 
L 228.126531 147.908369 
L 228.304325 147.908369 
L 228.392563 143.775392 
L 228.480367 143.775392 
L 228.480367 143.25877 
L 229.50168 143.25877 
L 229.50168 141.192282 
L 229.991248 141.192282 
L 229.991248 140.67566 
L 230.31033 140.67566 
L 230.31033 139.642416 
L 230.545957 139.642416 
L 230.545957 139.125794 
L 230.778517 139.125794 
L 230.778517 138.09255 
L 231.083962 138.09255 
L 231.159515 137.059306 
L 231.234749 137.059306 
L 231.309668 136.026062 
L 231.384274 136.026062 
L 231.384274 133.959574 
L 231.532558 133.959574 
L 231.532558 133.442952 
L 231.679621 133.442952 
L 231.679621 132.92633 
L 231.825484 132.92633 
L 231.825484 131.376464 
L 231.970166 131.376464 
L 232.04207 129.309976 
L 232.113686 129.309976 
L 232.185016 123.627134 
L 232.256062 123.627134 
L 232.256062 121.044024 
L 232.397313 121.044024 
L 232.397313 118.977536 
L 233.222141 118.977536 
L 233.222141 118.460914 
L 233.488835 118.460914 
L 233.554891 117.42767 
L 233.816699 117.42767 
L 233.881556 114.327938 
L 234.010569 114.327938 
L 234.010569 113.294694 
L 234.202357 113.294694 
L 234.265832 109.678339 
L 234.329082 109.678339 
L 234.329082 108.645095 
L 234.579866 108.645095 
L 234.642016 106.578607 
L 234.703951 106.578607 
L 234.765672 105.028741 
L 234.888477 105.028741 
L 234.949565 103.995497 
L 235.010444 103.995497 
L 235.071117 102.445631 
L 235.131584 102.445631 
L 235.191848 100.379143 
L 235.251909 100.379143 
L 235.251909 98.829277 
L 235.43089 98.829277 
L 235.490154 97.796033 
L 235.549222 97.796033 
L 235.549222 97.279411 
L 235.783562 97.279411 
L 235.783562 96.762789 
L 236.014867 96.762789 
L 236.072229 95.729545 
L 236.129407 95.729545 
L 236.186402 93.146435 
L 236.52461 93.146435 
L 236.52461 92.629813 
L 236.635939 92.629813 
L 236.635939 92.113191 
L 236.856535 92.113191 
L 236.856535 91.596569 
L 237.607858 91.596569 
L 237.660334 86.946971 
L 237.764826 86.946971 
L 237.764826 86.430349 
L 238.227624 86.430349 
L 238.278313 83.330617 
L 239.215064 83.330617 
L 239.215064 82.813995 
L 239.875175 82.813995 
L 239.875175 82.297373 
L 240.013509 82.297373 
L 240.013509 81.780751 
L 240.241713 81.780751 
L 240.241713 81.264129 
L 240.55638 81.264129 
L 240.55638 80.747507 
L 241.595013 80.747507 
L 241.595013 79.714263 
L 241.762397 79.714263 
L 241.762397 79.197641 
L 241.886914 79.197641 
L 241.886914 78.681019 
L 242.010569 78.681019 
L 242.010569 78.164397 
L 242.174123 78.164397 
L 242.174123 77.647775 
L 242.336193 77.647775 
L 242.336193 77.131153 
L 242.456788 77.131153 
L 242.536735 75.581286 
L 243.954671 75.581286 
L 243.954671 74.548042 
L 244.137936 74.548042 
L 244.137936 72.998176 
L 245.165325 72.998176 
L 245.165325 71.964932 
L 245.607376 71.964932 
L 245.607376 71.44831 
L 247.365265 71.44831 
L 247.365265 70.931688 
L 253.662112 70.931688 
L 253.768788 69.381822 
L 277.054007 69.381822 
L 277.094413 67.831956 
L 277.277972 67.831956 
L 277.346323 65.248846 
L 277.678632 65.248846 
L 277.678632 64.732224 
L 277.795435 64.732224 
L 277.900461 62.149114 
L 277.944498 62.149114 
L 278.054119 60.082626 
L 278.081419 60.082626 
L 278.179357 56.466272 
L 278.201048 56.466272 
L 278.28755 53.883162 
L 278.346779 53.883162 
L 278.437929 51.816674 
L 278.496662 51.816674 
L 278.602957 50.266808 
L 278.629432 50.266808 
L 278.708623 47.683698 
L 278.745459 47.683698 
L 278.745459 47.167076 
L 278.881618 47.167076 
L 278.99084 45.100588 
L 279.329825 45.100588 
L 279.329825 44.583966 
L 279.476764 44.583966 
L 279.476764 44.067344 
L 279.846324 44.067344 
L 279.930154 42.000855 
L 280.92521 42.000855 
L 280.92521 41.484233 
L 289.147939 41.484233 
L 289.147939 40.967611 
L 289.30292 40.967611 
L 289.30292 40.450989 
L 289.548703 40.450989 
L 289.634649 38.901123 
L 289.762797 38.901123 
L 289.808141 37.867879 
L 290.030352 37.867879 
L 290.133484 36.834635 
L 290.57544 36.834635 
L 290.57544 35.801391 
L 296.896686 35.801391 
L 296.896686 35.284769 
L 305.725898 35.284769 
L 305.725898 34.768147 
L 358.8 34.768147 
L 358.8 34.768147 
" style="fill:none;stroke:#6495ed;stroke-linecap:square;stroke-width:1.5;"/>
   </g>
   <g id="line2d_58">
    <defs>
     <path d="M -0 6 
L 6 -6 
L -6 -6 
z
" id="mb60e3beea4" style="stroke:#6495ed;stroke-linejoin:miter;stroke-width:1.5;"/>
    </defs>
    <g>
     <use style="fill:none;stroke:#6495ed;stroke-linejoin:miter;stroke-width:1.5;" x="358.8" xlink:href="#mb60e3beea4" y="34.768147"/>
    </g>
   </g>
   <g id="line2d_59"/>
   <g id="line2d_60">
    <path clip-path="url(#p68c7acce0a)" d="M 276.514286 69.381822 
" style="fill:none;stroke:#6495ed;stroke-linecap:square;stroke-width:1.5;"/>
    <defs>
     <path d="M -12 12 
L 12 -12 
M -12 -12 
L 12 12 
" id="ma3d69bb438" style="stroke:#6495ed;stroke-width:3;"/>
    </defs>
    <g clip-path="url(#p68c7acce0a)">
     <use style="fill:#6495ed;stroke:#6495ed;stroke-width:3;" x="276.514286" xlink:href="#ma3d69bb438" y="69.381822"/>
    </g>
   </g>
   <g id="line2d_61">
    <defs>
     <path d="M 0 1.5 
C 0.397805 1.5 0.77937 1.341951 1.06066 1.06066 
C 1.341951 0.77937 1.5 0.397805 1.5 0 
C 1.5 -0.397805 1.341951 -0.77937 1.06066 -1.06066 
C 0.77937 -1.341951 0.397805 -1.5 0 -1.5 
C -0.397805 -1.5 -0.77937 -1.341951 -1.06066 -1.06066 
C -1.341951 -0.77937 -1.5 -0.397805 -1.5 0 
C -1.5 0.397805 -1.341951 0.77937 -1.06066 1.06066 
C -0.77937 1.341951 -0.397805 1.5 0 1.5 
z
" id="m53da0959b9" style="stroke:#ff0000;"/>
    </defs>
    <g>
     <use style="fill:#ff0000;stroke:#ff0000;" x="311.720263" xlink:href="#m53da0959b9" y="34.768147"/>
     <use style="fill:#ff0000;stroke:#ff0000;" x="311.720263" xlink:href="#m53da0959b9" y="34.768147"/>
    </g>
   </g>
   <g id="line2d_62">
    <path d="M 51.169868 298.245375 
L 51.169868 273.96414 
L 145.840817 273.96414 
L 145.840817 268.79792 
L 153.085714 268.79792 
L 153.085714 267.764676 
L 165.470948 267.764676 
L 165.470948 266.731432 
L 168.225331 266.731432 
L 168.225331 266.21481 
L 170.611285 266.21481 
L 170.611285 265.181566 
L 174.59844 265.181566 
L 174.59844 264.664944 
L 177.856183 264.664944 
L 177.856183 263.115078 
L 181.843337 263.115078 
L 181.843337 262.598456 
L 182.996519 262.598456 
L 182.996519 261.565212 
L 186.983674 261.565212 
L 186.983674 261.04859 
L 188.686687 261.04859 
L 188.686687 260.531968 
L 189.480956 260.531968 
L 189.480956 260.015346 
L 190.970829 260.015346 
L 190.970829 259.498724 
L 192.995799 259.498724 
L 192.995799 258.982102 
L 197.486314 258.982102 
L 197.486314 258.46548 
L 201.866191 258.46548 
L 201.866191 257.948858 
L 203.709898 257.948858 
L 203.709898 257.432236 
L 208.316819 257.432236 
L 208.316819 256.398992 
L 209.111088 256.398992 
L 209.111088 255.365748 
L 209.871548 255.365748 
L 209.871548 253.815882 
L 211.301761 253.815882 
L 211.301761 253.29926 
L 212.411938 253.29926 
L 212.411938 252.782638 
L 212.83739 252.782638 
L 212.83739 252.266016 
L 213.046376 252.266016 
L 213.046376 251.749394 
L 213.252946 251.749394 
L 213.252946 251.232772 
L 213.457155 251.232772 
L 213.457155 250.71615 
L 213.659057 250.71615 
L 213.659057 250.199528 
L 214.444595 250.199528 
L 214.444595 249.682906 
L 214.6357 249.682906 
L 214.6357 248.649662 
L 215.197048 248.649662 
L 215.197048 247.099796 
L 215.380313 247.099796 
L 215.380313 246.583173 
L 215.741297 246.583173 
L 215.741297 245.033307 
L 215.919091 245.033307 
L 215.919091 243.483441 
L 216.095133 243.483441 
L 216.095133 241.933575 
L 217.28113 241.933575 
L 217.28113 241.416953 
L 217.606014 241.416953 
L 217.606014 240.900331 
L 219.584932 240.900331 
L 219.584932 240.383709 
L 220.152221 240.383709 
L 220.152221 239.867087 
L 220.291274 239.867087 
L 220.291274 238.317221 
L 220.836907 238.317221 
L 220.836907 237.283977 
L 220.970752 237.283977 
L 220.970752 235.217489 
L 221.496322 235.217489 
L 221.496322 233.667623 
L 221.625334 233.667623 
L 221.625334 233.151001 
L 221.753422 233.151001 
L 221.753422 231.601135 
L 221.880598 231.601135 
L 221.880598 230.567891 
L 222.006875 230.567891 
L 222.006875 227.468159 
L 222.132265 227.468159 
L 222.132265 225.401671 
L 222.256782 225.401671 
L 222.256782 223.335183 
L 222.380438 223.335183 
L 222.380438 221.268695 
L 222.503243 221.268695 
L 222.503243 220.235451 
L 222.62521 220.235451 
L 222.62521 217.652341 
L 222.74635 217.652341 
L 222.74635 216.619097 
L 222.866675 216.619097 
L 222.866675 215.585853 
L 222.986194 215.585853 
L 222.986194 213.519365 
L 228.215649 213.519365 
L 228.304325 208.869766 
L 228.392563 208.869766 
L 228.392563 208.353144 
L 229.083204 208.353144 
L 229.167687 207.3199 
L 229.335464 207.3199 
L 229.335464 206.286656 
L 229.991248 206.286656 
L 230.071554 204.73679 
L 230.701333 204.73679 
L 230.778517 198.020704 
L 230.931892 198.020704 
L 231.008089 195.437594 
L 231.159515 195.437594 
L 231.159515 194.920972 
L 231.384274 194.920972 
L 231.45857 191.304618 
L 231.532558 191.304618 
L 231.606241 188.204886 
L 231.679621 188.204886 
L 231.752702 185.621776 
L 231.825484 185.621776 
L 231.825484 183.555288 
L 231.970166 183.555288 
L 232.04207 181.4888 
L 232.113686 181.4888 
L 232.185016 175.289335 
L 232.397313 175.289335 
L 232.397313 172.706225 
L 234.202357 172.706225 
L 234.202357 171.672981 
L 234.392109 171.672981 
L 234.392109 170.639737 
L 234.703951 170.639737 
L 234.703951 170.123115 
L 235.071117 170.123115 
L 235.071117 169.606493 
L 235.191848 169.606493 
L 235.191848 169.089871 
L 235.311769 169.089871 
L 235.371429 165.990139 
L 235.43089 165.990139 
L 235.43089 162.373785 
L 237.396399 162.373785 
L 237.396399 161.340541 
L 237.660334 161.340541 
L 237.660334 159.790675 
L 237.816844 159.790675 
L 237.816844 157.207565 
L 240.377249 157.207565 
L 240.4222 155.657699 
L 240.511765 155.657699 
L 240.511765 155.141077 
L 242.655989 155.141077 
L 242.655989 152.557967 
L 242.774452 152.557967 
L 242.852993 151.008101 
L 243.009048 151.008101 
L 243.009048 150.491479 
L 243.4313 150.491479 
L 243.4313 149.974857 
L 243.619983 149.974857 
L 243.657482 148.424991 
L 244.101433 148.424991 
L 244.210718 144.292014 
L 244.283206 144.292014 
L 244.391388 139.642416 
L 244.463148 139.642416 
L 244.57025 134.992818 
L 245.061742 134.992818 
L 245.061742 134.476196 
L 245.336641 134.476196 
L 245.438648 133.442952 
L 245.472521 133.442952 
L 245.472521 132.92633 
L 245.74122 132.92633 
L 245.74122 132.409708 
L 246.038753 132.409708 
L 246.071509 130.34322 
L 246.201933 130.34322 
L 246.201933 129.309976 
L 247.786418 129.309976 
L 247.816124 128.276732 
L 247.904947 128.276732 
L 247.904947 127.76011 
L 248.022694 127.76011 
L 248.022694 127.243488 
L 248.197873 127.243488 
L 248.197873 126.210244 
L 248.543161 126.210244 
L 248.543161 125.693622 
L 248.656791 125.693622 
L 248.656791 124.660378 
L 248.937742 124.660378 
L 249.021173 123.627134 
L 249.104216 123.627134 
L 249.104216 123.110512 
L 250.587459 123.110512 
L 250.587459 122.077268 
L 251.334146 122.077268 
L 251.334146 121.044024 
L 251.479811 121.044024 
L 251.576265 119.494158 
L 251.743817 119.494158 
L 251.743817 118.977536 
L 277.105941 118.977536 
L 277.105941 117.944292 
L 277.266554 117.944292 
L 277.374726 110.194961 
L 277.380401 110.194961 
L 277.380401 108.645095 
L 277.67305 108.645095 
L 277.734348 106.578607 
L 277.795435 106.578607 
L 277.905971 99.345899 
L 277.91148 99.345899 
L 277.966476 91.596569 
L 278.114125 91.596569 
L 278.222713 88.496837 
L 278.453966 88.496837 
L 278.459309 85.913727 
L 279.016747 85.913727 
L 279.120001 84.363861 
L 279.176538 84.363861 
L 279.273772 78.681019 
L 279.405979 78.681019 
L 279.431291 77.131153 
L 279.776991 77.131153 
L 279.816643 75.581286 
L 279.905539 75.581286 
L 280.013593 71.44831 
L 280.276078 71.44831 
L 280.276078 70.931688 
L 280.401098 70.931688 
L 280.501441 67.315334 
L 289.200725 67.315334 
L 289.311653 64.732224 
L 289.326197 64.732224 
L 289.34073 62.665736 
L 289.57453 62.665736 
L 289.623213 58.53276 
L 289.771308 58.53276 
L 289.873121 56.466272 
L 289.887216 56.466272 
L 289.887216 55.94965 
L 290.282939 55.94965 
L 290.299468 54.916406 
L 290.4038 54.916406 
L 290.453008 53.883162 
L 290.60524 53.883162 
L 290.616064 52.849918 
L 290.95106 52.849918 
L 291.004081 51.816674 
L 296.422181 51.816674 
L 296.435859 48.716942 
L 296.539081 48.716942 
L 296.632054 44.583966 
L 296.81656 44.583966 
L 296.81656 44.067344 
L 297.027547 44.067344 
L 297.108616 42.000855 
L 297.384865 42.000855 
L 297.384865 41.484233 
L 297.561797 41.484233 
L 297.561797 40.967611 
L 301.494952 40.967611 
L 301.500837 39.934367 
L 301.612294 39.934367 
L 301.626907 38.384501 
L 301.866323 38.384501 
L 301.866323 37.867879 
L 302.302013 37.867879 
L 302.302013 37.351257 
L 305.435544 37.351257 
L 305.54498 36.318013 
L 305.563741 36.318013 
L 305.563741 35.801391 
L 305.885446 35.801391 
L 305.885446 35.284769 
L 311.720263 35.284769 
L 311.720263 34.768147 
L 358.8 34.768147 
L 358.8 34.768147 
" style="fill:none;stroke:#ff0000;stroke-linecap:square;stroke-width:1.5;"/>
   </g>
   <g id="line2d_63">
    <defs>
     <path d="M 0 -6 
L -5.196152 -3 
L -5.196152 3 
L -0 6 
L 5.196152 3 
L 5.196152 -3 
z
" id="m7e39abb8e3" style="stroke:#ff0000;stroke-linejoin:miter;stroke-width:1.5;"/>
    </defs>
    <g>
     <use style="fill:none;stroke:#ff0000;stroke-linejoin:miter;stroke-width:1.5;" x="358.8" xlink:href="#m7e39abb8e3" y="34.768147"/>
    </g>
   </g>
   <g id="line2d_64"/>
   <g id="line2d_65">
    <path clip-path="url(#p68c7acce0a)" d="M 276.514286 118.977536 
" style="fill:none;stroke:#ff0000;stroke-linecap:square;stroke-width:1.5;"/>
    <defs>
     <path d="M -12 12 
L 12 -12 
M -12 -12 
L 12 12 
" id="m81038fb23e" style="stroke:#ff0000;stroke-width:3;"/>
    </defs>
    <g clip-path="url(#p68c7acce0a)">
     <use style="fill:#ff0000;stroke:#ff0000;stroke-width:3;" x="276.514286" xlink:href="#m81038fb23e" y="118.977536"/>
    </g>
   </g>
   <g id="line2d_66">
    <path d="M 358.8 34.768147 
L 390.48 292.97583 
" style="fill:none;stroke:#000080;stroke-linecap:square;stroke-width:1.5;"/>
    <g>
     <use style="fill:none;stroke:#000080;stroke-width:1.5;" x="358.8" xlink:href="#me6ce268268" y="34.768147"/>
     <use style="fill:none;stroke:#000080;stroke-width:1.5;" x="390.48" xlink:href="#me6ce268268" y="292.97583"/>
    </g>
   </g>
   <g id="line2d_67">
    <path d="M 358.8 34.768147 
L 390.48 229.741296 
" style="fill:none;stroke:#ffa500;stroke-linecap:square;stroke-width:1.5;"/>
    <g>
     <use style="fill:none;stroke:#ffa500;stroke-linejoin:bevel;stroke-width:1.5;" x="358.8" xlink:href="#m0d10eba56c" y="34.768147"/>
     <use style="fill:none;stroke:#ffa500;stroke-linejoin:bevel;stroke-width:1.5;" x="390.48" xlink:href="#m0d10eba56c" y="229.741296"/>
    </g>
   </g>
   <g id="line2d_68">
    <path d="M 358.8 34.768147 
L 390.48 166.506761 
" style="fill:none;stroke:#ff0000;stroke-linecap:square;stroke-width:1.5;"/>
    <g>
     <use style="fill:none;stroke:#ff0000;stroke-linejoin:miter;stroke-width:1.5;" x="358.8" xlink:href="#m7e39abb8e3" y="34.768147"/>
     <use style="fill:none;stroke:#ff0000;stroke-linejoin:miter;stroke-width:1.5;" x="390.48" xlink:href="#m7e39abb8e3" y="166.506761"/>
    </g>
   </g>
   <g id="line2d_69">
    <path d="M 358.8 34.768147 
L 390.48 103.272226 
" style="fill:none;stroke:#ff00ff;stroke-linecap:square;stroke-width:1.5;"/>
    <g>
     <use style="fill:none;stroke:#ff00ff;stroke-linejoin:miter;stroke-width:1.5;" x="358.8" xlink:href="#mff463abfee" y="34.768147"/>
     <use style="fill:none;stroke:#ff00ff;stroke-linejoin:miter;stroke-width:1.5;" x="390.48" xlink:href="#mff463abfee" y="103.272226"/>
    </g>
   </g>
   <g id="line2d_70">
    <path d="M 358.8 34.768147 
L 390.48 40.037692 
" style="fill:none;stroke:#6495ed;stroke-linecap:square;stroke-width:1.5;"/>
    <g>
     <use style="fill:none;stroke:#6495ed;stroke-linejoin:miter;stroke-width:1.5;" x="358.8" xlink:href="#mb60e3beea4" y="34.768147"/>
     <use style="fill:none;stroke:#6495ed;stroke-linejoin:miter;stroke-width:1.5;" x="390.48" xlink:href="#mb60e3beea4" y="40.037692"/>
    </g>
   </g>
   <g id="line2d_71">
    <path d="M 358.8 298.245375 
L 358.8 34.768147 
" style="fill:none;stroke:#000000;stroke-linecap:square;stroke-width:1.5;"/>
   </g>
   <g id="patch_3">
    <path d="M 70.8 298.245375 
L 70.8 32.133375 
" style="fill:none;stroke:#000000;stroke-linecap:square;stroke-linejoin:miter;stroke-width:0.8;"/>
   </g>
   <g id="patch_4">
    <path d="M 427.92 298.245375 
L 427.92 32.133375 
" style="fill:none;stroke:#000000;stroke-linecap:square;stroke-linejoin:miter;stroke-width:0.8;"/>
   </g>
   <g id="patch_5">
    <path d="M 70.8 298.245375 
L 427.92 298.245375 
" style="fill:none;stroke:#000000;stroke-linecap:square;stroke-linejoin:miter;stroke-width:0.8;"/>
   </g>
   <g id="patch_6">
    <path d="M 70.8 32.133375 
L 427.92 32.133375 
" style="fill:none;stroke:#000000;stroke-linecap:square;stroke-linejoin:miter;stroke-width:0.8;"/>
   </g>
   <g id="text_14">
    <!-- f18 -->
    <g transform="translate(396.24 297.114893)scale(0.15 -0.15)">
     <use xlink:href="#DejaVuSans-66"/>
     <use x="35.205078" xlink:href="#DejaVuSans-31"/>
     <use x="98.828125" xlink:href="#DejaVuSans-38"/>
    </g>
   </g>
   <g id="text_15">
    <!-- f16 -->
    <g transform="translate(396.24 233.880358)scale(0.15 -0.15)">
     <use xlink:href="#DejaVuSans-66"/>
     <use x="35.205078" xlink:href="#DejaVuSans-31"/>
     <use x="98.828125" xlink:href="#DejaVuSans-36"/>
    </g>
   </g>
   <g id="text_16">
    <!-- f15 -->
    <defs>
     <path d="M 10.796875 72.90625 
L 49.515625 72.90625 
L 49.515625 64.59375 
L 19.828125 64.59375 
L 19.828125 46.734375 
Q 21.96875 47.46875 24.109375 47.828125 
Q 26.265625 48.1875 28.421875 48.1875 
Q 40.625 48.1875 47.75 41.5 
Q 54.890625 34.8125 54.890625 23.390625 
Q 54.890625 11.625 47.5625 5.09375 
Q 40.234375 -1.421875 26.90625 -1.421875 
Q 22.3125 -1.421875 17.546875 -0.640625 
Q 12.796875 0.140625 7.71875 1.703125 
L 7.71875 11.625 
Q 12.109375 9.234375 16.796875 8.0625 
Q 21.484375 6.890625 26.703125 6.890625 
Q 35.15625 6.890625 40.078125 11.328125 
Q 45.015625 15.765625 45.015625 23.390625 
Q 45.015625 31 40.078125 35.4375 
Q 35.15625 39.890625 26.703125 39.890625 
Q 22.75 39.890625 18.8125 39.015625 
Q 14.890625 38.140625 10.796875 36.28125 
z
" id="DejaVuSans-35"/>
    </defs>
    <g transform="translate(396.24 170.645824)scale(0.15 -0.15)">
     <use xlink:href="#DejaVuSans-66"/>
     <use x="35.205078" xlink:href="#DejaVuSans-31"/>
     <use x="98.828125" xlink:href="#DejaVuSans-35"/>
    </g>
   </g>
   <g id="text_17">
    <!-- f19 -->
    <defs>
     <path d="M 10.984375 1.515625 
L 10.984375 10.5 
Q 14.703125 8.734375 18.5 7.8125 
Q 22.3125 6.890625 25.984375 6.890625 
Q 35.75 6.890625 40.890625 13.453125 
Q 46.046875 20.015625 46.78125 33.40625 
Q 43.953125 29.203125 39.59375 26.953125 
Q 35.25 24.703125 29.984375 24.703125 
Q 19.046875 24.703125 12.671875 31.3125 
Q 6.296875 37.9375 6.296875 49.421875 
Q 6.296875 60.640625 12.9375 67.421875 
Q 19.578125 74.21875 30.609375 74.21875 
Q 43.265625 74.21875 49.921875 64.515625 
Q 56.59375 54.828125 56.59375 36.375 
Q 56.59375 19.140625 48.40625 8.859375 
Q 40.234375 -1.421875 26.421875 -1.421875 
Q 22.703125 -1.421875 18.890625 -0.6875 
Q 15.09375 0.046875 10.984375 1.515625 
M 30.609375 32.421875 
Q 37.25 32.421875 41.125 36.953125 
Q 45.015625 41.5 45.015625 49.421875 
Q 45.015625 57.28125 41.125 61.84375 
Q 37.25 66.40625 30.609375 66.40625 
Q 23.96875 66.40625 20.09375 61.84375 
Q 16.21875 57.28125 16.21875 49.421875 
Q 16.21875 41.5 20.09375 36.953125 
Q 23.96875 32.421875 30.609375 32.421875 
" id="DejaVuSans-39"/>
    </defs>
    <g transform="translate(396.24 107.411289)scale(0.15 -0.15)">
     <use xlink:href="#DejaVuSans-66"/>
     <use x="35.205078" xlink:href="#DejaVuSans-31"/>
     <use x="98.828125" xlink:href="#DejaVuSans-39"/>
    </g>
   </g>
   <g id="text_18">
    <!-- f17 -->
    <defs>
     <path d="M 8.203125 72.90625 
L 55.078125 72.90625 
L 55.078125 68.703125 
L 28.609375 0 
L 18.3125 0 
L 43.21875 64.59375 
L 8.203125 64.59375 
z
" id="DejaVuSans-37"/>
    </defs>
    <g transform="translate(396.24 44.176754)scale(0.15 -0.15)">
     <use xlink:href="#DejaVuSans-66"/>
     <use x="35.205078" xlink:href="#DejaVuSans-31"/>
     <use x="98.828125" xlink:href="#DejaVuSans-37"/>
    </g>
   </g>
   <g id="text_19">
    <!-- bbob -->
    <defs>
     <path d="M 48.6875 27.296875 
Q 48.6875 37.203125 44.609375 42.84375 
Q 40.53125 48.484375 33.40625 48.484375 
Q 26.265625 48.484375 22.1875 42.84375 
Q 18.109375 37.203125 18.109375 27.296875 
Q 18.109375 17.390625 22.1875 11.75 
Q 26.265625 6.109375 33.40625 6.109375 
Q 40.53125 6.109375 44.609375 11.75 
Q 48.6875 17.390625 48.6875 27.296875 
M 18.109375 46.390625 
Q 20.953125 51.265625 25.265625 53.625 
Q 29.59375 56 35.59375 56 
Q 45.5625 56 51.78125 48.09375 
Q 58.015625 40.1875 58.015625 27.296875 
Q 58.015625 14.40625 51.78125 6.484375 
Q 45.5625 -1.421875 35.59375 -1.421875 
Q 29.59375 -1.421875 25.265625 0.953125 
Q 20.953125 3.328125 18.109375 8.203125 
L 18.109375 0 
L 9.078125 0 
L 9.078125 75.984375 
L 18.109375 75.984375 
z
" id="DejaVuSans-62"/>
    </defs>
    <g transform="translate(74.3712 50.114612)scale(0.1666 -0.1666)">
     <use xlink:href="#DejaVuSans-62"/>
     <use x="63.476562" xlink:href="#DejaVuSans-62"/>
     <use x="126.953125" xlink:href="#DejaVuSans-6f"/>
     <use x="188.134766" xlink:href="#DejaVuSans-62"/>
    </g>
    <!-- Multi-modal functions, 3-D -->
    <defs>
     <path d="M 9.8125 72.90625 
L 24.515625 72.90625 
L 43.109375 23.296875 
L 61.8125 72.90625 
L 76.515625 72.90625 
L 76.515625 0 
L 66.890625 0 
L 66.890625 64.015625 
L 48.09375 14.015625 
L 38.1875 14.015625 
L 19.390625 64.015625 
L 19.390625 0 
L 9.8125 0 
z
" id="DejaVuSans-4d"/>
     <path d="M 11.71875 12.40625 
L 22.015625 12.40625 
L 22.015625 4 
L 14.015625 -11.625 
L 7.71875 -11.625 
L 11.71875 4 
z
" id="DejaVuSans-2c"/>
     <path d="M 40.578125 39.3125 
Q 47.65625 37.796875 51.625 33 
Q 55.609375 28.21875 55.609375 21.1875 
Q 55.609375 10.40625 48.1875 4.484375 
Q 40.765625 -1.421875 27.09375 -1.421875 
Q 22.515625 -1.421875 17.65625 -0.515625 
Q 12.796875 0.390625 7.625 2.203125 
L 7.625 11.71875 
Q 11.71875 9.328125 16.59375 8.109375 
Q 21.484375 6.890625 26.8125 6.890625 
Q 36.078125 6.890625 40.9375 10.546875 
Q 45.796875 14.203125 45.796875 21.1875 
Q 45.796875 27.640625 41.28125 31.265625 
Q 36.765625 34.90625 28.71875 34.90625 
L 20.21875 34.90625 
L 20.21875 43.015625 
L 29.109375 43.015625 
Q 36.375 43.015625 40.234375 45.921875 
Q 44.09375 48.828125 44.09375 54.296875 
Q 44.09375 59.90625 40.109375 62.90625 
Q 36.140625 65.921875 28.71875 65.921875 
Q 24.65625 65.921875 20.015625 65.03125 
Q 15.375 64.15625 9.8125 62.3125 
L 9.8125 71.09375 
Q 15.4375 72.65625 20.34375 73.4375 
Q 25.25 74.21875 29.59375 74.21875 
Q 40.828125 74.21875 47.359375 69.109375 
Q 53.90625 64.015625 53.90625 55.328125 
Q 53.90625 49.265625 50.4375 45.09375 
Q 46.96875 40.921875 40.578125 39.3125 
" id="DejaVuSans-33"/>
     <path d="M 19.671875 64.796875 
L 19.671875 8.109375 
L 31.59375 8.109375 
Q 46.6875 8.109375 53.6875 14.9375 
Q 60.6875 21.78125 60.6875 36.53125 
Q 60.6875 51.171875 53.6875 57.984375 
Q 46.6875 64.796875 31.59375 64.796875 
z
M 9.8125 72.90625 
L 30.078125 72.90625 
Q 51.265625 72.90625 61.171875 64.09375 
Q 71.09375 55.28125 71.09375 36.53125 
Q 71.09375 17.671875 61.125 8.828125 
Q 51.171875 0 30.078125 0 
L 9.8125 0 
z
" id="DejaVuSans-44"/>
    </defs>
    <g transform="translate(74.3712 68.770168)scale(0.1666 -0.1666)">
     <use xlink:href="#DejaVuSans-4d"/>
     <use x="86.279297" xlink:href="#DejaVuSans-75"/>
     <use x="149.658203" xlink:href="#DejaVuSans-6c"/>
     <use x="177.441406" xlink:href="#DejaVuSans-74"/>
     <use x="216.650391" xlink:href="#DejaVuSans-69"/>
     <use x="244.433594" xlink:href="#DejaVuSans-2d"/>
     <use x="280.517578" xlink:href="#DejaVuSans-6d"/>
     <use x="377.929688" xlink:href="#DejaVuSans-6f"/>
     <use x="439.111328" xlink:href="#DejaVuSans-64"/>
     <use x="502.587891" xlink:href="#DejaVuSans-61"/>
     <use x="563.867188" xlink:href="#DejaVuSans-6c"/>
     <use x="591.650391" xlink:href="#DejaVuSans-20"/>
     <use x="623.4375" xlink:href="#DejaVuSans-66"/>
     <use x="658.642578" xlink:href="#DejaVuSans-75"/>
     <use x="722.021484" xlink:href="#DejaVuSans-6e"/>
     <use x="785.400391" xlink:href="#DejaVuSans-63"/>
     <use x="840.380859" xlink:href="#DejaVuSans-74"/>
     <use x="879.589844" xlink:href="#DejaVuSans-69"/>
     <use x="907.373047" xlink:href="#DejaVuSans-6f"/>
     <use x="968.554688" xlink:href="#DejaVuSans-6e"/>
     <use x="1031.933594" xlink:href="#DejaVuSans-73"/>
     <use x="1084.033203" xlink:href="#DejaVuSans-2c"/>
     <use x="1115.820312" xlink:href="#DejaVuSans-20"/>
     <use x="1147.607422" xlink:href="#DejaVuSans-33"/>
     <use x="1211.230469" xlink:href="#DejaVuSans-2d"/>
     <use x="1247.314453" xlink:href="#DejaVuSans-44"/>
    </g>
    <!-- 51 targets in 100..1e-08 -->
    <g transform="translate(74.3712 87.425723)scale(0.1666 -0.1666)">
     <use xlink:href="#DejaVuSans-35"/>
     <use x="63.623047" xlink:href="#DejaVuSans-31"/>
     <use x="127.246094" xlink:href="#DejaVuSans-20"/>
     <use x="159.033203" xlink:href="#DejaVuSans-74"/>
     <use x="198.242188" xlink:href="#DejaVuSans-61"/>
     <use x="259.521484" xlink:href="#DejaVuSans-72"/>
     <use x="300.619141" xlink:href="#DejaVuSans-67"/>
     <use x="364.095703" xlink:href="#DejaVuSans-65"/>
     <use x="425.619141" xlink:href="#DejaVuSans-74"/>
     <use x="464.828125" xlink:href="#DejaVuSans-73"/>
     <use x="516.927734" xlink:href="#DejaVuSans-20"/>
     <use x="548.714844" xlink:href="#DejaVuSans-69"/>
     <use x="576.498047" xlink:href="#DejaVuSans-6e"/>
     <use x="639.876953" xlink:href="#DejaVuSans-20"/>
     <use x="671.664062" xlink:href="#DejaVuSans-31"/>
     <use x="735.287109" xlink:href="#DejaVuSans-30"/>
     <use x="798.910156" xlink:href="#DejaVuSans-30"/>
     <use x="862.533203" xlink:href="#DejaVuSans-2e"/>
     <use x="894.320312" xlink:href="#DejaVuSans-2e"/>
     <use x="926.107422" xlink:href="#DejaVuSans-31"/>
     <use x="989.730469" xlink:href="#DejaVuSans-65"/>
     <use x="1051.253906" xlink:href="#DejaVuSans-2d"/>
     <use x="1087.337891" xlink:href="#DejaVuSans-30"/>
     <use x="1150.960938" xlink:href="#DejaVuSans-38"/>
    </g>
    <!-- 15 instances -->
    <g transform="translate(74.3712 106.081279)scale(0.1666 -0.1666)">
     <use xlink:href="#DejaVuSans-31"/>
     <use x="63.623047" xlink:href="#DejaVuSans-35"/>
     <use x="127.246094" xlink:href="#DejaVuSans-20"/>
     <use x="159.033203" xlink:href="#DejaVuSans-69"/>
     <use x="186.816406" xlink:href="#DejaVuSans-6e"/>
     <use x="250.195312" xlink:href="#DejaVuSans-73"/>
     <use x="302.294922" xlink:href="#DejaVuSans-74"/>
     <use x="341.503906" xlink:href="#DejaVuSans-61"/>
     <use x="402.783203" xlink:href="#DejaVuSans-6e"/>
     <use x="466.162109" xlink:href="#DejaVuSans-63"/>
     <use x="521.142578" xlink:href="#DejaVuSans-65"/>
     <use x="582.666016" xlink:href="#DejaVuSans-73"/>
    </g>
   </g>
   <g id="text_20">
    <!-- v2.0.1 -->
    <g style="fill:#808080;" transform="translate(233.67875 293.504568)scale(0.1 -0.1)">
     <use xlink:href="#DejaVuSans-76"/>
     <use x="59.179688" xlink:href="#DejaVuSans-32"/>
     <use x="122.802734" xlink:href="#DejaVuSans-2e"/>
     <use x="154.589844" xlink:href="#DejaVuSans-30"/>
     <use x="218.212891" xlink:href="#DejaVuSans-2e"/>
     <use x="250" xlink:href="#DejaVuSans-31"/>
    </g>
   </g>
  </g>
 </g>
 <defs>
  <clipPath id="p68c7acce0a">
   <rect height="266.112" width="357.12" x="70.8" y="32.133375"/>
  </clipPath>
 </defs>
</svg>
