<?xml version="1.0" encoding="utf-8" standalone="no"?>
<!DOCTYPE svg PUBLIC "-//W3C//DTD SVG 1.1//EN"
  "http://www.w3.org/Graphics/SVG/1.1/DTD/svg11.dtd">
<!-- Created with matplotlib (http://matplotlib.org/) -->
<svg height="353pt" version="1.1" viewBox="0 0 439 353" width="439pt" xmlns="http://www.w3.org/2000/svg" xmlns:xlink="http://www.w3.org/1999/xlink">
 <defs>
  <style type="text/css">
*{stroke-linecap:butt;stroke-linejoin:round;}
  </style>
 </defs>
 <g id="figure_1">
  <g id="patch_1">
   <path d="M 0 353.22225 
L 439.489219 353.22225 
L 439.489219 0 
L 0 0 
z
" style="fill:#ffffff;"/>
  </g>
  <g id="axes_1">
   <g id="patch_2">
    <path d="M 70.8 298.245375 
L 427.92 298.245375 
L 427.92 32.133375 
L 70.8 32.133375 
z
" style="fill:#ffffff;"/>
   </g>
   <g id="matplotlib.axis_1">
    <g id="xtick_1">
     <g id="line2d_1">
      <path clip-path="url(#p88626f8955)" d="M 70.8 298.245375 
L 70.8 32.133375 
" style="fill:none;stroke:#b0b0b0;stroke-linecap:square;stroke-width:0.8;"/>
     </g>
     <g id="line2d_2">
      <defs>
       <path d="M 0 0 
L 0 3.5 
" id="m10770fa4bd" style="stroke:#000000;stroke-width:0.8;"/>
      </defs>
      <g>
       <use style="stroke:#000000;stroke-width:0.8;" x="70.8" xlink:href="#m10770fa4bd" y="298.245375"/>
      </g>
     </g>
     <g id="text_1">
      <!-- 0 -->
      <defs>
       <path d="M 31.78125 66.40625 
Q 24.171875 66.40625 20.328125 58.90625 
Q 16.5 51.421875 16.5 36.375 
Q 16.5 21.390625 20.328125 13.890625 
Q 24.171875 6.390625 31.78125 6.390625 
Q 39.453125 6.390625 43.28125 13.890625 
Q 47.125 21.390625 47.125 36.375 
Q 47.125 51.421875 43.28125 58.90625 
Q 39.453125 66.40625 31.78125 66.40625 
M 31.78125 74.21875 
Q 44.046875 74.21875 50.515625 64.515625 
Q 56.984375 54.828125 56.984375 36.375 
Q 56.984375 17.96875 50.515625 8.265625 
Q 44.046875 -1.421875 31.78125 -1.421875 
Q 19.53125 -1.421875 13.0625 8.265625 
Q 6.59375 17.96875 6.59375 36.375 
Q 6.59375 54.828125 13.0625 64.515625 
Q 19.53125 74.21875 31.78125 74.21875 
" id="DejaVuSans-30"/>
      </defs>
      <g transform="translate(64.4375 320.44225)scale(0.2 -0.2)">
       <use xlink:href="#DejaVuSans-30"/>
      </g>
     </g>
    </g>
    <g id="xtick_2">
     <g id="line2d_3">
      <path clip-path="url(#p88626f8955)" d="M 153.085714 298.245375 
L 153.085714 32.133375 
" style="fill:none;stroke:#b0b0b0;stroke-linecap:square;stroke-width:0.8;"/>
     </g>
     <g id="line2d_4">
      <g>
       <use style="stroke:#000000;stroke-width:0.8;" x="153.085714" xlink:href="#m10770fa4bd" y="298.245375"/>
      </g>
     </g>
     <g id="text_2">
      <!-- 2 -->
      <defs>
       <path d="M 19.1875 8.296875 
L 53.609375 8.296875 
L 53.609375 0 
L 7.328125 0 
L 7.328125 8.296875 
Q 12.9375 14.109375 22.625 23.890625 
Q 32.328125 33.6875 34.8125 36.53125 
Q 39.546875 41.84375 41.421875 45.53125 
Q 43.3125 49.21875 43.3125 52.78125 
Q 43.3125 58.59375 39.234375 62.25 
Q 35.15625 65.921875 28.609375 65.921875 
Q 23.96875 65.921875 18.8125 64.3125 
Q 13.671875 62.703125 7.8125 59.421875 
L 7.8125 69.390625 
Q 13.765625 71.78125 18.9375 73 
Q 24.125 74.21875 28.421875 74.21875 
Q 39.75 74.21875 46.484375 68.546875 
Q 53.21875 62.890625 53.21875 53.421875 
Q 53.21875 48.921875 51.53125 44.890625 
Q 49.859375 40.875 45.40625 35.40625 
Q 44.1875 33.984375 37.640625 27.21875 
Q 31.109375 20.453125 19.1875 8.296875 
" id="DejaVuSans-32"/>
      </defs>
      <g transform="translate(146.723214 320.44225)scale(0.2 -0.2)">
       <use xlink:href="#DejaVuSans-32"/>
      </g>
     </g>
    </g>
    <g id="xtick_3">
     <g id="line2d_5">
      <path clip-path="url(#p88626f8955)" d="M 235.371429 298.245375 
L 235.371429 32.133375 
" style="fill:none;stroke:#b0b0b0;stroke-linecap:square;stroke-width:0.8;"/>
     </g>
     <g id="line2d_6">
      <g>
       <use style="stroke:#000000;stroke-width:0.8;" x="235.371429" xlink:href="#m10770fa4bd" y="298.245375"/>
      </g>
     </g>
     <g id="text_3">
      <!-- 4 -->
      <defs>
       <path d="M 37.796875 64.3125 
L 12.890625 25.390625 
L 37.796875 25.390625 
z
M 35.203125 72.90625 
L 47.609375 72.90625 
L 47.609375 25.390625 
L 58.015625 25.390625 
L 58.015625 17.1875 
L 47.609375 17.1875 
L 47.609375 0 
L 37.796875 0 
L 37.796875 17.1875 
L 4.890625 17.1875 
L 4.890625 26.703125 
z
" id="DejaVuSans-34"/>
      </defs>
      <g transform="translate(229.008929 320.44225)scale(0.2 -0.2)">
       <use xlink:href="#DejaVuSans-34"/>
      </g>
     </g>
    </g>
    <g id="xtick_4">
     <g id="line2d_7">
      <path clip-path="url(#p88626f8955)" d="M 317.657143 298.245375 
L 317.657143 32.133375 
" style="fill:none;stroke:#b0b0b0;stroke-linecap:square;stroke-width:0.8;"/>
     </g>
     <g id="line2d_8">
      <g>
       <use style="stroke:#000000;stroke-width:0.8;" x="317.657143" xlink:href="#m10770fa4bd" y="298.245375"/>
      </g>
     </g>
     <g id="text_4">
      <!-- 6 -->
      <defs>
       <path d="M 33.015625 40.375 
Q 26.375 40.375 22.484375 35.828125 
Q 18.609375 31.296875 18.609375 23.390625 
Q 18.609375 15.53125 22.484375 10.953125 
Q 26.375 6.390625 33.015625 6.390625 
Q 39.65625 6.390625 43.53125 10.953125 
Q 47.40625 15.53125 47.40625 23.390625 
Q 47.40625 31.296875 43.53125 35.828125 
Q 39.65625 40.375 33.015625 40.375 
M 52.59375 71.296875 
L 52.59375 62.3125 
Q 48.875 64.0625 45.09375 64.984375 
Q 41.3125 65.921875 37.59375 65.921875 
Q 27.828125 65.921875 22.671875 59.328125 
Q 17.53125 52.734375 16.796875 39.40625 
Q 19.671875 43.65625 24.015625 45.921875 
Q 28.375 48.1875 33.59375 48.1875 
Q 44.578125 48.1875 50.953125 41.515625 
Q 57.328125 34.859375 57.328125 23.390625 
Q 57.328125 12.15625 50.6875 5.359375 
Q 44.046875 -1.421875 33.015625 -1.421875 
Q 20.359375 -1.421875 13.671875 8.265625 
Q 6.984375 17.96875 6.984375 36.375 
Q 6.984375 53.65625 15.1875 63.9375 
Q 23.390625 74.21875 37.203125 74.21875 
Q 40.921875 74.21875 44.703125 73.484375 
Q 48.484375 72.75 52.59375 71.296875 
" id="DejaVuSans-36"/>
      </defs>
      <g transform="translate(311.294643 320.44225)scale(0.2 -0.2)">
       <use xlink:href="#DejaVuSans-36"/>
      </g>
     </g>
    </g>
    <g id="xtick_5">
     <g id="line2d_9">
      <path clip-path="url(#p88626f8955)" d="M 399.942857 298.245375 
L 399.942857 32.133375 
" style="fill:none;stroke:#b0b0b0;stroke-linecap:square;stroke-width:0.8;"/>
     </g>
     <g id="line2d_10">
      <g>
       <use style="stroke:#000000;stroke-width:0.8;" x="399.942857" xlink:href="#m10770fa4bd" y="298.245375"/>
      </g>
     </g>
     <g id="text_5">
      <!-- 8 -->
      <defs>
       <path d="M 31.78125 34.625 
Q 24.75 34.625 20.71875 30.859375 
Q 16.703125 27.09375 16.703125 20.515625 
Q 16.703125 13.921875 20.71875 10.15625 
Q 24.75 6.390625 31.78125 6.390625 
Q 38.8125 6.390625 42.859375 10.171875 
Q 46.921875 13.96875 46.921875 20.515625 
Q 46.921875 27.09375 42.890625 30.859375 
Q 38.875 34.625 31.78125 34.625 
M 21.921875 38.8125 
Q 15.578125 40.375 12.03125 44.71875 
Q 8.5 49.078125 8.5 55.328125 
Q 8.5 64.0625 14.71875 69.140625 
Q 20.953125 74.21875 31.78125 74.21875 
Q 42.671875 74.21875 48.875 69.140625 
Q 55.078125 64.0625 55.078125 55.328125 
Q 55.078125 49.078125 51.53125 44.71875 
Q 48 40.375 41.703125 38.8125 
Q 48.828125 37.15625 52.796875 32.3125 
Q 56.78125 27.484375 56.78125 20.515625 
Q 56.78125 9.90625 50.3125 4.234375 
Q 43.84375 -1.421875 31.78125 -1.421875 
Q 19.734375 -1.421875 13.25 4.234375 
Q 6.78125 9.90625 6.78125 20.515625 
Q 6.78125 27.484375 10.78125 32.3125 
Q 14.796875 37.15625 21.921875 38.8125 
M 18.3125 54.390625 
Q 18.3125 48.734375 21.84375 45.5625 
Q 25.390625 42.390625 31.78125 42.390625 
Q 38.140625 42.390625 41.71875 45.5625 
Q 45.3125 48.734375 45.3125 54.390625 
Q 45.3125 60.0625 41.71875 63.234375 
Q 38.140625 66.40625 31.78125 66.40625 
Q 25.390625 66.40625 21.84375 63.234375 
Q 18.3125 60.0625 18.3125 54.390625 
" id="DejaVuSans-38"/>
      </defs>
      <g transform="translate(393.580357 320.44225)scale(0.2 -0.2)">
       <use xlink:href="#DejaVuSans-38"/>
      </g>
     </g>
    </g>
    <g id="xtick_6">
     <g id="line2d_11">
      <defs>
       <path d="M 0 0 
L 0 2 
" id="m1214397cbf" style="stroke:#000000;stroke-width:0.6;"/>
      </defs>
      <g>
       <use style="stroke:#000000;stroke-width:0.6;" x="83.185234" xlink:href="#m1214397cbf" y="298.245375"/>
      </g>
     </g>
    </g>
    <g id="xtick_7">
     <g id="line2d_12">
      <g>
       <use style="stroke:#000000;stroke-width:0.6;" x="95.570468" xlink:href="#m1214397cbf" y="298.245375"/>
      </g>
     </g>
    </g>
    <g id="xtick_8">
     <g id="line2d_13">
      <g>
       <use style="stroke:#000000;stroke-width:0.6;" x="102.815366" xlink:href="#m1214397cbf" y="298.245375"/>
      </g>
     </g>
    </g>
    <g id="xtick_9">
     <g id="line2d_14">
      <g>
       <use style="stroke:#000000;stroke-width:0.6;" x="107.955702" xlink:href="#m1214397cbf" y="298.245375"/>
      </g>
     </g>
    </g>
    <g id="xtick_10">
     <g id="line2d_15">
      <g>
       <use style="stroke:#000000;stroke-width:0.6;" x="165.470948" xlink:href="#m1214397cbf" y="298.245375"/>
      </g>
     </g>
    </g>
    <g id="xtick_11">
     <g id="line2d_16">
      <g>
       <use style="stroke:#000000;stroke-width:0.6;" x="177.856183" xlink:href="#m1214397cbf" y="298.245375"/>
      </g>
     </g>
    </g>
    <g id="xtick_12">
     <g id="line2d_17">
      <g>
       <use style="stroke:#000000;stroke-width:0.6;" x="185.10108" xlink:href="#m1214397cbf" y="298.245375"/>
      </g>
     </g>
    </g>
    <g id="xtick_13">
     <g id="line2d_18">
      <g>
       <use style="stroke:#000000;stroke-width:0.6;" x="190.241417" xlink:href="#m1214397cbf" y="298.245375"/>
      </g>
     </g>
    </g>
    <g id="xtick_14">
     <g id="line2d_19">
      <g>
       <use style="stroke:#000000;stroke-width:0.6;" x="247.756663" xlink:href="#m1214397cbf" y="298.245375"/>
      </g>
     </g>
    </g>
    <g id="xtick_15">
     <g id="line2d_20">
      <g>
       <use style="stroke:#000000;stroke-width:0.6;" x="260.141897" xlink:href="#m1214397cbf" y="298.245375"/>
      </g>
     </g>
    </g>
    <g id="xtick_16">
     <g id="line2d_21">
      <g>
       <use style="stroke:#000000;stroke-width:0.6;" x="267.386794" xlink:href="#m1214397cbf" y="298.245375"/>
      </g>
     </g>
    </g>
    <g id="xtick_17">
     <g id="line2d_22">
      <g>
       <use style="stroke:#000000;stroke-width:0.6;" x="272.527131" xlink:href="#m1214397cbf" y="298.245375"/>
      </g>
     </g>
    </g>
    <g id="xtick_18">
     <g id="line2d_23">
      <g>
       <use style="stroke:#000000;stroke-width:0.6;" x="330.042377" xlink:href="#m1214397cbf" y="298.245375"/>
      </g>
     </g>
    </g>
    <g id="xtick_19">
     <g id="line2d_24">
      <g>
       <use style="stroke:#000000;stroke-width:0.6;" x="342.427611" xlink:href="#m1214397cbf" y="298.245375"/>
      </g>
     </g>
    </g>
    <g id="xtick_20">
     <g id="line2d_25">
      <g>
       <use style="stroke:#000000;stroke-width:0.6;" x="349.672509" xlink:href="#m1214397cbf" y="298.245375"/>
      </g>
     </g>
    </g>
    <g id="xtick_21">
     <g id="line2d_26">
      <g>
       <use style="stroke:#000000;stroke-width:0.6;" x="354.812845" xlink:href="#m1214397cbf" y="298.245375"/>
      </g>
     </g>
    </g>
    <g id="xtick_22">
     <g id="line2d_27">
      <g>
       <use style="stroke:#000000;stroke-width:0.6;" x="412.328091" xlink:href="#m1214397cbf" y="298.245375"/>
      </g>
     </g>
    </g>
    <g id="xtick_23">
     <g id="line2d_28">
      <g>
       <use style="stroke:#000000;stroke-width:0.6;" x="424.713325" xlink:href="#m1214397cbf" y="298.245375"/>
      </g>
     </g>
    </g>
    <g id="text_6">
     <!-- log10 of (# f-evals / dimension) -->
     <defs>
      <path d="M 9.421875 75.984375 
L 18.40625 75.984375 
L 18.40625 0 
L 9.421875 0 
z
" id="DejaVuSans-6c"/>
      <path d="M 30.609375 48.390625 
Q 23.390625 48.390625 19.1875 42.75 
Q 14.984375 37.109375 14.984375 27.296875 
Q 14.984375 17.484375 19.15625 11.84375 
Q 23.34375 6.203125 30.609375 6.203125 
Q 37.796875 6.203125 41.984375 11.859375 
Q 46.1875 17.53125 46.1875 27.296875 
Q 46.1875 37.015625 41.984375 42.703125 
Q 37.796875 48.390625 30.609375 48.390625 
M 30.609375 56 
Q 42.328125 56 49.015625 48.375 
Q 55.71875 40.765625 55.71875 27.296875 
Q 55.71875 13.875 49.015625 6.21875 
Q 42.328125 -1.421875 30.609375 -1.421875 
Q 18.84375 -1.421875 12.171875 6.21875 
Q 5.515625 13.875 5.515625 27.296875 
Q 5.515625 40.765625 12.171875 48.375 
Q 18.84375 56 30.609375 56 
" id="DejaVuSans-6f"/>
      <path d="M 45.40625 27.984375 
Q 45.40625 37.75 41.375 43.109375 
Q 37.359375 48.484375 30.078125 48.484375 
Q 22.859375 48.484375 18.828125 43.109375 
Q 14.796875 37.75 14.796875 27.984375 
Q 14.796875 18.265625 18.828125 12.890625 
Q 22.859375 7.515625 30.078125 7.515625 
Q 37.359375 7.515625 41.375 12.890625 
Q 45.40625 18.265625 45.40625 27.984375 
M 54.390625 6.78125 
Q 54.390625 -7.171875 48.1875 -13.984375 
Q 42 -20.796875 29.203125 -20.796875 
Q 24.46875 -20.796875 20.265625 -20.09375 
Q 16.0625 -19.390625 12.109375 -17.921875 
L 12.109375 -9.1875 
Q 16.0625 -11.328125 19.921875 -12.34375 
Q 23.78125 -13.375 27.78125 -13.375 
Q 36.625 -13.375 41.015625 -8.765625 
Q 45.40625 -4.15625 45.40625 5.171875 
L 45.40625 9.625 
Q 42.625 4.78125 38.28125 2.390625 
Q 33.9375 0 27.875 0 
Q 17.828125 0 11.671875 7.65625 
Q 5.515625 15.328125 5.515625 27.984375 
Q 5.515625 40.671875 11.671875 48.328125 
Q 17.828125 56 27.875 56 
Q 33.9375 56 38.28125 53.609375 
Q 42.625 51.21875 45.40625 46.390625 
L 45.40625 54.6875 
L 54.390625 54.6875 
z
" id="DejaVuSans-67"/>
      <path d="M 12.40625 8.296875 
L 28.515625 8.296875 
L 28.515625 63.921875 
L 10.984375 60.40625 
L 10.984375 69.390625 
L 28.421875 72.90625 
L 38.28125 72.90625 
L 38.28125 8.296875 
L 54.390625 8.296875 
L 54.390625 0 
L 12.40625 0 
z
" id="DejaVuSans-31"/>
      <path id="DejaVuSans-20"/>
      <path d="M 37.109375 75.984375 
L 37.109375 68.5 
L 28.515625 68.5 
Q 23.6875 68.5 21.796875 66.546875 
Q 19.921875 64.59375 19.921875 59.515625 
L 19.921875 54.6875 
L 34.71875 54.6875 
L 34.71875 47.703125 
L 19.921875 47.703125 
L 19.921875 0 
L 10.890625 0 
L 10.890625 47.703125 
L 2.296875 47.703125 
L 2.296875 54.6875 
L 10.890625 54.6875 
L 10.890625 58.5 
Q 10.890625 67.625 15.140625 71.796875 
Q 19.390625 75.984375 28.609375 75.984375 
z
" id="DejaVuSans-66"/>
      <path d="M 31 75.875 
Q 24.46875 64.65625 21.28125 53.65625 
Q 18.109375 42.671875 18.109375 31.390625 
Q 18.109375 20.125 21.3125 9.0625 
Q 24.515625 -2 31 -13.1875 
L 23.1875 -13.1875 
Q 15.875 -1.703125 12.234375 9.375 
Q 8.59375 20.453125 8.59375 31.390625 
Q 8.59375 42.28125 12.203125 53.3125 
Q 15.828125 64.359375 23.1875 75.875 
z
" id="DejaVuSans-28"/>
      <path d="M 51.125 44 
L 36.921875 44 
L 32.8125 27.6875 
L 47.125 27.6875 
z
M 43.796875 71.78125 
L 38.71875 51.515625 
L 52.984375 51.515625 
L 58.109375 71.78125 
L 65.921875 71.78125 
L 60.890625 51.515625 
L 76.125 51.515625 
L 76.125 44 
L 58.984375 44 
L 54.984375 27.6875 
L 70.515625 27.6875 
L 70.515625 20.21875 
L 53.078125 20.21875 
L 48 0 
L 40.1875 0 
L 45.21875 20.21875 
L 30.90625 20.21875 
L 25.875 0 
L 18.015625 0 
L 23.09375 20.21875 
L 7.71875 20.21875 
L 7.71875 27.6875 
L 24.90625 27.6875 
L 29 44 
L 13.28125 44 
L 13.28125 51.515625 
L 30.90625 51.515625 
L 35.890625 71.78125 
z
" id="DejaVuSans-23"/>
      <path d="M 4.890625 31.390625 
L 31.203125 31.390625 
L 31.203125 23.390625 
L 4.890625 23.390625 
z
" id="DejaVuSans-2d"/>
      <path d="M 56.203125 29.59375 
L 56.203125 25.203125 
L 14.890625 25.203125 
Q 15.484375 15.921875 20.484375 11.0625 
Q 25.484375 6.203125 34.421875 6.203125 
Q 39.59375 6.203125 44.453125 7.46875 
Q 49.3125 8.734375 54.109375 11.28125 
L 54.109375 2.78125 
Q 49.265625 0.734375 44.1875 -0.34375 
Q 39.109375 -1.421875 33.890625 -1.421875 
Q 20.796875 -1.421875 13.15625 6.1875 
Q 5.515625 13.8125 5.515625 26.8125 
Q 5.515625 40.234375 12.765625 48.109375 
Q 20.015625 56 32.328125 56 
Q 43.359375 56 49.78125 48.890625 
Q 56.203125 41.796875 56.203125 29.59375 
M 47.21875 32.234375 
Q 47.125 39.59375 43.09375 43.984375 
Q 39.0625 48.390625 32.421875 48.390625 
Q 24.90625 48.390625 20.390625 44.140625 
Q 15.875 39.890625 15.1875 32.171875 
z
" id="DejaVuSans-65"/>
      <path d="M 2.984375 54.6875 
L 12.5 54.6875 
L 29.59375 8.796875 
L 46.6875 54.6875 
L 56.203125 54.6875 
L 35.6875 0 
L 23.484375 0 
z
" id="DejaVuSans-76"/>
      <path d="M 34.28125 27.484375 
Q 23.390625 27.484375 19.1875 25 
Q 14.984375 22.515625 14.984375 16.5 
Q 14.984375 11.71875 18.140625 8.90625 
Q 21.296875 6.109375 26.703125 6.109375 
Q 34.1875 6.109375 38.703125 11.40625 
Q 43.21875 16.703125 43.21875 25.484375 
L 43.21875 27.484375 
z
M 52.203125 31.203125 
L 52.203125 0 
L 43.21875 0 
L 43.21875 8.296875 
Q 40.140625 3.328125 35.546875 0.953125 
Q 30.953125 -1.421875 24.3125 -1.421875 
Q 15.921875 -1.421875 10.953125 3.296875 
Q 6 8.015625 6 15.921875 
Q 6 25.140625 12.171875 29.828125 
Q 18.359375 34.515625 30.609375 34.515625 
L 43.21875 34.515625 
L 43.21875 35.40625 
Q 43.21875 41.609375 39.140625 45 
Q 35.0625 48.390625 27.6875 48.390625 
Q 23 48.390625 18.546875 47.265625 
Q 14.109375 46.140625 10.015625 43.890625 
L 10.015625 52.203125 
Q 14.9375 54.109375 19.578125 55.046875 
Q 24.21875 56 28.609375 56 
Q 40.484375 56 46.34375 49.84375 
Q 52.203125 43.703125 52.203125 31.203125 
" id="DejaVuSans-61"/>
      <path d="M 44.28125 53.078125 
L 44.28125 44.578125 
Q 40.484375 46.53125 36.375 47.5 
Q 32.28125 48.484375 27.875 48.484375 
Q 21.1875 48.484375 17.84375 46.4375 
Q 14.5 44.390625 14.5 40.28125 
Q 14.5 37.15625 16.890625 35.375 
Q 19.28125 33.59375 26.515625 31.984375 
L 29.59375 31.296875 
Q 39.15625 29.25 43.1875 25.515625 
Q 47.21875 21.78125 47.21875 15.09375 
Q 47.21875 7.46875 41.1875 3.015625 
Q 35.15625 -1.421875 24.609375 -1.421875 
Q 20.21875 -1.421875 15.453125 -0.5625 
Q 10.6875 0.296875 5.421875 2 
L 5.421875 11.28125 
Q 10.40625 8.6875 15.234375 7.390625 
Q 20.0625 6.109375 24.8125 6.109375 
Q 31.15625 6.109375 34.5625 8.28125 
Q 37.984375 10.453125 37.984375 14.40625 
Q 37.984375 18.0625 35.515625 20.015625 
Q 33.0625 21.96875 24.703125 23.78125 
L 21.578125 24.515625 
Q 13.234375 26.265625 9.515625 29.90625 
Q 5.8125 33.546875 5.8125 39.890625 
Q 5.8125 47.609375 11.28125 51.796875 
Q 16.75 56 26.8125 56 
Q 31.78125 56 36.171875 55.265625 
Q 40.578125 54.546875 44.28125 53.078125 
" id="DejaVuSans-73"/>
      <path d="M 25.390625 72.90625 
L 33.6875 72.90625 
L 8.296875 -9.28125 
L 0 -9.28125 
z
" id="DejaVuSans-2f"/>
      <path d="M 45.40625 46.390625 
L 45.40625 75.984375 
L 54.390625 75.984375 
L 54.390625 0 
L 45.40625 0 
L 45.40625 8.203125 
Q 42.578125 3.328125 38.25 0.953125 
Q 33.9375 -1.421875 27.875 -1.421875 
Q 17.96875 -1.421875 11.734375 6.484375 
Q 5.515625 14.40625 5.515625 27.296875 
Q 5.515625 40.1875 11.734375 48.09375 
Q 17.96875 56 27.875 56 
Q 33.9375 56 38.25 53.625 
Q 42.578125 51.265625 45.40625 46.390625 
M 14.796875 27.296875 
Q 14.796875 17.390625 18.875 11.75 
Q 22.953125 6.109375 30.078125 6.109375 
Q 37.203125 6.109375 41.296875 11.75 
Q 45.40625 17.390625 45.40625 27.296875 
Q 45.40625 37.203125 41.296875 42.84375 
Q 37.203125 48.484375 30.078125 48.484375 
Q 22.953125 48.484375 18.875 42.84375 
Q 14.796875 37.203125 14.796875 27.296875 
" id="DejaVuSans-64"/>
      <path d="M 9.421875 54.6875 
L 18.40625 54.6875 
L 18.40625 0 
L 9.421875 0 
z
M 9.421875 75.984375 
L 18.40625 75.984375 
L 18.40625 64.59375 
L 9.421875 64.59375 
z
" id="DejaVuSans-69"/>
      <path d="M 52 44.1875 
Q 55.375 50.25 60.0625 53.125 
Q 64.75 56 71.09375 56 
Q 79.640625 56 84.28125 50.015625 
Q 88.921875 44.046875 88.921875 33.015625 
L 88.921875 0 
L 79.890625 0 
L 79.890625 32.71875 
Q 79.890625 40.578125 77.09375 44.375 
Q 74.3125 48.1875 68.609375 48.1875 
Q 61.625 48.1875 57.5625 43.546875 
Q 53.515625 38.921875 53.515625 30.90625 
L 53.515625 0 
L 44.484375 0 
L 44.484375 32.71875 
Q 44.484375 40.625 41.703125 44.40625 
Q 38.921875 48.1875 33.109375 48.1875 
Q 26.21875 48.1875 22.15625 43.53125 
Q 18.109375 38.875 18.109375 30.90625 
L 18.109375 0 
L 9.078125 0 
L 9.078125 54.6875 
L 18.109375 54.6875 
L 18.109375 46.1875 
Q 21.1875 51.21875 25.484375 53.609375 
Q 29.78125 56 35.6875 56 
Q 41.65625 56 45.828125 52.96875 
Q 50 49.953125 52 44.1875 
" id="DejaVuSans-6d"/>
      <path d="M 54.890625 33.015625 
L 54.890625 0 
L 45.90625 0 
L 45.90625 32.71875 
Q 45.90625 40.484375 42.875 44.328125 
Q 39.84375 48.1875 33.796875 48.1875 
Q 26.515625 48.1875 22.3125 43.546875 
Q 18.109375 38.921875 18.109375 30.90625 
L 18.109375 0 
L 9.078125 0 
L 9.078125 54.6875 
L 18.109375 54.6875 
L 18.109375 46.1875 
Q 21.34375 51.125 25.703125 53.5625 
Q 30.078125 56 35.796875 56 
Q 45.21875 56 50.046875 50.171875 
Q 54.890625 44.34375 54.890625 33.015625 
" id="DejaVuSans-6e"/>
      <path d="M 8.015625 75.875 
L 15.828125 75.875 
Q 23.140625 64.359375 26.78125 53.3125 
Q 30.421875 42.28125 30.421875 31.390625 
Q 30.421875 20.453125 26.78125 9.375 
Q 23.140625 -1.703125 15.828125 -13.1875 
L 8.015625 -13.1875 
Q 14.5 -2 17.703125 9.0625 
Q 20.90625 20.125 20.90625 31.390625 
Q 20.90625 42.671875 17.703125 53.65625 
Q 14.5 64.65625 8.015625 75.875 
" id="DejaVuSans-29"/>
     </defs>
     <g transform="translate(107.015156 342.278812)scale(0.18 -0.18)">
      <use xlink:href="#DejaVuSans-6c"/>
      <use x="27.783203" xlink:href="#DejaVuSans-6f"/>
      <use x="88.964844" xlink:href="#DejaVuSans-67"/>
      <use x="152.441406" xlink:href="#DejaVuSans-31"/>
      <use x="216.064453" xlink:href="#DejaVuSans-30"/>
      <use x="279.6875" xlink:href="#DejaVuSans-20"/>
      <use x="311.474609" xlink:href="#DejaVuSans-6f"/>
      <use x="372.65625" xlink:href="#DejaVuSans-66"/>
      <use x="407.861328" xlink:href="#DejaVuSans-20"/>
      <use x="439.648438" xlink:href="#DejaVuSans-28"/>
      <use x="478.662109" xlink:href="#DejaVuSans-23"/>
      <use x="562.451172" xlink:href="#DejaVuSans-20"/>
      <use x="594.238281" xlink:href="#DejaVuSans-66"/>
      <use x="629.365234" xlink:href="#DejaVuSans-2d"/>
      <use x="665.449219" xlink:href="#DejaVuSans-65"/>
      <use x="726.972656" xlink:href="#DejaVuSans-76"/>
      <use x="786.152344" xlink:href="#DejaVuSans-61"/>
      <use x="847.431641" xlink:href="#DejaVuSans-6c"/>
      <use x="875.214844" xlink:href="#DejaVuSans-73"/>
      <use x="927.314453" xlink:href="#DejaVuSans-20"/>
      <use x="959.101562" xlink:href="#DejaVuSans-2f"/>
      <use x="992.792969" xlink:href="#DejaVuSans-20"/>
      <use x="1024.580078" xlink:href="#DejaVuSans-64"/>
      <use x="1088.056641" xlink:href="#DejaVuSans-69"/>
      <use x="1115.839844" xlink:href="#DejaVuSans-6d"/>
      <use x="1213.251953" xlink:href="#DejaVuSans-65"/>
      <use x="1274.775391" xlink:href="#DejaVuSans-6e"/>
      <use x="1338.154297" xlink:href="#DejaVuSans-73"/>
      <use x="1390.253906" xlink:href="#DejaVuSans-69"/>
      <use x="1418.037109" xlink:href="#DejaVuSans-6f"/>
      <use x="1479.21875" xlink:href="#DejaVuSans-6e"/>
      <use x="1542.597656" xlink:href="#DejaVuSans-29"/>
     </g>
    </g>
   </g>
   <g id="matplotlib.axis_2">
    <g id="ytick_1">
     <g id="line2d_29">
      <path clip-path="url(#p88626f8955)" d="M 70.8 298.245375 
L 427.92 298.245375 
" style="fill:none;stroke:#b0b0b0;stroke-linecap:square;stroke-width:0.8;"/>
     </g>
     <g id="line2d_30">
      <defs>
       <path d="M 0 0 
L -3.5 0 
" id="m3c6671fabf" style="stroke:#000000;stroke-width:0.8;"/>
      </defs>
      <g>
       <use style="stroke:#000000;stroke-width:0.8;" x="70.8" xlink:href="#m3c6671fabf" y="298.245375"/>
      </g>
     </g>
     <g id="text_7">
      <!-- 0.0 -->
      <defs>
       <path d="M 10.6875 12.40625 
L 21 12.40625 
L 21 0 
L 10.6875 0 
z
" id="DejaVuSans-2e"/>
      </defs>
      <g transform="translate(31.99375 305.843812)scale(0.2 -0.2)">
       <use xlink:href="#DejaVuSans-30"/>
       <use x="63.623047" xlink:href="#DejaVuSans-2e"/>
       <use x="95.410156" xlink:href="#DejaVuSans-30"/>
      </g>
     </g>
    </g>
    <g id="ytick_2">
     <g id="line2d_31">
      <path clip-path="url(#p88626f8955)" d="M 70.8 245.549929 
L 427.92 245.549929 
" style="fill:none;stroke:#b0b0b0;stroke-linecap:square;stroke-width:0.8;"/>
     </g>
     <g id="line2d_32">
      <g>
       <use style="stroke:#000000;stroke-width:0.8;" x="70.8" xlink:href="#m3c6671fabf" y="245.549929"/>
      </g>
     </g>
     <g id="text_8">
      <!-- 0.2 -->
      <g transform="translate(31.99375 253.148367)scale(0.2 -0.2)">
       <use xlink:href="#DejaVuSans-30"/>
       <use x="63.623047" xlink:href="#DejaVuSans-2e"/>
       <use x="95.410156" xlink:href="#DejaVuSans-32"/>
      </g>
     </g>
    </g>
    <g id="ytick_3">
     <g id="line2d_33">
      <path clip-path="url(#p88626f8955)" d="M 70.8 192.854484 
L 427.92 192.854484 
" style="fill:none;stroke:#b0b0b0;stroke-linecap:square;stroke-width:0.8;"/>
     </g>
     <g id="line2d_34">
      <g>
       <use style="stroke:#000000;stroke-width:0.8;" x="70.8" xlink:href="#m3c6671fabf" y="192.854484"/>
      </g>
     </g>
     <g id="text_9">
      <!-- 0.4 -->
      <g transform="translate(31.99375 200.452921)scale(0.2 -0.2)">
       <use xlink:href="#DejaVuSans-30"/>
       <use x="63.623047" xlink:href="#DejaVuSans-2e"/>
       <use x="95.410156" xlink:href="#DejaVuSans-34"/>
      </g>
     </g>
    </g>
    <g id="ytick_4">
     <g id="line2d_35">
      <path clip-path="url(#p88626f8955)" d="M 70.8 140.159038 
L 427.92 140.159038 
" style="fill:none;stroke:#b0b0b0;stroke-linecap:square;stroke-width:0.8;"/>
     </g>
     <g id="line2d_36">
      <g>
       <use style="stroke:#000000;stroke-width:0.8;" x="70.8" xlink:href="#m3c6671fabf" y="140.159038"/>
      </g>
     </g>
     <g id="text_10">
      <!-- 0.6 -->
      <g transform="translate(31.99375 147.757476)scale(0.2 -0.2)">
       <use xlink:href="#DejaVuSans-30"/>
       <use x="63.623047" xlink:href="#DejaVuSans-2e"/>
       <use x="95.410156" xlink:href="#DejaVuSans-36"/>
      </g>
     </g>
    </g>
    <g id="ytick_5">
     <g id="line2d_37">
      <path clip-path="url(#p88626f8955)" d="M 70.8 87.463593 
L 427.92 87.463593 
" style="fill:none;stroke:#b0b0b0;stroke-linecap:square;stroke-width:0.8;"/>
     </g>
     <g id="line2d_38">
      <g>
       <use style="stroke:#000000;stroke-width:0.8;" x="70.8" xlink:href="#m3c6671fabf" y="87.463593"/>
      </g>
     </g>
     <g id="text_11">
      <!-- 0.8 -->
      <g transform="translate(31.99375 95.06203)scale(0.2 -0.2)">
       <use xlink:href="#DejaVuSans-30"/>
       <use x="63.623047" xlink:href="#DejaVuSans-2e"/>
       <use x="95.410156" xlink:href="#DejaVuSans-38"/>
      </g>
     </g>
    </g>
    <g id="ytick_6">
     <g id="line2d_39">
      <path clip-path="url(#p88626f8955)" d="M 70.8 34.768147 
L 427.92 34.768147 
" style="fill:none;stroke:#b0b0b0;stroke-linecap:square;stroke-width:0.8;"/>
     </g>
     <g id="line2d_40">
      <g>
       <use style="stroke:#000000;stroke-width:0.8;" x="70.8" xlink:href="#m3c6671fabf" y="34.768147"/>
      </g>
     </g>
     <g id="text_12">
      <!-- 1.0 -->
      <g transform="translate(31.99375 42.366585)scale(0.2 -0.2)">
       <use xlink:href="#DejaVuSans-31"/>
       <use x="63.623047" xlink:href="#DejaVuSans-2e"/>
       <use x="95.410156" xlink:href="#DejaVuSans-30"/>
      </g>
     </g>
    </g>
    <g id="text_13">
     <!-- Proportion of function+target pairs -->
     <defs>
      <path d="M 19.671875 64.796875 
L 19.671875 37.40625 
L 32.078125 37.40625 
Q 38.96875 37.40625 42.71875 40.96875 
Q 46.484375 44.53125 46.484375 51.125 
Q 46.484375 57.671875 42.71875 61.234375 
Q 38.96875 64.796875 32.078125 64.796875 
z
M 9.8125 72.90625 
L 32.078125 72.90625 
Q 44.34375 72.90625 50.609375 67.359375 
Q 56.890625 61.8125 56.890625 51.125 
Q 56.890625 40.328125 50.609375 34.8125 
Q 44.34375 29.296875 32.078125 29.296875 
L 19.671875 29.296875 
L 19.671875 0 
L 9.8125 0 
z
" id="DejaVuSans-50"/>
      <path d="M 41.109375 46.296875 
Q 39.59375 47.171875 37.8125 47.578125 
Q 36.03125 48 33.890625 48 
Q 26.265625 48 22.1875 43.046875 
Q 18.109375 38.09375 18.109375 28.8125 
L 18.109375 0 
L 9.078125 0 
L 9.078125 54.6875 
L 18.109375 54.6875 
L 18.109375 46.1875 
Q 20.953125 51.171875 25.484375 53.578125 
Q 30.03125 56 36.53125 56 
Q 37.453125 56 38.578125 55.875 
Q 39.703125 55.765625 41.0625 55.515625 
z
" id="DejaVuSans-72"/>
      <path d="M 18.109375 8.203125 
L 18.109375 -20.796875 
L 9.078125 -20.796875 
L 9.078125 54.6875 
L 18.109375 54.6875 
L 18.109375 46.390625 
Q 20.953125 51.265625 25.265625 53.625 
Q 29.59375 56 35.59375 56 
Q 45.5625 56 51.78125 48.09375 
Q 58.015625 40.1875 58.015625 27.296875 
Q 58.015625 14.40625 51.78125 6.484375 
Q 45.5625 -1.421875 35.59375 -1.421875 
Q 29.59375 -1.421875 25.265625 0.953125 
Q 20.953125 3.328125 18.109375 8.203125 
M 48.6875 27.296875 
Q 48.6875 37.203125 44.609375 42.84375 
Q 40.53125 48.484375 33.40625 48.484375 
Q 26.265625 48.484375 22.1875 42.84375 
Q 18.109375 37.203125 18.109375 27.296875 
Q 18.109375 17.390625 22.1875 11.75 
Q 26.265625 6.109375 33.40625 6.109375 
Q 40.53125 6.109375 44.609375 11.75 
Q 48.6875 17.390625 48.6875 27.296875 
" id="DejaVuSans-70"/>
      <path d="M 18.3125 70.21875 
L 18.3125 54.6875 
L 36.8125 54.6875 
L 36.8125 47.703125 
L 18.3125 47.703125 
L 18.3125 18.015625 
Q 18.3125 11.328125 20.140625 9.421875 
Q 21.96875 7.515625 27.59375 7.515625 
L 36.8125 7.515625 
L 36.8125 0 
L 27.59375 0 
Q 17.1875 0 13.234375 3.875 
Q 9.28125 7.765625 9.28125 18.015625 
L 9.28125 47.703125 
L 2.6875 47.703125 
L 2.6875 54.6875 
L 9.28125 54.6875 
L 9.28125 70.21875 
z
" id="DejaVuSans-74"/>
      <path d="M 8.5 21.578125 
L 8.5 54.6875 
L 17.484375 54.6875 
L 17.484375 21.921875 
Q 17.484375 14.15625 20.5 10.265625 
Q 23.53125 6.390625 29.59375 6.390625 
Q 36.859375 6.390625 41.078125 11.03125 
Q 45.3125 15.671875 45.3125 23.6875 
L 45.3125 54.6875 
L 54.296875 54.6875 
L 54.296875 0 
L 45.3125 0 
L 45.3125 8.40625 
Q 42.046875 3.421875 37.71875 1 
Q 33.40625 -1.421875 27.6875 -1.421875 
Q 18.265625 -1.421875 13.375 4.4375 
Q 8.5 10.296875 8.5 21.578125 
M 31.109375 56 
z
" id="DejaVuSans-75"/>
      <path d="M 48.78125 52.59375 
L 48.78125 44.1875 
Q 44.96875 46.296875 41.140625 47.34375 
Q 37.3125 48.390625 33.40625 48.390625 
Q 24.65625 48.390625 19.8125 42.84375 
Q 14.984375 37.3125 14.984375 27.296875 
Q 14.984375 17.28125 19.8125 11.734375 
Q 24.65625 6.203125 33.40625 6.203125 
Q 37.3125 6.203125 41.140625 7.25 
Q 44.96875 8.296875 48.78125 10.40625 
L 48.78125 2.09375 
Q 45.015625 0.34375 40.984375 -0.53125 
Q 36.96875 -1.421875 32.421875 -1.421875 
Q 20.0625 -1.421875 12.78125 6.34375 
Q 5.515625 14.109375 5.515625 27.296875 
Q 5.515625 40.671875 12.859375 48.328125 
Q 20.21875 56 33.015625 56 
Q 37.15625 56 41.109375 55.140625 
Q 45.0625 54.296875 48.78125 52.59375 
" id="DejaVuSans-63"/>
      <path d="M 46 62.703125 
L 46 35.5 
L 73.1875 35.5 
L 73.1875 27.203125 
L 46 27.203125 
L 46 0 
L 37.796875 0 
L 37.796875 27.203125 
L 10.59375 27.203125 
L 10.59375 35.5 
L 37.796875 35.5 
L 37.796875 62.703125 
z
" id="DejaVuSans-2b"/>
     </defs>
     <g transform="translate(24.250312 323.17875)rotate(-90)scale(0.18 -0.18)">
      <use xlink:href="#DejaVuSans-50"/>
      <use x="60.287109" xlink:href="#DejaVuSans-72"/>
      <use x="101.369141" xlink:href="#DejaVuSans-6f"/>
      <use x="162.550781" xlink:href="#DejaVuSans-70"/>
      <use x="226.027344" xlink:href="#DejaVuSans-6f"/>
      <use x="287.208984" xlink:href="#DejaVuSans-72"/>
      <use x="328.322266" xlink:href="#DejaVuSans-74"/>
      <use x="367.53125" xlink:href="#DejaVuSans-69"/>
      <use x="395.314453" xlink:href="#DejaVuSans-6f"/>
      <use x="456.496094" xlink:href="#DejaVuSans-6e"/>
      <use x="519.875" xlink:href="#DejaVuSans-20"/>
      <use x="551.662109" xlink:href="#DejaVuSans-6f"/>
      <use x="612.84375" xlink:href="#DejaVuSans-66"/>
      <use x="648.048828" xlink:href="#DejaVuSans-20"/>
      <use x="679.835938" xlink:href="#DejaVuSans-66"/>
      <use x="715.041016" xlink:href="#DejaVuSans-75"/>
      <use x="778.419922" xlink:href="#DejaVuSans-6e"/>
      <use x="841.798828" xlink:href="#DejaVuSans-63"/>
      <use x="896.779297" xlink:href="#DejaVuSans-74"/>
      <use x="935.988281" xlink:href="#DejaVuSans-69"/>
      <use x="963.771484" xlink:href="#DejaVuSans-6f"/>
      <use x="1024.953125" xlink:href="#DejaVuSans-6e"/>
      <use x="1088.332031" xlink:href="#DejaVuSans-2b"/>
      <use x="1172.121094" xlink:href="#DejaVuSans-74"/>
      <use x="1211.330078" xlink:href="#DejaVuSans-61"/>
      <use x="1272.609375" xlink:href="#DejaVuSans-72"/>
      <use x="1313.707031" xlink:href="#DejaVuSans-67"/>
      <use x="1377.183594" xlink:href="#DejaVuSans-65"/>
      <use x="1438.707031" xlink:href="#DejaVuSans-74"/>
      <use x="1477.916016" xlink:href="#DejaVuSans-20"/>
      <use x="1509.703125" xlink:href="#DejaVuSans-70"/>
      <use x="1573.179688" xlink:href="#DejaVuSans-61"/>
      <use x="1634.458984" xlink:href="#DejaVuSans-69"/>
      <use x="1662.242188" xlink:href="#DejaVuSans-72"/>
      <use x="1703.355469" xlink:href="#DejaVuSans-73"/>
     </g>
    </g>
   </g>
   <g id="line2d_41">
    <defs>
     <path d="M 0 1.5 
C 0.397805 1.5 0.77937 1.341951 1.06066 1.06066 
C 1.341951 0.77937 1.5 0.397805 1.5 0 
C 1.5 -0.397805 1.341951 -0.77937 1.06066 -1.06066 
C 0.77937 -1.341951 0.397805 -1.5 0 -1.5 
C -0.397805 -1.5 -0.77937 -1.341951 -1.06066 -1.06066 
C -1.341951 -0.77937 -1.5 -0.397805 -1.5 0 
C -1.5 0.397805 -1.341951 0.77937 -1.06066 1.06066 
C -0.77937 1.341951 -0.397805 1.5 0 1.5 
z
" id="m23d531de09" style="stroke:#00bfbf;"/>
    </defs>
    <g>
     <use style="fill:#00bfbf;stroke:#00bfbf;" x="241.637006" xlink:href="#m23d531de09" y="34.768147"/>
     <use style="fill:#00bfbf;stroke:#00bfbf;" x="241.637006" xlink:href="#m23d531de09" y="34.768147"/>
    </g>
   </g>
   <g id="line2d_42">
    <path d="M 58.414766 298.245375 
L 58.414766 234.700867 
L 153.085714 234.700867 
L 153.085714 232.634379 
L 160.330612 232.634379 
L 160.330612 231.084513 
L 165.470948 231.084513 
L 165.470948 225.401671 
L 169.458103 225.401671 
L 169.458103 224.885049 
L 175.470228 224.885049 
L 175.470228 223.851805 
L 177.856183 223.851805 
L 177.856183 221.268695 
L 179.960743 221.268695 
L 179.960743 218.168963 
L 181.843337 218.168963 
L 181.843337 214.552609 
L 187.855462 214.552609 
L 187.855462 214.035987 
L 203.709898 214.035987 
L 203.709898 210.936254 
L 204.227851 210.936254 
L 204.227851 209.90301 
L 210.239976 209.90301 
L 210.239976 208.869766 
L 211.301761 208.869766 
L 211.301761 207.3199 
L 211.976109 207.3199 
L 211.976109 206.803278 
L 214.154051 206.803278 
L 214.154051 205.253412 
L 214.444595 205.253412 
L 214.444595 203.703546 
L 215.830415 203.703546 
L 215.830415 203.186924 
L 216.866538 203.186924 
L 216.866538 202.670302 
L 218.082525 202.670302 
L 218.082525 200.603814 
L 218.316099 200.603814 
L 218.316099 194.920972 
L 218.99904 194.920972 
L 218.99904 194.40435 
L 219.221007 194.40435 
L 219.221007 190.271374 
L 219.44025 190.271374 
L 219.44025 189.23813 
L 219.656836 189.23813 
L 219.656836 187.688264 
L 219.870828 187.688264 
L 219.870828 184.588532 
L 220.291274 184.588532 
L 220.291274 182.522044 
L 220.497844 182.522044 
L 220.497844 180.455556 
L 220.702053 180.455556 
L 220.702053 176.839201 
L 220.903955 176.839201 
L 220.903955 175.289335 
L 221.30104 175.289335 
L 221.30104 172.189603 
L 221.496322 172.189603 
L 221.496322 168.573249 
L 221.880598 168.573249 
L 221.880598 165.473517 
L 222.06968 165.473517 
L 222.06968 162.890407 
L 222.256782 162.890407 
L 222.256782 160.307297 
L 222.441946 160.307297 
L 222.441946 155.657699 
L 222.62521 155.657699 
L 222.62521 148.424991 
L 222.806614 148.424991 
L 222.806614 145.325259 
L 222.986194 145.325259 
L 222.986194 143.775392 
L 223.34003 143.775392 
L 223.34003 139.642416 
L 223.686995 139.642416 
L 223.686995 138.609172 
L 223.857983 138.609172 
L 223.857983 137.059306 
L 224.02735 137.059306 
L 224.02735 136.026062 
L 224.361343 136.026062 
L 224.361343 132.92633 
L 225.011165 132.92633 
L 225.011165 132.409708 
L 225.169993 132.409708 
L 225.169993 131.376464 
L 225.327423 131.376464 
L 225.327423 130.34322 
L 225.63818 130.34322 
L 225.63818 129.309976 
L 226.243937 129.309976 
L 226.243937 125.693622 
L 226.685148 125.693622 
L 226.685148 124.143756 
L 226.973349 124.143756 
L 226.973349 117.42767 
L 227.256976 117.42767 
L 227.256976 115.877804 
L 227.536171 115.877804 
L 227.536171 114.84456 
L 227.67415 114.84456 
L 227.67415 107.095229 
L 227.811071 107.095229 
L 227.811071 106.061985 
L 227.94695 106.061985 
L 227.94695 103.995497 
L 228.081805 103.995497 
L 228.081805 100.895765 
L 228.480367 100.895765 
L 228.480367 99.345899 
L 228.611269 99.345899 
L 228.611269 95.212923 
L 228.74122 95.212923 
L 228.74122 94.696301 
L 228.870232 94.696301 
L 228.870232 93.146435 
L 229.125495 93.146435 
L 229.125495 91.596569 
L 229.251772 91.596569 
L 229.251772 84.363861 
L 229.377163 84.363861 
L 229.377163 81.264129 
L 229.50168 81.264129 
L 229.50168 80.230885 
L 229.625335 80.230885 
L 229.625335 76.097908 
L 230.111572 76.097908 
L 230.111572 72.998176 
L 230.467759 72.998176 
L 230.467759 71.44831 
L 230.701333 71.44831 
L 230.701333 70.931688 
L 232.57232 70.931688 
L 232.57232 68.8652 
L 233.188523 68.8652 
L 233.188523 67.831956 
L 235.549222 67.831956 
L 235.549222 63.182358 
L 235.899589 63.182358 
L 235.899589 62.665736 
L 236.663663 62.665736 
L 236.663663 62.149114 
L 236.829109 62.149114 
L 236.829109 61.632492 
L 237.155477 61.632492 
L 237.155477 59.566004 
L 237.396399 59.566004 
L 237.396399 59.049382 
L 237.634115 59.049382 
L 237.712657 55.433028 
L 237.790854 55.433028 
L 237.868711 51.816674 
L 238.023414 51.816674 
L 238.023414 51.300052 
L 238.252987 51.300052 
L 238.32886 47.683698 
L 238.851138 47.683698 
L 238.924519 45.100588 
L 238.997599 45.100588 
L 239.070382 43.550722 
L 239.215064 43.550722 
L 239.215064 43.0341 
L 239.358583 43.0341 
L 239.358583 41.484233 
L 239.64221 41.484233 
L 239.712419 38.901123 
L 239.782353 38.901123 
L 239.782353 37.867879 
L 240.799788 37.867879 
L 240.799788 37.351257 
L 241.255466 37.351257 
L 241.255466 36.318013 
L 241.573979 36.318013 
L 241.637006 34.768147 
L 358.8 34.768147 
L 358.8 34.768147 
" style="fill:none;stroke:#00bfbf;stroke-linecap:square;stroke-width:1.5;"/>
   </g>
   <g id="line2d_43">
    <defs>
     <path d="M -6 0 
L 6 0 
M 0 6 
L 0 -6 
" id="mff69d8332b" style="stroke:#00bfbf;stroke-width:1.5;"/>
    </defs>
    <g>
     <use style="fill:none;stroke:#00bfbf;stroke-width:1.5;" x="358.8" xlink:href="#mff69d8332b" y="34.768147"/>
    </g>
   </g>
   <g id="line2d_44"/>
   <g id="line2d_45">
    <defs>
     <path d="M 0 1.5 
C 0.397805 1.5 0.77937 1.341951 1.06066 1.06066 
C 1.341951 0.77937 1.5 0.397805 1.5 0 
C 1.5 -0.397805 1.341951 -0.77937 1.06066 -1.06066 
C 0.77937 -1.341951 0.397805 -1.5 0 -1.5 
C -0.397805 -1.5 -0.77937 -1.341951 -1.06066 -1.06066 
C -1.341951 -0.77937 -1.5 -0.397805 -1.5 0 
C -1.5 0.397805 -1.341951 0.77937 -1.06066 1.06066 
C -0.77937 1.341951 -0.397805 1.5 0 1.5 
z
" id="m271b42d2d6" style="stroke:#008000;"/>
    </defs>
    <g>
     <use style="fill:#008000;stroke:#008000;" x="266.354967" xlink:href="#m271b42d2d6" y="34.768147"/>
     <use style="fill:#008000;stroke:#008000;" x="266.354967" xlink:href="#m271b42d2d6" y="34.768147"/>
    </g>
   </g>
   <g id="line2d_46">
    <path d="M 51.169868 298.245375 
L 51.169868 271.38103 
L 145.840817 271.38103 
L 145.840817 261.04859 
L 153.085714 261.04859 
L 153.085714 259.498724 
L 158.226051 259.498724 
L 158.226051 258.982102 
L 162.213206 258.982102 
L 162.213206 255.365748 
L 165.470948 255.365748 
L 165.470948 253.29926 
L 168.225331 253.29926 
L 168.225331 252.782638 
L 170.611285 252.782638 
L 170.611285 248.13304 
L 176.301453 248.13304 
L 176.301453 247.616418 
L 177.856183 247.616418 
L 177.856183 246.066551 
L 179.286395 246.066551 
L 179.286395 245.033307 
L 181.843337 245.033307 
L 181.843337 244.516685 
L 182.996519 244.516685 
L 182.996519 244.000063 
L 184.079767 244.000063 
L 184.079767 243.483441 
L 185.10108 243.483441 
L 185.10108 242.966819 
L 186.067159 242.966819 
L 186.067159 241.416953 
L 189.480956 241.416953 
L 189.480956 237.283977 
L 193.622815 237.283977 
L 193.622815 236.250733 
L 194.228571 236.250733 
L 194.228571 235.734111 
L 194.814464 235.734111 
L 194.814464 235.217489 
L 196.465001 235.217489 
L 196.465001 234.700867 
L 199.810118 234.700867 
L 199.810118 233.151001 
L 207.199698 233.151001 
L 207.199698 232.117757 
L 210.118009 232.117757 
L 210.118009 231.601135 
L 212.195353 231.601135 
L 212.195353 230.051269 
L 213.046376 230.051269 
L 213.046376 229.534647 
L 213.457155 229.534647 
L 213.457155 226.951537 
L 213.659057 226.951537 
L 213.659057 225.918293 
L 214.056143 225.918293 
L 214.056143 224.368427 
L 214.251425 224.368427 
L 214.251425 223.851805 
L 214.444595 223.851805 
L 214.444595 222.818561 
L 214.6357 222.818561 
L 214.6357 222.301939 
L 214.824782 222.301939 
L 214.824782 219.718829 
L 215.011885 219.718829 
L 215.011885 219.202207 
L 215.380313 219.202207 
L 215.380313 218.168963 
L 215.561716 218.168963 
L 215.561716 215.069231 
L 215.741297 215.069231 
L 215.741297 212.48612 
L 215.919091 212.48612 
L 215.919091 211.969498 
L 217.116446 211.969498 
L 217.116446 208.869766 
L 217.925096 208.869766 
L 217.925096 208.353144 
L 218.082525 208.353144 
L 218.082525 207.3199 
L 218.99904 207.3199 
L 218.99904 206.803278 
L 219.44025 206.803278 
L 219.44025 206.286656 
L 219.870828 206.286656 
L 219.870828 205.770034 
L 220.012079 205.770034 
L 220.012079 204.73679 
L 220.429252 204.73679 
L 220.429252 204.220168 
L 220.836907 204.220168 
L 220.836907 203.703546 
L 220.970752 203.703546 
L 220.970752 202.15368 
L 221.103601 202.15368 
L 221.103601 201.637058 
L 221.496322 201.637058 
L 221.496322 201.120436 
L 222.006875 201.120436 
L 222.006875 200.087192 
L 222.256782 200.087192 
L 222.256782 198.020704 
L 222.986194 198.020704 
L 222.986194 196.98746 
L 224.471301 196.98746 
L 224.471301 196.470838 
L 225.63818 196.470838 
L 225.63818 195.437594 
L 226.044291 195.437594 
L 226.044291 194.920972 
L 227.856479 194.920972 
L 227.856479 194.40435 
L 228.74122 194.40435 
L 228.74122 193.887728 
L 228.91303 193.887728 
L 228.91303 193.371106 
L 229.083204 193.371106 
L 229.083204 192.337862 
L 229.991248 192.337862 
L 229.991248 190.787996 
L 230.545957 190.787996 
L 230.545957 190.271374 
L 230.855369 190.271374 
L 230.931892 188.721508 
L 231.159515 188.721508 
L 231.234749 186.65502 
L 231.309668 186.65502 
L 231.309668 186.138398 
L 231.45857 186.138398 
L 231.532558 184.588532 
L 231.606241 184.588532 
L 231.679621 182.522044 
L 231.752702 182.522044 
L 231.752702 180.972178 
L 231.970166 180.972178 
L 232.04207 178.90569 
L 232.113686 178.90569 
L 232.185016 176.839201 
L 232.256062 176.839201 
L 232.326827 174.256091 
L 232.397313 174.256091 
L 232.397313 173.222847 
L 232.951407 173.222847 
L 232.951407 171.672981 
L 233.289189 171.672981 
L 233.289189 170.639737 
L 233.488835 170.639737 
L 233.554891 168.056627 
L 233.946179 168.056627 
L 233.946179 167.023383 
L 234.202357 167.023383 
L 234.202357 166.506761 
L 234.454914 166.506761 
L 234.454914 164.440273 
L 234.579866 164.440273 
L 234.642016 161.340541 
L 234.703951 161.340541 
L 234.703951 157.724187 
L 234.82718 157.724187 
L 234.82718 156.690943 
L 235.071117 156.690943 
L 235.071117 155.657699 
L 235.311769 155.657699 
L 235.371429 154.624455 
L 235.608096 154.624455 
L 235.608096 154.107833 
L 236.468685 154.107833 
L 236.468685 153.074589 
L 237.128506 153.074589 
L 237.182407 148.941613 
L 237.764826 148.941613 
L 237.764826 148.424991 
L 237.920428 148.424991 
L 238.023414 145.841881 
L 238.125811 145.841881 
L 238.227624 144.292014 
L 239.263032 144.292014 
L 239.263032 143.775392 
L 239.735761 143.775392 
L 239.735761 143.25877 
L 240.287006 143.25877 
L 240.287006 142.742148 
L 240.645276 142.742148 
L 240.645276 141.708904 
L 240.821753 141.708904 
L 240.821753 140.67566 
L 241.212565 140.67566 
L 241.298264 139.125794 
L 241.383553 139.125794 
L 241.468438 137.059306 
L 241.762397 137.059306 
L 241.845505 133.959574 
L 241.928228 133.959574 
L 242.010569 131.893086 
L 242.295813 131.893086 
L 242.336193 129.826598 
L 242.41668 129.826598 
L 242.496806 127.243488 
L 242.852993 127.243488 
L 242.852993 126.726866 
L 243.009048 126.726866 
L 243.009048 126.210244 
L 243.355265 126.210244 
L 243.4313 123.110512 
L 243.582405 123.110512 
L 243.619983 121.560646 
L 243.694902 121.560646 
L 243.694902 120.527402 
L 243.806694 120.527402 
L 243.880836 119.494158 
L 243.954671 119.494158 
L 243.954671 118.977536 
L 244.101433 118.977536 
L 244.210718 117.944292 
L 244.283206 117.944292 
L 244.391388 113.811316 
L 246.169416 113.811316 
L 246.26679 111.228206 
L 246.331413 111.228206 
L 246.395803 110.194961 
L 246.52389 110.194961 
L 246.52389 108.128473 
L 246.933944 108.128473 
L 246.933944 107.095229 
L 247.089185 107.095229 
L 247.089185 102.962253 
L 247.395678 102.962253 
L 247.48661 101.412387 
L 247.756663 101.412387 
L 247.786418 99.345899 
L 247.963917 99.345899 
L 248.022694 97.279411 
L 248.371351 97.279411 
L 248.371351 96.246167 
L 248.486075 96.246167 
L 248.486075 95.729545 
L 248.628451 95.729545 
L 248.628451 95.212923 
L 248.797818 95.212923 
L 248.881904 92.629813 
L 249.159364 92.629813 
L 249.159364 92.113191 
L 250.485501 92.113191 
L 250.536553 90.563325 
L 250.663548 90.563325 
L 250.663548 90.046703 
L 250.864881 90.046703 
L 250.964703 89.013459 
L 251.014405 89.013459 
L 251.039205 87.980215 
L 251.236372 87.980215 
L 251.260866 84.880483 
L 251.358506 84.880483 
L 251.431388 81.264129 
L 251.528103 81.264129 
L 251.576265 77.647775 
L 251.648266 77.647775 
L 251.648266 77.131153 
L 252.581539 77.131153 
L 252.67224 76.097908 
L 252.784973 76.097908 
L 252.784973 75.581286 
L 253.87483 75.581286 
L 253.87483 75.064664 
L 254.064135 75.064664 
L 254.168444 72.998176 
L 254.209998 72.998176 
L 254.209998 72.481554 
L 254.4982 72.481554 
L 254.4982 71.964932 
L 254.701249 71.964932 
L 254.701249 71.44831 
L 254.842022 71.44831 
L 254.921969 67.315334 
L 254.961809 67.315334 
L 255.021403 65.765468 
L 255.120286 65.765468 
L 255.179354 64.215602 
L 255.355396 64.215602 
L 255.355396 63.69898 
L 255.491128 63.69898 
L 255.491128 63.182358 
L 255.797556 63.182358 
L 255.835492 62.149114 
L 255.948821 62.149114 
L 255.948821 61.632492 
L 256.061436 61.632492 
L 256.061436 61.11587 
L 256.229038 61.11587 
L 256.247564 60.082626 
L 256.866277 60.082626 
L 256.866277 59.566004 
L 257.02653 59.566004 
L 257.02653 59.049382 
L 257.481571 59.049382 
L 257.516098 58.016138 
L 257.653546 58.016138 
L 257.704818 56.466272 
L 257.92531 56.466272 
L 257.92531 55.94965 
L 258.308868 55.94965 
L 258.341835 52.849918 
L 258.813145 52.849918 
L 258.813145 52.333296 
L 259.427988 52.333296 
L 259.427988 51.816674 
L 259.689515 51.816674 
L 259.689515 50.78343 
L 259.902053 50.78343 
L 259.902053 50.266808 
L 260.097171 50.266808 
L 260.097171 49.750186 
L 260.260622 49.750186 
L 260.260622 48.716942 
L 260.713374 48.716942 
L 260.770966 47.167076 
L 260.914141 47.167076 
L 260.914141 46.650454 
L 262.286121 46.650454 
L 262.286121 46.133832 
L 262.613265 46.133832 
L 262.613265 45.61721 
L 262.870735 45.61721 
L 262.870735 44.067344 
L 263.473935 44.067344 
L 263.572518 42.000855 
L 263.937435 42.000855 
L 263.937435 41.484233 
L 264.08134 41.484233 
L 264.08134 40.967611 
L 264.645643 40.967611 
L 264.645643 39.934367 
L 264.989491 39.934367 
L 265.012181 38.384501 
L 265.125199 38.384501 
L 265.125199 37.351257 
L 266.31285 37.351257 
L 266.354967 34.768147 
L 358.8 34.768147 
L 358.8 34.768147 
" style="fill:none;stroke:#008000;stroke-linecap:square;stroke-width:1.5;"/>
   </g>
   <g id="line2d_47">
    <defs>
     <path d="M -0 6 
L 6 -6 
L -6 -6 
z
" id="m8682da6775" style="stroke:#008000;stroke-linejoin:miter;stroke-width:1.5;"/>
    </defs>
    <g>
     <use style="fill:none;stroke:#008000;stroke-linejoin:miter;stroke-width:1.5;" x="358.8" xlink:href="#m8682da6775" y="34.768147"/>
    </g>
   </g>
   <g id="line2d_48"/>
   <g id="line2d_49">
    <defs>
     <path d="M 0 1.5 
C 0.397805 1.5 0.77937 1.341951 1.06066 1.06066 
C 1.341951 0.77937 1.5 0.397805 1.5 0 
C 1.5 -0.397805 1.341951 -0.77937 1.06066 -1.06066 
C 0.77937 -1.341951 0.397805 -1.5 0 -1.5 
C -0.397805 -1.5 -0.77937 -1.341951 -1.06066 -1.06066 
C -1.341951 -0.77937 -1.5 -0.397805 -1.5 0 
C -1.5 0.397805 -1.341951 0.77937 -1.06066 1.06066 
C -0.77937 1.341951 -0.397805 1.5 0 1.5 
z
" id="mc95bd5cf35" style="stroke:#0000ff;"/>
    </defs>
    <g>
     <use style="fill:#0000ff;stroke:#0000ff;" x="354.939482" xlink:href="#mc95bd5cf35" y="34.768147"/>
     <use style="fill:#0000ff;stroke:#0000ff;" x="354.939482" xlink:href="#mc95bd5cf35" y="34.768147"/>
    </g>
   </g>
   <g id="line2d_50">
    <path d="M 42.042377 298.245375 
L 42.042377 296.178887 
L 136.713325 296.178887 
L 136.713325 293.595777 
L 143.958223 293.595777 
L 143.958223 290.496045 
L 149.098559 290.496045 
L 149.098559 287.912935 
L 153.085714 287.912935 
L 153.085714 284.296581 
L 156.343457 284.296581 
L 156.343457 282.746715 
L 159.097839 282.746715 
L 159.097839 281.196849 
L 161.483794 281.196849 
L 161.483794 278.097116 
L 163.588354 278.097116 
L 163.588354 277.063872 
L 165.470948 277.063872 
L 165.470948 274.480762 
L 167.173962 274.480762 
L 167.173962 270.864408 
L 168.728691 270.864408 
L 168.728691 267.764676 
L 170.158903 267.764676 
L 170.158903 265.181566 
L 172.715846 265.181566 
L 172.715846 264.148322 
L 173.869028 264.148322 
L 173.869028 263.6317 
L 174.952275 263.6317 
L 174.952275 263.115078 
L 175.973589 263.115078 
L 175.973589 262.598456 
L 182.544138 262.598456 
L 182.544138 262.081834 
L 183.218486 262.081834 
L 183.218486 261.04859 
L 184.495323 261.04859 
L 184.495323 260.015346 
L 187.33751 260.015346 
L 187.33751 258.982102 
L 188.358823 258.982102 
L 188.358823 258.46548 
L 188.848391 258.46548 
L 188.848391 257.432236 
L 199.189327 257.432236 
L 199.189327 256.915614 
L 199.458026 256.915614 
L 199.458026 255.88237 
L 204.928651 255.88237 
L 204.928651 255.365748 
L 210.60096 255.365748 
L 210.60096 254.849126 
L 210.743337 254.849126 
L 210.743337 252.266016 
L 211.84326 252.266016 
L 211.84326 251.749394 
L 213.252946 251.749394 
L 213.252946 250.71615 
L 213.497719 250.71615 
L 213.497719 250.199528 
L 221.340268 250.199528 
L 221.340268 248.649662 
L 221.880598 248.649662 
L 221.880598 248.13304 
L 222.405066 248.13304 
L 222.478749 247.099796 
L 222.55213 247.099796 
L 222.55213 246.583173 
L 222.697993 246.583173 
L 222.697993 245.549929 
L 222.986194 245.549929 
L 222.986194 245.033307 
L 225.760986 245.033307 
L 225.760986 244.516685 
L 226.243937 244.516685 
L 226.243937 244.000063 
L 226.480604 244.000063 
L 226.480604 243.483441 
L 229.69912 243.483441 
L 229.69912 242.966819 
L 230.326135 242.966819 
L 230.326135 242.450197 
L 230.608269 242.450197 
L 230.608269 241.416953 
L 230.886018 241.416953 
L 230.886018 240.383709 
L 231.249758 240.383709 
L 231.339548 238.317221 
L 235.010444 238.317221 
L 235.010444 236.767355 
L 235.299813 236.767355 
L 235.371429 234.184245 
L 235.478317 234.184245 
L 235.478317 233.151001 
L 236.311157 233.151001 
L 236.311157 232.634379 
L 236.746577 232.634379 
L 236.779636 231.601135 
L 237.586824 231.601135 
L 237.586824 231.084513 
L 237.806453 231.084513 
L 237.806453 230.567891 
L 238.479646 230.567891 
L 238.479646 229.534647 
L 239.444145 229.534647 
L 239.444145 229.018025 
L 240.467039 229.018025 
L 240.547466 227.468159 
L 241.434532 227.468159 
L 241.510729 225.401671 
L 242.592486 225.401671 
L 242.592486 224.885049 
L 243.814122 224.885049 
L 243.814122 224.368427 
L 244.470308 224.368427 
L 244.534621 223.335183 
L 244.704997 223.335183 
L 244.704997 222.818561 
L 245.02014 222.818561 
L 245.02014 222.301939 
L 245.714531 222.301939 
L 245.814409 219.202207 
L 247.064437 219.202207 
L 247.120072 217.652341 
L 248.215297 217.652341 
L 248.215297 217.135719 
L 248.848317 217.135719 
L 248.848317 216.102475 
L 249.197867 216.102475 
L 249.197867 215.585853 
L 249.312881 215.585853 
L 249.312881 215.069231 
L 250.113558 215.069231 
L 250.113558 214.552609 
L 250.668609 214.552609 
L 250.668609 213.519365 
L 250.90987 213.519365 
L 250.90987 211.969498 
L 252.223338 211.969498 
L 252.223338 210.936254 
L 253.065945 210.936254 
L 253.065945 210.419632 
L 254.346444 210.419632 
L 254.346444 209.90301 
L 254.91798 209.90301 
L 254.91798 209.386388 
L 255.941288 209.386388 
L 255.941288 208.869766 
L 256.132393 208.869766 
L 256.132393 208.353144 
L 256.541393 208.353144 
L 256.541393 206.803278 
L 257.111415 206.803278 
L 257.111415 206.286656 
L 257.674072 206.286656 
L 257.674072 204.73679 
L 259.716984 204.73679 
L 259.716984 203.186924 
L 260.548209 203.186924 
L 260.583107 202.15368 
L 260.661381 202.15368 
L 260.661381 201.637058 
L 260.954025 201.637058 
L 260.954025 200.603814 
L 261.755345 200.603814 
L 261.820528 198.020704 
L 262.08692 198.020704 
L 262.190781 196.98746 
L 263.099328 196.98746 
L 263.152248 195.954216 
L 263.731564 195.954216 
L 263.731564 194.40435 
L 263.848112 194.40435 
L 263.848112 193.887728 
L 264.306845 193.887728 
L 264.306845 193.371106 
L 264.53187 193.371106 
L 264.53187 191.82124 
L 264.712638 191.82124 
L 264.809223 190.271374 
L 265.819065 190.271374 
L 265.819065 189.754752 
L 266.173156 189.754752 
L 266.173156 188.721508 
L 266.426339 188.721508 
L 266.426339 188.204886 
L 267.007568 188.204886 
L 267.007568 187.688264 
L 267.356989 187.688264 
L 267.356989 187.171642 
L 267.646957 187.171642 
L 267.723104 185.105154 
L 268.252909 185.105154 
L 268.281258 183.555288 
L 268.500847 183.555288 
L 268.500847 182.522044 
L 268.833493 182.522044 
L 268.833493 182.005422 
L 269.417081 182.005422 
L 269.417081 180.455556 
L 269.628478 180.455556 
L 269.6757 178.90569 
L 270.394629 178.90569 
L 270.394629 178.389067 
L 270.540001 178.389067 
L 270.540001 176.839201 
L 271.105106 176.839201 
L 271.182332 175.805957 
L 271.331014 175.805957 
L 271.331014 174.772713 
L 272.033468 174.772713 
L 272.033468 174.256091 
L 276.599847 174.256091 
L 276.599847 173.739469 
L 276.769752 173.739469 
L 276.769752 173.222847 
L 277.362234 173.222847 
L 277.375861 171.672981 
L 278.346779 171.672981 
L 278.452898 169.089871 
L 278.861782 169.089871 
L 278.861782 168.573249 
L 279.298253 168.573249 
L 279.298253 168.056627 
L 279.423195 168.056627 
L 279.447472 166.506761 
L 279.887795 166.506761 
L 279.887795 165.473517 
L 280.114182 165.473517 
L 280.114182 163.923651 
L 281.182988 163.923651 
L 281.182988 163.407029 
L 281.569547 163.407029 
L 281.569547 162.890407 
L 281.770389 162.890407 
L 281.852749 161.857163 
L 282.406034 161.857163 
L 282.406034 161.340541 
L 282.744596 161.340541 
L 282.744596 160.823919 
L 283.136166 160.823919 
L 283.136166 160.307297 
L 283.422493 160.307297 
L 283.526582 158.757431 
L 283.818645 158.757431 
L 283.818645 158.240809 
L 284.558217 158.240809 
L 284.558217 157.724187 
L 284.795843 157.724187 
L 284.804833 156.690943 
L 284.912365 156.690943 
L 284.912365 155.657699 
L 285.03257 155.657699 
L 285.03257 155.141077 
L 285.217962 155.141077 
L 285.217962 154.624455 
L 285.568008 154.624455 
L 285.568008 154.107833 
L 285.701001 154.107833 
L 285.713819 153.074589 
L 286.299918 153.074589 
L 286.299918 152.557967 
L 286.495177 152.557967 
L 286.495177 152.041345 
L 286.613348 152.041345 
L 286.720652 149.458235 
L 286.81728 149.458235 
L 286.81728 148.424991 
L 289.584851 148.424991 
L 289.584851 147.908369 
L 289.839248 147.908369 
L 289.839248 147.391747 
L 291.686545 147.391747 
L 291.686545 146.875125 
L 291.944562 146.875125 
L 291.944562 146.358503 
L 292.225626 146.358503 
L 292.284861 144.292014 
L 292.448216 144.292014 
L 292.515477 142.225526 
L 292.876666 142.225526 
L 292.876666 141.708904 
L 293.137913 141.708904 
L 293.237707 140.159038 
L 293.373152 140.159038 
L 293.373152 139.642416 
L 293.515859 139.642416 
L 293.587475 138.09255 
L 293.688897 138.09255 
L 293.787029 134.992818 
L 293.961512 134.992818 
L 293.983035 133.959574 
L 294.142304 133.959574 
L 294.142304 133.442952 
L 294.748816 133.442952 
L 294.748816 132.92633 
L 296.778661 132.92633 
L 296.778661 132.409708 
L 297.182201 132.409708 
L 297.182201 131.893086 
L 297.516257 131.893086 
L 297.516257 130.859842 
L 297.839849 130.859842 
L 297.839849 130.34322 
L 298.00162 130.34322 
L 298.00162 129.826598 
L 298.258505 129.826598 
L 298.258505 128.793354 
L 298.620971 128.793354 
L 298.634448 127.76011 
L 298.75528 127.76011 
L 298.838457 126.726866 
L 298.891651 126.726866 
L 298.891651 126.210244 
L 299.079626 126.210244 
L 299.079626 125.693622 
L 299.205525 125.693622 
L 299.205525 125.177 
L 299.475467 125.177 
L 299.546506 123.627134 
L 299.673081 123.627134 
L 299.688718 122.59389 
L 299.80459 122.59389 
L 299.80459 122.077268 
L 300.093413 122.077268 
L 300.093413 121.560646 
L 300.228511 121.560646 
L 300.273948 120.527402 
L 301.767753 120.527402 
L 301.767753 120.01078 
L 302.068688 120.01078 
L 302.068688 119.494158 
L 302.189695 119.494158 
L 302.254971 118.460914 
L 302.323381 118.460914 
L 302.396568 117.42767 
L 302.732551 117.42767 
L 302.732551 116.911048 
L 303.147056 116.911048 
L 303.173601 115.877804 
L 303.277788 115.877804 
L 303.277788 115.361182 
L 303.530115 115.361182 
L 303.628333 114.327938 
L 303.659649 114.327938 
L 303.744708 111.228206 
L 303.782037 111.228206 
L 303.782037 110.711584 
L 303.976744 110.711584 
L 304.06031 108.645095 
L 304.090879 108.645095 
L 304.090879 107.611851 
L 304.431969 107.611851 
L 304.467891 106.578607 
L 305.892811 106.578607 
L 305.892811 106.061985 
L 306.409226 106.061985 
L 306.409226 105.545363 
L 306.615927 105.545363 
L 306.615927 105.028741 
L 306.798623 105.028741 
L 306.807151 103.995497 
L 306.936546 103.995497 
L 306.970373 102.445631 
L 307.089559 102.445631 
L 307.197691 99.862521 
L 307.266221 99.862521 
L 307.331942 97.279411 
L 307.389806 97.279411 
L 307.486673 95.729545 
L 307.550961 95.729545 
L 307.550961 95.212923 
L 307.704438 95.212923 
L 307.704438 94.696301 
L 307.862174 94.696301 
L 307.862174 94.179679 
L 309.138009 94.179679 
L 309.228734 93.146435 
L 309.447327 93.146435 
L 309.447327 92.629813 
L 309.7085 92.629813 
L 309.810801 91.079947 
L 310.057459 91.079947 
L 310.148541 89.530081 
L 310.206656 89.530081 
L 310.26188 87.980215 
L 310.380949 87.980215 
L 310.393832 86.430349 
L 311.735203 86.430349 
L 311.735203 85.913727 
L 312.103722 85.913727 
L 312.151446 84.363861 
L 312.513471 84.363861 
L 312.600945 83.330617 
L 312.657292 83.330617 
L 312.679497 81.780751 
L 312.872043 81.780751 
L 312.893517 80.747507 
L 314.389248 80.747507 
L 314.389248 80.230885 
L 314.644858 80.230885 
L 314.750293 79.197641 
L 314.827497 79.197641 
L 314.897697 77.647775 
L 314.960144 77.647775 
L 315.066632 76.097908 
L 315.254844 76.097908 
L 315.312798 75.064664 
L 316.212273 75.064664 
L 316.243629 74.03142 
L 316.807087 74.03142 
L 316.807462 72.998176 
L 317.038689 72.998176 
L 317.038689 72.481554 
L 318.309083 72.481554 
L 318.309083 71.964932 
L 318.58941 71.964932 
L 318.58941 71.44831 
L 318.796136 71.44831 
L 318.798818 70.415066 
L 320.209653 70.415066 
L 320.294335 69.381822 
L 320.398553 69.381822 
L 320.401005 67.831956 
L 321.354062 67.831956 
L 321.354062 67.315334 
L 321.869018 67.315334 
L 321.869018 66.798712 
L 323.066503 66.798712 
L 323.151315 65.248846 
L 323.189638 65.248846 
L 323.256375 63.69898 
L 324.077326 63.69898 
L 324.077326 63.182358 
L 324.419089 63.182358 
L 324.516973 60.599248 
L 325.111414 60.599248 
L 325.111414 60.082626 
L 325.486319 60.082626 
L 325.566839 58.53276 
L 326.724855 58.53276 
L 326.799137 55.94965 
L 327.818844 55.94965 
L 327.818844 55.433028 
L 327.940049 55.433028 
L 327.940049 54.916406 
L 328.683509 54.916406 
L 328.773704 53.883162 
L 329.542835 53.883162 
L 329.652744 51.300052 
L 329.727462 51.300052 
L 329.727462 50.78343 
L 330.201939 50.78343 
L 330.201939 50.266808 
L 330.536329 50.266808 
L 330.536329 49.750186 
L 331.416699 49.750186 
L 331.416699 49.233564 
L 332.266137 49.233564 
L 332.289472 47.683698 
L 332.909178 47.683698 
L 332.950831 46.650454 
L 333.778045 46.650454 
L 333.781235 45.61721 
L 335.171945 45.61721 
L 335.17704 44.583966 
L 335.816296 44.583966 
L 335.816296 44.067344 
L 336.413967 44.067344 
L 336.413967 43.550722 
L 337.008513 43.550722 
L 337.028466 42.517478 
L 338.737049 42.517478 
L 338.737049 42.000855 
L 339.312245 42.000855 
L 339.327766 40.967611 
L 339.783832 40.967611 
L 339.877643 39.934367 
L 340.325585 39.934367 
L 340.325585 39.417745 
L 340.825029 39.417745 
L 340.869535 37.867879 
L 341.273762 37.867879 
L 341.273762 37.351257 
L 344.346735 37.351257 
L 344.36021 36.318013 
L 350.695506 36.318013 
L 350.695506 35.801391 
L 354.04864 35.801391 
L 354.04864 35.284769 
L 354.939482 35.284769 
L 354.939482 34.768147 
L 358.8 34.768147 
L 358.8 34.768147 
" style="fill:none;stroke:#0000ff;stroke-linecap:square;stroke-width:1.5;"/>
   </g>
   <g id="line2d_51">
    <defs>
     <path d="M 0 -6 
L -1.347084 -1.854102 
L -5.706339 -1.854102 
L -2.179628 0.708204 
L -3.526712 4.854102 
L -0 2.291796 
L 3.526712 4.854102 
L 2.179628 0.708204 
L 5.706339 -1.854102 
L 1.347084 -1.854102 
z
" id="me92d46ab39" style="stroke:#0000ff;stroke-linejoin:bevel;stroke-width:1.5;"/>
    </defs>
    <g>
     <use style="fill:none;stroke:#0000ff;stroke-linejoin:bevel;stroke-width:1.5;" x="358.8" xlink:href="#me92d46ab39" y="34.768147"/>
    </g>
   </g>
   <g id="line2d_52"/>
   <g id="line2d_53">
    <path clip-path="url(#p88626f8955)" d="M 276.514286 174.256091 
" style="fill:none;stroke:#0000ff;stroke-linecap:square;stroke-width:1.5;"/>
    <defs>
     <path d="M -12 12 
L 12 -12 
M -12 -12 
L 12 12 
" id="ma2ce44c11b" style="stroke:#0000ff;stroke-width:3;"/>
    </defs>
    <g clip-path="url(#p88626f8955)">
     <use style="fill:#0000ff;stroke:#0000ff;stroke-width:3;" x="276.514286" xlink:href="#ma2ce44c11b" y="174.256091"/>
    </g>
   </g>
   <g id="line2d_54">
    <defs>
     <path d="M 0 1.5 
C 0.397805 1.5 0.77937 1.341951 1.06066 1.06066 
C 1.341951 0.77937 1.5 0.397805 1.5 0 
C 1.5 -0.397805 1.341951 -0.77937 1.06066 -1.06066 
C 0.77937 -1.341951 0.397805 -1.5 0 -1.5 
C -0.397805 -1.5 -0.77937 -1.341951 -1.06066 -1.06066 
C -1.341951 -0.77937 -1.5 -0.397805 -1.5 0 
C -1.5 0.397805 -1.341951 0.77937 -1.06066 1.06066 
C -0.77937 1.341951 -0.397805 1.5 0 1.5 
z
" id="m37cdc23de0" style="stroke:#000000;"/>
    </defs>
    <g>
     <use style="stroke:#000000;" x="334.598032" xlink:href="#m37cdc23de0" y="220.752073"/>
     <use style="stroke:#000000;" x="334.598032" xlink:href="#m37cdc23de0" y="220.752073"/>
    </g>
   </g>
   <g id="line2d_55">
    <path d="M 161.483794 298.245375 
L 161.483794 297.212131 
L 163.588354 297.212131 
L 163.588354 296.695509 
L 165.470948 296.695509 
L 165.470948 295.145643 
L 167.173962 295.145643 
L 167.173962 294.112399 
L 171.483073 294.112399 
L 171.483073 293.079155 
L 173.869028 293.079155 
L 173.869028 291.529289 
L 174.952275 291.529289 
L 174.952275 290.496045 
L 176.939668 290.496045 
L 176.939668 288.429557 
L 177.856183 288.429557 
L 177.856183 287.912935 
L 178.727971 287.912935 
L 178.727971 286.879691 
L 181.113925 286.879691 
L 181.113925 286.363069 
L 182.544138 286.363069 
L 182.544138 284.813203 
L 183.218486 284.813203 
L 183.218486 284.296581 
L 185.10108 284.296581 
L 185.10108 283.779959 
L 187.855462 283.779959 
L 187.855462 283.263337 
L 188.358823 283.263337 
L 188.358823 282.230093 
L 189.324902 282.230093 
L 189.324902 281.713471 
L 190.241417 281.713471 
L 190.241417 281.196849 
L 191.113205 281.196849 
L 191.113205 280.680226 
L 191.94443 280.680226 
L 191.94443 280.163604 
L 204.125455 280.163604 
L 204.125455 279.13036 
L 205.884393 279.13036 
L 205.884393 278.613738 
L 206.434225 278.613738 
L 206.434225 277.580494 
L 208.638776 277.580494 
L 208.638776 277.063872 
L 208.955034 277.063872 
L 208.955034 276.030628 
L 209.419167 276.030628 
L 209.419167 275.514006 
L 209.571237 275.514006 
L 209.571237 274.480762 
L 209.722023 274.480762 
L 209.722023 272.930896 
L 210.312759 272.930896 
L 210.312759 272.414274 
L 210.743337 272.414274 
L 210.743337 271.897652 
L 211.84326 271.897652 
L 211.84326 271.38103 
L 212.23888 271.38103 
L 212.23888 270.864408 
L 212.368831 270.864408 
L 212.368831 270.347786 
L 212.497843 270.347786 
L 212.497843 269.314542 
L 213.129291 269.314542 
L 213.129291 268.79792 
L 213.252946 268.79792 
L 213.252946 268.281298 
L 217.988234 268.281298 
L 217.988234 267.764676 
L 218.819459 267.764676 
L 218.819459 266.731432 
L 219.352875 266.731432 
L 219.352875 265.698188 
L 222.77048 265.698188 
L 222.77048 265.181566 
L 235.046873 265.181566 
L 235.046873 264.664944 
L 238.718289 264.664944 
L 238.718289 264.148322 
L 243.612474 264.148322 
L 243.612474 263.115078 
L 245.614092 263.115078 
L 245.614092 262.598456 
L 247.756663 262.598456 
L 247.756663 262.081834 
L 250.879889 262.081834 
L 250.879889 260.531968 
L 252.013369 260.531968 
L 252.013369 259.498724 
L 252.430868 259.498724 
L 252.430868 258.982102 
L 254.371141 258.982102 
L 254.371141 258.46548 
L 255.273459 258.46548 
L 255.273459 257.948858 
L 255.390397 257.948858 
L 255.390397 257.432236 
L 256.076397 257.432236 
L 256.087611 255.88237 
L 257.164263 255.88237 
L 257.164263 255.365748 
L 258.259303 255.365748 
L 258.259303 254.332504 
L 258.700513 254.332504 
L 258.700513 253.815882 
L 260.141897 253.815882 
L 260.141897 253.29926 
L 260.894165 253.29926 
L 261.005174 251.749394 
L 261.157749 251.749394 
L 261.157749 250.71615 
L 262.182813 250.71615 
L 262.182813 250.199528 
L 262.561323 250.199528 
L 262.561323 249.682906 
L 264.129052 249.682906 
L 264.129052 249.166284 
L 265.143216 249.166284 
L 265.170207 247.616418 
L 265.760449 247.616418 
L 265.760449 247.099796 
L 265.980886 247.099796 
L 265.980886 246.583173 
L 267.068303 246.583173 
L 267.068303 246.066551 
L 267.386794 246.066551 
L 267.386794 245.549929 
L 267.966922 245.549929 
L 267.966922 244.516685 
L 268.258583 244.516685 
L 268.258583 243.483441 
L 268.789496 243.483441 
L 268.789496 242.966819 
L 270.084931 242.966819 
L 270.084931 241.933575 
L 270.639573 241.933575 
L 270.639573 241.416953 
L 271.369184 241.416953 
L 271.369184 240.900331 
L 271.755791 240.900331 
L 271.839548 237.283977 
L 271.922914 237.283977 
L 271.922914 236.250733 
L 272.270679 236.250733 
L 272.270679 235.734111 
L 281.71438 235.734111 
L 281.71438 235.217489 
L 282.643446 235.217489 
L 282.653586 234.184245 
L 283.873175 234.184245 
L 283.873175 233.667623 
L 284.345076 233.667623 
L 284.345076 233.151001 
L 284.86092 233.151001 
L 284.86092 232.634379 
L 285.014812 232.634379 
L 285.014812 232.117757 
L 285.405796 232.117757 
L 285.405796 231.601135 
L 285.66035 231.601135 
L 285.66035 231.084513 
L 286.202521 231.084513 
L 286.202521 230.567891 
L 286.511523 230.567891 
L 286.511523 229.534647 
L 286.682258 229.534647 
L 286.682258 229.018025 
L 287.09814 229.018025 
L 287.09814 228.501403 
L 293.446726 228.501403 
L 293.513099 227.468159 
L 294.060839 227.468159 
L 294.060839 226.434915 
L 294.588388 226.434915 
L 294.588388 225.918293 
L 294.963896 225.918293 
L 294.963896 225.401671 
L 297.883131 225.401671 
L 297.883131 224.885049 
L 300.130619 224.885049 
L 300.130619 224.368427 
L 300.314554 224.368427 
L 300.314554 223.851805 
L 304.572995 223.851805 
L 304.572995 223.335183 
L 307.949139 223.335183 
L 307.949139 222.818561 
L 310.66595 222.818561 
L 310.678101 221.785317 
L 313.14093 221.785317 
L 313.14093 221.268695 
L 334.598032 221.268695 
L 334.598032 220.752073 
L 358.8 220.752073 
L 358.8 220.752073 
" style="fill:none;stroke:#000000;stroke-linecap:square;stroke-width:1.5;"/>
   </g>
   <g id="line2d_56">
    <defs>
     <path d="M 0 6 
C 1.591219 6 3.117479 5.367802 4.242641 4.242641 
C 5.367802 3.117479 6 1.591219 6 0 
C 6 -1.591219 5.367802 -3.117479 4.242641 -4.242641 
C 3.117479 -5.367802 1.591219 -6 0 -6 
C -1.591219 -6 -3.117479 -5.367802 -4.242641 -4.242641 
C -5.367802 -3.117479 -6 -1.591219 -6 0 
C -6 1.591219 -5.367802 3.117479 -4.242641 4.242641 
C -3.117479 5.367802 -1.591219 6 0 6 
z
" id="m0fc039238e" style="stroke:#000000;stroke-width:1.5;"/>
    </defs>
    <g>
     <use style="fill:none;stroke:#000000;stroke-width:1.5;" x="358.8" xlink:href="#m0fc039238e" y="220.752073"/>
    </g>
   </g>
   <g id="line2d_57"/>
   <g id="line2d_58">
    <path clip-path="url(#p88626f8955)" d="M 276.514286 235.734111 
" style="fill:none;stroke:#000000;stroke-linecap:square;stroke-width:1.5;"/>
    <defs>
     <path d="M -12 12 
L 12 -12 
M -12 -12 
L 12 12 
" id="md0bed91514" style="stroke:#000000;stroke-width:3;"/>
    </defs>
    <g clip-path="url(#p88626f8955)">
     <use style="stroke:#000000;stroke-width:3;" x="276.514286" xlink:href="#md0bed91514" y="235.734111"/>
    </g>
   </g>
   <g id="line2d_59">
    <defs>
     <path d="M 0 1.5 
C 0.397805 1.5 0.77937 1.341951 1.06066 1.06066 
C 1.341951 0.77937 1.5 0.397805 1.5 0 
C 1.5 -0.397805 1.341951 -0.77937 1.06066 -1.06066 
C 0.77937 -1.341951 0.397805 -1.5 0 -1.5 
C -0.397805 -1.5 -0.77937 -1.341951 -1.06066 -1.06066 
C -1.341951 -0.77937 -1.5 -0.397805 -1.5 0 
C -1.5 0.397805 -1.341951 0.77937 -1.06066 1.06066 
C -0.77937 1.341951 -0.397805 1.5 0 1.5 
z
" id="m4f01b07693" style="stroke:#ff0000;"/>
    </defs>
    <g>
     <use style="fill:#ff0000;stroke:#ff0000;" x="350.202172" xlink:href="#m4f01b07693" y="267.248054"/>
     <use style="fill:#ff0000;stroke:#ff0000;" x="350.202172" xlink:href="#m4f01b07693" y="267.248054"/>
    </g>
   </g>
   <g id="line2d_60">
    <path d="M 170.833252 298.245375 
L 170.833252 297.728753 
L 172.715846 297.728753 
L 172.715846 297.212131 
L 173.301738 297.212131 
L 173.301738 296.695509 
L 173.869028 296.695509 
L 173.869028 295.662265 
L 174.418859 295.662265 
L 174.418859 295.145643 
L 174.952275 295.145643 
L 174.952275 293.595777 
L 176.463157 293.595777 
L 176.463157 293.079155 
L 176.939668 293.079155 
L 176.939668 292.562533 
L 177.403801 292.562533 
L 177.403801 292.045911 
L 178.297393 292.045911 
L 178.297393 291.012667 
L 179.148416 291.012667 
L 179.148416 290.496045 
L 180.353465 290.496045 
L 180.353465 289.979423 
L 180.73774 289.979423 
L 180.73774 289.462801 
L 181.843337 289.462801 
L 181.843337 288.946179 
L 192.345978 288.946179 
L 192.345978 288.429557 
L 192.93187 288.429557 
L 192.93187 287.912935 
L 198.358102 287.912935 
L 198.358102 286.879691 
L 199.458026 286.879691 
L 199.458026 285.846447 
L 199.853646 285.846447 
L 199.853646 285.329825 
L 200.367872 285.329825 
L 200.367872 284.813203 
L 200.990517 284.813203 
L 200.990517 284.296581 
L 205.123933 284.296581 
L 205.123933 283.263337 
L 206.524241 283.263337 
L 206.524241 282.746715 
L 208.235415 282.746715 
L 208.235415 282.230093 
L 208.316819 282.230093 
L 208.316819 281.713471 
L 209.265791 281.713471 
L 209.265791 280.680226 
L 209.871548 280.680226 
L 209.871548 279.646982 
L 209.945844 279.646982 
L 209.945844 279.13036 
L 210.166896 279.13036 
L 210.166896 278.097116 
L 210.529345 278.097116 
L 210.529345 277.580494 
L 213.799043 277.580494 
L 213.799043 276.030628 
L 230.13554 276.030628 
L 230.13554 275.514006 
L 258.719872 275.514006 
L 258.719872 274.997384 
L 259.885445 274.997384 
L 259.885445 273.96414 
L 260.574389 273.96414 
L 260.574389 272.930896 
L 269.205844 272.930896 
L 269.205844 272.414274 
L 272.642898 272.414274 
L 272.642898 271.897652 
L 304.561843 271.897652 
L 304.561843 270.864408 
L 310.77974 270.864408 
L 310.77974 270.347786 
L 319.040893 270.347786 
L 319.040893 269.831164 
L 322.075325 269.831164 
L 322.075325 269.314542 
L 323.4189 269.314542 
L 323.4189 268.79792 
L 326.93254 268.79792 
L 326.93254 268.281298 
L 348.377472 268.281298 
L 348.377472 267.764676 
L 350.202172 267.764676 
L 350.202172 267.248054 
L 358.8 267.248054 
" style="fill:none;stroke:#ff0000;stroke-linecap:square;stroke-width:1.5;"/>
   </g>
   <g id="line2d_61">
    <defs>
     <path d="M -6 6 
L 6 6 
L 6 -6 
L -6 -6 
z
" id="meedf69b5b2" style="stroke:#ff0000;stroke-linejoin:miter;stroke-width:1.5;"/>
    </defs>
    <g>
     <use style="fill:none;stroke:#ff0000;stroke-linejoin:miter;stroke-width:1.5;" x="358.8" xlink:href="#meedf69b5b2" y="267.248054"/>
    </g>
   </g>
   <g id="line2d_62"/>
   <g id="line2d_63">
    <path clip-path="url(#p88626f8955)" d="M 276.514286 271.897652 
" style="fill:none;stroke:#ff0000;stroke-linecap:square;stroke-width:1.5;"/>
    <defs>
     <path d="M -12 12 
L 12 -12 
M -12 -12 
L 12 12 
" id="m0340a1c9a1" style="stroke:#ff0000;stroke-width:3;"/>
    </defs>
    <g clip-path="url(#p88626f8955)">
     <use style="fill:#ff0000;stroke:#ff0000;stroke-width:3;" x="276.514286" xlink:href="#m0340a1c9a1" y="271.897652"/>
    </g>
   </g>
   <g id="line2d_64">
    <defs>
     <path d="M 0 1.5 
C 0.397805 1.5 0.77937 1.341951 1.06066 1.06066 
C 1.341951 0.77937 1.5 0.397805 1.5 0 
C 1.5 -0.397805 1.341951 -0.77937 1.06066 -1.06066 
C 0.77937 -1.341951 0.397805 -1.5 0 -1.5 
C -0.397805 -1.5 -0.77937 -1.341951 -1.06066 -1.06066 
C -1.341951 -0.77937 -1.5 -0.397805 -1.5 0 
C -1.5 0.397805 -1.341951 0.77937 -1.06066 1.06066 
C -0.77937 1.341951 -0.397805 1.5 0 1.5 
z
" id="m4813a8200d" style="stroke:#bf00bf;"/>
    </defs>
    <g>
     <use style="fill:#bf00bf;stroke:#bf00bf;" x="259.340215" xlink:href="#m4813a8200d" y="282.746715"/>
     <use style="fill:#bf00bf;stroke:#bf00bf;" x="259.340215" xlink:href="#m4813a8200d" y="282.746715"/>
    </g>
   </g>
   <g id="line2d_65">
    <path d="M 208.397854 298.245375 
L 208.397854 297.728753 
L 210.019832 297.728753 
L 210.019832 297.212131 
L 211.540688 297.212131 
L 211.540688 296.695509 
L 213.314454 296.695509 
L 213.314454 296.178887 
L 214.95596 296.178887 
L 214.95596 295.662265 
L 215.011885 295.662265 
L 215.011885 294.629021 
L 219.892087 294.629021 
L 219.892087 294.112399 
L 222.661639 294.112399 
L 222.661639 293.595777 
L 222.860678 293.595777 
L 222.860678 292.045911 
L 224.526028 292.045911 
L 224.526028 291.529289 
L 225.483477 291.529289 
L 225.483477 291.012667 
L 228.322007 291.012667 
L 228.322007 289.979423 
L 228.728267 289.979423 
L 228.728267 289.462801 
L 230.02743 289.462801 
L 230.02743 288.946179 
L 232.414891 288.946179 
L 232.414891 288.429557 
L 235.742773 288.429557 
L 235.742773 287.912935 
L 237.066318 287.912935 
L 237.066318 287.396313 
L 240.257579 287.396313 
L 240.257579 286.879691 
L 240.713868 286.879691 
L 240.713868 284.813203 
L 242.592486 284.813203 
L 242.592486 284.296581 
L 250.023285 284.296581 
L 250.023285 283.779959 
L 254.701249 283.779959 
L 254.701249 283.263337 
L 259.340215 283.263337 
L 259.340215 282.746715 
L 358.8 282.746715 
" style="fill:none;stroke:#bf00bf;stroke-linecap:square;stroke-width:1.5;"/>
   </g>
   <g id="line2d_66">
    <defs>
     <path d="M -0 8.485281 
L 8.485281 0 
L 0 -8.485281 
L -8.485281 -0 
z
" id="m9e861dad75" style="stroke:#bf00bf;stroke-linejoin:miter;stroke-width:1.5;"/>
    </defs>
    <g>
     <use style="fill:none;stroke:#bf00bf;stroke-linejoin:miter;stroke-width:1.5;" x="358.8" xlink:href="#m9e861dad75" y="282.746715"/>
    </g>
   </g>
   <g id="line2d_67"/>
   <g id="line2d_68">
    <path clip-path="url(#p88626f8955)" d="M 276.514286 282.746715 
" style="fill:none;stroke:#bf00bf;stroke-linecap:square;stroke-width:1.5;"/>
    <defs>
     <path d="M -12 12 
L 12 -12 
M -12 -12 
L 12 12 
" id="ma83a386e4b" style="stroke:#bf00bf;stroke-width:3;"/>
    </defs>
    <g clip-path="url(#p88626f8955)">
     <use style="fill:#bf00bf;stroke:#bf00bf;stroke-width:3;" x="276.514286" xlink:href="#ma83a386e4b" y="282.746715"/>
    </g>
   </g>
   <g id="line2d_69">
    <path d="M 358.8 282.746715 
L 390.48 292.97583 
" style="fill:none;stroke:#bf00bf;stroke-linecap:square;stroke-width:1.5;"/>
    <g>
     <use style="fill:none;stroke:#bf00bf;stroke-linejoin:miter;stroke-width:1.5;" x="358.8" xlink:href="#m9e861dad75" y="282.746715"/>
     <use style="fill:none;stroke:#bf00bf;stroke-linejoin:miter;stroke-width:1.5;" x="390.48" xlink:href="#m9e861dad75" y="292.97583"/>
    </g>
   </g>
   <g id="line2d_70">
    <path d="M 358.8 267.248054 
L 390.48 242.388203 
" style="fill:none;stroke:#ff0000;stroke-linecap:square;stroke-width:1.5;"/>
    <g>
     <use style="fill:none;stroke:#ff0000;stroke-linejoin:miter;stroke-width:1.5;" x="358.8" xlink:href="#meedf69b5b2" y="267.248054"/>
     <use style="fill:none;stroke:#ff0000;stroke-linejoin:miter;stroke-width:1.5;" x="390.48" xlink:href="#meedf69b5b2" y="242.388203"/>
    </g>
   </g>
   <g id="line2d_71">
    <path d="M 358.8 220.752073 
L 390.48 191.800575 
" style="fill:none;stroke:#000000;stroke-linecap:square;stroke-width:1.5;"/>
    <g>
     <use style="fill:none;stroke:#000000;stroke-width:1.5;" x="358.8" xlink:href="#m0fc039238e" y="220.752073"/>
     <use style="fill:none;stroke:#000000;stroke-width:1.5;" x="390.48" xlink:href="#m0fc039238e" y="191.800575"/>
    </g>
   </g>
   <g id="line2d_72">
    <path d="M 358.8 34.768147 
L 390.48 141.212947 
" style="fill:none;stroke:#0000ff;stroke-linecap:square;stroke-width:1.5;"/>
    <g>
     <use style="fill:none;stroke:#0000ff;stroke-linejoin:bevel;stroke-width:1.5;" x="358.8" xlink:href="#me92d46ab39" y="34.768147"/>
     <use style="fill:none;stroke:#0000ff;stroke-linejoin:bevel;stroke-width:1.5;" x="390.48" xlink:href="#me92d46ab39" y="141.212947"/>
    </g>
   </g>
   <g id="line2d_73">
    <path d="M 358.8 34.768147 
L 390.48 90.62532 
" style="fill:none;stroke:#008000;stroke-linecap:square;stroke-width:1.5;"/>
    <g>
     <use style="fill:none;stroke:#008000;stroke-linejoin:miter;stroke-width:1.5;" x="358.8" xlink:href="#m8682da6775" y="34.768147"/>
     <use style="fill:none;stroke:#008000;stroke-linejoin:miter;stroke-width:1.5;" x="390.48" xlink:href="#m8682da6775" y="90.62532"/>
    </g>
   </g>
   <g id="line2d_74">
    <path d="M 358.8 34.768147 
L 390.48 40.037692 
" style="fill:none;stroke:#00bfbf;stroke-linecap:square;stroke-width:1.5;"/>
    <g>
     <use style="fill:none;stroke:#00bfbf;stroke-width:1.5;" x="358.8" xlink:href="#mff69d8332b" y="34.768147"/>
     <use style="fill:none;stroke:#00bfbf;stroke-width:1.5;" x="390.48" xlink:href="#mff69d8332b" y="40.037692"/>
    </g>
   </g>
   <g id="line2d_75">
    <path d="M 358.8 298.245375 
L 358.8 34.768147 
" style="fill:none;stroke:#000000;stroke-linecap:square;stroke-width:1.5;"/>
   </g>
   <g id="patch_3">
    <path d="M 70.8 298.245375 
L 70.8 32.133375 
" style="fill:none;stroke:#000000;stroke-linecap:square;stroke-linejoin:miter;stroke-width:0.8;"/>
   </g>
   <g id="patch_4">
    <path d="M 427.92 298.245375 
L 427.92 32.133375 
" style="fill:none;stroke:#000000;stroke-linecap:square;stroke-linejoin:miter;stroke-width:0.8;"/>
   </g>
   <g id="patch_5">
    <path d="M 70.8 298.245375 
L 427.92 298.245375 
" style="fill:none;stroke:#000000;stroke-linecap:square;stroke-linejoin:miter;stroke-width:0.8;"/>
   </g>
   <g id="patch_6">
    <path d="M 70.8 32.133375 
L 427.92 32.133375 
" style="fill:none;stroke:#000000;stroke-linecap:square;stroke-linejoin:miter;stroke-width:0.8;"/>
   </g>
   <g id="text_14">
    <!-- 40-D -->
    <defs>
     <path d="M 19.671875 64.796875 
L 19.671875 8.109375 
L 31.59375 8.109375 
Q 46.6875 8.109375 53.6875 14.9375 
Q 60.6875 21.78125 60.6875 36.53125 
Q 60.6875 51.171875 53.6875 57.984375 
Q 46.6875 64.796875 31.59375 64.796875 
z
M 9.8125 72.90625 
L 30.078125 72.90625 
Q 51.265625 72.90625 61.171875 64.09375 
Q 71.09375 55.28125 71.09375 36.53125 
Q 71.09375 17.671875 61.125 8.828125 
Q 51.171875 0 30.078125 0 
L 9.8125 0 
z
" id="DejaVuSans-44"/>
    </defs>
    <g transform="translate(396.24 297.114893)scale(0.15 -0.15)">
     <use xlink:href="#DejaVuSans-34"/>
     <use x="63.623047" xlink:href="#DejaVuSans-30"/>
     <use x="127.246094" xlink:href="#DejaVuSans-2d"/>
     <use x="163.330078" xlink:href="#DejaVuSans-44"/>
    </g>
   </g>
   <g id="text_15">
    <!-- 20-D -->
    <g transform="translate(396.24 246.527265)scale(0.15 -0.15)">
     <use xlink:href="#DejaVuSans-32"/>
     <use x="63.623047" xlink:href="#DejaVuSans-30"/>
     <use x="127.246094" xlink:href="#DejaVuSans-2d"/>
     <use x="163.330078" xlink:href="#DejaVuSans-44"/>
    </g>
   </g>
   <g id="text_16">
    <!-- 10-D -->
    <g transform="translate(396.24 195.939637)scale(0.15 -0.15)">
     <use xlink:href="#DejaVuSans-31"/>
     <use x="63.623047" xlink:href="#DejaVuSans-30"/>
     <use x="127.246094" xlink:href="#DejaVuSans-2d"/>
     <use x="163.330078" xlink:href="#DejaVuSans-44"/>
    </g>
   </g>
   <g id="text_17">
    <!-- 5-D -->
    <defs>
     <path d="M 10.796875 72.90625 
L 49.515625 72.90625 
L 49.515625 64.59375 
L 19.828125 64.59375 
L 19.828125 46.734375 
Q 21.96875 47.46875 24.109375 47.828125 
Q 26.265625 48.1875 28.421875 48.1875 
Q 40.625 48.1875 47.75 41.5 
Q 54.890625 34.8125 54.890625 23.390625 
Q 54.890625 11.625 47.5625 5.09375 
Q 40.234375 -1.421875 26.90625 -1.421875 
Q 22.3125 -1.421875 17.546875 -0.640625 
Q 12.796875 0.140625 7.71875 1.703125 
L 7.71875 11.625 
Q 12.109375 9.234375 16.796875 8.0625 
Q 21.484375 6.890625 26.703125 6.890625 
Q 35.15625 6.890625 40.078125 11.328125 
Q 45.015625 15.765625 45.015625 23.390625 
Q 45.015625 31 40.078125 35.4375 
Q 35.15625 39.890625 26.703125 39.890625 
Q 22.75 39.890625 18.8125 39.015625 
Q 14.890625 38.140625 10.796875 36.28125 
z
" id="DejaVuSans-35"/>
    </defs>
    <g transform="translate(396.24 145.35201)scale(0.15 -0.15)">
     <use xlink:href="#DejaVuSans-35"/>
     <use x="63.623047" xlink:href="#DejaVuSans-2d"/>
     <use x="99.707031" xlink:href="#DejaVuSans-44"/>
    </g>
   </g>
   <g id="text_18">
    <!-- 3-D -->
    <defs>
     <path d="M 40.578125 39.3125 
Q 47.65625 37.796875 51.625 33 
Q 55.609375 28.21875 55.609375 21.1875 
Q 55.609375 10.40625 48.1875 4.484375 
Q 40.765625 -1.421875 27.09375 -1.421875 
Q 22.515625 -1.421875 17.65625 -0.515625 
Q 12.796875 0.390625 7.625 2.203125 
L 7.625 11.71875 
Q 11.71875 9.328125 16.59375 8.109375 
Q 21.484375 6.890625 26.8125 6.890625 
Q 36.078125 6.890625 40.9375 10.546875 
Q 45.796875 14.203125 45.796875 21.1875 
Q 45.796875 27.640625 41.28125 31.265625 
Q 36.765625 34.90625 28.71875 34.90625 
L 20.21875 34.90625 
L 20.21875 43.015625 
L 29.109375 43.015625 
Q 36.375 43.015625 40.234375 45.921875 
Q 44.09375 48.828125 44.09375 54.296875 
Q 44.09375 59.90625 40.109375 62.90625 
Q 36.140625 65.921875 28.71875 65.921875 
Q 24.65625 65.921875 20.015625 65.03125 
Q 15.375 64.15625 9.8125 62.3125 
L 9.8125 71.09375 
Q 15.4375 72.65625 20.34375 73.4375 
Q 25.25 74.21875 29.59375 74.21875 
Q 40.828125 74.21875 47.359375 69.109375 
Q 53.90625 64.015625 53.90625 55.328125 
Q 53.90625 49.265625 50.4375 45.09375 
Q 46.96875 40.921875 40.578125 39.3125 
" id="DejaVuSans-33"/>
    </defs>
    <g transform="translate(396.24 94.764382)scale(0.15 -0.15)">
     <use xlink:href="#DejaVuSans-33"/>
     <use x="63.623047" xlink:href="#DejaVuSans-2d"/>
     <use x="99.707031" xlink:href="#DejaVuSans-44"/>
    </g>
   </g>
   <g id="text_19">
    <!-- 2-D -->
    <g transform="translate(396.24 44.176754)scale(0.15 -0.15)">
     <use xlink:href="#DejaVuSans-32"/>
     <use x="63.623047" xlink:href="#DejaVuSans-2d"/>
     <use x="99.707031" xlink:href="#DejaVuSans-44"/>
    </g>
   </g>
   <g id="text_20">
    <!-- bbob - f9 -->
    <defs>
     <path d="M 48.6875 27.296875 
Q 48.6875 37.203125 44.609375 42.84375 
Q 40.53125 48.484375 33.40625 48.484375 
Q 26.265625 48.484375 22.1875 42.84375 
Q 18.109375 37.203125 18.109375 27.296875 
Q 18.109375 17.390625 22.1875 11.75 
Q 26.265625 6.109375 33.40625 6.109375 
Q 40.53125 6.109375 44.609375 11.75 
Q 48.6875 17.390625 48.6875 27.296875 
M 18.109375 46.390625 
Q 20.953125 51.265625 25.265625 53.625 
Q 29.59375 56 35.59375 56 
Q 45.5625 56 51.78125 48.09375 
Q 58.015625 40.1875 58.015625 27.296875 
Q 58.015625 14.40625 51.78125 6.484375 
Q 45.5625 -1.421875 35.59375 -1.421875 
Q 29.59375 -1.421875 25.265625 0.953125 
Q 20.953125 3.328125 18.109375 8.203125 
L 18.109375 0 
L 9.078125 0 
L 9.078125 75.984375 
L 18.109375 75.984375 
z
" id="DejaVuSans-62"/>
     <path d="M 10.984375 1.515625 
L 10.984375 10.5 
Q 14.703125 8.734375 18.5 7.8125 
Q 22.3125 6.890625 25.984375 6.890625 
Q 35.75 6.890625 40.890625 13.453125 
Q 46.046875 20.015625 46.78125 33.40625 
Q 43.953125 29.203125 39.59375 26.953125 
Q 35.25 24.703125 29.984375 24.703125 
Q 19.046875 24.703125 12.671875 31.3125 
Q 6.296875 37.9375 6.296875 49.421875 
Q 6.296875 60.640625 12.9375 67.421875 
Q 19.578125 74.21875 30.609375 74.21875 
Q 43.265625 74.21875 49.921875 64.515625 
Q 56.59375 54.828125 56.59375 36.375 
Q 56.59375 19.140625 48.40625 8.859375 
Q 40.234375 -1.421875 26.421875 -1.421875 
Q 22.703125 -1.421875 18.890625 -0.6875 
Q 15.09375 0.046875 10.984375 1.515625 
M 30.609375 32.421875 
Q 37.25 32.421875 41.125 36.953125 
Q 45.015625 41.5 45.015625 49.421875 
Q 45.015625 57.28125 41.125 61.84375 
Q 37.25 66.40625 30.609375 66.40625 
Q 23.96875 66.40625 20.09375 61.84375 
Q 16.21875 57.28125 16.21875 49.421875 
Q 16.21875 41.5 20.09375 36.953125 
Q 23.96875 32.421875 30.609375 32.421875 
" id="DejaVuSans-39"/>
    </defs>
    <g transform="translate(74.3712 50.114612)scale(0.1666 -0.1666)">
     <use xlink:href="#DejaVuSans-62"/>
     <use x="63.476562" xlink:href="#DejaVuSans-62"/>
     <use x="126.953125" xlink:href="#DejaVuSans-6f"/>
     <use x="188.134766" xlink:href="#DejaVuSans-62"/>
     <use x="251.611328" xlink:href="#DejaVuSans-20"/>
     <use x="283.398438" xlink:href="#DejaVuSans-2d"/>
     <use x="319.482422" xlink:href="#DejaVuSans-20"/>
     <use x="351.269531" xlink:href="#DejaVuSans-66"/>
     <use x="386.474609" xlink:href="#DejaVuSans-39"/>
    </g>
    <!-- 51 targets in 100..1e-08 -->
    <g transform="translate(74.3712 68.770168)scale(0.1666 -0.1666)">
     <use xlink:href="#DejaVuSans-35"/>
     <use x="63.623047" xlink:href="#DejaVuSans-31"/>
     <use x="127.246094" xlink:href="#DejaVuSans-20"/>
     <use x="159.033203" xlink:href="#DejaVuSans-74"/>
     <use x="198.242188" xlink:href="#DejaVuSans-61"/>
     <use x="259.521484" xlink:href="#DejaVuSans-72"/>
     <use x="300.619141" xlink:href="#DejaVuSans-67"/>
     <use x="364.095703" xlink:href="#DejaVuSans-65"/>
     <use x="425.619141" xlink:href="#DejaVuSans-74"/>
     <use x="464.828125" xlink:href="#DejaVuSans-73"/>
     <use x="516.927734" xlink:href="#DejaVuSans-20"/>
     <use x="548.714844" xlink:href="#DejaVuSans-69"/>
     <use x="576.498047" xlink:href="#DejaVuSans-6e"/>
     <use x="639.876953" xlink:href="#DejaVuSans-20"/>
     <use x="671.664062" xlink:href="#DejaVuSans-31"/>
     <use x="735.287109" xlink:href="#DejaVuSans-30"/>
     <use x="798.910156" xlink:href="#DejaVuSans-30"/>
     <use x="862.533203" xlink:href="#DejaVuSans-2e"/>
     <use x="894.320312" xlink:href="#DejaVuSans-2e"/>
     <use x="926.107422" xlink:href="#DejaVuSans-31"/>
     <use x="989.730469" xlink:href="#DejaVuSans-65"/>
     <use x="1051.253906" xlink:href="#DejaVuSans-2d"/>
     <use x="1087.337891" xlink:href="#DejaVuSans-30"/>
     <use x="1150.960938" xlink:href="#DejaVuSans-38"/>
    </g>
    <!-- 15 instances -->
    <g transform="translate(74.3712 87.425723)scale(0.1666 -0.1666)">
     <use xlink:href="#DejaVuSans-31"/>
     <use x="63.623047" xlink:href="#DejaVuSans-35"/>
     <use x="127.246094" xlink:href="#DejaVuSans-20"/>
     <use x="159.033203" xlink:href="#DejaVuSans-69"/>
     <use x="186.816406" xlink:href="#DejaVuSans-6e"/>
     <use x="250.195312" xlink:href="#DejaVuSans-73"/>
     <use x="302.294922" xlink:href="#DejaVuSans-74"/>
     <use x="341.503906" xlink:href="#DejaVuSans-61"/>
     <use x="402.783203" xlink:href="#DejaVuSans-6e"/>
     <use x="466.162109" xlink:href="#DejaVuSans-63"/>
     <use x="521.142578" xlink:href="#DejaVuSans-65"/>
     <use x="582.666016" xlink:href="#DejaVuSans-73"/>
    </g>
   </g>
   <g id="text_21">
    <!-- v2.0.1 -->
    <g style="fill:#808080;" transform="translate(233.67875 293.504568)scale(0.1 -0.1)">
     <use xlink:href="#DejaVuSans-76"/>
     <use x="59.179688" xlink:href="#DejaVuSans-32"/>
     <use x="122.802734" xlink:href="#DejaVuSans-2e"/>
     <use x="154.589844" xlink:href="#DejaVuSans-30"/>
     <use x="218.212891" xlink:href="#DejaVuSans-2e"/>
     <use x="250" xlink:href="#DejaVuSans-31"/>
    </g>
   </g>
   <g id="text_22">
    <!-- 9 Rosenbrock rotated -->
    <defs>
     <path d="M 44.390625 34.1875 
Q 47.5625 33.109375 50.5625 29.59375 
Q 53.5625 26.078125 56.59375 19.921875 
L 66.609375 0 
L 56 0 
L 46.6875 18.703125 
Q 43.0625 26.03125 39.671875 28.421875 
Q 36.28125 30.8125 30.421875 30.8125 
L 19.671875 30.8125 
L 19.671875 0 
L 9.8125 0 
L 9.8125 72.90625 
L 32.078125 72.90625 
Q 44.578125 72.90625 50.734375 67.671875 
Q 56.890625 62.453125 56.890625 51.90625 
Q 56.890625 45.015625 53.6875 40.46875 
Q 50.484375 35.9375 44.390625 34.1875 
M 19.671875 64.796875 
L 19.671875 38.921875 
L 32.078125 38.921875 
Q 39.203125 38.921875 42.84375 42.21875 
Q 46.484375 45.515625 46.484375 51.90625 
Q 46.484375 58.296875 42.84375 61.546875 
Q 39.203125 64.796875 32.078125 64.796875 
z
" id="DejaVuSans-52"/>
     <path d="M 9.078125 75.984375 
L 18.109375 75.984375 
L 18.109375 31.109375 
L 44.921875 54.6875 
L 56.390625 54.6875 
L 27.390625 29.109375 
L 57.625 0 
L 45.90625 0 
L 18.109375 26.703125 
L 18.109375 0 
L 9.078125 0 
z
" id="DejaVuSans-6b"/>
    </defs>
    <g transform="translate(119.71125 26.133375)scale(0.24 -0.24)">
     <use xlink:href="#DejaVuSans-39"/>
     <use x="63.623047" xlink:href="#DejaVuSans-20"/>
     <use x="95.410156" xlink:href="#DejaVuSans-52"/>
     <use x="164.830078" xlink:href="#DejaVuSans-6f"/>
     <use x="226.011719" xlink:href="#DejaVuSans-73"/>
     <use x="278.111328" xlink:href="#DejaVuSans-65"/>
     <use x="339.634766" xlink:href="#DejaVuSans-6e"/>
     <use x="403.013672" xlink:href="#DejaVuSans-62"/>
     <use x="466.490234" xlink:href="#DejaVuSans-72"/>
     <use x="507.572266" xlink:href="#DejaVuSans-6f"/>
     <use x="568.753906" xlink:href="#DejaVuSans-63"/>
     <use x="623.734375" xlink:href="#DejaVuSans-6b"/>
     <use x="681.644531" xlink:href="#DejaVuSans-20"/>
     <use x="713.431641" xlink:href="#DejaVuSans-72"/>
     <use x="754.513672" xlink:href="#DejaVuSans-6f"/>
     <use x="815.695312" xlink:href="#DejaVuSans-74"/>
     <use x="854.904297" xlink:href="#DejaVuSans-61"/>
     <use x="916.183594" xlink:href="#DejaVuSans-74"/>
     <use x="955.392578" xlink:href="#DejaVuSans-65"/>
     <use x="1016.916016" xlink:href="#DejaVuSans-64"/>
    </g>
   </g>
  </g>
 </g>
 <defs>
  <clipPath id="p88626f8955">
   <rect height="266.112" width="357.12" x="70.8" y="32.133375"/>
  </clipPath>
 </defs>
</svg>
