<?xml version="1.0" encoding="utf-8" standalone="no"?>
<!DOCTYPE svg PUBLIC "-//W3C//DTD SVG 1.1//EN"
  "http://www.w3.org/Graphics/SVG/1.1/DTD/svg11.dtd">
<!-- Created with matplotlib (http://matplotlib.org/) -->
<svg height="353pt" version="1.1" viewBox="0 0 438 353" width="438pt" xmlns="http://www.w3.org/2000/svg" xmlns:xlink="http://www.w3.org/1999/xlink">
 <defs>
  <style type="text/css">
*{stroke-linecap:butt;stroke-linejoin:round;}
  </style>
 </defs>
 <g id="figure_1">
  <g id="patch_1">
   <path d="M 0 353.22225 
L 438.62 353.22225 
L 438.62 0 
L 0 0 
z
" style="fill:#ffffff;"/>
  </g>
  <g id="axes_1">
   <g id="patch_2">
    <path d="M 70.8 298.245375 
L 427.92 298.245375 
L 427.92 32.133375 
L 70.8 32.133375 
z
" style="fill:#ffffff;"/>
   </g>
   <g id="matplotlib.axis_1">
    <g id="xtick_1">
     <g id="line2d_1">
      <path clip-path="url(#p18dc41a5c8)" d="M 70.8 298.245375 
L 70.8 32.133375 
" style="fill:none;stroke:#b0b0b0;stroke-linecap:square;stroke-width:0.8;"/>
     </g>
     <g id="line2d_2">
      <defs>
       <path d="M 0 0 
L 0 3.5 
" id="ma3ba9c15c1" style="stroke:#000000;stroke-width:0.8;"/>
      </defs>
      <g>
       <use style="stroke:#000000;stroke-width:0.8;" x="70.8" xlink:href="#ma3ba9c15c1" y="298.245375"/>
      </g>
     </g>
     <g id="text_1">
      <!-- 0 -->
      <defs>
       <path d="M 31.78125 66.40625 
Q 24.171875 66.40625 20.328125 58.90625 
Q 16.5 51.421875 16.5 36.375 
Q 16.5 21.390625 20.328125 13.890625 
Q 24.171875 6.390625 31.78125 6.390625 
Q 39.453125 6.390625 43.28125 13.890625 
Q 47.125 21.390625 47.125 36.375 
Q 47.125 51.421875 43.28125 58.90625 
Q 39.453125 66.40625 31.78125 66.40625 
M 31.78125 74.21875 
Q 44.046875 74.21875 50.515625 64.515625 
Q 56.984375 54.828125 56.984375 36.375 
Q 56.984375 17.96875 50.515625 8.265625 
Q 44.046875 -1.421875 31.78125 -1.421875 
Q 19.53125 -1.421875 13.0625 8.265625 
Q 6.59375 17.96875 6.59375 36.375 
Q 6.59375 54.828125 13.0625 64.515625 
Q 19.53125 74.21875 31.78125 74.21875 
" id="DejaVuSans-30"/>
      </defs>
      <g transform="translate(64.4375 320.44225)scale(0.2 -0.2)">
       <use xlink:href="#DejaVuSans-30"/>
      </g>
     </g>
    </g>
    <g id="xtick_2">
     <g id="line2d_3">
      <path clip-path="url(#p18dc41a5c8)" d="M 153.085714 298.245375 
L 153.085714 32.133375 
" style="fill:none;stroke:#b0b0b0;stroke-linecap:square;stroke-width:0.8;"/>
     </g>
     <g id="line2d_4">
      <g>
       <use style="stroke:#000000;stroke-width:0.8;" x="153.085714" xlink:href="#ma3ba9c15c1" y="298.245375"/>
      </g>
     </g>
     <g id="text_2">
      <!-- 2 -->
      <defs>
       <path d="M 19.1875 8.296875 
L 53.609375 8.296875 
L 53.609375 0 
L 7.328125 0 
L 7.328125 8.296875 
Q 12.9375 14.109375 22.625 23.890625 
Q 32.328125 33.6875 34.8125 36.53125 
Q 39.546875 41.84375 41.421875 45.53125 
Q 43.3125 49.21875 43.3125 52.78125 
Q 43.3125 58.59375 39.234375 62.25 
Q 35.15625 65.921875 28.609375 65.921875 
Q 23.96875 65.921875 18.8125 64.3125 
Q 13.671875 62.703125 7.8125 59.421875 
L 7.8125 69.390625 
Q 13.765625 71.78125 18.9375 73 
Q 24.125 74.21875 28.421875 74.21875 
Q 39.75 74.21875 46.484375 68.546875 
Q 53.21875 62.890625 53.21875 53.421875 
Q 53.21875 48.921875 51.53125 44.890625 
Q 49.859375 40.875 45.40625 35.40625 
Q 44.1875 33.984375 37.640625 27.21875 
Q 31.109375 20.453125 19.1875 8.296875 
" id="DejaVuSans-32"/>
      </defs>
      <g transform="translate(146.723214 320.44225)scale(0.2 -0.2)">
       <use xlink:href="#DejaVuSans-32"/>
      </g>
     </g>
    </g>
    <g id="xtick_3">
     <g id="line2d_5">
      <path clip-path="url(#p18dc41a5c8)" d="M 235.371429 298.245375 
L 235.371429 32.133375 
" style="fill:none;stroke:#b0b0b0;stroke-linecap:square;stroke-width:0.8;"/>
     </g>
     <g id="line2d_6">
      <g>
       <use style="stroke:#000000;stroke-width:0.8;" x="235.371429" xlink:href="#ma3ba9c15c1" y="298.245375"/>
      </g>
     </g>
     <g id="text_3">
      <!-- 4 -->
      <defs>
       <path d="M 37.796875 64.3125 
L 12.890625 25.390625 
L 37.796875 25.390625 
z
M 35.203125 72.90625 
L 47.609375 72.90625 
L 47.609375 25.390625 
L 58.015625 25.390625 
L 58.015625 17.1875 
L 47.609375 17.1875 
L 47.609375 0 
L 37.796875 0 
L 37.796875 17.1875 
L 4.890625 17.1875 
L 4.890625 26.703125 
z
" id="DejaVuSans-34"/>
      </defs>
      <g transform="translate(229.008929 320.44225)scale(0.2 -0.2)">
       <use xlink:href="#DejaVuSans-34"/>
      </g>
     </g>
    </g>
    <g id="xtick_4">
     <g id="line2d_7">
      <path clip-path="url(#p18dc41a5c8)" d="M 317.657143 298.245375 
L 317.657143 32.133375 
" style="fill:none;stroke:#b0b0b0;stroke-linecap:square;stroke-width:0.8;"/>
     </g>
     <g id="line2d_8">
      <g>
       <use style="stroke:#000000;stroke-width:0.8;" x="317.657143" xlink:href="#ma3ba9c15c1" y="298.245375"/>
      </g>
     </g>
     <g id="text_4">
      <!-- 6 -->
      <defs>
       <path d="M 33.015625 40.375 
Q 26.375 40.375 22.484375 35.828125 
Q 18.609375 31.296875 18.609375 23.390625 
Q 18.609375 15.53125 22.484375 10.953125 
Q 26.375 6.390625 33.015625 6.390625 
Q 39.65625 6.390625 43.53125 10.953125 
Q 47.40625 15.53125 47.40625 23.390625 
Q 47.40625 31.296875 43.53125 35.828125 
Q 39.65625 40.375 33.015625 40.375 
M 52.59375 71.296875 
L 52.59375 62.3125 
Q 48.875 64.0625 45.09375 64.984375 
Q 41.3125 65.921875 37.59375 65.921875 
Q 27.828125 65.921875 22.671875 59.328125 
Q 17.53125 52.734375 16.796875 39.40625 
Q 19.671875 43.65625 24.015625 45.921875 
Q 28.375 48.1875 33.59375 48.1875 
Q 44.578125 48.1875 50.953125 41.515625 
Q 57.328125 34.859375 57.328125 23.390625 
Q 57.328125 12.15625 50.6875 5.359375 
Q 44.046875 -1.421875 33.015625 -1.421875 
Q 20.359375 -1.421875 13.671875 8.265625 
Q 6.984375 17.96875 6.984375 36.375 
Q 6.984375 53.65625 15.1875 63.9375 
Q 23.390625 74.21875 37.203125 74.21875 
Q 40.921875 74.21875 44.703125 73.484375 
Q 48.484375 72.75 52.59375 71.296875 
" id="DejaVuSans-36"/>
      </defs>
      <g transform="translate(311.294643 320.44225)scale(0.2 -0.2)">
       <use xlink:href="#DejaVuSans-36"/>
      </g>
     </g>
    </g>
    <g id="xtick_5">
     <g id="line2d_9">
      <path clip-path="url(#p18dc41a5c8)" d="M 399.942857 298.245375 
L 399.942857 32.133375 
" style="fill:none;stroke:#b0b0b0;stroke-linecap:square;stroke-width:0.8;"/>
     </g>
     <g id="line2d_10">
      <g>
       <use style="stroke:#000000;stroke-width:0.8;" x="399.942857" xlink:href="#ma3ba9c15c1" y="298.245375"/>
      </g>
     </g>
     <g id="text_5">
      <!-- 8 -->
      <defs>
       <path d="M 31.78125 34.625 
Q 24.75 34.625 20.71875 30.859375 
Q 16.703125 27.09375 16.703125 20.515625 
Q 16.703125 13.921875 20.71875 10.15625 
Q 24.75 6.390625 31.78125 6.390625 
Q 38.8125 6.390625 42.859375 10.171875 
Q 46.921875 13.96875 46.921875 20.515625 
Q 46.921875 27.09375 42.890625 30.859375 
Q 38.875 34.625 31.78125 34.625 
M 21.921875 38.8125 
Q 15.578125 40.375 12.03125 44.71875 
Q 8.5 49.078125 8.5 55.328125 
Q 8.5 64.0625 14.71875 69.140625 
Q 20.953125 74.21875 31.78125 74.21875 
Q 42.671875 74.21875 48.875 69.140625 
Q 55.078125 64.0625 55.078125 55.328125 
Q 55.078125 49.078125 51.53125 44.71875 
Q 48 40.375 41.703125 38.8125 
Q 48.828125 37.15625 52.796875 32.3125 
Q 56.78125 27.484375 56.78125 20.515625 
Q 56.78125 9.90625 50.3125 4.234375 
Q 43.84375 -1.421875 31.78125 -1.421875 
Q 19.734375 -1.421875 13.25 4.234375 
Q 6.78125 9.90625 6.78125 20.515625 
Q 6.78125 27.484375 10.78125 32.3125 
Q 14.796875 37.15625 21.921875 38.8125 
M 18.3125 54.390625 
Q 18.3125 48.734375 21.84375 45.5625 
Q 25.390625 42.390625 31.78125 42.390625 
Q 38.140625 42.390625 41.71875 45.5625 
Q 45.3125 48.734375 45.3125 54.390625 
Q 45.3125 60.0625 41.71875 63.234375 
Q 38.140625 66.40625 31.78125 66.40625 
Q 25.390625 66.40625 21.84375 63.234375 
Q 18.3125 60.0625 18.3125 54.390625 
" id="DejaVuSans-38"/>
      </defs>
      <g transform="translate(393.580357 320.44225)scale(0.2 -0.2)">
       <use xlink:href="#DejaVuSans-38"/>
      </g>
     </g>
    </g>
    <g id="xtick_6">
     <g id="line2d_11">
      <defs>
       <path d="M 0 0 
L 0 2 
" id="md1cba423fe" style="stroke:#000000;stroke-width:0.6;"/>
      </defs>
      <g>
       <use style="stroke:#000000;stroke-width:0.6;" x="83.185234" xlink:href="#md1cba423fe" y="298.245375"/>
      </g>
     </g>
    </g>
    <g id="xtick_7">
     <g id="line2d_12">
      <g>
       <use style="stroke:#000000;stroke-width:0.6;" x="95.570468" xlink:href="#md1cba423fe" y="298.245375"/>
      </g>
     </g>
    </g>
    <g id="xtick_8">
     <g id="line2d_13">
      <g>
       <use style="stroke:#000000;stroke-width:0.6;" x="102.815366" xlink:href="#md1cba423fe" y="298.245375"/>
      </g>
     </g>
    </g>
    <g id="xtick_9">
     <g id="line2d_14">
      <g>
       <use style="stroke:#000000;stroke-width:0.6;" x="107.955702" xlink:href="#md1cba423fe" y="298.245375"/>
      </g>
     </g>
    </g>
    <g id="xtick_10">
     <g id="line2d_15">
      <g>
       <use style="stroke:#000000;stroke-width:0.6;" x="165.470948" xlink:href="#md1cba423fe" y="298.245375"/>
      </g>
     </g>
    </g>
    <g id="xtick_11">
     <g id="line2d_16">
      <g>
       <use style="stroke:#000000;stroke-width:0.6;" x="177.856183" xlink:href="#md1cba423fe" y="298.245375"/>
      </g>
     </g>
    </g>
    <g id="xtick_12">
     <g id="line2d_17">
      <g>
       <use style="stroke:#000000;stroke-width:0.6;" x="185.10108" xlink:href="#md1cba423fe" y="298.245375"/>
      </g>
     </g>
    </g>
    <g id="xtick_13">
     <g id="line2d_18">
      <g>
       <use style="stroke:#000000;stroke-width:0.6;" x="190.241417" xlink:href="#md1cba423fe" y="298.245375"/>
      </g>
     </g>
    </g>
    <g id="xtick_14">
     <g id="line2d_19">
      <g>
       <use style="stroke:#000000;stroke-width:0.6;" x="247.756663" xlink:href="#md1cba423fe" y="298.245375"/>
      </g>
     </g>
    </g>
    <g id="xtick_15">
     <g id="line2d_20">
      <g>
       <use style="stroke:#000000;stroke-width:0.6;" x="260.141897" xlink:href="#md1cba423fe" y="298.245375"/>
      </g>
     </g>
    </g>
    <g id="xtick_16">
     <g id="line2d_21">
      <g>
       <use style="stroke:#000000;stroke-width:0.6;" x="267.386794" xlink:href="#md1cba423fe" y="298.245375"/>
      </g>
     </g>
    </g>
    <g id="xtick_17">
     <g id="line2d_22">
      <g>
       <use style="stroke:#000000;stroke-width:0.6;" x="272.527131" xlink:href="#md1cba423fe" y="298.245375"/>
      </g>
     </g>
    </g>
    <g id="xtick_18">
     <g id="line2d_23">
      <g>
       <use style="stroke:#000000;stroke-width:0.6;" x="330.042377" xlink:href="#md1cba423fe" y="298.245375"/>
      </g>
     </g>
    </g>
    <g id="xtick_19">
     <g id="line2d_24">
      <g>
       <use style="stroke:#000000;stroke-width:0.6;" x="342.427611" xlink:href="#md1cba423fe" y="298.245375"/>
      </g>
     </g>
    </g>
    <g id="xtick_20">
     <g id="line2d_25">
      <g>
       <use style="stroke:#000000;stroke-width:0.6;" x="349.672509" xlink:href="#md1cba423fe" y="298.245375"/>
      </g>
     </g>
    </g>
    <g id="xtick_21">
     <g id="line2d_26">
      <g>
       <use style="stroke:#000000;stroke-width:0.6;" x="354.812845" xlink:href="#md1cba423fe" y="298.245375"/>
      </g>
     </g>
    </g>
    <g id="xtick_22">
     <g id="line2d_27">
      <g>
       <use style="stroke:#000000;stroke-width:0.6;" x="412.328091" xlink:href="#md1cba423fe" y="298.245375"/>
      </g>
     </g>
    </g>
    <g id="xtick_23">
     <g id="line2d_28">
      <g>
       <use style="stroke:#000000;stroke-width:0.6;" x="424.713325" xlink:href="#md1cba423fe" y="298.245375"/>
      </g>
     </g>
    </g>
    <g id="text_6">
     <!-- log10 of (# f-evals / dimension) -->
     <defs>
      <path d="M 9.421875 75.984375 
L 18.40625 75.984375 
L 18.40625 0 
L 9.421875 0 
z
" id="DejaVuSans-6c"/>
      <path d="M 30.609375 48.390625 
Q 23.390625 48.390625 19.1875 42.75 
Q 14.984375 37.109375 14.984375 27.296875 
Q 14.984375 17.484375 19.15625 11.84375 
Q 23.34375 6.203125 30.609375 6.203125 
Q 37.796875 6.203125 41.984375 11.859375 
Q 46.1875 17.53125 46.1875 27.296875 
Q 46.1875 37.015625 41.984375 42.703125 
Q 37.796875 48.390625 30.609375 48.390625 
M 30.609375 56 
Q 42.328125 56 49.015625 48.375 
Q 55.71875 40.765625 55.71875 27.296875 
Q 55.71875 13.875 49.015625 6.21875 
Q 42.328125 -1.421875 30.609375 -1.421875 
Q 18.84375 -1.421875 12.171875 6.21875 
Q 5.515625 13.875 5.515625 27.296875 
Q 5.515625 40.765625 12.171875 48.375 
Q 18.84375 56 30.609375 56 
" id="DejaVuSans-6f"/>
      <path d="M 45.40625 27.984375 
Q 45.40625 37.75 41.375 43.109375 
Q 37.359375 48.484375 30.078125 48.484375 
Q 22.859375 48.484375 18.828125 43.109375 
Q 14.796875 37.75 14.796875 27.984375 
Q 14.796875 18.265625 18.828125 12.890625 
Q 22.859375 7.515625 30.078125 7.515625 
Q 37.359375 7.515625 41.375 12.890625 
Q 45.40625 18.265625 45.40625 27.984375 
M 54.390625 6.78125 
Q 54.390625 -7.171875 48.1875 -13.984375 
Q 42 -20.796875 29.203125 -20.796875 
Q 24.46875 -20.796875 20.265625 -20.09375 
Q 16.0625 -19.390625 12.109375 -17.921875 
L 12.109375 -9.1875 
Q 16.0625 -11.328125 19.921875 -12.34375 
Q 23.78125 -13.375 27.78125 -13.375 
Q 36.625 -13.375 41.015625 -8.765625 
Q 45.40625 -4.15625 45.40625 5.171875 
L 45.40625 9.625 
Q 42.625 4.78125 38.28125 2.390625 
Q 33.9375 0 27.875 0 
Q 17.828125 0 11.671875 7.65625 
Q 5.515625 15.328125 5.515625 27.984375 
Q 5.515625 40.671875 11.671875 48.328125 
Q 17.828125 56 27.875 56 
Q 33.9375 56 38.28125 53.609375 
Q 42.625 51.21875 45.40625 46.390625 
L 45.40625 54.6875 
L 54.390625 54.6875 
z
" id="DejaVuSans-67"/>
      <path d="M 12.40625 8.296875 
L 28.515625 8.296875 
L 28.515625 63.921875 
L 10.984375 60.40625 
L 10.984375 69.390625 
L 28.421875 72.90625 
L 38.28125 72.90625 
L 38.28125 8.296875 
L 54.390625 8.296875 
L 54.390625 0 
L 12.40625 0 
z
" id="DejaVuSans-31"/>
      <path id="DejaVuSans-20"/>
      <path d="M 37.109375 75.984375 
L 37.109375 68.5 
L 28.515625 68.5 
Q 23.6875 68.5 21.796875 66.546875 
Q 19.921875 64.59375 19.921875 59.515625 
L 19.921875 54.6875 
L 34.71875 54.6875 
L 34.71875 47.703125 
L 19.921875 47.703125 
L 19.921875 0 
L 10.890625 0 
L 10.890625 47.703125 
L 2.296875 47.703125 
L 2.296875 54.6875 
L 10.890625 54.6875 
L 10.890625 58.5 
Q 10.890625 67.625 15.140625 71.796875 
Q 19.390625 75.984375 28.609375 75.984375 
z
" id="DejaVuSans-66"/>
      <path d="M 31 75.875 
Q 24.46875 64.65625 21.28125 53.65625 
Q 18.109375 42.671875 18.109375 31.390625 
Q 18.109375 20.125 21.3125 9.0625 
Q 24.515625 -2 31 -13.1875 
L 23.1875 -13.1875 
Q 15.875 -1.703125 12.234375 9.375 
Q 8.59375 20.453125 8.59375 31.390625 
Q 8.59375 42.28125 12.203125 53.3125 
Q 15.828125 64.359375 23.1875 75.875 
z
" id="DejaVuSans-28"/>
      <path d="M 51.125 44 
L 36.921875 44 
L 32.8125 27.6875 
L 47.125 27.6875 
z
M 43.796875 71.78125 
L 38.71875 51.515625 
L 52.984375 51.515625 
L 58.109375 71.78125 
L 65.921875 71.78125 
L 60.890625 51.515625 
L 76.125 51.515625 
L 76.125 44 
L 58.984375 44 
L 54.984375 27.6875 
L 70.515625 27.6875 
L 70.515625 20.21875 
L 53.078125 20.21875 
L 48 0 
L 40.1875 0 
L 45.21875 20.21875 
L 30.90625 20.21875 
L 25.875 0 
L 18.015625 0 
L 23.09375 20.21875 
L 7.71875 20.21875 
L 7.71875 27.6875 
L 24.90625 27.6875 
L 29 44 
L 13.28125 44 
L 13.28125 51.515625 
L 30.90625 51.515625 
L 35.890625 71.78125 
z
" id="DejaVuSans-23"/>
      <path d="M 4.890625 31.390625 
L 31.203125 31.390625 
L 31.203125 23.390625 
L 4.890625 23.390625 
z
" id="DejaVuSans-2d"/>
      <path d="M 56.203125 29.59375 
L 56.203125 25.203125 
L 14.890625 25.203125 
Q 15.484375 15.921875 20.484375 11.0625 
Q 25.484375 6.203125 34.421875 6.203125 
Q 39.59375 6.203125 44.453125 7.46875 
Q 49.3125 8.734375 54.109375 11.28125 
L 54.109375 2.78125 
Q 49.265625 0.734375 44.1875 -0.34375 
Q 39.109375 -1.421875 33.890625 -1.421875 
Q 20.796875 -1.421875 13.15625 6.1875 
Q 5.515625 13.8125 5.515625 26.8125 
Q 5.515625 40.234375 12.765625 48.109375 
Q 20.015625 56 32.328125 56 
Q 43.359375 56 49.78125 48.890625 
Q 56.203125 41.796875 56.203125 29.59375 
M 47.21875 32.234375 
Q 47.125 39.59375 43.09375 43.984375 
Q 39.0625 48.390625 32.421875 48.390625 
Q 24.90625 48.390625 20.390625 44.140625 
Q 15.875 39.890625 15.1875 32.171875 
z
" id="DejaVuSans-65"/>
      <path d="M 2.984375 54.6875 
L 12.5 54.6875 
L 29.59375 8.796875 
L 46.6875 54.6875 
L 56.203125 54.6875 
L 35.6875 0 
L 23.484375 0 
z
" id="DejaVuSans-76"/>
      <path d="M 34.28125 27.484375 
Q 23.390625 27.484375 19.1875 25 
Q 14.984375 22.515625 14.984375 16.5 
Q 14.984375 11.71875 18.140625 8.90625 
Q 21.296875 6.109375 26.703125 6.109375 
Q 34.1875 6.109375 38.703125 11.40625 
Q 43.21875 16.703125 43.21875 25.484375 
L 43.21875 27.484375 
z
M 52.203125 31.203125 
L 52.203125 0 
L 43.21875 0 
L 43.21875 8.296875 
Q 40.140625 3.328125 35.546875 0.953125 
Q 30.953125 -1.421875 24.3125 -1.421875 
Q 15.921875 -1.421875 10.953125 3.296875 
Q 6 8.015625 6 15.921875 
Q 6 25.140625 12.171875 29.828125 
Q 18.359375 34.515625 30.609375 34.515625 
L 43.21875 34.515625 
L 43.21875 35.40625 
Q 43.21875 41.609375 39.140625 45 
Q 35.0625 48.390625 27.6875 48.390625 
Q 23 48.390625 18.546875 47.265625 
Q 14.109375 46.140625 10.015625 43.890625 
L 10.015625 52.203125 
Q 14.9375 54.109375 19.578125 55.046875 
Q 24.21875 56 28.609375 56 
Q 40.484375 56 46.34375 49.84375 
Q 52.203125 43.703125 52.203125 31.203125 
" id="DejaVuSans-61"/>
      <path d="M 44.28125 53.078125 
L 44.28125 44.578125 
Q 40.484375 46.53125 36.375 47.5 
Q 32.28125 48.484375 27.875 48.484375 
Q 21.1875 48.484375 17.84375 46.4375 
Q 14.5 44.390625 14.5 40.28125 
Q 14.5 37.15625 16.890625 35.375 
Q 19.28125 33.59375 26.515625 31.984375 
L 29.59375 31.296875 
Q 39.15625 29.25 43.1875 25.515625 
Q 47.21875 21.78125 47.21875 15.09375 
Q 47.21875 7.46875 41.1875 3.015625 
Q 35.15625 -1.421875 24.609375 -1.421875 
Q 20.21875 -1.421875 15.453125 -0.5625 
Q 10.6875 0.296875 5.421875 2 
L 5.421875 11.28125 
Q 10.40625 8.6875 15.234375 7.390625 
Q 20.0625 6.109375 24.8125 6.109375 
Q 31.15625 6.109375 34.5625 8.28125 
Q 37.984375 10.453125 37.984375 14.40625 
Q 37.984375 18.0625 35.515625 20.015625 
Q 33.0625 21.96875 24.703125 23.78125 
L 21.578125 24.515625 
Q 13.234375 26.265625 9.515625 29.90625 
Q 5.8125 33.546875 5.8125 39.890625 
Q 5.8125 47.609375 11.28125 51.796875 
Q 16.75 56 26.8125 56 
Q 31.78125 56 36.171875 55.265625 
Q 40.578125 54.546875 44.28125 53.078125 
" id="DejaVuSans-73"/>
      <path d="M 25.390625 72.90625 
L 33.6875 72.90625 
L 8.296875 -9.28125 
L 0 -9.28125 
z
" id="DejaVuSans-2f"/>
      <path d="M 45.40625 46.390625 
L 45.40625 75.984375 
L 54.390625 75.984375 
L 54.390625 0 
L 45.40625 0 
L 45.40625 8.203125 
Q 42.578125 3.328125 38.25 0.953125 
Q 33.9375 -1.421875 27.875 -1.421875 
Q 17.96875 -1.421875 11.734375 6.484375 
Q 5.515625 14.40625 5.515625 27.296875 
Q 5.515625 40.1875 11.734375 48.09375 
Q 17.96875 56 27.875 56 
Q 33.9375 56 38.25 53.625 
Q 42.578125 51.265625 45.40625 46.390625 
M 14.796875 27.296875 
Q 14.796875 17.390625 18.875 11.75 
Q 22.953125 6.109375 30.078125 6.109375 
Q 37.203125 6.109375 41.296875 11.75 
Q 45.40625 17.390625 45.40625 27.296875 
Q 45.40625 37.203125 41.296875 42.84375 
Q 37.203125 48.484375 30.078125 48.484375 
Q 22.953125 48.484375 18.875 42.84375 
Q 14.796875 37.203125 14.796875 27.296875 
" id="DejaVuSans-64"/>
      <path d="M 9.421875 54.6875 
L 18.40625 54.6875 
L 18.40625 0 
L 9.421875 0 
z
M 9.421875 75.984375 
L 18.40625 75.984375 
L 18.40625 64.59375 
L 9.421875 64.59375 
z
" id="DejaVuSans-69"/>
      <path d="M 52 44.1875 
Q 55.375 50.25 60.0625 53.125 
Q 64.75 56 71.09375 56 
Q 79.640625 56 84.28125 50.015625 
Q 88.921875 44.046875 88.921875 33.015625 
L 88.921875 0 
L 79.890625 0 
L 79.890625 32.71875 
Q 79.890625 40.578125 77.09375 44.375 
Q 74.3125 48.1875 68.609375 48.1875 
Q 61.625 48.1875 57.5625 43.546875 
Q 53.515625 38.921875 53.515625 30.90625 
L 53.515625 0 
L 44.484375 0 
L 44.484375 32.71875 
Q 44.484375 40.625 41.703125 44.40625 
Q 38.921875 48.1875 33.109375 48.1875 
Q 26.21875 48.1875 22.15625 43.53125 
Q 18.109375 38.875 18.109375 30.90625 
L 18.109375 0 
L 9.078125 0 
L 9.078125 54.6875 
L 18.109375 54.6875 
L 18.109375 46.1875 
Q 21.1875 51.21875 25.484375 53.609375 
Q 29.78125 56 35.6875 56 
Q 41.65625 56 45.828125 52.96875 
Q 50 49.953125 52 44.1875 
" id="DejaVuSans-6d"/>
      <path d="M 54.890625 33.015625 
L 54.890625 0 
L 45.90625 0 
L 45.90625 32.71875 
Q 45.90625 40.484375 42.875 44.328125 
Q 39.84375 48.1875 33.796875 48.1875 
Q 26.515625 48.1875 22.3125 43.546875 
Q 18.109375 38.921875 18.109375 30.90625 
L 18.109375 0 
L 9.078125 0 
L 9.078125 54.6875 
L 18.109375 54.6875 
L 18.109375 46.1875 
Q 21.34375 51.125 25.703125 53.5625 
Q 30.078125 56 35.796875 56 
Q 45.21875 56 50.046875 50.171875 
Q 54.890625 44.34375 54.890625 33.015625 
" id="DejaVuSans-6e"/>
      <path d="M 8.015625 75.875 
L 15.828125 75.875 
Q 23.140625 64.359375 26.78125 53.3125 
Q 30.421875 42.28125 30.421875 31.390625 
Q 30.421875 20.453125 26.78125 9.375 
Q 23.140625 -1.703125 15.828125 -13.1875 
L 8.015625 -13.1875 
Q 14.5 -2 17.703125 9.0625 
Q 20.90625 20.125 20.90625 31.390625 
Q 20.90625 42.671875 17.703125 53.65625 
Q 14.5 64.65625 8.015625 75.875 
" id="DejaVuSans-29"/>
     </defs>
     <g transform="translate(107.015156 342.278812)scale(0.18 -0.18)">
      <use xlink:href="#DejaVuSans-6c"/>
      <use x="27.783203" xlink:href="#DejaVuSans-6f"/>
      <use x="88.964844" xlink:href="#DejaVuSans-67"/>
      <use x="152.441406" xlink:href="#DejaVuSans-31"/>
      <use x="216.064453" xlink:href="#DejaVuSans-30"/>
      <use x="279.6875" xlink:href="#DejaVuSans-20"/>
      <use x="311.474609" xlink:href="#DejaVuSans-6f"/>
      <use x="372.65625" xlink:href="#DejaVuSans-66"/>
      <use x="407.861328" xlink:href="#DejaVuSans-20"/>
      <use x="439.648438" xlink:href="#DejaVuSans-28"/>
      <use x="478.662109" xlink:href="#DejaVuSans-23"/>
      <use x="562.451172" xlink:href="#DejaVuSans-20"/>
      <use x="594.238281" xlink:href="#DejaVuSans-66"/>
      <use x="629.365234" xlink:href="#DejaVuSans-2d"/>
      <use x="665.449219" xlink:href="#DejaVuSans-65"/>
      <use x="726.972656" xlink:href="#DejaVuSans-76"/>
      <use x="786.152344" xlink:href="#DejaVuSans-61"/>
      <use x="847.431641" xlink:href="#DejaVuSans-6c"/>
      <use x="875.214844" xlink:href="#DejaVuSans-73"/>
      <use x="927.314453" xlink:href="#DejaVuSans-20"/>
      <use x="959.101562" xlink:href="#DejaVuSans-2f"/>
      <use x="992.792969" xlink:href="#DejaVuSans-20"/>
      <use x="1024.580078" xlink:href="#DejaVuSans-64"/>
      <use x="1088.056641" xlink:href="#DejaVuSans-69"/>
      <use x="1115.839844" xlink:href="#DejaVuSans-6d"/>
      <use x="1213.251953" xlink:href="#DejaVuSans-65"/>
      <use x="1274.775391" xlink:href="#DejaVuSans-6e"/>
      <use x="1338.154297" xlink:href="#DejaVuSans-73"/>
      <use x="1390.253906" xlink:href="#DejaVuSans-69"/>
      <use x="1418.037109" xlink:href="#DejaVuSans-6f"/>
      <use x="1479.21875" xlink:href="#DejaVuSans-6e"/>
      <use x="1542.597656" xlink:href="#DejaVuSans-29"/>
     </g>
    </g>
   </g>
   <g id="matplotlib.axis_2">
    <g id="ytick_1">
     <g id="line2d_29">
      <path clip-path="url(#p18dc41a5c8)" d="M 70.8 298.245375 
L 427.92 298.245375 
" style="fill:none;stroke:#b0b0b0;stroke-linecap:square;stroke-width:0.8;"/>
     </g>
     <g id="line2d_30">
      <defs>
       <path d="M 0 0 
L -3.5 0 
" id="m05c2499ed7" style="stroke:#000000;stroke-width:0.8;"/>
      </defs>
      <g>
       <use style="stroke:#000000;stroke-width:0.8;" x="70.8" xlink:href="#m05c2499ed7" y="298.245375"/>
      </g>
     </g>
     <g id="text_7">
      <!-- 0.0 -->
      <defs>
       <path d="M 10.6875 12.40625 
L 21 12.40625 
L 21 0 
L 10.6875 0 
z
" id="DejaVuSans-2e"/>
      </defs>
      <g transform="translate(31.99375 305.843812)scale(0.2 -0.2)">
       <use xlink:href="#DejaVuSans-30"/>
       <use x="63.623047" xlink:href="#DejaVuSans-2e"/>
       <use x="95.410156" xlink:href="#DejaVuSans-30"/>
      </g>
     </g>
    </g>
    <g id="ytick_2">
     <g id="line2d_31">
      <path clip-path="url(#p18dc41a5c8)" d="M 70.8 245.549929 
L 427.92 245.549929 
" style="fill:none;stroke:#b0b0b0;stroke-linecap:square;stroke-width:0.8;"/>
     </g>
     <g id="line2d_32">
      <g>
       <use style="stroke:#000000;stroke-width:0.8;" x="70.8" xlink:href="#m05c2499ed7" y="245.549929"/>
      </g>
     </g>
     <g id="text_8">
      <!-- 0.2 -->
      <g transform="translate(31.99375 253.148367)scale(0.2 -0.2)">
       <use xlink:href="#DejaVuSans-30"/>
       <use x="63.623047" xlink:href="#DejaVuSans-2e"/>
       <use x="95.410156" xlink:href="#DejaVuSans-32"/>
      </g>
     </g>
    </g>
    <g id="ytick_3">
     <g id="line2d_33">
      <path clip-path="url(#p18dc41a5c8)" d="M 70.8 192.854484 
L 427.92 192.854484 
" style="fill:none;stroke:#b0b0b0;stroke-linecap:square;stroke-width:0.8;"/>
     </g>
     <g id="line2d_34">
      <g>
       <use style="stroke:#000000;stroke-width:0.8;" x="70.8" xlink:href="#m05c2499ed7" y="192.854484"/>
      </g>
     </g>
     <g id="text_9">
      <!-- 0.4 -->
      <g transform="translate(31.99375 200.452921)scale(0.2 -0.2)">
       <use xlink:href="#DejaVuSans-30"/>
       <use x="63.623047" xlink:href="#DejaVuSans-2e"/>
       <use x="95.410156" xlink:href="#DejaVuSans-34"/>
      </g>
     </g>
    </g>
    <g id="ytick_4">
     <g id="line2d_35">
      <path clip-path="url(#p18dc41a5c8)" d="M 70.8 140.159038 
L 427.92 140.159038 
" style="fill:none;stroke:#b0b0b0;stroke-linecap:square;stroke-width:0.8;"/>
     </g>
     <g id="line2d_36">
      <g>
       <use style="stroke:#000000;stroke-width:0.8;" x="70.8" xlink:href="#m05c2499ed7" y="140.159038"/>
      </g>
     </g>
     <g id="text_10">
      <!-- 0.6 -->
      <g transform="translate(31.99375 147.757476)scale(0.2 -0.2)">
       <use xlink:href="#DejaVuSans-30"/>
       <use x="63.623047" xlink:href="#DejaVuSans-2e"/>
       <use x="95.410156" xlink:href="#DejaVuSans-36"/>
      </g>
     </g>
    </g>
    <g id="ytick_5">
     <g id="line2d_37">
      <path clip-path="url(#p18dc41a5c8)" d="M 70.8 87.463593 
L 427.92 87.463593 
" style="fill:none;stroke:#b0b0b0;stroke-linecap:square;stroke-width:0.8;"/>
     </g>
     <g id="line2d_38">
      <g>
       <use style="stroke:#000000;stroke-width:0.8;" x="70.8" xlink:href="#m05c2499ed7" y="87.463593"/>
      </g>
     </g>
     <g id="text_11">
      <!-- 0.8 -->
      <g transform="translate(31.99375 95.06203)scale(0.2 -0.2)">
       <use xlink:href="#DejaVuSans-30"/>
       <use x="63.623047" xlink:href="#DejaVuSans-2e"/>
       <use x="95.410156" xlink:href="#DejaVuSans-38"/>
      </g>
     </g>
    </g>
    <g id="ytick_6">
     <g id="line2d_39">
      <path clip-path="url(#p18dc41a5c8)" d="M 70.8 34.768147 
L 427.92 34.768147 
" style="fill:none;stroke:#b0b0b0;stroke-linecap:square;stroke-width:0.8;"/>
     </g>
     <g id="line2d_40">
      <g>
       <use style="stroke:#000000;stroke-width:0.8;" x="70.8" xlink:href="#m05c2499ed7" y="34.768147"/>
      </g>
     </g>
     <g id="text_12">
      <!-- 1.0 -->
      <g transform="translate(31.99375 42.366585)scale(0.2 -0.2)">
       <use xlink:href="#DejaVuSans-31"/>
       <use x="63.623047" xlink:href="#DejaVuSans-2e"/>
       <use x="95.410156" xlink:href="#DejaVuSans-30"/>
      </g>
     </g>
    </g>
    <g id="text_13">
     <!-- Proportion of function+target pairs -->
     <defs>
      <path d="M 19.671875 64.796875 
L 19.671875 37.40625 
L 32.078125 37.40625 
Q 38.96875 37.40625 42.71875 40.96875 
Q 46.484375 44.53125 46.484375 51.125 
Q 46.484375 57.671875 42.71875 61.234375 
Q 38.96875 64.796875 32.078125 64.796875 
z
M 9.8125 72.90625 
L 32.078125 72.90625 
Q 44.34375 72.90625 50.609375 67.359375 
Q 56.890625 61.8125 56.890625 51.125 
Q 56.890625 40.328125 50.609375 34.8125 
Q 44.34375 29.296875 32.078125 29.296875 
L 19.671875 29.296875 
L 19.671875 0 
L 9.8125 0 
z
" id="DejaVuSans-50"/>
      <path d="M 41.109375 46.296875 
Q 39.59375 47.171875 37.8125 47.578125 
Q 36.03125 48 33.890625 48 
Q 26.265625 48 22.1875 43.046875 
Q 18.109375 38.09375 18.109375 28.8125 
L 18.109375 0 
L 9.078125 0 
L 9.078125 54.6875 
L 18.109375 54.6875 
L 18.109375 46.1875 
Q 20.953125 51.171875 25.484375 53.578125 
Q 30.03125 56 36.53125 56 
Q 37.453125 56 38.578125 55.875 
Q 39.703125 55.765625 41.0625 55.515625 
z
" id="DejaVuSans-72"/>
      <path d="M 18.109375 8.203125 
L 18.109375 -20.796875 
L 9.078125 -20.796875 
L 9.078125 54.6875 
L 18.109375 54.6875 
L 18.109375 46.390625 
Q 20.953125 51.265625 25.265625 53.625 
Q 29.59375 56 35.59375 56 
Q 45.5625 56 51.78125 48.09375 
Q 58.015625 40.1875 58.015625 27.296875 
Q 58.015625 14.40625 51.78125 6.484375 
Q 45.5625 -1.421875 35.59375 -1.421875 
Q 29.59375 -1.421875 25.265625 0.953125 
Q 20.953125 3.328125 18.109375 8.203125 
M 48.6875 27.296875 
Q 48.6875 37.203125 44.609375 42.84375 
Q 40.53125 48.484375 33.40625 48.484375 
Q 26.265625 48.484375 22.1875 42.84375 
Q 18.109375 37.203125 18.109375 27.296875 
Q 18.109375 17.390625 22.1875 11.75 
Q 26.265625 6.109375 33.40625 6.109375 
Q 40.53125 6.109375 44.609375 11.75 
Q 48.6875 17.390625 48.6875 27.296875 
" id="DejaVuSans-70"/>
      <path d="M 18.3125 70.21875 
L 18.3125 54.6875 
L 36.8125 54.6875 
L 36.8125 47.703125 
L 18.3125 47.703125 
L 18.3125 18.015625 
Q 18.3125 11.328125 20.140625 9.421875 
Q 21.96875 7.515625 27.59375 7.515625 
L 36.8125 7.515625 
L 36.8125 0 
L 27.59375 0 
Q 17.1875 0 13.234375 3.875 
Q 9.28125 7.765625 9.28125 18.015625 
L 9.28125 47.703125 
L 2.6875 47.703125 
L 2.6875 54.6875 
L 9.28125 54.6875 
L 9.28125 70.21875 
z
" id="DejaVuSans-74"/>
      <path d="M 8.5 21.578125 
L 8.5 54.6875 
L 17.484375 54.6875 
L 17.484375 21.921875 
Q 17.484375 14.15625 20.5 10.265625 
Q 23.53125 6.390625 29.59375 6.390625 
Q 36.859375 6.390625 41.078125 11.03125 
Q 45.3125 15.671875 45.3125 23.6875 
L 45.3125 54.6875 
L 54.296875 54.6875 
L 54.296875 0 
L 45.3125 0 
L 45.3125 8.40625 
Q 42.046875 3.421875 37.71875 1 
Q 33.40625 -1.421875 27.6875 -1.421875 
Q 18.265625 -1.421875 13.375 4.4375 
Q 8.5 10.296875 8.5 21.578125 
M 31.109375 56 
z
" id="DejaVuSans-75"/>
      <path d="M 48.78125 52.59375 
L 48.78125 44.1875 
Q 44.96875 46.296875 41.140625 47.34375 
Q 37.3125 48.390625 33.40625 48.390625 
Q 24.65625 48.390625 19.8125 42.84375 
Q 14.984375 37.3125 14.984375 27.296875 
Q 14.984375 17.28125 19.8125 11.734375 
Q 24.65625 6.203125 33.40625 6.203125 
Q 37.3125 6.203125 41.140625 7.25 
Q 44.96875 8.296875 48.78125 10.40625 
L 48.78125 2.09375 
Q 45.015625 0.34375 40.984375 -0.53125 
Q 36.96875 -1.421875 32.421875 -1.421875 
Q 20.0625 -1.421875 12.78125 6.34375 
Q 5.515625 14.109375 5.515625 27.296875 
Q 5.515625 40.671875 12.859375 48.328125 
Q 20.21875 56 33.015625 56 
Q 37.15625 56 41.109375 55.140625 
Q 45.0625 54.296875 48.78125 52.59375 
" id="DejaVuSans-63"/>
      <path d="M 46 62.703125 
L 46 35.5 
L 73.1875 35.5 
L 73.1875 27.203125 
L 46 27.203125 
L 46 0 
L 37.796875 0 
L 37.796875 27.203125 
L 10.59375 27.203125 
L 10.59375 35.5 
L 37.796875 35.5 
L 37.796875 62.703125 
z
" id="DejaVuSans-2b"/>
     </defs>
     <g transform="translate(24.250312 323.17875)rotate(-90)scale(0.18 -0.18)">
      <use xlink:href="#DejaVuSans-50"/>
      <use x="60.287109" xlink:href="#DejaVuSans-72"/>
      <use x="101.369141" xlink:href="#DejaVuSans-6f"/>
      <use x="162.550781" xlink:href="#DejaVuSans-70"/>
      <use x="226.027344" xlink:href="#DejaVuSans-6f"/>
      <use x="287.208984" xlink:href="#DejaVuSans-72"/>
      <use x="328.322266" xlink:href="#DejaVuSans-74"/>
      <use x="367.53125" xlink:href="#DejaVuSans-69"/>
      <use x="395.314453" xlink:href="#DejaVuSans-6f"/>
      <use x="456.496094" xlink:href="#DejaVuSans-6e"/>
      <use x="519.875" xlink:href="#DejaVuSans-20"/>
      <use x="551.662109" xlink:href="#DejaVuSans-6f"/>
      <use x="612.84375" xlink:href="#DejaVuSans-66"/>
      <use x="648.048828" xlink:href="#DejaVuSans-20"/>
      <use x="679.835938" xlink:href="#DejaVuSans-66"/>
      <use x="715.041016" xlink:href="#DejaVuSans-75"/>
      <use x="778.419922" xlink:href="#DejaVuSans-6e"/>
      <use x="841.798828" xlink:href="#DejaVuSans-63"/>
      <use x="896.779297" xlink:href="#DejaVuSans-74"/>
      <use x="935.988281" xlink:href="#DejaVuSans-69"/>
      <use x="963.771484" xlink:href="#DejaVuSans-6f"/>
      <use x="1024.953125" xlink:href="#DejaVuSans-6e"/>
      <use x="1088.332031" xlink:href="#DejaVuSans-2b"/>
      <use x="1172.121094" xlink:href="#DejaVuSans-74"/>
      <use x="1211.330078" xlink:href="#DejaVuSans-61"/>
      <use x="1272.609375" xlink:href="#DejaVuSans-72"/>
      <use x="1313.707031" xlink:href="#DejaVuSans-67"/>
      <use x="1377.183594" xlink:href="#DejaVuSans-65"/>
      <use x="1438.707031" xlink:href="#DejaVuSans-74"/>
      <use x="1477.916016" xlink:href="#DejaVuSans-20"/>
      <use x="1509.703125" xlink:href="#DejaVuSans-70"/>
      <use x="1573.179688" xlink:href="#DejaVuSans-61"/>
      <use x="1634.458984" xlink:href="#DejaVuSans-69"/>
      <use x="1662.242188" xlink:href="#DejaVuSans-72"/>
      <use x="1703.355469" xlink:href="#DejaVuSans-73"/>
     </g>
    </g>
   </g>
   <g id="line2d_41">
    <defs>
     <path d="M 0 1.5 
C 0.397805 1.5 0.77937 1.341951 1.06066 1.06066 
C 1.341951 0.77937 1.5 0.397805 1.5 0 
C 1.5 -0.397805 1.341951 -0.77937 1.06066 -1.06066 
C 0.77937 -1.341951 0.397805 -1.5 0 -1.5 
C -0.397805 -1.5 -0.77937 -1.341951 -1.06066 -1.06066 
C -1.341951 -0.77937 -1.5 -0.397805 -1.5 0 
C -1.5 0.397805 -1.341951 0.77937 -1.06066 1.06066 
C -0.77937 1.341951 -0.397805 1.5 0 1.5 
z
" id="mef450b8b4a" style="stroke:#000080;"/>
    </defs>
    <g>
     <use style="fill:#000080;stroke:#000080;" x="228.427736" xlink:href="#mef450b8b4a" y="34.768147"/>
     <use style="fill:#000080;stroke:#000080;" x="228.427736" xlink:href="#mef450b8b4a" y="34.768147"/>
    </g>
   </g>
   <g id="line2d_42">
    <path d="M 42.042377 298.245375 
L 42.042377 252.266016 
L 136.713325 252.266016 
L 136.713325 245.549929 
L 143.958223 245.549929 
L 143.958223 240.900331 
L 149.098559 240.900331 
L 149.098559 236.250733 
L 153.085714 236.250733 
L 153.085714 231.601135 
L 156.343457 231.601135 
L 156.343457 228.501403 
L 159.097839 228.501403 
L 159.097839 224.885049 
L 161.483794 224.885049 
L 161.483794 222.818561 
L 163.588354 222.818561 
L 163.588354 219.202207 
L 165.470948 219.202207 
L 165.470948 217.135719 
L 167.173962 217.135719 
L 167.173962 213.002743 
L 168.728691 213.002743 
L 168.728691 210.419632 
L 170.158903 210.419632 
L 170.158903 208.869766 
L 171.483073 208.869766 
L 171.483073 206.803278 
L 172.715846 206.803278 
L 172.715846 203.186924 
L 173.869028 203.186924 
L 173.869028 201.637058 
L 174.952275 201.637058 
L 174.952275 198.537326 
L 175.973589 198.537326 
L 175.973589 198.020704 
L 176.939668 198.020704 
L 176.939668 193.887728 
L 177.856183 193.887728 
L 177.856183 193.371106 
L 178.727971 193.371106 
L 178.727971 190.787996 
L 179.559196 190.787996 
L 179.559196 189.23813 
L 180.353465 189.23813 
L 180.353465 186.65502 
L 181.113925 186.65502 
L 181.113925 183.038666 
L 181.843337 183.038666 
L 181.843337 182.522044 
L 183.868307 182.522044 
L 183.868307 180.972178 
L 184.495323 180.972178 
L 184.495323 180.455556 
L 185.10108 180.455556 
L 185.10108 179.938934 
L 185.686972 179.938934 
L 185.686972 176.839201 
L 188.848391 176.839201 
L 188.848391 174.772713 
L 189.789035 174.772713 
L 189.789035 172.706225 
L 190.241417 172.706225 
L 190.241417 172.189603 
L 190.682627 172.189603 
L 190.682627 171.672981 
L 191.113205 171.672981 
L 191.113205 168.573249 
L 191.533651 168.573249 
L 191.533651 168.056627 
L 192.345978 168.056627 
L 192.345978 166.506761 
L 193.122975 166.506761 
L 193.122975 163.407029 
L 193.867587 163.407029 
L 193.867587 162.890407 
L 194.228571 162.890407 
L 194.228571 162.373785 
L 198.358102 162.373785 
L 198.358102 160.307297 
L 203.067861 160.307297 
L 203.067861 159.790675 
L 203.709898 159.790675 
L 203.709898 159.274053 
L 205.317104 159.274053 
L 205.317104 158.757431 
L 205.508209 158.757431 
L 205.508209 158.240809 
L 205.697291 158.240809 
L 205.697291 154.107833 
L 206.791599 154.107833 
L 206.791599 153.591211 
L 206.967641 153.591211 
L 206.967641 153.074589 
L 208.478522 153.074589 
L 208.478522 152.557967 
L 208.955034 152.557967 
L 208.955034 152.041345 
L 209.571237 152.041345 
L 209.571237 151.524723 
L 209.871548 151.524723 
L 209.871548 149.974857 
L 210.743337 149.974857 
L 210.743337 149.458235 
L 211.163782 149.458235 
L 211.163782 148.941613 
L 211.301761 148.941613 
L 211.301761 148.424991 
L 211.976109 148.424991 
L 211.976109 147.908369 
L 212.107978 147.908369 
L 212.107978 145.325259 
L 212.23888 145.325259 
L 212.23888 144.292014 
L 212.368831 144.292014 
L 212.368831 142.225526 
L 212.62593 142.225526 
L 212.62593 140.67566 
L 212.753106 140.67566 
L 212.753106 140.159038 
L 212.879383 140.159038 
L 212.879383 139.642416 
L 213.004774 139.642416 
L 213.004774 138.09255 
L 213.129291 138.09255 
L 213.129291 137.059306 
L 213.252946 137.059306 
L 213.252946 134.992818 
L 213.375752 134.992818 
L 213.375752 132.409708 
L 213.497719 132.409708 
L 213.497719 131.893086 
L 213.618859 131.893086 
L 213.618859 129.309976 
L 213.739183 129.309976 
L 213.739183 127.243488 
L 213.858703 127.243488 
L 213.858703 125.693622 
L 214.787126 125.693622 
L 214.787126 124.660378 
L 214.899859 124.660378 
L 214.899859 123.627134 
L 217.313885 123.627134 
L 217.411793 122.077268 
L 217.606014 122.077268 
L 217.702338 120.01078 
L 217.798146 120.01078 
L 217.893443 117.42767 
L 217.988234 117.42767 
L 218.082525 113.294694 
L 218.176321 113.294694 
L 218.269628 107.611851 
L 218.362449 107.611851 
L 218.454791 106.061985 
L 218.546658 106.061985 
L 218.638055 101.929009 
L 218.728987 101.929009 
L 218.819459 99.345899 
L 218.909475 99.345899 
L 218.99904 92.629813 
L 219.176833 92.629813 
L 219.265071 89.530081 
L 219.44025 89.530081 
L 219.44025 87.980215 
L 220.040195 87.980215 
L 220.124281 83.330617 
L 220.291274 83.330617 
L 220.291274 81.780751 
L 220.538873 81.780751 
L 220.620649 80.747507 
L 220.783088 80.747507 
L 220.783088 79.714263 
L 221.103601 79.714263 
L 221.103601 79.197641 
L 221.496322 79.197641 
L 221.573841 75.581286 
L 221.651025 75.581286 
L 221.651025 74.548042 
L 221.880598 74.548042 
L 221.956471 69.381822 
L 222.032023 69.381822 
L 222.107257 65.248846 
L 222.182176 65.248846 
L 222.256782 62.149114 
L 222.331078 62.149114 
L 222.405066 60.599248 
L 222.478749 60.599248 
L 222.55213 58.016138 
L 222.62521 58.016138 
L 222.697993 51.816674 
L 222.77048 51.816674 
L 222.842675 47.683698 
L 222.914579 47.683698 
L 222.914579 43.550722 
L 223.128571 43.550722 
L 223.128571 43.0341 
L 225.390008 43.0341 
L 225.390008 42.000855 
L 225.760986 42.000855 
L 225.760986 40.967611 
L 226.004093 40.967611 
L 226.004093 39.417745 
L 226.714178 39.417745 
L 226.714178 38.384501 
L 226.82983 38.384501 
L 226.82983 37.867879 
L 227.563852 37.867879 
L 227.619086 36.318013 
L 228.108654 36.318013 
L 228.108654 35.284769 
L 228.427736 35.284769 
L 228.427736 34.768147 
L 358.8 34.768147 
L 358.8 34.768147 
" style="fill:none;stroke:#000080;stroke-linecap:square;stroke-width:1.5;"/>
   </g>
   <g id="line2d_43">
    <defs>
     <path d="M 0 6 
C 1.591219 6 3.117479 5.367802 4.242641 4.242641 
C 5.367802 3.117479 6 1.591219 6 0 
C 6 -1.591219 5.367802 -3.117479 4.242641 -4.242641 
C 3.117479 -5.367802 1.591219 -6 0 -6 
C -1.591219 -6 -3.117479 -5.367802 -4.242641 -4.242641 
C -5.367802 -3.117479 -6 -1.591219 -6 0 
C -6 1.591219 -5.367802 3.117479 -4.242641 4.242641 
C -3.117479 5.367802 -1.591219 6 0 6 
z
" id="m798c46d0c7" style="stroke:#000080;stroke-width:1.5;"/>
    </defs>
    <g>
     <use style="fill:none;stroke:#000080;stroke-width:1.5;" x="358.8" xlink:href="#m798c46d0c7" y="34.768147"/>
    </g>
   </g>
   <g id="line2d_44"/>
   <g id="line2d_45">
    <defs>
     <path d="M 0 1.5 
C 0.397805 1.5 0.77937 1.341951 1.06066 1.06066 
C 1.341951 0.77937 1.5 0.397805 1.5 0 
C 1.5 -0.397805 1.341951 -0.77937 1.06066 -1.06066 
C 0.77937 -1.341951 0.397805 -1.5 0 -1.5 
C -0.397805 -1.5 -0.77937 -1.341951 -1.06066 -1.06066 
C -1.341951 -0.77937 -1.5 -0.397805 -1.5 0 
C -1.5 0.397805 -1.341951 0.77937 -1.06066 1.06066 
C -0.77937 1.341951 -0.397805 1.5 0 1.5 
z
" id="m55799e7a80" style="stroke:#ff00ff;"/>
    </defs>
    <g>
     <use style="fill:#ff00ff;stroke:#ff00ff;" x="236.647033" xlink:href="#m55799e7a80" y="34.768147"/>
     <use style="fill:#ff00ff;stroke:#ff00ff;" x="236.647033" xlink:href="#m55799e7a80" y="34.768147"/>
    </g>
   </g>
   <g id="line2d_46">
    <path d="M 159.097839 298.245375 
L 159.097839 297.728753 
L 163.588354 297.728753 
L 163.588354 296.695509 
L 173.869028 296.695509 
L 173.869028 293.595777 
L 175.973589 293.595777 
L 175.973589 292.562533 
L 176.939668 292.562533 
L 176.939668 291.529289 
L 179.559196 291.529289 
L 179.559196 291.012667 
L 181.113925 291.012667 
L 181.113925 290.496045 
L 181.843337 290.496045 
L 181.843337 289.979423 
L 182.544138 289.979423 
L 182.544138 289.462801 
L 183.218486 289.462801 
L 183.218486 288.429557 
L 184.495323 288.429557 
L 184.495323 287.396313 
L 185.10108 287.396313 
L 185.10108 285.846447 
L 186.254262 285.846447 
L 186.254262 285.329825 
L 187.855462 285.329825 
L 187.855462 283.779959 
L 188.358823 283.779959 
L 188.358823 283.263337 
L 190.241417 283.263337 
L 190.241417 282.230093 
L 193.122975 282.230093 
L 193.122975 281.713471 
L 194.228571 281.713471 
L 194.228571 280.680226 
L 202.626651 280.680226 
L 202.626651 279.646982 
L 203.284447 279.646982 
L 203.284447 278.613738 
L 204.125455 278.613738 
L 204.125455 277.580494 
L 204.329664 277.580494 
L 204.329664 276.030628 
L 204.531566 276.030628 
L 204.531566 274.997384 
L 204.731212 274.997384 
L 204.731212 273.447518 
L 205.508209 273.447518 
L 205.508209 269.831164 
L 206.252821 269.831164 
L 206.252821 267.764676 
L 206.967641 267.764676 
L 206.967641 265.698188 
L 207.654961 265.698188 
L 207.654961 264.664944 
L 209.722023 264.664944 
L 209.722023 261.565212 
L 209.871548 261.565212 
L 209.871548 260.531968 
L 210.457441 260.531968 
L 210.457441 260.015346 
L 210.60096 260.015346 
L 210.60096 259.498724 
L 210.743337 259.498724 
L 210.743337 257.432236 
L 211.02473 257.432236 
L 211.02473 256.915614 
L 211.163782 256.915614 
L 211.163782 255.88237 
L 211.709416 255.88237 
L 211.709416 254.332504 
L 211.84326 254.332504 
L 211.84326 253.29926 
L 211.976109 253.29926 
L 211.976109 247.099796 
L 212.107978 247.099796 
L 212.107978 243.483441 
L 212.23888 243.483441 
L 212.23888 241.416953 
L 212.368831 241.416953 
L 212.368831 238.833843 
L 212.62593 238.833843 
L 212.62593 237.800599 
L 212.753106 237.800599 
L 212.753106 234.700867 
L 212.879383 234.700867 
L 212.879383 230.567891 
L 213.004774 230.567891 
L 213.004774 223.851805 
L 213.129291 223.851805 
L 213.129291 221.268695 
L 213.252946 221.268695 
L 213.252946 219.718829 
L 213.375752 219.718829 
L 213.375752 215.069231 
L 213.497719 215.069231 
L 213.497719 211.452876 
L 213.618859 211.452876 
L 213.618859 205.253412 
L 213.739183 205.253412 
L 213.739183 201.637058 
L 213.858703 201.637058 
L 213.858703 198.020704 
L 214.899859 198.020704 
L 214.899859 194.920972 
L 216.199931 194.920972 
L 216.304119 192.854484 
L 218.082525 192.854484 
L 218.176321 190.787996 
L 218.269628 190.787996 
L 218.362449 188.721508 
L 218.638055 188.721508 
L 218.728987 186.138398 
L 218.819459 186.138398 
L 218.819459 184.07191 
L 219.088158 184.07191 
L 219.176833 178.90569 
L 219.352875 178.90569 
L 219.352875 176.839201 
L 219.69984 176.839201 
L 219.69984 175.289335 
L 220.040195 175.289335 
L 220.040195 173.222847 
L 220.374188 173.222847 
L 220.374188 171.672981 
L 221.103601 171.672981 
L 221.103601 170.639737 
L 221.418465 170.639737 
L 221.496322 168.573249 
L 221.573841 168.573249 
L 221.573841 168.056627 
L 221.727878 168.056627 
L 221.804401 165.473517 
L 221.880598 165.473517 
L 221.956471 162.890407 
L 222.107257 162.890407 
L 222.182176 158.757431 
L 222.256782 158.757431 
L 222.331078 156.690943 
L 222.405066 156.690943 
L 222.405066 152.041345 
L 222.55213 152.041345 
L 222.62521 148.941613 
L 222.697993 148.941613 
L 222.77048 140.67566 
L 222.842675 140.67566 
L 222.914579 132.92633 
L 222.986194 132.92633 
L 222.986194 128.276732 
L 223.269821 128.276732 
L 223.269821 127.76011 
L 223.755586 127.76011 
L 223.755586 127.243488 
L 224.624114 127.243488 
L 224.624114 125.693622 
L 224.883077 125.693622 
L 224.883077 125.177 
L 225.074866 125.177 
L 225.074866 124.660378 
L 225.264617 124.660378 
L 225.264617 124.143756 
L 225.390008 124.143756 
L 225.390008 123.627134 
L 225.514525 123.627134 
L 225.57646 122.59389 
L 225.63818 122.59389 
L 225.63818 122.077268 
L 225.760986 122.077268 
L 225.822073 117.42767 
L 225.882953 117.42767 
L 225.943626 115.361182 
L 226.004093 115.361182 
L 226.064357 110.711584 
L 226.124418 110.711584 
L 226.184277 103.478875 
L 226.243937 103.478875 
L 226.243937 102.445631 
L 229.049298 102.445631 
L 229.150822 99.862521 
L 229.201368 99.862521 
L 229.201368 98.829277 
L 229.352155 98.829277 
L 229.451977 95.729545 
L 229.600672 95.729545 
L 229.600672 95.212923 
L 229.94289 95.212923 
L 229.991248 94.179679 
L 230.087572 94.179679 
L 230.13554 92.113191 
L 230.231092 92.113191 
L 230.231092 91.079947 
L 230.373468 91.079947 
L 230.467759 87.980215 
L 230.514719 87.980215 
L 230.608269 84.363861 
L 230.747683 84.363861 
L 230.793914 82.813995 
L 230.886018 82.813995 
L 230.977649 79.714263 
L 231.023289 79.714263 
L 231.114222 75.581286 
L 231.159515 75.581286 
L 231.249758 70.931688 
L 231.294709 70.931688 
L 231.384274 65.765468 
L 231.517785 65.765468 
L 231.517785 64.215602 
L 232.425429 64.215602 
L 232.425429 63.182358 
L 232.800736 63.182358 
L 232.841954 61.632492 
L 232.924107 61.632492 
L 233.005883 56.982894 
L 233.087287 56.982894 
L 233.168322 52.849918 
L 233.208702 52.849918 
L 233.289189 51.816674 
L 233.369315 51.816674 
L 233.449084 49.750186 
L 233.488835 49.750186 
L 233.568073 47.167076 
L 234.56741 47.167076 
L 234.56741 46.650454 
L 234.7903 46.650454 
L 234.82718 43.0341 
L 235.263897 43.0341 
L 235.371429 40.450989 
L 235.407129 40.450989 
L 235.478317 38.384501 
L 235.690194 38.384501 
L 235.690194 37.867879 
L 236.446266 37.867879 
L 236.546932 36.318013 
L 236.647033 36.318013 
L 236.647033 34.768147 
L 358.8 34.768147 
L 358.8 34.768147 
" style="fill:none;stroke:#ff00ff;stroke-linecap:square;stroke-width:1.5;"/>
   </g>
   <g id="line2d_47">
    <defs>
     <path d="M -0 8.485281 
L 5.091169 0 
L 0 -8.485281 
L -5.091169 -0 
z
" id="m0f5ed6d11f" style="stroke:#ff00ff;stroke-linejoin:miter;stroke-width:1.5;"/>
    </defs>
    <g>
     <use style="fill:none;stroke:#ff00ff;stroke-linejoin:miter;stroke-width:1.5;" x="358.8" xlink:href="#m0f5ed6d11f" y="34.768147"/>
    </g>
   </g>
   <g id="line2d_48"/>
   <g id="line2d_49">
    <defs>
     <path d="M 0 1.5 
C 0.397805 1.5 0.77937 1.341951 1.06066 1.06066 
C 1.341951 0.77937 1.5 0.397805 1.5 0 
C 1.5 -0.397805 1.341951 -0.77937 1.06066 -1.06066 
C 0.77937 -1.341951 0.397805 -1.5 0 -1.5 
C -0.397805 -1.5 -0.77937 -1.341951 -1.06066 -1.06066 
C -1.341951 -0.77937 -1.5 -0.397805 -1.5 0 
C -1.5 0.397805 -1.341951 0.77937 -1.06066 1.06066 
C -0.77937 1.341951 -0.397805 1.5 0 1.5 
z
" id="mf331798a31" style="stroke:#ffa500;"/>
    </defs>
    <g>
     <use style="fill:#ffa500;stroke:#ffa500;" x="241.434532" xlink:href="#mf331798a31" y="34.768147"/>
     <use style="fill:#ffa500;stroke:#ffa500;" x="241.434532" xlink:href="#mf331798a31" y="34.768147"/>
    </g>
   </g>
   <g id="line2d_50">
    <path d="M 42.042377 298.245375 
L 42.042377 287.396313 
L 136.713325 287.396313 
L 136.713325 282.746715 
L 143.958223 282.746715 
L 143.958223 277.063872 
L 149.098559 277.063872 
L 149.098559 274.997384 
L 153.085714 274.997384 
L 153.085714 272.930896 
L 156.343457 272.930896 
L 156.343457 271.38103 
L 159.097839 271.38103 
L 159.097839 270.864408 
L 161.483794 270.864408 
L 161.483794 268.281298 
L 168.728691 268.281298 
L 168.728691 267.248054 
L 170.158903 267.248054 
L 170.158903 266.731432 
L 172.715846 266.731432 
L 172.715846 265.698188 
L 173.869028 265.698188 
L 173.869028 264.664944 
L 174.952275 264.664944 
L 174.952275 263.115078 
L 175.973589 263.115078 
L 175.973589 260.015346 
L 176.939668 260.015346 
L 176.939668 259.498724 
L 177.856183 259.498724 
L 177.856183 258.46548 
L 178.727971 258.46548 
L 178.727971 257.432236 
L 179.559196 257.432236 
L 179.559196 255.88237 
L 181.843337 255.88237 
L 181.843337 255.365748 
L 182.544138 255.365748 
L 182.544138 254.849126 
L 183.218486 254.849126 
L 183.218486 254.332504 
L 183.868307 254.332504 
L 183.868307 253.815882 
L 185.686972 253.815882 
L 185.686972 253.29926 
L 187.33751 253.29926 
L 187.33751 252.266016 
L 187.855462 252.266016 
L 187.855462 251.749394 
L 188.848391 251.749394 
L 188.848391 249.166284 
L 189.789035 249.166284 
L 189.789035 247.616418 
L 190.241417 247.616418 
L 190.241417 246.583173 
L 190.682627 246.583173 
L 190.682627 245.549929 
L 191.533651 245.549929 
L 191.533651 245.033307 
L 191.94443 245.033307 
L 191.94443 243.483441 
L 193.499159 243.483441 
L 193.499159 242.966819 
L 201.473469 242.966819 
L 201.473469 239.350465 
L 201.710136 239.350465 
L 201.710136 238.833843 
L 201.94371 238.833843 
L 201.94371 238.317221 
L 203.284447 238.317221 
L 203.284447 237.800599 
L 204.731212 237.800599 
L 204.731212 237.283977 
L 205.697291 237.283977 
L 205.697291 235.734111 
L 206.069557 235.734111 
L 206.069557 235.217489 
L 208.153639 235.217489 
L 208.153639 234.700867 
L 211.574562 234.700867 
L 211.574562 234.184245 
L 212.62593 234.184245 
L 212.62593 232.634379 
L 212.753106 232.634379 
L 212.753106 231.601135 
L 212.879383 231.601135 
L 212.879383 230.051269 
L 213.004774 230.051269 
L 213.004774 228.501403 
L 213.129291 228.501403 
L 213.129291 227.984781 
L 213.252946 227.984781 
L 213.252946 225.401671 
L 213.497719 225.401671 
L 213.497719 223.851805 
L 213.618859 223.851805 
L 213.618859 222.301939 
L 213.858703 222.301939 
L 213.858703 220.752073 
L 214.328944 220.752073 
L 214.328944 218.685585 
L 217.411793 218.685585 
L 217.411793 217.652341 
L 217.606014 217.652341 
L 217.606014 216.619097 
L 217.798146 216.619097 
L 217.798146 216.102475 
L 218.546658 216.102475 
L 218.546658 214.552609 
L 218.728987 214.552609 
L 218.819459 211.969498 
L 219.265071 211.969498 
L 219.265071 211.452876 
L 220.374188 211.452876 
L 220.45672 207.836522 
L 221.418465 207.836522 
L 221.496322 205.253412 
L 221.573841 205.253412 
L 221.651025 203.703546 
L 221.727878 203.703546 
L 221.727878 202.670302 
L 222.107257 202.670302 
L 222.182176 201.120436 
L 222.256782 201.120436 
L 222.331078 198.020704 
L 222.478749 198.020704 
L 222.55213 194.920972 
L 222.697993 194.920972 
L 222.77048 189.23813 
L 222.842675 189.23813 
L 222.914579 184.07191 
L 222.986194 184.07191 
L 222.986194 180.455556 
L 223.34003 180.455556 
L 223.34003 179.938934 
L 225.13834 179.938934 
L 225.13834 178.90569 
L 225.264617 178.90569 
L 225.264617 178.389067 
L 225.390008 178.389067 
L 225.390008 177.355823 
L 225.822073 177.355823 
L 225.882953 173.222847 
L 225.943626 173.222847 
L 226.004093 167.540005 
L 226.064357 167.540005 
L 226.124418 162.890407 
L 226.184277 162.890407 
L 226.243937 160.823919 
L 229.049298 160.823919 
L 229.100132 157.724187 
L 229.251772 157.724187 
L 229.251772 155.657699 
L 229.402136 155.657699 
L 229.402136 154.624455 
L 229.894402 154.624455 
L 229.991248 152.041345 
L 230.039475 152.041345 
L 230.039475 151.008101 
L 230.278677 151.008101 
L 230.373468 148.941613 
L 230.420676 148.941613 
L 230.467759 146.875125 
L 230.561555 146.875125 
L 230.654862 142.225526 
L 230.747683 142.225526 
L 230.840025 131.893086 
L 230.886018 131.893086 
L 230.977649 127.76011 
L 231.023289 127.76011 
L 231.114222 120.527402 
L 231.159515 120.527402 
L 231.249758 112.26145 
L 231.294709 112.26145 
L 231.384274 107.095229 
L 231.650305 107.095229 
L 231.650305 106.578607 
L 231.912434 106.578607 
L 231.912434 106.061985 
L 232.298555 106.061985 
L 232.340946 105.028741 
L 232.425429 105.028741 
L 232.425429 104.512119 
L 232.593206 104.512119 
L 232.634906 102.962253 
L 232.800736 102.962253 
L 232.883078 98.829277 
L 232.924107 98.829277 
L 232.965042 96.762789 
L 233.046632 96.762789 
L 233.12785 94.696301 
L 233.168322 94.696301 
L 233.208702 93.146435 
L 233.289189 93.146435 
L 233.369315 88.496837 
L 233.409244 88.496837 
L 233.488835 84.880483 
L 234.03626 84.880483 
L 234.113112 83.330617 
L 234.56741 83.330617 
L 234.642016 81.264129 
L 234.716312 81.264129 
L 234.82718 79.714263 
L 234.863983 79.714263 
L 234.973941 75.581286 
L 235.191848 75.581286 
L 235.299813 74.03142 
L 235.335657 74.03142 
L 235.407129 70.415066 
L 236.513439 70.415066 
L 236.513439 69.898444 
L 236.680276 69.898444 
L 236.713458 68.8652 
L 236.84557 68.8652 
L 236.944017 64.215602 
L 236.976713 64.215602 
L 237.074442 58.016138 
L 237.139299 58.016138 
L 237.139299 57.499516 
L 237.618366 57.499516 
L 237.618366 55.94965 
L 237.899759 55.94965 
L 237.992581 54.916406 
L 238.054195 54.916406 
L 238.054195 53.883162 
L 238.207307 53.883162 
L 238.298549 52.849918 
L 238.359119 52.849918 
L 238.389327 50.266808 
L 238.479646 50.266808 
L 238.569511 48.20032 
L 238.599366 48.20032 
L 238.688633 44.583966 
L 239.128395 44.583966 
L 239.128395 43.550722 
L 239.329972 43.550722 
L 239.41567 42.517478 
L 239.726428 42.517478 
L 239.726428 40.967611 
L 239.865914 40.967611 
L 239.949086 37.351257 
L 240.031873 37.351257 
L 240.031873 36.318013 
L 240.839305 36.318013 
L 240.839305 35.801391 
L 241.434532 35.801391 
L 241.434532 34.768147 
L 358.8 34.768147 
L 358.8 34.768147 
" style="fill:none;stroke:#ffa500;stroke-linecap:square;stroke-width:1.5;"/>
   </g>
   <g id="line2d_51">
    <defs>
     <path d="M 0 -6 
L -1.347084 -1.854102 
L -5.706339 -1.854102 
L -2.179628 0.708204 
L -3.526712 4.854102 
L -0 2.291796 
L 3.526712 4.854102 
L 2.179628 0.708204 
L 5.706339 -1.854102 
L 1.347084 -1.854102 
z
" id="mc80ed71d6c" style="stroke:#ffa500;stroke-linejoin:bevel;stroke-width:1.5;"/>
    </defs>
    <g>
     <use style="fill:none;stroke:#ffa500;stroke-linejoin:bevel;stroke-width:1.5;" x="358.8" xlink:href="#mc80ed71d6c" y="34.768147"/>
    </g>
   </g>
   <g id="line2d_52"/>
   <g id="line2d_53">
    <defs>
     <path d="M 0 1.5 
C 0.397805 1.5 0.77937 1.341951 1.06066 1.06066 
C 1.341951 0.77937 1.5 0.397805 1.5 0 
C 1.5 -0.397805 1.341951 -0.77937 1.06066 -1.06066 
C 0.77937 -1.341951 0.397805 -1.5 0 -1.5 
C -0.397805 -1.5 -0.77937 -1.341951 -1.06066 -1.06066 
C -1.341951 -0.77937 -1.5 -0.397805 -1.5 0 
C -1.5 0.397805 -1.341951 0.77937 -1.06066 1.06066 
C -0.77937 1.341951 -0.397805 1.5 0 1.5 
z
" id="mbaa8672e62" style="stroke:#6495ed;"/>
    </defs>
    <g>
     <use style="fill:#6495ed;stroke:#6495ed;" x="251.192199" xlink:href="#mbaa8672e62" y="34.768147"/>
     <use style="fill:#6495ed;stroke:#6495ed;" x="251.192199" xlink:href="#mbaa8672e62" y="34.768147"/>
    </g>
   </g>
   <g id="line2d_54">
    <path d="M 42.042377 298.245375 
L 42.042377 288.946179 
L 136.713325 288.946179 
L 136.713325 286.363069 
L 143.958223 286.363069 
L 143.958223 283.263337 
L 149.098559 283.263337 
L 149.098559 280.680226 
L 156.343457 280.680226 
L 156.343457 280.163604 
L 161.483794 280.163604 
L 161.483794 276.54725 
L 163.588354 276.54725 
L 163.588354 274.997384 
L 165.470948 274.997384 
L 165.470948 274.480762 
L 167.173962 274.480762 
L 167.173962 273.96414 
L 168.728691 273.96414 
L 168.728691 273.447518 
L 170.158903 273.447518 
L 170.158903 272.930896 
L 171.483073 272.930896 
L 171.483073 271.38103 
L 174.952275 271.38103 
L 174.952275 269.831164 
L 176.939668 269.831164 
L 176.939668 268.79792 
L 179.559196 268.79792 
L 179.559196 267.764676 
L 181.113925 267.764676 
L 181.113925 266.21481 
L 181.843337 266.21481 
L 181.843337 265.698188 
L 186.804093 265.698188 
L 186.804093 264.664944 
L 187.855462 264.664944 
L 187.855462 263.6317 
L 190.682627 263.6317 
L 190.682627 263.115078 
L 191.113205 263.115078 
L 191.113205 261.04859 
L 191.94443 261.04859 
L 191.94443 259.498724 
L 193.122975 259.498724 
L 193.122975 258.46548 
L 202.626651 258.46548 
L 202.626651 257.948858 
L 204.531566 257.948858 
L 204.531566 257.432236 
L 207.988954 257.432236 
L 207.988954 255.88237 
L 208.316819 255.88237 
L 208.316819 255.365748 
L 208.638776 255.365748 
L 208.638776 253.815882 
L 210.312759 253.815882 
L 210.312759 253.29926 
L 212.753106 253.29926 
L 212.753106 252.782638 
L 213.004774 252.782638 
L 213.004774 251.232772 
L 213.129291 251.232772 
L 213.129291 250.199528 
L 215.883673 250.199528 
L 215.883673 249.682906 
L 217.411793 249.682906 
L 217.509167 248.13304 
L 220.124281 248.13304 
L 220.124281 247.616418 
L 220.620649 247.616418 
L 220.620649 246.583173 
L 221.340268 246.583173 
L 221.340268 246.066551 
L 221.573841 246.066551 
L 221.573841 245.033307 
L 221.880598 245.033307 
L 221.880598 244.516685 
L 222.256782 244.516685 
L 222.331078 242.450197 
L 222.55213 242.450197 
L 222.55213 241.416953 
L 222.697993 241.416953 
L 222.77048 239.867087 
L 222.986194 239.867087 
L 222.986194 238.317221 
L 223.823916 238.317221 
L 223.823916 237.800599 
L 224.624114 237.800599 
L 224.624114 235.734111 
L 224.883077 235.734111 
L 224.947236 234.184245 
L 225.074866 234.184245 
L 225.074866 233.667623 
L 225.943626 233.667623 
L 225.943626 233.151001 
L 226.124418 233.151001 
L 226.124418 231.084513 
L 226.243937 231.084513 
L 226.243937 230.567891 
L 228.268907 230.567891 
L 228.322007 229.018025 
L 228.895923 229.018025 
L 228.895923 226.951537 
L 229.201368 226.951537 
L 229.251772 225.401671 
L 229.352155 225.401671 
L 229.352155 224.368427 
L 229.748141 224.368427 
L 229.748141 222.818561 
L 230.039475 222.818561 
L 230.039475 222.301939 
L 230.231092 222.301939 
L 230.231092 221.785317 
L 230.420676 221.785317 
L 230.420676 221.268695 
L 230.608269 221.268695 
L 230.608269 220.752073 
L 230.747683 220.752073 
L 230.840025 219.718829 
L 231.023289 219.718829 
L 231.023289 218.685585 
L 231.159515 218.685585 
L 231.159515 218.168963 
L 231.339548 218.168963 
L 231.384274 216.619097 
L 231.650305 216.619097 
L 231.650305 215.585853 
L 232.425429 215.585853 
L 232.509515 212.48612 
L 232.718013 212.48612 
L 232.718013 211.452876 
L 233.248991 211.452876 
L 233.329297 210.419632 
L 233.369315 210.419632 
L 233.449084 208.869766 
L 233.488835 208.869766 
L 233.488835 208.353144 
L 233.646961 208.353144 
L 233.686274 205.770034 
L 233.920358 205.770034 
L 233.959075 202.670302 
L 235.046873 202.670302 
L 235.155714 198.020704 
L 235.227909 198.020704 
L 235.227909 196.98746 
L 235.371429 196.98746 
L 235.371429 195.954216 
L 235.93425 195.954216 
L 235.93425 192.854484 
L 236.106558 192.854484 
L 236.106558 192.337862 
L 236.243217 192.337862 
L 236.243217 190.271374 
L 236.713458 190.271374 
L 236.779636 188.721508 
L 237.009349 188.721508 
L 237.074442 187.171642 
L 237.17164 187.171642 
L 237.17164 186.65502 
L 237.396399 186.65502 
L 237.396399 186.138398 
L 237.775242 186.138398 
L 237.775242 184.588532 
L 238.084923 184.588532 
L 238.14622 182.522044 
L 238.268187 182.522044 
L 238.359119 180.972178 
L 238.389327 180.972178 
L 238.479646 176.322579 
L 238.509652 176.322579 
L 238.599366 168.056627 
L 238.629171 168.056627 
L 238.658927 165.473517 
L 239.64221 165.473517 
L 239.726428 162.890407 
L 239.893681 162.890407 
L 239.893681 161.857163 
L 240.031873 161.857163 
L 240.059384 160.823919 
L 240.493888 160.823919 
L 240.493888 160.307297 
L 240.760184 160.307297 
L 240.760184 158.240809 
L 241.074587 158.240809 
L 241.178171 151.524723 
L 241.203973 151.524723 
L 241.306811 144.808637 
L 241.332429 144.808637 
L 241.383553 141.192282 
L 241.459967 141.192282 
L 241.459967 139.642416 
L 241.611822 139.642416 
L 241.611822 138.609172 
L 241.886914 138.609172 
L 241.911714 136.026062 
L 242.010569 136.026062 
L 242.010569 134.476196 
L 242.157835 134.476196 
L 242.231015 129.826598 
L 242.303896 129.826598 
L 242.400612 126.210244 
L 242.424709 126.210244 
L 242.520774 116.911048 
L 242.54471 116.911048 
L 242.616326 111.744828 
L 242.663911 111.744828 
L 242.663911 111.228206 
L 242.829467 111.228206 
L 242.899953 110.194961 
L 243.4313 110.194961 
L 243.522117 107.095229 
L 243.544749 107.095229 
L 243.634992 100.379143 
L 243.702376 100.379143 
L 243.724782 98.312655 
L 243.814122 98.312655 
L 243.858626 93.663057 
L 244.145227 93.663057 
L 244.145227 92.113191 
L 244.620012 92.113191 
L 244.641296 91.079947 
L 244.78958 91.079947 
L 244.852756 84.363861 
L 245.123964 84.363861 
L 245.123964 83.847239 
L 245.391117 83.847239 
L 245.391117 80.230885 
L 245.513084 80.230885 
L 245.593936 78.164397 
L 245.674423 78.164397 
L 245.774525 74.03142 
L 245.794478 74.03142 
L 245.893911 70.931688 
L 246.032195 70.931688 
L 246.091133 69.898444 
L 246.324961 69.898444 
L 246.324961 68.8652 
L 246.479164 68.8652 
L 246.479164 68.348578 
L 246.613008 68.348578 
L 246.708001 63.69898 
L 246.783633 63.69898 
L 246.877726 55.94965 
L 247.304281 55.94965 
L 247.304281 54.916406 
L 247.48661 54.916406 
L 247.577082 51.300052 
L 247.649131 51.300052 
L 247.756663 44.583966 
L 248.713335 44.583966 
L 248.713335 43.550722 
L 248.881904 43.550722 
L 248.881904 43.0341 
L 249.312881 43.0341 
L 249.361947 42.000855 
L 249.492134 42.000855 
L 249.492134 39.934367 
L 249.908808 39.934367 
L 249.972059 38.901123 
L 250.066516 38.901123 
L 250.176088 36.318013 
L 250.238401 36.318013 
L 250.238401 35.801391 
L 251.192199 35.801391 
L 251.192199 34.768147 
L 358.8 34.768147 
L 358.8 34.768147 
" style="fill:none;stroke:#6495ed;stroke-linecap:square;stroke-width:1.5;"/>
   </g>
   <g id="line2d_55">
    <defs>
     <path d="M -0 6 
L 6 -6 
L -6 -6 
z
" id="m6de6defc91" style="stroke:#6495ed;stroke-linejoin:miter;stroke-width:1.5;"/>
    </defs>
    <g>
     <use style="fill:none;stroke:#6495ed;stroke-linejoin:miter;stroke-width:1.5;" x="358.8" xlink:href="#m6de6defc91" y="34.768147"/>
    </g>
   </g>
   <g id="line2d_56"/>
   <g id="line2d_57">
    <defs>
     <path d="M 0 1.5 
C 0.397805 1.5 0.77937 1.341951 1.06066 1.06066 
C 1.341951 0.77937 1.5 0.397805 1.5 0 
C 1.5 -0.397805 1.341951 -0.77937 1.06066 -1.06066 
C 0.77937 -1.341951 0.397805 -1.5 0 -1.5 
C -0.397805 -1.5 -0.77937 -1.341951 -1.06066 -1.06066 
C -1.341951 -0.77937 -1.5 -0.397805 -1.5 0 
C -1.5 0.397805 -1.341951 0.77937 -1.06066 1.06066 
C -0.77937 1.341951 -0.397805 1.5 0 1.5 
z
" id="mba92b5ebd3" style="stroke:#ff0000;"/>
    </defs>
    <g>
     <use style="fill:#ff0000;stroke:#ff0000;" x="190.682627" xlink:href="#mba92b5ebd3" y="34.768147"/>
     <use style="fill:#ff0000;stroke:#ff0000;" x="190.682627" xlink:href="#mba92b5ebd3" y="34.768147"/>
    </g>
   </g>
   <g id="line2d_58">
    <path d="M 42.042377 298.245375 
L 42.042377 277.580494 
L 136.713325 277.580494 
L 136.713325 271.897652 
L 143.958223 271.897652 
L 143.958223 267.248054 
L 149.098559 267.248054 
L 149.098559 264.664944 
L 153.085714 264.664944 
L 153.085714 263.115078 
L 156.343457 263.115078 
L 156.343457 261.565212 
L 159.097839 261.565212 
L 159.097839 256.398992 
L 161.483794 256.398992 
L 161.483794 252.782638 
L 163.588354 252.782638 
L 163.588354 249.166284 
L 165.470948 249.166284 
L 165.470948 234.700867 
L 167.173962 234.700867 
L 167.173962 192.854484 
L 168.728691 192.854484 
L 168.728691 188.204886 
L 170.158903 188.204886 
L 170.158903 162.890407 
L 171.483073 162.890407 
L 171.483073 160.307297 
L 172.715846 160.307297 
L 172.715846 159.274053 
L 173.869028 159.274053 
L 173.869028 147.908369 
L 174.952275 147.908369 
L 174.952275 110.711584 
L 175.973589 110.711584 
L 175.973589 93.146435 
L 177.856183 93.146435 
L 177.856183 88.496837 
L 178.727971 88.496837 
L 178.727971 76.097908 
L 180.353465 76.097908 
L 180.353465 75.581286 
L 181.113925 75.581286 
L 181.113925 64.215602 
L 181.843337 64.215602 
L 181.843337 62.665736 
L 185.686972 62.665736 
L 185.686972 62.149114 
L 186.254262 62.149114 
L 186.254262 50.78343 
L 188.358823 50.78343 
L 188.358823 47.683698 
L 190.682627 47.683698 
L 190.682627 34.768147 
L 358.8 34.768147 
" style="fill:none;stroke:#ff0000;stroke-linecap:square;stroke-width:1.5;"/>
   </g>
   <g id="line2d_59">
    <defs>
     <path d="M 0 -6 
L -5.196152 -3 
L -5.196152 3 
L -0 6 
L 5.196152 3 
L 5.196152 -3 
z
" id="m69a510271e" style="stroke:#ff0000;stroke-linejoin:miter;stroke-width:1.5;"/>
    </defs>
    <g>
     <use style="fill:none;stroke:#ff0000;stroke-linejoin:miter;stroke-width:1.5;" x="358.8" xlink:href="#m69a510271e" y="34.768147"/>
    </g>
   </g>
   <g id="line2d_60"/>
   <g id="line2d_61">
    <path d="M 358.8 34.768147 
L 390.48 292.97583 
" style="fill:none;stroke:#6495ed;stroke-linecap:square;stroke-width:1.5;"/>
    <g>
     <use style="fill:none;stroke:#6495ed;stroke-linejoin:miter;stroke-width:1.5;" x="358.8" xlink:href="#m6de6defc91" y="34.768147"/>
     <use style="fill:none;stroke:#6495ed;stroke-linejoin:miter;stroke-width:1.5;" x="390.48" xlink:href="#m6de6defc91" y="292.97583"/>
    </g>
   </g>
   <g id="line2d_62">
    <path d="M 358.8 34.768147 
L 390.48 229.741296 
" style="fill:none;stroke:#ffa500;stroke-linecap:square;stroke-width:1.5;"/>
    <g>
     <use style="fill:none;stroke:#ffa500;stroke-linejoin:bevel;stroke-width:1.5;" x="358.8" xlink:href="#mc80ed71d6c" y="34.768147"/>
     <use style="fill:none;stroke:#ffa500;stroke-linejoin:bevel;stroke-width:1.5;" x="390.48" xlink:href="#mc80ed71d6c" y="229.741296"/>
    </g>
   </g>
   <g id="line2d_63">
    <path d="M 358.8 34.768147 
L 390.48 166.506761 
" style="fill:none;stroke:#ff00ff;stroke-linecap:square;stroke-width:1.5;"/>
    <g>
     <use style="fill:none;stroke:#ff00ff;stroke-linejoin:miter;stroke-width:1.5;" x="358.8" xlink:href="#m0f5ed6d11f" y="34.768147"/>
     <use style="fill:none;stroke:#ff00ff;stroke-linejoin:miter;stroke-width:1.5;" x="390.48" xlink:href="#m0f5ed6d11f" y="166.506761"/>
    </g>
   </g>
   <g id="line2d_64">
    <path d="M 358.8 34.768147 
L 390.48 103.272226 
" style="fill:none;stroke:#000080;stroke-linecap:square;stroke-width:1.5;"/>
    <g>
     <use style="fill:none;stroke:#000080;stroke-width:1.5;" x="358.8" xlink:href="#m798c46d0c7" y="34.768147"/>
     <use style="fill:none;stroke:#000080;stroke-width:1.5;" x="390.48" xlink:href="#m798c46d0c7" y="103.272226"/>
    </g>
   </g>
   <g id="line2d_65">
    <path d="M 358.8 34.768147 
L 390.48 40.037692 
" style="fill:none;stroke:#ff0000;stroke-linecap:square;stroke-width:1.5;"/>
    <g>
     <use style="fill:none;stroke:#ff0000;stroke-linejoin:miter;stroke-width:1.5;" x="358.8" xlink:href="#m69a510271e" y="34.768147"/>
     <use style="fill:none;stroke:#ff0000;stroke-linejoin:miter;stroke-width:1.5;" x="390.48" xlink:href="#m69a510271e" y="40.037692"/>
    </g>
   </g>
   <g id="line2d_66">
    <path d="M 358.8 298.245375 
L 358.8 34.768147 
" style="fill:none;stroke:#000000;stroke-linecap:square;stroke-width:1.5;"/>
   </g>
   <g id="patch_3">
    <path d="M 70.8 298.245375 
L 70.8 32.133375 
" style="fill:none;stroke:#000000;stroke-linecap:square;stroke-linejoin:miter;stroke-width:0.8;"/>
   </g>
   <g id="patch_4">
    <path d="M 427.92 298.245375 
L 427.92 32.133375 
" style="fill:none;stroke:#000000;stroke-linecap:square;stroke-linejoin:miter;stroke-width:0.8;"/>
   </g>
   <g id="patch_5">
    <path d="M 70.8 298.245375 
L 427.92 298.245375 
" style="fill:none;stroke:#000000;stroke-linecap:square;stroke-linejoin:miter;stroke-width:0.8;"/>
   </g>
   <g id="patch_6">
    <path d="M 70.8 32.133375 
L 427.92 32.133375 
" style="fill:none;stroke:#000000;stroke-linecap:square;stroke-linejoin:miter;stroke-width:0.8;"/>
   </g>
   <g id="text_14">
    <!-- f4 -->
    <g transform="translate(396.24 297.114893)scale(0.15 -0.15)">
     <use xlink:href="#DejaVuSans-66"/>
     <use x="35.205078" xlink:href="#DejaVuSans-34"/>
    </g>
   </g>
   <g id="text_15">
    <!-- f3 -->
    <defs>
     <path d="M 40.578125 39.3125 
Q 47.65625 37.796875 51.625 33 
Q 55.609375 28.21875 55.609375 21.1875 
Q 55.609375 10.40625 48.1875 4.484375 
Q 40.765625 -1.421875 27.09375 -1.421875 
Q 22.515625 -1.421875 17.65625 -0.515625 
Q 12.796875 0.390625 7.625 2.203125 
L 7.625 11.71875 
Q 11.71875 9.328125 16.59375 8.109375 
Q 21.484375 6.890625 26.8125 6.890625 
Q 36.078125 6.890625 40.9375 10.546875 
Q 45.796875 14.203125 45.796875 21.1875 
Q 45.796875 27.640625 41.28125 31.265625 
Q 36.765625 34.90625 28.71875 34.90625 
L 20.21875 34.90625 
L 20.21875 43.015625 
L 29.109375 43.015625 
Q 36.375 43.015625 40.234375 45.921875 
Q 44.09375 48.828125 44.09375 54.296875 
Q 44.09375 59.90625 40.109375 62.90625 
Q 36.140625 65.921875 28.71875 65.921875 
Q 24.65625 65.921875 20.015625 65.03125 
Q 15.375 64.15625 9.8125 62.3125 
L 9.8125 71.09375 
Q 15.4375 72.65625 20.34375 73.4375 
Q 25.25 74.21875 29.59375 74.21875 
Q 40.828125 74.21875 47.359375 69.109375 
Q 53.90625 64.015625 53.90625 55.328125 
Q 53.90625 49.265625 50.4375 45.09375 
Q 46.96875 40.921875 40.578125 39.3125 
" id="DejaVuSans-33"/>
    </defs>
    <g transform="translate(396.24 233.880358)scale(0.15 -0.15)">
     <use xlink:href="#DejaVuSans-66"/>
     <use x="35.205078" xlink:href="#DejaVuSans-33"/>
    </g>
   </g>
   <g id="text_16">
    <!-- f2 -->
    <g transform="translate(396.24 170.645824)scale(0.15 -0.15)">
     <use xlink:href="#DejaVuSans-66"/>
     <use x="35.205078" xlink:href="#DejaVuSans-32"/>
    </g>
   </g>
   <g id="text_17">
    <!-- f1 -->
    <g transform="translate(396.24 107.411289)scale(0.15 -0.15)">
     <use xlink:href="#DejaVuSans-66"/>
     <use x="35.205078" xlink:href="#DejaVuSans-31"/>
    </g>
   </g>
   <g id="text_18">
    <!-- f5 -->
    <defs>
     <path d="M 10.796875 72.90625 
L 49.515625 72.90625 
L 49.515625 64.59375 
L 19.828125 64.59375 
L 19.828125 46.734375 
Q 21.96875 47.46875 24.109375 47.828125 
Q 26.265625 48.1875 28.421875 48.1875 
Q 40.625 48.1875 47.75 41.5 
Q 54.890625 34.8125 54.890625 23.390625 
Q 54.890625 11.625 47.5625 5.09375 
Q 40.234375 -1.421875 26.90625 -1.421875 
Q 22.3125 -1.421875 17.546875 -0.640625 
Q 12.796875 0.140625 7.71875 1.703125 
L 7.71875 11.625 
Q 12.109375 9.234375 16.796875 8.0625 
Q 21.484375 6.890625 26.703125 6.890625 
Q 35.15625 6.890625 40.078125 11.328125 
Q 45.015625 15.765625 45.015625 23.390625 
Q 45.015625 31 40.078125 35.4375 
Q 35.15625 39.890625 26.703125 39.890625 
Q 22.75 39.890625 18.8125 39.015625 
Q 14.890625 38.140625 10.796875 36.28125 
z
" id="DejaVuSans-35"/>
    </defs>
    <g transform="translate(396.24 44.176754)scale(0.15 -0.15)">
     <use xlink:href="#DejaVuSans-66"/>
     <use x="35.205078" xlink:href="#DejaVuSans-35"/>
    </g>
   </g>
   <g id="text_19">
    <!-- bbob -->
    <defs>
     <path d="M 48.6875 27.296875 
Q 48.6875 37.203125 44.609375 42.84375 
Q 40.53125 48.484375 33.40625 48.484375 
Q 26.265625 48.484375 22.1875 42.84375 
Q 18.109375 37.203125 18.109375 27.296875 
Q 18.109375 17.390625 22.1875 11.75 
Q 26.265625 6.109375 33.40625 6.109375 
Q 40.53125 6.109375 44.609375 11.75 
Q 48.6875 17.390625 48.6875 27.296875 
M 18.109375 46.390625 
Q 20.953125 51.265625 25.265625 53.625 
Q 29.59375 56 35.59375 56 
Q 45.5625 56 51.78125 48.09375 
Q 58.015625 40.1875 58.015625 27.296875 
Q 58.015625 14.40625 51.78125 6.484375 
Q 45.5625 -1.421875 35.59375 -1.421875 
Q 29.59375 -1.421875 25.265625 0.953125 
Q 20.953125 3.328125 18.109375 8.203125 
L 18.109375 0 
L 9.078125 0 
L 9.078125 75.984375 
L 18.109375 75.984375 
z
" id="DejaVuSans-62"/>
    </defs>
    <g transform="translate(74.3712 50.114612)scale(0.1666 -0.1666)">
     <use xlink:href="#DejaVuSans-62"/>
     <use x="63.476562" xlink:href="#DejaVuSans-62"/>
     <use x="126.953125" xlink:href="#DejaVuSans-6f"/>
     <use x="188.134766" xlink:href="#DejaVuSans-62"/>
    </g>
    <!-- Separable functions, 5-D -->
    <defs>
     <path d="M 53.515625 70.515625 
L 53.515625 60.890625 
Q 47.90625 63.578125 42.921875 64.890625 
Q 37.9375 66.21875 33.296875 66.21875 
Q 25.25 66.21875 20.875 63.09375 
Q 16.5 59.96875 16.5 54.203125 
Q 16.5 49.359375 19.40625 46.890625 
Q 22.3125 44.4375 30.421875 42.921875 
L 36.375 41.703125 
Q 47.40625 39.59375 52.65625 34.296875 
Q 57.90625 29 57.90625 20.125 
Q 57.90625 9.515625 50.796875 4.046875 
Q 43.703125 -1.421875 29.984375 -1.421875 
Q 24.8125 -1.421875 18.96875 -0.25 
Q 13.140625 0.921875 6.890625 3.21875 
L 6.890625 13.375 
Q 12.890625 10.015625 18.65625 8.296875 
Q 24.421875 6.59375 29.984375 6.59375 
Q 38.421875 6.59375 43.015625 9.90625 
Q 47.609375 13.234375 47.609375 19.390625 
Q 47.609375 24.75 44.3125 27.78125 
Q 41.015625 30.8125 33.5 32.328125 
L 27.484375 33.5 
Q 16.453125 35.6875 11.515625 40.375 
Q 6.59375 45.0625 6.59375 53.421875 
Q 6.59375 63.09375 13.40625 68.65625 
Q 20.21875 74.21875 32.171875 74.21875 
Q 37.3125 74.21875 42.625 73.28125 
Q 47.953125 72.359375 53.515625 70.515625 
" id="DejaVuSans-53"/>
     <path d="M 11.71875 12.40625 
L 22.015625 12.40625 
L 22.015625 4 
L 14.015625 -11.625 
L 7.71875 -11.625 
L 11.71875 4 
z
" id="DejaVuSans-2c"/>
     <path d="M 19.671875 64.796875 
L 19.671875 8.109375 
L 31.59375 8.109375 
Q 46.6875 8.109375 53.6875 14.9375 
Q 60.6875 21.78125 60.6875 36.53125 
Q 60.6875 51.171875 53.6875 57.984375 
Q 46.6875 64.796875 31.59375 64.796875 
z
M 9.8125 72.90625 
L 30.078125 72.90625 
Q 51.265625 72.90625 61.171875 64.09375 
Q 71.09375 55.28125 71.09375 36.53125 
Q 71.09375 17.671875 61.125 8.828125 
Q 51.171875 0 30.078125 0 
L 9.8125 0 
z
" id="DejaVuSans-44"/>
    </defs>
    <g transform="translate(74.3712 68.770168)scale(0.1666 -0.1666)">
     <use xlink:href="#DejaVuSans-53"/>
     <use x="63.476562" xlink:href="#DejaVuSans-65"/>
     <use x="125" xlink:href="#DejaVuSans-70"/>
     <use x="188.476562" xlink:href="#DejaVuSans-61"/>
     <use x="249.755859" xlink:href="#DejaVuSans-72"/>
     <use x="290.869141" xlink:href="#DejaVuSans-61"/>
     <use x="352.148438" xlink:href="#DejaVuSans-62"/>
     <use x="415.625" xlink:href="#DejaVuSans-6c"/>
     <use x="443.408203" xlink:href="#DejaVuSans-65"/>
     <use x="504.931641" xlink:href="#DejaVuSans-20"/>
     <use x="536.71875" xlink:href="#DejaVuSans-66"/>
     <use x="571.923828" xlink:href="#DejaVuSans-75"/>
     <use x="635.302734" xlink:href="#DejaVuSans-6e"/>
     <use x="698.681641" xlink:href="#DejaVuSans-63"/>
     <use x="753.662109" xlink:href="#DejaVuSans-74"/>
     <use x="792.871094" xlink:href="#DejaVuSans-69"/>
     <use x="820.654297" xlink:href="#DejaVuSans-6f"/>
     <use x="881.835938" xlink:href="#DejaVuSans-6e"/>
     <use x="945.214844" xlink:href="#DejaVuSans-73"/>
     <use x="997.314453" xlink:href="#DejaVuSans-2c"/>
     <use x="1029.101562" xlink:href="#DejaVuSans-20"/>
     <use x="1060.888672" xlink:href="#DejaVuSans-35"/>
     <use x="1124.511719" xlink:href="#DejaVuSans-2d"/>
     <use x="1160.595703" xlink:href="#DejaVuSans-44"/>
    </g>
    <!-- 51 targets in 100..1e-08 -->
    <g transform="translate(74.3712 87.425723)scale(0.1666 -0.1666)">
     <use xlink:href="#DejaVuSans-35"/>
     <use x="63.623047" xlink:href="#DejaVuSans-31"/>
     <use x="127.246094" xlink:href="#DejaVuSans-20"/>
     <use x="159.033203" xlink:href="#DejaVuSans-74"/>
     <use x="198.242188" xlink:href="#DejaVuSans-61"/>
     <use x="259.521484" xlink:href="#DejaVuSans-72"/>
     <use x="300.619141" xlink:href="#DejaVuSans-67"/>
     <use x="364.095703" xlink:href="#DejaVuSans-65"/>
     <use x="425.619141" xlink:href="#DejaVuSans-74"/>
     <use x="464.828125" xlink:href="#DejaVuSans-73"/>
     <use x="516.927734" xlink:href="#DejaVuSans-20"/>
     <use x="548.714844" xlink:href="#DejaVuSans-69"/>
     <use x="576.498047" xlink:href="#DejaVuSans-6e"/>
     <use x="639.876953" xlink:href="#DejaVuSans-20"/>
     <use x="671.664062" xlink:href="#DejaVuSans-31"/>
     <use x="735.287109" xlink:href="#DejaVuSans-30"/>
     <use x="798.910156" xlink:href="#DejaVuSans-30"/>
     <use x="862.533203" xlink:href="#DejaVuSans-2e"/>
     <use x="894.320312" xlink:href="#DejaVuSans-2e"/>
     <use x="926.107422" xlink:href="#DejaVuSans-31"/>
     <use x="989.730469" xlink:href="#DejaVuSans-65"/>
     <use x="1051.253906" xlink:href="#DejaVuSans-2d"/>
     <use x="1087.337891" xlink:href="#DejaVuSans-30"/>
     <use x="1150.960938" xlink:href="#DejaVuSans-38"/>
    </g>
    <!-- 15 instances -->
    <g transform="translate(74.3712 106.081279)scale(0.1666 -0.1666)">
     <use xlink:href="#DejaVuSans-31"/>
     <use x="63.623047" xlink:href="#DejaVuSans-35"/>
     <use x="127.246094" xlink:href="#DejaVuSans-20"/>
     <use x="159.033203" xlink:href="#DejaVuSans-69"/>
     <use x="186.816406" xlink:href="#DejaVuSans-6e"/>
     <use x="250.195312" xlink:href="#DejaVuSans-73"/>
     <use x="302.294922" xlink:href="#DejaVuSans-74"/>
     <use x="341.503906" xlink:href="#DejaVuSans-61"/>
     <use x="402.783203" xlink:href="#DejaVuSans-6e"/>
     <use x="466.162109" xlink:href="#DejaVuSans-63"/>
     <use x="521.142578" xlink:href="#DejaVuSans-65"/>
     <use x="582.666016" xlink:href="#DejaVuSans-73"/>
    </g>
   </g>
   <g id="text_20">
    <!-- v2.0.1 -->
    <g style="fill:#808080;" transform="translate(233.67875 293.504568)scale(0.1 -0.1)">
     <use xlink:href="#DejaVuSans-76"/>
     <use x="59.179688" xlink:href="#DejaVuSans-32"/>
     <use x="122.802734" xlink:href="#DejaVuSans-2e"/>
     <use x="154.589844" xlink:href="#DejaVuSans-30"/>
     <use x="218.212891" xlink:href="#DejaVuSans-2e"/>
     <use x="250" xlink:href="#DejaVuSans-31"/>
    </g>
   </g>
  </g>
 </g>
 <defs>
  <clipPath id="p18dc41a5c8">
   <rect height="266.112" width="357.12" x="70.8" y="32.133375"/>
  </clipPath>
 </defs>
</svg>
