<?xml version="1.0" encoding="utf-8" standalone="no"?>
<!DOCTYPE svg PUBLIC "-//W3C//DTD SVG 1.1//EN"
  "http://www.w3.org/Graphics/SVG/1.1/DTD/svg11.dtd">
<!-- Created with matplotlib (http://matplotlib.org/) -->
<svg height="353pt" version="1.1" viewBox="0 0 439 353" width="439pt" xmlns="http://www.w3.org/2000/svg" xmlns:xlink="http://www.w3.org/1999/xlink">
 <defs>
  <style type="text/css">
*{stroke-linecap:butt;stroke-linejoin:round;}
  </style>
 </defs>
 <g id="figure_1">
  <g id="patch_1">
   <path d="M 0 353.22225 
L 439.489219 353.22225 
L 439.489219 0 
L 0 0 
z
" style="fill:#ffffff;"/>
  </g>
  <g id="axes_1">
   <g id="patch_2">
    <path d="M 70.8 298.245375 
L 427.92 298.245375 
L 427.92 32.133375 
L 70.8 32.133375 
z
" style="fill:#ffffff;"/>
   </g>
   <g id="matplotlib.axis_1">
    <g id="xtick_1">
     <g id="line2d_1">
      <path clip-path="url(#p5f6f42cd8a)" d="M 70.8 298.245375 
L 70.8 32.133375 
" style="fill:none;stroke:#b0b0b0;stroke-linecap:square;stroke-width:0.8;"/>
     </g>
     <g id="line2d_2">
      <defs>
       <path d="M 0 0 
L 0 3.5 
" id="mc23a7f4913" style="stroke:#000000;stroke-width:0.8;"/>
      </defs>
      <g>
       <use style="stroke:#000000;stroke-width:0.8;" x="70.8" xlink:href="#mc23a7f4913" y="298.245375"/>
      </g>
     </g>
     <g id="text_1">
      <!-- 0 -->
      <defs>
       <path d="M 31.78125 66.40625 
Q 24.171875 66.40625 20.328125 58.90625 
Q 16.5 51.421875 16.5 36.375 
Q 16.5 21.390625 20.328125 13.890625 
Q 24.171875 6.390625 31.78125 6.390625 
Q 39.453125 6.390625 43.28125 13.890625 
Q 47.125 21.390625 47.125 36.375 
Q 47.125 51.421875 43.28125 58.90625 
Q 39.453125 66.40625 31.78125 66.40625 
M 31.78125 74.21875 
Q 44.046875 74.21875 50.515625 64.515625 
Q 56.984375 54.828125 56.984375 36.375 
Q 56.984375 17.96875 50.515625 8.265625 
Q 44.046875 -1.421875 31.78125 -1.421875 
Q 19.53125 -1.421875 13.0625 8.265625 
Q 6.59375 17.96875 6.59375 36.375 
Q 6.59375 54.828125 13.0625 64.515625 
Q 19.53125 74.21875 31.78125 74.21875 
" id="DejaVuSans-30"/>
      </defs>
      <g transform="translate(64.4375 320.44225)scale(0.2 -0.2)">
       <use xlink:href="#DejaVuSans-30"/>
      </g>
     </g>
    </g>
    <g id="xtick_2">
     <g id="line2d_3">
      <path clip-path="url(#p5f6f42cd8a)" d="M 153.085714 298.245375 
L 153.085714 32.133375 
" style="fill:none;stroke:#b0b0b0;stroke-linecap:square;stroke-width:0.8;"/>
     </g>
     <g id="line2d_4">
      <g>
       <use style="stroke:#000000;stroke-width:0.8;" x="153.085714" xlink:href="#mc23a7f4913" y="298.245375"/>
      </g>
     </g>
     <g id="text_2">
      <!-- 2 -->
      <defs>
       <path d="M 19.1875 8.296875 
L 53.609375 8.296875 
L 53.609375 0 
L 7.328125 0 
L 7.328125 8.296875 
Q 12.9375 14.109375 22.625 23.890625 
Q 32.328125 33.6875 34.8125 36.53125 
Q 39.546875 41.84375 41.421875 45.53125 
Q 43.3125 49.21875 43.3125 52.78125 
Q 43.3125 58.59375 39.234375 62.25 
Q 35.15625 65.921875 28.609375 65.921875 
Q 23.96875 65.921875 18.8125 64.3125 
Q 13.671875 62.703125 7.8125 59.421875 
L 7.8125 69.390625 
Q 13.765625 71.78125 18.9375 73 
Q 24.125 74.21875 28.421875 74.21875 
Q 39.75 74.21875 46.484375 68.546875 
Q 53.21875 62.890625 53.21875 53.421875 
Q 53.21875 48.921875 51.53125 44.890625 
Q 49.859375 40.875 45.40625 35.40625 
Q 44.1875 33.984375 37.640625 27.21875 
Q 31.109375 20.453125 19.1875 8.296875 
" id="DejaVuSans-32"/>
      </defs>
      <g transform="translate(146.723214 320.44225)scale(0.2 -0.2)">
       <use xlink:href="#DejaVuSans-32"/>
      </g>
     </g>
    </g>
    <g id="xtick_3">
     <g id="line2d_5">
      <path clip-path="url(#p5f6f42cd8a)" d="M 235.371429 298.245375 
L 235.371429 32.133375 
" style="fill:none;stroke:#b0b0b0;stroke-linecap:square;stroke-width:0.8;"/>
     </g>
     <g id="line2d_6">
      <g>
       <use style="stroke:#000000;stroke-width:0.8;" x="235.371429" xlink:href="#mc23a7f4913" y="298.245375"/>
      </g>
     </g>
     <g id="text_3">
      <!-- 4 -->
      <defs>
       <path d="M 37.796875 64.3125 
L 12.890625 25.390625 
L 37.796875 25.390625 
z
M 35.203125 72.90625 
L 47.609375 72.90625 
L 47.609375 25.390625 
L 58.015625 25.390625 
L 58.015625 17.1875 
L 47.609375 17.1875 
L 47.609375 0 
L 37.796875 0 
L 37.796875 17.1875 
L 4.890625 17.1875 
L 4.890625 26.703125 
z
" id="DejaVuSans-34"/>
      </defs>
      <g transform="translate(229.008929 320.44225)scale(0.2 -0.2)">
       <use xlink:href="#DejaVuSans-34"/>
      </g>
     </g>
    </g>
    <g id="xtick_4">
     <g id="line2d_7">
      <path clip-path="url(#p5f6f42cd8a)" d="M 317.657143 298.245375 
L 317.657143 32.133375 
" style="fill:none;stroke:#b0b0b0;stroke-linecap:square;stroke-width:0.8;"/>
     </g>
     <g id="line2d_8">
      <g>
       <use style="stroke:#000000;stroke-width:0.8;" x="317.657143" xlink:href="#mc23a7f4913" y="298.245375"/>
      </g>
     </g>
     <g id="text_4">
      <!-- 6 -->
      <defs>
       <path d="M 33.015625 40.375 
Q 26.375 40.375 22.484375 35.828125 
Q 18.609375 31.296875 18.609375 23.390625 
Q 18.609375 15.53125 22.484375 10.953125 
Q 26.375 6.390625 33.015625 6.390625 
Q 39.65625 6.390625 43.53125 10.953125 
Q 47.40625 15.53125 47.40625 23.390625 
Q 47.40625 31.296875 43.53125 35.828125 
Q 39.65625 40.375 33.015625 40.375 
M 52.59375 71.296875 
L 52.59375 62.3125 
Q 48.875 64.0625 45.09375 64.984375 
Q 41.3125 65.921875 37.59375 65.921875 
Q 27.828125 65.921875 22.671875 59.328125 
Q 17.53125 52.734375 16.796875 39.40625 
Q 19.671875 43.65625 24.015625 45.921875 
Q 28.375 48.1875 33.59375 48.1875 
Q 44.578125 48.1875 50.953125 41.515625 
Q 57.328125 34.859375 57.328125 23.390625 
Q 57.328125 12.15625 50.6875 5.359375 
Q 44.046875 -1.421875 33.015625 -1.421875 
Q 20.359375 -1.421875 13.671875 8.265625 
Q 6.984375 17.96875 6.984375 36.375 
Q 6.984375 53.65625 15.1875 63.9375 
Q 23.390625 74.21875 37.203125 74.21875 
Q 40.921875 74.21875 44.703125 73.484375 
Q 48.484375 72.75 52.59375 71.296875 
" id="DejaVuSans-36"/>
      </defs>
      <g transform="translate(311.294643 320.44225)scale(0.2 -0.2)">
       <use xlink:href="#DejaVuSans-36"/>
      </g>
     </g>
    </g>
    <g id="xtick_5">
     <g id="line2d_9">
      <path clip-path="url(#p5f6f42cd8a)" d="M 399.942857 298.245375 
L 399.942857 32.133375 
" style="fill:none;stroke:#b0b0b0;stroke-linecap:square;stroke-width:0.8;"/>
     </g>
     <g id="line2d_10">
      <g>
       <use style="stroke:#000000;stroke-width:0.8;" x="399.942857" xlink:href="#mc23a7f4913" y="298.245375"/>
      </g>
     </g>
     <g id="text_5">
      <!-- 8 -->
      <defs>
       <path d="M 31.78125 34.625 
Q 24.75 34.625 20.71875 30.859375 
Q 16.703125 27.09375 16.703125 20.515625 
Q 16.703125 13.921875 20.71875 10.15625 
Q 24.75 6.390625 31.78125 6.390625 
Q 38.8125 6.390625 42.859375 10.171875 
Q 46.921875 13.96875 46.921875 20.515625 
Q 46.921875 27.09375 42.890625 30.859375 
Q 38.875 34.625 31.78125 34.625 
M 21.921875 38.8125 
Q 15.578125 40.375 12.03125 44.71875 
Q 8.5 49.078125 8.5 55.328125 
Q 8.5 64.0625 14.71875 69.140625 
Q 20.953125 74.21875 31.78125 74.21875 
Q 42.671875 74.21875 48.875 69.140625 
Q 55.078125 64.0625 55.078125 55.328125 
Q 55.078125 49.078125 51.53125 44.71875 
Q 48 40.375 41.703125 38.8125 
Q 48.828125 37.15625 52.796875 32.3125 
Q 56.78125 27.484375 56.78125 20.515625 
Q 56.78125 9.90625 50.3125 4.234375 
Q 43.84375 -1.421875 31.78125 -1.421875 
Q 19.734375 -1.421875 13.25 4.234375 
Q 6.78125 9.90625 6.78125 20.515625 
Q 6.78125 27.484375 10.78125 32.3125 
Q 14.796875 37.15625 21.921875 38.8125 
M 18.3125 54.390625 
Q 18.3125 48.734375 21.84375 45.5625 
Q 25.390625 42.390625 31.78125 42.390625 
Q 38.140625 42.390625 41.71875 45.5625 
Q 45.3125 48.734375 45.3125 54.390625 
Q 45.3125 60.0625 41.71875 63.234375 
Q 38.140625 66.40625 31.78125 66.40625 
Q 25.390625 66.40625 21.84375 63.234375 
Q 18.3125 60.0625 18.3125 54.390625 
" id="DejaVuSans-38"/>
      </defs>
      <g transform="translate(393.580357 320.44225)scale(0.2 -0.2)">
       <use xlink:href="#DejaVuSans-38"/>
      </g>
     </g>
    </g>
    <g id="xtick_6">
     <g id="line2d_11">
      <defs>
       <path d="M 0 0 
L 0 2 
" id="mdba9b9bc78" style="stroke:#000000;stroke-width:0.6;"/>
      </defs>
      <g>
       <use style="stroke:#000000;stroke-width:0.6;" x="83.185234" xlink:href="#mdba9b9bc78" y="298.245375"/>
      </g>
     </g>
    </g>
    <g id="xtick_7">
     <g id="line2d_12">
      <g>
       <use style="stroke:#000000;stroke-width:0.6;" x="95.570468" xlink:href="#mdba9b9bc78" y="298.245375"/>
      </g>
     </g>
    </g>
    <g id="xtick_8">
     <g id="line2d_13">
      <g>
       <use style="stroke:#000000;stroke-width:0.6;" x="102.815366" xlink:href="#mdba9b9bc78" y="298.245375"/>
      </g>
     </g>
    </g>
    <g id="xtick_9">
     <g id="line2d_14">
      <g>
       <use style="stroke:#000000;stroke-width:0.6;" x="107.955702" xlink:href="#mdba9b9bc78" y="298.245375"/>
      </g>
     </g>
    </g>
    <g id="xtick_10">
     <g id="line2d_15">
      <g>
       <use style="stroke:#000000;stroke-width:0.6;" x="165.470948" xlink:href="#mdba9b9bc78" y="298.245375"/>
      </g>
     </g>
    </g>
    <g id="xtick_11">
     <g id="line2d_16">
      <g>
       <use style="stroke:#000000;stroke-width:0.6;" x="177.856183" xlink:href="#mdba9b9bc78" y="298.245375"/>
      </g>
     </g>
    </g>
    <g id="xtick_12">
     <g id="line2d_17">
      <g>
       <use style="stroke:#000000;stroke-width:0.6;" x="185.10108" xlink:href="#mdba9b9bc78" y="298.245375"/>
      </g>
     </g>
    </g>
    <g id="xtick_13">
     <g id="line2d_18">
      <g>
       <use style="stroke:#000000;stroke-width:0.6;" x="190.241417" xlink:href="#mdba9b9bc78" y="298.245375"/>
      </g>
     </g>
    </g>
    <g id="xtick_14">
     <g id="line2d_19">
      <g>
       <use style="stroke:#000000;stroke-width:0.6;" x="247.756663" xlink:href="#mdba9b9bc78" y="298.245375"/>
      </g>
     </g>
    </g>
    <g id="xtick_15">
     <g id="line2d_20">
      <g>
       <use style="stroke:#000000;stroke-width:0.6;" x="260.141897" xlink:href="#mdba9b9bc78" y="298.245375"/>
      </g>
     </g>
    </g>
    <g id="xtick_16">
     <g id="line2d_21">
      <g>
       <use style="stroke:#000000;stroke-width:0.6;" x="267.386794" xlink:href="#mdba9b9bc78" y="298.245375"/>
      </g>
     </g>
    </g>
    <g id="xtick_17">
     <g id="line2d_22">
      <g>
       <use style="stroke:#000000;stroke-width:0.6;" x="272.527131" xlink:href="#mdba9b9bc78" y="298.245375"/>
      </g>
     </g>
    </g>
    <g id="xtick_18">
     <g id="line2d_23">
      <g>
       <use style="stroke:#000000;stroke-width:0.6;" x="330.042377" xlink:href="#mdba9b9bc78" y="298.245375"/>
      </g>
     </g>
    </g>
    <g id="xtick_19">
     <g id="line2d_24">
      <g>
       <use style="stroke:#000000;stroke-width:0.6;" x="342.427611" xlink:href="#mdba9b9bc78" y="298.245375"/>
      </g>
     </g>
    </g>
    <g id="xtick_20">
     <g id="line2d_25">
      <g>
       <use style="stroke:#000000;stroke-width:0.6;" x="349.672509" xlink:href="#mdba9b9bc78" y="298.245375"/>
      </g>
     </g>
    </g>
    <g id="xtick_21">
     <g id="line2d_26">
      <g>
       <use style="stroke:#000000;stroke-width:0.6;" x="354.812845" xlink:href="#mdba9b9bc78" y="298.245375"/>
      </g>
     </g>
    </g>
    <g id="xtick_22">
     <g id="line2d_27">
      <g>
       <use style="stroke:#000000;stroke-width:0.6;" x="412.328091" xlink:href="#mdba9b9bc78" y="298.245375"/>
      </g>
     </g>
    </g>
    <g id="xtick_23">
     <g id="line2d_28">
      <g>
       <use style="stroke:#000000;stroke-width:0.6;" x="424.713325" xlink:href="#mdba9b9bc78" y="298.245375"/>
      </g>
     </g>
    </g>
    <g id="text_6">
     <!-- log10 of (# f-evals / dimension) -->
     <defs>
      <path d="M 9.421875 75.984375 
L 18.40625 75.984375 
L 18.40625 0 
L 9.421875 0 
z
" id="DejaVuSans-6c"/>
      <path d="M 30.609375 48.390625 
Q 23.390625 48.390625 19.1875 42.75 
Q 14.984375 37.109375 14.984375 27.296875 
Q 14.984375 17.484375 19.15625 11.84375 
Q 23.34375 6.203125 30.609375 6.203125 
Q 37.796875 6.203125 41.984375 11.859375 
Q 46.1875 17.53125 46.1875 27.296875 
Q 46.1875 37.015625 41.984375 42.703125 
Q 37.796875 48.390625 30.609375 48.390625 
M 30.609375 56 
Q 42.328125 56 49.015625 48.375 
Q 55.71875 40.765625 55.71875 27.296875 
Q 55.71875 13.875 49.015625 6.21875 
Q 42.328125 -1.421875 30.609375 -1.421875 
Q 18.84375 -1.421875 12.171875 6.21875 
Q 5.515625 13.875 5.515625 27.296875 
Q 5.515625 40.765625 12.171875 48.375 
Q 18.84375 56 30.609375 56 
" id="DejaVuSans-6f"/>
      <path d="M 45.40625 27.984375 
Q 45.40625 37.75 41.375 43.109375 
Q 37.359375 48.484375 30.078125 48.484375 
Q 22.859375 48.484375 18.828125 43.109375 
Q 14.796875 37.75 14.796875 27.984375 
Q 14.796875 18.265625 18.828125 12.890625 
Q 22.859375 7.515625 30.078125 7.515625 
Q 37.359375 7.515625 41.375 12.890625 
Q 45.40625 18.265625 45.40625 27.984375 
M 54.390625 6.78125 
Q 54.390625 -7.171875 48.1875 -13.984375 
Q 42 -20.796875 29.203125 -20.796875 
Q 24.46875 -20.796875 20.265625 -20.09375 
Q 16.0625 -19.390625 12.109375 -17.921875 
L 12.109375 -9.1875 
Q 16.0625 -11.328125 19.921875 -12.34375 
Q 23.78125 -13.375 27.78125 -13.375 
Q 36.625 -13.375 41.015625 -8.765625 
Q 45.40625 -4.15625 45.40625 5.171875 
L 45.40625 9.625 
Q 42.625 4.78125 38.28125 2.390625 
Q 33.9375 0 27.875 0 
Q 17.828125 0 11.671875 7.65625 
Q 5.515625 15.328125 5.515625 27.984375 
Q 5.515625 40.671875 11.671875 48.328125 
Q 17.828125 56 27.875 56 
Q 33.9375 56 38.28125 53.609375 
Q 42.625 51.21875 45.40625 46.390625 
L 45.40625 54.6875 
L 54.390625 54.6875 
z
" id="DejaVuSans-67"/>
      <path d="M 12.40625 8.296875 
L 28.515625 8.296875 
L 28.515625 63.921875 
L 10.984375 60.40625 
L 10.984375 69.390625 
L 28.421875 72.90625 
L 38.28125 72.90625 
L 38.28125 8.296875 
L 54.390625 8.296875 
L 54.390625 0 
L 12.40625 0 
z
" id="DejaVuSans-31"/>
      <path id="DejaVuSans-20"/>
      <path d="M 37.109375 75.984375 
L 37.109375 68.5 
L 28.515625 68.5 
Q 23.6875 68.5 21.796875 66.546875 
Q 19.921875 64.59375 19.921875 59.515625 
L 19.921875 54.6875 
L 34.71875 54.6875 
L 34.71875 47.703125 
L 19.921875 47.703125 
L 19.921875 0 
L 10.890625 0 
L 10.890625 47.703125 
L 2.296875 47.703125 
L 2.296875 54.6875 
L 10.890625 54.6875 
L 10.890625 58.5 
Q 10.890625 67.625 15.140625 71.796875 
Q 19.390625 75.984375 28.609375 75.984375 
z
" id="DejaVuSans-66"/>
      <path d="M 31 75.875 
Q 24.46875 64.65625 21.28125 53.65625 
Q 18.109375 42.671875 18.109375 31.390625 
Q 18.109375 20.125 21.3125 9.0625 
Q 24.515625 -2 31 -13.1875 
L 23.1875 -13.1875 
Q 15.875 -1.703125 12.234375 9.375 
Q 8.59375 20.453125 8.59375 31.390625 
Q 8.59375 42.28125 12.203125 53.3125 
Q 15.828125 64.359375 23.1875 75.875 
z
" id="DejaVuSans-28"/>
      <path d="M 51.125 44 
L 36.921875 44 
L 32.8125 27.6875 
L 47.125 27.6875 
z
M 43.796875 71.78125 
L 38.71875 51.515625 
L 52.984375 51.515625 
L 58.109375 71.78125 
L 65.921875 71.78125 
L 60.890625 51.515625 
L 76.125 51.515625 
L 76.125 44 
L 58.984375 44 
L 54.984375 27.6875 
L 70.515625 27.6875 
L 70.515625 20.21875 
L 53.078125 20.21875 
L 48 0 
L 40.1875 0 
L 45.21875 20.21875 
L 30.90625 20.21875 
L 25.875 0 
L 18.015625 0 
L 23.09375 20.21875 
L 7.71875 20.21875 
L 7.71875 27.6875 
L 24.90625 27.6875 
L 29 44 
L 13.28125 44 
L 13.28125 51.515625 
L 30.90625 51.515625 
L 35.890625 71.78125 
z
" id="DejaVuSans-23"/>
      <path d="M 4.890625 31.390625 
L 31.203125 31.390625 
L 31.203125 23.390625 
L 4.890625 23.390625 
z
" id="DejaVuSans-2d"/>
      <path d="M 56.203125 29.59375 
L 56.203125 25.203125 
L 14.890625 25.203125 
Q 15.484375 15.921875 20.484375 11.0625 
Q 25.484375 6.203125 34.421875 6.203125 
Q 39.59375 6.203125 44.453125 7.46875 
Q 49.3125 8.734375 54.109375 11.28125 
L 54.109375 2.78125 
Q 49.265625 0.734375 44.1875 -0.34375 
Q 39.109375 -1.421875 33.890625 -1.421875 
Q 20.796875 -1.421875 13.15625 6.1875 
Q 5.515625 13.8125 5.515625 26.8125 
Q 5.515625 40.234375 12.765625 48.109375 
Q 20.015625 56 32.328125 56 
Q 43.359375 56 49.78125 48.890625 
Q 56.203125 41.796875 56.203125 29.59375 
M 47.21875 32.234375 
Q 47.125 39.59375 43.09375 43.984375 
Q 39.0625 48.390625 32.421875 48.390625 
Q 24.90625 48.390625 20.390625 44.140625 
Q 15.875 39.890625 15.1875 32.171875 
z
" id="DejaVuSans-65"/>
      <path d="M 2.984375 54.6875 
L 12.5 54.6875 
L 29.59375 8.796875 
L 46.6875 54.6875 
L 56.203125 54.6875 
L 35.6875 0 
L 23.484375 0 
z
" id="DejaVuSans-76"/>
      <path d="M 34.28125 27.484375 
Q 23.390625 27.484375 19.1875 25 
Q 14.984375 22.515625 14.984375 16.5 
Q 14.984375 11.71875 18.140625 8.90625 
Q 21.296875 6.109375 26.703125 6.109375 
Q 34.1875 6.109375 38.703125 11.40625 
Q 43.21875 16.703125 43.21875 25.484375 
L 43.21875 27.484375 
z
M 52.203125 31.203125 
L 52.203125 0 
L 43.21875 0 
L 43.21875 8.296875 
Q 40.140625 3.328125 35.546875 0.953125 
Q 30.953125 -1.421875 24.3125 -1.421875 
Q 15.921875 -1.421875 10.953125 3.296875 
Q 6 8.015625 6 15.921875 
Q 6 25.140625 12.171875 29.828125 
Q 18.359375 34.515625 30.609375 34.515625 
L 43.21875 34.515625 
L 43.21875 35.40625 
Q 43.21875 41.609375 39.140625 45 
Q 35.0625 48.390625 27.6875 48.390625 
Q 23 48.390625 18.546875 47.265625 
Q 14.109375 46.140625 10.015625 43.890625 
L 10.015625 52.203125 
Q 14.9375 54.109375 19.578125 55.046875 
Q 24.21875 56 28.609375 56 
Q 40.484375 56 46.34375 49.84375 
Q 52.203125 43.703125 52.203125 31.203125 
" id="DejaVuSans-61"/>
      <path d="M 44.28125 53.078125 
L 44.28125 44.578125 
Q 40.484375 46.53125 36.375 47.5 
Q 32.28125 48.484375 27.875 48.484375 
Q 21.1875 48.484375 17.84375 46.4375 
Q 14.5 44.390625 14.5 40.28125 
Q 14.5 37.15625 16.890625 35.375 
Q 19.28125 33.59375 26.515625 31.984375 
L 29.59375 31.296875 
Q 39.15625 29.25 43.1875 25.515625 
Q 47.21875 21.78125 47.21875 15.09375 
Q 47.21875 7.46875 41.1875 3.015625 
Q 35.15625 -1.421875 24.609375 -1.421875 
Q 20.21875 -1.421875 15.453125 -0.5625 
Q 10.6875 0.296875 5.421875 2 
L 5.421875 11.28125 
Q 10.40625 8.6875 15.234375 7.390625 
Q 20.0625 6.109375 24.8125 6.109375 
Q 31.15625 6.109375 34.5625 8.28125 
Q 37.984375 10.453125 37.984375 14.40625 
Q 37.984375 18.0625 35.515625 20.015625 
Q 33.0625 21.96875 24.703125 23.78125 
L 21.578125 24.515625 
Q 13.234375 26.265625 9.515625 29.90625 
Q 5.8125 33.546875 5.8125 39.890625 
Q 5.8125 47.609375 11.28125 51.796875 
Q 16.75 56 26.8125 56 
Q 31.78125 56 36.171875 55.265625 
Q 40.578125 54.546875 44.28125 53.078125 
" id="DejaVuSans-73"/>
      <path d="M 25.390625 72.90625 
L 33.6875 72.90625 
L 8.296875 -9.28125 
L 0 -9.28125 
z
" id="DejaVuSans-2f"/>
      <path d="M 45.40625 46.390625 
L 45.40625 75.984375 
L 54.390625 75.984375 
L 54.390625 0 
L 45.40625 0 
L 45.40625 8.203125 
Q 42.578125 3.328125 38.25 0.953125 
Q 33.9375 -1.421875 27.875 -1.421875 
Q 17.96875 -1.421875 11.734375 6.484375 
Q 5.515625 14.40625 5.515625 27.296875 
Q 5.515625 40.1875 11.734375 48.09375 
Q 17.96875 56 27.875 56 
Q 33.9375 56 38.25 53.625 
Q 42.578125 51.265625 45.40625 46.390625 
M 14.796875 27.296875 
Q 14.796875 17.390625 18.875 11.75 
Q 22.953125 6.109375 30.078125 6.109375 
Q 37.203125 6.109375 41.296875 11.75 
Q 45.40625 17.390625 45.40625 27.296875 
Q 45.40625 37.203125 41.296875 42.84375 
Q 37.203125 48.484375 30.078125 48.484375 
Q 22.953125 48.484375 18.875 42.84375 
Q 14.796875 37.203125 14.796875 27.296875 
" id="DejaVuSans-64"/>
      <path d="M 9.421875 54.6875 
L 18.40625 54.6875 
L 18.40625 0 
L 9.421875 0 
z
M 9.421875 75.984375 
L 18.40625 75.984375 
L 18.40625 64.59375 
L 9.421875 64.59375 
z
" id="DejaVuSans-69"/>
      <path d="M 52 44.1875 
Q 55.375 50.25 60.0625 53.125 
Q 64.75 56 71.09375 56 
Q 79.640625 56 84.28125 50.015625 
Q 88.921875 44.046875 88.921875 33.015625 
L 88.921875 0 
L 79.890625 0 
L 79.890625 32.71875 
Q 79.890625 40.578125 77.09375 44.375 
Q 74.3125 48.1875 68.609375 48.1875 
Q 61.625 48.1875 57.5625 43.546875 
Q 53.515625 38.921875 53.515625 30.90625 
L 53.515625 0 
L 44.484375 0 
L 44.484375 32.71875 
Q 44.484375 40.625 41.703125 44.40625 
Q 38.921875 48.1875 33.109375 48.1875 
Q 26.21875 48.1875 22.15625 43.53125 
Q 18.109375 38.875 18.109375 30.90625 
L 18.109375 0 
L 9.078125 0 
L 9.078125 54.6875 
L 18.109375 54.6875 
L 18.109375 46.1875 
Q 21.1875 51.21875 25.484375 53.609375 
Q 29.78125 56 35.6875 56 
Q 41.65625 56 45.828125 52.96875 
Q 50 49.953125 52 44.1875 
" id="DejaVuSans-6d"/>
      <path d="M 54.890625 33.015625 
L 54.890625 0 
L 45.90625 0 
L 45.90625 32.71875 
Q 45.90625 40.484375 42.875 44.328125 
Q 39.84375 48.1875 33.796875 48.1875 
Q 26.515625 48.1875 22.3125 43.546875 
Q 18.109375 38.921875 18.109375 30.90625 
L 18.109375 0 
L 9.078125 0 
L 9.078125 54.6875 
L 18.109375 54.6875 
L 18.109375 46.1875 
Q 21.34375 51.125 25.703125 53.5625 
Q 30.078125 56 35.796875 56 
Q 45.21875 56 50.046875 50.171875 
Q 54.890625 44.34375 54.890625 33.015625 
" id="DejaVuSans-6e"/>
      <path d="M 8.015625 75.875 
L 15.828125 75.875 
Q 23.140625 64.359375 26.78125 53.3125 
Q 30.421875 42.28125 30.421875 31.390625 
Q 30.421875 20.453125 26.78125 9.375 
Q 23.140625 -1.703125 15.828125 -13.1875 
L 8.015625 -13.1875 
Q 14.5 -2 17.703125 9.0625 
Q 20.90625 20.125 20.90625 31.390625 
Q 20.90625 42.671875 17.703125 53.65625 
Q 14.5 64.65625 8.015625 75.875 
" id="DejaVuSans-29"/>
     </defs>
     <g transform="translate(107.015156 342.278812)scale(0.18 -0.18)">
      <use xlink:href="#DejaVuSans-6c"/>
      <use x="27.783203" xlink:href="#DejaVuSans-6f"/>
      <use x="88.964844" xlink:href="#DejaVuSans-67"/>
      <use x="152.441406" xlink:href="#DejaVuSans-31"/>
      <use x="216.064453" xlink:href="#DejaVuSans-30"/>
      <use x="279.6875" xlink:href="#DejaVuSans-20"/>
      <use x="311.474609" xlink:href="#DejaVuSans-6f"/>
      <use x="372.65625" xlink:href="#DejaVuSans-66"/>
      <use x="407.861328" xlink:href="#DejaVuSans-20"/>
      <use x="439.648438" xlink:href="#DejaVuSans-28"/>
      <use x="478.662109" xlink:href="#DejaVuSans-23"/>
      <use x="562.451172" xlink:href="#DejaVuSans-20"/>
      <use x="594.238281" xlink:href="#DejaVuSans-66"/>
      <use x="629.365234" xlink:href="#DejaVuSans-2d"/>
      <use x="665.449219" xlink:href="#DejaVuSans-65"/>
      <use x="726.972656" xlink:href="#DejaVuSans-76"/>
      <use x="786.152344" xlink:href="#DejaVuSans-61"/>
      <use x="847.431641" xlink:href="#DejaVuSans-6c"/>
      <use x="875.214844" xlink:href="#DejaVuSans-73"/>
      <use x="927.314453" xlink:href="#DejaVuSans-20"/>
      <use x="959.101562" xlink:href="#DejaVuSans-2f"/>
      <use x="992.792969" xlink:href="#DejaVuSans-20"/>
      <use x="1024.580078" xlink:href="#DejaVuSans-64"/>
      <use x="1088.056641" xlink:href="#DejaVuSans-69"/>
      <use x="1115.839844" xlink:href="#DejaVuSans-6d"/>
      <use x="1213.251953" xlink:href="#DejaVuSans-65"/>
      <use x="1274.775391" xlink:href="#DejaVuSans-6e"/>
      <use x="1338.154297" xlink:href="#DejaVuSans-73"/>
      <use x="1390.253906" xlink:href="#DejaVuSans-69"/>
      <use x="1418.037109" xlink:href="#DejaVuSans-6f"/>
      <use x="1479.21875" xlink:href="#DejaVuSans-6e"/>
      <use x="1542.597656" xlink:href="#DejaVuSans-29"/>
     </g>
    </g>
   </g>
   <g id="matplotlib.axis_2">
    <g id="ytick_1">
     <g id="line2d_29">
      <path clip-path="url(#p5f6f42cd8a)" d="M 70.8 298.245375 
L 427.92 298.245375 
" style="fill:none;stroke:#b0b0b0;stroke-linecap:square;stroke-width:0.8;"/>
     </g>
     <g id="line2d_30">
      <defs>
       <path d="M 0 0 
L -3.5 0 
" id="m95e3193c40" style="stroke:#000000;stroke-width:0.8;"/>
      </defs>
      <g>
       <use style="stroke:#000000;stroke-width:0.8;" x="70.8" xlink:href="#m95e3193c40" y="298.245375"/>
      </g>
     </g>
     <g id="text_7">
      <!-- 0.0 -->
      <defs>
       <path d="M 10.6875 12.40625 
L 21 12.40625 
L 21 0 
L 10.6875 0 
z
" id="DejaVuSans-2e"/>
      </defs>
      <g transform="translate(31.99375 305.843812)scale(0.2 -0.2)">
       <use xlink:href="#DejaVuSans-30"/>
       <use x="63.623047" xlink:href="#DejaVuSans-2e"/>
       <use x="95.410156" xlink:href="#DejaVuSans-30"/>
      </g>
     </g>
    </g>
    <g id="ytick_2">
     <g id="line2d_31">
      <path clip-path="url(#p5f6f42cd8a)" d="M 70.8 245.549929 
L 427.92 245.549929 
" style="fill:none;stroke:#b0b0b0;stroke-linecap:square;stroke-width:0.8;"/>
     </g>
     <g id="line2d_32">
      <g>
       <use style="stroke:#000000;stroke-width:0.8;" x="70.8" xlink:href="#m95e3193c40" y="245.549929"/>
      </g>
     </g>
     <g id="text_8">
      <!-- 0.2 -->
      <g transform="translate(31.99375 253.148367)scale(0.2 -0.2)">
       <use xlink:href="#DejaVuSans-30"/>
       <use x="63.623047" xlink:href="#DejaVuSans-2e"/>
       <use x="95.410156" xlink:href="#DejaVuSans-32"/>
      </g>
     </g>
    </g>
    <g id="ytick_3">
     <g id="line2d_33">
      <path clip-path="url(#p5f6f42cd8a)" d="M 70.8 192.854484 
L 427.92 192.854484 
" style="fill:none;stroke:#b0b0b0;stroke-linecap:square;stroke-width:0.8;"/>
     </g>
     <g id="line2d_34">
      <g>
       <use style="stroke:#000000;stroke-width:0.8;" x="70.8" xlink:href="#m95e3193c40" y="192.854484"/>
      </g>
     </g>
     <g id="text_9">
      <!-- 0.4 -->
      <g transform="translate(31.99375 200.452921)scale(0.2 -0.2)">
       <use xlink:href="#DejaVuSans-30"/>
       <use x="63.623047" xlink:href="#DejaVuSans-2e"/>
       <use x="95.410156" xlink:href="#DejaVuSans-34"/>
      </g>
     </g>
    </g>
    <g id="ytick_4">
     <g id="line2d_35">
      <path clip-path="url(#p5f6f42cd8a)" d="M 70.8 140.159038 
L 427.92 140.159038 
" style="fill:none;stroke:#b0b0b0;stroke-linecap:square;stroke-width:0.8;"/>
     </g>
     <g id="line2d_36">
      <g>
       <use style="stroke:#000000;stroke-width:0.8;" x="70.8" xlink:href="#m95e3193c40" y="140.159038"/>
      </g>
     </g>
     <g id="text_10">
      <!-- 0.6 -->
      <g transform="translate(31.99375 147.757476)scale(0.2 -0.2)">
       <use xlink:href="#DejaVuSans-30"/>
       <use x="63.623047" xlink:href="#DejaVuSans-2e"/>
       <use x="95.410156" xlink:href="#DejaVuSans-36"/>
      </g>
     </g>
    </g>
    <g id="ytick_5">
     <g id="line2d_37">
      <path clip-path="url(#p5f6f42cd8a)" d="M 70.8 87.463593 
L 427.92 87.463593 
" style="fill:none;stroke:#b0b0b0;stroke-linecap:square;stroke-width:0.8;"/>
     </g>
     <g id="line2d_38">
      <g>
       <use style="stroke:#000000;stroke-width:0.8;" x="70.8" xlink:href="#m95e3193c40" y="87.463593"/>
      </g>
     </g>
     <g id="text_11">
      <!-- 0.8 -->
      <g transform="translate(31.99375 95.06203)scale(0.2 -0.2)">
       <use xlink:href="#DejaVuSans-30"/>
       <use x="63.623047" xlink:href="#DejaVuSans-2e"/>
       <use x="95.410156" xlink:href="#DejaVuSans-38"/>
      </g>
     </g>
    </g>
    <g id="ytick_6">
     <g id="line2d_39">
      <path clip-path="url(#p5f6f42cd8a)" d="M 70.8 34.768147 
L 427.92 34.768147 
" style="fill:none;stroke:#b0b0b0;stroke-linecap:square;stroke-width:0.8;"/>
     </g>
     <g id="line2d_40">
      <g>
       <use style="stroke:#000000;stroke-width:0.8;" x="70.8" xlink:href="#m95e3193c40" y="34.768147"/>
      </g>
     </g>
     <g id="text_12">
      <!-- 1.0 -->
      <g transform="translate(31.99375 42.366585)scale(0.2 -0.2)">
       <use xlink:href="#DejaVuSans-31"/>
       <use x="63.623047" xlink:href="#DejaVuSans-2e"/>
       <use x="95.410156" xlink:href="#DejaVuSans-30"/>
      </g>
     </g>
    </g>
    <g id="text_13">
     <!-- Proportion of function+target pairs -->
     <defs>
      <path d="M 19.671875 64.796875 
L 19.671875 37.40625 
L 32.078125 37.40625 
Q 38.96875 37.40625 42.71875 40.96875 
Q 46.484375 44.53125 46.484375 51.125 
Q 46.484375 57.671875 42.71875 61.234375 
Q 38.96875 64.796875 32.078125 64.796875 
z
M 9.8125 72.90625 
L 32.078125 72.90625 
Q 44.34375 72.90625 50.609375 67.359375 
Q 56.890625 61.8125 56.890625 51.125 
Q 56.890625 40.328125 50.609375 34.8125 
Q 44.34375 29.296875 32.078125 29.296875 
L 19.671875 29.296875 
L 19.671875 0 
L 9.8125 0 
z
" id="DejaVuSans-50"/>
      <path d="M 41.109375 46.296875 
Q 39.59375 47.171875 37.8125 47.578125 
Q 36.03125 48 33.890625 48 
Q 26.265625 48 22.1875 43.046875 
Q 18.109375 38.09375 18.109375 28.8125 
L 18.109375 0 
L 9.078125 0 
L 9.078125 54.6875 
L 18.109375 54.6875 
L 18.109375 46.1875 
Q 20.953125 51.171875 25.484375 53.578125 
Q 30.03125 56 36.53125 56 
Q 37.453125 56 38.578125 55.875 
Q 39.703125 55.765625 41.0625 55.515625 
z
" id="DejaVuSans-72"/>
      <path d="M 18.109375 8.203125 
L 18.109375 -20.796875 
L 9.078125 -20.796875 
L 9.078125 54.6875 
L 18.109375 54.6875 
L 18.109375 46.390625 
Q 20.953125 51.265625 25.265625 53.625 
Q 29.59375 56 35.59375 56 
Q 45.5625 56 51.78125 48.09375 
Q 58.015625 40.1875 58.015625 27.296875 
Q 58.015625 14.40625 51.78125 6.484375 
Q 45.5625 -1.421875 35.59375 -1.421875 
Q 29.59375 -1.421875 25.265625 0.953125 
Q 20.953125 3.328125 18.109375 8.203125 
M 48.6875 27.296875 
Q 48.6875 37.203125 44.609375 42.84375 
Q 40.53125 48.484375 33.40625 48.484375 
Q 26.265625 48.484375 22.1875 42.84375 
Q 18.109375 37.203125 18.109375 27.296875 
Q 18.109375 17.390625 22.1875 11.75 
Q 26.265625 6.109375 33.40625 6.109375 
Q 40.53125 6.109375 44.609375 11.75 
Q 48.6875 17.390625 48.6875 27.296875 
" id="DejaVuSans-70"/>
      <path d="M 18.3125 70.21875 
L 18.3125 54.6875 
L 36.8125 54.6875 
L 36.8125 47.703125 
L 18.3125 47.703125 
L 18.3125 18.015625 
Q 18.3125 11.328125 20.140625 9.421875 
Q 21.96875 7.515625 27.59375 7.515625 
L 36.8125 7.515625 
L 36.8125 0 
L 27.59375 0 
Q 17.1875 0 13.234375 3.875 
Q 9.28125 7.765625 9.28125 18.015625 
L 9.28125 47.703125 
L 2.6875 47.703125 
L 2.6875 54.6875 
L 9.28125 54.6875 
L 9.28125 70.21875 
z
" id="DejaVuSans-74"/>
      <path d="M 8.5 21.578125 
L 8.5 54.6875 
L 17.484375 54.6875 
L 17.484375 21.921875 
Q 17.484375 14.15625 20.5 10.265625 
Q 23.53125 6.390625 29.59375 6.390625 
Q 36.859375 6.390625 41.078125 11.03125 
Q 45.3125 15.671875 45.3125 23.6875 
L 45.3125 54.6875 
L 54.296875 54.6875 
L 54.296875 0 
L 45.3125 0 
L 45.3125 8.40625 
Q 42.046875 3.421875 37.71875 1 
Q 33.40625 -1.421875 27.6875 -1.421875 
Q 18.265625 -1.421875 13.375 4.4375 
Q 8.5 10.296875 8.5 21.578125 
M 31.109375 56 
z
" id="DejaVuSans-75"/>
      <path d="M 48.78125 52.59375 
L 48.78125 44.1875 
Q 44.96875 46.296875 41.140625 47.34375 
Q 37.3125 48.390625 33.40625 48.390625 
Q 24.65625 48.390625 19.8125 42.84375 
Q 14.984375 37.3125 14.984375 27.296875 
Q 14.984375 17.28125 19.8125 11.734375 
Q 24.65625 6.203125 33.40625 6.203125 
Q 37.3125 6.203125 41.140625 7.25 
Q 44.96875 8.296875 48.78125 10.40625 
L 48.78125 2.09375 
Q 45.015625 0.34375 40.984375 -0.53125 
Q 36.96875 -1.421875 32.421875 -1.421875 
Q 20.0625 -1.421875 12.78125 6.34375 
Q 5.515625 14.109375 5.515625 27.296875 
Q 5.515625 40.671875 12.859375 48.328125 
Q 20.21875 56 33.015625 56 
Q 37.15625 56 41.109375 55.140625 
Q 45.0625 54.296875 48.78125 52.59375 
" id="DejaVuSans-63"/>
      <path d="M 46 62.703125 
L 46 35.5 
L 73.1875 35.5 
L 73.1875 27.203125 
L 46 27.203125 
L 46 0 
L 37.796875 0 
L 37.796875 27.203125 
L 10.59375 27.203125 
L 10.59375 35.5 
L 37.796875 35.5 
L 37.796875 62.703125 
z
" id="DejaVuSans-2b"/>
     </defs>
     <g transform="translate(24.250312 323.17875)rotate(-90)scale(0.18 -0.18)">
      <use xlink:href="#DejaVuSans-50"/>
      <use x="60.287109" xlink:href="#DejaVuSans-72"/>
      <use x="101.369141" xlink:href="#DejaVuSans-6f"/>
      <use x="162.550781" xlink:href="#DejaVuSans-70"/>
      <use x="226.027344" xlink:href="#DejaVuSans-6f"/>
      <use x="287.208984" xlink:href="#DejaVuSans-72"/>
      <use x="328.322266" xlink:href="#DejaVuSans-74"/>
      <use x="367.53125" xlink:href="#DejaVuSans-69"/>
      <use x="395.314453" xlink:href="#DejaVuSans-6f"/>
      <use x="456.496094" xlink:href="#DejaVuSans-6e"/>
      <use x="519.875" xlink:href="#DejaVuSans-20"/>
      <use x="551.662109" xlink:href="#DejaVuSans-6f"/>
      <use x="612.84375" xlink:href="#DejaVuSans-66"/>
      <use x="648.048828" xlink:href="#DejaVuSans-20"/>
      <use x="679.835938" xlink:href="#DejaVuSans-66"/>
      <use x="715.041016" xlink:href="#DejaVuSans-75"/>
      <use x="778.419922" xlink:href="#DejaVuSans-6e"/>
      <use x="841.798828" xlink:href="#DejaVuSans-63"/>
      <use x="896.779297" xlink:href="#DejaVuSans-74"/>
      <use x="935.988281" xlink:href="#DejaVuSans-69"/>
      <use x="963.771484" xlink:href="#DejaVuSans-6f"/>
      <use x="1024.953125" xlink:href="#DejaVuSans-6e"/>
      <use x="1088.332031" xlink:href="#DejaVuSans-2b"/>
      <use x="1172.121094" xlink:href="#DejaVuSans-74"/>
      <use x="1211.330078" xlink:href="#DejaVuSans-61"/>
      <use x="1272.609375" xlink:href="#DejaVuSans-72"/>
      <use x="1313.707031" xlink:href="#DejaVuSans-67"/>
      <use x="1377.183594" xlink:href="#DejaVuSans-65"/>
      <use x="1438.707031" xlink:href="#DejaVuSans-74"/>
      <use x="1477.916016" xlink:href="#DejaVuSans-20"/>
      <use x="1509.703125" xlink:href="#DejaVuSans-70"/>
      <use x="1573.179688" xlink:href="#DejaVuSans-61"/>
      <use x="1634.458984" xlink:href="#DejaVuSans-69"/>
      <use x="1662.242188" xlink:href="#DejaVuSans-72"/>
      <use x="1703.355469" xlink:href="#DejaVuSans-73"/>
     </g>
    </g>
   </g>
   <g id="line2d_41">
    <defs>
     <path d="M 0 1.5 
C 0.397805 1.5 0.77937 1.341951 1.06066 1.06066 
C 1.341951 0.77937 1.5 0.397805 1.5 0 
C 1.5 -0.397805 1.341951 -0.77937 1.06066 -1.06066 
C 0.77937 -1.341951 0.397805 -1.5 0 -1.5 
C -0.397805 -1.5 -0.77937 -1.341951 -1.06066 -1.06066 
C -1.341951 -0.77937 -1.5 -0.397805 -1.5 0 
C -1.5 0.397805 -1.341951 0.77937 -1.06066 1.06066 
C -0.77937 1.341951 -0.397805 1.5 0 1.5 
z
" id="m5cb454a7ca" style="stroke:#00bfbf;"/>
    </defs>
    <g>
     <use style="fill:#00bfbf;stroke:#00bfbf;" x="296.689917" xlink:href="#m5cb454a7ca" y="34.768147"/>
     <use style="fill:#00bfbf;stroke:#00bfbf;" x="296.689917" xlink:href="#m5cb454a7ca" y="34.768147"/>
    </g>
   </g>
   <g id="line2d_42">
    <path d="M 58.414766 298.245375 
L 58.414766 289.462801 
L 153.085714 289.462801 
L 153.085714 282.230093 
L 160.330612 282.230093 
L 160.330612 279.646982 
L 165.470948 279.646982 
L 165.470948 278.097116 
L 169.458103 278.097116 
L 169.458103 276.54725 
L 172.715846 276.54725 
L 172.715846 275.514006 
L 175.470228 275.514006 
L 175.470228 274.480762 
L 181.843337 274.480762 
L 181.843337 272.930896 
L 183.546351 272.930896 
L 183.546351 271.897652 
L 189.088235 271.897652 
L 189.088235 271.38103 
L 190.241417 271.38103 
L 190.241417 270.347786 
L 193.312057 270.347786 
L 193.312057 269.314542 
L 195.931585 269.314542 
L 195.931585 268.79792 
L 198.215726 268.79792 
L 198.215726 268.281298 
L 200.867712 268.281298 
L 200.867712 266.21481 
L 205.697291 266.21481 
L 205.697291 265.181566 
L 207.485594 265.181566 
L 207.485594 263.115078 
L 207.906039 263.115078 
L 207.906039 262.598456 
L 208.718366 262.598456 
L 208.718366 260.015346 
L 210.60096 260.015346 
L 210.60096 258.982102 
L 210.954796 258.982102 
L 210.954796 257.432236 
L 211.301761 257.432236 
L 211.301761 256.915614 
L 212.303974 256.915614 
L 212.303974 256.398992 
L 212.942189 256.398992 
L 212.942189 254.849126 
L 213.858703 254.849126 
L 213.858703 251.232772 
L 214.154051 251.232772 
L 214.154051 246.583173 
L 214.444595 246.583173 
L 214.444595 246.066551 
L 215.011885 246.066551 
L 215.011885 245.033307 
L 215.830415 245.033307 
L 215.830415 244.000063 
L 216.095133 244.000063 
L 216.095133 241.416953 
L 216.866538 241.416953 
L 216.866538 240.383709 
L 218.546658 240.383709 
L 218.546658 237.283977 
L 218.99904 237.283977 
L 218.99904 236.767355 
L 219.44025 236.767355 
L 219.44025 234.700867 
L 219.656836 234.700867 
L 219.656836 232.117757 
L 220.082287 232.117757 
L 220.082287 230.567891 
L 220.497844 230.567891 
L 220.497844 230.051269 
L 220.702053 230.051269 
L 220.702053 228.501403 
L 220.903955 228.501403 
L 220.903955 225.918293 
L 221.30104 225.918293 
L 221.30104 224.368427 
L 221.496322 224.368427 
L 221.496322 220.752073 
L 221.880598 220.752073 
L 221.880598 217.652341 
L 222.06968 217.652341 
L 222.06968 216.102475 
L 222.256782 216.102475 
L 222.256782 211.969498 
L 222.441946 211.969498 
L 222.441946 211.452876 
L 222.62521 211.452876 
L 222.62521 210.419632 
L 222.806614 210.419632 
L 222.806614 209.386388 
L 222.986194 209.386388 
L 222.986194 208.353144 
L 223.163988 208.353144 
L 223.163988 206.803278 
L 223.34003 206.803278 
L 223.34003 205.253412 
L 223.686995 205.253412 
L 223.686995 202.15368 
L 224.02735 202.15368 
L 224.02735 201.637058 
L 224.361343 201.637058 
L 224.361343 201.120436 
L 224.850911 201.120436 
L 224.850911 199.57057 
L 225.483477 199.57057 
L 225.483477 196.98746 
L 226.392221 196.98746 
L 226.392221 195.954216 
L 226.539285 195.954216 
L 226.539285 195.437594 
L 226.685148 195.437594 
L 226.685148 193.371106 
L 226.973349 193.371106 
L 226.973349 189.23813 
L 227.115725 189.23813 
L 227.115725 188.721508 
L 227.256976 188.721508 
L 227.256976 188.204886 
L 227.397119 188.204886 
L 227.397119 187.688264 
L 227.536171 187.688264 
L 227.536171 183.555288 
L 227.811071 183.555288 
L 227.811071 183.038666 
L 228.081805 183.038666 
L 228.081805 182.522044 
L 228.348498 182.522044 
L 228.348498 181.4888 
L 228.480367 181.4888 
L 228.480367 179.938934 
L 228.74122 179.938934 
L 228.74122 178.90569 
L 228.998319 178.90569 
L 228.998319 177.872445 
L 229.125495 177.872445 
L 229.125495 175.289335 
L 229.251772 175.289335 
L 229.251772 174.772713 
L 229.377163 174.772713 
L 229.377163 173.222847 
L 229.50168 173.222847 
L 229.50168 165.473517 
L 229.625335 165.473517 
L 229.625335 164.440273 
L 229.748141 164.440273 
L 229.748141 162.890407 
L 229.991248 162.890407 
L 229.991248 161.857163 
L 230.111572 161.857163 
L 230.111572 160.307297 
L 230.231092 160.307297 
L 230.231092 158.757431 
L 230.467759 158.757431 
L 230.467759 158.240809 
L 230.816984 158.240809 
L 230.816984 157.207565 
L 231.384274 157.207565 
L 231.384274 155.657699 
L 232.04207 155.657699 
L 232.04207 155.141077 
L 232.256062 155.141077 
L 232.256062 153.591211 
L 232.883078 153.591211 
L 232.883078 153.074589 
L 233.087287 153.074589 
L 233.087287 152.041345 
L 233.978403 152.041345 
L 234.074727 149.974857 
L 234.170535 149.974857 
L 234.265832 147.908369 
L 234.734838 147.908369 
L 234.82718 146.875125 
L 235.010444 146.875125 
L 235.101376 145.325259 
L 235.191848 145.325259 
L 235.281864 143.25877 
L 235.371429 143.25877 
L 235.460547 141.708904 
L 235.549222 141.708904 
L 235.63746 140.67566 
L 235.725264 140.67566 
L 235.725264 138.09255 
L 235.899589 138.09255 
L 235.899589 133.959574 
L 237.316452 133.959574 
L 237.316452 132.409708 
L 238.404412 132.409708 
L 238.404412 129.826598 
L 238.703467 129.826598 
L 238.703467 128.793354 
L 239.070382 128.793354 
L 239.070382 127.76011 
L 239.215064 127.76011 
L 239.215064 127.243488 
L 239.358583 127.243488 
L 239.358583 126.726866 
L 239.64221 126.726866 
L 239.64221 126.210244 
L 240.196305 126.210244 
L 240.196305 125.693622 
L 242.133375 125.693622 
L 242.133375 124.660378 
L 242.496806 124.660378 
L 242.496806 123.627134 
L 242.675787 123.627134 
L 242.675787 122.59389 
L 243.086567 122.59389 
L 243.086567 121.560646 
L 243.769508 121.560646 
L 243.769508 121.044024 
L 244.156159 121.044024 
L 244.210718 117.944292 
L 244.427304 117.944292 
L 244.534621 116.911048 
L 244.694396 116.911048 
L 244.694396 115.877804 
L 245.523211 115.877804 
L 245.523211 114.84456 
L 245.824366 114.84456 
L 245.824366 113.811316 
L 246.507929 113.811316 
L 246.507929 111.228206 
L 246.840148 111.228206 
L 246.840148 110.711584 
L 247.304281 110.711584 
L 247.304281 110.194961 
L 248.06665 110.194961 
L 248.06665 109.678339 
L 248.585857 109.678339 
L 248.585857 108.128473 
L 248.755627 108.128473 
L 248.755627 105.545363 
L 249.741704 105.545363 
L 249.741704 105.028741 
L 250.01935 105.028741 
L 250.01935 104.512119 
L 250.75191 104.512119 
L 250.827303 101.412387 
L 251.014405 101.412387 
L 251.088701 100.379143 
L 251.2731 100.379143 
L 251.34633 98.829277 
L 251.455616 98.829277 
L 251.455616 97.796033 
L 251.672202 97.796033 
L 251.779518 91.079947 
L 252.547407 91.079947 
L 252.547407 90.046703 
L 252.818655 90.046703 
L 252.818655 89.530081 
L 253.185022 89.530081 
L 253.217959 87.463593 
L 253.381737 87.463593 
L 253.381737 86.430349 
L 253.608534 86.430349 
L 253.608534 84.880483 
L 254.272148 84.880483 
L 254.334083 82.813995 
L 254.670938 82.813995 
L 254.761716 80.747507 
L 254.852035 80.747507 
L 254.9419 78.681019 
L 255.061022 78.681019 
L 255.061022 78.164397 
L 255.587453 78.164397 
L 255.587453 77.131153 
L 256.042716 77.131153 
L 256.098817 74.548042 
L 256.486667 74.548042 
L 256.486667 73.514798 
L 257.730398 73.514798 
L 257.730398 71.964932 
L 258.724709 71.964932 
L 258.797098 70.415066 
L 258.917099 70.415066 
L 258.917099 69.898444 
L 259.154711 69.898444 
L 259.154711 68.348578 
L 259.712408 68.348578 
L 259.780912 67.315334 
L 259.962316 67.315334 
L 259.962316 66.28209 
L 260.074765 66.28209 
L 260.074765 64.732224 
L 260.186511 64.732224 
L 260.186511 63.69898 
L 260.885598 63.69898 
L 260.885598 63.182358 
L 261.161969 63.182358 
L 261.161969 62.149114 
L 262.716698 62.149114 
L 262.716698 61.632492 
L 263.137144 61.632492 
L 263.231336 59.566004 
L 263.343714 59.566004 
L 263.343714 58.53276 
L 264.129052 58.53276 
L 264.129052 58.016138 
L 264.674551 58.016138 
L 264.674551 57.499516 
L 265.00084 57.499516 
L 265.00084 56.982894 
L 265.454498 56.982894 
L 265.454498 56.466272 
L 265.961545 56.466272 
L 266.041996 51.816674 
L 266.201819 51.816674 
L 266.201819 51.300052 
L 266.579661 51.300052 
L 266.579661 50.266808 
L 266.734767 50.266808 
L 266.765627 48.716942 
L 267.282258 48.716942 
L 267.356989 44.583966 
L 268.201768 44.583966 
L 268.272758 42.000855 
L 269.845191 42.000855 
L 269.845191 41.484233 
L 277.731566 41.484233 
L 277.80652 38.384501 
L 278.403132 38.384501 
L 278.403132 37.867879 
L 281.447948 37.867879 
L 281.447948 36.318013 
L 284.200394 36.318013 
L 284.200394 35.801391 
L 289.540086 35.801391 
L 289.540086 35.284769 
L 296.689917 35.284769 
L 296.689917 34.768147 
L 358.8 34.768147 
L 358.8 34.768147 
" style="fill:none;stroke:#00bfbf;stroke-linecap:square;stroke-width:1.5;"/>
   </g>
   <g id="line2d_43">
    <defs>
     <path d="M -6 0 
L 6 0 
M 0 6 
L 0 -6 
" id="mfa7b6417e4" style="stroke:#00bfbf;stroke-width:1.5;"/>
    </defs>
    <g>
     <use style="fill:none;stroke:#00bfbf;stroke-width:1.5;" x="358.8" xlink:href="#mfa7b6417e4" y="34.768147"/>
    </g>
   </g>
   <g id="line2d_44"/>
   <g id="line2d_45">
    <path clip-path="url(#p5f6f42cd8a)" d="M 276.514286 41.484233 
" style="fill:none;stroke:#00bfbf;stroke-linecap:square;stroke-width:1.5;"/>
    <defs>
     <path d="M -12 12 
L 12 -12 
M -12 -12 
L 12 12 
" id="m4726378f02" style="stroke:#00bfbf;stroke-width:3;"/>
    </defs>
    <g clip-path="url(#p5f6f42cd8a)">
     <use style="fill:#00bfbf;stroke:#00bfbf;stroke-width:3;" x="276.514286" xlink:href="#m4726378f02" y="41.484233"/>
    </g>
   </g>
   <g id="line2d_46">
    <defs>
     <path d="M 0 1.5 
C 0.397805 1.5 0.77937 1.341951 1.06066 1.06066 
C 1.341951 0.77937 1.5 0.397805 1.5 0 
C 1.5 -0.397805 1.341951 -0.77937 1.06066 -1.06066 
C 0.77937 -1.341951 0.397805 -1.5 0 -1.5 
C -0.397805 -1.5 -0.77937 -1.341951 -1.06066 -1.06066 
C -1.341951 -0.77937 -1.5 -0.397805 -1.5 0 
C -1.5 0.397805 -1.341951 0.77937 -1.06066 1.06066 
C -0.77937 1.341951 -0.397805 1.5 0 1.5 
z
" id="m3bd2ff676f" style="stroke:#008000;"/>
    </defs>
    <g>
     <use style="fill:#008000;stroke:#008000;" x="349.587233" xlink:href="#m3bd2ff676f" y="179.422312"/>
     <use style="fill:#008000;stroke:#008000;" x="349.587233" xlink:href="#m3bd2ff676f" y="179.422312"/>
    </g>
   </g>
   <g id="line2d_47">
    <path d="M 182.996519 298.245375 
L 182.996519 295.662265 
L 187.855462 295.662265 
L 187.855462 295.145643 
L 188.686687 295.145643 
L 188.686687 294.629021 
L 190.241417 294.629021 
L 190.241417 293.079155 
L 193.622815 293.079155 
L 193.622815 292.562533 
L 194.814464 292.562533 
L 194.814464 291.529289 
L 195.931585 291.529289 
L 195.931585 289.462801 
L 196.465001 289.462801 
L 196.465001 286.879691 
L 197.486314 286.879691 
L 197.486314 285.329825 
L 197.975882 285.329825 
L 197.975882 284.296581 
L 199.368908 284.296581 
L 199.368908 283.779959 
L 199.810118 283.779959 
L 199.810118 280.680226 
L 200.661142 280.680226 
L 200.661142 280.163604 
L 201.866191 280.163604 
L 201.866191 276.54725 
L 203.356063 276.54725 
L 203.356063 276.030628 
L 211.071201 276.030628 
L 211.071201 274.480762 
L 211.529383 274.480762 
L 211.529383 273.96414 
L 212.83739 273.96414 
L 212.83739 272.414274 
L 213.046376 272.414274 
L 213.046376 270.864408 
L 213.858703 270.864408 
L 213.858703 269.314542 
L 214.056143 269.314542 
L 214.056143 268.281298 
L 214.251425 268.281298 
L 214.251425 267.248054 
L 214.824782 267.248054 
L 214.824782 266.21481 
L 215.197048 266.21481 
L 215.197048 262.081834 
L 215.741297 262.081834 
L 215.741297 258.46548 
L 215.919091 258.46548 
L 215.919091 257.432236 
L 216.442097 257.432236 
L 216.442097 255.88237 
L 216.782453 255.88237 
L 216.782453 254.332504 
L 217.44431 254.332504 
L 217.44431 253.815882 
L 218.393283 253.815882 
L 218.393283 253.29926 
L 218.698728 253.29926 
L 218.698728 251.749394 
L 218.849515 251.749394 
L 218.849515 251.232772 
L 218.99904 251.232772 
L 218.99904 250.199528 
L 220.012079 250.199528 
L 220.012079 249.166284 
L 220.429252 249.166284 
L 220.429252 248.649662 
L 221.235469 248.649662 
L 221.235469 247.616418 
L 221.366372 247.616418 
L 221.366372 246.583173 
L 221.496322 246.583173 
L 221.496322 244.516685 
L 222.380438 244.516685 
L 222.380438 242.450197 
L 222.866675 242.450197 
L 222.866675 240.383709 
L 223.10492 240.383709 
L 223.10492 239.867087 
L 226.82983 239.867087 
L 226.82983 239.350465 
L 227.115725 239.350465 
L 227.115725 238.833843 
L 227.856479 238.833843 
L 227.94695 237.800599 
L 230.545957 237.800599 
L 230.545957 237.283977 
L 236.299851 237.283977 
L 236.299851 236.250733 
L 237.182407 236.250733 
L 237.182407 235.734111 
L 240.645276 235.734111 
L 240.645276 235.217489 
L 243.163751 235.217489 
L 243.163751 234.700867 
L 255.740499 234.700867 
L 255.740499 234.184245 
L 257.891564 234.184245 
L 257.891564 233.667623 
L 258.603404 233.667623 
L 258.603404 233.151001 
L 258.925071 233.151001 
L 258.925071 232.634379 
L 260.568574 232.634379 
L 260.568574 232.117757 
L 262.060191 232.117757 
L 262.060191 231.601135 
L 264.0335 231.601135 
L 264.0335 231.084513 
L 265.559264 231.084513 
L 265.559264 230.567891 
L 265.821232 230.567891 
L 265.864523 229.534647 
L 267.721155 229.534647 
L 267.721155 229.018025 
L 270.503352 229.018025 
L 270.503352 227.984781 
L 276.750953 227.984781 
L 276.786184 225.918293 
L 277.082878 225.918293 
L 277.192163 220.752073 
L 277.209358 220.752073 
L 277.317875 217.652341 
L 277.380401 217.652341 
L 277.380401 216.619097 
L 278.996024 216.619097 
L 279.08393 215.585853 
L 279.395844 215.585853 
L 279.395844 215.069231 
L 282.187119 215.069231 
L 282.187119 214.552609 
L 283.095827 214.552609 
L 283.095827 213.519365 
L 284.248751 213.519365 
L 284.341233 212.48612 
L 285.038485 212.48612 
L 285.038485 210.936254 
L 289.186078 210.936254 
L 289.253355 206.286656 
L 289.337825 206.286656 
L 289.337825 205.770034 
L 289.568794 205.770034 
L 289.568794 205.253412 
L 291.494937 205.253412 
L 291.494937 204.73679 
L 291.768401 204.73679 
L 291.768401 203.703546 
L 291.909871 203.703546 
L 291.909871 203.186924 
L 292.226615 203.186924 
L 292.226615 201.120436 
L 293.238174 201.120436 
L 293.238174 200.087192 
L 296.373246 200.087192 
L 296.416316 198.537326 
L 298.617514 198.537326 
L 298.617514 198.020704 
L 299.150574 198.020704 
L 299.150574 197.504082 
L 299.960813 197.504082 
L 299.960813 196.98746 
L 302.776711 196.98746 
L 302.776711 196.470838 
L 303.170921 196.470838 
L 303.170921 195.954216 
L 306.537528 195.954216 
L 306.537528 194.920972 
L 308.647391 194.920972 
L 308.648377 193.371106 
L 309.590462 193.371106 
L 309.590462 192.854484 
L 309.808953 192.854484 
L 309.808953 192.337862 
L 309.952532 192.337862 
L 309.952532 191.82124 
L 310.095876 191.82124 
L 310.095876 191.304618 
L 310.263321 191.304618 
L 310.263321 190.787996 
L 310.539548 190.787996 
L 310.539548 190.271374 
L 311.477826 190.271374 
L 311.477826 189.754752 
L 312.15177 189.754752 
L 312.15177 188.721508 
L 314.471442 188.721508 
L 314.471442 188.204886 
L 315.198206 188.204886 
L 315.198206 187.688264 
L 315.853787 187.688264 
L 315.853787 187.171642 
L 318.524393 187.171642 
L 318.599696 186.138398 
L 321.703759 186.138398 
L 321.802738 185.105154 
L 327.769738 185.105154 
L 327.769738 184.588532 
L 328.855174 184.588532 
L 328.855174 184.07191 
L 329.691722 184.07191 
L 329.691722 183.555288 
L 330.481263 183.555288 
L 330.481263 183.038666 
L 330.669434 183.038666 
L 330.669434 182.522044 
L 333.086164 182.522044 
L 333.086164 182.005422 
L 335.431132 182.005422 
L 335.431132 181.4888 
L 336.440425 181.4888 
L 336.440425 180.972178 
L 342.74389 180.972178 
L 342.74389 180.455556 
L 343.557605 180.455556 
L 343.557605 179.938934 
L 349.587233 179.938934 
L 349.587233 179.422312 
L 358.8 179.422312 
L 358.8 179.422312 
" style="fill:none;stroke:#008000;stroke-linecap:square;stroke-width:1.5;"/>
   </g>
   <g id="line2d_48">
    <defs>
     <path d="M -0 6 
L 6 -6 
L -6 -6 
z
" id="m41e29d7904" style="stroke:#008000;stroke-linejoin:miter;stroke-width:1.5;"/>
    </defs>
    <g>
     <use style="fill:none;stroke:#008000;stroke-linejoin:miter;stroke-width:1.5;" x="358.8" xlink:href="#m41e29d7904" y="179.422312"/>
    </g>
   </g>
   <g id="line2d_49"/>
   <g id="line2d_50">
    <path clip-path="url(#p5f6f42cd8a)" d="M 276.514286 227.984781 
" style="fill:none;stroke:#008000;stroke-linecap:square;stroke-width:1.5;"/>
    <defs>
     <path d="M -12 12 
L 12 -12 
M -12 -12 
L 12 12 
" id="mb625e33d69" style="stroke:#008000;stroke-width:3;"/>
    </defs>
    <g clip-path="url(#p5f6f42cd8a)">
     <use style="fill:#008000;stroke:#008000;stroke-width:3;" x="276.514286" xlink:href="#mb625e33d69" y="227.984781"/>
    </g>
   </g>
   <g id="line2d_51">
    <defs>
     <path d="M 0 1.5 
C 0.397805 1.5 0.77937 1.341951 1.06066 1.06066 
C 1.341951 0.77937 1.5 0.397805 1.5 0 
C 1.5 -0.397805 1.341951 -0.77937 1.06066 -1.06066 
C 0.77937 -1.341951 0.397805 -1.5 0 -1.5 
C -0.397805 -1.5 -0.77937 -1.341951 -1.06066 -1.06066 
C -1.341951 -0.77937 -1.5 -0.397805 -1.5 0 
C -1.5 0.397805 -1.341951 0.77937 -1.06066 1.06066 
C -0.77937 1.341951 -0.397805 1.5 0 1.5 
z
" id="m200657aca9" style="stroke:#0000ff;"/>
    </defs>
    <g>
     <use style="fill:#0000ff;stroke:#0000ff;" x="348.765333" xlink:href="#m200657aca9" y="215.585853"/>
     <use style="fill:#0000ff;stroke:#0000ff;" x="348.765333" xlink:href="#m200657aca9" y="215.585853"/>
    </g>
   </g>
   <g id="line2d_52">
    <path d="M 185.686972 298.245375 
L 185.686972 296.695509 
L 192.345978 296.695509 
L 192.345978 296.178887 
L 193.867587 296.178887 
L 193.867587 295.662265 
L 207.485594 295.662265 
L 207.485594 295.145643 
L 210.743337 295.145643 
L 210.743337 294.112399 
L 210.884587 294.112399 
L 210.884587 293.079155 
L 211.438682 293.079155 
L 211.438682 292.562533 
L 211.574562 292.562533 
L 211.574562 291.529289 
L 212.107978 291.529289 
L 212.107978 291.012667 
L 212.368831 291.012667 
L 212.368831 289.979423 
L 212.497843 289.979423 
L 212.497843 286.363069 
L 212.753106 286.363069 
L 212.753106 282.746715 
L 212.879383 282.746715 
L 212.879383 279.13036 
L 213.004774 279.13036 
L 213.004774 277.580494 
L 213.129291 277.580494 
L 213.129291 276.54725 
L 213.497719 276.54725 
L 213.497719 273.447518 
L 213.618859 273.447518 
L 213.618859 272.414274 
L 213.739183 272.414274 
L 213.739183 271.897652 
L 214.09537 271.897652 
L 214.09537 271.38103 
L 216.407702 271.38103 
L 216.407702 270.347786 
L 216.613085 270.347786 
L 216.613085 269.831164 
L 217.509167 269.831164 
L 217.509167 268.79792 
L 217.702338 268.79792 
L 217.798146 267.764676 
L 217.988234 267.764676 
L 217.988234 267.248054 
L 218.176321 267.248054 
L 218.269628 265.698188 
L 218.362449 265.698188 
L 218.454791 264.148322 
L 218.546658 264.148322 
L 218.638055 260.531968 
L 218.909475 260.531968 
L 218.909475 257.948858 
L 219.613728 257.948858 
L 219.613728 257.432236 
L 222.62521 257.432236 
L 222.62521 256.398992 
L 222.842675 256.398992 
L 222.842675 255.365748 
L 223.409964 255.365748 
L 223.409964 254.849126 
L 224.947236 254.849126 
L 224.947236 253.815882 
L 277.00424 253.815882 
L 277.038976 249.682906 
L 277.191017 249.682906 
L 277.201336 248.13304 
L 277.341774 248.13304 
L 277.399683 244.000063 
L 289.151462 244.000063 
L 289.253355 240.383709 
L 289.332012 240.383709 
L 289.351187 239.350465 
L 296.321032 239.350465 
L 296.321032 237.800599 
L 296.433905 237.800599 
L 296.440936 236.767355 
L 301.417378 236.767355 
L 301.417378 235.734111 
L 305.446164 235.734111 
L 305.452533 234.700867 
L 311.359939 234.700867 
L 311.359939 234.184245 
L 313.735533 234.184245 
L 313.736423 232.634379 
L 315.833615 232.634379 
L 315.871567 231.601135 
L 317.710311 231.601135 
L 317.710311 230.567891 
L 319.408497 230.567891 
L 319.442484 229.534647 
L 320.989478 229.534647 
L 320.989478 229.018025 
L 322.38601 229.018025 
L 322.38601 227.984781 
L 324.961739 227.984781 
L 324.962451 226.951537 
L 327.191784 226.951537 
L 327.191784 226.434915 
L 329.153865 226.434915 
L 329.153865 225.918293 
L 330.068981 225.918293 
L 330.068981 225.401671 
L 330.939503 225.401671 
L 330.957337 224.368427 
L 332.562795 224.368427 
L 332.562795 223.851805 
L 333.322292 223.851805 
L 333.337455 222.818561 
L 334.050818 222.818561 
L 334.065803 221.785317 
L 334.7508 221.785317 
L 334.7508 221.268695 
L 336.71279 221.268695 
L 336.71279 220.752073 
L 337.317149 220.752073 
L 337.317149 219.718829 
L 338.468799 219.718829 
L 338.468799 219.202207 
L 340.056864 219.202207 
L 340.056864 217.652341 
L 340.569916 217.652341 
L 340.569916 217.135719 
L 343.740693 217.135719 
L 343.740693 216.102475 
L 348.765333 216.102475 
L 348.765333 215.585853 
L 358.8 215.585853 
L 358.8 215.585853 
" style="fill:none;stroke:#0000ff;stroke-linecap:square;stroke-width:1.5;"/>
   </g>
   <g id="line2d_53">
    <defs>
     <path d="M 0 -6 
L -1.347084 -1.854102 
L -5.706339 -1.854102 
L -2.179628 0.708204 
L -3.526712 4.854102 
L -0 2.291796 
L 3.526712 4.854102 
L 2.179628 0.708204 
L 5.706339 -1.854102 
L 1.347084 -1.854102 
z
" id="m5f37a76a7e" style="stroke:#0000ff;stroke-linejoin:bevel;stroke-width:1.5;"/>
    </defs>
    <g>
     <use style="fill:none;stroke:#0000ff;stroke-linejoin:bevel;stroke-width:1.5;" x="358.8" xlink:href="#m5f37a76a7e" y="215.585853"/>
    </g>
   </g>
   <g id="line2d_54"/>
   <g id="line2d_55">
    <path clip-path="url(#p5f6f42cd8a)" d="M 276.514286 253.815882 
" style="fill:none;stroke:#0000ff;stroke-linecap:square;stroke-width:1.5;"/>
    <defs>
     <path d="M -12 12 
L 12 -12 
M -12 -12 
L 12 12 
" id="m39b02748d9" style="stroke:#0000ff;stroke-width:3;"/>
    </defs>
    <g clip-path="url(#p5f6f42cd8a)">
     <use style="fill:#0000ff;stroke:#0000ff;stroke-width:3;" x="276.514286" xlink:href="#m39b02748d9" y="253.815882"/>
    </g>
   </g>
   <g id="line2d_56">
    <defs>
     <path d="M 0 1.5 
C 0.397805 1.5 0.77937 1.341951 1.06066 1.06066 
C 1.341951 0.77937 1.5 0.397805 1.5 0 
C 1.5 -0.397805 1.341951 -0.77937 1.06066 -1.06066 
C 0.77937 -1.341951 0.397805 -1.5 0 -1.5 
C -0.397805 -1.5 -0.77937 -1.341951 -1.06066 -1.06066 
C -1.341951 -0.77937 -1.5 -0.397805 -1.5 0 
C -1.5 0.397805 -1.341951 0.77937 -1.06066 1.06066 
C -0.77937 1.341951 -0.397805 1.5 0 1.5 
z
" id="m8dc223d8b5" style="stroke:#000000;"/>
    </defs>
    <g>
     <use style="stroke:#000000;" x="341.073081" xlink:href="#m8dc223d8b5" y="205.253412"/>
     <use style="stroke:#000000;" x="341.073081" xlink:href="#m8dc223d8b5" y="205.253412"/>
    </g>
   </g>
   <g id="line2d_57">
    <path d="M 218.269628 298.245375 
L 218.269628 296.695509 
L 218.269628 296.695509 
L 218.269628 296.695509 
L 218.362449 296.695509 
L 218.362449 296.178887 
L 218.546658 296.178887 
L 218.546658 295.145643 
L 218.819459 295.145643 
L 218.819459 292.045911 
L 218.99904 292.045911 
L 218.99904 288.946179 
L 222.405066 288.946179 
L 222.405066 287.912935 
L 222.55213 287.912935 
L 222.55213 287.396313 
L 222.914579 287.396313 
L 222.986194 286.363069 
L 226.124418 286.363069 
L 226.124418 285.846447 
L 226.243937 285.846447 
L 226.303398 282.230093 
L 226.362663 282.230093 
L 226.362663 281.713471 
L 226.597773 281.713471 
L 226.597773 281.196849 
L 227.17236 281.196849 
L 227.17236 280.680226 
L 228.001014 280.680226 
L 228.054915 279.646982 
L 228.427736 279.646982 
L 228.427736 279.13036 
L 228.585165 279.13036 
L 228.585165 278.097116 
L 228.74122 278.097116 
L 228.844504 276.54725 
L 228.895923 276.54725 
L 228.998319 274.480762 
L 229.150822 274.480762 
L 229.201368 272.414274 
L 231.114222 272.414274 
L 231.204693 270.864408 
L 231.294709 270.864408 
L 231.339548 267.764676 
L 231.473392 267.764676 
L 231.473392 266.731432 
L 232.340946 266.731432 
L 232.340946 266.21481 
L 232.800736 266.21481 
L 232.800736 265.698188 
L 232.965042 265.698188 
L 233.046632 264.664944 
L 233.087287 264.664944 
L 233.087287 264.148322 
L 233.248991 264.148322 
L 233.329297 263.115078 
L 233.409244 263.115078 
L 233.488835 262.081834 
L 234.303809 262.081834 
L 234.303809 261.565212 
L 234.900711 261.565212 
L 234.937364 260.531968 
L 235.046873 260.531968 
L 235.155714 257.948858 
L 235.227909 257.948858 
L 235.335657 255.88237 
L 236.680276 255.88237 
L 236.680276 254.849126 
L 238.237773 254.849126 
L 238.237773 254.332504 
L 238.419484 254.332504 
L 238.419484 252.266016 
L 238.629171 252.266016 
L 238.629171 251.749394 
L 239.976725 251.749394 
L 239.976725 250.71615 
L 277.663 250.71615 
L 277.713196 248.13304 
L 277.84305 248.13304 
L 277.876194 247.099796 
L 278.014733 247.099796 
L 278.054119 245.033307 
L 278.175015 245.033307 
L 278.233535 240.383709 
L 278.516907 240.383709 
L 278.55839 238.317221 
L 289.595165 238.317221 
L 289.687728 235.734111 
L 289.749172 235.734111 
L 289.755986 234.700867 
L 289.950787 234.700867 
L 289.991174 233.667623 
L 296.659851 233.667623 
L 296.723392 228.501403 
L 296.879546 228.501403 
L 296.879546 227.984781 
L 301.592107 227.984781 
L 301.677961 224.885049 
L 301.71463 224.885049 
L 301.725093 222.818561 
L 301.838917 222.818561 
L 301.838917 222.301939 
L 305.554832 222.301939 
L 305.622941 217.652341 
L 308.821484 217.652341 
L 308.821484 217.135719 
L 311.534466 217.135719 
L 311.534466 216.619097 
L 313.847339 216.619097 
L 313.89019 215.585853 
L 315.966883 215.585853 
L 315.970418 214.552609 
L 317.817237 214.552609 
L 317.830336 213.519365 
L 321.033315 213.519365 
L 321.033315 213.002743 
L 322.465098 213.002743 
L 322.465098 212.48612 
L 323.782498 212.48612 
L 323.784274 211.452876 
L 325.008455 211.452876 
L 325.008455 210.936254 
L 327.242433 210.936254 
L 327.242433 210.419632 
L 328.238823 210.419632 
L 328.256209 208.869766 
L 329.21891 208.869766 
L 329.21891 208.353144 
L 332.615167 208.353144 
L 332.615167 207.836522 
L 333.373822 207.836522 
L 333.373822 207.3199 
L 334.099011 207.3199 
L 334.099011 206.803278 
L 336.117694 206.803278 
L 336.117694 206.286656 
L 338.490863 206.286656 
L 338.490863 205.770034 
L 341.073081 205.770034 
L 341.073081 205.253412 
L 358.8 205.253412 
L 358.8 205.253412 
" style="fill:none;stroke:#000000;stroke-linecap:square;stroke-width:1.5;"/>
   </g>
   <g id="line2d_58">
    <defs>
     <path d="M 0 6 
C 1.591219 6 3.117479 5.367802 4.242641 4.242641 
C 5.367802 3.117479 6 1.591219 6 0 
C 6 -1.591219 5.367802 -3.117479 4.242641 -4.242641 
C 3.117479 -5.367802 1.591219 -6 0 -6 
C -1.591219 -6 -3.117479 -5.367802 -4.242641 -4.242641 
C -5.367802 -3.117479 -6 -1.591219 -6 0 
C -6 1.591219 -5.367802 3.117479 -4.242641 4.242641 
C -3.117479 5.367802 -1.591219 6 0 6 
z
" id="m24a217964c" style="stroke:#000000;stroke-width:1.5;"/>
    </defs>
    <g>
     <use style="fill:none;stroke:#000000;stroke-width:1.5;" x="358.8" xlink:href="#m24a217964c" y="205.253412"/>
    </g>
   </g>
   <g id="line2d_59"/>
   <g id="line2d_60">
    <path clip-path="url(#p5f6f42cd8a)" d="M 276.514286 250.71615 
" style="fill:none;stroke:#000000;stroke-linecap:square;stroke-width:1.5;"/>
    <defs>
     <path d="M -12 12 
L 12 -12 
M -12 -12 
L 12 12 
" id="m6d9f1ccb4a" style="stroke:#000000;stroke-width:3;"/>
    </defs>
    <g clip-path="url(#p5f6f42cd8a)">
     <use style="stroke:#000000;stroke-width:3;" x="276.514286" xlink:href="#m6d9f1ccb4a" y="250.71615"/>
    </g>
   </g>
   <g id="line2d_61">
    <defs>
     <path d="M 0 1.5 
C 0.397805 1.5 0.77937 1.341951 1.06066 1.06066 
C 1.341951 0.77937 1.5 0.397805 1.5 0 
C 1.5 -0.397805 1.341951 -0.77937 1.06066 -1.06066 
C 0.77937 -1.341951 0.397805 -1.5 0 -1.5 
C -0.397805 -1.5 -0.77937 -1.341951 -1.06066 -1.06066 
C -1.341951 -0.77937 -1.5 -0.397805 -1.5 0 
C -1.5 0.397805 -1.341951 0.77937 -1.06066 1.06066 
C -0.77937 1.341951 -0.397805 1.5 0 1.5 
z
" id="m4fa170c9b0" style="stroke:#ff0000;"/>
    </defs>
    <g>
     <use style="fill:#ff0000;stroke:#ff0000;" x="354.688498" xlink:href="#m4fa170c9b0" y="127.76011"/>
     <use style="fill:#ff0000;stroke:#ff0000;" x="354.688498" xlink:href="#m4fa170c9b0" y="127.76011"/>
    </g>
   </g>
   <g id="line2d_62">
    <path d="M 226.214132 298.245375 
L 226.214132 297.212131 
L 228.972775 297.212131 
L 228.972775 296.695509 
L 233.228858 296.695509 
L 233.329297 295.662265 
L 233.389291 295.662265 
L 233.449084 294.112399 
L 234.379521 294.112399 
L 234.454914 292.045911 
L 235.281864 292.045911 
L 235.371429 289.979423 
L 236.003373 289.979423 
L 236.003373 289.462801 
L 236.192092 289.462801 
L 236.243217 285.846447 
L 236.862016 285.846447 
L 236.960372 283.779959 
L 236.976713 283.779959 
L 236.976713 282.746715 
L 238.449591 282.746715 
L 238.539607 280.163604 
L 238.569511 280.163604 
L 238.658927 275.514006 
L 239.768388 275.514006 
L 239.768388 274.997384 
L 239.949086 274.997384 
L 240.031873 272.414274 
L 240.534086 272.414274 
L 240.534086 271.897652 
L 240.654141 271.897652 
L 240.720492 269.831164 
L 241.370786 269.831164 
L 241.383553 267.248054 
L 241.799843 267.248054 
L 241.799843 266.731432 
L 242.010569 266.731432 
L 242.010569 266.21481 
L 242.640134 266.21481 
L 242.640134 265.698188 
L 243.016815 265.698188 
L 243.016815 264.664944 
L 243.132917 264.664944 
L 243.202218 262.081834 
L 243.385718 262.081834 
L 243.385718 261.565212 
L 243.691163 261.565212 
L 243.758337 258.982102 
L 244.27597 258.982102 
L 244.308507 256.398992 
L 244.598702 256.398992 
L 244.598702 255.365748 
L 244.831722 255.365748 
L 244.852756 253.815882 
L 245.319583 253.815882 
L 245.319583 253.29926 
L 245.593936 253.29926 
L 245.593936 252.266016 
L 245.774525 252.266016 
L 245.854204 249.682906 
L 246.877726 249.682906 
L 246.877726 249.166284 
L 247.212414 249.166284 
L 247.267591 246.583173 
L 247.738786 246.583173 
L 247.738786 245.549929 
L 248.092972 245.549929 
L 248.092972 244.516685 
L 248.215297 244.516685 
L 248.215297 244.000063 
L 248.53461 244.000063 
L 248.53461 243.483441 
L 249.725707 243.483441 
L 249.821472 241.416953 
L 249.85328 241.416953 
L 249.861224 239.867087 
L 250.168284 239.867087 
L 250.215059 238.317221 
L 252.348145 238.317221 
L 252.348145 237.283977 
L 253.614972 237.283977 
L 253.614972 236.767355 
L 253.730458 236.767355 
L 253.730458 235.734111 
L 254.041105 235.734111 
L 254.041105 235.217489 
L 254.652727 235.217489 
L 254.652727 234.700867 
L 255.52972 234.700867 
L 255.52972 234.184245 
L 256.420773 234.184245 
L 256.420773 233.667623 
L 256.930551 233.667623 
L 256.962601 232.634379 
L 258.174726 232.634379 
L 258.174726 231.601135 
L 278.669599 231.601135 
L 278.694922 230.051269 
L 279.075159 230.051269 
L 279.08754 229.018025 
L 279.236988 229.018025 
L 279.307425 227.984781 
L 279.464144 227.984781 
L 279.464144 227.468159 
L 279.628509 227.468159 
L 279.628509 226.951537 
L 279.76905 226.951537 
L 279.828521 225.918293 
L 279.915882 225.918293 
L 279.915882 225.401671 
L 280.067376 225.401671 
L 280.118563 223.851805 
L 280.205974 223.851805 
L 280.205974 223.335183 
L 280.357921 223.335183 
L 280.357921 222.818561 
L 280.643817 222.818561 
L 280.643817 222.301939 
L 281.11682 222.301939 
L 281.11682 221.785317 
L 281.476395 221.785317 
L 281.539899 219.718829 
L 281.986109 219.718829 
L 281.986109 219.202207 
L 283.094179 219.202207 
L 283.094179 218.685585 
L 290.236576 218.685585 
L 290.312681 217.652341 
L 290.350612 217.652341 
L 290.350612 217.135719 
L 290.527655 217.135719 
L 290.600909 215.585853 
L 290.798009 215.585853 
L 290.833322 214.552609 
L 291.044536 214.552609 
L 291.083319 213.519365 
L 291.22193 213.519365 
L 291.323627 211.452876 
L 291.351687 211.452876 
L 291.351687 210.936254 
L 291.660538 210.936254 
L 291.66513 209.90301 
L 291.844075 209.90301 
L 291.853922 208.869766 
L 297.068881 208.869766 
L 297.068881 208.353144 
L 297.246154 208.353144 
L 297.35168 206.286656 
L 297.433881 206.286656 
L 297.543815 203.703546 
L 297.547119 203.703546 
L 297.629524 202.15368 
L 297.796461 202.15368 
L 297.817626 200.603814 
L 297.955934 200.603814 
L 298.034871 198.020704 
L 298.160345 198.020704 
L 298.16726 196.98746 
L 301.982547 196.98746 
L 302.018168 195.954216 
L 302.131424 195.954216 
L 302.131424 195.437594 
L 302.400345 195.437594 
L 302.483664 194.40435 
L 302.511629 194.40435 
L 302.614347 190.787996 
L 302.679745 190.787996 
L 302.679745 190.271374 
L 306.10963 190.271374 
L 306.177699 188.204886 
L 306.260056 188.204886 
L 306.2935 186.138398 
L 306.3807 186.138398 
L 306.427994 184.588532 
L 306.506873 184.588532 
L 306.512875 182.522044 
L 306.795998 182.522044 
L 306.795998 180.972178 
L 309.383847 180.972178 
L 309.47051 179.422312 
L 309.498176 179.422312 
L 309.498176 178.90569 
L 311.886387 178.90569 
L 311.886387 178.389067 
L 312.010832 178.389067 
L 312.094455 175.805957 
L 312.174774 175.805957 
L 312.174774 175.289335 
L 314.236489 175.289335 
L 314.31594 172.189603 
L 314.380235 172.189603 
L 314.381094 170.639737 
L 314.637666 170.639737 
L 314.637666 170.123115 
L 316.253296 170.123115 
L 316.349871 167.540005 
L 316.408026 167.540005 
L 316.474586 165.473517 
L 318.115777 165.473517 
L 318.220138 162.890407 
L 318.227581 162.890407 
L 318.285292 160.823919 
L 319.830028 160.823919 
L 319.830028 160.307297 
L 321.34607 160.307297 
L 321.385271 158.240809 
L 322.799445 158.240809 
L 322.832645 157.207565 
L 324.039487 157.207565 
L 324.120188 155.141077 
L 325.244895 155.141077 
L 325.284815 152.557967 
L 326.379582 152.557967 
L 326.409167 151.524723 
L 326.545611 151.524723 
L 326.545611 151.008101 
L 327.409678 151.008101 
L 327.486946 149.458235 
L 328.44976 149.458235 
L 328.511964 147.391747 
L 328.596344 147.391747 
L 328.596344 146.875125 
L 329.397082 146.875125 
L 329.397082 146.358503 
L 330.273166 146.358503 
L 330.339013 144.808637 
L 331.162416 144.808637 
L 331.216458 143.25877 
L 332.003498 143.25877 
L 332.103366 141.708904 
L 332.816862 141.708904 
L 332.816862 141.192282 
L 333.517527 141.192282 
L 333.517527 140.67566 
L 334.283448 140.67566 
L 334.284716 139.642416 
L 334.908126 139.642416 
L 334.951892 138.609172 
L 335.618083 138.609172 
L 335.618083 138.09255 
L 336.241455 138.09255 
L 336.266886 137.059306 
L 336.88662 137.059306 
L 336.900624 136.026062 
L 337.499121 136.026062 
L 337.499121 135.50944 
L 341.188504 135.50944 
L 341.248299 134.476196 
L 341.67939 134.476196 
L 341.67939 133.959574 
L 343.441016 133.959574 
L 343.451733 132.92633 
L 343.841804 132.92633 
L 343.868651 131.376464 
L 344.275337 131.376464 
L 344.275337 130.859842 
L 344.673879 130.859842 
L 344.673879 130.34322 
L 348.222988 130.34322 
L 348.222988 129.826598 
L 350.342672 129.826598 
L 350.342672 129.309976 
L 351.985135 129.309976 
L 351.985135 128.793354 
L 354.197212 128.793354 
L 354.197212 128.276732 
L 354.688498 128.276732 
L 354.688498 127.76011 
L 358.8 127.76011 
L 358.8 127.76011 
" style="fill:none;stroke:#ff0000;stroke-linecap:square;stroke-width:1.5;"/>
   </g>
   <g id="line2d_63">
    <defs>
     <path d="M -6 6 
L 6 6 
L 6 -6 
L -6 -6 
z
" id="mb79ff29e04" style="stroke:#ff0000;stroke-linejoin:miter;stroke-width:1.5;"/>
    </defs>
    <g>
     <use style="fill:none;stroke:#ff0000;stroke-linejoin:miter;stroke-width:1.5;" x="358.8" xlink:href="#mb79ff29e04" y="127.76011"/>
    </g>
   </g>
   <g id="line2d_64"/>
   <g id="line2d_65">
    <path clip-path="url(#p5f6f42cd8a)" d="M 276.514286 231.601135 
" style="fill:none;stroke:#ff0000;stroke-linecap:square;stroke-width:1.5;"/>
    <defs>
     <path d="M -12 12 
L 12 -12 
M -12 -12 
L 12 12 
" id="made0a5d1fe" style="stroke:#ff0000;stroke-width:3;"/>
    </defs>
    <g clip-path="url(#p5f6f42cd8a)">
     <use style="fill:#ff0000;stroke:#ff0000;stroke-width:3;" x="276.514286" xlink:href="#made0a5d1fe" y="231.601135"/>
    </g>
   </g>
   <g id="line2d_66">
    <defs>
     <path d="M 0 1.5 
C 0.397805 1.5 0.77937 1.341951 1.06066 1.06066 
C 1.341951 0.77937 1.5 0.397805 1.5 0 
C 1.5 -0.397805 1.341951 -0.77937 1.06066 -1.06066 
C 0.77937 -1.341951 0.397805 -1.5 0 -1.5 
C -0.397805 -1.5 -0.77937 -1.341951 -1.06066 -1.06066 
C -1.341951 -0.77937 -1.5 -0.397805 -1.5 0 
C -1.5 0.397805 -1.341951 0.77937 -1.06066 1.06066 
C -0.77937 1.341951 -0.397805 1.5 0 1.5 
z
" id="m613e2126eb" style="stroke:#bf00bf;"/>
    </defs>
    <g>
     <use style="fill:#bf00bf;stroke:#bf00bf;" x="330.564638" xlink:href="#m613e2126eb" y="215.585853"/>
     <use style="fill:#bf00bf;stroke:#bf00bf;" x="330.564638" xlink:href="#m613e2126eb" y="215.585853"/>
    </g>
   </g>
   <g id="line2d_67">
    <path d="M 249.251359 298.245375 
L 249.251359 297.728753 
L 252.069603 297.728753 
L 252.090645 296.695509 
L 252.265037 296.695509 
L 252.265037 296.178887 
L 252.430868 296.178887 
L 252.437744 295.145643 
L 252.936043 295.145643 
L 252.936043 294.629021 
L 253.743243 294.629021 
L 253.746438 292.562533 
L 253.911797 292.562533 
L 253.911797 291.529289 
L 254.222445 291.529289 
L 254.237992 290.496045 
L 254.546124 290.496045 
L 254.546124 288.946179 
L 254.956834 288.946179 
L 255.00156 285.846447 
L 255.099566 285.846447 
L 255.099566 285.329825 
L 255.428238 285.329825 
L 255.428238 284.813203 
L 255.581688 284.813203 
L 255.581688 284.296581 
L 255.725254 284.296581 
L 255.728113 283.263337 
L 256.011785 283.263337 
L 256.039906 281.713471 
L 256.154742 281.713471 
L 256.154742 280.163604 
L 256.568694 280.163604 
L 256.568694 279.646982 
L 256.701866 279.646982 
L 256.701866 279.13036 
L 256.839428 279.13036 
L 256.839428 278.097116 
L 257.100826 278.097116 
L 257.100826 276.030628 
L 257.224847 276.030628 
L 257.224847 275.514006 
L 257.496253 275.514006 
L 257.496253 274.480762 
L 257.999326 274.480762 
L 257.999326 273.96414 
L 258.249373 273.96414 
L 258.281624 272.414274 
L 258.412509 272.414274 
L 258.491071 271.38103 
L 258.618004 271.38103 
L 258.618004 270.864408 
L 258.741626 270.864408 
L 258.741626 270.347786 
L 259.215976 270.347786 
L 259.215976 269.314542 
L 259.342551 269.314542 
L 259.342551 268.79792 
L 259.68035 268.79792 
L 259.68035 267.248054 
L 259.794582 267.248054 
L 259.794582 266.731432 
L 259.910351 266.731432 
L 260.020878 264.148322 
L 260.13296 264.148322 
L 260.13296 263.115078 
L 260.246565 263.115078 
L 260.246565 262.598456 
L 260.388113 262.598456 
L 260.390316 261.565212 
L 260.683063 261.565212 
L 260.683063 261.04859 
L 261.132411 261.04859 
L 261.132411 260.015346 
L 261.820528 260.015346 
L 261.820528 259.498724 
L 262.146914 259.498724 
L 262.146914 258.982102 
L 262.652769 258.982102 
L 262.652769 257.948858 
L 262.811203 257.948858 
L 262.811203 256.915614 
L 263.760773 256.915614 
L 263.760773 255.88237 
L 264.255467 255.88237 
L 264.299767 252.266016 
L 264.678017 252.266016 
L 264.678017 251.232772 
L 265.252615 251.232772 
L 265.252615 250.71615 
L 265.580144 250.71615 
L 265.580144 250.199528 
L 266.767169 250.199528 
L 266.767169 249.682906 
L 267.183133 249.682906 
L 267.183133 249.166284 
L 269.020638 249.166284 
L 269.020638 248.649662 
L 281.809624 248.649662 
L 281.809624 248.13304 
L 282.42979 248.13304 
L 282.491917 246.583173 
L 282.713679 246.583173 
L 282.713679 246.066551 
L 282.850817 246.066551 
L 282.850817 245.549929 
L 283.022325 245.549929 
L 283.122593 244.000063 
L 283.33061 244.000063 
L 283.33061 243.483441 
L 283.608457 243.483441 
L 283.698328 241.933575 
L 283.801421 241.933575 
L 283.801421 241.416953 
L 284.25609 241.416953 
L 284.25609 240.900331 
L 284.373872 240.900331 
L 284.373872 240.383709 
L 285.542692 240.383709 
L 285.542692 239.867087 
L 292.119625 239.867087 
L 292.119625 239.350465 
L 292.451878 239.350465 
L 292.546828 238.317221 
L 292.632579 238.317221 
L 292.634029 237.283977 
L 292.813624 237.283977 
L 292.813624 236.767355 
L 292.939842 236.767355 
L 292.939842 235.734111 
L 293.11711 235.734111 
L 293.186474 234.184245 
L 293.44638 234.184245 
L 293.501363 233.151001 
L 293.811478 233.151001 
L 293.811478 232.634379 
L 298.288641 232.634379 
L 298.288641 232.117757 
L 298.469703 232.117757 
L 298.576843 231.084513 
L 298.589314 231.084513 
L 298.589314 230.567891 
L 298.716383 230.567891 
L 298.716383 230.051269 
L 298.846651 230.051269 
L 298.919464 229.018025 
L 299.063699 229.018025 
L 299.063699 228.501403 
L 302.967248 228.501403 
L 302.967248 227.984781 
L 303.081531 227.984781 
L 303.171993 226.951537 
L 303.408364 226.951537 
L 303.408364 226.434915 
L 303.908992 226.434915 
L 303.908992 225.918293 
L 307.40123 225.918293 
L 307.40123 225.401671 
L 309.689393 225.401671 
L 309.689393 224.885049 
L 309.863115 224.885049 
L 309.863115 224.368427 
L 310.214246 224.368427 
L 310.214246 223.851805 
L 312.526452 223.851805 
L 312.526452 223.335183 
L 312.724061 223.335183 
L 312.737479 222.301939 
L 314.731781 222.301939 
L 314.731781 221.785317 
L 316.731033 221.785317 
L 316.769946 220.752073 
L 316.91507 220.752073 
L 316.91507 220.235451 
L 318.584067 220.235451 
L 318.60077 219.202207 
L 320.298651 219.202207 
L 320.298651 218.685585 
L 324.410765 218.685585 
L 324.410765 218.168963 
L 325.508383 218.168963 
L 325.508383 217.652341 
L 328.739142 217.652341 
L 328.739142 216.619097 
L 329.675192 216.619097 
L 329.675192 216.102475 
L 330.564638 216.102475 
L 330.564638 215.585853 
L 358.8 215.585853 
L 358.8 215.585853 
" style="fill:none;stroke:#bf00bf;stroke-linecap:square;stroke-width:1.5;"/>
   </g>
   <g id="line2d_68">
    <defs>
     <path d="M -0 8.485281 
L 8.485281 0 
L 0 -8.485281 
L -8.485281 -0 
z
" id="ma4ec9541f4" style="stroke:#bf00bf;stroke-linejoin:miter;stroke-width:1.5;"/>
    </defs>
    <g>
     <use style="fill:none;stroke:#bf00bf;stroke-linejoin:miter;stroke-width:1.5;" x="358.8" xlink:href="#ma4ec9541f4" y="215.585853"/>
    </g>
   </g>
   <g id="line2d_69"/>
   <g id="line2d_70">
    <path clip-path="url(#p5f6f42cd8a)" d="M 276.514286 248.649662 
" style="fill:none;stroke:#bf00bf;stroke-linecap:square;stroke-width:1.5;"/>
    <defs>
     <path d="M -12 12 
L 12 -12 
M -12 -12 
L 12 12 
" id="m0623922525" style="stroke:#bf00bf;stroke-width:3;"/>
    </defs>
    <g clip-path="url(#p5f6f42cd8a)">
     <use style="fill:#bf00bf;stroke:#bf00bf;stroke-width:3;" x="276.514286" xlink:href="#m0623922525" y="248.649662"/>
    </g>
   </g>
   <g id="line2d_71">
    <path d="M 358.8 215.585853 
L 390.48 292.97583 
" style="fill:none;stroke:#0000ff;stroke-linecap:square;stroke-width:1.5;"/>
    <g>
     <use style="fill:none;stroke:#0000ff;stroke-linejoin:bevel;stroke-width:1.5;" x="358.8" xlink:href="#m5f37a76a7e" y="215.585853"/>
     <use style="fill:none;stroke:#0000ff;stroke-linejoin:bevel;stroke-width:1.5;" x="390.48" xlink:href="#m5f37a76a7e" y="292.97583"/>
    </g>
   </g>
   <g id="line2d_72">
    <path d="M 358.8 215.585853 
L 390.48 242.388203 
" style="fill:none;stroke:#bf00bf;stroke-linecap:square;stroke-width:1.5;"/>
    <g>
     <use style="fill:none;stroke:#bf00bf;stroke-linejoin:miter;stroke-width:1.5;" x="358.8" xlink:href="#ma4ec9541f4" y="215.585853"/>
     <use style="fill:none;stroke:#bf00bf;stroke-linejoin:miter;stroke-width:1.5;" x="390.48" xlink:href="#ma4ec9541f4" y="242.388203"/>
    </g>
   </g>
   <g id="line2d_73">
    <path d="M 358.8 205.253412 
L 390.48 191.800575 
" style="fill:none;stroke:#000000;stroke-linecap:square;stroke-width:1.5;"/>
    <g>
     <use style="fill:none;stroke:#000000;stroke-width:1.5;" x="358.8" xlink:href="#m24a217964c" y="205.253412"/>
     <use style="fill:none;stroke:#000000;stroke-width:1.5;" x="390.48" xlink:href="#m24a217964c" y="191.800575"/>
    </g>
   </g>
   <g id="line2d_74">
    <path d="M 358.8 179.422312 
L 390.48 141.212947 
" style="fill:none;stroke:#008000;stroke-linecap:square;stroke-width:1.5;"/>
    <g>
     <use style="fill:none;stroke:#008000;stroke-linejoin:miter;stroke-width:1.5;" x="358.8" xlink:href="#m41e29d7904" y="179.422312"/>
     <use style="fill:none;stroke:#008000;stroke-linejoin:miter;stroke-width:1.5;" x="390.48" xlink:href="#m41e29d7904" y="141.212947"/>
    </g>
   </g>
   <g id="line2d_75">
    <path d="M 358.8 127.76011 
L 390.48 90.62532 
" style="fill:none;stroke:#ff0000;stroke-linecap:square;stroke-width:1.5;"/>
    <g>
     <use style="fill:none;stroke:#ff0000;stroke-linejoin:miter;stroke-width:1.5;" x="358.8" xlink:href="#mb79ff29e04" y="127.76011"/>
     <use style="fill:none;stroke:#ff0000;stroke-linejoin:miter;stroke-width:1.5;" x="390.48" xlink:href="#mb79ff29e04" y="90.62532"/>
    </g>
   </g>
   <g id="line2d_76">
    <path d="M 358.8 34.768147 
L 390.48 40.037692 
" style="fill:none;stroke:#00bfbf;stroke-linecap:square;stroke-width:1.5;"/>
    <g>
     <use style="fill:none;stroke:#00bfbf;stroke-width:1.5;" x="358.8" xlink:href="#mfa7b6417e4" y="34.768147"/>
     <use style="fill:none;stroke:#00bfbf;stroke-width:1.5;" x="390.48" xlink:href="#mfa7b6417e4" y="40.037692"/>
    </g>
   </g>
   <g id="line2d_77">
    <path d="M 358.8 298.245375 
L 358.8 34.768147 
" style="fill:none;stroke:#000000;stroke-linecap:square;stroke-width:1.5;"/>
   </g>
   <g id="patch_3">
    <path d="M 70.8 298.245375 
L 70.8 32.133375 
" style="fill:none;stroke:#000000;stroke-linecap:square;stroke-linejoin:miter;stroke-width:0.8;"/>
   </g>
   <g id="patch_4">
    <path d="M 427.92 298.245375 
L 427.92 32.133375 
" style="fill:none;stroke:#000000;stroke-linecap:square;stroke-linejoin:miter;stroke-width:0.8;"/>
   </g>
   <g id="patch_5">
    <path d="M 70.8 298.245375 
L 427.92 298.245375 
" style="fill:none;stroke:#000000;stroke-linecap:square;stroke-linejoin:miter;stroke-width:0.8;"/>
   </g>
   <g id="patch_6">
    <path d="M 70.8 32.133375 
L 427.92 32.133375 
" style="fill:none;stroke:#000000;stroke-linecap:square;stroke-linejoin:miter;stroke-width:0.8;"/>
   </g>
   <g id="text_14">
    <!-- 5-D -->
    <defs>
     <path d="M 10.796875 72.90625 
L 49.515625 72.90625 
L 49.515625 64.59375 
L 19.828125 64.59375 
L 19.828125 46.734375 
Q 21.96875 47.46875 24.109375 47.828125 
Q 26.265625 48.1875 28.421875 48.1875 
Q 40.625 48.1875 47.75 41.5 
Q 54.890625 34.8125 54.890625 23.390625 
Q 54.890625 11.625 47.5625 5.09375 
Q 40.234375 -1.421875 26.90625 -1.421875 
Q 22.3125 -1.421875 17.546875 -0.640625 
Q 12.796875 0.140625 7.71875 1.703125 
L 7.71875 11.625 
Q 12.109375 9.234375 16.796875 8.0625 
Q 21.484375 6.890625 26.703125 6.890625 
Q 35.15625 6.890625 40.078125 11.328125 
Q 45.015625 15.765625 45.015625 23.390625 
Q 45.015625 31 40.078125 35.4375 
Q 35.15625 39.890625 26.703125 39.890625 
Q 22.75 39.890625 18.8125 39.015625 
Q 14.890625 38.140625 10.796875 36.28125 
z
" id="DejaVuSans-35"/>
     <path d="M 19.671875 64.796875 
L 19.671875 8.109375 
L 31.59375 8.109375 
Q 46.6875 8.109375 53.6875 14.9375 
Q 60.6875 21.78125 60.6875 36.53125 
Q 60.6875 51.171875 53.6875 57.984375 
Q 46.6875 64.796875 31.59375 64.796875 
z
M 9.8125 72.90625 
L 30.078125 72.90625 
Q 51.265625 72.90625 61.171875 64.09375 
Q 71.09375 55.28125 71.09375 36.53125 
Q 71.09375 17.671875 61.125 8.828125 
Q 51.171875 0 30.078125 0 
L 9.8125 0 
z
" id="DejaVuSans-44"/>
    </defs>
    <g transform="translate(396.24 297.114893)scale(0.15 -0.15)">
     <use xlink:href="#DejaVuSans-35"/>
     <use x="63.623047" xlink:href="#DejaVuSans-2d"/>
     <use x="99.707031" xlink:href="#DejaVuSans-44"/>
    </g>
   </g>
   <g id="text_15">
    <!-- 40-D -->
    <g transform="translate(396.24 246.527265)scale(0.15 -0.15)">
     <use xlink:href="#DejaVuSans-34"/>
     <use x="63.623047" xlink:href="#DejaVuSans-30"/>
     <use x="127.246094" xlink:href="#DejaVuSans-2d"/>
     <use x="163.330078" xlink:href="#DejaVuSans-44"/>
    </g>
   </g>
   <g id="text_16">
    <!-- 10-D -->
    <g transform="translate(396.24 195.939637)scale(0.15 -0.15)">
     <use xlink:href="#DejaVuSans-31"/>
     <use x="63.623047" xlink:href="#DejaVuSans-30"/>
     <use x="127.246094" xlink:href="#DejaVuSans-2d"/>
     <use x="163.330078" xlink:href="#DejaVuSans-44"/>
    </g>
   </g>
   <g id="text_17">
    <!-- 3-D -->
    <defs>
     <path d="M 40.578125 39.3125 
Q 47.65625 37.796875 51.625 33 
Q 55.609375 28.21875 55.609375 21.1875 
Q 55.609375 10.40625 48.1875 4.484375 
Q 40.765625 -1.421875 27.09375 -1.421875 
Q 22.515625 -1.421875 17.65625 -0.515625 
Q 12.796875 0.390625 7.625 2.203125 
L 7.625 11.71875 
Q 11.71875 9.328125 16.59375 8.109375 
Q 21.484375 6.890625 26.8125 6.890625 
Q 36.078125 6.890625 40.9375 10.546875 
Q 45.796875 14.203125 45.796875 21.1875 
Q 45.796875 27.640625 41.28125 31.265625 
Q 36.765625 34.90625 28.71875 34.90625 
L 20.21875 34.90625 
L 20.21875 43.015625 
L 29.109375 43.015625 
Q 36.375 43.015625 40.234375 45.921875 
Q 44.09375 48.828125 44.09375 54.296875 
Q 44.09375 59.90625 40.109375 62.90625 
Q 36.140625 65.921875 28.71875 65.921875 
Q 24.65625 65.921875 20.015625 65.03125 
Q 15.375 64.15625 9.8125 62.3125 
L 9.8125 71.09375 
Q 15.4375 72.65625 20.34375 73.4375 
Q 25.25 74.21875 29.59375 74.21875 
Q 40.828125 74.21875 47.359375 69.109375 
Q 53.90625 64.015625 53.90625 55.328125 
Q 53.90625 49.265625 50.4375 45.09375 
Q 46.96875 40.921875 40.578125 39.3125 
" id="DejaVuSans-33"/>
    </defs>
    <g transform="translate(396.24 145.35201)scale(0.15 -0.15)">
     <use xlink:href="#DejaVuSans-33"/>
     <use x="63.623047" xlink:href="#DejaVuSans-2d"/>
     <use x="99.707031" xlink:href="#DejaVuSans-44"/>
    </g>
   </g>
   <g id="text_18">
    <!-- 20-D -->
    <g transform="translate(396.24 94.764382)scale(0.15 -0.15)">
     <use xlink:href="#DejaVuSans-32"/>
     <use x="63.623047" xlink:href="#DejaVuSans-30"/>
     <use x="127.246094" xlink:href="#DejaVuSans-2d"/>
     <use x="163.330078" xlink:href="#DejaVuSans-44"/>
    </g>
   </g>
   <g id="text_19">
    <!-- 2-D -->
    <g transform="translate(396.24 44.176754)scale(0.15 -0.15)">
     <use xlink:href="#DejaVuSans-32"/>
     <use x="63.623047" xlink:href="#DejaVuSans-2d"/>
     <use x="99.707031" xlink:href="#DejaVuSans-44"/>
    </g>
   </g>
   <g id="text_20">
    <!-- bbob - f12 -->
    <defs>
     <path d="M 48.6875 27.296875 
Q 48.6875 37.203125 44.609375 42.84375 
Q 40.53125 48.484375 33.40625 48.484375 
Q 26.265625 48.484375 22.1875 42.84375 
Q 18.109375 37.203125 18.109375 27.296875 
Q 18.109375 17.390625 22.1875 11.75 
Q 26.265625 6.109375 33.40625 6.109375 
Q 40.53125 6.109375 44.609375 11.75 
Q 48.6875 17.390625 48.6875 27.296875 
M 18.109375 46.390625 
Q 20.953125 51.265625 25.265625 53.625 
Q 29.59375 56 35.59375 56 
Q 45.5625 56 51.78125 48.09375 
Q 58.015625 40.1875 58.015625 27.296875 
Q 58.015625 14.40625 51.78125 6.484375 
Q 45.5625 -1.421875 35.59375 -1.421875 
Q 29.59375 -1.421875 25.265625 0.953125 
Q 20.953125 3.328125 18.109375 8.203125 
L 18.109375 0 
L 9.078125 0 
L 9.078125 75.984375 
L 18.109375 75.984375 
z
" id="DejaVuSans-62"/>
    </defs>
    <g transform="translate(74.3712 50.114612)scale(0.1666 -0.1666)">
     <use xlink:href="#DejaVuSans-62"/>
     <use x="63.476562" xlink:href="#DejaVuSans-62"/>
     <use x="126.953125" xlink:href="#DejaVuSans-6f"/>
     <use x="188.134766" xlink:href="#DejaVuSans-62"/>
     <use x="251.611328" xlink:href="#DejaVuSans-20"/>
     <use x="283.398438" xlink:href="#DejaVuSans-2d"/>
     <use x="319.482422" xlink:href="#DejaVuSans-20"/>
     <use x="351.269531" xlink:href="#DejaVuSans-66"/>
     <use x="386.474609" xlink:href="#DejaVuSans-31"/>
     <use x="450.097656" xlink:href="#DejaVuSans-32"/>
    </g>
    <!-- 51 targets in 100..1e-08 -->
    <g transform="translate(74.3712 68.770168)scale(0.1666 -0.1666)">
     <use xlink:href="#DejaVuSans-35"/>
     <use x="63.623047" xlink:href="#DejaVuSans-31"/>
     <use x="127.246094" xlink:href="#DejaVuSans-20"/>
     <use x="159.033203" xlink:href="#DejaVuSans-74"/>
     <use x="198.242188" xlink:href="#DejaVuSans-61"/>
     <use x="259.521484" xlink:href="#DejaVuSans-72"/>
     <use x="300.619141" xlink:href="#DejaVuSans-67"/>
     <use x="364.095703" xlink:href="#DejaVuSans-65"/>
     <use x="425.619141" xlink:href="#DejaVuSans-74"/>
     <use x="464.828125" xlink:href="#DejaVuSans-73"/>
     <use x="516.927734" xlink:href="#DejaVuSans-20"/>
     <use x="548.714844" xlink:href="#DejaVuSans-69"/>
     <use x="576.498047" xlink:href="#DejaVuSans-6e"/>
     <use x="639.876953" xlink:href="#DejaVuSans-20"/>
     <use x="671.664062" xlink:href="#DejaVuSans-31"/>
     <use x="735.287109" xlink:href="#DejaVuSans-30"/>
     <use x="798.910156" xlink:href="#DejaVuSans-30"/>
     <use x="862.533203" xlink:href="#DejaVuSans-2e"/>
     <use x="894.320312" xlink:href="#DejaVuSans-2e"/>
     <use x="926.107422" xlink:href="#DejaVuSans-31"/>
     <use x="989.730469" xlink:href="#DejaVuSans-65"/>
     <use x="1051.253906" xlink:href="#DejaVuSans-2d"/>
     <use x="1087.337891" xlink:href="#DejaVuSans-30"/>
     <use x="1150.960938" xlink:href="#DejaVuSans-38"/>
    </g>
    <!-- 15 instances -->
    <g transform="translate(74.3712 87.425723)scale(0.1666 -0.1666)">
     <use xlink:href="#DejaVuSans-31"/>
     <use x="63.623047" xlink:href="#DejaVuSans-35"/>
     <use x="127.246094" xlink:href="#DejaVuSans-20"/>
     <use x="159.033203" xlink:href="#DejaVuSans-69"/>
     <use x="186.816406" xlink:href="#DejaVuSans-6e"/>
     <use x="250.195312" xlink:href="#DejaVuSans-73"/>
     <use x="302.294922" xlink:href="#DejaVuSans-74"/>
     <use x="341.503906" xlink:href="#DejaVuSans-61"/>
     <use x="402.783203" xlink:href="#DejaVuSans-6e"/>
     <use x="466.162109" xlink:href="#DejaVuSans-63"/>
     <use x="521.142578" xlink:href="#DejaVuSans-65"/>
     <use x="582.666016" xlink:href="#DejaVuSans-73"/>
    </g>
   </g>
   <g id="text_21">
    <!-- v2.0.1 -->
    <g style="fill:#808080;" transform="translate(233.67875 293.504568)scale(0.1 -0.1)">
     <use xlink:href="#DejaVuSans-76"/>
     <use x="59.179688" xlink:href="#DejaVuSans-32"/>
     <use x="122.802734" xlink:href="#DejaVuSans-2e"/>
     <use x="154.589844" xlink:href="#DejaVuSans-30"/>
     <use x="218.212891" xlink:href="#DejaVuSans-2e"/>
     <use x="250" xlink:href="#DejaVuSans-31"/>
    </g>
   </g>
   <g id="text_22">
    <!-- 12 Bent cigar -->
    <defs>
     <path d="M 19.671875 34.8125 
L 19.671875 8.109375 
L 35.5 8.109375 
Q 43.453125 8.109375 47.28125 11.40625 
Q 51.125 14.703125 51.125 21.484375 
Q 51.125 28.328125 47.28125 31.5625 
Q 43.453125 34.8125 35.5 34.8125 
z
M 19.671875 64.796875 
L 19.671875 42.828125 
L 34.28125 42.828125 
Q 41.5 42.828125 45.03125 45.53125 
Q 48.578125 48.25 48.578125 53.8125 
Q 48.578125 59.328125 45.03125 62.0625 
Q 41.5 64.796875 34.28125 64.796875 
z
M 9.8125 72.90625 
L 35.015625 72.90625 
Q 46.296875 72.90625 52.390625 68.21875 
Q 58.5 63.53125 58.5 54.890625 
Q 58.5 48.1875 55.375 44.234375 
Q 52.25 40.28125 46.1875 39.3125 
Q 53.46875 37.75 57.5 32.78125 
Q 61.53125 27.828125 61.53125 20.40625 
Q 61.53125 10.640625 54.890625 5.3125 
Q 48.25 0 35.984375 0 
L 9.8125 0 
z
" id="DejaVuSans-42"/>
    </defs>
    <g transform="translate(168.699375 26.133375)scale(0.24 -0.24)">
     <use xlink:href="#DejaVuSans-31"/>
     <use x="63.623047" xlink:href="#DejaVuSans-32"/>
     <use x="127.246094" xlink:href="#DejaVuSans-20"/>
     <use x="159.033203" xlink:href="#DejaVuSans-42"/>
     <use x="227.636719" xlink:href="#DejaVuSans-65"/>
     <use x="289.160156" xlink:href="#DejaVuSans-6e"/>
     <use x="352.539062" xlink:href="#DejaVuSans-74"/>
     <use x="391.748047" xlink:href="#DejaVuSans-20"/>
     <use x="423.535156" xlink:href="#DejaVuSans-63"/>
     <use x="478.515625" xlink:href="#DejaVuSans-69"/>
     <use x="506.298828" xlink:href="#DejaVuSans-67"/>
     <use x="569.775391" xlink:href="#DejaVuSans-61"/>
     <use x="631.054688" xlink:href="#DejaVuSans-72"/>
    </g>
   </g>
  </g>
 </g>
 <defs>
  <clipPath id="p5f6f42cd8a">
   <rect height="266.112" width="357.12" x="70.8" y="32.133375"/>
  </clipPath>
 </defs>
</svg>
