<?xml version="1.0" encoding="utf-8" standalone="no"?>
<!DOCTYPE svg PUBLIC "-//W3C//DTD SVG 1.1//EN"
  "http://www.w3.org/Graphics/SVG/1.1/DTD/svg11.dtd">
<!-- Created with matplotlib (http://matplotlib.org/) -->
<svg height="353pt" version="1.1" viewBox="0 0 438 353" width="438pt" xmlns="http://www.w3.org/2000/svg" xmlns:xlink="http://www.w3.org/1999/xlink">
 <defs>
  <style type="text/css">
*{stroke-linecap:butt;stroke-linejoin:round;}
  </style>
 </defs>
 <g id="figure_1">
  <g id="patch_1">
   <path d="M 0 353.22225 
L 438.62 353.22225 
L 438.62 0 
L 0 0 
z
" style="fill:#ffffff;"/>
  </g>
  <g id="axes_1">
   <g id="patch_2">
    <path d="M 70.8 298.245375 
L 427.92 298.245375 
L 427.92 32.133375 
L 70.8 32.133375 
z
" style="fill:#ffffff;"/>
   </g>
   <g id="matplotlib.axis_1">
    <g id="xtick_1">
     <g id="line2d_1">
      <path clip-path="url(#p79525b4ad3)" d="M 70.8 298.245375 
L 70.8 32.133375 
" style="fill:none;stroke:#b0b0b0;stroke-linecap:square;stroke-width:0.8;"/>
     </g>
     <g id="line2d_2">
      <defs>
       <path d="M 0 0 
L 0 3.5 
" id="m54ba27f44d" style="stroke:#000000;stroke-width:0.8;"/>
      </defs>
      <g>
       <use style="stroke:#000000;stroke-width:0.8;" x="70.8" xlink:href="#m54ba27f44d" y="298.245375"/>
      </g>
     </g>
     <g id="text_1">
      <!-- 0 -->
      <defs>
       <path d="M 31.78125 66.40625 
Q 24.171875 66.40625 20.328125 58.90625 
Q 16.5 51.421875 16.5 36.375 
Q 16.5 21.390625 20.328125 13.890625 
Q 24.171875 6.390625 31.78125 6.390625 
Q 39.453125 6.390625 43.28125 13.890625 
Q 47.125 21.390625 47.125 36.375 
Q 47.125 51.421875 43.28125 58.90625 
Q 39.453125 66.40625 31.78125 66.40625 
M 31.78125 74.21875 
Q 44.046875 74.21875 50.515625 64.515625 
Q 56.984375 54.828125 56.984375 36.375 
Q 56.984375 17.96875 50.515625 8.265625 
Q 44.046875 -1.421875 31.78125 -1.421875 
Q 19.53125 -1.421875 13.0625 8.265625 
Q 6.59375 17.96875 6.59375 36.375 
Q 6.59375 54.828125 13.0625 64.515625 
Q 19.53125 74.21875 31.78125 74.21875 
" id="DejaVuSans-30"/>
      </defs>
      <g transform="translate(64.4375 320.44225)scale(0.2 -0.2)">
       <use xlink:href="#DejaVuSans-30"/>
      </g>
     </g>
    </g>
    <g id="xtick_2">
     <g id="line2d_3">
      <path clip-path="url(#p79525b4ad3)" d="M 153.085714 298.245375 
L 153.085714 32.133375 
" style="fill:none;stroke:#b0b0b0;stroke-linecap:square;stroke-width:0.8;"/>
     </g>
     <g id="line2d_4">
      <g>
       <use style="stroke:#000000;stroke-width:0.8;" x="153.085714" xlink:href="#m54ba27f44d" y="298.245375"/>
      </g>
     </g>
     <g id="text_2">
      <!-- 2 -->
      <defs>
       <path d="M 19.1875 8.296875 
L 53.609375 8.296875 
L 53.609375 0 
L 7.328125 0 
L 7.328125 8.296875 
Q 12.9375 14.109375 22.625 23.890625 
Q 32.328125 33.6875 34.8125 36.53125 
Q 39.546875 41.84375 41.421875 45.53125 
Q 43.3125 49.21875 43.3125 52.78125 
Q 43.3125 58.59375 39.234375 62.25 
Q 35.15625 65.921875 28.609375 65.921875 
Q 23.96875 65.921875 18.8125 64.3125 
Q 13.671875 62.703125 7.8125 59.421875 
L 7.8125 69.390625 
Q 13.765625 71.78125 18.9375 73 
Q 24.125 74.21875 28.421875 74.21875 
Q 39.75 74.21875 46.484375 68.546875 
Q 53.21875 62.890625 53.21875 53.421875 
Q 53.21875 48.921875 51.53125 44.890625 
Q 49.859375 40.875 45.40625 35.40625 
Q 44.1875 33.984375 37.640625 27.21875 
Q 31.109375 20.453125 19.1875 8.296875 
" id="DejaVuSans-32"/>
      </defs>
      <g transform="translate(146.723214 320.44225)scale(0.2 -0.2)">
       <use xlink:href="#DejaVuSans-32"/>
      </g>
     </g>
    </g>
    <g id="xtick_3">
     <g id="line2d_5">
      <path clip-path="url(#p79525b4ad3)" d="M 235.371429 298.245375 
L 235.371429 32.133375 
" style="fill:none;stroke:#b0b0b0;stroke-linecap:square;stroke-width:0.8;"/>
     </g>
     <g id="line2d_6">
      <g>
       <use style="stroke:#000000;stroke-width:0.8;" x="235.371429" xlink:href="#m54ba27f44d" y="298.245375"/>
      </g>
     </g>
     <g id="text_3">
      <!-- 4 -->
      <defs>
       <path d="M 37.796875 64.3125 
L 12.890625 25.390625 
L 37.796875 25.390625 
z
M 35.203125 72.90625 
L 47.609375 72.90625 
L 47.609375 25.390625 
L 58.015625 25.390625 
L 58.015625 17.1875 
L 47.609375 17.1875 
L 47.609375 0 
L 37.796875 0 
L 37.796875 17.1875 
L 4.890625 17.1875 
L 4.890625 26.703125 
z
" id="DejaVuSans-34"/>
      </defs>
      <g transform="translate(229.008929 320.44225)scale(0.2 -0.2)">
       <use xlink:href="#DejaVuSans-34"/>
      </g>
     </g>
    </g>
    <g id="xtick_4">
     <g id="line2d_7">
      <path clip-path="url(#p79525b4ad3)" d="M 317.657143 298.245375 
L 317.657143 32.133375 
" style="fill:none;stroke:#b0b0b0;stroke-linecap:square;stroke-width:0.8;"/>
     </g>
     <g id="line2d_8">
      <g>
       <use style="stroke:#000000;stroke-width:0.8;" x="317.657143" xlink:href="#m54ba27f44d" y="298.245375"/>
      </g>
     </g>
     <g id="text_4">
      <!-- 6 -->
      <defs>
       <path d="M 33.015625 40.375 
Q 26.375 40.375 22.484375 35.828125 
Q 18.609375 31.296875 18.609375 23.390625 
Q 18.609375 15.53125 22.484375 10.953125 
Q 26.375 6.390625 33.015625 6.390625 
Q 39.65625 6.390625 43.53125 10.953125 
Q 47.40625 15.53125 47.40625 23.390625 
Q 47.40625 31.296875 43.53125 35.828125 
Q 39.65625 40.375 33.015625 40.375 
M 52.59375 71.296875 
L 52.59375 62.3125 
Q 48.875 64.0625 45.09375 64.984375 
Q 41.3125 65.921875 37.59375 65.921875 
Q 27.828125 65.921875 22.671875 59.328125 
Q 17.53125 52.734375 16.796875 39.40625 
Q 19.671875 43.65625 24.015625 45.921875 
Q 28.375 48.1875 33.59375 48.1875 
Q 44.578125 48.1875 50.953125 41.515625 
Q 57.328125 34.859375 57.328125 23.390625 
Q 57.328125 12.15625 50.6875 5.359375 
Q 44.046875 -1.421875 33.015625 -1.421875 
Q 20.359375 -1.421875 13.671875 8.265625 
Q 6.984375 17.96875 6.984375 36.375 
Q 6.984375 53.65625 15.1875 63.9375 
Q 23.390625 74.21875 37.203125 74.21875 
Q 40.921875 74.21875 44.703125 73.484375 
Q 48.484375 72.75 52.59375 71.296875 
" id="DejaVuSans-36"/>
      </defs>
      <g transform="translate(311.294643 320.44225)scale(0.2 -0.2)">
       <use xlink:href="#DejaVuSans-36"/>
      </g>
     </g>
    </g>
    <g id="xtick_5">
     <g id="line2d_9">
      <path clip-path="url(#p79525b4ad3)" d="M 399.942857 298.245375 
L 399.942857 32.133375 
" style="fill:none;stroke:#b0b0b0;stroke-linecap:square;stroke-width:0.8;"/>
     </g>
     <g id="line2d_10">
      <g>
       <use style="stroke:#000000;stroke-width:0.8;" x="399.942857" xlink:href="#m54ba27f44d" y="298.245375"/>
      </g>
     </g>
     <g id="text_5">
      <!-- 8 -->
      <defs>
       <path d="M 31.78125 34.625 
Q 24.75 34.625 20.71875 30.859375 
Q 16.703125 27.09375 16.703125 20.515625 
Q 16.703125 13.921875 20.71875 10.15625 
Q 24.75 6.390625 31.78125 6.390625 
Q 38.8125 6.390625 42.859375 10.171875 
Q 46.921875 13.96875 46.921875 20.515625 
Q 46.921875 27.09375 42.890625 30.859375 
Q 38.875 34.625 31.78125 34.625 
M 21.921875 38.8125 
Q 15.578125 40.375 12.03125 44.71875 
Q 8.5 49.078125 8.5 55.328125 
Q 8.5 64.0625 14.71875 69.140625 
Q 20.953125 74.21875 31.78125 74.21875 
Q 42.671875 74.21875 48.875 69.140625 
Q 55.078125 64.0625 55.078125 55.328125 
Q 55.078125 49.078125 51.53125 44.71875 
Q 48 40.375 41.703125 38.8125 
Q 48.828125 37.15625 52.796875 32.3125 
Q 56.78125 27.484375 56.78125 20.515625 
Q 56.78125 9.90625 50.3125 4.234375 
Q 43.84375 -1.421875 31.78125 -1.421875 
Q 19.734375 -1.421875 13.25 4.234375 
Q 6.78125 9.90625 6.78125 20.515625 
Q 6.78125 27.484375 10.78125 32.3125 
Q 14.796875 37.15625 21.921875 38.8125 
M 18.3125 54.390625 
Q 18.3125 48.734375 21.84375 45.5625 
Q 25.390625 42.390625 31.78125 42.390625 
Q 38.140625 42.390625 41.71875 45.5625 
Q 45.3125 48.734375 45.3125 54.390625 
Q 45.3125 60.0625 41.71875 63.234375 
Q 38.140625 66.40625 31.78125 66.40625 
Q 25.390625 66.40625 21.84375 63.234375 
Q 18.3125 60.0625 18.3125 54.390625 
" id="DejaVuSans-38"/>
      </defs>
      <g transform="translate(393.580357 320.44225)scale(0.2 -0.2)">
       <use xlink:href="#DejaVuSans-38"/>
      </g>
     </g>
    </g>
    <g id="xtick_6">
     <g id="line2d_11">
      <defs>
       <path d="M 0 0 
L 0 2 
" id="m6145a54b73" style="stroke:#000000;stroke-width:0.6;"/>
      </defs>
      <g>
       <use style="stroke:#000000;stroke-width:0.6;" x="83.185234" xlink:href="#m6145a54b73" y="298.245375"/>
      </g>
     </g>
    </g>
    <g id="xtick_7">
     <g id="line2d_12">
      <g>
       <use style="stroke:#000000;stroke-width:0.6;" x="95.570468" xlink:href="#m6145a54b73" y="298.245375"/>
      </g>
     </g>
    </g>
    <g id="xtick_8">
     <g id="line2d_13">
      <g>
       <use style="stroke:#000000;stroke-width:0.6;" x="102.815366" xlink:href="#m6145a54b73" y="298.245375"/>
      </g>
     </g>
    </g>
    <g id="xtick_9">
     <g id="line2d_14">
      <g>
       <use style="stroke:#000000;stroke-width:0.6;" x="107.955702" xlink:href="#m6145a54b73" y="298.245375"/>
      </g>
     </g>
    </g>
    <g id="xtick_10">
     <g id="line2d_15">
      <g>
       <use style="stroke:#000000;stroke-width:0.6;" x="165.470948" xlink:href="#m6145a54b73" y="298.245375"/>
      </g>
     </g>
    </g>
    <g id="xtick_11">
     <g id="line2d_16">
      <g>
       <use style="stroke:#000000;stroke-width:0.6;" x="177.856183" xlink:href="#m6145a54b73" y="298.245375"/>
      </g>
     </g>
    </g>
    <g id="xtick_12">
     <g id="line2d_17">
      <g>
       <use style="stroke:#000000;stroke-width:0.6;" x="185.10108" xlink:href="#m6145a54b73" y="298.245375"/>
      </g>
     </g>
    </g>
    <g id="xtick_13">
     <g id="line2d_18">
      <g>
       <use style="stroke:#000000;stroke-width:0.6;" x="190.241417" xlink:href="#m6145a54b73" y="298.245375"/>
      </g>
     </g>
    </g>
    <g id="xtick_14">
     <g id="line2d_19">
      <g>
       <use style="stroke:#000000;stroke-width:0.6;" x="247.756663" xlink:href="#m6145a54b73" y="298.245375"/>
      </g>
     </g>
    </g>
    <g id="xtick_15">
     <g id="line2d_20">
      <g>
       <use style="stroke:#000000;stroke-width:0.6;" x="260.141897" xlink:href="#m6145a54b73" y="298.245375"/>
      </g>
     </g>
    </g>
    <g id="xtick_16">
     <g id="line2d_21">
      <g>
       <use style="stroke:#000000;stroke-width:0.6;" x="267.386794" xlink:href="#m6145a54b73" y="298.245375"/>
      </g>
     </g>
    </g>
    <g id="xtick_17">
     <g id="line2d_22">
      <g>
       <use style="stroke:#000000;stroke-width:0.6;" x="272.527131" xlink:href="#m6145a54b73" y="298.245375"/>
      </g>
     </g>
    </g>
    <g id="xtick_18">
     <g id="line2d_23">
      <g>
       <use style="stroke:#000000;stroke-width:0.6;" x="330.042377" xlink:href="#m6145a54b73" y="298.245375"/>
      </g>
     </g>
    </g>
    <g id="xtick_19">
     <g id="line2d_24">
      <g>
       <use style="stroke:#000000;stroke-width:0.6;" x="342.427611" xlink:href="#m6145a54b73" y="298.245375"/>
      </g>
     </g>
    </g>
    <g id="xtick_20">
     <g id="line2d_25">
      <g>
       <use style="stroke:#000000;stroke-width:0.6;" x="349.672509" xlink:href="#m6145a54b73" y="298.245375"/>
      </g>
     </g>
    </g>
    <g id="xtick_21">
     <g id="line2d_26">
      <g>
       <use style="stroke:#000000;stroke-width:0.6;" x="354.812845" xlink:href="#m6145a54b73" y="298.245375"/>
      </g>
     </g>
    </g>
    <g id="xtick_22">
     <g id="line2d_27">
      <g>
       <use style="stroke:#000000;stroke-width:0.6;" x="412.328091" xlink:href="#m6145a54b73" y="298.245375"/>
      </g>
     </g>
    </g>
    <g id="xtick_23">
     <g id="line2d_28">
      <g>
       <use style="stroke:#000000;stroke-width:0.6;" x="424.713325" xlink:href="#m6145a54b73" y="298.245375"/>
      </g>
     </g>
    </g>
    <g id="text_6">
     <!-- log10 of (# f-evals / dimension) -->
     <defs>
      <path d="M 9.421875 75.984375 
L 18.40625 75.984375 
L 18.40625 0 
L 9.421875 0 
z
" id="DejaVuSans-6c"/>
      <path d="M 30.609375 48.390625 
Q 23.390625 48.390625 19.1875 42.75 
Q 14.984375 37.109375 14.984375 27.296875 
Q 14.984375 17.484375 19.15625 11.84375 
Q 23.34375 6.203125 30.609375 6.203125 
Q 37.796875 6.203125 41.984375 11.859375 
Q 46.1875 17.53125 46.1875 27.296875 
Q 46.1875 37.015625 41.984375 42.703125 
Q 37.796875 48.390625 30.609375 48.390625 
M 30.609375 56 
Q 42.328125 56 49.015625 48.375 
Q 55.71875 40.765625 55.71875 27.296875 
Q 55.71875 13.875 49.015625 6.21875 
Q 42.328125 -1.421875 30.609375 -1.421875 
Q 18.84375 -1.421875 12.171875 6.21875 
Q 5.515625 13.875 5.515625 27.296875 
Q 5.515625 40.765625 12.171875 48.375 
Q 18.84375 56 30.609375 56 
" id="DejaVuSans-6f"/>
      <path d="M 45.40625 27.984375 
Q 45.40625 37.75 41.375 43.109375 
Q 37.359375 48.484375 30.078125 48.484375 
Q 22.859375 48.484375 18.828125 43.109375 
Q 14.796875 37.75 14.796875 27.984375 
Q 14.796875 18.265625 18.828125 12.890625 
Q 22.859375 7.515625 30.078125 7.515625 
Q 37.359375 7.515625 41.375 12.890625 
Q 45.40625 18.265625 45.40625 27.984375 
M 54.390625 6.78125 
Q 54.390625 -7.171875 48.1875 -13.984375 
Q 42 -20.796875 29.203125 -20.796875 
Q 24.46875 -20.796875 20.265625 -20.09375 
Q 16.0625 -19.390625 12.109375 -17.921875 
L 12.109375 -9.1875 
Q 16.0625 -11.328125 19.921875 -12.34375 
Q 23.78125 -13.375 27.78125 -13.375 
Q 36.625 -13.375 41.015625 -8.765625 
Q 45.40625 -4.15625 45.40625 5.171875 
L 45.40625 9.625 
Q 42.625 4.78125 38.28125 2.390625 
Q 33.9375 0 27.875 0 
Q 17.828125 0 11.671875 7.65625 
Q 5.515625 15.328125 5.515625 27.984375 
Q 5.515625 40.671875 11.671875 48.328125 
Q 17.828125 56 27.875 56 
Q 33.9375 56 38.28125 53.609375 
Q 42.625 51.21875 45.40625 46.390625 
L 45.40625 54.6875 
L 54.390625 54.6875 
z
" id="DejaVuSans-67"/>
      <path d="M 12.40625 8.296875 
L 28.515625 8.296875 
L 28.515625 63.921875 
L 10.984375 60.40625 
L 10.984375 69.390625 
L 28.421875 72.90625 
L 38.28125 72.90625 
L 38.28125 8.296875 
L 54.390625 8.296875 
L 54.390625 0 
L 12.40625 0 
z
" id="DejaVuSans-31"/>
      <path id="DejaVuSans-20"/>
      <path d="M 37.109375 75.984375 
L 37.109375 68.5 
L 28.515625 68.5 
Q 23.6875 68.5 21.796875 66.546875 
Q 19.921875 64.59375 19.921875 59.515625 
L 19.921875 54.6875 
L 34.71875 54.6875 
L 34.71875 47.703125 
L 19.921875 47.703125 
L 19.921875 0 
L 10.890625 0 
L 10.890625 47.703125 
L 2.296875 47.703125 
L 2.296875 54.6875 
L 10.890625 54.6875 
L 10.890625 58.5 
Q 10.890625 67.625 15.140625 71.796875 
Q 19.390625 75.984375 28.609375 75.984375 
z
" id="DejaVuSans-66"/>
      <path d="M 31 75.875 
Q 24.46875 64.65625 21.28125 53.65625 
Q 18.109375 42.671875 18.109375 31.390625 
Q 18.109375 20.125 21.3125 9.0625 
Q 24.515625 -2 31 -13.1875 
L 23.1875 -13.1875 
Q 15.875 -1.703125 12.234375 9.375 
Q 8.59375 20.453125 8.59375 31.390625 
Q 8.59375 42.28125 12.203125 53.3125 
Q 15.828125 64.359375 23.1875 75.875 
z
" id="DejaVuSans-28"/>
      <path d="M 51.125 44 
L 36.921875 44 
L 32.8125 27.6875 
L 47.125 27.6875 
z
M 43.796875 71.78125 
L 38.71875 51.515625 
L 52.984375 51.515625 
L 58.109375 71.78125 
L 65.921875 71.78125 
L 60.890625 51.515625 
L 76.125 51.515625 
L 76.125 44 
L 58.984375 44 
L 54.984375 27.6875 
L 70.515625 27.6875 
L 70.515625 20.21875 
L 53.078125 20.21875 
L 48 0 
L 40.1875 0 
L 45.21875 20.21875 
L 30.90625 20.21875 
L 25.875 0 
L 18.015625 0 
L 23.09375 20.21875 
L 7.71875 20.21875 
L 7.71875 27.6875 
L 24.90625 27.6875 
L 29 44 
L 13.28125 44 
L 13.28125 51.515625 
L 30.90625 51.515625 
L 35.890625 71.78125 
z
" id="DejaVuSans-23"/>
      <path d="M 4.890625 31.390625 
L 31.203125 31.390625 
L 31.203125 23.390625 
L 4.890625 23.390625 
z
" id="DejaVuSans-2d"/>
      <path d="M 56.203125 29.59375 
L 56.203125 25.203125 
L 14.890625 25.203125 
Q 15.484375 15.921875 20.484375 11.0625 
Q 25.484375 6.203125 34.421875 6.203125 
Q 39.59375 6.203125 44.453125 7.46875 
Q 49.3125 8.734375 54.109375 11.28125 
L 54.109375 2.78125 
Q 49.265625 0.734375 44.1875 -0.34375 
Q 39.109375 -1.421875 33.890625 -1.421875 
Q 20.796875 -1.421875 13.15625 6.1875 
Q 5.515625 13.8125 5.515625 26.8125 
Q 5.515625 40.234375 12.765625 48.109375 
Q 20.015625 56 32.328125 56 
Q 43.359375 56 49.78125 48.890625 
Q 56.203125 41.796875 56.203125 29.59375 
M 47.21875 32.234375 
Q 47.125 39.59375 43.09375 43.984375 
Q 39.0625 48.390625 32.421875 48.390625 
Q 24.90625 48.390625 20.390625 44.140625 
Q 15.875 39.890625 15.1875 32.171875 
z
" id="DejaVuSans-65"/>
      <path d="M 2.984375 54.6875 
L 12.5 54.6875 
L 29.59375 8.796875 
L 46.6875 54.6875 
L 56.203125 54.6875 
L 35.6875 0 
L 23.484375 0 
z
" id="DejaVuSans-76"/>
      <path d="M 34.28125 27.484375 
Q 23.390625 27.484375 19.1875 25 
Q 14.984375 22.515625 14.984375 16.5 
Q 14.984375 11.71875 18.140625 8.90625 
Q 21.296875 6.109375 26.703125 6.109375 
Q 34.1875 6.109375 38.703125 11.40625 
Q 43.21875 16.703125 43.21875 25.484375 
L 43.21875 27.484375 
z
M 52.203125 31.203125 
L 52.203125 0 
L 43.21875 0 
L 43.21875 8.296875 
Q 40.140625 3.328125 35.546875 0.953125 
Q 30.953125 -1.421875 24.3125 -1.421875 
Q 15.921875 -1.421875 10.953125 3.296875 
Q 6 8.015625 6 15.921875 
Q 6 25.140625 12.171875 29.828125 
Q 18.359375 34.515625 30.609375 34.515625 
L 43.21875 34.515625 
L 43.21875 35.40625 
Q 43.21875 41.609375 39.140625 45 
Q 35.0625 48.390625 27.6875 48.390625 
Q 23 48.390625 18.546875 47.265625 
Q 14.109375 46.140625 10.015625 43.890625 
L 10.015625 52.203125 
Q 14.9375 54.109375 19.578125 55.046875 
Q 24.21875 56 28.609375 56 
Q 40.484375 56 46.34375 49.84375 
Q 52.203125 43.703125 52.203125 31.203125 
" id="DejaVuSans-61"/>
      <path d="M 44.28125 53.078125 
L 44.28125 44.578125 
Q 40.484375 46.53125 36.375 47.5 
Q 32.28125 48.484375 27.875 48.484375 
Q 21.1875 48.484375 17.84375 46.4375 
Q 14.5 44.390625 14.5 40.28125 
Q 14.5 37.15625 16.890625 35.375 
Q 19.28125 33.59375 26.515625 31.984375 
L 29.59375 31.296875 
Q 39.15625 29.25 43.1875 25.515625 
Q 47.21875 21.78125 47.21875 15.09375 
Q 47.21875 7.46875 41.1875 3.015625 
Q 35.15625 -1.421875 24.609375 -1.421875 
Q 20.21875 -1.421875 15.453125 -0.5625 
Q 10.6875 0.296875 5.421875 2 
L 5.421875 11.28125 
Q 10.40625 8.6875 15.234375 7.390625 
Q 20.0625 6.109375 24.8125 6.109375 
Q 31.15625 6.109375 34.5625 8.28125 
Q 37.984375 10.453125 37.984375 14.40625 
Q 37.984375 18.0625 35.515625 20.015625 
Q 33.0625 21.96875 24.703125 23.78125 
L 21.578125 24.515625 
Q 13.234375 26.265625 9.515625 29.90625 
Q 5.8125 33.546875 5.8125 39.890625 
Q 5.8125 47.609375 11.28125 51.796875 
Q 16.75 56 26.8125 56 
Q 31.78125 56 36.171875 55.265625 
Q 40.578125 54.546875 44.28125 53.078125 
" id="DejaVuSans-73"/>
      <path d="M 25.390625 72.90625 
L 33.6875 72.90625 
L 8.296875 -9.28125 
L 0 -9.28125 
z
" id="DejaVuSans-2f"/>
      <path d="M 45.40625 46.390625 
L 45.40625 75.984375 
L 54.390625 75.984375 
L 54.390625 0 
L 45.40625 0 
L 45.40625 8.203125 
Q 42.578125 3.328125 38.25 0.953125 
Q 33.9375 -1.421875 27.875 -1.421875 
Q 17.96875 -1.421875 11.734375 6.484375 
Q 5.515625 14.40625 5.515625 27.296875 
Q 5.515625 40.1875 11.734375 48.09375 
Q 17.96875 56 27.875 56 
Q 33.9375 56 38.25 53.625 
Q 42.578125 51.265625 45.40625 46.390625 
M 14.796875 27.296875 
Q 14.796875 17.390625 18.875 11.75 
Q 22.953125 6.109375 30.078125 6.109375 
Q 37.203125 6.109375 41.296875 11.75 
Q 45.40625 17.390625 45.40625 27.296875 
Q 45.40625 37.203125 41.296875 42.84375 
Q 37.203125 48.484375 30.078125 48.484375 
Q 22.953125 48.484375 18.875 42.84375 
Q 14.796875 37.203125 14.796875 27.296875 
" id="DejaVuSans-64"/>
      <path d="M 9.421875 54.6875 
L 18.40625 54.6875 
L 18.40625 0 
L 9.421875 0 
z
M 9.421875 75.984375 
L 18.40625 75.984375 
L 18.40625 64.59375 
L 9.421875 64.59375 
z
" id="DejaVuSans-69"/>
      <path d="M 52 44.1875 
Q 55.375 50.25 60.0625 53.125 
Q 64.75 56 71.09375 56 
Q 79.640625 56 84.28125 50.015625 
Q 88.921875 44.046875 88.921875 33.015625 
L 88.921875 0 
L 79.890625 0 
L 79.890625 32.71875 
Q 79.890625 40.578125 77.09375 44.375 
Q 74.3125 48.1875 68.609375 48.1875 
Q 61.625 48.1875 57.5625 43.546875 
Q 53.515625 38.921875 53.515625 30.90625 
L 53.515625 0 
L 44.484375 0 
L 44.484375 32.71875 
Q 44.484375 40.625 41.703125 44.40625 
Q 38.921875 48.1875 33.109375 48.1875 
Q 26.21875 48.1875 22.15625 43.53125 
Q 18.109375 38.875 18.109375 30.90625 
L 18.109375 0 
L 9.078125 0 
L 9.078125 54.6875 
L 18.109375 54.6875 
L 18.109375 46.1875 
Q 21.1875 51.21875 25.484375 53.609375 
Q 29.78125 56 35.6875 56 
Q 41.65625 56 45.828125 52.96875 
Q 50 49.953125 52 44.1875 
" id="DejaVuSans-6d"/>
      <path d="M 54.890625 33.015625 
L 54.890625 0 
L 45.90625 0 
L 45.90625 32.71875 
Q 45.90625 40.484375 42.875 44.328125 
Q 39.84375 48.1875 33.796875 48.1875 
Q 26.515625 48.1875 22.3125 43.546875 
Q 18.109375 38.921875 18.109375 30.90625 
L 18.109375 0 
L 9.078125 0 
L 9.078125 54.6875 
L 18.109375 54.6875 
L 18.109375 46.1875 
Q 21.34375 51.125 25.703125 53.5625 
Q 30.078125 56 35.796875 56 
Q 45.21875 56 50.046875 50.171875 
Q 54.890625 44.34375 54.890625 33.015625 
" id="DejaVuSans-6e"/>
      <path d="M 8.015625 75.875 
L 15.828125 75.875 
Q 23.140625 64.359375 26.78125 53.3125 
Q 30.421875 42.28125 30.421875 31.390625 
Q 30.421875 20.453125 26.78125 9.375 
Q 23.140625 -1.703125 15.828125 -13.1875 
L 8.015625 -13.1875 
Q 14.5 -2 17.703125 9.0625 
Q 20.90625 20.125 20.90625 31.390625 
Q 20.90625 42.671875 17.703125 53.65625 
Q 14.5 64.65625 8.015625 75.875 
" id="DejaVuSans-29"/>
     </defs>
     <g transform="translate(107.015156 342.278812)scale(0.18 -0.18)">
      <use xlink:href="#DejaVuSans-6c"/>
      <use x="27.783203" xlink:href="#DejaVuSans-6f"/>
      <use x="88.964844" xlink:href="#DejaVuSans-67"/>
      <use x="152.441406" xlink:href="#DejaVuSans-31"/>
      <use x="216.064453" xlink:href="#DejaVuSans-30"/>
      <use x="279.6875" xlink:href="#DejaVuSans-20"/>
      <use x="311.474609" xlink:href="#DejaVuSans-6f"/>
      <use x="372.65625" xlink:href="#DejaVuSans-66"/>
      <use x="407.861328" xlink:href="#DejaVuSans-20"/>
      <use x="439.648438" xlink:href="#DejaVuSans-28"/>
      <use x="478.662109" xlink:href="#DejaVuSans-23"/>
      <use x="562.451172" xlink:href="#DejaVuSans-20"/>
      <use x="594.238281" xlink:href="#DejaVuSans-66"/>
      <use x="629.365234" xlink:href="#DejaVuSans-2d"/>
      <use x="665.449219" xlink:href="#DejaVuSans-65"/>
      <use x="726.972656" xlink:href="#DejaVuSans-76"/>
      <use x="786.152344" xlink:href="#DejaVuSans-61"/>
      <use x="847.431641" xlink:href="#DejaVuSans-6c"/>
      <use x="875.214844" xlink:href="#DejaVuSans-73"/>
      <use x="927.314453" xlink:href="#DejaVuSans-20"/>
      <use x="959.101562" xlink:href="#DejaVuSans-2f"/>
      <use x="992.792969" xlink:href="#DejaVuSans-20"/>
      <use x="1024.580078" xlink:href="#DejaVuSans-64"/>
      <use x="1088.056641" xlink:href="#DejaVuSans-69"/>
      <use x="1115.839844" xlink:href="#DejaVuSans-6d"/>
      <use x="1213.251953" xlink:href="#DejaVuSans-65"/>
      <use x="1274.775391" xlink:href="#DejaVuSans-6e"/>
      <use x="1338.154297" xlink:href="#DejaVuSans-73"/>
      <use x="1390.253906" xlink:href="#DejaVuSans-69"/>
      <use x="1418.037109" xlink:href="#DejaVuSans-6f"/>
      <use x="1479.21875" xlink:href="#DejaVuSans-6e"/>
      <use x="1542.597656" xlink:href="#DejaVuSans-29"/>
     </g>
    </g>
   </g>
   <g id="matplotlib.axis_2">
    <g id="ytick_1">
     <g id="line2d_29">
      <path clip-path="url(#p79525b4ad3)" d="M 70.8 298.245375 
L 427.92 298.245375 
" style="fill:none;stroke:#b0b0b0;stroke-linecap:square;stroke-width:0.8;"/>
     </g>
     <g id="line2d_30">
      <defs>
       <path d="M 0 0 
L -3.5 0 
" id="m841aacd5e3" style="stroke:#000000;stroke-width:0.8;"/>
      </defs>
      <g>
       <use style="stroke:#000000;stroke-width:0.8;" x="70.8" xlink:href="#m841aacd5e3" y="298.245375"/>
      </g>
     </g>
     <g id="text_7">
      <!-- 0.0 -->
      <defs>
       <path d="M 10.6875 12.40625 
L 21 12.40625 
L 21 0 
L 10.6875 0 
z
" id="DejaVuSans-2e"/>
      </defs>
      <g transform="translate(31.99375 305.843812)scale(0.2 -0.2)">
       <use xlink:href="#DejaVuSans-30"/>
       <use x="63.623047" xlink:href="#DejaVuSans-2e"/>
       <use x="95.410156" xlink:href="#DejaVuSans-30"/>
      </g>
     </g>
    </g>
    <g id="ytick_2">
     <g id="line2d_31">
      <path clip-path="url(#p79525b4ad3)" d="M 70.8 245.549929 
L 427.92 245.549929 
" style="fill:none;stroke:#b0b0b0;stroke-linecap:square;stroke-width:0.8;"/>
     </g>
     <g id="line2d_32">
      <g>
       <use style="stroke:#000000;stroke-width:0.8;" x="70.8" xlink:href="#m841aacd5e3" y="245.549929"/>
      </g>
     </g>
     <g id="text_8">
      <!-- 0.2 -->
      <g transform="translate(31.99375 253.148367)scale(0.2 -0.2)">
       <use xlink:href="#DejaVuSans-30"/>
       <use x="63.623047" xlink:href="#DejaVuSans-2e"/>
       <use x="95.410156" xlink:href="#DejaVuSans-32"/>
      </g>
     </g>
    </g>
    <g id="ytick_3">
     <g id="line2d_33">
      <path clip-path="url(#p79525b4ad3)" d="M 70.8 192.854484 
L 427.92 192.854484 
" style="fill:none;stroke:#b0b0b0;stroke-linecap:square;stroke-width:0.8;"/>
     </g>
     <g id="line2d_34">
      <g>
       <use style="stroke:#000000;stroke-width:0.8;" x="70.8" xlink:href="#m841aacd5e3" y="192.854484"/>
      </g>
     </g>
     <g id="text_9">
      <!-- 0.4 -->
      <g transform="translate(31.99375 200.452921)scale(0.2 -0.2)">
       <use xlink:href="#DejaVuSans-30"/>
       <use x="63.623047" xlink:href="#DejaVuSans-2e"/>
       <use x="95.410156" xlink:href="#DejaVuSans-34"/>
      </g>
     </g>
    </g>
    <g id="ytick_4">
     <g id="line2d_35">
      <path clip-path="url(#p79525b4ad3)" d="M 70.8 140.159038 
L 427.92 140.159038 
" style="fill:none;stroke:#b0b0b0;stroke-linecap:square;stroke-width:0.8;"/>
     </g>
     <g id="line2d_36">
      <g>
       <use style="stroke:#000000;stroke-width:0.8;" x="70.8" xlink:href="#m841aacd5e3" y="140.159038"/>
      </g>
     </g>
     <g id="text_10">
      <!-- 0.6 -->
      <g transform="translate(31.99375 147.757476)scale(0.2 -0.2)">
       <use xlink:href="#DejaVuSans-30"/>
       <use x="63.623047" xlink:href="#DejaVuSans-2e"/>
       <use x="95.410156" xlink:href="#DejaVuSans-36"/>
      </g>
     </g>
    </g>
    <g id="ytick_5">
     <g id="line2d_37">
      <path clip-path="url(#p79525b4ad3)" d="M 70.8 87.463593 
L 427.92 87.463593 
" style="fill:none;stroke:#b0b0b0;stroke-linecap:square;stroke-width:0.8;"/>
     </g>
     <g id="line2d_38">
      <g>
       <use style="stroke:#000000;stroke-width:0.8;" x="70.8" xlink:href="#m841aacd5e3" y="87.463593"/>
      </g>
     </g>
     <g id="text_11">
      <!-- 0.8 -->
      <g transform="translate(31.99375 95.06203)scale(0.2 -0.2)">
       <use xlink:href="#DejaVuSans-30"/>
       <use x="63.623047" xlink:href="#DejaVuSans-2e"/>
       <use x="95.410156" xlink:href="#DejaVuSans-38"/>
      </g>
     </g>
    </g>
    <g id="ytick_6">
     <g id="line2d_39">
      <path clip-path="url(#p79525b4ad3)" d="M 70.8 34.768147 
L 427.92 34.768147 
" style="fill:none;stroke:#b0b0b0;stroke-linecap:square;stroke-width:0.8;"/>
     </g>
     <g id="line2d_40">
      <g>
       <use style="stroke:#000000;stroke-width:0.8;" x="70.8" xlink:href="#m841aacd5e3" y="34.768147"/>
      </g>
     </g>
     <g id="text_12">
      <!-- 1.0 -->
      <g transform="translate(31.99375 42.366585)scale(0.2 -0.2)">
       <use xlink:href="#DejaVuSans-31"/>
       <use x="63.623047" xlink:href="#DejaVuSans-2e"/>
       <use x="95.410156" xlink:href="#DejaVuSans-30"/>
      </g>
     </g>
    </g>
    <g id="text_13">
     <!-- Proportion of function+target pairs -->
     <defs>
      <path d="M 19.671875 64.796875 
L 19.671875 37.40625 
L 32.078125 37.40625 
Q 38.96875 37.40625 42.71875 40.96875 
Q 46.484375 44.53125 46.484375 51.125 
Q 46.484375 57.671875 42.71875 61.234375 
Q 38.96875 64.796875 32.078125 64.796875 
z
M 9.8125 72.90625 
L 32.078125 72.90625 
Q 44.34375 72.90625 50.609375 67.359375 
Q 56.890625 61.8125 56.890625 51.125 
Q 56.890625 40.328125 50.609375 34.8125 
Q 44.34375 29.296875 32.078125 29.296875 
L 19.671875 29.296875 
L 19.671875 0 
L 9.8125 0 
z
" id="DejaVuSans-50"/>
      <path d="M 41.109375 46.296875 
Q 39.59375 47.171875 37.8125 47.578125 
Q 36.03125 48 33.890625 48 
Q 26.265625 48 22.1875 43.046875 
Q 18.109375 38.09375 18.109375 28.8125 
L 18.109375 0 
L 9.078125 0 
L 9.078125 54.6875 
L 18.109375 54.6875 
L 18.109375 46.1875 
Q 20.953125 51.171875 25.484375 53.578125 
Q 30.03125 56 36.53125 56 
Q 37.453125 56 38.578125 55.875 
Q 39.703125 55.765625 41.0625 55.515625 
z
" id="DejaVuSans-72"/>
      <path d="M 18.109375 8.203125 
L 18.109375 -20.796875 
L 9.078125 -20.796875 
L 9.078125 54.6875 
L 18.109375 54.6875 
L 18.109375 46.390625 
Q 20.953125 51.265625 25.265625 53.625 
Q 29.59375 56 35.59375 56 
Q 45.5625 56 51.78125 48.09375 
Q 58.015625 40.1875 58.015625 27.296875 
Q 58.015625 14.40625 51.78125 6.484375 
Q 45.5625 -1.421875 35.59375 -1.421875 
Q 29.59375 -1.421875 25.265625 0.953125 
Q 20.953125 3.328125 18.109375 8.203125 
M 48.6875 27.296875 
Q 48.6875 37.203125 44.609375 42.84375 
Q 40.53125 48.484375 33.40625 48.484375 
Q 26.265625 48.484375 22.1875 42.84375 
Q 18.109375 37.203125 18.109375 27.296875 
Q 18.109375 17.390625 22.1875 11.75 
Q 26.265625 6.109375 33.40625 6.109375 
Q 40.53125 6.109375 44.609375 11.75 
Q 48.6875 17.390625 48.6875 27.296875 
" id="DejaVuSans-70"/>
      <path d="M 18.3125 70.21875 
L 18.3125 54.6875 
L 36.8125 54.6875 
L 36.8125 47.703125 
L 18.3125 47.703125 
L 18.3125 18.015625 
Q 18.3125 11.328125 20.140625 9.421875 
Q 21.96875 7.515625 27.59375 7.515625 
L 36.8125 7.515625 
L 36.8125 0 
L 27.59375 0 
Q 17.1875 0 13.234375 3.875 
Q 9.28125 7.765625 9.28125 18.015625 
L 9.28125 47.703125 
L 2.6875 47.703125 
L 2.6875 54.6875 
L 9.28125 54.6875 
L 9.28125 70.21875 
z
" id="DejaVuSans-74"/>
      <path d="M 8.5 21.578125 
L 8.5 54.6875 
L 17.484375 54.6875 
L 17.484375 21.921875 
Q 17.484375 14.15625 20.5 10.265625 
Q 23.53125 6.390625 29.59375 6.390625 
Q 36.859375 6.390625 41.078125 11.03125 
Q 45.3125 15.671875 45.3125 23.6875 
L 45.3125 54.6875 
L 54.296875 54.6875 
L 54.296875 0 
L 45.3125 0 
L 45.3125 8.40625 
Q 42.046875 3.421875 37.71875 1 
Q 33.40625 -1.421875 27.6875 -1.421875 
Q 18.265625 -1.421875 13.375 4.4375 
Q 8.5 10.296875 8.5 21.578125 
M 31.109375 56 
z
" id="DejaVuSans-75"/>
      <path d="M 48.78125 52.59375 
L 48.78125 44.1875 
Q 44.96875 46.296875 41.140625 47.34375 
Q 37.3125 48.390625 33.40625 48.390625 
Q 24.65625 48.390625 19.8125 42.84375 
Q 14.984375 37.3125 14.984375 27.296875 
Q 14.984375 17.28125 19.8125 11.734375 
Q 24.65625 6.203125 33.40625 6.203125 
Q 37.3125 6.203125 41.140625 7.25 
Q 44.96875 8.296875 48.78125 10.40625 
L 48.78125 2.09375 
Q 45.015625 0.34375 40.984375 -0.53125 
Q 36.96875 -1.421875 32.421875 -1.421875 
Q 20.0625 -1.421875 12.78125 6.34375 
Q 5.515625 14.109375 5.515625 27.296875 
Q 5.515625 40.671875 12.859375 48.328125 
Q 20.21875 56 33.015625 56 
Q 37.15625 56 41.109375 55.140625 
Q 45.0625 54.296875 48.78125 52.59375 
" id="DejaVuSans-63"/>
      <path d="M 46 62.703125 
L 46 35.5 
L 73.1875 35.5 
L 73.1875 27.203125 
L 46 27.203125 
L 46 0 
L 37.796875 0 
L 37.796875 27.203125 
L 10.59375 27.203125 
L 10.59375 35.5 
L 37.796875 35.5 
L 37.796875 62.703125 
z
" id="DejaVuSans-2b"/>
     </defs>
     <g transform="translate(24.250312 323.17875)rotate(-90)scale(0.18 -0.18)">
      <use xlink:href="#DejaVuSans-50"/>
      <use x="60.287109" xlink:href="#DejaVuSans-72"/>
      <use x="101.369141" xlink:href="#DejaVuSans-6f"/>
      <use x="162.550781" xlink:href="#DejaVuSans-70"/>
      <use x="226.027344" xlink:href="#DejaVuSans-6f"/>
      <use x="287.208984" xlink:href="#DejaVuSans-72"/>
      <use x="328.322266" xlink:href="#DejaVuSans-74"/>
      <use x="367.53125" xlink:href="#DejaVuSans-69"/>
      <use x="395.314453" xlink:href="#DejaVuSans-6f"/>
      <use x="456.496094" xlink:href="#DejaVuSans-6e"/>
      <use x="519.875" xlink:href="#DejaVuSans-20"/>
      <use x="551.662109" xlink:href="#DejaVuSans-6f"/>
      <use x="612.84375" xlink:href="#DejaVuSans-66"/>
      <use x="648.048828" xlink:href="#DejaVuSans-20"/>
      <use x="679.835938" xlink:href="#DejaVuSans-66"/>
      <use x="715.041016" xlink:href="#DejaVuSans-75"/>
      <use x="778.419922" xlink:href="#DejaVuSans-6e"/>
      <use x="841.798828" xlink:href="#DejaVuSans-63"/>
      <use x="896.779297" xlink:href="#DejaVuSans-74"/>
      <use x="935.988281" xlink:href="#DejaVuSans-69"/>
      <use x="963.771484" xlink:href="#DejaVuSans-6f"/>
      <use x="1024.953125" xlink:href="#DejaVuSans-6e"/>
      <use x="1088.332031" xlink:href="#DejaVuSans-2b"/>
      <use x="1172.121094" xlink:href="#DejaVuSans-74"/>
      <use x="1211.330078" xlink:href="#DejaVuSans-61"/>
      <use x="1272.609375" xlink:href="#DejaVuSans-72"/>
      <use x="1313.707031" xlink:href="#DejaVuSans-67"/>
      <use x="1377.183594" xlink:href="#DejaVuSans-65"/>
      <use x="1438.707031" xlink:href="#DejaVuSans-74"/>
      <use x="1477.916016" xlink:href="#DejaVuSans-20"/>
      <use x="1509.703125" xlink:href="#DejaVuSans-70"/>
      <use x="1573.179688" xlink:href="#DejaVuSans-61"/>
      <use x="1634.458984" xlink:href="#DejaVuSans-69"/>
      <use x="1662.242188" xlink:href="#DejaVuSans-72"/>
      <use x="1703.355469" xlink:href="#DejaVuSans-73"/>
     </g>
    </g>
   </g>
   <g id="line2d_41">
    <defs>
     <path d="M 0 1.5 
C 0.397805 1.5 0.77937 1.341951 1.06066 1.06066 
C 1.341951 0.77937 1.5 0.397805 1.5 0 
C 1.5 -0.397805 1.341951 -0.77937 1.06066 -1.06066 
C 0.77937 -1.341951 0.397805 -1.5 0 -1.5 
C -0.397805 -1.5 -0.77937 -1.341951 -1.06066 -1.06066 
C -1.341951 -0.77937 -1.5 -0.397805 -1.5 0 
C -1.5 0.397805 -1.341951 0.77937 -1.06066 1.06066 
C -0.77937 1.341951 -0.397805 1.5 0 1.5 
z
" id="mb7e3099a2d" style="stroke:#000080;"/>
    </defs>
    <g>
     <use style="fill:#000080;stroke:#000080;" x="249.805547" xlink:href="#mb7e3099a2d" y="34.768147"/>
     <use style="fill:#000080;stroke:#000080;" x="249.805547" xlink:href="#mb7e3099a2d" y="34.768147"/>
    </g>
   </g>
   <g id="line2d_42">
    <path d="M 17.271909 298.245375 
L 17.271909 292.045911 
L 124.328091 292.045911 
L 124.328091 286.879691 
L 131.572989 286.879691 
L 131.572989 286.363069 
L 136.713325 286.363069 
L 136.713325 281.713471 
L 140.70048 281.713471 
L 140.70048 278.613738 
L 143.958223 278.613738 
L 143.958223 276.030628 
L 146.712605 276.030628 
L 146.712605 274.480762 
L 149.098559 274.480762 
L 149.098559 271.897652 
L 151.20312 271.897652 
L 151.20312 270.347786 
L 153.085714 270.347786 
L 153.085714 269.314542 
L 154.788728 269.314542 
L 154.788728 268.79792 
L 156.343457 268.79792 
L 156.343457 266.21481 
L 157.773669 266.21481 
L 157.773669 265.698188 
L 159.097839 265.698188 
L 159.097839 264.148322 
L 160.330612 264.148322 
L 160.330612 262.081834 
L 161.483794 262.081834 
L 161.483794 260.015346 
L 162.567041 260.015346 
L 162.567041 257.948858 
L 163.588354 257.948858 
L 163.588354 257.432236 
L 164.554434 257.432236 
L 164.554434 251.749394 
L 165.470948 251.749394 
L 165.470948 251.232772 
L 166.342737 251.232772 
L 166.342737 248.649662 
L 167.173962 248.649662 
L 167.173962 245.549929 
L 167.968231 245.549929 
L 167.968231 243.483441 
L 168.728691 243.483441 
L 168.728691 242.966819 
L 169.458103 242.966819 
L 169.458103 240.900331 
L 170.158903 240.900331 
L 170.158903 238.317221 
L 170.833252 238.317221 
L 170.833252 237.800599 
L 171.483073 237.800599 
L 171.483073 236.250733 
L 172.110089 236.250733 
L 172.110089 233.667623 
L 172.715846 233.667623 
L 172.715846 232.634379 
L 173.301738 232.634379 
L 173.301738 231.601135 
L 173.869028 231.601135 
L 173.869028 230.567891 
L 174.418859 230.567891 
L 174.418859 228.501403 
L 174.952275 228.501403 
L 174.952275 225.918293 
L 175.470228 225.918293 
L 175.470228 223.851805 
L 175.973589 223.851805 
L 175.973589 222.301939 
L 176.463157 222.301939 
L 176.463157 221.268695 
L 176.939668 221.268695 
L 176.939668 220.752073 
L 177.403801 220.752073 
L 177.403801 219.202207 
L 177.856183 219.202207 
L 177.856183 218.685585 
L 178.297393 218.685585 
L 178.297393 217.652341 
L 178.727971 217.652341 
L 178.727971 215.069231 
L 179.148416 215.069231 
L 179.148416 212.48612 
L 179.559196 212.48612 
L 179.559196 211.969498 
L 179.960743 211.969498 
L 179.960743 211.452876 
L 180.353465 211.452876 
L 180.353465 210.419632 
L 180.73774 210.419632 
L 180.73774 209.386388 
L 181.113925 209.386388 
L 181.113925 207.3199 
L 181.482353 207.3199 
L 181.482353 205.770034 
L 181.843337 205.770034 
L 181.843337 205.253412 
L 192.345978 205.253412 
L 192.345978 204.73679 
L 193.499159 204.73679 
L 193.499159 204.220168 
L 193.867587 204.220168 
L 193.867587 203.186924 
L 200.990517 203.186924 
L 200.990517 202.670302 
L 201.592194 202.670302 
L 201.592194 202.15368 
L 201.827305 202.15368 
L 201.827305 201.637058 
L 202.059361 201.637058 
L 202.059361 201.120436 
L 202.174269 201.120436 
L 202.174269 199.053948 
L 202.514625 199.053948 
L 202.514625 198.020704 
L 202.626651 198.020704 
L 202.626651 197.504082 
L 203.067861 197.504082 
L 203.067861 196.470838 
L 203.498439 196.470838 
L 203.498439 195.437594 
L 204.022468 195.437594 
L 204.022468 193.887728 
L 204.227851 193.887728 
L 204.227851 193.371106 
L 204.830204 193.371106 
L 204.830204 192.854484 
L 205.123933 192.854484 
L 205.123933 191.82124 
L 205.317104 191.82124 
L 205.317104 189.754752 
L 205.603 189.754752 
L 205.603 189.23813 
L 205.791087 189.23813 
L 205.791087 188.721508 
L 206.343753 188.721508 
L 206.343753 188.204886 
L 206.524241 188.204886 
L 206.524241 187.688264 
L 207.055016 187.688264 
L 207.055016 187.171642 
L 207.739047 187.171642 
L 207.822738 186.138398 
L 208.316819 186.138398 
L 208.316819 185.621776 
L 208.718366 185.621776 
L 208.718366 185.105154 
L 209.111088 185.105154 
L 209.111088 184.588532 
L 209.342644 184.588532 
L 209.419167 183.555288 
L 209.646789 183.555288 
L 209.646789 182.522044 
L 210.529345 182.522044 
L 210.529345 179.938934 
L 213.314454 179.938934 
L 213.314454 178.90569 
L 213.618859 178.90569 
L 213.618859 177.355823 
L 213.799043 177.355823 
L 213.799043 176.839201 
L 216.147609 176.839201 
L 216.147609 176.322579 
L 216.714898 176.322579 
L 216.714898 175.805957 
L 217.893443 175.805957 
L 217.893443 174.256091 
L 218.129485 174.256091 
L 218.129485 172.706225 
L 218.269628 172.706225 
L 218.269628 172.189603 
L 218.454791 172.189603 
L 218.546658 170.123115 
L 218.728987 170.123115 
L 218.819459 168.573249 
L 218.864524 168.573249 
L 218.954313 167.023383 
L 218.99904 167.023383 
L 218.99904 166.506761 
L 220.207972 166.506761 
L 220.207972 165.990139 
L 220.497844 165.990139 
L 220.497844 165.473517 
L 220.661397 165.473517 
L 220.661397 164.956895 
L 220.863756 164.956895 
L 220.863756 164.440273 
L 220.984081 164.440273 
L 221.063849 162.890407 
L 221.103601 162.890407 
L 221.103601 161.340541 
L 222.588707 161.340541 
L 222.588707 160.823919 
L 222.77048 160.823919 
L 222.878663 158.757431 
L 222.914579 158.757431 
L 222.986194 155.141077 
L 223.093083 155.141077 
L 223.093083 154.107833 
L 224.427399 154.107833 
L 224.526028 152.557967 
L 224.558783 152.557967 
L 224.656691 149.458235 
L 226.214132 149.458235 
L 226.243937 148.424991 
L 227.563852 148.424991 
L 227.563852 147.908369 
L 228.818739 147.908369 
L 228.818739 146.875125 
L 228.972775 146.875125 
L 228.972775 146.358503 
L 230.015378 146.358503 
L 230.015378 145.841881 
L 230.13554 145.841881 
L 230.207252 144.292014 
L 230.397088 144.292014 
L 230.397088 143.775392 
L 231.068813 143.775392 
L 231.068813 142.742148 
L 231.249758 142.742148 
L 231.339548 134.476196 
L 231.384274 134.476196 
L 231.384274 133.442952 
L 232.170773 133.442952 
L 232.277321 131.376464 
L 232.319763 131.376464 
L 232.362105 128.793354 
L 232.446488 128.793354 
L 232.48853 126.210244 
L 233.289189 126.210244 
L 233.369315 123.110512 
L 233.409244 123.110512 
L 233.488835 120.01078 
L 234.436096 120.01078 
L 234.436096 119.494158 
L 235.335657 119.494158 
L 235.335657 118.977536 
L 236.993038 118.977536 
L 237.058191 117.42767 
L 237.444196 117.42767 
L 237.444196 115.877804 
L 237.571033 115.877804 
L 237.571033 115.361182 
L 237.712657 115.361182 
L 237.806453 113.811316 
L 237.853167 113.811316 
L 237.915263 112.26145 
L 238.479646 112.26145 
L 238.584445 106.578607 
L 238.629171 106.578607 
L 238.629171 105.545363 
L 239.186221 105.545363 
L 239.24386 103.995497 
L 239.301314 103.995497 
L 239.344283 100.379143 
L 239.921405 100.379143 
L 240.031873 96.762789 
L 240.045634 96.762789 
L 240.059384 95.212923 
L 240.720492 95.212923 
L 240.733732 92.113191 
L 241.637006 92.113191 
L 241.737389 90.563325 
L 241.899318 90.563325 
L 241.985907 82.813995 
L 242.157835 82.813995 
L 242.157835 82.297373 
L 242.48481 82.297373 
L 242.54471 79.197641 
L 242.616326 79.197641 
L 242.616326 77.647775 
L 243.098166 77.647775 
L 243.202218 75.064664 
L 243.259765 75.064664 
L 243.259765 74.548042 
L 243.623736 74.548042 
L 243.623736 74.03142 
L 243.747159 74.03142 
L 243.758337 71.964932 
L 244.22161 71.964932 
L 244.319339 69.381822 
L 244.683789 69.381822 
L 244.78958 68.348578 
L 244.810663 68.348578 
L 244.842242 67.315334 
L 245.32982 67.315334 
L 245.350276 65.248846 
L 245.724544 65.248846 
L 245.834318 60.599248 
L 245.854204 60.599248 
L 245.93353 55.433028 
L 246.276499 55.433028 
L 246.363637 50.78343 
L 246.689043 50.78343 
L 246.764755 49.750186 
L 246.82133 49.750186 
L 246.82133 48.716942 
L 247.230825 48.716942 
L 247.304281 44.583966 
L 247.747726 44.583966 
L 247.747726 43.550722 
L 248.128007 43.550722 
L 248.197873 40.450989 
L 248.551709 40.450989 
L 248.611426 39.417745 
L 248.990626 39.417745 
L 249.007294 37.351257 
L 249.386429 37.351257 
L 249.435294 35.284769 
L 249.805547 35.284769 
L 249.805547 34.768147 
L 358.8 34.768147 
L 358.8 34.768147 
" style="fill:none;stroke:#000080;stroke-linecap:square;stroke-width:1.5;"/>
   </g>
   <g id="line2d_43">
    <defs>
     <path d="M 0 6 
C 1.591219 6 3.117479 5.367802 4.242641 4.242641 
C 5.367802 3.117479 6 1.591219 6 0 
C 6 -1.591219 5.367802 -3.117479 4.242641 -4.242641 
C 3.117479 -5.367802 1.591219 -6 0 -6 
C -1.591219 -6 -3.117479 -5.367802 -4.242641 -4.242641 
C -5.367802 -3.117479 -6 -1.591219 -6 0 
C -6 1.591219 -5.367802 3.117479 -4.242641 4.242641 
C -3.117479 5.367802 -1.591219 6 0 6 
z
" id="md9876855bd" style="stroke:#000080;stroke-width:1.5;"/>
    </defs>
    <g>
     <use style="fill:none;stroke:#000080;stroke-width:1.5;" x="358.8" xlink:href="#md9876855bd" y="34.768147"/>
    </g>
   </g>
   <g id="line2d_44"/>
   <g id="line2d_45">
    <defs>
     <path d="M 0 1.5 
C 0.397805 1.5 0.77937 1.341951 1.06066 1.06066 
C 1.341951 0.77937 1.5 0.397805 1.5 0 
C 1.5 -0.397805 1.341951 -0.77937 1.06066 -1.06066 
C 0.77937 -1.341951 0.397805 -1.5 0 -1.5 
C -0.397805 -1.5 -0.77937 -1.341951 -1.06066 -1.06066 
C -1.341951 -0.77937 -1.5 -0.397805 -1.5 0 
C -1.5 0.397805 -1.341951 0.77937 -1.06066 1.06066 
C -0.77937 1.341951 -0.397805 1.5 0 1.5 
z
" id="maa80b20f05" style="stroke:#ff00ff;"/>
    </defs>
    <g>
     <use style="fill:#ff00ff;stroke:#ff00ff;" x="260.355038" xlink:href="#maa80b20f05" y="34.768147"/>
     <use style="fill:#ff00ff;stroke:#ff00ff;" x="260.355038" xlink:href="#maa80b20f05" y="34.768147"/>
    </g>
   </g>
   <g id="line2d_46">
    <path d="M 202.059361 298.245375 
L 202.059361 297.728753 
L 204.830204 297.728753 
L 204.830204 297.212131 
L 206.161424 297.212131 
L 206.161424 296.695509 
L 206.343753 296.695509 
L 206.434225 295.145643 
L 209.265791 295.145643 
L 209.265791 294.629021 
L 209.419167 294.629021 
L 209.419167 294.112399 
L 210.457441 294.112399 
L 210.529345 292.562533 
L 210.60096 292.562533 
L 210.60096 292.045911 
L 213.004774 292.045911 
L 213.004774 289.979423 
L 213.739183 289.979423 
L 213.799043 287.912935 
L 215.011885 287.912935 
L 215.011885 285.846447 
L 216.199931 285.846447 
L 216.252101 284.813203 
L 216.56196 284.813203 
L 216.613085 281.713471 
L 217.606014 281.713471 
L 217.606014 280.680226 
L 218.864524 280.680226 
L 218.864524 280.163604 
L 218.99904 280.163604 
L 218.99904 279.13036 
L 220.538873 279.13036 
L 220.538873 278.613738 
L 221.918574 278.613738 
L 221.918574 278.097116 
L 222.515477 278.097116 
L 222.515477 277.580494 
L 222.806614 277.580494 
L 222.914579 275.514006 
L 224.493212 275.514006 
L 224.493212 274.997384 
L 224.624114 274.997384 
L 224.689208 273.96414 
L 225.822073 273.96414 
L 225.822073 273.447518 
L 225.973885 273.447518 
L 225.973885 271.897652 
L 226.154372 271.897652 
L 226.184277 270.347786 
L 226.597773 270.347786 
L 226.597773 269.831164 
L 227.285093 269.831164 
L 227.369178 268.79792 
L 227.48068 268.79792 
L 227.59149 266.21481 
L 227.67415 266.21481 
L 227.78377 263.6317 
L 228.611269 263.6317 
L 228.637335 261.565212 
L 228.74122 261.565212 
L 228.844504 260.015346 
L 228.870232 260.015346 
L 228.972775 256.915614 
L 228.998319 256.915614 
L 229.074733 255.365748 
L 229.451977 255.365748 
L 229.451977 254.332504 
L 229.69912 254.332504 
L 229.69912 253.815882 
L 230.207252 253.815882 
L 230.231092 252.266016 
L 231.249758 252.266016 
L 231.339548 250.71615 
L 231.361925 250.71615 
L 231.361925 249.682906 
L 232.063585 249.682906 
L 232.063585 248.13304 
L 232.213468 248.13304 
L 232.213468 247.616418 
L 232.404346 247.616418 
L 232.467522 245.033307 
L 232.593206 245.033307 
L 232.655719 242.966819 
L 233.369315 242.966819 
L 233.46897 241.933575 
L 233.488835 241.933575 
L 233.488835 241.416953 
L 234.379521 241.416953 
L 234.454914 239.350465 
L 235.299813 239.350465 
L 235.317744 237.800599 
L 235.566905 237.800599 
L 235.566905 236.767355 
L 236.003373 236.767355 
L 236.003373 235.217489 
L 236.123697 235.217489 
L 236.20915 232.634379 
L 236.39572 232.634379 
L 236.39572 232.117757 
L 236.927647 232.117757 
L 237.025644 230.051269 
L 237.041925 230.051269 
L 237.074442 226.951537 
L 237.759616 226.951537 
L 237.868711 224.368427 
L 238.374229 224.368427 
L 238.374229 223.851805 
L 238.569511 223.851805 
L 238.629171 221.785317 
L 238.909867 221.785317 
L 238.909867 221.268695 
L 239.128395 221.268695 
L 239.215064 218.685585 
L 239.24386 218.685585 
L 239.329972 215.585853 
L 239.935251 215.585853 
L 239.935251 215.069231 
L 240.059384 215.069231 
L 240.059384 214.552609 
L 240.627532 214.552609 
L 240.720492 212.48612 
L 240.760184 212.48612 
L 240.786596 210.936254 
L 241.242607 210.936254 
L 241.332429 207.836522 
L 241.370786 207.836522 
L 241.396312 205.770034 
L 241.674716 205.770034 
L 241.674716 205.253412 
L 241.78737 205.253412 
L 241.812308 204.220168 
L 241.899318 204.220168 
L 241.973562 202.15368 
L 242.592486 202.15368 
L 242.592486 201.637058 
L 243.179148 201.637058 
L 243.190687 199.57057 
L 243.589927 199.57057 
L 243.589927 199.053948 
L 243.724782 199.053948 
L 243.791829 195.437594 
L 244.188915 195.437594 
L 244.243374 193.887728 
L 244.319339 193.887728 
L 244.416537 192.337862 
L 244.704997 192.337862 
L 244.810663 188.721508 
L 245.268312 188.721508 
L 245.370708 182.005422 
L 245.824366 182.005422 
L 245.864139 177.355823 
L 246.334638 177.355823 
L 246.334638 176.322579 
L 246.574869 176.322579 
L 246.574869 175.289335 
L 246.698524 175.289335 
L 246.802491 172.189603 
L 246.811913 172.189603 
L 246.830741 169.606493 
L 247.230825 169.606493 
L 247.340896 167.540005 
L 247.577082 167.540005 
L 247.667098 166.506761 
L 247.702978 166.506761 
L 247.72984 164.956895 
L 248.101737 164.956895 
L 248.206587 162.373785 
L 248.224002 162.373785 
L 248.224002 161.857163 
L 248.543161 161.857163 
L 248.628451 153.591211 
L 248.932166 153.591211 
L 248.982287 151.008101 
L 249.402732 151.008101 
L 249.459676 147.908369 
L 249.813512 147.908369 
L 249.861224 145.325259 
L 250.269476 145.325259 
L 250.269476 144.808637 
L 250.523803 144.808637 
L 250.623007 142.225526 
L 250.638221 142.225526 
L 250.638221 141.192282 
L 250.969679 141.192282 
L 251.014405 138.609172 
L 251.317074 138.609172 
L 251.382833 135.50944 
L 251.557016 135.50944 
L 251.665024 132.409708 
L 251.672202 132.409708 
L 251.736669 127.243488 
L 252.062583 127.243488 
L 252.090645 125.693622 
L 252.174566 125.693622 
L 252.174566 125.177 
L 252.396446 125.177 
L 252.444618 117.944292 
L 252.784973 117.944292 
L 252.784973 117.42767 
L 253.072581 117.42767 
L 253.112347 115.361182 
L 253.440332 115.361182 
L 253.440332 114.84456 
L 253.743243 114.84456 
L 253.768788 112.26145 
L 253.946581 112.26145 
L 254.034819 110.711584 
L 254.066227 110.711584 
L 254.09758 104.512119 
L 254.203771 104.512119 
L 254.284552 102.962253 
L 254.358797 102.962253 
L 254.395803 98.829277 
L 254.66487 98.829277 
L 254.701249 95.729545 
L 254.971755 95.729545 
L 254.983683 93.146435 
L 255.273459 93.146435 
L 255.296908 90.563325 
L 255.52972 90.563325 
L 255.581688 88.496837 
L 255.748117 88.496837 
L 255.856323 82.813995 
L 255.862 82.813995 
L 255.873348 78.681019 
L 256.093215 78.681019 
L 256.143571 77.647775 
L 256.393246 77.647775 
L 256.470216 76.097908 
L 256.612288 76.097908 
L 256.704574 67.315334 
L 256.946583 67.315334 
L 256.967937 65.765468 
L 257.195898 65.765468 
L 257.23799 62.665736 
L 257.509198 62.665736 
L 257.52472 61.11587 
L 257.694575 61.11587 
L 257.755942 54.399784 
L 257.994289 54.399784 
L 258.009395 52.849918 
L 258.244407 52.849918 
L 258.254339 50.266808 
L 258.476367 50.266808 
L 258.491071 47.167076 
L 258.710195 47.167076 
L 258.73921 44.067344 
L 258.964875 44.067344 
L 258.988715 42.000855 
L 259.215976 42.000855 
L 259.225382 40.967611 
L 259.449671 40.967611 
L 259.454314 39.934367 
L 259.602253 39.934367 
L 259.689515 37.867879 
L 259.876379 37.867879 
L 259.912614 36.318013 
L 260.141897 36.318013 
L 260.141897 35.801391 
L 260.355038 35.801391 
L 260.355038 34.768147 
L 358.8 34.768147 
L 358.8 34.768147 
" style="fill:none;stroke:#ff00ff;stroke-linecap:square;stroke-width:1.5;"/>
   </g>
   <g id="line2d_47">
    <defs>
     <path d="M -0 8.485281 
L 5.091169 0 
L 0 -8.485281 
L -5.091169 -0 
z
" id="m76d2b493fa" style="stroke:#ff00ff;stroke-linejoin:miter;stroke-width:1.5;"/>
    </defs>
    <g>
     <use style="fill:none;stroke:#ff00ff;stroke-linejoin:miter;stroke-width:1.5;" x="358.8" xlink:href="#m76d2b493fa" y="34.768147"/>
    </g>
   </g>
   <g id="line2d_48"/>
   <g id="line2d_49">
    <defs>
     <path d="M 0 1.5 
C 0.397805 1.5 0.77937 1.341951 1.06066 1.06066 
C 1.341951 0.77937 1.5 0.397805 1.5 0 
C 1.5 -0.397805 1.341951 -0.77937 1.06066 -1.06066 
C 0.77937 -1.341951 0.397805 -1.5 0 -1.5 
C -0.397805 -1.5 -0.77937 -1.341951 -1.06066 -1.06066 
C -1.341951 -0.77937 -1.5 -0.397805 -1.5 0 
C -1.5 0.397805 -1.341951 0.77937 -1.06066 1.06066 
C -0.77937 1.341951 -0.397805 1.5 0 1.5 
z
" id="mded233833e" style="stroke:#ffa500;"/>
    </defs>
    <g>
     <use style="fill:#ffa500;stroke:#ffa500;" x="261.570735" xlink:href="#mded233833e" y="34.768147"/>
     <use style="fill:#ffa500;stroke:#ffa500;" x="261.570735" xlink:href="#mded233833e" y="34.768147"/>
    </g>
   </g>
   <g id="line2d_50">
    <path d="M 154.788728 298.245375 
L 154.788728 297.728753 
L 159.097839 297.728753 
L 159.097839 297.212131 
L 160.330612 297.212131 
L 160.330612 296.178887 
L 161.483794 296.178887 
L 161.483794 294.629021 
L 162.567041 294.629021 
L 162.567041 294.112399 
L 163.588354 294.112399 
L 163.588354 293.079155 
L 166.342737 293.079155 
L 166.342737 292.562533 
L 167.173962 292.562533 
L 167.173962 291.529289 
L 168.728691 291.529289 
L 168.728691 291.012667 
L 169.458103 291.012667 
L 169.458103 289.462801 
L 170.158903 289.462801 
L 170.158903 288.429557 
L 170.833252 288.429557 
L 170.833252 287.396313 
L 172.110089 287.396313 
L 172.110089 286.879691 
L 173.301738 286.879691 
L 173.301738 286.363069 
L 173.869028 286.363069 
L 173.869028 284.813203 
L 174.952275 284.813203 
L 174.952275 284.296581 
L 175.470228 284.296581 
L 175.470228 282.746715 
L 176.463157 282.746715 
L 176.463157 282.230093 
L 177.856183 282.230093 
L 177.856183 281.196849 
L 178.727971 281.196849 
L 178.727971 280.680226 
L 179.148416 280.680226 
L 179.148416 278.613738 
L 179.559196 278.613738 
L 179.559196 278.097116 
L 179.960743 278.097116 
L 179.960743 277.580494 
L 180.353465 277.580494 
L 180.353465 277.063872 
L 181.482353 277.063872 
L 181.482353 274.997384 
L 191.740221 274.997384 
L 191.740221 274.480762 
L 192.146332 274.480762 
L 192.146332 273.96414 
L 193.312057 273.96414 
L 193.312057 273.447518 
L 193.499159 273.447518 
L 193.499159 272.930896 
L 193.867587 272.930896 
L 193.867587 272.414274 
L 199.853646 272.414274 
L 199.853646 271.897652 
L 200.112609 271.897652 
L 200.112609 271.38103 
L 200.61954 271.38103 
L 200.61954 270.864408 
L 201.233625 270.864408 
L 201.233625 270.347786 
L 201.473469 270.347786 
L 201.473469 269.831164 
L 205.22078 269.831164 
L 205.22078 269.314542 
L 211.438682 269.314542 
L 211.438682 267.764676 
L 212.303974 267.764676 
L 212.303974 267.248054 
L 212.942189 267.248054 
L 212.942189 266.731432 
L 213.191226 266.731432 
L 213.191226 265.698188 
L 213.314454 265.698188 
L 213.314454 264.664944 
L 213.436839 264.664944 
L 213.436839 263.6317 
L 213.618859 263.6317 
L 213.618859 263.115078 
L 214.843581 263.115078 
L 214.843581 262.598456 
L 215.067636 262.598456 
L 215.067636 262.081834 
L 215.233852 262.081834 
L 215.288915 261.04859 
L 215.669681 261.04859 
L 215.669681 260.531968 
L 215.830415 260.531968 
L 215.830415 260.015346 
L 216.407702 260.015346 
L 216.407702 258.982102 
L 217.411793 258.982102 
L 217.411793 258.46548 
L 218.316099 258.46548 
L 218.316099 257.948858 
L 219.656836 257.948858 
L 219.656836 257.432236 
L 220.415502 257.432236 
L 220.415502 256.915614 
L 220.742616 256.915614 
L 220.742616 255.88237 
L 220.863756 255.88237 
L 220.863756 254.332504 
L 221.804401 254.332504 
L 221.804401 253.815882 
L 221.994287 253.815882 
L 221.994287 253.29926 
L 222.182176 253.29926 
L 222.182176 252.782638 
L 222.331078 252.782638 
L 222.405066 250.71615 
L 222.734273 250.71615 
L 222.77048 249.682906 
L 224.195127 249.682906 
L 224.195127 249.166284 
L 224.328223 249.166284 
L 224.328223 248.649662 
L 226.82983 248.649662 
L 226.82983 248.13304 
L 227.20061 248.13304 
L 227.20061 247.616418 
L 227.369178 247.616418 
L 227.369178 247.099796 
L 228.792936 247.099796 
L 228.844504 246.066551 
L 229.125495 246.066551 
L 229.125495 245.033307 
L 229.575976 245.033307 
L 229.575976 244.516685 
L 229.723647 244.516685 
L 229.723647 244.000063 
L 230.18338 244.000063 
L 230.231092 242.450197 
L 231.272248 242.450197 
L 231.317142 240.900331 
L 232.04207 240.900331 
L 232.04207 240.383709 
L 232.404346 240.383709 
L 232.404346 238.317221 
L 232.780091 238.317221 
L 232.841954 236.250733 
L 232.944586 236.250733 
L 233.005883 234.184245 
L 233.488835 234.184245 
L 233.488835 233.151001 
L 234.398399 233.151001 
L 234.398399 232.117757 
L 234.52999 232.117757 
L 234.52999 231.601135 
L 235.101376 231.601135 
L 235.101376 230.567891 
L 235.263897 230.567891 
L 235.353552 229.018025 
L 236.05504 229.018025 
L 236.05504 227.984781 
L 236.175018 227.984781 
L 236.243217 224.885049 
L 236.361942 224.885049 
L 236.361942 224.368427 
L 237.977144 224.368427 
L 237.977144 223.851805 
L 238.115598 223.851805 
L 238.115598 222.818561 
L 238.268187 222.818561 
L 238.298549 220.752073 
L 238.464625 220.752073 
L 238.464625 219.202207 
L 238.614275 219.202207 
L 238.614275 218.685585 
L 239.796307 218.685585 
L 239.893681 216.102475 
L 239.949086 216.102475 
L 240.018102 211.969498 
L 240.693981 211.969498 
L 240.693981 211.452876 
L 241.178171 211.452876 
L 241.21686 208.869766 
L 241.332429 208.869766 
L 241.370786 206.286656 
L 241.459967 206.286656 
L 241.472671 205.253412 
L 241.837211 205.253412 
L 241.886914 202.670302 
L 241.948849 202.670302 
L 241.998242 199.053948 
L 242.412664 199.053948 
L 242.412664 198.537326 
L 242.54471 198.537326 
L 242.616326 193.887728 
L 243.121341 193.887728 
L 243.213743 192.337862 
L 243.735974 192.337862 
L 243.769508 188.721508 
L 244.046538 188.721508 
L 244.046538 187.688264 
L 244.232495 187.688264 
L 244.319339 186.138398 
L 244.768472 186.138398 
L 244.831722 185.105154 
L 245.237478 185.105154 
L 245.237478 184.588532 
L 245.360495 184.588532 
L 245.360495 184.07191 
L 245.724544 184.07191 
L 245.834318 178.389067 
L 245.844264 178.389067 
L 245.864139 177.355823 
L 246.20843 177.355823 
L 246.315279 171.672981 
L 246.344309 171.672981 
L 246.363637 170.123115 
L 246.764755 170.123115 
L 246.84955 167.540005 
L 247.166303 167.540005 
L 247.276771 164.440273 
L 247.295116 164.440273 
L 247.304281 163.407029 
L 247.711936 163.407029 
L 247.756663 161.857163 
L 248.162974 161.857163 
L 248.189155 160.307297 
L 248.560252 160.307297 
L 248.602907 158.240809 
L 248.982287 158.240809 
L 249.023947 157.207565 
L 249.402732 157.207565 
L 249.484025 154.107833 
L 249.773654 154.107833 
L 249.861224 149.458235 
L 249.885032 149.458235 
L 249.885032 148.941613 
L 250.011476 148.941613 
L 250.011476 147.908369 
L 250.14485 147.908369 
L 250.253945 140.67566 
L 250.947274 140.67566 
L 250.999509 138.609172 
L 251.243724 138.609172 
L 251.353637 136.026062 
L 251.382833 136.026062 
L 251.382833 134.992818 
L 251.700882 134.992818 
L 251.722363 133.442952 
L 251.985186 133.442952 
L 252.083633 128.793354 
L 252.097653 128.793354 
L 252.097653 128.276732 
L 252.430868 128.276732 
L 252.444618 124.143756 
L 252.656401 124.143756 
L 252.757982 120.01078 
L 252.778229 120.01078 
L 252.852273 116.911048 
L 252.9327 116.911048 
L 253.012766 115.361182 
L 253.065945 115.361182 
L 253.118966 113.294694 
L 253.433831 113.294694 
L 253.440332 111.228206 
L 253.730458 111.228206 
L 253.743243 110.194961 
L 254.041105 110.194961 
L 254.085046 106.578607 
L 254.36497 106.578607 
L 254.389641 103.478875 
L 254.658799 103.478875 
L 254.701249 98.829277 
L 254.947875 98.829277 
L 255.00156 91.079947 
L 255.232349 91.079947 
L 255.279324 89.530081 
L 255.541282 89.530081 
L 255.541282 89.013459 
L 255.844964 89.013459 
L 255.896024 86.430349 
L 256.149157 86.430349 
L 256.199357 84.363861 
L 256.415271 84.363861 
L 256.431773 82.297373 
L 256.699158 82.297373 
L 256.72081 79.714263 
L 256.855542 79.714263 
L 256.951924 77.131153 
L 256.967937 77.131153 
L 256.973272 74.548042 
L 257.20643 74.548042 
L 257.227476 72.481554 
L 257.493663 72.481554 
L 257.493663 71.964932 
L 257.730398 71.964932 
L 257.755942 70.415066 
L 257.913506 70.415066 
L 258.009395 65.248846 
L 258.169738 65.248846 
L 258.249373 63.182358 
L 258.486171 63.182358 
L 258.505764 59.566004 
L 258.676285 59.566004 
L 258.748871 54.916406 
L 258.941003 54.916406 
L 258.98395 51.816674 
L 259.22068 51.816674 
L 259.225382 49.750186 
L 259.412485 49.750186 
L 259.454314 44.583966 
L 259.662005 44.583966 
L 259.689515 41.484233 
L 259.912614 41.484233 
L 259.912614 39.934367 
L 260.070281 39.934367 
L 260.12402 37.867879 
L 260.377095 37.867879 
L 260.377095 37.351257 
L 260.539473 37.351257 
L 260.539473 36.834635 
L 260.803998 36.834635 
L 260.803998 36.318013 
L 261.022192 36.318013 
L 261.128184 35.284769 
L 261.570735 35.284769 
L 261.570735 34.768147 
L 358.8 34.768147 
L 358.8 34.768147 
" style="fill:none;stroke:#ffa500;stroke-linecap:square;stroke-width:1.5;"/>
   </g>
   <g id="line2d_51">
    <defs>
     <path d="M 0 -6 
L -1.347084 -1.854102 
L -5.706339 -1.854102 
L -2.179628 0.708204 
L -3.526712 4.854102 
L -0 2.291796 
L 3.526712 4.854102 
L 2.179628 0.708204 
L 5.706339 -1.854102 
L 1.347084 -1.854102 
z
" id="mcddbc34a5b" style="stroke:#ffa500;stroke-linejoin:bevel;stroke-width:1.5;"/>
    </defs>
    <g>
     <use style="fill:none;stroke:#ffa500;stroke-linejoin:bevel;stroke-width:1.5;" x="358.8" xlink:href="#mcddbc34a5b" y="34.768147"/>
    </g>
   </g>
   <g id="line2d_52"/>
   <g id="line2d_53">
    <defs>
     <path d="M 0 1.5 
C 0.397805 1.5 0.77937 1.341951 1.06066 1.06066 
C 1.341951 0.77937 1.5 0.397805 1.5 0 
C 1.5 -0.397805 1.341951 -0.77937 1.06066 -1.06066 
C 0.77937 -1.341951 0.397805 -1.5 0 -1.5 
C -0.397805 -1.5 -0.77937 -1.341951 -1.06066 -1.06066 
C -1.341951 -0.77937 -1.5 -0.397805 -1.5 0 
C -1.5 0.397805 -1.341951 0.77937 -1.06066 1.06066 
C -0.77937 1.341951 -0.397805 1.5 0 1.5 
z
" id="m97359c8cdc" style="stroke:#6495ed;"/>
    </defs>
    <g>
     <use style="fill:#6495ed;stroke:#6495ed;" x="266.76871" xlink:href="#m97359c8cdc" y="34.768147"/>
     <use style="fill:#6495ed;stroke:#6495ed;" x="266.76871" xlink:href="#m97359c8cdc" y="34.768147"/>
    </g>
   </g>
   <g id="line2d_54">
    <path d="M 160.330612 298.245375 
L 160.330612 297.728753 
L 162.567041 297.728753 
L 162.567041 297.212131 
L 163.588354 297.212131 
L 163.588354 295.662265 
L 165.470948 295.662265 
L 165.470948 295.145643 
L 166.342737 295.145643 
L 166.342737 294.112399 
L 167.968231 294.112399 
L 167.968231 293.595777 
L 168.728691 293.595777 
L 168.728691 292.562533 
L 169.458103 292.562533 
L 169.458103 291.529289 
L 170.158903 291.529289 
L 170.158903 291.012667 
L 170.833252 291.012667 
L 170.833252 290.496045 
L 173.301738 290.496045 
L 173.301738 289.979423 
L 174.952275 289.979423 
L 174.952275 289.462801 
L 175.470228 289.462801 
L 175.470228 288.429557 
L 176.463157 288.429557 
L 176.463157 287.396313 
L 176.939668 287.396313 
L 176.939668 286.879691 
L 177.856183 286.879691 
L 177.856183 286.363069 
L 179.559196 286.363069 
L 179.559196 285.846447 
L 180.353465 285.846447 
L 180.353465 285.329825 
L 180.73774 285.329825 
L 180.73774 283.779959 
L 181.843337 283.779959 
L 181.843337 282.746715 
L 189.558476 282.746715 
L 189.558476 282.230093 
L 192.93187 282.230093 
L 192.93187 281.196849 
L 193.499159 281.196849 
L 193.499159 280.680226 
L 193.684323 280.680226 
L 193.684323 280.163604 
L 206.161424 280.163604 
L 206.161424 279.646982 
L 206.524241 279.646982 
L 206.613806 278.613738 
L 209.945844 278.613738 
L 209.945844 277.580494 
L 210.166896 277.580494 
L 210.166896 276.54725 
L 219.088158 276.54725 
L 219.13255 275.514006 
L 219.221007 275.514006 
L 219.221007 274.480762 
L 219.44025 274.480762 
L 219.44025 273.447518 
L 219.570516 273.447518 
L 219.570516 272.930896 
L 219.69984 272.930896 
L 219.69984 272.414274 
L 219.828234 272.414274 
L 219.870828 270.347786 
L 220.249671 270.347786 
L 220.249671 268.79792 
L 220.497844 268.79792 
L 220.497844 268.281298 
L 220.620649 268.281298 
L 220.702053 267.248054 
L 220.742616 267.248054 
L 220.783088 266.21481 
L 221.02401 266.21481 
L 221.063849 264.664944 
L 221.689493 264.664944 
L 221.727878 263.115078 
L 222.144756 263.115078 
L 222.144756 262.598456 
L 222.697993 262.598456 
L 222.697993 262.081834 
L 224.427399 262.081834 
L 224.427399 261.565212 
L 225.483477 261.565212 
L 225.483477 260.531968 
L 225.791556 260.531968 
L 225.791556 260.015346 
L 226.184277 260.015346 
L 226.184277 259.498724 
L 227.48068 259.498724 
L 227.48068 258.982102 
L 228.767097 258.982102 
L 228.767097 258.46548 
L 232.127975 258.46548 
L 232.127975 257.432236 
L 232.256062 257.432236 
L 232.256062 255.88237 
L 232.425429 255.88237 
L 232.467522 254.332504 
L 232.924107 254.332504 
L 232.924107 253.815882 
L 233.349317 253.815882 
L 233.449084 251.232772 
L 233.46897 251.232772 
L 233.46897 250.71615 
L 233.900968 250.71615 
L 233.900968 250.199528 
L 234.28483 250.199528 
L 234.341705 248.649662 
L 234.771832 248.649662 
L 234.882357 247.099796 
L 235.263897 247.099796 
L 235.263897 246.583173 
L 235.742773 246.583173 
L 235.760265 245.033307 
L 235.986117 245.033307 
L 236.020612 244.000063 
L 236.226192 244.000063 
L 236.328101 242.450197 
L 236.663663 242.450197 
L 236.663663 241.933575 
L 237.155477 241.933575 
L 237.155477 240.900331 
L 237.396399 240.900331 
L 237.428278 239.867087 
L 237.586824 239.867087 
L 237.586824 238.833843 
L 238.023414 238.833843 
L 238.023414 238.317221 
L 238.419484 238.317221 
L 238.449591 236.767355 
L 238.554565 236.767355 
L 238.569511 235.734111 
L 239.614049 235.734111 
L 239.614049 234.700867 
L 240.031873 234.700867 
L 240.114278 233.667623 
L 240.667431 233.667623 
L 240.667431 233.151001 
L 241.191076 233.151001 
L 241.191076 232.117757 
L 241.899318 232.117757 
L 241.998242 230.051269 
L 242.096622 230.051269 
L 242.157835 228.501403 
L 242.303896 228.501403 
L 242.303896 227.984781 
L 242.675787 227.984781 
L 242.675787 227.468159 
L 243.24827 227.468159 
L 243.24827 225.918293 
L 243.702376 225.918293 
L 243.735974 224.885049 
L 244.178003 224.885049 
L 244.27597 222.818561 
L 244.308507 222.818561 
L 244.319339 219.718829 
L 244.988874 219.718829 
L 244.988874 219.202207 
L 245.288838 219.202207 
L 245.360495 217.135719 
L 245.784504 217.135719 
L 245.854204 214.035987 
L 246.237634 214.035987 
L 246.334638 212.48612 
L 246.717472 212.48612 
L 246.717472 211.969498 
L 247.203201 211.969498 
L 247.304281 209.90301 
L 247.577082 209.90301 
L 247.577082 208.869766 
L 247.702978 208.869766 
L 247.756663 207.3199 
L 248.560252 207.3199 
L 248.628451 205.253412 
L 248.957244 205.253412 
L 249.06551 199.053948 
L 249.337431 199.053948 
L 249.443425 193.371106 
L 249.451552 193.371106 
L 249.540711 191.82124 
L 249.845334 191.82124 
L 249.85328 189.754752 
L 250.238401 189.754752 
L 250.315987 187.171642 
L 250.638221 187.171642 
L 250.638221 186.138398 
L 250.992056 186.138398 
L 251.014405 183.555288 
L 251.317074 183.555288 
L 251.375539 179.938934 
L 251.743817 179.938934 
L 251.743817 179.422312 
L 252.041508 179.422312 
L 252.146636 178.389067 
L 252.348145 178.389067 
L 252.410223 176.322579 
L 252.73095 176.322579 
L 252.764734 173.739469 
L 253.118966 173.739469 
L 253.118966 172.189603 
L 253.29676 172.189603 
L 253.394775 169.606493 
L 253.414314 169.606493 
L 253.466313 167.540005 
L 253.672808 167.540005 
L 253.768788 163.923651 
L 254.066227 163.923651 
L 254.066227 163.407029 
L 254.358797 163.407029 
L 254.358797 162.373785 
L 254.543069 162.373785 
L 254.640576 160.823919 
L 254.670938 160.823919 
L 254.670938 160.307297 
L 255.267592 160.307297 
L 255.291048 158.240809 
L 255.52972 158.240809 
L 255.587453 154.107833 
L 255.810843 154.107833 
L 255.907351 148.424991 
L 256.014599 148.424991 
L 256.098817 146.358503 
L 256.132393 146.358503 
L 256.154742 144.808637 
L 256.376709 144.808637 
L 256.431773 142.225526 
L 256.634045 142.225526 
L 256.699158 139.642416 
L 256.941241 139.642416 
L 256.967937 138.609172 
L 257.493663 138.609172 
L 257.493663 136.542684 
L 257.632996 136.542684 
L 257.74062 134.992818 
L 257.745729 134.992818 
L 257.776351 131.376464 
L 257.893253 131.376464 
L 257.989251 128.793354 
L 258.009395 128.793354 
L 258.009395 128.276732 
L 258.204622 128.276732 
L 258.254339 126.210244 
L 258.466558 126.210244 
L 258.505764 123.627134 
L 258.710195 123.627134 
L 258.73921 122.59389 
L 258.974415 122.59389 
L 258.98395 120.01078 
L 259.449671 120.01078 
L 259.449671 118.977536 
L 259.666593 118.977536 
L 259.767233 116.911048 
L 259.899034 116.911048 
L 259.908088 114.84456 
L 260.034365 114.84456 
L 260.141897 108.128473 
L 260.31969 108.128473 
L 260.31969 107.095229 
L 260.55694 107.095229 
L 260.578749 103.478875 
L 260.795387 103.478875 
L 260.795387 102.962253 
L 260.98388 102.962253 
L 261.051933 97.279411 
L 261.216734 97.279411 
L 261.216734 96.762789 
L 261.796112 96.762789 
L 261.836786 94.179679 
L 262.018683 94.179679 
L 262.066877 91.596569 
L 262.178828 91.596569 
L 262.282158 86.946971 
L 262.412453 86.946971 
L 262.412453 86.430349 
L 262.592506 86.430349 
L 262.666349 81.780751 
L 262.813127 81.780751 
L 262.820819 80.230885 
L 263.17111 80.230885 
L 263.208775 77.131153 
L 263.392193 77.131153 
L 263.399639 75.581286 
L 263.544231 75.581286 
L 263.584803 72.481554 
L 263.746175 72.481554 
L 263.76442 70.415066 
L 263.9278 70.415066 
L 263.967511 67.315334 
L 264.118328 67.315334 
L 264.118328 66.28209 
L 264.278517 66.28209 
L 264.299767 64.732224 
L 264.426742 64.732224 
L 264.482887 58.016138 
L 264.643328 58.016138 
L 264.653742 56.466272 
L 264.973592 56.466272 
L 265.00084 53.883162 
L 265.129705 53.883162 
L 265.197158 50.266808 
L 265.297861 50.266808 
L 265.334644 47.683698 
L 265.457816 47.683698 
L 265.500891 43.550722 
L 265.659046 43.550722 
L 265.659046 43.0341 
L 265.819065 43.0341 
L 265.819065 42.517478 
L 265.955093 42.517478 
L 265.993768 38.901123 
L 266.268521 38.901123 
L 266.338133 36.318013 
L 266.460873 36.318013 
L 266.460873 35.801391 
L 266.688376 35.801391 
L 266.76871 34.768147 
L 358.8 34.768147 
L 358.8 34.768147 
" style="fill:none;stroke:#6495ed;stroke-linecap:square;stroke-width:1.5;"/>
   </g>
   <g id="line2d_55">
    <defs>
     <path d="M -0 6 
L 6 -6 
L -6 -6 
z
" id="m5c33f1bcae" style="stroke:#6495ed;stroke-linejoin:miter;stroke-width:1.5;"/>
    </defs>
    <g>
     <use style="fill:none;stroke:#6495ed;stroke-linejoin:miter;stroke-width:1.5;" x="358.8" xlink:href="#m5c33f1bcae" y="34.768147"/>
    </g>
   </g>
   <g id="line2d_56"/>
   <g id="line2d_57">
    <defs>
     <path d="M 0 1.5 
C 0.397805 1.5 0.77937 1.341951 1.06066 1.06066 
C 1.341951 0.77937 1.5 0.397805 1.5 0 
C 1.5 -0.397805 1.341951 -0.77937 1.06066 -1.06066 
C 0.77937 -1.341951 0.397805 -1.5 0 -1.5 
C -0.397805 -1.5 -0.77937 -1.341951 -1.06066 -1.06066 
C -1.341951 -0.77937 -1.5 -0.397805 -1.5 0 
C -1.5 0.397805 -1.341951 0.77937 -1.06066 1.06066 
C -0.77937 1.341951 -0.397805 1.5 0 1.5 
z
" id="m4cf45b4886" style="stroke:#ff0000;"/>
    </defs>
    <g>
     <use style="fill:#ff0000;stroke:#ff0000;" x="202.737979" xlink:href="#m4cf45b4886" y="34.768147"/>
     <use style="fill:#ff0000;stroke:#ff0000;" x="202.737979" xlink:href="#m4cf45b4886" y="34.768147"/>
    </g>
   </g>
   <g id="line2d_58">
    <path d="M 136.713325 298.245375 
L 136.713325 297.728753 
L 140.70048 297.728753 
L 140.70048 294.112399 
L 146.712605 294.112399 
L 146.712605 292.045911 
L 149.098559 292.045911 
L 149.098559 290.496045 
L 151.20312 290.496045 
L 151.20312 289.979423 
L 153.085714 289.979423 
L 153.085714 288.946179 
L 154.788728 288.946179 
L 154.788728 287.912935 
L 157.773669 287.912935 
L 157.773669 286.363069 
L 159.097839 286.363069 
L 159.097839 284.296581 
L 160.330612 284.296581 
L 160.330612 282.230093 
L 162.567041 282.230093 
L 162.567041 281.713471 
L 163.588354 281.713471 
L 163.588354 280.163604 
L 164.554434 280.163604 
L 164.554434 279.646982 
L 166.342737 279.646982 
L 166.342737 277.580494 
L 167.968231 277.580494 
L 167.968231 276.030628 
L 168.728691 276.030628 
L 168.728691 274.480762 
L 169.458103 274.480762 
L 169.458103 272.414274 
L 170.158903 272.414274 
L 170.158903 271.38103 
L 170.833252 271.38103 
L 170.833252 269.831164 
L 172.110089 269.831164 
L 172.110089 265.698188 
L 172.715846 265.698188 
L 172.715846 261.565212 
L 173.301738 261.565212 
L 173.301738 246.583173 
L 173.869028 246.583173 
L 173.869028 245.033307 
L 174.418859 245.033307 
L 174.418859 240.383709 
L 174.952275 240.383709 
L 174.952275 235.217489 
L 175.470228 235.217489 
L 175.470228 232.634379 
L 175.973589 232.634379 
L 175.973589 218.685585 
L 176.463157 218.685585 
L 176.463157 206.286656 
L 176.939668 206.286656 
L 176.939668 204.73679 
L 177.403801 204.73679 
L 177.403801 201.637058 
L 177.856183 201.637058 
L 177.856183 187.171642 
L 178.297393 187.171642 
L 178.297393 185.621776 
L 178.727971 185.621776 
L 178.727971 182.005422 
L 179.148416 182.005422 
L 179.148416 181.4888 
L 179.559196 181.4888 
L 179.559196 173.739469 
L 179.960743 173.739469 
L 179.960743 160.307297 
L 180.353465 160.307297 
L 180.353465 155.657699 
L 180.73774 155.657699 
L 180.73774 145.841881 
L 181.113925 145.841881 
L 181.113925 145.325259 
L 181.482353 145.325259 
L 181.482353 144.292014 
L 181.843337 144.292014 
L 181.843337 130.859842 
L 190.016657 130.859842 
L 190.016657 130.34322 
L 190.463384 130.34322 
L 190.463384 129.826598 
L 190.682627 129.826598 
L 190.682627 128.276732 
L 190.899213 128.276732 
L 190.899213 113.811316 
L 191.113205 113.811316 
L 191.113205 100.895765 
L 191.324664 100.895765 
L 191.324664 99.862521 
L 191.740221 99.862521 
L 191.740221 85.397105 
L 193.312057 85.397105 
L 193.312057 74.548042 
L 199.590875 74.548042 
L 199.590875 73.514798 
L 199.722744 73.514798 
L 199.722744 69.898444 
L 199.853646 69.898444 
L 199.853646 65.765468 
L 200.112609 65.765468 
L 200.112609 58.53276 
L 200.367872 58.53276 
L 200.367872 57.499516 
L 200.744057 57.499516 
L 200.744057 48.716942 
L 201.473469 48.716942 
L 201.473469 48.20032 
L 202.059361 48.20032 
L 202.059361 47.167076 
L 202.288443 47.167076 
L 202.288443 46.650454 
L 202.514625 46.650454 
L 202.514625 45.61721 
L 202.626651 45.61721 
L 202.626651 45.100588 
L 202.737979 45.100588 
L 202.737979 34.768147 
L 358.8 34.768147 
" style="fill:none;stroke:#ff0000;stroke-linecap:square;stroke-width:1.5;"/>
   </g>
   <g id="line2d_59">
    <defs>
     <path d="M 0 -6 
L -5.196152 -3 
L -5.196152 3 
L -0 6 
L 5.196152 3 
L 5.196152 -3 
z
" id="ma6fe4f5f3c" style="stroke:#ff0000;stroke-linejoin:miter;stroke-width:1.5;"/>
    </defs>
    <g>
     <use style="fill:none;stroke:#ff0000;stroke-linejoin:miter;stroke-width:1.5;" x="358.8" xlink:href="#ma6fe4f5f3c" y="34.768147"/>
    </g>
   </g>
   <g id="line2d_60"/>
   <g id="line2d_61">
    <path d="M 358.8 34.768147 
L 390.48 292.97583 
" style="fill:none;stroke:#6495ed;stroke-linecap:square;stroke-width:1.5;"/>
    <g>
     <use style="fill:none;stroke:#6495ed;stroke-linejoin:miter;stroke-width:1.5;" x="358.8" xlink:href="#m5c33f1bcae" y="34.768147"/>
     <use style="fill:none;stroke:#6495ed;stroke-linejoin:miter;stroke-width:1.5;" x="390.48" xlink:href="#m5c33f1bcae" y="292.97583"/>
    </g>
   </g>
   <g id="line2d_62">
    <path d="M 358.8 34.768147 
L 390.48 229.741296 
" style="fill:none;stroke:#ffa500;stroke-linecap:square;stroke-width:1.5;"/>
    <g>
     <use style="fill:none;stroke:#ffa500;stroke-linejoin:bevel;stroke-width:1.5;" x="358.8" xlink:href="#mcddbc34a5b" y="34.768147"/>
     <use style="fill:none;stroke:#ffa500;stroke-linejoin:bevel;stroke-width:1.5;" x="390.48" xlink:href="#mcddbc34a5b" y="229.741296"/>
    </g>
   </g>
   <g id="line2d_63">
    <path d="M 358.8 34.768147 
L 390.48 166.506761 
" style="fill:none;stroke:#ff00ff;stroke-linecap:square;stroke-width:1.5;"/>
    <g>
     <use style="fill:none;stroke:#ff00ff;stroke-linejoin:miter;stroke-width:1.5;" x="358.8" xlink:href="#m76d2b493fa" y="34.768147"/>
     <use style="fill:none;stroke:#ff00ff;stroke-linejoin:miter;stroke-width:1.5;" x="390.48" xlink:href="#m76d2b493fa" y="166.506761"/>
    </g>
   </g>
   <g id="line2d_64">
    <path d="M 358.8 34.768147 
L 390.48 103.272226 
" style="fill:none;stroke:#000080;stroke-linecap:square;stroke-width:1.5;"/>
    <g>
     <use style="fill:none;stroke:#000080;stroke-width:1.5;" x="358.8" xlink:href="#md9876855bd" y="34.768147"/>
     <use style="fill:none;stroke:#000080;stroke-width:1.5;" x="390.48" xlink:href="#md9876855bd" y="103.272226"/>
    </g>
   </g>
   <g id="line2d_65">
    <path d="M 358.8 34.768147 
L 390.48 40.037692 
" style="fill:none;stroke:#ff0000;stroke-linecap:square;stroke-width:1.5;"/>
    <g>
     <use style="fill:none;stroke:#ff0000;stroke-linejoin:miter;stroke-width:1.5;" x="358.8" xlink:href="#ma6fe4f5f3c" y="34.768147"/>
     <use style="fill:none;stroke:#ff0000;stroke-linejoin:miter;stroke-width:1.5;" x="390.48" xlink:href="#ma6fe4f5f3c" y="40.037692"/>
    </g>
   </g>
   <g id="line2d_66">
    <path d="M 358.8 298.245375 
L 358.8 34.768147 
" style="fill:none;stroke:#000000;stroke-linecap:square;stroke-width:1.5;"/>
   </g>
   <g id="patch_3">
    <path d="M 70.8 298.245375 
L 70.8 32.133375 
" style="fill:none;stroke:#000000;stroke-linecap:square;stroke-linejoin:miter;stroke-width:0.8;"/>
   </g>
   <g id="patch_4">
    <path d="M 427.92 298.245375 
L 427.92 32.133375 
" style="fill:none;stroke:#000000;stroke-linecap:square;stroke-linejoin:miter;stroke-width:0.8;"/>
   </g>
   <g id="patch_5">
    <path d="M 70.8 298.245375 
L 427.92 298.245375 
" style="fill:none;stroke:#000000;stroke-linecap:square;stroke-linejoin:miter;stroke-width:0.8;"/>
   </g>
   <g id="patch_6">
    <path d="M 70.8 32.133375 
L 427.92 32.133375 
" style="fill:none;stroke:#000000;stroke-linecap:square;stroke-linejoin:miter;stroke-width:0.8;"/>
   </g>
   <g id="text_14">
    <!-- f4 -->
    <g transform="translate(396.24 297.114893)scale(0.15 -0.15)">
     <use xlink:href="#DejaVuSans-66"/>
     <use x="35.205078" xlink:href="#DejaVuSans-34"/>
    </g>
   </g>
   <g id="text_15">
    <!-- f3 -->
    <defs>
     <path d="M 40.578125 39.3125 
Q 47.65625 37.796875 51.625 33 
Q 55.609375 28.21875 55.609375 21.1875 
Q 55.609375 10.40625 48.1875 4.484375 
Q 40.765625 -1.421875 27.09375 -1.421875 
Q 22.515625 -1.421875 17.65625 -0.515625 
Q 12.796875 0.390625 7.625 2.203125 
L 7.625 11.71875 
Q 11.71875 9.328125 16.59375 8.109375 
Q 21.484375 6.890625 26.8125 6.890625 
Q 36.078125 6.890625 40.9375 10.546875 
Q 45.796875 14.203125 45.796875 21.1875 
Q 45.796875 27.640625 41.28125 31.265625 
Q 36.765625 34.90625 28.71875 34.90625 
L 20.21875 34.90625 
L 20.21875 43.015625 
L 29.109375 43.015625 
Q 36.375 43.015625 40.234375 45.921875 
Q 44.09375 48.828125 44.09375 54.296875 
Q 44.09375 59.90625 40.109375 62.90625 
Q 36.140625 65.921875 28.71875 65.921875 
Q 24.65625 65.921875 20.015625 65.03125 
Q 15.375 64.15625 9.8125 62.3125 
L 9.8125 71.09375 
Q 15.4375 72.65625 20.34375 73.4375 
Q 25.25 74.21875 29.59375 74.21875 
Q 40.828125 74.21875 47.359375 69.109375 
Q 53.90625 64.015625 53.90625 55.328125 
Q 53.90625 49.265625 50.4375 45.09375 
Q 46.96875 40.921875 40.578125 39.3125 
" id="DejaVuSans-33"/>
    </defs>
    <g transform="translate(396.24 233.880358)scale(0.15 -0.15)">
     <use xlink:href="#DejaVuSans-66"/>
     <use x="35.205078" xlink:href="#DejaVuSans-33"/>
    </g>
   </g>
   <g id="text_16">
    <!-- f2 -->
    <g transform="translate(396.24 170.645824)scale(0.15 -0.15)">
     <use xlink:href="#DejaVuSans-66"/>
     <use x="35.205078" xlink:href="#DejaVuSans-32"/>
    </g>
   </g>
   <g id="text_17">
    <!-- f1 -->
    <g transform="translate(396.24 107.411289)scale(0.15 -0.15)">
     <use xlink:href="#DejaVuSans-66"/>
     <use x="35.205078" xlink:href="#DejaVuSans-31"/>
    </g>
   </g>
   <g id="text_18">
    <!-- f5 -->
    <defs>
     <path d="M 10.796875 72.90625 
L 49.515625 72.90625 
L 49.515625 64.59375 
L 19.828125 64.59375 
L 19.828125 46.734375 
Q 21.96875 47.46875 24.109375 47.828125 
Q 26.265625 48.1875 28.421875 48.1875 
Q 40.625 48.1875 47.75 41.5 
Q 54.890625 34.8125 54.890625 23.390625 
Q 54.890625 11.625 47.5625 5.09375 
Q 40.234375 -1.421875 26.90625 -1.421875 
Q 22.3125 -1.421875 17.546875 -0.640625 
Q 12.796875 0.140625 7.71875 1.703125 
L 7.71875 11.625 
Q 12.109375 9.234375 16.796875 8.0625 
Q 21.484375 6.890625 26.703125 6.890625 
Q 35.15625 6.890625 40.078125 11.328125 
Q 45.015625 15.765625 45.015625 23.390625 
Q 45.015625 31 40.078125 35.4375 
Q 35.15625 39.890625 26.703125 39.890625 
Q 22.75 39.890625 18.8125 39.015625 
Q 14.890625 38.140625 10.796875 36.28125 
z
" id="DejaVuSans-35"/>
    </defs>
    <g transform="translate(396.24 44.176754)scale(0.15 -0.15)">
     <use xlink:href="#DejaVuSans-66"/>
     <use x="35.205078" xlink:href="#DejaVuSans-35"/>
    </g>
   </g>
   <g id="text_19">
    <!-- bbob -->
    <defs>
     <path d="M 48.6875 27.296875 
Q 48.6875 37.203125 44.609375 42.84375 
Q 40.53125 48.484375 33.40625 48.484375 
Q 26.265625 48.484375 22.1875 42.84375 
Q 18.109375 37.203125 18.109375 27.296875 
Q 18.109375 17.390625 22.1875 11.75 
Q 26.265625 6.109375 33.40625 6.109375 
Q 40.53125 6.109375 44.609375 11.75 
Q 48.6875 17.390625 48.6875 27.296875 
M 18.109375 46.390625 
Q 20.953125 51.265625 25.265625 53.625 
Q 29.59375 56 35.59375 56 
Q 45.5625 56 51.78125 48.09375 
Q 58.015625 40.1875 58.015625 27.296875 
Q 58.015625 14.40625 51.78125 6.484375 
Q 45.5625 -1.421875 35.59375 -1.421875 
Q 29.59375 -1.421875 25.265625 0.953125 
Q 20.953125 3.328125 18.109375 8.203125 
L 18.109375 0 
L 9.078125 0 
L 9.078125 75.984375 
L 18.109375 75.984375 
z
" id="DejaVuSans-62"/>
    </defs>
    <g transform="translate(74.3712 50.114612)scale(0.1666 -0.1666)">
     <use xlink:href="#DejaVuSans-62"/>
     <use x="63.476562" xlink:href="#DejaVuSans-62"/>
     <use x="126.953125" xlink:href="#DejaVuSans-6f"/>
     <use x="188.134766" xlink:href="#DejaVuSans-62"/>
    </g>
    <!-- Separable functions, 20-D -->
    <defs>
     <path d="M 53.515625 70.515625 
L 53.515625 60.890625 
Q 47.90625 63.578125 42.921875 64.890625 
Q 37.9375 66.21875 33.296875 66.21875 
Q 25.25 66.21875 20.875 63.09375 
Q 16.5 59.96875 16.5 54.203125 
Q 16.5 49.359375 19.40625 46.890625 
Q 22.3125 44.4375 30.421875 42.921875 
L 36.375 41.703125 
Q 47.40625 39.59375 52.65625 34.296875 
Q 57.90625 29 57.90625 20.125 
Q 57.90625 9.515625 50.796875 4.046875 
Q 43.703125 -1.421875 29.984375 -1.421875 
Q 24.8125 -1.421875 18.96875 -0.25 
Q 13.140625 0.921875 6.890625 3.21875 
L 6.890625 13.375 
Q 12.890625 10.015625 18.65625 8.296875 
Q 24.421875 6.59375 29.984375 6.59375 
Q 38.421875 6.59375 43.015625 9.90625 
Q 47.609375 13.234375 47.609375 19.390625 
Q 47.609375 24.75 44.3125 27.78125 
Q 41.015625 30.8125 33.5 32.328125 
L 27.484375 33.5 
Q 16.453125 35.6875 11.515625 40.375 
Q 6.59375 45.0625 6.59375 53.421875 
Q 6.59375 63.09375 13.40625 68.65625 
Q 20.21875 74.21875 32.171875 74.21875 
Q 37.3125 74.21875 42.625 73.28125 
Q 47.953125 72.359375 53.515625 70.515625 
" id="DejaVuSans-53"/>
     <path d="M 11.71875 12.40625 
L 22.015625 12.40625 
L 22.015625 4 
L 14.015625 -11.625 
L 7.71875 -11.625 
L 11.71875 4 
z
" id="DejaVuSans-2c"/>
     <path d="M 19.671875 64.796875 
L 19.671875 8.109375 
L 31.59375 8.109375 
Q 46.6875 8.109375 53.6875 14.9375 
Q 60.6875 21.78125 60.6875 36.53125 
Q 60.6875 51.171875 53.6875 57.984375 
Q 46.6875 64.796875 31.59375 64.796875 
z
M 9.8125 72.90625 
L 30.078125 72.90625 
Q 51.265625 72.90625 61.171875 64.09375 
Q 71.09375 55.28125 71.09375 36.53125 
Q 71.09375 17.671875 61.125 8.828125 
Q 51.171875 0 30.078125 0 
L 9.8125 0 
z
" id="DejaVuSans-44"/>
    </defs>
    <g transform="translate(74.3712 68.770168)scale(0.1666 -0.1666)">
     <use xlink:href="#DejaVuSans-53"/>
     <use x="63.476562" xlink:href="#DejaVuSans-65"/>
     <use x="125" xlink:href="#DejaVuSans-70"/>
     <use x="188.476562" xlink:href="#DejaVuSans-61"/>
     <use x="249.755859" xlink:href="#DejaVuSans-72"/>
     <use x="290.869141" xlink:href="#DejaVuSans-61"/>
     <use x="352.148438" xlink:href="#DejaVuSans-62"/>
     <use x="415.625" xlink:href="#DejaVuSans-6c"/>
     <use x="443.408203" xlink:href="#DejaVuSans-65"/>
     <use x="504.931641" xlink:href="#DejaVuSans-20"/>
     <use x="536.71875" xlink:href="#DejaVuSans-66"/>
     <use x="571.923828" xlink:href="#DejaVuSans-75"/>
     <use x="635.302734" xlink:href="#DejaVuSans-6e"/>
     <use x="698.681641" xlink:href="#DejaVuSans-63"/>
     <use x="753.662109" xlink:href="#DejaVuSans-74"/>
     <use x="792.871094" xlink:href="#DejaVuSans-69"/>
     <use x="820.654297" xlink:href="#DejaVuSans-6f"/>
     <use x="881.835938" xlink:href="#DejaVuSans-6e"/>
     <use x="945.214844" xlink:href="#DejaVuSans-73"/>
     <use x="997.314453" xlink:href="#DejaVuSans-2c"/>
     <use x="1029.101562" xlink:href="#DejaVuSans-20"/>
     <use x="1060.888672" xlink:href="#DejaVuSans-32"/>
     <use x="1124.511719" xlink:href="#DejaVuSans-30"/>
     <use x="1188.134766" xlink:href="#DejaVuSans-2d"/>
     <use x="1224.21875" xlink:href="#DejaVuSans-44"/>
    </g>
    <!-- 51 targets in 100..1e-08 -->
    <g transform="translate(74.3712 87.425723)scale(0.1666 -0.1666)">
     <use xlink:href="#DejaVuSans-35"/>
     <use x="63.623047" xlink:href="#DejaVuSans-31"/>
     <use x="127.246094" xlink:href="#DejaVuSans-20"/>
     <use x="159.033203" xlink:href="#DejaVuSans-74"/>
     <use x="198.242188" xlink:href="#DejaVuSans-61"/>
     <use x="259.521484" xlink:href="#DejaVuSans-72"/>
     <use x="300.619141" xlink:href="#DejaVuSans-67"/>
     <use x="364.095703" xlink:href="#DejaVuSans-65"/>
     <use x="425.619141" xlink:href="#DejaVuSans-74"/>
     <use x="464.828125" xlink:href="#DejaVuSans-73"/>
     <use x="516.927734" xlink:href="#DejaVuSans-20"/>
     <use x="548.714844" xlink:href="#DejaVuSans-69"/>
     <use x="576.498047" xlink:href="#DejaVuSans-6e"/>
     <use x="639.876953" xlink:href="#DejaVuSans-20"/>
     <use x="671.664062" xlink:href="#DejaVuSans-31"/>
     <use x="735.287109" xlink:href="#DejaVuSans-30"/>
     <use x="798.910156" xlink:href="#DejaVuSans-30"/>
     <use x="862.533203" xlink:href="#DejaVuSans-2e"/>
     <use x="894.320312" xlink:href="#DejaVuSans-2e"/>
     <use x="926.107422" xlink:href="#DejaVuSans-31"/>
     <use x="989.730469" xlink:href="#DejaVuSans-65"/>
     <use x="1051.253906" xlink:href="#DejaVuSans-2d"/>
     <use x="1087.337891" xlink:href="#DejaVuSans-30"/>
     <use x="1150.960938" xlink:href="#DejaVuSans-38"/>
    </g>
    <!-- 15 instances -->
    <g transform="translate(74.3712 106.081279)scale(0.1666 -0.1666)">
     <use xlink:href="#DejaVuSans-31"/>
     <use x="63.623047" xlink:href="#DejaVuSans-35"/>
     <use x="127.246094" xlink:href="#DejaVuSans-20"/>
     <use x="159.033203" xlink:href="#DejaVuSans-69"/>
     <use x="186.816406" xlink:href="#DejaVuSans-6e"/>
     <use x="250.195312" xlink:href="#DejaVuSans-73"/>
     <use x="302.294922" xlink:href="#DejaVuSans-74"/>
     <use x="341.503906" xlink:href="#DejaVuSans-61"/>
     <use x="402.783203" xlink:href="#DejaVuSans-6e"/>
     <use x="466.162109" xlink:href="#DejaVuSans-63"/>
     <use x="521.142578" xlink:href="#DejaVuSans-65"/>
     <use x="582.666016" xlink:href="#DejaVuSans-73"/>
    </g>
   </g>
   <g id="text_20">
    <!-- v2.0.1 -->
    <g style="fill:#808080;" transform="translate(233.67875 293.504568)scale(0.1 -0.1)">
     <use xlink:href="#DejaVuSans-76"/>
     <use x="59.179688" xlink:href="#DejaVuSans-32"/>
     <use x="122.802734" xlink:href="#DejaVuSans-2e"/>
     <use x="154.589844" xlink:href="#DejaVuSans-30"/>
     <use x="218.212891" xlink:href="#DejaVuSans-2e"/>
     <use x="250" xlink:href="#DejaVuSans-31"/>
    </g>
   </g>
  </g>
 </g>
 <defs>
  <clipPath id="p79525b4ad3">
   <rect height="266.112" width="357.12" x="70.8" y="32.133375"/>
  </clipPath>
 </defs>
</svg>
