<?xml version="1.0" encoding="utf-8" standalone="no"?>
<!DOCTYPE svg PUBLIC "-//W3C//DTD SVG 1.1//EN"
  "http://www.w3.org/Graphics/SVG/1.1/DTD/svg11.dtd">
<!-- Created with matplotlib (http://matplotlib.org/) -->
<svg height="353pt" version="1.1" viewBox="0 0 438 353" width="438pt" xmlns="http://www.w3.org/2000/svg" xmlns:xlink="http://www.w3.org/1999/xlink">
 <defs>
  <style type="text/css">
*{stroke-linecap:butt;stroke-linejoin:round;}
  </style>
 </defs>
 <g id="figure_1">
  <g id="patch_1">
   <path d="M 0 353.22225 
L 438.62 353.22225 
L 438.62 0 
L 0 0 
z
" style="fill:#ffffff;"/>
  </g>
  <g id="axes_1">
   <g id="patch_2">
    <path d="M 70.8 298.245375 
L 427.92 298.245375 
L 427.92 32.133375 
L 70.8 32.133375 
z
" style="fill:#ffffff;"/>
   </g>
   <g id="matplotlib.axis_1">
    <g id="xtick_1">
     <g id="line2d_1">
      <path clip-path="url(#p82c0e1ab19)" d="M 70.8 298.245375 
L 70.8 32.133375 
" style="fill:none;stroke:#b0b0b0;stroke-linecap:square;stroke-width:0.8;"/>
     </g>
     <g id="line2d_2">
      <defs>
       <path d="M 0 0 
L 0 3.5 
" id="mea04630927" style="stroke:#000000;stroke-width:0.8;"/>
      </defs>
      <g>
       <use style="stroke:#000000;stroke-width:0.8;" x="70.8" xlink:href="#mea04630927" y="298.245375"/>
      </g>
     </g>
     <g id="text_1">
      <!-- 0 -->
      <defs>
       <path d="M 31.78125 66.40625 
Q 24.171875 66.40625 20.328125 58.90625 
Q 16.5 51.421875 16.5 36.375 
Q 16.5 21.390625 20.328125 13.890625 
Q 24.171875 6.390625 31.78125 6.390625 
Q 39.453125 6.390625 43.28125 13.890625 
Q 47.125 21.390625 47.125 36.375 
Q 47.125 51.421875 43.28125 58.90625 
Q 39.453125 66.40625 31.78125 66.40625 
M 31.78125 74.21875 
Q 44.046875 74.21875 50.515625 64.515625 
Q 56.984375 54.828125 56.984375 36.375 
Q 56.984375 17.96875 50.515625 8.265625 
Q 44.046875 -1.421875 31.78125 -1.421875 
Q 19.53125 -1.421875 13.0625 8.265625 
Q 6.59375 17.96875 6.59375 36.375 
Q 6.59375 54.828125 13.0625 64.515625 
Q 19.53125 74.21875 31.78125 74.21875 
" id="DejaVuSans-30"/>
      </defs>
      <g transform="translate(64.4375 320.44225)scale(0.2 -0.2)">
       <use xlink:href="#DejaVuSans-30"/>
      </g>
     </g>
    </g>
    <g id="xtick_2">
     <g id="line2d_3">
      <path clip-path="url(#p82c0e1ab19)" d="M 153.085714 298.245375 
L 153.085714 32.133375 
" style="fill:none;stroke:#b0b0b0;stroke-linecap:square;stroke-width:0.8;"/>
     </g>
     <g id="line2d_4">
      <g>
       <use style="stroke:#000000;stroke-width:0.8;" x="153.085714" xlink:href="#mea04630927" y="298.245375"/>
      </g>
     </g>
     <g id="text_2">
      <!-- 2 -->
      <defs>
       <path d="M 19.1875 8.296875 
L 53.609375 8.296875 
L 53.609375 0 
L 7.328125 0 
L 7.328125 8.296875 
Q 12.9375 14.109375 22.625 23.890625 
Q 32.328125 33.6875 34.8125 36.53125 
Q 39.546875 41.84375 41.421875 45.53125 
Q 43.3125 49.21875 43.3125 52.78125 
Q 43.3125 58.59375 39.234375 62.25 
Q 35.15625 65.921875 28.609375 65.921875 
Q 23.96875 65.921875 18.8125 64.3125 
Q 13.671875 62.703125 7.8125 59.421875 
L 7.8125 69.390625 
Q 13.765625 71.78125 18.9375 73 
Q 24.125 74.21875 28.421875 74.21875 
Q 39.75 74.21875 46.484375 68.546875 
Q 53.21875 62.890625 53.21875 53.421875 
Q 53.21875 48.921875 51.53125 44.890625 
Q 49.859375 40.875 45.40625 35.40625 
Q 44.1875 33.984375 37.640625 27.21875 
Q 31.109375 20.453125 19.1875 8.296875 
" id="DejaVuSans-32"/>
      </defs>
      <g transform="translate(146.723214 320.44225)scale(0.2 -0.2)">
       <use xlink:href="#DejaVuSans-32"/>
      </g>
     </g>
    </g>
    <g id="xtick_3">
     <g id="line2d_5">
      <path clip-path="url(#p82c0e1ab19)" d="M 235.371429 298.245375 
L 235.371429 32.133375 
" style="fill:none;stroke:#b0b0b0;stroke-linecap:square;stroke-width:0.8;"/>
     </g>
     <g id="line2d_6">
      <g>
       <use style="stroke:#000000;stroke-width:0.8;" x="235.371429" xlink:href="#mea04630927" y="298.245375"/>
      </g>
     </g>
     <g id="text_3">
      <!-- 4 -->
      <defs>
       <path d="M 37.796875 64.3125 
L 12.890625 25.390625 
L 37.796875 25.390625 
z
M 35.203125 72.90625 
L 47.609375 72.90625 
L 47.609375 25.390625 
L 58.015625 25.390625 
L 58.015625 17.1875 
L 47.609375 17.1875 
L 47.609375 0 
L 37.796875 0 
L 37.796875 17.1875 
L 4.890625 17.1875 
L 4.890625 26.703125 
z
" id="DejaVuSans-34"/>
      </defs>
      <g transform="translate(229.008929 320.44225)scale(0.2 -0.2)">
       <use xlink:href="#DejaVuSans-34"/>
      </g>
     </g>
    </g>
    <g id="xtick_4">
     <g id="line2d_7">
      <path clip-path="url(#p82c0e1ab19)" d="M 317.657143 298.245375 
L 317.657143 32.133375 
" style="fill:none;stroke:#b0b0b0;stroke-linecap:square;stroke-width:0.8;"/>
     </g>
     <g id="line2d_8">
      <g>
       <use style="stroke:#000000;stroke-width:0.8;" x="317.657143" xlink:href="#mea04630927" y="298.245375"/>
      </g>
     </g>
     <g id="text_4">
      <!-- 6 -->
      <defs>
       <path d="M 33.015625 40.375 
Q 26.375 40.375 22.484375 35.828125 
Q 18.609375 31.296875 18.609375 23.390625 
Q 18.609375 15.53125 22.484375 10.953125 
Q 26.375 6.390625 33.015625 6.390625 
Q 39.65625 6.390625 43.53125 10.953125 
Q 47.40625 15.53125 47.40625 23.390625 
Q 47.40625 31.296875 43.53125 35.828125 
Q 39.65625 40.375 33.015625 40.375 
M 52.59375 71.296875 
L 52.59375 62.3125 
Q 48.875 64.0625 45.09375 64.984375 
Q 41.3125 65.921875 37.59375 65.921875 
Q 27.828125 65.921875 22.671875 59.328125 
Q 17.53125 52.734375 16.796875 39.40625 
Q 19.671875 43.65625 24.015625 45.921875 
Q 28.375 48.1875 33.59375 48.1875 
Q 44.578125 48.1875 50.953125 41.515625 
Q 57.328125 34.859375 57.328125 23.390625 
Q 57.328125 12.15625 50.6875 5.359375 
Q 44.046875 -1.421875 33.015625 -1.421875 
Q 20.359375 -1.421875 13.671875 8.265625 
Q 6.984375 17.96875 6.984375 36.375 
Q 6.984375 53.65625 15.1875 63.9375 
Q 23.390625 74.21875 37.203125 74.21875 
Q 40.921875 74.21875 44.703125 73.484375 
Q 48.484375 72.75 52.59375 71.296875 
" id="DejaVuSans-36"/>
      </defs>
      <g transform="translate(311.294643 320.44225)scale(0.2 -0.2)">
       <use xlink:href="#DejaVuSans-36"/>
      </g>
     </g>
    </g>
    <g id="xtick_5">
     <g id="line2d_9">
      <path clip-path="url(#p82c0e1ab19)" d="M 399.942857 298.245375 
L 399.942857 32.133375 
" style="fill:none;stroke:#b0b0b0;stroke-linecap:square;stroke-width:0.8;"/>
     </g>
     <g id="line2d_10">
      <g>
       <use style="stroke:#000000;stroke-width:0.8;" x="399.942857" xlink:href="#mea04630927" y="298.245375"/>
      </g>
     </g>
     <g id="text_5">
      <!-- 8 -->
      <defs>
       <path d="M 31.78125 34.625 
Q 24.75 34.625 20.71875 30.859375 
Q 16.703125 27.09375 16.703125 20.515625 
Q 16.703125 13.921875 20.71875 10.15625 
Q 24.75 6.390625 31.78125 6.390625 
Q 38.8125 6.390625 42.859375 10.171875 
Q 46.921875 13.96875 46.921875 20.515625 
Q 46.921875 27.09375 42.890625 30.859375 
Q 38.875 34.625 31.78125 34.625 
M 21.921875 38.8125 
Q 15.578125 40.375 12.03125 44.71875 
Q 8.5 49.078125 8.5 55.328125 
Q 8.5 64.0625 14.71875 69.140625 
Q 20.953125 74.21875 31.78125 74.21875 
Q 42.671875 74.21875 48.875 69.140625 
Q 55.078125 64.0625 55.078125 55.328125 
Q 55.078125 49.078125 51.53125 44.71875 
Q 48 40.375 41.703125 38.8125 
Q 48.828125 37.15625 52.796875 32.3125 
Q 56.78125 27.484375 56.78125 20.515625 
Q 56.78125 9.90625 50.3125 4.234375 
Q 43.84375 -1.421875 31.78125 -1.421875 
Q 19.734375 -1.421875 13.25 4.234375 
Q 6.78125 9.90625 6.78125 20.515625 
Q 6.78125 27.484375 10.78125 32.3125 
Q 14.796875 37.15625 21.921875 38.8125 
M 18.3125 54.390625 
Q 18.3125 48.734375 21.84375 45.5625 
Q 25.390625 42.390625 31.78125 42.390625 
Q 38.140625 42.390625 41.71875 45.5625 
Q 45.3125 48.734375 45.3125 54.390625 
Q 45.3125 60.0625 41.71875 63.234375 
Q 38.140625 66.40625 31.78125 66.40625 
Q 25.390625 66.40625 21.84375 63.234375 
Q 18.3125 60.0625 18.3125 54.390625 
" id="DejaVuSans-38"/>
      </defs>
      <g transform="translate(393.580357 320.44225)scale(0.2 -0.2)">
       <use xlink:href="#DejaVuSans-38"/>
      </g>
     </g>
    </g>
    <g id="xtick_6">
     <g id="line2d_11">
      <defs>
       <path d="M 0 0 
L 0 2 
" id="m2b279833eb" style="stroke:#000000;stroke-width:0.6;"/>
      </defs>
      <g>
       <use style="stroke:#000000;stroke-width:0.6;" x="83.185234" xlink:href="#m2b279833eb" y="298.245375"/>
      </g>
     </g>
    </g>
    <g id="xtick_7">
     <g id="line2d_12">
      <g>
       <use style="stroke:#000000;stroke-width:0.6;" x="95.570468" xlink:href="#m2b279833eb" y="298.245375"/>
      </g>
     </g>
    </g>
    <g id="xtick_8">
     <g id="line2d_13">
      <g>
       <use style="stroke:#000000;stroke-width:0.6;" x="102.815366" xlink:href="#m2b279833eb" y="298.245375"/>
      </g>
     </g>
    </g>
    <g id="xtick_9">
     <g id="line2d_14">
      <g>
       <use style="stroke:#000000;stroke-width:0.6;" x="107.955702" xlink:href="#m2b279833eb" y="298.245375"/>
      </g>
     </g>
    </g>
    <g id="xtick_10">
     <g id="line2d_15">
      <g>
       <use style="stroke:#000000;stroke-width:0.6;" x="165.470948" xlink:href="#m2b279833eb" y="298.245375"/>
      </g>
     </g>
    </g>
    <g id="xtick_11">
     <g id="line2d_16">
      <g>
       <use style="stroke:#000000;stroke-width:0.6;" x="177.856183" xlink:href="#m2b279833eb" y="298.245375"/>
      </g>
     </g>
    </g>
    <g id="xtick_12">
     <g id="line2d_17">
      <g>
       <use style="stroke:#000000;stroke-width:0.6;" x="185.10108" xlink:href="#m2b279833eb" y="298.245375"/>
      </g>
     </g>
    </g>
    <g id="xtick_13">
     <g id="line2d_18">
      <g>
       <use style="stroke:#000000;stroke-width:0.6;" x="190.241417" xlink:href="#m2b279833eb" y="298.245375"/>
      </g>
     </g>
    </g>
    <g id="xtick_14">
     <g id="line2d_19">
      <g>
       <use style="stroke:#000000;stroke-width:0.6;" x="247.756663" xlink:href="#m2b279833eb" y="298.245375"/>
      </g>
     </g>
    </g>
    <g id="xtick_15">
     <g id="line2d_20">
      <g>
       <use style="stroke:#000000;stroke-width:0.6;" x="260.141897" xlink:href="#m2b279833eb" y="298.245375"/>
      </g>
     </g>
    </g>
    <g id="xtick_16">
     <g id="line2d_21">
      <g>
       <use style="stroke:#000000;stroke-width:0.6;" x="267.386794" xlink:href="#m2b279833eb" y="298.245375"/>
      </g>
     </g>
    </g>
    <g id="xtick_17">
     <g id="line2d_22">
      <g>
       <use style="stroke:#000000;stroke-width:0.6;" x="272.527131" xlink:href="#m2b279833eb" y="298.245375"/>
      </g>
     </g>
    </g>
    <g id="xtick_18">
     <g id="line2d_23">
      <g>
       <use style="stroke:#000000;stroke-width:0.6;" x="330.042377" xlink:href="#m2b279833eb" y="298.245375"/>
      </g>
     </g>
    </g>
    <g id="xtick_19">
     <g id="line2d_24">
      <g>
       <use style="stroke:#000000;stroke-width:0.6;" x="342.427611" xlink:href="#m2b279833eb" y="298.245375"/>
      </g>
     </g>
    </g>
    <g id="xtick_20">
     <g id="line2d_25">
      <g>
       <use style="stroke:#000000;stroke-width:0.6;" x="349.672509" xlink:href="#m2b279833eb" y="298.245375"/>
      </g>
     </g>
    </g>
    <g id="xtick_21">
     <g id="line2d_26">
      <g>
       <use style="stroke:#000000;stroke-width:0.6;" x="354.812845" xlink:href="#m2b279833eb" y="298.245375"/>
      </g>
     </g>
    </g>
    <g id="xtick_22">
     <g id="line2d_27">
      <g>
       <use style="stroke:#000000;stroke-width:0.6;" x="412.328091" xlink:href="#m2b279833eb" y="298.245375"/>
      </g>
     </g>
    </g>
    <g id="xtick_23">
     <g id="line2d_28">
      <g>
       <use style="stroke:#000000;stroke-width:0.6;" x="424.713325" xlink:href="#m2b279833eb" y="298.245375"/>
      </g>
     </g>
    </g>
    <g id="text_6">
     <!-- log10 of (# f-evals / dimension) -->
     <defs>
      <path d="M 9.421875 75.984375 
L 18.40625 75.984375 
L 18.40625 0 
L 9.421875 0 
z
" id="DejaVuSans-6c"/>
      <path d="M 30.609375 48.390625 
Q 23.390625 48.390625 19.1875 42.75 
Q 14.984375 37.109375 14.984375 27.296875 
Q 14.984375 17.484375 19.15625 11.84375 
Q 23.34375 6.203125 30.609375 6.203125 
Q 37.796875 6.203125 41.984375 11.859375 
Q 46.1875 17.53125 46.1875 27.296875 
Q 46.1875 37.015625 41.984375 42.703125 
Q 37.796875 48.390625 30.609375 48.390625 
M 30.609375 56 
Q 42.328125 56 49.015625 48.375 
Q 55.71875 40.765625 55.71875 27.296875 
Q 55.71875 13.875 49.015625 6.21875 
Q 42.328125 -1.421875 30.609375 -1.421875 
Q 18.84375 -1.421875 12.171875 6.21875 
Q 5.515625 13.875 5.515625 27.296875 
Q 5.515625 40.765625 12.171875 48.375 
Q 18.84375 56 30.609375 56 
" id="DejaVuSans-6f"/>
      <path d="M 45.40625 27.984375 
Q 45.40625 37.75 41.375 43.109375 
Q 37.359375 48.484375 30.078125 48.484375 
Q 22.859375 48.484375 18.828125 43.109375 
Q 14.796875 37.75 14.796875 27.984375 
Q 14.796875 18.265625 18.828125 12.890625 
Q 22.859375 7.515625 30.078125 7.515625 
Q 37.359375 7.515625 41.375 12.890625 
Q 45.40625 18.265625 45.40625 27.984375 
M 54.390625 6.78125 
Q 54.390625 -7.171875 48.1875 -13.984375 
Q 42 -20.796875 29.203125 -20.796875 
Q 24.46875 -20.796875 20.265625 -20.09375 
Q 16.0625 -19.390625 12.109375 -17.921875 
L 12.109375 -9.1875 
Q 16.0625 -11.328125 19.921875 -12.34375 
Q 23.78125 -13.375 27.78125 -13.375 
Q 36.625 -13.375 41.015625 -8.765625 
Q 45.40625 -4.15625 45.40625 5.171875 
L 45.40625 9.625 
Q 42.625 4.78125 38.28125 2.390625 
Q 33.9375 0 27.875 0 
Q 17.828125 0 11.671875 7.65625 
Q 5.515625 15.328125 5.515625 27.984375 
Q 5.515625 40.671875 11.671875 48.328125 
Q 17.828125 56 27.875 56 
Q 33.9375 56 38.28125 53.609375 
Q 42.625 51.21875 45.40625 46.390625 
L 45.40625 54.6875 
L 54.390625 54.6875 
z
" id="DejaVuSans-67"/>
      <path d="M 12.40625 8.296875 
L 28.515625 8.296875 
L 28.515625 63.921875 
L 10.984375 60.40625 
L 10.984375 69.390625 
L 28.421875 72.90625 
L 38.28125 72.90625 
L 38.28125 8.296875 
L 54.390625 8.296875 
L 54.390625 0 
L 12.40625 0 
z
" id="DejaVuSans-31"/>
      <path id="DejaVuSans-20"/>
      <path d="M 37.109375 75.984375 
L 37.109375 68.5 
L 28.515625 68.5 
Q 23.6875 68.5 21.796875 66.546875 
Q 19.921875 64.59375 19.921875 59.515625 
L 19.921875 54.6875 
L 34.71875 54.6875 
L 34.71875 47.703125 
L 19.921875 47.703125 
L 19.921875 0 
L 10.890625 0 
L 10.890625 47.703125 
L 2.296875 47.703125 
L 2.296875 54.6875 
L 10.890625 54.6875 
L 10.890625 58.5 
Q 10.890625 67.625 15.140625 71.796875 
Q 19.390625 75.984375 28.609375 75.984375 
z
" id="DejaVuSans-66"/>
      <path d="M 31 75.875 
Q 24.46875 64.65625 21.28125 53.65625 
Q 18.109375 42.671875 18.109375 31.390625 
Q 18.109375 20.125 21.3125 9.0625 
Q 24.515625 -2 31 -13.1875 
L 23.1875 -13.1875 
Q 15.875 -1.703125 12.234375 9.375 
Q 8.59375 20.453125 8.59375 31.390625 
Q 8.59375 42.28125 12.203125 53.3125 
Q 15.828125 64.359375 23.1875 75.875 
z
" id="DejaVuSans-28"/>
      <path d="M 51.125 44 
L 36.921875 44 
L 32.8125 27.6875 
L 47.125 27.6875 
z
M 43.796875 71.78125 
L 38.71875 51.515625 
L 52.984375 51.515625 
L 58.109375 71.78125 
L 65.921875 71.78125 
L 60.890625 51.515625 
L 76.125 51.515625 
L 76.125 44 
L 58.984375 44 
L 54.984375 27.6875 
L 70.515625 27.6875 
L 70.515625 20.21875 
L 53.078125 20.21875 
L 48 0 
L 40.1875 0 
L 45.21875 20.21875 
L 30.90625 20.21875 
L 25.875 0 
L 18.015625 0 
L 23.09375 20.21875 
L 7.71875 20.21875 
L 7.71875 27.6875 
L 24.90625 27.6875 
L 29 44 
L 13.28125 44 
L 13.28125 51.515625 
L 30.90625 51.515625 
L 35.890625 71.78125 
z
" id="DejaVuSans-23"/>
      <path d="M 4.890625 31.390625 
L 31.203125 31.390625 
L 31.203125 23.390625 
L 4.890625 23.390625 
z
" id="DejaVuSans-2d"/>
      <path d="M 56.203125 29.59375 
L 56.203125 25.203125 
L 14.890625 25.203125 
Q 15.484375 15.921875 20.484375 11.0625 
Q 25.484375 6.203125 34.421875 6.203125 
Q 39.59375 6.203125 44.453125 7.46875 
Q 49.3125 8.734375 54.109375 11.28125 
L 54.109375 2.78125 
Q 49.265625 0.734375 44.1875 -0.34375 
Q 39.109375 -1.421875 33.890625 -1.421875 
Q 20.796875 -1.421875 13.15625 6.1875 
Q 5.515625 13.8125 5.515625 26.8125 
Q 5.515625 40.234375 12.765625 48.109375 
Q 20.015625 56 32.328125 56 
Q 43.359375 56 49.78125 48.890625 
Q 56.203125 41.796875 56.203125 29.59375 
M 47.21875 32.234375 
Q 47.125 39.59375 43.09375 43.984375 
Q 39.0625 48.390625 32.421875 48.390625 
Q 24.90625 48.390625 20.390625 44.140625 
Q 15.875 39.890625 15.1875 32.171875 
z
" id="DejaVuSans-65"/>
      <path d="M 2.984375 54.6875 
L 12.5 54.6875 
L 29.59375 8.796875 
L 46.6875 54.6875 
L 56.203125 54.6875 
L 35.6875 0 
L 23.484375 0 
z
" id="DejaVuSans-76"/>
      <path d="M 34.28125 27.484375 
Q 23.390625 27.484375 19.1875 25 
Q 14.984375 22.515625 14.984375 16.5 
Q 14.984375 11.71875 18.140625 8.90625 
Q 21.296875 6.109375 26.703125 6.109375 
Q 34.1875 6.109375 38.703125 11.40625 
Q 43.21875 16.703125 43.21875 25.484375 
L 43.21875 27.484375 
z
M 52.203125 31.203125 
L 52.203125 0 
L 43.21875 0 
L 43.21875 8.296875 
Q 40.140625 3.328125 35.546875 0.953125 
Q 30.953125 -1.421875 24.3125 -1.421875 
Q 15.921875 -1.421875 10.953125 3.296875 
Q 6 8.015625 6 15.921875 
Q 6 25.140625 12.171875 29.828125 
Q 18.359375 34.515625 30.609375 34.515625 
L 43.21875 34.515625 
L 43.21875 35.40625 
Q 43.21875 41.609375 39.140625 45 
Q 35.0625 48.390625 27.6875 48.390625 
Q 23 48.390625 18.546875 47.265625 
Q 14.109375 46.140625 10.015625 43.890625 
L 10.015625 52.203125 
Q 14.9375 54.109375 19.578125 55.046875 
Q 24.21875 56 28.609375 56 
Q 40.484375 56 46.34375 49.84375 
Q 52.203125 43.703125 52.203125 31.203125 
" id="DejaVuSans-61"/>
      <path d="M 44.28125 53.078125 
L 44.28125 44.578125 
Q 40.484375 46.53125 36.375 47.5 
Q 32.28125 48.484375 27.875 48.484375 
Q 21.1875 48.484375 17.84375 46.4375 
Q 14.5 44.390625 14.5 40.28125 
Q 14.5 37.15625 16.890625 35.375 
Q 19.28125 33.59375 26.515625 31.984375 
L 29.59375 31.296875 
Q 39.15625 29.25 43.1875 25.515625 
Q 47.21875 21.78125 47.21875 15.09375 
Q 47.21875 7.46875 41.1875 3.015625 
Q 35.15625 -1.421875 24.609375 -1.421875 
Q 20.21875 -1.421875 15.453125 -0.5625 
Q 10.6875 0.296875 5.421875 2 
L 5.421875 11.28125 
Q 10.40625 8.6875 15.234375 7.390625 
Q 20.0625 6.109375 24.8125 6.109375 
Q 31.15625 6.109375 34.5625 8.28125 
Q 37.984375 10.453125 37.984375 14.40625 
Q 37.984375 18.0625 35.515625 20.015625 
Q 33.0625 21.96875 24.703125 23.78125 
L 21.578125 24.515625 
Q 13.234375 26.265625 9.515625 29.90625 
Q 5.8125 33.546875 5.8125 39.890625 
Q 5.8125 47.609375 11.28125 51.796875 
Q 16.75 56 26.8125 56 
Q 31.78125 56 36.171875 55.265625 
Q 40.578125 54.546875 44.28125 53.078125 
" id="DejaVuSans-73"/>
      <path d="M 25.390625 72.90625 
L 33.6875 72.90625 
L 8.296875 -9.28125 
L 0 -9.28125 
z
" id="DejaVuSans-2f"/>
      <path d="M 45.40625 46.390625 
L 45.40625 75.984375 
L 54.390625 75.984375 
L 54.390625 0 
L 45.40625 0 
L 45.40625 8.203125 
Q 42.578125 3.328125 38.25 0.953125 
Q 33.9375 -1.421875 27.875 -1.421875 
Q 17.96875 -1.421875 11.734375 6.484375 
Q 5.515625 14.40625 5.515625 27.296875 
Q 5.515625 40.1875 11.734375 48.09375 
Q 17.96875 56 27.875 56 
Q 33.9375 56 38.25 53.625 
Q 42.578125 51.265625 45.40625 46.390625 
M 14.796875 27.296875 
Q 14.796875 17.390625 18.875 11.75 
Q 22.953125 6.109375 30.078125 6.109375 
Q 37.203125 6.109375 41.296875 11.75 
Q 45.40625 17.390625 45.40625 27.296875 
Q 45.40625 37.203125 41.296875 42.84375 
Q 37.203125 48.484375 30.078125 48.484375 
Q 22.953125 48.484375 18.875 42.84375 
Q 14.796875 37.203125 14.796875 27.296875 
" id="DejaVuSans-64"/>
      <path d="M 9.421875 54.6875 
L 18.40625 54.6875 
L 18.40625 0 
L 9.421875 0 
z
M 9.421875 75.984375 
L 18.40625 75.984375 
L 18.40625 64.59375 
L 9.421875 64.59375 
z
" id="DejaVuSans-69"/>
      <path d="M 52 44.1875 
Q 55.375 50.25 60.0625 53.125 
Q 64.75 56 71.09375 56 
Q 79.640625 56 84.28125 50.015625 
Q 88.921875 44.046875 88.921875 33.015625 
L 88.921875 0 
L 79.890625 0 
L 79.890625 32.71875 
Q 79.890625 40.578125 77.09375 44.375 
Q 74.3125 48.1875 68.609375 48.1875 
Q 61.625 48.1875 57.5625 43.546875 
Q 53.515625 38.921875 53.515625 30.90625 
L 53.515625 0 
L 44.484375 0 
L 44.484375 32.71875 
Q 44.484375 40.625 41.703125 44.40625 
Q 38.921875 48.1875 33.109375 48.1875 
Q 26.21875 48.1875 22.15625 43.53125 
Q 18.109375 38.875 18.109375 30.90625 
L 18.109375 0 
L 9.078125 0 
L 9.078125 54.6875 
L 18.109375 54.6875 
L 18.109375 46.1875 
Q 21.1875 51.21875 25.484375 53.609375 
Q 29.78125 56 35.6875 56 
Q 41.65625 56 45.828125 52.96875 
Q 50 49.953125 52 44.1875 
" id="DejaVuSans-6d"/>
      <path d="M 54.890625 33.015625 
L 54.890625 0 
L 45.90625 0 
L 45.90625 32.71875 
Q 45.90625 40.484375 42.875 44.328125 
Q 39.84375 48.1875 33.796875 48.1875 
Q 26.515625 48.1875 22.3125 43.546875 
Q 18.109375 38.921875 18.109375 30.90625 
L 18.109375 0 
L 9.078125 0 
L 9.078125 54.6875 
L 18.109375 54.6875 
L 18.109375 46.1875 
Q 21.34375 51.125 25.703125 53.5625 
Q 30.078125 56 35.796875 56 
Q 45.21875 56 50.046875 50.171875 
Q 54.890625 44.34375 54.890625 33.015625 
" id="DejaVuSans-6e"/>
      <path d="M 8.015625 75.875 
L 15.828125 75.875 
Q 23.140625 64.359375 26.78125 53.3125 
Q 30.421875 42.28125 30.421875 31.390625 
Q 30.421875 20.453125 26.78125 9.375 
Q 23.140625 -1.703125 15.828125 -13.1875 
L 8.015625 -13.1875 
Q 14.5 -2 17.703125 9.0625 
Q 20.90625 20.125 20.90625 31.390625 
Q 20.90625 42.671875 17.703125 53.65625 
Q 14.5 64.65625 8.015625 75.875 
" id="DejaVuSans-29"/>
     </defs>
     <g transform="translate(107.015156 342.278812)scale(0.18 -0.18)">
      <use xlink:href="#DejaVuSans-6c"/>
      <use x="27.783203" xlink:href="#DejaVuSans-6f"/>
      <use x="88.964844" xlink:href="#DejaVuSans-67"/>
      <use x="152.441406" xlink:href="#DejaVuSans-31"/>
      <use x="216.064453" xlink:href="#DejaVuSans-30"/>
      <use x="279.6875" xlink:href="#DejaVuSans-20"/>
      <use x="311.474609" xlink:href="#DejaVuSans-6f"/>
      <use x="372.65625" xlink:href="#DejaVuSans-66"/>
      <use x="407.861328" xlink:href="#DejaVuSans-20"/>
      <use x="439.648438" xlink:href="#DejaVuSans-28"/>
      <use x="478.662109" xlink:href="#DejaVuSans-23"/>
      <use x="562.451172" xlink:href="#DejaVuSans-20"/>
      <use x="594.238281" xlink:href="#DejaVuSans-66"/>
      <use x="629.365234" xlink:href="#DejaVuSans-2d"/>
      <use x="665.449219" xlink:href="#DejaVuSans-65"/>
      <use x="726.972656" xlink:href="#DejaVuSans-76"/>
      <use x="786.152344" xlink:href="#DejaVuSans-61"/>
      <use x="847.431641" xlink:href="#DejaVuSans-6c"/>
      <use x="875.214844" xlink:href="#DejaVuSans-73"/>
      <use x="927.314453" xlink:href="#DejaVuSans-20"/>
      <use x="959.101562" xlink:href="#DejaVuSans-2f"/>
      <use x="992.792969" xlink:href="#DejaVuSans-20"/>
      <use x="1024.580078" xlink:href="#DejaVuSans-64"/>
      <use x="1088.056641" xlink:href="#DejaVuSans-69"/>
      <use x="1115.839844" xlink:href="#DejaVuSans-6d"/>
      <use x="1213.251953" xlink:href="#DejaVuSans-65"/>
      <use x="1274.775391" xlink:href="#DejaVuSans-6e"/>
      <use x="1338.154297" xlink:href="#DejaVuSans-73"/>
      <use x="1390.253906" xlink:href="#DejaVuSans-69"/>
      <use x="1418.037109" xlink:href="#DejaVuSans-6f"/>
      <use x="1479.21875" xlink:href="#DejaVuSans-6e"/>
      <use x="1542.597656" xlink:href="#DejaVuSans-29"/>
     </g>
    </g>
   </g>
   <g id="matplotlib.axis_2">
    <g id="ytick_1">
     <g id="line2d_29">
      <path clip-path="url(#p82c0e1ab19)" d="M 70.8 298.245375 
L 427.92 298.245375 
" style="fill:none;stroke:#b0b0b0;stroke-linecap:square;stroke-width:0.8;"/>
     </g>
     <g id="line2d_30">
      <defs>
       <path d="M 0 0 
L -3.5 0 
" id="mefbc411b72" style="stroke:#000000;stroke-width:0.8;"/>
      </defs>
      <g>
       <use style="stroke:#000000;stroke-width:0.8;" x="70.8" xlink:href="#mefbc411b72" y="298.245375"/>
      </g>
     </g>
     <g id="text_7">
      <!-- 0.0 -->
      <defs>
       <path d="M 10.6875 12.40625 
L 21 12.40625 
L 21 0 
L 10.6875 0 
z
" id="DejaVuSans-2e"/>
      </defs>
      <g transform="translate(31.99375 305.843812)scale(0.2 -0.2)">
       <use xlink:href="#DejaVuSans-30"/>
       <use x="63.623047" xlink:href="#DejaVuSans-2e"/>
       <use x="95.410156" xlink:href="#DejaVuSans-30"/>
      </g>
     </g>
    </g>
    <g id="ytick_2">
     <g id="line2d_31">
      <path clip-path="url(#p82c0e1ab19)" d="M 70.8 245.549929 
L 427.92 245.549929 
" style="fill:none;stroke:#b0b0b0;stroke-linecap:square;stroke-width:0.8;"/>
     </g>
     <g id="line2d_32">
      <g>
       <use style="stroke:#000000;stroke-width:0.8;" x="70.8" xlink:href="#mefbc411b72" y="245.549929"/>
      </g>
     </g>
     <g id="text_8">
      <!-- 0.2 -->
      <g transform="translate(31.99375 253.148367)scale(0.2 -0.2)">
       <use xlink:href="#DejaVuSans-30"/>
       <use x="63.623047" xlink:href="#DejaVuSans-2e"/>
       <use x="95.410156" xlink:href="#DejaVuSans-32"/>
      </g>
     </g>
    </g>
    <g id="ytick_3">
     <g id="line2d_33">
      <path clip-path="url(#p82c0e1ab19)" d="M 70.8 192.854484 
L 427.92 192.854484 
" style="fill:none;stroke:#b0b0b0;stroke-linecap:square;stroke-width:0.8;"/>
     </g>
     <g id="line2d_34">
      <g>
       <use style="stroke:#000000;stroke-width:0.8;" x="70.8" xlink:href="#mefbc411b72" y="192.854484"/>
      </g>
     </g>
     <g id="text_9">
      <!-- 0.4 -->
      <g transform="translate(31.99375 200.452921)scale(0.2 -0.2)">
       <use xlink:href="#DejaVuSans-30"/>
       <use x="63.623047" xlink:href="#DejaVuSans-2e"/>
       <use x="95.410156" xlink:href="#DejaVuSans-34"/>
      </g>
     </g>
    </g>
    <g id="ytick_4">
     <g id="line2d_35">
      <path clip-path="url(#p82c0e1ab19)" d="M 70.8 140.159038 
L 427.92 140.159038 
" style="fill:none;stroke:#b0b0b0;stroke-linecap:square;stroke-width:0.8;"/>
     </g>
     <g id="line2d_36">
      <g>
       <use style="stroke:#000000;stroke-width:0.8;" x="70.8" xlink:href="#mefbc411b72" y="140.159038"/>
      </g>
     </g>
     <g id="text_10">
      <!-- 0.6 -->
      <g transform="translate(31.99375 147.757476)scale(0.2 -0.2)">
       <use xlink:href="#DejaVuSans-30"/>
       <use x="63.623047" xlink:href="#DejaVuSans-2e"/>
       <use x="95.410156" xlink:href="#DejaVuSans-36"/>
      </g>
     </g>
    </g>
    <g id="ytick_5">
     <g id="line2d_37">
      <path clip-path="url(#p82c0e1ab19)" d="M 70.8 87.463593 
L 427.92 87.463593 
" style="fill:none;stroke:#b0b0b0;stroke-linecap:square;stroke-width:0.8;"/>
     </g>
     <g id="line2d_38">
      <g>
       <use style="stroke:#000000;stroke-width:0.8;" x="70.8" xlink:href="#mefbc411b72" y="87.463593"/>
      </g>
     </g>
     <g id="text_11">
      <!-- 0.8 -->
      <g transform="translate(31.99375 95.06203)scale(0.2 -0.2)">
       <use xlink:href="#DejaVuSans-30"/>
       <use x="63.623047" xlink:href="#DejaVuSans-2e"/>
       <use x="95.410156" xlink:href="#DejaVuSans-38"/>
      </g>
     </g>
    </g>
    <g id="ytick_6">
     <g id="line2d_39">
      <path clip-path="url(#p82c0e1ab19)" d="M 70.8 34.768147 
L 427.92 34.768147 
" style="fill:none;stroke:#b0b0b0;stroke-linecap:square;stroke-width:0.8;"/>
     </g>
     <g id="line2d_40">
      <g>
       <use style="stroke:#000000;stroke-width:0.8;" x="70.8" xlink:href="#mefbc411b72" y="34.768147"/>
      </g>
     </g>
     <g id="text_12">
      <!-- 1.0 -->
      <g transform="translate(31.99375 42.366585)scale(0.2 -0.2)">
       <use xlink:href="#DejaVuSans-31"/>
       <use x="63.623047" xlink:href="#DejaVuSans-2e"/>
       <use x="95.410156" xlink:href="#DejaVuSans-30"/>
      </g>
     </g>
    </g>
    <g id="text_13">
     <!-- Proportion of function+target pairs -->
     <defs>
      <path d="M 19.671875 64.796875 
L 19.671875 37.40625 
L 32.078125 37.40625 
Q 38.96875 37.40625 42.71875 40.96875 
Q 46.484375 44.53125 46.484375 51.125 
Q 46.484375 57.671875 42.71875 61.234375 
Q 38.96875 64.796875 32.078125 64.796875 
z
M 9.8125 72.90625 
L 32.078125 72.90625 
Q 44.34375 72.90625 50.609375 67.359375 
Q 56.890625 61.8125 56.890625 51.125 
Q 56.890625 40.328125 50.609375 34.8125 
Q 44.34375 29.296875 32.078125 29.296875 
L 19.671875 29.296875 
L 19.671875 0 
L 9.8125 0 
z
" id="DejaVuSans-50"/>
      <path d="M 41.109375 46.296875 
Q 39.59375 47.171875 37.8125 47.578125 
Q 36.03125 48 33.890625 48 
Q 26.265625 48 22.1875 43.046875 
Q 18.109375 38.09375 18.109375 28.8125 
L 18.109375 0 
L 9.078125 0 
L 9.078125 54.6875 
L 18.109375 54.6875 
L 18.109375 46.1875 
Q 20.953125 51.171875 25.484375 53.578125 
Q 30.03125 56 36.53125 56 
Q 37.453125 56 38.578125 55.875 
Q 39.703125 55.765625 41.0625 55.515625 
z
" id="DejaVuSans-72"/>
      <path d="M 18.109375 8.203125 
L 18.109375 -20.796875 
L 9.078125 -20.796875 
L 9.078125 54.6875 
L 18.109375 54.6875 
L 18.109375 46.390625 
Q 20.953125 51.265625 25.265625 53.625 
Q 29.59375 56 35.59375 56 
Q 45.5625 56 51.78125 48.09375 
Q 58.015625 40.1875 58.015625 27.296875 
Q 58.015625 14.40625 51.78125 6.484375 
Q 45.5625 -1.421875 35.59375 -1.421875 
Q 29.59375 -1.421875 25.265625 0.953125 
Q 20.953125 3.328125 18.109375 8.203125 
M 48.6875 27.296875 
Q 48.6875 37.203125 44.609375 42.84375 
Q 40.53125 48.484375 33.40625 48.484375 
Q 26.265625 48.484375 22.1875 42.84375 
Q 18.109375 37.203125 18.109375 27.296875 
Q 18.109375 17.390625 22.1875 11.75 
Q 26.265625 6.109375 33.40625 6.109375 
Q 40.53125 6.109375 44.609375 11.75 
Q 48.6875 17.390625 48.6875 27.296875 
" id="DejaVuSans-70"/>
      <path d="M 18.3125 70.21875 
L 18.3125 54.6875 
L 36.8125 54.6875 
L 36.8125 47.703125 
L 18.3125 47.703125 
L 18.3125 18.015625 
Q 18.3125 11.328125 20.140625 9.421875 
Q 21.96875 7.515625 27.59375 7.515625 
L 36.8125 7.515625 
L 36.8125 0 
L 27.59375 0 
Q 17.1875 0 13.234375 3.875 
Q 9.28125 7.765625 9.28125 18.015625 
L 9.28125 47.703125 
L 2.6875 47.703125 
L 2.6875 54.6875 
L 9.28125 54.6875 
L 9.28125 70.21875 
z
" id="DejaVuSans-74"/>
      <path d="M 8.5 21.578125 
L 8.5 54.6875 
L 17.484375 54.6875 
L 17.484375 21.921875 
Q 17.484375 14.15625 20.5 10.265625 
Q 23.53125 6.390625 29.59375 6.390625 
Q 36.859375 6.390625 41.078125 11.03125 
Q 45.3125 15.671875 45.3125 23.6875 
L 45.3125 54.6875 
L 54.296875 54.6875 
L 54.296875 0 
L 45.3125 0 
L 45.3125 8.40625 
Q 42.046875 3.421875 37.71875 1 
Q 33.40625 -1.421875 27.6875 -1.421875 
Q 18.265625 -1.421875 13.375 4.4375 
Q 8.5 10.296875 8.5 21.578125 
M 31.109375 56 
z
" id="DejaVuSans-75"/>
      <path d="M 48.78125 52.59375 
L 48.78125 44.1875 
Q 44.96875 46.296875 41.140625 47.34375 
Q 37.3125 48.390625 33.40625 48.390625 
Q 24.65625 48.390625 19.8125 42.84375 
Q 14.984375 37.3125 14.984375 27.296875 
Q 14.984375 17.28125 19.8125 11.734375 
Q 24.65625 6.203125 33.40625 6.203125 
Q 37.3125 6.203125 41.140625 7.25 
Q 44.96875 8.296875 48.78125 10.40625 
L 48.78125 2.09375 
Q 45.015625 0.34375 40.984375 -0.53125 
Q 36.96875 -1.421875 32.421875 -1.421875 
Q 20.0625 -1.421875 12.78125 6.34375 
Q 5.515625 14.109375 5.515625 27.296875 
Q 5.515625 40.671875 12.859375 48.328125 
Q 20.21875 56 33.015625 56 
Q 37.15625 56 41.109375 55.140625 
Q 45.0625 54.296875 48.78125 52.59375 
" id="DejaVuSans-63"/>
      <path d="M 46 62.703125 
L 46 35.5 
L 73.1875 35.5 
L 73.1875 27.203125 
L 46 27.203125 
L 46 0 
L 37.796875 0 
L 37.796875 27.203125 
L 10.59375 27.203125 
L 10.59375 35.5 
L 37.796875 35.5 
L 37.796875 62.703125 
z
" id="DejaVuSans-2b"/>
     </defs>
     <g transform="translate(24.250312 323.17875)rotate(-90)scale(0.18 -0.18)">
      <use xlink:href="#DejaVuSans-50"/>
      <use x="60.287109" xlink:href="#DejaVuSans-72"/>
      <use x="101.369141" xlink:href="#DejaVuSans-6f"/>
      <use x="162.550781" xlink:href="#DejaVuSans-70"/>
      <use x="226.027344" xlink:href="#DejaVuSans-6f"/>
      <use x="287.208984" xlink:href="#DejaVuSans-72"/>
      <use x="328.322266" xlink:href="#DejaVuSans-74"/>
      <use x="367.53125" xlink:href="#DejaVuSans-69"/>
      <use x="395.314453" xlink:href="#DejaVuSans-6f"/>
      <use x="456.496094" xlink:href="#DejaVuSans-6e"/>
      <use x="519.875" xlink:href="#DejaVuSans-20"/>
      <use x="551.662109" xlink:href="#DejaVuSans-6f"/>
      <use x="612.84375" xlink:href="#DejaVuSans-66"/>
      <use x="648.048828" xlink:href="#DejaVuSans-20"/>
      <use x="679.835938" xlink:href="#DejaVuSans-66"/>
      <use x="715.041016" xlink:href="#DejaVuSans-75"/>
      <use x="778.419922" xlink:href="#DejaVuSans-6e"/>
      <use x="841.798828" xlink:href="#DejaVuSans-63"/>
      <use x="896.779297" xlink:href="#DejaVuSans-74"/>
      <use x="935.988281" xlink:href="#DejaVuSans-69"/>
      <use x="963.771484" xlink:href="#DejaVuSans-6f"/>
      <use x="1024.953125" xlink:href="#DejaVuSans-6e"/>
      <use x="1088.332031" xlink:href="#DejaVuSans-2b"/>
      <use x="1172.121094" xlink:href="#DejaVuSans-74"/>
      <use x="1211.330078" xlink:href="#DejaVuSans-61"/>
      <use x="1272.609375" xlink:href="#DejaVuSans-72"/>
      <use x="1313.707031" xlink:href="#DejaVuSans-67"/>
      <use x="1377.183594" xlink:href="#DejaVuSans-65"/>
      <use x="1438.707031" xlink:href="#DejaVuSans-74"/>
      <use x="1477.916016" xlink:href="#DejaVuSans-20"/>
      <use x="1509.703125" xlink:href="#DejaVuSans-70"/>
      <use x="1573.179688" xlink:href="#DejaVuSans-61"/>
      <use x="1634.458984" xlink:href="#DejaVuSans-69"/>
      <use x="1662.242188" xlink:href="#DejaVuSans-72"/>
      <use x="1703.355469" xlink:href="#DejaVuSans-73"/>
     </g>
    </g>
   </g>
   <g id="line2d_41">
    <defs>
     <path d="M 0 1.5 
C 0.397805 1.5 0.77937 1.341951 1.06066 1.06066 
C 1.341951 0.77937 1.5 0.397805 1.5 0 
C 1.5 -0.397805 1.341951 -0.77937 1.06066 -1.06066 
C 0.77937 -1.341951 0.397805 -1.5 0 -1.5 
C -0.397805 -1.5 -0.77937 -1.341951 -1.06066 -1.06066 
C -1.341951 -0.77937 -1.5 -0.397805 -1.5 0 
C -1.5 0.397805 -1.341951 0.77937 -1.06066 1.06066 
C -0.77937 1.341951 -0.397805 1.5 0 1.5 
z
" id="m84ac93e118" style="stroke:#000080;"/>
    </defs>
    <g>
     <use style="fill:#000080;stroke:#000080;" x="347.324406" xlink:href="#m84ac93e118" y="179.422312"/>
     <use style="fill:#000080;stroke:#000080;" x="347.324406" xlink:href="#m84ac93e118" y="179.422312"/>
    </g>
   </g>
   <g id="line2d_42">
    <path d="M 182.996519 298.245375 
L 182.996519 294.112399 
L 188.686687 294.112399 
L 188.686687 292.562533 
L 193.622815 292.562533 
L 193.622815 292.045911 
L 194.228571 292.045911 
L 194.228571 291.529289 
L 194.814464 291.529289 
L 194.814464 290.496045 
L 195.931585 290.496045 
L 195.931585 288.429557 
L 197.486314 288.429557 
L 197.486314 287.396313 
L 197.975882 287.396313 
L 197.975882 286.879691 
L 199.368908 286.879691 
L 199.368908 286.363069 
L 199.810118 286.363069 
L 199.810118 285.329825 
L 201.071921 285.329825 
L 201.071921 284.296581 
L 201.473469 284.296581 
L 201.473469 283.263337 
L 201.866191 283.263337 
L 201.866191 279.646982 
L 202.250466 279.646982 
L 202.250466 279.13036 
L 203.356063 279.13036 
L 203.356063 278.097116 
L 211.071201 278.097116 
L 211.071201 277.063872 
L 211.529383 277.063872 
L 211.529383 276.54725 
L 212.83739 276.54725 
L 212.83739 276.030628 
L 213.046376 276.030628 
L 213.046376 274.997384 
L 213.858703 274.997384 
L 213.858703 273.447518 
L 214.056143 273.447518 
L 214.056143 270.347786 
L 214.6357 270.347786 
L 214.6357 269.831164 
L 214.824782 269.831164 
L 214.824782 266.21481 
L 215.197048 266.21481 
L 215.197048 263.6317 
L 215.561716 263.6317 
L 215.561716 262.081834 
L 215.741297 262.081834 
L 215.741297 258.46548 
L 215.919091 258.46548 
L 215.919091 257.948858 
L 216.095133 257.948858 
L 216.095133 256.398992 
L 216.269457 256.398992 
L 216.269457 255.88237 
L 216.442097 255.88237 
L 216.442097 254.332504 
L 216.782453 254.332504 
L 216.782453 252.266016 
L 218.393283 252.266016 
L 218.393283 251.232772 
L 218.698728 251.232772 
L 218.698728 250.199528 
L 218.849515 250.199528 
L 218.849515 249.682906 
L 218.99904 249.682906 
L 218.99904 248.649662 
L 219.44025 248.649662 
L 219.44025 248.13304 
L 220.012079 248.13304 
L 220.012079 247.099796 
L 220.429252 247.099796 
L 220.429252 246.066551 
L 221.103601 246.066551 
L 221.103601 245.549929 
L 221.235469 245.549929 
L 221.235469 245.033307 
L 221.496322 245.033307 
L 221.496322 244.516685 
L 221.880598 244.516685 
L 221.880598 244.000063 
L 222.380438 244.000063 
L 222.380438 241.416953 
L 222.866675 241.416953 
L 222.866675 238.833843 
L 227.115725 238.833843 
L 227.115725 237.283977 
L 227.856479 237.283977 
L 227.94695 236.250733 
L 232.607117 236.250733 
L 232.607117 235.734111 
L 232.74563 235.734111 
L 232.74563 235.217489 
L 233.488835 235.217489 
L 233.488835 234.700867 
L 237.182407 234.700867 
L 237.182407 234.184245 
L 240.645276 234.184245 
L 240.645276 233.151001 
L 242.496806 233.151001 
L 242.496806 232.634379 
L 243.163751 232.634379 
L 243.163751 231.084513 
L 250.612858 231.084513 
L 250.612858 229.534647 
L 255.740499 229.534647 
L 255.740499 229.018025 
L 258.603404 229.018025 
L 258.603404 228.501403 
L 260.007381 228.501403 
L 260.007381 227.468159 
L 260.55403 227.468159 
L 260.55403 225.918293 
L 265.559264 225.918293 
L 265.559264 224.885049 
L 265.864523 224.885049 
L 265.864523 224.368427 
L 269.125868 224.368427 
L 269.125868 223.335183 
L 270.503352 223.335183 
L 270.503352 221.785317 
L 276.786184 221.785317 
L 276.786184 221.268695 
L 277.071335 221.268695 
L 277.14048 218.685585 
L 277.209358 218.685585 
L 277.317875 217.652341 
L 277.357689 217.652341 
L 277.380401 216.619097 
L 277.633933 216.619097 
L 277.633933 216.102475 
L 278.996024 216.102475 
L 278.996024 215.585853 
L 281.730401 215.585853 
L 281.730401 215.069231 
L 281.854516 215.069231 
L 281.854516 214.552609 
L 284.248751 214.552609 
L 284.248751 214.035987 
L 289.194867 214.035987 
L 289.253355 211.969498 
L 289.326197 211.969498 
L 289.337825 210.419632 
L 291.697243 210.419632 
L 291.768401 209.386388 
L 291.960126 209.386388 
L 291.960126 208.869766 
L 292.491623 208.869766 
L 292.491623 207.836522 
L 293.182022 207.836522 
L 293.182022 206.286656 
L 293.665192 206.286656 
L 293.665192 205.770034 
L 296.355597 205.770034 
L 296.429998 203.186924 
L 296.533254 203.186924 
L 296.593374 202.15368 
L 298.107237 202.15368 
L 298.107237 201.637058 
L 299.458323 201.637058 
L 299.458323 201.120436 
L 301.461073 201.120436 
L 301.50525 198.537326 
L 301.622524 198.537326 
L 301.622524 198.020704 
L 302.776711 198.020704 
L 302.776711 197.504082 
L 303.585446 197.504082 
L 303.585446 196.98746 
L 304.22072 196.98746 
L 304.22072 196.470838 
L 307.333004 196.470838 
L 307.333004 195.954216 
L 308.638513 195.954216 
L 308.647391 194.920972 
L 309.590462 194.920972 
L 309.590462 194.40435 
L 310.074037 194.40435 
L 310.074037 193.371106 
L 311.385 193.371106 
L 311.385 192.854484 
L 312.197102 192.854484 
L 312.197102 192.337862 
L 312.510452 192.337862 
L 312.510452 191.82124 
L 312.780099 191.82124 
L 312.780099 191.304618 
L 313.020277 191.304618 
L 313.020277 190.787996 
L 314.747629 190.787996 
L 314.840611 189.754752 
L 317.793018 189.754752 
L 317.793018 189.23813 
L 318.435661 189.23813 
L 318.435661 188.721508 
L 321.453162 188.721508 
L 321.453162 188.204886 
L 323.720247 188.204886 
L 323.720247 187.688264 
L 324.432954 187.688264 
L 324.432954 187.171642 
L 326.602166 187.171642 
L 326.602166 186.65502 
L 326.835664 186.65502 
L 326.835664 186.138398 
L 327.6537 186.138398 
L 327.6537 185.621776 
L 327.769738 185.621776 
L 327.769738 185.105154 
L 328.596473 185.105154 
L 328.596473 184.588532 
L 328.855174 184.588532 
L 328.855174 184.07191 
L 330.481263 184.07191 
L 330.481263 183.555288 
L 331.777848 183.555288 
L 331.777848 183.038666 
L 335.145599 183.038666 
L 335.145599 182.522044 
L 337.05427 182.522044 
L 337.116315 180.972178 
L 343.177453 180.972178 
L 343.177453 180.455556 
L 344.418381 180.455556 
L 344.418381 179.938934 
L 347.324406 179.938934 
L 347.324406 179.422312 
L 358.8 179.422312 
L 358.8 179.422312 
" style="fill:none;stroke:#000080;stroke-linecap:square;stroke-width:1.5;"/>
   </g>
   <g id="line2d_43">
    <defs>
     <path d="M 0 6 
C 1.591219 6 3.117479 5.367802 4.242641 4.242641 
C 5.367802 3.117479 6 1.591219 6 0 
C 6 -1.591219 5.367802 -3.117479 4.242641 -4.242641 
C 3.117479 -5.367802 1.591219 -6 0 -6 
C -1.591219 -6 -3.117479 -5.367802 -4.242641 -4.242641 
C -5.367802 -3.117479 -6 -1.591219 -6 0 
C -6 1.591219 -5.367802 3.117479 -4.242641 4.242641 
C -3.117479 5.367802 -1.591219 6 0 6 
z
" id="mbc3a08b710" style="stroke:#000080;stroke-width:1.5;"/>
    </defs>
    <g>
     <use style="fill:none;stroke:#000080;stroke-width:1.5;" x="358.8" xlink:href="#mbc3a08b710" y="179.422312"/>
    </g>
   </g>
   <g id="line2d_44"/>
   <g id="line2d_45">
    <path clip-path="url(#p82c0e1ab19)" d="M 276.514286 221.785317 
" style="fill:none;stroke:#000080;stroke-linecap:square;stroke-width:1.5;"/>
    <defs>
     <path d="M -12 12 
L 12 -12 
M -12 -12 
L 12 12 
" id="mf9baab88a0" style="stroke:#000080;stroke-width:3;"/>
    </defs>
    <g clip-path="url(#p82c0e1ab19)">
     <use style="fill:#000080;stroke:#000080;stroke-width:3;" x="276.514286" xlink:href="#mf9baab88a0" y="221.785317"/>
    </g>
   </g>
   <g id="line2d_46">
    <defs>
     <path d="M 0 1.5 
C 0.397805 1.5 0.77937 1.341951 1.06066 1.06066 
C 1.341951 0.77937 1.5 0.397805 1.5 0 
C 1.5 -0.397805 1.341951 -0.77937 1.06066 -1.06066 
C 0.77937 -1.341951 0.397805 -1.5 0 -1.5 
C -0.397805 -1.5 -0.77937 -1.341951 -1.06066 -1.06066 
C -1.341951 -0.77937 -1.5 -0.397805 -1.5 0 
C -1.5 0.397805 -1.341951 0.77937 -1.06066 1.06066 
C -0.77937 1.341951 -0.397805 1.5 0 1.5 
z
" id="md7cca09e07" style="stroke:#ff00ff;"/>
    </defs>
    <g>
     <use style="fill:#ff00ff;stroke:#ff00ff;" x="332.588277" xlink:href="#md7cca09e07" y="174.256091"/>
     <use style="fill:#ff00ff;stroke:#ff00ff;" x="332.588277" xlink:href="#md7cca09e07" y="174.256091"/>
    </g>
   </g>
   <g id="line2d_47">
    <path d="M 51.169868 298.245375 
L 51.169868 286.363069 
L 145.840817 286.363069 
L 145.840817 280.163604 
L 153.085714 280.163604 
L 153.085714 277.063872 
L 162.213206 277.063872 
L 162.213206 276.030628 
L 165.470948 276.030628 
L 165.470948 273.447518 
L 168.225331 273.447518 
L 168.225331 271.38103 
L 172.715846 271.38103 
L 172.715846 270.347786 
L 174.59844 270.347786 
L 174.59844 268.79792 
L 176.301453 268.79792 
L 176.301453 267.764676 
L 177.856183 267.764676 
L 177.856183 267.248054 
L 181.843337 267.248054 
L 181.843337 266.731432 
L 185.10108 266.731432 
L 185.10108 266.21481 
L 186.983674 266.21481 
L 186.983674 265.698188 
L 190.970829 265.698188 
L 190.970829 263.6317 
L 192.995799 263.6317 
L 192.995799 262.598456 
L 197.486314 262.598456 
L 197.486314 261.565212 
L 198.452393 261.565212 
L 198.452393 261.04859 
L 199.810118 261.04859 
L 199.810118 260.531968 
L 200.240696 260.531968 
L 200.240696 260.015346 
L 201.071921 260.015346 
L 201.071921 257.948858 
L 202.250466 257.948858 
L 202.250466 257.432236 
L 202.626651 257.432236 
L 202.626651 256.398992 
L 203.356063 256.398992 
L 203.356063 255.365748 
L 210.361116 255.365748 
L 210.361116 254.332504 
L 211.071201 254.332504 
L 211.071201 253.815882 
L 213.046376 253.815882 
L 213.046376 252.266016 
L 213.858703 252.266016 
L 213.858703 251.232772 
L 214.056143 251.232772 
L 214.056143 250.71615 
L 214.251425 250.71615 
L 214.251425 250.199528 
L 214.444595 250.199528 
L 214.444595 246.066551 
L 214.824782 246.066551 
L 214.824782 245.033307 
L 215.197048 245.033307 
L 215.197048 243.483441 
L 215.380313 243.483441 
L 215.380313 242.966819 
L 215.741297 242.966819 
L 215.741297 238.317221 
L 215.919091 238.317221 
L 215.919091 236.250733 
L 216.095133 236.250733 
L 216.095133 234.700867 
L 216.269457 234.700867 
L 216.269457 233.151001 
L 217.116446 233.151001 
L 217.116446 232.634379 
L 218.546658 232.634379 
L 218.546658 232.117757 
L 219.147324 232.117757 
L 219.147324 231.601135 
L 219.294387 231.601135 
L 219.294387 230.051269 
L 219.44025 230.051269 
L 219.44025 229.534647 
L 219.584932 229.534647 
L 219.584932 228.501403 
L 219.870828 228.501403 
L 219.870828 227.984781 
L 220.429252 227.984781 
L 220.429252 226.434915 
L 220.836907 226.434915 
L 220.836907 225.918293 
L 221.103601 225.918293 
L 221.103601 224.885049 
L 221.235469 224.885049 
L 221.235469 224.368427 
L 221.366372 224.368427 
L 221.366372 223.851805 
L 221.625334 223.851805 
L 221.625334 222.301939 
L 221.880598 222.301939 
L 221.880598 221.268695 
L 222.132265 221.268695 
L 222.132265 219.718829 
L 222.380438 219.718829 
L 222.380438 219.202207 
L 222.503243 219.202207 
L 222.503243 217.135719 
L 222.74635 217.135719 
L 222.74635 216.102475 
L 222.866675 216.102475 
L 222.866675 215.585853 
L 225.535194 215.585853 
L 225.535194 215.069231 
L 226.144393 215.069231 
L 226.144393 214.552609 
L 227.020934 214.552609 
L 227.020934 214.035987 
L 235.010444 214.035987 
L 235.010444 213.519365 
L 241.803999 213.519365 
L 241.803999 213.002743 
L 276.66257 213.002743 
L 276.66257 212.48612 
L 277.054007 212.48612 
L 277.151978 209.386388 
L 277.220812 209.386388 
L 277.277972 206.286656 
L 277.334949 206.286656 
L 277.391746 202.15368 
L 277.516066 202.15368 
L 277.516066 201.120436 
L 278.141334 201.120436 
L 278.190206 200.087192 
L 289.256275 200.087192 
L 289.363958 196.470838 
L 289.450795 196.470838 
L 289.450795 195.437594 
L 296.400666 195.437594 
L 296.431952 192.854484 
L 296.513818 192.854484 
L 296.513818 192.337862 
L 296.687991 192.337862 
L 296.703391 191.304618 
L 301.438944 191.304618 
L 301.50525 187.171642 
L 301.562518 187.171642 
L 301.562518 186.138398 
L 305.434363 186.138398 
L 305.459135 183.038666 
L 308.665133 183.038666 
L 308.676951 181.4888 
L 311.388384 181.4888 
L 311.435693 178.90569 
L 313.777616 178.90569 
L 313.780576 177.872445 
L 317.745076 177.872445 
L 317.745076 177.355823 
L 322.413233 177.355823 
L 322.413233 176.839201 
L 324.959523 176.839201 
L 324.959523 176.322579 
L 326.109117 176.322579 
L 326.109117 175.805957 
L 327.19374 175.805957 
L 327.19374 175.289335 
L 328.218915 175.289335 
L 328.218915 174.772713 
L 332.588277 174.772713 
L 332.588277 174.256091 
L 358.8 174.256091 
L 358.8 174.256091 
" style="fill:none;stroke:#ff00ff;stroke-linecap:square;stroke-width:1.5;"/>
   </g>
   <g id="line2d_48">
    <defs>
     <path d="M -0 8.485281 
L 5.091169 0 
L 0 -8.485281 
L -5.091169 -0 
z
" id="mc34a8d591e" style="stroke:#ff00ff;stroke-linejoin:miter;stroke-width:1.5;"/>
    </defs>
    <g>
     <use style="fill:none;stroke:#ff00ff;stroke-linejoin:miter;stroke-width:1.5;" x="358.8" xlink:href="#mc34a8d591e" y="174.256091"/>
    </g>
   </g>
   <g id="line2d_49"/>
   <g id="line2d_50">
    <path clip-path="url(#p82c0e1ab19)" d="M 276.514286 213.002743 
" style="fill:none;stroke:#ff00ff;stroke-linecap:square;stroke-width:1.5;"/>
    <defs>
     <path d="M -12 12 
L 12 -12 
M -12 -12 
L 12 12 
" id="m622cefa836" style="stroke:#ff00ff;stroke-width:3;"/>
    </defs>
    <g clip-path="url(#p82c0e1ab19)">
     <use style="fill:#ff00ff;stroke:#ff00ff;stroke-width:3;" x="276.514286" xlink:href="#m622cefa836" y="213.002743"/>
    </g>
   </g>
   <g id="line2d_51">
    <defs>
     <path d="M 0 1.5 
C 0.397805 1.5 0.77937 1.341951 1.06066 1.06066 
C 1.341951 0.77937 1.5 0.397805 1.5 0 
C 1.5 -0.397805 1.341951 -0.77937 1.06066 -1.06066 
C 0.77937 -1.341951 0.397805 -1.5 0 -1.5 
C -0.397805 -1.5 -0.77937 -1.341951 -1.06066 -1.06066 
C -1.341951 -0.77937 -1.5 -0.397805 -1.5 0 
C -1.5 0.397805 -1.341951 0.77937 -1.06066 1.06066 
C -0.77937 1.341951 -0.397805 1.5 0 1.5 
z
" id="md6ddf5cd10" style="stroke:#ffa500;"/>
    </defs>
    <g>
     <use style="fill:#ffa500;stroke:#ffa500;" x="345.172674" xlink:href="#md6ddf5cd10" y="143.25877"/>
     <use style="fill:#ffa500;stroke:#ffa500;" x="345.172674" xlink:href="#md6ddf5cd10" y="143.25877"/>
    </g>
   </g>
   <g id="line2d_52">
    <path d="M 162.213206 298.245375 
L 162.213206 297.728753 
L 165.470948 297.728753 
L 165.470948 296.695509 
L 168.225331 296.695509 
L 168.225331 295.662265 
L 170.611285 295.662265 
L 170.611285 294.112399 
L 179.286395 294.112399 
L 179.286395 293.079155 
L 181.843337 293.079155 
L 181.843337 292.562533 
L 192.345978 292.562533 
L 192.345978 291.529289 
L 208.316819 291.529289 
L 208.316819 291.012667 
L 209.111088 291.012667 
L 209.111088 289.462801 
L 209.62164 289.462801 
L 209.62164 288.946179 
L 211.301761 288.946179 
L 211.301761 287.912935 
L 211.529383 287.912935 
L 211.529383 284.813203 
L 211.976109 284.813203 
L 211.976109 283.779959 
L 212.62593 283.779959 
L 212.62593 282.746715 
L 212.83739 282.746715 
L 212.83739 282.230093 
L 213.252946 282.230093 
L 213.252946 281.713471 
L 213.457155 281.713471 
L 213.457155 280.163604 
L 213.659057 280.163604 
L 213.659057 278.097116 
L 213.858703 278.097116 
L 213.858703 277.063872 
L 214.251425 277.063872 
L 214.251425 276.54725 
L 214.444595 276.54725 
L 214.444595 274.997384 
L 214.6357 274.997384 
L 214.6357 273.447518 
L 214.824782 273.447518 
L 214.824782 270.864408 
L 215.197048 270.864408 
L 215.197048 269.831164 
L 215.561716 269.831164 
L 215.561716 269.314542 
L 215.741297 269.314542 
L 215.741297 268.281298 
L 215.919091 268.281298 
L 215.919091 267.248054 
L 216.095133 267.248054 
L 216.095133 265.181566 
L 216.613085 265.181566 
L 216.613085 264.664944 
L 216.95023 264.664944 
L 216.95023 263.115078 
L 218.082525 263.115078 
L 218.082525 262.598456 
L 218.99904 262.598456 
L 218.99904 262.081834 
L 219.294387 262.081834 
L 219.294387 261.565212 
L 219.584932 261.565212 
L 219.584932 260.531968 
L 220.012079 260.531968 
L 220.012079 260.015346 
L 221.235469 260.015346 
L 221.235469 258.982102 
L 221.366372 258.982102 
L 221.366372 257.948858 
L 221.880598 257.948858 
L 221.880598 257.432236 
L 222.256782 257.432236 
L 222.256782 256.398992 
L 222.380438 256.398992 
L 222.380438 254.849126 
L 228.567742 254.849126 
L 228.567742 254.332504 
L 229.083204 254.332504 
L 229.083204 253.29926 
L 229.748141 253.29926 
L 229.748141 252.266016 
L 230.623814 252.266016 
L 230.623814 251.749394 
L 231.008089 251.749394 
L 231.008089 250.199528 
L 232.256062 250.199528 
L 232.256062 249.166284 
L 233.751606 249.166284 
L 233.751606 245.549929 
L 235.131584 245.549929 
L 235.131584 245.033307 
L 235.251909 245.033307 
L 235.251909 244.516685 
L 240.150781 244.516685 
L 240.150781 244.000063 
L 242.214778 244.000063 
L 242.214778 242.966819 
L 248.600066 242.966819 
L 248.600066 242.450197 
L 249.51374 242.450197 
L 249.51374 241.933575 
L 251.5522 241.933575 
L 251.5522 241.416953 
L 251.886194 241.416953 
L 251.886194 239.867087 
L 253.768788 239.867087 
L 253.768788 239.350465 
L 260.814039 239.350465 
L 260.814039 238.833843 
L 262.193437 238.833843 
L 262.193437 237.800599 
L 263.225072 237.800599 
L 263.225072 237.283977 
L 263.449204 237.283977 
L 263.560225 236.250733 
L 263.71938 236.250733 
L 263.71938 235.734111 
L 264.703412 235.734111 
L 264.703412 235.217489 
L 264.978136 235.217489 
L 264.978136 234.700867 
L 265.393562 234.700867 
L 265.393562 233.667623 
L 265.625117 233.667623 
L 265.625117 233.151001 
L 266.5016 233.151001 
L 266.5016 232.634379 
L 267.41655 232.634379 
L 267.41655 232.117757 
L 267.760084 232.117757 
L 267.779516 230.567891 
L 267.895669 230.567891 
L 268.001483 229.018025 
L 268.21125 229.018025 
L 268.230198 227.984781 
L 268.605002 227.984781 
L 268.632798 225.918293 
L 269.482529 225.918293 
L 269.482529 225.401671 
L 270.072978 225.401671 
L 270.072978 224.885049 
L 272.527131 224.885049 
L 272.527131 224.368427 
L 276.591547 224.368427 
L 276.591547 223.851805 
L 277.065561 223.851805 
L 277.14048 218.685585 
L 277.237979 218.685585 
L 277.237979 218.168963 
L 277.357689 218.168963 
L 277.357689 217.135719 
L 277.834201 217.135719 
L 277.861839 215.069231 
L 277.95549 215.069231 
L 277.95549 214.035987 
L 278.075962 214.035987 
L 278.075962 213.002743 
L 278.666432 213.002743 
L 278.666432 212.48612 
L 280.077137 212.48612 
L 280.077137 211.969498 
L 280.971681 211.969498 
L 280.971681 211.452876 
L 281.375498 211.452876 
L 281.375498 210.936254 
L 283.571579 210.936254 
L 283.571579 210.419632 
L 284.513355 210.419632 
L 284.513355 209.90301 
L 284.867639 209.90301 
L 284.923529 208.869766 
L 285.053264 208.869766 
L 285.16372 206.286656 
L 285.233325 206.286656 
L 285.233325 205.253412 
L 285.364467 205.253412 
L 285.407969 203.703546 
L 285.598842 203.703546 
L 285.598842 203.186924 
L 285.967562 203.186924 
L 285.967562 202.670302 
L 286.082988 202.670302 
L 286.089959 201.637058 
L 289.194867 201.637058 
L 289.21536 200.087192 
L 289.499816 200.087192 
L 289.585997 197.504082 
L 289.697414 197.504082 
L 289.697414 196.470838 
L 289.982768 196.470838 
L 289.982768 195.954216 
L 292.149816 195.954216 
L 292.149816 195.437594 
L 293.062109 195.437594 
L 293.104523 194.40435 
L 293.674313 194.40435 
L 293.781138 191.82124 
L 293.78567 191.82124 
L 293.894085 187.688264 
L 293.900839 187.688264 
L 293.900839 187.171642 
L 294.04209 187.171642 
L 294.093381 185.621776 
L 294.60917 185.621776 
L 294.60917 185.105154 
L 294.811388 185.105154 
L 294.811388 184.07191 
L 296.343821 184.07191 
L 296.428044 182.522044 
L 296.726467 182.522044 
L 296.726467 182.005422 
L 297.73881 182.005422 
L 297.73881 181.4888 
L 299.464919 181.4888 
L 299.464919 180.455556 
L 299.61105 180.455556 
L 299.61105 179.938934 
L 300.368239 179.938934 
L 300.412072 178.90569 
L 302.022741 178.90569 
L 302.022741 178.389067 
L 303.831171 178.389067 
L 303.831171 177.872445 
L 303.945723 177.872445 
L 303.955984 176.322579 
L 305.723576 176.322579 
L 305.723576 175.289335 
L 306.24551 175.289335 
L 306.24551 174.772713 
L 307.19983 174.772713 
L 307.19983 174.256091 
L 307.431445 174.256091 
L 307.434612 171.672981 
L 310.266924 171.672981 
L 310.34332 170.639737 
L 312.783229 170.639737 
L 312.861297 168.573249 
L 313.238974 168.573249 
L 313.238974 168.056627 
L 313.953615 168.056627 
L 313.959476 167.023383 
L 315.052029 167.023383 
L 315.052029 166.506761 
L 315.391942 166.506761 
L 315.391942 165.990139 
L 316.871183 165.990139 
L 316.871183 165.473517 
L 317.00388 165.473517 
L 317.013144 162.890407 
L 317.313168 162.890407 
L 317.313168 162.373785 
L 317.720759 162.373785 
L 317.720759 161.857163 
L 318.72076 161.857163 
L 318.775672 159.790675 
L 319.006353 159.790675 
L 319.047727 158.240809 
L 320.375753 158.240809 
L 320.379845 157.207565 
L 320.628701 157.207565 
L 320.628701 156.690943 
L 321.850375 156.690943 
L 321.851788 155.141077 
L 323.111418 155.141077 
L 323.111418 154.624455 
L 323.424249 154.624455 
L 323.424249 154.107833 
L 324.474077 154.107833 
L 324.474077 153.591211 
L 325.652405 153.591211 
L 325.652405 153.074589 
L 326.758528 153.074589 
L 326.758528 152.557967 
L 327.355419 152.557967 
L 327.355419 152.041345 
L 327.803863 152.041345 
L 327.803863 151.524723 
L 328.75848 151.524723 
L 328.786297 150.491479 
L 329.720853 150.491479 
L 329.720853 149.974857 
L 329.871217 149.974857 
L 329.871217 149.458235 
L 331.453336 149.458235 
L 331.453336 148.941613 
L 333.034602 148.941613 
L 333.034602 148.424991 
L 334.482825 148.424991 
L 334.482825 147.908369 
L 335.825434 147.908369 
L 335.827158 146.875125 
L 336.459774 146.875125 
L 336.459774 146.358503 
L 337.072163 146.358503 
L 337.072163 145.841881 
L 338.797029 145.841881 
L 338.88675 144.808637 
L 343.146585 144.808637 
L 343.146585 144.292014 
L 343.984785 144.292014 
L 343.984785 143.775392 
L 345.172674 143.775392 
L 345.172674 143.25877 
L 358.8 143.25877 
L 358.8 143.25877 
" style="fill:none;stroke:#ffa500;stroke-linecap:square;stroke-width:1.5;"/>
   </g>
   <g id="line2d_53">
    <defs>
     <path d="M 0 -6 
L -1.347084 -1.854102 
L -5.706339 -1.854102 
L -2.179628 0.708204 
L -3.526712 4.854102 
L -0 2.291796 
L 3.526712 4.854102 
L 2.179628 0.708204 
L 5.706339 -1.854102 
L 1.347084 -1.854102 
z
" id="mc0f7715093" style="stroke:#ffa500;stroke-linejoin:bevel;stroke-width:1.5;"/>
    </defs>
    <g>
     <use style="fill:none;stroke:#ffa500;stroke-linejoin:bevel;stroke-width:1.5;" x="358.8" xlink:href="#mc0f7715093" y="143.25877"/>
    </g>
   </g>
   <g id="line2d_54"/>
   <g id="line2d_55">
    <path clip-path="url(#p82c0e1ab19)" d="M 276.514286 224.368427 
" style="fill:none;stroke:#ffa500;stroke-linecap:square;stroke-width:1.5;"/>
    <defs>
     <path d="M -12 12 
L 12 -12 
M -12 -12 
L 12 12 
" id="m81c0ba4b07" style="stroke:#ffa500;stroke-width:3;"/>
    </defs>
    <g clip-path="url(#p82c0e1ab19)">
     <use style="fill:#ffa500;stroke:#ffa500;stroke-width:3;" x="276.514286" xlink:href="#m81c0ba4b07" y="224.368427"/>
    </g>
   </g>
   <g id="line2d_56">
    <defs>
     <path d="M 0 1.5 
C 0.397805 1.5 0.77937 1.341951 1.06066 1.06066 
C 1.341951 0.77937 1.5 0.397805 1.5 0 
C 1.5 -0.397805 1.341951 -0.77937 1.06066 -1.06066 
C 0.77937 -1.341951 0.397805 -1.5 0 -1.5 
C -0.397805 -1.5 -0.77937 -1.341951 -1.06066 -1.06066 
C -1.341951 -0.77937 -1.5 -0.397805 -1.5 0 
C -1.5 0.397805 -1.341951 0.77937 -1.06066 1.06066 
C -0.77937 1.341951 -0.397805 1.5 0 1.5 
z
" id="m1b72387088" style="stroke:#6495ed;"/>
    </defs>
    <g>
     <use style="fill:#6495ed;stroke:#6495ed;" x="319.053787" xlink:href="#m1b72387088" y="34.768147"/>
     <use style="fill:#6495ed;stroke:#6495ed;" x="319.053787" xlink:href="#m1b72387088" y="34.768147"/>
    </g>
   </g>
   <g id="line2d_57">
    <path d="M 51.169868 298.245375 
L 51.169868 285.329825 
L 145.840817 285.329825 
L 145.840817 275.514006 
L 158.226051 275.514006 
L 158.226051 274.480762 
L 165.470948 274.480762 
L 165.470948 273.96414 
L 168.225331 273.96414 
L 168.225331 272.930896 
L 170.611285 272.930896 
L 170.611285 270.864408 
L 172.715846 270.864408 
L 172.715846 270.347786 
L 174.59844 270.347786 
L 174.59844 269.314542 
L 181.843337 269.314542 
L 181.843337 268.79792 
L 196.465001 268.79792 
L 196.465001 268.281298 
L 204.056863 268.281298 
L 204.056863 267.764676 
L 207.199698 267.764676 
L 207.199698 266.21481 
L 213.659057 266.21481 
L 213.659057 265.698188 
L 214.056143 265.698188 
L 214.056143 264.664944 
L 216.613085 264.664944 
L 216.613085 263.115078 
L 217.116446 263.115078 
L 217.116446 262.598456 
L 219.147324 262.598456 
L 219.147324 262.081834 
L 219.44025 262.081834 
L 219.44025 261.565212 
L 219.870828 261.565212 
L 219.870828 261.04859 
L 220.566173 261.04859 
L 220.566173 260.531968 
L 220.970752 260.531968 
L 220.970752 260.015346 
L 221.366372 260.015346 
L 221.366372 256.398992 
L 221.496322 256.398992 
L 221.496322 255.365748 
L 221.753422 255.365748 
L 221.753422 254.332504 
L 222.132265 254.332504 
L 222.132265 253.815882 
L 222.866675 253.815882 
L 222.866675 253.29926 
L 228.304325 253.29926 
L 228.392563 250.199528 
L 228.654691 250.199528 
L 228.654691 249.682906 
L 229.335464 249.682906 
L 229.335464 249.166284 
L 229.748141 249.166284 
L 229.748141 248.649662 
L 230.31033 248.649662 
L 230.389218 246.583173 
L 230.623814 246.583173 
L 230.623814 246.066551 
L 231.159515 246.066551 
L 231.159515 244.516685 
L 231.309668 244.516685 
L 231.309668 243.483441 
L 231.532558 243.483441 
L 231.606241 241.933575 
L 231.679621 241.933575 
L 231.679621 240.900331 
L 231.897972 240.900331 
L 231.897972 240.383709 
L 232.04207 240.383709 
L 232.04207 239.867087 
L 232.256062 239.867087 
L 232.256062 238.317221 
L 234.579866 238.317221 
L 234.579866 237.800599 
L 235.010444 237.800599 
L 235.010444 237.283977 
L 235.957321 237.283977 
L 235.957321 235.734111 
L 237.236145 235.734111 
L 237.236145 233.667623 
L 237.396399 233.667623 
L 237.449499 232.117757 
L 237.712657 232.117757 
L 237.712657 231.601135 
L 238.023414 231.601135 
L 238.023414 231.084513 
L 238.529627 231.084513 
L 238.529627 230.051269 
L 239.118739 230.051269 
L 239.118739 229.534647 
L 239.406168 229.534647 
L 239.406168 227.468159 
L 239.64221 227.468159 
L 239.64221 225.918293 
L 240.013509 225.918293 
L 240.013509 225.401671 
L 240.150781 225.401671 
L 240.241713 222.818561 
L 240.287006 222.818561 
L 240.287006 220.752073 
L 242.735052 220.752073 
L 242.735052 218.168963 
L 243.694902 218.168963 
L 243.694902 217.652341 
L 243.843804 217.652341 
L 243.880836 216.619097 
L 243.991475 216.619097 
L 243.991475 215.585853 
L 244.137936 215.585853 
L 244.137936 215.069231 
L 244.319339 215.069231 
L 244.319339 214.035987 
L 244.463148 214.035987 
L 244.57025 211.452876 
L 244.782547 211.452876 
L 244.782547 210.936254 
L 245.02708 210.936254 
L 245.096336 209.386388 
L 245.302509 209.386388 
L 245.370708 207.836522 
L 245.540076 207.836522 
L 245.540076 207.3199 
L 245.674423 207.3199 
L 245.674423 205.770034 
L 245.940125 205.770034 
L 246.005937 204.220168 
L 246.104204 204.220168 
L 246.169416 202.15368 
L 246.26679 202.15368 
L 246.26679 201.120436 
L 246.587591 201.120436 
L 246.587591 200.087192 
L 247.99333 200.087192 
L 247.99333 198.537326 
L 248.168796 198.537326 
L 248.226903 197.504082 
L 248.400101 197.504082 
L 248.400101 196.98746 
L 248.514641 196.98746 
L 248.514641 194.40435 
L 248.825891 194.40435 
L 248.825891 193.887728 
L 248.993406 193.887728 
L 249.048897 188.721508 
L 249.62138 188.721508 
L 249.62138 186.65502 
L 250.889888 186.65502 
L 250.889888 184.07191 
L 251.528103 184.07191 
L 251.528103 183.555288 
L 251.672202 183.555288 
L 251.672202 181.4888 
L 252.87465 181.4888 
L 252.87465 179.938934 
L 253.895963 179.938934 
L 253.895963 178.90569 
L 254.292817 178.90569 
L 254.292817 178.389067 
L 254.579696 178.389067 
L 254.620306 176.322579 
L 254.781827 176.322579 
L 254.882041 174.772713 
L 254.902016 174.772713 
L 254.981696 171.672981 
L 255.218624 171.672981 
L 255.218624 171.156359 
L 255.625837 171.156359 
L 255.625837 170.639737 
L 256.866277 170.639737 
L 256.866277 170.123115 
L 257.23799 170.123115 
L 257.23799 169.089871 
L 257.377585 169.089871 
L 257.377585 168.056627 
L 257.584954 168.056627 
L 257.653546 166.506761 
L 257.92531 166.506761 
L 257.92531 164.956895 
L 258.53837 164.956895 
L 258.53837 164.440273 
L 258.925071 164.440273 
L 258.988715 163.407029 
L 259.0363 163.407029 
L 259.09955 159.274053 
L 259.194007 159.274053 
L 259.272342 158.240809 
L 259.365892 158.240809 
L 259.365892 157.207565 
L 259.52073 157.207565 
L 259.52073 156.174321 
L 259.902053 156.174321 
L 259.902053 155.657699 
L 260.067291 155.657699 
L 260.082237 154.107833 
L 260.378564 154.107833 
L 260.393252 153.074589 
L 261.140861 153.074589 
L 261.140861 152.041345 
L 261.336908 152.041345 
L 261.434131 150.491479 
L 261.503253 150.491479 
L 261.558359 146.358503 
L 262.193437 146.358503 
L 262.272909 143.775392 
L 262.548313 143.775392 
L 262.574322 142.225526 
L 262.677981 142.225526 
L 262.742464 140.159038 
L 262.793883 140.159038 
L 262.870735 138.09255 
L 263.187441 138.09255 
L 263.187441 137.575928 
L 263.436826 137.575928 
L 263.523295 136.026062 
L 264.224095 136.026062 
L 264.259606 134.476196 
L 264.552821 134.476196 
L 264.552821 133.959574 
L 264.691873 133.959574 
L 264.749494 132.409708 
L 265.215102 132.409708 
L 265.282233 130.34322 
L 265.337984 130.34322 
L 265.337984 128.793354 
L 265.832065 128.793354 
L 265.832065 127.243488 
L 266.068732 127.243488 
L 266.068732 126.726866 
L 266.228317 126.726866 
L 266.302306 125.177 
L 266.914039 125.177 
L 267.015678 123.627134 
L 267.217238 123.627134 
L 267.217238 123.110512 
L 267.36693 123.110512 
L 267.436359 121.560646 
L 267.652826 121.560646 
L 267.760084 120.01078 
L 267.779516 120.01078 
L 267.779516 119.494158 
L 268.286922 119.494158 
L 268.286922 118.977536 
L 268.68826 118.977536 
L 268.798671 117.944292 
L 268.817007 117.944292 
L 268.817007 117.42767 
L 269.008404 117.42767 
L 269.09883 116.394426 
L 269.287247 116.394426 
L 269.287247 115.877804 
L 269.53542 115.877804 
L 269.53542 115.361182 
L 270.149683 115.361182 
L 270.149683 114.84456 
L 270.335811 114.84456 
L 270.344225 113.294694 
L 270.486668 113.294694 
L 270.52002 111.744828 
L 270.702349 111.744828 
L 270.702349 111.228206 
L 270.866504 111.228206 
L 270.972402 105.545363 
L 271.166271 105.545363 
L 271.270412 102.962253 
L 271.539945 102.962253 
L 271.539945 102.445631 
L 271.913671 102.445631 
L 271.959841 101.412387 
L 272.028875 101.412387 
L 272.128121 96.762789 
L 272.143341 96.762789 
L 272.143341 96.246167 
L 272.616249 96.246167 
L 272.727025 93.663057 
L 272.815154 93.663057 
L 272.8298 92.629813 
L 273.909172 92.629813 
L 273.909172 91.596569 
L 279.522121 91.596569 
L 279.522121 91.079947 
L 279.900612 91.079947 
L 279.984189 89.013459 
L 281.202241 89.013459 
L 281.202241 88.496837 
L 281.348253 88.496837 
L 281.348253 87.980215 
L 281.61885 87.980215 
L 281.61885 85.913727 
L 281.779263 85.913727 
L 281.832416 84.363861 
L 282.226099 84.363861 
L 282.308113 81.264129 
L 282.351127 81.264129 
L 282.458212 80.230885 
L 282.712627 80.230885 
L 282.712627 79.197641 
L 282.905254 79.197641 
L 282.9427 77.131153 
L 283.054571 77.131153 
L 283.136988 76.097908 
L 283.31698 76.097908 
L 283.361696 75.064664 
L 283.89762 75.064664 
L 283.89762 74.548042 
L 284.050625 74.548042 
L 284.105231 72.998176 
L 284.171316 72.998176 
L 284.171316 72.481554 
L 284.345076 72.481554 
L 284.345076 71.964932 
L 284.736544 71.964932 
L 284.736544 70.931688 
L 284.84897 70.931688 
L 284.84897 69.898444 
L 285.134332 69.898444 
L 285.134332 69.381822 
L 285.415208 69.381822 
L 285.440525 68.348578 
L 285.648923 68.348578 
L 285.720224 65.765468 
L 285.769967 65.765468 
L 285.784153 64.732224 
L 286.173406 64.732224 
L 286.273721 63.182358 
L 286.304739 63.182358 
L 286.332266 61.632492 
L 286.527174 61.632492 
L 286.635671 60.599248 
L 286.793842 60.599248 
L 286.793842 60.082626 
L 287.056589 60.082626 
L 287.106044 58.53276 
L 291.38385 58.53276 
L 291.38385 58.016138 
L 291.625801 58.016138 
L 291.63347 56.982894 
L 291.755715 56.982894 
L 291.755715 55.94965 
L 291.987706 55.94965 
L 291.987706 55.433028 
L 292.347338 55.433028 
L 292.398827 54.399784 
L 292.622668 54.399784 
L 292.642001 52.849918 
L 293.10923 52.849918 
L 293.10923 52.333296 
L 293.315097 52.333296 
L 293.315097 51.816674 
L 293.458728 51.816674 
L 293.479482 50.266808 
L 293.896337 50.266808 
L 293.91434 48.20032 
L 294.088926 48.20032 
L 294.088926 47.683698 
L 294.457081 47.683698 
L 294.457081 46.650454 
L 294.574521 46.650454 
L 294.574521 46.133832 
L 297.345927 46.133832 
L 297.345927 45.61721 
L 298.280716 45.61721 
L 298.280716 45.100588 
L 298.634793 45.100588 
L 298.7175 43.550722 
L 299.374012 43.550722 
L 299.374012 42.000855 
L 299.788407 42.000855 
L 299.788407 41.484233 
L 300.020045 41.484233 
L 300.04879 40.450989 
L 302.621257 40.450989 
L 302.621257 39.934367 
L 302.895481 39.934367 
L 302.952538 38.901123 
L 303.121278 38.901123 
L 303.192346 37.867879 
L 303.253799 37.867879 
L 303.253799 37.351257 
L 303.628594 37.351257 
L 303.628594 36.834635 
L 309.629708 36.834635 
L 309.629708 36.318013 
L 312.220532 36.318013 
L 312.220532 35.801391 
L 316.95253 35.801391 
L 316.95253 35.284769 
L 319.053787 35.284769 
L 319.053787 34.768147 
L 358.8 34.768147 
L 358.8 34.768147 
" style="fill:none;stroke:#6495ed;stroke-linecap:square;stroke-width:1.5;"/>
   </g>
   <g id="line2d_58">
    <defs>
     <path d="M -0 6 
L 6 -6 
L -6 -6 
z
" id="md5d7ae6b4b" style="stroke:#6495ed;stroke-linejoin:miter;stroke-width:1.5;"/>
    </defs>
    <g>
     <use style="fill:none;stroke:#6495ed;stroke-linejoin:miter;stroke-width:1.5;" x="358.8" xlink:href="#md5d7ae6b4b" y="34.768147"/>
    </g>
   </g>
   <g id="line2d_59"/>
   <g id="line2d_60">
    <path clip-path="url(#p82c0e1ab19)" d="M 276.514286 91.596569 
" style="fill:none;stroke:#6495ed;stroke-linecap:square;stroke-width:1.5;"/>
    <defs>
     <path d="M -12 12 
L 12 -12 
M -12 -12 
L 12 12 
" id="m38d1837b3d" style="stroke:#6495ed;stroke-width:3;"/>
    </defs>
    <g clip-path="url(#p82c0e1ab19)">
     <use style="fill:#6495ed;stroke:#6495ed;stroke-width:3;" x="276.514286" xlink:href="#m38d1837b3d" y="91.596569"/>
    </g>
   </g>
   <g id="line2d_61">
    <defs>
     <path d="M 0 1.5 
C 0.397805 1.5 0.77937 1.341951 1.06066 1.06066 
C 1.341951 0.77937 1.5 0.397805 1.5 0 
C 1.5 -0.397805 1.341951 -0.77937 1.06066 -1.06066 
C 0.77937 -1.341951 0.397805 -1.5 0 -1.5 
C -0.397805 -1.5 -0.77937 -1.341951 -1.06066 -1.06066 
C -1.341951 -0.77937 -1.5 -0.397805 -1.5 0 
C -1.5 0.397805 -1.341951 0.77937 -1.06066 1.06066 
C -0.77937 1.341951 -0.397805 1.5 0 1.5 
z
" id="m3377a3bda5" style="stroke:#ff0000;"/>
    </defs>
    <g>
     <use style="fill:#ff0000;stroke:#ff0000;" x="339.837651" xlink:href="#m3377a3bda5" y="34.768147"/>
     <use style="fill:#ff0000;stroke:#ff0000;" x="339.837651" xlink:href="#m3377a3bda5" y="34.768147"/>
    </g>
   </g>
   <g id="line2d_62">
    <path d="M 51.169868 298.245375 
L 51.169868 237.283977 
L 145.840817 237.283977 
L 145.840817 229.018025 
L 153.085714 229.018025 
L 153.085714 221.785317 
L 158.226051 221.785317 
L 158.226051 216.619097 
L 162.213206 216.619097 
L 162.213206 213.519365 
L 165.470948 213.519365 
L 165.470948 208.869766 
L 170.611285 208.869766 
L 170.611285 205.253412 
L 172.715846 205.253412 
L 172.715846 204.73679 
L 176.301453 204.73679 
L 176.301453 203.703546 
L 177.856183 203.703546 
L 177.856183 202.670302 
L 179.286395 202.670302 
L 179.286395 202.15368 
L 180.610565 202.15368 
L 180.610565 200.603814 
L 182.996519 200.603814 
L 182.996519 200.087192 
L 184.079767 200.087192 
L 184.079767 198.537326 
L 185.10108 198.537326 
L 185.10108 196.98746 
L 186.067159 196.98746 
L 186.067159 196.470838 
L 188.686687 196.470838 
L 188.686687 195.954216 
L 189.480956 195.954216 
L 189.480956 195.437594 
L 190.241417 195.437594 
L 190.241417 194.920972 
L 190.970829 194.920972 
L 190.970829 194.40435 
L 193.622815 194.40435 
L 193.622815 193.887728 
L 195.931585 193.887728 
L 195.931585 193.371106 
L 196.465001 193.371106 
L 196.465001 192.854484 
L 197.975882 192.854484 
L 197.975882 192.337862 
L 200.661142 192.337862 
L 200.661142 191.82124 
L 202.626651 191.82124 
L 202.626651 190.787996 
L 211.754142 190.787996 
L 211.754142 189.754752 
L 212.195353 189.754752 
L 212.195353 188.204886 
L 212.411938 188.204886 
L 212.411938 187.688264 
L 212.62593 187.688264 
L 212.62593 184.588532 
L 212.83739 184.588532 
L 212.83739 184.07191 
L 213.046376 184.07191 
L 213.046376 180.972178 
L 213.252946 180.972178 
L 213.252946 179.422312 
L 213.457155 179.422312 
L 213.457155 177.872445 
L 213.659057 177.872445 
L 213.659057 177.355823 
L 213.858703 177.355823 
L 213.858703 173.222847 
L 214.251425 173.222847 
L 214.251425 170.639737 
L 214.444595 170.639737 
L 214.444595 170.123115 
L 214.6357 170.123115 
L 214.6357 168.056627 
L 214.824782 168.056627 
L 214.824782 165.473517 
L 215.011885 165.473517 
L 215.011885 162.890407 
L 215.197048 162.890407 
L 215.197048 162.373785 
L 215.380313 162.373785 
L 215.380313 159.790675 
L 215.561716 159.790675 
L 215.561716 158.757431 
L 215.919091 158.757431 
L 215.919091 158.240809 
L 216.095133 158.240809 
L 216.095133 154.107833 
L 216.269457 154.107833 
L 216.269457 148.941613 
L 216.442097 148.941613 
L 216.442097 147.908369 
L 216.613085 147.908369 
L 216.613085 146.875125 
L 216.782453 146.875125 
L 216.782453 146.358503 
L 216.95023 146.358503 
L 216.95023 143.775392 
L 217.44431 143.775392 
L 217.44431 142.225526 
L 217.925096 142.225526 
L 217.925096 141.708904 
L 219.44025 141.708904 
L 219.44025 141.192282 
L 220.429252 141.192282 
L 220.429252 140.67566 
L 220.970752 140.67566 
L 220.970752 139.642416 
L 221.103601 139.642416 
L 221.103601 139.125794 
L 221.235469 139.125794 
L 221.235469 138.609172 
L 221.366372 138.609172 
L 221.366372 137.059306 
L 221.496322 137.059306 
L 221.496322 136.026062 
L 221.753422 136.026062 
L 221.753422 133.442952 
L 221.880598 133.442952 
L 221.880598 132.92633 
L 222.006875 132.92633 
L 222.006875 132.409708 
L 222.256782 132.409708 
L 222.256782 131.893086 
L 222.380438 131.893086 
L 222.380438 130.859842 
L 222.503243 130.859842 
L 222.503243 130.34322 
L 222.62521 130.34322 
L 222.62521 129.309976 
L 223.222862 129.309976 
L 223.222862 128.276732 
L 225.327423 128.276732 
L 225.327423 127.76011 
L 225.535194 127.76011 
L 225.535194 127.243488 
L 225.740577 127.243488 
L 225.740577 126.210244 
L 226.539285 126.210244 
L 226.539285 125.177 
L 226.925637 125.177 
L 226.925637 123.627134 
L 228.036966 123.627134 
L 228.036966 122.59389 
L 228.91303 122.59389 
L 228.91303 121.044024 
L 230.623814 121.044024 
L 230.623814 120.527402 
L 231.752702 120.527402 
L 231.752702 120.01078 
L 232.951407 120.01078 
L 233.019476 118.977536 
L 234.074727 118.977536 
L 234.074727 117.944292 
L 234.265832 117.944292 
L 234.265832 117.42767 
L 234.454914 117.42767 
L 234.454914 116.911048 
L 234.642016 116.911048 
L 234.703951 115.361182 
L 234.765672 115.361182 
L 234.82718 114.327938 
L 234.949565 114.327938 
L 234.949565 113.811316 
L 235.131584 113.811316 
L 235.131584 112.26145 
L 235.371429 112.26145 
L 235.371429 111.744828 
L 235.841669 111.744828 
L 235.841669 110.711584 
L 236.412584 110.711584 
L 236.412584 110.194961 
L 236.911262 110.194961 
L 236.965821 108.645095 
L 237.396399 108.645095 
L 237.502441 106.578607 
L 237.712657 106.578607 
L 237.712657 105.545363 
L 237.920428 105.545363 
L 237.920428 103.995497 
L 238.278313 103.995497 
L 238.278313 102.445631 
L 238.629171 102.445631 
L 238.629171 101.929009 
L 239.215064 101.929009 
L 239.215064 99.862521 
L 240.600883 99.862521 
L 240.600883 99.345899 
L 241.039925 99.345899 
L 241.039925 98.312655 
L 242.41668 98.312655 
L 242.41668 97.796033 
L 244.101433 97.796033 
L 244.101433 97.279411 
L 244.246999 97.279411 
L 244.246999 96.246167 
L 244.957554 96.246167 
L 244.992351 94.179679 
L 245.540076 94.179679 
L 245.607376 91.596569 
L 245.973061 91.596569 
L 245.973061 91.079947 
L 246.201933 91.079947 
L 246.201933 90.563325 
L 246.745857 90.563325 
L 246.745857 90.046703 
L 247.786418 90.046703 
L 247.786418 89.013459 
L 248.769702 89.013459 
L 248.769702 88.496837 
L 249.159364 88.496837 
L 249.159364 87.463593 
L 249.701686 87.463593 
L 249.701686 86.430349 
L 251.815147 86.430349 
L 251.815147 85.913727 
L 252.398743 85.913727 
L 252.398743 85.397105 
L 252.581539 85.397105 
L 252.581539 84.363861 
L 253.938155 84.363861 
L 253.938155 83.847239 
L 255.00156 83.847239 
L 255.00156 83.330617 
L 255.374849 83.330617 
L 255.374849 82.297373 
L 256.173345 82.297373 
L 256.173345 81.780751 
L 256.686516 81.780751 
L 256.686516 81.264129 
L 258.700513 81.264129 
L 258.700513 79.714263 
L 263.16231 79.714263 
L 263.16231 79.197641 
L 264.517888 79.197641 
L 264.517888 78.681019 
L 264.680327 78.681019 
L 264.714944 77.647775 
L 267.086483 77.647775 
L 267.086483 76.614531 
L 267.466032 76.614531 
L 267.466032 76.097908 
L 267.760084 76.097908 
L 267.760084 75.581286 
L 269.875443 75.581286 
L 269.875443 75.064664 
L 278.292943 75.064664 
L 278.292943 74.548042 
L 278.411168 74.548042 
L 278.411168 73.514798 
L 278.602957 73.514798 
L 278.602957 72.998176 
L 279.421171 72.998176 
L 279.421171 70.931688 
L 280.515729 70.931688 
L 280.515729 70.415066 
L 280.878618 70.415066 
L 280.878618 69.898444 
L 281.605417 69.898444 
L 281.605417 68.348578 
L 281.761511 68.348578 
L 281.761511 67.315334 
L 283.956623 67.315334 
L 283.956623 66.798712 
L 284.155789 66.798712 
L 284.155789 66.28209 
L 284.800339 66.28209 
L 284.908642 65.248846 
L 284.94212 65.248846 
L 284.94212 64.732224 
L 290.412011 64.732224 
L 290.417482 63.182358 
L 290.634991 63.182358 
L 290.634991 62.665736 
L 291.554073 62.665736 
L 291.554073 62.149114 
L 291.924962 62.149114 
L 291.987706 60.599248 
L 293.0054 60.599248 
L 293.0054 60.082626 
L 293.605792 60.082626 
L 293.605792 59.049382 
L 297.136809 59.049382 
L 297.170583 56.982894 
L 297.31992 56.982894 
L 297.31992 56.466272 
L 297.753331 56.466272 
L 297.753331 55.94965 
L 297.88169 55.94965 
L 297.88169 55.433028 
L 298.261327 55.433028 
L 298.261327 54.916406 
L 302.056998 54.916406 
L 302.05985 53.36654 
L 302.372205 53.36654 
L 302.479765 52.333296 
L 302.661281 52.333296 
L 302.661281 51.300052 
L 303.792392 51.300052 
L 303.792392 50.78343 
L 305.892351 50.78343 
L 305.894652 49.233564 
L 307.305385 49.233564 
L 307.305385 48.716942 
L 309.0501 48.716942 
L 309.0501 48.20032 
L 310.005621 48.20032 
L 310.005621 47.683698 
L 310.239883 47.683698 
L 310.239883 47.167076 
L 311.731054 47.167076 
L 311.731054 46.650454 
L 312.083555 46.650454 
L 312.083555 46.133832 
L 314.061739 46.133832 
L 314.061739 45.100588 
L 314.788237 45.100588 
L 314.788237 44.583966 
L 316.771948 44.583966 
L 316.771948 44.067344 
L 317.971227 44.067344 
L 317.971227 43.550722 
L 318.702793 43.550722 
L 318.702793 43.0341 
L 319.645915 43.0341 
L 319.645915 42.517478 
L 320.206659 42.517478 
L 320.206659 42.000855 
L 322.586286 42.000855 
L 322.58719 40.967611 
L 323.063951 40.967611 
L 323.063951 40.450989 
L 325.279607 40.450989 
L 325.279607 39.934367 
L 325.507135 39.934367 
L 325.507135 39.417745 
L 326.251435 39.417745 
L 326.251435 38.901123 
L 327.77109 38.901123 
L 327.77109 37.867879 
L 330.199519 37.867879 
L 330.200109 36.834635 
L 330.512908 36.834635 
L 330.512908 36.318013 
L 333.537032 36.318013 
L 333.537032 35.801391 
L 334.851333 35.801391 
L 334.851333 35.284769 
L 339.837651 35.284769 
L 339.837651 34.768147 
L 358.8 34.768147 
L 358.8 34.768147 
" style="fill:none;stroke:#ff0000;stroke-linecap:square;stroke-width:1.5;"/>
   </g>
   <g id="line2d_63">
    <defs>
     <path d="M 0 -6 
L -5.196152 -3 
L -5.196152 3 
L -0 6 
L 5.196152 3 
L 5.196152 -3 
z
" id="m92ba30be57" style="stroke:#ff0000;stroke-linejoin:miter;stroke-width:1.5;"/>
    </defs>
    <g>
     <use style="fill:none;stroke:#ff0000;stroke-linejoin:miter;stroke-width:1.5;" x="358.8" xlink:href="#m92ba30be57" y="34.768147"/>
    </g>
   </g>
   <g id="line2d_64"/>
   <g id="line2d_65">
    <path clip-path="url(#p82c0e1ab19)" d="M 276.514286 75.064664 
" style="fill:none;stroke:#ff0000;stroke-linecap:square;stroke-width:1.5;"/>
    <defs>
     <path d="M -12 12 
L 12 -12 
M -12 -12 
L 12 12 
" id="m976e655253" style="stroke:#ff0000;stroke-width:3;"/>
    </defs>
    <g clip-path="url(#p82c0e1ab19)">
     <use style="fill:#ff0000;stroke:#ff0000;stroke-width:3;" x="276.514286" xlink:href="#m976e655253" y="75.064664"/>
    </g>
   </g>
   <g id="line2d_66">
    <path d="M 358.8 179.422312 
L 390.48 292.97583 
" style="fill:none;stroke:#000080;stroke-linecap:square;stroke-width:1.5;"/>
    <g>
     <use style="fill:none;stroke:#000080;stroke-width:1.5;" x="358.8" xlink:href="#mbc3a08b710" y="179.422312"/>
     <use style="fill:none;stroke:#000080;stroke-width:1.5;" x="390.48" xlink:href="#mbc3a08b710" y="292.97583"/>
    </g>
   </g>
   <g id="line2d_67">
    <path d="M 358.8 174.256091 
L 390.48 229.741296 
" style="fill:none;stroke:#ff00ff;stroke-linecap:square;stroke-width:1.5;"/>
    <g>
     <use style="fill:none;stroke:#ff00ff;stroke-linejoin:miter;stroke-width:1.5;" x="358.8" xlink:href="#mc34a8d591e" y="174.256091"/>
     <use style="fill:none;stroke:#ff00ff;stroke-linejoin:miter;stroke-width:1.5;" x="390.48" xlink:href="#mc34a8d591e" y="229.741296"/>
    </g>
   </g>
   <g id="line2d_68">
    <path d="M 358.8 143.25877 
L 390.48 166.506761 
" style="fill:none;stroke:#ffa500;stroke-linecap:square;stroke-width:1.5;"/>
    <g>
     <use style="fill:none;stroke:#ffa500;stroke-linejoin:bevel;stroke-width:1.5;" x="358.8" xlink:href="#mc0f7715093" y="143.25877"/>
     <use style="fill:none;stroke:#ffa500;stroke-linejoin:bevel;stroke-width:1.5;" x="390.48" xlink:href="#mc0f7715093" y="166.506761"/>
    </g>
   </g>
   <g id="line2d_69">
    <path d="M 358.8 34.768147 
L 390.48 103.272226 
" style="fill:none;stroke:#ff0000;stroke-linecap:square;stroke-width:1.5;"/>
    <g>
     <use style="fill:none;stroke:#ff0000;stroke-linejoin:miter;stroke-width:1.5;" x="358.8" xlink:href="#m92ba30be57" y="34.768147"/>
     <use style="fill:none;stroke:#ff0000;stroke-linejoin:miter;stroke-width:1.5;" x="390.48" xlink:href="#m92ba30be57" y="103.272226"/>
    </g>
   </g>
   <g id="line2d_70">
    <path d="M 358.8 34.768147 
L 390.48 40.037692 
" style="fill:none;stroke:#6495ed;stroke-linecap:square;stroke-width:1.5;"/>
    <g>
     <use style="fill:none;stroke:#6495ed;stroke-linejoin:miter;stroke-width:1.5;" x="358.8" xlink:href="#md5d7ae6b4b" y="34.768147"/>
     <use style="fill:none;stroke:#6495ed;stroke-linejoin:miter;stroke-width:1.5;" x="390.48" xlink:href="#md5d7ae6b4b" y="40.037692"/>
    </g>
   </g>
   <g id="line2d_71">
    <path d="M 358.8 298.245375 
L 358.8 34.768147 
" style="fill:none;stroke:#000000;stroke-linecap:square;stroke-width:1.5;"/>
   </g>
   <g id="patch_3">
    <path d="M 70.8 298.245375 
L 70.8 32.133375 
" style="fill:none;stroke:#000000;stroke-linecap:square;stroke-linejoin:miter;stroke-width:0.8;"/>
   </g>
   <g id="patch_4">
    <path d="M 427.92 298.245375 
L 427.92 32.133375 
" style="fill:none;stroke:#000000;stroke-linecap:square;stroke-linejoin:miter;stroke-width:0.8;"/>
   </g>
   <g id="patch_5">
    <path d="M 70.8 298.245375 
L 427.92 298.245375 
" style="fill:none;stroke:#000000;stroke-linecap:square;stroke-linejoin:miter;stroke-width:0.8;"/>
   </g>
   <g id="patch_6">
    <path d="M 70.8 32.133375 
L 427.92 32.133375 
" style="fill:none;stroke:#000000;stroke-linecap:square;stroke-linejoin:miter;stroke-width:0.8;"/>
   </g>
   <g id="text_14">
    <!-- f12 -->
    <g transform="translate(396.24 297.114893)scale(0.15 -0.15)">
     <use xlink:href="#DejaVuSans-66"/>
     <use x="35.205078" xlink:href="#DejaVuSans-31"/>
     <use x="98.828125" xlink:href="#DejaVuSans-32"/>
    </g>
   </g>
   <g id="text_15">
    <!-- f13 -->
    <defs>
     <path d="M 40.578125 39.3125 
Q 47.65625 37.796875 51.625 33 
Q 55.609375 28.21875 55.609375 21.1875 
Q 55.609375 10.40625 48.1875 4.484375 
Q 40.765625 -1.421875 27.09375 -1.421875 
Q 22.515625 -1.421875 17.65625 -0.515625 
Q 12.796875 0.390625 7.625 2.203125 
L 7.625 11.71875 
Q 11.71875 9.328125 16.59375 8.109375 
Q 21.484375 6.890625 26.8125 6.890625 
Q 36.078125 6.890625 40.9375 10.546875 
Q 45.796875 14.203125 45.796875 21.1875 
Q 45.796875 27.640625 41.28125 31.265625 
Q 36.765625 34.90625 28.71875 34.90625 
L 20.21875 34.90625 
L 20.21875 43.015625 
L 29.109375 43.015625 
Q 36.375 43.015625 40.234375 45.921875 
Q 44.09375 48.828125 44.09375 54.296875 
Q 44.09375 59.90625 40.109375 62.90625 
Q 36.140625 65.921875 28.71875 65.921875 
Q 24.65625 65.921875 20.015625 65.03125 
Q 15.375 64.15625 9.8125 62.3125 
L 9.8125 71.09375 
Q 15.4375 72.65625 20.34375 73.4375 
Q 25.25 74.21875 29.59375 74.21875 
Q 40.828125 74.21875 47.359375 69.109375 
Q 53.90625 64.015625 53.90625 55.328125 
Q 53.90625 49.265625 50.4375 45.09375 
Q 46.96875 40.921875 40.578125 39.3125 
" id="DejaVuSans-33"/>
    </defs>
    <g transform="translate(396.24 233.880358)scale(0.15 -0.15)">
     <use xlink:href="#DejaVuSans-66"/>
     <use x="35.205078" xlink:href="#DejaVuSans-31"/>
     <use x="98.828125" xlink:href="#DejaVuSans-33"/>
    </g>
   </g>
   <g id="text_16">
    <!-- f10 -->
    <g transform="translate(396.24 170.645824)scale(0.15 -0.15)">
     <use xlink:href="#DejaVuSans-66"/>
     <use x="35.205078" xlink:href="#DejaVuSans-31"/>
     <use x="98.828125" xlink:href="#DejaVuSans-30"/>
    </g>
   </g>
   <g id="text_17">
    <!-- f14 -->
    <g transform="translate(396.24 107.411289)scale(0.15 -0.15)">
     <use xlink:href="#DejaVuSans-66"/>
     <use x="35.205078" xlink:href="#DejaVuSans-31"/>
     <use x="98.828125" xlink:href="#DejaVuSans-34"/>
    </g>
   </g>
   <g id="text_18">
    <!-- f11 -->
    <g transform="translate(396.24 44.176754)scale(0.15 -0.15)">
     <use xlink:href="#DejaVuSans-66"/>
     <use x="35.205078" xlink:href="#DejaVuSans-31"/>
     <use x="98.828125" xlink:href="#DejaVuSans-31"/>
    </g>
   </g>
   <g id="text_19">
    <!-- bbob -->
    <defs>
     <path d="M 48.6875 27.296875 
Q 48.6875 37.203125 44.609375 42.84375 
Q 40.53125 48.484375 33.40625 48.484375 
Q 26.265625 48.484375 22.1875 42.84375 
Q 18.109375 37.203125 18.109375 27.296875 
Q 18.109375 17.390625 22.1875 11.75 
Q 26.265625 6.109375 33.40625 6.109375 
Q 40.53125 6.109375 44.609375 11.75 
Q 48.6875 17.390625 48.6875 27.296875 
M 18.109375 46.390625 
Q 20.953125 51.265625 25.265625 53.625 
Q 29.59375 56 35.59375 56 
Q 45.5625 56 51.78125 48.09375 
Q 58.015625 40.1875 58.015625 27.296875 
Q 58.015625 14.40625 51.78125 6.484375 
Q 45.5625 -1.421875 35.59375 -1.421875 
Q 29.59375 -1.421875 25.265625 0.953125 
Q 20.953125 3.328125 18.109375 8.203125 
L 18.109375 0 
L 9.078125 0 
L 9.078125 75.984375 
L 18.109375 75.984375 
z
" id="DejaVuSans-62"/>
    </defs>
    <g transform="translate(74.3712 50.114612)scale(0.1666 -0.1666)">
     <use xlink:href="#DejaVuSans-62"/>
     <use x="63.476562" xlink:href="#DejaVuSans-62"/>
     <use x="126.953125" xlink:href="#DejaVuSans-6f"/>
     <use x="188.134766" xlink:href="#DejaVuSans-62"/>
    </g>
    <!-- Ill-conditioned functions, 3-D -->
    <defs>
     <path d="M 9.8125 72.90625 
L 19.671875 72.90625 
L 19.671875 0 
L 9.8125 0 
z
" id="DejaVuSans-49"/>
     <path d="M 11.71875 12.40625 
L 22.015625 12.40625 
L 22.015625 4 
L 14.015625 -11.625 
L 7.71875 -11.625 
L 11.71875 4 
z
" id="DejaVuSans-2c"/>
     <path d="M 19.671875 64.796875 
L 19.671875 8.109375 
L 31.59375 8.109375 
Q 46.6875 8.109375 53.6875 14.9375 
Q 60.6875 21.78125 60.6875 36.53125 
Q 60.6875 51.171875 53.6875 57.984375 
Q 46.6875 64.796875 31.59375 64.796875 
z
M 9.8125 72.90625 
L 30.078125 72.90625 
Q 51.265625 72.90625 61.171875 64.09375 
Q 71.09375 55.28125 71.09375 36.53125 
Q 71.09375 17.671875 61.125 8.828125 
Q 51.171875 0 30.078125 0 
L 9.8125 0 
z
" id="DejaVuSans-44"/>
    </defs>
    <g transform="translate(74.3712 68.770168)scale(0.1666 -0.1666)">
     <use xlink:href="#DejaVuSans-49"/>
     <use x="29.492188" xlink:href="#DejaVuSans-6c"/>
     <use x="57.275391" xlink:href="#DejaVuSans-6c"/>
     <use x="85.058594" xlink:href="#DejaVuSans-2d"/>
     <use x="121.142578" xlink:href="#DejaVuSans-63"/>
     <use x="176.123047" xlink:href="#DejaVuSans-6f"/>
     <use x="237.304688" xlink:href="#DejaVuSans-6e"/>
     <use x="300.683594" xlink:href="#DejaVuSans-64"/>
     <use x="364.160156" xlink:href="#DejaVuSans-69"/>
     <use x="391.943359" xlink:href="#DejaVuSans-74"/>
     <use x="431.152344" xlink:href="#DejaVuSans-69"/>
     <use x="458.935547" xlink:href="#DejaVuSans-6f"/>
     <use x="520.117188" xlink:href="#DejaVuSans-6e"/>
     <use x="583.496094" xlink:href="#DejaVuSans-65"/>
     <use x="645.019531" xlink:href="#DejaVuSans-64"/>
     <use x="708.496094" xlink:href="#DejaVuSans-20"/>
     <use x="740.283203" xlink:href="#DejaVuSans-66"/>
     <use x="775.488281" xlink:href="#DejaVuSans-75"/>
     <use x="838.867188" xlink:href="#DejaVuSans-6e"/>
     <use x="902.246094" xlink:href="#DejaVuSans-63"/>
     <use x="957.226562" xlink:href="#DejaVuSans-74"/>
     <use x="996.435547" xlink:href="#DejaVuSans-69"/>
     <use x="1024.21875" xlink:href="#DejaVuSans-6f"/>
     <use x="1085.400391" xlink:href="#DejaVuSans-6e"/>
     <use x="1148.779297" xlink:href="#DejaVuSans-73"/>
     <use x="1200.878906" xlink:href="#DejaVuSans-2c"/>
     <use x="1232.666016" xlink:href="#DejaVuSans-20"/>
     <use x="1264.453125" xlink:href="#DejaVuSans-33"/>
     <use x="1328.076172" xlink:href="#DejaVuSans-2d"/>
     <use x="1364.160156" xlink:href="#DejaVuSans-44"/>
    </g>
    <!-- 51 targets in 100..1e-08 -->
    <defs>
     <path d="M 10.796875 72.90625 
L 49.515625 72.90625 
L 49.515625 64.59375 
L 19.828125 64.59375 
L 19.828125 46.734375 
Q 21.96875 47.46875 24.109375 47.828125 
Q 26.265625 48.1875 28.421875 48.1875 
Q 40.625 48.1875 47.75 41.5 
Q 54.890625 34.8125 54.890625 23.390625 
Q 54.890625 11.625 47.5625 5.09375 
Q 40.234375 -1.421875 26.90625 -1.421875 
Q 22.3125 -1.421875 17.546875 -0.640625 
Q 12.796875 0.140625 7.71875 1.703125 
L 7.71875 11.625 
Q 12.109375 9.234375 16.796875 8.0625 
Q 21.484375 6.890625 26.703125 6.890625 
Q 35.15625 6.890625 40.078125 11.328125 
Q 45.015625 15.765625 45.015625 23.390625 
Q 45.015625 31 40.078125 35.4375 
Q 35.15625 39.890625 26.703125 39.890625 
Q 22.75 39.890625 18.8125 39.015625 
Q 14.890625 38.140625 10.796875 36.28125 
z
" id="DejaVuSans-35"/>
    </defs>
    <g transform="translate(74.3712 87.425723)scale(0.1666 -0.1666)">
     <use xlink:href="#DejaVuSans-35"/>
     <use x="63.623047" xlink:href="#DejaVuSans-31"/>
     <use x="127.246094" xlink:href="#DejaVuSans-20"/>
     <use x="159.033203" xlink:href="#DejaVuSans-74"/>
     <use x="198.242188" xlink:href="#DejaVuSans-61"/>
     <use x="259.521484" xlink:href="#DejaVuSans-72"/>
     <use x="300.619141" xlink:href="#DejaVuSans-67"/>
     <use x="364.095703" xlink:href="#DejaVuSans-65"/>
     <use x="425.619141" xlink:href="#DejaVuSans-74"/>
     <use x="464.828125" xlink:href="#DejaVuSans-73"/>
     <use x="516.927734" xlink:href="#DejaVuSans-20"/>
     <use x="548.714844" xlink:href="#DejaVuSans-69"/>
     <use x="576.498047" xlink:href="#DejaVuSans-6e"/>
     <use x="639.876953" xlink:href="#DejaVuSans-20"/>
     <use x="671.664062" xlink:href="#DejaVuSans-31"/>
     <use x="735.287109" xlink:href="#DejaVuSans-30"/>
     <use x="798.910156" xlink:href="#DejaVuSans-30"/>
     <use x="862.533203" xlink:href="#DejaVuSans-2e"/>
     <use x="894.320312" xlink:href="#DejaVuSans-2e"/>
     <use x="926.107422" xlink:href="#DejaVuSans-31"/>
     <use x="989.730469" xlink:href="#DejaVuSans-65"/>
     <use x="1051.253906" xlink:href="#DejaVuSans-2d"/>
     <use x="1087.337891" xlink:href="#DejaVuSans-30"/>
     <use x="1150.960938" xlink:href="#DejaVuSans-38"/>
    </g>
    <!-- 15 instances -->
    <g transform="translate(74.3712 106.081279)scale(0.1666 -0.1666)">
     <use xlink:href="#DejaVuSans-31"/>
     <use x="63.623047" xlink:href="#DejaVuSans-35"/>
     <use x="127.246094" xlink:href="#DejaVuSans-20"/>
     <use x="159.033203" xlink:href="#DejaVuSans-69"/>
     <use x="186.816406" xlink:href="#DejaVuSans-6e"/>
     <use x="250.195312" xlink:href="#DejaVuSans-73"/>
     <use x="302.294922" xlink:href="#DejaVuSans-74"/>
     <use x="341.503906" xlink:href="#DejaVuSans-61"/>
     <use x="402.783203" xlink:href="#DejaVuSans-6e"/>
     <use x="466.162109" xlink:href="#DejaVuSans-63"/>
     <use x="521.142578" xlink:href="#DejaVuSans-65"/>
     <use x="582.666016" xlink:href="#DejaVuSans-73"/>
    </g>
   </g>
   <g id="text_20">
    <!-- v2.0.1 -->
    <g style="fill:#808080;" transform="translate(233.67875 293.504568)scale(0.1 -0.1)">
     <use xlink:href="#DejaVuSans-76"/>
     <use x="59.179688" xlink:href="#DejaVuSans-32"/>
     <use x="122.802734" xlink:href="#DejaVuSans-2e"/>
     <use x="154.589844" xlink:href="#DejaVuSans-30"/>
     <use x="218.212891" xlink:href="#DejaVuSans-2e"/>
     <use x="250" xlink:href="#DejaVuSans-31"/>
    </g>
   </g>
  </g>
 </g>
 <defs>
  <clipPath id="p82c0e1ab19">
   <rect height="266.112" width="357.12" x="70.8" y="32.133375"/>
  </clipPath>
 </defs>
</svg>
