<?xml version="1.0" encoding="utf-8" standalone="no"?>
<!DOCTYPE svg PUBLIC "-//W3C//DTD SVG 1.1//EN"
  "http://www.w3.org/Graphics/SVG/1.1/DTD/svg11.dtd">
<!-- Created with matplotlib (http://matplotlib.org/) -->
<svg height="353pt" version="1.1" viewBox="0 0 438 353" width="438pt" xmlns="http://www.w3.org/2000/svg" xmlns:xlink="http://www.w3.org/1999/xlink">
 <defs>
  <style type="text/css">
*{stroke-linecap:butt;stroke-linejoin:round;}
  </style>
 </defs>
 <g id="figure_1">
  <g id="patch_1">
   <path d="M 0 353.22225 
L 438.62 353.22225 
L 438.62 0 
L 0 0 
z
" style="fill:#ffffff;"/>
  </g>
  <g id="axes_1">
   <g id="patch_2">
    <path d="M 70.8 298.245375 
L 427.92 298.245375 
L 427.92 32.133375 
L 70.8 32.133375 
z
" style="fill:#ffffff;"/>
   </g>
   <g id="matplotlib.axis_1">
    <g id="xtick_1">
     <g id="line2d_1">
      <path clip-path="url(#p137e4497c1)" d="M 70.8 298.245375 
L 70.8 32.133375 
" style="fill:none;stroke:#b0b0b0;stroke-linecap:square;stroke-width:0.8;"/>
     </g>
     <g id="line2d_2">
      <defs>
       <path d="M 0 0 
L 0 3.5 
" id="m034a9fe4f5" style="stroke:#000000;stroke-width:0.8;"/>
      </defs>
      <g>
       <use style="stroke:#000000;stroke-width:0.8;" x="70.8" xlink:href="#m034a9fe4f5" y="298.245375"/>
      </g>
     </g>
     <g id="text_1">
      <!-- 0 -->
      <defs>
       <path d="M 31.78125 66.40625 
Q 24.171875 66.40625 20.328125 58.90625 
Q 16.5 51.421875 16.5 36.375 
Q 16.5 21.390625 20.328125 13.890625 
Q 24.171875 6.390625 31.78125 6.390625 
Q 39.453125 6.390625 43.28125 13.890625 
Q 47.125 21.390625 47.125 36.375 
Q 47.125 51.421875 43.28125 58.90625 
Q 39.453125 66.40625 31.78125 66.40625 
M 31.78125 74.21875 
Q 44.046875 74.21875 50.515625 64.515625 
Q 56.984375 54.828125 56.984375 36.375 
Q 56.984375 17.96875 50.515625 8.265625 
Q 44.046875 -1.421875 31.78125 -1.421875 
Q 19.53125 -1.421875 13.0625 8.265625 
Q 6.59375 17.96875 6.59375 36.375 
Q 6.59375 54.828125 13.0625 64.515625 
Q 19.53125 74.21875 31.78125 74.21875 
" id="DejaVuSans-30"/>
      </defs>
      <g transform="translate(64.4375 320.44225)scale(0.2 -0.2)">
       <use xlink:href="#DejaVuSans-30"/>
      </g>
     </g>
    </g>
    <g id="xtick_2">
     <g id="line2d_3">
      <path clip-path="url(#p137e4497c1)" d="M 153.085714 298.245375 
L 153.085714 32.133375 
" style="fill:none;stroke:#b0b0b0;stroke-linecap:square;stroke-width:0.8;"/>
     </g>
     <g id="line2d_4">
      <g>
       <use style="stroke:#000000;stroke-width:0.8;" x="153.085714" xlink:href="#m034a9fe4f5" y="298.245375"/>
      </g>
     </g>
     <g id="text_2">
      <!-- 2 -->
      <defs>
       <path d="M 19.1875 8.296875 
L 53.609375 8.296875 
L 53.609375 0 
L 7.328125 0 
L 7.328125 8.296875 
Q 12.9375 14.109375 22.625 23.890625 
Q 32.328125 33.6875 34.8125 36.53125 
Q 39.546875 41.84375 41.421875 45.53125 
Q 43.3125 49.21875 43.3125 52.78125 
Q 43.3125 58.59375 39.234375 62.25 
Q 35.15625 65.921875 28.609375 65.921875 
Q 23.96875 65.921875 18.8125 64.3125 
Q 13.671875 62.703125 7.8125 59.421875 
L 7.8125 69.390625 
Q 13.765625 71.78125 18.9375 73 
Q 24.125 74.21875 28.421875 74.21875 
Q 39.75 74.21875 46.484375 68.546875 
Q 53.21875 62.890625 53.21875 53.421875 
Q 53.21875 48.921875 51.53125 44.890625 
Q 49.859375 40.875 45.40625 35.40625 
Q 44.1875 33.984375 37.640625 27.21875 
Q 31.109375 20.453125 19.1875 8.296875 
" id="DejaVuSans-32"/>
      </defs>
      <g transform="translate(146.723214 320.44225)scale(0.2 -0.2)">
       <use xlink:href="#DejaVuSans-32"/>
      </g>
     </g>
    </g>
    <g id="xtick_3">
     <g id="line2d_5">
      <path clip-path="url(#p137e4497c1)" d="M 235.371429 298.245375 
L 235.371429 32.133375 
" style="fill:none;stroke:#b0b0b0;stroke-linecap:square;stroke-width:0.8;"/>
     </g>
     <g id="line2d_6">
      <g>
       <use style="stroke:#000000;stroke-width:0.8;" x="235.371429" xlink:href="#m034a9fe4f5" y="298.245375"/>
      </g>
     </g>
     <g id="text_3">
      <!-- 4 -->
      <defs>
       <path d="M 37.796875 64.3125 
L 12.890625 25.390625 
L 37.796875 25.390625 
z
M 35.203125 72.90625 
L 47.609375 72.90625 
L 47.609375 25.390625 
L 58.015625 25.390625 
L 58.015625 17.1875 
L 47.609375 17.1875 
L 47.609375 0 
L 37.796875 0 
L 37.796875 17.1875 
L 4.890625 17.1875 
L 4.890625 26.703125 
z
" id="DejaVuSans-34"/>
      </defs>
      <g transform="translate(229.008929 320.44225)scale(0.2 -0.2)">
       <use xlink:href="#DejaVuSans-34"/>
      </g>
     </g>
    </g>
    <g id="xtick_4">
     <g id="line2d_7">
      <path clip-path="url(#p137e4497c1)" d="M 317.657143 298.245375 
L 317.657143 32.133375 
" style="fill:none;stroke:#b0b0b0;stroke-linecap:square;stroke-width:0.8;"/>
     </g>
     <g id="line2d_8">
      <g>
       <use style="stroke:#000000;stroke-width:0.8;" x="317.657143" xlink:href="#m034a9fe4f5" y="298.245375"/>
      </g>
     </g>
     <g id="text_4">
      <!-- 6 -->
      <defs>
       <path d="M 33.015625 40.375 
Q 26.375 40.375 22.484375 35.828125 
Q 18.609375 31.296875 18.609375 23.390625 
Q 18.609375 15.53125 22.484375 10.953125 
Q 26.375 6.390625 33.015625 6.390625 
Q 39.65625 6.390625 43.53125 10.953125 
Q 47.40625 15.53125 47.40625 23.390625 
Q 47.40625 31.296875 43.53125 35.828125 
Q 39.65625 40.375 33.015625 40.375 
M 52.59375 71.296875 
L 52.59375 62.3125 
Q 48.875 64.0625 45.09375 64.984375 
Q 41.3125 65.921875 37.59375 65.921875 
Q 27.828125 65.921875 22.671875 59.328125 
Q 17.53125 52.734375 16.796875 39.40625 
Q 19.671875 43.65625 24.015625 45.921875 
Q 28.375 48.1875 33.59375 48.1875 
Q 44.578125 48.1875 50.953125 41.515625 
Q 57.328125 34.859375 57.328125 23.390625 
Q 57.328125 12.15625 50.6875 5.359375 
Q 44.046875 -1.421875 33.015625 -1.421875 
Q 20.359375 -1.421875 13.671875 8.265625 
Q 6.984375 17.96875 6.984375 36.375 
Q 6.984375 53.65625 15.1875 63.9375 
Q 23.390625 74.21875 37.203125 74.21875 
Q 40.921875 74.21875 44.703125 73.484375 
Q 48.484375 72.75 52.59375 71.296875 
" id="DejaVuSans-36"/>
      </defs>
      <g transform="translate(311.294643 320.44225)scale(0.2 -0.2)">
       <use xlink:href="#DejaVuSans-36"/>
      </g>
     </g>
    </g>
    <g id="xtick_5">
     <g id="line2d_9">
      <path clip-path="url(#p137e4497c1)" d="M 399.942857 298.245375 
L 399.942857 32.133375 
" style="fill:none;stroke:#b0b0b0;stroke-linecap:square;stroke-width:0.8;"/>
     </g>
     <g id="line2d_10">
      <g>
       <use style="stroke:#000000;stroke-width:0.8;" x="399.942857" xlink:href="#m034a9fe4f5" y="298.245375"/>
      </g>
     </g>
     <g id="text_5">
      <!-- 8 -->
      <defs>
       <path d="M 31.78125 34.625 
Q 24.75 34.625 20.71875 30.859375 
Q 16.703125 27.09375 16.703125 20.515625 
Q 16.703125 13.921875 20.71875 10.15625 
Q 24.75 6.390625 31.78125 6.390625 
Q 38.8125 6.390625 42.859375 10.171875 
Q 46.921875 13.96875 46.921875 20.515625 
Q 46.921875 27.09375 42.890625 30.859375 
Q 38.875 34.625 31.78125 34.625 
M 21.921875 38.8125 
Q 15.578125 40.375 12.03125 44.71875 
Q 8.5 49.078125 8.5 55.328125 
Q 8.5 64.0625 14.71875 69.140625 
Q 20.953125 74.21875 31.78125 74.21875 
Q 42.671875 74.21875 48.875 69.140625 
Q 55.078125 64.0625 55.078125 55.328125 
Q 55.078125 49.078125 51.53125 44.71875 
Q 48 40.375 41.703125 38.8125 
Q 48.828125 37.15625 52.796875 32.3125 
Q 56.78125 27.484375 56.78125 20.515625 
Q 56.78125 9.90625 50.3125 4.234375 
Q 43.84375 -1.421875 31.78125 -1.421875 
Q 19.734375 -1.421875 13.25 4.234375 
Q 6.78125 9.90625 6.78125 20.515625 
Q 6.78125 27.484375 10.78125 32.3125 
Q 14.796875 37.15625 21.921875 38.8125 
M 18.3125 54.390625 
Q 18.3125 48.734375 21.84375 45.5625 
Q 25.390625 42.390625 31.78125 42.390625 
Q 38.140625 42.390625 41.71875 45.5625 
Q 45.3125 48.734375 45.3125 54.390625 
Q 45.3125 60.0625 41.71875 63.234375 
Q 38.140625 66.40625 31.78125 66.40625 
Q 25.390625 66.40625 21.84375 63.234375 
Q 18.3125 60.0625 18.3125 54.390625 
" id="DejaVuSans-38"/>
      </defs>
      <g transform="translate(393.580357 320.44225)scale(0.2 -0.2)">
       <use xlink:href="#DejaVuSans-38"/>
      </g>
     </g>
    </g>
    <g id="xtick_6">
     <g id="line2d_11">
      <defs>
       <path d="M 0 0 
L 0 2 
" id="m03cd2fba55" style="stroke:#000000;stroke-width:0.6;"/>
      </defs>
      <g>
       <use style="stroke:#000000;stroke-width:0.6;" x="83.185234" xlink:href="#m03cd2fba55" y="298.245375"/>
      </g>
     </g>
    </g>
    <g id="xtick_7">
     <g id="line2d_12">
      <g>
       <use style="stroke:#000000;stroke-width:0.6;" x="95.570468" xlink:href="#m03cd2fba55" y="298.245375"/>
      </g>
     </g>
    </g>
    <g id="xtick_8">
     <g id="line2d_13">
      <g>
       <use style="stroke:#000000;stroke-width:0.6;" x="102.815366" xlink:href="#m03cd2fba55" y="298.245375"/>
      </g>
     </g>
    </g>
    <g id="xtick_9">
     <g id="line2d_14">
      <g>
       <use style="stroke:#000000;stroke-width:0.6;" x="107.955702" xlink:href="#m03cd2fba55" y="298.245375"/>
      </g>
     </g>
    </g>
    <g id="xtick_10">
     <g id="line2d_15">
      <g>
       <use style="stroke:#000000;stroke-width:0.6;" x="165.470948" xlink:href="#m03cd2fba55" y="298.245375"/>
      </g>
     </g>
    </g>
    <g id="xtick_11">
     <g id="line2d_16">
      <g>
       <use style="stroke:#000000;stroke-width:0.6;" x="177.856183" xlink:href="#m03cd2fba55" y="298.245375"/>
      </g>
     </g>
    </g>
    <g id="xtick_12">
     <g id="line2d_17">
      <g>
       <use style="stroke:#000000;stroke-width:0.6;" x="185.10108" xlink:href="#m03cd2fba55" y="298.245375"/>
      </g>
     </g>
    </g>
    <g id="xtick_13">
     <g id="line2d_18">
      <g>
       <use style="stroke:#000000;stroke-width:0.6;" x="190.241417" xlink:href="#m03cd2fba55" y="298.245375"/>
      </g>
     </g>
    </g>
    <g id="xtick_14">
     <g id="line2d_19">
      <g>
       <use style="stroke:#000000;stroke-width:0.6;" x="247.756663" xlink:href="#m03cd2fba55" y="298.245375"/>
      </g>
     </g>
    </g>
    <g id="xtick_15">
     <g id="line2d_20">
      <g>
       <use style="stroke:#000000;stroke-width:0.6;" x="260.141897" xlink:href="#m03cd2fba55" y="298.245375"/>
      </g>
     </g>
    </g>
    <g id="xtick_16">
     <g id="line2d_21">
      <g>
       <use style="stroke:#000000;stroke-width:0.6;" x="267.386794" xlink:href="#m03cd2fba55" y="298.245375"/>
      </g>
     </g>
    </g>
    <g id="xtick_17">
     <g id="line2d_22">
      <g>
       <use style="stroke:#000000;stroke-width:0.6;" x="272.527131" xlink:href="#m03cd2fba55" y="298.245375"/>
      </g>
     </g>
    </g>
    <g id="xtick_18">
     <g id="line2d_23">
      <g>
       <use style="stroke:#000000;stroke-width:0.6;" x="330.042377" xlink:href="#m03cd2fba55" y="298.245375"/>
      </g>
     </g>
    </g>
    <g id="xtick_19">
     <g id="line2d_24">
      <g>
       <use style="stroke:#000000;stroke-width:0.6;" x="342.427611" xlink:href="#m03cd2fba55" y="298.245375"/>
      </g>
     </g>
    </g>
    <g id="xtick_20">
     <g id="line2d_25">
      <g>
       <use style="stroke:#000000;stroke-width:0.6;" x="349.672509" xlink:href="#m03cd2fba55" y="298.245375"/>
      </g>
     </g>
    </g>
    <g id="xtick_21">
     <g id="line2d_26">
      <g>
       <use style="stroke:#000000;stroke-width:0.6;" x="354.812845" xlink:href="#m03cd2fba55" y="298.245375"/>
      </g>
     </g>
    </g>
    <g id="xtick_22">
     <g id="line2d_27">
      <g>
       <use style="stroke:#000000;stroke-width:0.6;" x="412.328091" xlink:href="#m03cd2fba55" y="298.245375"/>
      </g>
     </g>
    </g>
    <g id="xtick_23">
     <g id="line2d_28">
      <g>
       <use style="stroke:#000000;stroke-width:0.6;" x="424.713325" xlink:href="#m03cd2fba55" y="298.245375"/>
      </g>
     </g>
    </g>
    <g id="text_6">
     <!-- log10 of (# f-evals / dimension) -->
     <defs>
      <path d="M 9.421875 75.984375 
L 18.40625 75.984375 
L 18.40625 0 
L 9.421875 0 
z
" id="DejaVuSans-6c"/>
      <path d="M 30.609375 48.390625 
Q 23.390625 48.390625 19.1875 42.75 
Q 14.984375 37.109375 14.984375 27.296875 
Q 14.984375 17.484375 19.15625 11.84375 
Q 23.34375 6.203125 30.609375 6.203125 
Q 37.796875 6.203125 41.984375 11.859375 
Q 46.1875 17.53125 46.1875 27.296875 
Q 46.1875 37.015625 41.984375 42.703125 
Q 37.796875 48.390625 30.609375 48.390625 
M 30.609375 56 
Q 42.328125 56 49.015625 48.375 
Q 55.71875 40.765625 55.71875 27.296875 
Q 55.71875 13.875 49.015625 6.21875 
Q 42.328125 -1.421875 30.609375 -1.421875 
Q 18.84375 -1.421875 12.171875 6.21875 
Q 5.515625 13.875 5.515625 27.296875 
Q 5.515625 40.765625 12.171875 48.375 
Q 18.84375 56 30.609375 56 
" id="DejaVuSans-6f"/>
      <path d="M 45.40625 27.984375 
Q 45.40625 37.75 41.375 43.109375 
Q 37.359375 48.484375 30.078125 48.484375 
Q 22.859375 48.484375 18.828125 43.109375 
Q 14.796875 37.75 14.796875 27.984375 
Q 14.796875 18.265625 18.828125 12.890625 
Q 22.859375 7.515625 30.078125 7.515625 
Q 37.359375 7.515625 41.375 12.890625 
Q 45.40625 18.265625 45.40625 27.984375 
M 54.390625 6.78125 
Q 54.390625 -7.171875 48.1875 -13.984375 
Q 42 -20.796875 29.203125 -20.796875 
Q 24.46875 -20.796875 20.265625 -20.09375 
Q 16.0625 -19.390625 12.109375 -17.921875 
L 12.109375 -9.1875 
Q 16.0625 -11.328125 19.921875 -12.34375 
Q 23.78125 -13.375 27.78125 -13.375 
Q 36.625 -13.375 41.015625 -8.765625 
Q 45.40625 -4.15625 45.40625 5.171875 
L 45.40625 9.625 
Q 42.625 4.78125 38.28125 2.390625 
Q 33.9375 0 27.875 0 
Q 17.828125 0 11.671875 7.65625 
Q 5.515625 15.328125 5.515625 27.984375 
Q 5.515625 40.671875 11.671875 48.328125 
Q 17.828125 56 27.875 56 
Q 33.9375 56 38.28125 53.609375 
Q 42.625 51.21875 45.40625 46.390625 
L 45.40625 54.6875 
L 54.390625 54.6875 
z
" id="DejaVuSans-67"/>
      <path d="M 12.40625 8.296875 
L 28.515625 8.296875 
L 28.515625 63.921875 
L 10.984375 60.40625 
L 10.984375 69.390625 
L 28.421875 72.90625 
L 38.28125 72.90625 
L 38.28125 8.296875 
L 54.390625 8.296875 
L 54.390625 0 
L 12.40625 0 
z
" id="DejaVuSans-31"/>
      <path id="DejaVuSans-20"/>
      <path d="M 37.109375 75.984375 
L 37.109375 68.5 
L 28.515625 68.5 
Q 23.6875 68.5 21.796875 66.546875 
Q 19.921875 64.59375 19.921875 59.515625 
L 19.921875 54.6875 
L 34.71875 54.6875 
L 34.71875 47.703125 
L 19.921875 47.703125 
L 19.921875 0 
L 10.890625 0 
L 10.890625 47.703125 
L 2.296875 47.703125 
L 2.296875 54.6875 
L 10.890625 54.6875 
L 10.890625 58.5 
Q 10.890625 67.625 15.140625 71.796875 
Q 19.390625 75.984375 28.609375 75.984375 
z
" id="DejaVuSans-66"/>
      <path d="M 31 75.875 
Q 24.46875 64.65625 21.28125 53.65625 
Q 18.109375 42.671875 18.109375 31.390625 
Q 18.109375 20.125 21.3125 9.0625 
Q 24.515625 -2 31 -13.1875 
L 23.1875 -13.1875 
Q 15.875 -1.703125 12.234375 9.375 
Q 8.59375 20.453125 8.59375 31.390625 
Q 8.59375 42.28125 12.203125 53.3125 
Q 15.828125 64.359375 23.1875 75.875 
z
" id="DejaVuSans-28"/>
      <path d="M 51.125 44 
L 36.921875 44 
L 32.8125 27.6875 
L 47.125 27.6875 
z
M 43.796875 71.78125 
L 38.71875 51.515625 
L 52.984375 51.515625 
L 58.109375 71.78125 
L 65.921875 71.78125 
L 60.890625 51.515625 
L 76.125 51.515625 
L 76.125 44 
L 58.984375 44 
L 54.984375 27.6875 
L 70.515625 27.6875 
L 70.515625 20.21875 
L 53.078125 20.21875 
L 48 0 
L 40.1875 0 
L 45.21875 20.21875 
L 30.90625 20.21875 
L 25.875 0 
L 18.015625 0 
L 23.09375 20.21875 
L 7.71875 20.21875 
L 7.71875 27.6875 
L 24.90625 27.6875 
L 29 44 
L 13.28125 44 
L 13.28125 51.515625 
L 30.90625 51.515625 
L 35.890625 71.78125 
z
" id="DejaVuSans-23"/>
      <path d="M 4.890625 31.390625 
L 31.203125 31.390625 
L 31.203125 23.390625 
L 4.890625 23.390625 
z
" id="DejaVuSans-2d"/>
      <path d="M 56.203125 29.59375 
L 56.203125 25.203125 
L 14.890625 25.203125 
Q 15.484375 15.921875 20.484375 11.0625 
Q 25.484375 6.203125 34.421875 6.203125 
Q 39.59375 6.203125 44.453125 7.46875 
Q 49.3125 8.734375 54.109375 11.28125 
L 54.109375 2.78125 
Q 49.265625 0.734375 44.1875 -0.34375 
Q 39.109375 -1.421875 33.890625 -1.421875 
Q 20.796875 -1.421875 13.15625 6.1875 
Q 5.515625 13.8125 5.515625 26.8125 
Q 5.515625 40.234375 12.765625 48.109375 
Q 20.015625 56 32.328125 56 
Q 43.359375 56 49.78125 48.890625 
Q 56.203125 41.796875 56.203125 29.59375 
M 47.21875 32.234375 
Q 47.125 39.59375 43.09375 43.984375 
Q 39.0625 48.390625 32.421875 48.390625 
Q 24.90625 48.390625 20.390625 44.140625 
Q 15.875 39.890625 15.1875 32.171875 
z
" id="DejaVuSans-65"/>
      <path d="M 2.984375 54.6875 
L 12.5 54.6875 
L 29.59375 8.796875 
L 46.6875 54.6875 
L 56.203125 54.6875 
L 35.6875 0 
L 23.484375 0 
z
" id="DejaVuSans-76"/>
      <path d="M 34.28125 27.484375 
Q 23.390625 27.484375 19.1875 25 
Q 14.984375 22.515625 14.984375 16.5 
Q 14.984375 11.71875 18.140625 8.90625 
Q 21.296875 6.109375 26.703125 6.109375 
Q 34.1875 6.109375 38.703125 11.40625 
Q 43.21875 16.703125 43.21875 25.484375 
L 43.21875 27.484375 
z
M 52.203125 31.203125 
L 52.203125 0 
L 43.21875 0 
L 43.21875 8.296875 
Q 40.140625 3.328125 35.546875 0.953125 
Q 30.953125 -1.421875 24.3125 -1.421875 
Q 15.921875 -1.421875 10.953125 3.296875 
Q 6 8.015625 6 15.921875 
Q 6 25.140625 12.171875 29.828125 
Q 18.359375 34.515625 30.609375 34.515625 
L 43.21875 34.515625 
L 43.21875 35.40625 
Q 43.21875 41.609375 39.140625 45 
Q 35.0625 48.390625 27.6875 48.390625 
Q 23 48.390625 18.546875 47.265625 
Q 14.109375 46.140625 10.015625 43.890625 
L 10.015625 52.203125 
Q 14.9375 54.109375 19.578125 55.046875 
Q 24.21875 56 28.609375 56 
Q 40.484375 56 46.34375 49.84375 
Q 52.203125 43.703125 52.203125 31.203125 
" id="DejaVuSans-61"/>
      <path d="M 44.28125 53.078125 
L 44.28125 44.578125 
Q 40.484375 46.53125 36.375 47.5 
Q 32.28125 48.484375 27.875 48.484375 
Q 21.1875 48.484375 17.84375 46.4375 
Q 14.5 44.390625 14.5 40.28125 
Q 14.5 37.15625 16.890625 35.375 
Q 19.28125 33.59375 26.515625 31.984375 
L 29.59375 31.296875 
Q 39.15625 29.25 43.1875 25.515625 
Q 47.21875 21.78125 47.21875 15.09375 
Q 47.21875 7.46875 41.1875 3.015625 
Q 35.15625 -1.421875 24.609375 -1.421875 
Q 20.21875 -1.421875 15.453125 -0.5625 
Q 10.6875 0.296875 5.421875 2 
L 5.421875 11.28125 
Q 10.40625 8.6875 15.234375 7.390625 
Q 20.0625 6.109375 24.8125 6.109375 
Q 31.15625 6.109375 34.5625 8.28125 
Q 37.984375 10.453125 37.984375 14.40625 
Q 37.984375 18.0625 35.515625 20.015625 
Q 33.0625 21.96875 24.703125 23.78125 
L 21.578125 24.515625 
Q 13.234375 26.265625 9.515625 29.90625 
Q 5.8125 33.546875 5.8125 39.890625 
Q 5.8125 47.609375 11.28125 51.796875 
Q 16.75 56 26.8125 56 
Q 31.78125 56 36.171875 55.265625 
Q 40.578125 54.546875 44.28125 53.078125 
" id="DejaVuSans-73"/>
      <path d="M 25.390625 72.90625 
L 33.6875 72.90625 
L 8.296875 -9.28125 
L 0 -9.28125 
z
" id="DejaVuSans-2f"/>
      <path d="M 45.40625 46.390625 
L 45.40625 75.984375 
L 54.390625 75.984375 
L 54.390625 0 
L 45.40625 0 
L 45.40625 8.203125 
Q 42.578125 3.328125 38.25 0.953125 
Q 33.9375 -1.421875 27.875 -1.421875 
Q 17.96875 -1.421875 11.734375 6.484375 
Q 5.515625 14.40625 5.515625 27.296875 
Q 5.515625 40.1875 11.734375 48.09375 
Q 17.96875 56 27.875 56 
Q 33.9375 56 38.25 53.625 
Q 42.578125 51.265625 45.40625 46.390625 
M 14.796875 27.296875 
Q 14.796875 17.390625 18.875 11.75 
Q 22.953125 6.109375 30.078125 6.109375 
Q 37.203125 6.109375 41.296875 11.75 
Q 45.40625 17.390625 45.40625 27.296875 
Q 45.40625 37.203125 41.296875 42.84375 
Q 37.203125 48.484375 30.078125 48.484375 
Q 22.953125 48.484375 18.875 42.84375 
Q 14.796875 37.203125 14.796875 27.296875 
" id="DejaVuSans-64"/>
      <path d="M 9.421875 54.6875 
L 18.40625 54.6875 
L 18.40625 0 
L 9.421875 0 
z
M 9.421875 75.984375 
L 18.40625 75.984375 
L 18.40625 64.59375 
L 9.421875 64.59375 
z
" id="DejaVuSans-69"/>
      <path d="M 52 44.1875 
Q 55.375 50.25 60.0625 53.125 
Q 64.75 56 71.09375 56 
Q 79.640625 56 84.28125 50.015625 
Q 88.921875 44.046875 88.921875 33.015625 
L 88.921875 0 
L 79.890625 0 
L 79.890625 32.71875 
Q 79.890625 40.578125 77.09375 44.375 
Q 74.3125 48.1875 68.609375 48.1875 
Q 61.625 48.1875 57.5625 43.546875 
Q 53.515625 38.921875 53.515625 30.90625 
L 53.515625 0 
L 44.484375 0 
L 44.484375 32.71875 
Q 44.484375 40.625 41.703125 44.40625 
Q 38.921875 48.1875 33.109375 48.1875 
Q 26.21875 48.1875 22.15625 43.53125 
Q 18.109375 38.875 18.109375 30.90625 
L 18.109375 0 
L 9.078125 0 
L 9.078125 54.6875 
L 18.109375 54.6875 
L 18.109375 46.1875 
Q 21.1875 51.21875 25.484375 53.609375 
Q 29.78125 56 35.6875 56 
Q 41.65625 56 45.828125 52.96875 
Q 50 49.953125 52 44.1875 
" id="DejaVuSans-6d"/>
      <path d="M 54.890625 33.015625 
L 54.890625 0 
L 45.90625 0 
L 45.90625 32.71875 
Q 45.90625 40.484375 42.875 44.328125 
Q 39.84375 48.1875 33.796875 48.1875 
Q 26.515625 48.1875 22.3125 43.546875 
Q 18.109375 38.921875 18.109375 30.90625 
L 18.109375 0 
L 9.078125 0 
L 9.078125 54.6875 
L 18.109375 54.6875 
L 18.109375 46.1875 
Q 21.34375 51.125 25.703125 53.5625 
Q 30.078125 56 35.796875 56 
Q 45.21875 56 50.046875 50.171875 
Q 54.890625 44.34375 54.890625 33.015625 
" id="DejaVuSans-6e"/>
      <path d="M 8.015625 75.875 
L 15.828125 75.875 
Q 23.140625 64.359375 26.78125 53.3125 
Q 30.421875 42.28125 30.421875 31.390625 
Q 30.421875 20.453125 26.78125 9.375 
Q 23.140625 -1.703125 15.828125 -13.1875 
L 8.015625 -13.1875 
Q 14.5 -2 17.703125 9.0625 
Q 20.90625 20.125 20.90625 31.390625 
Q 20.90625 42.671875 17.703125 53.65625 
Q 14.5 64.65625 8.015625 75.875 
" id="DejaVuSans-29"/>
     </defs>
     <g transform="translate(107.015156 342.278812)scale(0.18 -0.18)">
      <use xlink:href="#DejaVuSans-6c"/>
      <use x="27.783203" xlink:href="#DejaVuSans-6f"/>
      <use x="88.964844" xlink:href="#DejaVuSans-67"/>
      <use x="152.441406" xlink:href="#DejaVuSans-31"/>
      <use x="216.064453" xlink:href="#DejaVuSans-30"/>
      <use x="279.6875" xlink:href="#DejaVuSans-20"/>
      <use x="311.474609" xlink:href="#DejaVuSans-6f"/>
      <use x="372.65625" xlink:href="#DejaVuSans-66"/>
      <use x="407.861328" xlink:href="#DejaVuSans-20"/>
      <use x="439.648438" xlink:href="#DejaVuSans-28"/>
      <use x="478.662109" xlink:href="#DejaVuSans-23"/>
      <use x="562.451172" xlink:href="#DejaVuSans-20"/>
      <use x="594.238281" xlink:href="#DejaVuSans-66"/>
      <use x="629.365234" xlink:href="#DejaVuSans-2d"/>
      <use x="665.449219" xlink:href="#DejaVuSans-65"/>
      <use x="726.972656" xlink:href="#DejaVuSans-76"/>
      <use x="786.152344" xlink:href="#DejaVuSans-61"/>
      <use x="847.431641" xlink:href="#DejaVuSans-6c"/>
      <use x="875.214844" xlink:href="#DejaVuSans-73"/>
      <use x="927.314453" xlink:href="#DejaVuSans-20"/>
      <use x="959.101562" xlink:href="#DejaVuSans-2f"/>
      <use x="992.792969" xlink:href="#DejaVuSans-20"/>
      <use x="1024.580078" xlink:href="#DejaVuSans-64"/>
      <use x="1088.056641" xlink:href="#DejaVuSans-69"/>
      <use x="1115.839844" xlink:href="#DejaVuSans-6d"/>
      <use x="1213.251953" xlink:href="#DejaVuSans-65"/>
      <use x="1274.775391" xlink:href="#DejaVuSans-6e"/>
      <use x="1338.154297" xlink:href="#DejaVuSans-73"/>
      <use x="1390.253906" xlink:href="#DejaVuSans-69"/>
      <use x="1418.037109" xlink:href="#DejaVuSans-6f"/>
      <use x="1479.21875" xlink:href="#DejaVuSans-6e"/>
      <use x="1542.597656" xlink:href="#DejaVuSans-29"/>
     </g>
    </g>
   </g>
   <g id="matplotlib.axis_2">
    <g id="ytick_1">
     <g id="line2d_29">
      <path clip-path="url(#p137e4497c1)" d="M 70.8 298.245375 
L 427.92 298.245375 
" style="fill:none;stroke:#b0b0b0;stroke-linecap:square;stroke-width:0.8;"/>
     </g>
     <g id="line2d_30">
      <defs>
       <path d="M 0 0 
L -3.5 0 
" id="m97b7b0bcef" style="stroke:#000000;stroke-width:0.8;"/>
      </defs>
      <g>
       <use style="stroke:#000000;stroke-width:0.8;" x="70.8" xlink:href="#m97b7b0bcef" y="298.245375"/>
      </g>
     </g>
     <g id="text_7">
      <!-- 0.0 -->
      <defs>
       <path d="M 10.6875 12.40625 
L 21 12.40625 
L 21 0 
L 10.6875 0 
z
" id="DejaVuSans-2e"/>
      </defs>
      <g transform="translate(31.99375 305.843812)scale(0.2 -0.2)">
       <use xlink:href="#DejaVuSans-30"/>
       <use x="63.623047" xlink:href="#DejaVuSans-2e"/>
       <use x="95.410156" xlink:href="#DejaVuSans-30"/>
      </g>
     </g>
    </g>
    <g id="ytick_2">
     <g id="line2d_31">
      <path clip-path="url(#p137e4497c1)" d="M 70.8 245.549929 
L 427.92 245.549929 
" style="fill:none;stroke:#b0b0b0;stroke-linecap:square;stroke-width:0.8;"/>
     </g>
     <g id="line2d_32">
      <g>
       <use style="stroke:#000000;stroke-width:0.8;" x="70.8" xlink:href="#m97b7b0bcef" y="245.549929"/>
      </g>
     </g>
     <g id="text_8">
      <!-- 0.2 -->
      <g transform="translate(31.99375 253.148367)scale(0.2 -0.2)">
       <use xlink:href="#DejaVuSans-30"/>
       <use x="63.623047" xlink:href="#DejaVuSans-2e"/>
       <use x="95.410156" xlink:href="#DejaVuSans-32"/>
      </g>
     </g>
    </g>
    <g id="ytick_3">
     <g id="line2d_33">
      <path clip-path="url(#p137e4497c1)" d="M 70.8 192.854484 
L 427.92 192.854484 
" style="fill:none;stroke:#b0b0b0;stroke-linecap:square;stroke-width:0.8;"/>
     </g>
     <g id="line2d_34">
      <g>
       <use style="stroke:#000000;stroke-width:0.8;" x="70.8" xlink:href="#m97b7b0bcef" y="192.854484"/>
      </g>
     </g>
     <g id="text_9">
      <!-- 0.4 -->
      <g transform="translate(31.99375 200.452921)scale(0.2 -0.2)">
       <use xlink:href="#DejaVuSans-30"/>
       <use x="63.623047" xlink:href="#DejaVuSans-2e"/>
       <use x="95.410156" xlink:href="#DejaVuSans-34"/>
      </g>
     </g>
    </g>
    <g id="ytick_4">
     <g id="line2d_35">
      <path clip-path="url(#p137e4497c1)" d="M 70.8 140.159038 
L 427.92 140.159038 
" style="fill:none;stroke:#b0b0b0;stroke-linecap:square;stroke-width:0.8;"/>
     </g>
     <g id="line2d_36">
      <g>
       <use style="stroke:#000000;stroke-width:0.8;" x="70.8" xlink:href="#m97b7b0bcef" y="140.159038"/>
      </g>
     </g>
     <g id="text_10">
      <!-- 0.6 -->
      <g transform="translate(31.99375 147.757476)scale(0.2 -0.2)">
       <use xlink:href="#DejaVuSans-30"/>
       <use x="63.623047" xlink:href="#DejaVuSans-2e"/>
       <use x="95.410156" xlink:href="#DejaVuSans-36"/>
      </g>
     </g>
    </g>
    <g id="ytick_5">
     <g id="line2d_37">
      <path clip-path="url(#p137e4497c1)" d="M 70.8 87.463593 
L 427.92 87.463593 
" style="fill:none;stroke:#b0b0b0;stroke-linecap:square;stroke-width:0.8;"/>
     </g>
     <g id="line2d_38">
      <g>
       <use style="stroke:#000000;stroke-width:0.8;" x="70.8" xlink:href="#m97b7b0bcef" y="87.463593"/>
      </g>
     </g>
     <g id="text_11">
      <!-- 0.8 -->
      <g transform="translate(31.99375 95.06203)scale(0.2 -0.2)">
       <use xlink:href="#DejaVuSans-30"/>
       <use x="63.623047" xlink:href="#DejaVuSans-2e"/>
       <use x="95.410156" xlink:href="#DejaVuSans-38"/>
      </g>
     </g>
    </g>
    <g id="ytick_6">
     <g id="line2d_39">
      <path clip-path="url(#p137e4497c1)" d="M 70.8 34.768147 
L 427.92 34.768147 
" style="fill:none;stroke:#b0b0b0;stroke-linecap:square;stroke-width:0.8;"/>
     </g>
     <g id="line2d_40">
      <g>
       <use style="stroke:#000000;stroke-width:0.8;" x="70.8" xlink:href="#m97b7b0bcef" y="34.768147"/>
      </g>
     </g>
     <g id="text_12">
      <!-- 1.0 -->
      <g transform="translate(31.99375 42.366585)scale(0.2 -0.2)">
       <use xlink:href="#DejaVuSans-31"/>
       <use x="63.623047" xlink:href="#DejaVuSans-2e"/>
       <use x="95.410156" xlink:href="#DejaVuSans-30"/>
      </g>
     </g>
    </g>
    <g id="text_13">
     <!-- Proportion of function+target pairs -->
     <defs>
      <path d="M 19.671875 64.796875 
L 19.671875 37.40625 
L 32.078125 37.40625 
Q 38.96875 37.40625 42.71875 40.96875 
Q 46.484375 44.53125 46.484375 51.125 
Q 46.484375 57.671875 42.71875 61.234375 
Q 38.96875 64.796875 32.078125 64.796875 
z
M 9.8125 72.90625 
L 32.078125 72.90625 
Q 44.34375 72.90625 50.609375 67.359375 
Q 56.890625 61.8125 56.890625 51.125 
Q 56.890625 40.328125 50.609375 34.8125 
Q 44.34375 29.296875 32.078125 29.296875 
L 19.671875 29.296875 
L 19.671875 0 
L 9.8125 0 
z
" id="DejaVuSans-50"/>
      <path d="M 41.109375 46.296875 
Q 39.59375 47.171875 37.8125 47.578125 
Q 36.03125 48 33.890625 48 
Q 26.265625 48 22.1875 43.046875 
Q 18.109375 38.09375 18.109375 28.8125 
L 18.109375 0 
L 9.078125 0 
L 9.078125 54.6875 
L 18.109375 54.6875 
L 18.109375 46.1875 
Q 20.953125 51.171875 25.484375 53.578125 
Q 30.03125 56 36.53125 56 
Q 37.453125 56 38.578125 55.875 
Q 39.703125 55.765625 41.0625 55.515625 
z
" id="DejaVuSans-72"/>
      <path d="M 18.109375 8.203125 
L 18.109375 -20.796875 
L 9.078125 -20.796875 
L 9.078125 54.6875 
L 18.109375 54.6875 
L 18.109375 46.390625 
Q 20.953125 51.265625 25.265625 53.625 
Q 29.59375 56 35.59375 56 
Q 45.5625 56 51.78125 48.09375 
Q 58.015625 40.1875 58.015625 27.296875 
Q 58.015625 14.40625 51.78125 6.484375 
Q 45.5625 -1.421875 35.59375 -1.421875 
Q 29.59375 -1.421875 25.265625 0.953125 
Q 20.953125 3.328125 18.109375 8.203125 
M 48.6875 27.296875 
Q 48.6875 37.203125 44.609375 42.84375 
Q 40.53125 48.484375 33.40625 48.484375 
Q 26.265625 48.484375 22.1875 42.84375 
Q 18.109375 37.203125 18.109375 27.296875 
Q 18.109375 17.390625 22.1875 11.75 
Q 26.265625 6.109375 33.40625 6.109375 
Q 40.53125 6.109375 44.609375 11.75 
Q 48.6875 17.390625 48.6875 27.296875 
" id="DejaVuSans-70"/>
      <path d="M 18.3125 70.21875 
L 18.3125 54.6875 
L 36.8125 54.6875 
L 36.8125 47.703125 
L 18.3125 47.703125 
L 18.3125 18.015625 
Q 18.3125 11.328125 20.140625 9.421875 
Q 21.96875 7.515625 27.59375 7.515625 
L 36.8125 7.515625 
L 36.8125 0 
L 27.59375 0 
Q 17.1875 0 13.234375 3.875 
Q 9.28125 7.765625 9.28125 18.015625 
L 9.28125 47.703125 
L 2.6875 47.703125 
L 2.6875 54.6875 
L 9.28125 54.6875 
L 9.28125 70.21875 
z
" id="DejaVuSans-74"/>
      <path d="M 8.5 21.578125 
L 8.5 54.6875 
L 17.484375 54.6875 
L 17.484375 21.921875 
Q 17.484375 14.15625 20.5 10.265625 
Q 23.53125 6.390625 29.59375 6.390625 
Q 36.859375 6.390625 41.078125 11.03125 
Q 45.3125 15.671875 45.3125 23.6875 
L 45.3125 54.6875 
L 54.296875 54.6875 
L 54.296875 0 
L 45.3125 0 
L 45.3125 8.40625 
Q 42.046875 3.421875 37.71875 1 
Q 33.40625 -1.421875 27.6875 -1.421875 
Q 18.265625 -1.421875 13.375 4.4375 
Q 8.5 10.296875 8.5 21.578125 
M 31.109375 56 
z
" id="DejaVuSans-75"/>
      <path d="M 48.78125 52.59375 
L 48.78125 44.1875 
Q 44.96875 46.296875 41.140625 47.34375 
Q 37.3125 48.390625 33.40625 48.390625 
Q 24.65625 48.390625 19.8125 42.84375 
Q 14.984375 37.3125 14.984375 27.296875 
Q 14.984375 17.28125 19.8125 11.734375 
Q 24.65625 6.203125 33.40625 6.203125 
Q 37.3125 6.203125 41.140625 7.25 
Q 44.96875 8.296875 48.78125 10.40625 
L 48.78125 2.09375 
Q 45.015625 0.34375 40.984375 -0.53125 
Q 36.96875 -1.421875 32.421875 -1.421875 
Q 20.0625 -1.421875 12.78125 6.34375 
Q 5.515625 14.109375 5.515625 27.296875 
Q 5.515625 40.671875 12.859375 48.328125 
Q 20.21875 56 33.015625 56 
Q 37.15625 56 41.109375 55.140625 
Q 45.0625 54.296875 48.78125 52.59375 
" id="DejaVuSans-63"/>
      <path d="M 46 62.703125 
L 46 35.5 
L 73.1875 35.5 
L 73.1875 27.203125 
L 46 27.203125 
L 46 0 
L 37.796875 0 
L 37.796875 27.203125 
L 10.59375 27.203125 
L 10.59375 35.5 
L 37.796875 35.5 
L 37.796875 62.703125 
z
" id="DejaVuSans-2b"/>
     </defs>
     <g transform="translate(24.250312 323.17875)rotate(-90)scale(0.18 -0.18)">
      <use xlink:href="#DejaVuSans-50"/>
      <use x="60.287109" xlink:href="#DejaVuSans-72"/>
      <use x="101.369141" xlink:href="#DejaVuSans-6f"/>
      <use x="162.550781" xlink:href="#DejaVuSans-70"/>
      <use x="226.027344" xlink:href="#DejaVuSans-6f"/>
      <use x="287.208984" xlink:href="#DejaVuSans-72"/>
      <use x="328.322266" xlink:href="#DejaVuSans-74"/>
      <use x="367.53125" xlink:href="#DejaVuSans-69"/>
      <use x="395.314453" xlink:href="#DejaVuSans-6f"/>
      <use x="456.496094" xlink:href="#DejaVuSans-6e"/>
      <use x="519.875" xlink:href="#DejaVuSans-20"/>
      <use x="551.662109" xlink:href="#DejaVuSans-6f"/>
      <use x="612.84375" xlink:href="#DejaVuSans-66"/>
      <use x="648.048828" xlink:href="#DejaVuSans-20"/>
      <use x="679.835938" xlink:href="#DejaVuSans-66"/>
      <use x="715.041016" xlink:href="#DejaVuSans-75"/>
      <use x="778.419922" xlink:href="#DejaVuSans-6e"/>
      <use x="841.798828" xlink:href="#DejaVuSans-63"/>
      <use x="896.779297" xlink:href="#DejaVuSans-74"/>
      <use x="935.988281" xlink:href="#DejaVuSans-69"/>
      <use x="963.771484" xlink:href="#DejaVuSans-6f"/>
      <use x="1024.953125" xlink:href="#DejaVuSans-6e"/>
      <use x="1088.332031" xlink:href="#DejaVuSans-2b"/>
      <use x="1172.121094" xlink:href="#DejaVuSans-74"/>
      <use x="1211.330078" xlink:href="#DejaVuSans-61"/>
      <use x="1272.609375" xlink:href="#DejaVuSans-72"/>
      <use x="1313.707031" xlink:href="#DejaVuSans-67"/>
      <use x="1377.183594" xlink:href="#DejaVuSans-65"/>
      <use x="1438.707031" xlink:href="#DejaVuSans-74"/>
      <use x="1477.916016" xlink:href="#DejaVuSans-20"/>
      <use x="1509.703125" xlink:href="#DejaVuSans-70"/>
      <use x="1573.179688" xlink:href="#DejaVuSans-61"/>
      <use x="1634.458984" xlink:href="#DejaVuSans-69"/>
      <use x="1662.242188" xlink:href="#DejaVuSans-72"/>
      <use x="1703.355469" xlink:href="#DejaVuSans-73"/>
     </g>
    </g>
   </g>
   <g id="line2d_41">
    <defs>
     <path d="M 0 1.5 
C 0.397805 1.5 0.77937 1.341951 1.06066 1.06066 
C 1.341951 0.77937 1.5 0.397805 1.5 0 
C 1.5 -0.397805 1.341951 -0.77937 1.06066 -1.06066 
C 0.77937 -1.341951 0.397805 -1.5 0 -1.5 
C -0.397805 -1.5 -0.77937 -1.341951 -1.06066 -1.06066 
C -1.341951 -0.77937 -1.5 -0.397805 -1.5 0 
C -1.5 0.397805 -1.341951 0.77937 -1.06066 1.06066 
C -0.77937 1.341951 -0.397805 1.5 0 1.5 
z
" id="m67882c42aa" style="stroke:#000080;"/>
    </defs>
    <g>
     <use style="fill:#000080;stroke:#000080;" x="343.47298" xlink:href="#m67882c42aa" y="215.585853"/>
     <use style="fill:#000080;stroke:#000080;" x="343.47298" xlink:href="#m67882c42aa" y="215.585853"/>
    </g>
   </g>
   <g id="line2d_42">
    <path d="M 29.657143 298.245375 
L 29.657143 255.88237 
L 136.713325 255.88237 
L 136.713325 255.365748 
L 149.098559 255.365748 
L 149.098559 253.815882 
L 159.097839 253.815882 
L 159.097839 253.29926 
L 161.483794 253.29926 
L 161.483794 252.782638 
L 165.470948 252.782638 
L 165.470948 251.232772 
L 182.544138 251.232772 
L 182.544138 250.71615 
L 187.855462 250.71615 
L 187.855462 249.682906 
L 194.228571 249.682906 
L 194.228571 248.13304 
L 195.931585 248.13304 
L 195.931585 247.616418 
L 197.186003 247.616418 
L 197.186003 247.099796 
L 202.174269 247.099796 
L 202.174269 246.066551 
L 203.067861 246.066551 
L 203.067861 245.549929 
L 208.638776 245.549929 
L 208.638776 245.033307 
L 220.291274 245.033307 
L 220.291274 244.516685 
L 221.340268 244.516685 
L 221.340268 244.000063 
L 222.182176 244.000063 
L 222.182176 242.966819 
L 222.697993 242.966819 
L 222.697993 242.450197 
L 226.362663 242.450197 
L 226.362663 241.933575 
L 233.046632 241.933575 
L 233.046632 240.900331 
L 234.863983 240.900331 
L 234.863983 240.383709 
L 236.20915 240.383709 
L 236.20915 239.867087 
L 236.779636 239.867087 
L 236.779636 239.350465 
L 239.865914 239.350465 
L 239.865914 238.317221 
L 239.921405 238.317221 
L 239.921405 237.800599 
L 239.949086 237.800599 
L 239.949086 237.283977 
L 242.108881 237.283977 
L 242.108881 236.767355 
L 244.957554 236.767355 
L 244.957554 234.700867 
L 246.651066 234.700867 
L 246.651066 233.667623 
L 247.649131 233.667623 
L 247.649131 233.151001 
L 248.747176 233.151001 
L 248.747176 232.634379 
L 249.015623 232.634379 
L 249.015623 232.117757 
L 249.345606 232.117757 
L 249.345606 231.084513 
L 252.595173 231.084513 
L 252.595173 230.567891 
L 255.460194 230.567891 
L 255.460194 230.051269 
L 278.682265 230.051269 
L 278.682265 229.534647 
L 279.899627 229.534647 
L 279.899627 229.018025 
L 281.158204 229.018025 
L 281.158204 228.501403 
L 281.706365 228.501403 
L 281.706365 226.951537 
L 282.653586 226.951537 
L 282.653586 225.401671 
L 290.672245 225.401671 
L 290.672245 224.885049 
L 290.752965 224.885049 
L 290.752965 224.368427 
L 291.371925 224.368427 
L 291.371925 223.335183 
L 291.683488 223.335183 
L 291.683488 222.818561 
L 296.777511 222.818561 
L 296.777511 222.301939 
L 297.453265 222.301939 
L 297.453265 221.785317 
L 297.830096 221.785317 
L 297.830096 220.752073 
L 302.193092 220.752073 
L 302.193092 220.235451 
L 312.301092 220.235451 
L 312.301092 219.718829 
L 314.129928 219.718829 
L 314.129928 219.202207 
L 318.179751 219.202207 
L 318.179751 218.685585 
L 325.38388 218.685585 
L 325.38388 218.168963 
L 332.855372 218.168963 
L 332.855372 217.652341 
L 333.602789 217.652341 
L 333.602789 217.135719 
L 336.932367 217.135719 
L 336.932367 216.619097 
L 341.231494 216.619097 
L 341.231494 216.102475 
L 343.47298 216.102475 
L 343.47298 215.585853 
L 358.8 215.585853 
" style="fill:none;stroke:#000080;stroke-linecap:square;stroke-width:1.5;"/>
   </g>
   <g id="line2d_43">
    <defs>
     <path d="M 0 6 
C 1.591219 6 3.117479 5.367802 4.242641 4.242641 
C 5.367802 3.117479 6 1.591219 6 0 
C 6 -1.591219 5.367802 -3.117479 4.242641 -4.242641 
C 3.117479 -5.367802 1.591219 -6 0 -6 
C -1.591219 -6 -3.117479 -5.367802 -4.242641 -4.242641 
C -5.367802 -3.117479 -6 -1.591219 -6 0 
C -6 1.591219 -5.367802 3.117479 -4.242641 4.242641 
C -3.117479 5.367802 -1.591219 6 0 6 
z
" id="m597145e028" style="stroke:#000080;stroke-width:1.5;"/>
    </defs>
    <g>
     <use style="fill:none;stroke:#000080;stroke-width:1.5;" x="358.8" xlink:href="#m597145e028" y="215.585853"/>
    </g>
   </g>
   <g id="line2d_44"/>
   <g id="line2d_45">
    <path clip-path="url(#p137e4497c1)" d="M 276.514286 230.051269 
" style="fill:none;stroke:#000080;stroke-linecap:square;stroke-width:1.5;"/>
    <defs>
     <path d="M -12 12 
L 12 -12 
M -12 -12 
L 12 12 
" id="m465c50bf08" style="stroke:#000080;stroke-width:3;"/>
    </defs>
    <g clip-path="url(#p137e4497c1)">
     <use style="fill:#000080;stroke:#000080;stroke-width:3;" x="276.514286" xlink:href="#m465c50bf08" y="230.051269"/>
    </g>
   </g>
   <g id="line2d_46">
    <defs>
     <path d="M 0 1.5 
C 0.397805 1.5 0.77937 1.341951 1.06066 1.06066 
C 1.341951 0.77937 1.5 0.397805 1.5 0 
C 1.5 -0.397805 1.341951 -0.77937 1.06066 -1.06066 
C 0.77937 -1.341951 0.397805 -1.5 0 -1.5 
C -0.397805 -1.5 -0.77937 -1.341951 -1.06066 -1.06066 
C -1.341951 -0.77937 -1.5 -0.397805 -1.5 0 
C -1.5 0.397805 -1.341951 0.77937 -1.06066 1.06066 
C -0.77937 1.341951 -0.397805 1.5 0 1.5 
z
" id="md79fb64a16" style="stroke:#ff00ff;"/>
    </defs>
    <g>
     <use style="fill:#ff00ff;stroke:#ff00ff;" x="303.699497" xlink:href="#md79fb64a16" y="34.768147"/>
     <use style="fill:#ff00ff;stroke:#ff00ff;" x="303.699497" xlink:href="#md79fb64a16" y="34.768147"/>
    </g>
   </g>
   <g id="line2d_47">
    <path d="M 29.657143 298.245375 
L 29.657143 283.263337 
L 136.713325 283.263337 
L 136.713325 281.196849 
L 143.958223 281.196849 
L 143.958223 278.613738 
L 149.098559 278.613738 
L 149.098559 276.54725 
L 153.085714 276.54725 
L 153.085714 274.480762 
L 156.343457 274.480762 
L 156.343457 272.930896 
L 159.097839 272.930896 
L 159.097839 269.831164 
L 161.483794 269.831164 
L 161.483794 267.764676 
L 163.588354 267.764676 
L 163.588354 264.664944 
L 165.470948 264.664944 
L 165.470948 262.081834 
L 167.173962 262.081834 
L 167.173962 260.531968 
L 168.728691 260.531968 
L 168.728691 259.498724 
L 171.483073 259.498724 
L 171.483073 258.982102 
L 173.869028 258.982102 
L 173.869028 257.948858 
L 176.939668 257.948858 
L 176.939668 255.365748 
L 177.856183 255.365748 
L 177.856183 254.332504 
L 179.559196 254.332504 
L 179.559196 253.815882 
L 181.843337 253.815882 
L 181.843337 253.29926 
L 188.848391 253.29926 
L 188.848391 252.266016 
L 204.531566 252.266016 
L 204.531566 251.749394 
L 204.731212 251.749394 
L 204.731212 251.232772 
L 205.508209 251.232772 
L 205.508209 250.71615 
L 206.252821 250.71615 
L 206.252821 250.199528 
L 206.434225 250.199528 
L 206.434225 248.649662 
L 207.485594 248.649662 
L 207.485594 248.13304 
L 207.822738 248.13304 
L 207.822738 247.616418 
L 212.23888 247.616418 
L 212.23888 247.099796 
L 213.497719 247.099796 
L 213.497719 246.066551 
L 217.411793 246.066551 
L 217.411793 244.516685 
L 218.082525 244.516685 
L 218.082525 244.000063 
L 218.99904 244.000063 
L 218.99904 243.483441 
L 219.265071 243.483441 
L 219.352875 240.900331 
L 219.785538 240.900331 
L 219.785538 240.383709 
L 220.702053 240.383709 
L 220.702053 239.867087 
L 221.727878 239.867087 
L 221.804401 238.833843 
L 221.880598 238.833843 
L 221.880598 236.767355 
L 222.032023 236.767355 
L 222.032023 235.734111 
L 222.256782 235.734111 
L 222.331078 234.700867 
L 222.842675 234.700867 
L 222.914579 232.117757 
L 226.421731 232.117757 
L 226.421731 231.601135 
L 226.65607 231.601135 
L 226.65607 231.084513 
L 228.792936 231.084513 
L 228.844504 229.018025 
L 228.947195 229.018025 
L 229.049298 227.468159 
L 229.201368 227.468159 
L 229.201368 226.434915 
L 230.747683 226.434915 
L 230.747683 225.401671 
L 231.473392 225.401671 
L 231.473392 224.885049 
L 231.955751 224.885049 
L 231.955751 224.368427 
L 233.12785 224.368427 
L 233.12785 223.851805 
L 233.248991 223.851805 
L 233.248991 223.335183 
L 233.568073 223.335183 
L 233.568073 222.818561 
L 234.679203 222.818561 
L 234.679203 222.301939 
L 234.900711 222.301939 
L 234.900711 221.785317 
L 235.119507 221.785317 
L 235.119507 221.268695 
L 235.442758 221.268695 
L 235.442758 220.752073 
L 236.580361 220.752073 
L 236.580361 220.235451 
L 236.812633 220.235451 
L 236.878446 218.685585 
L 237.074442 218.685585 
L 237.139299 217.135719 
L 238.268187 217.135719 
L 238.268187 216.619097 
L 238.389327 216.619097 
L 238.389327 215.585853 
L 238.569511 215.585853 
L 238.599366 214.035987 
L 239.726428 214.035987 
L 239.81025 211.969498 
L 239.893681 211.969498 
L 239.893681 211.452876 
L 241.459967 211.452876 
L 241.459967 210.419632 
L 241.737389 210.419632 
L 241.737389 209.90301 
L 241.86208 209.90301 
L 241.86208 209.386388 
L 242.255342 209.386388 
L 242.35232 207.3199 
L 243.679943 207.3199 
L 243.679943 206.286656 
L 245.472521 206.286656 
L 245.472521 205.253412 
L 245.674423 205.253412 
L 245.674423 204.73679 
L 246.012505 204.73679 
L 246.012505 204.220168 
L 246.26679 204.220168 
L 246.26679 203.703546 
L 246.555769 203.703546 
L 246.555769 202.670302 
L 246.82133 202.670302 
L 246.915224 201.120436 
L 247.702978 201.120436 
L 247.774522 199.57057 
L 248.267467 199.57057 
L 248.354079 198.020704 
L 248.405846 198.020704 
L 248.474636 196.98746 
L 248.577326 196.98746 
L 248.577326 195.954216 
L 249.098692 195.954216 
L 249.098692 194.920972 
L 249.296496 194.920972 
L 249.394583 193.371106 
L 249.427159 193.371106 
L 249.427159 192.854484 
L 250.377815 192.854484 
L 250.377815 191.304618 
L 250.879889 191.304618 
L 250.879889 190.271374 
L 251.657844 190.271374 
L 251.686548 188.721508 
L 251.886194 188.721508 
L 251.886194 188.204886 
L 252.167587 188.204886 
L 252.209417 186.65502 
L 252.306639 186.65502 
L 252.417107 184.588532 
L 253.079215 184.588532 
L 253.132197 182.522044 
L 253.511688 182.522044 
L 253.614972 180.455556 
L 253.627841 180.455556 
L 253.692045 178.90569 
L 253.743243 178.90569 
L 253.75602 177.355823 
L 254.172604 177.355823 
L 254.172604 176.322579 
L 254.334083 176.322579 
L 254.371141 175.289335 
L 254.555286 175.289335 
L 254.555286 174.772713 
L 254.785846 174.772713 
L 254.785846 173.739469 
L 255.00156 173.739469 
L 255.037261 172.706225 
L 255.402049 172.706225 
L 255.44858 171.672981 
L 255.552836 171.672981 
L 255.575921 169.089871 
L 255.975161 169.089871 
L 255.975161 168.056627 
L 256.110016 168.056627 
L 256.110016 167.023383 
L 257.153706 167.023383 
L 257.23799 165.473517 
L 257.384536 165.473517 
L 257.384536 164.956895 
L 257.632996 164.956895 
L 257.725285 162.373785 
L 257.755942 162.373785 
L 257.755942 161.340541 
L 258.059657 161.340541 
L 258.169738 158.757431 
L 258.18968 158.757431 
L 258.279145 154.107833 
L 259.026793 154.107833 
L 259.112173 152.041345 
L 259.244181 152.041345 
L 259.244181 151.524723 
L 259.393862 151.524723 
L 259.393862 151.008101 
L 259.643641 151.008101 
L 259.643641 150.491479 
L 260.407928 150.491479 
L 260.407928 149.974857 
L 260.55694 149.974857 
L 260.55694 149.458235 
L 260.885598 149.458235 
L 260.96256 147.908369 
L 261.225145 147.908369 
L 261.225145 147.391747 
L 261.425818 147.391747 
L 261.425818 144.808637 
L 261.804255 144.808637 
L 261.885473 142.742148 
L 262.158888 142.742148 
L 262.182813 141.192282 
L 262.615858 141.192282 
L 262.639179 140.159038 
L 262.93962 140.159038 
L 262.977776 138.609172 
L 263.37729 138.609172 
L 263.46652 136.026062 
L 263.680335 136.026062 
L 263.760773 134.476196 
L 264.129052 134.476196 
L 264.129052 133.959574 
L 264.566775 133.959574 
L 264.664149 131.893086 
L 264.760996 131.893086 
L 264.843591 129.826598 
L 264.973592 129.826598 
L 264.973592 129.309976 
L 265.129705 129.309976 
L 265.156717 123.627134 
L 265.444541 123.627134 
L 265.444541 123.110512 
L 266.438905 123.110512 
L 266.47028 122.077268 
L 266.607679 122.077268 
L 266.6139 121.044024 
L 266.744031 121.044024 
L 266.793356 118.460914 
L 266.8916 118.460914 
L 266.8916 117.944292 
L 267.327134 117.944292 
L 267.327134 117.42767 
L 267.676282 117.42767 
L 267.676282 115.877804 
L 268.207458 115.877804 
L 268.258583 113.811316 
L 268.489651 113.811316 
L 268.534391 112.778072 
L 268.860936 112.778072 
L 268.860936 112.26145 
L 269.565322 112.26145 
L 269.60219 110.711584 
L 269.738469 110.711584 
L 269.738469 110.194961 
L 269.868533 110.194961 
L 269.868533 109.678339 
L 270.866504 109.678339 
L 270.866504 108.645095 
L 271.042113 108.645095 
L 271.119612 106.578607 
L 271.596504 106.578607 
L 271.596504 106.061985 
L 271.816322 106.061985 
L 271.816322 105.545363 
L 276.546419 105.545363 
L 276.546419 105.028741 
L 277.228825 105.028741 
L 277.334949 103.995497 
L 277.38267 103.995497 
L 277.38267 102.962253 
L 277.565552 102.962253 
L 277.565552 102.445631 
L 277.719878 102.445631 
L 277.719878 101.929009 
L 277.84305 101.929009 
L 277.84305 101.412387 
L 278.145683 101.412387 
L 278.175015 98.829277 
L 278.660094 98.829277 
L 278.688595 97.279411 
L 278.864916 97.279411 
L 278.964895 96.246167 
L 279.008461 96.246167 
L 279.008461 95.729545 
L 279.163191 95.729545 
L 279.166272 94.696301 
L 279.441406 94.696301 
L 279.532184 93.663057 
L 279.577401 93.663057 
L 279.577401 93.146435 
L 279.72133 93.146435 
L 279.763092 92.113191 
L 279.91145 92.113191 
L 279.932122 90.563325 
L 280.03806 90.563325 
L 280.067376 89.530081 
L 280.759725 89.530081 
L 280.759725 89.013459 
L 280.919626 89.013459 
L 280.922418 87.980215 
L 281.058721 87.980215 
L 281.058721 86.946971 
L 281.237941 86.946971 
L 281.237941 85.913727 
L 281.437099 85.913727 
L 281.437099 85.397105 
L 281.583007 85.397105 
L 281.583007 84.363861 
L 281.722392 84.363861 
L 281.781038 82.297373 
L 281.876589 82.297373 
L 281.984793 80.230885 
L 282.136752 80.230885 
L 282.136752 79.714263 
L 282.539169 79.714263 
L 282.539169 79.197641 
L 282.742074 79.197641 
L 282.777346 76.614531 
L 283.371437 76.614531 
L 283.383607 75.581286 
L 283.485503 75.581286 
L 283.541057 74.548042 
L 283.61086 74.548042 
L 283.637265 73.514798 
L 283.747267 73.514798 
L 283.747267 72.998176 
L 283.953481 72.998176 
L 283.993499 71.44831 
L 284.082629 71.44831 
L 284.101337 70.415066 
L 284.345076 70.415066 
L 284.345076 69.898444 
L 284.560495 69.898444 
L 284.574157 68.8652 
L 284.67403 68.8652 
L 284.67403 67.831956 
L 284.919064 67.831956 
L 284.99926 66.798712 
L 285.132126 66.798712 
L 285.237712 65.765468 
L 285.351396 65.765468 
L 285.351396 65.248846 
L 285.479515 65.248846 
L 285.555085 64.215602 
L 286.374162 64.215602 
L 286.396787 63.182358 
L 286.609286 63.182358 
L 286.704496 62.149114 
L 289.165551 62.149114 
L 289.260361 60.599248 
L 289.314563 60.599248 
L 289.314563 60.082626 
L 289.680888 60.082626 
L 289.680888 59.566004 
L 289.830769 59.566004 
L 289.927185 58.016138 
L 290.150152 58.016138 
L 290.150152 57.499516 
L 290.274669 57.499516 
L 290.274669 56.982894 
L 290.439353 56.982894 
L 290.519497 55.433028 
L 290.649578 55.433028 
L 290.678716 54.399784 
L 290.857359 54.399784 
L 290.910126 53.36654 
L 291.315824 53.36654 
L 291.315824 52.849918 
L 291.455748 52.849918 
L 291.455748 52.333296 
L 291.82664 52.333296 
L 291.855437 51.300052 
L 292.01074 51.300052 
L 292.063208 50.266808 
L 292.302593 50.266808 
L 292.302593 49.750186 
L 292.586848 49.750186 
L 292.586848 49.233564 
L 292.993563 49.233564 
L 292.993563 48.716942 
L 293.443955 48.716942 
L 293.448111 47.683698 
L 293.848089 47.683698 
L 293.90219 46.650454 
L 296.429217 46.650454 
L 296.429217 46.133832 
L 297.011667 46.133832 
L 297.011667 45.100588 
L 297.139438 45.100588 
L 297.185573 43.550722 
L 297.298716 43.550722 
L 297.298716 43.0341 
L 297.844182 43.0341 
L 297.951089 41.484233 
L 298.164069 41.484233 
L 298.164069 40.967611 
L 298.431227 40.967611 
L 298.431227 40.450989 
L 298.63652 40.450989 
L 298.63652 39.934367 
L 299.590762 39.934367 
L 299.590762 39.417745 
L 299.784196 39.417745 
L 299.784196 38.901123 
L 300.080993 38.901123 
L 300.080993 38.384501 
L 301.921009 38.384501 
L 301.921009 37.867879 
L 302.088343 37.867879 
L 302.088343 37.351257 
L 302.376408 37.351257 
L 302.449379 36.318013 
L 303.46539 36.318013 
L 303.496203 35.284769 
L 303.699497 35.284769 
L 303.699497 34.768147 
L 358.8 34.768147 
L 358.8 34.768147 
" style="fill:none;stroke:#ff00ff;stroke-linecap:square;stroke-width:1.5;"/>
   </g>
   <g id="line2d_48">
    <defs>
     <path d="M -0 8.485281 
L 5.091169 0 
L 0 -8.485281 
L -5.091169 -0 
z
" id="m9036beef07" style="stroke:#ff00ff;stroke-linejoin:miter;stroke-width:1.5;"/>
    </defs>
    <g>
     <use style="fill:none;stroke:#ff00ff;stroke-linejoin:miter;stroke-width:1.5;" x="358.8" xlink:href="#m9036beef07" y="34.768147"/>
    </g>
   </g>
   <g id="line2d_49"/>
   <g id="line2d_50">
    <path clip-path="url(#p137e4497c1)" d="M 276.514286 105.545363 
" style="fill:none;stroke:#ff00ff;stroke-linecap:square;stroke-width:1.5;"/>
    <defs>
     <path d="M -12 12 
L 12 -12 
M -12 -12 
L 12 12 
" id="mbcbee716e8" style="stroke:#ff00ff;stroke-width:3;"/>
    </defs>
    <g clip-path="url(#p137e4497c1)">
     <use style="fill:#ff00ff;stroke:#ff00ff;stroke-width:3;" x="276.514286" xlink:href="#mbcbee716e8" y="105.545363"/>
    </g>
   </g>
   <g id="line2d_51">
    <defs>
     <path d="M 0 1.5 
C 0.397805 1.5 0.77937 1.341951 1.06066 1.06066 
C 1.341951 0.77937 1.5 0.397805 1.5 0 
C 1.5 -0.397805 1.341951 -0.77937 1.06066 -1.06066 
C 0.77937 -1.341951 0.397805 -1.5 0 -1.5 
C -0.397805 -1.5 -0.77937 -1.341951 -1.06066 -1.06066 
C -1.341951 -0.77937 -1.5 -0.397805 -1.5 0 
C -1.5 0.397805 -1.341951 0.77937 -1.06066 1.06066 
C -0.77937 1.341951 -0.397805 1.5 0 1.5 
z
" id="m0d048d5e6b" style="stroke:#ffa500;"/>
    </defs>
    <g>
     <use style="fill:#ffa500;stroke:#ffa500;" x="313.928976" xlink:href="#m0d048d5e6b" y="34.768147"/>
     <use style="fill:#ffa500;stroke:#ffa500;" x="313.928976" xlink:href="#m0d048d5e6b" y="34.768147"/>
    </g>
   </g>
   <g id="line2d_52">
    <path d="M 29.657143 298.245375 
L 29.657143 282.230093 
L 136.713325 282.230093 
L 136.713325 276.54725 
L 143.958223 276.54725 
L 143.958223 274.997384 
L 149.098559 274.997384 
L 149.098559 272.414274 
L 153.085714 272.414274 
L 153.085714 269.314542 
L 156.343457 269.314542 
L 156.343457 266.731432 
L 159.097839 266.731432 
L 159.097839 266.21481 
L 161.483794 266.21481 
L 161.483794 263.6317 
L 163.588354 263.6317 
L 163.588354 258.982102 
L 167.173962 258.982102 
L 167.173962 258.46548 
L 168.728691 258.46548 
L 168.728691 256.398992 
L 170.158903 256.398992 
L 170.158903 253.815882 
L 171.483073 253.815882 
L 171.483073 252.782638 
L 172.715846 252.782638 
L 172.715846 251.232772 
L 175.973589 251.232772 
L 175.973589 250.199528 
L 176.939668 250.199528 
L 176.939668 249.166284 
L 177.856183 249.166284 
L 177.856183 247.616418 
L 178.727971 247.616418 
L 178.727971 246.583173 
L 179.559196 246.583173 
L 179.559196 245.549929 
L 180.353465 245.549929 
L 180.353465 244.516685 
L 181.843337 244.516685 
L 181.843337 242.450197 
L 183.218486 242.450197 
L 183.218486 240.900331 
L 184.495323 240.900331 
L 184.495323 239.350465 
L 185.686972 239.350465 
L 185.686972 237.800599 
L 186.804093 237.800599 
L 186.804093 237.283977 
L 187.855462 237.283977 
L 187.855462 235.734111 
L 188.358823 235.734111 
L 188.358823 235.217489 
L 188.848391 235.217489 
L 188.848391 234.700867 
L 189.324902 234.700867 
L 189.324902 233.151001 
L 189.789035 233.151001 
L 189.789035 232.634379 
L 191.113205 232.634379 
L 191.113205 231.601135 
L 191.533651 231.601135 
L 191.533651 231.084513 
L 191.94443 231.084513 
L 191.94443 230.051269 
L 192.738699 230.051269 
L 192.738699 229.018025 
L 193.499159 229.018025 
L 193.499159 228.501403 
L 193.867587 228.501403 
L 193.867587 227.984781 
L 194.228571 227.984781 
L 194.228571 226.951537 
L 204.329664 226.951537 
L 204.329664 225.918293 
L 204.928651 225.918293 
L 204.928651 225.401671 
L 205.123933 225.401671 
L 205.123933 224.368427 
L 205.317104 224.368427 
L 205.317104 223.335183 
L 206.069557 223.335183 
L 206.069557 222.818561 
L 208.955034 222.818561 
L 208.955034 222.301939 
L 209.111088 222.301939 
L 209.111088 221.268695 
L 209.871548 221.268695 
L 209.871548 219.718829 
L 210.019832 219.718829 
L 210.019832 218.685585 
L 210.312759 218.685585 
L 210.312759 217.652341 
L 210.457441 217.652341 
L 210.457441 217.135719 
L 210.60096 217.135719 
L 210.60096 216.102475 
L 211.02473 216.102475 
L 211.02473 214.035987 
L 211.163782 214.035987 
L 211.163782 213.519365 
L 211.438682 213.519365 
L 211.438682 213.002743 
L 211.976109 213.002743 
L 211.976109 211.969498 
L 212.62593 211.969498 
L 212.62593 211.452876 
L 213.739183 211.452876 
L 213.739183 210.419632 
L 215.233852 210.419632 
L 215.233852 209.90301 
L 219.44025 209.90301 
L 219.44025 209.386388 
L 220.538873 209.386388 
L 220.538873 208.869766 
L 221.261727 208.869766 
L 221.261727 207.836522 
L 221.573841 207.836522 
L 221.573841 206.286656 
L 221.727878 206.286656 
L 221.727878 205.770034 
L 221.956471 205.770034 
L 221.956471 205.253412 
L 222.107257 205.253412 
L 222.107257 203.703546 
L 222.256782 203.703546 
L 222.331078 202.15368 
L 222.55213 202.15368 
L 222.62521 200.603814 
L 222.77048 200.603814 
L 222.842675 197.504082 
L 222.914579 197.504082 
L 222.986194 194.920972 
L 223.891985 194.920972 
L 223.891985 193.887728 
L 225.452375 193.887728 
L 225.514525 192.854484 
L 225.699689 192.854484 
L 225.699689 191.82124 
L 225.822073 191.82124 
L 225.882953 190.787996 
L 225.943626 190.787996 
L 225.943626 190.271374 
L 226.124418 190.271374 
L 226.124418 189.754752 
L 226.243937 189.754752 
L 226.243937 188.721508 
L 228.998319 188.721508 
L 228.998319 188.204886 
L 231.428888 188.204886 
L 231.473392 186.138398 
L 231.606241 186.138398 
L 231.606241 185.105154 
L 232.256062 185.105154 
L 232.256062 184.07191 
L 232.676508 184.07191 
L 232.718013 182.522044 
L 232.883078 182.522044 
L 232.883078 181.4888 
L 233.005883 181.4888 
L 233.087287 178.389067 
L 233.168322 178.389067 
L 233.168322 176.839201 
L 233.329297 176.839201 
L 233.409244 173.222847 
L 233.449084 173.222847 
L 233.488835 167.540005 
L 233.568073 167.540005 
L 233.568073 166.506761 
L 234.82718 166.506761 
L 234.937364 164.440273 
L 234.973941 164.440273 
L 235.046873 162.890407 
L 235.119507 162.890407 
L 235.227909 158.240809 
L 235.263897 158.240809 
L 235.371429 156.174321 
L 236.546932 156.174321 
L 236.546932 155.657699 
L 237.586824 155.657699 
L 237.586824 155.141077 
L 238.115598 155.141077 
L 238.17679 153.074589 
L 238.268187 153.074589 
L 238.359119 151.524723 
L 238.389327 151.524723 
L 238.479646 148.941613 
L 238.569511 148.941613 
L 238.569511 147.908369 
L 240.196305 147.908369 
L 240.196305 146.358503 
L 240.654141 146.358503 
L 240.654141 145.841881 
L 240.786596 145.841881 
L 240.891858 144.292014 
L 241.281157 144.292014 
L 241.281157 143.775392 
L 276.56781 143.775392 
L 276.653116 134.476196 
L 276.681462 134.476196 
L 276.685001 133.442952 
L 276.826029 133.442952 
L 276.931074 129.309976 
L 276.965953 129.309976 
L 277.007717 128.276732 
L 277.27683 128.276732 
L 277.38267 123.110512 
L 277.51156 123.110512 
L 277.555441 118.460914 
L 277.892743 118.460914 
L 277.988427 114.84456 
L 278.021303 114.84456 
L 278.054119 107.611851 
L 278.168501 107.611851 
L 278.21405 102.445631 
L 278.327416 102.445631 
L 278.38544 99.862521 
L 278.478529 99.862521 
L 278.523295 96.246167 
L 278.71389 96.246167 
L 278.817857 93.663057 
L 288.915594 93.663057 
L 288.988638 84.880483 
L 289.056071 84.880483 
L 289.135599 82.813995 
L 289.25861 82.813995 
L 289.345959 76.097908 
L 289.408587 76.097908 
L 289.425945 72.998176 
L 289.603756 72.998176 
L 289.689438 66.28209 
L 289.732126 66.28209 
L 289.769606 64.215602 
L 289.913684 64.215602 
L 289.913684 63.69898 
L 290.09843 63.69898 
L 290.09843 62.149114 
L 296.174173 62.149114 
L 296.283248 59.566004 
L 296.305692 59.566004 
L 296.321032 58.53276 
L 296.423354 58.53276 
L 296.491244 55.433028 
L 296.608856 55.433028 
L 296.672577 53.883162 
L 296.722238 53.883162 
L 296.73031 51.816674 
L 296.834906 51.816674 
L 296.836052 50.78343 
L 301.299935 50.78343 
L 301.367648 49.233564 
L 301.501426 49.233564 
L 301.548145 45.61721 
L 301.64472 45.61721 
L 301.719862 42.517478 
L 301.805974 42.517478 
L 301.870934 40.967611 
L 305.341103 40.967611 
L 305.446164 39.934367 
L 305.555536 39.934367 
L 305.582247 38.384501 
L 305.748646 38.384501 
L 305.756995 37.351257 
L 308.822069 37.351257 
L 308.856021 36.318013 
L 311.401576 36.318013 
L 311.401576 35.801391 
L 313.680259 35.801391 
L 313.680259 35.284769 
L 313.928976 35.284769 
L 313.928976 34.768147 
L 358.8 34.768147 
L 358.8 34.768147 
" style="fill:none;stroke:#ffa500;stroke-linecap:square;stroke-width:1.5;"/>
   </g>
   <g id="line2d_53">
    <defs>
     <path d="M 0 -6 
L -1.347084 -1.854102 
L -5.706339 -1.854102 
L -2.179628 0.708204 
L -3.526712 4.854102 
L -0 2.291796 
L 3.526712 4.854102 
L 2.179628 0.708204 
L 5.706339 -1.854102 
L 1.347084 -1.854102 
z
" id="m67c1365795" style="stroke:#ffa500;stroke-linejoin:bevel;stroke-width:1.5;"/>
    </defs>
    <g>
     <use style="fill:none;stroke:#ffa500;stroke-linejoin:bevel;stroke-width:1.5;" x="358.8" xlink:href="#m67c1365795" y="34.768147"/>
    </g>
   </g>
   <g id="line2d_54"/>
   <g id="line2d_55">
    <path clip-path="url(#p137e4497c1)" d="M 276.514286 143.775392 
" style="fill:none;stroke:#ffa500;stroke-linecap:square;stroke-width:1.5;"/>
    <defs>
     <path d="M -12 12 
L 12 -12 
M -12 -12 
L 12 12 
" id="mf4e5c66fa8" style="stroke:#ffa500;stroke-width:3;"/>
    </defs>
    <g clip-path="url(#p137e4497c1)">
     <use style="fill:#ffa500;stroke:#ffa500;stroke-width:3;" x="276.514286" xlink:href="#mf4e5c66fa8" y="143.775392"/>
    </g>
   </g>
   <g id="line2d_56">
    <defs>
     <path d="M 0 1.5 
C 0.397805 1.5 0.77937 1.341951 1.06066 1.06066 
C 1.341951 0.77937 1.5 0.397805 1.5 0 
C 1.5 -0.397805 1.341951 -0.77937 1.06066 -1.06066 
C 0.77937 -1.341951 0.397805 -1.5 0 -1.5 
C -0.397805 -1.5 -0.77937 -1.341951 -1.06066 -1.06066 
C -1.341951 -0.77937 -1.5 -0.397805 -1.5 0 
C -1.5 0.397805 -1.341951 0.77937 -1.06066 1.06066 
C -0.77937 1.341951 -0.397805 1.5 0 1.5 
z
" id="mbae5aa63af" style="stroke:#6495ed;"/>
    </defs>
    <g>
     <use style="fill:#6495ed;stroke:#6495ed;" x="338.579287" xlink:href="#mbae5aa63af" y="34.768147"/>
     <use style="fill:#6495ed;stroke:#6495ed;" x="338.579287" xlink:href="#mbae5aa63af" y="34.768147"/>
    </g>
   </g>
   <g id="line2d_57">
    <path d="M 136.713325 298.245375 
L 136.713325 297.728753 
L 143.958223 297.728753 
L 143.958223 287.396313 
L 149.098559 287.396313 
L 149.098559 273.447518 
L 153.085714 273.447518 
L 153.085714 263.6317 
L 156.343457 263.6317 
L 156.343457 260.015346 
L 159.097839 260.015346 
L 159.097839 256.915614 
L 161.483794 256.915614 
L 161.483794 254.849126 
L 163.588354 254.849126 
L 163.588354 254.332504 
L 165.470948 254.332504 
L 165.470948 251.749394 
L 170.158903 251.749394 
L 170.158903 251.232772 
L 171.483073 251.232772 
L 171.483073 250.71615 
L 172.715846 250.71615 
L 172.715846 249.682906 
L 173.869028 249.682906 
L 173.869028 249.166284 
L 174.952275 249.166284 
L 174.952275 248.649662 
L 178.727971 248.649662 
L 178.727971 248.13304 
L 182.544138 248.13304 
L 182.544138 247.616418 
L 184.495323 247.616418 
L 184.495323 246.583173 
L 187.855462 246.583173 
L 187.855462 246.066551 
L 188.848391 246.066551 
L 188.848391 245.549929 
L 189.324902 245.549929 
L 189.324902 244.516685 
L 190.682627 244.516685 
L 190.682627 244.000063 
L 221.804401 244.000063 
L 221.804401 242.966819 
L 222.405066 242.966819 
L 222.405066 241.933575 
L 222.77048 241.933575 
L 222.77048 241.416953 
L 228.844504 241.416953 
L 228.895923 239.867087 
L 229.991248 239.867087 
L 229.991248 239.350465 
L 230.18338 239.350465 
L 230.18338 238.833843 
L 230.931892 238.833843 
L 230.931892 237.283977 
L 233.248991 237.283977 
L 233.248991 236.250733 
L 233.488835 236.250733 
L 233.488835 235.734111 
L 235.407129 235.734111 
L 235.407129 234.184245 
L 235.549222 234.184245 
L 235.549222 233.667623 
L 235.795198 233.667623 
L 235.795198 233.151001 
L 237.074442 233.151001 
L 237.074442 232.634379 
L 238.268187 232.634379 
L 238.268187 231.601135 
L 238.449591 231.601135 
L 238.449591 230.567891 
L 239.444145 230.567891 
L 239.444145 230.051269 
L 241.637006 230.051269 
L 241.637006 229.534647 
L 242.255342 229.534647 
L 242.255342 228.501403 
L 242.424709 228.501403 
L 242.448774 227.468159 
L 242.54471 227.468159 
L 242.568614 225.401671 
L 243.814122 225.401671 
L 243.814122 223.851805 
L 244.641296 223.851805 
L 244.683789 221.268695 
L 244.831722 221.268695 
L 244.894749 219.718829 
L 245.614092 219.718829 
L 245.614092 219.202207 
L 246.517507 219.202207 
L 246.517507 218.685585 
L 247.157066 218.685585 
L 247.157066 217.135719 
L 247.631146 217.135719 
L 247.738786 214.035987 
L 247.756663 214.035987 
L 247.756663 213.519365 
L 248.371351 213.519365 
L 248.457463 211.452876 
L 248.526055 211.452876 
L 248.611426 207.836522 
L 250.744353 207.836522 
L 250.744353 207.3199 
L 250.879889 207.3199 
L 250.9846 205.770034 
L 251.014405 205.770034 
L 251.014405 205.253412 
L 251.715206 205.253412 
L 251.715206 203.703546 
L 253.039375 203.703546 
L 253.039375 203.186924 
L 264.271428 203.186924 
L 264.271428 202.670302 
L 277.856315 202.670302 
L 277.882815 201.120436 
L 278.054119 201.120436 
L 278.054119 200.087192 
L 278.233535 200.087192 
L 278.233535 199.053948 
L 278.500926 199.053948 
L 278.500926 198.537326 
L 278.691758 198.537326 
L 278.691758 198.020704 
L 278.955546 198.020704 
L 278.996024 195.954216 
L 279.166272 195.954216 
L 279.166272 195.437594 
L 279.286017 195.437594 
L 279.325755 190.271374 
L 279.453537 190.271374 
L 279.453537 189.23813 
L 279.628509 189.23813 
L 279.673483 188.204886 
L 279.75117 188.204886 
L 279.777983 185.621776 
L 279.91145 185.621776 
L 279.917359 182.522044 
L 280.30597 182.522044 
L 280.352156 180.455556 
L 280.495722 180.455556 
L 280.495722 178.90569 
L 289.555594 178.90569 
L 289.583131 176.322579 
L 289.918748 176.322579 
L 290.021405 171.672981 
L 290.111792 171.672981 
L 290.188429 170.123115 
L 290.274669 170.123115 
L 290.350612 167.023383 
L 290.429515 167.023383 
L 290.429515 165.990139 
L 290.548848 165.990139 
L 290.600909 161.857163 
L 290.66739 161.857163 
L 290.681951 157.724187 
L 290.89575 157.724187 
L 291.000904 151.524723 
L 296.603052 151.524723 
L 296.603052 150.491479 
L 296.830321 150.491479 
L 296.900112 146.358503 
L 296.961667 146.358503 
L 297.012802 144.292014 
L 297.11689 144.292014 
L 297.185573 142.225526 
L 297.260708 142.225526 
L 297.352237 139.642416 
L 297.512947 139.642416 
L 297.566931 138.09255 
L 298.932462 138.09255 
L 298.932462 137.059306 
L 301.629829 137.059306 
L 301.636838 136.026062 
L 301.801634 136.026062 
L 301.852769 132.409708 
L 301.927043 132.409708 
L 302.030169 128.276732 
L 302.060135 128.276732 
L 302.156542 123.110512 
L 302.196488 123.110512 
L 302.278648 122.077268 
L 302.320852 122.077268 
L 302.36632 120.01078 
L 302.443519 120.01078 
L 302.443519 118.977536 
L 303.415502 118.977536 
L 303.415502 118.460914 
L 305.537236 118.460914 
L 305.554129 115.877804 
L 305.690792 115.877804 
L 305.79174 112.778072 
L 305.86172 112.778072 
L 305.972709 108.128473 
L 305.996746 108.128473 
L 306.103491 105.028741 
L 306.10963 105.028741 
L 306.142336 103.478875 
L 308.879983 103.478875 
L 308.910327 101.929009 
L 309.022503 101.929009 
L 309.114967 99.345899 
L 309.142614 99.345899 
L 309.227015 98.312655 
L 309.255061 98.312655 
L 309.255061 97.796033 
L 311.540003 97.796033 
L 311.610821 96.246167 
L 311.653878 96.246167 
L 311.713785 92.629813 
L 311.787394 92.629813 
L 311.8854 89.013459 
L 311.910064 89.013459 
L 311.957323 87.463593 
L 313.843358 87.463593 
L 313.953615 84.363861 
L 313.956253 84.363861 
L 314.040895 82.813995 
L 314.173845 82.813995 
L 314.260491 81.264129 
L 315.928739 81.264129 
L 316.029232 80.230885 
L 316.067162 80.230885 
L 316.167271 76.097908 
L 316.180861 76.097908 
L 316.261412 72.998176 
L 316.300396 72.998176 
L 316.300396 71.964932 
L 317.865693 71.964932 
L 317.955185 68.348578 
L 317.994154 68.348578 
L 318.097656 64.732224 
L 318.131096 64.732224 
L 318.131096 64.215602 
L 319.48641 64.215602 
L 319.48641 63.69898 
L 319.634828 63.69898 
L 319.728001 62.149114 
L 319.761068 62.149114 
L 319.761068 60.599248 
L 321.030652 60.599248 
L 321.09091 59.566004 
L 321.165947 59.566004 
L 321.223995 58.53276 
L 321.28273 58.53276 
L 321.309549 57.499516 
L 322.521803 57.499516 
L 322.63116 54.399784 
L 322.684914 54.399784 
L 322.684914 53.36654 
L 323.81848 53.36654 
L 323.882913 50.78343 
L 323.971477 50.78343 
L 323.971477 50.266808 
L 324.994714 50.266808 
L 324.994714 49.233564 
L 325.127419 49.233564 
L 325.149754 48.20032 
L 326.188733 48.20032 
L 326.233016 46.650454 
L 327.220266 46.650454 
L 327.316264 45.100588 
L 327.417958 45.100588 
L 327.417958 44.583966 
L 328.327746 44.583966 
L 328.327746 44.067344 
L 329.246954 44.067344 
L 329.34848 42.000855 
L 330.191665 42.000855 
L 330.191665 41.484233 
L 331.08269 41.484233 
L 331.08269 40.967611 
L 331.881481 40.967611 
L 331.882287 39.934367 
L 332.694363 39.934367 
L 332.747273 38.901123 
L 333.448256 38.901123 
L 333.448256 38.384501 
L 334.84528 38.384501 
L 334.846236 37.351257 
L 335.516831 37.351257 
L 335.516831 36.834635 
L 336.169001 36.834635 
L 336.169001 36.318013 
L 338.009938 36.318013 
L 338.009938 35.284769 
L 338.579287 35.284769 
L 338.579287 34.768147 
L 358.8 34.768147 
L 358.8 34.768147 
" style="fill:none;stroke:#6495ed;stroke-linecap:square;stroke-width:1.5;"/>
   </g>
   <g id="line2d_58">
    <defs>
     <path d="M -0 6 
L 6 -6 
L -6 -6 
z
" id="m09c4d678b4" style="stroke:#6495ed;stroke-linejoin:miter;stroke-width:1.5;"/>
    </defs>
    <g>
     <use style="fill:none;stroke:#6495ed;stroke-linejoin:miter;stroke-width:1.5;" x="358.8" xlink:href="#m09c4d678b4" y="34.768147"/>
    </g>
   </g>
   <g id="line2d_59"/>
   <g id="line2d_60">
    <path clip-path="url(#p137e4497c1)" d="M 276.514286 202.670302 
" style="fill:none;stroke:#6495ed;stroke-linecap:square;stroke-width:1.5;"/>
    <defs>
     <path d="M -12 12 
L 12 -12 
M -12 -12 
L 12 12 
" id="mb3776781e9" style="stroke:#6495ed;stroke-width:3;"/>
    </defs>
    <g clip-path="url(#p137e4497c1)">
     <use style="fill:#6495ed;stroke:#6495ed;stroke-width:3;" x="276.514286" xlink:href="#mb3776781e9" y="202.670302"/>
    </g>
   </g>
   <g id="line2d_61">
    <defs>
     <path d="M 0 1.5 
C 0.397805 1.5 0.77937 1.341951 1.06066 1.06066 
C 1.341951 0.77937 1.5 0.397805 1.5 0 
C 1.5 -0.397805 1.341951 -0.77937 1.06066 -1.06066 
C 0.77937 -1.341951 0.397805 -1.5 0 -1.5 
C -0.397805 -1.5 -0.77937 -1.341951 -1.06066 -1.06066 
C -1.341951 -0.77937 -1.5 -0.397805 -1.5 0 
C -1.5 0.397805 -1.341951 0.77937 -1.06066 1.06066 
C -0.77937 1.341951 -0.397805 1.5 0 1.5 
z
" id="m5f9e8327b6" style="stroke:#ff0000;"/>
    </defs>
    <g>
     <use style="fill:#ff0000;stroke:#ff0000;" x="330.175888" xlink:href="#m5f9e8327b6" y="272.414274"/>
     <use style="fill:#ff0000;stroke:#ff0000;" x="330.175888" xlink:href="#m5f9e8327b6" y="272.414274"/>
    </g>
   </g>
   <g id="line2d_62">
    <path d="M 136.713325 298.245375 
L 136.713325 296.695509 
L 143.958223 296.695509 
L 143.958223 294.112399 
L 149.098559 294.112399 
L 149.098559 293.079155 
L 156.343457 293.079155 
L 156.343457 292.562533 
L 159.097839 292.562533 
L 159.097839 292.045911 
L 163.588354 292.045911 
L 163.588354 291.012667 
L 167.173962 291.012667 
L 167.173962 289.979423 
L 171.483073 289.979423 
L 171.483073 288.429557 
L 178.727971 288.429557 
L 178.727971 287.912935 
L 182.544138 287.912935 
L 182.544138 286.363069 
L 215.669681 286.363069 
L 215.669681 285.846447 
L 216.613085 285.846447 
L 216.613085 284.296581 
L 222.77048 284.296581 
L 222.77048 283.779959 
L 229.251772 283.779959 
L 229.251772 283.263337 
L 230.278677 283.263337 
L 230.278677 282.746715 
L 230.793914 282.746715 
L 230.793914 281.713471 
L 231.294709 281.713471 
L 231.294709 281.196849 
L 236.20915 281.196849 
L 236.20915 280.680226 
L 236.613728 280.680226 
L 236.613728 280.163604 
L 241.409061 280.163604 
L 241.409061 279.13036 
L 242.616326 279.13036 
L 242.616326 278.613738 
L 243.634992 278.613738 
L 243.634992 278.097116 
L 289.577971 278.097116 
L 289.577971 277.580494 
L 301.757315 277.580494 
L 301.757315 277.063872 
L 305.800069 277.063872 
L 305.800069 276.030628 
L 308.970862 276.030628 
L 308.970862 275.514006 
L 311.662877 275.514006 
L 311.662877 274.997384 
L 314.001913 274.997384 
L 314.001913 274.480762 
L 321.136853 274.480762 
L 321.136853 273.96414 
L 323.859694 273.96414 
L 323.859694 273.447518 
L 325.079834 273.447518 
L 325.079834 272.930896 
L 330.175888 272.930896 
L 330.175888 272.414274 
L 358.8 272.414274 
" style="fill:none;stroke:#ff0000;stroke-linecap:square;stroke-width:1.5;"/>
   </g>
   <g id="line2d_63">
    <defs>
     <path d="M 0 -6 
L -5.196152 -3 
L -5.196152 3 
L -0 6 
L 5.196152 3 
L 5.196152 -3 
z
" id="m496d2fb5d2" style="stroke:#ff0000;stroke-linejoin:miter;stroke-width:1.5;"/>
    </defs>
    <g>
     <use style="fill:none;stroke:#ff0000;stroke-linejoin:miter;stroke-width:1.5;" x="358.8" xlink:href="#m496d2fb5d2" y="272.414274"/>
    </g>
   </g>
   <g id="line2d_64"/>
   <g id="line2d_65">
    <path clip-path="url(#p137e4497c1)" d="M 276.514286 278.097116 
" style="fill:none;stroke:#ff0000;stroke-linecap:square;stroke-width:1.5;"/>
    <defs>
     <path d="M -12 12 
L 12 -12 
M -12 -12 
L 12 12 
" id="m0fd7b4747f" style="stroke:#ff0000;stroke-width:3;"/>
    </defs>
    <g clip-path="url(#p137e4497c1)">
     <use style="fill:#ff0000;stroke:#ff0000;stroke-width:3;" x="276.514286" xlink:href="#m0fd7b4747f" y="278.097116"/>
    </g>
   </g>
   <g id="line2d_66">
    <path d="M 358.8 272.414274 
L 390.48 292.97583 
" style="fill:none;stroke:#ff0000;stroke-linecap:square;stroke-width:1.5;"/>
    <g>
     <use style="fill:none;stroke:#ff0000;stroke-linejoin:miter;stroke-width:1.5;" x="358.8" xlink:href="#m496d2fb5d2" y="272.414274"/>
     <use style="fill:none;stroke:#ff0000;stroke-linejoin:miter;stroke-width:1.5;" x="390.48" xlink:href="#m496d2fb5d2" y="292.97583"/>
    </g>
   </g>
   <g id="line2d_67">
    <path d="M 358.8 215.585853 
L 390.48 229.741296 
" style="fill:none;stroke:#000080;stroke-linecap:square;stroke-width:1.5;"/>
    <g>
     <use style="fill:none;stroke:#000080;stroke-width:1.5;" x="358.8" xlink:href="#m597145e028" y="215.585853"/>
     <use style="fill:none;stroke:#000080;stroke-width:1.5;" x="390.48" xlink:href="#m597145e028" y="229.741296"/>
    </g>
   </g>
   <g id="line2d_68">
    <path d="M 358.8 34.768147 
L 390.48 166.506761 
" style="fill:none;stroke:#6495ed;stroke-linecap:square;stroke-width:1.5;"/>
    <g>
     <use style="fill:none;stroke:#6495ed;stroke-linejoin:miter;stroke-width:1.5;" x="358.8" xlink:href="#m09c4d678b4" y="34.768147"/>
     <use style="fill:none;stroke:#6495ed;stroke-linejoin:miter;stroke-width:1.5;" x="390.48" xlink:href="#m09c4d678b4" y="166.506761"/>
    </g>
   </g>
   <g id="line2d_69">
    <path d="M 358.8 34.768147 
L 390.48 103.272226 
" style="fill:none;stroke:#ffa500;stroke-linecap:square;stroke-width:1.5;"/>
    <g>
     <use style="fill:none;stroke:#ffa500;stroke-linejoin:bevel;stroke-width:1.5;" x="358.8" xlink:href="#m67c1365795" y="34.768147"/>
     <use style="fill:none;stroke:#ffa500;stroke-linejoin:bevel;stroke-width:1.5;" x="390.48" xlink:href="#m67c1365795" y="103.272226"/>
    </g>
   </g>
   <g id="line2d_70">
    <path d="M 358.8 34.768147 
L 390.48 40.037692 
" style="fill:none;stroke:#ff00ff;stroke-linecap:square;stroke-width:1.5;"/>
    <g>
     <use style="fill:none;stroke:#ff00ff;stroke-linejoin:miter;stroke-width:1.5;" x="358.8" xlink:href="#m9036beef07" y="34.768147"/>
     <use style="fill:none;stroke:#ff00ff;stroke-linejoin:miter;stroke-width:1.5;" x="390.48" xlink:href="#m9036beef07" y="40.037692"/>
    </g>
   </g>
   <g id="line2d_71">
    <path d="M 358.8 298.245375 
L 358.8 34.768147 
" style="fill:none;stroke:#000000;stroke-linecap:square;stroke-width:1.5;"/>
   </g>
   <g id="patch_3">
    <path d="M 70.8 298.245375 
L 70.8 32.133375 
" style="fill:none;stroke:#000000;stroke-linecap:square;stroke-linejoin:miter;stroke-width:0.8;"/>
   </g>
   <g id="patch_4">
    <path d="M 427.92 298.245375 
L 427.92 32.133375 
" style="fill:none;stroke:#000000;stroke-linecap:square;stroke-linejoin:miter;stroke-width:0.8;"/>
   </g>
   <g id="patch_5">
    <path d="M 70.8 298.245375 
L 427.92 298.245375 
" style="fill:none;stroke:#000000;stroke-linecap:square;stroke-linejoin:miter;stroke-width:0.8;"/>
   </g>
   <g id="patch_6">
    <path d="M 70.8 32.133375 
L 427.92 32.133375 
" style="fill:none;stroke:#000000;stroke-linecap:square;stroke-linejoin:miter;stroke-width:0.8;"/>
   </g>
   <g id="text_14">
    <!-- f24 -->
    <g transform="translate(396.24 297.114893)scale(0.15 -0.15)">
     <use xlink:href="#DejaVuSans-66"/>
     <use x="35.205078" xlink:href="#DejaVuSans-32"/>
     <use x="98.828125" xlink:href="#DejaVuSans-34"/>
    </g>
   </g>
   <g id="text_15">
    <!-- f23 -->
    <defs>
     <path d="M 40.578125 39.3125 
Q 47.65625 37.796875 51.625 33 
Q 55.609375 28.21875 55.609375 21.1875 
Q 55.609375 10.40625 48.1875 4.484375 
Q 40.765625 -1.421875 27.09375 -1.421875 
Q 22.515625 -1.421875 17.65625 -0.515625 
Q 12.796875 0.390625 7.625 2.203125 
L 7.625 11.71875 
Q 11.71875 9.328125 16.59375 8.109375 
Q 21.484375 6.890625 26.8125 6.890625 
Q 36.078125 6.890625 40.9375 10.546875 
Q 45.796875 14.203125 45.796875 21.1875 
Q 45.796875 27.640625 41.28125 31.265625 
Q 36.765625 34.90625 28.71875 34.90625 
L 20.21875 34.90625 
L 20.21875 43.015625 
L 29.109375 43.015625 
Q 36.375 43.015625 40.234375 45.921875 
Q 44.09375 48.828125 44.09375 54.296875 
Q 44.09375 59.90625 40.109375 62.90625 
Q 36.140625 65.921875 28.71875 65.921875 
Q 24.65625 65.921875 20.015625 65.03125 
Q 15.375 64.15625 9.8125 62.3125 
L 9.8125 71.09375 
Q 15.4375 72.65625 20.34375 73.4375 
Q 25.25 74.21875 29.59375 74.21875 
Q 40.828125 74.21875 47.359375 69.109375 
Q 53.90625 64.015625 53.90625 55.328125 
Q 53.90625 49.265625 50.4375 45.09375 
Q 46.96875 40.921875 40.578125 39.3125 
" id="DejaVuSans-33"/>
    </defs>
    <g transform="translate(396.24 233.880358)scale(0.15 -0.15)">
     <use xlink:href="#DejaVuSans-66"/>
     <use x="35.205078" xlink:href="#DejaVuSans-32"/>
     <use x="98.828125" xlink:href="#DejaVuSans-33"/>
    </g>
   </g>
   <g id="text_16">
    <!-- f20 -->
    <g transform="translate(396.24 170.645824)scale(0.15 -0.15)">
     <use xlink:href="#DejaVuSans-66"/>
     <use x="35.205078" xlink:href="#DejaVuSans-32"/>
     <use x="98.828125" xlink:href="#DejaVuSans-30"/>
    </g>
   </g>
   <g id="text_17">
    <!-- f21 -->
    <g transform="translate(396.24 107.411289)scale(0.15 -0.15)">
     <use xlink:href="#DejaVuSans-66"/>
     <use x="35.205078" xlink:href="#DejaVuSans-32"/>
     <use x="98.828125" xlink:href="#DejaVuSans-31"/>
    </g>
   </g>
   <g id="text_18">
    <!-- f22 -->
    <g transform="translate(396.24 44.176754)scale(0.15 -0.15)">
     <use xlink:href="#DejaVuSans-66"/>
     <use x="35.205078" xlink:href="#DejaVuSans-32"/>
     <use x="98.828125" xlink:href="#DejaVuSans-32"/>
    </g>
   </g>
   <g id="text_19">
    <!-- bbob -->
    <defs>
     <path d="M 48.6875 27.296875 
Q 48.6875 37.203125 44.609375 42.84375 
Q 40.53125 48.484375 33.40625 48.484375 
Q 26.265625 48.484375 22.1875 42.84375 
Q 18.109375 37.203125 18.109375 27.296875 
Q 18.109375 17.390625 22.1875 11.75 
Q 26.265625 6.109375 33.40625 6.109375 
Q 40.53125 6.109375 44.609375 11.75 
Q 48.6875 17.390625 48.6875 27.296875 
M 18.109375 46.390625 
Q 20.953125 51.265625 25.265625 53.625 
Q 29.59375 56 35.59375 56 
Q 45.5625 56 51.78125 48.09375 
Q 58.015625 40.1875 58.015625 27.296875 
Q 58.015625 14.40625 51.78125 6.484375 
Q 45.5625 -1.421875 35.59375 -1.421875 
Q 29.59375 -1.421875 25.265625 0.953125 
Q 20.953125 3.328125 18.109375 8.203125 
L 18.109375 0 
L 9.078125 0 
L 9.078125 75.984375 
L 18.109375 75.984375 
z
" id="DejaVuSans-62"/>
    </defs>
    <g transform="translate(74.3712 50.114612)scale(0.1666 -0.1666)">
     <use xlink:href="#DejaVuSans-62"/>
     <use x="63.476562" xlink:href="#DejaVuSans-62"/>
     <use x="126.953125" xlink:href="#DejaVuSans-6f"/>
     <use x="188.134766" xlink:href="#DejaVuSans-62"/>
    </g>
    <!-- Weak structure functions, 10-D -->
    <defs>
     <path d="M 3.328125 72.90625 
L 13.28125 72.90625 
L 28.609375 11.28125 
L 43.890625 72.90625 
L 54.984375 72.90625 
L 70.3125 11.28125 
L 85.59375 72.90625 
L 95.609375 72.90625 
L 77.296875 0 
L 64.890625 0 
L 49.515625 63.28125 
L 33.984375 0 
L 21.578125 0 
z
" id="DejaVuSans-57"/>
     <path d="M 9.078125 75.984375 
L 18.109375 75.984375 
L 18.109375 31.109375 
L 44.921875 54.6875 
L 56.390625 54.6875 
L 27.390625 29.109375 
L 57.625 0 
L 45.90625 0 
L 18.109375 26.703125 
L 18.109375 0 
L 9.078125 0 
z
" id="DejaVuSans-6b"/>
     <path d="M 11.71875 12.40625 
L 22.015625 12.40625 
L 22.015625 4 
L 14.015625 -11.625 
L 7.71875 -11.625 
L 11.71875 4 
z
" id="DejaVuSans-2c"/>
     <path d="M 19.671875 64.796875 
L 19.671875 8.109375 
L 31.59375 8.109375 
Q 46.6875 8.109375 53.6875 14.9375 
Q 60.6875 21.78125 60.6875 36.53125 
Q 60.6875 51.171875 53.6875 57.984375 
Q 46.6875 64.796875 31.59375 64.796875 
z
M 9.8125 72.90625 
L 30.078125 72.90625 
Q 51.265625 72.90625 61.171875 64.09375 
Q 71.09375 55.28125 71.09375 36.53125 
Q 71.09375 17.671875 61.125 8.828125 
Q 51.171875 0 30.078125 0 
L 9.8125 0 
z
" id="DejaVuSans-44"/>
    </defs>
    <g transform="translate(74.3712 68.770168)scale(0.1666 -0.1666)">
     <use xlink:href="#DejaVuSans-57"/>
     <use x="98.798828" xlink:href="#DejaVuSans-65"/>
     <use x="160.322266" xlink:href="#DejaVuSans-61"/>
     <use x="221.601562" xlink:href="#DejaVuSans-6b"/>
     <use x="279.511719" xlink:href="#DejaVuSans-20"/>
     <use x="311.298828" xlink:href="#DejaVuSans-73"/>
     <use x="363.398438" xlink:href="#DejaVuSans-74"/>
     <use x="402.607422" xlink:href="#DejaVuSans-72"/>
     <use x="443.720703" xlink:href="#DejaVuSans-75"/>
     <use x="507.099609" xlink:href="#DejaVuSans-63"/>
     <use x="562.080078" xlink:href="#DejaVuSans-74"/>
     <use x="601.289062" xlink:href="#DejaVuSans-75"/>
     <use x="664.667969" xlink:href="#DejaVuSans-72"/>
     <use x="705.75" xlink:href="#DejaVuSans-65"/>
     <use x="767.273438" xlink:href="#DejaVuSans-20"/>
     <use x="799.060547" xlink:href="#DejaVuSans-66"/>
     <use x="834.265625" xlink:href="#DejaVuSans-75"/>
     <use x="897.644531" xlink:href="#DejaVuSans-6e"/>
     <use x="961.023438" xlink:href="#DejaVuSans-63"/>
     <use x="1016.003906" xlink:href="#DejaVuSans-74"/>
     <use x="1055.212891" xlink:href="#DejaVuSans-69"/>
     <use x="1082.996094" xlink:href="#DejaVuSans-6f"/>
     <use x="1144.177734" xlink:href="#DejaVuSans-6e"/>
     <use x="1207.556641" xlink:href="#DejaVuSans-73"/>
     <use x="1259.65625" xlink:href="#DejaVuSans-2c"/>
     <use x="1291.443359" xlink:href="#DejaVuSans-20"/>
     <use x="1323.230469" xlink:href="#DejaVuSans-31"/>
     <use x="1386.853516" xlink:href="#DejaVuSans-30"/>
     <use x="1450.476562" xlink:href="#DejaVuSans-2d"/>
     <use x="1486.560547" xlink:href="#DejaVuSans-44"/>
    </g>
    <!-- 51 targets in 100..1e-08 -->
    <defs>
     <path d="M 10.796875 72.90625 
L 49.515625 72.90625 
L 49.515625 64.59375 
L 19.828125 64.59375 
L 19.828125 46.734375 
Q 21.96875 47.46875 24.109375 47.828125 
Q 26.265625 48.1875 28.421875 48.1875 
Q 40.625 48.1875 47.75 41.5 
Q 54.890625 34.8125 54.890625 23.390625 
Q 54.890625 11.625 47.5625 5.09375 
Q 40.234375 -1.421875 26.90625 -1.421875 
Q 22.3125 -1.421875 17.546875 -0.640625 
Q 12.796875 0.140625 7.71875 1.703125 
L 7.71875 11.625 
Q 12.109375 9.234375 16.796875 8.0625 
Q 21.484375 6.890625 26.703125 6.890625 
Q 35.15625 6.890625 40.078125 11.328125 
Q 45.015625 15.765625 45.015625 23.390625 
Q 45.015625 31 40.078125 35.4375 
Q 35.15625 39.890625 26.703125 39.890625 
Q 22.75 39.890625 18.8125 39.015625 
Q 14.890625 38.140625 10.796875 36.28125 
z
" id="DejaVuSans-35"/>
    </defs>
    <g transform="translate(74.3712 87.425723)scale(0.1666 -0.1666)">
     <use xlink:href="#DejaVuSans-35"/>
     <use x="63.623047" xlink:href="#DejaVuSans-31"/>
     <use x="127.246094" xlink:href="#DejaVuSans-20"/>
     <use x="159.033203" xlink:href="#DejaVuSans-74"/>
     <use x="198.242188" xlink:href="#DejaVuSans-61"/>
     <use x="259.521484" xlink:href="#DejaVuSans-72"/>
     <use x="300.619141" xlink:href="#DejaVuSans-67"/>
     <use x="364.095703" xlink:href="#DejaVuSans-65"/>
     <use x="425.619141" xlink:href="#DejaVuSans-74"/>
     <use x="464.828125" xlink:href="#DejaVuSans-73"/>
     <use x="516.927734" xlink:href="#DejaVuSans-20"/>
     <use x="548.714844" xlink:href="#DejaVuSans-69"/>
     <use x="576.498047" xlink:href="#DejaVuSans-6e"/>
     <use x="639.876953" xlink:href="#DejaVuSans-20"/>
     <use x="671.664062" xlink:href="#DejaVuSans-31"/>
     <use x="735.287109" xlink:href="#DejaVuSans-30"/>
     <use x="798.910156" xlink:href="#DejaVuSans-30"/>
     <use x="862.533203" xlink:href="#DejaVuSans-2e"/>
     <use x="894.320312" xlink:href="#DejaVuSans-2e"/>
     <use x="926.107422" xlink:href="#DejaVuSans-31"/>
     <use x="989.730469" xlink:href="#DejaVuSans-65"/>
     <use x="1051.253906" xlink:href="#DejaVuSans-2d"/>
     <use x="1087.337891" xlink:href="#DejaVuSans-30"/>
     <use x="1150.960938" xlink:href="#DejaVuSans-38"/>
    </g>
    <!-- 15 instances -->
    <g transform="translate(74.3712 106.081279)scale(0.1666 -0.1666)">
     <use xlink:href="#DejaVuSans-31"/>
     <use x="63.623047" xlink:href="#DejaVuSans-35"/>
     <use x="127.246094" xlink:href="#DejaVuSans-20"/>
     <use x="159.033203" xlink:href="#DejaVuSans-69"/>
     <use x="186.816406" xlink:href="#DejaVuSans-6e"/>
     <use x="250.195312" xlink:href="#DejaVuSans-73"/>
     <use x="302.294922" xlink:href="#DejaVuSans-74"/>
     <use x="341.503906" xlink:href="#DejaVuSans-61"/>
     <use x="402.783203" xlink:href="#DejaVuSans-6e"/>
     <use x="466.162109" xlink:href="#DejaVuSans-63"/>
     <use x="521.142578" xlink:href="#DejaVuSans-65"/>
     <use x="582.666016" xlink:href="#DejaVuSans-73"/>
    </g>
   </g>
   <g id="text_20">
    <!-- v2.0.1 -->
    <g style="fill:#808080;" transform="translate(233.67875 293.504568)scale(0.1 -0.1)">
     <use xlink:href="#DejaVuSans-76"/>
     <use x="59.179688" xlink:href="#DejaVuSans-32"/>
     <use x="122.802734" xlink:href="#DejaVuSans-2e"/>
     <use x="154.589844" xlink:href="#DejaVuSans-30"/>
     <use x="218.212891" xlink:href="#DejaVuSans-2e"/>
     <use x="250" xlink:href="#DejaVuSans-31"/>
    </g>
   </g>
  </g>
 </g>
 <defs>
  <clipPath id="p137e4497c1">
   <rect height="266.112" width="357.12" x="70.8" y="32.133375"/>
  </clipPath>
 </defs>
</svg>
