<?xml version="1.0" encoding="utf-8" standalone="no"?>
<!DOCTYPE svg PUBLIC "-//W3C//DTD SVG 1.1//EN"
  "http://www.w3.org/Graphics/SVG/1.1/DTD/svg11.dtd">
<!-- Created with matplotlib (http://matplotlib.org/) -->
<svg height="353pt" version="1.1" viewBox="0 0 439 353" width="439pt" xmlns="http://www.w3.org/2000/svg" xmlns:xlink="http://www.w3.org/1999/xlink">
 <defs>
  <style type="text/css">
*{stroke-linecap:butt;stroke-linejoin:round;}
  </style>
 </defs>
 <g id="figure_1">
  <g id="patch_1">
   <path d="M 0 353.22225 
L 439.489219 353.22225 
L 439.489219 0 
L 0 0 
z
" style="fill:#ffffff;"/>
  </g>
  <g id="axes_1">
   <g id="patch_2">
    <path d="M 70.8 298.245375 
L 427.92 298.245375 
L 427.92 32.133375 
L 70.8 32.133375 
z
" style="fill:#ffffff;"/>
   </g>
   <g id="matplotlib.axis_1">
    <g id="xtick_1">
     <g id="line2d_1">
      <path clip-path="url(#pac5d789c8f)" d="M 70.8 298.245375 
L 70.8 32.133375 
" style="fill:none;stroke:#b0b0b0;stroke-linecap:square;stroke-width:0.8;"/>
     </g>
     <g id="line2d_2">
      <defs>
       <path d="M 0 0 
L 0 3.5 
" id="m08a1cd72c7" style="stroke:#000000;stroke-width:0.8;"/>
      </defs>
      <g>
       <use style="stroke:#000000;stroke-width:0.8;" x="70.8" xlink:href="#m08a1cd72c7" y="298.245375"/>
      </g>
     </g>
     <g id="text_1">
      <!-- 0 -->
      <defs>
       <path d="M 31.78125 66.40625 
Q 24.171875 66.40625 20.328125 58.90625 
Q 16.5 51.421875 16.5 36.375 
Q 16.5 21.390625 20.328125 13.890625 
Q 24.171875 6.390625 31.78125 6.390625 
Q 39.453125 6.390625 43.28125 13.890625 
Q 47.125 21.390625 47.125 36.375 
Q 47.125 51.421875 43.28125 58.90625 
Q 39.453125 66.40625 31.78125 66.40625 
M 31.78125 74.21875 
Q 44.046875 74.21875 50.515625 64.515625 
Q 56.984375 54.828125 56.984375 36.375 
Q 56.984375 17.96875 50.515625 8.265625 
Q 44.046875 -1.421875 31.78125 -1.421875 
Q 19.53125 -1.421875 13.0625 8.265625 
Q 6.59375 17.96875 6.59375 36.375 
Q 6.59375 54.828125 13.0625 64.515625 
Q 19.53125 74.21875 31.78125 74.21875 
" id="DejaVuSans-30"/>
      </defs>
      <g transform="translate(64.4375 320.44225)scale(0.2 -0.2)">
       <use xlink:href="#DejaVuSans-30"/>
      </g>
     </g>
    </g>
    <g id="xtick_2">
     <g id="line2d_3">
      <path clip-path="url(#pac5d789c8f)" d="M 153.085714 298.245375 
L 153.085714 32.133375 
" style="fill:none;stroke:#b0b0b0;stroke-linecap:square;stroke-width:0.8;"/>
     </g>
     <g id="line2d_4">
      <g>
       <use style="stroke:#000000;stroke-width:0.8;" x="153.085714" xlink:href="#m08a1cd72c7" y="298.245375"/>
      </g>
     </g>
     <g id="text_2">
      <!-- 2 -->
      <defs>
       <path d="M 19.1875 8.296875 
L 53.609375 8.296875 
L 53.609375 0 
L 7.328125 0 
L 7.328125 8.296875 
Q 12.9375 14.109375 22.625 23.890625 
Q 32.328125 33.6875 34.8125 36.53125 
Q 39.546875 41.84375 41.421875 45.53125 
Q 43.3125 49.21875 43.3125 52.78125 
Q 43.3125 58.59375 39.234375 62.25 
Q 35.15625 65.921875 28.609375 65.921875 
Q 23.96875 65.921875 18.8125 64.3125 
Q 13.671875 62.703125 7.8125 59.421875 
L 7.8125 69.390625 
Q 13.765625 71.78125 18.9375 73 
Q 24.125 74.21875 28.421875 74.21875 
Q 39.75 74.21875 46.484375 68.546875 
Q 53.21875 62.890625 53.21875 53.421875 
Q 53.21875 48.921875 51.53125 44.890625 
Q 49.859375 40.875 45.40625 35.40625 
Q 44.1875 33.984375 37.640625 27.21875 
Q 31.109375 20.453125 19.1875 8.296875 
" id="DejaVuSans-32"/>
      </defs>
      <g transform="translate(146.723214 320.44225)scale(0.2 -0.2)">
       <use xlink:href="#DejaVuSans-32"/>
      </g>
     </g>
    </g>
    <g id="xtick_3">
     <g id="line2d_5">
      <path clip-path="url(#pac5d789c8f)" d="M 235.371429 298.245375 
L 235.371429 32.133375 
" style="fill:none;stroke:#b0b0b0;stroke-linecap:square;stroke-width:0.8;"/>
     </g>
     <g id="line2d_6">
      <g>
       <use style="stroke:#000000;stroke-width:0.8;" x="235.371429" xlink:href="#m08a1cd72c7" y="298.245375"/>
      </g>
     </g>
     <g id="text_3">
      <!-- 4 -->
      <defs>
       <path d="M 37.796875 64.3125 
L 12.890625 25.390625 
L 37.796875 25.390625 
z
M 35.203125 72.90625 
L 47.609375 72.90625 
L 47.609375 25.390625 
L 58.015625 25.390625 
L 58.015625 17.1875 
L 47.609375 17.1875 
L 47.609375 0 
L 37.796875 0 
L 37.796875 17.1875 
L 4.890625 17.1875 
L 4.890625 26.703125 
z
" id="DejaVuSans-34"/>
      </defs>
      <g transform="translate(229.008929 320.44225)scale(0.2 -0.2)">
       <use xlink:href="#DejaVuSans-34"/>
      </g>
     </g>
    </g>
    <g id="xtick_4">
     <g id="line2d_7">
      <path clip-path="url(#pac5d789c8f)" d="M 317.657143 298.245375 
L 317.657143 32.133375 
" style="fill:none;stroke:#b0b0b0;stroke-linecap:square;stroke-width:0.8;"/>
     </g>
     <g id="line2d_8">
      <g>
       <use style="stroke:#000000;stroke-width:0.8;" x="317.657143" xlink:href="#m08a1cd72c7" y="298.245375"/>
      </g>
     </g>
     <g id="text_4">
      <!-- 6 -->
      <defs>
       <path d="M 33.015625 40.375 
Q 26.375 40.375 22.484375 35.828125 
Q 18.609375 31.296875 18.609375 23.390625 
Q 18.609375 15.53125 22.484375 10.953125 
Q 26.375 6.390625 33.015625 6.390625 
Q 39.65625 6.390625 43.53125 10.953125 
Q 47.40625 15.53125 47.40625 23.390625 
Q 47.40625 31.296875 43.53125 35.828125 
Q 39.65625 40.375 33.015625 40.375 
M 52.59375 71.296875 
L 52.59375 62.3125 
Q 48.875 64.0625 45.09375 64.984375 
Q 41.3125 65.921875 37.59375 65.921875 
Q 27.828125 65.921875 22.671875 59.328125 
Q 17.53125 52.734375 16.796875 39.40625 
Q 19.671875 43.65625 24.015625 45.921875 
Q 28.375 48.1875 33.59375 48.1875 
Q 44.578125 48.1875 50.953125 41.515625 
Q 57.328125 34.859375 57.328125 23.390625 
Q 57.328125 12.15625 50.6875 5.359375 
Q 44.046875 -1.421875 33.015625 -1.421875 
Q 20.359375 -1.421875 13.671875 8.265625 
Q 6.984375 17.96875 6.984375 36.375 
Q 6.984375 53.65625 15.1875 63.9375 
Q 23.390625 74.21875 37.203125 74.21875 
Q 40.921875 74.21875 44.703125 73.484375 
Q 48.484375 72.75 52.59375 71.296875 
" id="DejaVuSans-36"/>
      </defs>
      <g transform="translate(311.294643 320.44225)scale(0.2 -0.2)">
       <use xlink:href="#DejaVuSans-36"/>
      </g>
     </g>
    </g>
    <g id="xtick_5">
     <g id="line2d_9">
      <path clip-path="url(#pac5d789c8f)" d="M 399.942857 298.245375 
L 399.942857 32.133375 
" style="fill:none;stroke:#b0b0b0;stroke-linecap:square;stroke-width:0.8;"/>
     </g>
     <g id="line2d_10">
      <g>
       <use style="stroke:#000000;stroke-width:0.8;" x="399.942857" xlink:href="#m08a1cd72c7" y="298.245375"/>
      </g>
     </g>
     <g id="text_5">
      <!-- 8 -->
      <defs>
       <path d="M 31.78125 34.625 
Q 24.75 34.625 20.71875 30.859375 
Q 16.703125 27.09375 16.703125 20.515625 
Q 16.703125 13.921875 20.71875 10.15625 
Q 24.75 6.390625 31.78125 6.390625 
Q 38.8125 6.390625 42.859375 10.171875 
Q 46.921875 13.96875 46.921875 20.515625 
Q 46.921875 27.09375 42.890625 30.859375 
Q 38.875 34.625 31.78125 34.625 
M 21.921875 38.8125 
Q 15.578125 40.375 12.03125 44.71875 
Q 8.5 49.078125 8.5 55.328125 
Q 8.5 64.0625 14.71875 69.140625 
Q 20.953125 74.21875 31.78125 74.21875 
Q 42.671875 74.21875 48.875 69.140625 
Q 55.078125 64.0625 55.078125 55.328125 
Q 55.078125 49.078125 51.53125 44.71875 
Q 48 40.375 41.703125 38.8125 
Q 48.828125 37.15625 52.796875 32.3125 
Q 56.78125 27.484375 56.78125 20.515625 
Q 56.78125 9.90625 50.3125 4.234375 
Q 43.84375 -1.421875 31.78125 -1.421875 
Q 19.734375 -1.421875 13.25 4.234375 
Q 6.78125 9.90625 6.78125 20.515625 
Q 6.78125 27.484375 10.78125 32.3125 
Q 14.796875 37.15625 21.921875 38.8125 
M 18.3125 54.390625 
Q 18.3125 48.734375 21.84375 45.5625 
Q 25.390625 42.390625 31.78125 42.390625 
Q 38.140625 42.390625 41.71875 45.5625 
Q 45.3125 48.734375 45.3125 54.390625 
Q 45.3125 60.0625 41.71875 63.234375 
Q 38.140625 66.40625 31.78125 66.40625 
Q 25.390625 66.40625 21.84375 63.234375 
Q 18.3125 60.0625 18.3125 54.390625 
" id="DejaVuSans-38"/>
      </defs>
      <g transform="translate(393.580357 320.44225)scale(0.2 -0.2)">
       <use xlink:href="#DejaVuSans-38"/>
      </g>
     </g>
    </g>
    <g id="xtick_6">
     <g id="line2d_11">
      <defs>
       <path d="M 0 0 
L 0 2 
" id="m3ba4239f48" style="stroke:#000000;stroke-width:0.6;"/>
      </defs>
      <g>
       <use style="stroke:#000000;stroke-width:0.6;" x="83.185234" xlink:href="#m3ba4239f48" y="298.245375"/>
      </g>
     </g>
    </g>
    <g id="xtick_7">
     <g id="line2d_12">
      <g>
       <use style="stroke:#000000;stroke-width:0.6;" x="95.570468" xlink:href="#m3ba4239f48" y="298.245375"/>
      </g>
     </g>
    </g>
    <g id="xtick_8">
     <g id="line2d_13">
      <g>
       <use style="stroke:#000000;stroke-width:0.6;" x="102.815366" xlink:href="#m3ba4239f48" y="298.245375"/>
      </g>
     </g>
    </g>
    <g id="xtick_9">
     <g id="line2d_14">
      <g>
       <use style="stroke:#000000;stroke-width:0.6;" x="107.955702" xlink:href="#m3ba4239f48" y="298.245375"/>
      </g>
     </g>
    </g>
    <g id="xtick_10">
     <g id="line2d_15">
      <g>
       <use style="stroke:#000000;stroke-width:0.6;" x="165.470948" xlink:href="#m3ba4239f48" y="298.245375"/>
      </g>
     </g>
    </g>
    <g id="xtick_11">
     <g id="line2d_16">
      <g>
       <use style="stroke:#000000;stroke-width:0.6;" x="177.856183" xlink:href="#m3ba4239f48" y="298.245375"/>
      </g>
     </g>
    </g>
    <g id="xtick_12">
     <g id="line2d_17">
      <g>
       <use style="stroke:#000000;stroke-width:0.6;" x="185.10108" xlink:href="#m3ba4239f48" y="298.245375"/>
      </g>
     </g>
    </g>
    <g id="xtick_13">
     <g id="line2d_18">
      <g>
       <use style="stroke:#000000;stroke-width:0.6;" x="190.241417" xlink:href="#m3ba4239f48" y="298.245375"/>
      </g>
     </g>
    </g>
    <g id="xtick_14">
     <g id="line2d_19">
      <g>
       <use style="stroke:#000000;stroke-width:0.6;" x="247.756663" xlink:href="#m3ba4239f48" y="298.245375"/>
      </g>
     </g>
    </g>
    <g id="xtick_15">
     <g id="line2d_20">
      <g>
       <use style="stroke:#000000;stroke-width:0.6;" x="260.141897" xlink:href="#m3ba4239f48" y="298.245375"/>
      </g>
     </g>
    </g>
    <g id="xtick_16">
     <g id="line2d_21">
      <g>
       <use style="stroke:#000000;stroke-width:0.6;" x="267.386794" xlink:href="#m3ba4239f48" y="298.245375"/>
      </g>
     </g>
    </g>
    <g id="xtick_17">
     <g id="line2d_22">
      <g>
       <use style="stroke:#000000;stroke-width:0.6;" x="272.527131" xlink:href="#m3ba4239f48" y="298.245375"/>
      </g>
     </g>
    </g>
    <g id="xtick_18">
     <g id="line2d_23">
      <g>
       <use style="stroke:#000000;stroke-width:0.6;" x="330.042377" xlink:href="#m3ba4239f48" y="298.245375"/>
      </g>
     </g>
    </g>
    <g id="xtick_19">
     <g id="line2d_24">
      <g>
       <use style="stroke:#000000;stroke-width:0.6;" x="342.427611" xlink:href="#m3ba4239f48" y="298.245375"/>
      </g>
     </g>
    </g>
    <g id="xtick_20">
     <g id="line2d_25">
      <g>
       <use style="stroke:#000000;stroke-width:0.6;" x="349.672509" xlink:href="#m3ba4239f48" y="298.245375"/>
      </g>
     </g>
    </g>
    <g id="xtick_21">
     <g id="line2d_26">
      <g>
       <use style="stroke:#000000;stroke-width:0.6;" x="354.812845" xlink:href="#m3ba4239f48" y="298.245375"/>
      </g>
     </g>
    </g>
    <g id="xtick_22">
     <g id="line2d_27">
      <g>
       <use style="stroke:#000000;stroke-width:0.6;" x="412.328091" xlink:href="#m3ba4239f48" y="298.245375"/>
      </g>
     </g>
    </g>
    <g id="xtick_23">
     <g id="line2d_28">
      <g>
       <use style="stroke:#000000;stroke-width:0.6;" x="424.713325" xlink:href="#m3ba4239f48" y="298.245375"/>
      </g>
     </g>
    </g>
    <g id="text_6">
     <!-- log10 of (# f-evals / dimension) -->
     <defs>
      <path d="M 9.421875 75.984375 
L 18.40625 75.984375 
L 18.40625 0 
L 9.421875 0 
z
" id="DejaVuSans-6c"/>
      <path d="M 30.609375 48.390625 
Q 23.390625 48.390625 19.1875 42.75 
Q 14.984375 37.109375 14.984375 27.296875 
Q 14.984375 17.484375 19.15625 11.84375 
Q 23.34375 6.203125 30.609375 6.203125 
Q 37.796875 6.203125 41.984375 11.859375 
Q 46.1875 17.53125 46.1875 27.296875 
Q 46.1875 37.015625 41.984375 42.703125 
Q 37.796875 48.390625 30.609375 48.390625 
M 30.609375 56 
Q 42.328125 56 49.015625 48.375 
Q 55.71875 40.765625 55.71875 27.296875 
Q 55.71875 13.875 49.015625 6.21875 
Q 42.328125 -1.421875 30.609375 -1.421875 
Q 18.84375 -1.421875 12.171875 6.21875 
Q 5.515625 13.875 5.515625 27.296875 
Q 5.515625 40.765625 12.171875 48.375 
Q 18.84375 56 30.609375 56 
" id="DejaVuSans-6f"/>
      <path d="M 45.40625 27.984375 
Q 45.40625 37.75 41.375 43.109375 
Q 37.359375 48.484375 30.078125 48.484375 
Q 22.859375 48.484375 18.828125 43.109375 
Q 14.796875 37.75 14.796875 27.984375 
Q 14.796875 18.265625 18.828125 12.890625 
Q 22.859375 7.515625 30.078125 7.515625 
Q 37.359375 7.515625 41.375 12.890625 
Q 45.40625 18.265625 45.40625 27.984375 
M 54.390625 6.78125 
Q 54.390625 -7.171875 48.1875 -13.984375 
Q 42 -20.796875 29.203125 -20.796875 
Q 24.46875 -20.796875 20.265625 -20.09375 
Q 16.0625 -19.390625 12.109375 -17.921875 
L 12.109375 -9.1875 
Q 16.0625 -11.328125 19.921875 -12.34375 
Q 23.78125 -13.375 27.78125 -13.375 
Q 36.625 -13.375 41.015625 -8.765625 
Q 45.40625 -4.15625 45.40625 5.171875 
L 45.40625 9.625 
Q 42.625 4.78125 38.28125 2.390625 
Q 33.9375 0 27.875 0 
Q 17.828125 0 11.671875 7.65625 
Q 5.515625 15.328125 5.515625 27.984375 
Q 5.515625 40.671875 11.671875 48.328125 
Q 17.828125 56 27.875 56 
Q 33.9375 56 38.28125 53.609375 
Q 42.625 51.21875 45.40625 46.390625 
L 45.40625 54.6875 
L 54.390625 54.6875 
z
" id="DejaVuSans-67"/>
      <path d="M 12.40625 8.296875 
L 28.515625 8.296875 
L 28.515625 63.921875 
L 10.984375 60.40625 
L 10.984375 69.390625 
L 28.421875 72.90625 
L 38.28125 72.90625 
L 38.28125 8.296875 
L 54.390625 8.296875 
L 54.390625 0 
L 12.40625 0 
z
" id="DejaVuSans-31"/>
      <path id="DejaVuSans-20"/>
      <path d="M 37.109375 75.984375 
L 37.109375 68.5 
L 28.515625 68.5 
Q 23.6875 68.5 21.796875 66.546875 
Q 19.921875 64.59375 19.921875 59.515625 
L 19.921875 54.6875 
L 34.71875 54.6875 
L 34.71875 47.703125 
L 19.921875 47.703125 
L 19.921875 0 
L 10.890625 0 
L 10.890625 47.703125 
L 2.296875 47.703125 
L 2.296875 54.6875 
L 10.890625 54.6875 
L 10.890625 58.5 
Q 10.890625 67.625 15.140625 71.796875 
Q 19.390625 75.984375 28.609375 75.984375 
z
" id="DejaVuSans-66"/>
      <path d="M 31 75.875 
Q 24.46875 64.65625 21.28125 53.65625 
Q 18.109375 42.671875 18.109375 31.390625 
Q 18.109375 20.125 21.3125 9.0625 
Q 24.515625 -2 31 -13.1875 
L 23.1875 -13.1875 
Q 15.875 -1.703125 12.234375 9.375 
Q 8.59375 20.453125 8.59375 31.390625 
Q 8.59375 42.28125 12.203125 53.3125 
Q 15.828125 64.359375 23.1875 75.875 
z
" id="DejaVuSans-28"/>
      <path d="M 51.125 44 
L 36.921875 44 
L 32.8125 27.6875 
L 47.125 27.6875 
z
M 43.796875 71.78125 
L 38.71875 51.515625 
L 52.984375 51.515625 
L 58.109375 71.78125 
L 65.921875 71.78125 
L 60.890625 51.515625 
L 76.125 51.515625 
L 76.125 44 
L 58.984375 44 
L 54.984375 27.6875 
L 70.515625 27.6875 
L 70.515625 20.21875 
L 53.078125 20.21875 
L 48 0 
L 40.1875 0 
L 45.21875 20.21875 
L 30.90625 20.21875 
L 25.875 0 
L 18.015625 0 
L 23.09375 20.21875 
L 7.71875 20.21875 
L 7.71875 27.6875 
L 24.90625 27.6875 
L 29 44 
L 13.28125 44 
L 13.28125 51.515625 
L 30.90625 51.515625 
L 35.890625 71.78125 
z
" id="DejaVuSans-23"/>
      <path d="M 4.890625 31.390625 
L 31.203125 31.390625 
L 31.203125 23.390625 
L 4.890625 23.390625 
z
" id="DejaVuSans-2d"/>
      <path d="M 56.203125 29.59375 
L 56.203125 25.203125 
L 14.890625 25.203125 
Q 15.484375 15.921875 20.484375 11.0625 
Q 25.484375 6.203125 34.421875 6.203125 
Q 39.59375 6.203125 44.453125 7.46875 
Q 49.3125 8.734375 54.109375 11.28125 
L 54.109375 2.78125 
Q 49.265625 0.734375 44.1875 -0.34375 
Q 39.109375 -1.421875 33.890625 -1.421875 
Q 20.796875 -1.421875 13.15625 6.1875 
Q 5.515625 13.8125 5.515625 26.8125 
Q 5.515625 40.234375 12.765625 48.109375 
Q 20.015625 56 32.328125 56 
Q 43.359375 56 49.78125 48.890625 
Q 56.203125 41.796875 56.203125 29.59375 
M 47.21875 32.234375 
Q 47.125 39.59375 43.09375 43.984375 
Q 39.0625 48.390625 32.421875 48.390625 
Q 24.90625 48.390625 20.390625 44.140625 
Q 15.875 39.890625 15.1875 32.171875 
z
" id="DejaVuSans-65"/>
      <path d="M 2.984375 54.6875 
L 12.5 54.6875 
L 29.59375 8.796875 
L 46.6875 54.6875 
L 56.203125 54.6875 
L 35.6875 0 
L 23.484375 0 
z
" id="DejaVuSans-76"/>
      <path d="M 34.28125 27.484375 
Q 23.390625 27.484375 19.1875 25 
Q 14.984375 22.515625 14.984375 16.5 
Q 14.984375 11.71875 18.140625 8.90625 
Q 21.296875 6.109375 26.703125 6.109375 
Q 34.1875 6.109375 38.703125 11.40625 
Q 43.21875 16.703125 43.21875 25.484375 
L 43.21875 27.484375 
z
M 52.203125 31.203125 
L 52.203125 0 
L 43.21875 0 
L 43.21875 8.296875 
Q 40.140625 3.328125 35.546875 0.953125 
Q 30.953125 -1.421875 24.3125 -1.421875 
Q 15.921875 -1.421875 10.953125 3.296875 
Q 6 8.015625 6 15.921875 
Q 6 25.140625 12.171875 29.828125 
Q 18.359375 34.515625 30.609375 34.515625 
L 43.21875 34.515625 
L 43.21875 35.40625 
Q 43.21875 41.609375 39.140625 45 
Q 35.0625 48.390625 27.6875 48.390625 
Q 23 48.390625 18.546875 47.265625 
Q 14.109375 46.140625 10.015625 43.890625 
L 10.015625 52.203125 
Q 14.9375 54.109375 19.578125 55.046875 
Q 24.21875 56 28.609375 56 
Q 40.484375 56 46.34375 49.84375 
Q 52.203125 43.703125 52.203125 31.203125 
" id="DejaVuSans-61"/>
      <path d="M 44.28125 53.078125 
L 44.28125 44.578125 
Q 40.484375 46.53125 36.375 47.5 
Q 32.28125 48.484375 27.875 48.484375 
Q 21.1875 48.484375 17.84375 46.4375 
Q 14.5 44.390625 14.5 40.28125 
Q 14.5 37.15625 16.890625 35.375 
Q 19.28125 33.59375 26.515625 31.984375 
L 29.59375 31.296875 
Q 39.15625 29.25 43.1875 25.515625 
Q 47.21875 21.78125 47.21875 15.09375 
Q 47.21875 7.46875 41.1875 3.015625 
Q 35.15625 -1.421875 24.609375 -1.421875 
Q 20.21875 -1.421875 15.453125 -0.5625 
Q 10.6875 0.296875 5.421875 2 
L 5.421875 11.28125 
Q 10.40625 8.6875 15.234375 7.390625 
Q 20.0625 6.109375 24.8125 6.109375 
Q 31.15625 6.109375 34.5625 8.28125 
Q 37.984375 10.453125 37.984375 14.40625 
Q 37.984375 18.0625 35.515625 20.015625 
Q 33.0625 21.96875 24.703125 23.78125 
L 21.578125 24.515625 
Q 13.234375 26.265625 9.515625 29.90625 
Q 5.8125 33.546875 5.8125 39.890625 
Q 5.8125 47.609375 11.28125 51.796875 
Q 16.75 56 26.8125 56 
Q 31.78125 56 36.171875 55.265625 
Q 40.578125 54.546875 44.28125 53.078125 
" id="DejaVuSans-73"/>
      <path d="M 25.390625 72.90625 
L 33.6875 72.90625 
L 8.296875 -9.28125 
L 0 -9.28125 
z
" id="DejaVuSans-2f"/>
      <path d="M 45.40625 46.390625 
L 45.40625 75.984375 
L 54.390625 75.984375 
L 54.390625 0 
L 45.40625 0 
L 45.40625 8.203125 
Q 42.578125 3.328125 38.25 0.953125 
Q 33.9375 -1.421875 27.875 -1.421875 
Q 17.96875 -1.421875 11.734375 6.484375 
Q 5.515625 14.40625 5.515625 27.296875 
Q 5.515625 40.1875 11.734375 48.09375 
Q 17.96875 56 27.875 56 
Q 33.9375 56 38.25 53.625 
Q 42.578125 51.265625 45.40625 46.390625 
M 14.796875 27.296875 
Q 14.796875 17.390625 18.875 11.75 
Q 22.953125 6.109375 30.078125 6.109375 
Q 37.203125 6.109375 41.296875 11.75 
Q 45.40625 17.390625 45.40625 27.296875 
Q 45.40625 37.203125 41.296875 42.84375 
Q 37.203125 48.484375 30.078125 48.484375 
Q 22.953125 48.484375 18.875 42.84375 
Q 14.796875 37.203125 14.796875 27.296875 
" id="DejaVuSans-64"/>
      <path d="M 9.421875 54.6875 
L 18.40625 54.6875 
L 18.40625 0 
L 9.421875 0 
z
M 9.421875 75.984375 
L 18.40625 75.984375 
L 18.40625 64.59375 
L 9.421875 64.59375 
z
" id="DejaVuSans-69"/>
      <path d="M 52 44.1875 
Q 55.375 50.25 60.0625 53.125 
Q 64.75 56 71.09375 56 
Q 79.640625 56 84.28125 50.015625 
Q 88.921875 44.046875 88.921875 33.015625 
L 88.921875 0 
L 79.890625 0 
L 79.890625 32.71875 
Q 79.890625 40.578125 77.09375 44.375 
Q 74.3125 48.1875 68.609375 48.1875 
Q 61.625 48.1875 57.5625 43.546875 
Q 53.515625 38.921875 53.515625 30.90625 
L 53.515625 0 
L 44.484375 0 
L 44.484375 32.71875 
Q 44.484375 40.625 41.703125 44.40625 
Q 38.921875 48.1875 33.109375 48.1875 
Q 26.21875 48.1875 22.15625 43.53125 
Q 18.109375 38.875 18.109375 30.90625 
L 18.109375 0 
L 9.078125 0 
L 9.078125 54.6875 
L 18.109375 54.6875 
L 18.109375 46.1875 
Q 21.1875 51.21875 25.484375 53.609375 
Q 29.78125 56 35.6875 56 
Q 41.65625 56 45.828125 52.96875 
Q 50 49.953125 52 44.1875 
" id="DejaVuSans-6d"/>
      <path d="M 54.890625 33.015625 
L 54.890625 0 
L 45.90625 0 
L 45.90625 32.71875 
Q 45.90625 40.484375 42.875 44.328125 
Q 39.84375 48.1875 33.796875 48.1875 
Q 26.515625 48.1875 22.3125 43.546875 
Q 18.109375 38.921875 18.109375 30.90625 
L 18.109375 0 
L 9.078125 0 
L 9.078125 54.6875 
L 18.109375 54.6875 
L 18.109375 46.1875 
Q 21.34375 51.125 25.703125 53.5625 
Q 30.078125 56 35.796875 56 
Q 45.21875 56 50.046875 50.171875 
Q 54.890625 44.34375 54.890625 33.015625 
" id="DejaVuSans-6e"/>
      <path d="M 8.015625 75.875 
L 15.828125 75.875 
Q 23.140625 64.359375 26.78125 53.3125 
Q 30.421875 42.28125 30.421875 31.390625 
Q 30.421875 20.453125 26.78125 9.375 
Q 23.140625 -1.703125 15.828125 -13.1875 
L 8.015625 -13.1875 
Q 14.5 -2 17.703125 9.0625 
Q 20.90625 20.125 20.90625 31.390625 
Q 20.90625 42.671875 17.703125 53.65625 
Q 14.5 64.65625 8.015625 75.875 
" id="DejaVuSans-29"/>
     </defs>
     <g transform="translate(107.015156 342.278812)scale(0.18 -0.18)">
      <use xlink:href="#DejaVuSans-6c"/>
      <use x="27.783203" xlink:href="#DejaVuSans-6f"/>
      <use x="88.964844" xlink:href="#DejaVuSans-67"/>
      <use x="152.441406" xlink:href="#DejaVuSans-31"/>
      <use x="216.064453" xlink:href="#DejaVuSans-30"/>
      <use x="279.6875" xlink:href="#DejaVuSans-20"/>
      <use x="311.474609" xlink:href="#DejaVuSans-6f"/>
      <use x="372.65625" xlink:href="#DejaVuSans-66"/>
      <use x="407.861328" xlink:href="#DejaVuSans-20"/>
      <use x="439.648438" xlink:href="#DejaVuSans-28"/>
      <use x="478.662109" xlink:href="#DejaVuSans-23"/>
      <use x="562.451172" xlink:href="#DejaVuSans-20"/>
      <use x="594.238281" xlink:href="#DejaVuSans-66"/>
      <use x="629.365234" xlink:href="#DejaVuSans-2d"/>
      <use x="665.449219" xlink:href="#DejaVuSans-65"/>
      <use x="726.972656" xlink:href="#DejaVuSans-76"/>
      <use x="786.152344" xlink:href="#DejaVuSans-61"/>
      <use x="847.431641" xlink:href="#DejaVuSans-6c"/>
      <use x="875.214844" xlink:href="#DejaVuSans-73"/>
      <use x="927.314453" xlink:href="#DejaVuSans-20"/>
      <use x="959.101562" xlink:href="#DejaVuSans-2f"/>
      <use x="992.792969" xlink:href="#DejaVuSans-20"/>
      <use x="1024.580078" xlink:href="#DejaVuSans-64"/>
      <use x="1088.056641" xlink:href="#DejaVuSans-69"/>
      <use x="1115.839844" xlink:href="#DejaVuSans-6d"/>
      <use x="1213.251953" xlink:href="#DejaVuSans-65"/>
      <use x="1274.775391" xlink:href="#DejaVuSans-6e"/>
      <use x="1338.154297" xlink:href="#DejaVuSans-73"/>
      <use x="1390.253906" xlink:href="#DejaVuSans-69"/>
      <use x="1418.037109" xlink:href="#DejaVuSans-6f"/>
      <use x="1479.21875" xlink:href="#DejaVuSans-6e"/>
      <use x="1542.597656" xlink:href="#DejaVuSans-29"/>
     </g>
    </g>
   </g>
   <g id="matplotlib.axis_2">
    <g id="ytick_1">
     <g id="line2d_29">
      <path clip-path="url(#pac5d789c8f)" d="M 70.8 298.245375 
L 427.92 298.245375 
" style="fill:none;stroke:#b0b0b0;stroke-linecap:square;stroke-width:0.8;"/>
     </g>
     <g id="line2d_30">
      <defs>
       <path d="M 0 0 
L -3.5 0 
" id="m9cc5ba57c2" style="stroke:#000000;stroke-width:0.8;"/>
      </defs>
      <g>
       <use style="stroke:#000000;stroke-width:0.8;" x="70.8" xlink:href="#m9cc5ba57c2" y="298.245375"/>
      </g>
     </g>
     <g id="text_7">
      <!-- 0.0 -->
      <defs>
       <path d="M 10.6875 12.40625 
L 21 12.40625 
L 21 0 
L 10.6875 0 
z
" id="DejaVuSans-2e"/>
      </defs>
      <g transform="translate(31.99375 305.843812)scale(0.2 -0.2)">
       <use xlink:href="#DejaVuSans-30"/>
       <use x="63.623047" xlink:href="#DejaVuSans-2e"/>
       <use x="95.410156" xlink:href="#DejaVuSans-30"/>
      </g>
     </g>
    </g>
    <g id="ytick_2">
     <g id="line2d_31">
      <path clip-path="url(#pac5d789c8f)" d="M 70.8 245.549929 
L 427.92 245.549929 
" style="fill:none;stroke:#b0b0b0;stroke-linecap:square;stroke-width:0.8;"/>
     </g>
     <g id="line2d_32">
      <g>
       <use style="stroke:#000000;stroke-width:0.8;" x="70.8" xlink:href="#m9cc5ba57c2" y="245.549929"/>
      </g>
     </g>
     <g id="text_8">
      <!-- 0.2 -->
      <g transform="translate(31.99375 253.148367)scale(0.2 -0.2)">
       <use xlink:href="#DejaVuSans-30"/>
       <use x="63.623047" xlink:href="#DejaVuSans-2e"/>
       <use x="95.410156" xlink:href="#DejaVuSans-32"/>
      </g>
     </g>
    </g>
    <g id="ytick_3">
     <g id="line2d_33">
      <path clip-path="url(#pac5d789c8f)" d="M 70.8 192.854484 
L 427.92 192.854484 
" style="fill:none;stroke:#b0b0b0;stroke-linecap:square;stroke-width:0.8;"/>
     </g>
     <g id="line2d_34">
      <g>
       <use style="stroke:#000000;stroke-width:0.8;" x="70.8" xlink:href="#m9cc5ba57c2" y="192.854484"/>
      </g>
     </g>
     <g id="text_9">
      <!-- 0.4 -->
      <g transform="translate(31.99375 200.452921)scale(0.2 -0.2)">
       <use xlink:href="#DejaVuSans-30"/>
       <use x="63.623047" xlink:href="#DejaVuSans-2e"/>
       <use x="95.410156" xlink:href="#DejaVuSans-34"/>
      </g>
     </g>
    </g>
    <g id="ytick_4">
     <g id="line2d_35">
      <path clip-path="url(#pac5d789c8f)" d="M 70.8 140.159038 
L 427.92 140.159038 
" style="fill:none;stroke:#b0b0b0;stroke-linecap:square;stroke-width:0.8;"/>
     </g>
     <g id="line2d_36">
      <g>
       <use style="stroke:#000000;stroke-width:0.8;" x="70.8" xlink:href="#m9cc5ba57c2" y="140.159038"/>
      </g>
     </g>
     <g id="text_10">
      <!-- 0.6 -->
      <g transform="translate(31.99375 147.757476)scale(0.2 -0.2)">
       <use xlink:href="#DejaVuSans-30"/>
       <use x="63.623047" xlink:href="#DejaVuSans-2e"/>
       <use x="95.410156" xlink:href="#DejaVuSans-36"/>
      </g>
     </g>
    </g>
    <g id="ytick_5">
     <g id="line2d_37">
      <path clip-path="url(#pac5d789c8f)" d="M 70.8 87.463593 
L 427.92 87.463593 
" style="fill:none;stroke:#b0b0b0;stroke-linecap:square;stroke-width:0.8;"/>
     </g>
     <g id="line2d_38">
      <g>
       <use style="stroke:#000000;stroke-width:0.8;" x="70.8" xlink:href="#m9cc5ba57c2" y="87.463593"/>
      </g>
     </g>
     <g id="text_11">
      <!-- 0.8 -->
      <g transform="translate(31.99375 95.06203)scale(0.2 -0.2)">
       <use xlink:href="#DejaVuSans-30"/>
       <use x="63.623047" xlink:href="#DejaVuSans-2e"/>
       <use x="95.410156" xlink:href="#DejaVuSans-38"/>
      </g>
     </g>
    </g>
    <g id="ytick_6">
     <g id="line2d_39">
      <path clip-path="url(#pac5d789c8f)" d="M 70.8 34.768147 
L 427.92 34.768147 
" style="fill:none;stroke:#b0b0b0;stroke-linecap:square;stroke-width:0.8;"/>
     </g>
     <g id="line2d_40">
      <g>
       <use style="stroke:#000000;stroke-width:0.8;" x="70.8" xlink:href="#m9cc5ba57c2" y="34.768147"/>
      </g>
     </g>
     <g id="text_12">
      <!-- 1.0 -->
      <g transform="translate(31.99375 42.366585)scale(0.2 -0.2)">
       <use xlink:href="#DejaVuSans-31"/>
       <use x="63.623047" xlink:href="#DejaVuSans-2e"/>
       <use x="95.410156" xlink:href="#DejaVuSans-30"/>
      </g>
     </g>
    </g>
    <g id="text_13">
     <!-- Proportion of function+target pairs -->
     <defs>
      <path d="M 19.671875 64.796875 
L 19.671875 37.40625 
L 32.078125 37.40625 
Q 38.96875 37.40625 42.71875 40.96875 
Q 46.484375 44.53125 46.484375 51.125 
Q 46.484375 57.671875 42.71875 61.234375 
Q 38.96875 64.796875 32.078125 64.796875 
z
M 9.8125 72.90625 
L 32.078125 72.90625 
Q 44.34375 72.90625 50.609375 67.359375 
Q 56.890625 61.8125 56.890625 51.125 
Q 56.890625 40.328125 50.609375 34.8125 
Q 44.34375 29.296875 32.078125 29.296875 
L 19.671875 29.296875 
L 19.671875 0 
L 9.8125 0 
z
" id="DejaVuSans-50"/>
      <path d="M 41.109375 46.296875 
Q 39.59375 47.171875 37.8125 47.578125 
Q 36.03125 48 33.890625 48 
Q 26.265625 48 22.1875 43.046875 
Q 18.109375 38.09375 18.109375 28.8125 
L 18.109375 0 
L 9.078125 0 
L 9.078125 54.6875 
L 18.109375 54.6875 
L 18.109375 46.1875 
Q 20.953125 51.171875 25.484375 53.578125 
Q 30.03125 56 36.53125 56 
Q 37.453125 56 38.578125 55.875 
Q 39.703125 55.765625 41.0625 55.515625 
z
" id="DejaVuSans-72"/>
      <path d="M 18.109375 8.203125 
L 18.109375 -20.796875 
L 9.078125 -20.796875 
L 9.078125 54.6875 
L 18.109375 54.6875 
L 18.109375 46.390625 
Q 20.953125 51.265625 25.265625 53.625 
Q 29.59375 56 35.59375 56 
Q 45.5625 56 51.78125 48.09375 
Q 58.015625 40.1875 58.015625 27.296875 
Q 58.015625 14.40625 51.78125 6.484375 
Q 45.5625 -1.421875 35.59375 -1.421875 
Q 29.59375 -1.421875 25.265625 0.953125 
Q 20.953125 3.328125 18.109375 8.203125 
M 48.6875 27.296875 
Q 48.6875 37.203125 44.609375 42.84375 
Q 40.53125 48.484375 33.40625 48.484375 
Q 26.265625 48.484375 22.1875 42.84375 
Q 18.109375 37.203125 18.109375 27.296875 
Q 18.109375 17.390625 22.1875 11.75 
Q 26.265625 6.109375 33.40625 6.109375 
Q 40.53125 6.109375 44.609375 11.75 
Q 48.6875 17.390625 48.6875 27.296875 
" id="DejaVuSans-70"/>
      <path d="M 18.3125 70.21875 
L 18.3125 54.6875 
L 36.8125 54.6875 
L 36.8125 47.703125 
L 18.3125 47.703125 
L 18.3125 18.015625 
Q 18.3125 11.328125 20.140625 9.421875 
Q 21.96875 7.515625 27.59375 7.515625 
L 36.8125 7.515625 
L 36.8125 0 
L 27.59375 0 
Q 17.1875 0 13.234375 3.875 
Q 9.28125 7.765625 9.28125 18.015625 
L 9.28125 47.703125 
L 2.6875 47.703125 
L 2.6875 54.6875 
L 9.28125 54.6875 
L 9.28125 70.21875 
z
" id="DejaVuSans-74"/>
      <path d="M 8.5 21.578125 
L 8.5 54.6875 
L 17.484375 54.6875 
L 17.484375 21.921875 
Q 17.484375 14.15625 20.5 10.265625 
Q 23.53125 6.390625 29.59375 6.390625 
Q 36.859375 6.390625 41.078125 11.03125 
Q 45.3125 15.671875 45.3125 23.6875 
L 45.3125 54.6875 
L 54.296875 54.6875 
L 54.296875 0 
L 45.3125 0 
L 45.3125 8.40625 
Q 42.046875 3.421875 37.71875 1 
Q 33.40625 -1.421875 27.6875 -1.421875 
Q 18.265625 -1.421875 13.375 4.4375 
Q 8.5 10.296875 8.5 21.578125 
M 31.109375 56 
z
" id="DejaVuSans-75"/>
      <path d="M 48.78125 52.59375 
L 48.78125 44.1875 
Q 44.96875 46.296875 41.140625 47.34375 
Q 37.3125 48.390625 33.40625 48.390625 
Q 24.65625 48.390625 19.8125 42.84375 
Q 14.984375 37.3125 14.984375 27.296875 
Q 14.984375 17.28125 19.8125 11.734375 
Q 24.65625 6.203125 33.40625 6.203125 
Q 37.3125 6.203125 41.140625 7.25 
Q 44.96875 8.296875 48.78125 10.40625 
L 48.78125 2.09375 
Q 45.015625 0.34375 40.984375 -0.53125 
Q 36.96875 -1.421875 32.421875 -1.421875 
Q 20.0625 -1.421875 12.78125 6.34375 
Q 5.515625 14.109375 5.515625 27.296875 
Q 5.515625 40.671875 12.859375 48.328125 
Q 20.21875 56 33.015625 56 
Q 37.15625 56 41.109375 55.140625 
Q 45.0625 54.296875 48.78125 52.59375 
" id="DejaVuSans-63"/>
      <path d="M 46 62.703125 
L 46 35.5 
L 73.1875 35.5 
L 73.1875 27.203125 
L 46 27.203125 
L 46 0 
L 37.796875 0 
L 37.796875 27.203125 
L 10.59375 27.203125 
L 10.59375 35.5 
L 37.796875 35.5 
L 37.796875 62.703125 
z
" id="DejaVuSans-2b"/>
     </defs>
     <g transform="translate(24.250312 323.17875)rotate(-90)scale(0.18 -0.18)">
      <use xlink:href="#DejaVuSans-50"/>
      <use x="60.287109" xlink:href="#DejaVuSans-72"/>
      <use x="101.369141" xlink:href="#DejaVuSans-6f"/>
      <use x="162.550781" xlink:href="#DejaVuSans-70"/>
      <use x="226.027344" xlink:href="#DejaVuSans-6f"/>
      <use x="287.208984" xlink:href="#DejaVuSans-72"/>
      <use x="328.322266" xlink:href="#DejaVuSans-74"/>
      <use x="367.53125" xlink:href="#DejaVuSans-69"/>
      <use x="395.314453" xlink:href="#DejaVuSans-6f"/>
      <use x="456.496094" xlink:href="#DejaVuSans-6e"/>
      <use x="519.875" xlink:href="#DejaVuSans-20"/>
      <use x="551.662109" xlink:href="#DejaVuSans-6f"/>
      <use x="612.84375" xlink:href="#DejaVuSans-66"/>
      <use x="648.048828" xlink:href="#DejaVuSans-20"/>
      <use x="679.835938" xlink:href="#DejaVuSans-66"/>
      <use x="715.041016" xlink:href="#DejaVuSans-75"/>
      <use x="778.419922" xlink:href="#DejaVuSans-6e"/>
      <use x="841.798828" xlink:href="#DejaVuSans-63"/>
      <use x="896.779297" xlink:href="#DejaVuSans-74"/>
      <use x="935.988281" xlink:href="#DejaVuSans-69"/>
      <use x="963.771484" xlink:href="#DejaVuSans-6f"/>
      <use x="1024.953125" xlink:href="#DejaVuSans-6e"/>
      <use x="1088.332031" xlink:href="#DejaVuSans-2b"/>
      <use x="1172.121094" xlink:href="#DejaVuSans-74"/>
      <use x="1211.330078" xlink:href="#DejaVuSans-61"/>
      <use x="1272.609375" xlink:href="#DejaVuSans-72"/>
      <use x="1313.707031" xlink:href="#DejaVuSans-67"/>
      <use x="1377.183594" xlink:href="#DejaVuSans-65"/>
      <use x="1438.707031" xlink:href="#DejaVuSans-74"/>
      <use x="1477.916016" xlink:href="#DejaVuSans-20"/>
      <use x="1509.703125" xlink:href="#DejaVuSans-70"/>
      <use x="1573.179688" xlink:href="#DejaVuSans-61"/>
      <use x="1634.458984" xlink:href="#DejaVuSans-69"/>
      <use x="1662.242188" xlink:href="#DejaVuSans-72"/>
      <use x="1703.355469" xlink:href="#DejaVuSans-73"/>
     </g>
    </g>
   </g>
   <g id="line2d_41">
    <defs>
     <path d="M 0 1.5 
C 0.397805 1.5 0.77937 1.341951 1.06066 1.06066 
C 1.341951 0.77937 1.5 0.397805 1.5 0 
C 1.5 -0.397805 1.341951 -0.77937 1.06066 -1.06066 
C 0.77937 -1.341951 0.397805 -1.5 0 -1.5 
C -0.397805 -1.5 -0.77937 -1.341951 -1.06066 -1.06066 
C -1.341951 -0.77937 -1.5 -0.397805 -1.5 0 
C -1.5 0.397805 -1.341951 0.77937 -1.06066 1.06066 
C -0.77937 1.341951 -0.397805 1.5 0 1.5 
z
" id="mf41dc95f8e" style="stroke:#00bfbf;"/>
    </defs>
    <g>
     <use style="fill:#00bfbf;stroke:#00bfbf;" x="328.38175" xlink:href="#mf41dc95f8e" y="117.42767"/>
     <use style="fill:#00bfbf;stroke:#00bfbf;" x="328.38175" xlink:href="#mf41dc95f8e" y="117.42767"/>
    </g>
   </g>
   <g id="line2d_42">
    <path d="M 58.414766 298.245375 
L 58.414766 265.181566 
L 153.085714 265.181566 
L 153.085714 264.664944 
L 160.330612 264.664944 
L 160.330612 264.148322 
L 165.470948 264.148322 
L 165.470948 261.565212 
L 172.715846 261.565212 
L 172.715846 260.531968 
L 175.470228 260.531968 
L 175.470228 260.015346 
L 177.856183 260.015346 
L 177.856183 259.498724 
L 181.843337 259.498724 
L 181.843337 258.982102 
L 191.324664 258.982102 
L 191.324664 256.915614 
L 193.312057 256.915614 
L 193.312057 256.398992 
L 195.10036 256.398992 
L 195.10036 255.88237 
L 197.486314 255.88237 
L 197.486314 255.365748 
L 200.240696 255.365748 
L 200.240696 254.849126 
L 205.697291 254.849126 
L 205.697291 253.29926 
L 211.301761 253.29926 
L 211.301761 252.782638 
L 211.642116 252.782638 
L 211.642116 252.266016 
L 212.62593 252.266016 
L 212.62593 251.232772 
L 214.154051 251.232772 
L 214.154051 249.682906 
L 215.561716 249.682906 
L 215.561716 246.066551 
L 216.613085 246.066551 
L 216.613085 243.483441 
L 216.866538 243.483441 
L 216.866538 242.450197 
L 217.116446 242.450197 
L 217.116446 240.383709 
L 217.606014 240.383709 
L 217.606014 239.350465 
L 217.845858 239.350465 
L 217.845858 237.800599 
L 218.316099 237.800599 
L 218.316099 232.634379 
L 218.546658 232.634379 
L 218.546658 231.601135 
L 219.44025 231.601135 
L 219.44025 230.051269 
L 219.656836 230.051269 
L 219.656836 229.534647 
L 219.870828 229.534647 
L 219.870828 229.018025 
L 220.291274 229.018025 
L 220.291274 225.401671 
L 221.496322 225.401671 
L 221.496322 224.368427 
L 221.689493 224.368427 
L 221.689493 220.752073 
L 221.880598 220.752073 
L 221.880598 220.235451 
L 222.256782 220.235451 
L 222.256782 219.202207 
L 222.441946 219.202207 
L 222.441946 217.652341 
L 222.62521 217.652341 
L 222.62521 216.102475 
L 222.806614 216.102475 
L 222.806614 212.48612 
L 222.986194 212.48612 
L 222.986194 211.452876 
L 223.163988 211.452876 
L 223.163988 209.90301 
L 223.514355 209.90301 
L 223.514355 207.836522 
L 223.686995 207.836522 
L 223.686995 206.803278 
L 224.850911 206.803278 
L 224.850911 205.770034 
L 225.169993 205.770034 
L 225.169993 204.73679 
L 225.327423 204.73679 
L 225.327423 203.186924 
L 225.483477 203.186924 
L 225.483477 202.670302 
L 226.82983 202.670302 
L 226.82983 202.15368 
L 227.115725 202.15368 
L 227.115725 201.637058 
L 227.67415 201.637058 
L 227.67415 200.603814 
L 227.811071 200.603814 
L 227.811071 199.57057 
L 228.081805 199.57057 
L 228.081805 199.053948 
L 228.348498 199.053948 
L 228.348498 197.504082 
L 228.611269 197.504082 
L 228.611269 192.854484 
L 228.74122 192.854484 
L 228.74122 191.82124 
L 228.998319 191.82124 
L 228.998319 191.304618 
L 229.251772 191.304618 
L 229.251772 190.787996 
L 229.50168 190.787996 
L 229.50168 190.271374 
L 229.625335 190.271374 
L 229.625335 187.688264 
L 229.748141 187.688264 
L 229.748141 187.171642 
L 230.111572 187.171642 
L 230.111572 186.65502 
L 230.231092 186.65502 
L 230.231092 185.621776 
L 230.467759 185.621776 
L 230.467759 185.105154 
L 231.934105 185.105154 
L 231.934105 184.07191 
L 233.587827 184.07191 
L 233.587827 182.522044 
L 234.360623 182.522044 
L 234.360623 182.005422 
L 234.734838 182.005422 
L 234.734838 179.422312 
L 235.191848 179.422312 
L 235.191848 177.872445 
L 235.371429 177.872445 
L 235.371429 177.355823 
L 237.94623 177.355823 
L 237.94623 174.772713 
L 238.479646 174.772713 
L 238.479646 174.256091 
L 239.921405 174.256091 
L 239.921405 173.222847 
L 241.948849 173.222847 
L 241.948849 170.639737 
L 242.255342 170.639737 
L 242.255342 170.123115 
L 243.713583 170.123115 
L 243.713583 169.606493 
L 243.825259 169.606493 
L 243.825259 167.023383 
L 244.046538 167.023383 
L 244.046538 166.506761 
L 244.427304 166.506761 
L 244.427304 163.923651 
L 244.800125 163.923651 
L 244.905232 162.890407 
L 245.113609 162.890407 
L 245.165325 161.340541 
L 245.268312 161.340541 
L 245.370708 158.757431 
L 247.934456 158.757431 
L 247.934456 157.724187 
L 249.131811 157.724187 
L 249.214343 154.624455 
L 249.337431 154.624455 
L 249.337431 154.107833 
L 249.821472 154.107833 
L 249.861224 149.974857 
L 249.979949 149.974857 
L 249.979949 149.458235 
L 250.447116 149.458235 
L 250.447116 147.391747 
L 251.528103 147.391747 
L 251.528103 146.875125 
L 251.779518 146.875125 
L 251.779518 146.358503 
L 252.95275 146.358503 
L 253.052665 144.292014 
L 254.9419 144.292014 
L 254.9419 143.775392 
L 256.514051 143.775392 
L 256.514051 143.25877 
L 259.849155 143.25877 
L 259.849155 142.742148 
L 277.411582 142.742148 
L 277.411582 142.225526 
L 277.764918 142.225526 
L 277.764918 141.708904 
L 278.682265 141.708904 
L 278.682265 141.192282 
L 279.173972 141.192282 
L 279.173972 140.159038 
L 279.312009 140.159038 
L 279.395844 138.09255 
L 279.927694 138.09255 
L 279.927694 137.059306 
L 280.140456 137.059306 
L 280.249519 133.959574 
L 280.508586 133.959574 
L 280.508586 133.442952 
L 280.749859 133.442952 
L 280.749859 132.92633 
L 281.188491 132.92633 
L 281.188491 132.409708 
L 289.741503 132.409708 
L 289.741503 130.859842 
L 290.278804 130.859842 
L 290.278804 130.34322 
L 290.703769 130.34322 
L 290.804435 128.793354 
L 291.142517 128.793354 
L 291.154334 127.76011 
L 296.710125 127.76011 
L 296.710125 127.243488 
L 296.896686 127.243488 
L 296.896686 126.726866 
L 297.436651 126.726866 
L 297.44496 125.177 
L 302.262585 125.177 
L 302.262585 124.143756 
L 305.615231 124.143756 
L 305.615231 123.627134 
L 305.886597 123.627134 
L 305.886597 123.110512 
L 306.208246 123.110512 
L 306.208246 122.59389 
L 309.027427 122.59389 
L 309.027427 122.077268 
L 309.145779 122.077268 
L 309.187448 121.044024 
L 309.3133 121.044024 
L 309.3133 120.527402 
L 311.849329 120.527402 
L 311.849329 120.01078 
L 314.257682 120.01078 
L 314.257682 119.494158 
L 316.187652 119.494158 
L 316.187652 118.977536 
L 319.791856 118.977536 
L 319.791856 117.944292 
L 328.38175 117.944292 
L 328.38175 117.42767 
L 358.8 117.42767 
L 358.8 117.42767 
" style="fill:none;stroke:#00bfbf;stroke-linecap:square;stroke-width:1.5;"/>
   </g>
   <g id="line2d_43">
    <defs>
     <path d="M -6 0 
L 6 0 
M 0 6 
L 0 -6 
" id="m98da932664" style="stroke:#00bfbf;stroke-width:1.5;"/>
    </defs>
    <g>
     <use style="fill:none;stroke:#00bfbf;stroke-width:1.5;" x="358.8" xlink:href="#m98da932664" y="117.42767"/>
    </g>
   </g>
   <g id="line2d_44"/>
   <g id="line2d_45">
    <path clip-path="url(#pac5d789c8f)" d="M 276.514286 142.742148 
" style="fill:none;stroke:#00bfbf;stroke-linecap:square;stroke-width:1.5;"/>
    <defs>
     <path d="M -12 12 
L 12 -12 
M -12 -12 
L 12 12 
" id="mb26d3bc298" style="stroke:#00bfbf;stroke-width:3;"/>
    </defs>
    <g clip-path="url(#pac5d789c8f)">
     <use style="fill:#00bfbf;stroke:#00bfbf;stroke-width:3;" x="276.514286" xlink:href="#mb26d3bc298" y="142.742148"/>
    </g>
   </g>
   <g id="line2d_46">
    <defs>
     <path d="M 0 1.5 
C 0.397805 1.5 0.77937 1.341951 1.06066 1.06066 
C 1.341951 0.77937 1.5 0.397805 1.5 0 
C 1.5 -0.397805 1.341951 -0.77937 1.06066 -1.06066 
C 0.77937 -1.341951 0.397805 -1.5 0 -1.5 
C -0.397805 -1.5 -0.77937 -1.341951 -1.06066 -1.06066 
C -1.341951 -0.77937 -1.5 -0.397805 -1.5 0 
C -1.5 0.397805 -1.341951 0.77937 -1.06066 1.06066 
C -0.77937 1.341951 -0.397805 1.5 0 1.5 
z
" id="mabce504428" style="stroke:#008000;"/>
    </defs>
    <g>
     <use style="fill:#008000;stroke:#008000;" x="330.086397" xlink:href="#mabce504428" y="174.256091"/>
     <use style="fill:#008000;stroke:#008000;" x="330.086397" xlink:href="#mabce504428" y="174.256091"/>
    </g>
   </g>
   <g id="line2d_47">
    <path d="M 51.169868 298.245375 
L 51.169868 283.779959 
L 145.840817 283.779959 
L 145.840817 274.480762 
L 153.085714 274.480762 
L 153.085714 273.447518 
L 158.226051 273.447518 
L 158.226051 271.897652 
L 162.213206 271.897652 
L 162.213206 270.864408 
L 165.470948 270.864408 
L 165.470948 270.347786 
L 168.225331 270.347786 
L 168.225331 268.79792 
L 174.59844 268.79792 
L 174.59844 268.281298 
L 176.301453 268.281298 
L 176.301453 266.731432 
L 177.856183 266.731432 
L 177.856183 266.21481 
L 181.843337 266.21481 
L 181.843337 265.698188 
L 182.996519 265.698188 
L 182.996519 264.664944 
L 190.970829 264.664944 
L 190.970829 263.115078 
L 192.995799 263.115078 
L 192.995799 262.598456 
L 197.486314 262.598456 
L 197.486314 262.081834 
L 198.452393 262.081834 
L 198.452393 261.04859 
L 200.240696 261.04859 
L 200.240696 260.531968 
L 201.071921 260.531968 
L 201.071921 259.498724 
L 202.626651 259.498724 
L 202.626651 258.982102 
L 203.356063 258.982102 
L 203.356063 257.948858 
L 211.071201 257.948858 
L 211.071201 256.398992 
L 211.976109 256.398992 
L 211.976109 255.88237 
L 212.195353 255.88237 
L 212.195353 254.849126 
L 213.457155 254.849126 
L 213.457155 254.332504 
L 213.858703 254.332504 
L 213.858703 252.782638 
L 214.056143 252.782638 
L 214.056143 251.749394 
L 214.251425 251.749394 
L 214.251425 251.232772 
L 214.444595 251.232772 
L 214.444595 249.682906 
L 214.824782 249.682906 
L 214.824782 249.166284 
L 215.380313 249.166284 
L 215.380313 248.13304 
L 215.741297 248.13304 
L 215.741297 246.066551 
L 215.919091 246.066551 
L 215.919091 244.000063 
L 216.095133 244.000063 
L 216.095133 240.900331 
L 216.269457 240.900331 
L 216.269457 240.383709 
L 216.613085 240.383709 
L 216.613085 239.350465 
L 217.28113 239.350465 
L 217.28113 238.317221 
L 219.147324 238.317221 
L 219.147324 236.767355 
L 219.294387 236.767355 
L 219.294387 235.734111 
L 220.291274 235.734111 
L 220.291274 235.217489 
L 220.429252 235.217489 
L 220.429252 232.117757 
L 220.836907 232.117757 
L 220.836907 231.084513 
L 221.103601 231.084513 
L 221.103601 230.051269 
L 221.235469 230.051269 
L 221.235469 229.534647 
L 221.366372 229.534647 
L 221.366372 228.501403 
L 221.625334 228.501403 
L 221.625334 227.468159 
L 221.880598 227.468159 
L 221.880598 226.434915 
L 222.006875 226.434915 
L 222.006875 225.918293 
L 222.380438 225.918293 
L 222.380438 223.851805 
L 222.503243 223.851805 
L 222.503243 223.335183 
L 222.74635 223.335183 
L 222.74635 222.818561 
L 222.866675 222.818561 
L 222.866675 222.301939 
L 223.10492 222.301939 
L 223.10492 221.268695 
L 223.456435 221.268695 
L 223.456435 220.752073 
L 223.914617 220.752073 
L 223.914617 220.235451 
L 227.020934 220.235451 
L 227.020934 219.202207 
L 234.517499 219.202207 
L 234.517499 218.685585 
L 235.010444 218.685585 
L 235.071117 217.652341 
L 241.803999 217.652341 
L 241.803999 217.135719 
L 277.054007 217.135719 
L 277.151978 212.48612 
L 277.220812 212.48612 
L 277.31218 207.836522 
L 277.346323 207.836522 
L 277.431396 204.220168 
L 277.516066 204.220168 
L 277.549822 203.186924 
L 289.189008 203.186924 
L 289.294184 199.053948 
L 289.30292 199.053948 
L 289.363958 194.920972 
L 289.450795 194.920972 
L 289.450795 194.40435 
L 289.708802 194.40435 
L 289.708802 193.887728 
L 296.341857 193.887728 
L 296.435859 188.721508 
L 296.45538 188.721508 
L 296.484623 187.688264 
L 301.464022 187.688264 
L 301.518482 185.621776 
L 301.705615 185.621776 
L 301.705615 185.105154 
L 305.415467 185.105154 
L 305.441445 184.07191 
L 308.651335 184.07191 
L 308.673997 182.005422 
L 311.371458 182.005422 
L 311.406985 180.455556 
L 315.846538 180.455556 
L 315.872883 178.90569 
L 322.431024 178.90569 
L 322.431024 178.389067 
L 323.727457 178.389067 
L 323.732121 176.839201 
L 324.959919 176.839201 
L 324.959919 176.322579 
L 326.106148 176.322579 
L 326.110231 175.289335 
L 328.208688 175.289335 
L 328.208688 174.772713 
L 330.086397 174.772713 
L 330.086397 174.256091 
L 358.8 174.256091 
L 358.8 174.256091 
" style="fill:none;stroke:#008000;stroke-linecap:square;stroke-width:1.5;"/>
   </g>
   <g id="line2d_48">
    <defs>
     <path d="M -0 6 
L 6 -6 
L -6 -6 
z
" id="m325ccfae35" style="stroke:#008000;stroke-linejoin:miter;stroke-width:1.5;"/>
    </defs>
    <g>
     <use style="fill:none;stroke:#008000;stroke-linejoin:miter;stroke-width:1.5;" x="358.8" xlink:href="#m325ccfae35" y="174.256091"/>
    </g>
   </g>
   <g id="line2d_49"/>
   <g id="line2d_50">
    <path clip-path="url(#pac5d789c8f)" d="M 276.514286 217.135719 
" style="fill:none;stroke:#008000;stroke-linecap:square;stroke-width:1.5;"/>
    <defs>
     <path d="M -12 12 
L 12 -12 
M -12 -12 
L 12 12 
" id="m9cd87fb364" style="stroke:#008000;stroke-width:3;"/>
    </defs>
    <g clip-path="url(#pac5d789c8f)">
     <use style="fill:#008000;stroke:#008000;stroke-width:3;" x="276.514286" xlink:href="#m9cd87fb364" y="217.135719"/>
    </g>
   </g>
   <g id="line2d_51">
    <defs>
     <path d="M 0 1.5 
C 0.397805 1.5 0.77937 1.341951 1.06066 1.06066 
C 1.341951 0.77937 1.5 0.397805 1.5 0 
C 1.5 -0.397805 1.341951 -0.77937 1.06066 -1.06066 
C 0.77937 -1.341951 0.397805 -1.5 0 -1.5 
C -0.397805 -1.5 -0.77937 -1.341951 -1.06066 -1.06066 
C -1.341951 -0.77937 -1.5 -0.397805 -1.5 0 
C -1.5 0.397805 -1.341951 0.77937 -1.06066 1.06066 
C -0.77937 1.341951 -0.397805 1.5 0 1.5 
z
" id="m0af3102977" style="stroke:#0000ff;"/>
    </defs>
    <g>
     <use style="fill:#0000ff;stroke:#0000ff;" x="355.481144" xlink:href="#m0af3102977" y="210.419632"/>
     <use style="fill:#0000ff;stroke:#0000ff;" x="355.481144" xlink:href="#m0af3102977" y="210.419632"/>
    </g>
   </g>
   <g id="line2d_52">
    <path d="M 136.713325 298.245375 
L 136.713325 297.728753 
L 143.958223 297.728753 
L 143.958223 295.662265 
L 149.098559 295.662265 
L 149.098559 293.079155 
L 153.085714 293.079155 
L 153.085714 292.562533 
L 156.343457 292.562533 
L 156.343457 292.045911 
L 159.097839 292.045911 
L 159.097839 291.012667 
L 161.483794 291.012667 
L 161.483794 290.496045 
L 163.588354 290.496045 
L 163.588354 289.462801 
L 167.173962 289.462801 
L 167.173962 287.912935 
L 168.728691 287.912935 
L 168.728691 287.396313 
L 170.158903 287.396313 
L 170.158903 286.879691 
L 171.483073 286.879691 
L 171.483073 284.813203 
L 172.715846 284.813203 
L 172.715846 284.296581 
L 175.973589 284.296581 
L 175.973589 283.779959 
L 176.939668 283.779959 
L 176.939668 281.196849 
L 177.856183 281.196849 
L 177.856183 279.13036 
L 181.843337 279.13036 
L 181.843337 278.613738 
L 185.10108 278.613738 
L 185.10108 278.097116 
L 185.686972 278.097116 
L 185.686972 277.580494 
L 186.254262 277.580494 
L 186.254262 277.063872 
L 188.848391 277.063872 
L 188.848391 276.54725 
L 189.789035 276.54725 
L 189.789035 276.030628 
L 191.113205 276.030628 
L 191.113205 275.514006 
L 196.5698 275.514006 
L 196.5698 274.997384 
L 197.486314 274.997384 
L 197.486314 274.480762 
L 198.639496 274.480762 
L 198.639496 273.96414 
L 199.189327 273.96414 
L 199.189327 272.930896 
L 200.240696 272.930896 
L 200.240696 272.414274 
L 202.848618 272.414274 
L 202.848618 271.897652 
L 204.125455 271.897652 
L 204.125455 271.38103 
L 209.265791 271.38103 
L 209.265791 270.864408 
L 211.709416 270.864408 
L 211.709416 269.831164 
L 211.84326 269.831164 
L 211.84326 269.314542 
L 211.976109 269.314542 
L 211.976109 268.79792 
L 212.23888 268.79792 
L 212.23888 268.281298 
L 212.753106 268.281298 
L 212.753106 267.764676 
L 213.375752 267.764676 
L 213.375752 266.21481 
L 213.618859 266.21481 
L 213.618859 265.181566 
L 218.082525 265.181566 
L 218.176321 263.6317 
L 218.362449 263.6317 
L 218.454791 262.598456 
L 218.546658 262.598456 
L 218.546658 262.081834 
L 218.99904 262.081834 
L 219.088158 261.04859 
L 219.785538 261.04859 
L 219.785538 260.531968 
L 220.944063 260.531968 
L 220.944063 260.015346 
L 221.727878 260.015346 
L 221.804401 258.982102 
L 222.032023 258.982102 
L 222.107257 256.915614 
L 222.182176 256.915614 
L 222.256782 255.365748 
L 222.55213 255.365748 
L 222.62521 253.815882 
L 222.914579 253.815882 
L 222.914579 252.782638 
L 225.943626 252.782638 
L 225.943626 252.266016 
L 226.65607 252.266016 
L 226.65607 251.749394 
L 227.058911 251.749394 
L 227.058911 250.71615 
L 228.74122 250.71615 
L 228.74122 249.682906 
L 228.998319 249.682906 
L 228.998319 249.166284 
L 230.886018 249.166284 
L 230.886018 248.649662 
L 231.204693 248.649662 
L 231.204693 247.099796 
L 232.841954 247.099796 
L 232.841954 246.583173 
L 233.60756 246.583173 
L 233.60756 245.549929 
L 236.479884 245.549929 
L 236.513439 244.000063 
L 240.839305 244.000063 
L 240.839305 243.483441 
L 276.64957 243.483441 
L 276.64957 242.966819 
L 276.822517 242.966819 
L 276.850595 241.933575 
L 276.997285 241.933575 
L 277.011193 240.900331 
L 277.180691 240.900331 
L 277.245985 237.283977 
L 277.345186 237.283977 
L 277.362234 234.700867 
L 277.852999 234.700867 
L 277.876194 233.667623 
L 278.789562 233.667623 
L 278.789562 233.151001 
L 289.03835 233.151001 
L 289.142651 231.601135 
L 289.160269 231.601135 
L 289.253355 230.051269 
L 289.581411 230.051269 
L 289.581411 229.534647 
L 289.767904 229.534647 
L 289.767904 229.018025 
L 296.322211 229.018025 
L 296.426872 226.951537 
L 296.514595 226.951537 
L 296.514595 226.434915 
L 296.654064 226.434915 
L 296.728004 225.401671 
L 301.462548 225.401671 
L 301.496129 221.785317 
L 301.628952 221.785317 
L 301.628952 221.268695 
L 308.674391 221.268695 
L 308.674391 220.752073 
L 311.53648 220.752073 
L 311.53648 220.235451 
L 315.871172 220.235451 
L 315.933068 218.685585 
L 317.795619 218.685585 
L 317.795619 218.168963 
L 322.410403 218.168963 
L 322.412047 216.102475 
L 323.729916 216.102475 
L 323.729916 215.585853 
L 324.960077 215.585853 
L 324.960077 215.069231 
L 326.109637 215.069231 
L 326.109637 214.552609 
L 327.188431 214.552609 
L 327.188431 214.035987 
L 329.198878 214.035987 
L 329.198878 213.002743 
L 330.085922 213.002743 
L 330.085922 212.48612 
L 332.599998 212.48612 
L 332.599998 211.969498 
L 337.333552 211.969498 
L 337.333552 211.452876 
L 337.901273 211.452876 
L 337.901273 210.936254 
L 355.481144 210.936254 
L 355.481144 210.419632 
L 358.8 210.419632 
L 358.8 210.419632 
" style="fill:none;stroke:#0000ff;stroke-linecap:square;stroke-width:1.5;"/>
   </g>
   <g id="line2d_53">
    <defs>
     <path d="M 0 -6 
L -1.347084 -1.854102 
L -5.706339 -1.854102 
L -2.179628 0.708204 
L -3.526712 4.854102 
L -0 2.291796 
L 3.526712 4.854102 
L 2.179628 0.708204 
L 5.706339 -1.854102 
L 1.347084 -1.854102 
z
" id="m5b7d02eafd" style="stroke:#0000ff;stroke-linejoin:bevel;stroke-width:1.5;"/>
    </defs>
    <g>
     <use style="fill:none;stroke:#0000ff;stroke-linejoin:bevel;stroke-width:1.5;" x="358.8" xlink:href="#m5b7d02eafd" y="210.419632"/>
    </g>
   </g>
   <g id="line2d_54"/>
   <g id="line2d_55">
    <path clip-path="url(#pac5d789c8f)" d="M 276.514286 243.483441 
" style="fill:none;stroke:#0000ff;stroke-linecap:square;stroke-width:1.5;"/>
    <defs>
     <path d="M -12 12 
L 12 -12 
M -12 -12 
L 12 12 
" id="m35e94c2100" style="stroke:#0000ff;stroke-width:3;"/>
    </defs>
    <g clip-path="url(#pac5d789c8f)">
     <use style="fill:#0000ff;stroke:#0000ff;stroke-width:3;" x="276.514286" xlink:href="#m35e94c2100" y="243.483441"/>
    </g>
   </g>
   <g id="line2d_56">
    <defs>
     <path d="M 0 1.5 
C 0.397805 1.5 0.77937 1.341951 1.06066 1.06066 
C 1.341951 0.77937 1.5 0.397805 1.5 0 
C 1.5 -0.397805 1.341951 -0.77937 1.06066 -1.06066 
C 0.77937 -1.341951 0.397805 -1.5 0 -1.5 
C -0.397805 -1.5 -0.77937 -1.341951 -1.06066 -1.06066 
C -1.341951 -0.77937 -1.5 -0.397805 -1.5 0 
C -1.5 0.397805 -1.341951 0.77937 -1.06066 1.06066 
C -0.77937 1.341951 -0.397805 1.5 0 1.5 
z
" id="m904203e326" style="stroke:#000000;"/>
    </defs>
    <g>
     <use style="stroke:#000000;" x="348.827636" xlink:href="#m904203e326" y="184.588532"/>
     <use style="stroke:#000000;" x="348.827636" xlink:href="#m904203e326" y="184.588532"/>
    </g>
   </g>
   <g id="line2d_57">
    <path d="M 161.483794 298.245375 
L 161.483794 297.728753 
L 168.728691 297.728753 
L 168.728691 295.145643 
L 172.715846 295.145643 
L 172.715846 294.629021 
L 174.952275 294.629021 
L 174.952275 292.045911 
L 177.856183 292.045911 
L 177.856183 291.012667 
L 178.727971 291.012667 
L 178.727971 289.979423 
L 180.353465 289.979423 
L 180.353465 289.462801 
L 181.113925 289.462801 
L 181.113925 288.946179 
L 181.843337 288.946179 
L 181.843337 287.396313 
L 182.544138 287.396313 
L 182.544138 286.879691 
L 183.868307 286.879691 
L 183.868307 285.846447 
L 185.10108 285.846447 
L 185.10108 284.813203 
L 186.804093 284.813203 
L 186.804093 281.196849 
L 188.848391 281.196849 
L 188.848391 280.680226 
L 191.94443 280.680226 
L 191.94443 279.646982 
L 192.345978 279.646982 
L 192.345978 279.13036 
L 193.867587 279.13036 
L 193.867587 277.580494 
L 208.478522 277.580494 
L 208.478522 277.063872 
L 211.163782 277.063872 
L 211.163782 276.54725 
L 211.438682 276.54725 
L 211.438682 276.030628 
L 212.497843 276.030628 
L 212.497843 275.514006 
L 214.212539 275.514006 
L 214.212539 274.997384 
L 215.123213 274.997384 
L 215.123213 274.480762 
L 217.313885 274.480762 
L 217.313885 273.447518 
L 217.893443 273.447518 
L 217.893443 272.930896 
L 218.082525 272.930896 
L 218.176321 270.864408 
L 218.269628 270.864408 
L 218.269628 270.347786 
L 218.546658 270.347786 
L 218.638055 268.79792 
L 218.728987 268.79792 
L 218.819459 267.764676 
L 218.99904 267.764676 
L 218.99904 267.248054 
L 222.842675 267.248054 
L 222.914579 265.698188 
L 222.986194 265.698188 
L 222.986194 265.181566 
L 226.303398 265.181566 
L 226.303398 263.6317 
L 228.532843 263.6317 
L 228.637335 260.015346 
L 228.947195 260.015346 
L 228.998319 256.915614 
L 231.384274 256.915614 
L 231.384274 255.88237 
L 233.168322 255.88237 
L 233.168322 255.365748 
L 233.289189 255.365748 
L 233.289189 254.332504 
L 233.528498 254.332504 
L 233.528498 253.815882 
L 234.189635 253.815882 
L 234.189635 253.29926 
L 234.679203 253.29926 
L 234.679203 252.782638 
L 235.010444 252.782638 
L 235.083227 251.232772 
L 235.263897 251.232772 
L 235.263897 249.682906 
L 238.084923 249.682906 
L 238.084923 248.13304 
L 242.520774 248.13304 
L 242.592486 247.099796 
L 242.663911 247.099796 
L 242.663911 246.583173 
L 242.993503 246.583173 
L 242.993503 246.066551 
L 243.679943 246.066551 
L 243.679943 245.549929 
L 243.969402 245.549929 
L 243.969402 245.033307 
L 244.852756 245.033307 
L 244.852756 244.516685 
L 245.734551 244.516685 
L 245.734551 244.000063 
L 247.468461 244.000063 
L 247.468461 243.483441 
L 247.631146 243.483441 
L 247.631146 242.966819 
L 249.524533 242.966819 
L 249.524533 242.450197 
L 276.631828 242.450197 
L 276.631828 241.933575 
L 277.204774 241.933575 
L 277.215086 240.900331 
L 277.69648 240.900331 
L 277.69648 239.867087 
L 277.886125 239.867087 
L 277.889435 238.833843 
L 278.126102 238.833843 
L 278.20755 236.767355 
L 278.48173 236.767355 
L 278.539256 235.734111 
L 278.672767 235.734111 
L 278.672767 234.700867 
L 278.999134 234.700867 
L 278.999134 233.151001 
L 279.193976 233.151001 
L 279.295195 231.601135 
L 279.319647 231.601135 
L 279.319647 231.084513 
L 279.471717 231.084513 
L 279.471717 229.534647 
L 279.75117 229.534647 
L 279.75117 229.018025 
L 280.079089 229.018025 
L 280.079089 227.984781 
L 280.198706 227.984781 
L 280.198706 227.468159 
L 289.246347 227.468159 
L 289.246347 226.951537 
L 289.431149 226.951537 
L 289.512482 225.918293 
L 289.767904 225.918293 
L 289.767904 225.401671 
L 289.890034 225.401671 
L 289.928872 223.851805 
L 290.011334 223.851805 
L 290.011334 223.335183 
L 290.195078 223.335183 
L 290.195078 222.818561 
L 290.344021 222.818561 
L 290.344021 222.301939 
L 290.576524 222.301939 
L 290.576524 221.268695 
L 290.836529 221.268695 
L 290.836529 220.752073 
L 296.500589 220.752073 
L 296.55655 218.168963 
L 296.666794 218.168963 
L 296.721085 216.102475 
L 296.824589 216.102475 
L 296.824589 215.585853 
L 297.011667 215.585853 
L 297.083015 213.519365 
L 297.177705 213.519365 
L 297.177705 212.48612 
L 301.454585 212.48612 
L 301.454585 211.969498 
L 301.723349 211.969498 
L 301.723349 211.452876 
L 301.849307 211.452876 
L 301.849307 210.936254 
L 302.071253 210.936254 
L 302.142923 209.90301 
L 302.244814 209.90301 
L 302.244814 209.386388 
L 305.587164 209.386388 
L 305.606114 207.836522 
L 305.801457 207.836522 
L 305.899023 206.286656 
L 305.967898 206.286656 
L 306.072081 205.253412 
L 308.726895 205.253412 
L 308.726895 204.73679 
L 309.028875 204.73679 
L 309.111509 203.703546 
L 311.535976 203.703546 
L 311.535976 203.186924 
L 311.783919 203.186924 
L 311.859218 202.15368 
L 314.000159 202.15368 
L 314.108148 200.087192 
L 314.174279 200.087192 
L 314.174279 199.57057 
L 316.128385 199.57057 
L 316.223505 198.537326 
L 317.973451 198.537326 
L 318.005372 196.98746 
L 319.715266 196.98746 
L 319.715266 196.470838 
L 321.137441 196.470838 
L 321.205546 195.437594 
L 322.646033 195.437594 
L 322.646033 194.920972 
L 325.115181 194.920972 
L 325.172766 193.371106 
L 327.27292 193.371106 
L 327.27292 192.854484 
L 328.355848 192.854484 
L 328.355848 192.337862 
L 330.202471 192.337862 
L 330.245804 191.304618 
L 331.101055 191.304618 
L 331.101055 190.787996 
L 331.93042 190.787996 
L 331.93042 190.271374 
L 333.446041 190.271374 
L 333.446041 189.754752 
L 334.865071 189.754752 
L 334.866298 188.721508 
L 335.550208 188.721508 
L 335.550208 188.204886 
L 340.154025 188.204886 
L 340.154025 187.688264 
L 341.603396 187.688264 
L 341.614619 186.65502 
L 342.955164 186.65502 
L 342.955164 186.138398 
L 346.125402 186.138398 
L 346.125402 185.621776 
L 348.497077 185.621776 
L 348.497077 185.105154 
L 348.827636 185.105154 
L 348.827636 184.588532 
L 358.8 184.588532 
L 358.8 184.588532 
" style="fill:none;stroke:#000000;stroke-linecap:square;stroke-width:1.5;"/>
   </g>
   <g id="line2d_58">
    <defs>
     <path d="M 0 6 
C 1.591219 6 3.117479 5.367802 4.242641 4.242641 
C 5.367802 3.117479 6 1.591219 6 0 
C 6 -1.591219 5.367802 -3.117479 4.242641 -4.242641 
C 3.117479 -5.367802 1.591219 -6 0 -6 
C -1.591219 -6 -3.117479 -5.367802 -4.242641 -4.242641 
C -5.367802 -3.117479 -6 -1.591219 -6 0 
C -6 1.591219 -5.367802 3.117479 -4.242641 4.242641 
C -3.117479 5.367802 -1.591219 6 0 6 
z
" id="mfcf900c72c" style="stroke:#000000;stroke-width:1.5;"/>
    </defs>
    <g>
     <use style="fill:none;stroke:#000000;stroke-width:1.5;" x="358.8" xlink:href="#mfcf900c72c" y="184.588532"/>
    </g>
   </g>
   <g id="line2d_59"/>
   <g id="line2d_60">
    <path clip-path="url(#pac5d789c8f)" d="M 276.514286 242.450197 
" style="fill:none;stroke:#000000;stroke-linecap:square;stroke-width:1.5;"/>
    <defs>
     <path d="M -12 12 
L 12 -12 
M -12 -12 
L 12 12 
" id="mc396be5441" style="stroke:#000000;stroke-width:3;"/>
    </defs>
    <g clip-path="url(#pac5d789c8f)">
     <use style="stroke:#000000;stroke-width:3;" x="276.514286" xlink:href="#mc396be5441" y="242.450197"/>
    </g>
   </g>
   <g id="line2d_61">
    <defs>
     <path d="M 0 1.5 
C 0.397805 1.5 0.77937 1.341951 1.06066 1.06066 
C 1.341951 0.77937 1.5 0.397805 1.5 0 
C 1.5 -0.397805 1.341951 -0.77937 1.06066 -1.06066 
C 0.77937 -1.341951 0.397805 -1.5 0 -1.5 
C -0.397805 -1.5 -0.77937 -1.341951 -1.06066 -1.06066 
C -1.341951 -0.77937 -1.5 -0.397805 -1.5 0 
C -1.5 0.397805 -1.341951 0.77937 -1.06066 1.06066 
C -0.77937 1.341951 -0.397805 1.5 0 1.5 
z
" id="m67f2d66a73" style="stroke:#ff0000;"/>
    </defs>
    <g>
     <use style="fill:#ff0000;stroke:#ff0000;" x="358.507149" xlink:href="#m67f2d66a73" y="143.25877"/>
     <use style="fill:#ff0000;stroke:#ff0000;" x="358.507149" xlink:href="#m67f2d66a73" y="143.25877"/>
    </g>
   </g>
   <g id="line2d_62">
    <path d="M 173.301738 298.245375 
L 173.301738 297.212131 
L 175.973589 297.212131 
L 175.973589 296.178887 
L 177.856183 296.178887 
L 177.856183 295.662265 
L 178.297393 295.662265 
L 178.297393 295.145643 
L 178.727971 295.145643 
L 178.727971 294.629021 
L 180.73774 294.629021 
L 180.73774 293.079155 
L 190.899213 293.079155 
L 190.899213 292.562533 
L 193.122975 292.562533 
L 193.122975 291.529289 
L 193.499159 291.529289 
L 193.499159 291.012667 
L 200.867712 291.012667 
L 200.867712 290.496045 
L 202.626651 290.496045 
L 202.626651 289.979423 
L 202.737979 289.979423 
L 202.737979 288.946179 
L 203.709898 288.946179 
L 203.709898 287.912935 
L 204.125455 287.912935 
L 204.125455 286.879691 
L 204.531566 286.879691 
L 204.531566 286.363069 
L 204.731212 286.363069 
L 204.731212 285.846447 
L 205.412912 285.846447 
L 205.412912 285.329825 
L 206.343753 285.329825 
L 206.343753 284.813203 
L 209.111088 284.813203 
L 209.111088 283.779959 
L 209.722023 283.779959 
L 209.722023 282.746715 
L 210.093515 282.746715 
L 210.093515 281.196849 
L 210.529345 281.196849 
L 210.60096 280.163604 
L 212.942189 280.163604 
L 212.942189 279.646982 
L 215.936773 279.646982 
L 215.936773 278.097116 
L 216.304119 278.097116 
L 216.407702 277.063872 
L 218.99904 277.063872 
L 218.99904 276.54725 
L 220.742616 276.54725 
L 220.742616 276.030628 
L 221.02401 276.030628 
L 221.02401 274.997384 
L 221.535124 274.997384 
L 221.535124 274.480762 
L 222.62521 274.480762 
L 222.62521 273.447518 
L 222.950422 273.447518 
L 222.986194 272.414274 
L 224.228494 272.414274 
L 224.228494 271.897652 
L 226.184277 271.897652 
L 226.243937 270.347786 
L 230.678112 270.347786 
L 230.678112 269.831164 
L 231.249758 269.831164 
L 231.339548 267.248054 
L 232.404346 267.248054 
L 232.446488 266.21481 
L 233.289189 266.21481 
L 233.289189 265.698188 
L 234.09393 265.698188 
L 234.09393 265.181566 
L 234.227774 265.181566 
L 234.227774 264.664944 
L 234.417257 264.664944 
L 234.417257 264.148322 
L 235.281864 264.148322 
L 235.281864 263.6317 
L 236.829109 263.6317 
L 236.829109 263.115078 
L 236.993038 263.115078 
L 237.041925 261.565212 
L 237.837609 261.565212 
L 237.868711 260.015346 
L 239.229468 260.015346 
L 239.229468 259.498724 
L 239.344283 259.498724 
L 239.344283 258.982102 
L 239.990528 258.982102 
L 240.031873 257.948858 
L 240.547466 257.948858 
L 240.547466 256.915614 
L 241.268316 256.915614 
L 241.345224 254.849126 
L 241.9241 254.849126 
L 241.936479 253.815882 
L 242.592486 253.815882 
L 242.592486 253.29926 
L 243.098166 253.29926 
L 243.202218 251.749394 
L 243.724782 251.749394 
L 243.747159 250.71615 
L 245.824366 250.71615 
L 245.854204 247.616418 
L 246.26679 247.616418 
L 246.363637 244.516685 
L 246.651066 244.516685 
L 246.651066 244.000063 
L 247.230825 244.000063 
L 247.230825 243.483441 
L 248.119255 243.483441 
L 248.119255 242.450197 
L 248.662453 242.450197 
L 248.662453 241.416953 
L 249.773654 241.416953 
L 249.773654 240.900331 
L 250.113558 240.900331 
L 250.113558 240.383709 
L 250.539101 240.383709 
L 250.630616 239.350465 
L 252.083633 239.350465 
L 252.083633 238.833843 
L 254.034819 238.833843 
L 254.034819 238.317221 
L 255.285187 238.317221 
L 255.285187 237.800599 
L 255.460194 237.800599 
L 255.460194 237.283977 
L 255.575921 237.283977 
L 255.575921 236.767355 
L 256.606844 236.767355 
L 256.606844 236.250733 
L 257.232734 236.250733 
L 257.232734 235.734111 
L 258.491071 235.734111 
L 258.491071 235.217489 
L 258.960103 235.217489 
L 258.98395 233.667623 
L 260.355038 233.667623 
L 260.355038 233.151001 
L 264.639856 233.151001 
L 264.639856 232.117757 
L 278.052479 232.117757 
L 278.052479 231.601135 
L 278.209175 231.601135 
L 278.209175 230.567891 
L 278.604546 230.567891 
L 278.610903 229.534647 
L 278.996024 229.534647 
L 278.996024 229.018025 
L 279.312009 229.018025 
L 279.312009 227.984781 
L 279.532184 227.984781 
L 279.592448 226.951537 
L 279.832974 226.951537 
L 279.832974 226.434915 
L 280.124404 226.434915 
L 280.124404 225.918293 
L 280.284279 225.918293 
L 280.333407 223.851805 
L 280.494292 223.851805 
L 280.569923 222.818561 
L 280.916833 222.818561 
L 280.994872 221.268695 
L 281.309129 221.268695 
L 281.336434 220.235451 
L 281.67025 220.235451 
L 281.742407 219.202207 
L 282.070102 219.202207 
L 282.070102 218.685585 
L 282.196655 218.685585 
L 282.203154 217.652341 
L 282.397038 217.652341 
L 282.397038 216.619097 
L 282.587568 216.619097 
L 282.587568 216.102475 
L 282.965131 216.102475 
L 282.965131 215.585853 
L 283.451602 215.585853 
L 283.451602 215.069231 
L 284.736168 215.069231 
L 284.736168 214.552609 
L 290.437714 214.552609 
L 290.477017 213.519365 
L 290.757797 213.519365 
L 290.757797 213.002743 
L 290.961942 213.002743 
L 291.00011 211.969498 
L 291.236045 211.969498 
L 291.236045 211.452876 
L 291.614549 211.452876 
L 291.662834 209.90301 
L 291.969408 209.90301 
L 291.969408 208.869766 
L 292.41449 208.869766 
L 292.41449 208.353144 
L 297.126477 208.353144 
L 297.213645 206.803278 
L 297.320478 206.803278 
L 297.320478 205.770034 
L 297.454372 205.770034 
L 297.545467 202.670302 
L 297.735541 202.670302 
L 297.761675 201.637058 
L 297.889615 201.637058 
L 297.999473 200.087192 
L 298.033264 200.087192 
L 298.033264 199.57057 
L 298.327689 199.57057 
L 298.406055 197.504082 
L 298.767627 197.504082 
L 298.767627 196.98746 
L 298.972672 196.98746 
L 298.972672 196.470838 
L 302.304404 196.470838 
L 302.388171 194.920972 
L 302.596923 194.920972 
L 302.617664 193.371106 
L 303.720948 193.371106 
L 303.720948 192.854484 
L 306.038562 192.854484 
L 306.038562 192.337862 
L 306.262423 192.337862 
L 306.262423 191.82124 
L 306.407884 191.82124 
L 306.407884 191.304618 
L 306.89156 191.304618 
L 306.89156 190.787996 
L 309.272781 190.787996 
L 309.342918 189.754752 
L 309.429213 189.754752 
L 309.514248 188.721508 
L 311.873796 188.721508 
L 311.922875 187.688264 
L 312.118101 187.688264 
L 312.191522 186.65502 
L 312.252558 186.65502 
L 312.360794 185.105154 
L 312.551318 185.105154 
L 312.551318 184.588532 
L 312.716524 184.588532 
L 312.716524 184.07191 
L 314.344568 184.07191 
L 314.344568 183.555288 
L 314.487238 183.555288 
L 314.487238 183.038666 
L 314.929572 183.038666 
L 314.929572 182.005422 
L 316.426604 182.005422 
L 316.532337 179.938934 
L 316.560668 179.938934 
L 316.560668 178.90569 
L 316.76788 178.90569 
L 316.76788 177.872445 
L 316.898485 177.872445 
L 316.898485 177.355823 
L 318.193628 177.355823 
L 318.234157 175.805957 
L 318.313906 175.805957 
L 318.417633 173.739469 
L 318.553589 173.739469 
L 318.553589 173.222847 
L 319.808338 173.222847 
L 319.808338 172.706225 
L 320.176941 172.706225 
L 320.284929 171.672981 
L 321.406144 171.672981 
L 321.406144 171.156359 
L 322.759201 171.156359 
L 322.839465 170.123115 
L 322.892997 170.123115 
L 322.892997 169.606493 
L 324.054108 169.606493 
L 324.054108 169.089871 
L 324.215757 169.089871 
L 324.215757 168.573249 
L 325.267317 168.573249 
L 325.343135 167.540005 
L 326.424926 167.540005 
L 326.534308 166.506761 
L 328.527627 166.506761 
L 328.624608 163.923651 
L 329.386705 163.923651 
L 329.465586 162.373785 
L 329.530152 162.373785 
L 329.603277 160.823919 
L 330.365267 160.823919 
L 330.365267 160.307297 
L 330.496221 160.307297 
L 330.496221 159.790675 
L 331.171644 159.790675 
L 331.196536 158.757431 
L 331.313323 158.757431 
L 331.404534 157.724187 
L 332.774896 157.724187 
L 332.874291 156.174321 
L 332.904459 156.174321 
L 332.904459 155.657699 
L 333.469213 155.657699 
L 333.57671 153.591211 
L 333.588069 153.591211 
L 333.588069 153.074589 
L 334.246063 153.074589 
L 334.246063 152.557967 
L 335.006381 152.557967 
L 335.006381 152.041345 
L 335.605262 152.041345 
L 335.605262 151.524723 
L 336.262724 151.524723 
L 336.262724 151.008101 
L 336.423534 151.008101 
L 336.423534 150.491479 
L 337.488582 150.491479 
L 337.488582 149.974857 
L 338.0965 149.974857 
L 338.144535 148.941613 
L 338.6483 148.941613 
L 338.6483 148.424991 
L 340.247128 148.424991 
L 340.247128 147.908369 
L 341.192381 147.908369 
L 341.192381 147.391747 
L 341.783751 147.391747 
L 341.783751 146.875125 
L 342.63828 146.875125 
L 342.63828 146.358503 
L 344.278116 146.358503 
L 344.278116 145.841881 
L 346.544623 145.841881 
L 346.544623 145.325259 
L 347.918466 145.325259 
L 347.918466 144.808637 
L 349.178753 144.808637 
L 349.178753 144.292014 
L 349.471317 144.292014 
L 349.471317 143.775392 
L 358.507149 143.775392 
L 358.507149 143.25877 
L 358.8 143.25877 
L 358.8 143.25877 
" style="fill:none;stroke:#ff0000;stroke-linecap:square;stroke-width:1.5;"/>
   </g>
   <g id="line2d_63">
    <defs>
     <path d="M -6 6 
L 6 6 
L 6 -6 
L -6 -6 
z
" id="m465608a62a" style="stroke:#ff0000;stroke-linejoin:miter;stroke-width:1.5;"/>
    </defs>
    <g>
     <use style="fill:none;stroke:#ff0000;stroke-linejoin:miter;stroke-width:1.5;" x="358.8" xlink:href="#m465608a62a" y="143.25877"/>
    </g>
   </g>
   <g id="line2d_64"/>
   <g id="line2d_65">
    <path clip-path="url(#pac5d789c8f)" d="M 276.514286 232.117757 
" style="fill:none;stroke:#ff0000;stroke-linecap:square;stroke-width:1.5;"/>
    <defs>
     <path d="M -12 12 
L 12 -12 
M -12 -12 
L 12 12 
" id="mdcd0681d1a" style="stroke:#ff0000;stroke-width:3;"/>
    </defs>
    <g clip-path="url(#pac5d789c8f)">
     <use style="fill:#ff0000;stroke:#ff0000;stroke-width:3;" x="276.514286" xlink:href="#mdcd0681d1a" y="232.117757"/>
    </g>
   </g>
   <g id="line2d_66">
    <defs>
     <path d="M 0 1.5 
C 0.397805 1.5 0.77937 1.341951 1.06066 1.06066 
C 1.341951 0.77937 1.5 0.397805 1.5 0 
C 1.5 -0.397805 1.341951 -0.77937 1.06066 -1.06066 
C 0.77937 -1.341951 0.397805 -1.5 0 -1.5 
C -0.397805 -1.5 -0.77937 -1.341951 -1.06066 -1.06066 
C -1.341951 -0.77937 -1.5 -0.397805 -1.5 0 
C -1.5 0.397805 -1.341951 0.77937 -1.06066 1.06066 
C -0.77937 1.341951 -0.397805 1.5 0 1.5 
z
" id="m736051c2f9" style="stroke:#bf00bf;"/>
    </defs>
    <g>
     <use style="fill:#bf00bf;stroke:#bf00bf;" x="347.439884" xlink:href="#m736051c2f9" y="184.588532"/>
     <use style="fill:#bf00bf;stroke:#bf00bf;" x="347.439884" xlink:href="#m736051c2f9" y="184.588532"/>
    </g>
   </g>
   <g id="line2d_67">
    <path d="M 197.854742 298.245375 
L 197.854742 297.212131 
L 200.805991 297.212131 
L 200.805991 296.178887 
L 201.413809 296.178887 
L 201.413809 295.145643 
L 206.434225 295.145643 
L 206.434225 294.629021 
L 208.598847 294.629021 
L 208.598847 294.112399 
L 211.675798 294.112399 
L 211.675798 293.595777 
L 213.222113 293.595777 
L 213.222113 293.079155 
L 213.799043 293.079155 
L 213.799043 292.562533 
L 216.45927 292.562533 
L 216.510689 291.529289 
L 218.569551 291.529289 
L 218.569551 291.012667 
L 218.796884 291.012667 
L 218.796884 290.496045 
L 220.823468 290.496045 
L 220.823468 289.979423 
L 221.899596 289.979423 
L 221.899596 289.462801 
L 224.672957 289.462801 
L 224.672957 288.946179 
L 225.436804 288.946179 
L 225.436804 287.912935 
L 226.019178 287.912935 
L 226.019178 287.396313 
L 226.772097 287.396313 
L 226.844233 286.363069 
L 231.35074 286.363069 
L 231.35074 285.329825 
L 231.517785 285.329825 
L 231.517785 284.813203 
L 232.319763 284.813203 
L 232.319763 284.296581 
L 232.821357 284.296581 
L 232.924107 283.263337 
L 233.46897 283.263337 
L 233.46897 282.230093 
L 233.968742 282.230093 
L 233.968742 281.713471 
L 234.85479 281.713471 
L 234.85479 281.196849 
L 238.614275 281.196849 
L 238.614275 280.680226 
L 239.529299 280.680226 
L 239.529299 280.163604 
L 241.338827 280.163604 
L 241.338827 279.646982 
L 242.297834 279.646982 
L 242.297834 278.613738 
L 242.823581 278.613738 
L 242.823581 277.063872 
L 243.752749 277.063872 
L 243.752749 276.54725 
L 244.04104 276.54725 
L 244.046538 274.997384 
L 245.072127 274.997384 
L 245.072127 273.96414 
L 246.320121 273.96414 
L 246.320121 272.414274 
L 246.593949 272.414274 
L 246.593949 271.897652 
L 247.720891 271.897652 
L 247.720891 271.38103 
L 248.611426 271.38103 
L 248.611426 270.864408 
L 249.011459 270.864408 
L 249.011459 270.347786 
L 249.435294 270.347786 
L 249.443425 268.79792 
L 250.443273 268.79792 
L 250.443273 268.281298 
L 251.408341 268.281298 
L 251.408341 267.764676 
L 252.714034 267.764676 
L 252.818655 266.21481 
L 253.381737 266.21481 
L 253.381737 264.664944 
L 253.589207 264.664944 
L 253.598873 263.115078 
L 254.852035 263.115078 
L 254.852035 262.081834 
L 254.992624 262.081834 
L 254.992624 261.565212 
L 255.129158 261.565212 
L 255.129158 260.015346 
L 255.870512 260.015346 
L 255.870512 258.982102 
L 256.293794 258.982102 
L 256.315942 257.948858 
L 257.342788 257.948858 
L 257.350624 256.398992 
L 258.380493 256.398992 
L 258.380493 255.88237 
L 259.889976 255.88237 
L 259.889976 255.365748 
L 260.676561 255.365748 
L 260.676561 254.849126 
L 260.907009 254.849126 
L 261.00943 251.232772 
L 261.115498 251.232772 
L 261.115498 250.199528 
L 261.434131 250.199528 
L 261.434131 249.166284 
L 261.946146 249.166284 
L 261.946146 248.649662 
L 263.399639 248.649662 
L 263.399639 248.13304 
L 265.077254 248.13304 
L 265.077254 246.583173 
L 265.517431 246.583173 
L 265.517431 246.066551 
L 266.165186 246.066551 
L 266.165186 245.549929 
L 266.767169 245.549929 
L 266.767169 245.033307 
L 267.52917 245.033307 
L 267.52917 244.516685 
L 268.244396 244.516685 
L 268.244396 244.000063 
L 269.021997 244.000063 
L 269.021997 243.483441 
L 269.435679 243.483441 
L 269.435679 242.966819 
L 269.810121 242.966819 
L 269.810121 241.933575 
L 270.31897 241.933575 
L 270.31897 240.900331 
L 270.516271 240.900331 
L 270.594834 239.867087 
L 271.308312 239.867087 
L 271.308312 239.350465 
L 272.462241 239.350465 
L 272.462241 238.317221 
L 274.629706 238.317221 
L 274.629706 237.800599 
L 275.877695 237.800599 
L 275.877695 237.283977 
L 279.844841 237.283977 
L 279.844841 236.767355 
L 280.841256 236.767355 
L 280.841256 236.250733 
L 281.021966 236.250733 
L 281.021966 235.734111 
L 282.454795 235.734111 
L 282.454795 235.217489 
L 282.810037 235.217489 
L 282.905254 233.667623 
L 283.02853 233.667623 
L 283.02853 233.151001 
L 283.27562 233.151001 
L 283.369003 232.117757 
L 283.69534 232.117757 
L 283.69534 231.084513 
L 283.848301 231.084513 
L 283.848301 230.567891 
L 283.995263 230.567891 
L 283.995263 229.534647 
L 284.228264 229.534647 
L 284.228264 229.018025 
L 284.659311 229.018025 
L 284.659311 228.501403 
L 284.964776 228.501403 
L 284.964776 227.984781 
L 285.161334 227.984781 
L 285.161334 227.468159 
L 285.405796 227.468159 
L 285.405796 226.434915 
L 285.596514 226.434915 
L 285.596514 225.918293 
L 285.708479 225.918293 
L 285.708479 225.401671 
L 286.151018 225.401671 
L 286.151018 224.885049 
L 286.563017 224.885049 
L 286.563017 224.368427 
L 287.334229 224.368427 
L 287.334229 223.851805 
L 288.469574 223.851805 
L 288.469574 223.335183 
L 288.584059 223.335183 
L 288.584059 222.818561 
L 292.30407 222.818561 
L 292.30407 222.301939 
L 293.432174 222.301939 
L 293.432174 221.268695 
L 293.978329 221.268695 
L 294.081574 219.202207 
L 294.308088 219.202207 
L 294.308088 218.685585 
L 295.051805 218.685585 
L 295.116271 217.652341 
L 295.351921 217.652341 
L 295.351921 217.135719 
L 295.538044 217.135719 
L 295.538352 215.069231 
L 295.858939 215.069231 
L 295.93473 213.519365 
L 298.49818 213.519365 
L 298.49818 213.002743 
L 298.693158 213.002743 
L 298.693158 212.48612 
L 299.963298 212.48612 
L 299.963298 211.452876 
L 303.869029 211.452876 
L 303.89626 210.419632 
L 304.06031 210.419632 
L 304.06031 209.90301 
L 304.345047 209.90301 
L 304.345047 209.386388 
L 304.62439 209.386388 
L 304.62439 208.869766 
L 304.91056 208.869766 
L 304.910742 207.836522 
L 305.10117 207.836522 
L 305.10117 207.3199 
L 306.999271 207.3199 
L 307.104079 206.286656 
L 307.49346 206.286656 
L 307.49346 205.770034 
L 307.760644 205.770034 
L 307.760644 205.253412 
L 308.229188 205.253412 
L 308.229188 204.73679 
L 310.021608 204.73679 
L 310.021608 204.220168 
L 310.177215 204.220168 
L 310.177215 203.703546 
L 310.540923 203.703546 
L 310.626931 202.15368 
L 312.764755 202.15368 
L 312.764755 201.637058 
L 312.888151 201.637058 
L 312.888151 200.603814 
L 313.003283 200.603814 
L 313.113877 199.053948 
L 313.376906 199.053948 
L 313.445116 198.020704 
L 313.591644 198.020704 
L 313.591644 197.504082 
L 315.205722 197.504082 
L 315.205722 196.98746 
L 316.885803 196.98746 
L 316.885803 196.470838 
L 317.061611 196.470838 
L 317.061611 195.954216 
L 317.477472 195.954216 
L 317.477472 195.437594 
L 320.473191 195.437594 
L 320.473191 194.920972 
L 321.655015 194.920972 
L 321.655015 194.40435 
L 322.279622 194.40435 
L 322.279622 193.887728 
L 323.124427 193.887728 
L 323.190031 192.854484 
L 324.782461 192.854484 
L 324.782461 192.337862 
L 325.943084 192.337862 
L 326.002041 190.787996 
L 327.033 190.787996 
L 327.101645 189.23813 
L 328.125006 189.23813 
L 328.125006 188.721508 
L 329.031524 188.721508 
L 329.031524 188.204886 
L 337.187082 188.204886 
L 337.258931 187.171642 
L 339.498697 187.171642 
L 339.498697 186.65502 
L 339.990506 186.65502 
L 339.990506 186.138398 
L 340.953391 186.138398 
L 340.953391 185.621776 
L 341.793242 185.621776 
L 341.793242 185.105154 
L 347.439884 185.105154 
L 347.439884 184.588532 
L 358.8 184.588532 
L 358.8 184.588532 
" style="fill:none;stroke:#bf00bf;stroke-linecap:square;stroke-width:1.5;"/>
   </g>
   <g id="line2d_68">
    <defs>
     <path d="M -0 8.485281 
L 8.485281 0 
L 0 -8.485281 
L -8.485281 -0 
z
" id="m7362288255" style="stroke:#bf00bf;stroke-linejoin:miter;stroke-width:1.5;"/>
    </defs>
    <g>
     <use style="fill:none;stroke:#bf00bf;stroke-linejoin:miter;stroke-width:1.5;" x="358.8" xlink:href="#m7362288255" y="184.588532"/>
    </g>
   </g>
   <g id="line2d_69"/>
   <g id="line2d_70">
    <path clip-path="url(#pac5d789c8f)" d="M 276.514286 237.283977 
" style="fill:none;stroke:#bf00bf;stroke-linecap:square;stroke-width:1.5;"/>
    <defs>
     <path d="M -12 12 
L 12 -12 
M -12 -12 
L 12 12 
" id="m2a7ca8692e" style="stroke:#bf00bf;stroke-width:3;"/>
    </defs>
    <g clip-path="url(#pac5d789c8f)">
     <use style="fill:#bf00bf;stroke:#bf00bf;stroke-width:3;" x="276.514286" xlink:href="#m2a7ca8692e" y="237.283977"/>
    </g>
   </g>
   <g id="line2d_71">
    <path d="M 358.8 210.419632 
L 390.48 292.97583 
" style="fill:none;stroke:#0000ff;stroke-linecap:square;stroke-width:1.5;"/>
    <g>
     <use style="fill:none;stroke:#0000ff;stroke-linejoin:bevel;stroke-width:1.5;" x="358.8" xlink:href="#m5b7d02eafd" y="210.419632"/>
     <use style="fill:none;stroke:#0000ff;stroke-linejoin:bevel;stroke-width:1.5;" x="390.48" xlink:href="#m5b7d02eafd" y="292.97583"/>
    </g>
   </g>
   <g id="line2d_72">
    <path d="M 358.8 184.588532 
L 390.48 242.388203 
" style="fill:none;stroke:#000000;stroke-linecap:square;stroke-width:1.5;"/>
    <g>
     <use style="fill:none;stroke:#000000;stroke-width:1.5;" x="358.8" xlink:href="#mfcf900c72c" y="184.588532"/>
     <use style="fill:none;stroke:#000000;stroke-width:1.5;" x="390.48" xlink:href="#mfcf900c72c" y="242.388203"/>
    </g>
   </g>
   <g id="line2d_73">
    <path d="M 358.8 184.588532 
L 390.48 191.800575 
" style="fill:none;stroke:#bf00bf;stroke-linecap:square;stroke-width:1.5;"/>
    <g>
     <use style="fill:none;stroke:#bf00bf;stroke-linejoin:miter;stroke-width:1.5;" x="358.8" xlink:href="#m7362288255" y="184.588532"/>
     <use style="fill:none;stroke:#bf00bf;stroke-linejoin:miter;stroke-width:1.5;" x="390.48" xlink:href="#m7362288255" y="191.800575"/>
    </g>
   </g>
   <g id="line2d_74">
    <path d="M 358.8 174.256091 
L 390.48 141.212947 
" style="fill:none;stroke:#008000;stroke-linecap:square;stroke-width:1.5;"/>
    <g>
     <use style="fill:none;stroke:#008000;stroke-linejoin:miter;stroke-width:1.5;" x="358.8" xlink:href="#m325ccfae35" y="174.256091"/>
     <use style="fill:none;stroke:#008000;stroke-linejoin:miter;stroke-width:1.5;" x="390.48" xlink:href="#m325ccfae35" y="141.212947"/>
    </g>
   </g>
   <g id="line2d_75">
    <path d="M 358.8 143.25877 
L 390.48 90.62532 
" style="fill:none;stroke:#ff0000;stroke-linecap:square;stroke-width:1.5;"/>
    <g>
     <use style="fill:none;stroke:#ff0000;stroke-linejoin:miter;stroke-width:1.5;" x="358.8" xlink:href="#m465608a62a" y="143.25877"/>
     <use style="fill:none;stroke:#ff0000;stroke-linejoin:miter;stroke-width:1.5;" x="390.48" xlink:href="#m465608a62a" y="90.62532"/>
    </g>
   </g>
   <g id="line2d_76">
    <path d="M 358.8 117.42767 
L 390.48 40.037692 
" style="fill:none;stroke:#00bfbf;stroke-linecap:square;stroke-width:1.5;"/>
    <g>
     <use style="fill:none;stroke:#00bfbf;stroke-width:1.5;" x="358.8" xlink:href="#m98da932664" y="117.42767"/>
     <use style="fill:none;stroke:#00bfbf;stroke-width:1.5;" x="390.48" xlink:href="#m98da932664" y="40.037692"/>
    </g>
   </g>
   <g id="line2d_77">
    <path d="M 358.8 298.245375 
L 358.8 34.768147 
" style="fill:none;stroke:#000000;stroke-linecap:square;stroke-width:1.5;"/>
   </g>
   <g id="patch_3">
    <path d="M 70.8 298.245375 
L 70.8 32.133375 
" style="fill:none;stroke:#000000;stroke-linecap:square;stroke-linejoin:miter;stroke-width:0.8;"/>
   </g>
   <g id="patch_4">
    <path d="M 427.92 298.245375 
L 427.92 32.133375 
" style="fill:none;stroke:#000000;stroke-linecap:square;stroke-linejoin:miter;stroke-width:0.8;"/>
   </g>
   <g id="patch_5">
    <path d="M 70.8 298.245375 
L 427.92 298.245375 
" style="fill:none;stroke:#000000;stroke-linecap:square;stroke-linejoin:miter;stroke-width:0.8;"/>
   </g>
   <g id="patch_6">
    <path d="M 70.8 32.133375 
L 427.92 32.133375 
" style="fill:none;stroke:#000000;stroke-linecap:square;stroke-linejoin:miter;stroke-width:0.8;"/>
   </g>
   <g id="text_14">
    <!-- 5-D -->
    <defs>
     <path d="M 10.796875 72.90625 
L 49.515625 72.90625 
L 49.515625 64.59375 
L 19.828125 64.59375 
L 19.828125 46.734375 
Q 21.96875 47.46875 24.109375 47.828125 
Q 26.265625 48.1875 28.421875 48.1875 
Q 40.625 48.1875 47.75 41.5 
Q 54.890625 34.8125 54.890625 23.390625 
Q 54.890625 11.625 47.5625 5.09375 
Q 40.234375 -1.421875 26.90625 -1.421875 
Q 22.3125 -1.421875 17.546875 -0.640625 
Q 12.796875 0.140625 7.71875 1.703125 
L 7.71875 11.625 
Q 12.109375 9.234375 16.796875 8.0625 
Q 21.484375 6.890625 26.703125 6.890625 
Q 35.15625 6.890625 40.078125 11.328125 
Q 45.015625 15.765625 45.015625 23.390625 
Q 45.015625 31 40.078125 35.4375 
Q 35.15625 39.890625 26.703125 39.890625 
Q 22.75 39.890625 18.8125 39.015625 
Q 14.890625 38.140625 10.796875 36.28125 
z
" id="DejaVuSans-35"/>
     <path d="M 19.671875 64.796875 
L 19.671875 8.109375 
L 31.59375 8.109375 
Q 46.6875 8.109375 53.6875 14.9375 
Q 60.6875 21.78125 60.6875 36.53125 
Q 60.6875 51.171875 53.6875 57.984375 
Q 46.6875 64.796875 31.59375 64.796875 
z
M 9.8125 72.90625 
L 30.078125 72.90625 
Q 51.265625 72.90625 61.171875 64.09375 
Q 71.09375 55.28125 71.09375 36.53125 
Q 71.09375 17.671875 61.125 8.828125 
Q 51.171875 0 30.078125 0 
L 9.8125 0 
z
" id="DejaVuSans-44"/>
    </defs>
    <g transform="translate(396.24 297.114893)scale(0.15 -0.15)">
     <use xlink:href="#DejaVuSans-35"/>
     <use x="63.623047" xlink:href="#DejaVuSans-2d"/>
     <use x="99.707031" xlink:href="#DejaVuSans-44"/>
    </g>
   </g>
   <g id="text_15">
    <!-- 10-D -->
    <g transform="translate(396.24 246.527265)scale(0.15 -0.15)">
     <use xlink:href="#DejaVuSans-31"/>
     <use x="63.623047" xlink:href="#DejaVuSans-30"/>
     <use x="127.246094" xlink:href="#DejaVuSans-2d"/>
     <use x="163.330078" xlink:href="#DejaVuSans-44"/>
    </g>
   </g>
   <g id="text_16">
    <!-- 40-D -->
    <g transform="translate(396.24 195.939637)scale(0.15 -0.15)">
     <use xlink:href="#DejaVuSans-34"/>
     <use x="63.623047" xlink:href="#DejaVuSans-30"/>
     <use x="127.246094" xlink:href="#DejaVuSans-2d"/>
     <use x="163.330078" xlink:href="#DejaVuSans-44"/>
    </g>
   </g>
   <g id="text_17">
    <!-- 3-D -->
    <defs>
     <path d="M 40.578125 39.3125 
Q 47.65625 37.796875 51.625 33 
Q 55.609375 28.21875 55.609375 21.1875 
Q 55.609375 10.40625 48.1875 4.484375 
Q 40.765625 -1.421875 27.09375 -1.421875 
Q 22.515625 -1.421875 17.65625 -0.515625 
Q 12.796875 0.390625 7.625 2.203125 
L 7.625 11.71875 
Q 11.71875 9.328125 16.59375 8.109375 
Q 21.484375 6.890625 26.8125 6.890625 
Q 36.078125 6.890625 40.9375 10.546875 
Q 45.796875 14.203125 45.796875 21.1875 
Q 45.796875 27.640625 41.28125 31.265625 
Q 36.765625 34.90625 28.71875 34.90625 
L 20.21875 34.90625 
L 20.21875 43.015625 
L 29.109375 43.015625 
Q 36.375 43.015625 40.234375 45.921875 
Q 44.09375 48.828125 44.09375 54.296875 
Q 44.09375 59.90625 40.109375 62.90625 
Q 36.140625 65.921875 28.71875 65.921875 
Q 24.65625 65.921875 20.015625 65.03125 
Q 15.375 64.15625 9.8125 62.3125 
L 9.8125 71.09375 
Q 15.4375 72.65625 20.34375 73.4375 
Q 25.25 74.21875 29.59375 74.21875 
Q 40.828125 74.21875 47.359375 69.109375 
Q 53.90625 64.015625 53.90625 55.328125 
Q 53.90625 49.265625 50.4375 45.09375 
Q 46.96875 40.921875 40.578125 39.3125 
" id="DejaVuSans-33"/>
    </defs>
    <g transform="translate(396.24 145.35201)scale(0.15 -0.15)">
     <use xlink:href="#DejaVuSans-33"/>
     <use x="63.623047" xlink:href="#DejaVuSans-2d"/>
     <use x="99.707031" xlink:href="#DejaVuSans-44"/>
    </g>
   </g>
   <g id="text_18">
    <!-- 20-D -->
    <g transform="translate(396.24 94.764382)scale(0.15 -0.15)">
     <use xlink:href="#DejaVuSans-32"/>
     <use x="63.623047" xlink:href="#DejaVuSans-30"/>
     <use x="127.246094" xlink:href="#DejaVuSans-2d"/>
     <use x="163.330078" xlink:href="#DejaVuSans-44"/>
    </g>
   </g>
   <g id="text_19">
    <!-- 2-D -->
    <g transform="translate(396.24 44.176754)scale(0.15 -0.15)">
     <use xlink:href="#DejaVuSans-32"/>
     <use x="63.623047" xlink:href="#DejaVuSans-2d"/>
     <use x="99.707031" xlink:href="#DejaVuSans-44"/>
    </g>
   </g>
   <g id="text_20">
    <!-- bbob - f13 -->
    <defs>
     <path d="M 48.6875 27.296875 
Q 48.6875 37.203125 44.609375 42.84375 
Q 40.53125 48.484375 33.40625 48.484375 
Q 26.265625 48.484375 22.1875 42.84375 
Q 18.109375 37.203125 18.109375 27.296875 
Q 18.109375 17.390625 22.1875 11.75 
Q 26.265625 6.109375 33.40625 6.109375 
Q 40.53125 6.109375 44.609375 11.75 
Q 48.6875 17.390625 48.6875 27.296875 
M 18.109375 46.390625 
Q 20.953125 51.265625 25.265625 53.625 
Q 29.59375 56 35.59375 56 
Q 45.5625 56 51.78125 48.09375 
Q 58.015625 40.1875 58.015625 27.296875 
Q 58.015625 14.40625 51.78125 6.484375 
Q 45.5625 -1.421875 35.59375 -1.421875 
Q 29.59375 -1.421875 25.265625 0.953125 
Q 20.953125 3.328125 18.109375 8.203125 
L 18.109375 0 
L 9.078125 0 
L 9.078125 75.984375 
L 18.109375 75.984375 
z
" id="DejaVuSans-62"/>
    </defs>
    <g transform="translate(74.3712 50.114612)scale(0.1666 -0.1666)">
     <use xlink:href="#DejaVuSans-62"/>
     <use x="63.476562" xlink:href="#DejaVuSans-62"/>
     <use x="126.953125" xlink:href="#DejaVuSans-6f"/>
     <use x="188.134766" xlink:href="#DejaVuSans-62"/>
     <use x="251.611328" xlink:href="#DejaVuSans-20"/>
     <use x="283.398438" xlink:href="#DejaVuSans-2d"/>
     <use x="319.482422" xlink:href="#DejaVuSans-20"/>
     <use x="351.269531" xlink:href="#DejaVuSans-66"/>
     <use x="386.474609" xlink:href="#DejaVuSans-31"/>
     <use x="450.097656" xlink:href="#DejaVuSans-33"/>
    </g>
    <!-- 51 targets in 100..1e-08 -->
    <g transform="translate(74.3712 68.770168)scale(0.1666 -0.1666)">
     <use xlink:href="#DejaVuSans-35"/>
     <use x="63.623047" xlink:href="#DejaVuSans-31"/>
     <use x="127.246094" xlink:href="#DejaVuSans-20"/>
     <use x="159.033203" xlink:href="#DejaVuSans-74"/>
     <use x="198.242188" xlink:href="#DejaVuSans-61"/>
     <use x="259.521484" xlink:href="#DejaVuSans-72"/>
     <use x="300.619141" xlink:href="#DejaVuSans-67"/>
     <use x="364.095703" xlink:href="#DejaVuSans-65"/>
     <use x="425.619141" xlink:href="#DejaVuSans-74"/>
     <use x="464.828125" xlink:href="#DejaVuSans-73"/>
     <use x="516.927734" xlink:href="#DejaVuSans-20"/>
     <use x="548.714844" xlink:href="#DejaVuSans-69"/>
     <use x="576.498047" xlink:href="#DejaVuSans-6e"/>
     <use x="639.876953" xlink:href="#DejaVuSans-20"/>
     <use x="671.664062" xlink:href="#DejaVuSans-31"/>
     <use x="735.287109" xlink:href="#DejaVuSans-30"/>
     <use x="798.910156" xlink:href="#DejaVuSans-30"/>
     <use x="862.533203" xlink:href="#DejaVuSans-2e"/>
     <use x="894.320312" xlink:href="#DejaVuSans-2e"/>
     <use x="926.107422" xlink:href="#DejaVuSans-31"/>
     <use x="989.730469" xlink:href="#DejaVuSans-65"/>
     <use x="1051.253906" xlink:href="#DejaVuSans-2d"/>
     <use x="1087.337891" xlink:href="#DejaVuSans-30"/>
     <use x="1150.960938" xlink:href="#DejaVuSans-38"/>
    </g>
    <!-- 15 instances -->
    <g transform="translate(74.3712 87.425723)scale(0.1666 -0.1666)">
     <use xlink:href="#DejaVuSans-31"/>
     <use x="63.623047" xlink:href="#DejaVuSans-35"/>
     <use x="127.246094" xlink:href="#DejaVuSans-20"/>
     <use x="159.033203" xlink:href="#DejaVuSans-69"/>
     <use x="186.816406" xlink:href="#DejaVuSans-6e"/>
     <use x="250.195312" xlink:href="#DejaVuSans-73"/>
     <use x="302.294922" xlink:href="#DejaVuSans-74"/>
     <use x="341.503906" xlink:href="#DejaVuSans-61"/>
     <use x="402.783203" xlink:href="#DejaVuSans-6e"/>
     <use x="466.162109" xlink:href="#DejaVuSans-63"/>
     <use x="521.142578" xlink:href="#DejaVuSans-65"/>
     <use x="582.666016" xlink:href="#DejaVuSans-73"/>
    </g>
   </g>
   <g id="text_21">
    <!-- v2.0.1 -->
    <g style="fill:#808080;" transform="translate(233.67875 293.504568)scale(0.1 -0.1)">
     <use xlink:href="#DejaVuSans-76"/>
     <use x="59.179688" xlink:href="#DejaVuSans-32"/>
     <use x="122.802734" xlink:href="#DejaVuSans-2e"/>
     <use x="154.589844" xlink:href="#DejaVuSans-30"/>
     <use x="218.212891" xlink:href="#DejaVuSans-2e"/>
     <use x="250" xlink:href="#DejaVuSans-31"/>
    </g>
   </g>
   <g id="text_22">
    <!-- 13 Sharp ridge -->
    <defs>
     <path d="M 53.515625 70.515625 
L 53.515625 60.890625 
Q 47.90625 63.578125 42.921875 64.890625 
Q 37.9375 66.21875 33.296875 66.21875 
Q 25.25 66.21875 20.875 63.09375 
Q 16.5 59.96875 16.5 54.203125 
Q 16.5 49.359375 19.40625 46.890625 
Q 22.3125 44.4375 30.421875 42.921875 
L 36.375 41.703125 
Q 47.40625 39.59375 52.65625 34.296875 
Q 57.90625 29 57.90625 20.125 
Q 57.90625 9.515625 50.796875 4.046875 
Q 43.703125 -1.421875 29.984375 -1.421875 
Q 24.8125 -1.421875 18.96875 -0.25 
Q 13.140625 0.921875 6.890625 3.21875 
L 6.890625 13.375 
Q 12.890625 10.015625 18.65625 8.296875 
Q 24.421875 6.59375 29.984375 6.59375 
Q 38.421875 6.59375 43.015625 9.90625 
Q 47.609375 13.234375 47.609375 19.390625 
Q 47.609375 24.75 44.3125 27.78125 
Q 41.015625 30.8125 33.5 32.328125 
L 27.484375 33.5 
Q 16.453125 35.6875 11.515625 40.375 
Q 6.59375 45.0625 6.59375 53.421875 
Q 6.59375 63.09375 13.40625 68.65625 
Q 20.21875 74.21875 32.171875 74.21875 
Q 37.3125 74.21875 42.625 73.28125 
Q 47.953125 72.359375 53.515625 70.515625 
" id="DejaVuSans-53"/>
     <path d="M 54.890625 33.015625 
L 54.890625 0 
L 45.90625 0 
L 45.90625 32.71875 
Q 45.90625 40.484375 42.875 44.328125 
Q 39.84375 48.1875 33.796875 48.1875 
Q 26.515625 48.1875 22.3125 43.546875 
Q 18.109375 38.921875 18.109375 30.90625 
L 18.109375 0 
L 9.078125 0 
L 9.078125 75.984375 
L 18.109375 75.984375 
L 18.109375 46.1875 
Q 21.34375 51.125 25.703125 53.5625 
Q 30.078125 56 35.796875 56 
Q 45.21875 56 50.046875 50.171875 
Q 54.890625 44.34375 54.890625 33.015625 
" id="DejaVuSans-68"/>
    </defs>
    <g transform="translate(160.4475 26.133375)scale(0.24 -0.24)">
     <use xlink:href="#DejaVuSans-31"/>
     <use x="63.623047" xlink:href="#DejaVuSans-33"/>
     <use x="127.246094" xlink:href="#DejaVuSans-20"/>
     <use x="159.033203" xlink:href="#DejaVuSans-53"/>
     <use x="222.509766" xlink:href="#DejaVuSans-68"/>
     <use x="285.888672" xlink:href="#DejaVuSans-61"/>
     <use x="347.167969" xlink:href="#DejaVuSans-72"/>
     <use x="388.28125" xlink:href="#DejaVuSans-70"/>
     <use x="451.757812" xlink:href="#DejaVuSans-20"/>
     <use x="483.544922" xlink:href="#DejaVuSans-72"/>
     <use x="524.658203" xlink:href="#DejaVuSans-69"/>
     <use x="552.441406" xlink:href="#DejaVuSans-64"/>
     <use x="615.917969" xlink:href="#DejaVuSans-67"/>
     <use x="679.394531" xlink:href="#DejaVuSans-65"/>
    </g>
   </g>
  </g>
 </g>
 <defs>
  <clipPath id="pac5d789c8f">
   <rect height="266.112" width="357.12" x="70.8" y="32.133375"/>
  </clipPath>
 </defs>
</svg>
