<?xml version="1.0" encoding="utf-8" standalone="no"?>
<!DOCTYPE svg PUBLIC "-//W3C//DTD SVG 1.1//EN"
  "http://www.w3.org/Graphics/SVG/1.1/DTD/svg11.dtd">
<!-- Created with matplotlib (http://matplotlib.org/) -->
<svg height="353pt" version="1.1" viewBox="0 0 441 353" width="441pt" xmlns="http://www.w3.org/2000/svg" xmlns:xlink="http://www.w3.org/1999/xlink">
 <defs>
  <style type="text/css">
*{stroke-linecap:butt;stroke-linejoin:round;}
  </style>
 </defs>
 <g id="figure_1">
  <g id="patch_1">
   <path d="M -0 353.22225 
L 441.802544 353.22225 
L 441.802544 0 
L -0 0 
z
" style="fill:#ffffff;"/>
  </g>
  <g id="axes_1">
   <g id="patch_2">
    <path d="M 73.113325 298.245375 
L 430.233325 298.245375 
L 430.233325 32.133375 
L 73.113325 32.133375 
z
" style="fill:#ffffff;"/>
   </g>
   <g id="matplotlib.axis_1">
    <g id="xtick_1">
     <g id="line2d_1">
      <path clip-path="url(#p9b6df216c5)" d="M 73.113325 298.245375 
L 73.113325 32.133375 
" style="fill:none;stroke:#b0b0b0;stroke-linecap:square;stroke-width:0.8;"/>
     </g>
     <g id="line2d_2">
      <defs>
       <path d="M 0 0 
L 0 3.5 
" id="m70639ddf9c" style="stroke:#000000;stroke-width:0.8;"/>
      </defs>
      <g>
       <use style="stroke:#000000;stroke-width:0.8;" x="73.113325" xlink:href="#m70639ddf9c" y="298.245375"/>
      </g>
     </g>
     <g id="text_1">
      <!-- 0 -->
      <defs>
       <path d="M 31.78125 66.40625 
Q 24.171875 66.40625 20.328125 58.90625 
Q 16.5 51.421875 16.5 36.375 
Q 16.5 21.390625 20.328125 13.890625 
Q 24.171875 6.390625 31.78125 6.390625 
Q 39.453125 6.390625 43.28125 13.890625 
Q 47.125 21.390625 47.125 36.375 
Q 47.125 51.421875 43.28125 58.90625 
Q 39.453125 66.40625 31.78125 66.40625 
M 31.78125 74.21875 
Q 44.046875 74.21875 50.515625 64.515625 
Q 56.984375 54.828125 56.984375 36.375 
Q 56.984375 17.96875 50.515625 8.265625 
Q 44.046875 -1.421875 31.78125 -1.421875 
Q 19.53125 -1.421875 13.0625 8.265625 
Q 6.59375 17.96875 6.59375 36.375 
Q 6.59375 54.828125 13.0625 64.515625 
Q 19.53125 74.21875 31.78125 74.21875 
" id="DejaVuSans-30"/>
      </defs>
      <g transform="translate(66.750825 320.44225)scale(0.2 -0.2)">
       <use xlink:href="#DejaVuSans-30"/>
      </g>
     </g>
    </g>
    <g id="xtick_2">
     <g id="line2d_3">
      <path clip-path="url(#p9b6df216c5)" d="M 155.39904 298.245375 
L 155.39904 32.133375 
" style="fill:none;stroke:#b0b0b0;stroke-linecap:square;stroke-width:0.8;"/>
     </g>
     <g id="line2d_4">
      <g>
       <use style="stroke:#000000;stroke-width:0.8;" x="155.39904" xlink:href="#m70639ddf9c" y="298.245375"/>
      </g>
     </g>
     <g id="text_2">
      <!-- 2 -->
      <defs>
       <path d="M 19.1875 8.296875 
L 53.609375 8.296875 
L 53.609375 0 
L 7.328125 0 
L 7.328125 8.296875 
Q 12.9375 14.109375 22.625 23.890625 
Q 32.328125 33.6875 34.8125 36.53125 
Q 39.546875 41.84375 41.421875 45.53125 
Q 43.3125 49.21875 43.3125 52.78125 
Q 43.3125 58.59375 39.234375 62.25 
Q 35.15625 65.921875 28.609375 65.921875 
Q 23.96875 65.921875 18.8125 64.3125 
Q 13.671875 62.703125 7.8125 59.421875 
L 7.8125 69.390625 
Q 13.765625 71.78125 18.9375 73 
Q 24.125 74.21875 28.421875 74.21875 
Q 39.75 74.21875 46.484375 68.546875 
Q 53.21875 62.890625 53.21875 53.421875 
Q 53.21875 48.921875 51.53125 44.890625 
Q 49.859375 40.875 45.40625 35.40625 
Q 44.1875 33.984375 37.640625 27.21875 
Q 31.109375 20.453125 19.1875 8.296875 
" id="DejaVuSans-32"/>
      </defs>
      <g transform="translate(149.03654 320.44225)scale(0.2 -0.2)">
       <use xlink:href="#DejaVuSans-32"/>
      </g>
     </g>
    </g>
    <g id="xtick_3">
     <g id="line2d_5">
      <path clip-path="url(#p9b6df216c5)" d="M 237.684754 298.245375 
L 237.684754 32.133375 
" style="fill:none;stroke:#b0b0b0;stroke-linecap:square;stroke-width:0.8;"/>
     </g>
     <g id="line2d_6">
      <g>
       <use style="stroke:#000000;stroke-width:0.8;" x="237.684754" xlink:href="#m70639ddf9c" y="298.245375"/>
      </g>
     </g>
     <g id="text_3">
      <!-- 4 -->
      <defs>
       <path d="M 37.796875 64.3125 
L 12.890625 25.390625 
L 37.796875 25.390625 
z
M 35.203125 72.90625 
L 47.609375 72.90625 
L 47.609375 25.390625 
L 58.015625 25.390625 
L 58.015625 17.1875 
L 47.609375 17.1875 
L 47.609375 0 
L 37.796875 0 
L 37.796875 17.1875 
L 4.890625 17.1875 
L 4.890625 26.703125 
z
" id="DejaVuSans-34"/>
      </defs>
      <g transform="translate(231.322254 320.44225)scale(0.2 -0.2)">
       <use xlink:href="#DejaVuSans-34"/>
      </g>
     </g>
    </g>
    <g id="xtick_4">
     <g id="line2d_7">
      <path clip-path="url(#p9b6df216c5)" d="M 319.970468 298.245375 
L 319.970468 32.133375 
" style="fill:none;stroke:#b0b0b0;stroke-linecap:square;stroke-width:0.8;"/>
     </g>
     <g id="line2d_8">
      <g>
       <use style="stroke:#000000;stroke-width:0.8;" x="319.970468" xlink:href="#m70639ddf9c" y="298.245375"/>
      </g>
     </g>
     <g id="text_4">
      <!-- 6 -->
      <defs>
       <path d="M 33.015625 40.375 
Q 26.375 40.375 22.484375 35.828125 
Q 18.609375 31.296875 18.609375 23.390625 
Q 18.609375 15.53125 22.484375 10.953125 
Q 26.375 6.390625 33.015625 6.390625 
Q 39.65625 6.390625 43.53125 10.953125 
Q 47.40625 15.53125 47.40625 23.390625 
Q 47.40625 31.296875 43.53125 35.828125 
Q 39.65625 40.375 33.015625 40.375 
M 52.59375 71.296875 
L 52.59375 62.3125 
Q 48.875 64.0625 45.09375 64.984375 
Q 41.3125 65.921875 37.59375 65.921875 
Q 27.828125 65.921875 22.671875 59.328125 
Q 17.53125 52.734375 16.796875 39.40625 
Q 19.671875 43.65625 24.015625 45.921875 
Q 28.375 48.1875 33.59375 48.1875 
Q 44.578125 48.1875 50.953125 41.515625 
Q 57.328125 34.859375 57.328125 23.390625 
Q 57.328125 12.15625 50.6875 5.359375 
Q 44.046875 -1.421875 33.015625 -1.421875 
Q 20.359375 -1.421875 13.671875 8.265625 
Q 6.984375 17.96875 6.984375 36.375 
Q 6.984375 53.65625 15.1875 63.9375 
Q 23.390625 74.21875 37.203125 74.21875 
Q 40.921875 74.21875 44.703125 73.484375 
Q 48.484375 72.75 52.59375 71.296875 
" id="DejaVuSans-36"/>
      </defs>
      <g transform="translate(313.607968 320.44225)scale(0.2 -0.2)">
       <use xlink:href="#DejaVuSans-36"/>
      </g>
     </g>
    </g>
    <g id="xtick_5">
     <g id="line2d_9">
      <path clip-path="url(#p9b6df216c5)" d="M 402.256183 298.245375 
L 402.256183 32.133375 
" style="fill:none;stroke:#b0b0b0;stroke-linecap:square;stroke-width:0.8;"/>
     </g>
     <g id="line2d_10">
      <g>
       <use style="stroke:#000000;stroke-width:0.8;" x="402.256183" xlink:href="#m70639ddf9c" y="298.245375"/>
      </g>
     </g>
     <g id="text_5">
      <!-- 8 -->
      <defs>
       <path d="M 31.78125 34.625 
Q 24.75 34.625 20.71875 30.859375 
Q 16.703125 27.09375 16.703125 20.515625 
Q 16.703125 13.921875 20.71875 10.15625 
Q 24.75 6.390625 31.78125 6.390625 
Q 38.8125 6.390625 42.859375 10.171875 
Q 46.921875 13.96875 46.921875 20.515625 
Q 46.921875 27.09375 42.890625 30.859375 
Q 38.875 34.625 31.78125 34.625 
M 21.921875 38.8125 
Q 15.578125 40.375 12.03125 44.71875 
Q 8.5 49.078125 8.5 55.328125 
Q 8.5 64.0625 14.71875 69.140625 
Q 20.953125 74.21875 31.78125 74.21875 
Q 42.671875 74.21875 48.875 69.140625 
Q 55.078125 64.0625 55.078125 55.328125 
Q 55.078125 49.078125 51.53125 44.71875 
Q 48 40.375 41.703125 38.8125 
Q 48.828125 37.15625 52.796875 32.3125 
Q 56.78125 27.484375 56.78125 20.515625 
Q 56.78125 9.90625 50.3125 4.234375 
Q 43.84375 -1.421875 31.78125 -1.421875 
Q 19.734375 -1.421875 13.25 4.234375 
Q 6.78125 9.90625 6.78125 20.515625 
Q 6.78125 27.484375 10.78125 32.3125 
Q 14.796875 37.15625 21.921875 38.8125 
M 18.3125 54.390625 
Q 18.3125 48.734375 21.84375 45.5625 
Q 25.390625 42.390625 31.78125 42.390625 
Q 38.140625 42.390625 41.71875 45.5625 
Q 45.3125 48.734375 45.3125 54.390625 
Q 45.3125 60.0625 41.71875 63.234375 
Q 38.140625 66.40625 31.78125 66.40625 
Q 25.390625 66.40625 21.84375 63.234375 
Q 18.3125 60.0625 18.3125 54.390625 
" id="DejaVuSans-38"/>
      </defs>
      <g transform="translate(395.893683 320.44225)scale(0.2 -0.2)">
       <use xlink:href="#DejaVuSans-38"/>
      </g>
     </g>
    </g>
    <g id="xtick_6">
     <g id="line2d_11">
      <defs>
       <path d="M 0 0 
L 0 2 
" id="m1c5200ec94" style="stroke:#000000;stroke-width:0.6;"/>
      </defs>
      <g>
       <use style="stroke:#000000;stroke-width:0.6;" x="85.498559" xlink:href="#m1c5200ec94" y="298.245375"/>
      </g>
     </g>
    </g>
    <g id="xtick_7">
     <g id="line2d_12">
      <g>
       <use style="stroke:#000000;stroke-width:0.6;" x="97.883794" xlink:href="#m1c5200ec94" y="298.245375"/>
      </g>
     </g>
    </g>
    <g id="xtick_8">
     <g id="line2d_13">
      <g>
       <use style="stroke:#000000;stroke-width:0.6;" x="105.128691" xlink:href="#m1c5200ec94" y="298.245375"/>
      </g>
     </g>
    </g>
    <g id="xtick_9">
     <g id="line2d_14">
      <g>
       <use style="stroke:#000000;stroke-width:0.6;" x="110.269028" xlink:href="#m1c5200ec94" y="298.245375"/>
      </g>
     </g>
    </g>
    <g id="xtick_10">
     <g id="line2d_15">
      <g>
       <use style="stroke:#000000;stroke-width:0.6;" x="167.784274" xlink:href="#m1c5200ec94" y="298.245375"/>
      </g>
     </g>
    </g>
    <g id="xtick_11">
     <g id="line2d_16">
      <g>
       <use style="stroke:#000000;stroke-width:0.6;" x="180.169508" xlink:href="#m1c5200ec94" y="298.245375"/>
      </g>
     </g>
    </g>
    <g id="xtick_12">
     <g id="line2d_17">
      <g>
       <use style="stroke:#000000;stroke-width:0.6;" x="187.414405" xlink:href="#m1c5200ec94" y="298.245375"/>
      </g>
     </g>
    </g>
    <g id="xtick_13">
     <g id="line2d_18">
      <g>
       <use style="stroke:#000000;stroke-width:0.6;" x="192.554742" xlink:href="#m1c5200ec94" y="298.245375"/>
      </g>
     </g>
    </g>
    <g id="xtick_14">
     <g id="line2d_19">
      <g>
       <use style="stroke:#000000;stroke-width:0.6;" x="250.069988" xlink:href="#m1c5200ec94" y="298.245375"/>
      </g>
     </g>
    </g>
    <g id="xtick_15">
     <g id="line2d_20">
      <g>
       <use style="stroke:#000000;stroke-width:0.6;" x="262.455222" xlink:href="#m1c5200ec94" y="298.245375"/>
      </g>
     </g>
    </g>
    <g id="xtick_16">
     <g id="line2d_21">
      <g>
       <use style="stroke:#000000;stroke-width:0.6;" x="269.70012" xlink:href="#m1c5200ec94" y="298.245375"/>
      </g>
     </g>
    </g>
    <g id="xtick_17">
     <g id="line2d_22">
      <g>
       <use style="stroke:#000000;stroke-width:0.6;" x="274.840456" xlink:href="#m1c5200ec94" y="298.245375"/>
      </g>
     </g>
    </g>
    <g id="xtick_18">
     <g id="line2d_23">
      <g>
       <use style="stroke:#000000;stroke-width:0.6;" x="332.355702" xlink:href="#m1c5200ec94" y="298.245375"/>
      </g>
     </g>
    </g>
    <g id="xtick_19">
     <g id="line2d_24">
      <g>
       <use style="stroke:#000000;stroke-width:0.6;" x="344.740936" xlink:href="#m1c5200ec94" y="298.245375"/>
      </g>
     </g>
    </g>
    <g id="xtick_20">
     <g id="line2d_25">
      <g>
       <use style="stroke:#000000;stroke-width:0.6;" x="351.985834" xlink:href="#m1c5200ec94" y="298.245375"/>
      </g>
     </g>
    </g>
    <g id="xtick_21">
     <g id="line2d_26">
      <g>
       <use style="stroke:#000000;stroke-width:0.6;" x="357.126171" xlink:href="#m1c5200ec94" y="298.245375"/>
      </g>
     </g>
    </g>
    <g id="xtick_22">
     <g id="line2d_27">
      <g>
       <use style="stroke:#000000;stroke-width:0.6;" x="414.641417" xlink:href="#m1c5200ec94" y="298.245375"/>
      </g>
     </g>
    </g>
    <g id="xtick_23">
     <g id="line2d_28">
      <g>
       <use style="stroke:#000000;stroke-width:0.6;" x="427.026651" xlink:href="#m1c5200ec94" y="298.245375"/>
      </g>
     </g>
    </g>
    <g id="text_6">
     <!-- log10 of (# f-evals / dimension) -->
     <defs>
      <path d="M 9.421875 75.984375 
L 18.40625 75.984375 
L 18.40625 0 
L 9.421875 0 
z
" id="DejaVuSans-6c"/>
      <path d="M 30.609375 48.390625 
Q 23.390625 48.390625 19.1875 42.75 
Q 14.984375 37.109375 14.984375 27.296875 
Q 14.984375 17.484375 19.15625 11.84375 
Q 23.34375 6.203125 30.609375 6.203125 
Q 37.796875 6.203125 41.984375 11.859375 
Q 46.1875 17.53125 46.1875 27.296875 
Q 46.1875 37.015625 41.984375 42.703125 
Q 37.796875 48.390625 30.609375 48.390625 
M 30.609375 56 
Q 42.328125 56 49.015625 48.375 
Q 55.71875 40.765625 55.71875 27.296875 
Q 55.71875 13.875 49.015625 6.21875 
Q 42.328125 -1.421875 30.609375 -1.421875 
Q 18.84375 -1.421875 12.171875 6.21875 
Q 5.515625 13.875 5.515625 27.296875 
Q 5.515625 40.765625 12.171875 48.375 
Q 18.84375 56 30.609375 56 
" id="DejaVuSans-6f"/>
      <path d="M 45.40625 27.984375 
Q 45.40625 37.75 41.375 43.109375 
Q 37.359375 48.484375 30.078125 48.484375 
Q 22.859375 48.484375 18.828125 43.109375 
Q 14.796875 37.75 14.796875 27.984375 
Q 14.796875 18.265625 18.828125 12.890625 
Q 22.859375 7.515625 30.078125 7.515625 
Q 37.359375 7.515625 41.375 12.890625 
Q 45.40625 18.265625 45.40625 27.984375 
M 54.390625 6.78125 
Q 54.390625 -7.171875 48.1875 -13.984375 
Q 42 -20.796875 29.203125 -20.796875 
Q 24.46875 -20.796875 20.265625 -20.09375 
Q 16.0625 -19.390625 12.109375 -17.921875 
L 12.109375 -9.1875 
Q 16.0625 -11.328125 19.921875 -12.34375 
Q 23.78125 -13.375 27.78125 -13.375 
Q 36.625 -13.375 41.015625 -8.765625 
Q 45.40625 -4.15625 45.40625 5.171875 
L 45.40625 9.625 
Q 42.625 4.78125 38.28125 2.390625 
Q 33.9375 0 27.875 0 
Q 17.828125 0 11.671875 7.65625 
Q 5.515625 15.328125 5.515625 27.984375 
Q 5.515625 40.671875 11.671875 48.328125 
Q 17.828125 56 27.875 56 
Q 33.9375 56 38.28125 53.609375 
Q 42.625 51.21875 45.40625 46.390625 
L 45.40625 54.6875 
L 54.390625 54.6875 
z
" id="DejaVuSans-67"/>
      <path d="M 12.40625 8.296875 
L 28.515625 8.296875 
L 28.515625 63.921875 
L 10.984375 60.40625 
L 10.984375 69.390625 
L 28.421875 72.90625 
L 38.28125 72.90625 
L 38.28125 8.296875 
L 54.390625 8.296875 
L 54.390625 0 
L 12.40625 0 
z
" id="DejaVuSans-31"/>
      <path id="DejaVuSans-20"/>
      <path d="M 37.109375 75.984375 
L 37.109375 68.5 
L 28.515625 68.5 
Q 23.6875 68.5 21.796875 66.546875 
Q 19.921875 64.59375 19.921875 59.515625 
L 19.921875 54.6875 
L 34.71875 54.6875 
L 34.71875 47.703125 
L 19.921875 47.703125 
L 19.921875 0 
L 10.890625 0 
L 10.890625 47.703125 
L 2.296875 47.703125 
L 2.296875 54.6875 
L 10.890625 54.6875 
L 10.890625 58.5 
Q 10.890625 67.625 15.140625 71.796875 
Q 19.390625 75.984375 28.609375 75.984375 
z
" id="DejaVuSans-66"/>
      <path d="M 31 75.875 
Q 24.46875 64.65625 21.28125 53.65625 
Q 18.109375 42.671875 18.109375 31.390625 
Q 18.109375 20.125 21.3125 9.0625 
Q 24.515625 -2 31 -13.1875 
L 23.1875 -13.1875 
Q 15.875 -1.703125 12.234375 9.375 
Q 8.59375 20.453125 8.59375 31.390625 
Q 8.59375 42.28125 12.203125 53.3125 
Q 15.828125 64.359375 23.1875 75.875 
z
" id="DejaVuSans-28"/>
      <path d="M 51.125 44 
L 36.921875 44 
L 32.8125 27.6875 
L 47.125 27.6875 
z
M 43.796875 71.78125 
L 38.71875 51.515625 
L 52.984375 51.515625 
L 58.109375 71.78125 
L 65.921875 71.78125 
L 60.890625 51.515625 
L 76.125 51.515625 
L 76.125 44 
L 58.984375 44 
L 54.984375 27.6875 
L 70.515625 27.6875 
L 70.515625 20.21875 
L 53.078125 20.21875 
L 48 0 
L 40.1875 0 
L 45.21875 20.21875 
L 30.90625 20.21875 
L 25.875 0 
L 18.015625 0 
L 23.09375 20.21875 
L 7.71875 20.21875 
L 7.71875 27.6875 
L 24.90625 27.6875 
L 29 44 
L 13.28125 44 
L 13.28125 51.515625 
L 30.90625 51.515625 
L 35.890625 71.78125 
z
" id="DejaVuSans-23"/>
      <path d="M 4.890625 31.390625 
L 31.203125 31.390625 
L 31.203125 23.390625 
L 4.890625 23.390625 
z
" id="DejaVuSans-2d"/>
      <path d="M 56.203125 29.59375 
L 56.203125 25.203125 
L 14.890625 25.203125 
Q 15.484375 15.921875 20.484375 11.0625 
Q 25.484375 6.203125 34.421875 6.203125 
Q 39.59375 6.203125 44.453125 7.46875 
Q 49.3125 8.734375 54.109375 11.28125 
L 54.109375 2.78125 
Q 49.265625 0.734375 44.1875 -0.34375 
Q 39.109375 -1.421875 33.890625 -1.421875 
Q 20.796875 -1.421875 13.15625 6.1875 
Q 5.515625 13.8125 5.515625 26.8125 
Q 5.515625 40.234375 12.765625 48.109375 
Q 20.015625 56 32.328125 56 
Q 43.359375 56 49.78125 48.890625 
Q 56.203125 41.796875 56.203125 29.59375 
M 47.21875 32.234375 
Q 47.125 39.59375 43.09375 43.984375 
Q 39.0625 48.390625 32.421875 48.390625 
Q 24.90625 48.390625 20.390625 44.140625 
Q 15.875 39.890625 15.1875 32.171875 
z
" id="DejaVuSans-65"/>
      <path d="M 2.984375 54.6875 
L 12.5 54.6875 
L 29.59375 8.796875 
L 46.6875 54.6875 
L 56.203125 54.6875 
L 35.6875 0 
L 23.484375 0 
z
" id="DejaVuSans-76"/>
      <path d="M 34.28125 27.484375 
Q 23.390625 27.484375 19.1875 25 
Q 14.984375 22.515625 14.984375 16.5 
Q 14.984375 11.71875 18.140625 8.90625 
Q 21.296875 6.109375 26.703125 6.109375 
Q 34.1875 6.109375 38.703125 11.40625 
Q 43.21875 16.703125 43.21875 25.484375 
L 43.21875 27.484375 
z
M 52.203125 31.203125 
L 52.203125 0 
L 43.21875 0 
L 43.21875 8.296875 
Q 40.140625 3.328125 35.546875 0.953125 
Q 30.953125 -1.421875 24.3125 -1.421875 
Q 15.921875 -1.421875 10.953125 3.296875 
Q 6 8.015625 6 15.921875 
Q 6 25.140625 12.171875 29.828125 
Q 18.359375 34.515625 30.609375 34.515625 
L 43.21875 34.515625 
L 43.21875 35.40625 
Q 43.21875 41.609375 39.140625 45 
Q 35.0625 48.390625 27.6875 48.390625 
Q 23 48.390625 18.546875 47.265625 
Q 14.109375 46.140625 10.015625 43.890625 
L 10.015625 52.203125 
Q 14.9375 54.109375 19.578125 55.046875 
Q 24.21875 56 28.609375 56 
Q 40.484375 56 46.34375 49.84375 
Q 52.203125 43.703125 52.203125 31.203125 
" id="DejaVuSans-61"/>
      <path d="M 44.28125 53.078125 
L 44.28125 44.578125 
Q 40.484375 46.53125 36.375 47.5 
Q 32.28125 48.484375 27.875 48.484375 
Q 21.1875 48.484375 17.84375 46.4375 
Q 14.5 44.390625 14.5 40.28125 
Q 14.5 37.15625 16.890625 35.375 
Q 19.28125 33.59375 26.515625 31.984375 
L 29.59375 31.296875 
Q 39.15625 29.25 43.1875 25.515625 
Q 47.21875 21.78125 47.21875 15.09375 
Q 47.21875 7.46875 41.1875 3.015625 
Q 35.15625 -1.421875 24.609375 -1.421875 
Q 20.21875 -1.421875 15.453125 -0.5625 
Q 10.6875 0.296875 5.421875 2 
L 5.421875 11.28125 
Q 10.40625 8.6875 15.234375 7.390625 
Q 20.0625 6.109375 24.8125 6.109375 
Q 31.15625 6.109375 34.5625 8.28125 
Q 37.984375 10.453125 37.984375 14.40625 
Q 37.984375 18.0625 35.515625 20.015625 
Q 33.0625 21.96875 24.703125 23.78125 
L 21.578125 24.515625 
Q 13.234375 26.265625 9.515625 29.90625 
Q 5.8125 33.546875 5.8125 39.890625 
Q 5.8125 47.609375 11.28125 51.796875 
Q 16.75 56 26.8125 56 
Q 31.78125 56 36.171875 55.265625 
Q 40.578125 54.546875 44.28125 53.078125 
" id="DejaVuSans-73"/>
      <path d="M 25.390625 72.90625 
L 33.6875 72.90625 
L 8.296875 -9.28125 
L 0 -9.28125 
z
" id="DejaVuSans-2f"/>
      <path d="M 45.40625 46.390625 
L 45.40625 75.984375 
L 54.390625 75.984375 
L 54.390625 0 
L 45.40625 0 
L 45.40625 8.203125 
Q 42.578125 3.328125 38.25 0.953125 
Q 33.9375 -1.421875 27.875 -1.421875 
Q 17.96875 -1.421875 11.734375 6.484375 
Q 5.515625 14.40625 5.515625 27.296875 
Q 5.515625 40.1875 11.734375 48.09375 
Q 17.96875 56 27.875 56 
Q 33.9375 56 38.25 53.625 
Q 42.578125 51.265625 45.40625 46.390625 
M 14.796875 27.296875 
Q 14.796875 17.390625 18.875 11.75 
Q 22.953125 6.109375 30.078125 6.109375 
Q 37.203125 6.109375 41.296875 11.75 
Q 45.40625 17.390625 45.40625 27.296875 
Q 45.40625 37.203125 41.296875 42.84375 
Q 37.203125 48.484375 30.078125 48.484375 
Q 22.953125 48.484375 18.875 42.84375 
Q 14.796875 37.203125 14.796875 27.296875 
" id="DejaVuSans-64"/>
      <path d="M 9.421875 54.6875 
L 18.40625 54.6875 
L 18.40625 0 
L 9.421875 0 
z
M 9.421875 75.984375 
L 18.40625 75.984375 
L 18.40625 64.59375 
L 9.421875 64.59375 
z
" id="DejaVuSans-69"/>
      <path d="M 52 44.1875 
Q 55.375 50.25 60.0625 53.125 
Q 64.75 56 71.09375 56 
Q 79.640625 56 84.28125 50.015625 
Q 88.921875 44.046875 88.921875 33.015625 
L 88.921875 0 
L 79.890625 0 
L 79.890625 32.71875 
Q 79.890625 40.578125 77.09375 44.375 
Q 74.3125 48.1875 68.609375 48.1875 
Q 61.625 48.1875 57.5625 43.546875 
Q 53.515625 38.921875 53.515625 30.90625 
L 53.515625 0 
L 44.484375 0 
L 44.484375 32.71875 
Q 44.484375 40.625 41.703125 44.40625 
Q 38.921875 48.1875 33.109375 48.1875 
Q 26.21875 48.1875 22.15625 43.53125 
Q 18.109375 38.875 18.109375 30.90625 
L 18.109375 0 
L 9.078125 0 
L 9.078125 54.6875 
L 18.109375 54.6875 
L 18.109375 46.1875 
Q 21.1875 51.21875 25.484375 53.609375 
Q 29.78125 56 35.6875 56 
Q 41.65625 56 45.828125 52.96875 
Q 50 49.953125 52 44.1875 
" id="DejaVuSans-6d"/>
      <path d="M 54.890625 33.015625 
L 54.890625 0 
L 45.90625 0 
L 45.90625 32.71875 
Q 45.90625 40.484375 42.875 44.328125 
Q 39.84375 48.1875 33.796875 48.1875 
Q 26.515625 48.1875 22.3125 43.546875 
Q 18.109375 38.921875 18.109375 30.90625 
L 18.109375 0 
L 9.078125 0 
L 9.078125 54.6875 
L 18.109375 54.6875 
L 18.109375 46.1875 
Q 21.34375 51.125 25.703125 53.5625 
Q 30.078125 56 35.796875 56 
Q 45.21875 56 50.046875 50.171875 
Q 54.890625 44.34375 54.890625 33.015625 
" id="DejaVuSans-6e"/>
      <path d="M 8.015625 75.875 
L 15.828125 75.875 
Q 23.140625 64.359375 26.78125 53.3125 
Q 30.421875 42.28125 30.421875 31.390625 
Q 30.421875 20.453125 26.78125 9.375 
Q 23.140625 -1.703125 15.828125 -13.1875 
L 8.015625 -13.1875 
Q 14.5 -2 17.703125 9.0625 
Q 20.90625 20.125 20.90625 31.390625 
Q 20.90625 42.671875 17.703125 53.65625 
Q 14.5 64.65625 8.015625 75.875 
" id="DejaVuSans-29"/>
     </defs>
     <g transform="translate(109.328482 342.278812)scale(0.18 -0.18)">
      <use xlink:href="#DejaVuSans-6c"/>
      <use x="27.783203" xlink:href="#DejaVuSans-6f"/>
      <use x="88.964844" xlink:href="#DejaVuSans-67"/>
      <use x="152.441406" xlink:href="#DejaVuSans-31"/>
      <use x="216.064453" xlink:href="#DejaVuSans-30"/>
      <use x="279.6875" xlink:href="#DejaVuSans-20"/>
      <use x="311.474609" xlink:href="#DejaVuSans-6f"/>
      <use x="372.65625" xlink:href="#DejaVuSans-66"/>
      <use x="407.861328" xlink:href="#DejaVuSans-20"/>
      <use x="439.648438" xlink:href="#DejaVuSans-28"/>
      <use x="478.662109" xlink:href="#DejaVuSans-23"/>
      <use x="562.451172" xlink:href="#DejaVuSans-20"/>
      <use x="594.238281" xlink:href="#DejaVuSans-66"/>
      <use x="629.365234" xlink:href="#DejaVuSans-2d"/>
      <use x="665.449219" xlink:href="#DejaVuSans-65"/>
      <use x="726.972656" xlink:href="#DejaVuSans-76"/>
      <use x="786.152344" xlink:href="#DejaVuSans-61"/>
      <use x="847.431641" xlink:href="#DejaVuSans-6c"/>
      <use x="875.214844" xlink:href="#DejaVuSans-73"/>
      <use x="927.314453" xlink:href="#DejaVuSans-20"/>
      <use x="959.101562" xlink:href="#DejaVuSans-2f"/>
      <use x="992.792969" xlink:href="#DejaVuSans-20"/>
      <use x="1024.580078" xlink:href="#DejaVuSans-64"/>
      <use x="1088.056641" xlink:href="#DejaVuSans-69"/>
      <use x="1115.839844" xlink:href="#DejaVuSans-6d"/>
      <use x="1213.251953" xlink:href="#DejaVuSans-65"/>
      <use x="1274.775391" xlink:href="#DejaVuSans-6e"/>
      <use x="1338.154297" xlink:href="#DejaVuSans-73"/>
      <use x="1390.253906" xlink:href="#DejaVuSans-69"/>
      <use x="1418.037109" xlink:href="#DejaVuSans-6f"/>
      <use x="1479.21875" xlink:href="#DejaVuSans-6e"/>
      <use x="1542.597656" xlink:href="#DejaVuSans-29"/>
     </g>
    </g>
   </g>
   <g id="matplotlib.axis_2">
    <g id="ytick_1">
     <g id="line2d_29">
      <path clip-path="url(#p9b6df216c5)" d="M 73.113325 298.245375 
L 430.233325 298.245375 
" style="fill:none;stroke:#b0b0b0;stroke-linecap:square;stroke-width:0.8;"/>
     </g>
     <g id="line2d_30">
      <defs>
       <path d="M 0 0 
L -3.5 0 
" id="mc71568b275" style="stroke:#000000;stroke-width:0.8;"/>
      </defs>
      <g>
       <use style="stroke:#000000;stroke-width:0.8;" x="73.113325" xlink:href="#mc71568b275" y="298.245375"/>
      </g>
     </g>
     <g id="text_7">
      <!-- 0.0 -->
      <defs>
       <path d="M 10.6875 12.40625 
L 21 12.40625 
L 21 0 
L 10.6875 0 
z
" id="DejaVuSans-2e"/>
      </defs>
      <g transform="translate(34.307075 305.843812)scale(0.2 -0.2)">
       <use xlink:href="#DejaVuSans-30"/>
       <use x="63.623047" xlink:href="#DejaVuSans-2e"/>
       <use x="95.410156" xlink:href="#DejaVuSans-30"/>
      </g>
     </g>
    </g>
    <g id="ytick_2">
     <g id="line2d_31">
      <path clip-path="url(#p9b6df216c5)" d="M 73.113325 245.549929 
L 430.233325 245.549929 
" style="fill:none;stroke:#b0b0b0;stroke-linecap:square;stroke-width:0.8;"/>
     </g>
     <g id="line2d_32">
      <g>
       <use style="stroke:#000000;stroke-width:0.8;" x="73.113325" xlink:href="#mc71568b275" y="245.549929"/>
      </g>
     </g>
     <g id="text_8">
      <!-- 0.2 -->
      <g transform="translate(34.307075 253.148367)scale(0.2 -0.2)">
       <use xlink:href="#DejaVuSans-30"/>
       <use x="63.623047" xlink:href="#DejaVuSans-2e"/>
       <use x="95.410156" xlink:href="#DejaVuSans-32"/>
      </g>
     </g>
    </g>
    <g id="ytick_3">
     <g id="line2d_33">
      <path clip-path="url(#p9b6df216c5)" d="M 73.113325 192.854484 
L 430.233325 192.854484 
" style="fill:none;stroke:#b0b0b0;stroke-linecap:square;stroke-width:0.8;"/>
     </g>
     <g id="line2d_34">
      <g>
       <use style="stroke:#000000;stroke-width:0.8;" x="73.113325" xlink:href="#mc71568b275" y="192.854484"/>
      </g>
     </g>
     <g id="text_9">
      <!-- 0.4 -->
      <g transform="translate(34.307075 200.452921)scale(0.2 -0.2)">
       <use xlink:href="#DejaVuSans-30"/>
       <use x="63.623047" xlink:href="#DejaVuSans-2e"/>
       <use x="95.410156" xlink:href="#DejaVuSans-34"/>
      </g>
     </g>
    </g>
    <g id="ytick_4">
     <g id="line2d_35">
      <path clip-path="url(#p9b6df216c5)" d="M 73.113325 140.159038 
L 430.233325 140.159038 
" style="fill:none;stroke:#b0b0b0;stroke-linecap:square;stroke-width:0.8;"/>
     </g>
     <g id="line2d_36">
      <g>
       <use style="stroke:#000000;stroke-width:0.8;" x="73.113325" xlink:href="#mc71568b275" y="140.159038"/>
      </g>
     </g>
     <g id="text_10">
      <!-- 0.6 -->
      <g transform="translate(34.307075 147.757476)scale(0.2 -0.2)">
       <use xlink:href="#DejaVuSans-30"/>
       <use x="63.623047" xlink:href="#DejaVuSans-2e"/>
       <use x="95.410156" xlink:href="#DejaVuSans-36"/>
      </g>
     </g>
    </g>
    <g id="ytick_5">
     <g id="line2d_37">
      <path clip-path="url(#p9b6df216c5)" d="M 73.113325 87.463593 
L 430.233325 87.463593 
" style="fill:none;stroke:#b0b0b0;stroke-linecap:square;stroke-width:0.8;"/>
     </g>
     <g id="line2d_38">
      <g>
       <use style="stroke:#000000;stroke-width:0.8;" x="73.113325" xlink:href="#mc71568b275" y="87.463593"/>
      </g>
     </g>
     <g id="text_11">
      <!-- 0.8 -->
      <g transform="translate(34.307075 95.06203)scale(0.2 -0.2)">
       <use xlink:href="#DejaVuSans-30"/>
       <use x="63.623047" xlink:href="#DejaVuSans-2e"/>
       <use x="95.410156" xlink:href="#DejaVuSans-38"/>
      </g>
     </g>
    </g>
    <g id="ytick_6">
     <g id="line2d_39">
      <path clip-path="url(#p9b6df216c5)" d="M 73.113325 34.768147 
L 430.233325 34.768147 
" style="fill:none;stroke:#b0b0b0;stroke-linecap:square;stroke-width:0.8;"/>
     </g>
     <g id="line2d_40">
      <g>
       <use style="stroke:#000000;stroke-width:0.8;" x="73.113325" xlink:href="#mc71568b275" y="34.768147"/>
      </g>
     </g>
     <g id="text_12">
      <!-- 1.0 -->
      <g transform="translate(34.307075 42.366585)scale(0.2 -0.2)">
       <use xlink:href="#DejaVuSans-31"/>
       <use x="63.623047" xlink:href="#DejaVuSans-2e"/>
       <use x="95.410156" xlink:href="#DejaVuSans-30"/>
      </g>
     </g>
    </g>
    <g id="text_13">
     <!-- Proportion of function+target pairs -->
     <defs>
      <path d="M 19.671875 64.796875 
L 19.671875 37.40625 
L 32.078125 37.40625 
Q 38.96875 37.40625 42.71875 40.96875 
Q 46.484375 44.53125 46.484375 51.125 
Q 46.484375 57.671875 42.71875 61.234375 
Q 38.96875 64.796875 32.078125 64.796875 
z
M 9.8125 72.90625 
L 32.078125 72.90625 
Q 44.34375 72.90625 50.609375 67.359375 
Q 56.890625 61.8125 56.890625 51.125 
Q 56.890625 40.328125 50.609375 34.8125 
Q 44.34375 29.296875 32.078125 29.296875 
L 19.671875 29.296875 
L 19.671875 0 
L 9.8125 0 
z
" id="DejaVuSans-50"/>
      <path d="M 41.109375 46.296875 
Q 39.59375 47.171875 37.8125 47.578125 
Q 36.03125 48 33.890625 48 
Q 26.265625 48 22.1875 43.046875 
Q 18.109375 38.09375 18.109375 28.8125 
L 18.109375 0 
L 9.078125 0 
L 9.078125 54.6875 
L 18.109375 54.6875 
L 18.109375 46.1875 
Q 20.953125 51.171875 25.484375 53.578125 
Q 30.03125 56 36.53125 56 
Q 37.453125 56 38.578125 55.875 
Q 39.703125 55.765625 41.0625 55.515625 
z
" id="DejaVuSans-72"/>
      <path d="M 18.109375 8.203125 
L 18.109375 -20.796875 
L 9.078125 -20.796875 
L 9.078125 54.6875 
L 18.109375 54.6875 
L 18.109375 46.390625 
Q 20.953125 51.265625 25.265625 53.625 
Q 29.59375 56 35.59375 56 
Q 45.5625 56 51.78125 48.09375 
Q 58.015625 40.1875 58.015625 27.296875 
Q 58.015625 14.40625 51.78125 6.484375 
Q 45.5625 -1.421875 35.59375 -1.421875 
Q 29.59375 -1.421875 25.265625 0.953125 
Q 20.953125 3.328125 18.109375 8.203125 
M 48.6875 27.296875 
Q 48.6875 37.203125 44.609375 42.84375 
Q 40.53125 48.484375 33.40625 48.484375 
Q 26.265625 48.484375 22.1875 42.84375 
Q 18.109375 37.203125 18.109375 27.296875 
Q 18.109375 17.390625 22.1875 11.75 
Q 26.265625 6.109375 33.40625 6.109375 
Q 40.53125 6.109375 44.609375 11.75 
Q 48.6875 17.390625 48.6875 27.296875 
" id="DejaVuSans-70"/>
      <path d="M 18.3125 70.21875 
L 18.3125 54.6875 
L 36.8125 54.6875 
L 36.8125 47.703125 
L 18.3125 47.703125 
L 18.3125 18.015625 
Q 18.3125 11.328125 20.140625 9.421875 
Q 21.96875 7.515625 27.59375 7.515625 
L 36.8125 7.515625 
L 36.8125 0 
L 27.59375 0 
Q 17.1875 0 13.234375 3.875 
Q 9.28125 7.765625 9.28125 18.015625 
L 9.28125 47.703125 
L 2.6875 47.703125 
L 2.6875 54.6875 
L 9.28125 54.6875 
L 9.28125 70.21875 
z
" id="DejaVuSans-74"/>
      <path d="M 8.5 21.578125 
L 8.5 54.6875 
L 17.484375 54.6875 
L 17.484375 21.921875 
Q 17.484375 14.15625 20.5 10.265625 
Q 23.53125 6.390625 29.59375 6.390625 
Q 36.859375 6.390625 41.078125 11.03125 
Q 45.3125 15.671875 45.3125 23.6875 
L 45.3125 54.6875 
L 54.296875 54.6875 
L 54.296875 0 
L 45.3125 0 
L 45.3125 8.40625 
Q 42.046875 3.421875 37.71875 1 
Q 33.40625 -1.421875 27.6875 -1.421875 
Q 18.265625 -1.421875 13.375 4.4375 
Q 8.5 10.296875 8.5 21.578125 
M 31.109375 56 
z
" id="DejaVuSans-75"/>
      <path d="M 48.78125 52.59375 
L 48.78125 44.1875 
Q 44.96875 46.296875 41.140625 47.34375 
Q 37.3125 48.390625 33.40625 48.390625 
Q 24.65625 48.390625 19.8125 42.84375 
Q 14.984375 37.3125 14.984375 27.296875 
Q 14.984375 17.28125 19.8125 11.734375 
Q 24.65625 6.203125 33.40625 6.203125 
Q 37.3125 6.203125 41.140625 7.25 
Q 44.96875 8.296875 48.78125 10.40625 
L 48.78125 2.09375 
Q 45.015625 0.34375 40.984375 -0.53125 
Q 36.96875 -1.421875 32.421875 -1.421875 
Q 20.0625 -1.421875 12.78125 6.34375 
Q 5.515625 14.109375 5.515625 27.296875 
Q 5.515625 40.671875 12.859375 48.328125 
Q 20.21875 56 33.015625 56 
Q 37.15625 56 41.109375 55.140625 
Q 45.0625 54.296875 48.78125 52.59375 
" id="DejaVuSans-63"/>
      <path d="M 46 62.703125 
L 46 35.5 
L 73.1875 35.5 
L 73.1875 27.203125 
L 46 27.203125 
L 46 0 
L 37.796875 0 
L 37.796875 27.203125 
L 10.59375 27.203125 
L 10.59375 35.5 
L 37.796875 35.5 
L 37.796875 62.703125 
z
" id="DejaVuSans-2b"/>
     </defs>
     <g transform="translate(26.563638 323.17875)rotate(-90)scale(0.18 -0.18)">
      <use xlink:href="#DejaVuSans-50"/>
      <use x="60.287109" xlink:href="#DejaVuSans-72"/>
      <use x="101.369141" xlink:href="#DejaVuSans-6f"/>
      <use x="162.550781" xlink:href="#DejaVuSans-70"/>
      <use x="226.027344" xlink:href="#DejaVuSans-6f"/>
      <use x="287.208984" xlink:href="#DejaVuSans-72"/>
      <use x="328.322266" xlink:href="#DejaVuSans-74"/>
      <use x="367.53125" xlink:href="#DejaVuSans-69"/>
      <use x="395.314453" xlink:href="#DejaVuSans-6f"/>
      <use x="456.496094" xlink:href="#DejaVuSans-6e"/>
      <use x="519.875" xlink:href="#DejaVuSans-20"/>
      <use x="551.662109" xlink:href="#DejaVuSans-6f"/>
      <use x="612.84375" xlink:href="#DejaVuSans-66"/>
      <use x="648.048828" xlink:href="#DejaVuSans-20"/>
      <use x="679.835938" xlink:href="#DejaVuSans-66"/>
      <use x="715.041016" xlink:href="#DejaVuSans-75"/>
      <use x="778.419922" xlink:href="#DejaVuSans-6e"/>
      <use x="841.798828" xlink:href="#DejaVuSans-63"/>
      <use x="896.779297" xlink:href="#DejaVuSans-74"/>
      <use x="935.988281" xlink:href="#DejaVuSans-69"/>
      <use x="963.771484" xlink:href="#DejaVuSans-6f"/>
      <use x="1024.953125" xlink:href="#DejaVuSans-6e"/>
      <use x="1088.332031" xlink:href="#DejaVuSans-2b"/>
      <use x="1172.121094" xlink:href="#DejaVuSans-74"/>
      <use x="1211.330078" xlink:href="#DejaVuSans-61"/>
      <use x="1272.609375" xlink:href="#DejaVuSans-72"/>
      <use x="1313.707031" xlink:href="#DejaVuSans-67"/>
      <use x="1377.183594" xlink:href="#DejaVuSans-65"/>
      <use x="1438.707031" xlink:href="#DejaVuSans-74"/>
      <use x="1477.916016" xlink:href="#DejaVuSans-20"/>
      <use x="1509.703125" xlink:href="#DejaVuSans-70"/>
      <use x="1573.179688" xlink:href="#DejaVuSans-61"/>
      <use x="1634.458984" xlink:href="#DejaVuSans-69"/>
      <use x="1662.242188" xlink:href="#DejaVuSans-72"/>
      <use x="1703.355469" xlink:href="#DejaVuSans-73"/>
     </g>
    </g>
   </g>
   <g id="line2d_41">
    <defs>
     <path d="M 0 1.5 
C 0.397805 1.5 0.77937 1.341951 1.06066 1.06066 
C 1.341951 0.77937 1.5 0.397805 1.5 0 
C 1.5 -0.397805 1.341951 -0.77937 1.06066 -1.06066 
C 0.77937 -1.341951 0.397805 -1.5 0 -1.5 
C -0.397805 -1.5 -0.77937 -1.341951 -1.06066 -1.06066 
C -1.341951 -0.77937 -1.5 -0.397805 -1.5 0 
C -1.5 0.397805 -1.341951 0.77937 -1.06066 1.06066 
C -0.77937 1.341951 -0.397805 1.5 0 1.5 
z
" id="m287c73cf06" style="stroke:#00bfbf;"/>
    </defs>
    <g>
     <use style="fill:#00bfbf;stroke:#00bfbf;" x="291.719308" xlink:href="#m287c73cf06" y="34.768147"/>
     <use style="fill:#00bfbf;stroke:#00bfbf;" x="291.719308" xlink:href="#m287c73cf06" y="34.768147"/>
    </g>
   </g>
   <g id="line2d_42">
    <path d="M 60.728091 298.245375 
L 60.728091 253.29926 
L 155.39904 253.29926 
L 155.39904 245.033307 
L 162.643937 245.033307 
L 162.643937 241.933575 
L 167.784274 241.933575 
L 167.784274 237.800599 
L 171.771429 237.800599 
L 171.771429 234.184245 
L 175.029171 234.184245 
L 175.029171 233.151001 
L 177.783553 233.151001 
L 177.783553 232.634379 
L 184.156663 232.634379 
L 184.156663 232.117757 
L 188.844618 232.117757 
L 188.844618 230.051269 
L 192.554742 230.051269 
L 192.554742 229.534647 
L 194.659303 229.534647 
L 194.659303 228.501403 
L 197.413685 228.501403 
L 197.413685 227.468159 
L 201.229852 227.468159 
L 201.229852 226.951537 
L 202.554022 226.951537 
L 202.554022 225.401671 
L 203.181037 225.401671 
L 203.181037 224.885049 
L 203.786794 224.885049 
L 203.786794 222.818561 
L 204.372687 222.818561 
L 204.372687 222.301939 
L 204.939976 222.301939 
L 204.939976 219.718829 
L 206.023224 219.718829 
L 206.023224 217.135719 
L 208.474749 217.135719 
L 208.474749 216.102475 
L 209.368341 216.102475 
L 209.368341 214.552609 
L 209.798919 214.552609 
L 209.798919 213.519365 
L 210.630144 213.519365 
L 210.630144 209.90301 
L 211.031692 209.90301 
L 211.031692 209.386388 
L 211.424413 209.386388 
L 211.424413 208.353144 
L 211.808689 208.353144 
L 211.808689 206.286656 
L 212.184874 206.286656 
L 212.184874 204.73679 
L 212.914286 204.73679 
L 212.914286 200.087192 
L 213.268121 200.087192 
L 213.268121 199.57057 
L 213.615086 199.57057 
L 213.615086 199.053948 
L 213.955441 199.053948 
L 213.955441 195.954216 
L 214.289435 195.954216 
L 214.289435 194.920972 
L 214.617299 194.920972 
L 214.617299 194.40435 
L 217.602241 194.40435 
L 217.602241 192.337862 
L 217.875042 192.337862 
L 217.875042 190.787996 
L 219.179863 190.787996 
L 219.179863 190.271374 
L 219.676232 190.271374 
L 219.676232 189.754752 
L 221.087606 189.754752 
L 221.087606 189.23813 
L 221.312365 189.23813 
L 221.312365 188.721508 
L 221.753575 188.721508 
L 221.753575 186.65502 
L 221.970161 186.65502 
L 221.970161 186.138398 
L 222.184153 186.138398 
L 222.184153 183.038666 
L 222.395613 183.038666 
L 222.395613 179.422312 
L 222.604599 179.422312 
L 222.604599 177.355823 
L 222.811169 177.355823 
L 222.811169 173.222847 
L 223.416926 173.222847 
L 223.416926 172.706225 
L 223.614366 172.706225 
L 223.614366 169.606493 
L 224.002818 169.606493 
L 224.002818 168.056627 
L 224.193923 168.056627 
L 224.193923 165.473517 
L 224.383005 165.473517 
L 224.383005 164.956895 
L 224.755271 164.956895 
L 224.755271 164.440273 
L 224.938536 164.440273 
L 224.938536 162.373785 
L 225.119939 162.373785 
L 225.119939 151.008101 
L 225.29952 151.008101 
L 225.29952 148.424991 
L 225.477313 148.424991 
L 225.477313 147.391747 
L 225.653355 147.391747 
L 225.653355 144.292014 
L 226.00032 144.292014 
L 226.00032 143.25877 
L 226.171308 143.25877 
L 226.171308 142.742148 
L 226.340675 142.742148 
L 226.340675 141.192282 
L 226.508452 141.192282 
L 226.508452 140.67566 
L 226.839353 140.67566 
L 226.839353 137.059306 
L 227.32449 137.059306 
L 227.32449 134.992818 
L 227.483319 134.992818 
L 227.483319 131.893086 
L 227.796802 131.893086 
L 227.796802 128.276732 
L 229.570301 128.276732 
L 229.570301 127.243488 
L 229.710444 127.243488 
L 229.710444 126.726866 
L 229.849496 126.726866 
L 229.849496 123.627134 
L 230.260276 123.627134 
L 230.260276 122.077268 
L 230.39513 122.077268 
L 230.39513 120.527402 
L 230.528974 120.527402 
L 230.528974 118.460914 
L 230.793692 118.460914 
L 230.793692 115.361182 
L 230.924595 115.361182 
L 230.924595 114.84456 
L 231.054545 114.84456 
L 231.054545 114.327938 
L 231.183557 114.327938 
L 231.183557 109.678339 
L 231.311645 109.678339 
L 231.311645 107.611851 
L 231.43882 107.611851 
L 231.43882 104.512119 
L 231.565097 104.512119 
L 231.565097 103.478875 
L 231.690488 103.478875 
L 231.690488 101.412387 
L 231.815005 101.412387 
L 231.815005 100.379143 
L 232.061466 100.379143 
L 232.061466 98.829277 
L 232.304573 98.829277 
L 232.304573 94.696301 
L 232.424898 94.696301 
L 232.424898 91.596569 
L 232.544417 91.596569 
L 232.544417 87.463593 
L 237.862548 87.463593 
L 237.862548 86.430349 
L 238.03859 86.430349 
L 238.03859 85.913727 
L 238.212914 85.913727 
L 238.299443 84.363861 
L 238.641427 84.363861 
L 238.641427 83.330617 
L 238.809995 83.330617 
L 238.809995 81.264129 
L 239.059903 81.264129 
L 239.142435 80.230885 
L 239.387767 80.230885 
L 239.387767 78.164397 
L 239.868553 78.164397 
L 239.947441 76.614531 
L 240.182037 76.614531 
L 240.182037 76.097908 
L 240.566312 76.097908 
L 240.566312 75.581286 
L 240.717737 75.581286 
L 240.717737 75.064664 
L 240.867891 75.064664 
L 240.867891 74.03142 
L 241.016792 74.03142 
L 241.016792 69.898444 
L 241.237844 69.898444 
L 241.237844 69.381822 
L 241.383707 69.381822 
L 241.456194 67.831956 
L 241.88505 67.831956 
L 241.88505 67.315334 
L 242.780364 67.315334 
L 242.780364 66.798712 
L 242.914208 66.798712 
L 242.914208 65.765468 
L 243.568791 65.765468 
L 243.568791 63.182358 
L 244.507788 63.182358 
L 244.507788 59.049382 
L 244.689807 59.049382 
L 244.689807 58.53276 
L 248.08785 58.53276 
L 248.08785 56.466272 
L 248.773286 56.466272 
L 248.773286 54.399784 
L 249.617607 54.399784 
L 249.617607 53.883162 
L 249.980423 53.883162 
L 249.980423 51.816674 
L 253.364917 51.816674 
L 253.364917 50.78343 
L 253.623078 50.78343 
L 253.696159 49.233564 
L 279.111238 49.233564 
L 279.128816 47.167076 
L 279.545584 47.167076 
L 279.622657 45.100588 
L 279.690889 45.100588 
L 279.775813 42.517478 
L 279.919265 42.517478 
L 280.028192 40.450989 
L 280.044891 40.450989 
L 280.103216 38.384501 
L 280.635898 38.384501 
L 280.635898 37.867879 
L 280.95598 37.867879 
L 280.95598 37.351257 
L 281.875667 37.351257 
L 281.875667 36.318013 
L 282.033162 36.318013 
L 282.033162 35.801391 
L 282.74315 35.801391 
L 282.74315 35.284769 
L 291.719308 35.284769 
L 291.719308 34.768147 
L 361.113325 34.768147 
L 361.113325 34.768147 
" style="fill:none;stroke:#00bfbf;stroke-linecap:square;stroke-width:1.5;"/>
   </g>
   <g id="line2d_43">
    <defs>
     <path d="M -6 0 
L 6 0 
M 0 6 
L 0 -6 
" id="m769a727fb6" style="stroke:#00bfbf;stroke-width:1.5;"/>
    </defs>
    <g>
     <use style="fill:none;stroke:#00bfbf;stroke-width:1.5;" x="361.113325" xlink:href="#m769a727fb6" y="34.768147"/>
    </g>
   </g>
   <g id="line2d_44"/>
   <g id="line2d_45">
    <path clip-path="url(#p9b6df216c5)" d="M 278.827611 49.233564 
" style="fill:none;stroke:#00bfbf;stroke-linecap:square;stroke-width:1.5;"/>
    <defs>
     <path d="M -12 12 
L 12 -12 
M -12 -12 
L 12 12 
" id="mcb0b23a551" style="stroke:#00bfbf;stroke-width:3;"/>
    </defs>
    <g clip-path="url(#p9b6df216c5)">
     <use style="fill:#00bfbf;stroke:#00bfbf;stroke-width:3;" x="278.827611" xlink:href="#mcb0b23a551" y="49.233564"/>
    </g>
   </g>
   <g id="line2d_46">
    <defs>
     <path d="M 0 1.5 
C 0.397805 1.5 0.77937 1.341951 1.06066 1.06066 
C 1.341951 0.77937 1.5 0.397805 1.5 0 
C 1.5 -0.397805 1.341951 -0.77937 1.06066 -1.06066 
C 0.77937 -1.341951 0.397805 -1.5 0 -1.5 
C -0.397805 -1.5 -0.77937 -1.341951 -1.06066 -1.06066 
C -1.341951 -0.77937 -1.5 -0.397805 -1.5 0 
C -1.5 0.397805 -1.341951 0.77937 -1.06066 1.06066 
C -0.77937 1.341951 -0.397805 1.5 0 1.5 
z
" id="mffae049d8d" style="stroke:#008000;"/>
    </defs>
    <g>
     <use style="fill:#008000;stroke:#008000;" x="320.109299" xlink:href="#mffae049d8d" y="34.768147"/>
     <use style="fill:#008000;stroke:#008000;" x="320.109299" xlink:href="#mffae049d8d" y="34.768147"/>
    </g>
   </g>
   <g id="line2d_47">
    <path d="M 53.483194 298.245375 
L 53.483194 258.982102 
L 148.154142 258.982102 
L 148.154142 255.365748 
L 155.39904 255.365748 
L 155.39904 252.782638 
L 160.539376 252.782638 
L 160.539376 249.682906 
L 167.784274 249.682906 
L 167.784274 249.166284 
L 170.538656 249.166284 
L 170.538656 247.616418 
L 175.029171 247.616418 
L 175.029171 247.099796 
L 176.911765 247.099796 
L 176.911765 246.583173 
L 178.614778 246.583173 
L 178.614778 245.033307 
L 187.414405 245.033307 
L 187.414405 244.000063 
L 188.380485 244.000063 
L 188.380485 242.966819 
L 190.168788 242.966819 
L 190.168788 239.867087 
L 191.000013 239.867087 
L 191.000013 239.350465 
L 191.794282 239.350465 
L 191.794282 238.317221 
L 192.554742 238.317221 
L 192.554742 237.283977 
L 193.984954 237.283977 
L 193.984954 236.767355 
L 195.309124 236.767355 
L 195.309124 235.217489 
L 195.93614 235.217489 
L 195.93614 234.184245 
L 197.695079 234.184245 
L 197.695079 233.151001 
L 199.799639 233.151001 
L 199.799639 232.634379 
L 200.765719 232.634379 
L 200.765719 232.117757 
L 201.682233 232.117757 
L 201.682233 231.601135 
L 203.385247 231.601135 
L 203.385247 228.501403 
L 203.786794 228.501403 
L 203.786794 227.468159 
L 204.179516 227.468159 
L 204.179516 225.918293 
L 205.308404 225.918293 
L 205.308404 224.368427 
L 206.023224 224.368427 
L 206.023224 223.335183 
L 209.222478 223.335183 
L 209.222478 222.301939 
L 210.357343 222.301939 
L 210.357343 221.785317 
L 212.914286 221.785317 
L 212.914286 220.235451 
L 213.842708 220.235451 
L 213.842708 219.202207 
L 214.508678 219.202207 
L 214.508678 217.135719 
L 215.972383 217.135719 
L 215.972383 216.619097 
L 216.369468 216.619097 
L 216.369468 215.585853 
L 216.56475 215.585853 
L 216.56475 215.069231 
L 216.949025 215.069231 
L 216.949025 213.519365 
L 217.138108 213.519365 
L 217.138108 212.48612 
L 217.32521 212.48612 
L 217.32521 208.869766 
L 217.510374 208.869766 
L 217.510374 207.836522 
L 217.875042 207.836522 
L 217.875042 204.73679 
L 218.232416 204.73679 
L 218.232416 203.186924 
L 218.408458 203.186924 
L 218.408458 200.087192 
L 218.755423 200.087192 
L 218.755423 199.57057 
L 218.926411 199.57057 
L 218.926411 199.053948 
L 219.095778 199.053948 
L 219.095778 196.98746 
L 219.263555 196.98746 
L 219.263555 196.470838 
L 219.594455 196.470838 
L 219.594455 194.920972 
L 220.706608 194.920972 
L 220.706608 194.40435 
L 221.753575 194.40435 
L 221.753575 193.371106 
L 221.898257 193.371106 
L 221.898257 192.854484 
L 222.325404 192.854484 
L 222.325404 191.82124 
L 223.015378 191.82124 
L 223.015378 191.304618 
L 223.150233 191.304618 
L 223.150233 190.787996 
L 223.548795 190.787996 
L 223.548795 190.271374 
L 223.679697 190.271374 
L 223.679697 188.204886 
L 223.809648 188.204886 
L 223.809648 187.171642 
L 223.93866 187.171642 
L 223.93866 183.555288 
L 224.193923 183.555288 
L 224.193923 182.522044 
L 224.3202 182.522044 
L 224.3202 180.972178 
L 224.445591 180.972178 
L 224.445591 180.455556 
L 224.570108 180.455556 
L 224.570108 178.389067 
L 224.693763 178.389067 
L 224.693763 175.805957 
L 224.816568 175.805957 
L 224.816568 174.256091 
L 224.938536 174.256091 
L 224.938536 172.189603 
L 225.059676 172.189603 
L 225.059676 168.573249 
L 225.18 168.573249 
L 225.18 165.473517 
L 225.29952 165.473517 
L 225.29952 164.440273 
L 230.528974 164.440273 
L 230.61765 162.373785 
L 230.705888 162.373785 
L 230.705888 161.857163 
L 231.054545 161.857163 
L 231.054545 161.340541 
L 231.396529 161.340541 
L 231.481012 159.274053 
L 231.979689 159.274053 
L 231.979689 158.757431 
L 232.14287 158.757431 
L 232.14287 157.207565 
L 232.781085 157.207565 
L 232.859282 156.174321 
L 233.014658 156.174321 
L 233.014658 155.657699 
L 233.168694 155.657699 
L 233.245218 152.557967 
L 233.321414 152.557967 
L 233.321414 149.974857 
L 233.622993 149.974857 
L 233.697599 145.841881 
L 233.771895 145.841881 
L 233.845883 139.642416 
L 233.919566 139.642416 
L 233.992947 136.026062 
L 234.066027 136.026062 
L 234.13881 133.959574 
L 234.283491 133.959574 
L 234.355395 130.859842 
L 234.498341 130.859842 
L 234.569387 128.276732 
L 234.640152 128.276732 
L 234.710638 125.177 
L 234.780847 125.177 
L 234.780847 124.143756 
L 234.989833 124.143756 
L 234.989833 123.110512 
L 236.130025 123.110512 
L 236.130025 122.59389 
L 236.451981 122.59389 
L 236.451981 121.560646 
L 236.642407 121.560646 
L 236.642407 121.044024 
L 236.768239 121.044024 
L 236.768239 120.527402 
L 236.893192 120.527402 
L 236.893192 119.494158 
L 237.017276 119.494158 
L 237.078997 118.460914 
L 237.140505 118.460914 
L 237.201802 115.361182 
L 237.32377 115.361182 
L 237.32377 113.811316 
L 237.684754 113.811316 
L 237.684754 113.294694 
L 240.490115 113.294694 
L 240.591639 110.194961 
L 240.792972 110.194961 
L 240.792972 109.161717 
L 241.480292 109.161717 
L 241.480292 108.645095 
L 241.719494 108.645095 
L 241.814285 107.611851 
L 242.690575 107.611851 
L 242.735526 103.995497 
L 245.592231 103.995497 
L 245.592231 103.478875 
L 245.895731 103.478875 
L 245.895731 102.962253 
L 246.487689 102.962253 
L 246.487689 102.445631 
L 247.409662 102.445631 
L 247.409662 101.929009 
L 247.920701 101.929009 
L 247.920701 100.379143 
L 279.378886 100.379143 
L 279.465303 93.663057 
L 279.619809 93.663057 
L 279.693726 83.847239 
L 279.986376 83.847239 
L 280.081019 79.714263 
L 280.136459 79.714263 
L 280.224806 71.964932 
L 280.252325 71.964932 
L 280.345574 66.798712 
L 280.394745 66.798712 
L 280.498107 60.082626 
L 280.804656 60.082626 
L 280.847262 59.049382 
L 280.937465 59.049382 
L 281.048268 57.499516 
L 281.412723 57.499516 
L 281.412723 56.982894 
L 281.535988 56.982894 
L 281.535988 56.466272 
L 281.668571 56.466272 
L 281.744617 55.433028 
L 291.5696 55.433028 
L 291.65115 51.816674 
L 291.804501 51.816674 
L 291.89359 49.750186 
L 291.919371 49.750186 
L 292.027819 46.133832 
L 292.059089 46.133832 
L 292.067608 44.583966 
L 292.228698 44.583966 
L 292.298896 43.550722 
L 292.360442 43.550722 
L 292.360442 43.0341 
L 292.513388 43.0341 
L 292.513388 42.517478 
L 298.721818 42.517478 
L 298.751137 40.967611 
L 298.889266 40.967611 
L 298.978191 38.901123 
L 303.799446 38.901123 
L 303.815634 37.867879 
L 303.953375 37.867879 
L 303.954834 36.834635 
L 307.865343 36.834635 
L 307.926219 35.801391 
L 310.989292 35.801391 
L 310.989292 35.284769 
L 320.109299 35.284769 
L 320.109299 34.768147 
L 361.113325 34.768147 
L 361.113325 34.768147 
" style="fill:none;stroke:#008000;stroke-linecap:square;stroke-width:1.5;"/>
   </g>
   <g id="line2d_48">
    <defs>
     <path d="M -0 6 
L 6 -6 
L -6 -6 
z
" id="mdcf7acbae7" style="stroke:#008000;stroke-linejoin:miter;stroke-width:1.5;"/>
    </defs>
    <g>
     <use style="fill:none;stroke:#008000;stroke-linejoin:miter;stroke-width:1.5;" x="361.113325" xlink:href="#mdcf7acbae7" y="34.768147"/>
    </g>
   </g>
   <g id="line2d_49"/>
   <g id="line2d_50">
    <path clip-path="url(#p9b6df216c5)" d="M 278.827611 100.379143 
" style="fill:none;stroke:#008000;stroke-linecap:square;stroke-width:1.5;"/>
    <defs>
     <path d="M -12 12 
L 12 -12 
M -12 -12 
L 12 12 
" id="me81312f61e" style="stroke:#008000;stroke-width:3;"/>
    </defs>
    <g clip-path="url(#p9b6df216c5)">
     <use style="fill:#008000;stroke:#008000;stroke-width:3;" x="278.827611" xlink:href="#me81312f61e" y="100.379143"/>
    </g>
   </g>
   <g id="line2d_51">
    <defs>
     <path d="M 0 1.5 
C 0.397805 1.5 0.77937 1.341951 1.06066 1.06066 
C 1.341951 0.77937 1.5 0.397805 1.5 0 
C 1.5 -0.397805 1.341951 -0.77937 1.06066 -1.06066 
C 0.77937 -1.341951 0.397805 -1.5 0 -1.5 
C -0.397805 -1.5 -0.77937 -1.341951 -1.06066 -1.06066 
C -1.341951 -0.77937 -1.5 -0.397805 -1.5 0 
C -1.5 0.397805 -1.341951 0.77937 -1.06066 1.06066 
C -0.77937 1.341951 -0.397805 1.5 0 1.5 
z
" id="m62089edfe2" style="stroke:#0000ff;"/>
    </defs>
    <g>
     <use style="fill:#0000ff;stroke:#0000ff;" x="342.966119" xlink:href="#m62089edfe2" y="70.931688"/>
     <use style="fill:#0000ff;stroke:#0000ff;" x="342.966119" xlink:href="#m62089edfe2" y="70.931688"/>
    </g>
   </g>
   <g id="line2d_52">
    <path d="M 44.355702 298.245375 
L 44.355702 269.831164 
L 139.026651 269.831164 
L 139.026651 266.731432 
L 146.271548 266.731432 
L 146.271548 265.698188 
L 151.411885 265.698188 
L 151.411885 265.181566 
L 155.39904 265.181566 
L 155.39904 264.664944 
L 158.656782 264.664944 
L 158.656782 263.6317 
L 161.411165 263.6317 
L 161.411165 262.598456 
L 173.796399 262.598456 
L 173.796399 261.565212 
L 176.182353 261.565212 
L 176.182353 260.531968 
L 178.286914 260.531968 
L 178.286914 259.498724 
L 179.252993 259.498724 
L 179.252993 257.432236 
L 180.169508 257.432236 
L 180.169508 256.915614 
L 181.872521 256.915614 
L 181.872521 256.398992 
L 184.857463 256.398992 
L 184.857463 255.88237 
L 192.10236 255.88237 
L 192.10236 254.332504 
L 196.895732 254.332504 
L 196.895732 253.29926 
L 197.583052 253.29926 
L 197.583052 252.782638 
L 197.917046 252.782638 
L 197.917046 251.749394 
L 198.566867 251.749394 
L 198.566867 251.232772 
L 199.193883 251.232772 
L 199.193883 250.199528 
L 200.385532 250.199528 
L 200.385532 249.682906 
L 200.952821 249.682906 
L 200.952821 249.166284 
L 201.771351 249.166284 
L 201.771351 248.649662 
L 203.303843 248.649662 
L 203.303843 247.099796 
L 204.487595 247.099796 
L 204.487595 245.549929 
L 205.161943 245.549929 
L 205.161943 245.033307 
L 206.43878 245.033307 
L 206.43878 244.516685 
L 207.630429 244.516685 
L 207.630429 244.000063 
L 213.056662 244.000063 
L 213.056662 243.483441 
L 213.197913 243.483441 
L 213.197913 242.966819 
L 214.682156 242.966819 
L 214.682156 242.450197 
L 215.442616 242.450197 
L 215.442616 240.383709 
L 215.566272 240.383709 
L 215.566272 239.867087 
L 215.689077 239.867087 
L 215.689077 239.350465 
L 215.932184 239.350465 
L 215.932184 238.833843 
L 216.052509 238.833843 
L 216.052509 238.317221 
L 216.872829 238.317221 
L 216.872829 237.800599 
L 217.547177 237.800599 
L 217.547177 237.283977 
L 218.824014 237.283977 
L 218.824014 236.767355 
L 220.206768 236.767355 
L 220.206768 235.734111 
L 220.675774 235.734111 
L 220.675774 234.184245 
L 220.951381 234.184245 
L 220.951381 233.667623 
L 221.132784 233.667623 
L 221.132784 233.151001 
L 223.575052 233.151001 
L 223.575052 232.634379 
L 225.441896 232.634379 
L 225.441896 232.117757 
L 225.723289 232.117757 
L 225.723289 231.601135 
L 225.862342 231.601135 
L 225.862342 231.084513 
L 227.7657 231.084513 
L 227.7657 230.051269 
L 227.951506 230.051269 
L 228.013014 227.984781 
L 228.437743 227.984781 
L 228.437743 226.434915 
L 230.151655 226.434915 
L 230.151655 225.918293 
L 230.31434 225.918293 
L 230.31434 224.885049 
L 230.741061 224.885049 
L 230.741061 224.368427 
L 231.106262 224.368427 
L 231.106262 223.335183 
L 232.592002 223.335183 
L 232.592002 222.818561 
L 233.697599 222.818561 
L 233.697599 221.785317 
L 234.051435 221.785317 
L 234.051435 221.268695 
L 234.182337 221.268695 
L 234.182337 219.718829 
L 234.82284 219.718829 
L 234.82284 218.168963 
L 235.237432 218.168963 
L 235.237432 217.652341 
L 235.481647 217.652341 
L 235.481647 217.135719 
L 235.642622 217.135719 
L 235.722569 216.102475 
L 237.029638 216.102475 
L 237.029638 215.585853 
L 237.177309 215.585853 
L 237.177309 215.069231 
L 238.927054 215.069231 
L 238.927054 214.552609 
L 239.645795 214.552609 
L 239.645795 214.035987 
L 240.33674 214.035987 
L 240.428923 211.969498 
L 240.459545 211.969498 
L 240.459545 211.452876 
L 240.642185 211.452876 
L 240.642185 210.936254 
L 240.792972 210.936254 
L 240.792972 210.419632 
L 240.942497 210.419632 
L 240.972252 209.386388 
L 241.061222 209.386388 
L 241.061222 208.869766 
L 242.48233 208.869766 
L 242.48233 208.353144 
L 242.860791 208.353144 
L 242.860791 206.803278 
L 243.257583 206.803278 
L 243.257583 206.286656 
L 243.387912 206.286656 
L 243.491496 203.703546 
L 243.543063 203.703546 
L 243.568791 202.15368 
L 243.671335 202.15368 
L 243.696879 200.603814 
L 245.024695 200.603814 
L 245.024695 200.087192 
L 245.538585 200.087192 
L 245.538585 198.537326 
L 245.812781 198.537326 
L 245.903253 196.98746 
L 247.102905 196.98746 
L 247.102905 196.470838 
L 248.945372 196.470838 
L 249.021326 195.437594 
L 249.059182 195.437594 
L 249.078081 193.371106 
L 249.48886 193.371106 
L 249.48886 192.337862 
L 249.836179 192.337862 
L 249.836179 191.82124 
L 250.890652 191.82124 
L 250.992755 190.787996 
L 251.461674 190.787996 
L 251.461674 190.271374 
L 251.609821 190.271374 
L 251.691598 189.23813 
L 252.395536 189.23813 
L 252.395536 188.721508 
L 253.01227 188.721508 
L 253.01227 188.204886 
L 253.327731 188.204886 
L 253.327731 187.688264 
L 254.298512 187.688264 
L 254.298512 187.171642 
L 254.70288 187.171642 
L 254.70288 186.65502 
L 259.445898 186.65502 
L 259.445898 186.138398 
L 279.352301 186.138398 
L 279.463004 185.105154 
L 279.514661 185.105154 
L 279.528411 184.07191 
L 279.848527 184.07191 
L 279.862023 182.005422 
L 280.136459 182.005422 
L 280.239121 177.872445 
L 280.288585 177.872445 
L 280.360886 175.289335 
L 280.485084 175.289335 
L 280.514373 174.256091 
L 280.637513 174.256091 
L 280.718065 173.222847 
L 280.801456 173.222847 
L 280.86534 170.123115 
L 281.005084 170.123115 
L 281.005084 169.606493 
L 281.140604 169.606493 
L 281.168839 167.023383 
L 281.44259 167.023383 
L 281.454934 165.990139 
L 281.623807 165.990139 
L 281.623807 165.473517 
L 281.791098 165.473517 
L 281.791098 164.956895 
L 281.914795 164.956895 
L 281.989802 161.857163 
L 282.046598 161.857163 
L 282.064495 160.307297 
L 282.242496 160.307297 
L 282.242496 159.790675 
L 282.357252 159.790675 
L 282.366049 158.757431 
L 282.945794 158.757431 
L 282.945794 158.240809 
L 291.664512 158.240809 
L 291.664512 157.724187 
L 291.872364 157.724187 
L 291.980526 155.141077 
L 291.995924 155.141077 
L 292.076123 152.557967 
L 292.145791 152.557967 
L 292.248943 149.974857 
L 292.406742 149.974857 
L 292.411755 148.424991 
L 292.548243 148.424991 
L 292.548243 147.908369 
L 292.755956 147.908369 
L 292.863803 144.808637 
L 293.001744 144.808637 
L 293.064679 143.25877 
L 293.326933 143.25877 
L 293.326933 142.742148 
L 293.618221 142.742148 
L 293.618221 142.225526 
L 298.809242 142.225526 
L 298.809242 141.192282 
L 298.940742 141.192282 
L 298.958125 139.642416 
L 299.085087 139.642416 
L 299.152815 137.575928 
L 299.253358 137.575928 
L 299.359003 133.959574 
L 299.369194 133.959574 
L 299.434728 132.409708 
L 299.542672 132.409708 
L 299.603105 130.34322 
L 299.670015 130.34322 
L 299.765483 128.793354 
L 299.932981 128.793354 
L 299.938464 127.76011 
L 303.77145 127.76011 
L 303.77145 127.243488 
L 303.952791 127.243488 
L 303.994782 125.693622 
L 304.121034 125.693622 
L 304.211905 122.077268 
L 304.25932 122.077268 
L 304.25932 121.560646 
L 304.421302 121.560646 
L 304.423862 119.494158 
L 304.545434 119.494158 
L 304.639235 116.911048 
L 304.695616 116.911048 
L 304.715769 115.877804 
L 307.887142 115.877804 
L 307.997833 113.811316 
L 308.009004 113.811316 
L 308.074493 110.711584 
L 308.177811 110.711584 
L 308.277098 108.645095 
L 308.347094 108.645095 
L 308.422955 106.578607 
L 308.46859 106.578607 
L 308.46859 106.061985 
L 311.013103 106.061985 
L 311.094919 105.028741 
L 311.186883 105.028741 
L 311.245213 103.478875 
L 311.304513 103.478875 
L 311.340463 102.445631 
L 311.421375 102.445631 
L 311.480669 100.379143 
L 311.582107 100.379143 
L 311.595817 99.345899 
L 313.805959 99.345899 
L 313.898564 98.312655 
L 313.945188 98.312655 
L 314.024618 96.246167 
L 314.072406 96.246167 
L 314.147809 92.629813 
L 314.232752 92.629813 
L 314.232752 92.113191 
L 316.115937 92.113191 
L 316.115937 91.596569 
L 316.240541 91.596569 
L 316.292862 89.530081 
L 316.463269 89.530081 
L 316.550896 87.980215 
L 318.264882 87.980215 
L 318.32219 86.946971 
L 318.393373 86.946971 
L 318.393373 86.430349 
L 318.515521 86.430349 
L 318.593275 84.880483 
L 320.143308 84.880483 
L 320.245651 83.847239 
L 320.270619 83.847239 
L 320.355808 81.780751 
L 321.9782 81.780751 
L 322.024132 80.230885 
L 323.403056 80.230885 
L 323.403056 79.714263 
L 323.549902 79.714263 
L 323.549902 79.197641 
L 325.003363 79.197641 
L 325.003363 78.681019 
L 326.179584 78.681019 
L 326.179584 78.164397 
L 327.379237 78.164397 
L 327.379237 77.647775 
L 329.67179 77.647775 
L 329.67179 77.131153 
L 331.588094 77.131153 
L 331.588094 76.097908 
L 332.505699 76.097908 
L 332.584903 75.064664 
L 333.359059 75.064664 
L 333.359059 74.548042 
L 334.195128 74.548042 
L 334.195128 74.03142 
L 335.73853 74.03142 
L 335.73853 73.514798 
L 338.475604 73.514798 
L 338.475604 72.998176 
L 341.420295 72.998176 
L 341.420295 72.481554 
L 341.918406 72.481554 
L 341.918406 71.964932 
L 342.453546 71.964932 
L 342.453546 71.44831 
L 342.966119 71.44831 
L 342.966119 70.931688 
L 361.113325 70.931688 
L 361.113325 70.931688 
" style="fill:none;stroke:#0000ff;stroke-linecap:square;stroke-width:1.5;"/>
   </g>
   <g id="line2d_53">
    <defs>
     <path d="M 0 -6 
L -1.347084 -1.854102 
L -5.706339 -1.854102 
L -2.179628 0.708204 
L -3.526712 4.854102 
L -0 2.291796 
L 3.526712 4.854102 
L 2.179628 0.708204 
L 5.706339 -1.854102 
L 1.347084 -1.854102 
z
" id="m3a0e57a288" style="stroke:#0000ff;stroke-linejoin:bevel;stroke-width:1.5;"/>
    </defs>
    <g>
     <use style="fill:none;stroke:#0000ff;stroke-linejoin:bevel;stroke-width:1.5;" x="361.113325" xlink:href="#m3a0e57a288" y="70.931688"/>
    </g>
   </g>
   <g id="line2d_54"/>
   <g id="line2d_55">
    <path clip-path="url(#p9b6df216c5)" d="M 278.827611 186.138398 
" style="fill:none;stroke:#0000ff;stroke-linecap:square;stroke-width:1.5;"/>
    <defs>
     <path d="M -12 12 
L 12 -12 
M -12 -12 
L 12 12 
" id="mb97916bd71" style="stroke:#0000ff;stroke-width:3;"/>
    </defs>
    <g clip-path="url(#p9b6df216c5)">
     <use style="fill:#0000ff;stroke:#0000ff;stroke-width:3;" x="278.827611" xlink:href="#mb97916bd71" y="186.138398"/>
    </g>
   </g>
   <g id="line2d_56">
    <defs>
     <path d="M 0 1.5 
C 0.397805 1.5 0.77937 1.341951 1.06066 1.06066 
C 1.341951 0.77937 1.5 0.397805 1.5 0 
C 1.5 -0.397805 1.341951 -0.77937 1.06066 -1.06066 
C 0.77937 -1.341951 0.397805 -1.5 0 -1.5 
C -0.397805 -1.5 -0.77937 -1.341951 -1.06066 -1.06066 
C -1.341951 -0.77937 -1.5 -0.397805 -1.5 0 
C -1.5 0.397805 -1.341951 0.77937 -1.06066 1.06066 
C -0.77937 1.341951 -0.397805 1.5 0 1.5 
z
" id="mcedbfd2343" style="stroke:#000000;"/>
    </defs>
    <g>
     <use style="stroke:#000000;" x="357.813651" xlink:href="#mcedbfd2343" y="200.087192"/>
     <use style="stroke:#000000;" x="357.813651" xlink:href="#mcedbfd2343" y="200.087192"/>
    </g>
   </g>
   <g id="line2d_57">
    <path d="M 31.970468 298.245375 
L 31.970468 277.580494 
L 139.026651 277.580494 
L 139.026651 273.96414 
L 146.271548 273.96414 
L 146.271548 273.447518 
L 151.411885 273.447518 
L 151.411885 271.897652 
L 155.39904 271.897652 
L 155.39904 271.38103 
L 158.656782 271.38103 
L 158.656782 270.347786 
L 163.797119 270.347786 
L 163.797119 269.831164 
L 165.90168 269.831164 
L 165.90168 268.79792 
L 167.784274 268.79792 
L 167.784274 268.281298 
L 169.487287 268.281298 
L 169.487287 267.764676 
L 172.472229 267.764676 
L 172.472229 267.248054 
L 173.796399 267.248054 
L 173.796399 265.698188 
L 178.286914 265.698188 
L 178.286914 265.181566 
L 179.252993 265.181566 
L 179.252993 263.6317 
L 182.66679 263.6317 
L 182.66679 262.598456 
L 185.531811 262.598456 
L 185.531811 262.081834 
L 193.42653 262.081834 
L 193.42653 261.565212 
L 206.844891 261.565212 
L 206.844891 260.015346 
L 207.241977 260.015346 
L 207.241977 259.498724 
L 207.630429 259.498724 
L 207.630429 257.948858 
L 208.927131 257.948858 
L 208.927131 257.432236 
L 210.30228 257.432236 
L 210.30228 256.398992 
L 212.480221 256.398992 
L 212.480221 255.88237 
L 214.289435 255.88237 
L 214.289435 255.365748 
L 218.721028 255.365748 
L 218.721028 254.849126 
L 219.627211 254.849126 
L 219.627211 253.815882 
L 220.951381 253.815882 
L 220.951381 253.29926 
L 222.437606 253.29926 
L 222.437606 252.782638 
L 223.809648 252.782638 
L 223.809648 251.749394 
L 224.041203 251.749394 
L 224.041203 251.232772 
L 224.570108 251.232772 
L 224.570108 249.682906 
L 224.718392 249.682906 
L 224.718392 249.166284 
L 224.938536 249.166284 
L 225.011318 247.616418 
L 228.437743 247.616418 
L 228.437743 247.099796 
L 228.911098 247.099796 
L 228.911098 246.583173 
L 232.304573 246.583173 
L 232.304573 246.066551 
L 234.051435 246.066551 
L 234.051435 245.549929 
L 234.82284 245.549929 
L 234.82284 245.033307 
L 235.114061 245.033307 
L 235.114061 244.000063 
L 235.602514 244.000063 
L 235.602514 243.483441 
L 235.722569 243.483441 
L 235.722569 242.966819 
L 235.960286 242.966819 
L 235.960286 242.450197 
L 236.955342 242.450197 
L 236.955342 241.933575 
L 237.505173 241.933575 
L 237.505173 241.416953 
L 240.792972 241.416953 
L 240.792972 240.900331 
L 241.001958 240.900331 
L 241.001958 240.383709 
L 241.412737 240.383709 
L 241.412737 239.867087 
L 242.29005 239.867087 
L 242.372709 238.833843 
L 243.205183 238.833843 
L 243.205183 237.800599 
L 243.439779 237.800599 
L 243.439779 237.283977 
L 244.713937 237.283977 
L 244.713937 236.767355 
L 244.881939 236.767355 
L 244.881939 235.734111 
L 246.912028 235.734111 
L 246.912028 235.217489 
L 253.490776 235.217489 
L 253.490776 233.151001 
L 259.050357 233.151001 
L 259.050357 232.634379 
L 278.977076 232.634379 
L 278.977076 232.117757 
L 279.576453 232.117757 
L 279.641447 231.084513 
L 279.865395 231.084513 
L 279.865395 230.567891 
L 280.351044 230.567891 
L 280.374 228.501403 
L 280.514373 228.501403 
L 280.514373 227.984781 
L 280.83662 227.984781 
L 280.83662 227.468159 
L 281.01141 227.468159 
L 281.01141 226.951537 
L 281.137464 226.951537 
L 281.137464 226.434915 
L 281.318678 226.434915 
L 281.318678 225.918293 
L 281.596282 225.918293 
L 281.617694 224.885049 
L 282.549792 224.885049 
L 282.549792 224.368427 
L 283.93128 224.368427 
L 283.93128 223.851805 
L 291.577188 223.851805 
L 291.577188 223.335183 
L 292.006182 223.335183 
L 292.065905 221.785317 
L 292.390021 221.785317 
L 292.456812 219.718829 
L 298.747231 219.718829 
L 298.747231 219.202207 
L 298.918699 219.202207 
L 298.918699 218.685585 
L 299.327262 218.685585 
L 299.429088 217.652341 
L 300.325679 217.652341 
L 300.325679 217.135719 
L 303.788253 217.135719 
L 303.788253 216.619097 
L 304.16696 216.619097 
L 304.230886 214.552609 
L 304.331493 214.552609 
L 304.331493 214.035987 
L 305.017017 214.035987 
L 305.017017 213.002743 
L 307.906808 213.002743 
L 307.906808 212.48612 
L 311.135395 212.48612 
L 311.135395 211.969498 
L 313.926152 211.969498 
L 314.020132 209.90301 
L 318.28335 209.90301 
L 318.359773 208.869766 
L 321.833575 208.869766 
L 321.833575 208.353144 
L 323.441646 208.353144 
L 323.441646 207.836522 
L 323.713819 207.836522 
L 323.713819 207.3199 
L 326.108502 207.3199 
L 326.157859 205.770034 
L 327.604902 205.770034 
L 327.604902 205.253412 
L 329.59438 205.253412 
L 329.59438 204.220168 
L 333.344526 204.220168 
L 333.344526 203.703546 
L 336.439938 203.703546 
L 336.439938 203.186924 
L 338.577563 203.186924 
L 338.577563 202.670302 
L 340.265858 202.670302 
L 340.376038 201.637058 
L 345.242187 201.637058 
L 345.242187 201.120436 
L 346.170022 201.120436 
L 346.170022 200.603814 
L 357.813651 200.603814 
L 357.813651 200.087192 
L 361.113325 200.087192 
L 361.113325 200.087192 
" style="fill:none;stroke:#000000;stroke-linecap:square;stroke-width:1.5;"/>
   </g>
   <g id="line2d_58">
    <defs>
     <path d="M 0 6 
C 1.591219 6 3.117479 5.367802 4.242641 4.242641 
C 5.367802 3.117479 6 1.591219 6 0 
C 6 -1.591219 5.367802 -3.117479 4.242641 -4.242641 
C 3.117479 -5.367802 1.591219 -6 0 -6 
C -1.591219 -6 -3.117479 -5.367802 -4.242641 -4.242641 
C -5.367802 -3.117479 -6 -1.591219 -6 0 
C -6 1.591219 -5.367802 3.117479 -4.242641 4.242641 
C -3.117479 5.367802 -1.591219 6 0 6 
z
" id="md9cb3017e9" style="stroke:#000000;stroke-width:1.5;"/>
    </defs>
    <g>
     <use style="fill:none;stroke:#000000;stroke-width:1.5;" x="361.113325" xlink:href="#md9cb3017e9" y="200.087192"/>
    </g>
   </g>
   <g id="line2d_59"/>
   <g id="line2d_60">
    <path clip-path="url(#p9b6df216c5)" d="M 278.827611 232.634379 
" style="fill:none;stroke:#000000;stroke-linecap:square;stroke-width:1.5;"/>
    <defs>
     <path d="M -12 12 
L 12 -12 
M -12 -12 
L 12 12 
" id="m6dfbfc6c71" style="stroke:#000000;stroke-width:3;"/>
    </defs>
    <g clip-path="url(#p9b6df216c5)">
     <use style="stroke:#000000;stroke-width:3;" x="278.827611" xlink:href="#m6dfbfc6c71" y="232.634379"/>
    </g>
   </g>
   <g id="line2d_61">
    <defs>
     <path d="M 0 1.5 
C 0.397805 1.5 0.77937 1.341951 1.06066 1.06066 
C 1.341951 0.77937 1.5 0.397805 1.5 0 
C 1.5 -0.397805 1.341951 -0.77937 1.06066 -1.06066 
C 0.77937 -1.341951 0.397805 -1.5 0 -1.5 
C -0.397805 -1.5 -0.77937 -1.341951 -1.06066 -1.06066 
C -1.341951 -0.77937 -1.5 -0.397805 -1.5 0 
C -1.5 0.397805 -1.341951 0.77937 -1.06066 1.06066 
C -0.77937 1.341951 -0.397805 1.5 0 1.5 
z
" id="m28a821ad2a" style="stroke:#ff0000;"/>
    </defs>
    <g>
     <use style="fill:#ff0000;stroke:#ff0000;" x="342.497004" xlink:href="#m28a821ad2a" y="251.749394"/>
     <use style="fill:#ff0000;stroke:#ff0000;" x="342.497004" xlink:href="#m28a821ad2a" y="251.749394"/>
    </g>
   </g>
   <g id="line2d_62">
    <path d="M 19.585234 298.245375 
L 19.585234 282.230093 
L 139.026651 282.230093 
L 139.026651 279.646982 
L 143.013806 279.646982 
L 143.013806 279.13036 
L 149.02593 279.13036 
L 149.02593 277.580494 
L 153.516446 277.580494 
L 153.516446 277.063872 
L 155.39904 277.063872 
L 155.39904 275.514006 
L 158.656782 275.514006 
L 158.656782 273.96414 
L 161.411165 273.96414 
L 161.411165 272.930896 
L 164.880367 272.930896 
L 164.880367 271.897652 
L 168.656062 271.897652 
L 168.656062 271.38103 
L 169.487287 271.38103 
L 169.487287 270.864408 
L 171.042016 270.864408 
L 171.042016 270.347786 
L 177.265601 270.347786 
L 177.265601 269.314542 
L 195.625382 269.314542 
L 195.625382 268.79792 
L 198.406614 268.79792 
L 198.406614 268.281298 
L 199.039179 268.281298 
L 199.039179 267.764676 
L 201.637507 267.764676 
L 201.637507 267.248054 
L 220.44281 267.248054 
L 220.44281 266.21481 
L 220.489647 266.21481 
L 220.489647 265.181566 
L 236.749421 265.181566 
L 236.749421 263.6317 
L 243.684111 263.6317 
L 243.684111 263.115078 
L 245.306829 263.115078 
L 245.306829 262.598456 
L 249.115817 262.598456 
L 249.115817 262.081834 
L 250.061052 262.081834 
L 250.061052 261.565212 
L 257.026684 261.565212 
L 257.026684 261.04859 
L 262.896433 261.04859 
L 262.896433 260.531968 
L 282.083865 260.531968 
L 282.083865 260.015346 
L 283.228761 260.015346 
L 283.228761 259.498724 
L 283.449469 259.498724 
L 283.449469 258.982102 
L 292.251472 258.982102 
L 292.251472 258.46548 
L 293.548587 258.46548 
L 293.548587 257.948858 
L 298.927983 257.948858 
L 298.927983 257.432236 
L 299.156825 257.432236 
L 299.156825 256.915614 
L 300.048321 256.915614 
L 300.048321 255.88237 
L 303.951915 255.88237 
L 303.951915 255.365748 
L 304.804089 255.365748 
L 304.804089 254.849126 
L 308.556466 254.849126 
L 308.556466 254.332504 
L 308.993441 254.332504 
L 308.993441 253.815882 
L 330.748233 253.815882 
L 330.748233 253.29926 
L 339.766182 253.29926 
L 339.766182 252.266016 
L 342.497004 252.266016 
L 342.497004 251.749394 
L 361.113325 251.749394 
" style="fill:none;stroke:#ff0000;stroke-linecap:square;stroke-width:1.5;"/>
   </g>
   <g id="line2d_63">
    <defs>
     <path d="M -6 6 
L 6 6 
L 6 -6 
L -6 -6 
z
" id="mf18edba174" style="stroke:#ff0000;stroke-linejoin:miter;stroke-width:1.5;"/>
    </defs>
    <g>
     <use style="fill:none;stroke:#ff0000;stroke-linejoin:miter;stroke-width:1.5;" x="361.113325" xlink:href="#mf18edba174" y="251.749394"/>
    </g>
   </g>
   <g id="line2d_64"/>
   <g id="line2d_65">
    <path clip-path="url(#p9b6df216c5)" d="M 278.827611 260.531968 
" style="fill:none;stroke:#ff0000;stroke-linecap:square;stroke-width:1.5;"/>
    <defs>
     <path d="M -12 12 
L 12 -12 
M -12 -12 
L 12 12 
" id="m6bde4a821a" style="stroke:#ff0000;stroke-width:3;"/>
    </defs>
    <g clip-path="url(#p9b6df216c5)">
     <use style="fill:#ff0000;stroke:#ff0000;stroke-width:3;" x="278.827611" xlink:href="#m6bde4a821a" y="260.531968"/>
    </g>
   </g>
   <g id="line2d_66">
    <defs>
     <path d="M 0 1.5 
C 0.397805 1.5 0.77937 1.341951 1.06066 1.06066 
C 1.341951 0.77937 1.5 0.397805 1.5 0 
C 1.5 -0.397805 1.341951 -0.77937 1.06066 -1.06066 
C 0.77937 -1.341951 0.397805 -1.5 0 -1.5 
C -0.397805 -1.5 -0.77937 -1.341951 -1.06066 -1.06066 
C -1.341951 -0.77937 -1.5 -0.397805 -1.5 0 
C -1.5 0.397805 -1.341951 0.77937 -1.06066 1.06066 
C -0.77937 1.341951 -0.397805 1.5 0 1.5 
z
" id="mf851a0d69a" style="stroke:#bf00bf;"/>
    </defs>
    <g>
     <use style="fill:#bf00bf;stroke:#bf00bf;" x="345.259271" xlink:href="#mf851a0d69a" y="262.081834"/>
     <use style="fill:#bf00bf;stroke:#bf00bf;" x="345.259271" xlink:href="#mf851a0d69a" y="262.081834"/>
    </g>
   </g>
   <g id="line2d_67">
    <path d="M 7.2 298.245375 
L 7.2 286.879691 
L 114.256183 286.879691 
L 114.256183 285.846447 
L 121.50108 285.846447 
L 121.50108 284.296581 
L 126.641417 284.296581 
L 126.641417 283.263337 
L 130.628571 283.263337 
L 130.628571 282.746715 
L 136.640696 282.746715 
L 136.640696 281.713471 
L 141.131212 281.713471 
L 141.131212 281.196849 
L 143.013806 281.196849 
L 143.013806 280.680226 
L 146.271548 280.680226 
L 146.271548 280.163604 
L 150.258703 280.163604 
L 150.258703 279.646982 
L 153.516446 279.646982 
L 153.516446 279.13036 
L 157.102053 279.13036 
L 157.102053 278.097116 
L 158.656782 278.097116 
L 158.656782 277.580494 
L 175.324519 277.580494 
L 175.324519 277.063872 
L 176.182353 277.063872 
L 176.182353 276.54725 
L 179.016326 276.54725 
L 179.016326 275.514006 
L 179.252993 275.514006 
L 179.252993 274.997384 
L 187.562689 274.997384 
L 187.562689 273.96414 
L 189.252273 273.96414 
L 189.252273 272.930896 
L 190.672148 272.930896 
L 190.672148 272.414274 
L 238.86862 272.414274 
L 238.86862 271.38103 
L 245.790091 271.38103 
L 245.790091 270.864408 
L 247.92238 270.864408 
L 247.92238 269.831164 
L 248.394649 269.831164 
L 248.394649 269.314542 
L 256.690635 269.314542 
L 256.690635 268.79792 
L 279.077792 268.79792 
L 279.077792 268.281298 
L 280.641549 268.281298 
L 280.641549 267.764676 
L 280.812652 267.764676 
L 280.812652 267.248054 
L 283.373432 267.248054 
L 283.373432 266.21481 
L 292.730945 266.21481 
L 292.730945 264.664944 
L 304.373247 264.664944 
L 304.373247 264.148322 
L 308.208035 264.148322 
L 308.208035 263.6317 
L 321.959267 263.6317 
L 321.959267 263.115078 
L 327.425387 263.115078 
L 327.425387 262.598456 
L 345.259271 262.598456 
L 345.259271 262.081834 
L 361.113325 262.081834 
" style="fill:none;stroke:#bf00bf;stroke-linecap:square;stroke-width:1.5;"/>
   </g>
   <g id="line2d_68">
    <defs>
     <path d="M -0 8.485281 
L 8.485281 0 
L 0 -8.485281 
L -8.485281 -0 
z
" id="maadecda55a" style="stroke:#bf00bf;stroke-linejoin:miter;stroke-width:1.5;"/>
    </defs>
    <g>
     <use style="fill:none;stroke:#bf00bf;stroke-linejoin:miter;stroke-width:1.5;" x="361.113325" xlink:href="#maadecda55a" y="262.081834"/>
    </g>
   </g>
   <g id="line2d_69"/>
   <g id="line2d_70">
    <path clip-path="url(#p9b6df216c5)" d="M 278.827611 268.79792 
" style="fill:none;stroke:#bf00bf;stroke-linecap:square;stroke-width:1.5;"/>
    <defs>
     <path d="M -12 12 
L 12 -12 
M -12 -12 
L 12 12 
" id="m65f848ba5b" style="stroke:#bf00bf;stroke-width:3;"/>
    </defs>
    <g clip-path="url(#p9b6df216c5)">
     <use style="fill:#bf00bf;stroke:#bf00bf;stroke-width:3;" x="278.827611" xlink:href="#m65f848ba5b" y="268.79792"/>
    </g>
   </g>
   <g id="line2d_71">
    <path d="M 361.113325 262.081834 
L 392.793325 292.97583 
" style="fill:none;stroke:#bf00bf;stroke-linecap:square;stroke-width:1.5;"/>
    <g>
     <use style="fill:none;stroke:#bf00bf;stroke-linejoin:miter;stroke-width:1.5;" x="361.113325" xlink:href="#maadecda55a" y="262.081834"/>
     <use style="fill:none;stroke:#bf00bf;stroke-linejoin:miter;stroke-width:1.5;" x="392.793325" xlink:href="#maadecda55a" y="292.97583"/>
    </g>
   </g>
   <g id="line2d_72">
    <path d="M 361.113325 251.749394 
L 392.793325 242.388203 
" style="fill:none;stroke:#ff0000;stroke-linecap:square;stroke-width:1.5;"/>
    <g>
     <use style="fill:none;stroke:#ff0000;stroke-linejoin:miter;stroke-width:1.5;" x="361.113325" xlink:href="#mf18edba174" y="251.749394"/>
     <use style="fill:none;stroke:#ff0000;stroke-linejoin:miter;stroke-width:1.5;" x="392.793325" xlink:href="#mf18edba174" y="242.388203"/>
    </g>
   </g>
   <g id="line2d_73">
    <path d="M 361.113325 200.087192 
L 392.793325 191.800575 
" style="fill:none;stroke:#000000;stroke-linecap:square;stroke-width:1.5;"/>
    <g>
     <use style="fill:none;stroke:#000000;stroke-width:1.5;" x="361.113325" xlink:href="#md9cb3017e9" y="200.087192"/>
     <use style="fill:none;stroke:#000000;stroke-width:1.5;" x="392.793325" xlink:href="#md9cb3017e9" y="191.800575"/>
    </g>
   </g>
   <g id="line2d_74">
    <path d="M 361.113325 70.931688 
L 392.793325 141.212947 
" style="fill:none;stroke:#0000ff;stroke-linecap:square;stroke-width:1.5;"/>
    <g>
     <use style="fill:none;stroke:#0000ff;stroke-linejoin:bevel;stroke-width:1.5;" x="361.113325" xlink:href="#m3a0e57a288" y="70.931688"/>
     <use style="fill:none;stroke:#0000ff;stroke-linejoin:bevel;stroke-width:1.5;" x="392.793325" xlink:href="#m3a0e57a288" y="141.212947"/>
    </g>
   </g>
   <g id="line2d_75">
    <path d="M 361.113325 34.768147 
L 392.793325 90.62532 
" style="fill:none;stroke:#008000;stroke-linecap:square;stroke-width:1.5;"/>
    <g>
     <use style="fill:none;stroke:#008000;stroke-linejoin:miter;stroke-width:1.5;" x="361.113325" xlink:href="#mdcf7acbae7" y="34.768147"/>
     <use style="fill:none;stroke:#008000;stroke-linejoin:miter;stroke-width:1.5;" x="392.793325" xlink:href="#mdcf7acbae7" y="90.62532"/>
    </g>
   </g>
   <g id="line2d_76">
    <path d="M 361.113325 34.768147 
L 392.793325 40.037692 
" style="fill:none;stroke:#00bfbf;stroke-linecap:square;stroke-width:1.5;"/>
    <g>
     <use style="fill:none;stroke:#00bfbf;stroke-width:1.5;" x="361.113325" xlink:href="#m769a727fb6" y="34.768147"/>
     <use style="fill:none;stroke:#00bfbf;stroke-width:1.5;" x="392.793325" xlink:href="#m769a727fb6" y="40.037692"/>
    </g>
   </g>
   <g id="line2d_77">
    <path d="M 361.113325 298.245375 
L 361.113325 34.768147 
" style="fill:none;stroke:#000000;stroke-linecap:square;stroke-width:1.5;"/>
   </g>
   <g id="patch_3">
    <path d="M 73.113325 298.245375 
L 73.113325 32.133375 
" style="fill:none;stroke:#000000;stroke-linecap:square;stroke-linejoin:miter;stroke-width:0.8;"/>
   </g>
   <g id="patch_4">
    <path d="M 430.233325 298.245375 
L 430.233325 32.133375 
" style="fill:none;stroke:#000000;stroke-linecap:square;stroke-linejoin:miter;stroke-width:0.8;"/>
   </g>
   <g id="patch_5">
    <path d="M 73.113325 298.245375 
L 430.233325 298.245375 
" style="fill:none;stroke:#000000;stroke-linecap:square;stroke-linejoin:miter;stroke-width:0.8;"/>
   </g>
   <g id="patch_6">
    <path d="M 73.113325 32.133375 
L 430.233325 32.133375 
" style="fill:none;stroke:#000000;stroke-linecap:square;stroke-linejoin:miter;stroke-width:0.8;"/>
   </g>
   <g id="text_14">
    <!-- 40-D -->
    <defs>
     <path d="M 19.671875 64.796875 
L 19.671875 8.109375 
L 31.59375 8.109375 
Q 46.6875 8.109375 53.6875 14.9375 
Q 60.6875 21.78125 60.6875 36.53125 
Q 60.6875 51.171875 53.6875 57.984375 
Q 46.6875 64.796875 31.59375 64.796875 
z
M 9.8125 72.90625 
L 30.078125 72.90625 
Q 51.265625 72.90625 61.171875 64.09375 
Q 71.09375 55.28125 71.09375 36.53125 
Q 71.09375 17.671875 61.125 8.828125 
Q 51.171875 0 30.078125 0 
L 9.8125 0 
z
" id="DejaVuSans-44"/>
    </defs>
    <g transform="translate(398.553325 297.114893)scale(0.15 -0.15)">
     <use xlink:href="#DejaVuSans-34"/>
     <use x="63.623047" xlink:href="#DejaVuSans-30"/>
     <use x="127.246094" xlink:href="#DejaVuSans-2d"/>
     <use x="163.330078" xlink:href="#DejaVuSans-44"/>
    </g>
   </g>
   <g id="text_15">
    <!-- 20-D -->
    <g transform="translate(398.553325 246.527265)scale(0.15 -0.15)">
     <use xlink:href="#DejaVuSans-32"/>
     <use x="63.623047" xlink:href="#DejaVuSans-30"/>
     <use x="127.246094" xlink:href="#DejaVuSans-2d"/>
     <use x="163.330078" xlink:href="#DejaVuSans-44"/>
    </g>
   </g>
   <g id="text_16">
    <!-- 10-D -->
    <g transform="translate(398.553325 195.939637)scale(0.15 -0.15)">
     <use xlink:href="#DejaVuSans-31"/>
     <use x="63.623047" xlink:href="#DejaVuSans-30"/>
     <use x="127.246094" xlink:href="#DejaVuSans-2d"/>
     <use x="163.330078" xlink:href="#DejaVuSans-44"/>
    </g>
   </g>
   <g id="text_17">
    <!-- 5-D -->
    <defs>
     <path d="M 10.796875 72.90625 
L 49.515625 72.90625 
L 49.515625 64.59375 
L 19.828125 64.59375 
L 19.828125 46.734375 
Q 21.96875 47.46875 24.109375 47.828125 
Q 26.265625 48.1875 28.421875 48.1875 
Q 40.625 48.1875 47.75 41.5 
Q 54.890625 34.8125 54.890625 23.390625 
Q 54.890625 11.625 47.5625 5.09375 
Q 40.234375 -1.421875 26.90625 -1.421875 
Q 22.3125 -1.421875 17.546875 -0.640625 
Q 12.796875 0.140625 7.71875 1.703125 
L 7.71875 11.625 
Q 12.109375 9.234375 16.796875 8.0625 
Q 21.484375 6.890625 26.703125 6.890625 
Q 35.15625 6.890625 40.078125 11.328125 
Q 45.015625 15.765625 45.015625 23.390625 
Q 45.015625 31 40.078125 35.4375 
Q 35.15625 39.890625 26.703125 39.890625 
Q 22.75 39.890625 18.8125 39.015625 
Q 14.890625 38.140625 10.796875 36.28125 
z
" id="DejaVuSans-35"/>
    </defs>
    <g transform="translate(398.553325 145.35201)scale(0.15 -0.15)">
     <use xlink:href="#DejaVuSans-35"/>
     <use x="63.623047" xlink:href="#DejaVuSans-2d"/>
     <use x="99.707031" xlink:href="#DejaVuSans-44"/>
    </g>
   </g>
   <g id="text_18">
    <!-- 3-D -->
    <defs>
     <path d="M 40.578125 39.3125 
Q 47.65625 37.796875 51.625 33 
Q 55.609375 28.21875 55.609375 21.1875 
Q 55.609375 10.40625 48.1875 4.484375 
Q 40.765625 -1.421875 27.09375 -1.421875 
Q 22.515625 -1.421875 17.65625 -0.515625 
Q 12.796875 0.390625 7.625 2.203125 
L 7.625 11.71875 
Q 11.71875 9.328125 16.59375 8.109375 
Q 21.484375 6.890625 26.8125 6.890625 
Q 36.078125 6.890625 40.9375 10.546875 
Q 45.796875 14.203125 45.796875 21.1875 
Q 45.796875 27.640625 41.28125 31.265625 
Q 36.765625 34.90625 28.71875 34.90625 
L 20.21875 34.90625 
L 20.21875 43.015625 
L 29.109375 43.015625 
Q 36.375 43.015625 40.234375 45.921875 
Q 44.09375 48.828125 44.09375 54.296875 
Q 44.09375 59.90625 40.109375 62.90625 
Q 36.140625 65.921875 28.71875 65.921875 
Q 24.65625 65.921875 20.015625 65.03125 
Q 15.375 64.15625 9.8125 62.3125 
L 9.8125 71.09375 
Q 15.4375 72.65625 20.34375 73.4375 
Q 25.25 74.21875 29.59375 74.21875 
Q 40.828125 74.21875 47.359375 69.109375 
Q 53.90625 64.015625 53.90625 55.328125 
Q 53.90625 49.265625 50.4375 45.09375 
Q 46.96875 40.921875 40.578125 39.3125 
" id="DejaVuSans-33"/>
    </defs>
    <g transform="translate(398.553325 94.764382)scale(0.15 -0.15)">
     <use xlink:href="#DejaVuSans-33"/>
     <use x="63.623047" xlink:href="#DejaVuSans-2d"/>
     <use x="99.707031" xlink:href="#DejaVuSans-44"/>
    </g>
   </g>
   <g id="text_19">
    <!-- 2-D -->
    <g transform="translate(398.553325 44.176754)scale(0.15 -0.15)">
     <use xlink:href="#DejaVuSans-32"/>
     <use x="63.623047" xlink:href="#DejaVuSans-2d"/>
     <use x="99.707031" xlink:href="#DejaVuSans-44"/>
    </g>
   </g>
   <g id="text_20">
    <!-- bbob - f16 -->
    <defs>
     <path d="M 48.6875 27.296875 
Q 48.6875 37.203125 44.609375 42.84375 
Q 40.53125 48.484375 33.40625 48.484375 
Q 26.265625 48.484375 22.1875 42.84375 
Q 18.109375 37.203125 18.109375 27.296875 
Q 18.109375 17.390625 22.1875 11.75 
Q 26.265625 6.109375 33.40625 6.109375 
Q 40.53125 6.109375 44.609375 11.75 
Q 48.6875 17.390625 48.6875 27.296875 
M 18.109375 46.390625 
Q 20.953125 51.265625 25.265625 53.625 
Q 29.59375 56 35.59375 56 
Q 45.5625 56 51.78125 48.09375 
Q 58.015625 40.1875 58.015625 27.296875 
Q 58.015625 14.40625 51.78125 6.484375 
Q 45.5625 -1.421875 35.59375 -1.421875 
Q 29.59375 -1.421875 25.265625 0.953125 
Q 20.953125 3.328125 18.109375 8.203125 
L 18.109375 0 
L 9.078125 0 
L 9.078125 75.984375 
L 18.109375 75.984375 
z
" id="DejaVuSans-62"/>
    </defs>
    <g transform="translate(76.684525 50.114612)scale(0.1666 -0.1666)">
     <use xlink:href="#DejaVuSans-62"/>
     <use x="63.476562" xlink:href="#DejaVuSans-62"/>
     <use x="126.953125" xlink:href="#DejaVuSans-6f"/>
     <use x="188.134766" xlink:href="#DejaVuSans-62"/>
     <use x="251.611328" xlink:href="#DejaVuSans-20"/>
     <use x="283.398438" xlink:href="#DejaVuSans-2d"/>
     <use x="319.482422" xlink:href="#DejaVuSans-20"/>
     <use x="351.269531" xlink:href="#DejaVuSans-66"/>
     <use x="386.474609" xlink:href="#DejaVuSans-31"/>
     <use x="450.097656" xlink:href="#DejaVuSans-36"/>
    </g>
    <!-- 51 targets in 100..1e-08 -->
    <g transform="translate(76.684525 68.770168)scale(0.1666 -0.1666)">
     <use xlink:href="#DejaVuSans-35"/>
     <use x="63.623047" xlink:href="#DejaVuSans-31"/>
     <use x="127.246094" xlink:href="#DejaVuSans-20"/>
     <use x="159.033203" xlink:href="#DejaVuSans-74"/>
     <use x="198.242188" xlink:href="#DejaVuSans-61"/>
     <use x="259.521484" xlink:href="#DejaVuSans-72"/>
     <use x="300.619141" xlink:href="#DejaVuSans-67"/>
     <use x="364.095703" xlink:href="#DejaVuSans-65"/>
     <use x="425.619141" xlink:href="#DejaVuSans-74"/>
     <use x="464.828125" xlink:href="#DejaVuSans-73"/>
     <use x="516.927734" xlink:href="#DejaVuSans-20"/>
     <use x="548.714844" xlink:href="#DejaVuSans-69"/>
     <use x="576.498047" xlink:href="#DejaVuSans-6e"/>
     <use x="639.876953" xlink:href="#DejaVuSans-20"/>
     <use x="671.664062" xlink:href="#DejaVuSans-31"/>
     <use x="735.287109" xlink:href="#DejaVuSans-30"/>
     <use x="798.910156" xlink:href="#DejaVuSans-30"/>
     <use x="862.533203" xlink:href="#DejaVuSans-2e"/>
     <use x="894.320312" xlink:href="#DejaVuSans-2e"/>
     <use x="926.107422" xlink:href="#DejaVuSans-31"/>
     <use x="989.730469" xlink:href="#DejaVuSans-65"/>
     <use x="1051.253906" xlink:href="#DejaVuSans-2d"/>
     <use x="1087.337891" xlink:href="#DejaVuSans-30"/>
     <use x="1150.960938" xlink:href="#DejaVuSans-38"/>
    </g>
    <!-- 15 instances -->
    <g transform="translate(76.684525 87.425723)scale(0.1666 -0.1666)">
     <use xlink:href="#DejaVuSans-31"/>
     <use x="63.623047" xlink:href="#DejaVuSans-35"/>
     <use x="127.246094" xlink:href="#DejaVuSans-20"/>
     <use x="159.033203" xlink:href="#DejaVuSans-69"/>
     <use x="186.816406" xlink:href="#DejaVuSans-6e"/>
     <use x="250.195312" xlink:href="#DejaVuSans-73"/>
     <use x="302.294922" xlink:href="#DejaVuSans-74"/>
     <use x="341.503906" xlink:href="#DejaVuSans-61"/>
     <use x="402.783203" xlink:href="#DejaVuSans-6e"/>
     <use x="466.162109" xlink:href="#DejaVuSans-63"/>
     <use x="521.142578" xlink:href="#DejaVuSans-65"/>
     <use x="582.666016" xlink:href="#DejaVuSans-73"/>
    </g>
   </g>
   <g id="text_21">
    <!-- v2.0.1 -->
    <g style="fill:#808080;" transform="translate(235.992075 293.504568)scale(0.1 -0.1)">
     <use xlink:href="#DejaVuSans-76"/>
     <use x="59.179688" xlink:href="#DejaVuSans-32"/>
     <use x="122.802734" xlink:href="#DejaVuSans-2e"/>
     <use x="154.589844" xlink:href="#DejaVuSans-30"/>
     <use x="218.212891" xlink:href="#DejaVuSans-2e"/>
     <use x="250" xlink:href="#DejaVuSans-31"/>
    </g>
   </g>
   <g id="text_22">
    <!-- 16 Weierstrass -->
    <defs>
     <path d="M 3.328125 72.90625 
L 13.28125 72.90625 
L 28.609375 11.28125 
L 43.890625 72.90625 
L 54.984375 72.90625 
L 70.3125 11.28125 
L 85.59375 72.90625 
L 95.609375 72.90625 
L 77.296875 0 
L 64.890625 0 
L 49.515625 63.28125 
L 33.984375 0 
L 21.578125 0 
z
" id="DejaVuSans-57"/>
    </defs>
    <g transform="translate(161.954575 26.133375)scale(0.24 -0.24)">
     <use xlink:href="#DejaVuSans-31"/>
     <use x="63.623047" xlink:href="#DejaVuSans-36"/>
     <use x="127.246094" xlink:href="#DejaVuSans-20"/>
     <use x="159.033203" xlink:href="#DejaVuSans-57"/>
     <use x="257.832031" xlink:href="#DejaVuSans-65"/>
     <use x="319.355469" xlink:href="#DejaVuSans-69"/>
     <use x="347.138672" xlink:href="#DejaVuSans-65"/>
     <use x="408.662109" xlink:href="#DejaVuSans-72"/>
     <use x="449.775391" xlink:href="#DejaVuSans-73"/>
     <use x="501.875" xlink:href="#DejaVuSans-74"/>
     <use x="541.083984" xlink:href="#DejaVuSans-72"/>
     <use x="582.197266" xlink:href="#DejaVuSans-61"/>
     <use x="643.476562" xlink:href="#DejaVuSans-73"/>
     <use x="695.576172" xlink:href="#DejaVuSans-73"/>
    </g>
   </g>
  </g>
 </g>
 <defs>
  <clipPath id="p9b6df216c5">
   <rect height="266.112" width="357.12" x="73.113325" y="32.133375"/>
  </clipPath>
 </defs>
</svg>
