<?xml version="1.0" encoding="utf-8" standalone="no"?>
<!DOCTYPE svg PUBLIC "-//W3C//DTD SVG 1.1//EN"
  "http://www.w3.org/Graphics/SVG/1.1/DTD/svg11.dtd">
<!-- Created with matplotlib (http://matplotlib.org/) -->
<svg height="353pt" version="1.1" viewBox="0 0 438 353" width="438pt" xmlns="http://www.w3.org/2000/svg" xmlns:xlink="http://www.w3.org/1999/xlink">
 <defs>
  <style type="text/css">
*{stroke-linecap:butt;stroke-linejoin:round;}
  </style>
 </defs>
 <g id="figure_1">
  <g id="patch_1">
   <path d="M 0 353.22225 
L 438.62 353.22225 
L 438.62 0 
L 0 0 
z
" style="fill:#ffffff;"/>
  </g>
  <g id="axes_1">
   <g id="patch_2">
    <path d="M 70.8 298.245375 
L 427.92 298.245375 
L 427.92 32.133375 
L 70.8 32.133375 
z
" style="fill:#ffffff;"/>
   </g>
   <g id="matplotlib.axis_1">
    <g id="xtick_1">
     <g id="line2d_1">
      <path clip-path="url(#pbaeeb9d68f)" d="M 70.8 298.245375 
L 70.8 32.133375 
" style="fill:none;stroke:#b0b0b0;stroke-linecap:square;stroke-width:0.8;"/>
     </g>
     <g id="line2d_2">
      <defs>
       <path d="M 0 0 
L 0 3.5 
" id="mcd901412b9" style="stroke:#000000;stroke-width:0.8;"/>
      </defs>
      <g>
       <use style="stroke:#000000;stroke-width:0.8;" x="70.8" xlink:href="#mcd901412b9" y="298.245375"/>
      </g>
     </g>
     <g id="text_1">
      <!-- 0 -->
      <defs>
       <path d="M 31.78125 66.40625 
Q 24.171875 66.40625 20.328125 58.90625 
Q 16.5 51.421875 16.5 36.375 
Q 16.5 21.390625 20.328125 13.890625 
Q 24.171875 6.390625 31.78125 6.390625 
Q 39.453125 6.390625 43.28125 13.890625 
Q 47.125 21.390625 47.125 36.375 
Q 47.125 51.421875 43.28125 58.90625 
Q 39.453125 66.40625 31.78125 66.40625 
M 31.78125 74.21875 
Q 44.046875 74.21875 50.515625 64.515625 
Q 56.984375 54.828125 56.984375 36.375 
Q 56.984375 17.96875 50.515625 8.265625 
Q 44.046875 -1.421875 31.78125 -1.421875 
Q 19.53125 -1.421875 13.0625 8.265625 
Q 6.59375 17.96875 6.59375 36.375 
Q 6.59375 54.828125 13.0625 64.515625 
Q 19.53125 74.21875 31.78125 74.21875 
" id="DejaVuSans-30"/>
      </defs>
      <g transform="translate(64.4375 320.44225)scale(0.2 -0.2)">
       <use xlink:href="#DejaVuSans-30"/>
      </g>
     </g>
    </g>
    <g id="xtick_2">
     <g id="line2d_3">
      <path clip-path="url(#pbaeeb9d68f)" d="M 153.085714 298.245375 
L 153.085714 32.133375 
" style="fill:none;stroke:#b0b0b0;stroke-linecap:square;stroke-width:0.8;"/>
     </g>
     <g id="line2d_4">
      <g>
       <use style="stroke:#000000;stroke-width:0.8;" x="153.085714" xlink:href="#mcd901412b9" y="298.245375"/>
      </g>
     </g>
     <g id="text_2">
      <!-- 2 -->
      <defs>
       <path d="M 19.1875 8.296875 
L 53.609375 8.296875 
L 53.609375 0 
L 7.328125 0 
L 7.328125 8.296875 
Q 12.9375 14.109375 22.625 23.890625 
Q 32.328125 33.6875 34.8125 36.53125 
Q 39.546875 41.84375 41.421875 45.53125 
Q 43.3125 49.21875 43.3125 52.78125 
Q 43.3125 58.59375 39.234375 62.25 
Q 35.15625 65.921875 28.609375 65.921875 
Q 23.96875 65.921875 18.8125 64.3125 
Q 13.671875 62.703125 7.8125 59.421875 
L 7.8125 69.390625 
Q 13.765625 71.78125 18.9375 73 
Q 24.125 74.21875 28.421875 74.21875 
Q 39.75 74.21875 46.484375 68.546875 
Q 53.21875 62.890625 53.21875 53.421875 
Q 53.21875 48.921875 51.53125 44.890625 
Q 49.859375 40.875 45.40625 35.40625 
Q 44.1875 33.984375 37.640625 27.21875 
Q 31.109375 20.453125 19.1875 8.296875 
" id="DejaVuSans-32"/>
      </defs>
      <g transform="translate(146.723214 320.44225)scale(0.2 -0.2)">
       <use xlink:href="#DejaVuSans-32"/>
      </g>
     </g>
    </g>
    <g id="xtick_3">
     <g id="line2d_5">
      <path clip-path="url(#pbaeeb9d68f)" d="M 235.371429 298.245375 
L 235.371429 32.133375 
" style="fill:none;stroke:#b0b0b0;stroke-linecap:square;stroke-width:0.8;"/>
     </g>
     <g id="line2d_6">
      <g>
       <use style="stroke:#000000;stroke-width:0.8;" x="235.371429" xlink:href="#mcd901412b9" y="298.245375"/>
      </g>
     </g>
     <g id="text_3">
      <!-- 4 -->
      <defs>
       <path d="M 37.796875 64.3125 
L 12.890625 25.390625 
L 37.796875 25.390625 
z
M 35.203125 72.90625 
L 47.609375 72.90625 
L 47.609375 25.390625 
L 58.015625 25.390625 
L 58.015625 17.1875 
L 47.609375 17.1875 
L 47.609375 0 
L 37.796875 0 
L 37.796875 17.1875 
L 4.890625 17.1875 
L 4.890625 26.703125 
z
" id="DejaVuSans-34"/>
      </defs>
      <g transform="translate(229.008929 320.44225)scale(0.2 -0.2)">
       <use xlink:href="#DejaVuSans-34"/>
      </g>
     </g>
    </g>
    <g id="xtick_4">
     <g id="line2d_7">
      <path clip-path="url(#pbaeeb9d68f)" d="M 317.657143 298.245375 
L 317.657143 32.133375 
" style="fill:none;stroke:#b0b0b0;stroke-linecap:square;stroke-width:0.8;"/>
     </g>
     <g id="line2d_8">
      <g>
       <use style="stroke:#000000;stroke-width:0.8;" x="317.657143" xlink:href="#mcd901412b9" y="298.245375"/>
      </g>
     </g>
     <g id="text_4">
      <!-- 6 -->
      <defs>
       <path d="M 33.015625 40.375 
Q 26.375 40.375 22.484375 35.828125 
Q 18.609375 31.296875 18.609375 23.390625 
Q 18.609375 15.53125 22.484375 10.953125 
Q 26.375 6.390625 33.015625 6.390625 
Q 39.65625 6.390625 43.53125 10.953125 
Q 47.40625 15.53125 47.40625 23.390625 
Q 47.40625 31.296875 43.53125 35.828125 
Q 39.65625 40.375 33.015625 40.375 
M 52.59375 71.296875 
L 52.59375 62.3125 
Q 48.875 64.0625 45.09375 64.984375 
Q 41.3125 65.921875 37.59375 65.921875 
Q 27.828125 65.921875 22.671875 59.328125 
Q 17.53125 52.734375 16.796875 39.40625 
Q 19.671875 43.65625 24.015625 45.921875 
Q 28.375 48.1875 33.59375 48.1875 
Q 44.578125 48.1875 50.953125 41.515625 
Q 57.328125 34.859375 57.328125 23.390625 
Q 57.328125 12.15625 50.6875 5.359375 
Q 44.046875 -1.421875 33.015625 -1.421875 
Q 20.359375 -1.421875 13.671875 8.265625 
Q 6.984375 17.96875 6.984375 36.375 
Q 6.984375 53.65625 15.1875 63.9375 
Q 23.390625 74.21875 37.203125 74.21875 
Q 40.921875 74.21875 44.703125 73.484375 
Q 48.484375 72.75 52.59375 71.296875 
" id="DejaVuSans-36"/>
      </defs>
      <g transform="translate(311.294643 320.44225)scale(0.2 -0.2)">
       <use xlink:href="#DejaVuSans-36"/>
      </g>
     </g>
    </g>
    <g id="xtick_5">
     <g id="line2d_9">
      <path clip-path="url(#pbaeeb9d68f)" d="M 399.942857 298.245375 
L 399.942857 32.133375 
" style="fill:none;stroke:#b0b0b0;stroke-linecap:square;stroke-width:0.8;"/>
     </g>
     <g id="line2d_10">
      <g>
       <use style="stroke:#000000;stroke-width:0.8;" x="399.942857" xlink:href="#mcd901412b9" y="298.245375"/>
      </g>
     </g>
     <g id="text_5">
      <!-- 8 -->
      <defs>
       <path d="M 31.78125 34.625 
Q 24.75 34.625 20.71875 30.859375 
Q 16.703125 27.09375 16.703125 20.515625 
Q 16.703125 13.921875 20.71875 10.15625 
Q 24.75 6.390625 31.78125 6.390625 
Q 38.8125 6.390625 42.859375 10.171875 
Q 46.921875 13.96875 46.921875 20.515625 
Q 46.921875 27.09375 42.890625 30.859375 
Q 38.875 34.625 31.78125 34.625 
M 21.921875 38.8125 
Q 15.578125 40.375 12.03125 44.71875 
Q 8.5 49.078125 8.5 55.328125 
Q 8.5 64.0625 14.71875 69.140625 
Q 20.953125 74.21875 31.78125 74.21875 
Q 42.671875 74.21875 48.875 69.140625 
Q 55.078125 64.0625 55.078125 55.328125 
Q 55.078125 49.078125 51.53125 44.71875 
Q 48 40.375 41.703125 38.8125 
Q 48.828125 37.15625 52.796875 32.3125 
Q 56.78125 27.484375 56.78125 20.515625 
Q 56.78125 9.90625 50.3125 4.234375 
Q 43.84375 -1.421875 31.78125 -1.421875 
Q 19.734375 -1.421875 13.25 4.234375 
Q 6.78125 9.90625 6.78125 20.515625 
Q 6.78125 27.484375 10.78125 32.3125 
Q 14.796875 37.15625 21.921875 38.8125 
M 18.3125 54.390625 
Q 18.3125 48.734375 21.84375 45.5625 
Q 25.390625 42.390625 31.78125 42.390625 
Q 38.140625 42.390625 41.71875 45.5625 
Q 45.3125 48.734375 45.3125 54.390625 
Q 45.3125 60.0625 41.71875 63.234375 
Q 38.140625 66.40625 31.78125 66.40625 
Q 25.390625 66.40625 21.84375 63.234375 
Q 18.3125 60.0625 18.3125 54.390625 
" id="DejaVuSans-38"/>
      </defs>
      <g transform="translate(393.580357 320.44225)scale(0.2 -0.2)">
       <use xlink:href="#DejaVuSans-38"/>
      </g>
     </g>
    </g>
    <g id="xtick_6">
     <g id="line2d_11">
      <defs>
       <path d="M 0 0 
L 0 2 
" id="mbf7f3decf8" style="stroke:#000000;stroke-width:0.6;"/>
      </defs>
      <g>
       <use style="stroke:#000000;stroke-width:0.6;" x="83.185234" xlink:href="#mbf7f3decf8" y="298.245375"/>
      </g>
     </g>
    </g>
    <g id="xtick_7">
     <g id="line2d_12">
      <g>
       <use style="stroke:#000000;stroke-width:0.6;" x="95.570468" xlink:href="#mbf7f3decf8" y="298.245375"/>
      </g>
     </g>
    </g>
    <g id="xtick_8">
     <g id="line2d_13">
      <g>
       <use style="stroke:#000000;stroke-width:0.6;" x="102.815366" xlink:href="#mbf7f3decf8" y="298.245375"/>
      </g>
     </g>
    </g>
    <g id="xtick_9">
     <g id="line2d_14">
      <g>
       <use style="stroke:#000000;stroke-width:0.6;" x="107.955702" xlink:href="#mbf7f3decf8" y="298.245375"/>
      </g>
     </g>
    </g>
    <g id="xtick_10">
     <g id="line2d_15">
      <g>
       <use style="stroke:#000000;stroke-width:0.6;" x="165.470948" xlink:href="#mbf7f3decf8" y="298.245375"/>
      </g>
     </g>
    </g>
    <g id="xtick_11">
     <g id="line2d_16">
      <g>
       <use style="stroke:#000000;stroke-width:0.6;" x="177.856183" xlink:href="#mbf7f3decf8" y="298.245375"/>
      </g>
     </g>
    </g>
    <g id="xtick_12">
     <g id="line2d_17">
      <g>
       <use style="stroke:#000000;stroke-width:0.6;" x="185.10108" xlink:href="#mbf7f3decf8" y="298.245375"/>
      </g>
     </g>
    </g>
    <g id="xtick_13">
     <g id="line2d_18">
      <g>
       <use style="stroke:#000000;stroke-width:0.6;" x="190.241417" xlink:href="#mbf7f3decf8" y="298.245375"/>
      </g>
     </g>
    </g>
    <g id="xtick_14">
     <g id="line2d_19">
      <g>
       <use style="stroke:#000000;stroke-width:0.6;" x="247.756663" xlink:href="#mbf7f3decf8" y="298.245375"/>
      </g>
     </g>
    </g>
    <g id="xtick_15">
     <g id="line2d_20">
      <g>
       <use style="stroke:#000000;stroke-width:0.6;" x="260.141897" xlink:href="#mbf7f3decf8" y="298.245375"/>
      </g>
     </g>
    </g>
    <g id="xtick_16">
     <g id="line2d_21">
      <g>
       <use style="stroke:#000000;stroke-width:0.6;" x="267.386794" xlink:href="#mbf7f3decf8" y="298.245375"/>
      </g>
     </g>
    </g>
    <g id="xtick_17">
     <g id="line2d_22">
      <g>
       <use style="stroke:#000000;stroke-width:0.6;" x="272.527131" xlink:href="#mbf7f3decf8" y="298.245375"/>
      </g>
     </g>
    </g>
    <g id="xtick_18">
     <g id="line2d_23">
      <g>
       <use style="stroke:#000000;stroke-width:0.6;" x="330.042377" xlink:href="#mbf7f3decf8" y="298.245375"/>
      </g>
     </g>
    </g>
    <g id="xtick_19">
     <g id="line2d_24">
      <g>
       <use style="stroke:#000000;stroke-width:0.6;" x="342.427611" xlink:href="#mbf7f3decf8" y="298.245375"/>
      </g>
     </g>
    </g>
    <g id="xtick_20">
     <g id="line2d_25">
      <g>
       <use style="stroke:#000000;stroke-width:0.6;" x="349.672509" xlink:href="#mbf7f3decf8" y="298.245375"/>
      </g>
     </g>
    </g>
    <g id="xtick_21">
     <g id="line2d_26">
      <g>
       <use style="stroke:#000000;stroke-width:0.6;" x="354.812845" xlink:href="#mbf7f3decf8" y="298.245375"/>
      </g>
     </g>
    </g>
    <g id="xtick_22">
     <g id="line2d_27">
      <g>
       <use style="stroke:#000000;stroke-width:0.6;" x="412.328091" xlink:href="#mbf7f3decf8" y="298.245375"/>
      </g>
     </g>
    </g>
    <g id="xtick_23">
     <g id="line2d_28">
      <g>
       <use style="stroke:#000000;stroke-width:0.6;" x="424.713325" xlink:href="#mbf7f3decf8" y="298.245375"/>
      </g>
     </g>
    </g>
    <g id="text_6">
     <!-- log10 of (# f-evals / dimension) -->
     <defs>
      <path d="M 9.421875 75.984375 
L 18.40625 75.984375 
L 18.40625 0 
L 9.421875 0 
z
" id="DejaVuSans-6c"/>
      <path d="M 30.609375 48.390625 
Q 23.390625 48.390625 19.1875 42.75 
Q 14.984375 37.109375 14.984375 27.296875 
Q 14.984375 17.484375 19.15625 11.84375 
Q 23.34375 6.203125 30.609375 6.203125 
Q 37.796875 6.203125 41.984375 11.859375 
Q 46.1875 17.53125 46.1875 27.296875 
Q 46.1875 37.015625 41.984375 42.703125 
Q 37.796875 48.390625 30.609375 48.390625 
M 30.609375 56 
Q 42.328125 56 49.015625 48.375 
Q 55.71875 40.765625 55.71875 27.296875 
Q 55.71875 13.875 49.015625 6.21875 
Q 42.328125 -1.421875 30.609375 -1.421875 
Q 18.84375 -1.421875 12.171875 6.21875 
Q 5.515625 13.875 5.515625 27.296875 
Q 5.515625 40.765625 12.171875 48.375 
Q 18.84375 56 30.609375 56 
" id="DejaVuSans-6f"/>
      <path d="M 45.40625 27.984375 
Q 45.40625 37.75 41.375 43.109375 
Q 37.359375 48.484375 30.078125 48.484375 
Q 22.859375 48.484375 18.828125 43.109375 
Q 14.796875 37.75 14.796875 27.984375 
Q 14.796875 18.265625 18.828125 12.890625 
Q 22.859375 7.515625 30.078125 7.515625 
Q 37.359375 7.515625 41.375 12.890625 
Q 45.40625 18.265625 45.40625 27.984375 
M 54.390625 6.78125 
Q 54.390625 -7.171875 48.1875 -13.984375 
Q 42 -20.796875 29.203125 -20.796875 
Q 24.46875 -20.796875 20.265625 -20.09375 
Q 16.0625 -19.390625 12.109375 -17.921875 
L 12.109375 -9.1875 
Q 16.0625 -11.328125 19.921875 -12.34375 
Q 23.78125 -13.375 27.78125 -13.375 
Q 36.625 -13.375 41.015625 -8.765625 
Q 45.40625 -4.15625 45.40625 5.171875 
L 45.40625 9.625 
Q 42.625 4.78125 38.28125 2.390625 
Q 33.9375 0 27.875 0 
Q 17.828125 0 11.671875 7.65625 
Q 5.515625 15.328125 5.515625 27.984375 
Q 5.515625 40.671875 11.671875 48.328125 
Q 17.828125 56 27.875 56 
Q 33.9375 56 38.28125 53.609375 
Q 42.625 51.21875 45.40625 46.390625 
L 45.40625 54.6875 
L 54.390625 54.6875 
z
" id="DejaVuSans-67"/>
      <path d="M 12.40625 8.296875 
L 28.515625 8.296875 
L 28.515625 63.921875 
L 10.984375 60.40625 
L 10.984375 69.390625 
L 28.421875 72.90625 
L 38.28125 72.90625 
L 38.28125 8.296875 
L 54.390625 8.296875 
L 54.390625 0 
L 12.40625 0 
z
" id="DejaVuSans-31"/>
      <path id="DejaVuSans-20"/>
      <path d="M 37.109375 75.984375 
L 37.109375 68.5 
L 28.515625 68.5 
Q 23.6875 68.5 21.796875 66.546875 
Q 19.921875 64.59375 19.921875 59.515625 
L 19.921875 54.6875 
L 34.71875 54.6875 
L 34.71875 47.703125 
L 19.921875 47.703125 
L 19.921875 0 
L 10.890625 0 
L 10.890625 47.703125 
L 2.296875 47.703125 
L 2.296875 54.6875 
L 10.890625 54.6875 
L 10.890625 58.5 
Q 10.890625 67.625 15.140625 71.796875 
Q 19.390625 75.984375 28.609375 75.984375 
z
" id="DejaVuSans-66"/>
      <path d="M 31 75.875 
Q 24.46875 64.65625 21.28125 53.65625 
Q 18.109375 42.671875 18.109375 31.390625 
Q 18.109375 20.125 21.3125 9.0625 
Q 24.515625 -2 31 -13.1875 
L 23.1875 -13.1875 
Q 15.875 -1.703125 12.234375 9.375 
Q 8.59375 20.453125 8.59375 31.390625 
Q 8.59375 42.28125 12.203125 53.3125 
Q 15.828125 64.359375 23.1875 75.875 
z
" id="DejaVuSans-28"/>
      <path d="M 51.125 44 
L 36.921875 44 
L 32.8125 27.6875 
L 47.125 27.6875 
z
M 43.796875 71.78125 
L 38.71875 51.515625 
L 52.984375 51.515625 
L 58.109375 71.78125 
L 65.921875 71.78125 
L 60.890625 51.515625 
L 76.125 51.515625 
L 76.125 44 
L 58.984375 44 
L 54.984375 27.6875 
L 70.515625 27.6875 
L 70.515625 20.21875 
L 53.078125 20.21875 
L 48 0 
L 40.1875 0 
L 45.21875 20.21875 
L 30.90625 20.21875 
L 25.875 0 
L 18.015625 0 
L 23.09375 20.21875 
L 7.71875 20.21875 
L 7.71875 27.6875 
L 24.90625 27.6875 
L 29 44 
L 13.28125 44 
L 13.28125 51.515625 
L 30.90625 51.515625 
L 35.890625 71.78125 
z
" id="DejaVuSans-23"/>
      <path d="M 4.890625 31.390625 
L 31.203125 31.390625 
L 31.203125 23.390625 
L 4.890625 23.390625 
z
" id="DejaVuSans-2d"/>
      <path d="M 56.203125 29.59375 
L 56.203125 25.203125 
L 14.890625 25.203125 
Q 15.484375 15.921875 20.484375 11.0625 
Q 25.484375 6.203125 34.421875 6.203125 
Q 39.59375 6.203125 44.453125 7.46875 
Q 49.3125 8.734375 54.109375 11.28125 
L 54.109375 2.78125 
Q 49.265625 0.734375 44.1875 -0.34375 
Q 39.109375 -1.421875 33.890625 -1.421875 
Q 20.796875 -1.421875 13.15625 6.1875 
Q 5.515625 13.8125 5.515625 26.8125 
Q 5.515625 40.234375 12.765625 48.109375 
Q 20.015625 56 32.328125 56 
Q 43.359375 56 49.78125 48.890625 
Q 56.203125 41.796875 56.203125 29.59375 
M 47.21875 32.234375 
Q 47.125 39.59375 43.09375 43.984375 
Q 39.0625 48.390625 32.421875 48.390625 
Q 24.90625 48.390625 20.390625 44.140625 
Q 15.875 39.890625 15.1875 32.171875 
z
" id="DejaVuSans-65"/>
      <path d="M 2.984375 54.6875 
L 12.5 54.6875 
L 29.59375 8.796875 
L 46.6875 54.6875 
L 56.203125 54.6875 
L 35.6875 0 
L 23.484375 0 
z
" id="DejaVuSans-76"/>
      <path d="M 34.28125 27.484375 
Q 23.390625 27.484375 19.1875 25 
Q 14.984375 22.515625 14.984375 16.5 
Q 14.984375 11.71875 18.140625 8.90625 
Q 21.296875 6.109375 26.703125 6.109375 
Q 34.1875 6.109375 38.703125 11.40625 
Q 43.21875 16.703125 43.21875 25.484375 
L 43.21875 27.484375 
z
M 52.203125 31.203125 
L 52.203125 0 
L 43.21875 0 
L 43.21875 8.296875 
Q 40.140625 3.328125 35.546875 0.953125 
Q 30.953125 -1.421875 24.3125 -1.421875 
Q 15.921875 -1.421875 10.953125 3.296875 
Q 6 8.015625 6 15.921875 
Q 6 25.140625 12.171875 29.828125 
Q 18.359375 34.515625 30.609375 34.515625 
L 43.21875 34.515625 
L 43.21875 35.40625 
Q 43.21875 41.609375 39.140625 45 
Q 35.0625 48.390625 27.6875 48.390625 
Q 23 48.390625 18.546875 47.265625 
Q 14.109375 46.140625 10.015625 43.890625 
L 10.015625 52.203125 
Q 14.9375 54.109375 19.578125 55.046875 
Q 24.21875 56 28.609375 56 
Q 40.484375 56 46.34375 49.84375 
Q 52.203125 43.703125 52.203125 31.203125 
" id="DejaVuSans-61"/>
      <path d="M 44.28125 53.078125 
L 44.28125 44.578125 
Q 40.484375 46.53125 36.375 47.5 
Q 32.28125 48.484375 27.875 48.484375 
Q 21.1875 48.484375 17.84375 46.4375 
Q 14.5 44.390625 14.5 40.28125 
Q 14.5 37.15625 16.890625 35.375 
Q 19.28125 33.59375 26.515625 31.984375 
L 29.59375 31.296875 
Q 39.15625 29.25 43.1875 25.515625 
Q 47.21875 21.78125 47.21875 15.09375 
Q 47.21875 7.46875 41.1875 3.015625 
Q 35.15625 -1.421875 24.609375 -1.421875 
Q 20.21875 -1.421875 15.453125 -0.5625 
Q 10.6875 0.296875 5.421875 2 
L 5.421875 11.28125 
Q 10.40625 8.6875 15.234375 7.390625 
Q 20.0625 6.109375 24.8125 6.109375 
Q 31.15625 6.109375 34.5625 8.28125 
Q 37.984375 10.453125 37.984375 14.40625 
Q 37.984375 18.0625 35.515625 20.015625 
Q 33.0625 21.96875 24.703125 23.78125 
L 21.578125 24.515625 
Q 13.234375 26.265625 9.515625 29.90625 
Q 5.8125 33.546875 5.8125 39.890625 
Q 5.8125 47.609375 11.28125 51.796875 
Q 16.75 56 26.8125 56 
Q 31.78125 56 36.171875 55.265625 
Q 40.578125 54.546875 44.28125 53.078125 
" id="DejaVuSans-73"/>
      <path d="M 25.390625 72.90625 
L 33.6875 72.90625 
L 8.296875 -9.28125 
L 0 -9.28125 
z
" id="DejaVuSans-2f"/>
      <path d="M 45.40625 46.390625 
L 45.40625 75.984375 
L 54.390625 75.984375 
L 54.390625 0 
L 45.40625 0 
L 45.40625 8.203125 
Q 42.578125 3.328125 38.25 0.953125 
Q 33.9375 -1.421875 27.875 -1.421875 
Q 17.96875 -1.421875 11.734375 6.484375 
Q 5.515625 14.40625 5.515625 27.296875 
Q 5.515625 40.1875 11.734375 48.09375 
Q 17.96875 56 27.875 56 
Q 33.9375 56 38.25 53.625 
Q 42.578125 51.265625 45.40625 46.390625 
M 14.796875 27.296875 
Q 14.796875 17.390625 18.875 11.75 
Q 22.953125 6.109375 30.078125 6.109375 
Q 37.203125 6.109375 41.296875 11.75 
Q 45.40625 17.390625 45.40625 27.296875 
Q 45.40625 37.203125 41.296875 42.84375 
Q 37.203125 48.484375 30.078125 48.484375 
Q 22.953125 48.484375 18.875 42.84375 
Q 14.796875 37.203125 14.796875 27.296875 
" id="DejaVuSans-64"/>
      <path d="M 9.421875 54.6875 
L 18.40625 54.6875 
L 18.40625 0 
L 9.421875 0 
z
M 9.421875 75.984375 
L 18.40625 75.984375 
L 18.40625 64.59375 
L 9.421875 64.59375 
z
" id="DejaVuSans-69"/>
      <path d="M 52 44.1875 
Q 55.375 50.25 60.0625 53.125 
Q 64.75 56 71.09375 56 
Q 79.640625 56 84.28125 50.015625 
Q 88.921875 44.046875 88.921875 33.015625 
L 88.921875 0 
L 79.890625 0 
L 79.890625 32.71875 
Q 79.890625 40.578125 77.09375 44.375 
Q 74.3125 48.1875 68.609375 48.1875 
Q 61.625 48.1875 57.5625 43.546875 
Q 53.515625 38.921875 53.515625 30.90625 
L 53.515625 0 
L 44.484375 0 
L 44.484375 32.71875 
Q 44.484375 40.625 41.703125 44.40625 
Q 38.921875 48.1875 33.109375 48.1875 
Q 26.21875 48.1875 22.15625 43.53125 
Q 18.109375 38.875 18.109375 30.90625 
L 18.109375 0 
L 9.078125 0 
L 9.078125 54.6875 
L 18.109375 54.6875 
L 18.109375 46.1875 
Q 21.1875 51.21875 25.484375 53.609375 
Q 29.78125 56 35.6875 56 
Q 41.65625 56 45.828125 52.96875 
Q 50 49.953125 52 44.1875 
" id="DejaVuSans-6d"/>
      <path d="M 54.890625 33.015625 
L 54.890625 0 
L 45.90625 0 
L 45.90625 32.71875 
Q 45.90625 40.484375 42.875 44.328125 
Q 39.84375 48.1875 33.796875 48.1875 
Q 26.515625 48.1875 22.3125 43.546875 
Q 18.109375 38.921875 18.109375 30.90625 
L 18.109375 0 
L 9.078125 0 
L 9.078125 54.6875 
L 18.109375 54.6875 
L 18.109375 46.1875 
Q 21.34375 51.125 25.703125 53.5625 
Q 30.078125 56 35.796875 56 
Q 45.21875 56 50.046875 50.171875 
Q 54.890625 44.34375 54.890625 33.015625 
" id="DejaVuSans-6e"/>
      <path d="M 8.015625 75.875 
L 15.828125 75.875 
Q 23.140625 64.359375 26.78125 53.3125 
Q 30.421875 42.28125 30.421875 31.390625 
Q 30.421875 20.453125 26.78125 9.375 
Q 23.140625 -1.703125 15.828125 -13.1875 
L 8.015625 -13.1875 
Q 14.5 -2 17.703125 9.0625 
Q 20.90625 20.125 20.90625 31.390625 
Q 20.90625 42.671875 17.703125 53.65625 
Q 14.5 64.65625 8.015625 75.875 
" id="DejaVuSans-29"/>
     </defs>
     <g transform="translate(107.015156 342.278812)scale(0.18 -0.18)">
      <use xlink:href="#DejaVuSans-6c"/>
      <use x="27.783203" xlink:href="#DejaVuSans-6f"/>
      <use x="88.964844" xlink:href="#DejaVuSans-67"/>
      <use x="152.441406" xlink:href="#DejaVuSans-31"/>
      <use x="216.064453" xlink:href="#DejaVuSans-30"/>
      <use x="279.6875" xlink:href="#DejaVuSans-20"/>
      <use x="311.474609" xlink:href="#DejaVuSans-6f"/>
      <use x="372.65625" xlink:href="#DejaVuSans-66"/>
      <use x="407.861328" xlink:href="#DejaVuSans-20"/>
      <use x="439.648438" xlink:href="#DejaVuSans-28"/>
      <use x="478.662109" xlink:href="#DejaVuSans-23"/>
      <use x="562.451172" xlink:href="#DejaVuSans-20"/>
      <use x="594.238281" xlink:href="#DejaVuSans-66"/>
      <use x="629.365234" xlink:href="#DejaVuSans-2d"/>
      <use x="665.449219" xlink:href="#DejaVuSans-65"/>
      <use x="726.972656" xlink:href="#DejaVuSans-76"/>
      <use x="786.152344" xlink:href="#DejaVuSans-61"/>
      <use x="847.431641" xlink:href="#DejaVuSans-6c"/>
      <use x="875.214844" xlink:href="#DejaVuSans-73"/>
      <use x="927.314453" xlink:href="#DejaVuSans-20"/>
      <use x="959.101562" xlink:href="#DejaVuSans-2f"/>
      <use x="992.792969" xlink:href="#DejaVuSans-20"/>
      <use x="1024.580078" xlink:href="#DejaVuSans-64"/>
      <use x="1088.056641" xlink:href="#DejaVuSans-69"/>
      <use x="1115.839844" xlink:href="#DejaVuSans-6d"/>
      <use x="1213.251953" xlink:href="#DejaVuSans-65"/>
      <use x="1274.775391" xlink:href="#DejaVuSans-6e"/>
      <use x="1338.154297" xlink:href="#DejaVuSans-73"/>
      <use x="1390.253906" xlink:href="#DejaVuSans-69"/>
      <use x="1418.037109" xlink:href="#DejaVuSans-6f"/>
      <use x="1479.21875" xlink:href="#DejaVuSans-6e"/>
      <use x="1542.597656" xlink:href="#DejaVuSans-29"/>
     </g>
    </g>
   </g>
   <g id="matplotlib.axis_2">
    <g id="ytick_1">
     <g id="line2d_29">
      <path clip-path="url(#pbaeeb9d68f)" d="M 70.8 298.245375 
L 427.92 298.245375 
" style="fill:none;stroke:#b0b0b0;stroke-linecap:square;stroke-width:0.8;"/>
     </g>
     <g id="line2d_30">
      <defs>
       <path d="M 0 0 
L -3.5 0 
" id="me12ddf4236" style="stroke:#000000;stroke-width:0.8;"/>
      </defs>
      <g>
       <use style="stroke:#000000;stroke-width:0.8;" x="70.8" xlink:href="#me12ddf4236" y="298.245375"/>
      </g>
     </g>
     <g id="text_7">
      <!-- 0.0 -->
      <defs>
       <path d="M 10.6875 12.40625 
L 21 12.40625 
L 21 0 
L 10.6875 0 
z
" id="DejaVuSans-2e"/>
      </defs>
      <g transform="translate(31.99375 305.843812)scale(0.2 -0.2)">
       <use xlink:href="#DejaVuSans-30"/>
       <use x="63.623047" xlink:href="#DejaVuSans-2e"/>
       <use x="95.410156" xlink:href="#DejaVuSans-30"/>
      </g>
     </g>
    </g>
    <g id="ytick_2">
     <g id="line2d_31">
      <path clip-path="url(#pbaeeb9d68f)" d="M 70.8 245.549929 
L 427.92 245.549929 
" style="fill:none;stroke:#b0b0b0;stroke-linecap:square;stroke-width:0.8;"/>
     </g>
     <g id="line2d_32">
      <g>
       <use style="stroke:#000000;stroke-width:0.8;" x="70.8" xlink:href="#me12ddf4236" y="245.549929"/>
      </g>
     </g>
     <g id="text_8">
      <!-- 0.2 -->
      <g transform="translate(31.99375 253.148367)scale(0.2 -0.2)">
       <use xlink:href="#DejaVuSans-30"/>
       <use x="63.623047" xlink:href="#DejaVuSans-2e"/>
       <use x="95.410156" xlink:href="#DejaVuSans-32"/>
      </g>
     </g>
    </g>
    <g id="ytick_3">
     <g id="line2d_33">
      <path clip-path="url(#pbaeeb9d68f)" d="M 70.8 192.854484 
L 427.92 192.854484 
" style="fill:none;stroke:#b0b0b0;stroke-linecap:square;stroke-width:0.8;"/>
     </g>
     <g id="line2d_34">
      <g>
       <use style="stroke:#000000;stroke-width:0.8;" x="70.8" xlink:href="#me12ddf4236" y="192.854484"/>
      </g>
     </g>
     <g id="text_9">
      <!-- 0.4 -->
      <g transform="translate(31.99375 200.452921)scale(0.2 -0.2)">
       <use xlink:href="#DejaVuSans-30"/>
       <use x="63.623047" xlink:href="#DejaVuSans-2e"/>
       <use x="95.410156" xlink:href="#DejaVuSans-34"/>
      </g>
     </g>
    </g>
    <g id="ytick_4">
     <g id="line2d_35">
      <path clip-path="url(#pbaeeb9d68f)" d="M 70.8 140.159038 
L 427.92 140.159038 
" style="fill:none;stroke:#b0b0b0;stroke-linecap:square;stroke-width:0.8;"/>
     </g>
     <g id="line2d_36">
      <g>
       <use style="stroke:#000000;stroke-width:0.8;" x="70.8" xlink:href="#me12ddf4236" y="140.159038"/>
      </g>
     </g>
     <g id="text_10">
      <!-- 0.6 -->
      <g transform="translate(31.99375 147.757476)scale(0.2 -0.2)">
       <use xlink:href="#DejaVuSans-30"/>
       <use x="63.623047" xlink:href="#DejaVuSans-2e"/>
       <use x="95.410156" xlink:href="#DejaVuSans-36"/>
      </g>
     </g>
    </g>
    <g id="ytick_5">
     <g id="line2d_37">
      <path clip-path="url(#pbaeeb9d68f)" d="M 70.8 87.463593 
L 427.92 87.463593 
" style="fill:none;stroke:#b0b0b0;stroke-linecap:square;stroke-width:0.8;"/>
     </g>
     <g id="line2d_38">
      <g>
       <use style="stroke:#000000;stroke-width:0.8;" x="70.8" xlink:href="#me12ddf4236" y="87.463593"/>
      </g>
     </g>
     <g id="text_11">
      <!-- 0.8 -->
      <g transform="translate(31.99375 95.06203)scale(0.2 -0.2)">
       <use xlink:href="#DejaVuSans-30"/>
       <use x="63.623047" xlink:href="#DejaVuSans-2e"/>
       <use x="95.410156" xlink:href="#DejaVuSans-38"/>
      </g>
     </g>
    </g>
    <g id="ytick_6">
     <g id="line2d_39">
      <path clip-path="url(#pbaeeb9d68f)" d="M 70.8 34.768147 
L 427.92 34.768147 
" style="fill:none;stroke:#b0b0b0;stroke-linecap:square;stroke-width:0.8;"/>
     </g>
     <g id="line2d_40">
      <g>
       <use style="stroke:#000000;stroke-width:0.8;" x="70.8" xlink:href="#me12ddf4236" y="34.768147"/>
      </g>
     </g>
     <g id="text_12">
      <!-- 1.0 -->
      <g transform="translate(31.99375 42.366585)scale(0.2 -0.2)">
       <use xlink:href="#DejaVuSans-31"/>
       <use x="63.623047" xlink:href="#DejaVuSans-2e"/>
       <use x="95.410156" xlink:href="#DejaVuSans-30"/>
      </g>
     </g>
    </g>
    <g id="text_13">
     <!-- Proportion of function+target pairs -->
     <defs>
      <path d="M 19.671875 64.796875 
L 19.671875 37.40625 
L 32.078125 37.40625 
Q 38.96875 37.40625 42.71875 40.96875 
Q 46.484375 44.53125 46.484375 51.125 
Q 46.484375 57.671875 42.71875 61.234375 
Q 38.96875 64.796875 32.078125 64.796875 
z
M 9.8125 72.90625 
L 32.078125 72.90625 
Q 44.34375 72.90625 50.609375 67.359375 
Q 56.890625 61.8125 56.890625 51.125 
Q 56.890625 40.328125 50.609375 34.8125 
Q 44.34375 29.296875 32.078125 29.296875 
L 19.671875 29.296875 
L 19.671875 0 
L 9.8125 0 
z
" id="DejaVuSans-50"/>
      <path d="M 41.109375 46.296875 
Q 39.59375 47.171875 37.8125 47.578125 
Q 36.03125 48 33.890625 48 
Q 26.265625 48 22.1875 43.046875 
Q 18.109375 38.09375 18.109375 28.8125 
L 18.109375 0 
L 9.078125 0 
L 9.078125 54.6875 
L 18.109375 54.6875 
L 18.109375 46.1875 
Q 20.953125 51.171875 25.484375 53.578125 
Q 30.03125 56 36.53125 56 
Q 37.453125 56 38.578125 55.875 
Q 39.703125 55.765625 41.0625 55.515625 
z
" id="DejaVuSans-72"/>
      <path d="M 18.109375 8.203125 
L 18.109375 -20.796875 
L 9.078125 -20.796875 
L 9.078125 54.6875 
L 18.109375 54.6875 
L 18.109375 46.390625 
Q 20.953125 51.265625 25.265625 53.625 
Q 29.59375 56 35.59375 56 
Q 45.5625 56 51.78125 48.09375 
Q 58.015625 40.1875 58.015625 27.296875 
Q 58.015625 14.40625 51.78125 6.484375 
Q 45.5625 -1.421875 35.59375 -1.421875 
Q 29.59375 -1.421875 25.265625 0.953125 
Q 20.953125 3.328125 18.109375 8.203125 
M 48.6875 27.296875 
Q 48.6875 37.203125 44.609375 42.84375 
Q 40.53125 48.484375 33.40625 48.484375 
Q 26.265625 48.484375 22.1875 42.84375 
Q 18.109375 37.203125 18.109375 27.296875 
Q 18.109375 17.390625 22.1875 11.75 
Q 26.265625 6.109375 33.40625 6.109375 
Q 40.53125 6.109375 44.609375 11.75 
Q 48.6875 17.390625 48.6875 27.296875 
" id="DejaVuSans-70"/>
      <path d="M 18.3125 70.21875 
L 18.3125 54.6875 
L 36.8125 54.6875 
L 36.8125 47.703125 
L 18.3125 47.703125 
L 18.3125 18.015625 
Q 18.3125 11.328125 20.140625 9.421875 
Q 21.96875 7.515625 27.59375 7.515625 
L 36.8125 7.515625 
L 36.8125 0 
L 27.59375 0 
Q 17.1875 0 13.234375 3.875 
Q 9.28125 7.765625 9.28125 18.015625 
L 9.28125 47.703125 
L 2.6875 47.703125 
L 2.6875 54.6875 
L 9.28125 54.6875 
L 9.28125 70.21875 
z
" id="DejaVuSans-74"/>
      <path d="M 8.5 21.578125 
L 8.5 54.6875 
L 17.484375 54.6875 
L 17.484375 21.921875 
Q 17.484375 14.15625 20.5 10.265625 
Q 23.53125 6.390625 29.59375 6.390625 
Q 36.859375 6.390625 41.078125 11.03125 
Q 45.3125 15.671875 45.3125 23.6875 
L 45.3125 54.6875 
L 54.296875 54.6875 
L 54.296875 0 
L 45.3125 0 
L 45.3125 8.40625 
Q 42.046875 3.421875 37.71875 1 
Q 33.40625 -1.421875 27.6875 -1.421875 
Q 18.265625 -1.421875 13.375 4.4375 
Q 8.5 10.296875 8.5 21.578125 
M 31.109375 56 
z
" id="DejaVuSans-75"/>
      <path d="M 48.78125 52.59375 
L 48.78125 44.1875 
Q 44.96875 46.296875 41.140625 47.34375 
Q 37.3125 48.390625 33.40625 48.390625 
Q 24.65625 48.390625 19.8125 42.84375 
Q 14.984375 37.3125 14.984375 27.296875 
Q 14.984375 17.28125 19.8125 11.734375 
Q 24.65625 6.203125 33.40625 6.203125 
Q 37.3125 6.203125 41.140625 7.25 
Q 44.96875 8.296875 48.78125 10.40625 
L 48.78125 2.09375 
Q 45.015625 0.34375 40.984375 -0.53125 
Q 36.96875 -1.421875 32.421875 -1.421875 
Q 20.0625 -1.421875 12.78125 6.34375 
Q 5.515625 14.109375 5.515625 27.296875 
Q 5.515625 40.671875 12.859375 48.328125 
Q 20.21875 56 33.015625 56 
Q 37.15625 56 41.109375 55.140625 
Q 45.0625 54.296875 48.78125 52.59375 
" id="DejaVuSans-63"/>
      <path d="M 46 62.703125 
L 46 35.5 
L 73.1875 35.5 
L 73.1875 27.203125 
L 46 27.203125 
L 46 0 
L 37.796875 0 
L 37.796875 27.203125 
L 10.59375 27.203125 
L 10.59375 35.5 
L 37.796875 35.5 
L 37.796875 62.703125 
z
" id="DejaVuSans-2b"/>
     </defs>
     <g transform="translate(24.250312 323.17875)rotate(-90)scale(0.18 -0.18)">
      <use xlink:href="#DejaVuSans-50"/>
      <use x="60.287109" xlink:href="#DejaVuSans-72"/>
      <use x="101.369141" xlink:href="#DejaVuSans-6f"/>
      <use x="162.550781" xlink:href="#DejaVuSans-70"/>
      <use x="226.027344" xlink:href="#DejaVuSans-6f"/>
      <use x="287.208984" xlink:href="#DejaVuSans-72"/>
      <use x="328.322266" xlink:href="#DejaVuSans-74"/>
      <use x="367.53125" xlink:href="#DejaVuSans-69"/>
      <use x="395.314453" xlink:href="#DejaVuSans-6f"/>
      <use x="456.496094" xlink:href="#DejaVuSans-6e"/>
      <use x="519.875" xlink:href="#DejaVuSans-20"/>
      <use x="551.662109" xlink:href="#DejaVuSans-6f"/>
      <use x="612.84375" xlink:href="#DejaVuSans-66"/>
      <use x="648.048828" xlink:href="#DejaVuSans-20"/>
      <use x="679.835938" xlink:href="#DejaVuSans-66"/>
      <use x="715.041016" xlink:href="#DejaVuSans-75"/>
      <use x="778.419922" xlink:href="#DejaVuSans-6e"/>
      <use x="841.798828" xlink:href="#DejaVuSans-63"/>
      <use x="896.779297" xlink:href="#DejaVuSans-74"/>
      <use x="935.988281" xlink:href="#DejaVuSans-69"/>
      <use x="963.771484" xlink:href="#DejaVuSans-6f"/>
      <use x="1024.953125" xlink:href="#DejaVuSans-6e"/>
      <use x="1088.332031" xlink:href="#DejaVuSans-2b"/>
      <use x="1172.121094" xlink:href="#DejaVuSans-74"/>
      <use x="1211.330078" xlink:href="#DejaVuSans-61"/>
      <use x="1272.609375" xlink:href="#DejaVuSans-72"/>
      <use x="1313.707031" xlink:href="#DejaVuSans-67"/>
      <use x="1377.183594" xlink:href="#DejaVuSans-65"/>
      <use x="1438.707031" xlink:href="#DejaVuSans-74"/>
      <use x="1477.916016" xlink:href="#DejaVuSans-20"/>
      <use x="1509.703125" xlink:href="#DejaVuSans-70"/>
      <use x="1573.179688" xlink:href="#DejaVuSans-61"/>
      <use x="1634.458984" xlink:href="#DejaVuSans-69"/>
      <use x="1662.242188" xlink:href="#DejaVuSans-72"/>
      <use x="1703.355469" xlink:href="#DejaVuSans-73"/>
     </g>
    </g>
   </g>
   <g id="line2d_41">
    <defs>
     <path d="M 0 1.5 
C 0.397805 1.5 0.77937 1.341951 1.06066 1.06066 
C 1.341951 0.77937 1.5 0.397805 1.5 0 
C 1.5 -0.397805 1.341951 -0.77937 1.06066 -1.06066 
C 0.77937 -1.341951 0.397805 -1.5 0 -1.5 
C -0.397805 -1.5 -0.77937 -1.341951 -1.06066 -1.06066 
C -1.341951 -0.77937 -1.5 -0.397805 -1.5 0 
C -1.5 0.397805 -1.341951 0.77937 -1.06066 1.06066 
C -0.77937 1.341951 -0.397805 1.5 0 1.5 
z
" id="mf930e829b9" style="stroke:#000080;"/>
    </defs>
    <g>
     <use style="fill:#000080;stroke:#000080;" x="239.41567" xlink:href="#mf930e829b9" y="34.768147"/>
     <use style="fill:#000080;stroke:#000080;" x="239.41567" xlink:href="#mf930e829b9" y="34.768147"/>
    </g>
   </g>
   <g id="line2d_42">
    <path d="M 29.657143 298.245375 
L 29.657143 277.580494 
L 136.713325 277.580494 
L 136.713325 267.764676 
L 143.958223 267.764676 
L 143.958223 262.598456 
L 149.098559 262.598456 
L 149.098559 259.498724 
L 153.085714 259.498724 
L 153.085714 252.266016 
L 156.343457 252.266016 
L 156.343457 249.166284 
L 159.097839 249.166284 
L 159.097839 247.616418 
L 161.483794 247.616418 
L 161.483794 244.000063 
L 163.588354 244.000063 
L 163.588354 242.450197 
L 165.470948 242.450197 
L 165.470948 239.350465 
L 167.173962 239.350465 
L 167.173962 237.800599 
L 168.728691 237.800599 
L 168.728691 235.217489 
L 170.158903 235.217489 
L 170.158903 230.051269 
L 171.483073 230.051269 
L 171.483073 228.501403 
L 172.715846 228.501403 
L 172.715846 224.368427 
L 173.869028 224.368427 
L 173.869028 222.818561 
L 174.952275 222.818561 
L 174.952275 220.235451 
L 175.973589 220.235451 
L 175.973589 217.652341 
L 176.939668 217.652341 
L 176.939668 215.069231 
L 177.856183 215.069231 
L 177.856183 212.48612 
L 178.727971 212.48612 
L 178.727971 209.90301 
L 179.559196 209.90301 
L 179.559196 209.386388 
L 180.353465 209.386388 
L 180.353465 207.836522 
L 181.113925 207.836522 
L 181.113925 204.220168 
L 181.843337 204.220168 
L 181.843337 202.15368 
L 182.544138 202.15368 
L 182.544138 201.637058 
L 183.218486 201.637058 
L 183.218486 200.603814 
L 183.868307 200.603814 
L 183.868307 198.020704 
L 184.495323 198.020704 
L 184.495323 196.98746 
L 185.10108 196.98746 
L 185.10108 194.40435 
L 185.686972 194.40435 
L 185.686972 191.82124 
L 186.254262 191.82124 
L 186.254262 188.721508 
L 186.804093 188.721508 
L 186.804093 188.204886 
L 187.33751 188.204886 
L 187.33751 186.65502 
L 187.855462 186.65502 
L 187.855462 185.105154 
L 189.324902 185.105154 
L 189.324902 184.588532 
L 189.789035 184.588532 
L 189.789035 184.07191 
L 191.113205 184.07191 
L 191.113205 183.555288 
L 191.533651 183.555288 
L 191.533651 183.038666 
L 192.345978 183.038666 
L 192.345978 179.938934 
L 192.738699 179.938934 
L 192.738699 176.322579 
L 193.122975 176.322579 
L 193.122975 175.805957 
L 193.499159 175.805957 
L 193.499159 174.772713 
L 211.163782 174.772713 
L 211.163782 174.256091 
L 211.438682 174.256091 
L 211.438682 173.739469 
L 211.709416 173.739469 
L 211.709416 172.706225 
L 211.976109 172.706225 
L 211.976109 172.189603 
L 212.107978 172.189603 
L 212.107978 171.156359 
L 212.497843 171.156359 
L 212.497843 170.123115 
L 212.753106 170.123115 
L 212.753106 169.089871 
L 213.375752 169.089871 
L 213.375752 168.573249 
L 213.618859 168.573249 
L 213.618859 168.056627 
L 214.09537 168.056627 
L 214.09537 167.023383 
L 214.212539 167.023383 
L 214.212539 165.990139 
L 214.787126 165.990139 
L 214.787126 165.473517 
L 217.116446 165.473517 
L 217.116446 164.956895 
L 217.411793 164.956895 
L 217.411793 163.407029 
L 217.893443 163.407029 
L 217.988234 161.340541 
L 218.082525 161.340541 
L 218.176321 157.724187 
L 218.269628 157.724187 
L 218.362449 153.591211 
L 218.454791 153.591211 
L 218.546658 144.808637 
L 218.638055 144.808637 
L 218.728987 141.192282 
L 218.819459 141.192282 
L 218.909475 133.959574 
L 218.99904 133.959574 
L 218.99904 130.34322 
L 222.256782 130.34322 
L 222.256782 129.826598 
L 222.478749 129.826598 
L 222.478749 129.309976 
L 222.697993 129.309976 
L 222.697993 126.726866 
L 222.842675 126.726866 
L 222.914579 122.077268 
L 222.986194 122.077268 
L 222.986194 120.01078 
L 224.361343 120.01078 
L 224.361343 119.494158 
L 225.514525 119.494158 
L 225.514525 118.977536 
L 225.943626 118.977536 
L 226.004093 117.944292 
L 226.124418 117.944292 
L 226.184277 116.911048 
L 226.362663 116.911048 
L 226.362663 115.361182 
L 227.058911 115.361182 
L 227.058911 114.84456 
L 227.397119 114.84456 
L 227.397119 113.811316 
L 227.78377 113.811316 
L 227.78377 113.294694 
L 227.94695 113.294694 
L 227.94695 112.778072 
L 228.108654 112.778072 
L 228.162232 109.161717 
L 228.268907 109.161717 
L 228.37495 105.028741 
L 228.427736 105.028741 
L 228.532843 101.929009 
L 228.585165 101.929009 
L 228.689353 97.279411 
L 228.74122 97.279411 
L 228.844504 89.530081 
L 228.895923 89.530081 
L 228.998319 83.330617 
L 229.150822 83.330617 
L 229.150822 82.813995 
L 230.793914 82.813995 
L 230.886018 81.264129 
L 231.023289 81.264129 
L 231.114222 78.164397 
L 231.204693 78.164397 
L 231.294709 74.03142 
L 231.339548 74.03142 
L 231.384274 70.415066 
L 233.528498 70.415066 
L 233.568073 67.831956 
L 233.84267 67.831956 
L 233.84267 67.315334 
L 234.341705 67.315334 
L 234.341705 66.798712 
L 234.56741 66.798712 
L 234.642016 63.182358 
L 234.753345 63.182358 
L 234.863983 61.11587 
L 234.900711 61.11587 
L 235.010444 58.016138 
L 235.046873 58.016138 
L 235.155714 52.849918 
L 235.191848 52.849918 
L 235.299813 45.61721 
L 235.335657 45.61721 
L 235.407129 39.934367 
L 235.619847 39.934367 
L 235.619847 38.901123 
L 236.580361 38.901123 
L 236.613728 37.351257 
L 236.713458 37.351257 
L 236.779636 35.801391 
L 239.41567 35.801391 
L 239.41567 34.768147 
L 358.8 34.768147 
L 358.8 34.768147 
" style="fill:none;stroke:#000080;stroke-linecap:square;stroke-width:1.5;"/>
   </g>
   <g id="line2d_43">
    <defs>
     <path d="M 0 6 
C 1.591219 6 3.117479 5.367802 4.242641 4.242641 
C 5.367802 3.117479 6 1.591219 6 0 
C 6 -1.591219 5.367802 -3.117479 4.242641 -4.242641 
C 3.117479 -5.367802 1.591219 -6 0 -6 
C -1.591219 -6 -3.117479 -5.367802 -4.242641 -4.242641 
C -5.367802 -3.117479 -6 -1.591219 -6 0 
C -6 1.591219 -5.367802 3.117479 -4.242641 4.242641 
C -3.117479 5.367802 -1.591219 6 0 6 
z
" id="m70a78fe191" style="stroke:#000080;stroke-width:1.5;"/>
    </defs>
    <g>
     <use style="fill:none;stroke:#000080;stroke-width:1.5;" x="358.8" xlink:href="#m70a78fe191" y="34.768147"/>
    </g>
   </g>
   <g id="line2d_44"/>
   <g id="line2d_45">
    <defs>
     <path d="M 0 1.5 
C 0.397805 1.5 0.77937 1.341951 1.06066 1.06066 
C 1.341951 0.77937 1.5 0.397805 1.5 0 
C 1.5 -0.397805 1.341951 -0.77937 1.06066 -1.06066 
C 0.77937 -1.341951 0.397805 -1.5 0 -1.5 
C -0.397805 -1.5 -0.77937 -1.341951 -1.06066 -1.06066 
C -1.341951 -0.77937 -1.5 -0.397805 -1.5 0 
C -1.5 0.397805 -1.341951 0.77937 -1.06066 1.06066 
C -0.77937 1.341951 -0.397805 1.5 0 1.5 
z
" id="m68f181b1fe" style="stroke:#ff00ff;"/>
    </defs>
    <g>
     <use style="fill:#ff00ff;stroke:#ff00ff;" x="247.738786" xlink:href="#m68f181b1fe" y="34.768147"/>
     <use style="fill:#ff00ff;stroke:#ff00ff;" x="247.738786" xlink:href="#m68f181b1fe" y="34.768147"/>
    </g>
   </g>
   <g id="line2d_46">
    <path d="M 179.559196 298.245375 
L 179.559196 297.728753 
L 181.113925 297.728753 
L 181.113925 297.212131 
L 182.544138 297.212131 
L 182.544138 296.695509 
L 185.10108 296.695509 
L 185.10108 296.178887 
L 185.686972 296.178887 
L 185.686972 295.145643 
L 186.254262 295.145643 
L 186.254262 294.629021 
L 188.358823 294.629021 
L 188.358823 293.595777 
L 190.682627 293.595777 
L 190.682627 292.562533 
L 191.94443 292.562533 
L 191.94443 292.045911 
L 193.867587 292.045911 
L 193.867587 289.462801 
L 194.228571 289.462801 
L 194.228571 288.946179 
L 211.976109 288.946179 
L 211.976109 288.429557 
L 212.368831 288.429557 
L 212.368831 287.396313 
L 212.753106 287.396313 
L 212.753106 286.879691 
L 212.879383 286.879691 
L 212.879383 286.363069 
L 213.004774 286.363069 
L 213.004774 284.813203 
L 213.252946 284.813203 
L 213.252946 283.263337 
L 213.375752 283.263337 
L 213.375752 280.680226 
L 213.618859 280.680226 
L 213.618859 280.163604 
L 219.176833 280.163604 
L 219.265071 276.54725 
L 219.352875 276.54725 
L 219.352875 276.030628 
L 219.785538 276.030628 
L 219.785538 274.997384 
L 220.040195 274.997384 
L 220.124281 272.414274 
L 220.207972 272.414274 
L 220.207972 271.38103 
L 220.45672 271.38103 
L 220.538873 270.347786 
L 220.702053 270.347786 
L 220.783088 269.314542 
L 221.340268 269.314542 
L 221.418465 267.764676 
L 221.573841 267.764676 
L 221.651025 263.115078 
L 221.727878 263.115078 
L 221.804401 258.982102 
L 221.880598 258.982102 
L 221.880598 256.398992 
L 222.032023 256.398992 
L 222.107257 253.815882 
L 222.182176 253.815882 
L 222.256782 251.232772 
L 222.405066 251.232772 
L 222.478749 245.549929 
L 222.55213 245.549929 
L 222.62521 240.900331 
L 222.697993 240.900331 
L 222.77048 237.800599 
L 222.842675 237.800599 
L 222.914579 229.018025 
L 222.986194 229.018025 
L 222.986194 226.434915 
L 223.128571 226.434915 
L 223.128571 225.918293 
L 225.452375 225.918293 
L 225.452375 225.401671 
L 226.243937 225.401671 
L 226.243937 224.885049 
L 228.108654 224.885049 
L 228.215649 222.818561 
L 228.268907 222.818561 
L 228.268907 222.301939 
L 228.532843 222.301939 
L 228.637335 220.752073 
L 228.689353 220.752073 
L 228.792936 216.619097 
L 228.844504 216.619097 
L 228.947195 210.419632 
L 228.998319 210.419632 
L 228.998319 207.3199 
L 231.428888 207.3199 
L 231.473392 205.253412 
L 231.738109 205.253412 
L 231.738109 203.703546 
L 232.509515 203.703546 
L 232.593206 201.637058 
L 232.718013 201.637058 
L 232.800736 198.537326 
L 232.924107 198.537326 
L 232.965042 196.98746 
L 233.046632 196.98746 
L 233.12785 194.920972 
L 233.168322 194.920972 
L 233.248991 190.787996 
L 233.289189 190.787996 
L 233.369315 181.4888 
L 233.409244 181.4888 
L 233.488835 174.772713 
L 234.52999 174.772713 
L 234.52999 174.256091 
L 234.679203 174.256091 
L 234.716312 172.189603 
L 234.863983 172.189603 
L 234.937364 170.123115 
L 235.010444 170.123115 
L 235.083227 168.056627 
L 235.155714 168.056627 
L 235.263897 162.890407 
L 235.299813 162.890407 
L 235.371429 152.557967 
L 237.1069 152.557967 
L 237.203922 149.458235 
L 237.428278 149.458235 
L 237.428278 148.941613 
L 237.930753 148.941613 
L 237.930753 148.424991 
L 238.17679 148.424991 
L 238.268187 143.25877 
L 238.32886 143.25877 
L 238.419484 139.642416 
L 238.449591 139.642416 
L 238.539607 132.92633 
L 238.599366 132.92633 
L 238.658927 130.859842 
L 238.777455 130.859842 
L 238.777455 130.34322 
L 239.329972 130.34322 
L 239.329972 127.76011 
L 239.614049 127.76011 
L 239.614049 127.243488 
L 239.782353 127.243488 
L 239.865914 126.210244 
L 239.949086 126.210244 
L 240.031873 124.660378 
L 240.114278 124.660378 
L 240.114278 124.143756 
L 240.305091 124.143756 
L 240.305091 123.110512 
L 240.760184 123.110512 
L 240.760184 122.077268 
L 240.944257 122.077268 
L 240.944257 121.044024 
L 241.074587 121.044024 
L 241.178171 115.361182 
L 241.255466 115.361182 
L 241.358009 110.194961 
L 241.383553 110.194961 
L 241.409061 106.061985 
L 241.712346 106.061985 
L 241.712346 105.545363 
L 241.936479 105.545363 
L 242.010569 103.995497 
L 242.084354 103.995497 
L 242.182261 101.412387 
L 242.303896 101.412387 
L 242.400612 95.212923 
L 242.424709 95.212923 
L 242.520774 87.980215 
L 242.54471 87.980215 
L 242.616326 76.097908 
L 242.758702 76.097908 
L 242.758702 75.064664 
L 243.34002 75.064664 
L 243.362883 74.03142 
L 243.567352 74.03142 
L 243.634992 70.931688 
L 243.679943 70.931688 
L 243.769508 66.798712 
L 244.340985 66.798712 
L 244.340985 66.28209 
L 244.491771 66.28209 
L 244.598702 63.182358 
L 244.620012 63.182358 
L 244.72618 58.016138 
L 244.768472 58.016138 
L 244.852756 51.816674 
L 245.714531 51.816674 
L 245.814409 50.266808 
L 245.893911 50.266808 
L 245.93353 48.20032 
L 246.363637 48.20032 
L 246.459961 46.133832 
L 246.593949 46.133832 
L 246.689043 44.067344 
L 246.708001 44.067344 
L 246.802491 38.901123 
L 246.82133 38.901123 
L 246.840148 37.351257 
L 247.322598 37.351257 
L 247.359176 36.318013 
L 247.522854 36.318013 
L 247.559024 35.284769 
L 247.738786 35.284769 
L 247.738786 34.768147 
L 358.8 34.768147 
L 358.8 34.768147 
" style="fill:none;stroke:#ff00ff;stroke-linecap:square;stroke-width:1.5;"/>
   </g>
   <g id="line2d_47">
    <defs>
     <path d="M -0 8.485281 
L 5.091169 0 
L 0 -8.485281 
L -5.091169 -0 
z
" id="m76887e4982" style="stroke:#ff00ff;stroke-linejoin:miter;stroke-width:1.5;"/>
    </defs>
    <g>
     <use style="fill:none;stroke:#ff00ff;stroke-linejoin:miter;stroke-width:1.5;" x="358.8" xlink:href="#m76887e4982" y="34.768147"/>
    </g>
   </g>
   <g id="line2d_48"/>
   <g id="line2d_49">
    <defs>
     <path d="M 0 1.5 
C 0.397805 1.5 0.77937 1.341951 1.06066 1.06066 
C 1.341951 0.77937 1.5 0.397805 1.5 0 
C 1.5 -0.397805 1.341951 -0.77937 1.06066 -1.06066 
C 0.77937 -1.341951 0.397805 -1.5 0 -1.5 
C -0.397805 -1.5 -0.77937 -1.341951 -1.06066 -1.06066 
C -1.341951 -0.77937 -1.5 -0.397805 -1.5 0 
C -1.5 0.397805 -1.341951 0.77937 -1.06066 1.06066 
C -0.77937 1.341951 -0.397805 1.5 0 1.5 
z
" id="m98a080bab9" style="stroke:#ffa500;"/>
    </defs>
    <g>
     <use style="fill:#ffa500;stroke:#ffa500;" x="250.191687" xlink:href="#m98a080bab9" y="34.768147"/>
     <use style="fill:#ffa500;stroke:#ffa500;" x="250.191687" xlink:href="#m98a080bab9" y="34.768147"/>
    </g>
   </g>
   <g id="line2d_50">
    <path d="M 136.713325 298.245375 
L 136.713325 297.212131 
L 143.958223 297.212131 
L 143.958223 294.112399 
L 149.098559 294.112399 
L 149.098559 291.529289 
L 153.085714 291.529289 
L 153.085714 288.429557 
L 156.343457 288.429557 
L 156.343457 286.363069 
L 159.097839 286.363069 
L 159.097839 285.846447 
L 161.483794 285.846447 
L 161.483794 281.713471 
L 163.588354 281.713471 
L 163.588354 280.163604 
L 165.470948 280.163604 
L 165.470948 279.13036 
L 167.173962 279.13036 
L 167.173962 278.097116 
L 168.728691 278.097116 
L 168.728691 277.063872 
L 170.158903 277.063872 
L 170.158903 274.997384 
L 171.483073 274.997384 
L 171.483073 274.480762 
L 172.715846 274.480762 
L 172.715846 273.447518 
L 173.869028 273.447518 
L 173.869028 272.414274 
L 175.973589 272.414274 
L 175.973589 271.897652 
L 176.939668 271.897652 
L 176.939668 270.347786 
L 179.559196 270.347786 
L 179.559196 269.831164 
L 181.843337 269.831164 
L 181.843337 269.314542 
L 183.868307 269.314542 
L 183.868307 268.79792 
L 184.495323 268.79792 
L 184.495323 268.281298 
L 185.10108 268.281298 
L 185.10108 266.21481 
L 185.686972 266.21481 
L 185.686972 265.698188 
L 186.254262 265.698188 
L 186.254262 264.664944 
L 187.33751 264.664944 
L 187.33751 263.115078 
L 188.358823 263.115078 
L 188.358823 262.081834 
L 188.848391 262.081834 
L 188.848391 260.531968 
L 189.789035 260.531968 
L 189.789035 256.398992 
L 190.682627 256.398992 
L 190.682627 254.849126 
L 191.533651 254.849126 
L 191.533651 253.29926 
L 192.345978 253.29926 
L 192.345978 252.266016 
L 193.122975 252.266016 
L 193.122975 251.749394 
L 193.499159 251.749394 
L 193.499159 249.682906 
L 193.867587 249.682906 
L 193.867587 248.13304 
L 210.743337 248.13304 
L 210.743337 247.616418 
L 210.884587 247.616418 
L 210.884587 246.583173 
L 211.574562 246.583173 
L 211.574562 246.066551 
L 211.709416 246.066551 
L 211.709416 245.549929 
L 212.368831 245.549929 
L 212.368831 244.000063 
L 212.62593 244.000063 
L 212.62593 243.483441 
L 213.004774 243.483441 
L 213.004774 242.966819 
L 213.129291 242.966819 
L 213.129291 242.450197 
L 213.497719 242.450197 
L 213.497719 241.933575 
L 213.739183 241.933575 
L 213.739183 240.900331 
L 213.858703 240.900331 
L 213.858703 240.383709 
L 219.265071 240.383709 
L 219.265071 238.833843 
L 219.5272 238.833843 
L 219.5272 237.800599 
L 222.107257 237.800599 
L 222.107257 236.767355 
L 222.331078 236.767355 
L 222.405066 234.700867 
L 222.55213 234.700867 
L 222.55213 234.184245 
L 222.697993 234.184245 
L 222.697993 233.667623 
L 222.842675 233.667623 
L 222.914579 231.084513 
L 222.986194 231.084513 
L 222.986194 230.051269 
L 224.228494 230.051269 
L 224.228494 229.018025 
L 225.264617 229.018025 
L 225.264617 228.501403 
L 225.760986 228.501403 
L 225.760986 227.468159 
L 226.480604 227.468159 
L 226.480604 226.434915 
L 226.944737 226.434915 
L 226.944737 225.918293 
L 228.480367 225.918293 
L 228.585165 221.268695 
L 228.637335 221.268695 
L 228.689353 217.135719 
L 228.792936 217.135719 
L 228.895923 214.035987 
L 228.947195 214.035987 
L 228.998319 208.869766 
L 229.451977 208.869766 
L 229.451977 208.353144 
L 229.649964 208.353144 
L 229.69912 207.3199 
L 230.087572 207.3199 
L 230.087572 206.803278 
L 230.326135 206.803278 
L 230.373468 205.770034 
L 230.701333 205.770034 
L 230.701333 205.253412 
L 231.068813 205.253412 
L 231.068813 204.220168 
L 231.428888 204.220168 
L 231.473392 201.637058 
L 231.562067 201.637058 
L 231.562067 201.120436 
L 231.998962 201.120436 
L 231.998962 200.603814 
L 232.55141 200.603814 
L 232.55141 200.087192 
L 232.676508 200.087192 
L 232.676508 199.053948 
L 232.800736 199.053948 
L 232.883078 198.020704 
L 233.046632 198.020704 
L 233.12785 195.954216 
L 233.168322 195.954216 
L 233.208702 194.920972 
L 233.289189 194.920972 
L 233.369315 191.304618 
L 233.409244 191.304618 
L 233.488835 186.65502 
L 233.528498 186.65502 
L 233.568073 185.105154 
L 233.84267 185.105154 
L 233.84267 184.588532 
L 234.265832 184.588532 
L 234.265832 184.07191 
L 234.52999 184.07191 
L 234.604752 182.522044 
L 234.753345 182.522044 
L 234.863983 179.422312 
L 234.900711 179.422312 
L 235.010444 174.256091 
L 235.046873 174.256091 
L 235.119507 170.639737 
L 235.191848 170.639737 
L 235.299813 163.407029 
L 235.335657 163.407029 
L 235.371429 159.790675 
L 238.389327 159.790675 
L 238.389327 159.274053 
L 238.658927 159.274053 
L 238.688633 158.240809 
L 239.38715 158.240809 
L 239.38715 156.174321 
L 239.557594 156.174321 
L 239.557594 155.657699 
L 239.698399 155.657699 
L 239.782353 152.557967 
L 239.81025 152.557967 
L 239.893681 148.424991 
L 239.921405 148.424991 
L 240.031873 138.609172 
L 240.059384 138.609172 
L 240.169004 132.409708 
L 240.196305 132.409708 
L 240.196305 131.376464 
L 240.386249 131.376464 
L 240.386249 129.826598 
L 240.627532 129.826598 
L 240.627532 127.76011 
L 240.786596 127.76011 
L 240.786596 127.243488 
L 240.996503 127.243488 
L 241.100539 123.627134 
L 241.126454 123.627134 
L 241.229738 115.361182 
L 241.255466 115.361182 
L 241.358009 109.161717 
L 242.448774 109.161717 
L 242.448774 108.128473 
L 242.568614 108.128473 
L 242.616326 105.545363 
L 242.946789 105.545363 
L 242.946789 105.028741 
L 243.408524 105.028741 
L 243.499456 103.478875 
L 243.522117 103.478875 
L 243.612474 98.829277 
L 243.634992 98.829277 
L 243.724782 92.629813 
L 243.747159 92.629813 
L 243.769508 89.530081 
L 244.427304 89.530081 
L 244.427304 89.013459 
L 244.556007 89.013459 
L 244.577367 87.463593 
L 244.72618 87.463593 
L 244.831722 83.847239 
L 245.573757 83.847239 
L 245.674423 76.614531 
L 245.734551 76.614531 
L 245.834318 70.415066 
L 245.854204 70.415066 
L 245.913732 67.831956 
L 246.051862 67.831956 
L 246.110736 66.28209 
L 246.363637 66.28209 
L 246.440738 63.69898 
L 246.498346 63.69898 
L 246.593949 62.149114 
L 246.613008 62.149114 
L 246.708001 57.499516 
L 246.726939 57.499516 
L 246.82133 50.78343 
L 246.840148 50.78343 
L 246.840148 48.716942 
L 247.340896 48.716942 
L 247.395678 46.133832 
L 247.559024 46.133832 
L 247.667098 42.000855 
L 247.685047 42.000855 
L 247.756663 40.967611 
L 247.845781 40.967611 
L 247.845781 39.934367 
L 248.057868 39.934367 
L 248.057868 38.901123 
L 248.457463 38.901123 
L 248.543161 36.834635 
L 248.577326 36.834635 
L 248.577326 36.318013 
L 249.924642 36.318013 
L 249.924642 35.801391 
L 250.160476 35.801391 
L 250.191687 34.768147 
L 358.8 34.768147 
L 358.8 34.768147 
" style="fill:none;stroke:#ffa500;stroke-linecap:square;stroke-width:1.5;"/>
   </g>
   <g id="line2d_51">
    <defs>
     <path d="M 0 -6 
L -1.347084 -1.854102 
L -5.706339 -1.854102 
L -2.179628 0.708204 
L -3.526712 4.854102 
L -0 2.291796 
L 3.526712 4.854102 
L 2.179628 0.708204 
L 5.706339 -1.854102 
L 1.347084 -1.854102 
z
" id="m5e3850bfbb" style="stroke:#ffa500;stroke-linejoin:bevel;stroke-width:1.5;"/>
    </defs>
    <g>
     <use style="fill:none;stroke:#ffa500;stroke-linejoin:bevel;stroke-width:1.5;" x="358.8" xlink:href="#m5e3850bfbb" y="34.768147"/>
    </g>
   </g>
   <g id="line2d_52"/>
   <g id="line2d_53">
    <defs>
     <path d="M 0 1.5 
C 0.397805 1.5 0.77937 1.341951 1.06066 1.06066 
C 1.341951 0.77937 1.5 0.397805 1.5 0 
C 1.5 -0.397805 1.341951 -0.77937 1.06066 -1.06066 
C 0.77937 -1.341951 0.397805 -1.5 0 -1.5 
C -0.397805 -1.5 -0.77937 -1.341951 -1.06066 -1.06066 
C -1.341951 -0.77937 -1.5 -0.397805 -1.5 0 
C -1.5 0.397805 -1.341951 0.77937 -1.06066 1.06066 
C -0.77937 1.341951 -0.397805 1.5 0 1.5 
z
" id="m50fe1ac1a6" style="stroke:#6495ed;"/>
    </defs>
    <g>
     <use style="fill:#6495ed;stroke:#6495ed;" x="256.693741" xlink:href="#m50fe1ac1a6" y="34.768147"/>
     <use style="fill:#6495ed;stroke:#6495ed;" x="256.693741" xlink:href="#m50fe1ac1a6" y="34.768147"/>
    </g>
   </g>
   <g id="line2d_54">
    <path d="M 163.588354 298.245375 
L 163.588354 297.212131 
L 168.728691 297.212131 
L 168.728691 296.695509 
L 176.939668 296.695509 
L 176.939668 296.178887 
L 183.218486 296.178887 
L 183.218486 295.662265 
L 183.868307 295.662265 
L 183.868307 295.145643 
L 185.10108 295.145643 
L 185.10108 293.595777 
L 187.33751 293.595777 
L 187.33751 293.079155 
L 187.855462 293.079155 
L 187.855462 292.562533 
L 188.358823 292.562533 
L 188.358823 291.012667 
L 190.682627 291.012667 
L 190.682627 290.496045 
L 191.113205 290.496045 
L 191.113205 289.462801 
L 191.94443 289.462801 
L 191.94443 288.946179 
L 192.345978 288.946179 
L 192.345978 288.429557 
L 193.867587 288.429557 
L 193.867587 286.879691 
L 196.253542 286.879691 
L 196.253542 285.846447 
L 196.5698 285.846447 
L 196.5698 285.329825 
L 196.880557 285.329825 
L 196.880557 284.813203 
L 197.186003 284.813203 
L 197.186003 284.296581 
L 197.486314 284.296581 
L 197.486314 282.230093 
L 198.072206 282.230093 
L 198.072206 280.680226 
L 198.639496 280.680226 
L 198.639496 279.646982 
L 198.916526 279.646982 
L 198.916526 278.097116 
L 199.189327 278.097116 
L 199.189327 277.063872 
L 199.458026 277.063872 
L 199.458026 276.030628 
L 199.983597 276.030628 
L 199.983597 275.514006 
L 200.240696 275.514006 
L 200.240696 273.447518 
L 200.494149 273.447518 
L 200.494149 272.414274 
L 200.990517 272.414274 
L 200.990517 271.38103 
L 201.233625 271.38103 
L 201.233625 270.864408 
L 201.473469 270.864408 
L 201.473469 270.347786 
L 202.174269 270.347786 
L 202.174269 269.314542 
L 202.401892 269.314542 
L 202.401892 268.281298 
L 203.284447 268.281298 
L 203.284447 267.764676 
L 203.498439 267.764676 
L 203.498439 266.731432 
L 204.125455 266.731432 
L 204.125455 265.181566 
L 204.329664 265.181566 
L 204.329664 264.148322 
L 204.928651 264.148322 
L 204.928651 263.6317 
L 205.123933 263.6317 
L 205.123933 263.115078 
L 205.317104 263.115078 
L 205.317104 261.565212 
L 205.508209 261.565212 
L 205.508209 261.04859 
L 206.069557 261.04859 
L 206.069557 260.531968 
L 206.434225 260.531968 
L 206.434225 260.015346 
L 215.989716 260.015346 
L 215.989716 259.498724 
L 216.816134 259.498724 
L 216.816134 258.982102 
L 218.269628 258.982102 
L 218.269628 258.46548 
L 218.546658 258.46548 
L 218.638055 256.915614 
L 218.819459 256.915614 
L 218.909475 255.88237 
L 218.99904 255.88237 
L 218.99904 253.815882 
L 223.199336 253.815882 
L 223.199336 252.782638 
L 224.295042 252.782638 
L 224.295042 252.266016 
L 224.754065 252.266016 
L 224.754065 251.749394 
L 225.327423 251.749394 
L 225.327423 251.232772 
L 225.760986 251.232772 
L 225.760986 250.71615 
L 226.597773 250.71615 
L 226.597773 250.199528 
L 226.887376 250.199528 
L 226.887376 249.682906 
L 227.058911 249.682906 
L 227.058911 248.13304 
L 227.17236 248.13304 
L 227.228815 245.549929 
L 227.397119 245.549929 
L 227.397119 244.516685 
L 227.67415 244.516685 
L 227.78377 242.966819 
L 228.108654 242.966819 
L 228.108654 241.933575 
L 228.427736 241.933575 
L 228.427736 241.416953 
L 228.585165 241.416953 
L 228.585165 240.383709 
L 228.74122 240.383709 
L 228.74122 239.867087 
L 229.150822 239.867087 
L 229.201368 237.800599 
L 229.402136 237.800599 
L 229.402136 237.283977 
L 229.551245 237.283977 
L 229.551245 236.767355 
L 229.69912 236.767355 
L 229.69912 236.250733 
L 229.894402 236.250733 
L 229.894402 235.734111 
L 230.13554 235.734111 
L 230.13554 234.700867 
L 230.326135 234.700867 
L 230.420676 233.667623 
L 230.701333 233.667623 
L 230.701333 233.151001 
L 230.840025 233.151001 
L 230.840025 232.634379 
L 231.159515 232.634379 
L 231.159515 231.601135 
L 233.248991 231.601135 
L 233.248991 231.084513 
L 234.863983 231.084513 
L 234.863983 230.051269 
L 235.010444 230.051269 
L 235.010444 229.018025 
L 235.155714 229.018025 
L 235.191848 227.468159 
L 235.299813 227.468159 
L 235.407129 225.401671 
L 235.442758 225.401671 
L 235.513805 223.851805 
L 235.725264 223.851805 
L 235.725264 222.818561 
L 236.20915 222.818561 
L 236.243217 220.235451 
L 236.412584 220.235451 
L 236.513439 218.685585 
L 236.647033 218.685585 
L 236.713458 214.035987 
L 236.84557 214.035987 
L 236.944017 213.002743 
L 236.976713 213.002743 
L 237.041925 209.90301 
L 237.649851 209.90301 
L 237.681282 208.869766 
L 237.930753 208.869766 
L 238.023414 205.253412 
L 238.054195 205.253412 
L 238.14622 203.703546 
L 238.298549 203.703546 
L 238.389327 200.087192 
L 238.539607 200.087192 
L 238.539607 199.57057 
L 239.838104 199.57057 
L 239.838104 199.053948 
L 240.086852 199.053948 
L 240.141662 197.504082 
L 240.865601 197.504082 
L 240.865601 196.470838 
L 241.203973 196.470838 
L 241.203973 195.954216 
L 241.383553 195.954216 
L 241.459967 190.271374 
L 241.586602 190.271374 
L 241.586602 189.23813 
L 241.911714 189.23813 
L 241.911714 188.721508 
L 242.084354 188.721508 
L 242.133375 184.07191 
L 242.206655 184.07191 
L 242.279636 178.389067 
L 242.376482 178.389067 
L 242.472806 174.256091 
L 242.496806 174.256091 
L 242.592486 161.340541 
L 242.616326 161.340541 
L 242.663911 159.790675 
L 243.24827 159.790675 
L 243.24827 158.240809 
L 243.499456 158.240809 
L 243.589927 155.657699 
L 243.657482 155.657699 
L 243.724782 152.041345 
L 245.913732 152.041345 
L 246.012505 147.908369 
L 246.20843 147.908369 
L 246.20843 147.391747 
L 246.421494 147.391747 
L 246.517507 145.841881 
L 246.574869 145.841881 
L 246.670064 139.642416 
L 246.726939 139.642416 
L 246.82133 131.893086 
L 246.840148 131.893086 
L 246.915224 129.309976 
L 247.120072 129.309976 
L 247.120072 128.793354 
L 247.577082 128.793354 
L 247.685047 125.177 
L 247.720891 125.177 
L 247.756663 122.077268 
L 248.998962 122.077268 
L 249.082109 121.044024 
L 249.361947 121.044024 
L 249.459676 115.361182 
L 249.475912 115.361182 
L 249.508341 113.294694 
L 249.972059 113.294694 
L 250.08221 108.645095 
L 250.097891 108.645095 
L 250.207272 100.895765 
L 250.238401 100.895765 
L 250.253945 99.862521 
L 250.4548 99.862521 
L 250.4548 99.345899 
L 250.804718 99.345899 
L 250.90987 95.212923 
L 250.924841 95.212923 
L 251.029289 88.496837 
L 251.044161 88.496837 
L 251.118333 84.880483 
L 251.339021 84.880483 
L 251.397413 81.264129 
L 251.470137 81.264129 
L 251.528103 78.164397 
L 251.585882 78.164397 
L 251.686548 71.964932 
L 251.700882 71.964932 
L 251.78665 68.348578 
L 251.815147 68.348578 
L 251.815147 67.831956 
L 252.223338 67.831956 
L 252.320485 64.215602 
L 252.348145 64.215602 
L 252.430868 56.466272 
L 252.798453 56.466272 
L 252.825383 54.399784 
L 253.012766 54.399784 
L 253.118966 52.849918 
L 253.132197 52.849918 
L 253.198204 50.78343 
L 253.730458 50.78343 
L 253.794295 48.716942 
L 254.222445 48.716942 
L 254.321713 46.133832 
L 254.334083 46.133832 
L 254.420432 42.517478 
L 254.761716 42.517478 
L 254.809943 40.450989 
L 254.965788 40.450989 
L 254.989644 38.384501 
L 256.188213 38.384501 
L 256.199357 36.834635 
L 256.387735 36.834635 
L 256.387735 35.801391 
L 256.585054 35.801391 
L 256.693741 34.768147 
L 358.8 34.768147 
L 358.8 34.768147 
" style="fill:none;stroke:#6495ed;stroke-linecap:square;stroke-width:1.5;"/>
   </g>
   <g id="line2d_55">
    <defs>
     <path d="M -0 6 
L 6 -6 
L -6 -6 
z
" id="m17d5853da8" style="stroke:#6495ed;stroke-linejoin:miter;stroke-width:1.5;"/>
    </defs>
    <g>
     <use style="fill:none;stroke:#6495ed;stroke-linejoin:miter;stroke-width:1.5;" x="358.8" xlink:href="#m17d5853da8" y="34.768147"/>
    </g>
   </g>
   <g id="line2d_56"/>
   <g id="line2d_57">
    <defs>
     <path d="M 0 1.5 
C 0.397805 1.5 0.77937 1.341951 1.06066 1.06066 
C 1.341951 0.77937 1.5 0.397805 1.5 0 
C 1.5 -0.397805 1.341951 -0.77937 1.06066 -1.06066 
C 0.77937 -1.341951 0.397805 -1.5 0 -1.5 
C -0.397805 -1.5 -0.77937 -1.341951 -1.06066 -1.06066 
C -1.341951 -0.77937 -1.5 -0.397805 -1.5 0 
C -1.5 0.397805 -1.341951 0.77937 -1.06066 1.06066 
C -0.77937 1.341951 -0.397805 1.5 0 1.5 
z
" id="m7823506acb" style="stroke:#ff0000;"/>
    </defs>
    <g>
     <use style="fill:#ff0000;stroke:#ff0000;" x="191.533651" xlink:href="#m7823506acb" y="34.768147"/>
     <use style="fill:#ff0000;stroke:#ff0000;" x="191.533651" xlink:href="#m7823506acb" y="34.768147"/>
    </g>
   </g>
   <g id="line2d_58">
    <path d="M 29.657143 298.245375 
L 29.657143 292.045911 
L 136.713325 292.045911 
L 136.713325 287.912935 
L 143.958223 287.912935 
L 143.958223 285.329825 
L 149.098559 285.329825 
L 149.098559 282.746715 
L 153.085714 282.746715 
L 153.085714 279.646982 
L 156.343457 279.646982 
L 156.343457 278.097116 
L 159.097839 278.097116 
L 159.097839 274.997384 
L 161.483794 274.997384 
L 161.483794 271.38103 
L 163.588354 271.38103 
L 163.588354 269.314542 
L 165.470948 269.314542 
L 165.470948 267.248054 
L 167.173962 267.248054 
L 167.173962 266.21481 
L 168.728691 266.21481 
L 168.728691 263.6317 
L 170.158903 263.6317 
L 170.158903 261.565212 
L 171.483073 261.565212 
L 171.483073 246.583173 
L 172.715846 246.583173 
L 172.715846 243.483441 
L 173.869028 243.483441 
L 173.869028 241.933575 
L 174.952275 241.933575 
L 174.952275 237.283977 
L 175.973589 237.283977 
L 175.973589 208.869766 
L 176.939668 208.869766 
L 176.939668 208.353144 
L 177.856183 208.353144 
L 177.856183 177.355823 
L 178.727971 177.355823 
L 178.727971 175.805957 
L 179.559196 175.805957 
L 179.559196 159.274053 
L 180.353465 159.274053 
L 180.353465 158.240809 
L 181.113925 158.240809 
L 181.113925 137.059306 
L 181.843337 137.059306 
L 181.843337 124.143756 
L 182.544138 124.143756 
L 182.544138 112.26145 
L 183.218486 112.26145 
L 183.218486 103.478875 
L 183.868307 103.478875 
L 183.868307 88.496837 
L 184.495323 88.496837 
L 184.495323 87.980215 
L 185.10108 87.980215 
L 185.10108 79.197641 
L 185.686972 79.197641 
L 185.686972 78.681019 
L 186.254262 78.681019 
L 186.254262 77.647775 
L 186.804093 77.647775 
L 186.804093 64.215602 
L 187.33751 64.215602 
L 187.33751 63.182358 
L 187.855462 63.182358 
L 187.855462 48.716942 
L 189.789035 48.716942 
L 189.789035 48.20032 
L 191.113205 48.20032 
L 191.113205 47.167076 
L 191.533651 47.167076 
L 191.533651 34.768147 
L 358.8 34.768147 
" style="fill:none;stroke:#ff0000;stroke-linecap:square;stroke-width:1.5;"/>
   </g>
   <g id="line2d_59">
    <defs>
     <path d="M 0 -6 
L -5.196152 -3 
L -5.196152 3 
L -0 6 
L 5.196152 3 
L 5.196152 -3 
z
" id="me3df86f5fc" style="stroke:#ff0000;stroke-linejoin:miter;stroke-width:1.5;"/>
    </defs>
    <g>
     <use style="fill:none;stroke:#ff0000;stroke-linejoin:miter;stroke-width:1.5;" x="358.8" xlink:href="#me3df86f5fc" y="34.768147"/>
    </g>
   </g>
   <g id="line2d_60"/>
   <g id="line2d_61">
    <path d="M 358.8 34.768147 
L 390.48 292.97583 
" style="fill:none;stroke:#6495ed;stroke-linecap:square;stroke-width:1.5;"/>
    <g>
     <use style="fill:none;stroke:#6495ed;stroke-linejoin:miter;stroke-width:1.5;" x="358.8" xlink:href="#m17d5853da8" y="34.768147"/>
     <use style="fill:none;stroke:#6495ed;stroke-linejoin:miter;stroke-width:1.5;" x="390.48" xlink:href="#m17d5853da8" y="292.97583"/>
    </g>
   </g>
   <g id="line2d_62">
    <path d="M 358.8 34.768147 
L 390.48 229.741296 
" style="fill:none;stroke:#ffa500;stroke-linecap:square;stroke-width:1.5;"/>
    <g>
     <use style="fill:none;stroke:#ffa500;stroke-linejoin:bevel;stroke-width:1.5;" x="358.8" xlink:href="#m5e3850bfbb" y="34.768147"/>
     <use style="fill:none;stroke:#ffa500;stroke-linejoin:bevel;stroke-width:1.5;" x="390.48" xlink:href="#m5e3850bfbb" y="229.741296"/>
    </g>
   </g>
   <g id="line2d_63">
    <path d="M 358.8 34.768147 
L 390.48 166.506761 
" style="fill:none;stroke:#ff00ff;stroke-linecap:square;stroke-width:1.5;"/>
    <g>
     <use style="fill:none;stroke:#ff00ff;stroke-linejoin:miter;stroke-width:1.5;" x="358.8" xlink:href="#m76887e4982" y="34.768147"/>
     <use style="fill:none;stroke:#ff00ff;stroke-linejoin:miter;stroke-width:1.5;" x="390.48" xlink:href="#m76887e4982" y="166.506761"/>
    </g>
   </g>
   <g id="line2d_64">
    <path d="M 358.8 34.768147 
L 390.48 103.272226 
" style="fill:none;stroke:#000080;stroke-linecap:square;stroke-width:1.5;"/>
    <g>
     <use style="fill:none;stroke:#000080;stroke-width:1.5;" x="358.8" xlink:href="#m70a78fe191" y="34.768147"/>
     <use style="fill:none;stroke:#000080;stroke-width:1.5;" x="390.48" xlink:href="#m70a78fe191" y="103.272226"/>
    </g>
   </g>
   <g id="line2d_65">
    <path d="M 358.8 34.768147 
L 390.48 40.037692 
" style="fill:none;stroke:#ff0000;stroke-linecap:square;stroke-width:1.5;"/>
    <g>
     <use style="fill:none;stroke:#ff0000;stroke-linejoin:miter;stroke-width:1.5;" x="358.8" xlink:href="#me3df86f5fc" y="34.768147"/>
     <use style="fill:none;stroke:#ff0000;stroke-linejoin:miter;stroke-width:1.5;" x="390.48" xlink:href="#me3df86f5fc" y="40.037692"/>
    </g>
   </g>
   <g id="line2d_66">
    <path d="M 358.8 298.245375 
L 358.8 34.768147 
" style="fill:none;stroke:#000000;stroke-linecap:square;stroke-width:1.5;"/>
   </g>
   <g id="patch_3">
    <path d="M 70.8 298.245375 
L 70.8 32.133375 
" style="fill:none;stroke:#000000;stroke-linecap:square;stroke-linejoin:miter;stroke-width:0.8;"/>
   </g>
   <g id="patch_4">
    <path d="M 427.92 298.245375 
L 427.92 32.133375 
" style="fill:none;stroke:#000000;stroke-linecap:square;stroke-linejoin:miter;stroke-width:0.8;"/>
   </g>
   <g id="patch_5">
    <path d="M 70.8 298.245375 
L 427.92 298.245375 
" style="fill:none;stroke:#000000;stroke-linecap:square;stroke-linejoin:miter;stroke-width:0.8;"/>
   </g>
   <g id="patch_6">
    <path d="M 70.8 32.133375 
L 427.92 32.133375 
" style="fill:none;stroke:#000000;stroke-linecap:square;stroke-linejoin:miter;stroke-width:0.8;"/>
   </g>
   <g id="text_14">
    <!-- f4 -->
    <g transform="translate(396.24 297.114893)scale(0.15 -0.15)">
     <use xlink:href="#DejaVuSans-66"/>
     <use x="35.205078" xlink:href="#DejaVuSans-34"/>
    </g>
   </g>
   <g id="text_15">
    <!-- f3 -->
    <defs>
     <path d="M 40.578125 39.3125 
Q 47.65625 37.796875 51.625 33 
Q 55.609375 28.21875 55.609375 21.1875 
Q 55.609375 10.40625 48.1875 4.484375 
Q 40.765625 -1.421875 27.09375 -1.421875 
Q 22.515625 -1.421875 17.65625 -0.515625 
Q 12.796875 0.390625 7.625 2.203125 
L 7.625 11.71875 
Q 11.71875 9.328125 16.59375 8.109375 
Q 21.484375 6.890625 26.8125 6.890625 
Q 36.078125 6.890625 40.9375 10.546875 
Q 45.796875 14.203125 45.796875 21.1875 
Q 45.796875 27.640625 41.28125 31.265625 
Q 36.765625 34.90625 28.71875 34.90625 
L 20.21875 34.90625 
L 20.21875 43.015625 
L 29.109375 43.015625 
Q 36.375 43.015625 40.234375 45.921875 
Q 44.09375 48.828125 44.09375 54.296875 
Q 44.09375 59.90625 40.109375 62.90625 
Q 36.140625 65.921875 28.71875 65.921875 
Q 24.65625 65.921875 20.015625 65.03125 
Q 15.375 64.15625 9.8125 62.3125 
L 9.8125 71.09375 
Q 15.4375 72.65625 20.34375 73.4375 
Q 25.25 74.21875 29.59375 74.21875 
Q 40.828125 74.21875 47.359375 69.109375 
Q 53.90625 64.015625 53.90625 55.328125 
Q 53.90625 49.265625 50.4375 45.09375 
Q 46.96875 40.921875 40.578125 39.3125 
" id="DejaVuSans-33"/>
    </defs>
    <g transform="translate(396.24 233.880358)scale(0.15 -0.15)">
     <use xlink:href="#DejaVuSans-66"/>
     <use x="35.205078" xlink:href="#DejaVuSans-33"/>
    </g>
   </g>
   <g id="text_16">
    <!-- f2 -->
    <g transform="translate(396.24 170.645824)scale(0.15 -0.15)">
     <use xlink:href="#DejaVuSans-66"/>
     <use x="35.205078" xlink:href="#DejaVuSans-32"/>
    </g>
   </g>
   <g id="text_17">
    <!-- f1 -->
    <g transform="translate(396.24 107.411289)scale(0.15 -0.15)">
     <use xlink:href="#DejaVuSans-66"/>
     <use x="35.205078" xlink:href="#DejaVuSans-31"/>
    </g>
   </g>
   <g id="text_18">
    <!-- f5 -->
    <defs>
     <path d="M 10.796875 72.90625 
L 49.515625 72.90625 
L 49.515625 64.59375 
L 19.828125 64.59375 
L 19.828125 46.734375 
Q 21.96875 47.46875 24.109375 47.828125 
Q 26.265625 48.1875 28.421875 48.1875 
Q 40.625 48.1875 47.75 41.5 
Q 54.890625 34.8125 54.890625 23.390625 
Q 54.890625 11.625 47.5625 5.09375 
Q 40.234375 -1.421875 26.90625 -1.421875 
Q 22.3125 -1.421875 17.546875 -0.640625 
Q 12.796875 0.140625 7.71875 1.703125 
L 7.71875 11.625 
Q 12.109375 9.234375 16.796875 8.0625 
Q 21.484375 6.890625 26.703125 6.890625 
Q 35.15625 6.890625 40.078125 11.328125 
Q 45.015625 15.765625 45.015625 23.390625 
Q 45.015625 31 40.078125 35.4375 
Q 35.15625 39.890625 26.703125 39.890625 
Q 22.75 39.890625 18.8125 39.015625 
Q 14.890625 38.140625 10.796875 36.28125 
z
" id="DejaVuSans-35"/>
    </defs>
    <g transform="translate(396.24 44.176754)scale(0.15 -0.15)">
     <use xlink:href="#DejaVuSans-66"/>
     <use x="35.205078" xlink:href="#DejaVuSans-35"/>
    </g>
   </g>
   <g id="text_19">
    <!-- bbob -->
    <defs>
     <path d="M 48.6875 27.296875 
Q 48.6875 37.203125 44.609375 42.84375 
Q 40.53125 48.484375 33.40625 48.484375 
Q 26.265625 48.484375 22.1875 42.84375 
Q 18.109375 37.203125 18.109375 27.296875 
Q 18.109375 17.390625 22.1875 11.75 
Q 26.265625 6.109375 33.40625 6.109375 
Q 40.53125 6.109375 44.609375 11.75 
Q 48.6875 17.390625 48.6875 27.296875 
M 18.109375 46.390625 
Q 20.953125 51.265625 25.265625 53.625 
Q 29.59375 56 35.59375 56 
Q 45.5625 56 51.78125 48.09375 
Q 58.015625 40.1875 58.015625 27.296875 
Q 58.015625 14.40625 51.78125 6.484375 
Q 45.5625 -1.421875 35.59375 -1.421875 
Q 29.59375 -1.421875 25.265625 0.953125 
Q 20.953125 3.328125 18.109375 8.203125 
L 18.109375 0 
L 9.078125 0 
L 9.078125 75.984375 
L 18.109375 75.984375 
z
" id="DejaVuSans-62"/>
    </defs>
    <g transform="translate(74.3712 50.114612)scale(0.1666 -0.1666)">
     <use xlink:href="#DejaVuSans-62"/>
     <use x="63.476562" xlink:href="#DejaVuSans-62"/>
     <use x="126.953125" xlink:href="#DejaVuSans-6f"/>
     <use x="188.134766" xlink:href="#DejaVuSans-62"/>
    </g>
    <!-- Separable functions, 10-D -->
    <defs>
     <path d="M 53.515625 70.515625 
L 53.515625 60.890625 
Q 47.90625 63.578125 42.921875 64.890625 
Q 37.9375 66.21875 33.296875 66.21875 
Q 25.25 66.21875 20.875 63.09375 
Q 16.5 59.96875 16.5 54.203125 
Q 16.5 49.359375 19.40625 46.890625 
Q 22.3125 44.4375 30.421875 42.921875 
L 36.375 41.703125 
Q 47.40625 39.59375 52.65625 34.296875 
Q 57.90625 29 57.90625 20.125 
Q 57.90625 9.515625 50.796875 4.046875 
Q 43.703125 -1.421875 29.984375 -1.421875 
Q 24.8125 -1.421875 18.96875 -0.25 
Q 13.140625 0.921875 6.890625 3.21875 
L 6.890625 13.375 
Q 12.890625 10.015625 18.65625 8.296875 
Q 24.421875 6.59375 29.984375 6.59375 
Q 38.421875 6.59375 43.015625 9.90625 
Q 47.609375 13.234375 47.609375 19.390625 
Q 47.609375 24.75 44.3125 27.78125 
Q 41.015625 30.8125 33.5 32.328125 
L 27.484375 33.5 
Q 16.453125 35.6875 11.515625 40.375 
Q 6.59375 45.0625 6.59375 53.421875 
Q 6.59375 63.09375 13.40625 68.65625 
Q 20.21875 74.21875 32.171875 74.21875 
Q 37.3125 74.21875 42.625 73.28125 
Q 47.953125 72.359375 53.515625 70.515625 
" id="DejaVuSans-53"/>
     <path d="M 11.71875 12.40625 
L 22.015625 12.40625 
L 22.015625 4 
L 14.015625 -11.625 
L 7.71875 -11.625 
L 11.71875 4 
z
" id="DejaVuSans-2c"/>
     <path d="M 19.671875 64.796875 
L 19.671875 8.109375 
L 31.59375 8.109375 
Q 46.6875 8.109375 53.6875 14.9375 
Q 60.6875 21.78125 60.6875 36.53125 
Q 60.6875 51.171875 53.6875 57.984375 
Q 46.6875 64.796875 31.59375 64.796875 
z
M 9.8125 72.90625 
L 30.078125 72.90625 
Q 51.265625 72.90625 61.171875 64.09375 
Q 71.09375 55.28125 71.09375 36.53125 
Q 71.09375 17.671875 61.125 8.828125 
Q 51.171875 0 30.078125 0 
L 9.8125 0 
z
" id="DejaVuSans-44"/>
    </defs>
    <g transform="translate(74.3712 68.770168)scale(0.1666 -0.1666)">
     <use xlink:href="#DejaVuSans-53"/>
     <use x="63.476562" xlink:href="#DejaVuSans-65"/>
     <use x="125" xlink:href="#DejaVuSans-70"/>
     <use x="188.476562" xlink:href="#DejaVuSans-61"/>
     <use x="249.755859" xlink:href="#DejaVuSans-72"/>
     <use x="290.869141" xlink:href="#DejaVuSans-61"/>
     <use x="352.148438" xlink:href="#DejaVuSans-62"/>
     <use x="415.625" xlink:href="#DejaVuSans-6c"/>
     <use x="443.408203" xlink:href="#DejaVuSans-65"/>
     <use x="504.931641" xlink:href="#DejaVuSans-20"/>
     <use x="536.71875" xlink:href="#DejaVuSans-66"/>
     <use x="571.923828" xlink:href="#DejaVuSans-75"/>
     <use x="635.302734" xlink:href="#DejaVuSans-6e"/>
     <use x="698.681641" xlink:href="#DejaVuSans-63"/>
     <use x="753.662109" xlink:href="#DejaVuSans-74"/>
     <use x="792.871094" xlink:href="#DejaVuSans-69"/>
     <use x="820.654297" xlink:href="#DejaVuSans-6f"/>
     <use x="881.835938" xlink:href="#DejaVuSans-6e"/>
     <use x="945.214844" xlink:href="#DejaVuSans-73"/>
     <use x="997.314453" xlink:href="#DejaVuSans-2c"/>
     <use x="1029.101562" xlink:href="#DejaVuSans-20"/>
     <use x="1060.888672" xlink:href="#DejaVuSans-31"/>
     <use x="1124.511719" xlink:href="#DejaVuSans-30"/>
     <use x="1188.134766" xlink:href="#DejaVuSans-2d"/>
     <use x="1224.21875" xlink:href="#DejaVuSans-44"/>
    </g>
    <!-- 51 targets in 100..1e-08 -->
    <g transform="translate(74.3712 87.425723)scale(0.1666 -0.1666)">
     <use xlink:href="#DejaVuSans-35"/>
     <use x="63.623047" xlink:href="#DejaVuSans-31"/>
     <use x="127.246094" xlink:href="#DejaVuSans-20"/>
     <use x="159.033203" xlink:href="#DejaVuSans-74"/>
     <use x="198.242188" xlink:href="#DejaVuSans-61"/>
     <use x="259.521484" xlink:href="#DejaVuSans-72"/>
     <use x="300.619141" xlink:href="#DejaVuSans-67"/>
     <use x="364.095703" xlink:href="#DejaVuSans-65"/>
     <use x="425.619141" xlink:href="#DejaVuSans-74"/>
     <use x="464.828125" xlink:href="#DejaVuSans-73"/>
     <use x="516.927734" xlink:href="#DejaVuSans-20"/>
     <use x="548.714844" xlink:href="#DejaVuSans-69"/>
     <use x="576.498047" xlink:href="#DejaVuSans-6e"/>
     <use x="639.876953" xlink:href="#DejaVuSans-20"/>
     <use x="671.664062" xlink:href="#DejaVuSans-31"/>
     <use x="735.287109" xlink:href="#DejaVuSans-30"/>
     <use x="798.910156" xlink:href="#DejaVuSans-30"/>
     <use x="862.533203" xlink:href="#DejaVuSans-2e"/>
     <use x="894.320312" xlink:href="#DejaVuSans-2e"/>
     <use x="926.107422" xlink:href="#DejaVuSans-31"/>
     <use x="989.730469" xlink:href="#DejaVuSans-65"/>
     <use x="1051.253906" xlink:href="#DejaVuSans-2d"/>
     <use x="1087.337891" xlink:href="#DejaVuSans-30"/>
     <use x="1150.960938" xlink:href="#DejaVuSans-38"/>
    </g>
    <!-- 15 instances -->
    <g transform="translate(74.3712 106.081279)scale(0.1666 -0.1666)">
     <use xlink:href="#DejaVuSans-31"/>
     <use x="63.623047" xlink:href="#DejaVuSans-35"/>
     <use x="127.246094" xlink:href="#DejaVuSans-20"/>
     <use x="159.033203" xlink:href="#DejaVuSans-69"/>
     <use x="186.816406" xlink:href="#DejaVuSans-6e"/>
     <use x="250.195312" xlink:href="#DejaVuSans-73"/>
     <use x="302.294922" xlink:href="#DejaVuSans-74"/>
     <use x="341.503906" xlink:href="#DejaVuSans-61"/>
     <use x="402.783203" xlink:href="#DejaVuSans-6e"/>
     <use x="466.162109" xlink:href="#DejaVuSans-63"/>
     <use x="521.142578" xlink:href="#DejaVuSans-65"/>
     <use x="582.666016" xlink:href="#DejaVuSans-73"/>
    </g>
   </g>
   <g id="text_20">
    <!-- v2.0.1 -->
    <g style="fill:#808080;" transform="translate(233.67875 293.504568)scale(0.1 -0.1)">
     <use xlink:href="#DejaVuSans-76"/>
     <use x="59.179688" xlink:href="#DejaVuSans-32"/>
     <use x="122.802734" xlink:href="#DejaVuSans-2e"/>
     <use x="154.589844" xlink:href="#DejaVuSans-30"/>
     <use x="218.212891" xlink:href="#DejaVuSans-2e"/>
     <use x="250" xlink:href="#DejaVuSans-31"/>
    </g>
   </g>
  </g>
 </g>
 <defs>
  <clipPath id="pbaeeb9d68f">
   <rect height="266.112" width="357.12" x="70.8" y="32.133375"/>
  </clipPath>
 </defs>
</svg>
