<?xml version="1.0" encoding="utf-8" standalone="no"?>
<!DOCTYPE svg PUBLIC "-//W3C//DTD SVG 1.1//EN"
  "http://www.w3.org/Graphics/SVG/1.1/DTD/svg11.dtd">
<!-- Created with matplotlib (http://matplotlib.org/) -->
<svg height="353pt" version="1.1" viewBox="0 0 438 353" width="438pt" xmlns="http://www.w3.org/2000/svg" xmlns:xlink="http://www.w3.org/1999/xlink">
 <defs>
  <style type="text/css">
*{stroke-linecap:butt;stroke-linejoin:round;}
  </style>
 </defs>
 <g id="figure_1">
  <g id="patch_1">
   <path d="M 0 353.22225 
L 438.62 353.22225 
L 438.62 0 
L 0 0 
z
" style="fill:#ffffff;"/>
  </g>
  <g id="axes_1">
   <g id="patch_2">
    <path d="M 70.8 298.245375 
L 427.92 298.245375 
L 427.92 32.133375 
L 70.8 32.133375 
z
" style="fill:#ffffff;"/>
   </g>
   <g id="matplotlib.axis_1">
    <g id="xtick_1">
     <g id="line2d_1">
      <path clip-path="url(#p401d06bb7f)" d="M 70.8 298.245375 
L 70.8 32.133375 
" style="fill:none;stroke:#b0b0b0;stroke-linecap:square;stroke-width:0.8;"/>
     </g>
     <g id="line2d_2">
      <defs>
       <path d="M 0 0 
L 0 3.5 
" id="me0c1e49a10" style="stroke:#000000;stroke-width:0.8;"/>
      </defs>
      <g>
       <use style="stroke:#000000;stroke-width:0.8;" x="70.8" xlink:href="#me0c1e49a10" y="298.245375"/>
      </g>
     </g>
     <g id="text_1">
      <!-- 0 -->
      <defs>
       <path d="M 31.78125 66.40625 
Q 24.171875 66.40625 20.328125 58.90625 
Q 16.5 51.421875 16.5 36.375 
Q 16.5 21.390625 20.328125 13.890625 
Q 24.171875 6.390625 31.78125 6.390625 
Q 39.453125 6.390625 43.28125 13.890625 
Q 47.125 21.390625 47.125 36.375 
Q 47.125 51.421875 43.28125 58.90625 
Q 39.453125 66.40625 31.78125 66.40625 
M 31.78125 74.21875 
Q 44.046875 74.21875 50.515625 64.515625 
Q 56.984375 54.828125 56.984375 36.375 
Q 56.984375 17.96875 50.515625 8.265625 
Q 44.046875 -1.421875 31.78125 -1.421875 
Q 19.53125 -1.421875 13.0625 8.265625 
Q 6.59375 17.96875 6.59375 36.375 
Q 6.59375 54.828125 13.0625 64.515625 
Q 19.53125 74.21875 31.78125 74.21875 
" id="DejaVuSans-30"/>
      </defs>
      <g transform="translate(64.4375 320.44225)scale(0.2 -0.2)">
       <use xlink:href="#DejaVuSans-30"/>
      </g>
     </g>
    </g>
    <g id="xtick_2">
     <g id="line2d_3">
      <path clip-path="url(#p401d06bb7f)" d="M 153.085714 298.245375 
L 153.085714 32.133375 
" style="fill:none;stroke:#b0b0b0;stroke-linecap:square;stroke-width:0.8;"/>
     </g>
     <g id="line2d_4">
      <g>
       <use style="stroke:#000000;stroke-width:0.8;" x="153.085714" xlink:href="#me0c1e49a10" y="298.245375"/>
      </g>
     </g>
     <g id="text_2">
      <!-- 2 -->
      <defs>
       <path d="M 19.1875 8.296875 
L 53.609375 8.296875 
L 53.609375 0 
L 7.328125 0 
L 7.328125 8.296875 
Q 12.9375 14.109375 22.625 23.890625 
Q 32.328125 33.6875 34.8125 36.53125 
Q 39.546875 41.84375 41.421875 45.53125 
Q 43.3125 49.21875 43.3125 52.78125 
Q 43.3125 58.59375 39.234375 62.25 
Q 35.15625 65.921875 28.609375 65.921875 
Q 23.96875 65.921875 18.8125 64.3125 
Q 13.671875 62.703125 7.8125 59.421875 
L 7.8125 69.390625 
Q 13.765625 71.78125 18.9375 73 
Q 24.125 74.21875 28.421875 74.21875 
Q 39.75 74.21875 46.484375 68.546875 
Q 53.21875 62.890625 53.21875 53.421875 
Q 53.21875 48.921875 51.53125 44.890625 
Q 49.859375 40.875 45.40625 35.40625 
Q 44.1875 33.984375 37.640625 27.21875 
Q 31.109375 20.453125 19.1875 8.296875 
" id="DejaVuSans-32"/>
      </defs>
      <g transform="translate(146.723214 320.44225)scale(0.2 -0.2)">
       <use xlink:href="#DejaVuSans-32"/>
      </g>
     </g>
    </g>
    <g id="xtick_3">
     <g id="line2d_5">
      <path clip-path="url(#p401d06bb7f)" d="M 235.371429 298.245375 
L 235.371429 32.133375 
" style="fill:none;stroke:#b0b0b0;stroke-linecap:square;stroke-width:0.8;"/>
     </g>
     <g id="line2d_6">
      <g>
       <use style="stroke:#000000;stroke-width:0.8;" x="235.371429" xlink:href="#me0c1e49a10" y="298.245375"/>
      </g>
     </g>
     <g id="text_3">
      <!-- 4 -->
      <defs>
       <path d="M 37.796875 64.3125 
L 12.890625 25.390625 
L 37.796875 25.390625 
z
M 35.203125 72.90625 
L 47.609375 72.90625 
L 47.609375 25.390625 
L 58.015625 25.390625 
L 58.015625 17.1875 
L 47.609375 17.1875 
L 47.609375 0 
L 37.796875 0 
L 37.796875 17.1875 
L 4.890625 17.1875 
L 4.890625 26.703125 
z
" id="DejaVuSans-34"/>
      </defs>
      <g transform="translate(229.008929 320.44225)scale(0.2 -0.2)">
       <use xlink:href="#DejaVuSans-34"/>
      </g>
     </g>
    </g>
    <g id="xtick_4">
     <g id="line2d_7">
      <path clip-path="url(#p401d06bb7f)" d="M 317.657143 298.245375 
L 317.657143 32.133375 
" style="fill:none;stroke:#b0b0b0;stroke-linecap:square;stroke-width:0.8;"/>
     </g>
     <g id="line2d_8">
      <g>
       <use style="stroke:#000000;stroke-width:0.8;" x="317.657143" xlink:href="#me0c1e49a10" y="298.245375"/>
      </g>
     </g>
     <g id="text_4">
      <!-- 6 -->
      <defs>
       <path d="M 33.015625 40.375 
Q 26.375 40.375 22.484375 35.828125 
Q 18.609375 31.296875 18.609375 23.390625 
Q 18.609375 15.53125 22.484375 10.953125 
Q 26.375 6.390625 33.015625 6.390625 
Q 39.65625 6.390625 43.53125 10.953125 
Q 47.40625 15.53125 47.40625 23.390625 
Q 47.40625 31.296875 43.53125 35.828125 
Q 39.65625 40.375 33.015625 40.375 
M 52.59375 71.296875 
L 52.59375 62.3125 
Q 48.875 64.0625 45.09375 64.984375 
Q 41.3125 65.921875 37.59375 65.921875 
Q 27.828125 65.921875 22.671875 59.328125 
Q 17.53125 52.734375 16.796875 39.40625 
Q 19.671875 43.65625 24.015625 45.921875 
Q 28.375 48.1875 33.59375 48.1875 
Q 44.578125 48.1875 50.953125 41.515625 
Q 57.328125 34.859375 57.328125 23.390625 
Q 57.328125 12.15625 50.6875 5.359375 
Q 44.046875 -1.421875 33.015625 -1.421875 
Q 20.359375 -1.421875 13.671875 8.265625 
Q 6.984375 17.96875 6.984375 36.375 
Q 6.984375 53.65625 15.1875 63.9375 
Q 23.390625 74.21875 37.203125 74.21875 
Q 40.921875 74.21875 44.703125 73.484375 
Q 48.484375 72.75 52.59375 71.296875 
" id="DejaVuSans-36"/>
      </defs>
      <g transform="translate(311.294643 320.44225)scale(0.2 -0.2)">
       <use xlink:href="#DejaVuSans-36"/>
      </g>
     </g>
    </g>
    <g id="xtick_5">
     <g id="line2d_9">
      <path clip-path="url(#p401d06bb7f)" d="M 399.942857 298.245375 
L 399.942857 32.133375 
" style="fill:none;stroke:#b0b0b0;stroke-linecap:square;stroke-width:0.8;"/>
     </g>
     <g id="line2d_10">
      <g>
       <use style="stroke:#000000;stroke-width:0.8;" x="399.942857" xlink:href="#me0c1e49a10" y="298.245375"/>
      </g>
     </g>
     <g id="text_5">
      <!-- 8 -->
      <defs>
       <path d="M 31.78125 34.625 
Q 24.75 34.625 20.71875 30.859375 
Q 16.703125 27.09375 16.703125 20.515625 
Q 16.703125 13.921875 20.71875 10.15625 
Q 24.75 6.390625 31.78125 6.390625 
Q 38.8125 6.390625 42.859375 10.171875 
Q 46.921875 13.96875 46.921875 20.515625 
Q 46.921875 27.09375 42.890625 30.859375 
Q 38.875 34.625 31.78125 34.625 
M 21.921875 38.8125 
Q 15.578125 40.375 12.03125 44.71875 
Q 8.5 49.078125 8.5 55.328125 
Q 8.5 64.0625 14.71875 69.140625 
Q 20.953125 74.21875 31.78125 74.21875 
Q 42.671875 74.21875 48.875 69.140625 
Q 55.078125 64.0625 55.078125 55.328125 
Q 55.078125 49.078125 51.53125 44.71875 
Q 48 40.375 41.703125 38.8125 
Q 48.828125 37.15625 52.796875 32.3125 
Q 56.78125 27.484375 56.78125 20.515625 
Q 56.78125 9.90625 50.3125 4.234375 
Q 43.84375 -1.421875 31.78125 -1.421875 
Q 19.734375 -1.421875 13.25 4.234375 
Q 6.78125 9.90625 6.78125 20.515625 
Q 6.78125 27.484375 10.78125 32.3125 
Q 14.796875 37.15625 21.921875 38.8125 
M 18.3125 54.390625 
Q 18.3125 48.734375 21.84375 45.5625 
Q 25.390625 42.390625 31.78125 42.390625 
Q 38.140625 42.390625 41.71875 45.5625 
Q 45.3125 48.734375 45.3125 54.390625 
Q 45.3125 60.0625 41.71875 63.234375 
Q 38.140625 66.40625 31.78125 66.40625 
Q 25.390625 66.40625 21.84375 63.234375 
Q 18.3125 60.0625 18.3125 54.390625 
" id="DejaVuSans-38"/>
      </defs>
      <g transform="translate(393.580357 320.44225)scale(0.2 -0.2)">
       <use xlink:href="#DejaVuSans-38"/>
      </g>
     </g>
    </g>
    <g id="xtick_6">
     <g id="line2d_11">
      <defs>
       <path d="M 0 0 
L 0 2 
" id="mabfd9dd8b0" style="stroke:#000000;stroke-width:0.6;"/>
      </defs>
      <g>
       <use style="stroke:#000000;stroke-width:0.6;" x="83.185234" xlink:href="#mabfd9dd8b0" y="298.245375"/>
      </g>
     </g>
    </g>
    <g id="xtick_7">
     <g id="line2d_12">
      <g>
       <use style="stroke:#000000;stroke-width:0.6;" x="95.570468" xlink:href="#mabfd9dd8b0" y="298.245375"/>
      </g>
     </g>
    </g>
    <g id="xtick_8">
     <g id="line2d_13">
      <g>
       <use style="stroke:#000000;stroke-width:0.6;" x="102.815366" xlink:href="#mabfd9dd8b0" y="298.245375"/>
      </g>
     </g>
    </g>
    <g id="xtick_9">
     <g id="line2d_14">
      <g>
       <use style="stroke:#000000;stroke-width:0.6;" x="107.955702" xlink:href="#mabfd9dd8b0" y="298.245375"/>
      </g>
     </g>
    </g>
    <g id="xtick_10">
     <g id="line2d_15">
      <g>
       <use style="stroke:#000000;stroke-width:0.6;" x="165.470948" xlink:href="#mabfd9dd8b0" y="298.245375"/>
      </g>
     </g>
    </g>
    <g id="xtick_11">
     <g id="line2d_16">
      <g>
       <use style="stroke:#000000;stroke-width:0.6;" x="177.856183" xlink:href="#mabfd9dd8b0" y="298.245375"/>
      </g>
     </g>
    </g>
    <g id="xtick_12">
     <g id="line2d_17">
      <g>
       <use style="stroke:#000000;stroke-width:0.6;" x="185.10108" xlink:href="#mabfd9dd8b0" y="298.245375"/>
      </g>
     </g>
    </g>
    <g id="xtick_13">
     <g id="line2d_18">
      <g>
       <use style="stroke:#000000;stroke-width:0.6;" x="190.241417" xlink:href="#mabfd9dd8b0" y="298.245375"/>
      </g>
     </g>
    </g>
    <g id="xtick_14">
     <g id="line2d_19">
      <g>
       <use style="stroke:#000000;stroke-width:0.6;" x="247.756663" xlink:href="#mabfd9dd8b0" y="298.245375"/>
      </g>
     </g>
    </g>
    <g id="xtick_15">
     <g id="line2d_20">
      <g>
       <use style="stroke:#000000;stroke-width:0.6;" x="260.141897" xlink:href="#mabfd9dd8b0" y="298.245375"/>
      </g>
     </g>
    </g>
    <g id="xtick_16">
     <g id="line2d_21">
      <g>
       <use style="stroke:#000000;stroke-width:0.6;" x="267.386794" xlink:href="#mabfd9dd8b0" y="298.245375"/>
      </g>
     </g>
    </g>
    <g id="xtick_17">
     <g id="line2d_22">
      <g>
       <use style="stroke:#000000;stroke-width:0.6;" x="272.527131" xlink:href="#mabfd9dd8b0" y="298.245375"/>
      </g>
     </g>
    </g>
    <g id="xtick_18">
     <g id="line2d_23">
      <g>
       <use style="stroke:#000000;stroke-width:0.6;" x="330.042377" xlink:href="#mabfd9dd8b0" y="298.245375"/>
      </g>
     </g>
    </g>
    <g id="xtick_19">
     <g id="line2d_24">
      <g>
       <use style="stroke:#000000;stroke-width:0.6;" x="342.427611" xlink:href="#mabfd9dd8b0" y="298.245375"/>
      </g>
     </g>
    </g>
    <g id="xtick_20">
     <g id="line2d_25">
      <g>
       <use style="stroke:#000000;stroke-width:0.6;" x="349.672509" xlink:href="#mabfd9dd8b0" y="298.245375"/>
      </g>
     </g>
    </g>
    <g id="xtick_21">
     <g id="line2d_26">
      <g>
       <use style="stroke:#000000;stroke-width:0.6;" x="354.812845" xlink:href="#mabfd9dd8b0" y="298.245375"/>
      </g>
     </g>
    </g>
    <g id="xtick_22">
     <g id="line2d_27">
      <g>
       <use style="stroke:#000000;stroke-width:0.6;" x="412.328091" xlink:href="#mabfd9dd8b0" y="298.245375"/>
      </g>
     </g>
    </g>
    <g id="xtick_23">
     <g id="line2d_28">
      <g>
       <use style="stroke:#000000;stroke-width:0.6;" x="424.713325" xlink:href="#mabfd9dd8b0" y="298.245375"/>
      </g>
     </g>
    </g>
    <g id="text_6">
     <!-- log10 of (# f-evals / dimension) -->
     <defs>
      <path d="M 9.421875 75.984375 
L 18.40625 75.984375 
L 18.40625 0 
L 9.421875 0 
z
" id="DejaVuSans-6c"/>
      <path d="M 30.609375 48.390625 
Q 23.390625 48.390625 19.1875 42.75 
Q 14.984375 37.109375 14.984375 27.296875 
Q 14.984375 17.484375 19.15625 11.84375 
Q 23.34375 6.203125 30.609375 6.203125 
Q 37.796875 6.203125 41.984375 11.859375 
Q 46.1875 17.53125 46.1875 27.296875 
Q 46.1875 37.015625 41.984375 42.703125 
Q 37.796875 48.390625 30.609375 48.390625 
M 30.609375 56 
Q 42.328125 56 49.015625 48.375 
Q 55.71875 40.765625 55.71875 27.296875 
Q 55.71875 13.875 49.015625 6.21875 
Q 42.328125 -1.421875 30.609375 -1.421875 
Q 18.84375 -1.421875 12.171875 6.21875 
Q 5.515625 13.875 5.515625 27.296875 
Q 5.515625 40.765625 12.171875 48.375 
Q 18.84375 56 30.609375 56 
" id="DejaVuSans-6f"/>
      <path d="M 45.40625 27.984375 
Q 45.40625 37.75 41.375 43.109375 
Q 37.359375 48.484375 30.078125 48.484375 
Q 22.859375 48.484375 18.828125 43.109375 
Q 14.796875 37.75 14.796875 27.984375 
Q 14.796875 18.265625 18.828125 12.890625 
Q 22.859375 7.515625 30.078125 7.515625 
Q 37.359375 7.515625 41.375 12.890625 
Q 45.40625 18.265625 45.40625 27.984375 
M 54.390625 6.78125 
Q 54.390625 -7.171875 48.1875 -13.984375 
Q 42 -20.796875 29.203125 -20.796875 
Q 24.46875 -20.796875 20.265625 -20.09375 
Q 16.0625 -19.390625 12.109375 -17.921875 
L 12.109375 -9.1875 
Q 16.0625 -11.328125 19.921875 -12.34375 
Q 23.78125 -13.375 27.78125 -13.375 
Q 36.625 -13.375 41.015625 -8.765625 
Q 45.40625 -4.15625 45.40625 5.171875 
L 45.40625 9.625 
Q 42.625 4.78125 38.28125 2.390625 
Q 33.9375 0 27.875 0 
Q 17.828125 0 11.671875 7.65625 
Q 5.515625 15.328125 5.515625 27.984375 
Q 5.515625 40.671875 11.671875 48.328125 
Q 17.828125 56 27.875 56 
Q 33.9375 56 38.28125 53.609375 
Q 42.625 51.21875 45.40625 46.390625 
L 45.40625 54.6875 
L 54.390625 54.6875 
z
" id="DejaVuSans-67"/>
      <path d="M 12.40625 8.296875 
L 28.515625 8.296875 
L 28.515625 63.921875 
L 10.984375 60.40625 
L 10.984375 69.390625 
L 28.421875 72.90625 
L 38.28125 72.90625 
L 38.28125 8.296875 
L 54.390625 8.296875 
L 54.390625 0 
L 12.40625 0 
z
" id="DejaVuSans-31"/>
      <path id="DejaVuSans-20"/>
      <path d="M 37.109375 75.984375 
L 37.109375 68.5 
L 28.515625 68.5 
Q 23.6875 68.5 21.796875 66.546875 
Q 19.921875 64.59375 19.921875 59.515625 
L 19.921875 54.6875 
L 34.71875 54.6875 
L 34.71875 47.703125 
L 19.921875 47.703125 
L 19.921875 0 
L 10.890625 0 
L 10.890625 47.703125 
L 2.296875 47.703125 
L 2.296875 54.6875 
L 10.890625 54.6875 
L 10.890625 58.5 
Q 10.890625 67.625 15.140625 71.796875 
Q 19.390625 75.984375 28.609375 75.984375 
z
" id="DejaVuSans-66"/>
      <path d="M 31 75.875 
Q 24.46875 64.65625 21.28125 53.65625 
Q 18.109375 42.671875 18.109375 31.390625 
Q 18.109375 20.125 21.3125 9.0625 
Q 24.515625 -2 31 -13.1875 
L 23.1875 -13.1875 
Q 15.875 -1.703125 12.234375 9.375 
Q 8.59375 20.453125 8.59375 31.390625 
Q 8.59375 42.28125 12.203125 53.3125 
Q 15.828125 64.359375 23.1875 75.875 
z
" id="DejaVuSans-28"/>
      <path d="M 51.125 44 
L 36.921875 44 
L 32.8125 27.6875 
L 47.125 27.6875 
z
M 43.796875 71.78125 
L 38.71875 51.515625 
L 52.984375 51.515625 
L 58.109375 71.78125 
L 65.921875 71.78125 
L 60.890625 51.515625 
L 76.125 51.515625 
L 76.125 44 
L 58.984375 44 
L 54.984375 27.6875 
L 70.515625 27.6875 
L 70.515625 20.21875 
L 53.078125 20.21875 
L 48 0 
L 40.1875 0 
L 45.21875 20.21875 
L 30.90625 20.21875 
L 25.875 0 
L 18.015625 0 
L 23.09375 20.21875 
L 7.71875 20.21875 
L 7.71875 27.6875 
L 24.90625 27.6875 
L 29 44 
L 13.28125 44 
L 13.28125 51.515625 
L 30.90625 51.515625 
L 35.890625 71.78125 
z
" id="DejaVuSans-23"/>
      <path d="M 4.890625 31.390625 
L 31.203125 31.390625 
L 31.203125 23.390625 
L 4.890625 23.390625 
z
" id="DejaVuSans-2d"/>
      <path d="M 56.203125 29.59375 
L 56.203125 25.203125 
L 14.890625 25.203125 
Q 15.484375 15.921875 20.484375 11.0625 
Q 25.484375 6.203125 34.421875 6.203125 
Q 39.59375 6.203125 44.453125 7.46875 
Q 49.3125 8.734375 54.109375 11.28125 
L 54.109375 2.78125 
Q 49.265625 0.734375 44.1875 -0.34375 
Q 39.109375 -1.421875 33.890625 -1.421875 
Q 20.796875 -1.421875 13.15625 6.1875 
Q 5.515625 13.8125 5.515625 26.8125 
Q 5.515625 40.234375 12.765625 48.109375 
Q 20.015625 56 32.328125 56 
Q 43.359375 56 49.78125 48.890625 
Q 56.203125 41.796875 56.203125 29.59375 
M 47.21875 32.234375 
Q 47.125 39.59375 43.09375 43.984375 
Q 39.0625 48.390625 32.421875 48.390625 
Q 24.90625 48.390625 20.390625 44.140625 
Q 15.875 39.890625 15.1875 32.171875 
z
" id="DejaVuSans-65"/>
      <path d="M 2.984375 54.6875 
L 12.5 54.6875 
L 29.59375 8.796875 
L 46.6875 54.6875 
L 56.203125 54.6875 
L 35.6875 0 
L 23.484375 0 
z
" id="DejaVuSans-76"/>
      <path d="M 34.28125 27.484375 
Q 23.390625 27.484375 19.1875 25 
Q 14.984375 22.515625 14.984375 16.5 
Q 14.984375 11.71875 18.140625 8.90625 
Q 21.296875 6.109375 26.703125 6.109375 
Q 34.1875 6.109375 38.703125 11.40625 
Q 43.21875 16.703125 43.21875 25.484375 
L 43.21875 27.484375 
z
M 52.203125 31.203125 
L 52.203125 0 
L 43.21875 0 
L 43.21875 8.296875 
Q 40.140625 3.328125 35.546875 0.953125 
Q 30.953125 -1.421875 24.3125 -1.421875 
Q 15.921875 -1.421875 10.953125 3.296875 
Q 6 8.015625 6 15.921875 
Q 6 25.140625 12.171875 29.828125 
Q 18.359375 34.515625 30.609375 34.515625 
L 43.21875 34.515625 
L 43.21875 35.40625 
Q 43.21875 41.609375 39.140625 45 
Q 35.0625 48.390625 27.6875 48.390625 
Q 23 48.390625 18.546875 47.265625 
Q 14.109375 46.140625 10.015625 43.890625 
L 10.015625 52.203125 
Q 14.9375 54.109375 19.578125 55.046875 
Q 24.21875 56 28.609375 56 
Q 40.484375 56 46.34375 49.84375 
Q 52.203125 43.703125 52.203125 31.203125 
" id="DejaVuSans-61"/>
      <path d="M 44.28125 53.078125 
L 44.28125 44.578125 
Q 40.484375 46.53125 36.375 47.5 
Q 32.28125 48.484375 27.875 48.484375 
Q 21.1875 48.484375 17.84375 46.4375 
Q 14.5 44.390625 14.5 40.28125 
Q 14.5 37.15625 16.890625 35.375 
Q 19.28125 33.59375 26.515625 31.984375 
L 29.59375 31.296875 
Q 39.15625 29.25 43.1875 25.515625 
Q 47.21875 21.78125 47.21875 15.09375 
Q 47.21875 7.46875 41.1875 3.015625 
Q 35.15625 -1.421875 24.609375 -1.421875 
Q 20.21875 -1.421875 15.453125 -0.5625 
Q 10.6875 0.296875 5.421875 2 
L 5.421875 11.28125 
Q 10.40625 8.6875 15.234375 7.390625 
Q 20.0625 6.109375 24.8125 6.109375 
Q 31.15625 6.109375 34.5625 8.28125 
Q 37.984375 10.453125 37.984375 14.40625 
Q 37.984375 18.0625 35.515625 20.015625 
Q 33.0625 21.96875 24.703125 23.78125 
L 21.578125 24.515625 
Q 13.234375 26.265625 9.515625 29.90625 
Q 5.8125 33.546875 5.8125 39.890625 
Q 5.8125 47.609375 11.28125 51.796875 
Q 16.75 56 26.8125 56 
Q 31.78125 56 36.171875 55.265625 
Q 40.578125 54.546875 44.28125 53.078125 
" id="DejaVuSans-73"/>
      <path d="M 25.390625 72.90625 
L 33.6875 72.90625 
L 8.296875 -9.28125 
L 0 -9.28125 
z
" id="DejaVuSans-2f"/>
      <path d="M 45.40625 46.390625 
L 45.40625 75.984375 
L 54.390625 75.984375 
L 54.390625 0 
L 45.40625 0 
L 45.40625 8.203125 
Q 42.578125 3.328125 38.25 0.953125 
Q 33.9375 -1.421875 27.875 -1.421875 
Q 17.96875 -1.421875 11.734375 6.484375 
Q 5.515625 14.40625 5.515625 27.296875 
Q 5.515625 40.1875 11.734375 48.09375 
Q 17.96875 56 27.875 56 
Q 33.9375 56 38.25 53.625 
Q 42.578125 51.265625 45.40625 46.390625 
M 14.796875 27.296875 
Q 14.796875 17.390625 18.875 11.75 
Q 22.953125 6.109375 30.078125 6.109375 
Q 37.203125 6.109375 41.296875 11.75 
Q 45.40625 17.390625 45.40625 27.296875 
Q 45.40625 37.203125 41.296875 42.84375 
Q 37.203125 48.484375 30.078125 48.484375 
Q 22.953125 48.484375 18.875 42.84375 
Q 14.796875 37.203125 14.796875 27.296875 
" id="DejaVuSans-64"/>
      <path d="M 9.421875 54.6875 
L 18.40625 54.6875 
L 18.40625 0 
L 9.421875 0 
z
M 9.421875 75.984375 
L 18.40625 75.984375 
L 18.40625 64.59375 
L 9.421875 64.59375 
z
" id="DejaVuSans-69"/>
      <path d="M 52 44.1875 
Q 55.375 50.25 60.0625 53.125 
Q 64.75 56 71.09375 56 
Q 79.640625 56 84.28125 50.015625 
Q 88.921875 44.046875 88.921875 33.015625 
L 88.921875 0 
L 79.890625 0 
L 79.890625 32.71875 
Q 79.890625 40.578125 77.09375 44.375 
Q 74.3125 48.1875 68.609375 48.1875 
Q 61.625 48.1875 57.5625 43.546875 
Q 53.515625 38.921875 53.515625 30.90625 
L 53.515625 0 
L 44.484375 0 
L 44.484375 32.71875 
Q 44.484375 40.625 41.703125 44.40625 
Q 38.921875 48.1875 33.109375 48.1875 
Q 26.21875 48.1875 22.15625 43.53125 
Q 18.109375 38.875 18.109375 30.90625 
L 18.109375 0 
L 9.078125 0 
L 9.078125 54.6875 
L 18.109375 54.6875 
L 18.109375 46.1875 
Q 21.1875 51.21875 25.484375 53.609375 
Q 29.78125 56 35.6875 56 
Q 41.65625 56 45.828125 52.96875 
Q 50 49.953125 52 44.1875 
" id="DejaVuSans-6d"/>
      <path d="M 54.890625 33.015625 
L 54.890625 0 
L 45.90625 0 
L 45.90625 32.71875 
Q 45.90625 40.484375 42.875 44.328125 
Q 39.84375 48.1875 33.796875 48.1875 
Q 26.515625 48.1875 22.3125 43.546875 
Q 18.109375 38.921875 18.109375 30.90625 
L 18.109375 0 
L 9.078125 0 
L 9.078125 54.6875 
L 18.109375 54.6875 
L 18.109375 46.1875 
Q 21.34375 51.125 25.703125 53.5625 
Q 30.078125 56 35.796875 56 
Q 45.21875 56 50.046875 50.171875 
Q 54.890625 44.34375 54.890625 33.015625 
" id="DejaVuSans-6e"/>
      <path d="M 8.015625 75.875 
L 15.828125 75.875 
Q 23.140625 64.359375 26.78125 53.3125 
Q 30.421875 42.28125 30.421875 31.390625 
Q 30.421875 20.453125 26.78125 9.375 
Q 23.140625 -1.703125 15.828125 -13.1875 
L 8.015625 -13.1875 
Q 14.5 -2 17.703125 9.0625 
Q 20.90625 20.125 20.90625 31.390625 
Q 20.90625 42.671875 17.703125 53.65625 
Q 14.5 64.65625 8.015625 75.875 
" id="DejaVuSans-29"/>
     </defs>
     <g transform="translate(107.015156 342.278812)scale(0.18 -0.18)">
      <use xlink:href="#DejaVuSans-6c"/>
      <use x="27.783203" xlink:href="#DejaVuSans-6f"/>
      <use x="88.964844" xlink:href="#DejaVuSans-67"/>
      <use x="152.441406" xlink:href="#DejaVuSans-31"/>
      <use x="216.064453" xlink:href="#DejaVuSans-30"/>
      <use x="279.6875" xlink:href="#DejaVuSans-20"/>
      <use x="311.474609" xlink:href="#DejaVuSans-6f"/>
      <use x="372.65625" xlink:href="#DejaVuSans-66"/>
      <use x="407.861328" xlink:href="#DejaVuSans-20"/>
      <use x="439.648438" xlink:href="#DejaVuSans-28"/>
      <use x="478.662109" xlink:href="#DejaVuSans-23"/>
      <use x="562.451172" xlink:href="#DejaVuSans-20"/>
      <use x="594.238281" xlink:href="#DejaVuSans-66"/>
      <use x="629.365234" xlink:href="#DejaVuSans-2d"/>
      <use x="665.449219" xlink:href="#DejaVuSans-65"/>
      <use x="726.972656" xlink:href="#DejaVuSans-76"/>
      <use x="786.152344" xlink:href="#DejaVuSans-61"/>
      <use x="847.431641" xlink:href="#DejaVuSans-6c"/>
      <use x="875.214844" xlink:href="#DejaVuSans-73"/>
      <use x="927.314453" xlink:href="#DejaVuSans-20"/>
      <use x="959.101562" xlink:href="#DejaVuSans-2f"/>
      <use x="992.792969" xlink:href="#DejaVuSans-20"/>
      <use x="1024.580078" xlink:href="#DejaVuSans-64"/>
      <use x="1088.056641" xlink:href="#DejaVuSans-69"/>
      <use x="1115.839844" xlink:href="#DejaVuSans-6d"/>
      <use x="1213.251953" xlink:href="#DejaVuSans-65"/>
      <use x="1274.775391" xlink:href="#DejaVuSans-6e"/>
      <use x="1338.154297" xlink:href="#DejaVuSans-73"/>
      <use x="1390.253906" xlink:href="#DejaVuSans-69"/>
      <use x="1418.037109" xlink:href="#DejaVuSans-6f"/>
      <use x="1479.21875" xlink:href="#DejaVuSans-6e"/>
      <use x="1542.597656" xlink:href="#DejaVuSans-29"/>
     </g>
    </g>
   </g>
   <g id="matplotlib.axis_2">
    <g id="ytick_1">
     <g id="line2d_29">
      <path clip-path="url(#p401d06bb7f)" d="M 70.8 298.245375 
L 427.92 298.245375 
" style="fill:none;stroke:#b0b0b0;stroke-linecap:square;stroke-width:0.8;"/>
     </g>
     <g id="line2d_30">
      <defs>
       <path d="M 0 0 
L -3.5 0 
" id="m70e7d024dc" style="stroke:#000000;stroke-width:0.8;"/>
      </defs>
      <g>
       <use style="stroke:#000000;stroke-width:0.8;" x="70.8" xlink:href="#m70e7d024dc" y="298.245375"/>
      </g>
     </g>
     <g id="text_7">
      <!-- 0.0 -->
      <defs>
       <path d="M 10.6875 12.40625 
L 21 12.40625 
L 21 0 
L 10.6875 0 
z
" id="DejaVuSans-2e"/>
      </defs>
      <g transform="translate(31.99375 305.843812)scale(0.2 -0.2)">
       <use xlink:href="#DejaVuSans-30"/>
       <use x="63.623047" xlink:href="#DejaVuSans-2e"/>
       <use x="95.410156" xlink:href="#DejaVuSans-30"/>
      </g>
     </g>
    </g>
    <g id="ytick_2">
     <g id="line2d_31">
      <path clip-path="url(#p401d06bb7f)" d="M 70.8 245.549929 
L 427.92 245.549929 
" style="fill:none;stroke:#b0b0b0;stroke-linecap:square;stroke-width:0.8;"/>
     </g>
     <g id="line2d_32">
      <g>
       <use style="stroke:#000000;stroke-width:0.8;" x="70.8" xlink:href="#m70e7d024dc" y="245.549929"/>
      </g>
     </g>
     <g id="text_8">
      <!-- 0.2 -->
      <g transform="translate(31.99375 253.148367)scale(0.2 -0.2)">
       <use xlink:href="#DejaVuSans-30"/>
       <use x="63.623047" xlink:href="#DejaVuSans-2e"/>
       <use x="95.410156" xlink:href="#DejaVuSans-32"/>
      </g>
     </g>
    </g>
    <g id="ytick_3">
     <g id="line2d_33">
      <path clip-path="url(#p401d06bb7f)" d="M 70.8 192.854484 
L 427.92 192.854484 
" style="fill:none;stroke:#b0b0b0;stroke-linecap:square;stroke-width:0.8;"/>
     </g>
     <g id="line2d_34">
      <g>
       <use style="stroke:#000000;stroke-width:0.8;" x="70.8" xlink:href="#m70e7d024dc" y="192.854484"/>
      </g>
     </g>
     <g id="text_9">
      <!-- 0.4 -->
      <g transform="translate(31.99375 200.452921)scale(0.2 -0.2)">
       <use xlink:href="#DejaVuSans-30"/>
       <use x="63.623047" xlink:href="#DejaVuSans-2e"/>
       <use x="95.410156" xlink:href="#DejaVuSans-34"/>
      </g>
     </g>
    </g>
    <g id="ytick_4">
     <g id="line2d_35">
      <path clip-path="url(#p401d06bb7f)" d="M 70.8 140.159038 
L 427.92 140.159038 
" style="fill:none;stroke:#b0b0b0;stroke-linecap:square;stroke-width:0.8;"/>
     </g>
     <g id="line2d_36">
      <g>
       <use style="stroke:#000000;stroke-width:0.8;" x="70.8" xlink:href="#m70e7d024dc" y="140.159038"/>
      </g>
     </g>
     <g id="text_10">
      <!-- 0.6 -->
      <g transform="translate(31.99375 147.757476)scale(0.2 -0.2)">
       <use xlink:href="#DejaVuSans-30"/>
       <use x="63.623047" xlink:href="#DejaVuSans-2e"/>
       <use x="95.410156" xlink:href="#DejaVuSans-36"/>
      </g>
     </g>
    </g>
    <g id="ytick_5">
     <g id="line2d_37">
      <path clip-path="url(#p401d06bb7f)" d="M 70.8 87.463593 
L 427.92 87.463593 
" style="fill:none;stroke:#b0b0b0;stroke-linecap:square;stroke-width:0.8;"/>
     </g>
     <g id="line2d_38">
      <g>
       <use style="stroke:#000000;stroke-width:0.8;" x="70.8" xlink:href="#m70e7d024dc" y="87.463593"/>
      </g>
     </g>
     <g id="text_11">
      <!-- 0.8 -->
      <g transform="translate(31.99375 95.06203)scale(0.2 -0.2)">
       <use xlink:href="#DejaVuSans-30"/>
       <use x="63.623047" xlink:href="#DejaVuSans-2e"/>
       <use x="95.410156" xlink:href="#DejaVuSans-38"/>
      </g>
     </g>
    </g>
    <g id="ytick_6">
     <g id="line2d_39">
      <path clip-path="url(#p401d06bb7f)" d="M 70.8 34.768147 
L 427.92 34.768147 
" style="fill:none;stroke:#b0b0b0;stroke-linecap:square;stroke-width:0.8;"/>
     </g>
     <g id="line2d_40">
      <g>
       <use style="stroke:#000000;stroke-width:0.8;" x="70.8" xlink:href="#m70e7d024dc" y="34.768147"/>
      </g>
     </g>
     <g id="text_12">
      <!-- 1.0 -->
      <g transform="translate(31.99375 42.366585)scale(0.2 -0.2)">
       <use xlink:href="#DejaVuSans-31"/>
       <use x="63.623047" xlink:href="#DejaVuSans-2e"/>
       <use x="95.410156" xlink:href="#DejaVuSans-30"/>
      </g>
     </g>
    </g>
    <g id="text_13">
     <!-- Proportion of function+target pairs -->
     <defs>
      <path d="M 19.671875 64.796875 
L 19.671875 37.40625 
L 32.078125 37.40625 
Q 38.96875 37.40625 42.71875 40.96875 
Q 46.484375 44.53125 46.484375 51.125 
Q 46.484375 57.671875 42.71875 61.234375 
Q 38.96875 64.796875 32.078125 64.796875 
z
M 9.8125 72.90625 
L 32.078125 72.90625 
Q 44.34375 72.90625 50.609375 67.359375 
Q 56.890625 61.8125 56.890625 51.125 
Q 56.890625 40.328125 50.609375 34.8125 
Q 44.34375 29.296875 32.078125 29.296875 
L 19.671875 29.296875 
L 19.671875 0 
L 9.8125 0 
z
" id="DejaVuSans-50"/>
      <path d="M 41.109375 46.296875 
Q 39.59375 47.171875 37.8125 47.578125 
Q 36.03125 48 33.890625 48 
Q 26.265625 48 22.1875 43.046875 
Q 18.109375 38.09375 18.109375 28.8125 
L 18.109375 0 
L 9.078125 0 
L 9.078125 54.6875 
L 18.109375 54.6875 
L 18.109375 46.1875 
Q 20.953125 51.171875 25.484375 53.578125 
Q 30.03125 56 36.53125 56 
Q 37.453125 56 38.578125 55.875 
Q 39.703125 55.765625 41.0625 55.515625 
z
" id="DejaVuSans-72"/>
      <path d="M 18.109375 8.203125 
L 18.109375 -20.796875 
L 9.078125 -20.796875 
L 9.078125 54.6875 
L 18.109375 54.6875 
L 18.109375 46.390625 
Q 20.953125 51.265625 25.265625 53.625 
Q 29.59375 56 35.59375 56 
Q 45.5625 56 51.78125 48.09375 
Q 58.015625 40.1875 58.015625 27.296875 
Q 58.015625 14.40625 51.78125 6.484375 
Q 45.5625 -1.421875 35.59375 -1.421875 
Q 29.59375 -1.421875 25.265625 0.953125 
Q 20.953125 3.328125 18.109375 8.203125 
M 48.6875 27.296875 
Q 48.6875 37.203125 44.609375 42.84375 
Q 40.53125 48.484375 33.40625 48.484375 
Q 26.265625 48.484375 22.1875 42.84375 
Q 18.109375 37.203125 18.109375 27.296875 
Q 18.109375 17.390625 22.1875 11.75 
Q 26.265625 6.109375 33.40625 6.109375 
Q 40.53125 6.109375 44.609375 11.75 
Q 48.6875 17.390625 48.6875 27.296875 
" id="DejaVuSans-70"/>
      <path d="M 18.3125 70.21875 
L 18.3125 54.6875 
L 36.8125 54.6875 
L 36.8125 47.703125 
L 18.3125 47.703125 
L 18.3125 18.015625 
Q 18.3125 11.328125 20.140625 9.421875 
Q 21.96875 7.515625 27.59375 7.515625 
L 36.8125 7.515625 
L 36.8125 0 
L 27.59375 0 
Q 17.1875 0 13.234375 3.875 
Q 9.28125 7.765625 9.28125 18.015625 
L 9.28125 47.703125 
L 2.6875 47.703125 
L 2.6875 54.6875 
L 9.28125 54.6875 
L 9.28125 70.21875 
z
" id="DejaVuSans-74"/>
      <path d="M 8.5 21.578125 
L 8.5 54.6875 
L 17.484375 54.6875 
L 17.484375 21.921875 
Q 17.484375 14.15625 20.5 10.265625 
Q 23.53125 6.390625 29.59375 6.390625 
Q 36.859375 6.390625 41.078125 11.03125 
Q 45.3125 15.671875 45.3125 23.6875 
L 45.3125 54.6875 
L 54.296875 54.6875 
L 54.296875 0 
L 45.3125 0 
L 45.3125 8.40625 
Q 42.046875 3.421875 37.71875 1 
Q 33.40625 -1.421875 27.6875 -1.421875 
Q 18.265625 -1.421875 13.375 4.4375 
Q 8.5 10.296875 8.5 21.578125 
M 31.109375 56 
z
" id="DejaVuSans-75"/>
      <path d="M 48.78125 52.59375 
L 48.78125 44.1875 
Q 44.96875 46.296875 41.140625 47.34375 
Q 37.3125 48.390625 33.40625 48.390625 
Q 24.65625 48.390625 19.8125 42.84375 
Q 14.984375 37.3125 14.984375 27.296875 
Q 14.984375 17.28125 19.8125 11.734375 
Q 24.65625 6.203125 33.40625 6.203125 
Q 37.3125 6.203125 41.140625 7.25 
Q 44.96875 8.296875 48.78125 10.40625 
L 48.78125 2.09375 
Q 45.015625 0.34375 40.984375 -0.53125 
Q 36.96875 -1.421875 32.421875 -1.421875 
Q 20.0625 -1.421875 12.78125 6.34375 
Q 5.515625 14.109375 5.515625 27.296875 
Q 5.515625 40.671875 12.859375 48.328125 
Q 20.21875 56 33.015625 56 
Q 37.15625 56 41.109375 55.140625 
Q 45.0625 54.296875 48.78125 52.59375 
" id="DejaVuSans-63"/>
      <path d="M 46 62.703125 
L 46 35.5 
L 73.1875 35.5 
L 73.1875 27.203125 
L 46 27.203125 
L 46 0 
L 37.796875 0 
L 37.796875 27.203125 
L 10.59375 27.203125 
L 10.59375 35.5 
L 37.796875 35.5 
L 37.796875 62.703125 
z
" id="DejaVuSans-2b"/>
     </defs>
     <g transform="translate(24.250312 323.17875)rotate(-90)scale(0.18 -0.18)">
      <use xlink:href="#DejaVuSans-50"/>
      <use x="60.287109" xlink:href="#DejaVuSans-72"/>
      <use x="101.369141" xlink:href="#DejaVuSans-6f"/>
      <use x="162.550781" xlink:href="#DejaVuSans-70"/>
      <use x="226.027344" xlink:href="#DejaVuSans-6f"/>
      <use x="287.208984" xlink:href="#DejaVuSans-72"/>
      <use x="328.322266" xlink:href="#DejaVuSans-74"/>
      <use x="367.53125" xlink:href="#DejaVuSans-69"/>
      <use x="395.314453" xlink:href="#DejaVuSans-6f"/>
      <use x="456.496094" xlink:href="#DejaVuSans-6e"/>
      <use x="519.875" xlink:href="#DejaVuSans-20"/>
      <use x="551.662109" xlink:href="#DejaVuSans-6f"/>
      <use x="612.84375" xlink:href="#DejaVuSans-66"/>
      <use x="648.048828" xlink:href="#DejaVuSans-20"/>
      <use x="679.835938" xlink:href="#DejaVuSans-66"/>
      <use x="715.041016" xlink:href="#DejaVuSans-75"/>
      <use x="778.419922" xlink:href="#DejaVuSans-6e"/>
      <use x="841.798828" xlink:href="#DejaVuSans-63"/>
      <use x="896.779297" xlink:href="#DejaVuSans-74"/>
      <use x="935.988281" xlink:href="#DejaVuSans-69"/>
      <use x="963.771484" xlink:href="#DejaVuSans-6f"/>
      <use x="1024.953125" xlink:href="#DejaVuSans-6e"/>
      <use x="1088.332031" xlink:href="#DejaVuSans-2b"/>
      <use x="1172.121094" xlink:href="#DejaVuSans-74"/>
      <use x="1211.330078" xlink:href="#DejaVuSans-61"/>
      <use x="1272.609375" xlink:href="#DejaVuSans-72"/>
      <use x="1313.707031" xlink:href="#DejaVuSans-67"/>
      <use x="1377.183594" xlink:href="#DejaVuSans-65"/>
      <use x="1438.707031" xlink:href="#DejaVuSans-74"/>
      <use x="1477.916016" xlink:href="#DejaVuSans-20"/>
      <use x="1509.703125" xlink:href="#DejaVuSans-70"/>
      <use x="1573.179688" xlink:href="#DejaVuSans-61"/>
      <use x="1634.458984" xlink:href="#DejaVuSans-69"/>
      <use x="1662.242188" xlink:href="#DejaVuSans-72"/>
      <use x="1703.355469" xlink:href="#DejaVuSans-73"/>
     </g>
    </g>
   </g>
   <g id="line2d_41">
    <defs>
     <path d="M 0 1.5 
C 0.397805 1.5 0.77937 1.341951 1.06066 1.06066 
C 1.341951 0.77937 1.5 0.397805 1.5 0 
C 1.5 -0.397805 1.341951 -0.77937 1.06066 -1.06066 
C 0.77937 -1.341951 0.397805 -1.5 0 -1.5 
C -0.397805 -1.5 -0.77937 -1.341951 -1.06066 -1.06066 
C -1.341951 -0.77937 -1.5 -0.397805 -1.5 0 
C -1.5 0.397805 -1.341951 0.77937 -1.06066 1.06066 
C -0.77937 1.341951 -0.397805 1.5 0 1.5 
z
" id="m89a19125cc" style="stroke:#000080;"/>
    </defs>
    <g>
     <use style="fill:#000080;stroke:#000080;" x="354.086899" xlink:href="#m89a19125cc" y="194.920972"/>
     <use style="fill:#000080;stroke:#000080;" x="354.086899" xlink:href="#m89a19125cc" y="194.920972"/>
    </g>
   </g>
   <g id="line2d_42">
    <path d="M 175.973589 298.245375 
L 175.973589 297.728753 
L 179.148416 297.728753 
L 179.148416 295.662265 
L 179.559196 295.662265 
L 179.559196 294.629021 
L 179.960743 294.629021 
L 179.960743 294.112399 
L 181.113925 294.112399 
L 181.113925 292.562533 
L 181.482353 292.562533 
L 181.482353 292.045911 
L 190.463384 292.045911 
L 190.463384 291.529289 
L 191.113205 291.529289 
L 191.113205 291.012667 
L 192.738699 291.012667 
L 192.738699 290.496045 
L 192.93187 290.496045 
L 192.93187 289.462801 
L 194.048991 289.462801 
L 194.048991 288.946179 
L 201.353949 288.946179 
L 201.353949 288.429557 
L 207.055016 288.429557 
L 207.055016 287.912935 
L 207.400304 287.912935 
L 207.400304 286.879691 
L 209.342644 286.879691 
L 209.342644 286.363069 
L 210.529345 286.363069 
L 210.529345 285.329825 
L 212.173549 285.329825 
L 212.173549 284.813203 
L 212.497843 284.813203 
L 212.497843 283.779959 
L 213.252946 283.779959 
L 213.252946 281.713471 
L 213.618859 281.713471 
L 213.618859 280.163604 
L 213.858703 280.163604 
L 213.918164 279.13036 
L 214.730491 279.13036 
L 214.730491 278.097116 
L 215.178618 278.097116 
L 215.178618 277.580494 
L 215.398536 277.580494 
L 215.398536 276.54725 
L 216.355986 276.54725 
L 216.355986 276.030628 
L 217.845858 276.030628 
L 217.845858 275.514006 
L 218.176321 275.514006 
L 218.176321 274.480762 
L 224.361343 274.480762 
L 224.361343 273.447518 
L 227.59149 273.447518 
L 227.59149 272.930896 
L 228.427736 272.930896 
L 228.427736 272.414274 
L 229.748141 272.414274 
L 229.748141 271.897652 
L 236.647033 271.897652 
L 236.680276 270.864408 
L 237.074442 270.864408 
L 237.074442 270.347786 
L 237.268311 270.347786 
L 237.268311 269.831164 
L 237.837609 269.831164 
L 237.837609 269.314542 
L 240.707241 269.314542 
L 240.707241 268.281298 
L 241.358009 268.281298 
L 241.358009 267.764676 
L 242.580554 267.764676 
L 242.580554 266.731432 
L 243.735974 266.731432 
L 243.735974 266.21481 
L 244.757908 266.21481 
L 244.757908 265.181566 
L 245.144657 265.181566 
L 245.144657 264.664944 
L 246.334638 264.664944 
L 246.334638 264.148322 
L 246.830741 264.148322 
L 246.830741 263.6317 
L 256.238303 263.6317 
L 256.238303 263.115078 
L 258.194662 263.115078 
L 258.194662 262.598456 
L 258.94578 262.598456 
L 258.94578 262.081834 
L 261.19569 262.081834 
L 261.19569 261.565212 
L 262.790031 261.565212 
L 262.790031 260.531968 
L 263.223819 260.531968 
L 263.223819 260.015346 
L 263.514667 260.015346 
L 263.514667 259.498724 
L 263.705968 259.498724 
L 263.705968 258.982102 
L 265.344663 258.982102 
L 265.344663 257.948858 
L 267.083454 257.948858 
L 267.17108 256.915614 
L 268.079002 256.915614 
L 268.079002 256.398992 
L 270.007946 256.398992 
L 270.007946 255.88237 
L 270.419778 255.88237 
L 270.419778 254.849126 
L 270.876306 254.849126 
L 270.895892 253.815882 
L 271.247233 253.815882 
L 271.247233 252.782638 
L 272.406112 252.782638 
L 272.406112 252.266016 
L 272.536063 252.266016 
L 272.536063 251.749394 
L 272.856863 251.749394 
L 272.856863 250.199528 
L 273.165542 250.199528 
L 273.165542 249.682906 
L 273.283682 249.682906 
L 273.35206 247.616418 
L 277.751584 247.616418 
L 277.80652 246.066551 
L 278.459309 246.066551 
L 278.459309 245.549929 
L 279.006906 245.549929 
L 279.006906 244.516685 
L 279.411044 244.516685 
L 279.411044 244.000063 
L 280.776624 244.000063 
L 280.776624 243.483441 
L 281.495335 243.483441 
L 281.495335 242.966819 
L 282.192755 242.966819 
L 282.192755 242.450197 
L 282.833889 242.450197 
L 282.833889 240.900331 
L 283.556726 240.900331 
L 283.556726 239.867087 
L 283.699523 239.867087 
L 283.699523 239.350465 
L 286.012422 239.350465 
L 286.012422 238.833843 
L 286.714595 238.833843 
L 286.714595 238.317221 
L 287.164225 238.317221 
L 287.164225 236.767355 
L 287.303484 236.767355 
L 287.388271 235.734111 
L 287.498766 235.734111 
L 287.498766 235.217489 
L 287.749197 235.217489 
L 287.749197 233.667623 
L 290.106782 233.667623 
L 290.183441 232.634379 
L 290.432795 232.634379 
L 290.432795 232.117757 
L 290.600096 232.117757 
L 290.600096 231.601135 
L 291.157483 231.601135 
L 291.157483 231.084513 
L 291.963388 231.084513 
L 291.963388 230.567891 
L 292.802856 230.567891 
L 292.802856 230.051269 
L 293.749612 230.051269 
L 293.749612 229.018025 
L 293.862306 229.018025 
L 293.862306 228.501403 
L 294.227378 228.501403 
L 294.227378 227.984781 
L 294.417981 227.984781 
L 294.455336 225.918293 
L 295.189618 225.918293 
L 295.222886 224.885049 
L 296.578654 224.885049 
L 296.578654 224.368427 
L 296.958253 224.368427 
L 296.958253 223.335183 
L 297.295924 223.335183 
L 297.37449 222.301939 
L 297.624591 222.301939 
L 297.624591 221.785317 
L 298.401856 221.785317 
L 298.401856 221.268695 
L 299.366388 221.268695 
L 299.366388 220.752073 
L 299.601072 220.752073 
L 299.601072 220.235451 
L 299.866598 220.235451 
L 299.866598 219.718829 
L 300.005816 219.718829 
L 300.033146 218.168963 
L 300.416137 218.168963 
L 300.438164 217.135719 
L 300.545102 217.135719 
L 300.545102 216.102475 
L 300.718848 216.102475 
L 300.718848 215.585853 
L 301.898579 215.585853 
L 301.898579 215.069231 
L 302.219819 215.069231 
L 302.219819 214.552609 
L 303.245395 214.552609 
L 303.342797 213.002743 
L 303.87386 213.002743 
L 303.87386 212.48612 
L 304.598247 212.48612 
L 304.598247 211.969498 
L 305.678221 211.969498 
L 305.678221 211.452876 
L 306.023835 211.452876 
L 306.023835 210.936254 
L 306.209602 210.936254 
L 306.209602 210.419632 
L 306.660288 210.419632 
L 306.660288 209.90301 
L 307.37234 209.90301 
L 307.37234 209.386388 
L 309.356571 209.386388 
L 309.356571 208.869766 
L 309.567154 208.869766 
L 309.567154 208.353144 
L 310.48749 208.353144 
L 310.48749 207.836522 
L 310.80519 207.836522 
L 310.80519 207.3199 
L 311.958798 207.3199 
L 311.958798 206.803278 
L 312.809107 206.803278 
L 312.809107 206.286656 
L 313.31789 206.286656 
L 313.31789 205.770034 
L 314.947256 205.770034 
L 315.045757 204.73679 
L 315.158109 204.73679 
L 315.158109 204.220168 
L 317.133146 204.220168 
L 317.133146 203.703546 
L 318.905609 203.703546 
L 318.905609 203.186924 
L 320.209034 203.186924 
L 320.209034 202.15368 
L 321.943394 202.15368 
L 321.943394 201.637058 
L 322.0823 201.637058 
L 322.0823 201.120436 
L 323.182426 201.120436 
L 323.182426 200.603814 
L 326.967169 200.603814 
L 326.967169 200.087192 
L 327.870573 200.087192 
L 327.870573 199.57057 
L 328.768428 199.57057 
L 328.784348 198.537326 
L 328.950936 198.537326 
L 328.950936 198.020704 
L 330.666558 198.020704 
L 330.666558 197.504082 
L 332.31372 197.504082 
L 332.31372 196.470838 
L 333.821773 196.470838 
L 333.821773 195.954216 
L 341.842329 195.954216 
L 341.842329 195.437594 
L 354.086899 195.437594 
L 354.086899 194.920972 
L 358.8 194.920972 
L 358.8 194.920972 
" style="fill:none;stroke:#000080;stroke-linecap:square;stroke-width:1.5;"/>
   </g>
   <g id="line2d_43">
    <defs>
     <path d="M 0 6 
C 1.591219 6 3.117479 5.367802 4.242641 4.242641 
C 5.367802 3.117479 6 1.591219 6 0 
C 6 -1.591219 5.367802 -3.117479 4.242641 -4.242641 
C 3.117479 -5.367802 1.591219 -6 0 -6 
C -1.591219 -6 -3.117479 -5.367802 -4.242641 -4.242641 
C -5.367802 -3.117479 -6 -1.591219 -6 0 
C -6 1.591219 -5.367802 3.117479 -4.242641 4.242641 
C -3.117479 5.367802 -1.591219 6 0 6 
z
" id="m3546a6f40b" style="stroke:#000080;stroke-width:1.5;"/>
    </defs>
    <g>
     <use style="fill:none;stroke:#000080;stroke-width:1.5;" x="358.8" xlink:href="#m3546a6f40b" y="194.920972"/>
    </g>
   </g>
   <g id="line2d_44"/>
   <g id="line2d_45">
    <path clip-path="url(#p401d06bb7f)" d="M 276.514286 247.616418 
" style="fill:none;stroke:#000080;stroke-linecap:square;stroke-width:1.5;"/>
    <defs>
     <path d="M -12 12 
L 12 -12 
M -12 -12 
L 12 12 
" id="m6379327b17" style="stroke:#000080;stroke-width:3;"/>
    </defs>
    <g clip-path="url(#p401d06bb7f)">
     <use style="fill:#000080;stroke:#000080;stroke-width:3;" x="276.514286" xlink:href="#m6379327b17" y="247.616418"/>
    </g>
   </g>
   <g id="line2d_46">
    <defs>
     <path d="M 0 1.5 
C 0.397805 1.5 0.77937 1.341951 1.06066 1.06066 
C 1.341951 0.77937 1.5 0.397805 1.5 0 
C 1.5 -0.397805 1.341951 -0.77937 1.06066 -1.06066 
C 0.77937 -1.341951 0.397805 -1.5 0 -1.5 
C -0.397805 -1.5 -0.77937 -1.341951 -1.06066 -1.06066 
C -1.341951 -0.77937 -1.5 -0.397805 -1.5 0 
C -1.5 0.397805 -1.341951 0.77937 -1.06066 1.06066 
C -0.77937 1.341951 -0.397805 1.5 0 1.5 
z
" id="mc75bf986d3" style="stroke:#ff00ff;"/>
    </defs>
    <g>
     <use style="fill:#ff00ff;stroke:#ff00ff;" x="351.049091" xlink:href="#mc75bf986d3" y="267.248054"/>
     <use style="fill:#ff00ff;stroke:#ff00ff;" x="351.049091" xlink:href="#mc75bf986d3" y="267.248054"/>
    </g>
   </g>
   <g id="line2d_47">
    <path d="M 170.833252 298.245375 
L 170.833252 296.695509 
L 172.715846 296.695509 
L 172.715846 296.178887 
L 173.869028 296.178887 
L 173.869028 295.145643 
L 174.418859 295.145643 
L 174.418859 294.112399 
L 174.952275 294.112399 
L 174.952275 293.595777 
L 175.470228 293.595777 
L 175.470228 293.079155 
L 176.463157 293.079155 
L 176.463157 292.562533 
L 177.403801 292.562533 
L 177.403801 292.045911 
L 177.856183 292.045911 
L 177.856183 290.496045 
L 178.297393 290.496045 
L 178.297393 289.979423 
L 179.148416 289.979423 
L 179.148416 289.462801 
L 179.559196 289.462801 
L 179.559196 288.946179 
L 180.353465 288.946179 
L 180.353465 287.912935 
L 180.73774 287.912935 
L 180.73774 286.879691 
L 181.843337 286.879691 
L 181.843337 286.363069 
L 198.358102 286.363069 
L 198.358102 285.846447 
L 199.458026 285.846447 
L 199.458026 285.329825 
L 206.524241 285.329825 
L 206.524241 284.296581 
L 206.791599 284.296581 
L 206.791599 283.779959 
L 206.879837 283.779959 
L 206.879837 283.263337 
L 207.141966 283.263337 
L 207.141966 282.230093 
L 207.314606 282.230093 
L 207.314606 281.713471 
L 208.071486 281.713471 
L 208.071486 281.196849 
L 209.265791 281.196849 
L 209.265791 280.680226 
L 209.945844 280.680226 
L 209.945844 280.163604 
L 210.166896 280.163604 
L 210.166896 279.646982 
L 210.529345 279.646982 
L 210.529345 278.613738 
L 220.944063 278.613738 
L 220.944063 277.580494 
L 224.493212 277.580494 
L 224.493212 277.063872 
L 228.972775 277.063872 
L 228.972775 276.54725 
L 247.738786 276.54725 
L 247.738786 276.030628 
L 256.371193 276.030628 
L 256.371193 275.514006 
L 257.222217 275.514006 
L 257.222217 274.997384 
L 260.574389 274.997384 
L 260.574389 273.96414 
L 268.099045 273.96414 
L 268.099045 273.447518 
L 272.642898 273.447518 
L 272.642898 272.930896 
L 279.76905 272.930896 
L 279.76905 272.414274 
L 287.068471 272.414274 
L 287.068471 271.38103 
L 298.219306 271.38103 
L 298.219306 270.864408 
L 307.939907 270.864408 
L 307.939907 270.347786 
L 315.383557 270.347786 
L 315.383557 269.831164 
L 319.040893 269.831164 
L 319.040893 269.314542 
L 320.622446 269.314542 
L 320.622446 268.79792 
L 339.421036 268.79792 
L 339.421036 268.281298 
L 349.910704 268.281298 
L 349.910704 267.764676 
L 351.049091 267.764676 
L 351.049091 267.248054 
L 358.8 267.248054 
" style="fill:none;stroke:#ff00ff;stroke-linecap:square;stroke-width:1.5;"/>
   </g>
   <g id="line2d_48">
    <defs>
     <path d="M -0 8.485281 
L 5.091169 0 
L 0 -8.485281 
L -5.091169 -0 
z
" id="m32f0510082" style="stroke:#ff00ff;stroke-linejoin:miter;stroke-width:1.5;"/>
    </defs>
    <g>
     <use style="fill:none;stroke:#ff00ff;stroke-linejoin:miter;stroke-width:1.5;" x="358.8" xlink:href="#m32f0510082" y="267.248054"/>
    </g>
   </g>
   <g id="line2d_49"/>
   <g id="line2d_50">
    <path clip-path="url(#p401d06bb7f)" d="M 276.514286 272.930896 
" style="fill:none;stroke:#ff00ff;stroke-linecap:square;stroke-width:1.5;"/>
    <defs>
     <path d="M -12 12 
L 12 -12 
M -12 -12 
L 12 12 
" id="m9cbf5f021e" style="stroke:#ff00ff;stroke-width:3;"/>
    </defs>
    <g clip-path="url(#p401d06bb7f)">
     <use style="fill:#ff00ff;stroke:#ff00ff;stroke-width:3;" x="276.514286" xlink:href="#m9cbf5f021e" y="272.930896"/>
    </g>
   </g>
   <g id="line2d_51">
    <defs>
     <path d="M 0 1.5 
C 0.397805 1.5 0.77937 1.341951 1.06066 1.06066 
C 1.341951 0.77937 1.5 0.397805 1.5 0 
C 1.5 -0.397805 1.341951 -0.77937 1.06066 -1.06066 
C 0.77937 -1.341951 0.397805 -1.5 0 -1.5 
C -0.397805 -1.5 -0.77937 -1.341951 -1.06066 -1.06066 
C -1.341951 -0.77937 -1.5 -0.397805 -1.5 0 
C -1.5 0.397805 -1.341951 0.77937 -1.06066 1.06066 
C -0.77937 1.341951 -0.397805 1.5 0 1.5 
z
" id="m39300ca227" style="stroke:#ffa500;"/>
    </defs>
    <g>
     <use style="fill:#ffa500;stroke:#ffa500;" x="347.420048" xlink:href="#m39300ca227" y="86.430349"/>
     <use style="fill:#ffa500;stroke:#ffa500;" x="347.420048" xlink:href="#m39300ca227" y="86.430349"/>
    </g>
   </g>
   <g id="line2d_52">
    <path d="M 160.330612 298.245375 
L 160.330612 296.695509 
L 170.833252 296.695509 
L 170.833252 296.178887 
L 171.483073 296.178887 
L 171.483073 295.662265 
L 172.715846 295.662265 
L 172.715846 295.145643 
L 173.869028 295.145643 
L 173.869028 294.629021 
L 175.470228 294.629021 
L 175.470228 294.112399 
L 176.463157 294.112399 
L 176.463157 293.079155 
L 176.939668 293.079155 
L 176.939668 292.045911 
L 177.856183 292.045911 
L 177.856183 291.529289 
L 180.73774 291.529289 
L 180.73774 290.496045 
L 181.843337 290.496045 
L 181.843337 289.979423 
L 186.804093 289.979423 
L 186.804093 289.462801 
L 187.33751 289.462801 
L 187.33751 288.946179 
L 190.241417 288.946179 
L 190.241417 287.912935 
L 191.113205 287.912935 
L 191.113205 286.363069 
L 191.324664 286.363069 
L 191.324664 285.846447 
L 192.146332 285.846447 
L 192.146332 285.329825 
L 192.738699 285.329825 
L 192.738699 284.813203 
L 193.499159 284.813203 
L 193.499159 284.296581 
L 195.437504 284.296581 
L 195.437504 283.779959 
L 195.60372 283.779959 
L 195.60372 282.746715 
L 196.093288 282.746715 
L 196.093288 282.230093 
L 197.336789 282.230093 
L 197.336789 281.196849 
L 197.486314 281.196849 
L 197.486314 280.680226 
L 197.927525 280.680226 
L 197.927525 280.163604 
L 199.053448 280.163604 
L 199.053448 279.646982 
L 199.722744 279.646982 
L 199.722744 279.13036 
L 200.990517 279.13036 
L 200.990517 278.097116 
L 201.353949 278.097116 
L 201.353949 277.580494 
L 201.473469 277.580494 
L 201.473469 277.063872 
L 202.174269 277.063872 
L 202.174269 276.54725 
L 202.958576 276.54725 
L 202.958576 275.514006 
L 203.918885 275.514006 
L 203.918885 274.997384 
L 204.731212 274.997384 
L 204.731212 273.447518 
L 205.412912 273.447518 
L 205.412912 272.930896 
L 205.603 272.930896 
L 205.603 272.414274 
L 206.613806 272.414274 
L 206.613806 271.38103 
L 206.967641 271.38103 
L 206.967641 270.864408 
L 207.485594 270.864408 
L 207.485594 270.347786 
L 207.739047 270.347786 
L 207.822738 268.79792 
L 208.718366 268.79792 
L 208.718366 267.764676 
L 209.419167 267.764676 
L 209.495363 266.731432 
L 209.571237 266.731432 
L 209.571237 266.21481 
L 210.239976 266.21481 
L 210.239976 263.6317 
L 210.60096 263.6317 
L 210.60096 263.115078 
L 214.559503 263.115078 
L 214.559503 262.598456 
L 215.72342 262.598456 
L 215.776997 261.04859 
L 215.989716 261.04859 
L 215.989716 260.531968 
L 216.510689 260.531968 
L 216.510689 260.015346 
L 217.460547 260.015346 
L 217.460547 259.498724 
L 217.750306 259.498724 
L 217.750306 258.982102 
L 218.683579 258.982102 
L 218.683579 257.948858 
L 221.182838 257.948858 
L 221.182838 256.915614 
L 221.457436 256.915614 
L 221.457436 255.88237 
L 221.918574 255.88237 
L 221.918574 255.365748 
L 225.358743 255.365748 
L 225.358743 254.849126 
L 226.214132 254.849126 
L 226.214132 253.815882 
L 227.425016 253.815882 
L 227.425016 253.29926 
L 228.37495 253.29926 
L 228.37495 252.782638 
L 228.689353 252.782638 
L 228.792936 251.749394 
L 230.111572 251.749394 
L 230.111572 250.199528 
L 230.863036 250.199528 
L 230.863036 249.682906 
L 233.046632 249.682906 
L 233.046632 248.649662 
L 234.246813 248.649662 
L 234.246813 247.099796 
L 234.398399 247.099796 
L 234.398399 246.583173 
L 235.317744 246.583173 
L 235.317744 246.066551 
L 236.175018 246.066551 
L 236.226192 245.033307 
L 236.730025 245.033307 
L 236.730025 244.516685 
L 239.186221 244.516685 
L 239.186221 243.483441 
L 239.358583 243.483441 
L 239.358583 242.966819 
L 240.059384 242.966819 
L 240.059384 241.933575 
L 240.480469 241.933575 
L 240.534086 240.900331 
L 241.100539 240.900331 
L 241.100539 240.383709 
L 241.255466 240.383709 
L 241.255466 239.867087 
L 241.837211 239.867087 
L 241.911714 238.833843 
L 242.508794 238.833843 
L 242.556666 237.283977 
L 243.016815 237.283977 
L 243.016815 236.767355 
L 244.662555 236.767355 
L 244.662555 235.734111 
L 244.810663 235.734111 
L 244.810663 234.700867 
L 245.247762 234.700867 
L 245.247762 234.184245 
L 245.472521 234.184245 
L 245.472521 233.667623 
L 246.2959 233.667623 
L 246.2959 233.151001 
L 247.667098 233.151001 
L 247.667098 232.634379 
L 248.162974 232.634379 
L 248.241401 230.567891 
L 248.628451 230.567891 
L 248.628451 229.534647 
L 249.717704 229.534647 
L 249.717704 228.501403 
L 249.85328 228.501403 
L 249.85328 227.984781 
L 250.592542 227.984781 
L 250.592542 226.951537 
L 250.947274 226.951537 
L 250.9846 224.885049 
L 251.36094 224.885049 
L 251.368241 222.818561 
L 251.914533 222.818561 
L 252.013369 221.785317 
L 252.437744 221.785317 
L 252.437744 220.752073 
L 252.764734 220.752073 
L 252.764734 220.235451 
L 253.012766 220.235451 
L 253.012766 219.718829 
L 253.381737 219.718829 
L 253.381737 219.202207 
L 253.781546 219.202207 
L 253.781546 218.685585 
L 254.003356 218.685585 
L 254.078775 217.135719 
L 254.616249 217.135719 
L 254.683068 215.585853 
L 254.888036 215.585853 
L 254.983683 214.552609 
L 255.261723 214.552609 
L 255.261723 214.035987 
L 255.793758 214.035987 
L 255.862 213.002743 
L 256.132393 213.002743 
L 256.132393 212.48612 
L 256.28271 212.48612 
L 256.376709 210.419632 
L 256.404262 210.419632 
L 256.404262 209.386388 
L 256.682902 209.386388 
L 256.682902 207.836522 
L 256.828677 207.836522 
L 256.828677 207.3199 
L 257.420986 207.3199 
L 257.483299 204.73679 
L 258.333599 204.73679 
L 258.333599 204.220168 
L 258.491071 204.220168 
L 258.491071 203.703546 
L 258.690826 203.703546 
L 258.690826 202.670302 
L 258.979183 202.670302 
L 258.979183 201.637058 
L 259.197147 201.637058 
L 259.197147 201.120436 
L 259.68035 201.120436 
L 259.68035 200.603814 
L 259.899034 200.603814 
L 259.899034 199.57057 
L 260.12402 199.57057 
L 260.12402 199.053948 
L 260.99666 199.053948 
L 261.022192 198.020704 
L 261.111267 198.020704 
L 261.111267 197.504082 
L 261.246154 197.504082 
L 261.246154 196.98746 
L 261.363349 196.98746 
L 261.425818 194.40435 
L 261.603694 194.40435 
L 261.603694 193.371106 
L 262.210686 193.371106 
L 262.246458 191.304618 
L 262.400648 191.304618 
L 262.443897 188.721508 
L 262.635295 188.721508 
L 262.639179 187.688264 
L 263.133366 187.688264 
L 263.208775 186.138398 
L 263.373563 186.138398 
L 263.373563 185.621776 
L 263.738871 185.621776 
L 263.760773 184.588532 
L 264.129052 184.588532 
L 264.129052 184.07191 
L 264.437283 184.07191 
L 264.482887 183.038666 
L 264.78857 183.038666 
L 264.850457 179.938934 
L 265.49096 179.938934 
L 265.49096 178.90569 
L 265.64592 178.90569 
L 265.64592 178.389067 
L 265.832065 178.389067 
L 265.832065 177.355823 
L 266.460873 177.355823 
L 266.460873 176.839201 
L 266.607679 176.839201 
L 266.620118 175.805957 
L 266.762544 175.805957 
L 266.762544 174.772713 
L 267.095566 174.772713 
L 267.095566 173.739469 
L 267.219242 173.739469 
L 267.231262 172.706225 
L 267.359972 172.706225 
L 267.359972 171.672981 
L 267.52917 171.672981 
L 267.52917 170.639737 
L 267.661626 170.639737 
L 267.673352 168.573249 
L 267.964039 168.573249 
L 267.972687 167.023383 
L 268.113347 167.023383 
L 268.113347 165.473517 
L 268.340644 165.473517 
L 268.388574 163.407029 
L 268.648529 163.407029 
L 268.648529 162.373785 
L 268.806008 162.373785 
L 268.817007 159.790675 
L 269.0871 159.790675 
L 269.0871 159.274053 
L 269.221975 159.274053 
L 269.259558 158.240809 
L 269.334488 158.240809 
L 269.334488 157.724187 
L 269.483412 157.724187 
L 269.562685 156.690943 
L 269.60219 156.690943 
L 269.623224 155.141077 
L 269.741079 155.141077 
L 269.741079 154.624455 
L 269.884077 154.624455 
L 269.884077 154.107833 
L 270.110519 154.107833 
L 270.110519 152.557967 
L 270.263283 152.557967 
L 270.265818 151.524723 
L 270.382042 151.524723 
L 270.392112 149.974857 
L 270.998373 149.974857 
L 271.097849 148.424991 
L 271.109943 148.424991 
L 271.143761 147.391747 
L 271.249632 147.391747 
L 271.249632 146.875125 
L 271.364417 146.875125 
L 271.364417 145.841881 
L 271.664609 145.841881 
L 271.720776 143.775392 
L 271.825616 143.775392 
L 271.84419 140.159038 
L 271.952923 140.159038 
L 271.952923 139.642416 
L 272.30011 139.642416 
L 272.30011 138.09255 
L 272.412857 138.09255 
L 272.511489 137.059306 
L 272.524897 137.059306 
L 272.524897 135.50944 
L 272.636239 135.50944 
L 272.740272 133.959574 
L 273.275116 133.959574 
L 273.287963 132.409708 
L 273.496501 132.409708 
L 273.496501 131.893086 
L 273.706816 131.893086 
L 273.798576 128.793354 
L 273.920883 128.793354 
L 273.927079 126.726866 
L 274.171163 126.726866 
L 274.171163 126.210244 
L 274.329361 126.210244 
L 274.329361 125.177 
L 274.512172 125.177 
L 274.621762 124.143756 
L 274.838947 124.143756 
L 274.934849 122.59389 
L 275.026356 122.59389 
L 275.026356 121.560646 
L 275.219505 121.560646 
L 275.219505 121.044024 
L 275.41059 121.044024 
L 275.41059 120.527402 
L 275.603413 120.527402 
L 275.603413 120.01078 
L 285.131023 120.01078 
L 285.131023 119.494158 
L 286.460393 119.494158 
L 286.509481 117.944292 
L 286.712576 117.944292 
L 286.763998 116.394426 
L 287.065501 116.394426 
L 287.065501 115.877804 
L 287.314226 115.877804 
L 287.314226 115.361182 
L 287.497799 115.361182 
L 287.593209 112.778072 
L 287.640244 112.778072 
L 287.735852 110.194961 
L 288.263855 110.194961 
L 288.356192 109.161717 
L 293.994458 109.161717 
L 293.994458 108.645095 
L 294.321285 108.645095 
L 294.321285 108.128473 
L 294.716587 108.128473 
L 294.716587 107.611851 
L 295.063515 107.611851 
L 295.063515 106.061985 
L 295.194015 106.061985 
L 295.258597 103.995497 
L 295.501654 103.995497 
L 295.501654 102.962253 
L 295.662078 102.962253 
L 295.662078 102.445631 
L 300.623149 102.445631 
L 300.623149 101.929009 
L 300.803485 101.929009 
L 300.880414 100.379143 
L 300.924225 100.379143 
L 300.924225 99.862521 
L 304.631244 99.862521 
L 304.669725 98.829277 
L 304.762625 98.829277 
L 304.762625 98.312655 
L 304.887936 98.312655 
L 304.949172 97.279411 
L 305.056556 97.279411 
L 305.056556 96.762789 
L 308.21025 96.762789 
L 308.21025 96.246167 
L 310.933205 96.246167 
L 310.933205 95.729545 
L 311.130476 95.729545 
L 311.130476 95.212923 
L 313.363391 95.212923 
L 313.431653 94.179679 
L 315.562853 94.179679 
L 315.595971 93.146435 
L 317.430393 93.146435 
L 317.430393 92.629813 
L 322.221657 92.629813 
L 322.221657 92.113191 
L 323.53308 92.113191 
L 323.53308 91.596569 
L 324.774964 91.596569 
L 324.774964 91.079947 
L 327.026391 91.079947 
L 327.026391 90.563325 
L 332.456886 90.563325 
L 332.456886 89.530081 
L 341.461184 89.530081 
L 341.461184 89.013459 
L 341.926599 89.013459 
L 341.926599 87.980215 
L 345.645851 87.980215 
L 345.645851 87.463593 
L 346.73132 87.463593 
L 346.73132 86.946971 
L 347.420048 86.946971 
L 347.420048 86.430349 
L 358.8 86.430349 
L 358.8 86.430349 
" style="fill:none;stroke:#ffa500;stroke-linecap:square;stroke-width:1.5;"/>
   </g>
   <g id="line2d_53">
    <defs>
     <path d="M 0 -6 
L -1.347084 -1.854102 
L -5.706339 -1.854102 
L -2.179628 0.708204 
L -3.526712 4.854102 
L -0 2.291796 
L 3.526712 4.854102 
L 2.179628 0.708204 
L 5.706339 -1.854102 
L 1.347084 -1.854102 
z
" id="m4778af48f6" style="stroke:#ffa500;stroke-linejoin:bevel;stroke-width:1.5;"/>
    </defs>
    <g>
     <use style="fill:none;stroke:#ffa500;stroke-linejoin:bevel;stroke-width:1.5;" x="358.8" xlink:href="#m4778af48f6" y="86.430349"/>
    </g>
   </g>
   <g id="line2d_54"/>
   <g id="line2d_55">
    <path clip-path="url(#p401d06bb7f)" d="M 276.514286 120.01078 
" style="fill:none;stroke:#ffa500;stroke-linecap:square;stroke-width:1.5;"/>
    <defs>
     <path d="M -12 12 
L 12 -12 
M -12 -12 
L 12 12 
" id="md237b2fdf5" style="stroke:#ffa500;stroke-width:3;"/>
    </defs>
    <g clip-path="url(#p401d06bb7f)">
     <use style="fill:#ffa500;stroke:#ffa500;stroke-width:3;" x="276.514286" xlink:href="#md237b2fdf5" y="120.01078"/>
    </g>
   </g>
   <g id="line2d_56">
    <defs>
     <path d="M 0 1.5 
C 0.397805 1.5 0.77937 1.341951 1.06066 1.06066 
C 1.341951 0.77937 1.5 0.397805 1.5 0 
C 1.5 -0.397805 1.341951 -0.77937 1.06066 -1.06066 
C 0.77937 -1.341951 0.397805 -1.5 0 -1.5 
C -0.397805 -1.5 -0.77937 -1.341951 -1.06066 -1.06066 
C -1.341951 -0.77937 -1.5 -0.397805 -1.5 0 
C -1.5 0.397805 -1.341951 0.77937 -1.06066 1.06066 
C -0.77937 1.341951 -0.397805 1.5 0 1.5 
z
" id="mf42149f3c9" style="stroke:#6495ed;"/>
    </defs>
    <g>
     <use style="fill:#6495ed;stroke:#6495ed;" x="312.245061" xlink:href="#mf42149f3c9" y="251.749394"/>
     <use style="fill:#6495ed;stroke:#6495ed;" x="312.245061" xlink:href="#mf42149f3c9" y="251.749394"/>
    </g>
   </g>
   <g id="line2d_57">
    <path d="M 143.958223 298.245375 
L 143.958223 297.728753 
L 146.712605 297.728753 
L 146.712605 296.695509 
L 149.098559 296.695509 
L 149.098559 294.629021 
L 151.20312 294.629021 
L 151.20312 293.079155 
L 153.085714 293.079155 
L 153.085714 292.562533 
L 154.788728 292.562533 
L 154.788728 292.045911 
L 157.773669 292.045911 
L 157.773669 291.012667 
L 160.330612 291.012667 
L 160.330612 289.462801 
L 161.483794 289.462801 
L 161.483794 288.429557 
L 162.567041 288.429557 
L 162.567041 287.396313 
L 163.588354 287.396313 
L 163.588354 286.363069 
L 164.554434 286.363069 
L 164.554434 285.846447 
L 165.470948 285.846447 
L 165.470948 283.779959 
L 167.173962 283.779959 
L 167.173962 283.263337 
L 173.869028 283.263337 
L 173.869028 281.713471 
L 178.297393 281.713471 
L 178.297393 281.196849 
L 188.358823 281.196849 
L 188.358823 280.680226 
L 192.345978 280.680226 
L 192.345978 280.163604 
L 192.738699 280.163604 
L 192.738699 279.646982 
L 194.228571 279.646982 
L 194.228571 278.613738 
L 198.358102 278.613738 
L 198.358102 277.580494 
L 213.314454 277.580494 
L 213.314454 276.54725 
L 220.783088 276.54725 
L 220.783088 276.030628 
L 221.496322 276.030628 
L 221.496322 274.997384 
L 228.818739 274.997384 
L 228.818739 274.480762 
L 229.327112 274.480762 
L 229.327112 273.96414 
L 230.111572 273.96414 
L 230.111572 273.447518 
L 233.881556 273.447518 
L 233.881556 272.414274 
L 235.655055 272.414274 
L 235.655055 271.38103 
L 235.916928 271.38103 
L 235.916928 269.831164 
L 236.157927 269.831164 
L 236.157927 268.79792 
L 237.041925 268.79792 
L 237.041925 268.281298 
L 237.058191 268.281298 
L 237.058191 267.764676 
L 237.428278 267.764676 
L 237.428278 266.731432 
L 241.370786 266.731432 
L 241.370786 266.21481 
L 241.985907 266.21481 
L 241.985907 265.698188 
L 244.641296 265.698188 
L 244.641296 264.664944 
L 246.353976 264.664944 
L 246.353976 263.6317 
L 249.459676 263.6317 
L 249.459676 262.081834 
L 249.797579 262.081834 
L 249.797579 261.565212 
L 250.121386 261.565212 
L 250.121386 261.04859 
L 252.396446 261.04859 
L 252.396446 260.531968 
L 254.09758 260.531968 
L 254.09758 260.015346 
L 258.845195 260.015346 
L 258.845195 259.498724 
L 279.192438 259.498724 
L 279.192438 258.982102 
L 279.442923 258.982102 
L 279.442923 258.46548 
L 279.545761 258.46548 
L 279.545761 257.948858 
L 280.128783 257.948858 
L 280.128783 256.915614 
L 280.633887 256.915614 
L 280.633887 256.398992 
L 282.165426 256.398992 
L 282.165426 255.88237 
L 290.830916 255.88237 
L 290.830916 255.365748 
L 291.077783 255.365748 
L 291.077783 254.849126 
L 292.058717 254.849126 
L 292.058717 254.332504 
L 301.992855 254.332504 
L 301.992855 253.815882 
L 302.934082 253.815882 
L 302.934082 253.29926 
L 311.933955 253.29926 
L 311.933955 252.782638 
L 312.209225 252.782638 
L 312.209225 252.266016 
L 312.245061 252.266016 
L 312.245061 251.749394 
L 358.8 251.749394 
" style="fill:none;stroke:#6495ed;stroke-linecap:square;stroke-width:1.5;"/>
   </g>
   <g id="line2d_58">
    <defs>
     <path d="M -0 6 
L 6 -6 
L -6 -6 
z
" id="mde9dffded2" style="stroke:#6495ed;stroke-linejoin:miter;stroke-width:1.5;"/>
    </defs>
    <g>
     <use style="fill:none;stroke:#6495ed;stroke-linejoin:miter;stroke-width:1.5;" x="358.8" xlink:href="#mde9dffded2" y="251.749394"/>
    </g>
   </g>
   <g id="line2d_59"/>
   <g id="line2d_60">
    <path clip-path="url(#p401d06bb7f)" d="M 276.514286 259.498724 
" style="fill:none;stroke:#6495ed;stroke-linecap:square;stroke-width:1.5;"/>
    <defs>
     <path d="M -12 12 
L 12 -12 
M -12 -12 
L 12 12 
" id="ma438274ad5" style="stroke:#6495ed;stroke-width:3;"/>
    </defs>
    <g clip-path="url(#p401d06bb7f)">
     <use style="fill:#6495ed;stroke:#6495ed;stroke-width:3;" x="276.514286" xlink:href="#ma438274ad5" y="259.498724"/>
    </g>
   </g>
   <g id="line2d_61">
    <path d="M 358.8 267.248054 
L 390.48 292.97583 
" style="fill:none;stroke:#ff00ff;stroke-linecap:square;stroke-width:1.5;"/>
    <g>
     <use style="fill:none;stroke:#ff00ff;stroke-linejoin:miter;stroke-width:1.5;" x="358.8" xlink:href="#m32f0510082" y="267.248054"/>
     <use style="fill:none;stroke:#ff00ff;stroke-linejoin:miter;stroke-width:1.5;" x="390.48" xlink:href="#m32f0510082" y="292.97583"/>
    </g>
   </g>
   <g id="line2d_62">
    <path d="M 358.8 251.749394 
L 390.48 208.663118 
" style="fill:none;stroke:#6495ed;stroke-linecap:square;stroke-width:1.5;"/>
    <g>
     <use style="fill:none;stroke:#6495ed;stroke-linejoin:miter;stroke-width:1.5;" x="358.8" xlink:href="#mde9dffded2" y="251.749394"/>
     <use style="fill:none;stroke:#6495ed;stroke-linejoin:miter;stroke-width:1.5;" x="390.48" xlink:href="#mde9dffded2" y="208.663118"/>
    </g>
   </g>
   <g id="line2d_63">
    <path d="M 358.8 194.920972 
L 390.48 124.350405 
" style="fill:none;stroke:#000080;stroke-linecap:square;stroke-width:1.5;"/>
    <g>
     <use style="fill:none;stroke:#000080;stroke-width:1.5;" x="358.8" xlink:href="#m3546a6f40b" y="194.920972"/>
     <use style="fill:none;stroke:#000080;stroke-width:1.5;" x="390.48" xlink:href="#m3546a6f40b" y="124.350405"/>
    </g>
   </g>
   <g id="line2d_64">
    <path d="M 358.8 86.430349 
L 390.48 40.037692 
" style="fill:none;stroke:#ffa500;stroke-linecap:square;stroke-width:1.5;"/>
    <g>
     <use style="fill:none;stroke:#ffa500;stroke-linejoin:bevel;stroke-width:1.5;" x="358.8" xlink:href="#m4778af48f6" y="86.430349"/>
     <use style="fill:none;stroke:#ffa500;stroke-linejoin:bevel;stroke-width:1.5;" x="390.48" xlink:href="#m4778af48f6" y="40.037692"/>
    </g>
   </g>
   <g id="line2d_65">
    <path d="M 358.8 298.245375 
L 358.8 34.768147 
" style="fill:none;stroke:#000000;stroke-linecap:square;stroke-width:1.5;"/>
   </g>
   <g id="patch_3">
    <path d="M 70.8 298.245375 
L 70.8 32.133375 
" style="fill:none;stroke:#000000;stroke-linecap:square;stroke-linejoin:miter;stroke-width:0.8;"/>
   </g>
   <g id="patch_4">
    <path d="M 427.92 298.245375 
L 427.92 32.133375 
" style="fill:none;stroke:#000000;stroke-linecap:square;stroke-linejoin:miter;stroke-width:0.8;"/>
   </g>
   <g id="patch_5">
    <path d="M 70.8 298.245375 
L 427.92 298.245375 
" style="fill:none;stroke:#000000;stroke-linecap:square;stroke-linejoin:miter;stroke-width:0.8;"/>
   </g>
   <g id="patch_6">
    <path d="M 70.8 32.133375 
L 427.92 32.133375 
" style="fill:none;stroke:#000000;stroke-linecap:square;stroke-linejoin:miter;stroke-width:0.8;"/>
   </g>
   <g id="text_14">
    <!-- f9 -->
    <defs>
     <path d="M 10.984375 1.515625 
L 10.984375 10.5 
Q 14.703125 8.734375 18.5 7.8125 
Q 22.3125 6.890625 25.984375 6.890625 
Q 35.75 6.890625 40.890625 13.453125 
Q 46.046875 20.015625 46.78125 33.40625 
Q 43.953125 29.203125 39.59375 26.953125 
Q 35.25 24.703125 29.984375 24.703125 
Q 19.046875 24.703125 12.671875 31.3125 
Q 6.296875 37.9375 6.296875 49.421875 
Q 6.296875 60.640625 12.9375 67.421875 
Q 19.578125 74.21875 30.609375 74.21875 
Q 43.265625 74.21875 49.921875 64.515625 
Q 56.59375 54.828125 56.59375 36.375 
Q 56.59375 19.140625 48.40625 8.859375 
Q 40.234375 -1.421875 26.421875 -1.421875 
Q 22.703125 -1.421875 18.890625 -0.6875 
Q 15.09375 0.046875 10.984375 1.515625 
M 30.609375 32.421875 
Q 37.25 32.421875 41.125 36.953125 
Q 45.015625 41.5 45.015625 49.421875 
Q 45.015625 57.28125 41.125 61.84375 
Q 37.25 66.40625 30.609375 66.40625 
Q 23.96875 66.40625 20.09375 61.84375 
Q 16.21875 57.28125 16.21875 49.421875 
Q 16.21875 41.5 20.09375 36.953125 
Q 23.96875 32.421875 30.609375 32.421875 
" id="DejaVuSans-39"/>
    </defs>
    <g transform="translate(396.24 297.114893)scale(0.15 -0.15)">
     <use xlink:href="#DejaVuSans-66"/>
     <use x="35.205078" xlink:href="#DejaVuSans-39"/>
    </g>
   </g>
   <g id="text_15">
    <!-- f7 -->
    <defs>
     <path d="M 8.203125 72.90625 
L 55.078125 72.90625 
L 55.078125 68.703125 
L 28.609375 0 
L 18.3125 0 
L 43.21875 64.59375 
L 8.203125 64.59375 
z
" id="DejaVuSans-37"/>
    </defs>
    <g transform="translate(396.24 212.80218)scale(0.15 -0.15)">
     <use xlink:href="#DejaVuSans-66"/>
     <use x="35.205078" xlink:href="#DejaVuSans-37"/>
    </g>
   </g>
   <g id="text_16">
    <!-- f8 -->
    <g transform="translate(396.24 128.489467)scale(0.15 -0.15)">
     <use xlink:href="#DejaVuSans-66"/>
     <use x="35.205078" xlink:href="#DejaVuSans-38"/>
    </g>
   </g>
   <g id="text_17">
    <!-- f6 -->
    <g transform="translate(396.24 44.176754)scale(0.15 -0.15)">
     <use xlink:href="#DejaVuSans-66"/>
     <use x="35.205078" xlink:href="#DejaVuSans-36"/>
    </g>
   </g>
   <g id="text_18">
    <!-- bbob -->
    <defs>
     <path d="M 48.6875 27.296875 
Q 48.6875 37.203125 44.609375 42.84375 
Q 40.53125 48.484375 33.40625 48.484375 
Q 26.265625 48.484375 22.1875 42.84375 
Q 18.109375 37.203125 18.109375 27.296875 
Q 18.109375 17.390625 22.1875 11.75 
Q 26.265625 6.109375 33.40625 6.109375 
Q 40.53125 6.109375 44.609375 11.75 
Q 48.6875 17.390625 48.6875 27.296875 
M 18.109375 46.390625 
Q 20.953125 51.265625 25.265625 53.625 
Q 29.59375 56 35.59375 56 
Q 45.5625 56 51.78125 48.09375 
Q 58.015625 40.1875 58.015625 27.296875 
Q 58.015625 14.40625 51.78125 6.484375 
Q 45.5625 -1.421875 35.59375 -1.421875 
Q 29.59375 -1.421875 25.265625 0.953125 
Q 20.953125 3.328125 18.109375 8.203125 
L 18.109375 0 
L 9.078125 0 
L 9.078125 75.984375 
L 18.109375 75.984375 
z
" id="DejaVuSans-62"/>
    </defs>
    <g transform="translate(74.3712 50.114612)scale(0.1666 -0.1666)">
     <use xlink:href="#DejaVuSans-62"/>
     <use x="63.476562" xlink:href="#DejaVuSans-62"/>
     <use x="126.953125" xlink:href="#DejaVuSans-6f"/>
     <use x="188.134766" xlink:href="#DejaVuSans-62"/>
    </g>
    <!-- Misc. moderate functions, 20-D -->
    <defs>
     <path d="M 9.8125 72.90625 
L 24.515625 72.90625 
L 43.109375 23.296875 
L 61.8125 72.90625 
L 76.515625 72.90625 
L 76.515625 0 
L 66.890625 0 
L 66.890625 64.015625 
L 48.09375 14.015625 
L 38.1875 14.015625 
L 19.390625 64.015625 
L 19.390625 0 
L 9.8125 0 
z
" id="DejaVuSans-4d"/>
     <path d="M 11.71875 12.40625 
L 22.015625 12.40625 
L 22.015625 4 
L 14.015625 -11.625 
L 7.71875 -11.625 
L 11.71875 4 
z
" id="DejaVuSans-2c"/>
     <path d="M 19.671875 64.796875 
L 19.671875 8.109375 
L 31.59375 8.109375 
Q 46.6875 8.109375 53.6875 14.9375 
Q 60.6875 21.78125 60.6875 36.53125 
Q 60.6875 51.171875 53.6875 57.984375 
Q 46.6875 64.796875 31.59375 64.796875 
z
M 9.8125 72.90625 
L 30.078125 72.90625 
Q 51.265625 72.90625 61.171875 64.09375 
Q 71.09375 55.28125 71.09375 36.53125 
Q 71.09375 17.671875 61.125 8.828125 
Q 51.171875 0 30.078125 0 
L 9.8125 0 
z
" id="DejaVuSans-44"/>
    </defs>
    <g transform="translate(74.3712 68.770168)scale(0.1666 -0.1666)">
     <use xlink:href="#DejaVuSans-4d"/>
     <use x="86.279297" xlink:href="#DejaVuSans-69"/>
     <use x="114.0625" xlink:href="#DejaVuSans-73"/>
     <use x="166.162109" xlink:href="#DejaVuSans-63"/>
     <use x="221.142578" xlink:href="#DejaVuSans-2e"/>
     <use x="252.929688" xlink:href="#DejaVuSans-20"/>
     <use x="284.716797" xlink:href="#DejaVuSans-6d"/>
     <use x="382.128906" xlink:href="#DejaVuSans-6f"/>
     <use x="443.310547" xlink:href="#DejaVuSans-64"/>
     <use x="506.787109" xlink:href="#DejaVuSans-65"/>
     <use x="568.310547" xlink:href="#DejaVuSans-72"/>
     <use x="609.423828" xlink:href="#DejaVuSans-61"/>
     <use x="670.703125" xlink:href="#DejaVuSans-74"/>
     <use x="709.912109" xlink:href="#DejaVuSans-65"/>
     <use x="771.435547" xlink:href="#DejaVuSans-20"/>
     <use x="803.222656" xlink:href="#DejaVuSans-66"/>
     <use x="838.427734" xlink:href="#DejaVuSans-75"/>
     <use x="901.806641" xlink:href="#DejaVuSans-6e"/>
     <use x="965.185547" xlink:href="#DejaVuSans-63"/>
     <use x="1020.166016" xlink:href="#DejaVuSans-74"/>
     <use x="1059.375" xlink:href="#DejaVuSans-69"/>
     <use x="1087.158203" xlink:href="#DejaVuSans-6f"/>
     <use x="1148.339844" xlink:href="#DejaVuSans-6e"/>
     <use x="1211.71875" xlink:href="#DejaVuSans-73"/>
     <use x="1263.818359" xlink:href="#DejaVuSans-2c"/>
     <use x="1295.605469" xlink:href="#DejaVuSans-20"/>
     <use x="1327.392578" xlink:href="#DejaVuSans-32"/>
     <use x="1391.015625" xlink:href="#DejaVuSans-30"/>
     <use x="1454.638672" xlink:href="#DejaVuSans-2d"/>
     <use x="1490.722656" xlink:href="#DejaVuSans-44"/>
    </g>
    <!-- 51 targets in 100..1e-08 -->
    <defs>
     <path d="M 10.796875 72.90625 
L 49.515625 72.90625 
L 49.515625 64.59375 
L 19.828125 64.59375 
L 19.828125 46.734375 
Q 21.96875 47.46875 24.109375 47.828125 
Q 26.265625 48.1875 28.421875 48.1875 
Q 40.625 48.1875 47.75 41.5 
Q 54.890625 34.8125 54.890625 23.390625 
Q 54.890625 11.625 47.5625 5.09375 
Q 40.234375 -1.421875 26.90625 -1.421875 
Q 22.3125 -1.421875 17.546875 -0.640625 
Q 12.796875 0.140625 7.71875 1.703125 
L 7.71875 11.625 
Q 12.109375 9.234375 16.796875 8.0625 
Q 21.484375 6.890625 26.703125 6.890625 
Q 35.15625 6.890625 40.078125 11.328125 
Q 45.015625 15.765625 45.015625 23.390625 
Q 45.015625 31 40.078125 35.4375 
Q 35.15625 39.890625 26.703125 39.890625 
Q 22.75 39.890625 18.8125 39.015625 
Q 14.890625 38.140625 10.796875 36.28125 
z
" id="DejaVuSans-35"/>
    </defs>
    <g transform="translate(74.3712 87.425723)scale(0.1666 -0.1666)">
     <use xlink:href="#DejaVuSans-35"/>
     <use x="63.623047" xlink:href="#DejaVuSans-31"/>
     <use x="127.246094" xlink:href="#DejaVuSans-20"/>
     <use x="159.033203" xlink:href="#DejaVuSans-74"/>
     <use x="198.242188" xlink:href="#DejaVuSans-61"/>
     <use x="259.521484" xlink:href="#DejaVuSans-72"/>
     <use x="300.619141" xlink:href="#DejaVuSans-67"/>
     <use x="364.095703" xlink:href="#DejaVuSans-65"/>
     <use x="425.619141" xlink:href="#DejaVuSans-74"/>
     <use x="464.828125" xlink:href="#DejaVuSans-73"/>
     <use x="516.927734" xlink:href="#DejaVuSans-20"/>
     <use x="548.714844" xlink:href="#DejaVuSans-69"/>
     <use x="576.498047" xlink:href="#DejaVuSans-6e"/>
     <use x="639.876953" xlink:href="#DejaVuSans-20"/>
     <use x="671.664062" xlink:href="#DejaVuSans-31"/>
     <use x="735.287109" xlink:href="#DejaVuSans-30"/>
     <use x="798.910156" xlink:href="#DejaVuSans-30"/>
     <use x="862.533203" xlink:href="#DejaVuSans-2e"/>
     <use x="894.320312" xlink:href="#DejaVuSans-2e"/>
     <use x="926.107422" xlink:href="#DejaVuSans-31"/>
     <use x="989.730469" xlink:href="#DejaVuSans-65"/>
     <use x="1051.253906" xlink:href="#DejaVuSans-2d"/>
     <use x="1087.337891" xlink:href="#DejaVuSans-30"/>
     <use x="1150.960938" xlink:href="#DejaVuSans-38"/>
    </g>
    <!-- 15 instances -->
    <g transform="translate(74.3712 106.081279)scale(0.1666 -0.1666)">
     <use xlink:href="#DejaVuSans-31"/>
     <use x="63.623047" xlink:href="#DejaVuSans-35"/>
     <use x="127.246094" xlink:href="#DejaVuSans-20"/>
     <use x="159.033203" xlink:href="#DejaVuSans-69"/>
     <use x="186.816406" xlink:href="#DejaVuSans-6e"/>
     <use x="250.195312" xlink:href="#DejaVuSans-73"/>
     <use x="302.294922" xlink:href="#DejaVuSans-74"/>
     <use x="341.503906" xlink:href="#DejaVuSans-61"/>
     <use x="402.783203" xlink:href="#DejaVuSans-6e"/>
     <use x="466.162109" xlink:href="#DejaVuSans-63"/>
     <use x="521.142578" xlink:href="#DejaVuSans-65"/>
     <use x="582.666016" xlink:href="#DejaVuSans-73"/>
    </g>
   </g>
   <g id="text_19">
    <!-- v2.0.1 -->
    <g style="fill:#808080;" transform="translate(233.67875 293.504568)scale(0.1 -0.1)">
     <use xlink:href="#DejaVuSans-76"/>
     <use x="59.179688" xlink:href="#DejaVuSans-32"/>
     <use x="122.802734" xlink:href="#DejaVuSans-2e"/>
     <use x="154.589844" xlink:href="#DejaVuSans-30"/>
     <use x="218.212891" xlink:href="#DejaVuSans-2e"/>
     <use x="250" xlink:href="#DejaVuSans-31"/>
    </g>
   </g>
  </g>
 </g>
 <defs>
  <clipPath id="p401d06bb7f">
   <rect height="266.112" width="357.12" x="70.8" y="32.133375"/>
  </clipPath>
 </defs>
</svg>
