<?xml version="1.0" encoding="utf-8" standalone="no"?>
<!DOCTYPE svg PUBLIC "-//W3C//DTD SVG 1.1//EN"
  "http://www.w3.org/Graphics/SVG/1.1/DTD/svg11.dtd">
<!-- Created with matplotlib (http://matplotlib.org/) -->
<svg height="353pt" version="1.1" viewBox="0 0 439 353" width="439pt" xmlns="http://www.w3.org/2000/svg" xmlns:xlink="http://www.w3.org/1999/xlink">
 <defs>
  <style type="text/css">
*{stroke-linecap:butt;stroke-linejoin:round;}
  </style>
 </defs>
 <g id="figure_1">
  <g id="patch_1">
   <path d="M 0 353.22225 
L 439.489219 353.22225 
L 439.489219 0 
L 0 0 
z
" style="fill:#ffffff;"/>
  </g>
  <g id="axes_1">
   <g id="patch_2">
    <path d="M 70.8 298.245375 
L 427.92 298.245375 
L 427.92 32.133375 
L 70.8 32.133375 
z
" style="fill:#ffffff;"/>
   </g>
   <g id="matplotlib.axis_1">
    <g id="xtick_1">
     <g id="line2d_1">
      <path clip-path="url(#p4b7ed936f2)" d="M 70.8 298.245375 
L 70.8 32.133375 
" style="fill:none;stroke:#b0b0b0;stroke-linecap:square;stroke-width:0.8;"/>
     </g>
     <g id="line2d_2">
      <defs>
       <path d="M 0 0 
L 0 3.5 
" id="mb7dfb8a964" style="stroke:#000000;stroke-width:0.8;"/>
      </defs>
      <g>
       <use style="stroke:#000000;stroke-width:0.8;" x="70.8" xlink:href="#mb7dfb8a964" y="298.245375"/>
      </g>
     </g>
     <g id="text_1">
      <!-- 0 -->
      <defs>
       <path d="M 31.78125 66.40625 
Q 24.171875 66.40625 20.328125 58.90625 
Q 16.5 51.421875 16.5 36.375 
Q 16.5 21.390625 20.328125 13.890625 
Q 24.171875 6.390625 31.78125 6.390625 
Q 39.453125 6.390625 43.28125 13.890625 
Q 47.125 21.390625 47.125 36.375 
Q 47.125 51.421875 43.28125 58.90625 
Q 39.453125 66.40625 31.78125 66.40625 
M 31.78125 74.21875 
Q 44.046875 74.21875 50.515625 64.515625 
Q 56.984375 54.828125 56.984375 36.375 
Q 56.984375 17.96875 50.515625 8.265625 
Q 44.046875 -1.421875 31.78125 -1.421875 
Q 19.53125 -1.421875 13.0625 8.265625 
Q 6.59375 17.96875 6.59375 36.375 
Q 6.59375 54.828125 13.0625 64.515625 
Q 19.53125 74.21875 31.78125 74.21875 
" id="DejaVuSans-30"/>
      </defs>
      <g transform="translate(64.4375 320.44225)scale(0.2 -0.2)">
       <use xlink:href="#DejaVuSans-30"/>
      </g>
     </g>
    </g>
    <g id="xtick_2">
     <g id="line2d_3">
      <path clip-path="url(#p4b7ed936f2)" d="M 153.085714 298.245375 
L 153.085714 32.133375 
" style="fill:none;stroke:#b0b0b0;stroke-linecap:square;stroke-width:0.8;"/>
     </g>
     <g id="line2d_4">
      <g>
       <use style="stroke:#000000;stroke-width:0.8;" x="153.085714" xlink:href="#mb7dfb8a964" y="298.245375"/>
      </g>
     </g>
     <g id="text_2">
      <!-- 2 -->
      <defs>
       <path d="M 19.1875 8.296875 
L 53.609375 8.296875 
L 53.609375 0 
L 7.328125 0 
L 7.328125 8.296875 
Q 12.9375 14.109375 22.625 23.890625 
Q 32.328125 33.6875 34.8125 36.53125 
Q 39.546875 41.84375 41.421875 45.53125 
Q 43.3125 49.21875 43.3125 52.78125 
Q 43.3125 58.59375 39.234375 62.25 
Q 35.15625 65.921875 28.609375 65.921875 
Q 23.96875 65.921875 18.8125 64.3125 
Q 13.671875 62.703125 7.8125 59.421875 
L 7.8125 69.390625 
Q 13.765625 71.78125 18.9375 73 
Q 24.125 74.21875 28.421875 74.21875 
Q 39.75 74.21875 46.484375 68.546875 
Q 53.21875 62.890625 53.21875 53.421875 
Q 53.21875 48.921875 51.53125 44.890625 
Q 49.859375 40.875 45.40625 35.40625 
Q 44.1875 33.984375 37.640625 27.21875 
Q 31.109375 20.453125 19.1875 8.296875 
" id="DejaVuSans-32"/>
      </defs>
      <g transform="translate(146.723214 320.44225)scale(0.2 -0.2)">
       <use xlink:href="#DejaVuSans-32"/>
      </g>
     </g>
    </g>
    <g id="xtick_3">
     <g id="line2d_5">
      <path clip-path="url(#p4b7ed936f2)" d="M 235.371429 298.245375 
L 235.371429 32.133375 
" style="fill:none;stroke:#b0b0b0;stroke-linecap:square;stroke-width:0.8;"/>
     </g>
     <g id="line2d_6">
      <g>
       <use style="stroke:#000000;stroke-width:0.8;" x="235.371429" xlink:href="#mb7dfb8a964" y="298.245375"/>
      </g>
     </g>
     <g id="text_3">
      <!-- 4 -->
      <defs>
       <path d="M 37.796875 64.3125 
L 12.890625 25.390625 
L 37.796875 25.390625 
z
M 35.203125 72.90625 
L 47.609375 72.90625 
L 47.609375 25.390625 
L 58.015625 25.390625 
L 58.015625 17.1875 
L 47.609375 17.1875 
L 47.609375 0 
L 37.796875 0 
L 37.796875 17.1875 
L 4.890625 17.1875 
L 4.890625 26.703125 
z
" id="DejaVuSans-34"/>
      </defs>
      <g transform="translate(229.008929 320.44225)scale(0.2 -0.2)">
       <use xlink:href="#DejaVuSans-34"/>
      </g>
     </g>
    </g>
    <g id="xtick_4">
     <g id="line2d_7">
      <path clip-path="url(#p4b7ed936f2)" d="M 317.657143 298.245375 
L 317.657143 32.133375 
" style="fill:none;stroke:#b0b0b0;stroke-linecap:square;stroke-width:0.8;"/>
     </g>
     <g id="line2d_8">
      <g>
       <use style="stroke:#000000;stroke-width:0.8;" x="317.657143" xlink:href="#mb7dfb8a964" y="298.245375"/>
      </g>
     </g>
     <g id="text_4">
      <!-- 6 -->
      <defs>
       <path d="M 33.015625 40.375 
Q 26.375 40.375 22.484375 35.828125 
Q 18.609375 31.296875 18.609375 23.390625 
Q 18.609375 15.53125 22.484375 10.953125 
Q 26.375 6.390625 33.015625 6.390625 
Q 39.65625 6.390625 43.53125 10.953125 
Q 47.40625 15.53125 47.40625 23.390625 
Q 47.40625 31.296875 43.53125 35.828125 
Q 39.65625 40.375 33.015625 40.375 
M 52.59375 71.296875 
L 52.59375 62.3125 
Q 48.875 64.0625 45.09375 64.984375 
Q 41.3125 65.921875 37.59375 65.921875 
Q 27.828125 65.921875 22.671875 59.328125 
Q 17.53125 52.734375 16.796875 39.40625 
Q 19.671875 43.65625 24.015625 45.921875 
Q 28.375 48.1875 33.59375 48.1875 
Q 44.578125 48.1875 50.953125 41.515625 
Q 57.328125 34.859375 57.328125 23.390625 
Q 57.328125 12.15625 50.6875 5.359375 
Q 44.046875 -1.421875 33.015625 -1.421875 
Q 20.359375 -1.421875 13.671875 8.265625 
Q 6.984375 17.96875 6.984375 36.375 
Q 6.984375 53.65625 15.1875 63.9375 
Q 23.390625 74.21875 37.203125 74.21875 
Q 40.921875 74.21875 44.703125 73.484375 
Q 48.484375 72.75 52.59375 71.296875 
" id="DejaVuSans-36"/>
      </defs>
      <g transform="translate(311.294643 320.44225)scale(0.2 -0.2)">
       <use xlink:href="#DejaVuSans-36"/>
      </g>
     </g>
    </g>
    <g id="xtick_5">
     <g id="line2d_9">
      <path clip-path="url(#p4b7ed936f2)" d="M 399.942857 298.245375 
L 399.942857 32.133375 
" style="fill:none;stroke:#b0b0b0;stroke-linecap:square;stroke-width:0.8;"/>
     </g>
     <g id="line2d_10">
      <g>
       <use style="stroke:#000000;stroke-width:0.8;" x="399.942857" xlink:href="#mb7dfb8a964" y="298.245375"/>
      </g>
     </g>
     <g id="text_5">
      <!-- 8 -->
      <defs>
       <path d="M 31.78125 34.625 
Q 24.75 34.625 20.71875 30.859375 
Q 16.703125 27.09375 16.703125 20.515625 
Q 16.703125 13.921875 20.71875 10.15625 
Q 24.75 6.390625 31.78125 6.390625 
Q 38.8125 6.390625 42.859375 10.171875 
Q 46.921875 13.96875 46.921875 20.515625 
Q 46.921875 27.09375 42.890625 30.859375 
Q 38.875 34.625 31.78125 34.625 
M 21.921875 38.8125 
Q 15.578125 40.375 12.03125 44.71875 
Q 8.5 49.078125 8.5 55.328125 
Q 8.5 64.0625 14.71875 69.140625 
Q 20.953125 74.21875 31.78125 74.21875 
Q 42.671875 74.21875 48.875 69.140625 
Q 55.078125 64.0625 55.078125 55.328125 
Q 55.078125 49.078125 51.53125 44.71875 
Q 48 40.375 41.703125 38.8125 
Q 48.828125 37.15625 52.796875 32.3125 
Q 56.78125 27.484375 56.78125 20.515625 
Q 56.78125 9.90625 50.3125 4.234375 
Q 43.84375 -1.421875 31.78125 -1.421875 
Q 19.734375 -1.421875 13.25 4.234375 
Q 6.78125 9.90625 6.78125 20.515625 
Q 6.78125 27.484375 10.78125 32.3125 
Q 14.796875 37.15625 21.921875 38.8125 
M 18.3125 54.390625 
Q 18.3125 48.734375 21.84375 45.5625 
Q 25.390625 42.390625 31.78125 42.390625 
Q 38.140625 42.390625 41.71875 45.5625 
Q 45.3125 48.734375 45.3125 54.390625 
Q 45.3125 60.0625 41.71875 63.234375 
Q 38.140625 66.40625 31.78125 66.40625 
Q 25.390625 66.40625 21.84375 63.234375 
Q 18.3125 60.0625 18.3125 54.390625 
" id="DejaVuSans-38"/>
      </defs>
      <g transform="translate(393.580357 320.44225)scale(0.2 -0.2)">
       <use xlink:href="#DejaVuSans-38"/>
      </g>
     </g>
    </g>
    <g id="xtick_6">
     <g id="line2d_11">
      <defs>
       <path d="M 0 0 
L 0 2 
" id="m51e58a7870" style="stroke:#000000;stroke-width:0.6;"/>
      </defs>
      <g>
       <use style="stroke:#000000;stroke-width:0.6;" x="83.185234" xlink:href="#m51e58a7870" y="298.245375"/>
      </g>
     </g>
    </g>
    <g id="xtick_7">
     <g id="line2d_12">
      <g>
       <use style="stroke:#000000;stroke-width:0.6;" x="95.570468" xlink:href="#m51e58a7870" y="298.245375"/>
      </g>
     </g>
    </g>
    <g id="xtick_8">
     <g id="line2d_13">
      <g>
       <use style="stroke:#000000;stroke-width:0.6;" x="102.815366" xlink:href="#m51e58a7870" y="298.245375"/>
      </g>
     </g>
    </g>
    <g id="xtick_9">
     <g id="line2d_14">
      <g>
       <use style="stroke:#000000;stroke-width:0.6;" x="107.955702" xlink:href="#m51e58a7870" y="298.245375"/>
      </g>
     </g>
    </g>
    <g id="xtick_10">
     <g id="line2d_15">
      <g>
       <use style="stroke:#000000;stroke-width:0.6;" x="165.470948" xlink:href="#m51e58a7870" y="298.245375"/>
      </g>
     </g>
    </g>
    <g id="xtick_11">
     <g id="line2d_16">
      <g>
       <use style="stroke:#000000;stroke-width:0.6;" x="177.856183" xlink:href="#m51e58a7870" y="298.245375"/>
      </g>
     </g>
    </g>
    <g id="xtick_12">
     <g id="line2d_17">
      <g>
       <use style="stroke:#000000;stroke-width:0.6;" x="185.10108" xlink:href="#m51e58a7870" y="298.245375"/>
      </g>
     </g>
    </g>
    <g id="xtick_13">
     <g id="line2d_18">
      <g>
       <use style="stroke:#000000;stroke-width:0.6;" x="190.241417" xlink:href="#m51e58a7870" y="298.245375"/>
      </g>
     </g>
    </g>
    <g id="xtick_14">
     <g id="line2d_19">
      <g>
       <use style="stroke:#000000;stroke-width:0.6;" x="247.756663" xlink:href="#m51e58a7870" y="298.245375"/>
      </g>
     </g>
    </g>
    <g id="xtick_15">
     <g id="line2d_20">
      <g>
       <use style="stroke:#000000;stroke-width:0.6;" x="260.141897" xlink:href="#m51e58a7870" y="298.245375"/>
      </g>
     </g>
    </g>
    <g id="xtick_16">
     <g id="line2d_21">
      <g>
       <use style="stroke:#000000;stroke-width:0.6;" x="267.386794" xlink:href="#m51e58a7870" y="298.245375"/>
      </g>
     </g>
    </g>
    <g id="xtick_17">
     <g id="line2d_22">
      <g>
       <use style="stroke:#000000;stroke-width:0.6;" x="272.527131" xlink:href="#m51e58a7870" y="298.245375"/>
      </g>
     </g>
    </g>
    <g id="xtick_18">
     <g id="line2d_23">
      <g>
       <use style="stroke:#000000;stroke-width:0.6;" x="330.042377" xlink:href="#m51e58a7870" y="298.245375"/>
      </g>
     </g>
    </g>
    <g id="xtick_19">
     <g id="line2d_24">
      <g>
       <use style="stroke:#000000;stroke-width:0.6;" x="342.427611" xlink:href="#m51e58a7870" y="298.245375"/>
      </g>
     </g>
    </g>
    <g id="xtick_20">
     <g id="line2d_25">
      <g>
       <use style="stroke:#000000;stroke-width:0.6;" x="349.672509" xlink:href="#m51e58a7870" y="298.245375"/>
      </g>
     </g>
    </g>
    <g id="xtick_21">
     <g id="line2d_26">
      <g>
       <use style="stroke:#000000;stroke-width:0.6;" x="354.812845" xlink:href="#m51e58a7870" y="298.245375"/>
      </g>
     </g>
    </g>
    <g id="xtick_22">
     <g id="line2d_27">
      <g>
       <use style="stroke:#000000;stroke-width:0.6;" x="412.328091" xlink:href="#m51e58a7870" y="298.245375"/>
      </g>
     </g>
    </g>
    <g id="xtick_23">
     <g id="line2d_28">
      <g>
       <use style="stroke:#000000;stroke-width:0.6;" x="424.713325" xlink:href="#m51e58a7870" y="298.245375"/>
      </g>
     </g>
    </g>
    <g id="text_6">
     <!-- log10 of (# f-evals / dimension) -->
     <defs>
      <path d="M 9.421875 75.984375 
L 18.40625 75.984375 
L 18.40625 0 
L 9.421875 0 
z
" id="DejaVuSans-6c"/>
      <path d="M 30.609375 48.390625 
Q 23.390625 48.390625 19.1875 42.75 
Q 14.984375 37.109375 14.984375 27.296875 
Q 14.984375 17.484375 19.15625 11.84375 
Q 23.34375 6.203125 30.609375 6.203125 
Q 37.796875 6.203125 41.984375 11.859375 
Q 46.1875 17.53125 46.1875 27.296875 
Q 46.1875 37.015625 41.984375 42.703125 
Q 37.796875 48.390625 30.609375 48.390625 
M 30.609375 56 
Q 42.328125 56 49.015625 48.375 
Q 55.71875 40.765625 55.71875 27.296875 
Q 55.71875 13.875 49.015625 6.21875 
Q 42.328125 -1.421875 30.609375 -1.421875 
Q 18.84375 -1.421875 12.171875 6.21875 
Q 5.515625 13.875 5.515625 27.296875 
Q 5.515625 40.765625 12.171875 48.375 
Q 18.84375 56 30.609375 56 
" id="DejaVuSans-6f"/>
      <path d="M 45.40625 27.984375 
Q 45.40625 37.75 41.375 43.109375 
Q 37.359375 48.484375 30.078125 48.484375 
Q 22.859375 48.484375 18.828125 43.109375 
Q 14.796875 37.75 14.796875 27.984375 
Q 14.796875 18.265625 18.828125 12.890625 
Q 22.859375 7.515625 30.078125 7.515625 
Q 37.359375 7.515625 41.375 12.890625 
Q 45.40625 18.265625 45.40625 27.984375 
M 54.390625 6.78125 
Q 54.390625 -7.171875 48.1875 -13.984375 
Q 42 -20.796875 29.203125 -20.796875 
Q 24.46875 -20.796875 20.265625 -20.09375 
Q 16.0625 -19.390625 12.109375 -17.921875 
L 12.109375 -9.1875 
Q 16.0625 -11.328125 19.921875 -12.34375 
Q 23.78125 -13.375 27.78125 -13.375 
Q 36.625 -13.375 41.015625 -8.765625 
Q 45.40625 -4.15625 45.40625 5.171875 
L 45.40625 9.625 
Q 42.625 4.78125 38.28125 2.390625 
Q 33.9375 0 27.875 0 
Q 17.828125 0 11.671875 7.65625 
Q 5.515625 15.328125 5.515625 27.984375 
Q 5.515625 40.671875 11.671875 48.328125 
Q 17.828125 56 27.875 56 
Q 33.9375 56 38.28125 53.609375 
Q 42.625 51.21875 45.40625 46.390625 
L 45.40625 54.6875 
L 54.390625 54.6875 
z
" id="DejaVuSans-67"/>
      <path d="M 12.40625 8.296875 
L 28.515625 8.296875 
L 28.515625 63.921875 
L 10.984375 60.40625 
L 10.984375 69.390625 
L 28.421875 72.90625 
L 38.28125 72.90625 
L 38.28125 8.296875 
L 54.390625 8.296875 
L 54.390625 0 
L 12.40625 0 
z
" id="DejaVuSans-31"/>
      <path id="DejaVuSans-20"/>
      <path d="M 37.109375 75.984375 
L 37.109375 68.5 
L 28.515625 68.5 
Q 23.6875 68.5 21.796875 66.546875 
Q 19.921875 64.59375 19.921875 59.515625 
L 19.921875 54.6875 
L 34.71875 54.6875 
L 34.71875 47.703125 
L 19.921875 47.703125 
L 19.921875 0 
L 10.890625 0 
L 10.890625 47.703125 
L 2.296875 47.703125 
L 2.296875 54.6875 
L 10.890625 54.6875 
L 10.890625 58.5 
Q 10.890625 67.625 15.140625 71.796875 
Q 19.390625 75.984375 28.609375 75.984375 
z
" id="DejaVuSans-66"/>
      <path d="M 31 75.875 
Q 24.46875 64.65625 21.28125 53.65625 
Q 18.109375 42.671875 18.109375 31.390625 
Q 18.109375 20.125 21.3125 9.0625 
Q 24.515625 -2 31 -13.1875 
L 23.1875 -13.1875 
Q 15.875 -1.703125 12.234375 9.375 
Q 8.59375 20.453125 8.59375 31.390625 
Q 8.59375 42.28125 12.203125 53.3125 
Q 15.828125 64.359375 23.1875 75.875 
z
" id="DejaVuSans-28"/>
      <path d="M 51.125 44 
L 36.921875 44 
L 32.8125 27.6875 
L 47.125 27.6875 
z
M 43.796875 71.78125 
L 38.71875 51.515625 
L 52.984375 51.515625 
L 58.109375 71.78125 
L 65.921875 71.78125 
L 60.890625 51.515625 
L 76.125 51.515625 
L 76.125 44 
L 58.984375 44 
L 54.984375 27.6875 
L 70.515625 27.6875 
L 70.515625 20.21875 
L 53.078125 20.21875 
L 48 0 
L 40.1875 0 
L 45.21875 20.21875 
L 30.90625 20.21875 
L 25.875 0 
L 18.015625 0 
L 23.09375 20.21875 
L 7.71875 20.21875 
L 7.71875 27.6875 
L 24.90625 27.6875 
L 29 44 
L 13.28125 44 
L 13.28125 51.515625 
L 30.90625 51.515625 
L 35.890625 71.78125 
z
" id="DejaVuSans-23"/>
      <path d="M 4.890625 31.390625 
L 31.203125 31.390625 
L 31.203125 23.390625 
L 4.890625 23.390625 
z
" id="DejaVuSans-2d"/>
      <path d="M 56.203125 29.59375 
L 56.203125 25.203125 
L 14.890625 25.203125 
Q 15.484375 15.921875 20.484375 11.0625 
Q 25.484375 6.203125 34.421875 6.203125 
Q 39.59375 6.203125 44.453125 7.46875 
Q 49.3125 8.734375 54.109375 11.28125 
L 54.109375 2.78125 
Q 49.265625 0.734375 44.1875 -0.34375 
Q 39.109375 -1.421875 33.890625 -1.421875 
Q 20.796875 -1.421875 13.15625 6.1875 
Q 5.515625 13.8125 5.515625 26.8125 
Q 5.515625 40.234375 12.765625 48.109375 
Q 20.015625 56 32.328125 56 
Q 43.359375 56 49.78125 48.890625 
Q 56.203125 41.796875 56.203125 29.59375 
M 47.21875 32.234375 
Q 47.125 39.59375 43.09375 43.984375 
Q 39.0625 48.390625 32.421875 48.390625 
Q 24.90625 48.390625 20.390625 44.140625 
Q 15.875 39.890625 15.1875 32.171875 
z
" id="DejaVuSans-65"/>
      <path d="M 2.984375 54.6875 
L 12.5 54.6875 
L 29.59375 8.796875 
L 46.6875 54.6875 
L 56.203125 54.6875 
L 35.6875 0 
L 23.484375 0 
z
" id="DejaVuSans-76"/>
      <path d="M 34.28125 27.484375 
Q 23.390625 27.484375 19.1875 25 
Q 14.984375 22.515625 14.984375 16.5 
Q 14.984375 11.71875 18.140625 8.90625 
Q 21.296875 6.109375 26.703125 6.109375 
Q 34.1875 6.109375 38.703125 11.40625 
Q 43.21875 16.703125 43.21875 25.484375 
L 43.21875 27.484375 
z
M 52.203125 31.203125 
L 52.203125 0 
L 43.21875 0 
L 43.21875 8.296875 
Q 40.140625 3.328125 35.546875 0.953125 
Q 30.953125 -1.421875 24.3125 -1.421875 
Q 15.921875 -1.421875 10.953125 3.296875 
Q 6 8.015625 6 15.921875 
Q 6 25.140625 12.171875 29.828125 
Q 18.359375 34.515625 30.609375 34.515625 
L 43.21875 34.515625 
L 43.21875 35.40625 
Q 43.21875 41.609375 39.140625 45 
Q 35.0625 48.390625 27.6875 48.390625 
Q 23 48.390625 18.546875 47.265625 
Q 14.109375 46.140625 10.015625 43.890625 
L 10.015625 52.203125 
Q 14.9375 54.109375 19.578125 55.046875 
Q 24.21875 56 28.609375 56 
Q 40.484375 56 46.34375 49.84375 
Q 52.203125 43.703125 52.203125 31.203125 
" id="DejaVuSans-61"/>
      <path d="M 44.28125 53.078125 
L 44.28125 44.578125 
Q 40.484375 46.53125 36.375 47.5 
Q 32.28125 48.484375 27.875 48.484375 
Q 21.1875 48.484375 17.84375 46.4375 
Q 14.5 44.390625 14.5 40.28125 
Q 14.5 37.15625 16.890625 35.375 
Q 19.28125 33.59375 26.515625 31.984375 
L 29.59375 31.296875 
Q 39.15625 29.25 43.1875 25.515625 
Q 47.21875 21.78125 47.21875 15.09375 
Q 47.21875 7.46875 41.1875 3.015625 
Q 35.15625 -1.421875 24.609375 -1.421875 
Q 20.21875 -1.421875 15.453125 -0.5625 
Q 10.6875 0.296875 5.421875 2 
L 5.421875 11.28125 
Q 10.40625 8.6875 15.234375 7.390625 
Q 20.0625 6.109375 24.8125 6.109375 
Q 31.15625 6.109375 34.5625 8.28125 
Q 37.984375 10.453125 37.984375 14.40625 
Q 37.984375 18.0625 35.515625 20.015625 
Q 33.0625 21.96875 24.703125 23.78125 
L 21.578125 24.515625 
Q 13.234375 26.265625 9.515625 29.90625 
Q 5.8125 33.546875 5.8125 39.890625 
Q 5.8125 47.609375 11.28125 51.796875 
Q 16.75 56 26.8125 56 
Q 31.78125 56 36.171875 55.265625 
Q 40.578125 54.546875 44.28125 53.078125 
" id="DejaVuSans-73"/>
      <path d="M 25.390625 72.90625 
L 33.6875 72.90625 
L 8.296875 -9.28125 
L 0 -9.28125 
z
" id="DejaVuSans-2f"/>
      <path d="M 45.40625 46.390625 
L 45.40625 75.984375 
L 54.390625 75.984375 
L 54.390625 0 
L 45.40625 0 
L 45.40625 8.203125 
Q 42.578125 3.328125 38.25 0.953125 
Q 33.9375 -1.421875 27.875 -1.421875 
Q 17.96875 -1.421875 11.734375 6.484375 
Q 5.515625 14.40625 5.515625 27.296875 
Q 5.515625 40.1875 11.734375 48.09375 
Q 17.96875 56 27.875 56 
Q 33.9375 56 38.25 53.625 
Q 42.578125 51.265625 45.40625 46.390625 
M 14.796875 27.296875 
Q 14.796875 17.390625 18.875 11.75 
Q 22.953125 6.109375 30.078125 6.109375 
Q 37.203125 6.109375 41.296875 11.75 
Q 45.40625 17.390625 45.40625 27.296875 
Q 45.40625 37.203125 41.296875 42.84375 
Q 37.203125 48.484375 30.078125 48.484375 
Q 22.953125 48.484375 18.875 42.84375 
Q 14.796875 37.203125 14.796875 27.296875 
" id="DejaVuSans-64"/>
      <path d="M 9.421875 54.6875 
L 18.40625 54.6875 
L 18.40625 0 
L 9.421875 0 
z
M 9.421875 75.984375 
L 18.40625 75.984375 
L 18.40625 64.59375 
L 9.421875 64.59375 
z
" id="DejaVuSans-69"/>
      <path d="M 52 44.1875 
Q 55.375 50.25 60.0625 53.125 
Q 64.75 56 71.09375 56 
Q 79.640625 56 84.28125 50.015625 
Q 88.921875 44.046875 88.921875 33.015625 
L 88.921875 0 
L 79.890625 0 
L 79.890625 32.71875 
Q 79.890625 40.578125 77.09375 44.375 
Q 74.3125 48.1875 68.609375 48.1875 
Q 61.625 48.1875 57.5625 43.546875 
Q 53.515625 38.921875 53.515625 30.90625 
L 53.515625 0 
L 44.484375 0 
L 44.484375 32.71875 
Q 44.484375 40.625 41.703125 44.40625 
Q 38.921875 48.1875 33.109375 48.1875 
Q 26.21875 48.1875 22.15625 43.53125 
Q 18.109375 38.875 18.109375 30.90625 
L 18.109375 0 
L 9.078125 0 
L 9.078125 54.6875 
L 18.109375 54.6875 
L 18.109375 46.1875 
Q 21.1875 51.21875 25.484375 53.609375 
Q 29.78125 56 35.6875 56 
Q 41.65625 56 45.828125 52.96875 
Q 50 49.953125 52 44.1875 
" id="DejaVuSans-6d"/>
      <path d="M 54.890625 33.015625 
L 54.890625 0 
L 45.90625 0 
L 45.90625 32.71875 
Q 45.90625 40.484375 42.875 44.328125 
Q 39.84375 48.1875 33.796875 48.1875 
Q 26.515625 48.1875 22.3125 43.546875 
Q 18.109375 38.921875 18.109375 30.90625 
L 18.109375 0 
L 9.078125 0 
L 9.078125 54.6875 
L 18.109375 54.6875 
L 18.109375 46.1875 
Q 21.34375 51.125 25.703125 53.5625 
Q 30.078125 56 35.796875 56 
Q 45.21875 56 50.046875 50.171875 
Q 54.890625 44.34375 54.890625 33.015625 
" id="DejaVuSans-6e"/>
      <path d="M 8.015625 75.875 
L 15.828125 75.875 
Q 23.140625 64.359375 26.78125 53.3125 
Q 30.421875 42.28125 30.421875 31.390625 
Q 30.421875 20.453125 26.78125 9.375 
Q 23.140625 -1.703125 15.828125 -13.1875 
L 8.015625 -13.1875 
Q 14.5 -2 17.703125 9.0625 
Q 20.90625 20.125 20.90625 31.390625 
Q 20.90625 42.671875 17.703125 53.65625 
Q 14.5 64.65625 8.015625 75.875 
" id="DejaVuSans-29"/>
     </defs>
     <g transform="translate(107.015156 342.278812)scale(0.18 -0.18)">
      <use xlink:href="#DejaVuSans-6c"/>
      <use x="27.783203" xlink:href="#DejaVuSans-6f"/>
      <use x="88.964844" xlink:href="#DejaVuSans-67"/>
      <use x="152.441406" xlink:href="#DejaVuSans-31"/>
      <use x="216.064453" xlink:href="#DejaVuSans-30"/>
      <use x="279.6875" xlink:href="#DejaVuSans-20"/>
      <use x="311.474609" xlink:href="#DejaVuSans-6f"/>
      <use x="372.65625" xlink:href="#DejaVuSans-66"/>
      <use x="407.861328" xlink:href="#DejaVuSans-20"/>
      <use x="439.648438" xlink:href="#DejaVuSans-28"/>
      <use x="478.662109" xlink:href="#DejaVuSans-23"/>
      <use x="562.451172" xlink:href="#DejaVuSans-20"/>
      <use x="594.238281" xlink:href="#DejaVuSans-66"/>
      <use x="629.365234" xlink:href="#DejaVuSans-2d"/>
      <use x="665.449219" xlink:href="#DejaVuSans-65"/>
      <use x="726.972656" xlink:href="#DejaVuSans-76"/>
      <use x="786.152344" xlink:href="#DejaVuSans-61"/>
      <use x="847.431641" xlink:href="#DejaVuSans-6c"/>
      <use x="875.214844" xlink:href="#DejaVuSans-73"/>
      <use x="927.314453" xlink:href="#DejaVuSans-20"/>
      <use x="959.101562" xlink:href="#DejaVuSans-2f"/>
      <use x="992.792969" xlink:href="#DejaVuSans-20"/>
      <use x="1024.580078" xlink:href="#DejaVuSans-64"/>
      <use x="1088.056641" xlink:href="#DejaVuSans-69"/>
      <use x="1115.839844" xlink:href="#DejaVuSans-6d"/>
      <use x="1213.251953" xlink:href="#DejaVuSans-65"/>
      <use x="1274.775391" xlink:href="#DejaVuSans-6e"/>
      <use x="1338.154297" xlink:href="#DejaVuSans-73"/>
      <use x="1390.253906" xlink:href="#DejaVuSans-69"/>
      <use x="1418.037109" xlink:href="#DejaVuSans-6f"/>
      <use x="1479.21875" xlink:href="#DejaVuSans-6e"/>
      <use x="1542.597656" xlink:href="#DejaVuSans-29"/>
     </g>
    </g>
   </g>
   <g id="matplotlib.axis_2">
    <g id="ytick_1">
     <g id="line2d_29">
      <path clip-path="url(#p4b7ed936f2)" d="M 70.8 298.245375 
L 427.92 298.245375 
" style="fill:none;stroke:#b0b0b0;stroke-linecap:square;stroke-width:0.8;"/>
     </g>
     <g id="line2d_30">
      <defs>
       <path d="M 0 0 
L -3.5 0 
" id="m3b2a578955" style="stroke:#000000;stroke-width:0.8;"/>
      </defs>
      <g>
       <use style="stroke:#000000;stroke-width:0.8;" x="70.8" xlink:href="#m3b2a578955" y="298.245375"/>
      </g>
     </g>
     <g id="text_7">
      <!-- 0.0 -->
      <defs>
       <path d="M 10.6875 12.40625 
L 21 12.40625 
L 21 0 
L 10.6875 0 
z
" id="DejaVuSans-2e"/>
      </defs>
      <g transform="translate(31.99375 305.843812)scale(0.2 -0.2)">
       <use xlink:href="#DejaVuSans-30"/>
       <use x="63.623047" xlink:href="#DejaVuSans-2e"/>
       <use x="95.410156" xlink:href="#DejaVuSans-30"/>
      </g>
     </g>
    </g>
    <g id="ytick_2">
     <g id="line2d_31">
      <path clip-path="url(#p4b7ed936f2)" d="M 70.8 245.549929 
L 427.92 245.549929 
" style="fill:none;stroke:#b0b0b0;stroke-linecap:square;stroke-width:0.8;"/>
     </g>
     <g id="line2d_32">
      <g>
       <use style="stroke:#000000;stroke-width:0.8;" x="70.8" xlink:href="#m3b2a578955" y="245.549929"/>
      </g>
     </g>
     <g id="text_8">
      <!-- 0.2 -->
      <g transform="translate(31.99375 253.148367)scale(0.2 -0.2)">
       <use xlink:href="#DejaVuSans-30"/>
       <use x="63.623047" xlink:href="#DejaVuSans-2e"/>
       <use x="95.410156" xlink:href="#DejaVuSans-32"/>
      </g>
     </g>
    </g>
    <g id="ytick_3">
     <g id="line2d_33">
      <path clip-path="url(#p4b7ed936f2)" d="M 70.8 192.854484 
L 427.92 192.854484 
" style="fill:none;stroke:#b0b0b0;stroke-linecap:square;stroke-width:0.8;"/>
     </g>
     <g id="line2d_34">
      <g>
       <use style="stroke:#000000;stroke-width:0.8;" x="70.8" xlink:href="#m3b2a578955" y="192.854484"/>
      </g>
     </g>
     <g id="text_9">
      <!-- 0.4 -->
      <g transform="translate(31.99375 200.452921)scale(0.2 -0.2)">
       <use xlink:href="#DejaVuSans-30"/>
       <use x="63.623047" xlink:href="#DejaVuSans-2e"/>
       <use x="95.410156" xlink:href="#DejaVuSans-34"/>
      </g>
     </g>
    </g>
    <g id="ytick_4">
     <g id="line2d_35">
      <path clip-path="url(#p4b7ed936f2)" d="M 70.8 140.159038 
L 427.92 140.159038 
" style="fill:none;stroke:#b0b0b0;stroke-linecap:square;stroke-width:0.8;"/>
     </g>
     <g id="line2d_36">
      <g>
       <use style="stroke:#000000;stroke-width:0.8;" x="70.8" xlink:href="#m3b2a578955" y="140.159038"/>
      </g>
     </g>
     <g id="text_10">
      <!-- 0.6 -->
      <g transform="translate(31.99375 147.757476)scale(0.2 -0.2)">
       <use xlink:href="#DejaVuSans-30"/>
       <use x="63.623047" xlink:href="#DejaVuSans-2e"/>
       <use x="95.410156" xlink:href="#DejaVuSans-36"/>
      </g>
     </g>
    </g>
    <g id="ytick_5">
     <g id="line2d_37">
      <path clip-path="url(#p4b7ed936f2)" d="M 70.8 87.463593 
L 427.92 87.463593 
" style="fill:none;stroke:#b0b0b0;stroke-linecap:square;stroke-width:0.8;"/>
     </g>
     <g id="line2d_38">
      <g>
       <use style="stroke:#000000;stroke-width:0.8;" x="70.8" xlink:href="#m3b2a578955" y="87.463593"/>
      </g>
     </g>
     <g id="text_11">
      <!-- 0.8 -->
      <g transform="translate(31.99375 95.06203)scale(0.2 -0.2)">
       <use xlink:href="#DejaVuSans-30"/>
       <use x="63.623047" xlink:href="#DejaVuSans-2e"/>
       <use x="95.410156" xlink:href="#DejaVuSans-38"/>
      </g>
     </g>
    </g>
    <g id="ytick_6">
     <g id="line2d_39">
      <path clip-path="url(#p4b7ed936f2)" d="M 70.8 34.768147 
L 427.92 34.768147 
" style="fill:none;stroke:#b0b0b0;stroke-linecap:square;stroke-width:0.8;"/>
     </g>
     <g id="line2d_40">
      <g>
       <use style="stroke:#000000;stroke-width:0.8;" x="70.8" xlink:href="#m3b2a578955" y="34.768147"/>
      </g>
     </g>
     <g id="text_12">
      <!-- 1.0 -->
      <g transform="translate(31.99375 42.366585)scale(0.2 -0.2)">
       <use xlink:href="#DejaVuSans-31"/>
       <use x="63.623047" xlink:href="#DejaVuSans-2e"/>
       <use x="95.410156" xlink:href="#DejaVuSans-30"/>
      </g>
     </g>
    </g>
    <g id="text_13">
     <!-- Proportion of function+target pairs -->
     <defs>
      <path d="M 19.671875 64.796875 
L 19.671875 37.40625 
L 32.078125 37.40625 
Q 38.96875 37.40625 42.71875 40.96875 
Q 46.484375 44.53125 46.484375 51.125 
Q 46.484375 57.671875 42.71875 61.234375 
Q 38.96875 64.796875 32.078125 64.796875 
z
M 9.8125 72.90625 
L 32.078125 72.90625 
Q 44.34375 72.90625 50.609375 67.359375 
Q 56.890625 61.8125 56.890625 51.125 
Q 56.890625 40.328125 50.609375 34.8125 
Q 44.34375 29.296875 32.078125 29.296875 
L 19.671875 29.296875 
L 19.671875 0 
L 9.8125 0 
z
" id="DejaVuSans-50"/>
      <path d="M 41.109375 46.296875 
Q 39.59375 47.171875 37.8125 47.578125 
Q 36.03125 48 33.890625 48 
Q 26.265625 48 22.1875 43.046875 
Q 18.109375 38.09375 18.109375 28.8125 
L 18.109375 0 
L 9.078125 0 
L 9.078125 54.6875 
L 18.109375 54.6875 
L 18.109375 46.1875 
Q 20.953125 51.171875 25.484375 53.578125 
Q 30.03125 56 36.53125 56 
Q 37.453125 56 38.578125 55.875 
Q 39.703125 55.765625 41.0625 55.515625 
z
" id="DejaVuSans-72"/>
      <path d="M 18.109375 8.203125 
L 18.109375 -20.796875 
L 9.078125 -20.796875 
L 9.078125 54.6875 
L 18.109375 54.6875 
L 18.109375 46.390625 
Q 20.953125 51.265625 25.265625 53.625 
Q 29.59375 56 35.59375 56 
Q 45.5625 56 51.78125 48.09375 
Q 58.015625 40.1875 58.015625 27.296875 
Q 58.015625 14.40625 51.78125 6.484375 
Q 45.5625 -1.421875 35.59375 -1.421875 
Q 29.59375 -1.421875 25.265625 0.953125 
Q 20.953125 3.328125 18.109375 8.203125 
M 48.6875 27.296875 
Q 48.6875 37.203125 44.609375 42.84375 
Q 40.53125 48.484375 33.40625 48.484375 
Q 26.265625 48.484375 22.1875 42.84375 
Q 18.109375 37.203125 18.109375 27.296875 
Q 18.109375 17.390625 22.1875 11.75 
Q 26.265625 6.109375 33.40625 6.109375 
Q 40.53125 6.109375 44.609375 11.75 
Q 48.6875 17.390625 48.6875 27.296875 
" id="DejaVuSans-70"/>
      <path d="M 18.3125 70.21875 
L 18.3125 54.6875 
L 36.8125 54.6875 
L 36.8125 47.703125 
L 18.3125 47.703125 
L 18.3125 18.015625 
Q 18.3125 11.328125 20.140625 9.421875 
Q 21.96875 7.515625 27.59375 7.515625 
L 36.8125 7.515625 
L 36.8125 0 
L 27.59375 0 
Q 17.1875 0 13.234375 3.875 
Q 9.28125 7.765625 9.28125 18.015625 
L 9.28125 47.703125 
L 2.6875 47.703125 
L 2.6875 54.6875 
L 9.28125 54.6875 
L 9.28125 70.21875 
z
" id="DejaVuSans-74"/>
      <path d="M 8.5 21.578125 
L 8.5 54.6875 
L 17.484375 54.6875 
L 17.484375 21.921875 
Q 17.484375 14.15625 20.5 10.265625 
Q 23.53125 6.390625 29.59375 6.390625 
Q 36.859375 6.390625 41.078125 11.03125 
Q 45.3125 15.671875 45.3125 23.6875 
L 45.3125 54.6875 
L 54.296875 54.6875 
L 54.296875 0 
L 45.3125 0 
L 45.3125 8.40625 
Q 42.046875 3.421875 37.71875 1 
Q 33.40625 -1.421875 27.6875 -1.421875 
Q 18.265625 -1.421875 13.375 4.4375 
Q 8.5 10.296875 8.5 21.578125 
M 31.109375 56 
z
" id="DejaVuSans-75"/>
      <path d="M 48.78125 52.59375 
L 48.78125 44.1875 
Q 44.96875 46.296875 41.140625 47.34375 
Q 37.3125 48.390625 33.40625 48.390625 
Q 24.65625 48.390625 19.8125 42.84375 
Q 14.984375 37.3125 14.984375 27.296875 
Q 14.984375 17.28125 19.8125 11.734375 
Q 24.65625 6.203125 33.40625 6.203125 
Q 37.3125 6.203125 41.140625 7.25 
Q 44.96875 8.296875 48.78125 10.40625 
L 48.78125 2.09375 
Q 45.015625 0.34375 40.984375 -0.53125 
Q 36.96875 -1.421875 32.421875 -1.421875 
Q 20.0625 -1.421875 12.78125 6.34375 
Q 5.515625 14.109375 5.515625 27.296875 
Q 5.515625 40.671875 12.859375 48.328125 
Q 20.21875 56 33.015625 56 
Q 37.15625 56 41.109375 55.140625 
Q 45.0625 54.296875 48.78125 52.59375 
" id="DejaVuSans-63"/>
      <path d="M 46 62.703125 
L 46 35.5 
L 73.1875 35.5 
L 73.1875 27.203125 
L 46 27.203125 
L 46 0 
L 37.796875 0 
L 37.796875 27.203125 
L 10.59375 27.203125 
L 10.59375 35.5 
L 37.796875 35.5 
L 37.796875 62.703125 
z
" id="DejaVuSans-2b"/>
     </defs>
     <g transform="translate(24.250312 323.17875)rotate(-90)scale(0.18 -0.18)">
      <use xlink:href="#DejaVuSans-50"/>
      <use x="60.287109" xlink:href="#DejaVuSans-72"/>
      <use x="101.369141" xlink:href="#DejaVuSans-6f"/>
      <use x="162.550781" xlink:href="#DejaVuSans-70"/>
      <use x="226.027344" xlink:href="#DejaVuSans-6f"/>
      <use x="287.208984" xlink:href="#DejaVuSans-72"/>
      <use x="328.322266" xlink:href="#DejaVuSans-74"/>
      <use x="367.53125" xlink:href="#DejaVuSans-69"/>
      <use x="395.314453" xlink:href="#DejaVuSans-6f"/>
      <use x="456.496094" xlink:href="#DejaVuSans-6e"/>
      <use x="519.875" xlink:href="#DejaVuSans-20"/>
      <use x="551.662109" xlink:href="#DejaVuSans-6f"/>
      <use x="612.84375" xlink:href="#DejaVuSans-66"/>
      <use x="648.048828" xlink:href="#DejaVuSans-20"/>
      <use x="679.835938" xlink:href="#DejaVuSans-66"/>
      <use x="715.041016" xlink:href="#DejaVuSans-75"/>
      <use x="778.419922" xlink:href="#DejaVuSans-6e"/>
      <use x="841.798828" xlink:href="#DejaVuSans-63"/>
      <use x="896.779297" xlink:href="#DejaVuSans-74"/>
      <use x="935.988281" xlink:href="#DejaVuSans-69"/>
      <use x="963.771484" xlink:href="#DejaVuSans-6f"/>
      <use x="1024.953125" xlink:href="#DejaVuSans-6e"/>
      <use x="1088.332031" xlink:href="#DejaVuSans-2b"/>
      <use x="1172.121094" xlink:href="#DejaVuSans-74"/>
      <use x="1211.330078" xlink:href="#DejaVuSans-61"/>
      <use x="1272.609375" xlink:href="#DejaVuSans-72"/>
      <use x="1313.707031" xlink:href="#DejaVuSans-67"/>
      <use x="1377.183594" xlink:href="#DejaVuSans-65"/>
      <use x="1438.707031" xlink:href="#DejaVuSans-74"/>
      <use x="1477.916016" xlink:href="#DejaVuSans-20"/>
      <use x="1509.703125" xlink:href="#DejaVuSans-70"/>
      <use x="1573.179688" xlink:href="#DejaVuSans-61"/>
      <use x="1634.458984" xlink:href="#DejaVuSans-69"/>
      <use x="1662.242188" xlink:href="#DejaVuSans-72"/>
      <use x="1703.355469" xlink:href="#DejaVuSans-73"/>
     </g>
    </g>
   </g>
   <g id="line2d_41">
    <defs>
     <path d="M 0 1.5 
C 0.397805 1.5 0.77937 1.341951 1.06066 1.06066 
C 1.341951 0.77937 1.5 0.397805 1.5 0 
C 1.5 -0.397805 1.341951 -0.77937 1.06066 -1.06066 
C 0.77937 -1.341951 0.397805 -1.5 0 -1.5 
C -0.397805 -1.5 -0.77937 -1.341951 -1.06066 -1.06066 
C -1.341951 -0.77937 -1.5 -0.397805 -1.5 0 
C -1.5 0.397805 -1.341951 0.77937 -1.06066 1.06066 
C -0.77937 1.341951 -0.397805 1.5 0 1.5 
z
" id="m61c1e61721" style="stroke:#00bfbf;"/>
    </defs>
    <g>
     <use style="fill:#00bfbf;stroke:#00bfbf;" x="228.081805" xlink:href="#m61c1e61721" y="34.768147"/>
     <use style="fill:#00bfbf;stroke:#00bfbf;" x="228.081805" xlink:href="#m61c1e61721" y="34.768147"/>
    </g>
   </g>
   <g id="line2d_42">
    <path d="M 58.414766 298.245375 
L 58.414766 198.020704 
L 153.085714 198.020704 
L 153.085714 186.65502 
L 160.330612 186.65502 
L 160.330612 185.105154 
L 165.470948 185.105154 
L 165.470948 184.588532 
L 169.458103 184.588532 
L 169.458103 182.005422 
L 172.715846 182.005422 
L 172.715846 178.389067 
L 175.470228 178.389067 
L 175.470228 174.772713 
L 177.856183 174.772713 
L 177.856183 173.739469 
L 181.843337 173.739469 
L 181.843337 171.672981 
L 183.546351 171.672981 
L 183.546351 171.156359 
L 185.10108 171.156359 
L 185.10108 166.506761 
L 193.312057 166.506761 
L 193.312057 165.473517 
L 194.228571 165.473517 
L 194.228571 159.790675 
L 195.10036 159.790675 
L 195.10036 158.757431 
L 195.931585 158.757431 
L 195.931585 155.657699 
L 196.725854 155.657699 
L 196.725854 154.624455 
L 197.486314 154.624455 
L 197.486314 154.107833 
L 198.916526 154.107833 
L 198.916526 151.008101 
L 203.176482 151.008101 
L 203.176482 147.908369 
L 204.227851 147.908369 
L 204.227851 145.325259 
L 205.22078 145.325259 
L 205.22078 144.808637 
L 206.613806 144.808637 
L 206.613806 144.292014 
L 207.485594 144.292014 
L 207.485594 139.642416 
L 207.906039 139.642416 
L 207.906039 139.125794 
L 218.316099 139.125794 
L 218.316099 137.059306 
L 218.99904 137.059306 
L 218.99904 131.893086 
L 219.221007 131.893086 
L 219.221007 130.859842 
L 219.656836 130.859842 
L 219.656836 129.826598 
L 219.870828 129.826598 
L 219.870828 128.276732 
L 220.082287 128.276732 
L 220.082287 124.660378 
L 220.291274 124.660378 
L 220.291274 120.527402 
L 220.497844 120.527402 
L 220.497844 118.977536 
L 220.702053 118.977536 
L 220.702053 117.42767 
L 220.903955 117.42767 
L 220.903955 113.811316 
L 221.103601 113.811316 
L 221.103601 111.744828 
L 221.30104 111.744828 
L 221.30104 111.228206 
L 221.496322 111.228206 
L 221.496322 106.578607 
L 221.689493 106.578607 
L 221.689493 101.412387 
L 221.880598 101.412387 
L 221.880598 96.762789 
L 222.06968 96.762789 
L 222.06968 90.563325 
L 222.256782 90.563325 
L 222.256782 90.046703 
L 222.441946 90.046703 
L 222.441946 88.496837 
L 222.62521 88.496837 
L 222.62521 72.998176 
L 222.806614 72.998176 
L 222.806614 64.215602 
L 222.986194 64.215602 
L 222.986194 56.982894 
L 223.163988 56.982894 
L 223.163988 49.750186 
L 223.34003 49.750186 
L 223.34003 43.550722 
L 223.514355 43.550722 
L 223.514355 43.0341 
L 223.686995 43.0341 
L 223.686995 42.517478 
L 223.857983 42.517478 
L 223.857983 39.934367 
L 224.361343 39.934367 
L 224.361343 38.901123 
L 224.526028 38.901123 
L 224.526028 37.867879 
L 226.094412 37.867879 
L 226.094412 37.351257 
L 226.539285 37.351257 
L 226.539285 36.834635 
L 226.82983 36.834635 
L 226.82983 35.801391 
L 228.081805 35.801391 
L 228.081805 34.768147 
L 358.8 34.768147 
" style="fill:none;stroke:#00bfbf;stroke-linecap:square;stroke-width:1.5;"/>
   </g>
   <g id="line2d_43">
    <defs>
     <path d="M -6 0 
L 6 0 
M 0 6 
L 0 -6 
" id="m886a5a5def" style="stroke:#00bfbf;stroke-width:1.5;"/>
    </defs>
    <g>
     <use style="fill:none;stroke:#00bfbf;stroke-width:1.5;" x="358.8" xlink:href="#m886a5a5def" y="34.768147"/>
    </g>
   </g>
   <g id="line2d_44"/>
   <g id="line2d_45">
    <defs>
     <path d="M 0 1.5 
C 0.397805 1.5 0.77937 1.341951 1.06066 1.06066 
C 1.341951 0.77937 1.5 0.397805 1.5 0 
C 1.5 -0.397805 1.341951 -0.77937 1.06066 -1.06066 
C 0.77937 -1.341951 0.397805 -1.5 0 -1.5 
C -0.397805 -1.5 -0.77937 -1.341951 -1.06066 -1.06066 
C -1.341951 -0.77937 -1.5 -0.397805 -1.5 0 
C -1.5 0.397805 -1.341951 0.77937 -1.06066 1.06066 
C -0.77937 1.341951 -0.397805 1.5 0 1.5 
z
" id="maf9afb0c39" style="stroke:#008000;"/>
    </defs>
    <g>
     <use style="fill:#008000;stroke:#008000;" x="222.62521" xlink:href="#maf9afb0c39" y="34.768147"/>
     <use style="fill:#008000;stroke:#008000;" x="222.62521" xlink:href="#maf9afb0c39" y="34.768147"/>
    </g>
   </g>
   <g id="line2d_46">
    <path d="M 51.169868 298.245375 
L 51.169868 226.951537 
L 145.840817 226.951537 
L 145.840817 218.168963 
L 153.085714 218.168963 
L 153.085714 211.969498 
L 158.226051 211.969498 
L 158.226051 208.869766 
L 162.213206 208.869766 
L 162.213206 203.703546 
L 168.225331 203.703546 
L 168.225331 201.120436 
L 170.611285 201.120436 
L 170.611285 197.504082 
L 174.59844 197.504082 
L 174.59844 195.954216 
L 177.856183 195.954216 
L 177.856183 193.887728 
L 181.843337 193.887728 
L 181.843337 187.688264 
L 184.079767 187.688264 
L 184.079767 185.621776 
L 185.10108 185.621776 
L 185.10108 182.522044 
L 186.067159 182.522044 
L 186.067159 179.422312 
L 187.855462 179.422312 
L 187.855462 178.389067 
L 188.686687 178.389067 
L 188.686687 176.839201 
L 189.480956 176.839201 
L 189.480956 175.805957 
L 190.241417 175.805957 
L 190.241417 169.606493 
L 192.345978 169.606493 
L 192.345978 169.089871 
L 194.814464 169.089871 
L 194.814464 168.573249 
L 195.931585 168.573249 
L 195.931585 167.023383 
L 197.486314 167.023383 
L 197.486314 166.506761 
L 197.975882 166.506761 
L 197.975882 165.990139 
L 198.452393 165.990139 
L 198.452393 164.440273 
L 198.916526 164.440273 
L 198.916526 162.373785 
L 200.240696 162.373785 
L 200.240696 161.857163 
L 200.661142 161.857163 
L 200.661142 160.823919 
L 201.473469 160.823919 
L 201.473469 160.307297 
L 201.866191 160.307297 
L 201.866191 157.207565 
L 211.529383 157.207565 
L 211.529383 155.657699 
L 212.195353 155.657699 
L 212.195353 155.141077 
L 212.83739 155.141077 
L 212.83739 151.008101 
L 213.457155 151.008101 
L 213.457155 148.424991 
L 213.659057 148.424991 
L 213.659057 146.875125 
L 213.858703 146.875125 
L 213.858703 140.159038 
L 214.056143 140.159038 
L 214.056143 136.542684 
L 214.251425 136.542684 
L 214.251425 136.026062 
L 214.444595 136.026062 
L 214.444595 131.893086 
L 214.6357 131.893086 
L 214.6357 128.793354 
L 214.824782 128.793354 
L 214.824782 124.660378 
L 215.011885 124.660378 
L 215.011885 115.877804 
L 215.197048 115.877804 
L 215.197048 109.678339 
L 215.380313 109.678339 
L 215.380313 101.929009 
L 215.561716 101.929009 
L 215.561716 98.312655 
L 215.741297 98.312655 
L 215.741297 89.013459 
L 215.919091 89.013459 
L 215.919091 85.913727 
L 216.095133 85.913727 
L 216.095133 77.647775 
L 216.269457 77.647775 
L 216.269457 76.097908 
L 216.442097 76.097908 
L 216.442097 75.064664 
L 216.782453 75.064664 
L 216.782453 74.548042 
L 216.95023 74.548042 
L 216.95023 73.514798 
L 217.116446 73.514798 
L 217.116446 70.931688 
L 217.28113 70.931688 
L 217.28113 70.415066 
L 217.44431 70.415066 
L 217.44431 69.898444 
L 218.546658 69.898444 
L 218.546658 69.381822 
L 218.698728 69.381822 
L 218.698728 67.831956 
L 219.147324 67.831956 
L 219.147324 67.315334 
L 219.584932 67.315334 
L 219.584932 63.69898 
L 219.728452 63.69898 
L 219.728452 63.182358 
L 219.870828 63.182358 
L 219.870828 60.082626 
L 220.012079 60.082626 
L 220.012079 58.53276 
L 220.429252 58.53276 
L 220.429252 58.016138 
L 220.566173 58.016138 
L 220.566173 56.982894 
L 220.702053 56.982894 
L 220.702053 55.94965 
L 220.836907 55.94965 
L 220.836907 50.78343 
L 220.970752 50.78343 
L 220.970752 49.233564 
L 221.103601 49.233564 
L 221.103601 45.61721 
L 221.366372 45.61721 
L 221.366372 44.067344 
L 221.496322 44.067344 
L 221.496322 43.550722 
L 221.625334 43.550722 
L 221.625334 42.517478 
L 221.753422 42.517478 
L 221.753422 40.450989 
L 221.880598 40.450989 
L 221.880598 38.901123 
L 222.132265 38.901123 
L 222.132265 37.351257 
L 222.503243 37.351257 
L 222.503243 36.834635 
L 222.62521 36.834635 
L 222.62521 34.768147 
L 358.8 34.768147 
L 358.8 34.768147 
" style="fill:none;stroke:#008000;stroke-linecap:square;stroke-width:1.5;"/>
   </g>
   <g id="line2d_47">
    <defs>
     <path d="M -0 6 
L 6 -6 
L -6 -6 
z
" id="m5503ea8f1a" style="stroke:#008000;stroke-linejoin:miter;stroke-width:1.5;"/>
    </defs>
    <g>
     <use style="fill:none;stroke:#008000;stroke-linejoin:miter;stroke-width:1.5;" x="358.8" xlink:href="#m5503ea8f1a" y="34.768147"/>
    </g>
   </g>
   <g id="line2d_48"/>
   <g id="line2d_49">
    <defs>
     <path d="M 0 1.5 
C 0.397805 1.5 0.77937 1.341951 1.06066 1.06066 
C 1.341951 0.77937 1.5 0.397805 1.5 0 
C 1.5 -0.397805 1.341951 -0.77937 1.06066 -1.06066 
C 0.77937 -1.341951 0.397805 -1.5 0 -1.5 
C -0.397805 -1.5 -0.77937 -1.341951 -1.06066 -1.06066 
C -1.341951 -0.77937 -1.5 -0.397805 -1.5 0 
C -1.5 0.397805 -1.341951 0.77937 -1.06066 1.06066 
C -0.77937 1.341951 -0.397805 1.5 0 1.5 
z
" id="m13886fb3e1" style="stroke:#0000ff;"/>
    </defs>
    <g>
     <use style="fill:#0000ff;stroke:#0000ff;" x="228.427736" xlink:href="#m13886fb3e1" y="34.768147"/>
     <use style="fill:#0000ff;stroke:#0000ff;" x="228.427736" xlink:href="#m13886fb3e1" y="34.768147"/>
    </g>
   </g>
   <g id="line2d_50">
    <path d="M 42.042377 298.245375 
L 42.042377 253.815882 
L 136.713325 253.815882 
L 136.713325 243.483441 
L 143.958223 243.483441 
L 143.958223 238.833843 
L 149.098559 238.833843 
L 149.098559 234.184245 
L 153.085714 234.184245 
L 153.085714 230.567891 
L 156.343457 230.567891 
L 156.343457 226.434915 
L 159.097839 226.434915 
L 159.097839 218.685585 
L 161.483794 218.685585 
L 161.483794 216.619097 
L 163.588354 216.619097 
L 163.588354 215.069231 
L 167.173962 215.069231 
L 167.173962 213.519365 
L 168.728691 213.519365 
L 168.728691 211.969498 
L 170.158903 211.969498 
L 170.158903 210.936254 
L 171.483073 210.936254 
L 171.483073 209.90301 
L 172.715846 209.90301 
L 172.715846 206.803278 
L 173.869028 206.803278 
L 173.869028 205.253412 
L 174.952275 205.253412 
L 174.952275 201.637058 
L 175.973589 201.637058 
L 175.973589 199.053948 
L 176.939668 199.053948 
L 176.939668 193.371106 
L 177.856183 193.371106 
L 177.856183 192.854484 
L 178.727971 192.854484 
L 178.727971 191.82124 
L 179.559196 191.82124 
L 179.559196 188.204886 
L 180.353465 188.204886 
L 180.353465 186.65502 
L 181.113925 186.65502 
L 181.113925 184.07191 
L 181.843337 184.07191 
L 181.843337 183.555288 
L 182.544138 183.555288 
L 182.544138 183.038666 
L 183.868307 183.038666 
L 183.868307 179.938934 
L 185.10108 179.938934 
L 185.10108 178.90569 
L 185.686972 178.90569 
L 185.686972 177.872445 
L 188.358823 177.872445 
L 188.358823 176.322579 
L 188.848391 176.322579 
L 188.848391 174.772713 
L 190.682627 174.772713 
L 190.682627 173.739469 
L 191.113205 173.739469 
L 191.113205 167.540005 
L 191.533651 167.540005 
L 191.533651 167.023383 
L 192.345978 167.023383 
L 192.345978 164.956895 
L 193.122975 164.956895 
L 193.122975 163.923651 
L 194.228571 163.923651 
L 194.228571 163.407029 
L 194.929372 163.407029 
L 194.929372 162.890407 
L 198.358102 162.890407 
L 198.358102 161.340541 
L 200.240696 161.340541 
L 200.240696 160.823919 
L 200.990517 160.823919 
L 200.990517 159.790675 
L 203.067861 159.790675 
L 203.067861 159.274053 
L 203.709898 159.274053 
L 203.709898 158.240809 
L 204.329664 158.240809 
L 204.329664 157.724187 
L 204.928651 157.724187 
L 204.928651 157.207565 
L 205.508209 157.207565 
L 205.508209 156.174321 
L 205.697291 156.174321 
L 205.697291 153.074589 
L 206.791599 153.074589 
L 206.791599 152.557967 
L 208.955034 152.557967 
L 208.955034 152.041345 
L 209.871548 152.041345 
L 209.871548 148.941613 
L 211.163782 148.941613 
L 211.163782 148.424991 
L 211.301761 148.424991 
L 211.301761 147.391747 
L 211.976109 147.391747 
L 211.976109 146.875125 
L 212.107978 146.875125 
L 212.107978 145.325259 
L 212.23888 145.325259 
L 212.23888 144.292014 
L 212.368831 144.292014 
L 212.368831 141.192282 
L 212.497843 141.192282 
L 212.497843 140.159038 
L 212.62593 140.159038 
L 212.62593 139.642416 
L 212.753106 139.642416 
L 212.753106 139.125794 
L 212.879383 139.125794 
L 212.879383 137.059306 
L 213.004774 137.059306 
L 213.004774 134.992818 
L 213.129291 134.992818 
L 213.129291 133.959574 
L 213.252946 133.959574 
L 213.252946 133.442952 
L 213.375752 133.442952 
L 213.375752 128.793354 
L 213.618859 128.793354 
L 213.618859 126.726866 
L 213.739183 126.726866 
L 213.739183 123.627134 
L 213.858703 123.627134 
L 213.858703 120.527402 
L 214.899859 120.527402 
L 214.899859 120.01078 
L 217.606014 120.01078 
L 217.702338 118.977536 
L 217.893443 118.977536 
L 217.893443 116.394426 
L 218.082525 116.394426 
L 218.176321 111.744828 
L 218.362449 111.744828 
L 218.454791 110.194961 
L 218.546658 110.194961 
L 218.638055 106.578607 
L 218.728987 106.578607 
L 218.819459 103.995497 
L 218.909475 103.995497 
L 218.99904 94.179679 
L 219.088158 94.179679 
L 219.176833 89.013459 
L 219.265071 89.013459 
L 219.352875 85.913727 
L 219.870828 85.913727 
L 219.870828 85.397105 
L 220.040195 85.397105 
L 220.124281 83.330617 
L 220.620649 83.330617 
L 220.620649 80.230885 
L 220.783088 80.230885 
L 220.783088 79.714263 
L 220.944063 79.714263 
L 221.02401 78.681019 
L 221.103601 78.681019 
L 221.103601 77.131153 
L 221.418465 77.131153 
L 221.496322 75.581286 
L 221.573841 75.581286 
L 221.651025 74.03142 
L 221.804401 74.03142 
L 221.880598 70.931688 
L 221.956471 70.931688 
L 222.032023 68.348578 
L 222.107257 68.348578 
L 222.182176 62.665736 
L 222.256782 62.665736 
L 222.331078 61.11587 
L 222.405066 61.11587 
L 222.478749 54.399784 
L 222.55213 54.399784 
L 222.62521 50.78343 
L 222.697993 50.78343 
L 222.77048 46.133832 
L 222.842675 46.133832 
L 222.914579 43.0341 
L 222.986194 43.0341 
L 222.986194 42.517478 
L 223.128571 42.517478 
L 223.128571 41.484233 
L 225.390008 41.484233 
L 225.390008 40.967611 
L 225.760986 40.967611 
L 225.760986 40.450989 
L 226.82983 40.450989 
L 226.82983 39.934367 
L 227.563852 39.934367 
L 227.563852 38.901123 
L 228.108654 38.901123 
L 228.108654 37.351257 
L 228.268907 37.351257 
L 228.37495 35.284769 
L 228.427736 35.284769 
L 228.427736 34.768147 
L 358.8 34.768147 
L 358.8 34.768147 
" style="fill:none;stroke:#0000ff;stroke-linecap:square;stroke-width:1.5;"/>
   </g>
   <g id="line2d_51">
    <defs>
     <path d="M 0 -6 
L -1.347084 -1.854102 
L -5.706339 -1.854102 
L -2.179628 0.708204 
L -3.526712 4.854102 
L -0 2.291796 
L 3.526712 4.854102 
L 2.179628 0.708204 
L 5.706339 -1.854102 
L 1.347084 -1.854102 
z
" id="m0e1bfb3bc7" style="stroke:#0000ff;stroke-linejoin:bevel;stroke-width:1.5;"/>
    </defs>
    <g>
     <use style="fill:none;stroke:#0000ff;stroke-linejoin:bevel;stroke-width:1.5;" x="358.8" xlink:href="#m0e1bfb3bc7" y="34.768147"/>
    </g>
   </g>
   <g id="line2d_52"/>
   <g id="line2d_53">
    <defs>
     <path d="M 0 1.5 
C 0.397805 1.5 0.77937 1.341951 1.06066 1.06066 
C 1.341951 0.77937 1.5 0.397805 1.5 0 
C 1.5 -0.397805 1.341951 -0.77937 1.06066 -1.06066 
C 0.77937 -1.341951 0.397805 -1.5 0 -1.5 
C -0.397805 -1.5 -0.77937 -1.341951 -1.06066 -1.06066 
C -1.341951 -0.77937 -1.5 -0.397805 -1.5 0 
C -1.5 0.397805 -1.341951 0.77937 -1.06066 1.06066 
C -0.77937 1.341951 -0.397805 1.5 0 1.5 
z
" id="m3241ab4464" style="stroke:#000000;"/>
    </defs>
    <g>
     <use style="stroke:#000000;" x="237.074442" xlink:href="#m3241ab4464" y="34.768147"/>
     <use style="stroke:#000000;" x="237.074442" xlink:href="#m3241ab4464" y="34.768147"/>
    </g>
   </g>
   <g id="line2d_54">
    <path d="M 29.657143 298.245375 
L 29.657143 278.097116 
L 136.713325 278.097116 
L 136.713325 267.248054 
L 143.958223 267.248054 
L 143.958223 262.598456 
L 149.098559 262.598456 
L 149.098559 260.531968 
L 153.085714 260.531968 
L 153.085714 254.332504 
L 156.343457 254.332504 
L 156.343457 249.682906 
L 159.097839 249.682906 
L 159.097839 246.583173 
L 161.483794 246.583173 
L 161.483794 243.483441 
L 163.588354 243.483441 
L 163.588354 239.867087 
L 165.470948 239.867087 
L 165.470948 237.800599 
L 167.173962 237.800599 
L 167.173962 236.250733 
L 168.728691 236.250733 
L 168.728691 233.151001 
L 170.158903 233.151001 
L 170.158903 229.018025 
L 171.483073 229.018025 
L 171.483073 227.984781 
L 172.715846 227.984781 
L 172.715846 226.434915 
L 173.869028 226.434915 
L 173.869028 224.885049 
L 174.952275 224.885049 
L 174.952275 219.202207 
L 175.973589 219.202207 
L 175.973589 214.035987 
L 176.939668 214.035987 
L 176.939668 209.90301 
L 177.856183 209.90301 
L 177.856183 208.353144 
L 178.727971 208.353144 
L 178.727971 207.836522 
L 179.559196 207.836522 
L 179.559196 205.253412 
L 180.353465 205.253412 
L 180.353465 203.703546 
L 181.113925 203.703546 
L 181.113925 202.670302 
L 182.544138 202.670302 
L 182.544138 201.637058 
L 183.218486 201.637058 
L 183.218486 200.603814 
L 183.868307 200.603814 
L 183.868307 200.087192 
L 184.495323 200.087192 
L 184.495323 199.57057 
L 185.10108 199.57057 
L 185.10108 198.537326 
L 185.686972 198.537326 
L 185.686972 192.337862 
L 186.254262 192.337862 
L 186.254262 191.82124 
L 187.33751 191.82124 
L 187.33751 191.304618 
L 187.855462 191.304618 
L 187.855462 189.754752 
L 188.848391 189.754752 
L 188.848391 188.204886 
L 189.324902 188.204886 
L 189.324902 187.171642 
L 189.789035 187.171642 
L 189.789035 185.105154 
L 190.241417 185.105154 
L 190.241417 184.07191 
L 190.682627 184.07191 
L 190.682627 183.555288 
L 191.113205 183.555288 
L 191.113205 182.005422 
L 191.94443 182.005422 
L 191.94443 181.4888 
L 192.345978 181.4888 
L 192.345978 180.972178 
L 192.738699 180.972178 
L 192.738699 179.422312 
L 193.499159 179.422312 
L 193.499159 177.355823 
L 194.228571 177.355823 
L 194.228571 176.322579 
L 204.531566 176.322579 
L 204.531566 174.772713 
L 211.976109 174.772713 
L 211.976109 174.256091 
L 212.107978 174.256091 
L 212.107978 173.222847 
L 212.23888 173.222847 
L 212.23888 171.672981 
L 212.497843 171.672981 
L 212.497843 171.156359 
L 212.753106 171.156359 
L 212.753106 170.123115 
L 212.879383 170.123115 
L 212.879383 169.606493 
L 213.375752 169.606493 
L 213.375752 169.089871 
L 214.09537 169.089871 
L 214.09537 168.056627 
L 214.212539 168.056627 
L 214.212539 167.023383 
L 214.787126 167.023383 
L 214.787126 166.506761 
L 217.606014 166.506761 
L 217.606014 165.990139 
L 217.893443 165.990139 
L 217.988234 162.373785 
L 218.082525 162.373785 
L 218.082525 159.274053 
L 218.269628 159.274053 
L 218.362449 155.657699 
L 218.454791 155.657699 
L 218.546658 148.424991 
L 218.638055 148.424991 
L 218.728987 144.292014 
L 218.819459 144.292014 
L 218.909475 138.609172 
L 218.99904 138.609172 
L 218.99904 134.476196 
L 222.256782 134.476196 
L 222.256782 133.959574 
L 222.55213 133.959574 
L 222.55213 132.92633 
L 222.697993 132.92633 
L 222.77048 130.859842 
L 222.842675 130.859842 
L 222.914579 126.726866 
L 222.986194 126.726866 
L 222.986194 122.59389 
L 223.34003 122.59389 
L 223.34003 121.044024 
L 224.361343 121.044024 
L 224.361343 120.527402 
L 224.754065 120.527402 
L 224.754065 120.01078 
L 225.20159 120.01078 
L 225.20159 119.494158 
L 225.514525 119.494158 
L 225.514525 118.977536 
L 226.004093 118.977536 
L 226.004093 118.460914 
L 226.362663 118.460914 
L 226.362663 116.394426 
L 227.058911 116.394426 
L 227.058911 115.877804 
L 227.397119 115.877804 
L 227.397119 114.84456 
L 227.563852 114.84456 
L 227.563852 114.327938 
L 227.78377 114.327938 
L 227.78377 113.811316 
L 227.94695 113.811316 
L 227.94695 113.294694 
L 228.108654 113.294694 
L 228.162232 110.711584 
L 228.268907 110.711584 
L 228.37495 106.578607 
L 228.427736 106.578607 
L 228.532843 101.929009 
L 228.585165 101.929009 
L 228.689353 97.279411 
L 228.74122 97.279411 
L 228.844504 92.113191 
L 228.895923 92.113191 
L 228.998319 81.264129 
L 230.278677 81.264129 
L 230.373468 80.230885 
L 230.793914 80.230885 
L 230.793914 79.714263 
L 230.931892 79.714263 
L 230.931892 78.681019 
L 231.114222 78.681019 
L 231.204693 77.131153 
L 231.294709 77.131153 
L 231.384274 73.514798 
L 233.528498 73.514798 
L 233.568073 69.381822 
L 233.646961 69.381822 
L 233.646961 68.8652 
L 233.803699 68.8652 
L 233.803699 67.831956 
L 234.341705 67.831956 
L 234.341705 67.315334 
L 234.492492 67.315334 
L 234.56741 66.28209 
L 234.604752 66.28209 
L 234.642016 63.69898 
L 234.753345 63.69898 
L 234.863983 61.11587 
L 234.900711 61.11587 
L 235.010444 54.916406 
L 235.046873 54.916406 
L 235.155714 50.266808 
L 235.191848 50.266808 
L 235.299813 44.583966 
L 235.335657 44.583966 
L 235.407129 40.967611 
L 235.619847 40.967611 
L 235.619847 40.450989 
L 235.968845 40.450989 
L 235.968845 39.934367 
L 236.479884 39.934367 
L 236.479884 38.901123 
L 236.613728 38.901123 
L 236.713458 37.351257 
L 236.812633 37.351257 
L 236.812633 36.834635 
L 237.041925 36.834635 
L 237.074442 34.768147 
L 358.8 34.768147 
L 358.8 34.768147 
" style="fill:none;stroke:#000000;stroke-linecap:square;stroke-width:1.5;"/>
   </g>
   <g id="line2d_55">
    <defs>
     <path d="M 0 6 
C 1.591219 6 3.117479 5.367802 4.242641 4.242641 
C 5.367802 3.117479 6 1.591219 6 0 
C 6 -1.591219 5.367802 -3.117479 4.242641 -4.242641 
C 3.117479 -5.367802 1.591219 -6 0 -6 
C -1.591219 -6 -3.117479 -5.367802 -4.242641 -4.242641 
C -5.367802 -3.117479 -6 -1.591219 -6 0 
C -6 1.591219 -5.367802 3.117479 -4.242641 4.242641 
C -3.117479 5.367802 -1.591219 6 0 6 
z
" id="ma291e64a00" style="stroke:#000000;stroke-width:1.5;"/>
    </defs>
    <g>
     <use style="fill:none;stroke:#000000;stroke-width:1.5;" x="358.8" xlink:href="#ma291e64a00" y="34.768147"/>
    </g>
   </g>
   <g id="line2d_56"/>
   <g id="line2d_57">
    <defs>
     <path d="M 0 1.5 
C 0.397805 1.5 0.77937 1.341951 1.06066 1.06066 
C 1.341951 0.77937 1.5 0.397805 1.5 0 
C 1.5 -0.397805 1.341951 -0.77937 1.06066 -1.06066 
C 0.77937 -1.341951 0.397805 -1.5 0 -1.5 
C -0.397805 -1.5 -0.77937 -1.341951 -1.06066 -1.06066 
C -1.341951 -0.77937 -1.5 -0.397805 -1.5 0 
C -1.5 0.397805 -1.341951 0.77937 -1.06066 1.06066 
C -0.77937 1.341951 -0.397805 1.5 0 1.5 
z
" id="ma54107744a" style="stroke:#ff0000;"/>
    </defs>
    <g>
     <use style="fill:#ff0000;stroke:#ff0000;" x="249.435294" xlink:href="#ma54107744a" y="34.768147"/>
     <use style="fill:#ff0000;stroke:#ff0000;" x="249.435294" xlink:href="#ma54107744a" y="34.768147"/>
    </g>
   </g>
   <g id="line2d_58">
    <path d="M 17.271909 298.245375 
L 17.271909 293.079155 
L 124.328091 293.079155 
L 124.328091 288.429557 
L 131.572989 288.429557 
L 131.572989 284.813203 
L 136.713325 284.813203 
L 136.713325 282.230093 
L 140.70048 282.230093 
L 140.70048 280.680226 
L 143.958223 280.680226 
L 143.958223 276.54725 
L 146.712605 276.54725 
L 146.712605 275.514006 
L 149.098559 275.514006 
L 149.098559 272.414274 
L 151.20312 272.414274 
L 151.20312 270.347786 
L 153.085714 270.347786 
L 153.085714 268.281298 
L 154.788728 268.281298 
L 154.788728 267.764676 
L 156.343457 267.764676 
L 156.343457 265.181566 
L 157.773669 265.181566 
L 157.773669 264.148322 
L 159.097839 264.148322 
L 159.097839 262.081834 
L 160.330612 262.081834 
L 160.330612 260.531968 
L 161.483794 260.531968 
L 161.483794 257.432236 
L 162.567041 257.432236 
L 162.567041 255.88237 
L 163.588354 255.88237 
L 163.588354 254.849126 
L 164.554434 254.849126 
L 164.554434 252.782638 
L 165.470948 252.782638 
L 165.470948 251.749394 
L 166.342737 251.749394 
L 166.342737 249.166284 
L 167.173962 249.166284 
L 167.173962 246.066551 
L 167.968231 246.066551 
L 167.968231 245.033307 
L 168.728691 245.033307 
L 168.728691 244.000063 
L 169.458103 244.000063 
L 169.458103 240.383709 
L 170.158903 240.383709 
L 170.158903 238.317221 
L 170.833252 238.317221 
L 170.833252 236.767355 
L 171.483073 236.767355 
L 171.483073 235.734111 
L 172.110089 235.734111 
L 172.110089 232.634379 
L 173.301738 232.634379 
L 173.301738 231.084513 
L 173.869028 231.084513 
L 173.869028 229.018025 
L 174.418859 229.018025 
L 174.418859 225.918293 
L 174.952275 225.918293 
L 174.952275 224.885049 
L 175.470228 224.885049 
L 175.470228 223.335183 
L 175.973589 223.335183 
L 175.973589 222.301939 
L 176.463157 222.301939 
L 176.463157 220.752073 
L 176.939668 220.752073 
L 176.939668 220.235451 
L 177.403801 220.235451 
L 177.403801 218.168963 
L 178.297393 218.168963 
L 178.297393 217.135719 
L 178.727971 217.135719 
L 178.727971 216.619097 
L 179.148416 216.619097 
L 179.148416 214.035987 
L 179.559196 214.035987 
L 179.559196 211.452876 
L 179.960743 211.452876 
L 179.960743 210.419632 
L 180.73774 210.419632 
L 180.73774 209.90301 
L 181.113925 209.90301 
L 181.113925 208.353144 
L 181.482353 208.353144 
L 181.482353 205.770034 
L 191.533651 205.770034 
L 191.533651 204.220168 
L 193.867587 204.220168 
L 193.867587 203.186924 
L 194.228571 203.186924 
L 194.228571 202.15368 
L 200.990517 202.15368 
L 200.990517 200.603814 
L 201.592194 200.603814 
L 201.592194 200.087192 
L 201.827305 200.087192 
L 201.827305 199.053948 
L 202.174269 199.053948 
L 202.174269 198.020704 
L 202.514625 198.020704 
L 202.514625 197.504082 
L 203.067861 197.504082 
L 203.176482 195.437594 
L 203.391763 195.437594 
L 203.498439 193.887728 
L 204.022468 193.887728 
L 204.022468 192.854484 
L 204.227851 192.854484 
L 204.227851 192.337862 
L 205.026559 192.337862 
L 205.026559 191.82124 
L 205.22078 191.82124 
L 205.317104 190.271374 
L 205.508209 190.271374 
L 205.603 189.23813 
L 205.697291 189.23813 
L 205.791087 188.204886 
L 205.884393 188.204886 
L 205.884393 187.688264 
L 206.434225 187.688264 
L 206.434225 186.65502 
L 207.739047 186.65502 
L 207.822738 185.105154 
L 208.718366 185.105154 
L 208.797604 184.07191 
L 209.111088 184.07191 
L 209.111088 183.555288 
L 209.342644 183.555288 
L 209.342644 182.522044 
L 209.796942 182.522044 
L 209.871548 181.4888 
L 210.093515 181.4888 
L 210.093515 180.972178 
L 210.312759 180.972178 
L 210.312759 180.455556 
L 210.529345 180.455556 
L 210.529345 179.938934 
L 212.753106 179.938934 
L 212.753106 178.90569 
L 213.314454 178.90569 
L 213.314454 176.322579 
L 213.799043 176.322579 
L 213.799043 175.805957 
L 215.989716 175.805957 
L 216.095133 174.256091 
L 216.147609 174.256091 
L 216.252101 173.222847 
L 216.56196 173.222847 
L 216.56196 172.706225 
L 216.714898 172.706225 
L 216.714898 171.672981 
L 217.893443 171.672981 
L 217.893443 171.156359 
L 218.129485 171.156359 
L 218.129485 170.639737 
L 218.269628 170.639737 
L 218.269628 170.123115 
L 218.638055 170.123115 
L 218.728987 168.573249 
L 218.864524 168.573249 
L 218.864524 168.056627 
L 218.99904 168.056627 
L 218.99904 167.023383 
L 220.332779 167.023383 
L 220.332779 166.506761 
L 220.497844 166.506761 
L 220.497844 165.990139 
L 220.661397 165.990139 
L 220.702053 164.440273 
L 220.863756 164.440273 
L 220.903955 162.373785 
L 221.063849 162.373785 
L 221.063849 161.857163 
L 222.144756 161.857163 
L 222.144756 161.340541 
L 222.661639 161.340541 
L 222.77048 159.790675 
L 222.842675 159.790675 
L 222.950422 156.690943 
L 223.093083 156.690943 
L 223.093083 156.174321 
L 223.514355 156.174321 
L 223.514355 155.141077 
L 224.427399 155.141077 
L 224.427399 154.624455 
L 224.558783 154.624455 
L 224.656691 152.557967 
L 224.689208 152.557967 
L 224.689208 151.008101 
L 226.243937 151.008101 
L 226.243937 150.491479 
L 227.563852 150.491479 
L 227.646639 148.941613 
L 228.818739 148.941613 
L 228.818739 148.424991 
L 228.947195 148.424991 
L 228.947195 146.875125 
L 230.015378 146.875125 
L 230.015378 146.358503 
L 230.13554 146.358503 
L 230.231092 143.25877 
L 230.397088 143.25877 
L 230.397088 142.742148 
L 230.90897 142.742148 
L 230.90897 142.225526 
L 231.204693 142.225526 
L 231.249758 140.159038 
L 231.317142 140.159038 
L 231.384274 136.542684 
L 232.149386 136.542684 
L 232.256062 134.476196 
L 232.298555 134.476196 
L 232.383238 131.893086 
L 232.425429 131.893086 
L 232.48853 129.826598 
L 233.289189 129.826598 
L 233.369315 127.243488 
L 233.409244 127.243488 
L 233.488835 124.143756 
L 234.436096 124.143756 
L 234.436096 123.110512 
L 235.317744 123.110512 
L 235.317744 122.59389 
L 236.243217 122.59389 
L 236.243217 120.527402 
L 236.993038 120.527402 
L 236.993038 120.01078 
L 237.555227 120.01078 
L 237.618366 116.911048 
L 237.775242 116.911048 
L 237.853167 113.294694 
L 238.464625 113.294694 
L 238.569511 109.161717 
L 238.584445 109.161717 
L 238.629171 106.578607 
L 239.186221 106.578607 
L 239.27261 103.995497 
L 239.301314 103.995497 
L 239.344283 101.929009 
L 239.921405 101.929009 
L 240.018102 98.829277 
L 240.045634 98.829277 
L 240.059384 96.762789 
L 240.693981 96.762789 
L 240.733732 95.212923 
L 241.255466 95.212923 
L 241.332429 93.146435 
L 241.637006 93.146435 
L 241.674716 92.113191 
L 241.824764 92.113191 
L 241.899318 90.563325 
L 241.948849 90.563325 
L 241.985907 87.463593 
L 242.436746 87.463593 
L 242.54471 82.813995 
L 242.580554 82.813995 
L 242.616326 80.230885 
L 243.028459 80.230885 
L 243.132917 79.197641 
L 243.167601 79.197641 
L 243.259765 73.514798 
L 243.64624 73.514798 
L 243.747159 71.44831 
L 243.758337 71.44831 
L 243.758337 70.931688 
L 244.22161 70.931688 
L 244.308507 67.831956 
L 244.683789 67.831956 
L 244.683789 67.315334 
L 244.810663 67.315334 
L 244.842242 65.765468 
L 245.32982 65.765468 
L 245.391117 63.182358 
L 245.724544 63.182358 
L 245.814409 61.11587 
L 245.854204 61.11587 
L 245.854204 60.599248 
L 246.26679 60.599248 
L 246.334638 57.499516 
L 246.670064 57.499516 
L 246.764755 55.433028 
L 246.802491 55.433028 
L 246.82133 52.849918 
L 247.230825 52.849918 
L 247.285945 48.716942 
L 247.604135 48.716942 
L 247.694015 47.683698 
L 248.110498 47.683698 
L 248.180432 44.067344 
L 248.577326 44.067344 
L 248.611426 42.000855 
L 248.990626 42.000855 
L 249.032267 38.384501 
L 249.41902 38.384501 
L 249.435294 34.768147 
L 358.8 34.768147 
L 358.8 34.768147 
" style="fill:none;stroke:#ff0000;stroke-linecap:square;stroke-width:1.5;"/>
   </g>
   <g id="line2d_59">
    <defs>
     <path d="M -6 6 
L 6 6 
L 6 -6 
L -6 -6 
z
" id="m3aa849f9fa" style="stroke:#ff0000;stroke-linejoin:miter;stroke-width:1.5;"/>
    </defs>
    <g>
     <use style="fill:none;stroke:#ff0000;stroke-linejoin:miter;stroke-width:1.5;" x="358.8" xlink:href="#m3aa849f9fa" y="34.768147"/>
    </g>
   </g>
   <g id="line2d_60"/>
   <g id="line2d_61">
    <defs>
     <path d="M 0 1.5 
C 0.397805 1.5 0.77937 1.341951 1.06066 1.06066 
C 1.341951 0.77937 1.5 0.397805 1.5 0 
C 1.5 -0.397805 1.341951 -0.77937 1.06066 -1.06066 
C 0.77937 -1.341951 0.397805 -1.5 0 -1.5 
C -0.397805 -1.5 -0.77937 -1.341951 -1.06066 -1.06066 
C -1.341951 -0.77937 -1.5 -0.397805 -1.5 0 
C -1.5 0.397805 -1.341951 0.77937 -1.06066 1.06066 
C -0.77937 1.341951 -0.397805 1.5 0 1.5 
z
" id="mbfede68adc" style="stroke:#bf00bf;"/>
    </defs>
    <g>
     <use style="fill:#bf00bf;stroke:#bf00bf;" x="266.777956" xlink:href="#mbfede68adc" y="34.768147"/>
     <use style="fill:#bf00bf;stroke:#bf00bf;" x="266.777956" xlink:href="#mbfede68adc" y="34.768147"/>
    </g>
   </g>
   <g id="line2d_62">
    <path d="M 128.315246 298.245375 
L 128.315246 295.145643 
L 131.572989 295.145643 
L 131.572989 294.112399 
L 134.327371 294.112399 
L 134.327371 293.079155 
L 138.817886 293.079155 
L 138.817886 289.979423 
L 142.403494 289.979423 
L 142.403494 288.946179 
L 143.958223 288.946179 
L 143.958223 287.912935 
L 147.945378 287.912935 
L 147.945378 287.396313 
L 150.181807 287.396313 
L 150.181807 286.363069 
L 152.1692 286.363069 
L 152.1692 284.296581 
L 153.085714 284.296581 
L 153.085714 281.713471 
L 153.957503 281.713471 
L 153.957503 280.680226 
L 154.788728 280.680226 
L 154.788728 280.163604 
L 156.343457 280.163604 
L 156.343457 279.13036 
L 157.072869 279.13036 
L 157.072869 277.580494 
L 157.773669 277.580494 
L 157.773669 277.063872 
L 158.448018 277.063872 
L 158.448018 276.54725 
L 159.097839 276.54725 
L 159.097839 276.030628 
L 159.724855 276.030628 
L 159.724855 274.480762 
L 160.916504 274.480762 
L 160.916504 272.930896 
L 161.483794 272.930896 
L 161.483794 272.414274 
L 163.084994 272.414274 
L 163.084994 269.314542 
L 163.588354 269.314542 
L 163.588354 266.731432 
L 164.554434 266.731432 
L 164.554434 265.181566 
L 165.018567 265.181566 
L 165.018567 264.148322 
L 165.470948 264.148322 
L 165.470948 263.115078 
L 166.342737 263.115078 
L 166.342737 260.531968 
L 166.763182 260.531968 
L 166.763182 259.498724 
L 167.173962 259.498724 
L 167.173962 257.948858 
L 167.575509 257.948858 
L 167.575509 256.398992 
L 167.968231 256.398992 
L 167.968231 254.332504 
L 168.728691 254.332504 
L 168.728691 253.29926 
L 169.097119 253.29926 
L 169.097119 251.749394 
L 169.458103 251.749394 
L 169.458103 249.682906 
L 179.960743 249.682906 
L 179.960743 249.166284 
L 180.546636 249.166284 
L 180.546636 247.099796 
L 180.926823 247.099796 
L 180.926823 246.583173 
L 181.113925 246.583173 
L 181.113925 245.549929 
L 181.299089 245.549929 
L 181.299089 244.516685 
L 181.482353 244.516685 
L 181.482353 244.000063 
L 181.663757 244.000063 
L 181.663757 243.483441 
L 181.843337 243.483441 
L 181.843337 242.966819 
L 188.108915 242.966819 
L 188.108915 242.450197 
L 188.727251 242.450197 
L 188.727251 241.933575 
L 194.228571 241.933575 
L 194.228571 241.416953 
L 194.494603 241.416953 
L 194.494603 240.900331 
L 194.84326 240.900331 
L 194.929372 239.350465 
L 195.10036 239.350465 
L 195.10036 238.317221 
L 195.353812 238.317221 
L 195.353812 237.283977 
L 195.520805 237.283977 
L 195.60372 235.734111 
L 195.768404 235.734111 
L 195.850181 234.184245 
L 196.253542 234.184245 
L 196.333132 232.117757 
L 196.41237 232.117757 
L 196.41237 231.084513 
L 196.5698 231.084513 
L 196.5698 229.018025 
L 196.803373 229.018025 
L 196.803373 228.501403 
L 196.95741 228.501403 
L 197.033933 226.951537 
L 197.186003 226.951537 
L 197.186003 226.434915 
L 197.336789 226.434915 
L 197.411708 224.885049 
L 197.56061 224.885049 
L 197.634598 223.335183 
L 197.708281 223.335183 
L 197.708281 221.785317 
L 198.215726 221.785317 
L 198.215726 221.268695 
L 199.983597 221.268695 
L 199.983597 220.235451 
L 200.744057 220.235451 
L 200.805991 219.202207 
L 200.867712 219.202207 
L 200.92922 218.168963 
L 200.990517 218.168963 
L 200.990517 217.652341 
L 201.233625 217.652341 
L 201.233625 216.619097 
L 201.413809 216.619097 
L 201.413809 215.585853 
L 203.918885 215.585853 
L 204.022468 214.552609 
L 206.161424 214.552609 
L 206.161424 214.035987 
L 206.298345 214.035987 
L 206.343753 212.48612 
L 206.524241 212.48612 
L 206.524241 211.969498 
L 209.304259 211.969498 
L 209.304259 211.452876 
L 210.529345 211.452876 
L 210.529345 210.936254 
L 212.042165 210.936254 
L 212.042165 210.419632 
L 213.406322 210.419632 
L 213.406322 209.90301 
L 213.649016 209.90301 
L 213.739183 208.869766 
L 215.067636 208.869766 
L 215.123213 207.3199 
L 215.206256 207.3199 
L 215.288915 206.286656 
L 216.016128 206.286656 
L 216.042502 205.253412 
L 216.304119 205.253412 
L 216.304119 204.73679 
L 216.45927 204.73679 
L 216.45927 203.703546 
L 216.587541 203.703546 
L 216.587541 203.186924 
L 217.798146 203.186924 
L 217.845858 202.15368 
L 218.61525 202.15368 
L 218.61525 201.637058 
L 219.265071 201.637058 
L 219.265071 199.57057 
L 219.656836 199.57057 
L 219.656836 199.053948 
L 220.082287 199.053948 
L 220.082287 198.537326 
L 220.883867 198.537326 
L 220.883867 197.504082 
L 221.515734 197.504082 
L 221.515734 196.98746 
L 221.84254 196.98746 
L 221.899596 195.437594 
L 221.994287 195.437594 
L 222.032023 193.371106 
L 222.986194 193.371106 
L 222.986194 192.337862 
L 224.476781 192.337862 
L 224.476781 190.787996 
L 224.689208 190.787996 
L 224.689208 190.271374 
L 225.40562 190.271374 
L 225.483477 188.721508 
L 226.243937 188.721508 
L 226.243937 188.204886 
L 228.242298 188.204886 
L 228.242298 187.688264 
L 230.219176 187.688264 
L 230.219176 186.65502 
L 230.782367 186.65502 
L 230.816984 185.621776 
L 231.339548 185.621776 
L 231.339548 184.588532 
L 231.869012 184.588532 
L 231.879877 183.555288 
L 232.446488 183.555288 
L 232.446488 182.005422 
L 232.81105 182.005422 
L 232.81105 181.4888 
L 233.910665 181.4888 
L 233.910665 180.972178 
L 234.388963 180.972178 
L 234.388963 180.455556 
L 234.873173 180.455556 
L 234.900711 178.389067 
L 236.370393 178.389067 
L 236.370393 176.839201 
L 237.066318 176.839201 
L 237.066318 176.322579 
L 237.308437 176.322579 
L 237.396399 174.256091 
L 237.868711 174.256091 
L 237.868711 173.739469 
L 238.614275 173.739469 
L 238.681211 171.156359 
L 238.85849 171.156359 
L 238.85849 170.639737 
L 238.975706 170.639737 
L 238.975706 170.123115 
L 239.329972 170.123115 
L 239.329972 169.606493 
L 239.990528 169.606493 
L 239.990528 169.089871 
L 240.399739 169.089871 
L 240.46032 167.540005 
L 240.733732 167.540005 
L 240.733732 165.990139 
L 241.02908 165.990139 
L 241.126454 163.923651 
L 241.498052 163.923651 
L 241.498052 162.890407 
L 242.309957 162.890407 
L 242.309957 162.373785 
L 243.034278 162.373785 
L 243.034278 161.857163 
L 243.167601 161.857163 
L 243.167601 161.340541 
L 243.488114 161.340541 
L 243.488114 160.823919 
L 243.70798 160.823919 
L 243.769508 158.240809 
L 244.852756 158.240809 
L 244.852756 157.207565 
L 245.077318 157.207565 
L 245.077318 156.690943 
L 245.319583 156.690943 
L 245.319583 156.174321 
L 245.614092 156.174321 
L 245.679441 153.591211 
L 245.859172 153.591211 
L 245.874069 152.557967 
L 246.071509 152.557967 
L 246.115633 149.458235 
L 246.363637 149.458235 
L 246.397409 148.424991 
L 246.840148 148.424991 
L 246.840148 146.875125 
L 247.064437 146.875125 
L 247.073722 145.841881 
L 247.299699 145.841881 
L 247.304281 144.808637 
L 247.631146 144.808637 
L 247.631146 144.292014 
L 248.615683 144.292014 
L 248.615683 143.775392 
L 248.789388 143.775392 
L 248.789388 142.742148 
L 249.239029 142.742148 
L 249.239029 142.225526 
L 249.41495 142.225526 
L 249.51239 139.642416 
L 249.661578 139.642416 
L 249.661578 139.125794 
L 249.857252 139.125794 
L 249.904848 137.575928 
L 250.042948 137.575928 
L 250.042948 136.026062 
L 250.246175 136.026062 
L 250.246175 135.50944 
L 250.630616 135.50944 
L 250.630616 134.992818 
L 250.868634 134.992818 
L 250.868634 134.476196 
L 250.980871 134.476196 
L 250.980871 132.92633 
L 251.546179 132.92633 
L 251.546179 131.893086 
L 251.718785 131.893086 
L 251.743817 130.34322 
L 252.251148 130.34322 
L 252.265037 127.76011 
L 252.615606 127.76011 
L 252.615606 126.210244 
L 252.761358 126.210244 
L 252.818655 124.143756 
L 252.95275 124.143756 
L 252.95275 123.627134 
L 253.115657 123.627134 
L 253.115657 122.59389 
L 253.260686 122.59389 
L 253.32295 121.044024 
L 253.75602 121.044024 
L 253.765597 120.01078 
L 254.234884 120.01078 
L 254.272148 116.911048 
L 254.426584 116.911048 
L 254.426584 115.877804 
L 254.888036 115.877804 
L 254.992624 114.84456 
L 255.146891 114.84456 
L 255.179354 113.294694 
L 255.285187 113.294694 
L 255.334947 111.744828 
L 255.419512 111.744828 
L 255.442771 109.161717 
L 255.607615 109.161717 
L 255.613371 108.128473 
L 255.870512 108.128473 
L 255.898856 107.095229 
L 256.006156 107.095229 
L 256.006156 106.578607 
L 256.199357 106.578607 
L 256.293794 103.995497 
L 256.467473 103.995497 
L 256.467473 103.478875 
L 256.604122 103.478875 
L 256.604122 102.962253 
L 256.839428 102.962253 
L 256.839428 102.445631 
L 257.232734 102.445631 
L 257.253749 101.412387 
L 257.361065 101.412387 
L 257.361065 100.895765 
L 257.519547 100.895765 
L 257.627855 98.312655 
L 257.743175 98.312655 
L 257.76615 97.279411 
L 257.872977 97.279411 
L 257.908445 95.729545 
L 257.999326 95.729545 
L 258.001844 94.179679 
L 258.382958 94.179679 
L 258.382958 93.663057 
L 258.659306 93.663057 
L 258.746456 92.629813 
L 258.869195 92.629813 
L 258.869195 91.596569 
L 259.010144 91.596569 
L 259.102707 90.563325 
L 259.251225 90.563325 
L 259.323855 89.013459 
L 259.556153 89.013459 
L 259.597648 87.463593 
L 259.819615 87.463593 
L 259.819615 85.913727 
L 259.932963 85.913727 
L 259.932963 85.397105 
L 260.054577 85.397105 
L 260.161987 82.297373 
L 260.168679 82.297373 
L 260.173139 80.747507 
L 260.359451 80.747507 
L 260.359451 80.230885 
L 260.471629 80.230885 
L 260.471629 79.714263 
L 260.722024 79.714263 
L 260.819058 76.614531 
L 260.896307 76.614531 
L 260.936943 75.064664 
L 261.117613 75.064664 
L 261.223042 74.03142 
L 261.327853 74.03142 
L 261.329943 72.998176 
L 261.779817 72.998176 
L 261.863175 69.898444 
L 261.938068 69.898444 
L 261.938068 69.381822 
L 262.130935 69.381822 
L 262.168861 66.28209 
L 262.335576 66.28209 
L 262.43997 64.732224 
L 262.631409 64.732224 
L 262.73023 62.665736 
L 262.855391 62.665736 
L 262.926247 59.566004 
L 263.295104 59.566004 
L 263.390331 56.982894 
L 263.490609 56.982894 
L 263.518365 55.94965 
L 263.667505 55.94965 
L 263.674837 54.399784 
L 263.793575 54.399784 
L 263.855371 52.849918 
L 263.949471 52.849918 
L 264.039487 51.300052 
L 264.121903 51.300052 
L 264.212835 50.266808 
L 264.305076 50.266808 
L 264.407402 46.133832 
L 264.566775 46.133832 
L 264.566775 45.61721 
L 264.822978 45.61721 
L 264.822978 44.583966 
L 264.980408 44.583966 
L 264.992329 42.517478 
L 265.245902 42.517478 
L 265.272738 40.967611 
L 265.358012 40.967611 
L 265.431256 39.934367 
L 265.585085 39.934367 
L 265.677079 38.901123 
L 265.823941 38.901123 
L 265.927647 37.867879 
L 266.138061 37.867879 
L 266.236789 35.284769 
L 266.777956 35.284769 
L 266.777956 34.768147 
L 358.8 34.768147 
L 358.8 34.768147 
" style="fill:none;stroke:#bf00bf;stroke-linecap:square;stroke-width:1.5;"/>
   </g>
   <g id="line2d_63">
    <defs>
     <path d="M -0 8.485281 
L 8.485281 0 
L 0 -8.485281 
L -8.485281 -0 
z
" id="m42f3e1eb16" style="stroke:#bf00bf;stroke-linejoin:miter;stroke-width:1.5;"/>
    </defs>
    <g>
     <use style="fill:none;stroke:#bf00bf;stroke-linejoin:miter;stroke-width:1.5;" x="358.8" xlink:href="#m42f3e1eb16" y="34.768147"/>
    </g>
   </g>
   <g id="line2d_64"/>
   <g id="line2d_65">
    <path d="M 358.8 34.768147 
L 390.48 292.97583 
" style="fill:none;stroke:#bf00bf;stroke-linecap:square;stroke-width:1.5;"/>
    <g>
     <use style="fill:none;stroke:#bf00bf;stroke-linejoin:miter;stroke-width:1.5;" x="358.8" xlink:href="#m42f3e1eb16" y="34.768147"/>
     <use style="fill:none;stroke:#bf00bf;stroke-linejoin:miter;stroke-width:1.5;" x="390.48" xlink:href="#m42f3e1eb16" y="292.97583"/>
    </g>
   </g>
   <g id="line2d_66">
    <path d="M 358.8 34.768147 
L 390.48 242.388203 
" style="fill:none;stroke:#ff0000;stroke-linecap:square;stroke-width:1.5;"/>
    <g>
     <use style="fill:none;stroke:#ff0000;stroke-linejoin:miter;stroke-width:1.5;" x="358.8" xlink:href="#m3aa849f9fa" y="34.768147"/>
     <use style="fill:none;stroke:#ff0000;stroke-linejoin:miter;stroke-width:1.5;" x="390.48" xlink:href="#m3aa849f9fa" y="242.388203"/>
    </g>
   </g>
   <g id="line2d_67">
    <path d="M 358.8 34.768147 
L 390.48 191.800575 
" style="fill:none;stroke:#000000;stroke-linecap:square;stroke-width:1.5;"/>
    <g>
     <use style="fill:none;stroke:#000000;stroke-width:1.5;" x="358.8" xlink:href="#ma291e64a00" y="34.768147"/>
     <use style="fill:none;stroke:#000000;stroke-width:1.5;" x="390.48" xlink:href="#ma291e64a00" y="191.800575"/>
    </g>
   </g>
   <g id="line2d_68">
    <path d="M 358.8 34.768147 
L 390.48 141.212947 
" style="fill:none;stroke:#0000ff;stroke-linecap:square;stroke-width:1.5;"/>
    <g>
     <use style="fill:none;stroke:#0000ff;stroke-linejoin:bevel;stroke-width:1.5;" x="358.8" xlink:href="#m0e1bfb3bc7" y="34.768147"/>
     <use style="fill:none;stroke:#0000ff;stroke-linejoin:bevel;stroke-width:1.5;" x="390.48" xlink:href="#m0e1bfb3bc7" y="141.212947"/>
    </g>
   </g>
   <g id="line2d_69">
    <path d="M 358.8 34.768147 
L 390.48 90.62532 
" style="fill:none;stroke:#00bfbf;stroke-linecap:square;stroke-width:1.5;"/>
    <g>
     <use style="fill:none;stroke:#00bfbf;stroke-width:1.5;" x="358.8" xlink:href="#m886a5a5def" y="34.768147"/>
     <use style="fill:none;stroke:#00bfbf;stroke-width:1.5;" x="390.48" xlink:href="#m886a5a5def" y="90.62532"/>
    </g>
   </g>
   <g id="line2d_70">
    <path d="M 358.8 34.768147 
L 390.48 40.037692 
" style="fill:none;stroke:#008000;stroke-linecap:square;stroke-width:1.5;"/>
    <g>
     <use style="fill:none;stroke:#008000;stroke-linejoin:miter;stroke-width:1.5;" x="358.8" xlink:href="#m5503ea8f1a" y="34.768147"/>
     <use style="fill:none;stroke:#008000;stroke-linejoin:miter;stroke-width:1.5;" x="390.48" xlink:href="#m5503ea8f1a" y="40.037692"/>
    </g>
   </g>
   <g id="line2d_71">
    <path d="M 358.8 298.245375 
L 358.8 34.768147 
" style="fill:none;stroke:#000000;stroke-linecap:square;stroke-width:1.5;"/>
   </g>
   <g id="patch_3">
    <path d="M 70.8 298.245375 
L 70.8 32.133375 
" style="fill:none;stroke:#000000;stroke-linecap:square;stroke-linejoin:miter;stroke-width:0.8;"/>
   </g>
   <g id="patch_4">
    <path d="M 427.92 298.245375 
L 427.92 32.133375 
" style="fill:none;stroke:#000000;stroke-linecap:square;stroke-linejoin:miter;stroke-width:0.8;"/>
   </g>
   <g id="patch_5">
    <path d="M 70.8 298.245375 
L 427.92 298.245375 
" style="fill:none;stroke:#000000;stroke-linecap:square;stroke-linejoin:miter;stroke-width:0.8;"/>
   </g>
   <g id="patch_6">
    <path d="M 70.8 32.133375 
L 427.92 32.133375 
" style="fill:none;stroke:#000000;stroke-linecap:square;stroke-linejoin:miter;stroke-width:0.8;"/>
   </g>
   <g id="text_14">
    <!-- 40-D -->
    <defs>
     <path d="M 19.671875 64.796875 
L 19.671875 8.109375 
L 31.59375 8.109375 
Q 46.6875 8.109375 53.6875 14.9375 
Q 60.6875 21.78125 60.6875 36.53125 
Q 60.6875 51.171875 53.6875 57.984375 
Q 46.6875 64.796875 31.59375 64.796875 
z
M 9.8125 72.90625 
L 30.078125 72.90625 
Q 51.265625 72.90625 61.171875 64.09375 
Q 71.09375 55.28125 71.09375 36.53125 
Q 71.09375 17.671875 61.125 8.828125 
Q 51.171875 0 30.078125 0 
L 9.8125 0 
z
" id="DejaVuSans-44"/>
    </defs>
    <g transform="translate(396.24 297.114893)scale(0.15 -0.15)">
     <use xlink:href="#DejaVuSans-34"/>
     <use x="63.623047" xlink:href="#DejaVuSans-30"/>
     <use x="127.246094" xlink:href="#DejaVuSans-2d"/>
     <use x="163.330078" xlink:href="#DejaVuSans-44"/>
    </g>
   </g>
   <g id="text_15">
    <!-- 20-D -->
    <g transform="translate(396.24 246.527265)scale(0.15 -0.15)">
     <use xlink:href="#DejaVuSans-32"/>
     <use x="63.623047" xlink:href="#DejaVuSans-30"/>
     <use x="127.246094" xlink:href="#DejaVuSans-2d"/>
     <use x="163.330078" xlink:href="#DejaVuSans-44"/>
    </g>
   </g>
   <g id="text_16">
    <!-- 10-D -->
    <g transform="translate(396.24 195.939637)scale(0.15 -0.15)">
     <use xlink:href="#DejaVuSans-31"/>
     <use x="63.623047" xlink:href="#DejaVuSans-30"/>
     <use x="127.246094" xlink:href="#DejaVuSans-2d"/>
     <use x="163.330078" xlink:href="#DejaVuSans-44"/>
    </g>
   </g>
   <g id="text_17">
    <!-- 5-D -->
    <defs>
     <path d="M 10.796875 72.90625 
L 49.515625 72.90625 
L 49.515625 64.59375 
L 19.828125 64.59375 
L 19.828125 46.734375 
Q 21.96875 47.46875 24.109375 47.828125 
Q 26.265625 48.1875 28.421875 48.1875 
Q 40.625 48.1875 47.75 41.5 
Q 54.890625 34.8125 54.890625 23.390625 
Q 54.890625 11.625 47.5625 5.09375 
Q 40.234375 -1.421875 26.90625 -1.421875 
Q 22.3125 -1.421875 17.546875 -0.640625 
Q 12.796875 0.140625 7.71875 1.703125 
L 7.71875 11.625 
Q 12.109375 9.234375 16.796875 8.0625 
Q 21.484375 6.890625 26.703125 6.890625 
Q 35.15625 6.890625 40.078125 11.328125 
Q 45.015625 15.765625 45.015625 23.390625 
Q 45.015625 31 40.078125 35.4375 
Q 35.15625 39.890625 26.703125 39.890625 
Q 22.75 39.890625 18.8125 39.015625 
Q 14.890625 38.140625 10.796875 36.28125 
z
" id="DejaVuSans-35"/>
    </defs>
    <g transform="translate(396.24 145.35201)scale(0.15 -0.15)">
     <use xlink:href="#DejaVuSans-35"/>
     <use x="63.623047" xlink:href="#DejaVuSans-2d"/>
     <use x="99.707031" xlink:href="#DejaVuSans-44"/>
    </g>
   </g>
   <g id="text_18">
    <!-- 2-D -->
    <g transform="translate(396.24 94.764382)scale(0.15 -0.15)">
     <use xlink:href="#DejaVuSans-32"/>
     <use x="63.623047" xlink:href="#DejaVuSans-2d"/>
     <use x="99.707031" xlink:href="#DejaVuSans-44"/>
    </g>
   </g>
   <g id="text_19">
    <!-- 3-D -->
    <defs>
     <path d="M 40.578125 39.3125 
Q 47.65625 37.796875 51.625 33 
Q 55.609375 28.21875 55.609375 21.1875 
Q 55.609375 10.40625 48.1875 4.484375 
Q 40.765625 -1.421875 27.09375 -1.421875 
Q 22.515625 -1.421875 17.65625 -0.515625 
Q 12.796875 0.390625 7.625 2.203125 
L 7.625 11.71875 
Q 11.71875 9.328125 16.59375 8.109375 
Q 21.484375 6.890625 26.8125 6.890625 
Q 36.078125 6.890625 40.9375 10.546875 
Q 45.796875 14.203125 45.796875 21.1875 
Q 45.796875 27.640625 41.28125 31.265625 
Q 36.765625 34.90625 28.71875 34.90625 
L 20.21875 34.90625 
L 20.21875 43.015625 
L 29.109375 43.015625 
Q 36.375 43.015625 40.234375 45.921875 
Q 44.09375 48.828125 44.09375 54.296875 
Q 44.09375 59.90625 40.109375 62.90625 
Q 36.140625 65.921875 28.71875 65.921875 
Q 24.65625 65.921875 20.015625 65.03125 
Q 15.375 64.15625 9.8125 62.3125 
L 9.8125 71.09375 
Q 15.4375 72.65625 20.34375 73.4375 
Q 25.25 74.21875 29.59375 74.21875 
Q 40.828125 74.21875 47.359375 69.109375 
Q 53.90625 64.015625 53.90625 55.328125 
Q 53.90625 49.265625 50.4375 45.09375 
Q 46.96875 40.921875 40.578125 39.3125 
" id="DejaVuSans-33"/>
    </defs>
    <g transform="translate(396.24 44.176754)scale(0.15 -0.15)">
     <use xlink:href="#DejaVuSans-33"/>
     <use x="63.623047" xlink:href="#DejaVuSans-2d"/>
     <use x="99.707031" xlink:href="#DejaVuSans-44"/>
    </g>
   </g>
   <g id="text_20">
    <!-- bbob - f1 -->
    <defs>
     <path d="M 48.6875 27.296875 
Q 48.6875 37.203125 44.609375 42.84375 
Q 40.53125 48.484375 33.40625 48.484375 
Q 26.265625 48.484375 22.1875 42.84375 
Q 18.109375 37.203125 18.109375 27.296875 
Q 18.109375 17.390625 22.1875 11.75 
Q 26.265625 6.109375 33.40625 6.109375 
Q 40.53125 6.109375 44.609375 11.75 
Q 48.6875 17.390625 48.6875 27.296875 
M 18.109375 46.390625 
Q 20.953125 51.265625 25.265625 53.625 
Q 29.59375 56 35.59375 56 
Q 45.5625 56 51.78125 48.09375 
Q 58.015625 40.1875 58.015625 27.296875 
Q 58.015625 14.40625 51.78125 6.484375 
Q 45.5625 -1.421875 35.59375 -1.421875 
Q 29.59375 -1.421875 25.265625 0.953125 
Q 20.953125 3.328125 18.109375 8.203125 
L 18.109375 0 
L 9.078125 0 
L 9.078125 75.984375 
L 18.109375 75.984375 
z
" id="DejaVuSans-62"/>
    </defs>
    <g transform="translate(74.3712 50.114612)scale(0.1666 -0.1666)">
     <use xlink:href="#DejaVuSans-62"/>
     <use x="63.476562" xlink:href="#DejaVuSans-62"/>
     <use x="126.953125" xlink:href="#DejaVuSans-6f"/>
     <use x="188.134766" xlink:href="#DejaVuSans-62"/>
     <use x="251.611328" xlink:href="#DejaVuSans-20"/>
     <use x="283.398438" xlink:href="#DejaVuSans-2d"/>
     <use x="319.482422" xlink:href="#DejaVuSans-20"/>
     <use x="351.269531" xlink:href="#DejaVuSans-66"/>
     <use x="386.474609" xlink:href="#DejaVuSans-31"/>
    </g>
    <!-- 51 targets in 100..1e-08 -->
    <g transform="translate(74.3712 68.770168)scale(0.1666 -0.1666)">
     <use xlink:href="#DejaVuSans-35"/>
     <use x="63.623047" xlink:href="#DejaVuSans-31"/>
     <use x="127.246094" xlink:href="#DejaVuSans-20"/>
     <use x="159.033203" xlink:href="#DejaVuSans-74"/>
     <use x="198.242188" xlink:href="#DejaVuSans-61"/>
     <use x="259.521484" xlink:href="#DejaVuSans-72"/>
     <use x="300.619141" xlink:href="#DejaVuSans-67"/>
     <use x="364.095703" xlink:href="#DejaVuSans-65"/>
     <use x="425.619141" xlink:href="#DejaVuSans-74"/>
     <use x="464.828125" xlink:href="#DejaVuSans-73"/>
     <use x="516.927734" xlink:href="#DejaVuSans-20"/>
     <use x="548.714844" xlink:href="#DejaVuSans-69"/>
     <use x="576.498047" xlink:href="#DejaVuSans-6e"/>
     <use x="639.876953" xlink:href="#DejaVuSans-20"/>
     <use x="671.664062" xlink:href="#DejaVuSans-31"/>
     <use x="735.287109" xlink:href="#DejaVuSans-30"/>
     <use x="798.910156" xlink:href="#DejaVuSans-30"/>
     <use x="862.533203" xlink:href="#DejaVuSans-2e"/>
     <use x="894.320312" xlink:href="#DejaVuSans-2e"/>
     <use x="926.107422" xlink:href="#DejaVuSans-31"/>
     <use x="989.730469" xlink:href="#DejaVuSans-65"/>
     <use x="1051.253906" xlink:href="#DejaVuSans-2d"/>
     <use x="1087.337891" xlink:href="#DejaVuSans-30"/>
     <use x="1150.960938" xlink:href="#DejaVuSans-38"/>
    </g>
    <!-- 15 instances -->
    <g transform="translate(74.3712 87.425723)scale(0.1666 -0.1666)">
     <use xlink:href="#DejaVuSans-31"/>
     <use x="63.623047" xlink:href="#DejaVuSans-35"/>
     <use x="127.246094" xlink:href="#DejaVuSans-20"/>
     <use x="159.033203" xlink:href="#DejaVuSans-69"/>
     <use x="186.816406" xlink:href="#DejaVuSans-6e"/>
     <use x="250.195312" xlink:href="#DejaVuSans-73"/>
     <use x="302.294922" xlink:href="#DejaVuSans-74"/>
     <use x="341.503906" xlink:href="#DejaVuSans-61"/>
     <use x="402.783203" xlink:href="#DejaVuSans-6e"/>
     <use x="466.162109" xlink:href="#DejaVuSans-63"/>
     <use x="521.142578" xlink:href="#DejaVuSans-65"/>
     <use x="582.666016" xlink:href="#DejaVuSans-73"/>
    </g>
   </g>
   <g id="text_21">
    <!-- v2.0.1 -->
    <g style="fill:#808080;" transform="translate(233.67875 293.504568)scale(0.1 -0.1)">
     <use xlink:href="#DejaVuSans-76"/>
     <use x="59.179688" xlink:href="#DejaVuSans-32"/>
     <use x="122.802734" xlink:href="#DejaVuSans-2e"/>
     <use x="154.589844" xlink:href="#DejaVuSans-30"/>
     <use x="218.212891" xlink:href="#DejaVuSans-2e"/>
     <use x="250" xlink:href="#DejaVuSans-31"/>
    </g>
   </g>
   <g id="text_22">
    <!-- 1 Sphere -->
    <defs>
     <path d="M 53.515625 70.515625 
L 53.515625 60.890625 
Q 47.90625 63.578125 42.921875 64.890625 
Q 37.9375 66.21875 33.296875 66.21875 
Q 25.25 66.21875 20.875 63.09375 
Q 16.5 59.96875 16.5 54.203125 
Q 16.5 49.359375 19.40625 46.890625 
Q 22.3125 44.4375 30.421875 42.921875 
L 36.375 41.703125 
Q 47.40625 39.59375 52.65625 34.296875 
Q 57.90625 29 57.90625 20.125 
Q 57.90625 9.515625 50.796875 4.046875 
Q 43.703125 -1.421875 29.984375 -1.421875 
Q 24.8125 -1.421875 18.96875 -0.25 
Q 13.140625 0.921875 6.890625 3.21875 
L 6.890625 13.375 
Q 12.890625 10.015625 18.65625 8.296875 
Q 24.421875 6.59375 29.984375 6.59375 
Q 38.421875 6.59375 43.015625 9.90625 
Q 47.609375 13.234375 47.609375 19.390625 
Q 47.609375 24.75 44.3125 27.78125 
Q 41.015625 30.8125 33.5 32.328125 
L 27.484375 33.5 
Q 16.453125 35.6875 11.515625 40.375 
Q 6.59375 45.0625 6.59375 53.421875 
Q 6.59375 63.09375 13.40625 68.65625 
Q 20.21875 74.21875 32.171875 74.21875 
Q 37.3125 74.21875 42.625 73.28125 
Q 47.953125 72.359375 53.515625 70.515625 
" id="DejaVuSans-53"/>
     <path d="M 54.890625 33.015625 
L 54.890625 0 
L 45.90625 0 
L 45.90625 32.71875 
Q 45.90625 40.484375 42.875 44.328125 
Q 39.84375 48.1875 33.796875 48.1875 
Q 26.515625 48.1875 22.3125 43.546875 
Q 18.109375 38.921875 18.109375 30.90625 
L 18.109375 0 
L 9.078125 0 
L 9.078125 75.984375 
L 18.109375 75.984375 
L 18.109375 46.1875 
Q 21.34375 51.125 25.703125 53.5625 
Q 30.078125 56 35.796875 56 
Q 45.21875 56 50.046875 50.171875 
Q 54.890625 44.34375 54.890625 33.015625 
" id="DejaVuSans-68"/>
    </defs>
    <g transform="translate(195.373125 26.133375)scale(0.24 -0.24)">
     <use xlink:href="#DejaVuSans-31"/>
     <use x="63.623047" xlink:href="#DejaVuSans-20"/>
     <use x="95.410156" xlink:href="#DejaVuSans-53"/>
     <use x="158.886719" xlink:href="#DejaVuSans-70"/>
     <use x="222.363281" xlink:href="#DejaVuSans-68"/>
     <use x="285.742188" xlink:href="#DejaVuSans-65"/>
     <use x="347.265625" xlink:href="#DejaVuSans-72"/>
     <use x="388.347656" xlink:href="#DejaVuSans-65"/>
    </g>
   </g>
  </g>
 </g>
 <defs>
  <clipPath id="p4b7ed936f2">
   <rect height="266.112" width="357.12" x="70.8" y="32.133375"/>
  </clipPath>
 </defs>
</svg>
