<?xml version="1.0" encoding="utf-8" standalone="no"?>
<!DOCTYPE svg PUBLIC "-//W3C//DTD SVG 1.1//EN"
  "http://www.w3.org/Graphics/SVG/1.1/DTD/svg11.dtd">
<!-- Created with matplotlib (http://matplotlib.org/) -->
<svg height="353pt" version="1.1" viewBox="0 0 438 353" width="438pt" xmlns="http://www.w3.org/2000/svg" xmlns:xlink="http://www.w3.org/1999/xlink">
 <defs>
  <style type="text/css">
*{stroke-linecap:butt;stroke-linejoin:round;}
  </style>
 </defs>
 <g id="figure_1">
  <g id="patch_1">
   <path d="M 0 353.22225 
L 438.62 353.22225 
L 438.62 0 
L 0 0 
z
" style="fill:#ffffff;"/>
  </g>
  <g id="axes_1">
   <g id="patch_2">
    <path d="M 70.8 298.245375 
L 427.92 298.245375 
L 427.92 32.133375 
L 70.8 32.133375 
z
" style="fill:#ffffff;"/>
   </g>
   <g id="matplotlib.axis_1">
    <g id="xtick_1">
     <g id="line2d_1">
      <path clip-path="url(#pfa815d50e0)" d="M 70.8 298.245375 
L 70.8 32.133375 
" style="fill:none;stroke:#b0b0b0;stroke-linecap:square;stroke-width:0.8;"/>
     </g>
     <g id="line2d_2">
      <defs>
       <path d="M 0 0 
L 0 3.5 
" id="m1458b6456c" style="stroke:#000000;stroke-width:0.8;"/>
      </defs>
      <g>
       <use style="stroke:#000000;stroke-width:0.8;" x="70.8" xlink:href="#m1458b6456c" y="298.245375"/>
      </g>
     </g>
     <g id="text_1">
      <!-- 0 -->
      <defs>
       <path d="M 31.78125 66.40625 
Q 24.171875 66.40625 20.328125 58.90625 
Q 16.5 51.421875 16.5 36.375 
Q 16.5 21.390625 20.328125 13.890625 
Q 24.171875 6.390625 31.78125 6.390625 
Q 39.453125 6.390625 43.28125 13.890625 
Q 47.125 21.390625 47.125 36.375 
Q 47.125 51.421875 43.28125 58.90625 
Q 39.453125 66.40625 31.78125 66.40625 
M 31.78125 74.21875 
Q 44.046875 74.21875 50.515625 64.515625 
Q 56.984375 54.828125 56.984375 36.375 
Q 56.984375 17.96875 50.515625 8.265625 
Q 44.046875 -1.421875 31.78125 -1.421875 
Q 19.53125 -1.421875 13.0625 8.265625 
Q 6.59375 17.96875 6.59375 36.375 
Q 6.59375 54.828125 13.0625 64.515625 
Q 19.53125 74.21875 31.78125 74.21875 
" id="DejaVuSans-30"/>
      </defs>
      <g transform="translate(64.4375 320.44225)scale(0.2 -0.2)">
       <use xlink:href="#DejaVuSans-30"/>
      </g>
     </g>
    </g>
    <g id="xtick_2">
     <g id="line2d_3">
      <path clip-path="url(#pfa815d50e0)" d="M 153.085714 298.245375 
L 153.085714 32.133375 
" style="fill:none;stroke:#b0b0b0;stroke-linecap:square;stroke-width:0.8;"/>
     </g>
     <g id="line2d_4">
      <g>
       <use style="stroke:#000000;stroke-width:0.8;" x="153.085714" xlink:href="#m1458b6456c" y="298.245375"/>
      </g>
     </g>
     <g id="text_2">
      <!-- 2 -->
      <defs>
       <path d="M 19.1875 8.296875 
L 53.609375 8.296875 
L 53.609375 0 
L 7.328125 0 
L 7.328125 8.296875 
Q 12.9375 14.109375 22.625 23.890625 
Q 32.328125 33.6875 34.8125 36.53125 
Q 39.546875 41.84375 41.421875 45.53125 
Q 43.3125 49.21875 43.3125 52.78125 
Q 43.3125 58.59375 39.234375 62.25 
Q 35.15625 65.921875 28.609375 65.921875 
Q 23.96875 65.921875 18.8125 64.3125 
Q 13.671875 62.703125 7.8125 59.421875 
L 7.8125 69.390625 
Q 13.765625 71.78125 18.9375 73 
Q 24.125 74.21875 28.421875 74.21875 
Q 39.75 74.21875 46.484375 68.546875 
Q 53.21875 62.890625 53.21875 53.421875 
Q 53.21875 48.921875 51.53125 44.890625 
Q 49.859375 40.875 45.40625 35.40625 
Q 44.1875 33.984375 37.640625 27.21875 
Q 31.109375 20.453125 19.1875 8.296875 
" id="DejaVuSans-32"/>
      </defs>
      <g transform="translate(146.723214 320.44225)scale(0.2 -0.2)">
       <use xlink:href="#DejaVuSans-32"/>
      </g>
     </g>
    </g>
    <g id="xtick_3">
     <g id="line2d_5">
      <path clip-path="url(#pfa815d50e0)" d="M 235.371429 298.245375 
L 235.371429 32.133375 
" style="fill:none;stroke:#b0b0b0;stroke-linecap:square;stroke-width:0.8;"/>
     </g>
     <g id="line2d_6">
      <g>
       <use style="stroke:#000000;stroke-width:0.8;" x="235.371429" xlink:href="#m1458b6456c" y="298.245375"/>
      </g>
     </g>
     <g id="text_3">
      <!-- 4 -->
      <defs>
       <path d="M 37.796875 64.3125 
L 12.890625 25.390625 
L 37.796875 25.390625 
z
M 35.203125 72.90625 
L 47.609375 72.90625 
L 47.609375 25.390625 
L 58.015625 25.390625 
L 58.015625 17.1875 
L 47.609375 17.1875 
L 47.609375 0 
L 37.796875 0 
L 37.796875 17.1875 
L 4.890625 17.1875 
L 4.890625 26.703125 
z
" id="DejaVuSans-34"/>
      </defs>
      <g transform="translate(229.008929 320.44225)scale(0.2 -0.2)">
       <use xlink:href="#DejaVuSans-34"/>
      </g>
     </g>
    </g>
    <g id="xtick_4">
     <g id="line2d_7">
      <path clip-path="url(#pfa815d50e0)" d="M 317.657143 298.245375 
L 317.657143 32.133375 
" style="fill:none;stroke:#b0b0b0;stroke-linecap:square;stroke-width:0.8;"/>
     </g>
     <g id="line2d_8">
      <g>
       <use style="stroke:#000000;stroke-width:0.8;" x="317.657143" xlink:href="#m1458b6456c" y="298.245375"/>
      </g>
     </g>
     <g id="text_4">
      <!-- 6 -->
      <defs>
       <path d="M 33.015625 40.375 
Q 26.375 40.375 22.484375 35.828125 
Q 18.609375 31.296875 18.609375 23.390625 
Q 18.609375 15.53125 22.484375 10.953125 
Q 26.375 6.390625 33.015625 6.390625 
Q 39.65625 6.390625 43.53125 10.953125 
Q 47.40625 15.53125 47.40625 23.390625 
Q 47.40625 31.296875 43.53125 35.828125 
Q 39.65625 40.375 33.015625 40.375 
M 52.59375 71.296875 
L 52.59375 62.3125 
Q 48.875 64.0625 45.09375 64.984375 
Q 41.3125 65.921875 37.59375 65.921875 
Q 27.828125 65.921875 22.671875 59.328125 
Q 17.53125 52.734375 16.796875 39.40625 
Q 19.671875 43.65625 24.015625 45.921875 
Q 28.375 48.1875 33.59375 48.1875 
Q 44.578125 48.1875 50.953125 41.515625 
Q 57.328125 34.859375 57.328125 23.390625 
Q 57.328125 12.15625 50.6875 5.359375 
Q 44.046875 -1.421875 33.015625 -1.421875 
Q 20.359375 -1.421875 13.671875 8.265625 
Q 6.984375 17.96875 6.984375 36.375 
Q 6.984375 53.65625 15.1875 63.9375 
Q 23.390625 74.21875 37.203125 74.21875 
Q 40.921875 74.21875 44.703125 73.484375 
Q 48.484375 72.75 52.59375 71.296875 
" id="DejaVuSans-36"/>
      </defs>
      <g transform="translate(311.294643 320.44225)scale(0.2 -0.2)">
       <use xlink:href="#DejaVuSans-36"/>
      </g>
     </g>
    </g>
    <g id="xtick_5">
     <g id="line2d_9">
      <path clip-path="url(#pfa815d50e0)" d="M 399.942857 298.245375 
L 399.942857 32.133375 
" style="fill:none;stroke:#b0b0b0;stroke-linecap:square;stroke-width:0.8;"/>
     </g>
     <g id="line2d_10">
      <g>
       <use style="stroke:#000000;stroke-width:0.8;" x="399.942857" xlink:href="#m1458b6456c" y="298.245375"/>
      </g>
     </g>
     <g id="text_5">
      <!-- 8 -->
      <defs>
       <path d="M 31.78125 34.625 
Q 24.75 34.625 20.71875 30.859375 
Q 16.703125 27.09375 16.703125 20.515625 
Q 16.703125 13.921875 20.71875 10.15625 
Q 24.75 6.390625 31.78125 6.390625 
Q 38.8125 6.390625 42.859375 10.171875 
Q 46.921875 13.96875 46.921875 20.515625 
Q 46.921875 27.09375 42.890625 30.859375 
Q 38.875 34.625 31.78125 34.625 
M 21.921875 38.8125 
Q 15.578125 40.375 12.03125 44.71875 
Q 8.5 49.078125 8.5 55.328125 
Q 8.5 64.0625 14.71875 69.140625 
Q 20.953125 74.21875 31.78125 74.21875 
Q 42.671875 74.21875 48.875 69.140625 
Q 55.078125 64.0625 55.078125 55.328125 
Q 55.078125 49.078125 51.53125 44.71875 
Q 48 40.375 41.703125 38.8125 
Q 48.828125 37.15625 52.796875 32.3125 
Q 56.78125 27.484375 56.78125 20.515625 
Q 56.78125 9.90625 50.3125 4.234375 
Q 43.84375 -1.421875 31.78125 -1.421875 
Q 19.734375 -1.421875 13.25 4.234375 
Q 6.78125 9.90625 6.78125 20.515625 
Q 6.78125 27.484375 10.78125 32.3125 
Q 14.796875 37.15625 21.921875 38.8125 
M 18.3125 54.390625 
Q 18.3125 48.734375 21.84375 45.5625 
Q 25.390625 42.390625 31.78125 42.390625 
Q 38.140625 42.390625 41.71875 45.5625 
Q 45.3125 48.734375 45.3125 54.390625 
Q 45.3125 60.0625 41.71875 63.234375 
Q 38.140625 66.40625 31.78125 66.40625 
Q 25.390625 66.40625 21.84375 63.234375 
Q 18.3125 60.0625 18.3125 54.390625 
" id="DejaVuSans-38"/>
      </defs>
      <g transform="translate(393.580357 320.44225)scale(0.2 -0.2)">
       <use xlink:href="#DejaVuSans-38"/>
      </g>
     </g>
    </g>
    <g id="xtick_6">
     <g id="line2d_11">
      <defs>
       <path d="M 0 0 
L 0 2 
" id="m8805b8d28e" style="stroke:#000000;stroke-width:0.6;"/>
      </defs>
      <g>
       <use style="stroke:#000000;stroke-width:0.6;" x="83.185234" xlink:href="#m8805b8d28e" y="298.245375"/>
      </g>
     </g>
    </g>
    <g id="xtick_7">
     <g id="line2d_12">
      <g>
       <use style="stroke:#000000;stroke-width:0.6;" x="95.570468" xlink:href="#m8805b8d28e" y="298.245375"/>
      </g>
     </g>
    </g>
    <g id="xtick_8">
     <g id="line2d_13">
      <g>
       <use style="stroke:#000000;stroke-width:0.6;" x="102.815366" xlink:href="#m8805b8d28e" y="298.245375"/>
      </g>
     </g>
    </g>
    <g id="xtick_9">
     <g id="line2d_14">
      <g>
       <use style="stroke:#000000;stroke-width:0.6;" x="107.955702" xlink:href="#m8805b8d28e" y="298.245375"/>
      </g>
     </g>
    </g>
    <g id="xtick_10">
     <g id="line2d_15">
      <g>
       <use style="stroke:#000000;stroke-width:0.6;" x="165.470948" xlink:href="#m8805b8d28e" y="298.245375"/>
      </g>
     </g>
    </g>
    <g id="xtick_11">
     <g id="line2d_16">
      <g>
       <use style="stroke:#000000;stroke-width:0.6;" x="177.856183" xlink:href="#m8805b8d28e" y="298.245375"/>
      </g>
     </g>
    </g>
    <g id="xtick_12">
     <g id="line2d_17">
      <g>
       <use style="stroke:#000000;stroke-width:0.6;" x="185.10108" xlink:href="#m8805b8d28e" y="298.245375"/>
      </g>
     </g>
    </g>
    <g id="xtick_13">
     <g id="line2d_18">
      <g>
       <use style="stroke:#000000;stroke-width:0.6;" x="190.241417" xlink:href="#m8805b8d28e" y="298.245375"/>
      </g>
     </g>
    </g>
    <g id="xtick_14">
     <g id="line2d_19">
      <g>
       <use style="stroke:#000000;stroke-width:0.6;" x="247.756663" xlink:href="#m8805b8d28e" y="298.245375"/>
      </g>
     </g>
    </g>
    <g id="xtick_15">
     <g id="line2d_20">
      <g>
       <use style="stroke:#000000;stroke-width:0.6;" x="260.141897" xlink:href="#m8805b8d28e" y="298.245375"/>
      </g>
     </g>
    </g>
    <g id="xtick_16">
     <g id="line2d_21">
      <g>
       <use style="stroke:#000000;stroke-width:0.6;" x="267.386794" xlink:href="#m8805b8d28e" y="298.245375"/>
      </g>
     </g>
    </g>
    <g id="xtick_17">
     <g id="line2d_22">
      <g>
       <use style="stroke:#000000;stroke-width:0.6;" x="272.527131" xlink:href="#m8805b8d28e" y="298.245375"/>
      </g>
     </g>
    </g>
    <g id="xtick_18">
     <g id="line2d_23">
      <g>
       <use style="stroke:#000000;stroke-width:0.6;" x="330.042377" xlink:href="#m8805b8d28e" y="298.245375"/>
      </g>
     </g>
    </g>
    <g id="xtick_19">
     <g id="line2d_24">
      <g>
       <use style="stroke:#000000;stroke-width:0.6;" x="342.427611" xlink:href="#m8805b8d28e" y="298.245375"/>
      </g>
     </g>
    </g>
    <g id="xtick_20">
     <g id="line2d_25">
      <g>
       <use style="stroke:#000000;stroke-width:0.6;" x="349.672509" xlink:href="#m8805b8d28e" y="298.245375"/>
      </g>
     </g>
    </g>
    <g id="xtick_21">
     <g id="line2d_26">
      <g>
       <use style="stroke:#000000;stroke-width:0.6;" x="354.812845" xlink:href="#m8805b8d28e" y="298.245375"/>
      </g>
     </g>
    </g>
    <g id="xtick_22">
     <g id="line2d_27">
      <g>
       <use style="stroke:#000000;stroke-width:0.6;" x="412.328091" xlink:href="#m8805b8d28e" y="298.245375"/>
      </g>
     </g>
    </g>
    <g id="xtick_23">
     <g id="line2d_28">
      <g>
       <use style="stroke:#000000;stroke-width:0.6;" x="424.713325" xlink:href="#m8805b8d28e" y="298.245375"/>
      </g>
     </g>
    </g>
    <g id="text_6">
     <!-- log10 of (# f-evals / dimension) -->
     <defs>
      <path d="M 9.421875 75.984375 
L 18.40625 75.984375 
L 18.40625 0 
L 9.421875 0 
z
" id="DejaVuSans-6c"/>
      <path d="M 30.609375 48.390625 
Q 23.390625 48.390625 19.1875 42.75 
Q 14.984375 37.109375 14.984375 27.296875 
Q 14.984375 17.484375 19.15625 11.84375 
Q 23.34375 6.203125 30.609375 6.203125 
Q 37.796875 6.203125 41.984375 11.859375 
Q 46.1875 17.53125 46.1875 27.296875 
Q 46.1875 37.015625 41.984375 42.703125 
Q 37.796875 48.390625 30.609375 48.390625 
M 30.609375 56 
Q 42.328125 56 49.015625 48.375 
Q 55.71875 40.765625 55.71875 27.296875 
Q 55.71875 13.875 49.015625 6.21875 
Q 42.328125 -1.421875 30.609375 -1.421875 
Q 18.84375 -1.421875 12.171875 6.21875 
Q 5.515625 13.875 5.515625 27.296875 
Q 5.515625 40.765625 12.171875 48.375 
Q 18.84375 56 30.609375 56 
" id="DejaVuSans-6f"/>
      <path d="M 45.40625 27.984375 
Q 45.40625 37.75 41.375 43.109375 
Q 37.359375 48.484375 30.078125 48.484375 
Q 22.859375 48.484375 18.828125 43.109375 
Q 14.796875 37.75 14.796875 27.984375 
Q 14.796875 18.265625 18.828125 12.890625 
Q 22.859375 7.515625 30.078125 7.515625 
Q 37.359375 7.515625 41.375 12.890625 
Q 45.40625 18.265625 45.40625 27.984375 
M 54.390625 6.78125 
Q 54.390625 -7.171875 48.1875 -13.984375 
Q 42 -20.796875 29.203125 -20.796875 
Q 24.46875 -20.796875 20.265625 -20.09375 
Q 16.0625 -19.390625 12.109375 -17.921875 
L 12.109375 -9.1875 
Q 16.0625 -11.328125 19.921875 -12.34375 
Q 23.78125 -13.375 27.78125 -13.375 
Q 36.625 -13.375 41.015625 -8.765625 
Q 45.40625 -4.15625 45.40625 5.171875 
L 45.40625 9.625 
Q 42.625 4.78125 38.28125 2.390625 
Q 33.9375 0 27.875 0 
Q 17.828125 0 11.671875 7.65625 
Q 5.515625 15.328125 5.515625 27.984375 
Q 5.515625 40.671875 11.671875 48.328125 
Q 17.828125 56 27.875 56 
Q 33.9375 56 38.28125 53.609375 
Q 42.625 51.21875 45.40625 46.390625 
L 45.40625 54.6875 
L 54.390625 54.6875 
z
" id="DejaVuSans-67"/>
      <path d="M 12.40625 8.296875 
L 28.515625 8.296875 
L 28.515625 63.921875 
L 10.984375 60.40625 
L 10.984375 69.390625 
L 28.421875 72.90625 
L 38.28125 72.90625 
L 38.28125 8.296875 
L 54.390625 8.296875 
L 54.390625 0 
L 12.40625 0 
z
" id="DejaVuSans-31"/>
      <path id="DejaVuSans-20"/>
      <path d="M 37.109375 75.984375 
L 37.109375 68.5 
L 28.515625 68.5 
Q 23.6875 68.5 21.796875 66.546875 
Q 19.921875 64.59375 19.921875 59.515625 
L 19.921875 54.6875 
L 34.71875 54.6875 
L 34.71875 47.703125 
L 19.921875 47.703125 
L 19.921875 0 
L 10.890625 0 
L 10.890625 47.703125 
L 2.296875 47.703125 
L 2.296875 54.6875 
L 10.890625 54.6875 
L 10.890625 58.5 
Q 10.890625 67.625 15.140625 71.796875 
Q 19.390625 75.984375 28.609375 75.984375 
z
" id="DejaVuSans-66"/>
      <path d="M 31 75.875 
Q 24.46875 64.65625 21.28125 53.65625 
Q 18.109375 42.671875 18.109375 31.390625 
Q 18.109375 20.125 21.3125 9.0625 
Q 24.515625 -2 31 -13.1875 
L 23.1875 -13.1875 
Q 15.875 -1.703125 12.234375 9.375 
Q 8.59375 20.453125 8.59375 31.390625 
Q 8.59375 42.28125 12.203125 53.3125 
Q 15.828125 64.359375 23.1875 75.875 
z
" id="DejaVuSans-28"/>
      <path d="M 51.125 44 
L 36.921875 44 
L 32.8125 27.6875 
L 47.125 27.6875 
z
M 43.796875 71.78125 
L 38.71875 51.515625 
L 52.984375 51.515625 
L 58.109375 71.78125 
L 65.921875 71.78125 
L 60.890625 51.515625 
L 76.125 51.515625 
L 76.125 44 
L 58.984375 44 
L 54.984375 27.6875 
L 70.515625 27.6875 
L 70.515625 20.21875 
L 53.078125 20.21875 
L 48 0 
L 40.1875 0 
L 45.21875 20.21875 
L 30.90625 20.21875 
L 25.875 0 
L 18.015625 0 
L 23.09375 20.21875 
L 7.71875 20.21875 
L 7.71875 27.6875 
L 24.90625 27.6875 
L 29 44 
L 13.28125 44 
L 13.28125 51.515625 
L 30.90625 51.515625 
L 35.890625 71.78125 
z
" id="DejaVuSans-23"/>
      <path d="M 4.890625 31.390625 
L 31.203125 31.390625 
L 31.203125 23.390625 
L 4.890625 23.390625 
z
" id="DejaVuSans-2d"/>
      <path d="M 56.203125 29.59375 
L 56.203125 25.203125 
L 14.890625 25.203125 
Q 15.484375 15.921875 20.484375 11.0625 
Q 25.484375 6.203125 34.421875 6.203125 
Q 39.59375 6.203125 44.453125 7.46875 
Q 49.3125 8.734375 54.109375 11.28125 
L 54.109375 2.78125 
Q 49.265625 0.734375 44.1875 -0.34375 
Q 39.109375 -1.421875 33.890625 -1.421875 
Q 20.796875 -1.421875 13.15625 6.1875 
Q 5.515625 13.8125 5.515625 26.8125 
Q 5.515625 40.234375 12.765625 48.109375 
Q 20.015625 56 32.328125 56 
Q 43.359375 56 49.78125 48.890625 
Q 56.203125 41.796875 56.203125 29.59375 
M 47.21875 32.234375 
Q 47.125 39.59375 43.09375 43.984375 
Q 39.0625 48.390625 32.421875 48.390625 
Q 24.90625 48.390625 20.390625 44.140625 
Q 15.875 39.890625 15.1875 32.171875 
z
" id="DejaVuSans-65"/>
      <path d="M 2.984375 54.6875 
L 12.5 54.6875 
L 29.59375 8.796875 
L 46.6875 54.6875 
L 56.203125 54.6875 
L 35.6875 0 
L 23.484375 0 
z
" id="DejaVuSans-76"/>
      <path d="M 34.28125 27.484375 
Q 23.390625 27.484375 19.1875 25 
Q 14.984375 22.515625 14.984375 16.5 
Q 14.984375 11.71875 18.140625 8.90625 
Q 21.296875 6.109375 26.703125 6.109375 
Q 34.1875 6.109375 38.703125 11.40625 
Q 43.21875 16.703125 43.21875 25.484375 
L 43.21875 27.484375 
z
M 52.203125 31.203125 
L 52.203125 0 
L 43.21875 0 
L 43.21875 8.296875 
Q 40.140625 3.328125 35.546875 0.953125 
Q 30.953125 -1.421875 24.3125 -1.421875 
Q 15.921875 -1.421875 10.953125 3.296875 
Q 6 8.015625 6 15.921875 
Q 6 25.140625 12.171875 29.828125 
Q 18.359375 34.515625 30.609375 34.515625 
L 43.21875 34.515625 
L 43.21875 35.40625 
Q 43.21875 41.609375 39.140625 45 
Q 35.0625 48.390625 27.6875 48.390625 
Q 23 48.390625 18.546875 47.265625 
Q 14.109375 46.140625 10.015625 43.890625 
L 10.015625 52.203125 
Q 14.9375 54.109375 19.578125 55.046875 
Q 24.21875 56 28.609375 56 
Q 40.484375 56 46.34375 49.84375 
Q 52.203125 43.703125 52.203125 31.203125 
" id="DejaVuSans-61"/>
      <path d="M 44.28125 53.078125 
L 44.28125 44.578125 
Q 40.484375 46.53125 36.375 47.5 
Q 32.28125 48.484375 27.875 48.484375 
Q 21.1875 48.484375 17.84375 46.4375 
Q 14.5 44.390625 14.5 40.28125 
Q 14.5 37.15625 16.890625 35.375 
Q 19.28125 33.59375 26.515625 31.984375 
L 29.59375 31.296875 
Q 39.15625 29.25 43.1875 25.515625 
Q 47.21875 21.78125 47.21875 15.09375 
Q 47.21875 7.46875 41.1875 3.015625 
Q 35.15625 -1.421875 24.609375 -1.421875 
Q 20.21875 -1.421875 15.453125 -0.5625 
Q 10.6875 0.296875 5.421875 2 
L 5.421875 11.28125 
Q 10.40625 8.6875 15.234375 7.390625 
Q 20.0625 6.109375 24.8125 6.109375 
Q 31.15625 6.109375 34.5625 8.28125 
Q 37.984375 10.453125 37.984375 14.40625 
Q 37.984375 18.0625 35.515625 20.015625 
Q 33.0625 21.96875 24.703125 23.78125 
L 21.578125 24.515625 
Q 13.234375 26.265625 9.515625 29.90625 
Q 5.8125 33.546875 5.8125 39.890625 
Q 5.8125 47.609375 11.28125 51.796875 
Q 16.75 56 26.8125 56 
Q 31.78125 56 36.171875 55.265625 
Q 40.578125 54.546875 44.28125 53.078125 
" id="DejaVuSans-73"/>
      <path d="M 25.390625 72.90625 
L 33.6875 72.90625 
L 8.296875 -9.28125 
L 0 -9.28125 
z
" id="DejaVuSans-2f"/>
      <path d="M 45.40625 46.390625 
L 45.40625 75.984375 
L 54.390625 75.984375 
L 54.390625 0 
L 45.40625 0 
L 45.40625 8.203125 
Q 42.578125 3.328125 38.25 0.953125 
Q 33.9375 -1.421875 27.875 -1.421875 
Q 17.96875 -1.421875 11.734375 6.484375 
Q 5.515625 14.40625 5.515625 27.296875 
Q 5.515625 40.1875 11.734375 48.09375 
Q 17.96875 56 27.875 56 
Q 33.9375 56 38.25 53.625 
Q 42.578125 51.265625 45.40625 46.390625 
M 14.796875 27.296875 
Q 14.796875 17.390625 18.875 11.75 
Q 22.953125 6.109375 30.078125 6.109375 
Q 37.203125 6.109375 41.296875 11.75 
Q 45.40625 17.390625 45.40625 27.296875 
Q 45.40625 37.203125 41.296875 42.84375 
Q 37.203125 48.484375 30.078125 48.484375 
Q 22.953125 48.484375 18.875 42.84375 
Q 14.796875 37.203125 14.796875 27.296875 
" id="DejaVuSans-64"/>
      <path d="M 9.421875 54.6875 
L 18.40625 54.6875 
L 18.40625 0 
L 9.421875 0 
z
M 9.421875 75.984375 
L 18.40625 75.984375 
L 18.40625 64.59375 
L 9.421875 64.59375 
z
" id="DejaVuSans-69"/>
      <path d="M 52 44.1875 
Q 55.375 50.25 60.0625 53.125 
Q 64.75 56 71.09375 56 
Q 79.640625 56 84.28125 50.015625 
Q 88.921875 44.046875 88.921875 33.015625 
L 88.921875 0 
L 79.890625 0 
L 79.890625 32.71875 
Q 79.890625 40.578125 77.09375 44.375 
Q 74.3125 48.1875 68.609375 48.1875 
Q 61.625 48.1875 57.5625 43.546875 
Q 53.515625 38.921875 53.515625 30.90625 
L 53.515625 0 
L 44.484375 0 
L 44.484375 32.71875 
Q 44.484375 40.625 41.703125 44.40625 
Q 38.921875 48.1875 33.109375 48.1875 
Q 26.21875 48.1875 22.15625 43.53125 
Q 18.109375 38.875 18.109375 30.90625 
L 18.109375 0 
L 9.078125 0 
L 9.078125 54.6875 
L 18.109375 54.6875 
L 18.109375 46.1875 
Q 21.1875 51.21875 25.484375 53.609375 
Q 29.78125 56 35.6875 56 
Q 41.65625 56 45.828125 52.96875 
Q 50 49.953125 52 44.1875 
" id="DejaVuSans-6d"/>
      <path d="M 54.890625 33.015625 
L 54.890625 0 
L 45.90625 0 
L 45.90625 32.71875 
Q 45.90625 40.484375 42.875 44.328125 
Q 39.84375 48.1875 33.796875 48.1875 
Q 26.515625 48.1875 22.3125 43.546875 
Q 18.109375 38.921875 18.109375 30.90625 
L 18.109375 0 
L 9.078125 0 
L 9.078125 54.6875 
L 18.109375 54.6875 
L 18.109375 46.1875 
Q 21.34375 51.125 25.703125 53.5625 
Q 30.078125 56 35.796875 56 
Q 45.21875 56 50.046875 50.171875 
Q 54.890625 44.34375 54.890625 33.015625 
" id="DejaVuSans-6e"/>
      <path d="M 8.015625 75.875 
L 15.828125 75.875 
Q 23.140625 64.359375 26.78125 53.3125 
Q 30.421875 42.28125 30.421875 31.390625 
Q 30.421875 20.453125 26.78125 9.375 
Q 23.140625 -1.703125 15.828125 -13.1875 
L 8.015625 -13.1875 
Q 14.5 -2 17.703125 9.0625 
Q 20.90625 20.125 20.90625 31.390625 
Q 20.90625 42.671875 17.703125 53.65625 
Q 14.5 64.65625 8.015625 75.875 
" id="DejaVuSans-29"/>
     </defs>
     <g transform="translate(107.015156 342.278812)scale(0.18 -0.18)">
      <use xlink:href="#DejaVuSans-6c"/>
      <use x="27.783203" xlink:href="#DejaVuSans-6f"/>
      <use x="88.964844" xlink:href="#DejaVuSans-67"/>
      <use x="152.441406" xlink:href="#DejaVuSans-31"/>
      <use x="216.064453" xlink:href="#DejaVuSans-30"/>
      <use x="279.6875" xlink:href="#DejaVuSans-20"/>
      <use x="311.474609" xlink:href="#DejaVuSans-6f"/>
      <use x="372.65625" xlink:href="#DejaVuSans-66"/>
      <use x="407.861328" xlink:href="#DejaVuSans-20"/>
      <use x="439.648438" xlink:href="#DejaVuSans-28"/>
      <use x="478.662109" xlink:href="#DejaVuSans-23"/>
      <use x="562.451172" xlink:href="#DejaVuSans-20"/>
      <use x="594.238281" xlink:href="#DejaVuSans-66"/>
      <use x="629.365234" xlink:href="#DejaVuSans-2d"/>
      <use x="665.449219" xlink:href="#DejaVuSans-65"/>
      <use x="726.972656" xlink:href="#DejaVuSans-76"/>
      <use x="786.152344" xlink:href="#DejaVuSans-61"/>
      <use x="847.431641" xlink:href="#DejaVuSans-6c"/>
      <use x="875.214844" xlink:href="#DejaVuSans-73"/>
      <use x="927.314453" xlink:href="#DejaVuSans-20"/>
      <use x="959.101562" xlink:href="#DejaVuSans-2f"/>
      <use x="992.792969" xlink:href="#DejaVuSans-20"/>
      <use x="1024.580078" xlink:href="#DejaVuSans-64"/>
      <use x="1088.056641" xlink:href="#DejaVuSans-69"/>
      <use x="1115.839844" xlink:href="#DejaVuSans-6d"/>
      <use x="1213.251953" xlink:href="#DejaVuSans-65"/>
      <use x="1274.775391" xlink:href="#DejaVuSans-6e"/>
      <use x="1338.154297" xlink:href="#DejaVuSans-73"/>
      <use x="1390.253906" xlink:href="#DejaVuSans-69"/>
      <use x="1418.037109" xlink:href="#DejaVuSans-6f"/>
      <use x="1479.21875" xlink:href="#DejaVuSans-6e"/>
      <use x="1542.597656" xlink:href="#DejaVuSans-29"/>
     </g>
    </g>
   </g>
   <g id="matplotlib.axis_2">
    <g id="ytick_1">
     <g id="line2d_29">
      <path clip-path="url(#pfa815d50e0)" d="M 70.8 298.245375 
L 427.92 298.245375 
" style="fill:none;stroke:#b0b0b0;stroke-linecap:square;stroke-width:0.8;"/>
     </g>
     <g id="line2d_30">
      <defs>
       <path d="M 0 0 
L -3.5 0 
" id="mffaf4f5aef" style="stroke:#000000;stroke-width:0.8;"/>
      </defs>
      <g>
       <use style="stroke:#000000;stroke-width:0.8;" x="70.8" xlink:href="#mffaf4f5aef" y="298.245375"/>
      </g>
     </g>
     <g id="text_7">
      <!-- 0.0 -->
      <defs>
       <path d="M 10.6875 12.40625 
L 21 12.40625 
L 21 0 
L 10.6875 0 
z
" id="DejaVuSans-2e"/>
      </defs>
      <g transform="translate(31.99375 305.843812)scale(0.2 -0.2)">
       <use xlink:href="#DejaVuSans-30"/>
       <use x="63.623047" xlink:href="#DejaVuSans-2e"/>
       <use x="95.410156" xlink:href="#DejaVuSans-30"/>
      </g>
     </g>
    </g>
    <g id="ytick_2">
     <g id="line2d_31">
      <path clip-path="url(#pfa815d50e0)" d="M 70.8 245.549929 
L 427.92 245.549929 
" style="fill:none;stroke:#b0b0b0;stroke-linecap:square;stroke-width:0.8;"/>
     </g>
     <g id="line2d_32">
      <g>
       <use style="stroke:#000000;stroke-width:0.8;" x="70.8" xlink:href="#mffaf4f5aef" y="245.549929"/>
      </g>
     </g>
     <g id="text_8">
      <!-- 0.2 -->
      <g transform="translate(31.99375 253.148367)scale(0.2 -0.2)">
       <use xlink:href="#DejaVuSans-30"/>
       <use x="63.623047" xlink:href="#DejaVuSans-2e"/>
       <use x="95.410156" xlink:href="#DejaVuSans-32"/>
      </g>
     </g>
    </g>
    <g id="ytick_3">
     <g id="line2d_33">
      <path clip-path="url(#pfa815d50e0)" d="M 70.8 192.854484 
L 427.92 192.854484 
" style="fill:none;stroke:#b0b0b0;stroke-linecap:square;stroke-width:0.8;"/>
     </g>
     <g id="line2d_34">
      <g>
       <use style="stroke:#000000;stroke-width:0.8;" x="70.8" xlink:href="#mffaf4f5aef" y="192.854484"/>
      </g>
     </g>
     <g id="text_9">
      <!-- 0.4 -->
      <g transform="translate(31.99375 200.452921)scale(0.2 -0.2)">
       <use xlink:href="#DejaVuSans-30"/>
       <use x="63.623047" xlink:href="#DejaVuSans-2e"/>
       <use x="95.410156" xlink:href="#DejaVuSans-34"/>
      </g>
     </g>
    </g>
    <g id="ytick_4">
     <g id="line2d_35">
      <path clip-path="url(#pfa815d50e0)" d="M 70.8 140.159038 
L 427.92 140.159038 
" style="fill:none;stroke:#b0b0b0;stroke-linecap:square;stroke-width:0.8;"/>
     </g>
     <g id="line2d_36">
      <g>
       <use style="stroke:#000000;stroke-width:0.8;" x="70.8" xlink:href="#mffaf4f5aef" y="140.159038"/>
      </g>
     </g>
     <g id="text_10">
      <!-- 0.6 -->
      <g transform="translate(31.99375 147.757476)scale(0.2 -0.2)">
       <use xlink:href="#DejaVuSans-30"/>
       <use x="63.623047" xlink:href="#DejaVuSans-2e"/>
       <use x="95.410156" xlink:href="#DejaVuSans-36"/>
      </g>
     </g>
    </g>
    <g id="ytick_5">
     <g id="line2d_37">
      <path clip-path="url(#pfa815d50e0)" d="M 70.8 87.463593 
L 427.92 87.463593 
" style="fill:none;stroke:#b0b0b0;stroke-linecap:square;stroke-width:0.8;"/>
     </g>
     <g id="line2d_38">
      <g>
       <use style="stroke:#000000;stroke-width:0.8;" x="70.8" xlink:href="#mffaf4f5aef" y="87.463593"/>
      </g>
     </g>
     <g id="text_11">
      <!-- 0.8 -->
      <g transform="translate(31.99375 95.06203)scale(0.2 -0.2)">
       <use xlink:href="#DejaVuSans-30"/>
       <use x="63.623047" xlink:href="#DejaVuSans-2e"/>
       <use x="95.410156" xlink:href="#DejaVuSans-38"/>
      </g>
     </g>
    </g>
    <g id="ytick_6">
     <g id="line2d_39">
      <path clip-path="url(#pfa815d50e0)" d="M 70.8 34.768147 
L 427.92 34.768147 
" style="fill:none;stroke:#b0b0b0;stroke-linecap:square;stroke-width:0.8;"/>
     </g>
     <g id="line2d_40">
      <g>
       <use style="stroke:#000000;stroke-width:0.8;" x="70.8" xlink:href="#mffaf4f5aef" y="34.768147"/>
      </g>
     </g>
     <g id="text_12">
      <!-- 1.0 -->
      <g transform="translate(31.99375 42.366585)scale(0.2 -0.2)">
       <use xlink:href="#DejaVuSans-31"/>
       <use x="63.623047" xlink:href="#DejaVuSans-2e"/>
       <use x="95.410156" xlink:href="#DejaVuSans-30"/>
      </g>
     </g>
    </g>
    <g id="text_13">
     <!-- Proportion of function+target pairs -->
     <defs>
      <path d="M 19.671875 64.796875 
L 19.671875 37.40625 
L 32.078125 37.40625 
Q 38.96875 37.40625 42.71875 40.96875 
Q 46.484375 44.53125 46.484375 51.125 
Q 46.484375 57.671875 42.71875 61.234375 
Q 38.96875 64.796875 32.078125 64.796875 
z
M 9.8125 72.90625 
L 32.078125 72.90625 
Q 44.34375 72.90625 50.609375 67.359375 
Q 56.890625 61.8125 56.890625 51.125 
Q 56.890625 40.328125 50.609375 34.8125 
Q 44.34375 29.296875 32.078125 29.296875 
L 19.671875 29.296875 
L 19.671875 0 
L 9.8125 0 
z
" id="DejaVuSans-50"/>
      <path d="M 41.109375 46.296875 
Q 39.59375 47.171875 37.8125 47.578125 
Q 36.03125 48 33.890625 48 
Q 26.265625 48 22.1875 43.046875 
Q 18.109375 38.09375 18.109375 28.8125 
L 18.109375 0 
L 9.078125 0 
L 9.078125 54.6875 
L 18.109375 54.6875 
L 18.109375 46.1875 
Q 20.953125 51.171875 25.484375 53.578125 
Q 30.03125 56 36.53125 56 
Q 37.453125 56 38.578125 55.875 
Q 39.703125 55.765625 41.0625 55.515625 
z
" id="DejaVuSans-72"/>
      <path d="M 18.109375 8.203125 
L 18.109375 -20.796875 
L 9.078125 -20.796875 
L 9.078125 54.6875 
L 18.109375 54.6875 
L 18.109375 46.390625 
Q 20.953125 51.265625 25.265625 53.625 
Q 29.59375 56 35.59375 56 
Q 45.5625 56 51.78125 48.09375 
Q 58.015625 40.1875 58.015625 27.296875 
Q 58.015625 14.40625 51.78125 6.484375 
Q 45.5625 -1.421875 35.59375 -1.421875 
Q 29.59375 -1.421875 25.265625 0.953125 
Q 20.953125 3.328125 18.109375 8.203125 
M 48.6875 27.296875 
Q 48.6875 37.203125 44.609375 42.84375 
Q 40.53125 48.484375 33.40625 48.484375 
Q 26.265625 48.484375 22.1875 42.84375 
Q 18.109375 37.203125 18.109375 27.296875 
Q 18.109375 17.390625 22.1875 11.75 
Q 26.265625 6.109375 33.40625 6.109375 
Q 40.53125 6.109375 44.609375 11.75 
Q 48.6875 17.390625 48.6875 27.296875 
" id="DejaVuSans-70"/>
      <path d="M 18.3125 70.21875 
L 18.3125 54.6875 
L 36.8125 54.6875 
L 36.8125 47.703125 
L 18.3125 47.703125 
L 18.3125 18.015625 
Q 18.3125 11.328125 20.140625 9.421875 
Q 21.96875 7.515625 27.59375 7.515625 
L 36.8125 7.515625 
L 36.8125 0 
L 27.59375 0 
Q 17.1875 0 13.234375 3.875 
Q 9.28125 7.765625 9.28125 18.015625 
L 9.28125 47.703125 
L 2.6875 47.703125 
L 2.6875 54.6875 
L 9.28125 54.6875 
L 9.28125 70.21875 
z
" id="DejaVuSans-74"/>
      <path d="M 8.5 21.578125 
L 8.5 54.6875 
L 17.484375 54.6875 
L 17.484375 21.921875 
Q 17.484375 14.15625 20.5 10.265625 
Q 23.53125 6.390625 29.59375 6.390625 
Q 36.859375 6.390625 41.078125 11.03125 
Q 45.3125 15.671875 45.3125 23.6875 
L 45.3125 54.6875 
L 54.296875 54.6875 
L 54.296875 0 
L 45.3125 0 
L 45.3125 8.40625 
Q 42.046875 3.421875 37.71875 1 
Q 33.40625 -1.421875 27.6875 -1.421875 
Q 18.265625 -1.421875 13.375 4.4375 
Q 8.5 10.296875 8.5 21.578125 
M 31.109375 56 
z
" id="DejaVuSans-75"/>
      <path d="M 48.78125 52.59375 
L 48.78125 44.1875 
Q 44.96875 46.296875 41.140625 47.34375 
Q 37.3125 48.390625 33.40625 48.390625 
Q 24.65625 48.390625 19.8125 42.84375 
Q 14.984375 37.3125 14.984375 27.296875 
Q 14.984375 17.28125 19.8125 11.734375 
Q 24.65625 6.203125 33.40625 6.203125 
Q 37.3125 6.203125 41.140625 7.25 
Q 44.96875 8.296875 48.78125 10.40625 
L 48.78125 2.09375 
Q 45.015625 0.34375 40.984375 -0.53125 
Q 36.96875 -1.421875 32.421875 -1.421875 
Q 20.0625 -1.421875 12.78125 6.34375 
Q 5.515625 14.109375 5.515625 27.296875 
Q 5.515625 40.671875 12.859375 48.328125 
Q 20.21875 56 33.015625 56 
Q 37.15625 56 41.109375 55.140625 
Q 45.0625 54.296875 48.78125 52.59375 
" id="DejaVuSans-63"/>
      <path d="M 46 62.703125 
L 46 35.5 
L 73.1875 35.5 
L 73.1875 27.203125 
L 46 27.203125 
L 46 0 
L 37.796875 0 
L 37.796875 27.203125 
L 10.59375 27.203125 
L 10.59375 35.5 
L 37.796875 35.5 
L 37.796875 62.703125 
z
" id="DejaVuSans-2b"/>
     </defs>
     <g transform="translate(24.250312 323.17875)rotate(-90)scale(0.18 -0.18)">
      <use xlink:href="#DejaVuSans-50"/>
      <use x="60.287109" xlink:href="#DejaVuSans-72"/>
      <use x="101.369141" xlink:href="#DejaVuSans-6f"/>
      <use x="162.550781" xlink:href="#DejaVuSans-70"/>
      <use x="226.027344" xlink:href="#DejaVuSans-6f"/>
      <use x="287.208984" xlink:href="#DejaVuSans-72"/>
      <use x="328.322266" xlink:href="#DejaVuSans-74"/>
      <use x="367.53125" xlink:href="#DejaVuSans-69"/>
      <use x="395.314453" xlink:href="#DejaVuSans-6f"/>
      <use x="456.496094" xlink:href="#DejaVuSans-6e"/>
      <use x="519.875" xlink:href="#DejaVuSans-20"/>
      <use x="551.662109" xlink:href="#DejaVuSans-6f"/>
      <use x="612.84375" xlink:href="#DejaVuSans-66"/>
      <use x="648.048828" xlink:href="#DejaVuSans-20"/>
      <use x="679.835938" xlink:href="#DejaVuSans-66"/>
      <use x="715.041016" xlink:href="#DejaVuSans-75"/>
      <use x="778.419922" xlink:href="#DejaVuSans-6e"/>
      <use x="841.798828" xlink:href="#DejaVuSans-63"/>
      <use x="896.779297" xlink:href="#DejaVuSans-74"/>
      <use x="935.988281" xlink:href="#DejaVuSans-69"/>
      <use x="963.771484" xlink:href="#DejaVuSans-6f"/>
      <use x="1024.953125" xlink:href="#DejaVuSans-6e"/>
      <use x="1088.332031" xlink:href="#DejaVuSans-2b"/>
      <use x="1172.121094" xlink:href="#DejaVuSans-74"/>
      <use x="1211.330078" xlink:href="#DejaVuSans-61"/>
      <use x="1272.609375" xlink:href="#DejaVuSans-72"/>
      <use x="1313.707031" xlink:href="#DejaVuSans-67"/>
      <use x="1377.183594" xlink:href="#DejaVuSans-65"/>
      <use x="1438.707031" xlink:href="#DejaVuSans-74"/>
      <use x="1477.916016" xlink:href="#DejaVuSans-20"/>
      <use x="1509.703125" xlink:href="#DejaVuSans-70"/>
      <use x="1573.179688" xlink:href="#DejaVuSans-61"/>
      <use x="1634.458984" xlink:href="#DejaVuSans-69"/>
      <use x="1662.242188" xlink:href="#DejaVuSans-72"/>
      <use x="1703.355469" xlink:href="#DejaVuSans-73"/>
     </g>
    </g>
   </g>
   <g id="line2d_41">
    <defs>
     <path d="M 0 1.5 
C 0.397805 1.5 0.77937 1.341951 1.06066 1.06066 
C 1.341951 0.77937 1.5 0.397805 1.5 0 
C 1.5 -0.397805 1.341951 -0.77937 1.06066 -1.06066 
C 0.77937 -1.341951 0.397805 -1.5 0 -1.5 
C -0.397805 -1.5 -0.77937 -1.341951 -1.06066 -1.06066 
C -1.341951 -0.77937 -1.5 -0.397805 -1.5 0 
C -1.5 0.397805 -1.341951 0.77937 -1.06066 1.06066 
C -0.77937 1.341951 -0.397805 1.5 0 1.5 
z
" id="mb23d7f17fb" style="stroke:#000080;"/>
    </defs>
    <g>
     <use style="fill:#000080;stroke:#000080;" x="344.400416" xlink:href="#mb23d7f17fb" y="117.42767"/>
     <use style="fill:#000080;stroke:#000080;" x="344.400416" xlink:href="#mb23d7f17fb" y="117.42767"/>
    </g>
   </g>
   <g id="line2d_42">
    <path d="M 136.713325 298.245375 
L 136.713325 296.178887 
L 143.958223 296.178887 
L 143.958223 289.979423 
L 149.098559 289.979423 
L 149.098559 288.429557 
L 153.085714 288.429557 
L 153.085714 284.813203 
L 156.343457 284.813203 
L 156.343457 283.263337 
L 159.097839 283.263337 
L 159.097839 279.646982 
L 161.483794 279.646982 
L 161.483794 277.063872 
L 163.588354 277.063872 
L 163.588354 276.030628 
L 165.470948 276.030628 
L 165.470948 271.897652 
L 167.173962 271.897652 
L 167.173962 270.864408 
L 170.158903 270.864408 
L 170.158903 267.764676 
L 172.715846 267.764676 
L 172.715846 265.698188 
L 173.869028 265.698188 
L 173.869028 263.115078 
L 175.973589 263.115078 
L 175.973589 262.081834 
L 176.939668 262.081834 
L 176.939668 261.04859 
L 179.559196 261.04859 
L 179.559196 260.531968 
L 180.353465 260.531968 
L 180.353465 258.982102 
L 181.843337 258.982102 
L 181.843337 257.948858 
L 183.218486 257.948858 
L 183.218486 256.398992 
L 184.495323 256.398992 
L 184.495323 255.88237 
L 185.10108 255.88237 
L 185.10108 255.365748 
L 185.686972 255.365748 
L 185.686972 254.849126 
L 187.33751 254.849126 
L 187.33751 254.332504 
L 193.122975 254.332504 
L 193.122975 253.815882 
L 193.499159 253.815882 
L 193.499159 253.29926 
L 194.228571 253.29926 
L 194.228571 252.782638 
L 195.60372 252.782638 
L 195.60372 252.266016 
L 195.931585 252.266016 
L 195.931585 251.749394 
L 197.186003 251.749394 
L 197.186003 251.232772 
L 200.990517 251.232772 
L 200.990517 250.71615 
L 201.710136 250.71615 
L 201.710136 249.166284 
L 202.174269 249.166284 
L 202.174269 248.649662 
L 202.401892 248.649662 
L 202.401892 248.13304 
L 202.626651 248.13304 
L 202.626651 247.616418 
L 209.871548 247.616418 
L 209.871548 247.099796 
L 211.84326 247.099796 
L 211.84326 246.583173 
L 212.368831 246.583173 
L 212.368831 246.066551 
L 212.497843 246.066551 
L 212.497843 243.483441 
L 213.004774 243.483441 
L 213.004774 242.966819 
L 219.088158 242.966819 
L 219.088158 242.450197 
L 219.69984 242.450197 
L 219.69984 241.933575 
L 219.870828 241.933575 
L 219.870828 241.416953 
L 220.374188 241.416953 
L 220.374188 240.900331 
L 220.944063 240.900331 
L 221.02401 239.867087 
L 221.103601 239.867087 
L 221.103601 239.350465 
L 221.496322 239.350465 
L 221.496322 238.317221 
L 221.804401 238.317221 
L 221.804401 237.800599 
L 221.956471 237.800599 
L 221.956471 236.250733 
L 222.478749 236.250733 
L 222.478749 235.217489 
L 222.842675 235.217489 
L 222.914579 234.184245 
L 225.699689 234.184245 
L 225.699689 233.667623 
L 230.747683 233.667623 
L 230.840025 232.117757 
L 230.977649 232.117757 
L 230.977649 231.601135 
L 231.249758 231.601135 
L 231.249758 230.567891 
L 231.517785 230.567891 
L 231.517785 230.051269 
L 231.78185 230.051269 
L 231.78185 229.534647 
L 235.442758 229.534647 
L 235.442758 228.501403 
L 236.34503 228.501403 
L 236.34503 227.984781 
L 236.713458 227.984781 
L 236.713458 226.951537 
L 236.878446 226.951537 
L 236.878446 226.434915 
L 237.041925 226.434915 
L 237.041925 225.401671 
L 239.726428 225.401671 
L 239.726428 224.885049 
L 241.203973 224.885049 
L 241.203973 224.368427 
L 242.182261 224.368427 
L 242.182261 223.851805 
L 242.496806 223.851805 
L 242.496806 223.335183 
L 242.993503 223.335183 
L 242.993503 221.785317 
L 244.683789 221.785317 
L 244.72618 220.235451 
L 245.593936 220.235451 
L 245.593936 219.718829 
L 245.973061 219.718829 
L 245.973061 219.202207 
L 247.720891 219.202207 
L 247.720891 218.685585 
L 247.952139 218.685585 
L 247.952139 218.168963 
L 248.491792 218.168963 
L 248.491792 217.652341 
L 248.611426 217.652341 
L 248.611426 216.619097 
L 249.148348 216.619097 
L 249.16487 215.585853 
L 249.427159 215.585853 
L 249.427159 215.069231 
L 249.573022 215.069231 
L 249.573022 214.035987 
L 250.238401 214.035987 
L 250.238401 213.519365 
L 250.999509 213.519365 
L 250.999509 211.969498 
L 251.715206 211.969498 
L 251.715206 211.452876 
L 252.027444 211.452876 
L 252.027444 209.90301 
L 252.361959 209.90301 
L 252.361959 208.869766 
L 252.9327 208.869766 
L 252.9327 208.353144 
L 253.407803 208.353144 
L 253.472802 207.3199 
L 254.321713 207.3199 
L 254.371141 204.73679 
L 254.85804 204.73679 
L 254.85804 204.220168 
L 255.00156 204.220168 
L 255.00156 203.703546 
L 255.506575 203.703546 
L 255.506575 203.186924 
L 255.679438 203.186924 
L 255.679438 202.670302 
L 256.332536 202.670302 
L 256.354636 201.637058 
L 256.866277 201.637058 
L 256.866277 201.120436 
L 256.983936 201.120436 
L 257.037163 200.087192 
L 257.132573 200.087192 
L 257.195898 197.504082 
L 257.269494 197.504082 
L 257.269494 196.98746 
L 257.602127 196.98746 
L 257.643274 195.954216 
L 257.715054 195.954216 
L 257.715054 194.920972 
L 257.969083 194.920972 
L 257.969083 194.40435 
L 258.169738 194.40435 
L 258.169738 193.887728 
L 258.397739 193.887728 
L 258.397739 192.854484 
L 259.47751 192.854484 
L 259.47751 191.82124 
L 259.606856 191.82124 
L 259.707832 190.271374 
L 259.853695 190.271374 
L 259.853695 189.23813 
L 260.257664 189.23813 
L 260.257664 188.721508 
L 260.954025 188.721508 
L 260.971091 187.688264 
L 261.283907 187.688264 
L 261.359177 186.65502 
L 261.44244 186.65502 
L 261.44244 186.138398 
L 261.796112 186.138398 
L 261.812393 184.07191 
L 262.592506 184.07191 
L 262.615858 183.038666 
L 262.916688 183.038666 
L 262.993015 178.90569 
L 263.325033 178.90569 
L 263.414523 176.322579 
L 263.833585 176.322579 
L 263.86988 175.289335 
L 264.035895 175.289335 
L 264.086117 174.256091 
L 264.622483 174.256091 
L 264.719554 172.706225 
L 264.774788 172.706225 
L 264.85732 169.606493 
L 265.06878 169.606493 
L 265.06878 169.089871 
L 265.845055 169.089871 
L 265.845055 168.056627 
L 266.083687 168.056627 
L 266.083687 167.540005 
L 266.38229 167.540005 
L 266.394887 166.506761 
L 266.756375 166.506761 
L 266.799512 164.440273 
L 267.007568 164.440273 
L 267.056172 163.407029 
L 267.594049 163.407029 
L 267.658693 160.307297 
L 267.914954 160.307297 
L 267.914954 159.790675 
L 268.178992 159.790675 
L 268.190384 158.757431 
L 268.478449 158.757431 
L 268.562297 156.690943 
L 268.795002 156.690943 
L 268.795002 156.174321 
L 269.342498 156.174321 
L 269.342498 155.657699 
L 269.565322 155.657699 
L 269.638983 154.107833 
L 269.811421 154.107833 
L 269.920294 152.041345 
L 270.033645 152.041345 
L 270.033645 151.524723 
L 270.589856 151.524723 
L 270.589856 151.008101 
L 270.841977 151.008101 
L 270.890998 148.941613 
L 271.012965 148.941613 
L 271.037259 147.908369 
L 271.129275 147.908369 
L 271.129275 146.875125 
L 271.340564 146.875125 
L 271.388238 145.325259 
L 271.539945 145.325259 
L 271.539945 144.808637 
L 271.862744 144.808637 
L 271.862744 143.775392 
L 272.010492 143.775392 
L 272.010492 143.25877 
L 272.270679 143.25877 
L 272.270679 142.742148 
L 284.094323 142.742148 
L 284.094323 142.225526 
L 284.771097 142.225526 
L 284.771097 141.708904 
L 285.362289 141.708904 
L 285.362289 141.192282 
L 285.55724 141.192282 
L 285.55724 140.67566 
L 285.671057 140.67566 
L 285.722359 139.642416 
L 285.860567 139.642416 
L 285.951413 138.609172 
L 286.409115 138.609172 
L 286.409115 138.09255 
L 286.572688 138.09255 
L 286.572688 137.575928 
L 286.756949 137.575928 
L 286.793172 136.026062 
L 286.903401 136.026062 
L 286.903401 135.50944 
L 293.500673 135.50944 
L 293.500673 134.476196 
L 294.058162 134.476196 
L 294.058162 133.959574 
L 294.204819 133.959574 
L 294.244609 132.92633 
L 294.493265 132.92633 
L 294.493265 132.409708 
L 299.743339 132.409708 
L 299.743339 131.893086 
L 300.028354 131.893086 
L 300.060913 130.859842 
L 300.245564 130.859842 
L 300.245564 129.309976 
L 303.93828 129.309976 
L 303.93828 128.793354 
L 304.049599 128.793354 
L 304.049599 128.276732 
L 304.36066 128.276732 
L 304.36066 127.76011 
L 307.843616 127.76011 
L 307.843616 127.243488 
L 310.41957 127.243488 
L 310.41957 126.726866 
L 310.637918 126.726866 
L 310.697631 125.693622 
L 313.068544 125.693622 
L 313.068544 125.177 
L 315.24094 125.177 
L 315.24094 124.660378 
L 317.177618 124.660378 
L 317.177618 124.143756 
L 318.76627 124.143756 
L 318.76627 123.627134 
L 318.92476 123.627134 
L 318.99453 122.59389 
L 320.51618 122.59389 
L 320.57516 121.560646 
L 323.242263 121.560646 
L 323.328068 120.527402 
L 333.131064 120.527402 
L 333.131064 120.01078 
L 333.839263 120.01078 
L 333.839263 119.494158 
L 335.184545 119.494158 
L 335.184545 118.460914 
L 343.60947 118.460914 
L 343.60947 117.944292 
L 344.400416 117.944292 
L 344.400416 117.42767 
L 358.8 117.42767 
L 358.8 117.42767 
" style="fill:none;stroke:#000080;stroke-linecap:square;stroke-width:1.5;"/>
   </g>
   <g id="line2d_43">
    <defs>
     <path d="M 0 6 
C 1.591219 6 3.117479 5.367802 4.242641 4.242641 
C 5.367802 3.117479 6 1.591219 6 0 
C 6 -1.591219 5.367802 -3.117479 4.242641 -4.242641 
C 3.117479 -5.367802 1.591219 -6 0 -6 
C -1.591219 -6 -3.117479 -5.367802 -4.242641 -4.242641 
C -5.367802 -3.117479 -6 -1.591219 -6 0 
C -6 1.591219 -5.367802 3.117479 -4.242641 4.242641 
C -3.117479 5.367802 -1.591219 6 0 6 
z
" id="m321c612941" style="stroke:#000080;stroke-width:1.5;"/>
    </defs>
    <g>
     <use style="fill:none;stroke:#000080;stroke-width:1.5;" x="358.8" xlink:href="#m321c612941" y="117.42767"/>
    </g>
   </g>
   <g id="line2d_44"/>
   <g id="line2d_45">
    <path clip-path="url(#pfa815d50e0)" d="M 276.514286 142.742148 
" style="fill:none;stroke:#000080;stroke-linecap:square;stroke-width:1.5;"/>
    <defs>
     <path d="M -12 12 
L 12 -12 
M -12 -12 
L 12 12 
" id="mb1762687ca" style="stroke:#000080;stroke-width:3;"/>
    </defs>
    <g clip-path="url(#pfa815d50e0)">
     <use style="fill:#000080;stroke:#000080;stroke-width:3;" x="276.514286" xlink:href="#mb1762687ca" y="142.742148"/>
    </g>
   </g>
   <g id="line2d_46">
    <defs>
     <path d="M 0 1.5 
C 0.397805 1.5 0.77937 1.341951 1.06066 1.06066 
C 1.341951 0.77937 1.5 0.397805 1.5 0 
C 1.5 -0.397805 1.341951 -0.77937 1.06066 -1.06066 
C 0.77937 -1.341951 0.397805 -1.5 0 -1.5 
C -0.397805 -1.5 -0.77937 -1.341951 -1.06066 -1.06066 
C -1.341951 -0.77937 -1.5 -0.397805 -1.5 0 
C -1.5 0.397805 -1.341951 0.77937 -1.06066 1.06066 
C -0.77937 1.341951 -0.397805 1.5 0 1.5 
z
" id="mcafa614fbb" style="stroke:#ff00ff;"/>
    </defs>
    <g>
     <use style="fill:#ff00ff;stroke:#ff00ff;" x="354.708819" xlink:href="#mcafa614fbb" y="34.768147"/>
     <use style="fill:#ff00ff;stroke:#ff00ff;" x="354.708819" xlink:href="#mcafa614fbb" y="34.768147"/>
    </g>
   </g>
   <g id="line2d_47">
    <path d="M 42.042377 298.245375 
L 42.042377 295.662265 
L 136.713325 295.662265 
L 136.713325 295.145643 
L 143.958223 295.145643 
L 143.958223 291.529289 
L 149.098559 291.529289 
L 149.098559 288.946179 
L 153.085714 288.946179 
L 153.085714 282.230093 
L 156.343457 282.230093 
L 156.343457 281.196849 
L 159.097839 281.196849 
L 159.097839 280.680226 
L 161.483794 280.680226 
L 161.483794 278.613738 
L 163.588354 278.613738 
L 163.588354 277.063872 
L 165.470948 277.063872 
L 165.470948 276.030628 
L 167.173962 276.030628 
L 167.173962 273.96414 
L 168.728691 273.96414 
L 168.728691 272.414274 
L 170.158903 272.414274 
L 170.158903 270.347786 
L 172.715846 270.347786 
L 172.715846 269.831164 
L 174.952275 269.831164 
L 174.952275 267.764676 
L 175.973589 267.764676 
L 175.973589 267.248054 
L 179.559196 267.248054 
L 179.559196 266.731432 
L 180.353465 266.731432 
L 180.353465 264.664944 
L 182.544138 264.664944 
L 182.544138 263.6317 
L 185.10108 263.6317 
L 185.10108 262.598456 
L 187.33751 262.598456 
L 187.33751 262.081834 
L 188.848391 262.081834 
L 188.848391 260.531968 
L 192.738699 260.531968 
L 192.738699 259.498724 
L 197.186003 259.498724 
L 197.186003 258.982102 
L 199.189327 258.982102 
L 199.189327 257.948858 
L 199.458026 257.948858 
L 199.458026 257.432236 
L 199.983597 257.432236 
L 199.983597 256.915614 
L 200.744057 256.915614 
L 200.744057 255.365748 
L 203.918885 255.365748 
L 203.918885 254.849126 
L 204.125455 254.849126 
L 204.125455 253.29926 
L 204.928651 253.29926 
L 204.928651 252.266016 
L 207.141966 252.266016 
L 207.141966 251.749394 
L 210.60096 251.749394 
L 210.60096 251.232772 
L 210.743337 251.232772 
L 210.743337 249.682906 
L 211.976109 249.682906 
L 211.976109 249.166284 
L 213.129291 249.166284 
L 213.129291 247.099796 
L 213.497719 247.099796 
L 213.497719 246.583173 
L 213.739183 246.583173 
L 213.739183 246.066551 
L 219.785538 246.066551 
L 219.785538 245.549929 
L 221.340268 245.549929 
L 221.340268 244.516685 
L 221.727878 244.516685 
L 221.727878 244.000063 
L 221.880598 244.000063 
L 221.880598 243.483441 
L 222.032023 243.483441 
L 222.032023 242.450197 
L 222.405066 242.450197 
L 222.405066 241.933575 
L 222.55213 241.933575 
L 222.55213 240.383709 
L 222.77048 240.383709 
L 222.77048 239.867087 
L 222.986194 239.867087 
L 222.986194 239.350465 
L 224.754065 239.350465 
L 224.754065 238.317221 
L 225.760986 238.317221 
L 225.760986 237.800599 
L 226.243937 237.800599 
L 226.243937 237.283977 
L 228.74122 237.283977 
L 228.74122 236.767355 
L 230.326135 236.767355 
L 230.326135 236.250733 
L 231.249758 236.250733 
L 231.339548 235.217489 
L 233.369315 235.217489 
L 233.369315 234.184245 
L 235.010444 234.184245 
L 235.010444 233.667623 
L 235.371429 233.667623 
L 235.478317 232.634379 
L 236.412584 232.634379 
L 236.412584 232.117757 
L 236.647033 232.117757 
L 236.746577 230.051269 
L 236.779636 230.051269 
L 236.812633 227.984781 
L 237.009349 227.984781 
L 237.041925 226.434915 
L 239.949086 226.434915 
L 239.949086 225.918293 
L 240.891858 225.918293 
L 240.891858 225.401671 
L 241.434532 225.401671 
L 241.510729 224.368427 
L 242.206655 224.368427 
L 242.206655 223.335183 
L 242.592486 223.335183 
L 242.592486 222.818561 
L 243.179148 222.818561 
L 243.179148 222.301939 
L 244.534621 222.301939 
L 244.534621 221.785317 
L 245.714531 221.785317 
L 245.814409 219.718829 
L 247.064437 219.718829 
L 247.064437 218.685585 
L 247.613143 218.685585 
L 247.613143 217.135719 
L 248.848317 217.135719 
L 248.848317 216.619097 
L 249.197867 216.619097 
L 249.197867 216.102475 
L 249.312881 216.102475 
L 249.312881 215.585853 
L 250.113558 215.585853 
L 250.113558 215.069231 
L 250.668609 215.069231 
L 250.668609 214.552609 
L 250.90987 214.552609 
L 250.90987 214.035987 
L 252.223338 214.035987 
L 252.223338 213.519365 
L 253.065945 213.519365 
L 253.065945 213.002743 
L 254.172604 213.002743 
L 254.172604 212.48612 
L 254.346444 212.48612 
L 254.346444 211.969498 
L 254.91798 211.969498 
L 254.97772 210.936254 
L 256.020226 210.936254 
L 256.020226 210.419632 
L 256.343589 210.419632 
L 256.343589 209.90301 
L 256.541393 209.90301 
L 256.541393 209.386388 
L 257.342788 209.386388 
L 257.342788 208.869766 
L 257.674072 208.869766 
L 257.674072 207.836522 
L 258.825972 207.836522 
L 258.825972 207.3199 
L 258.979183 207.3199 
L 259.074277 205.770034 
L 259.67118 205.770034 
L 259.716984 203.703546 
L 260.12402 203.703546 
L 260.141897 202.670302 
L 260.661381 202.670302 
L 260.661381 202.15368 
L 260.894165 202.15368 
L 260.954025 200.087192 
L 261.123956 200.087192 
L 261.123956 199.053948 
L 261.820528 199.053948 
L 261.820528 198.537326 
L 262.190781 198.537326 
L 262.238515 197.504082 
L 263.384743 197.504082 
L 263.421961 196.470838 
L 263.702308 196.470838 
L 263.702308 195.954216 
L 263.848112 195.954216 
L 263.848112 195.437594 
L 264.306845 195.437594 
L 264.306845 194.920972 
L 264.53187 194.920972 
L 264.53187 194.40435 
L 264.740287 194.40435 
L 264.809223 193.371106 
L 265.358012 193.371106 
L 265.358012 192.337862 
L 265.819065 192.337862 
L 265.819065 191.304618 
L 266.128478 191.304618 
L 266.173156 189.23813 
L 266.426339 189.23813 
L 266.438905 187.688264 
L 267.098593 187.688264 
L 267.098593 186.65502 
L 267.356989 186.65502 
L 267.386794 185.105154 
L 267.646957 185.105154 
L 267.723104 183.038666 
L 268.281258 183.038666 
L 268.281258 182.522044 
L 268.500847 182.522044 
L 268.59016 179.938934 
L 268.827999 179.938934 
L 268.827999 179.422312 
L 269.12767 179.422312 
L 269.12767 178.90569 
L 269.379829 178.90569 
L 269.448951 176.322579 
L 269.628478 176.322579 
L 269.6757 175.289335 
L 270.394629 175.289335 
L 270.394629 174.256091 
L 270.540001 174.256091 
L 270.540001 173.739469 
L 270.871405 173.739469 
L 270.871405 173.222847 
L 271.105106 173.222847 
L 271.182332 171.672981 
L 271.839548 171.672981 
L 271.950617 169.606493 
L 276.769752 169.606493 
L 276.769752 169.089871 
L 276.958982 169.089871 
L 276.958982 168.573249 
L 277.311041 168.573249 
L 277.372455 167.023383 
L 277.568922 167.023383 
L 277.568922 166.506761 
L 278.346779 166.506761 
L 278.372562 165.473517 
L 279.264583 165.473517 
L 279.264583 164.956895 
L 279.429268 164.956895 
L 279.447472 163.923651 
L 279.658504 163.923651 
L 279.658504 163.407029 
L 280.291513 163.407029 
L 280.291513 162.890407 
L 281.521007 162.890407 
L 281.591078 160.823919 
L 282.160216 160.823919 
L 282.22783 159.790675 
L 282.382891 159.790675 
L 282.382891 159.274053 
L 282.526411 159.274053 
L 282.526411 158.757431 
L 282.676382 158.757431 
L 282.676382 157.724187 
L 283.104067 157.724187 
L 283.136166 156.174321 
L 283.618065 156.174321 
L 283.618065 155.657699 
L 283.818645 155.657699 
L 283.818645 155.141077 
L 283.991148 155.141077 
L 283.991148 154.624455 
L 284.175972 154.624455 
L 284.175972 154.107833 
L 284.562773 154.107833 
L 284.562773 153.591211 
L 284.912365 153.591211 
L 284.912365 152.557967 
L 285.03257 152.557967 
L 285.076885 149.974857 
L 285.466528 149.974857 
L 285.568008 148.941613 
L 285.713819 148.941613 
L 285.805412 147.908369 
L 286.299918 147.908369 
L 286.299918 147.391747 
L 286.495177 147.391747 
L 286.495177 146.875125 
L 289.840943 146.875125 
L 289.852805 145.841881 
L 290.413105 145.841881 
L 290.431155 144.808637 
L 290.665772 144.808637 
L 290.665772 144.292014 
L 290.919703 144.292014 
L 290.919703 143.775392 
L 291.385923 143.775392 
L 291.385923 143.25877 
L 292.284861 143.25877 
L 292.284861 142.225526 
L 292.747477 142.225526 
L 292.747477 141.192282 
L 293.024796 141.192282 
L 293.024796 140.67566 
L 293.139322 140.67566 
L 293.139322 139.642416 
L 293.30486 139.642416 
L 293.373152 137.575928 
L 293.580601 137.575928 
L 293.688897 136.026062 
L 293.776152 136.026062 
L 293.856214 133.959574 
L 293.930527 133.959574 
L 293.930527 133.442952 
L 294.142304 133.442952 
L 294.142304 132.92633 
L 294.65325 132.92633 
L 294.721748 131.893086 
L 297.167583 131.893086 
L 297.167583 131.376464 
L 297.294249 131.376464 
L 297.3411 130.34322 
L 297.516257 130.34322 
L 297.516257 129.309976 
L 298.049868 129.309976 
L 298.106526 127.243488 
L 298.471011 127.243488 
L 298.471011 126.726866 
L 298.586716 126.726866 
L 298.634448 125.177 
L 298.75528 125.177 
L 298.75528 124.660378 
L 299.245627 124.660378 
L 299.245627 124.143756 
L 299.397196 124.143756 
L 299.40216 123.110512 
L 299.592726 123.110512 
L 299.651558 121.560646 
L 299.795853 121.560646 
L 299.795853 120.527402 
L 300.078126 120.527402 
L 300.078126 120.01078 
L 300.225668 120.01078 
L 300.273948 118.977536 
L 302.066978 118.977536 
L 302.068688 117.944292 
L 302.571169 117.944292 
L 302.67396 116.911048 
L 303.057479 116.911048 
L 303.057479 116.394426 
L 303.184047 116.394426 
L 303.277788 115.361182 
L 303.383755 115.361182 
L 303.466971 114.327938 
L 303.529327 114.327938 
L 303.530115 113.294694 
L 303.782037 113.294694 
L 303.782037 112.778072 
L 303.895102 112.778072 
L 303.99441 111.228206 
L 304.012825 111.228206 
L 304.06031 109.678339 
L 304.431969 109.678339 
L 304.431969 109.161717 
L 305.659347 109.161717 
L 305.659347 108.645095 
L 306.409226 108.645095 
L 306.409226 108.128473 
L 306.615927 108.128473 
L 306.615927 107.611851 
L 307.263664 107.611851 
L 307.263664 106.578607 
L 307.481621 106.578607 
L 307.550961 102.962253 
L 308.853097 102.962253 
L 308.853097 101.929009 
L 309.228734 101.929009 
L 309.228734 101.412387 
L 309.882727 101.412387 
L 309.882727 100.895765 
L 310.056912 100.895765 
L 310.148541 99.345899 
L 310.311543 99.345899 
L 310.393832 97.796033 
L 310.42707 97.796033 
L 310.448481 96.762789 
L 310.613023 96.762789 
L 310.71345 95.212923 
L 311.56163 95.212923 
L 311.56163 94.696301 
L 311.927801 94.696301 
L 311.927801 93.663057 
L 312.371845 93.663057 
L 312.449974 92.629813 
L 312.513471 92.629813 
L 312.513471 92.113191 
L 312.679497 92.113191 
L 312.680441 90.563325 
L 312.871576 90.563325 
L 312.945228 89.013459 
L 314.061447 89.013459 
L 314.06538 87.980215 
L 314.639359 87.980215 
L 314.750293 85.397105 
L 314.880173 85.397105 
L 314.985892 82.297373 
L 315.022788 82.297373 
L 315.086038 80.230885 
L 315.254844 80.230885 
L 315.254844 79.714263 
L 316.122155 79.714263 
L 316.122155 79.197641 
L 316.432537 79.197641 
L 316.507391 78.164397 
L 316.737995 78.164397 
L 316.737995 77.647775 
L 316.854246 77.647775 
L 316.927731 76.097908 
L 317.035729 76.097908 
L 317.035729 75.581286 
L 317.851912 75.581286 
L 317.851912 75.064664 
L 317.974855 75.064664 
L 317.974855 74.548042 
L 318.234849 74.548042 
L 318.234849 74.03142 
L 318.526549 74.03142 
L 318.526549 72.998176 
L 318.682109 72.998176 
L 318.78339 70.931688 
L 319.694552 70.931688 
L 319.694552 70.415066 
L 319.900298 70.415066 
L 319.900298 69.898444 
L 320.15225 69.898444 
L 320.260696 68.348578 
L 320.354051 68.348578 
L 320.398553 67.315334 
L 321.642296 67.315334 
L 321.74209 65.765468 
L 321.986918 65.765468 
L 321.986918 65.248846 
L 323.227617 65.248846 
L 323.256375 64.215602 
L 324.261746 64.215602 
L 324.340099 63.182358 
L 325.528925 63.182358 
L 325.615435 61.632492 
L 326.643348 61.632492 
L 326.670558 59.566004 
L 326.775555 59.566004 
L 326.801065 58.016138 
L 326.905726 58.016138 
L 326.905726 57.499516 
L 327.692735 57.499516 
L 327.758235 56.466272 
L 327.839472 56.466272 
L 327.940049 55.433028 
L 328.707786 55.433028 
L 328.794218 53.36654 
L 329.57221 53.36654 
L 329.622404 52.333296 
L 329.731463 52.333296 
L 329.734371 51.300052 
L 330.61818 51.300052 
L 330.61818 50.78343 
L 331.462965 50.78343 
L 331.465606 49.750186 
L 332.249247 49.750186 
L 332.249247 49.233564 
L 332.840559 49.233564 
L 332.840559 48.716942 
L 332.999051 48.716942 
L 333.038078 47.167076 
L 334.494992 47.167076 
L 334.494992 46.650454 
L 335.816296 46.650454 
L 335.816296 46.133832 
L 336.413717 46.133832 
L 336.413717 45.61721 
L 337.082528 45.61721 
L 337.082528 44.583966 
L 340.808799 44.583966 
L 340.869535 43.550722 
L 341.291289 43.550722 
L 341.346044 42.517478 
L 341.814428 42.517478 
L 341.814428 42.000855 
L 342.230244 42.000855 
L 342.274993 40.967611 
L 342.64896 40.967611 
L 342.64896 40.450989 
L 343.073348 40.450989 
L 343.073348 39.934367 
L 343.586459 39.934367 
L 343.586459 39.417745 
L 346.616815 39.417745 
L 346.616815 38.901123 
L 347.309887 38.901123 
L 347.309887 37.867879 
L 347.966201 37.867879 
L 347.966201 37.351257 
L 348.301683 37.351257 
L 348.301683 36.834635 
L 349.266067 36.834635 
L 349.266067 36.318013 
L 351.006414 36.318013 
L 351.006414 35.801391 
L 352.822969 35.801391 
L 352.822969 35.284769 
L 354.708819 35.284769 
L 354.708819 34.768147 
L 358.8 34.768147 
L 358.8 34.768147 
" style="fill:none;stroke:#ff00ff;stroke-linecap:square;stroke-width:1.5;"/>
   </g>
   <g id="line2d_48">
    <defs>
     <path d="M -0 8.485281 
L 5.091169 0 
L 0 -8.485281 
L -5.091169 -0 
z
" id="m520f4ebda6" style="stroke:#ff00ff;stroke-linejoin:miter;stroke-width:1.5;"/>
    </defs>
    <g>
     <use style="fill:none;stroke:#ff00ff;stroke-linejoin:miter;stroke-width:1.5;" x="358.8" xlink:href="#m520f4ebda6" y="34.768147"/>
    </g>
   </g>
   <g id="line2d_49"/>
   <g id="line2d_50">
    <path clip-path="url(#pfa815d50e0)" d="M 276.514286 169.606493 
" style="fill:none;stroke:#ff00ff;stroke-linecap:square;stroke-width:1.5;"/>
    <defs>
     <path d="M -12 12 
L 12 -12 
M -12 -12 
L 12 12 
" id="m56ee74ac5a" style="stroke:#ff00ff;stroke-width:3;"/>
    </defs>
    <g clip-path="url(#pfa815d50e0)">
     <use style="fill:#ff00ff;stroke:#ff00ff;stroke-width:3;" x="276.514286" xlink:href="#m56ee74ac5a" y="169.606493"/>
    </g>
   </g>
   <g id="line2d_51">
    <defs>
     <path d="M 0 1.5 
C 0.397805 1.5 0.77937 1.341951 1.06066 1.06066 
C 1.341951 0.77937 1.5 0.397805 1.5 0 
C 1.5 -0.397805 1.341951 -0.77937 1.06066 -1.06066 
C 0.77937 -1.341951 0.397805 -1.5 0 -1.5 
C -0.397805 -1.5 -0.77937 -1.341951 -1.06066 -1.06066 
C -1.341951 -0.77937 -1.5 -0.397805 -1.5 0 
C -1.5 0.397805 -1.341951 0.77937 -1.06066 1.06066 
C -0.77937 1.341951 -0.397805 1.5 0 1.5 
z
" id="m41b1acb9a5" style="stroke:#ffa500;"/>
    </defs>
    <g>
     <use style="fill:#ffa500;stroke:#ffa500;" x="250.834825" xlink:href="#m41b1acb9a5" y="34.768147"/>
     <use style="fill:#ffa500;stroke:#ffa500;" x="250.834825" xlink:href="#m41b1acb9a5" y="34.768147"/>
    </g>
   </g>
   <g id="line2d_52">
    <path d="M 42.042377 298.245375 
L 42.042377 284.813203 
L 136.713325 284.813203 
L 136.713325 279.646982 
L 143.958223 279.646982 
L 143.958223 277.063872 
L 149.098559 277.063872 
L 149.098559 271.897652 
L 153.085714 271.897652 
L 153.085714 271.38103 
L 156.343457 271.38103 
L 156.343457 270.347786 
L 159.097839 270.347786 
L 159.097839 269.831164 
L 161.483794 269.831164 
L 161.483794 268.79792 
L 163.588354 268.79792 
L 163.588354 265.181566 
L 165.470948 265.181566 
L 165.470948 264.664944 
L 167.173962 264.664944 
L 167.173962 263.6317 
L 168.728691 263.6317 
L 168.728691 262.598456 
L 170.158903 262.598456 
L 170.158903 261.565212 
L 171.483073 261.565212 
L 171.483073 260.531968 
L 173.869028 260.531968 
L 173.869028 260.015346 
L 174.952275 260.015346 
L 174.952275 258.982102 
L 175.973589 258.982102 
L 175.973589 257.948858 
L 176.939668 257.948858 
L 176.939668 257.432236 
L 177.856183 257.432236 
L 177.856183 256.915614 
L 178.727971 256.915614 
L 178.727971 255.365748 
L 179.559196 255.365748 
L 179.559196 253.815882 
L 180.353465 253.815882 
L 180.353465 253.29926 
L 181.113925 253.29926 
L 181.113925 252.782638 
L 183.868307 252.782638 
L 183.868307 250.71615 
L 184.495323 250.71615 
L 184.495323 250.199528 
L 187.33751 250.199528 
L 187.33751 248.649662 
L 189.324902 248.649662 
L 189.324902 248.13304 
L 190.241417 248.13304 
L 190.241417 247.616418 
L 191.113205 247.616418 
L 191.113205 247.099796 
L 192.738699 247.099796 
L 192.738699 246.583173 
L 193.867587 246.583173 
L 193.867587 245.033307 
L 194.228571 245.033307 
L 194.228571 244.000063 
L 194.582407 244.000063 
L 194.582407 243.483441 
L 194.929372 243.483441 
L 194.929372 242.450197 
L 195.269727 242.450197 
L 195.269727 240.383709 
L 196.253542 240.383709 
L 196.253542 239.867087 
L 196.880557 239.867087 
L 196.880557 239.350465 
L 197.186003 239.350465 
L 197.186003 238.833843 
L 198.072206 238.833843 
L 198.072206 238.317221 
L 198.358102 238.317221 
L 198.358102 237.800599 
L 200.494149 237.800599 
L 200.494149 237.283977 
L 200.744057 237.283977 
L 200.744057 236.767355 
L 201.473469 236.767355 
L 201.473469 235.734111 
L 201.94371 235.734111 
L 201.94371 234.700867 
L 203.284447 234.700867 
L 203.284447 233.667623 
L 203.498439 233.667623 
L 203.498439 233.151001 
L 204.329664 233.151001 
L 204.329664 231.084513 
L 204.731212 231.084513 
L 204.731212 230.051269 
L 205.317104 230.051269 
L 205.317104 229.534647 
L 206.252821 229.534647 
L 206.252821 228.501403 
L 208.316819 228.501403 
L 208.316819 227.984781 
L 214.09537 227.984781 
L 214.09537 227.468159 
L 214.212539 227.468159 
L 214.212539 225.918293 
L 214.328944 225.918293 
L 214.328944 223.335183 
L 214.444595 223.335183 
L 214.444595 220.752073 
L 214.559503 220.752073 
L 214.559503 219.202207 
L 214.787126 219.202207 
L 214.787126 218.685585 
L 215.989716 218.685585 
L 216.095133 214.552609 
L 216.613085 214.552609 
L 216.613085 214.035987 
L 216.816134 214.035987 
L 216.816134 213.519365 
L 217.116446 213.519365 
L 217.116446 212.48612 
L 217.313885 212.48612 
L 217.313885 211.969498 
L 217.798146 211.969498 
L 217.893443 208.353144 
L 217.988234 208.353144 
L 217.988234 207.836522 
L 218.176321 207.836522 
L 218.269628 205.253412 
L 218.454791 205.253412 
L 218.546658 198.020704 
L 218.638055 198.020704 
L 218.728987 196.470838 
L 218.819459 196.470838 
L 218.909475 193.887728 
L 219.785538 193.887728 
L 219.785538 192.854484 
L 222.405066 192.854484 
L 222.405066 192.337862 
L 222.697993 192.337862 
L 222.697993 191.82124 
L 222.986194 191.82124 
L 222.986194 191.304618 
L 226.184277 191.304618 
L 226.184277 190.787996 
L 226.539285 190.787996 
L 226.539285 190.271374 
L 226.65607 190.271374 
L 226.714178 188.204886 
L 226.772097 188.204886 
L 226.772097 187.171642 
L 227.001915 187.171642 
L 227.001915 185.621776 
L 227.228815 185.621776 
L 227.285093 184.07191 
L 227.341194 184.07191 
L 227.341194 183.038666 
L 227.45287 183.038666 
L 227.45287 182.005422 
L 227.78377 182.005422 
L 227.78377 180.455556 
L 228.322007 180.455556 
L 228.322007 179.422312 
L 228.480367 179.422312 
L 228.532843 176.839201 
L 228.637335 176.839201 
L 228.74122 174.256091 
L 228.792936 174.256091 
L 228.895923 171.156359 
L 228.947195 171.156359 
L 228.998319 170.123115 
L 229.100132 170.123115 
L 229.100132 169.606493 
L 229.451977 169.606493 
L 229.451977 168.056627 
L 229.600672 168.056627 
L 229.649964 166.506761 
L 229.748141 166.506761 
L 229.845781 165.473517 
L 229.894402 165.473517 
L 229.991248 163.407029 
L 230.18338 163.407029 
L 230.18338 162.890407 
L 230.373468 162.890407 
L 230.420676 160.307297 
L 230.654862 160.307297 
L 230.654862 158.757431 
L 230.977649 158.757431 
L 231.068813 156.174321 
L 231.249758 156.174321 
L 231.249758 155.141077 
L 231.384274 155.141077 
L 231.384274 154.107833 
L 231.694261 154.107833 
L 231.694261 153.591211 
L 232.467522 153.591211 
L 232.467522 153.074589 
L 232.634906 153.074589 
L 232.634906 152.041345 
L 233.248991 152.041345 
L 233.329297 149.974857 
L 233.568073 149.974857 
L 233.646961 144.808637 
L 233.725502 144.808637 
L 233.764643 143.775392 
L 233.84267 143.775392 
L 233.920358 141.192282 
L 234.52999 141.192282 
L 234.604752 139.125794 
L 234.753345 139.125794 
L 234.863983 137.059306 
L 234.937364 137.059306 
L 234.973941 134.992818 
L 235.119507 134.992818 
L 235.119507 134.476196 
L 235.335657 134.476196 
L 235.371429 132.92633 
L 236.34503 132.92633 
L 236.378839 131.893086 
L 236.84557 131.893086 
L 236.944017 129.309976 
L 237.203922 129.309976 
L 237.236145 127.243488 
L 238.084923 127.243488 
L 238.084923 126.726866 
L 238.237773 126.726866 
L 238.32886 125.177 
L 238.419484 125.177 
L 238.509652 122.077268 
L 238.569511 122.077268 
L 238.629171 121.044024 
L 238.924519 121.044024 
L 238.924519 120.01078 
L 239.529299 120.01078 
L 239.585844 117.944292 
L 239.698399 117.944292 
L 239.754412 115.361182 
L 239.893681 115.361182 
L 240.00432 112.778072 
L 240.031873 112.778072 
L 240.059384 111.228206 
L 240.250781 111.228206 
L 240.277957 110.194961 
L 240.574194 110.194961 
L 240.574194 109.678339 
L 240.760184 109.678339 
L 240.760184 109.161717 
L 240.996503 109.161717 
L 241.074587 107.611851 
L 241.126454 107.611851 
L 241.229738 105.028741 
L 241.255466 105.028741 
L 241.358009 99.862521 
L 241.383553 99.862521 
L 241.383553 96.762789 
L 241.86208 96.762789 
L 241.86208 96.246167 
L 242.035198 96.246167 
L 242.035198 95.729545 
L 242.303896 95.729545 
L 242.376482 93.663057 
L 243.294204 93.663057 
L 243.294204 93.146435 
L 243.476766 93.146435 
L 243.544749 91.079947 
L 243.612474 91.079947 
L 243.612474 90.563325 
L 243.814122 90.563325 
L 243.814122 90.046703 
L 244.448819 90.046703 
L 244.448819 89.530081 
L 244.577367 89.530081 
L 244.683789 86.946971 
L 244.894749 86.946971 
L 244.999302 84.363861 
L 245.02014 84.363861 
L 245.123964 82.813995 
L 245.370708 82.813995 
L 245.370708 82.297373 
L 245.654335 82.297373 
L 245.754549 80.230885 
L 245.794478 80.230885 
L 245.874069 79.197641 
L 245.973061 79.197641 
L 246.071509 77.131153 
L 246.169416 77.131153 
L 246.169416 76.097908 
L 246.498346 76.097908 
L 246.593949 74.548042 
L 246.632047 74.548042 
L 246.708001 72.481554 
L 246.745857 72.481554 
L 246.840148 66.798712 
L 247.175535 66.798712 
L 247.175535 65.765468 
L 247.377436 65.765468 
L 247.450293 62.149114 
L 247.504741 62.149114 
L 247.595122 58.53276 
L 247.649131 58.53276 
L 247.738786 54.399784 
L 247.792363 54.399784 
L 247.899039 49.750186 
L 248.057868 49.750186 
L 248.057868 48.716942 
L 248.215297 48.716942 
L 248.302162 44.067344 
L 248.474636 44.067344 
L 248.560252 41.484233 
L 248.915427 41.484233 
L 248.915427 40.450989 
L 249.082109 40.450989 
L 249.082109 38.901123 
L 249.443425 38.901123 
L 249.443425 38.384501 
L 250.097891 38.384501 
L 250.14485 36.834635 
L 250.300497 36.834635 
L 250.300497 35.801391 
L 250.607781 35.801391 
L 250.607781 35.284769 
L 250.834825 35.284769 
L 250.834825 34.768147 
L 358.8 34.768147 
L 358.8 34.768147 
" style="fill:none;stroke:#ffa500;stroke-linecap:square;stroke-width:1.5;"/>
   </g>
   <g id="line2d_53">
    <defs>
     <path d="M 0 -6 
L -1.347084 -1.854102 
L -5.706339 -1.854102 
L -2.179628 0.708204 
L -3.526712 4.854102 
L -0 2.291796 
L 3.526712 4.854102 
L 2.179628 0.708204 
L 5.706339 -1.854102 
L 1.347084 -1.854102 
z
" id="m01e69ae673" style="stroke:#ffa500;stroke-linejoin:bevel;stroke-width:1.5;"/>
    </defs>
    <g>
     <use style="fill:none;stroke:#ffa500;stroke-linejoin:bevel;stroke-width:1.5;" x="358.8" xlink:href="#m01e69ae673" y="34.768147"/>
    </g>
   </g>
   <g id="line2d_54"/>
   <g id="line2d_55">
    <defs>
     <path d="M 0 1.5 
C 0.397805 1.5 0.77937 1.341951 1.06066 1.06066 
C 1.341951 0.77937 1.5 0.397805 1.5 0 
C 1.5 -0.397805 1.341951 -0.77937 1.06066 -1.06066 
C 0.77937 -1.341951 0.397805 -1.5 0 -1.5 
C -0.397805 -1.5 -0.77937 -1.341951 -1.06066 -1.06066 
C -1.341951 -0.77937 -1.5 -0.397805 -1.5 0 
C -1.5 0.397805 -1.341951 0.77937 -1.06066 1.06066 
C -0.77937 1.341951 -0.397805 1.5 0 1.5 
z
" id="medfc534b99" style="stroke:#6495ed;"/>
    </defs>
    <g>
     <use style="fill:#6495ed;stroke:#6495ed;" x="290.578151" xlink:href="#medfc534b99" y="34.768147"/>
     <use style="fill:#6495ed;stroke:#6495ed;" x="290.578151" xlink:href="#medfc534b99" y="34.768147"/>
    </g>
   </g>
   <g id="line2d_56">
    <path d="M 42.042377 298.245375 
L 42.042377 270.864408 
L 136.713325 270.864408 
L 136.713325 265.698188 
L 143.958223 265.698188 
L 143.958223 263.6317 
L 149.098559 263.6317 
L 149.098559 262.598456 
L 153.085714 262.598456 
L 153.085714 261.565212 
L 156.343457 261.565212 
L 156.343457 259.498724 
L 159.097839 259.498724 
L 159.097839 255.365748 
L 161.483794 255.365748 
L 161.483794 253.29926 
L 163.588354 253.29926 
L 163.588354 252.266016 
L 165.470948 252.266016 
L 165.470948 251.749394 
L 167.173962 251.749394 
L 167.173962 251.232772 
L 170.158903 251.232772 
L 170.158903 250.199528 
L 171.483073 250.199528 
L 171.483073 249.682906 
L 173.869028 249.682906 
L 173.869028 249.166284 
L 180.353465 249.166284 
L 180.353465 248.649662 
L 188.358823 248.649662 
L 188.358823 247.616418 
L 189.324902 247.616418 
L 189.324902 247.099796 
L 190.682627 247.099796 
L 190.682627 245.549929 
L 191.113205 245.549929 
L 191.113205 244.516685 
L 194.929372 244.516685 
L 194.929372 244.000063 
L 195.269727 244.000063 
L 195.269727 242.450197 
L 204.125455 242.450197 
L 204.125455 241.416953 
L 206.252821 241.416953 
L 206.252821 240.383709 
L 206.967641 240.383709 
L 206.967641 239.867087 
L 208.638776 239.867087 
L 208.638776 239.350465 
L 208.955034 239.350465 
L 208.955034 238.317221 
L 209.419167 238.317221 
L 209.419167 236.250733 
L 209.722023 236.250733 
L 209.722023 235.734111 
L 210.019832 235.734111 
L 210.019832 231.601135 
L 210.166896 231.601135 
L 210.166896 230.567891 
L 211.438682 230.567891 
L 211.438682 230.051269 
L 211.709416 230.051269 
L 211.709416 228.501403 
L 211.84326 228.501403 
L 211.84326 227.984781 
L 211.976109 227.984781 
L 211.976109 227.468159 
L 212.107978 227.468159 
L 212.107978 225.918293 
L 212.497843 225.918293 
L 212.497843 225.401671 
L 212.62593 225.401671 
L 212.62593 224.885049 
L 212.753106 224.885049 
L 212.753106 223.851805 
L 213.004774 223.851805 
L 213.004774 222.818561 
L 213.129291 222.818561 
L 213.129291 221.785317 
L 213.252946 221.785317 
L 213.252946 221.268695 
L 213.497719 221.268695 
L 213.497719 220.752073 
L 213.618859 220.752073 
L 213.618859 213.002743 
L 213.739183 213.002743 
L 213.739183 211.452876 
L 216.714898 211.452876 
L 216.714898 209.90301 
L 218.176321 209.90301 
L 218.176321 209.386388 
L 218.546658 209.386388 
L 218.546658 208.869766 
L 221.804401 208.869766 
L 221.804401 208.353144 
L 222.182176 208.353144 
L 222.182176 207.836522 
L 222.331078 207.836522 
L 222.331078 205.253412 
L 222.62521 205.253412 
L 222.62521 204.73679 
L 222.986194 204.73679 
L 222.986194 198.537326 
L 223.128571 198.537326 
L 223.128571 197.504082 
L 224.818687 197.504082 
L 224.818687 189.23813 
L 225.074866 189.23813 
L 225.13834 187.688264 
L 225.57646 187.688264 
L 225.57646 187.171642 
L 225.699689 187.171642 
L 225.760986 178.90569 
L 225.943626 178.90569 
L 226.004093 168.056627 
L 226.064357 168.056627 
L 226.124418 159.790675 
L 226.184277 159.790675 
L 226.243937 155.141077 
L 229.150822 155.141077 
L 229.201368 152.557967 
L 230.326135 152.557967 
L 230.326135 142.225526 
L 230.608269 142.225526 
L 230.608269 141.708904 
L 230.747683 141.708904 
L 230.793914 138.609172 
L 231.114222 138.609172 
L 231.204693 133.442952 
L 231.249758 133.442952 
L 231.249758 132.92633 
L 231.428888 132.92633 
L 231.517785 117.944292 
L 231.606241 117.944292 
L 231.606241 116.911048 
L 232.800736 116.911048 
L 232.883078 115.361182 
L 232.924107 115.361182 
L 232.965042 114.327938 
L 233.046632 114.327938 
L 233.046632 113.294694 
L 233.449084 113.294694 
L 233.449084 112.778072 
L 235.442758 112.778072 
L 235.442758 102.962253 
L 235.760265 102.962253 
L 235.760265 101.929009 
L 237.041925 101.929009 
L 237.139299 96.762789 
L 237.17164 96.762789 
L 237.17164 95.729545 
L 237.33247 95.729545 
L 237.33247 93.663057 
L 241.409061 93.663057 
L 241.409061 93.146435 
L 244.470308 93.146435 
L 244.470308 92.629813 
L 244.620012 92.629813 
L 244.662555 82.297373 
L 244.78958 82.297373 
L 244.78958 79.197641 
L 246.971325 79.197641 
L 246.971325 72.481554 
L 247.083001 72.481554 
L 247.083001 71.964932 
L 247.48661 71.964932 
L 247.577082 60.599248 
L 247.631146 60.599248 
L 247.631146 60.082626 
L 276.941545 60.082626 
L 277.035505 56.982894 
L 277.338362 56.982894 
L 277.386074 54.916406 
L 277.477732 54.916406 
L 277.55207 51.300052 
L 277.813167 51.300052 
L 277.899358 46.650454 
L 278.00816 46.650454 
L 278.00816 46.133832 
L 278.369342 46.133832 
L 278.40474 45.100588 
L 279.286017 45.100588 
L 279.292136 43.550722 
L 279.643513 43.550722 
L 279.733272 38.384501 
L 289.16203 38.384501 
L 289.16203 37.867879 
L 289.321544 37.867879 
L 289.387736 36.834635 
L 289.590009 36.834635 
L 289.590009 36.318013 
L 290.277977 36.318013 
L 290.277977 35.801391 
L 290.532548 35.801391 
L 290.578151 34.768147 
L 358.8 34.768147 
L 358.8 34.768147 
" style="fill:none;stroke:#6495ed;stroke-linecap:square;stroke-width:1.5;"/>
   </g>
   <g id="line2d_57">
    <defs>
     <path d="M -0 6 
L 6 -6 
L -6 -6 
z
" id="m48d36484c1" style="stroke:#6495ed;stroke-linejoin:miter;stroke-width:1.5;"/>
    </defs>
    <g>
     <use style="fill:none;stroke:#6495ed;stroke-linejoin:miter;stroke-width:1.5;" x="358.8" xlink:href="#m48d36484c1" y="34.768147"/>
    </g>
   </g>
   <g id="line2d_58"/>
   <g id="line2d_59">
    <path clip-path="url(#pfa815d50e0)" d="M 276.514286 60.082626 
" style="fill:none;stroke:#6495ed;stroke-linecap:square;stroke-width:1.5;"/>
    <defs>
     <path d="M -12 12 
L 12 -12 
M -12 -12 
L 12 12 
" id="m767cd6e4b9" style="stroke:#6495ed;stroke-width:3;"/>
    </defs>
    <g clip-path="url(#pfa815d50e0)">
     <use style="fill:#6495ed;stroke:#6495ed;stroke-width:3;" x="276.514286" xlink:href="#m767cd6e4b9" y="60.082626"/>
    </g>
   </g>
   <g id="line2d_60">
    <path d="M 358.8 117.42767 
L 390.48 292.97583 
" style="fill:none;stroke:#000080;stroke-linecap:square;stroke-width:1.5;"/>
    <g>
     <use style="fill:none;stroke:#000080;stroke-width:1.5;" x="358.8" xlink:href="#m321c612941" y="117.42767"/>
     <use style="fill:none;stroke:#000080;stroke-width:1.5;" x="390.48" xlink:href="#m321c612941" y="292.97583"/>
    </g>
   </g>
   <g id="line2d_61">
    <path d="M 358.8 34.768147 
L 390.48 208.663118 
" style="fill:none;stroke:#ff00ff;stroke-linecap:square;stroke-width:1.5;"/>
    <g>
     <use style="fill:none;stroke:#ff00ff;stroke-linejoin:miter;stroke-width:1.5;" x="358.8" xlink:href="#m520f4ebda6" y="34.768147"/>
     <use style="fill:none;stroke:#ff00ff;stroke-linejoin:miter;stroke-width:1.5;" x="390.48" xlink:href="#m520f4ebda6" y="208.663118"/>
    </g>
   </g>
   <g id="line2d_62">
    <path d="M 358.8 34.768147 
L 390.48 124.350405 
" style="fill:none;stroke:#6495ed;stroke-linecap:square;stroke-width:1.5;"/>
    <g>
     <use style="fill:none;stroke:#6495ed;stroke-linejoin:miter;stroke-width:1.5;" x="358.8" xlink:href="#m48d36484c1" y="34.768147"/>
     <use style="fill:none;stroke:#6495ed;stroke-linejoin:miter;stroke-width:1.5;" x="390.48" xlink:href="#m48d36484c1" y="124.350405"/>
    </g>
   </g>
   <g id="line2d_63">
    <path d="M 358.8 34.768147 
L 390.48 40.037692 
" style="fill:none;stroke:#ffa500;stroke-linecap:square;stroke-width:1.5;"/>
    <g>
     <use style="fill:none;stroke:#ffa500;stroke-linejoin:bevel;stroke-width:1.5;" x="358.8" xlink:href="#m01e69ae673" y="34.768147"/>
     <use style="fill:none;stroke:#ffa500;stroke-linejoin:bevel;stroke-width:1.5;" x="390.48" xlink:href="#m01e69ae673" y="40.037692"/>
    </g>
   </g>
   <g id="line2d_64">
    <path d="M 358.8 298.245375 
L 358.8 34.768147 
" style="fill:none;stroke:#000000;stroke-linecap:square;stroke-width:1.5;"/>
   </g>
   <g id="patch_3">
    <path d="M 70.8 298.245375 
L 70.8 32.133375 
" style="fill:none;stroke:#000000;stroke-linecap:square;stroke-linejoin:miter;stroke-width:0.8;"/>
   </g>
   <g id="patch_4">
    <path d="M 427.92 298.245375 
L 427.92 32.133375 
" style="fill:none;stroke:#000000;stroke-linecap:square;stroke-linejoin:miter;stroke-width:0.8;"/>
   </g>
   <g id="patch_5">
    <path d="M 70.8 298.245375 
L 427.92 298.245375 
" style="fill:none;stroke:#000000;stroke-linecap:square;stroke-linejoin:miter;stroke-width:0.8;"/>
   </g>
   <g id="patch_6">
    <path d="M 70.8 32.133375 
L 427.92 32.133375 
" style="fill:none;stroke:#000000;stroke-linecap:square;stroke-linejoin:miter;stroke-width:0.8;"/>
   </g>
   <g id="text_14">
    <!-- f8 -->
    <g transform="translate(396.24 297.114893)scale(0.15 -0.15)">
     <use xlink:href="#DejaVuSans-66"/>
     <use x="35.205078" xlink:href="#DejaVuSans-38"/>
    </g>
   </g>
   <g id="text_15">
    <!-- f9 -->
    <defs>
     <path d="M 10.984375 1.515625 
L 10.984375 10.5 
Q 14.703125 8.734375 18.5 7.8125 
Q 22.3125 6.890625 25.984375 6.890625 
Q 35.75 6.890625 40.890625 13.453125 
Q 46.046875 20.015625 46.78125 33.40625 
Q 43.953125 29.203125 39.59375 26.953125 
Q 35.25 24.703125 29.984375 24.703125 
Q 19.046875 24.703125 12.671875 31.3125 
Q 6.296875 37.9375 6.296875 49.421875 
Q 6.296875 60.640625 12.9375 67.421875 
Q 19.578125 74.21875 30.609375 74.21875 
Q 43.265625 74.21875 49.921875 64.515625 
Q 56.59375 54.828125 56.59375 36.375 
Q 56.59375 19.140625 48.40625 8.859375 
Q 40.234375 -1.421875 26.421875 -1.421875 
Q 22.703125 -1.421875 18.890625 -0.6875 
Q 15.09375 0.046875 10.984375 1.515625 
M 30.609375 32.421875 
Q 37.25 32.421875 41.125 36.953125 
Q 45.015625 41.5 45.015625 49.421875 
Q 45.015625 57.28125 41.125 61.84375 
Q 37.25 66.40625 30.609375 66.40625 
Q 23.96875 66.40625 20.09375 61.84375 
Q 16.21875 57.28125 16.21875 49.421875 
Q 16.21875 41.5 20.09375 36.953125 
Q 23.96875 32.421875 30.609375 32.421875 
" id="DejaVuSans-39"/>
    </defs>
    <g transform="translate(396.24 212.80218)scale(0.15 -0.15)">
     <use xlink:href="#DejaVuSans-66"/>
     <use x="35.205078" xlink:href="#DejaVuSans-39"/>
    </g>
   </g>
   <g id="text_16">
    <!-- f7 -->
    <defs>
     <path d="M 8.203125 72.90625 
L 55.078125 72.90625 
L 55.078125 68.703125 
L 28.609375 0 
L 18.3125 0 
L 43.21875 64.59375 
L 8.203125 64.59375 
z
" id="DejaVuSans-37"/>
    </defs>
    <g transform="translate(396.24 128.489467)scale(0.15 -0.15)">
     <use xlink:href="#DejaVuSans-66"/>
     <use x="35.205078" xlink:href="#DejaVuSans-37"/>
    </g>
   </g>
   <g id="text_17">
    <!-- f6 -->
    <g transform="translate(396.24 44.176754)scale(0.15 -0.15)">
     <use xlink:href="#DejaVuSans-66"/>
     <use x="35.205078" xlink:href="#DejaVuSans-36"/>
    </g>
   </g>
   <g id="text_18">
    <!-- bbob -->
    <defs>
     <path d="M 48.6875 27.296875 
Q 48.6875 37.203125 44.609375 42.84375 
Q 40.53125 48.484375 33.40625 48.484375 
Q 26.265625 48.484375 22.1875 42.84375 
Q 18.109375 37.203125 18.109375 27.296875 
Q 18.109375 17.390625 22.1875 11.75 
Q 26.265625 6.109375 33.40625 6.109375 
Q 40.53125 6.109375 44.609375 11.75 
Q 48.6875 17.390625 48.6875 27.296875 
M 18.109375 46.390625 
Q 20.953125 51.265625 25.265625 53.625 
Q 29.59375 56 35.59375 56 
Q 45.5625 56 51.78125 48.09375 
Q 58.015625 40.1875 58.015625 27.296875 
Q 58.015625 14.40625 51.78125 6.484375 
Q 45.5625 -1.421875 35.59375 -1.421875 
Q 29.59375 -1.421875 25.265625 0.953125 
Q 20.953125 3.328125 18.109375 8.203125 
L 18.109375 0 
L 9.078125 0 
L 9.078125 75.984375 
L 18.109375 75.984375 
z
" id="DejaVuSans-62"/>
    </defs>
    <g transform="translate(74.3712 50.114612)scale(0.1666 -0.1666)">
     <use xlink:href="#DejaVuSans-62"/>
     <use x="63.476562" xlink:href="#DejaVuSans-62"/>
     <use x="126.953125" xlink:href="#DejaVuSans-6f"/>
     <use x="188.134766" xlink:href="#DejaVuSans-62"/>
    </g>
    <!-- Misc. moderate functions, 5-D -->
    <defs>
     <path d="M 9.8125 72.90625 
L 24.515625 72.90625 
L 43.109375 23.296875 
L 61.8125 72.90625 
L 76.515625 72.90625 
L 76.515625 0 
L 66.890625 0 
L 66.890625 64.015625 
L 48.09375 14.015625 
L 38.1875 14.015625 
L 19.390625 64.015625 
L 19.390625 0 
L 9.8125 0 
z
" id="DejaVuSans-4d"/>
     <path d="M 11.71875 12.40625 
L 22.015625 12.40625 
L 22.015625 4 
L 14.015625 -11.625 
L 7.71875 -11.625 
L 11.71875 4 
z
" id="DejaVuSans-2c"/>
     <path d="M 10.796875 72.90625 
L 49.515625 72.90625 
L 49.515625 64.59375 
L 19.828125 64.59375 
L 19.828125 46.734375 
Q 21.96875 47.46875 24.109375 47.828125 
Q 26.265625 48.1875 28.421875 48.1875 
Q 40.625 48.1875 47.75 41.5 
Q 54.890625 34.8125 54.890625 23.390625 
Q 54.890625 11.625 47.5625 5.09375 
Q 40.234375 -1.421875 26.90625 -1.421875 
Q 22.3125 -1.421875 17.546875 -0.640625 
Q 12.796875 0.140625 7.71875 1.703125 
L 7.71875 11.625 
Q 12.109375 9.234375 16.796875 8.0625 
Q 21.484375 6.890625 26.703125 6.890625 
Q 35.15625 6.890625 40.078125 11.328125 
Q 45.015625 15.765625 45.015625 23.390625 
Q 45.015625 31 40.078125 35.4375 
Q 35.15625 39.890625 26.703125 39.890625 
Q 22.75 39.890625 18.8125 39.015625 
Q 14.890625 38.140625 10.796875 36.28125 
z
" id="DejaVuSans-35"/>
     <path d="M 19.671875 64.796875 
L 19.671875 8.109375 
L 31.59375 8.109375 
Q 46.6875 8.109375 53.6875 14.9375 
Q 60.6875 21.78125 60.6875 36.53125 
Q 60.6875 51.171875 53.6875 57.984375 
Q 46.6875 64.796875 31.59375 64.796875 
z
M 9.8125 72.90625 
L 30.078125 72.90625 
Q 51.265625 72.90625 61.171875 64.09375 
Q 71.09375 55.28125 71.09375 36.53125 
Q 71.09375 17.671875 61.125 8.828125 
Q 51.171875 0 30.078125 0 
L 9.8125 0 
z
" id="DejaVuSans-44"/>
    </defs>
    <g transform="translate(74.3712 68.770168)scale(0.1666 -0.1666)">
     <use xlink:href="#DejaVuSans-4d"/>
     <use x="86.279297" xlink:href="#DejaVuSans-69"/>
     <use x="114.0625" xlink:href="#DejaVuSans-73"/>
     <use x="166.162109" xlink:href="#DejaVuSans-63"/>
     <use x="221.142578" xlink:href="#DejaVuSans-2e"/>
     <use x="252.929688" xlink:href="#DejaVuSans-20"/>
     <use x="284.716797" xlink:href="#DejaVuSans-6d"/>
     <use x="382.128906" xlink:href="#DejaVuSans-6f"/>
     <use x="443.310547" xlink:href="#DejaVuSans-64"/>
     <use x="506.787109" xlink:href="#DejaVuSans-65"/>
     <use x="568.310547" xlink:href="#DejaVuSans-72"/>
     <use x="609.423828" xlink:href="#DejaVuSans-61"/>
     <use x="670.703125" xlink:href="#DejaVuSans-74"/>
     <use x="709.912109" xlink:href="#DejaVuSans-65"/>
     <use x="771.435547" xlink:href="#DejaVuSans-20"/>
     <use x="803.222656" xlink:href="#DejaVuSans-66"/>
     <use x="838.427734" xlink:href="#DejaVuSans-75"/>
     <use x="901.806641" xlink:href="#DejaVuSans-6e"/>
     <use x="965.185547" xlink:href="#DejaVuSans-63"/>
     <use x="1020.166016" xlink:href="#DejaVuSans-74"/>
     <use x="1059.375" xlink:href="#DejaVuSans-69"/>
     <use x="1087.158203" xlink:href="#DejaVuSans-6f"/>
     <use x="1148.339844" xlink:href="#DejaVuSans-6e"/>
     <use x="1211.71875" xlink:href="#DejaVuSans-73"/>
     <use x="1263.818359" xlink:href="#DejaVuSans-2c"/>
     <use x="1295.605469" xlink:href="#DejaVuSans-20"/>
     <use x="1327.392578" xlink:href="#DejaVuSans-35"/>
     <use x="1391.015625" xlink:href="#DejaVuSans-2d"/>
     <use x="1427.099609" xlink:href="#DejaVuSans-44"/>
    </g>
    <!-- 51 targets in 100..1e-08 -->
    <g transform="translate(74.3712 87.425723)scale(0.1666 -0.1666)">
     <use xlink:href="#DejaVuSans-35"/>
     <use x="63.623047" xlink:href="#DejaVuSans-31"/>
     <use x="127.246094" xlink:href="#DejaVuSans-20"/>
     <use x="159.033203" xlink:href="#DejaVuSans-74"/>
     <use x="198.242188" xlink:href="#DejaVuSans-61"/>
     <use x="259.521484" xlink:href="#DejaVuSans-72"/>
     <use x="300.619141" xlink:href="#DejaVuSans-67"/>
     <use x="364.095703" xlink:href="#DejaVuSans-65"/>
     <use x="425.619141" xlink:href="#DejaVuSans-74"/>
     <use x="464.828125" xlink:href="#DejaVuSans-73"/>
     <use x="516.927734" xlink:href="#DejaVuSans-20"/>
     <use x="548.714844" xlink:href="#DejaVuSans-69"/>
     <use x="576.498047" xlink:href="#DejaVuSans-6e"/>
     <use x="639.876953" xlink:href="#DejaVuSans-20"/>
     <use x="671.664062" xlink:href="#DejaVuSans-31"/>
     <use x="735.287109" xlink:href="#DejaVuSans-30"/>
     <use x="798.910156" xlink:href="#DejaVuSans-30"/>
     <use x="862.533203" xlink:href="#DejaVuSans-2e"/>
     <use x="894.320312" xlink:href="#DejaVuSans-2e"/>
     <use x="926.107422" xlink:href="#DejaVuSans-31"/>
     <use x="989.730469" xlink:href="#DejaVuSans-65"/>
     <use x="1051.253906" xlink:href="#DejaVuSans-2d"/>
     <use x="1087.337891" xlink:href="#DejaVuSans-30"/>
     <use x="1150.960938" xlink:href="#DejaVuSans-38"/>
    </g>
    <!-- 15 instances -->
    <g transform="translate(74.3712 106.081279)scale(0.1666 -0.1666)">
     <use xlink:href="#DejaVuSans-31"/>
     <use x="63.623047" xlink:href="#DejaVuSans-35"/>
     <use x="127.246094" xlink:href="#DejaVuSans-20"/>
     <use x="159.033203" xlink:href="#DejaVuSans-69"/>
     <use x="186.816406" xlink:href="#DejaVuSans-6e"/>
     <use x="250.195312" xlink:href="#DejaVuSans-73"/>
     <use x="302.294922" xlink:href="#DejaVuSans-74"/>
     <use x="341.503906" xlink:href="#DejaVuSans-61"/>
     <use x="402.783203" xlink:href="#DejaVuSans-6e"/>
     <use x="466.162109" xlink:href="#DejaVuSans-63"/>
     <use x="521.142578" xlink:href="#DejaVuSans-65"/>
     <use x="582.666016" xlink:href="#DejaVuSans-73"/>
    </g>
   </g>
   <g id="text_19">
    <!-- v2.0.1 -->
    <g style="fill:#808080;" transform="translate(233.67875 293.504568)scale(0.1 -0.1)">
     <use xlink:href="#DejaVuSans-76"/>
     <use x="59.179688" xlink:href="#DejaVuSans-32"/>
     <use x="122.802734" xlink:href="#DejaVuSans-2e"/>
     <use x="154.589844" xlink:href="#DejaVuSans-30"/>
     <use x="218.212891" xlink:href="#DejaVuSans-2e"/>
     <use x="250" xlink:href="#DejaVuSans-31"/>
    </g>
   </g>
  </g>
 </g>
 <defs>
  <clipPath id="pfa815d50e0">
   <rect height="266.112" width="357.12" x="70.8" y="32.133375"/>
  </clipPath>
 </defs>
</svg>
