<?xml version="1.0" encoding="utf-8" standalone="no"?>
<!DOCTYPE svg PUBLIC "-//W3C//DTD SVG 1.1//EN"
  "http://www.w3.org/Graphics/SVG/1.1/DTD/svg11.dtd">
<!-- Created with matplotlib (http://matplotlib.org/) -->
<svg height="353pt" version="1.1" viewBox="0 0 438 353" width="438pt" xmlns="http://www.w3.org/2000/svg" xmlns:xlink="http://www.w3.org/1999/xlink">
 <defs>
  <style type="text/css">
*{stroke-linecap:butt;stroke-linejoin:round;}
  </style>
 </defs>
 <g id="figure_1">
  <g id="patch_1">
   <path d="M 0 353.22225 
L 438.62 353.22225 
L 438.62 0 
L 0 0 
z
" style="fill:#ffffff;"/>
  </g>
  <g id="axes_1">
   <g id="patch_2">
    <path d="M 70.8 298.245375 
L 427.92 298.245375 
L 427.92 32.133375 
L 70.8 32.133375 
z
" style="fill:#ffffff;"/>
   </g>
   <g id="matplotlib.axis_1">
    <g id="xtick_1">
     <g id="line2d_1">
      <path clip-path="url(#p67727d3b4b)" d="M 70.8 298.245375 
L 70.8 32.133375 
" style="fill:none;stroke:#b0b0b0;stroke-linecap:square;stroke-width:0.8;"/>
     </g>
     <g id="line2d_2">
      <defs>
       <path d="M 0 0 
L 0 3.5 
" id="m33654c528c" style="stroke:#000000;stroke-width:0.8;"/>
      </defs>
      <g>
       <use style="stroke:#000000;stroke-width:0.8;" x="70.8" xlink:href="#m33654c528c" y="298.245375"/>
      </g>
     </g>
     <g id="text_1">
      <!-- 0 -->
      <defs>
       <path d="M 31.78125 66.40625 
Q 24.171875 66.40625 20.328125 58.90625 
Q 16.5 51.421875 16.5 36.375 
Q 16.5 21.390625 20.328125 13.890625 
Q 24.171875 6.390625 31.78125 6.390625 
Q 39.453125 6.390625 43.28125 13.890625 
Q 47.125 21.390625 47.125 36.375 
Q 47.125 51.421875 43.28125 58.90625 
Q 39.453125 66.40625 31.78125 66.40625 
M 31.78125 74.21875 
Q 44.046875 74.21875 50.515625 64.515625 
Q 56.984375 54.828125 56.984375 36.375 
Q 56.984375 17.96875 50.515625 8.265625 
Q 44.046875 -1.421875 31.78125 -1.421875 
Q 19.53125 -1.421875 13.0625 8.265625 
Q 6.59375 17.96875 6.59375 36.375 
Q 6.59375 54.828125 13.0625 64.515625 
Q 19.53125 74.21875 31.78125 74.21875 
" id="DejaVuSans-30"/>
      </defs>
      <g transform="translate(64.4375 320.44225)scale(0.2 -0.2)">
       <use xlink:href="#DejaVuSans-30"/>
      </g>
     </g>
    </g>
    <g id="xtick_2">
     <g id="line2d_3">
      <path clip-path="url(#p67727d3b4b)" d="M 153.085714 298.245375 
L 153.085714 32.133375 
" style="fill:none;stroke:#b0b0b0;stroke-linecap:square;stroke-width:0.8;"/>
     </g>
     <g id="line2d_4">
      <g>
       <use style="stroke:#000000;stroke-width:0.8;" x="153.085714" xlink:href="#m33654c528c" y="298.245375"/>
      </g>
     </g>
     <g id="text_2">
      <!-- 2 -->
      <defs>
       <path d="M 19.1875 8.296875 
L 53.609375 8.296875 
L 53.609375 0 
L 7.328125 0 
L 7.328125 8.296875 
Q 12.9375 14.109375 22.625 23.890625 
Q 32.328125 33.6875 34.8125 36.53125 
Q 39.546875 41.84375 41.421875 45.53125 
Q 43.3125 49.21875 43.3125 52.78125 
Q 43.3125 58.59375 39.234375 62.25 
Q 35.15625 65.921875 28.609375 65.921875 
Q 23.96875 65.921875 18.8125 64.3125 
Q 13.671875 62.703125 7.8125 59.421875 
L 7.8125 69.390625 
Q 13.765625 71.78125 18.9375 73 
Q 24.125 74.21875 28.421875 74.21875 
Q 39.75 74.21875 46.484375 68.546875 
Q 53.21875 62.890625 53.21875 53.421875 
Q 53.21875 48.921875 51.53125 44.890625 
Q 49.859375 40.875 45.40625 35.40625 
Q 44.1875 33.984375 37.640625 27.21875 
Q 31.109375 20.453125 19.1875 8.296875 
" id="DejaVuSans-32"/>
      </defs>
      <g transform="translate(146.723214 320.44225)scale(0.2 -0.2)">
       <use xlink:href="#DejaVuSans-32"/>
      </g>
     </g>
    </g>
    <g id="xtick_3">
     <g id="line2d_5">
      <path clip-path="url(#p67727d3b4b)" d="M 235.371429 298.245375 
L 235.371429 32.133375 
" style="fill:none;stroke:#b0b0b0;stroke-linecap:square;stroke-width:0.8;"/>
     </g>
     <g id="line2d_6">
      <g>
       <use style="stroke:#000000;stroke-width:0.8;" x="235.371429" xlink:href="#m33654c528c" y="298.245375"/>
      </g>
     </g>
     <g id="text_3">
      <!-- 4 -->
      <defs>
       <path d="M 37.796875 64.3125 
L 12.890625 25.390625 
L 37.796875 25.390625 
z
M 35.203125 72.90625 
L 47.609375 72.90625 
L 47.609375 25.390625 
L 58.015625 25.390625 
L 58.015625 17.1875 
L 47.609375 17.1875 
L 47.609375 0 
L 37.796875 0 
L 37.796875 17.1875 
L 4.890625 17.1875 
L 4.890625 26.703125 
z
" id="DejaVuSans-34"/>
      </defs>
      <g transform="translate(229.008929 320.44225)scale(0.2 -0.2)">
       <use xlink:href="#DejaVuSans-34"/>
      </g>
     </g>
    </g>
    <g id="xtick_4">
     <g id="line2d_7">
      <path clip-path="url(#p67727d3b4b)" d="M 317.657143 298.245375 
L 317.657143 32.133375 
" style="fill:none;stroke:#b0b0b0;stroke-linecap:square;stroke-width:0.8;"/>
     </g>
     <g id="line2d_8">
      <g>
       <use style="stroke:#000000;stroke-width:0.8;" x="317.657143" xlink:href="#m33654c528c" y="298.245375"/>
      </g>
     </g>
     <g id="text_4">
      <!-- 6 -->
      <defs>
       <path d="M 33.015625 40.375 
Q 26.375 40.375 22.484375 35.828125 
Q 18.609375 31.296875 18.609375 23.390625 
Q 18.609375 15.53125 22.484375 10.953125 
Q 26.375 6.390625 33.015625 6.390625 
Q 39.65625 6.390625 43.53125 10.953125 
Q 47.40625 15.53125 47.40625 23.390625 
Q 47.40625 31.296875 43.53125 35.828125 
Q 39.65625 40.375 33.015625 40.375 
M 52.59375 71.296875 
L 52.59375 62.3125 
Q 48.875 64.0625 45.09375 64.984375 
Q 41.3125 65.921875 37.59375 65.921875 
Q 27.828125 65.921875 22.671875 59.328125 
Q 17.53125 52.734375 16.796875 39.40625 
Q 19.671875 43.65625 24.015625 45.921875 
Q 28.375 48.1875 33.59375 48.1875 
Q 44.578125 48.1875 50.953125 41.515625 
Q 57.328125 34.859375 57.328125 23.390625 
Q 57.328125 12.15625 50.6875 5.359375 
Q 44.046875 -1.421875 33.015625 -1.421875 
Q 20.359375 -1.421875 13.671875 8.265625 
Q 6.984375 17.96875 6.984375 36.375 
Q 6.984375 53.65625 15.1875 63.9375 
Q 23.390625 74.21875 37.203125 74.21875 
Q 40.921875 74.21875 44.703125 73.484375 
Q 48.484375 72.75 52.59375 71.296875 
" id="DejaVuSans-36"/>
      </defs>
      <g transform="translate(311.294643 320.44225)scale(0.2 -0.2)">
       <use xlink:href="#DejaVuSans-36"/>
      </g>
     </g>
    </g>
    <g id="xtick_5">
     <g id="line2d_9">
      <path clip-path="url(#p67727d3b4b)" d="M 399.942857 298.245375 
L 399.942857 32.133375 
" style="fill:none;stroke:#b0b0b0;stroke-linecap:square;stroke-width:0.8;"/>
     </g>
     <g id="line2d_10">
      <g>
       <use style="stroke:#000000;stroke-width:0.8;" x="399.942857" xlink:href="#m33654c528c" y="298.245375"/>
      </g>
     </g>
     <g id="text_5">
      <!-- 8 -->
      <defs>
       <path d="M 31.78125 34.625 
Q 24.75 34.625 20.71875 30.859375 
Q 16.703125 27.09375 16.703125 20.515625 
Q 16.703125 13.921875 20.71875 10.15625 
Q 24.75 6.390625 31.78125 6.390625 
Q 38.8125 6.390625 42.859375 10.171875 
Q 46.921875 13.96875 46.921875 20.515625 
Q 46.921875 27.09375 42.890625 30.859375 
Q 38.875 34.625 31.78125 34.625 
M 21.921875 38.8125 
Q 15.578125 40.375 12.03125 44.71875 
Q 8.5 49.078125 8.5 55.328125 
Q 8.5 64.0625 14.71875 69.140625 
Q 20.953125 74.21875 31.78125 74.21875 
Q 42.671875 74.21875 48.875 69.140625 
Q 55.078125 64.0625 55.078125 55.328125 
Q 55.078125 49.078125 51.53125 44.71875 
Q 48 40.375 41.703125 38.8125 
Q 48.828125 37.15625 52.796875 32.3125 
Q 56.78125 27.484375 56.78125 20.515625 
Q 56.78125 9.90625 50.3125 4.234375 
Q 43.84375 -1.421875 31.78125 -1.421875 
Q 19.734375 -1.421875 13.25 4.234375 
Q 6.78125 9.90625 6.78125 20.515625 
Q 6.78125 27.484375 10.78125 32.3125 
Q 14.796875 37.15625 21.921875 38.8125 
M 18.3125 54.390625 
Q 18.3125 48.734375 21.84375 45.5625 
Q 25.390625 42.390625 31.78125 42.390625 
Q 38.140625 42.390625 41.71875 45.5625 
Q 45.3125 48.734375 45.3125 54.390625 
Q 45.3125 60.0625 41.71875 63.234375 
Q 38.140625 66.40625 31.78125 66.40625 
Q 25.390625 66.40625 21.84375 63.234375 
Q 18.3125 60.0625 18.3125 54.390625 
" id="DejaVuSans-38"/>
      </defs>
      <g transform="translate(393.580357 320.44225)scale(0.2 -0.2)">
       <use xlink:href="#DejaVuSans-38"/>
      </g>
     </g>
    </g>
    <g id="xtick_6">
     <g id="line2d_11">
      <defs>
       <path d="M 0 0 
L 0 2 
" id="mc6842da255" style="stroke:#000000;stroke-width:0.6;"/>
      </defs>
      <g>
       <use style="stroke:#000000;stroke-width:0.6;" x="83.185234" xlink:href="#mc6842da255" y="298.245375"/>
      </g>
     </g>
    </g>
    <g id="xtick_7">
     <g id="line2d_12">
      <g>
       <use style="stroke:#000000;stroke-width:0.6;" x="95.570468" xlink:href="#mc6842da255" y="298.245375"/>
      </g>
     </g>
    </g>
    <g id="xtick_8">
     <g id="line2d_13">
      <g>
       <use style="stroke:#000000;stroke-width:0.6;" x="102.815366" xlink:href="#mc6842da255" y="298.245375"/>
      </g>
     </g>
    </g>
    <g id="xtick_9">
     <g id="line2d_14">
      <g>
       <use style="stroke:#000000;stroke-width:0.6;" x="107.955702" xlink:href="#mc6842da255" y="298.245375"/>
      </g>
     </g>
    </g>
    <g id="xtick_10">
     <g id="line2d_15">
      <g>
       <use style="stroke:#000000;stroke-width:0.6;" x="165.470948" xlink:href="#mc6842da255" y="298.245375"/>
      </g>
     </g>
    </g>
    <g id="xtick_11">
     <g id="line2d_16">
      <g>
       <use style="stroke:#000000;stroke-width:0.6;" x="177.856183" xlink:href="#mc6842da255" y="298.245375"/>
      </g>
     </g>
    </g>
    <g id="xtick_12">
     <g id="line2d_17">
      <g>
       <use style="stroke:#000000;stroke-width:0.6;" x="185.10108" xlink:href="#mc6842da255" y="298.245375"/>
      </g>
     </g>
    </g>
    <g id="xtick_13">
     <g id="line2d_18">
      <g>
       <use style="stroke:#000000;stroke-width:0.6;" x="190.241417" xlink:href="#mc6842da255" y="298.245375"/>
      </g>
     </g>
    </g>
    <g id="xtick_14">
     <g id="line2d_19">
      <g>
       <use style="stroke:#000000;stroke-width:0.6;" x="247.756663" xlink:href="#mc6842da255" y="298.245375"/>
      </g>
     </g>
    </g>
    <g id="xtick_15">
     <g id="line2d_20">
      <g>
       <use style="stroke:#000000;stroke-width:0.6;" x="260.141897" xlink:href="#mc6842da255" y="298.245375"/>
      </g>
     </g>
    </g>
    <g id="xtick_16">
     <g id="line2d_21">
      <g>
       <use style="stroke:#000000;stroke-width:0.6;" x="267.386794" xlink:href="#mc6842da255" y="298.245375"/>
      </g>
     </g>
    </g>
    <g id="xtick_17">
     <g id="line2d_22">
      <g>
       <use style="stroke:#000000;stroke-width:0.6;" x="272.527131" xlink:href="#mc6842da255" y="298.245375"/>
      </g>
     </g>
    </g>
    <g id="xtick_18">
     <g id="line2d_23">
      <g>
       <use style="stroke:#000000;stroke-width:0.6;" x="330.042377" xlink:href="#mc6842da255" y="298.245375"/>
      </g>
     </g>
    </g>
    <g id="xtick_19">
     <g id="line2d_24">
      <g>
       <use style="stroke:#000000;stroke-width:0.6;" x="342.427611" xlink:href="#mc6842da255" y="298.245375"/>
      </g>
     </g>
    </g>
    <g id="xtick_20">
     <g id="line2d_25">
      <g>
       <use style="stroke:#000000;stroke-width:0.6;" x="349.672509" xlink:href="#mc6842da255" y="298.245375"/>
      </g>
     </g>
    </g>
    <g id="xtick_21">
     <g id="line2d_26">
      <g>
       <use style="stroke:#000000;stroke-width:0.6;" x="354.812845" xlink:href="#mc6842da255" y="298.245375"/>
      </g>
     </g>
    </g>
    <g id="xtick_22">
     <g id="line2d_27">
      <g>
       <use style="stroke:#000000;stroke-width:0.6;" x="412.328091" xlink:href="#mc6842da255" y="298.245375"/>
      </g>
     </g>
    </g>
    <g id="xtick_23">
     <g id="line2d_28">
      <g>
       <use style="stroke:#000000;stroke-width:0.6;" x="424.713325" xlink:href="#mc6842da255" y="298.245375"/>
      </g>
     </g>
    </g>
    <g id="text_6">
     <!-- log10 of (# f-evals / dimension) -->
     <defs>
      <path d="M 9.421875 75.984375 
L 18.40625 75.984375 
L 18.40625 0 
L 9.421875 0 
z
" id="DejaVuSans-6c"/>
      <path d="M 30.609375 48.390625 
Q 23.390625 48.390625 19.1875 42.75 
Q 14.984375 37.109375 14.984375 27.296875 
Q 14.984375 17.484375 19.15625 11.84375 
Q 23.34375 6.203125 30.609375 6.203125 
Q 37.796875 6.203125 41.984375 11.859375 
Q 46.1875 17.53125 46.1875 27.296875 
Q 46.1875 37.015625 41.984375 42.703125 
Q 37.796875 48.390625 30.609375 48.390625 
M 30.609375 56 
Q 42.328125 56 49.015625 48.375 
Q 55.71875 40.765625 55.71875 27.296875 
Q 55.71875 13.875 49.015625 6.21875 
Q 42.328125 -1.421875 30.609375 -1.421875 
Q 18.84375 -1.421875 12.171875 6.21875 
Q 5.515625 13.875 5.515625 27.296875 
Q 5.515625 40.765625 12.171875 48.375 
Q 18.84375 56 30.609375 56 
" id="DejaVuSans-6f"/>
      <path d="M 45.40625 27.984375 
Q 45.40625 37.75 41.375 43.109375 
Q 37.359375 48.484375 30.078125 48.484375 
Q 22.859375 48.484375 18.828125 43.109375 
Q 14.796875 37.75 14.796875 27.984375 
Q 14.796875 18.265625 18.828125 12.890625 
Q 22.859375 7.515625 30.078125 7.515625 
Q 37.359375 7.515625 41.375 12.890625 
Q 45.40625 18.265625 45.40625 27.984375 
M 54.390625 6.78125 
Q 54.390625 -7.171875 48.1875 -13.984375 
Q 42 -20.796875 29.203125 -20.796875 
Q 24.46875 -20.796875 20.265625 -20.09375 
Q 16.0625 -19.390625 12.109375 -17.921875 
L 12.109375 -9.1875 
Q 16.0625 -11.328125 19.921875 -12.34375 
Q 23.78125 -13.375 27.78125 -13.375 
Q 36.625 -13.375 41.015625 -8.765625 
Q 45.40625 -4.15625 45.40625 5.171875 
L 45.40625 9.625 
Q 42.625 4.78125 38.28125 2.390625 
Q 33.9375 0 27.875 0 
Q 17.828125 0 11.671875 7.65625 
Q 5.515625 15.328125 5.515625 27.984375 
Q 5.515625 40.671875 11.671875 48.328125 
Q 17.828125 56 27.875 56 
Q 33.9375 56 38.28125 53.609375 
Q 42.625 51.21875 45.40625 46.390625 
L 45.40625 54.6875 
L 54.390625 54.6875 
z
" id="DejaVuSans-67"/>
      <path d="M 12.40625 8.296875 
L 28.515625 8.296875 
L 28.515625 63.921875 
L 10.984375 60.40625 
L 10.984375 69.390625 
L 28.421875 72.90625 
L 38.28125 72.90625 
L 38.28125 8.296875 
L 54.390625 8.296875 
L 54.390625 0 
L 12.40625 0 
z
" id="DejaVuSans-31"/>
      <path id="DejaVuSans-20"/>
      <path d="M 37.109375 75.984375 
L 37.109375 68.5 
L 28.515625 68.5 
Q 23.6875 68.5 21.796875 66.546875 
Q 19.921875 64.59375 19.921875 59.515625 
L 19.921875 54.6875 
L 34.71875 54.6875 
L 34.71875 47.703125 
L 19.921875 47.703125 
L 19.921875 0 
L 10.890625 0 
L 10.890625 47.703125 
L 2.296875 47.703125 
L 2.296875 54.6875 
L 10.890625 54.6875 
L 10.890625 58.5 
Q 10.890625 67.625 15.140625 71.796875 
Q 19.390625 75.984375 28.609375 75.984375 
z
" id="DejaVuSans-66"/>
      <path d="M 31 75.875 
Q 24.46875 64.65625 21.28125 53.65625 
Q 18.109375 42.671875 18.109375 31.390625 
Q 18.109375 20.125 21.3125 9.0625 
Q 24.515625 -2 31 -13.1875 
L 23.1875 -13.1875 
Q 15.875 -1.703125 12.234375 9.375 
Q 8.59375 20.453125 8.59375 31.390625 
Q 8.59375 42.28125 12.203125 53.3125 
Q 15.828125 64.359375 23.1875 75.875 
z
" id="DejaVuSans-28"/>
      <path d="M 51.125 44 
L 36.921875 44 
L 32.8125 27.6875 
L 47.125 27.6875 
z
M 43.796875 71.78125 
L 38.71875 51.515625 
L 52.984375 51.515625 
L 58.109375 71.78125 
L 65.921875 71.78125 
L 60.890625 51.515625 
L 76.125 51.515625 
L 76.125 44 
L 58.984375 44 
L 54.984375 27.6875 
L 70.515625 27.6875 
L 70.515625 20.21875 
L 53.078125 20.21875 
L 48 0 
L 40.1875 0 
L 45.21875 20.21875 
L 30.90625 20.21875 
L 25.875 0 
L 18.015625 0 
L 23.09375 20.21875 
L 7.71875 20.21875 
L 7.71875 27.6875 
L 24.90625 27.6875 
L 29 44 
L 13.28125 44 
L 13.28125 51.515625 
L 30.90625 51.515625 
L 35.890625 71.78125 
z
" id="DejaVuSans-23"/>
      <path d="M 4.890625 31.390625 
L 31.203125 31.390625 
L 31.203125 23.390625 
L 4.890625 23.390625 
z
" id="DejaVuSans-2d"/>
      <path d="M 56.203125 29.59375 
L 56.203125 25.203125 
L 14.890625 25.203125 
Q 15.484375 15.921875 20.484375 11.0625 
Q 25.484375 6.203125 34.421875 6.203125 
Q 39.59375 6.203125 44.453125 7.46875 
Q 49.3125 8.734375 54.109375 11.28125 
L 54.109375 2.78125 
Q 49.265625 0.734375 44.1875 -0.34375 
Q 39.109375 -1.421875 33.890625 -1.421875 
Q 20.796875 -1.421875 13.15625 6.1875 
Q 5.515625 13.8125 5.515625 26.8125 
Q 5.515625 40.234375 12.765625 48.109375 
Q 20.015625 56 32.328125 56 
Q 43.359375 56 49.78125 48.890625 
Q 56.203125 41.796875 56.203125 29.59375 
M 47.21875 32.234375 
Q 47.125 39.59375 43.09375 43.984375 
Q 39.0625 48.390625 32.421875 48.390625 
Q 24.90625 48.390625 20.390625 44.140625 
Q 15.875 39.890625 15.1875 32.171875 
z
" id="DejaVuSans-65"/>
      <path d="M 2.984375 54.6875 
L 12.5 54.6875 
L 29.59375 8.796875 
L 46.6875 54.6875 
L 56.203125 54.6875 
L 35.6875 0 
L 23.484375 0 
z
" id="DejaVuSans-76"/>
      <path d="M 34.28125 27.484375 
Q 23.390625 27.484375 19.1875 25 
Q 14.984375 22.515625 14.984375 16.5 
Q 14.984375 11.71875 18.140625 8.90625 
Q 21.296875 6.109375 26.703125 6.109375 
Q 34.1875 6.109375 38.703125 11.40625 
Q 43.21875 16.703125 43.21875 25.484375 
L 43.21875 27.484375 
z
M 52.203125 31.203125 
L 52.203125 0 
L 43.21875 0 
L 43.21875 8.296875 
Q 40.140625 3.328125 35.546875 0.953125 
Q 30.953125 -1.421875 24.3125 -1.421875 
Q 15.921875 -1.421875 10.953125 3.296875 
Q 6 8.015625 6 15.921875 
Q 6 25.140625 12.171875 29.828125 
Q 18.359375 34.515625 30.609375 34.515625 
L 43.21875 34.515625 
L 43.21875 35.40625 
Q 43.21875 41.609375 39.140625 45 
Q 35.0625 48.390625 27.6875 48.390625 
Q 23 48.390625 18.546875 47.265625 
Q 14.109375 46.140625 10.015625 43.890625 
L 10.015625 52.203125 
Q 14.9375 54.109375 19.578125 55.046875 
Q 24.21875 56 28.609375 56 
Q 40.484375 56 46.34375 49.84375 
Q 52.203125 43.703125 52.203125 31.203125 
" id="DejaVuSans-61"/>
      <path d="M 44.28125 53.078125 
L 44.28125 44.578125 
Q 40.484375 46.53125 36.375 47.5 
Q 32.28125 48.484375 27.875 48.484375 
Q 21.1875 48.484375 17.84375 46.4375 
Q 14.5 44.390625 14.5 40.28125 
Q 14.5 37.15625 16.890625 35.375 
Q 19.28125 33.59375 26.515625 31.984375 
L 29.59375 31.296875 
Q 39.15625 29.25 43.1875 25.515625 
Q 47.21875 21.78125 47.21875 15.09375 
Q 47.21875 7.46875 41.1875 3.015625 
Q 35.15625 -1.421875 24.609375 -1.421875 
Q 20.21875 -1.421875 15.453125 -0.5625 
Q 10.6875 0.296875 5.421875 2 
L 5.421875 11.28125 
Q 10.40625 8.6875 15.234375 7.390625 
Q 20.0625 6.109375 24.8125 6.109375 
Q 31.15625 6.109375 34.5625 8.28125 
Q 37.984375 10.453125 37.984375 14.40625 
Q 37.984375 18.0625 35.515625 20.015625 
Q 33.0625 21.96875 24.703125 23.78125 
L 21.578125 24.515625 
Q 13.234375 26.265625 9.515625 29.90625 
Q 5.8125 33.546875 5.8125 39.890625 
Q 5.8125 47.609375 11.28125 51.796875 
Q 16.75 56 26.8125 56 
Q 31.78125 56 36.171875 55.265625 
Q 40.578125 54.546875 44.28125 53.078125 
" id="DejaVuSans-73"/>
      <path d="M 25.390625 72.90625 
L 33.6875 72.90625 
L 8.296875 -9.28125 
L 0 -9.28125 
z
" id="DejaVuSans-2f"/>
      <path d="M 45.40625 46.390625 
L 45.40625 75.984375 
L 54.390625 75.984375 
L 54.390625 0 
L 45.40625 0 
L 45.40625 8.203125 
Q 42.578125 3.328125 38.25 0.953125 
Q 33.9375 -1.421875 27.875 -1.421875 
Q 17.96875 -1.421875 11.734375 6.484375 
Q 5.515625 14.40625 5.515625 27.296875 
Q 5.515625 40.1875 11.734375 48.09375 
Q 17.96875 56 27.875 56 
Q 33.9375 56 38.25 53.625 
Q 42.578125 51.265625 45.40625 46.390625 
M 14.796875 27.296875 
Q 14.796875 17.390625 18.875 11.75 
Q 22.953125 6.109375 30.078125 6.109375 
Q 37.203125 6.109375 41.296875 11.75 
Q 45.40625 17.390625 45.40625 27.296875 
Q 45.40625 37.203125 41.296875 42.84375 
Q 37.203125 48.484375 30.078125 48.484375 
Q 22.953125 48.484375 18.875 42.84375 
Q 14.796875 37.203125 14.796875 27.296875 
" id="DejaVuSans-64"/>
      <path d="M 9.421875 54.6875 
L 18.40625 54.6875 
L 18.40625 0 
L 9.421875 0 
z
M 9.421875 75.984375 
L 18.40625 75.984375 
L 18.40625 64.59375 
L 9.421875 64.59375 
z
" id="DejaVuSans-69"/>
      <path d="M 52 44.1875 
Q 55.375 50.25 60.0625 53.125 
Q 64.75 56 71.09375 56 
Q 79.640625 56 84.28125 50.015625 
Q 88.921875 44.046875 88.921875 33.015625 
L 88.921875 0 
L 79.890625 0 
L 79.890625 32.71875 
Q 79.890625 40.578125 77.09375 44.375 
Q 74.3125 48.1875 68.609375 48.1875 
Q 61.625 48.1875 57.5625 43.546875 
Q 53.515625 38.921875 53.515625 30.90625 
L 53.515625 0 
L 44.484375 0 
L 44.484375 32.71875 
Q 44.484375 40.625 41.703125 44.40625 
Q 38.921875 48.1875 33.109375 48.1875 
Q 26.21875 48.1875 22.15625 43.53125 
Q 18.109375 38.875 18.109375 30.90625 
L 18.109375 0 
L 9.078125 0 
L 9.078125 54.6875 
L 18.109375 54.6875 
L 18.109375 46.1875 
Q 21.1875 51.21875 25.484375 53.609375 
Q 29.78125 56 35.6875 56 
Q 41.65625 56 45.828125 52.96875 
Q 50 49.953125 52 44.1875 
" id="DejaVuSans-6d"/>
      <path d="M 54.890625 33.015625 
L 54.890625 0 
L 45.90625 0 
L 45.90625 32.71875 
Q 45.90625 40.484375 42.875 44.328125 
Q 39.84375 48.1875 33.796875 48.1875 
Q 26.515625 48.1875 22.3125 43.546875 
Q 18.109375 38.921875 18.109375 30.90625 
L 18.109375 0 
L 9.078125 0 
L 9.078125 54.6875 
L 18.109375 54.6875 
L 18.109375 46.1875 
Q 21.34375 51.125 25.703125 53.5625 
Q 30.078125 56 35.796875 56 
Q 45.21875 56 50.046875 50.171875 
Q 54.890625 44.34375 54.890625 33.015625 
" id="DejaVuSans-6e"/>
      <path d="M 8.015625 75.875 
L 15.828125 75.875 
Q 23.140625 64.359375 26.78125 53.3125 
Q 30.421875 42.28125 30.421875 31.390625 
Q 30.421875 20.453125 26.78125 9.375 
Q 23.140625 -1.703125 15.828125 -13.1875 
L 8.015625 -13.1875 
Q 14.5 -2 17.703125 9.0625 
Q 20.90625 20.125 20.90625 31.390625 
Q 20.90625 42.671875 17.703125 53.65625 
Q 14.5 64.65625 8.015625 75.875 
" id="DejaVuSans-29"/>
     </defs>
     <g transform="translate(107.015156 342.278812)scale(0.18 -0.18)">
      <use xlink:href="#DejaVuSans-6c"/>
      <use x="27.783203" xlink:href="#DejaVuSans-6f"/>
      <use x="88.964844" xlink:href="#DejaVuSans-67"/>
      <use x="152.441406" xlink:href="#DejaVuSans-31"/>
      <use x="216.064453" xlink:href="#DejaVuSans-30"/>
      <use x="279.6875" xlink:href="#DejaVuSans-20"/>
      <use x="311.474609" xlink:href="#DejaVuSans-6f"/>
      <use x="372.65625" xlink:href="#DejaVuSans-66"/>
      <use x="407.861328" xlink:href="#DejaVuSans-20"/>
      <use x="439.648438" xlink:href="#DejaVuSans-28"/>
      <use x="478.662109" xlink:href="#DejaVuSans-23"/>
      <use x="562.451172" xlink:href="#DejaVuSans-20"/>
      <use x="594.238281" xlink:href="#DejaVuSans-66"/>
      <use x="629.365234" xlink:href="#DejaVuSans-2d"/>
      <use x="665.449219" xlink:href="#DejaVuSans-65"/>
      <use x="726.972656" xlink:href="#DejaVuSans-76"/>
      <use x="786.152344" xlink:href="#DejaVuSans-61"/>
      <use x="847.431641" xlink:href="#DejaVuSans-6c"/>
      <use x="875.214844" xlink:href="#DejaVuSans-73"/>
      <use x="927.314453" xlink:href="#DejaVuSans-20"/>
      <use x="959.101562" xlink:href="#DejaVuSans-2f"/>
      <use x="992.792969" xlink:href="#DejaVuSans-20"/>
      <use x="1024.580078" xlink:href="#DejaVuSans-64"/>
      <use x="1088.056641" xlink:href="#DejaVuSans-69"/>
      <use x="1115.839844" xlink:href="#DejaVuSans-6d"/>
      <use x="1213.251953" xlink:href="#DejaVuSans-65"/>
      <use x="1274.775391" xlink:href="#DejaVuSans-6e"/>
      <use x="1338.154297" xlink:href="#DejaVuSans-73"/>
      <use x="1390.253906" xlink:href="#DejaVuSans-69"/>
      <use x="1418.037109" xlink:href="#DejaVuSans-6f"/>
      <use x="1479.21875" xlink:href="#DejaVuSans-6e"/>
      <use x="1542.597656" xlink:href="#DejaVuSans-29"/>
     </g>
    </g>
   </g>
   <g id="matplotlib.axis_2">
    <g id="ytick_1">
     <g id="line2d_29">
      <path clip-path="url(#p67727d3b4b)" d="M 70.8 298.245375 
L 427.92 298.245375 
" style="fill:none;stroke:#b0b0b0;stroke-linecap:square;stroke-width:0.8;"/>
     </g>
     <g id="line2d_30">
      <defs>
       <path d="M 0 0 
L -3.5 0 
" id="m0f6474d257" style="stroke:#000000;stroke-width:0.8;"/>
      </defs>
      <g>
       <use style="stroke:#000000;stroke-width:0.8;" x="70.8" xlink:href="#m0f6474d257" y="298.245375"/>
      </g>
     </g>
     <g id="text_7">
      <!-- 0.0 -->
      <defs>
       <path d="M 10.6875 12.40625 
L 21 12.40625 
L 21 0 
L 10.6875 0 
z
" id="DejaVuSans-2e"/>
      </defs>
      <g transform="translate(31.99375 305.843812)scale(0.2 -0.2)">
       <use xlink:href="#DejaVuSans-30"/>
       <use x="63.623047" xlink:href="#DejaVuSans-2e"/>
       <use x="95.410156" xlink:href="#DejaVuSans-30"/>
      </g>
     </g>
    </g>
    <g id="ytick_2">
     <g id="line2d_31">
      <path clip-path="url(#p67727d3b4b)" d="M 70.8 245.549929 
L 427.92 245.549929 
" style="fill:none;stroke:#b0b0b0;stroke-linecap:square;stroke-width:0.8;"/>
     </g>
     <g id="line2d_32">
      <g>
       <use style="stroke:#000000;stroke-width:0.8;" x="70.8" xlink:href="#m0f6474d257" y="245.549929"/>
      </g>
     </g>
     <g id="text_8">
      <!-- 0.2 -->
      <g transform="translate(31.99375 253.148367)scale(0.2 -0.2)">
       <use xlink:href="#DejaVuSans-30"/>
       <use x="63.623047" xlink:href="#DejaVuSans-2e"/>
       <use x="95.410156" xlink:href="#DejaVuSans-32"/>
      </g>
     </g>
    </g>
    <g id="ytick_3">
     <g id="line2d_33">
      <path clip-path="url(#p67727d3b4b)" d="M 70.8 192.854484 
L 427.92 192.854484 
" style="fill:none;stroke:#b0b0b0;stroke-linecap:square;stroke-width:0.8;"/>
     </g>
     <g id="line2d_34">
      <g>
       <use style="stroke:#000000;stroke-width:0.8;" x="70.8" xlink:href="#m0f6474d257" y="192.854484"/>
      </g>
     </g>
     <g id="text_9">
      <!-- 0.4 -->
      <g transform="translate(31.99375 200.452921)scale(0.2 -0.2)">
       <use xlink:href="#DejaVuSans-30"/>
       <use x="63.623047" xlink:href="#DejaVuSans-2e"/>
       <use x="95.410156" xlink:href="#DejaVuSans-34"/>
      </g>
     </g>
    </g>
    <g id="ytick_4">
     <g id="line2d_35">
      <path clip-path="url(#p67727d3b4b)" d="M 70.8 140.159038 
L 427.92 140.159038 
" style="fill:none;stroke:#b0b0b0;stroke-linecap:square;stroke-width:0.8;"/>
     </g>
     <g id="line2d_36">
      <g>
       <use style="stroke:#000000;stroke-width:0.8;" x="70.8" xlink:href="#m0f6474d257" y="140.159038"/>
      </g>
     </g>
     <g id="text_10">
      <!-- 0.6 -->
      <g transform="translate(31.99375 147.757476)scale(0.2 -0.2)">
       <use xlink:href="#DejaVuSans-30"/>
       <use x="63.623047" xlink:href="#DejaVuSans-2e"/>
       <use x="95.410156" xlink:href="#DejaVuSans-36"/>
      </g>
     </g>
    </g>
    <g id="ytick_5">
     <g id="line2d_37">
      <path clip-path="url(#p67727d3b4b)" d="M 70.8 87.463593 
L 427.92 87.463593 
" style="fill:none;stroke:#b0b0b0;stroke-linecap:square;stroke-width:0.8;"/>
     </g>
     <g id="line2d_38">
      <g>
       <use style="stroke:#000000;stroke-width:0.8;" x="70.8" xlink:href="#m0f6474d257" y="87.463593"/>
      </g>
     </g>
     <g id="text_11">
      <!-- 0.8 -->
      <g transform="translate(31.99375 95.06203)scale(0.2 -0.2)">
       <use xlink:href="#DejaVuSans-30"/>
       <use x="63.623047" xlink:href="#DejaVuSans-2e"/>
       <use x="95.410156" xlink:href="#DejaVuSans-38"/>
      </g>
     </g>
    </g>
    <g id="ytick_6">
     <g id="line2d_39">
      <path clip-path="url(#p67727d3b4b)" d="M 70.8 34.768147 
L 427.92 34.768147 
" style="fill:none;stroke:#b0b0b0;stroke-linecap:square;stroke-width:0.8;"/>
     </g>
     <g id="line2d_40">
      <g>
       <use style="stroke:#000000;stroke-width:0.8;" x="70.8" xlink:href="#m0f6474d257" y="34.768147"/>
      </g>
     </g>
     <g id="text_12">
      <!-- 1.0 -->
      <g transform="translate(31.99375 42.366585)scale(0.2 -0.2)">
       <use xlink:href="#DejaVuSans-31"/>
       <use x="63.623047" xlink:href="#DejaVuSans-2e"/>
       <use x="95.410156" xlink:href="#DejaVuSans-30"/>
      </g>
     </g>
    </g>
    <g id="text_13">
     <!-- Proportion of function+target pairs -->
     <defs>
      <path d="M 19.671875 64.796875 
L 19.671875 37.40625 
L 32.078125 37.40625 
Q 38.96875 37.40625 42.71875 40.96875 
Q 46.484375 44.53125 46.484375 51.125 
Q 46.484375 57.671875 42.71875 61.234375 
Q 38.96875 64.796875 32.078125 64.796875 
z
M 9.8125 72.90625 
L 32.078125 72.90625 
Q 44.34375 72.90625 50.609375 67.359375 
Q 56.890625 61.8125 56.890625 51.125 
Q 56.890625 40.328125 50.609375 34.8125 
Q 44.34375 29.296875 32.078125 29.296875 
L 19.671875 29.296875 
L 19.671875 0 
L 9.8125 0 
z
" id="DejaVuSans-50"/>
      <path d="M 41.109375 46.296875 
Q 39.59375 47.171875 37.8125 47.578125 
Q 36.03125 48 33.890625 48 
Q 26.265625 48 22.1875 43.046875 
Q 18.109375 38.09375 18.109375 28.8125 
L 18.109375 0 
L 9.078125 0 
L 9.078125 54.6875 
L 18.109375 54.6875 
L 18.109375 46.1875 
Q 20.953125 51.171875 25.484375 53.578125 
Q 30.03125 56 36.53125 56 
Q 37.453125 56 38.578125 55.875 
Q 39.703125 55.765625 41.0625 55.515625 
z
" id="DejaVuSans-72"/>
      <path d="M 18.109375 8.203125 
L 18.109375 -20.796875 
L 9.078125 -20.796875 
L 9.078125 54.6875 
L 18.109375 54.6875 
L 18.109375 46.390625 
Q 20.953125 51.265625 25.265625 53.625 
Q 29.59375 56 35.59375 56 
Q 45.5625 56 51.78125 48.09375 
Q 58.015625 40.1875 58.015625 27.296875 
Q 58.015625 14.40625 51.78125 6.484375 
Q 45.5625 -1.421875 35.59375 -1.421875 
Q 29.59375 -1.421875 25.265625 0.953125 
Q 20.953125 3.328125 18.109375 8.203125 
M 48.6875 27.296875 
Q 48.6875 37.203125 44.609375 42.84375 
Q 40.53125 48.484375 33.40625 48.484375 
Q 26.265625 48.484375 22.1875 42.84375 
Q 18.109375 37.203125 18.109375 27.296875 
Q 18.109375 17.390625 22.1875 11.75 
Q 26.265625 6.109375 33.40625 6.109375 
Q 40.53125 6.109375 44.609375 11.75 
Q 48.6875 17.390625 48.6875 27.296875 
" id="DejaVuSans-70"/>
      <path d="M 18.3125 70.21875 
L 18.3125 54.6875 
L 36.8125 54.6875 
L 36.8125 47.703125 
L 18.3125 47.703125 
L 18.3125 18.015625 
Q 18.3125 11.328125 20.140625 9.421875 
Q 21.96875 7.515625 27.59375 7.515625 
L 36.8125 7.515625 
L 36.8125 0 
L 27.59375 0 
Q 17.1875 0 13.234375 3.875 
Q 9.28125 7.765625 9.28125 18.015625 
L 9.28125 47.703125 
L 2.6875 47.703125 
L 2.6875 54.6875 
L 9.28125 54.6875 
L 9.28125 70.21875 
z
" id="DejaVuSans-74"/>
      <path d="M 8.5 21.578125 
L 8.5 54.6875 
L 17.484375 54.6875 
L 17.484375 21.921875 
Q 17.484375 14.15625 20.5 10.265625 
Q 23.53125 6.390625 29.59375 6.390625 
Q 36.859375 6.390625 41.078125 11.03125 
Q 45.3125 15.671875 45.3125 23.6875 
L 45.3125 54.6875 
L 54.296875 54.6875 
L 54.296875 0 
L 45.3125 0 
L 45.3125 8.40625 
Q 42.046875 3.421875 37.71875 1 
Q 33.40625 -1.421875 27.6875 -1.421875 
Q 18.265625 -1.421875 13.375 4.4375 
Q 8.5 10.296875 8.5 21.578125 
M 31.109375 56 
z
" id="DejaVuSans-75"/>
      <path d="M 48.78125 52.59375 
L 48.78125 44.1875 
Q 44.96875 46.296875 41.140625 47.34375 
Q 37.3125 48.390625 33.40625 48.390625 
Q 24.65625 48.390625 19.8125 42.84375 
Q 14.984375 37.3125 14.984375 27.296875 
Q 14.984375 17.28125 19.8125 11.734375 
Q 24.65625 6.203125 33.40625 6.203125 
Q 37.3125 6.203125 41.140625 7.25 
Q 44.96875 8.296875 48.78125 10.40625 
L 48.78125 2.09375 
Q 45.015625 0.34375 40.984375 -0.53125 
Q 36.96875 -1.421875 32.421875 -1.421875 
Q 20.0625 -1.421875 12.78125 6.34375 
Q 5.515625 14.109375 5.515625 27.296875 
Q 5.515625 40.671875 12.859375 48.328125 
Q 20.21875 56 33.015625 56 
Q 37.15625 56 41.109375 55.140625 
Q 45.0625 54.296875 48.78125 52.59375 
" id="DejaVuSans-63"/>
      <path d="M 46 62.703125 
L 46 35.5 
L 73.1875 35.5 
L 73.1875 27.203125 
L 46 27.203125 
L 46 0 
L 37.796875 0 
L 37.796875 27.203125 
L 10.59375 27.203125 
L 10.59375 35.5 
L 37.796875 35.5 
L 37.796875 62.703125 
z
" id="DejaVuSans-2b"/>
     </defs>
     <g transform="translate(24.250312 323.17875)rotate(-90)scale(0.18 -0.18)">
      <use xlink:href="#DejaVuSans-50"/>
      <use x="60.287109" xlink:href="#DejaVuSans-72"/>
      <use x="101.369141" xlink:href="#DejaVuSans-6f"/>
      <use x="162.550781" xlink:href="#DejaVuSans-70"/>
      <use x="226.027344" xlink:href="#DejaVuSans-6f"/>
      <use x="287.208984" xlink:href="#DejaVuSans-72"/>
      <use x="328.322266" xlink:href="#DejaVuSans-74"/>
      <use x="367.53125" xlink:href="#DejaVuSans-69"/>
      <use x="395.314453" xlink:href="#DejaVuSans-6f"/>
      <use x="456.496094" xlink:href="#DejaVuSans-6e"/>
      <use x="519.875" xlink:href="#DejaVuSans-20"/>
      <use x="551.662109" xlink:href="#DejaVuSans-6f"/>
      <use x="612.84375" xlink:href="#DejaVuSans-66"/>
      <use x="648.048828" xlink:href="#DejaVuSans-20"/>
      <use x="679.835938" xlink:href="#DejaVuSans-66"/>
      <use x="715.041016" xlink:href="#DejaVuSans-75"/>
      <use x="778.419922" xlink:href="#DejaVuSans-6e"/>
      <use x="841.798828" xlink:href="#DejaVuSans-63"/>
      <use x="896.779297" xlink:href="#DejaVuSans-74"/>
      <use x="935.988281" xlink:href="#DejaVuSans-69"/>
      <use x="963.771484" xlink:href="#DejaVuSans-6f"/>
      <use x="1024.953125" xlink:href="#DejaVuSans-6e"/>
      <use x="1088.332031" xlink:href="#DejaVuSans-2b"/>
      <use x="1172.121094" xlink:href="#DejaVuSans-74"/>
      <use x="1211.330078" xlink:href="#DejaVuSans-61"/>
      <use x="1272.609375" xlink:href="#DejaVuSans-72"/>
      <use x="1313.707031" xlink:href="#DejaVuSans-67"/>
      <use x="1377.183594" xlink:href="#DejaVuSans-65"/>
      <use x="1438.707031" xlink:href="#DejaVuSans-74"/>
      <use x="1477.916016" xlink:href="#DejaVuSans-20"/>
      <use x="1509.703125" xlink:href="#DejaVuSans-70"/>
      <use x="1573.179688" xlink:href="#DejaVuSans-61"/>
      <use x="1634.458984" xlink:href="#DejaVuSans-69"/>
      <use x="1662.242188" xlink:href="#DejaVuSans-72"/>
      <use x="1703.355469" xlink:href="#DejaVuSans-73"/>
     </g>
    </g>
   </g>
   <g id="line2d_41">
    <defs>
     <path d="M 0 1.5 
C 0.397805 1.5 0.77937 1.341951 1.06066 1.06066 
C 1.341951 0.77937 1.5 0.397805 1.5 0 
C 1.5 -0.397805 1.341951 -0.77937 1.06066 -1.06066 
C 0.77937 -1.341951 0.397805 -1.5 0 -1.5 
C -0.397805 -1.5 -0.77937 -1.341951 -1.06066 -1.06066 
C -1.341951 -0.77937 -1.5 -0.397805 -1.5 0 
C -1.5 0.397805 -1.341951 0.77937 -1.06066 1.06066 
C -0.77937 1.341951 -0.397805 1.5 0 1.5 
z
" id="m2f04ece6a1" style="stroke:#000080;"/>
    </defs>
    <g>
     <use style="fill:#000080;stroke:#000080;" x="345.373227" xlink:href="#m2f04ece6a1" y="163.923651"/>
     <use style="fill:#000080;stroke:#000080;" x="345.373227" xlink:href="#m2f04ece6a1" y="163.923651"/>
    </g>
   </g>
   <g id="line2d_42">
    <path d="M 42.042377 298.245375 
L 42.042377 276.030628 
L 136.713325 276.030628 
L 136.713325 270.864408 
L 143.958223 270.864408 
L 143.958223 267.764676 
L 149.098559 267.764676 
L 149.098559 264.148322 
L 153.085714 264.148322 
L 153.085714 261.565212 
L 156.343457 261.565212 
L 156.343457 260.531968 
L 159.097839 260.531968 
L 159.097839 259.498724 
L 161.483794 259.498724 
L 161.483794 256.915614 
L 163.588354 256.915614 
L 163.588354 254.332504 
L 168.728691 254.332504 
L 168.728691 252.266016 
L 170.158903 252.266016 
L 170.158903 251.749394 
L 173.869028 251.749394 
L 173.869028 251.232772 
L 177.856183 251.232772 
L 177.856183 250.71615 
L 179.559196 250.71615 
L 179.559196 250.199528 
L 180.353465 250.199528 
L 180.353465 249.682906 
L 185.686972 249.682906 
L 185.686972 249.166284 
L 193.499159 249.166284 
L 193.499159 248.649662 
L 201.94371 248.649662 
L 201.94371 248.13304 
L 203.067861 248.13304 
L 203.067861 247.099796 
L 203.498439 247.099796 
L 203.498439 246.583173 
L 204.531566 246.583173 
L 204.531566 246.066551 
L 204.928651 246.066551 
L 204.928651 245.549929 
L 205.123933 245.549929 
L 205.123933 245.033307 
L 205.884393 245.033307 
L 205.884393 244.516685 
L 206.069557 244.516685 
L 206.069557 244.000063 
L 206.252821 244.000063 
L 206.252821 242.966819 
L 206.434225 242.966819 
L 206.434225 241.416953 
L 210.019832 241.416953 
L 210.019832 240.900331 
L 210.312759 240.900331 
L 210.312759 239.867087 
L 212.879383 239.867087 
L 212.879383 238.317221 
L 213.497719 238.317221 
L 213.497719 237.283977 
L 217.893443 237.283977 
L 217.893443 235.734111 
L 218.362449 235.734111 
L 218.362449 234.700867 
L 218.819459 234.700867 
L 218.909475 233.151001 
L 219.613728 233.151001 
L 219.613728 232.117757 
L 222.62521 232.117757 
L 222.62521 231.601135 
L 224.818687 231.601135 
L 224.883077 229.018025 
L 225.074866 229.018025 
L 225.074866 228.501403 
L 225.327423 228.501403 
L 225.327423 227.468159 
L 225.452375 227.468159 
L 225.452375 226.951537 
L 225.760986 226.951537 
L 225.760986 226.434915 
L 225.882953 226.434915 
L 225.943626 224.368427 
L 226.184277 224.368427 
L 226.184277 223.335183 
L 231.249758 223.335183 
L 231.249758 222.818561 
L 231.473392 222.818561 
L 231.562067 221.785317 
L 231.650305 221.785317 
L 231.650305 221.268695 
L 232.340946 221.268695 
L 232.425429 219.718829 
L 232.800736 219.718829 
L 232.800736 218.685585 
L 232.965042 218.685585 
L 232.965042 218.168963 
L 233.248991 218.168963 
L 233.248991 217.652341 
L 233.449084 217.652341 
L 233.449084 217.135719 
L 235.299813 217.135719 
L 235.299813 216.102475 
L 237.837609 216.102475 
L 237.837609 215.585853 
L 237.992581 215.585853 
L 237.992581 215.069231 
L 241.281157 215.069231 
L 241.281157 214.552609 
L 242.035198 214.552609 
L 242.035198 213.519365 
L 244.72618 213.519365 
L 244.72618 213.002743 
L 255.44858 213.002743 
L 255.44858 212.48612 
L 276.617621 212.48612 
L 276.617621 211.969498 
L 276.822517 211.969498 
L 276.822517 211.452876 
L 277.02509 211.452876 
L 277.02509 210.936254 
L 277.173804 210.936254 
L 277.211649 208.869766 
L 277.369049 208.869766 
L 277.477732 207.836522 
L 277.52845 207.836522 
L 277.555441 205.253412 
L 277.716537 205.253412 
L 277.716537 204.73679 
L 277.84305 204.73679 
L 277.902665 202.670302 
L 278.011447 202.670302 
L 278.011447 201.637058 
L 278.314497 201.637058 
L 278.314497 200.603814 
L 278.836695 200.603814 
L 278.936832 199.053948 
L 281.306396 199.053948 
L 281.306396 198.537326 
L 289.158508 198.537326 
L 289.158508 198.020704 
L 289.415532 198.020704 
L 289.415532 197.504082 
L 289.603756 197.504082 
L 289.663777 194.40435 
L 289.905241 194.40435 
L 289.932245 193.371106 
L 290.09843 193.371106 
L 290.09843 192.854484 
L 290.594409 192.854484 
L 290.594409 191.304618 
L 291.455748 191.304618 
L 291.455748 190.787996 
L 296.616978 190.787996 
L 296.642483 188.721508 
L 296.76486 188.721508 
L 296.815413 187.688264 
L 296.952561 187.688264 
L 296.952561 186.65502 
L 301.626323 186.65502 
L 301.670968 184.07191 
L 301.808577 184.07191 
L 301.808577 183.555288 
L 302.152287 183.555288 
L 302.152287 183.038666 
L 302.608541 183.038666 
L 302.608541 182.522044 
L 305.475866 182.522044 
L 305.581545 179.938934 
L 305.646753 179.938934 
L 305.646753 179.422312 
L 305.969272 179.422312 
L 305.969272 178.90569 
L 308.788053 178.90569 
L 308.880567 176.322579 
L 309.0254 176.322579 
L 309.0254 175.805957 
L 311.489101 175.805957 
L 311.489101 175.289335 
L 311.784912 175.289335 
L 311.784912 174.772713 
L 313.864139 174.772713 
L 313.864139 174.256091 
L 313.977341 174.256091 
L 313.977341 173.739469 
L 315.942118 173.739469 
L 316.009257 172.706225 
L 316.106571 172.706225 
L 316.106571 171.672981 
L 317.795973 171.672981 
L 317.795973 171.156359 
L 321.091205 171.156359 
L 321.091205 170.639737 
L 322.503557 170.639737 
L 322.575615 169.089871 
L 323.777171 169.089871 
L 323.883418 167.540005 
L 326.152561 167.540005 
L 326.216644 166.506761 
L 329.234433 166.506761 
L 329.234433 165.990139 
L 333.425352 165.990139 
L 333.425352 164.956895 
L 334.149772 164.956895 
L 334.149772 164.440273 
L 345.373227 164.440273 
L 345.373227 163.923651 
L 358.8 163.923651 
L 358.8 163.923651 
" style="fill:none;stroke:#000080;stroke-linecap:square;stroke-width:1.5;"/>
   </g>
   <g id="line2d_43">
    <defs>
     <path d="M 0 6 
C 1.591219 6 3.117479 5.367802 4.242641 4.242641 
C 5.367802 3.117479 6 1.591219 6 0 
C 6 -1.591219 5.367802 -3.117479 4.242641 -4.242641 
C 3.117479 -5.367802 1.591219 -6 0 -6 
C -1.591219 -6 -3.117479 -5.367802 -4.242641 -4.242641 
C -5.367802 -3.117479 -6 -1.591219 -6 0 
C -6 1.591219 -5.367802 3.117479 -4.242641 4.242641 
C -3.117479 5.367802 -1.591219 6 0 6 
z
" id="m24f51699c5" style="stroke:#000080;stroke-width:1.5;"/>
    </defs>
    <g>
     <use style="fill:none;stroke:#000080;stroke-width:1.5;" x="358.8" xlink:href="#m24f51699c5" y="163.923651"/>
    </g>
   </g>
   <g id="line2d_44"/>
   <g id="line2d_45">
    <path clip-path="url(#p67727d3b4b)" d="M 276.514286 212.48612 
" style="fill:none;stroke:#000080;stroke-linecap:square;stroke-width:1.5;"/>
    <defs>
     <path d="M -12 12 
L 12 -12 
M -12 -12 
L 12 12 
" id="mc80b535c29" style="stroke:#000080;stroke-width:3;"/>
    </defs>
    <g clip-path="url(#p67727d3b4b)">
     <use style="fill:#000080;stroke:#000080;stroke-width:3;" x="276.514286" xlink:href="#mc80b535c29" y="212.48612"/>
    </g>
   </g>
   <g id="line2d_46">
    <defs>
     <path d="M 0 1.5 
C 0.397805 1.5 0.77937 1.341951 1.06066 1.06066 
C 1.341951 0.77937 1.5 0.397805 1.5 0 
C 1.5 -0.397805 1.341951 -0.77937 1.06066 -1.06066 
C 0.77937 -1.341951 0.397805 -1.5 0 -1.5 
C -0.397805 -1.5 -0.77937 -1.341951 -1.06066 -1.06066 
C -1.341951 -0.77937 -1.5 -0.397805 -1.5 0 
C -1.5 0.397805 -1.341951 0.77937 -1.06066 1.06066 
C -0.77937 1.341951 -0.397805 1.5 0 1.5 
z
" id="m29a19e3930" style="stroke:#ff00ff;"/>
    </defs>
    <g>
     <use style="fill:#ff00ff;stroke:#ff00ff;" x="354.635024" xlink:href="#m29a19e3930" y="194.920972"/>
     <use style="fill:#ff00ff;stroke:#ff00ff;" x="354.635024" xlink:href="#m29a19e3930" y="194.920972"/>
    </g>
   </g>
   <g id="line2d_47">
    <path d="M 42.042377 298.245375 
L 42.042377 261.565212 
L 136.713325 261.565212 
L 136.713325 257.948858 
L 143.958223 257.948858 
L 143.958223 257.432236 
L 156.343457 257.432236 
L 156.343457 256.398992 
L 159.097839 256.398992 
L 159.097839 255.88237 
L 161.483794 255.88237 
L 161.483794 255.365748 
L 163.588354 255.365748 
L 163.588354 254.332504 
L 168.728691 254.332504 
L 168.728691 253.815882 
L 175.973589 253.815882 
L 175.973589 253.29926 
L 178.727971 253.29926 
L 178.727971 252.782638 
L 186.254262 252.782638 
L 186.254262 251.749394 
L 188.358823 251.749394 
L 188.358823 251.232772 
L 196.253542 251.232772 
L 196.253542 249.682906 
L 196.5698 249.682906 
L 196.5698 246.583173 
L 197.781662 246.583173 
L 197.781662 245.033307 
L 202.174269 245.033307 
L 202.174269 244.516685 
L 207.141966 244.516685 
L 207.141966 242.450197 
L 211.976109 242.450197 
L 211.976109 241.933575 
L 216.714898 241.933575 
L 216.714898 241.416953 
L 218.269628 241.416953 
L 218.269628 240.900331 
L 219.088158 240.900331 
L 219.088158 239.867087 
L 220.45672 239.867087 
L 220.45672 239.350465 
L 222.62521 239.350465 
L 222.62521 238.833843 
L 222.914579 238.833843 
L 222.914579 238.317221 
L 225.264617 238.317221 
L 225.264617 237.800599 
L 225.760986 237.800599 
L 225.760986 237.283977 
L 225.882953 237.283977 
L 225.882953 236.250733 
L 226.243937 236.250733 
L 226.243937 235.217489 
L 229.600672 235.217489 
L 229.600672 234.700867 
L 231.023289 234.700867 
L 231.023289 234.184245 
L 231.428888 234.184245 
L 231.428888 233.151001 
L 231.738109 233.151001 
L 231.738109 232.634379 
L 233.248991 232.634379 
L 233.248991 230.051269 
L 235.407129 230.051269 
L 235.407129 229.534647 
L 237.074442 229.534647 
L 237.074442 229.018025 
L 238.419484 229.018025 
L 238.419484 228.501403 
L 249.410878 228.501403 
L 249.410878 227.984781 
L 254.284552 227.984781 
L 254.284552 227.468159 
L 277.95549 227.468159 
L 278.034437 224.885049 
L 278.178271 224.885049 
L 278.20755 223.851805 
L 278.379003 223.851805 
L 278.379003 223.335183 
L 279.468688 223.335183 
L 279.468688 222.818561 
L 279.69144 222.818561 
L 279.69144 222.301939 
L 279.887795 222.301939 
L 279.887795 221.785317 
L 280.058586 221.785317 
L 280.058586 221.268695 
L 289.577971 221.268695 
L 289.675756 217.652341 
L 289.856192 217.652341 
L 289.856192 216.619097 
L 290.345669 216.619097 
L 290.345669 216.102475 
L 290.759407 216.102475 
L 290.759407 215.585853 
L 296.665637 215.585853 
L 296.665637 215.069231 
L 297.3411 215.069231 
L 297.3411 214.552609 
L 301.677087 214.552609 
L 301.677087 214.035987 
L 301.806841 214.035987 
L 301.806841 213.519365 
L 302.019026 213.519365 
L 302.019026 213.002743 
L 305.586461 213.002743 
L 305.690792 211.452876 
L 305.863795 211.452876 
L 305.863795 210.936254 
L 305.999491 210.936254 
L 305.999491 210.419632 
L 308.792162 210.419632 
L 308.854267 208.869766 
L 309.024821 208.869766 
L 309.099974 207.3199 
L 309.138009 207.3199 
L 309.138009 206.803278 
L 311.509278 206.803278 
L 311.584235 205.253412 
L 313.867231 205.253412 
L 313.867231 204.220168 
L 315.949984 204.220168 
L 316.008473 203.186924 
L 322.507371 203.186924 
L 322.507371 202.15368 
L 322.628454 202.15368 
L 322.628454 201.637058 
L 325.042762 201.637058 
L 325.042762 201.120436 
L 326.28579 201.120436 
L 326.28579 200.603814 
L 327.231562 200.603814 
L 327.231562 199.57057 
L 329.320222 199.57057 
L 329.320222 199.053948 
L 331.014794 199.053948 
L 331.014794 198.537326 
L 331.817367 198.537326 
L 331.913371 197.504082 
L 332.608513 197.504082 
L 332.608513 196.98746 
L 334.092887 196.98746 
L 334.092887 196.470838 
L 339.05439 196.470838 
L 339.05439 195.954216 
L 345.387995 195.954216 
L 345.387995 195.437594 
L 354.635024 195.437594 
L 354.635024 194.920972 
L 358.8 194.920972 
L 358.8 194.920972 
" style="fill:none;stroke:#ff00ff;stroke-linecap:square;stroke-width:1.5;"/>
   </g>
   <g id="line2d_48">
    <defs>
     <path d="M -0 8.485281 
L 5.091169 0 
L 0 -8.485281 
L -5.091169 -0 
z
" id="mc169de194c" style="stroke:#ff00ff;stroke-linejoin:miter;stroke-width:1.5;"/>
    </defs>
    <g>
     <use style="fill:none;stroke:#ff00ff;stroke-linejoin:miter;stroke-width:1.5;" x="358.8" xlink:href="#mc169de194c" y="194.920972"/>
    </g>
   </g>
   <g id="line2d_49"/>
   <g id="line2d_50">
    <path clip-path="url(#p67727d3b4b)" d="M 276.514286 227.468159 
" style="fill:none;stroke:#ff00ff;stroke-linecap:square;stroke-width:1.5;"/>
    <defs>
     <path d="M -12 12 
L 12 -12 
M -12 -12 
L 12 12 
" id="m75b1c89a14" style="stroke:#ff00ff;stroke-width:3;"/>
    </defs>
    <g clip-path="url(#p67727d3b4b)">
     <use style="fill:#ff00ff;stroke:#ff00ff;stroke-width:3;" x="276.514286" xlink:href="#m75b1c89a14" y="227.468159"/>
    </g>
   </g>
   <g id="line2d_51">
    <defs>
     <path d="M 0 1.5 
C 0.397805 1.5 0.77937 1.341951 1.06066 1.06066 
C 1.341951 0.77937 1.5 0.397805 1.5 0 
C 1.5 -0.397805 1.341951 -0.77937 1.06066 -1.06066 
C 0.77937 -1.341951 0.397805 -1.5 0 -1.5 
C -0.397805 -1.5 -0.77937 -1.341951 -1.06066 -1.06066 
C -1.341951 -0.77937 -1.5 -0.397805 -1.5 0 
C -1.5 0.397805 -1.341951 0.77937 -1.06066 1.06066 
C -0.77937 1.341951 -0.397805 1.5 0 1.5 
z
" id="me89c18f05c" style="stroke:#ffa500;"/>
    </defs>
    <g>
     <use style="fill:#ffa500;stroke:#ffa500;" x="338.534352" xlink:href="#me89c18f05c" y="70.931688"/>
     <use style="fill:#ffa500;stroke:#ffa500;" x="338.534352" xlink:href="#me89c18f05c" y="70.931688"/>
    </g>
   </g>
   <g id="line2d_52">
    <path d="M 42.042377 298.245375 
L 42.042377 269.314542 
L 136.713325 269.314542 
L 136.713325 267.764676 
L 143.958223 267.764676 
L 143.958223 266.21481 
L 149.098559 266.21481 
L 149.098559 265.698188 
L 153.085714 265.698188 
L 153.085714 264.664944 
L 156.343457 264.664944 
L 156.343457 262.598456 
L 159.097839 262.598456 
L 159.097839 261.565212 
L 163.588354 261.565212 
L 163.588354 261.04859 
L 171.483073 261.04859 
L 171.483073 260.531968 
L 173.869028 260.531968 
L 173.869028 260.015346 
L 175.973589 260.015346 
L 175.973589 259.498724 
L 179.559196 259.498724 
L 179.559196 258.982102 
L 181.843337 258.982102 
L 181.843337 258.46548 
L 189.789035 258.46548 
L 189.789035 257.432236 
L 194.582407 257.432236 
L 194.582407 254.849126 
L 195.269727 254.849126 
L 195.269727 254.332504 
L 195.60372 254.332504 
L 195.60372 253.29926 
L 195.931585 253.29926 
L 195.931585 252.782638 
L 196.253542 252.782638 
L 196.253542 251.749394 
L 196.880557 251.749394 
L 196.880557 251.232772 
L 198.072206 251.232772 
L 198.072206 250.199528 
L 198.916526 250.199528 
L 198.916526 249.682906 
L 199.458026 249.682906 
L 199.458026 248.13304 
L 200.990517 248.13304 
L 200.990517 247.616418 
L 201.94371 247.616418 
L 201.94371 246.583173 
L 204.125455 246.583173 
L 204.125455 246.066551 
L 204.329664 246.066551 
L 204.329664 245.033307 
L 204.731212 245.033307 
L 204.731212 244.516685 
L 205.317104 244.516685 
L 205.317104 243.483441 
L 206.613806 243.483441 
L 206.613806 242.450197 
L 210.884587 242.450197 
L 210.884587 241.933575 
L 212.368831 241.933575 
L 212.368831 241.416953 
L 213.129291 241.416953 
L 213.129291 240.900331 
L 213.252946 240.900331 
L 213.252946 239.350465 
L 213.618859 239.350465 
L 213.618859 238.833843 
L 213.739183 238.833843 
L 213.739183 237.283977 
L 214.559503 237.283977 
L 214.559503 236.767355 
L 215.123213 236.767355 
L 215.233852 234.184245 
L 216.510689 234.184245 
L 216.510689 233.667623 
L 216.9168 233.667623 
L 216.9168 232.634379 
L 217.215438 232.634379 
L 217.215438 232.117757 
L 217.509167 232.117757 
L 217.509167 231.601135 
L 217.893443 231.601135 
L 217.893443 230.567891 
L 218.546658 230.567891 
L 218.546658 230.051269 
L 218.99904 230.051269 
L 218.99904 228.501403 
L 223.199336 228.501403 
L 223.199336 227.984781 
L 223.409964 227.984781 
L 223.409964 227.468159 
L 224.754065 227.468159 
L 224.754065 226.951537 
L 224.947236 226.951537 
L 224.947236 226.434915 
L 225.390008 226.434915 
L 225.390008 225.918293 
L 225.63818 225.918293 
L 225.63818 225.401671 
L 226.124418 225.401671 
L 226.124418 224.885049 
L 227.94695 224.885049 
L 228.001014 223.851805 
L 228.427736 223.851805 
L 228.427736 223.335183 
L 229.150822 223.335183 
L 229.150822 222.301939 
L 230.326135 222.301939 
L 230.326135 221.785317 
L 230.467759 221.785317 
L 230.467759 221.268695 
L 230.886018 221.268695 
L 230.977649 219.718829 
L 231.294709 219.718829 
L 231.384274 218.168963 
L 231.428888 218.168963 
L 231.428888 217.135719 
L 231.562067 217.135719 
L 231.562067 216.619097 
L 231.738109 216.619097 
L 231.738109 216.102475 
L 231.869012 216.102475 
L 231.869012 215.069231 
L 232.509515 215.069231 
L 232.509515 214.552609 
L 232.676508 214.552609 
L 232.676508 214.035987 
L 232.924107 214.035987 
L 232.924107 213.519365 
L 233.168322 213.519365 
L 233.168322 213.002743 
L 233.409244 213.002743 
L 233.449084 209.90301 
L 234.716312 209.90301 
L 234.716312 209.386388 
L 237.33247 209.386388 
L 237.33247 208.353144 
L 238.32886 208.353144 
L 238.32886 207.836522 
L 238.449591 207.836522 
L 238.449591 207.3199 
L 238.747897 207.3199 
L 238.747897 206.803278 
L 240.169004 206.803278 
L 240.169004 206.286656 
L 240.944257 206.286656 
L 240.944257 205.770034 
L 241.100539 205.770034 
L 241.152331 204.220168 
L 241.358009 204.220168 
L 241.358009 203.186924 
L 242.711369 203.186924 
L 242.711369 202.15368 
L 243.225259 202.15368 
L 243.225259 201.637058 
L 243.4313 201.637058 
L 243.499456 199.57057 
L 243.589927 199.57057 
L 243.657482 197.504082 
L 246.632047 197.504082 
L 246.708001 196.470838 
L 246.745857 196.470838 
L 246.802491 194.920972 
L 247.522854 194.920972 
L 247.522854 194.40435 
L 249.148348 194.40435 
L 249.148348 193.887728 
L 249.296496 193.887728 
L 249.378272 191.82124 
L 250.698945 191.82124 
L 250.698945 190.787996 
L 251.014405 190.787996 
L 251.014405 189.754752 
L 252.320485 189.754752 
L 252.389554 188.204886 
L 254.284552 188.204886 
L 254.284552 187.688264 
L 254.82198 187.688264 
L 254.82198 187.171642 
L 257.132573 187.171642 
L 257.132573 186.65502 
L 277.125521 186.65502 
L 277.125521 186.138398 
L 277.406483 186.138398 
L 277.51156 184.588532 
L 277.541951 184.588532 
L 277.541951 184.07191 
L 277.733235 184.07191 
L 277.823133 182.522044 
L 277.882815 182.522044 
L 277.97526 178.90569 
L 278.05084 178.90569 
L 278.05084 178.389067 
L 278.171759 178.389067 
L 278.171759 177.872445 
L 278.333873 177.872445 
L 278.333873 177.355823 
L 278.520101 177.355823 
L 278.539256 174.256091 
L 278.688595 174.256091 
L 278.71073 171.672981 
L 278.817857 171.672981 
L 278.827279 170.639737 
L 279.129265 170.639737 
L 279.150861 169.606493 
L 279.298253 169.606493 
L 279.310481 168.573249 
L 279.477773 168.573249 
L 279.477773 167.540005 
L 279.589439 167.540005 
L 279.610487 165.990139 
L 279.733272 165.990139 
L 279.75117 163.923651 
L 279.91145 163.923651 
L 279.92917 161.857163 
L 280.03806 161.857163 
L 280.052724 160.823919 
L 280.181251 160.823919 
L 280.181251 160.307297 
L 280.357921 160.307297 
L 280.357921 159.274053 
L 280.549976 159.274053 
L 280.632468 158.240809 
L 289.42421 158.240809 
L 289.519387 157.207565 
L 289.559038 157.207565 
L 289.662064 154.624455 
L 289.90693 154.624455 
L 289.947417 151.008101 
L 290.080041 151.008101 
L 290.100101 148.941613 
L 290.234918 148.941613 
L 290.266394 147.391747 
L 290.352259 147.391747 
L 290.352259 146.875125 
L 290.503171 146.875125 
L 290.581404 142.225526 
L 290.733625 142.225526 
L 290.826906 140.67566 
L 291.069082 140.67566 
L 291.069082 140.159038 
L 291.373481 140.159038 
L 291.373481 139.642416 
L 296.604213 139.642416 
L 296.714163 138.09255 
L 296.822295 138.09255 
L 296.906962 135.50944 
L 296.940033 135.50944 
L 297.045678 132.92633 
L 297.067185 132.92633 
L 297.067185 132.409708 
L 297.18782 132.409708 
L 297.261827 128.793354 
L 297.356689 128.793354 
L 297.397826 127.243488 
L 297.581226 127.243488 
L 297.581226 126.726866 
L 297.783424 126.726866 
L 297.783424 126.210244 
L 301.549025 126.210244 
L 301.648222 125.177 
L 301.661348 125.177 
L 301.670094 124.143756 
L 301.804238 124.143756 
L 301.889081 122.59389 
L 301.972664 122.59389 
L 302.022455 121.560646 
L 302.104564 121.560646 
L 302.110536 120.01078 
L 302.22533 120.01078 
L 302.234651 118.460914 
L 302.402443 118.460914 
L 302.402443 117.944292 
L 302.527887 117.944292 
L 302.527887 117.42767 
L 305.573816 117.42767 
L 305.681713 115.361182 
L 305.75769 115.361182 
L 305.867251 113.294694 
L 305.933494 113.294694 
L 305.93556 112.26145 
L 308.766906 112.26145 
L 308.794509 111.228206 
L 308.936545 111.228206 
L 308.99525 107.611851 
L 309.080349 107.611851 
L 309.167344 106.061985 
L 309.195483 106.061985 
L 309.268781 104.512119 
L 311.629359 104.512119 
L 311.711293 100.895765 
L 311.760075 100.895765 
L 311.834484 98.312655 
L 313.868999 98.312655 
L 313.977341 96.246167 
L 314.044395 96.246167 
L 314.150378 93.663057 
L 316.045665 93.663057 
L 316.071459 91.596569 
L 316.204134 91.596569 
L 316.204134 91.079947 
L 317.763321 91.079947 
L 317.86428 89.530081 
L 318.006423 89.530081 
L 318.006423 89.013459 
L 319.580679 89.013459 
L 319.584209 87.980215 
L 319.710488 87.980215 
L 319.77631 86.946971 
L 321.119491 86.946971 
L 321.119491 86.430349 
L 321.268721 86.430349 
L 321.268721 85.913727 
L 322.602461 85.913727 
L 322.642248 84.363861 
L 323.745173 84.363861 
L 323.845545 83.330617 
L 323.866259 83.330617 
L 323.972982 81.780751 
L 323.989789 81.780751 
L 323.989789 81.264129 
L 325.15962 81.264129 
L 325.201371 80.230885 
L 327.273963 80.230885 
L 327.366146 78.681019 
L 329.33008 78.681019 
L 329.362592 77.131153 
L 330.234495 77.131153 
L 330.234495 76.614531 
L 331.015132 76.614531 
L 331.015132 76.097908 
L 331.84178 76.097908 
L 331.84178 75.581286 
L 333.415295 75.581286 
L 333.415295 75.064664 
L 334.184666 75.064664 
L 334.184666 74.548042 
L 335.554802 74.548042 
L 335.554802 74.03142 
L 336.776888 74.03142 
L 336.814233 72.998176 
L 337.402213 72.998176 
L 337.402213 72.481554 
L 338.526907 72.481554 
L 338.534352 70.931688 
L 358.8 70.931688 
L 358.8 70.931688 
" style="fill:none;stroke:#ffa500;stroke-linecap:square;stroke-width:1.5;"/>
   </g>
   <g id="line2d_53">
    <defs>
     <path d="M 0 -6 
L -1.347084 -1.854102 
L -5.706339 -1.854102 
L -2.179628 0.708204 
L -3.526712 4.854102 
L -0 2.291796 
L 3.526712 4.854102 
L 2.179628 0.708204 
L 5.706339 -1.854102 
L 1.347084 -1.854102 
z
" id="m0c70a6e692" style="stroke:#ffa500;stroke-linejoin:bevel;stroke-width:1.5;"/>
    </defs>
    <g>
     <use style="fill:none;stroke:#ffa500;stroke-linejoin:bevel;stroke-width:1.5;" x="358.8" xlink:href="#m0c70a6e692" y="70.931688"/>
    </g>
   </g>
   <g id="line2d_54"/>
   <g id="line2d_55">
    <path clip-path="url(#p67727d3b4b)" d="M 276.514286 186.65502 
" style="fill:none;stroke:#ffa500;stroke-linecap:square;stroke-width:1.5;"/>
    <defs>
     <path d="M -12 12 
L 12 -12 
M -12 -12 
L 12 12 
" id="m2727a93651" style="stroke:#ffa500;stroke-width:3;"/>
    </defs>
    <g clip-path="url(#p67727d3b4b)">
     <use style="fill:#ffa500;stroke:#ffa500;stroke-width:3;" x="276.514286" xlink:href="#m2727a93651" y="186.65502"/>
    </g>
   </g>
   <g id="line2d_56">
    <defs>
     <path d="M 0 1.5 
C 0.397805 1.5 0.77937 1.341951 1.06066 1.06066 
C 1.341951 0.77937 1.5 0.397805 1.5 0 
C 1.5 -0.397805 1.341951 -0.77937 1.06066 -1.06066 
C 0.77937 -1.341951 0.397805 -1.5 0 -1.5 
C -0.397805 -1.5 -0.77937 -1.341951 -1.06066 -1.06066 
C -1.341951 -0.77937 -1.5 -0.397805 -1.5 0 
C -1.5 0.397805 -1.341951 0.77937 -1.06066 1.06066 
C -0.77937 1.341951 -0.397805 1.5 0 1.5 
z
" id="m9f3dfac02b" style="stroke:#6495ed;"/>
    </defs>
    <g>
     <use style="fill:#6495ed;stroke:#6495ed;" x="335.493799" xlink:href="#m9f3dfac02b" y="96.762789"/>
     <use style="fill:#6495ed;stroke:#6495ed;" x="335.493799" xlink:href="#m9f3dfac02b" y="96.762789"/>
    </g>
   </g>
   <g id="line2d_57">
    <path d="M 42.042377 298.245375 
L 42.042377 256.915614 
L 136.713325 256.915614 
L 136.713325 251.749394 
L 143.958223 251.749394 
L 143.958223 248.649662 
L 149.098559 248.649662 
L 149.098559 247.099796 
L 153.085714 247.099796 
L 153.085714 244.516685 
L 156.343457 244.516685 
L 156.343457 243.483441 
L 159.097839 243.483441 
L 159.097839 241.933575 
L 161.483794 241.933575 
L 161.483794 240.900331 
L 165.470948 240.900331 
L 165.470948 240.383709 
L 171.483073 240.383709 
L 171.483073 239.350465 
L 174.952275 239.350465 
L 174.952275 238.317221 
L 179.559196 238.317221 
L 179.559196 237.283977 
L 181.113925 237.283977 
L 181.113925 236.767355 
L 185.10108 236.767355 
L 185.10108 236.250733 
L 186.254262 236.250733 
L 186.254262 235.734111 
L 187.855462 235.734111 
L 187.855462 234.700867 
L 188.848391 234.700867 
L 188.848391 233.667623 
L 196.253542 233.667623 
L 196.253542 233.151001 
L 196.880557 233.151001 
L 196.880557 232.634379 
L 198.358102 232.634379 
L 198.358102 232.117757 
L 203.498439 232.117757 
L 203.498439 231.601135 
L 204.928651 231.601135 
L 204.928651 231.084513 
L 206.791599 231.084513 
L 206.791599 230.567891 
L 206.967641 230.567891 
L 206.967641 230.051269 
L 207.485594 230.051269 
L 207.485594 229.534647 
L 210.884587 229.534647 
L 210.884587 227.984781 
L 211.02473 227.984781 
L 211.02473 227.468159 
L 211.301761 227.468159 
L 211.301761 226.951537 
L 211.84326 226.951537 
L 211.84326 226.434915 
L 211.976109 226.434915 
L 211.976109 225.918293 
L 212.368831 225.918293 
L 212.368831 224.368427 
L 212.62593 224.368427 
L 212.62593 222.818561 
L 212.753106 222.818561 
L 212.753106 222.301939 
L 213.375752 222.301939 
L 213.375752 221.785317 
L 213.497719 221.785317 
L 213.497719 220.752073 
L 213.618859 220.752073 
L 213.618859 219.718829 
L 213.739183 219.718829 
L 213.739183 217.135719 
L 217.016902 217.135719 
L 217.016902 216.619097 
L 217.893443 216.619097 
L 217.893443 215.069231 
L 218.176321 215.069231 
L 218.269628 214.035987 
L 218.728987 214.035987 
L 218.728987 213.002743 
L 222.405066 213.002743 
L 222.478749 209.90301 
L 223.128571 209.90301 
L 223.128571 208.869766 
L 223.269821 208.869766 
L 223.269821 208.353144 
L 223.618139 208.353144 
L 223.618139 207.3199 
L 223.755586 207.3199 
L 223.755586 206.803278 
L 224.361343 206.803278 
L 224.361343 206.286656 
L 225.074866 206.286656 
L 225.074866 205.770034 
L 225.264617 205.770034 
L 225.264617 205.253412 
L 225.514525 205.253412 
L 225.514525 204.73679 
L 225.699689 204.73679 
L 225.760986 203.186924 
L 226.004093 203.186924 
L 226.064357 201.637058 
L 226.124418 201.637058 
L 226.184277 199.57057 
L 226.243937 199.57057 
L 226.243937 199.053948 
L 226.362663 199.053948 
L 226.362663 197.504082 
L 227.838329 197.504082 
L 227.838329 196.98746 
L 228.268907 196.98746 
L 228.268907 196.470838 
L 228.585165 196.470838 
L 228.689353 194.920972 
L 228.947195 194.920972 
L 228.947195 194.40435 
L 230.608269 194.40435 
L 230.608269 193.887728 
L 230.886018 193.887728 
L 230.886018 192.854484 
L 231.114222 192.854484 
L 231.114222 192.337862 
L 231.249758 192.337862 
L 231.249758 191.82124 
L 231.384274 191.82124 
L 231.384274 191.304618 
L 231.650305 191.304618 
L 231.650305 190.787996 
L 232.340946 190.787996 
L 232.340946 190.271374 
L 232.593206 190.271374 
L 232.593206 189.754752 
L 233.046632 189.754752 
L 233.12785 188.204886 
L 233.488835 188.204886 
L 233.488835 187.171642 
L 234.189635 187.171642 
L 234.189635 185.105154 
L 235.010444 185.105154 
L 235.010444 184.588532 
L 235.191848 184.588532 
L 235.299813 183.038666 
L 235.371429 183.038666 
L 235.478317 182.005422 
L 236.003373 182.005422 
L 236.003373 181.4888 
L 236.713458 181.4888 
L 236.713458 180.455556 
L 236.84557 180.455556 
L 236.84557 179.938934 
L 236.976713 179.938934 
L 236.976713 178.389067 
L 238.569511 178.389067 
L 238.569511 177.872445 
L 240.141662 177.872445 
L 240.141662 177.355823 
L 240.733732 177.355823 
L 240.733732 176.839201 
L 240.865601 176.839201 
L 240.865601 176.322579 
L 241.100539 176.322579 
L 241.100539 175.805957 
L 241.281157 175.805957 
L 241.358009 174.772713 
L 242.108881 174.772713 
L 242.108881 174.256091 
L 242.303896 174.256091 
L 242.400612 172.706225 
L 244.167084 172.706225 
L 244.167084 172.189603 
L 244.513209 172.189603 
L 244.598702 170.123115 
L 244.999302 170.123115 
L 244.999302 168.573249 
L 245.854204 168.573249 
L 245.854204 168.056627 
L 246.952645 168.056627 
L 246.952645 167.540005 
L 248.628451 167.540005 
L 248.628451 167.023383 
L 250.066516 167.023383 
L 250.066516 166.506761 
L 276.646023 166.506761 
L 276.646023 165.990139 
L 277.035505 165.990139 
L 277.035505 165.473517 
L 277.413281 165.473517 
L 277.518318 162.373785 
L 277.541951 162.373785 
L 277.555441 160.823919 
L 277.676399 160.823919 
L 277.719878 159.790675 
L 277.925796 159.790675 
L 278.031154 158.757431 
L 278.041 158.757431 
L 278.113035 157.724187 
L 278.184782 157.724187 
L 278.275681 156.174321 
L 278.346779 156.174321 
L 278.388658 153.591211 
L 278.545636 153.591211 
L 278.545636 152.557967 
L 278.776973 152.557967 
L 278.852379 149.458235 
L 278.996024 149.458235 
L 279.008461 148.424991 
L 279.221638 148.424991 
L 279.221638 147.908369 
L 279.44444 147.908369 
L 279.468688 145.325259 
L 279.640513 145.325259 
L 279.640513 144.808637 
L 279.920312 144.808637 
L 279.920312 143.775392 
L 280.632468 143.775392 
L 280.632468 143.25877 
L 289.399902 143.25877 
L 289.399902 142.742148 
L 289.590009 142.742148 
L 289.590009 142.225526 
L 289.762797 142.225526 
L 289.839248 140.159038 
L 290.029793 140.159038 
L 290.101771 138.09255 
L 290.156814 138.09255 
L 290.190092 136.026062 
L 290.330832 136.026062 
L 290.437714 134.476196 
L 291.076993 134.476196 
L 291.076993 133.959574 
L 296.594923 133.959574 
L 296.647116 132.92633 
L 296.725698 132.92633 
L 296.751048 131.376464 
L 296.954838 131.376464 
L 297.005992 128.793354 
L 297.073971 128.793354 
L 297.184449 127.76011 
L 297.288663 127.76011 
L 297.288663 127.243488 
L 301.663098 127.243488 
L 301.760795 124.143756 
L 301.88217 124.143756 
L 301.986413 121.560646 
L 302.00101 121.560646 
L 302.00101 121.044024 
L 305.602606 121.044024 
L 305.653051 119.494158 
L 305.732633 119.494158 
L 305.751429 117.42767 
L 305.897643 117.42767 
L 305.897643 116.911048 
L 308.772783 116.911048 
L 308.850172 115.877804 
L 308.93014 115.877804 
L 309.026558 112.26145 
L 309.052606 112.26145 
L 309.052606 111.744828 
L 309.285346 111.744828 
L 309.285346 111.228206 
L 311.636868 111.228206 
L 311.696832 110.194961 
L 311.765542 110.194961 
L 311.765542 109.678339 
L 314.024262 109.678339 
L 314.067128 108.128473 
L 315.971989 108.128473 
L 316.049576 106.061985 
L 316.102673 106.061985 
L 316.102673 105.545363 
L 317.849084 105.545363 
L 317.849084 105.028741 
L 317.975558 105.028741 
L 317.975558 104.512119 
L 319.527654 104.512119 
L 319.618504 103.478875 
L 319.77631 103.478875 
L 319.77631 102.962253 
L 322.63143 102.962253 
L 322.63143 102.445631 
L 323.84605 102.445631 
L 323.935299 100.895765 
L 325.099637 100.895765 
L 325.099637 100.379143 
L 327.312933 100.379143 
L 327.312933 99.862521 
L 329.282041 99.862521 
L 329.282041 99.345899 
L 331.055528 99.345899 
L 331.055528 98.829277 
L 331.875031 98.829277 
L 331.875031 98.312655 
L 332.668775 98.312655 
L 332.668775 97.796033 
L 333.492061 97.796033 
L 333.492061 97.279411 
L 335.493799 97.279411 
L 335.493799 96.762789 
L 358.8 96.762789 
L 358.8 96.762789 
" style="fill:none;stroke:#6495ed;stroke-linecap:square;stroke-width:1.5;"/>
   </g>
   <g id="line2d_58">
    <defs>
     <path d="M -0 6 
L 6 -6 
L -6 -6 
z
" id="m415e450c58" style="stroke:#6495ed;stroke-linejoin:miter;stroke-width:1.5;"/>
    </defs>
    <g>
     <use style="fill:none;stroke:#6495ed;stroke-linejoin:miter;stroke-width:1.5;" x="358.8" xlink:href="#m415e450c58" y="96.762789"/>
    </g>
   </g>
   <g id="line2d_59"/>
   <g id="line2d_60">
    <path clip-path="url(#p67727d3b4b)" d="M 276.514286 166.506761 
" style="fill:none;stroke:#6495ed;stroke-linecap:square;stroke-width:1.5;"/>
    <defs>
     <path d="M -12 12 
L 12 -12 
M -12 -12 
L 12 12 
" id="mc315637d44" style="stroke:#6495ed;stroke-width:3;"/>
    </defs>
    <g clip-path="url(#p67727d3b4b)">
     <use style="fill:#6495ed;stroke:#6495ed;stroke-width:3;" x="276.514286" xlink:href="#mc315637d44" y="166.506761"/>
    </g>
   </g>
   <g id="line2d_61">
    <defs>
     <path d="M 0 1.5 
C 0.397805 1.5 0.77937 1.341951 1.06066 1.06066 
C 1.341951 0.77937 1.5 0.397805 1.5 0 
C 1.5 -0.397805 1.341951 -0.77937 1.06066 -1.06066 
C 0.77937 -1.341951 0.397805 -1.5 0 -1.5 
C -0.397805 -1.5 -0.77937 -1.341951 -1.06066 -1.06066 
C -1.341951 -0.77937 -1.5 -0.397805 -1.5 0 
C -1.5 0.397805 -1.341951 0.77937 -1.06066 1.06066 
C -0.77937 1.341951 -0.397805 1.5 0 1.5 
z
" id="mcca4a9bfe5" style="stroke:#ff0000;"/>
    </defs>
    <g>
     <use style="fill:#ff0000;stroke:#ff0000;" x="336.105608" xlink:href="#mcca4a9bfe5" y="241.416953"/>
     <use style="fill:#ff0000;stroke:#ff0000;" x="336.105608" xlink:href="#mcca4a9bfe5" y="241.416953"/>
    </g>
   </g>
   <g id="line2d_62">
    <path d="M 42.042377 298.245375 
L 42.042377 288.946179 
L 136.713325 288.946179 
L 136.713325 284.813203 
L 143.958223 284.813203 
L 143.958223 282.746715 
L 149.098559 282.746715 
L 149.098559 281.713471 
L 153.085714 281.713471 
L 153.085714 280.163604 
L 156.343457 280.163604 
L 156.343457 277.063872 
L 159.097839 277.063872 
L 159.097839 276.54725 
L 163.588354 276.54725 
L 163.588354 276.030628 
L 168.728691 276.030628 
L 168.728691 274.480762 
L 170.158903 274.480762 
L 170.158903 273.96414 
L 171.483073 273.96414 
L 171.483073 273.447518 
L 186.254262 273.447518 
L 186.254262 271.38103 
L 196.253542 271.38103 
L 196.253542 270.864408 
L 197.186003 270.864408 
L 197.186003 270.347786 
L 197.781662 270.347786 
L 197.781662 267.764676 
L 202.174269 267.764676 
L 202.174269 267.248054 
L 203.709898 267.248054 
L 203.709898 266.731432 
L 206.069557 266.731432 
L 206.069557 266.21481 
L 211.438682 266.21481 
L 211.438682 265.698188 
L 212.62593 265.698188 
L 212.62593 263.6317 
L 214.899859 263.6317 
L 214.899859 263.115078 
L 215.233852 263.115078 
L 215.233852 262.598456 
L 217.893443 262.598456 
L 217.893443 262.081834 
L 224.689208 262.081834 
L 224.689208 261.565212 
L 225.327423 261.565212 
L 225.327423 261.04859 
L 225.57646 261.04859 
L 225.57646 260.531968 
L 225.943626 260.531968 
L 225.943626 260.015346 
L 227.45287 260.015346 
L 227.45287 259.498724 
L 230.793914 259.498724 
L 230.793914 258.982102 
L 230.931892 258.982102 
L 230.931892 258.46548 
L 231.249758 258.46548 
L 231.249758 257.948858 
L 232.800736 257.948858 
L 232.800736 256.915614 
L 233.248991 256.915614 
L 233.248991 256.398992 
L 234.716312 256.398992 
L 234.716312 255.88237 
L 235.299813 255.88237 
L 235.299813 255.365748 
L 236.243217 255.365748 
L 236.243217 253.815882 
L 256.682902 253.815882 
L 256.682902 252.782638 
L 277.892743 252.782638 
L 277.892743 251.749394 
L 277.968672 251.749394 
L 277.968672 251.232772 
L 278.034437 251.232772 
L 278.034437 250.71615 
L 289.952471 250.71615 
L 289.952471 250.199528 
L 296.853234 250.199528 
L 296.853234 249.682906 
L 301.639465 249.682906 
L 301.639465 249.166284 
L 301.818985 249.166284 
L 301.818985 248.649662 
L 305.700564 248.649662 
L 305.700564 248.13304 
L 311.487587 248.13304 
L 311.487587 247.616418 
L 313.9391 247.616418 
L 313.9391 246.583173 
L 321.033907 246.583173 
L 321.033907 246.066551 
L 322.454992 246.066551 
L 322.454992 245.549929 
L 323.823542 245.549929 
L 323.823542 245.033307 
L 327.265616 245.033307 
L 327.265616 244.000063 
L 330.982274 244.000063 
L 330.982274 243.483441 
L 334.116089 243.483441 
L 334.116089 242.966819 
L 334.785363 242.966819 
L 334.785363 242.450197 
L 335.457677 242.450197 
L 335.457677 241.933575 
L 336.105608 241.933575 
L 336.105608 241.416953 
L 358.8 241.416953 
" style="fill:none;stroke:#ff0000;stroke-linecap:square;stroke-width:1.5;"/>
   </g>
   <g id="line2d_63">
    <defs>
     <path d="M 0 -6 
L -5.196152 -3 
L -5.196152 3 
L -0 6 
L 5.196152 3 
L 5.196152 -3 
z
" id="m366810cff9" style="stroke:#ff0000;stroke-linejoin:miter;stroke-width:1.5;"/>
    </defs>
    <g>
     <use style="fill:none;stroke:#ff0000;stroke-linejoin:miter;stroke-width:1.5;" x="358.8" xlink:href="#m366810cff9" y="241.416953"/>
    </g>
   </g>
   <g id="line2d_64"/>
   <g id="line2d_65">
    <path clip-path="url(#p67727d3b4b)" d="M 276.514286 252.782638 
" style="fill:none;stroke:#ff0000;stroke-linecap:square;stroke-width:1.5;"/>
    <defs>
     <path d="M -12 12 
L 12 -12 
M -12 -12 
L 12 12 
" id="m8ab1d06b18" style="stroke:#ff0000;stroke-width:3;"/>
    </defs>
    <g clip-path="url(#p67727d3b4b)">
     <use style="fill:#ff0000;stroke:#ff0000;stroke-width:3;" x="276.514286" xlink:href="#m8ab1d06b18" y="252.782638"/>
    </g>
   </g>
   <g id="line2d_66">
    <path d="M 358.8 241.416953 
L 390.48 292.97583 
" style="fill:none;stroke:#ff0000;stroke-linecap:square;stroke-width:1.5;"/>
    <g>
     <use style="fill:none;stroke:#ff0000;stroke-linejoin:miter;stroke-width:1.5;" x="358.8" xlink:href="#m366810cff9" y="241.416953"/>
     <use style="fill:none;stroke:#ff0000;stroke-linejoin:miter;stroke-width:1.5;" x="390.48" xlink:href="#m366810cff9" y="292.97583"/>
    </g>
   </g>
   <g id="line2d_67">
    <path d="M 358.8 194.920972 
L 390.48 229.741296 
" style="fill:none;stroke:#ff00ff;stroke-linecap:square;stroke-width:1.5;"/>
    <g>
     <use style="fill:none;stroke:#ff00ff;stroke-linejoin:miter;stroke-width:1.5;" x="358.8" xlink:href="#mc169de194c" y="194.920972"/>
     <use style="fill:none;stroke:#ff00ff;stroke-linejoin:miter;stroke-width:1.5;" x="390.48" xlink:href="#mc169de194c" y="229.741296"/>
    </g>
   </g>
   <g id="line2d_68">
    <path d="M 358.8 163.923651 
L 390.48 166.506761 
" style="fill:none;stroke:#000080;stroke-linecap:square;stroke-width:1.5;"/>
    <g>
     <use style="fill:none;stroke:#000080;stroke-width:1.5;" x="358.8" xlink:href="#m24f51699c5" y="163.923651"/>
     <use style="fill:none;stroke:#000080;stroke-width:1.5;" x="390.48" xlink:href="#m24f51699c5" y="166.506761"/>
    </g>
   </g>
   <g id="line2d_69">
    <path d="M 358.8 96.762789 
L 390.48 103.272226 
" style="fill:none;stroke:#6495ed;stroke-linecap:square;stroke-width:1.5;"/>
    <g>
     <use style="fill:none;stroke:#6495ed;stroke-linejoin:miter;stroke-width:1.5;" x="358.8" xlink:href="#m415e450c58" y="96.762789"/>
     <use style="fill:none;stroke:#6495ed;stroke-linejoin:miter;stroke-width:1.5;" x="390.48" xlink:href="#m415e450c58" y="103.272226"/>
    </g>
   </g>
   <g id="line2d_70">
    <path d="M 358.8 70.931688 
L 390.48 40.037692 
" style="fill:none;stroke:#ffa500;stroke-linecap:square;stroke-width:1.5;"/>
    <g>
     <use style="fill:none;stroke:#ffa500;stroke-linejoin:bevel;stroke-width:1.5;" x="358.8" xlink:href="#m0c70a6e692" y="70.931688"/>
     <use style="fill:none;stroke:#ffa500;stroke-linejoin:bevel;stroke-width:1.5;" x="390.48" xlink:href="#m0c70a6e692" y="40.037692"/>
    </g>
   </g>
   <g id="line2d_71">
    <path d="M 358.8 298.245375 
L 358.8 34.768147 
" style="fill:none;stroke:#000000;stroke-linecap:square;stroke-width:1.5;"/>
   </g>
   <g id="patch_3">
    <path d="M 70.8 298.245375 
L 70.8 32.133375 
" style="fill:none;stroke:#000000;stroke-linecap:square;stroke-linejoin:miter;stroke-width:0.8;"/>
   </g>
   <g id="patch_4">
    <path d="M 427.92 298.245375 
L 427.92 32.133375 
" style="fill:none;stroke:#000000;stroke-linecap:square;stroke-linejoin:miter;stroke-width:0.8;"/>
   </g>
   <g id="patch_5">
    <path d="M 70.8 298.245375 
L 427.92 298.245375 
" style="fill:none;stroke:#000000;stroke-linecap:square;stroke-linejoin:miter;stroke-width:0.8;"/>
   </g>
   <g id="patch_6">
    <path d="M 70.8 32.133375 
L 427.92 32.133375 
" style="fill:none;stroke:#000000;stroke-linecap:square;stroke-linejoin:miter;stroke-width:0.8;"/>
   </g>
   <g id="text_14">
    <!-- f15 -->
    <defs>
     <path d="M 10.796875 72.90625 
L 49.515625 72.90625 
L 49.515625 64.59375 
L 19.828125 64.59375 
L 19.828125 46.734375 
Q 21.96875 47.46875 24.109375 47.828125 
Q 26.265625 48.1875 28.421875 48.1875 
Q 40.625 48.1875 47.75 41.5 
Q 54.890625 34.8125 54.890625 23.390625 
Q 54.890625 11.625 47.5625 5.09375 
Q 40.234375 -1.421875 26.90625 -1.421875 
Q 22.3125 -1.421875 17.546875 -0.640625 
Q 12.796875 0.140625 7.71875 1.703125 
L 7.71875 11.625 
Q 12.109375 9.234375 16.796875 8.0625 
Q 21.484375 6.890625 26.703125 6.890625 
Q 35.15625 6.890625 40.078125 11.328125 
Q 45.015625 15.765625 45.015625 23.390625 
Q 45.015625 31 40.078125 35.4375 
Q 35.15625 39.890625 26.703125 39.890625 
Q 22.75 39.890625 18.8125 39.015625 
Q 14.890625 38.140625 10.796875 36.28125 
z
" id="DejaVuSans-35"/>
    </defs>
    <g transform="translate(396.24 297.114893)scale(0.15 -0.15)">
     <use xlink:href="#DejaVuSans-66"/>
     <use x="35.205078" xlink:href="#DejaVuSans-31"/>
     <use x="98.828125" xlink:href="#DejaVuSans-35"/>
    </g>
   </g>
   <g id="text_15">
    <!-- f19 -->
    <defs>
     <path d="M 10.984375 1.515625 
L 10.984375 10.5 
Q 14.703125 8.734375 18.5 7.8125 
Q 22.3125 6.890625 25.984375 6.890625 
Q 35.75 6.890625 40.890625 13.453125 
Q 46.046875 20.015625 46.78125 33.40625 
Q 43.953125 29.203125 39.59375 26.953125 
Q 35.25 24.703125 29.984375 24.703125 
Q 19.046875 24.703125 12.671875 31.3125 
Q 6.296875 37.9375 6.296875 49.421875 
Q 6.296875 60.640625 12.9375 67.421875 
Q 19.578125 74.21875 30.609375 74.21875 
Q 43.265625 74.21875 49.921875 64.515625 
Q 56.59375 54.828125 56.59375 36.375 
Q 56.59375 19.140625 48.40625 8.859375 
Q 40.234375 -1.421875 26.421875 -1.421875 
Q 22.703125 -1.421875 18.890625 -0.6875 
Q 15.09375 0.046875 10.984375 1.515625 
M 30.609375 32.421875 
Q 37.25 32.421875 41.125 36.953125 
Q 45.015625 41.5 45.015625 49.421875 
Q 45.015625 57.28125 41.125 61.84375 
Q 37.25 66.40625 30.609375 66.40625 
Q 23.96875 66.40625 20.09375 61.84375 
Q 16.21875 57.28125 16.21875 49.421875 
Q 16.21875 41.5 20.09375 36.953125 
Q 23.96875 32.421875 30.609375 32.421875 
" id="DejaVuSans-39"/>
    </defs>
    <g transform="translate(396.24 233.880358)scale(0.15 -0.15)">
     <use xlink:href="#DejaVuSans-66"/>
     <use x="35.205078" xlink:href="#DejaVuSans-31"/>
     <use x="98.828125" xlink:href="#DejaVuSans-39"/>
    </g>
   </g>
   <g id="text_16">
    <!-- f18 -->
    <g transform="translate(396.24 170.645824)scale(0.15 -0.15)">
     <use xlink:href="#DejaVuSans-66"/>
     <use x="35.205078" xlink:href="#DejaVuSans-31"/>
     <use x="98.828125" xlink:href="#DejaVuSans-38"/>
    </g>
   </g>
   <g id="text_17">
    <!-- f17 -->
    <defs>
     <path d="M 8.203125 72.90625 
L 55.078125 72.90625 
L 55.078125 68.703125 
L 28.609375 0 
L 18.3125 0 
L 43.21875 64.59375 
L 8.203125 64.59375 
z
" id="DejaVuSans-37"/>
    </defs>
    <g transform="translate(396.24 107.411289)scale(0.15 -0.15)">
     <use xlink:href="#DejaVuSans-66"/>
     <use x="35.205078" xlink:href="#DejaVuSans-31"/>
     <use x="98.828125" xlink:href="#DejaVuSans-37"/>
    </g>
   </g>
   <g id="text_18">
    <!-- f16 -->
    <g transform="translate(396.24 44.176754)scale(0.15 -0.15)">
     <use xlink:href="#DejaVuSans-66"/>
     <use x="35.205078" xlink:href="#DejaVuSans-31"/>
     <use x="98.828125" xlink:href="#DejaVuSans-36"/>
    </g>
   </g>
   <g id="text_19">
    <!-- bbob -->
    <defs>
     <path d="M 48.6875 27.296875 
Q 48.6875 37.203125 44.609375 42.84375 
Q 40.53125 48.484375 33.40625 48.484375 
Q 26.265625 48.484375 22.1875 42.84375 
Q 18.109375 37.203125 18.109375 27.296875 
Q 18.109375 17.390625 22.1875 11.75 
Q 26.265625 6.109375 33.40625 6.109375 
Q 40.53125 6.109375 44.609375 11.75 
Q 48.6875 17.390625 48.6875 27.296875 
M 18.109375 46.390625 
Q 20.953125 51.265625 25.265625 53.625 
Q 29.59375 56 35.59375 56 
Q 45.5625 56 51.78125 48.09375 
Q 58.015625 40.1875 58.015625 27.296875 
Q 58.015625 14.40625 51.78125 6.484375 
Q 45.5625 -1.421875 35.59375 -1.421875 
Q 29.59375 -1.421875 25.265625 0.953125 
Q 20.953125 3.328125 18.109375 8.203125 
L 18.109375 0 
L 9.078125 0 
L 9.078125 75.984375 
L 18.109375 75.984375 
z
" id="DejaVuSans-62"/>
    </defs>
    <g transform="translate(74.3712 50.114612)scale(0.1666 -0.1666)">
     <use xlink:href="#DejaVuSans-62"/>
     <use x="63.476562" xlink:href="#DejaVuSans-62"/>
     <use x="126.953125" xlink:href="#DejaVuSans-6f"/>
     <use x="188.134766" xlink:href="#DejaVuSans-62"/>
    </g>
    <!-- Multi-modal functions, 5-D -->
    <defs>
     <path d="M 9.8125 72.90625 
L 24.515625 72.90625 
L 43.109375 23.296875 
L 61.8125 72.90625 
L 76.515625 72.90625 
L 76.515625 0 
L 66.890625 0 
L 66.890625 64.015625 
L 48.09375 14.015625 
L 38.1875 14.015625 
L 19.390625 64.015625 
L 19.390625 0 
L 9.8125 0 
z
" id="DejaVuSans-4d"/>
     <path d="M 11.71875 12.40625 
L 22.015625 12.40625 
L 22.015625 4 
L 14.015625 -11.625 
L 7.71875 -11.625 
L 11.71875 4 
z
" id="DejaVuSans-2c"/>
     <path d="M 19.671875 64.796875 
L 19.671875 8.109375 
L 31.59375 8.109375 
Q 46.6875 8.109375 53.6875 14.9375 
Q 60.6875 21.78125 60.6875 36.53125 
Q 60.6875 51.171875 53.6875 57.984375 
Q 46.6875 64.796875 31.59375 64.796875 
z
M 9.8125 72.90625 
L 30.078125 72.90625 
Q 51.265625 72.90625 61.171875 64.09375 
Q 71.09375 55.28125 71.09375 36.53125 
Q 71.09375 17.671875 61.125 8.828125 
Q 51.171875 0 30.078125 0 
L 9.8125 0 
z
" id="DejaVuSans-44"/>
    </defs>
    <g transform="translate(74.3712 68.770168)scale(0.1666 -0.1666)">
     <use xlink:href="#DejaVuSans-4d"/>
     <use x="86.279297" xlink:href="#DejaVuSans-75"/>
     <use x="149.658203" xlink:href="#DejaVuSans-6c"/>
     <use x="177.441406" xlink:href="#DejaVuSans-74"/>
     <use x="216.650391" xlink:href="#DejaVuSans-69"/>
     <use x="244.433594" xlink:href="#DejaVuSans-2d"/>
     <use x="280.517578" xlink:href="#DejaVuSans-6d"/>
     <use x="377.929688" xlink:href="#DejaVuSans-6f"/>
     <use x="439.111328" xlink:href="#DejaVuSans-64"/>
     <use x="502.587891" xlink:href="#DejaVuSans-61"/>
     <use x="563.867188" xlink:href="#DejaVuSans-6c"/>
     <use x="591.650391" xlink:href="#DejaVuSans-20"/>
     <use x="623.4375" xlink:href="#DejaVuSans-66"/>
     <use x="658.642578" xlink:href="#DejaVuSans-75"/>
     <use x="722.021484" xlink:href="#DejaVuSans-6e"/>
     <use x="785.400391" xlink:href="#DejaVuSans-63"/>
     <use x="840.380859" xlink:href="#DejaVuSans-74"/>
     <use x="879.589844" xlink:href="#DejaVuSans-69"/>
     <use x="907.373047" xlink:href="#DejaVuSans-6f"/>
     <use x="968.554688" xlink:href="#DejaVuSans-6e"/>
     <use x="1031.933594" xlink:href="#DejaVuSans-73"/>
     <use x="1084.033203" xlink:href="#DejaVuSans-2c"/>
     <use x="1115.820312" xlink:href="#DejaVuSans-20"/>
     <use x="1147.607422" xlink:href="#DejaVuSans-35"/>
     <use x="1211.230469" xlink:href="#DejaVuSans-2d"/>
     <use x="1247.314453" xlink:href="#DejaVuSans-44"/>
    </g>
    <!-- 51 targets in 100..1e-08 -->
    <g transform="translate(74.3712 87.425723)scale(0.1666 -0.1666)">
     <use xlink:href="#DejaVuSans-35"/>
     <use x="63.623047" xlink:href="#DejaVuSans-31"/>
     <use x="127.246094" xlink:href="#DejaVuSans-20"/>
     <use x="159.033203" xlink:href="#DejaVuSans-74"/>
     <use x="198.242188" xlink:href="#DejaVuSans-61"/>
     <use x="259.521484" xlink:href="#DejaVuSans-72"/>
     <use x="300.619141" xlink:href="#DejaVuSans-67"/>
     <use x="364.095703" xlink:href="#DejaVuSans-65"/>
     <use x="425.619141" xlink:href="#DejaVuSans-74"/>
     <use x="464.828125" xlink:href="#DejaVuSans-73"/>
     <use x="516.927734" xlink:href="#DejaVuSans-20"/>
     <use x="548.714844" xlink:href="#DejaVuSans-69"/>
     <use x="576.498047" xlink:href="#DejaVuSans-6e"/>
     <use x="639.876953" xlink:href="#DejaVuSans-20"/>
     <use x="671.664062" xlink:href="#DejaVuSans-31"/>
     <use x="735.287109" xlink:href="#DejaVuSans-30"/>
     <use x="798.910156" xlink:href="#DejaVuSans-30"/>
     <use x="862.533203" xlink:href="#DejaVuSans-2e"/>
     <use x="894.320312" xlink:href="#DejaVuSans-2e"/>
     <use x="926.107422" xlink:href="#DejaVuSans-31"/>
     <use x="989.730469" xlink:href="#DejaVuSans-65"/>
     <use x="1051.253906" xlink:href="#DejaVuSans-2d"/>
     <use x="1087.337891" xlink:href="#DejaVuSans-30"/>
     <use x="1150.960938" xlink:href="#DejaVuSans-38"/>
    </g>
    <!-- 15 instances -->
    <g transform="translate(74.3712 106.081279)scale(0.1666 -0.1666)">
     <use xlink:href="#DejaVuSans-31"/>
     <use x="63.623047" xlink:href="#DejaVuSans-35"/>
     <use x="127.246094" xlink:href="#DejaVuSans-20"/>
     <use x="159.033203" xlink:href="#DejaVuSans-69"/>
     <use x="186.816406" xlink:href="#DejaVuSans-6e"/>
     <use x="250.195312" xlink:href="#DejaVuSans-73"/>
     <use x="302.294922" xlink:href="#DejaVuSans-74"/>
     <use x="341.503906" xlink:href="#DejaVuSans-61"/>
     <use x="402.783203" xlink:href="#DejaVuSans-6e"/>
     <use x="466.162109" xlink:href="#DejaVuSans-63"/>
     <use x="521.142578" xlink:href="#DejaVuSans-65"/>
     <use x="582.666016" xlink:href="#DejaVuSans-73"/>
    </g>
   </g>
   <g id="text_20">
    <!-- v2.0.1 -->
    <g style="fill:#808080;" transform="translate(233.67875 293.504568)scale(0.1 -0.1)">
     <use xlink:href="#DejaVuSans-76"/>
     <use x="59.179688" xlink:href="#DejaVuSans-32"/>
     <use x="122.802734" xlink:href="#DejaVuSans-2e"/>
     <use x="154.589844" xlink:href="#DejaVuSans-30"/>
     <use x="218.212891" xlink:href="#DejaVuSans-2e"/>
     <use x="250" xlink:href="#DejaVuSans-31"/>
    </g>
   </g>
  </g>
 </g>
 <defs>
  <clipPath id="p67727d3b4b">
   <rect height="266.112" width="357.12" x="70.8" y="32.133375"/>
  </clipPath>
 </defs>
</svg>
