<?xml version="1.0" encoding="utf-8" standalone="no"?>
<!DOCTYPE svg PUBLIC "-//W3C//DTD SVG 1.1//EN"
  "http://www.w3.org/Graphics/SVG/1.1/DTD/svg11.dtd">
<!-- Created with matplotlib (http://matplotlib.org/) -->
<svg height="353pt" version="1.1" viewBox="0 0 438 353" width="438pt" xmlns="http://www.w3.org/2000/svg" xmlns:xlink="http://www.w3.org/1999/xlink">
 <defs>
  <style type="text/css">
*{stroke-linecap:butt;stroke-linejoin:round;}
  </style>
 </defs>
 <g id="figure_1">
  <g id="patch_1">
   <path d="M 0 353.22225 
L 438.62 353.22225 
L 438.62 0 
L 0 0 
z
" style="fill:#ffffff;"/>
  </g>
  <g id="axes_1">
   <g id="patch_2">
    <path d="M 70.8 298.245375 
L 427.92 298.245375 
L 427.92 32.133375 
L 70.8 32.133375 
z
" style="fill:#ffffff;"/>
   </g>
   <g id="matplotlib.axis_1">
    <g id="xtick_1">
     <g id="line2d_1">
      <path clip-path="url(#p1e68138127)" d="M 70.8 298.245375 
L 70.8 32.133375 
" style="fill:none;stroke:#b0b0b0;stroke-linecap:square;stroke-width:0.8;"/>
     </g>
     <g id="line2d_2">
      <defs>
       <path d="M 0 0 
L 0 3.5 
" id="m2a6d6e9c76" style="stroke:#000000;stroke-width:0.8;"/>
      </defs>
      <g>
       <use style="stroke:#000000;stroke-width:0.8;" x="70.8" xlink:href="#m2a6d6e9c76" y="298.245375"/>
      </g>
     </g>
     <g id="text_1">
      <!-- 0 -->
      <defs>
       <path d="M 31.78125 66.40625 
Q 24.171875 66.40625 20.328125 58.90625 
Q 16.5 51.421875 16.5 36.375 
Q 16.5 21.390625 20.328125 13.890625 
Q 24.171875 6.390625 31.78125 6.390625 
Q 39.453125 6.390625 43.28125 13.890625 
Q 47.125 21.390625 47.125 36.375 
Q 47.125 51.421875 43.28125 58.90625 
Q 39.453125 66.40625 31.78125 66.40625 
M 31.78125 74.21875 
Q 44.046875 74.21875 50.515625 64.515625 
Q 56.984375 54.828125 56.984375 36.375 
Q 56.984375 17.96875 50.515625 8.265625 
Q 44.046875 -1.421875 31.78125 -1.421875 
Q 19.53125 -1.421875 13.0625 8.265625 
Q 6.59375 17.96875 6.59375 36.375 
Q 6.59375 54.828125 13.0625 64.515625 
Q 19.53125 74.21875 31.78125 74.21875 
" id="DejaVuSans-30"/>
      </defs>
      <g transform="translate(64.4375 320.44225)scale(0.2 -0.2)">
       <use xlink:href="#DejaVuSans-30"/>
      </g>
     </g>
    </g>
    <g id="xtick_2">
     <g id="line2d_3">
      <path clip-path="url(#p1e68138127)" d="M 153.085714 298.245375 
L 153.085714 32.133375 
" style="fill:none;stroke:#b0b0b0;stroke-linecap:square;stroke-width:0.8;"/>
     </g>
     <g id="line2d_4">
      <g>
       <use style="stroke:#000000;stroke-width:0.8;" x="153.085714" xlink:href="#m2a6d6e9c76" y="298.245375"/>
      </g>
     </g>
     <g id="text_2">
      <!-- 2 -->
      <defs>
       <path d="M 19.1875 8.296875 
L 53.609375 8.296875 
L 53.609375 0 
L 7.328125 0 
L 7.328125 8.296875 
Q 12.9375 14.109375 22.625 23.890625 
Q 32.328125 33.6875 34.8125 36.53125 
Q 39.546875 41.84375 41.421875 45.53125 
Q 43.3125 49.21875 43.3125 52.78125 
Q 43.3125 58.59375 39.234375 62.25 
Q 35.15625 65.921875 28.609375 65.921875 
Q 23.96875 65.921875 18.8125 64.3125 
Q 13.671875 62.703125 7.8125 59.421875 
L 7.8125 69.390625 
Q 13.765625 71.78125 18.9375 73 
Q 24.125 74.21875 28.421875 74.21875 
Q 39.75 74.21875 46.484375 68.546875 
Q 53.21875 62.890625 53.21875 53.421875 
Q 53.21875 48.921875 51.53125 44.890625 
Q 49.859375 40.875 45.40625 35.40625 
Q 44.1875 33.984375 37.640625 27.21875 
Q 31.109375 20.453125 19.1875 8.296875 
" id="DejaVuSans-32"/>
      </defs>
      <g transform="translate(146.723214 320.44225)scale(0.2 -0.2)">
       <use xlink:href="#DejaVuSans-32"/>
      </g>
     </g>
    </g>
    <g id="xtick_3">
     <g id="line2d_5">
      <path clip-path="url(#p1e68138127)" d="M 235.371429 298.245375 
L 235.371429 32.133375 
" style="fill:none;stroke:#b0b0b0;stroke-linecap:square;stroke-width:0.8;"/>
     </g>
     <g id="line2d_6">
      <g>
       <use style="stroke:#000000;stroke-width:0.8;" x="235.371429" xlink:href="#m2a6d6e9c76" y="298.245375"/>
      </g>
     </g>
     <g id="text_3">
      <!-- 4 -->
      <defs>
       <path d="M 37.796875 64.3125 
L 12.890625 25.390625 
L 37.796875 25.390625 
z
M 35.203125 72.90625 
L 47.609375 72.90625 
L 47.609375 25.390625 
L 58.015625 25.390625 
L 58.015625 17.1875 
L 47.609375 17.1875 
L 47.609375 0 
L 37.796875 0 
L 37.796875 17.1875 
L 4.890625 17.1875 
L 4.890625 26.703125 
z
" id="DejaVuSans-34"/>
      </defs>
      <g transform="translate(229.008929 320.44225)scale(0.2 -0.2)">
       <use xlink:href="#DejaVuSans-34"/>
      </g>
     </g>
    </g>
    <g id="xtick_4">
     <g id="line2d_7">
      <path clip-path="url(#p1e68138127)" d="M 317.657143 298.245375 
L 317.657143 32.133375 
" style="fill:none;stroke:#b0b0b0;stroke-linecap:square;stroke-width:0.8;"/>
     </g>
     <g id="line2d_8">
      <g>
       <use style="stroke:#000000;stroke-width:0.8;" x="317.657143" xlink:href="#m2a6d6e9c76" y="298.245375"/>
      </g>
     </g>
     <g id="text_4">
      <!-- 6 -->
      <defs>
       <path d="M 33.015625 40.375 
Q 26.375 40.375 22.484375 35.828125 
Q 18.609375 31.296875 18.609375 23.390625 
Q 18.609375 15.53125 22.484375 10.953125 
Q 26.375 6.390625 33.015625 6.390625 
Q 39.65625 6.390625 43.53125 10.953125 
Q 47.40625 15.53125 47.40625 23.390625 
Q 47.40625 31.296875 43.53125 35.828125 
Q 39.65625 40.375 33.015625 40.375 
M 52.59375 71.296875 
L 52.59375 62.3125 
Q 48.875 64.0625 45.09375 64.984375 
Q 41.3125 65.921875 37.59375 65.921875 
Q 27.828125 65.921875 22.671875 59.328125 
Q 17.53125 52.734375 16.796875 39.40625 
Q 19.671875 43.65625 24.015625 45.921875 
Q 28.375 48.1875 33.59375 48.1875 
Q 44.578125 48.1875 50.953125 41.515625 
Q 57.328125 34.859375 57.328125 23.390625 
Q 57.328125 12.15625 50.6875 5.359375 
Q 44.046875 -1.421875 33.015625 -1.421875 
Q 20.359375 -1.421875 13.671875 8.265625 
Q 6.984375 17.96875 6.984375 36.375 
Q 6.984375 53.65625 15.1875 63.9375 
Q 23.390625 74.21875 37.203125 74.21875 
Q 40.921875 74.21875 44.703125 73.484375 
Q 48.484375 72.75 52.59375 71.296875 
" id="DejaVuSans-36"/>
      </defs>
      <g transform="translate(311.294643 320.44225)scale(0.2 -0.2)">
       <use xlink:href="#DejaVuSans-36"/>
      </g>
     </g>
    </g>
    <g id="xtick_5">
     <g id="line2d_9">
      <path clip-path="url(#p1e68138127)" d="M 399.942857 298.245375 
L 399.942857 32.133375 
" style="fill:none;stroke:#b0b0b0;stroke-linecap:square;stroke-width:0.8;"/>
     </g>
     <g id="line2d_10">
      <g>
       <use style="stroke:#000000;stroke-width:0.8;" x="399.942857" xlink:href="#m2a6d6e9c76" y="298.245375"/>
      </g>
     </g>
     <g id="text_5">
      <!-- 8 -->
      <defs>
       <path d="M 31.78125 34.625 
Q 24.75 34.625 20.71875 30.859375 
Q 16.703125 27.09375 16.703125 20.515625 
Q 16.703125 13.921875 20.71875 10.15625 
Q 24.75 6.390625 31.78125 6.390625 
Q 38.8125 6.390625 42.859375 10.171875 
Q 46.921875 13.96875 46.921875 20.515625 
Q 46.921875 27.09375 42.890625 30.859375 
Q 38.875 34.625 31.78125 34.625 
M 21.921875 38.8125 
Q 15.578125 40.375 12.03125 44.71875 
Q 8.5 49.078125 8.5 55.328125 
Q 8.5 64.0625 14.71875 69.140625 
Q 20.953125 74.21875 31.78125 74.21875 
Q 42.671875 74.21875 48.875 69.140625 
Q 55.078125 64.0625 55.078125 55.328125 
Q 55.078125 49.078125 51.53125 44.71875 
Q 48 40.375 41.703125 38.8125 
Q 48.828125 37.15625 52.796875 32.3125 
Q 56.78125 27.484375 56.78125 20.515625 
Q 56.78125 9.90625 50.3125 4.234375 
Q 43.84375 -1.421875 31.78125 -1.421875 
Q 19.734375 -1.421875 13.25 4.234375 
Q 6.78125 9.90625 6.78125 20.515625 
Q 6.78125 27.484375 10.78125 32.3125 
Q 14.796875 37.15625 21.921875 38.8125 
M 18.3125 54.390625 
Q 18.3125 48.734375 21.84375 45.5625 
Q 25.390625 42.390625 31.78125 42.390625 
Q 38.140625 42.390625 41.71875 45.5625 
Q 45.3125 48.734375 45.3125 54.390625 
Q 45.3125 60.0625 41.71875 63.234375 
Q 38.140625 66.40625 31.78125 66.40625 
Q 25.390625 66.40625 21.84375 63.234375 
Q 18.3125 60.0625 18.3125 54.390625 
" id="DejaVuSans-38"/>
      </defs>
      <g transform="translate(393.580357 320.44225)scale(0.2 -0.2)">
       <use xlink:href="#DejaVuSans-38"/>
      </g>
     </g>
    </g>
    <g id="xtick_6">
     <g id="line2d_11">
      <defs>
       <path d="M 0 0 
L 0 2 
" id="m8a58daccea" style="stroke:#000000;stroke-width:0.6;"/>
      </defs>
      <g>
       <use style="stroke:#000000;stroke-width:0.6;" x="83.185234" xlink:href="#m8a58daccea" y="298.245375"/>
      </g>
     </g>
    </g>
    <g id="xtick_7">
     <g id="line2d_12">
      <g>
       <use style="stroke:#000000;stroke-width:0.6;" x="95.570468" xlink:href="#m8a58daccea" y="298.245375"/>
      </g>
     </g>
    </g>
    <g id="xtick_8">
     <g id="line2d_13">
      <g>
       <use style="stroke:#000000;stroke-width:0.6;" x="102.815366" xlink:href="#m8a58daccea" y="298.245375"/>
      </g>
     </g>
    </g>
    <g id="xtick_9">
     <g id="line2d_14">
      <g>
       <use style="stroke:#000000;stroke-width:0.6;" x="107.955702" xlink:href="#m8a58daccea" y="298.245375"/>
      </g>
     </g>
    </g>
    <g id="xtick_10">
     <g id="line2d_15">
      <g>
       <use style="stroke:#000000;stroke-width:0.6;" x="165.470948" xlink:href="#m8a58daccea" y="298.245375"/>
      </g>
     </g>
    </g>
    <g id="xtick_11">
     <g id="line2d_16">
      <g>
       <use style="stroke:#000000;stroke-width:0.6;" x="177.856183" xlink:href="#m8a58daccea" y="298.245375"/>
      </g>
     </g>
    </g>
    <g id="xtick_12">
     <g id="line2d_17">
      <g>
       <use style="stroke:#000000;stroke-width:0.6;" x="185.10108" xlink:href="#m8a58daccea" y="298.245375"/>
      </g>
     </g>
    </g>
    <g id="xtick_13">
     <g id="line2d_18">
      <g>
       <use style="stroke:#000000;stroke-width:0.6;" x="190.241417" xlink:href="#m8a58daccea" y="298.245375"/>
      </g>
     </g>
    </g>
    <g id="xtick_14">
     <g id="line2d_19">
      <g>
       <use style="stroke:#000000;stroke-width:0.6;" x="247.756663" xlink:href="#m8a58daccea" y="298.245375"/>
      </g>
     </g>
    </g>
    <g id="xtick_15">
     <g id="line2d_20">
      <g>
       <use style="stroke:#000000;stroke-width:0.6;" x="260.141897" xlink:href="#m8a58daccea" y="298.245375"/>
      </g>
     </g>
    </g>
    <g id="xtick_16">
     <g id="line2d_21">
      <g>
       <use style="stroke:#000000;stroke-width:0.6;" x="267.386794" xlink:href="#m8a58daccea" y="298.245375"/>
      </g>
     </g>
    </g>
    <g id="xtick_17">
     <g id="line2d_22">
      <g>
       <use style="stroke:#000000;stroke-width:0.6;" x="272.527131" xlink:href="#m8a58daccea" y="298.245375"/>
      </g>
     </g>
    </g>
    <g id="xtick_18">
     <g id="line2d_23">
      <g>
       <use style="stroke:#000000;stroke-width:0.6;" x="330.042377" xlink:href="#m8a58daccea" y="298.245375"/>
      </g>
     </g>
    </g>
    <g id="xtick_19">
     <g id="line2d_24">
      <g>
       <use style="stroke:#000000;stroke-width:0.6;" x="342.427611" xlink:href="#m8a58daccea" y="298.245375"/>
      </g>
     </g>
    </g>
    <g id="xtick_20">
     <g id="line2d_25">
      <g>
       <use style="stroke:#000000;stroke-width:0.6;" x="349.672509" xlink:href="#m8a58daccea" y="298.245375"/>
      </g>
     </g>
    </g>
    <g id="xtick_21">
     <g id="line2d_26">
      <g>
       <use style="stroke:#000000;stroke-width:0.6;" x="354.812845" xlink:href="#m8a58daccea" y="298.245375"/>
      </g>
     </g>
    </g>
    <g id="xtick_22">
     <g id="line2d_27">
      <g>
       <use style="stroke:#000000;stroke-width:0.6;" x="412.328091" xlink:href="#m8a58daccea" y="298.245375"/>
      </g>
     </g>
    </g>
    <g id="xtick_23">
     <g id="line2d_28">
      <g>
       <use style="stroke:#000000;stroke-width:0.6;" x="424.713325" xlink:href="#m8a58daccea" y="298.245375"/>
      </g>
     </g>
    </g>
    <g id="text_6">
     <!-- log10 of (# f-evals / dimension) -->
     <defs>
      <path d="M 9.421875 75.984375 
L 18.40625 75.984375 
L 18.40625 0 
L 9.421875 0 
z
" id="DejaVuSans-6c"/>
      <path d="M 30.609375 48.390625 
Q 23.390625 48.390625 19.1875 42.75 
Q 14.984375 37.109375 14.984375 27.296875 
Q 14.984375 17.484375 19.15625 11.84375 
Q 23.34375 6.203125 30.609375 6.203125 
Q 37.796875 6.203125 41.984375 11.859375 
Q 46.1875 17.53125 46.1875 27.296875 
Q 46.1875 37.015625 41.984375 42.703125 
Q 37.796875 48.390625 30.609375 48.390625 
M 30.609375 56 
Q 42.328125 56 49.015625 48.375 
Q 55.71875 40.765625 55.71875 27.296875 
Q 55.71875 13.875 49.015625 6.21875 
Q 42.328125 -1.421875 30.609375 -1.421875 
Q 18.84375 -1.421875 12.171875 6.21875 
Q 5.515625 13.875 5.515625 27.296875 
Q 5.515625 40.765625 12.171875 48.375 
Q 18.84375 56 30.609375 56 
" id="DejaVuSans-6f"/>
      <path d="M 45.40625 27.984375 
Q 45.40625 37.75 41.375 43.109375 
Q 37.359375 48.484375 30.078125 48.484375 
Q 22.859375 48.484375 18.828125 43.109375 
Q 14.796875 37.75 14.796875 27.984375 
Q 14.796875 18.265625 18.828125 12.890625 
Q 22.859375 7.515625 30.078125 7.515625 
Q 37.359375 7.515625 41.375 12.890625 
Q 45.40625 18.265625 45.40625 27.984375 
M 54.390625 6.78125 
Q 54.390625 -7.171875 48.1875 -13.984375 
Q 42 -20.796875 29.203125 -20.796875 
Q 24.46875 -20.796875 20.265625 -20.09375 
Q 16.0625 -19.390625 12.109375 -17.921875 
L 12.109375 -9.1875 
Q 16.0625 -11.328125 19.921875 -12.34375 
Q 23.78125 -13.375 27.78125 -13.375 
Q 36.625 -13.375 41.015625 -8.765625 
Q 45.40625 -4.15625 45.40625 5.171875 
L 45.40625 9.625 
Q 42.625 4.78125 38.28125 2.390625 
Q 33.9375 0 27.875 0 
Q 17.828125 0 11.671875 7.65625 
Q 5.515625 15.328125 5.515625 27.984375 
Q 5.515625 40.671875 11.671875 48.328125 
Q 17.828125 56 27.875 56 
Q 33.9375 56 38.28125 53.609375 
Q 42.625 51.21875 45.40625 46.390625 
L 45.40625 54.6875 
L 54.390625 54.6875 
z
" id="DejaVuSans-67"/>
      <path d="M 12.40625 8.296875 
L 28.515625 8.296875 
L 28.515625 63.921875 
L 10.984375 60.40625 
L 10.984375 69.390625 
L 28.421875 72.90625 
L 38.28125 72.90625 
L 38.28125 8.296875 
L 54.390625 8.296875 
L 54.390625 0 
L 12.40625 0 
z
" id="DejaVuSans-31"/>
      <path id="DejaVuSans-20"/>
      <path d="M 37.109375 75.984375 
L 37.109375 68.5 
L 28.515625 68.5 
Q 23.6875 68.5 21.796875 66.546875 
Q 19.921875 64.59375 19.921875 59.515625 
L 19.921875 54.6875 
L 34.71875 54.6875 
L 34.71875 47.703125 
L 19.921875 47.703125 
L 19.921875 0 
L 10.890625 0 
L 10.890625 47.703125 
L 2.296875 47.703125 
L 2.296875 54.6875 
L 10.890625 54.6875 
L 10.890625 58.5 
Q 10.890625 67.625 15.140625 71.796875 
Q 19.390625 75.984375 28.609375 75.984375 
z
" id="DejaVuSans-66"/>
      <path d="M 31 75.875 
Q 24.46875 64.65625 21.28125 53.65625 
Q 18.109375 42.671875 18.109375 31.390625 
Q 18.109375 20.125 21.3125 9.0625 
Q 24.515625 -2 31 -13.1875 
L 23.1875 -13.1875 
Q 15.875 -1.703125 12.234375 9.375 
Q 8.59375 20.453125 8.59375 31.390625 
Q 8.59375 42.28125 12.203125 53.3125 
Q 15.828125 64.359375 23.1875 75.875 
z
" id="DejaVuSans-28"/>
      <path d="M 51.125 44 
L 36.921875 44 
L 32.8125 27.6875 
L 47.125 27.6875 
z
M 43.796875 71.78125 
L 38.71875 51.515625 
L 52.984375 51.515625 
L 58.109375 71.78125 
L 65.921875 71.78125 
L 60.890625 51.515625 
L 76.125 51.515625 
L 76.125 44 
L 58.984375 44 
L 54.984375 27.6875 
L 70.515625 27.6875 
L 70.515625 20.21875 
L 53.078125 20.21875 
L 48 0 
L 40.1875 0 
L 45.21875 20.21875 
L 30.90625 20.21875 
L 25.875 0 
L 18.015625 0 
L 23.09375 20.21875 
L 7.71875 20.21875 
L 7.71875 27.6875 
L 24.90625 27.6875 
L 29 44 
L 13.28125 44 
L 13.28125 51.515625 
L 30.90625 51.515625 
L 35.890625 71.78125 
z
" id="DejaVuSans-23"/>
      <path d="M 4.890625 31.390625 
L 31.203125 31.390625 
L 31.203125 23.390625 
L 4.890625 23.390625 
z
" id="DejaVuSans-2d"/>
      <path d="M 56.203125 29.59375 
L 56.203125 25.203125 
L 14.890625 25.203125 
Q 15.484375 15.921875 20.484375 11.0625 
Q 25.484375 6.203125 34.421875 6.203125 
Q 39.59375 6.203125 44.453125 7.46875 
Q 49.3125 8.734375 54.109375 11.28125 
L 54.109375 2.78125 
Q 49.265625 0.734375 44.1875 -0.34375 
Q 39.109375 -1.421875 33.890625 -1.421875 
Q 20.796875 -1.421875 13.15625 6.1875 
Q 5.515625 13.8125 5.515625 26.8125 
Q 5.515625 40.234375 12.765625 48.109375 
Q 20.015625 56 32.328125 56 
Q 43.359375 56 49.78125 48.890625 
Q 56.203125 41.796875 56.203125 29.59375 
M 47.21875 32.234375 
Q 47.125 39.59375 43.09375 43.984375 
Q 39.0625 48.390625 32.421875 48.390625 
Q 24.90625 48.390625 20.390625 44.140625 
Q 15.875 39.890625 15.1875 32.171875 
z
" id="DejaVuSans-65"/>
      <path d="M 2.984375 54.6875 
L 12.5 54.6875 
L 29.59375 8.796875 
L 46.6875 54.6875 
L 56.203125 54.6875 
L 35.6875 0 
L 23.484375 0 
z
" id="DejaVuSans-76"/>
      <path d="M 34.28125 27.484375 
Q 23.390625 27.484375 19.1875 25 
Q 14.984375 22.515625 14.984375 16.5 
Q 14.984375 11.71875 18.140625 8.90625 
Q 21.296875 6.109375 26.703125 6.109375 
Q 34.1875 6.109375 38.703125 11.40625 
Q 43.21875 16.703125 43.21875 25.484375 
L 43.21875 27.484375 
z
M 52.203125 31.203125 
L 52.203125 0 
L 43.21875 0 
L 43.21875 8.296875 
Q 40.140625 3.328125 35.546875 0.953125 
Q 30.953125 -1.421875 24.3125 -1.421875 
Q 15.921875 -1.421875 10.953125 3.296875 
Q 6 8.015625 6 15.921875 
Q 6 25.140625 12.171875 29.828125 
Q 18.359375 34.515625 30.609375 34.515625 
L 43.21875 34.515625 
L 43.21875 35.40625 
Q 43.21875 41.609375 39.140625 45 
Q 35.0625 48.390625 27.6875 48.390625 
Q 23 48.390625 18.546875 47.265625 
Q 14.109375 46.140625 10.015625 43.890625 
L 10.015625 52.203125 
Q 14.9375 54.109375 19.578125 55.046875 
Q 24.21875 56 28.609375 56 
Q 40.484375 56 46.34375 49.84375 
Q 52.203125 43.703125 52.203125 31.203125 
" id="DejaVuSans-61"/>
      <path d="M 44.28125 53.078125 
L 44.28125 44.578125 
Q 40.484375 46.53125 36.375 47.5 
Q 32.28125 48.484375 27.875 48.484375 
Q 21.1875 48.484375 17.84375 46.4375 
Q 14.5 44.390625 14.5 40.28125 
Q 14.5 37.15625 16.890625 35.375 
Q 19.28125 33.59375 26.515625 31.984375 
L 29.59375 31.296875 
Q 39.15625 29.25 43.1875 25.515625 
Q 47.21875 21.78125 47.21875 15.09375 
Q 47.21875 7.46875 41.1875 3.015625 
Q 35.15625 -1.421875 24.609375 -1.421875 
Q 20.21875 -1.421875 15.453125 -0.5625 
Q 10.6875 0.296875 5.421875 2 
L 5.421875 11.28125 
Q 10.40625 8.6875 15.234375 7.390625 
Q 20.0625 6.109375 24.8125 6.109375 
Q 31.15625 6.109375 34.5625 8.28125 
Q 37.984375 10.453125 37.984375 14.40625 
Q 37.984375 18.0625 35.515625 20.015625 
Q 33.0625 21.96875 24.703125 23.78125 
L 21.578125 24.515625 
Q 13.234375 26.265625 9.515625 29.90625 
Q 5.8125 33.546875 5.8125 39.890625 
Q 5.8125 47.609375 11.28125 51.796875 
Q 16.75 56 26.8125 56 
Q 31.78125 56 36.171875 55.265625 
Q 40.578125 54.546875 44.28125 53.078125 
" id="DejaVuSans-73"/>
      <path d="M 25.390625 72.90625 
L 33.6875 72.90625 
L 8.296875 -9.28125 
L 0 -9.28125 
z
" id="DejaVuSans-2f"/>
      <path d="M 45.40625 46.390625 
L 45.40625 75.984375 
L 54.390625 75.984375 
L 54.390625 0 
L 45.40625 0 
L 45.40625 8.203125 
Q 42.578125 3.328125 38.25 0.953125 
Q 33.9375 -1.421875 27.875 -1.421875 
Q 17.96875 -1.421875 11.734375 6.484375 
Q 5.515625 14.40625 5.515625 27.296875 
Q 5.515625 40.1875 11.734375 48.09375 
Q 17.96875 56 27.875 56 
Q 33.9375 56 38.25 53.625 
Q 42.578125 51.265625 45.40625 46.390625 
M 14.796875 27.296875 
Q 14.796875 17.390625 18.875 11.75 
Q 22.953125 6.109375 30.078125 6.109375 
Q 37.203125 6.109375 41.296875 11.75 
Q 45.40625 17.390625 45.40625 27.296875 
Q 45.40625 37.203125 41.296875 42.84375 
Q 37.203125 48.484375 30.078125 48.484375 
Q 22.953125 48.484375 18.875 42.84375 
Q 14.796875 37.203125 14.796875 27.296875 
" id="DejaVuSans-64"/>
      <path d="M 9.421875 54.6875 
L 18.40625 54.6875 
L 18.40625 0 
L 9.421875 0 
z
M 9.421875 75.984375 
L 18.40625 75.984375 
L 18.40625 64.59375 
L 9.421875 64.59375 
z
" id="DejaVuSans-69"/>
      <path d="M 52 44.1875 
Q 55.375 50.25 60.0625 53.125 
Q 64.75 56 71.09375 56 
Q 79.640625 56 84.28125 50.015625 
Q 88.921875 44.046875 88.921875 33.015625 
L 88.921875 0 
L 79.890625 0 
L 79.890625 32.71875 
Q 79.890625 40.578125 77.09375 44.375 
Q 74.3125 48.1875 68.609375 48.1875 
Q 61.625 48.1875 57.5625 43.546875 
Q 53.515625 38.921875 53.515625 30.90625 
L 53.515625 0 
L 44.484375 0 
L 44.484375 32.71875 
Q 44.484375 40.625 41.703125 44.40625 
Q 38.921875 48.1875 33.109375 48.1875 
Q 26.21875 48.1875 22.15625 43.53125 
Q 18.109375 38.875 18.109375 30.90625 
L 18.109375 0 
L 9.078125 0 
L 9.078125 54.6875 
L 18.109375 54.6875 
L 18.109375 46.1875 
Q 21.1875 51.21875 25.484375 53.609375 
Q 29.78125 56 35.6875 56 
Q 41.65625 56 45.828125 52.96875 
Q 50 49.953125 52 44.1875 
" id="DejaVuSans-6d"/>
      <path d="M 54.890625 33.015625 
L 54.890625 0 
L 45.90625 0 
L 45.90625 32.71875 
Q 45.90625 40.484375 42.875 44.328125 
Q 39.84375 48.1875 33.796875 48.1875 
Q 26.515625 48.1875 22.3125 43.546875 
Q 18.109375 38.921875 18.109375 30.90625 
L 18.109375 0 
L 9.078125 0 
L 9.078125 54.6875 
L 18.109375 54.6875 
L 18.109375 46.1875 
Q 21.34375 51.125 25.703125 53.5625 
Q 30.078125 56 35.796875 56 
Q 45.21875 56 50.046875 50.171875 
Q 54.890625 44.34375 54.890625 33.015625 
" id="DejaVuSans-6e"/>
      <path d="M 8.015625 75.875 
L 15.828125 75.875 
Q 23.140625 64.359375 26.78125 53.3125 
Q 30.421875 42.28125 30.421875 31.390625 
Q 30.421875 20.453125 26.78125 9.375 
Q 23.140625 -1.703125 15.828125 -13.1875 
L 8.015625 -13.1875 
Q 14.5 -2 17.703125 9.0625 
Q 20.90625 20.125 20.90625 31.390625 
Q 20.90625 42.671875 17.703125 53.65625 
Q 14.5 64.65625 8.015625 75.875 
" id="DejaVuSans-29"/>
     </defs>
     <g transform="translate(107.015156 342.278812)scale(0.18 -0.18)">
      <use xlink:href="#DejaVuSans-6c"/>
      <use x="27.783203" xlink:href="#DejaVuSans-6f"/>
      <use x="88.964844" xlink:href="#DejaVuSans-67"/>
      <use x="152.441406" xlink:href="#DejaVuSans-31"/>
      <use x="216.064453" xlink:href="#DejaVuSans-30"/>
      <use x="279.6875" xlink:href="#DejaVuSans-20"/>
      <use x="311.474609" xlink:href="#DejaVuSans-6f"/>
      <use x="372.65625" xlink:href="#DejaVuSans-66"/>
      <use x="407.861328" xlink:href="#DejaVuSans-20"/>
      <use x="439.648438" xlink:href="#DejaVuSans-28"/>
      <use x="478.662109" xlink:href="#DejaVuSans-23"/>
      <use x="562.451172" xlink:href="#DejaVuSans-20"/>
      <use x="594.238281" xlink:href="#DejaVuSans-66"/>
      <use x="629.365234" xlink:href="#DejaVuSans-2d"/>
      <use x="665.449219" xlink:href="#DejaVuSans-65"/>
      <use x="726.972656" xlink:href="#DejaVuSans-76"/>
      <use x="786.152344" xlink:href="#DejaVuSans-61"/>
      <use x="847.431641" xlink:href="#DejaVuSans-6c"/>
      <use x="875.214844" xlink:href="#DejaVuSans-73"/>
      <use x="927.314453" xlink:href="#DejaVuSans-20"/>
      <use x="959.101562" xlink:href="#DejaVuSans-2f"/>
      <use x="992.792969" xlink:href="#DejaVuSans-20"/>
      <use x="1024.580078" xlink:href="#DejaVuSans-64"/>
      <use x="1088.056641" xlink:href="#DejaVuSans-69"/>
      <use x="1115.839844" xlink:href="#DejaVuSans-6d"/>
      <use x="1213.251953" xlink:href="#DejaVuSans-65"/>
      <use x="1274.775391" xlink:href="#DejaVuSans-6e"/>
      <use x="1338.154297" xlink:href="#DejaVuSans-73"/>
      <use x="1390.253906" xlink:href="#DejaVuSans-69"/>
      <use x="1418.037109" xlink:href="#DejaVuSans-6f"/>
      <use x="1479.21875" xlink:href="#DejaVuSans-6e"/>
      <use x="1542.597656" xlink:href="#DejaVuSans-29"/>
     </g>
    </g>
   </g>
   <g id="matplotlib.axis_2">
    <g id="ytick_1">
     <g id="line2d_29">
      <path clip-path="url(#p1e68138127)" d="M 70.8 298.245375 
L 427.92 298.245375 
" style="fill:none;stroke:#b0b0b0;stroke-linecap:square;stroke-width:0.8;"/>
     </g>
     <g id="line2d_30">
      <defs>
       <path d="M 0 0 
L -3.5 0 
" id="ma1e17b1fe8" style="stroke:#000000;stroke-width:0.8;"/>
      </defs>
      <g>
       <use style="stroke:#000000;stroke-width:0.8;" x="70.8" xlink:href="#ma1e17b1fe8" y="298.245375"/>
      </g>
     </g>
     <g id="text_7">
      <!-- 0.0 -->
      <defs>
       <path d="M 10.6875 12.40625 
L 21 12.40625 
L 21 0 
L 10.6875 0 
z
" id="DejaVuSans-2e"/>
      </defs>
      <g transform="translate(31.99375 305.843812)scale(0.2 -0.2)">
       <use xlink:href="#DejaVuSans-30"/>
       <use x="63.623047" xlink:href="#DejaVuSans-2e"/>
       <use x="95.410156" xlink:href="#DejaVuSans-30"/>
      </g>
     </g>
    </g>
    <g id="ytick_2">
     <g id="line2d_31">
      <path clip-path="url(#p1e68138127)" d="M 70.8 245.549929 
L 427.92 245.549929 
" style="fill:none;stroke:#b0b0b0;stroke-linecap:square;stroke-width:0.8;"/>
     </g>
     <g id="line2d_32">
      <g>
       <use style="stroke:#000000;stroke-width:0.8;" x="70.8" xlink:href="#ma1e17b1fe8" y="245.549929"/>
      </g>
     </g>
     <g id="text_8">
      <!-- 0.2 -->
      <g transform="translate(31.99375 253.148367)scale(0.2 -0.2)">
       <use xlink:href="#DejaVuSans-30"/>
       <use x="63.623047" xlink:href="#DejaVuSans-2e"/>
       <use x="95.410156" xlink:href="#DejaVuSans-32"/>
      </g>
     </g>
    </g>
    <g id="ytick_3">
     <g id="line2d_33">
      <path clip-path="url(#p1e68138127)" d="M 70.8 192.854484 
L 427.92 192.854484 
" style="fill:none;stroke:#b0b0b0;stroke-linecap:square;stroke-width:0.8;"/>
     </g>
     <g id="line2d_34">
      <g>
       <use style="stroke:#000000;stroke-width:0.8;" x="70.8" xlink:href="#ma1e17b1fe8" y="192.854484"/>
      </g>
     </g>
     <g id="text_9">
      <!-- 0.4 -->
      <g transform="translate(31.99375 200.452921)scale(0.2 -0.2)">
       <use xlink:href="#DejaVuSans-30"/>
       <use x="63.623047" xlink:href="#DejaVuSans-2e"/>
       <use x="95.410156" xlink:href="#DejaVuSans-34"/>
      </g>
     </g>
    </g>
    <g id="ytick_4">
     <g id="line2d_35">
      <path clip-path="url(#p1e68138127)" d="M 70.8 140.159038 
L 427.92 140.159038 
" style="fill:none;stroke:#b0b0b0;stroke-linecap:square;stroke-width:0.8;"/>
     </g>
     <g id="line2d_36">
      <g>
       <use style="stroke:#000000;stroke-width:0.8;" x="70.8" xlink:href="#ma1e17b1fe8" y="140.159038"/>
      </g>
     </g>
     <g id="text_10">
      <!-- 0.6 -->
      <g transform="translate(31.99375 147.757476)scale(0.2 -0.2)">
       <use xlink:href="#DejaVuSans-30"/>
       <use x="63.623047" xlink:href="#DejaVuSans-2e"/>
       <use x="95.410156" xlink:href="#DejaVuSans-36"/>
      </g>
     </g>
    </g>
    <g id="ytick_5">
     <g id="line2d_37">
      <path clip-path="url(#p1e68138127)" d="M 70.8 87.463593 
L 427.92 87.463593 
" style="fill:none;stroke:#b0b0b0;stroke-linecap:square;stroke-width:0.8;"/>
     </g>
     <g id="line2d_38">
      <g>
       <use style="stroke:#000000;stroke-width:0.8;" x="70.8" xlink:href="#ma1e17b1fe8" y="87.463593"/>
      </g>
     </g>
     <g id="text_11">
      <!-- 0.8 -->
      <g transform="translate(31.99375 95.06203)scale(0.2 -0.2)">
       <use xlink:href="#DejaVuSans-30"/>
       <use x="63.623047" xlink:href="#DejaVuSans-2e"/>
       <use x="95.410156" xlink:href="#DejaVuSans-38"/>
      </g>
     </g>
    </g>
    <g id="ytick_6">
     <g id="line2d_39">
      <path clip-path="url(#p1e68138127)" d="M 70.8 34.768147 
L 427.92 34.768147 
" style="fill:none;stroke:#b0b0b0;stroke-linecap:square;stroke-width:0.8;"/>
     </g>
     <g id="line2d_40">
      <g>
       <use style="stroke:#000000;stroke-width:0.8;" x="70.8" xlink:href="#ma1e17b1fe8" y="34.768147"/>
      </g>
     </g>
     <g id="text_12">
      <!-- 1.0 -->
      <g transform="translate(31.99375 42.366585)scale(0.2 -0.2)">
       <use xlink:href="#DejaVuSans-31"/>
       <use x="63.623047" xlink:href="#DejaVuSans-2e"/>
       <use x="95.410156" xlink:href="#DejaVuSans-30"/>
      </g>
     </g>
    </g>
    <g id="text_13">
     <!-- Proportion of function+target pairs -->
     <defs>
      <path d="M 19.671875 64.796875 
L 19.671875 37.40625 
L 32.078125 37.40625 
Q 38.96875 37.40625 42.71875 40.96875 
Q 46.484375 44.53125 46.484375 51.125 
Q 46.484375 57.671875 42.71875 61.234375 
Q 38.96875 64.796875 32.078125 64.796875 
z
M 9.8125 72.90625 
L 32.078125 72.90625 
Q 44.34375 72.90625 50.609375 67.359375 
Q 56.890625 61.8125 56.890625 51.125 
Q 56.890625 40.328125 50.609375 34.8125 
Q 44.34375 29.296875 32.078125 29.296875 
L 19.671875 29.296875 
L 19.671875 0 
L 9.8125 0 
z
" id="DejaVuSans-50"/>
      <path d="M 41.109375 46.296875 
Q 39.59375 47.171875 37.8125 47.578125 
Q 36.03125 48 33.890625 48 
Q 26.265625 48 22.1875 43.046875 
Q 18.109375 38.09375 18.109375 28.8125 
L 18.109375 0 
L 9.078125 0 
L 9.078125 54.6875 
L 18.109375 54.6875 
L 18.109375 46.1875 
Q 20.953125 51.171875 25.484375 53.578125 
Q 30.03125 56 36.53125 56 
Q 37.453125 56 38.578125 55.875 
Q 39.703125 55.765625 41.0625 55.515625 
z
" id="DejaVuSans-72"/>
      <path d="M 18.109375 8.203125 
L 18.109375 -20.796875 
L 9.078125 -20.796875 
L 9.078125 54.6875 
L 18.109375 54.6875 
L 18.109375 46.390625 
Q 20.953125 51.265625 25.265625 53.625 
Q 29.59375 56 35.59375 56 
Q 45.5625 56 51.78125 48.09375 
Q 58.015625 40.1875 58.015625 27.296875 
Q 58.015625 14.40625 51.78125 6.484375 
Q 45.5625 -1.421875 35.59375 -1.421875 
Q 29.59375 -1.421875 25.265625 0.953125 
Q 20.953125 3.328125 18.109375 8.203125 
M 48.6875 27.296875 
Q 48.6875 37.203125 44.609375 42.84375 
Q 40.53125 48.484375 33.40625 48.484375 
Q 26.265625 48.484375 22.1875 42.84375 
Q 18.109375 37.203125 18.109375 27.296875 
Q 18.109375 17.390625 22.1875 11.75 
Q 26.265625 6.109375 33.40625 6.109375 
Q 40.53125 6.109375 44.609375 11.75 
Q 48.6875 17.390625 48.6875 27.296875 
" id="DejaVuSans-70"/>
      <path d="M 18.3125 70.21875 
L 18.3125 54.6875 
L 36.8125 54.6875 
L 36.8125 47.703125 
L 18.3125 47.703125 
L 18.3125 18.015625 
Q 18.3125 11.328125 20.140625 9.421875 
Q 21.96875 7.515625 27.59375 7.515625 
L 36.8125 7.515625 
L 36.8125 0 
L 27.59375 0 
Q 17.1875 0 13.234375 3.875 
Q 9.28125 7.765625 9.28125 18.015625 
L 9.28125 47.703125 
L 2.6875 47.703125 
L 2.6875 54.6875 
L 9.28125 54.6875 
L 9.28125 70.21875 
z
" id="DejaVuSans-74"/>
      <path d="M 8.5 21.578125 
L 8.5 54.6875 
L 17.484375 54.6875 
L 17.484375 21.921875 
Q 17.484375 14.15625 20.5 10.265625 
Q 23.53125 6.390625 29.59375 6.390625 
Q 36.859375 6.390625 41.078125 11.03125 
Q 45.3125 15.671875 45.3125 23.6875 
L 45.3125 54.6875 
L 54.296875 54.6875 
L 54.296875 0 
L 45.3125 0 
L 45.3125 8.40625 
Q 42.046875 3.421875 37.71875 1 
Q 33.40625 -1.421875 27.6875 -1.421875 
Q 18.265625 -1.421875 13.375 4.4375 
Q 8.5 10.296875 8.5 21.578125 
M 31.109375 56 
z
" id="DejaVuSans-75"/>
      <path d="M 48.78125 52.59375 
L 48.78125 44.1875 
Q 44.96875 46.296875 41.140625 47.34375 
Q 37.3125 48.390625 33.40625 48.390625 
Q 24.65625 48.390625 19.8125 42.84375 
Q 14.984375 37.3125 14.984375 27.296875 
Q 14.984375 17.28125 19.8125 11.734375 
Q 24.65625 6.203125 33.40625 6.203125 
Q 37.3125 6.203125 41.140625 7.25 
Q 44.96875 8.296875 48.78125 10.40625 
L 48.78125 2.09375 
Q 45.015625 0.34375 40.984375 -0.53125 
Q 36.96875 -1.421875 32.421875 -1.421875 
Q 20.0625 -1.421875 12.78125 6.34375 
Q 5.515625 14.109375 5.515625 27.296875 
Q 5.515625 40.671875 12.859375 48.328125 
Q 20.21875 56 33.015625 56 
Q 37.15625 56 41.109375 55.140625 
Q 45.0625 54.296875 48.78125 52.59375 
" id="DejaVuSans-63"/>
      <path d="M 46 62.703125 
L 46 35.5 
L 73.1875 35.5 
L 73.1875 27.203125 
L 46 27.203125 
L 46 0 
L 37.796875 0 
L 37.796875 27.203125 
L 10.59375 27.203125 
L 10.59375 35.5 
L 37.796875 35.5 
L 37.796875 62.703125 
z
" id="DejaVuSans-2b"/>
     </defs>
     <g transform="translate(24.250312 323.17875)rotate(-90)scale(0.18 -0.18)">
      <use xlink:href="#DejaVuSans-50"/>
      <use x="60.287109" xlink:href="#DejaVuSans-72"/>
      <use x="101.369141" xlink:href="#DejaVuSans-6f"/>
      <use x="162.550781" xlink:href="#DejaVuSans-70"/>
      <use x="226.027344" xlink:href="#DejaVuSans-6f"/>
      <use x="287.208984" xlink:href="#DejaVuSans-72"/>
      <use x="328.322266" xlink:href="#DejaVuSans-74"/>
      <use x="367.53125" xlink:href="#DejaVuSans-69"/>
      <use x="395.314453" xlink:href="#DejaVuSans-6f"/>
      <use x="456.496094" xlink:href="#DejaVuSans-6e"/>
      <use x="519.875" xlink:href="#DejaVuSans-20"/>
      <use x="551.662109" xlink:href="#DejaVuSans-6f"/>
      <use x="612.84375" xlink:href="#DejaVuSans-66"/>
      <use x="648.048828" xlink:href="#DejaVuSans-20"/>
      <use x="679.835938" xlink:href="#DejaVuSans-66"/>
      <use x="715.041016" xlink:href="#DejaVuSans-75"/>
      <use x="778.419922" xlink:href="#DejaVuSans-6e"/>
      <use x="841.798828" xlink:href="#DejaVuSans-63"/>
      <use x="896.779297" xlink:href="#DejaVuSans-74"/>
      <use x="935.988281" xlink:href="#DejaVuSans-69"/>
      <use x="963.771484" xlink:href="#DejaVuSans-6f"/>
      <use x="1024.953125" xlink:href="#DejaVuSans-6e"/>
      <use x="1088.332031" xlink:href="#DejaVuSans-2b"/>
      <use x="1172.121094" xlink:href="#DejaVuSans-74"/>
      <use x="1211.330078" xlink:href="#DejaVuSans-61"/>
      <use x="1272.609375" xlink:href="#DejaVuSans-72"/>
      <use x="1313.707031" xlink:href="#DejaVuSans-67"/>
      <use x="1377.183594" xlink:href="#DejaVuSans-65"/>
      <use x="1438.707031" xlink:href="#DejaVuSans-74"/>
      <use x="1477.916016" xlink:href="#DejaVuSans-20"/>
      <use x="1509.703125" xlink:href="#DejaVuSans-70"/>
      <use x="1573.179688" xlink:href="#DejaVuSans-61"/>
      <use x="1634.458984" xlink:href="#DejaVuSans-69"/>
      <use x="1662.242188" xlink:href="#DejaVuSans-72"/>
      <use x="1703.355469" xlink:href="#DejaVuSans-73"/>
     </g>
    </g>
   </g>
   <g id="line2d_41">
    <defs>
     <path d="M 0 1.5 
C 0.397805 1.5 0.77937 1.341951 1.06066 1.06066 
C 1.341951 0.77937 1.5 0.397805 1.5 0 
C 1.5 -0.397805 1.341951 -0.77937 1.06066 -1.06066 
C 0.77937 -1.341951 0.397805 -1.5 0 -1.5 
C -0.397805 -1.5 -0.77937 -1.341951 -1.06066 -1.06066 
C -1.341951 -0.77937 -1.5 -0.397805 -1.5 0 
C -1.5 0.397805 -1.341951 0.77937 -1.06066 1.06066 
C -0.77937 1.341951 -0.397805 1.5 0 1.5 
z
" id="mecbda10191" style="stroke:#000080;"/>
    </defs>
    <g>
     <use style="fill:#000080;stroke:#000080;" x="306.297887" xlink:href="#mecbda10191" y="34.768147"/>
     <use style="fill:#000080;stroke:#000080;" x="306.297887" xlink:href="#mecbda10191" y="34.768147"/>
    </g>
   </g>
   <g id="line2d_42">
    <path d="M 58.414766 298.245375 
L 58.414766 254.849126 
L 153.085714 254.849126 
L 153.085714 253.815882 
L 165.470948 253.815882 
L 165.470948 251.749394 
L 169.458103 251.749394 
L 169.458103 251.232772 
L 172.715846 251.232772 
L 172.715846 250.71615 
L 185.10108 250.71615 
L 185.10108 249.682906 
L 197.486314 249.682906 
L 197.486314 249.166284 
L 204.731212 249.166284 
L 204.731212 248.13304 
L 206.613806 248.13304 
L 206.613806 247.616418 
L 207.485594 247.616418 
L 207.485594 246.066551 
L 209.495363 246.066551 
L 209.495363 245.549929 
L 210.239976 245.549929 
L 210.239976 244.516685 
L 210.954796 244.516685 
L 210.954796 240.900331 
L 211.301761 240.900331 
L 211.301761 238.833843 
L 211.642116 238.833843 
L 211.642116 237.800599 
L 212.303974 237.800599 
L 212.303974 236.250733 
L 215.830415 236.250733 
L 215.830415 235.734111 
L 219.656836 235.734111 
L 219.656836 235.217489 
L 221.30104 235.217489 
L 221.30104 234.700867 
L 221.880598 234.700867 
L 221.880598 233.151001 
L 222.06968 233.151001 
L 222.06968 232.634379 
L 222.256782 232.634379 
L 222.256782 232.117757 
L 222.441946 232.117757 
L 222.441946 231.601135 
L 223.163988 231.601135 
L 223.163988 230.567891 
L 224.689208 230.567891 
L 224.689208 230.051269 
L 227.256976 230.051269 
L 227.256976 227.984781 
L 227.536171 227.984781 
L 227.536171 226.951537 
L 228.480367 226.951537 
L 228.480367 226.434915 
L 228.998319 226.434915 
L 228.998319 224.368427 
L 229.251772 224.368427 
L 229.251772 223.335183 
L 229.377163 223.335183 
L 229.377163 222.301939 
L 229.625335 222.301939 
L 229.625335 221.268695 
L 229.870108 221.268695 
L 229.870108 219.202207 
L 229.991248 219.202207 
L 229.991248 217.652341 
L 230.111572 217.652341 
L 230.111572 217.135719 
L 230.231092 217.135719 
L 230.231092 216.619097 
L 232.780091 216.619097 
L 232.780091 216.102475 
L 232.985474 216.102475 
L 233.087287 215.069231 
L 233.188523 215.069231 
L 233.188523 214.035987 
L 233.881556 214.035987 
L 233.978403 210.419632 
L 234.360623 210.419632 
L 234.454914 207.836522 
L 234.919047 207.836522 
L 234.919047 206.286656 
L 235.101376 206.286656 
L 235.191848 205.253412 
L 235.281864 205.253412 
L 235.371429 202.15368 
L 236.328101 202.15368 
L 236.412584 200.603814 
L 236.580361 200.603814 
L 236.580361 200.087192 
L 237.634115 200.087192 
L 237.634115 199.053948 
L 238.100267 199.053948 
L 238.100267 198.537326 
L 238.554565 198.537326 
L 238.554565 198.020704 
L 239.142869 198.020704 
L 239.142869 197.504082 
L 239.429913 197.504082 
L 239.50096 195.954216 
L 239.782353 195.954216 
L 239.782353 194.920972 
L 239.990528 194.920972 
L 239.990528 193.887728 
L 240.996503 193.887728 
L 240.996503 192.854484 
L 241.126454 192.854484 
L 241.126454 192.337862 
L 241.383553 192.337862 
L 241.383553 191.82124 
L 241.699812 191.82124 
L 241.762397 188.721508 
L 241.824764 188.721508 
L 241.886914 187.688264 
L 242.072077 187.688264 
L 242.072077 183.555288 
L 242.194462 183.555288 
L 242.255342 180.972178 
L 242.436746 180.972178 
L 242.496806 179.422312 
L 242.616326 179.422312 
L 242.675787 177.872445 
L 242.735052 177.872445 
L 242.79412 175.805957 
L 243.769508 175.805957 
L 243.769508 174.256091 
L 244.101433 174.256091 
L 244.101433 173.222847 
L 244.265111 173.222847 
L 244.265111 170.639737 
L 244.427304 170.639737 
L 244.481043 169.089871 
L 244.852756 169.089871 
L 244.957554 165.990139 
L 245.009724 165.990139 
L 245.009724 165.473517 
L 245.421687 165.473517 
L 245.523211 160.307297 
L 245.573757 160.307297 
L 245.573757 159.790675 
L 246.120529 159.790675 
L 246.169416 155.657699 
L 246.555769 155.657699 
L 246.603481 152.557967 
L 246.745857 152.557967 
L 246.840148 150.491479 
L 247.073722 150.491479 
L 247.073722 149.974857 
L 247.350038 149.974857 
L 247.350038 149.458235 
L 247.48661 149.458235 
L 247.577082 146.358503 
L 247.622147 146.358503 
L 247.622147 144.808637 
L 247.801277 144.808637 
L 247.801277 144.292014 
L 248.022694 144.292014 
L 248.022694 142.742148 
L 248.371351 142.742148 
L 248.371351 141.708904 
L 248.543161 141.708904 
L 248.585857 140.159038 
L 248.670944 140.159038 
L 248.713335 138.609172 
L 248.83991 138.609172 
L 248.923798 136.542684 
L 249.048897 136.542684 
L 249.048897 135.50944 
L 249.173125 135.50944 
L 249.214343 132.409708 
L 249.337431 132.409708 
L 249.41902 126.726866 
L 249.581091 126.726866 
L 249.62138 125.177 
L 249.701686 125.177 
L 249.701686 124.143756 
L 249.821472 124.143756 
L 249.861224 123.110512 
L 250.253945 123.110512 
L 250.253945 122.59389 
L 251.125734 122.59389 
L 251.125734 122.077268 
L 251.491896 122.077268 
L 251.600298 121.044024 
L 251.672202 121.044024 
L 251.743817 119.494158 
L 251.815147 119.494158 
L 251.921611 116.911048 
L 252.306639 116.911048 
L 252.306639 115.877804 
L 252.751228 115.877804 
L 252.751228 115.361182 
L 252.95275 115.361182 
L 253.052665 113.294694 
L 253.185022 113.294694 
L 253.185022 112.778072 
L 253.316406 112.778072 
L 253.316406 111.744828 
L 253.479289 111.744828 
L 253.544028 109.678339 
L 253.864254 109.678339 
L 253.864254 108.128473 
L 254.178842 108.128473 
L 254.272148 107.095229 
L 254.549179 107.095229 
L 254.640576 105.545363 
L 254.670938 105.545363 
L 254.731508 103.478875 
L 254.82198 103.478875 
L 254.882041 101.929009 
L 254.971755 101.929009 
L 254.971755 101.412387 
L 255.55861 101.412387 
L 255.55861 100.379143 
L 256.098817 100.379143 
L 256.126801 99.345899 
L 256.404262 99.345899 
L 256.514051 96.246167 
L 256.650346 96.246167 
L 256.731626 93.146435 
L 257.290466 93.146435 
L 257.316646 92.113191 
L 257.498843 92.113191 
L 257.498843 91.079947 
L 257.806921 91.079947 
L 257.806921 90.563325 
L 258.134786 90.563325 
L 258.134786 89.013459 
L 258.308868 89.013459 
L 258.308868 88.496837 
L 258.579044 88.496837 
L 258.652025 86.430349 
L 258.869195 86.430349 
L 258.917099 85.397105 
L 259.666593 85.397105 
L 259.666593 83.847239 
L 260.583107 83.847239 
L 260.691728 80.747507 
L 260.799693 80.747507 
L 260.86416 79.714263 
L 261.034944 79.714263 
L 261.077386 78.681019 
L 261.986481 78.681019 
L 261.986481 77.647775 
L 262.206707 77.647775 
L 262.206707 77.131153 
L 263.231336 77.131153 
L 263.231336 76.614531 
L 263.45539 76.614531 
L 263.45539 75.064664 
L 263.967511 75.064664 
L 263.967511 74.548042 
L 264.111175 74.548042 
L 264.111175 74.03142 
L 264.778235 74.03142 
L 264.778235 72.481554 
L 266.041996 72.481554 
L 266.041996 71.964932 
L 266.217723 71.964932 
L 266.297031 70.415066 
L 277.614343 70.415066 
L 277.631136 68.8652 
L 277.773246 68.8652 
L 277.80652 67.831956 
L 278.086874 67.831956 
L 278.192917 65.248846 
L 278.330645 65.248846 
L 278.330645 64.732224 
L 278.666432 64.732224 
L 278.705989 62.665736 
L 278.886834 62.665736 
L 278.957104 60.082626 
L 279.011568 60.082626 
L 279.05812 58.016138 
L 279.235453 58.016138 
L 279.334912 56.466272 
L 279.38063 56.466272 
L 279.418639 55.433028 
L 279.622504 55.433028 
L 279.622504 54.916406 
L 279.749679 54.916406 
L 279.816643 53.883162 
L 279.883357 53.883162 
L 279.883357 52.849918 
L 280.045393 52.849918 
L 280.147748 51.300052 
L 280.408284 51.300052 
L 280.48714 49.750186 
L 280.672156 49.750186 
L 280.672156 49.233564 
L 280.974002 49.233564 
L 281.043473 48.20032 
L 281.126485 48.20032 
L 281.160959 46.650454 
L 281.468272 46.650454 
L 281.468272 46.133832 
L 281.737072 46.133832 
L 281.737072 45.61721 
L 282.113257 45.61721 
L 282.113257 45.100588 
L 282.659921 45.100588 
L 282.716836 43.0341 
L 283.128764 43.0341 
L 283.128764 42.517478 
L 283.53744 42.517478 
L 283.53744 42.000855 
L 283.954659 42.000855 
L 283.954659 41.484233 
L 289.522838 41.484233 
L 289.522838 40.967611 
L 290.154316 40.967611 
L 290.204216 38.384501 
L 290.390107 38.384501 
L 290.49255 36.834635 
L 290.582217 36.834635 
L 290.582217 36.318013 
L 291.917418 36.318013 
L 291.917418 35.801391 
L 292.511098 35.801391 
L 292.511098 35.284769 
L 306.297887 35.284769 
L 306.297887 34.768147 
L 358.8 34.768147 
L 358.8 34.768147 
" style="fill:none;stroke:#000080;stroke-linecap:square;stroke-width:1.5;"/>
   </g>
   <g id="line2d_43">
    <defs>
     <path d="M 0 6 
C 1.591219 6 3.117479 5.367802 4.242641 4.242641 
C 5.367802 3.117479 6 1.591219 6 0 
C 6 -1.591219 5.367802 -3.117479 4.242641 -4.242641 
C 3.117479 -5.367802 1.591219 -6 0 -6 
C -1.591219 -6 -3.117479 -5.367802 -4.242641 -4.242641 
C -5.367802 -3.117479 -6 -1.591219 -6 0 
C -6 1.591219 -5.367802 3.117479 -4.242641 4.242641 
C -3.117479 5.367802 -1.591219 6 0 6 
z
" id="m36f89836b1" style="stroke:#000080;stroke-width:1.5;"/>
    </defs>
    <g>
     <use style="fill:none;stroke:#000080;stroke-width:1.5;" x="358.8" xlink:href="#m36f89836b1" y="34.768147"/>
    </g>
   </g>
   <g id="line2d_44"/>
   <g id="line2d_45">
    <path clip-path="url(#p1e68138127)" d="M 276.514286 70.415066 
" style="fill:none;stroke:#000080;stroke-linecap:square;stroke-width:1.5;"/>
    <defs>
     <path d="M -12 12 
L 12 -12 
M -12 -12 
L 12 12 
" id="m1956bdfcea" style="stroke:#000080;stroke-width:3;"/>
    </defs>
    <g clip-path="url(#p1e68138127)">
     <use style="fill:#000080;stroke:#000080;stroke-width:3;" x="276.514286" xlink:href="#m1956bdfcea" y="70.415066"/>
    </g>
   </g>
   <g id="line2d_46">
    <defs>
     <path d="M 0 1.5 
C 0.397805 1.5 0.77937 1.341951 1.06066 1.06066 
C 1.341951 0.77937 1.5 0.397805 1.5 0 
C 1.5 -0.397805 1.341951 -0.77937 1.06066 -1.06066 
C 0.77937 -1.341951 0.397805 -1.5 0 -1.5 
C -0.397805 -1.5 -0.77937 -1.341951 -1.06066 -1.06066 
C -1.341951 -0.77937 -1.5 -0.397805 -1.5 0 
C -1.5 0.397805 -1.341951 0.77937 -1.06066 1.06066 
C -0.77937 1.341951 -0.397805 1.5 0 1.5 
z
" id="mea37559e46" style="stroke:#ff00ff;"/>
    </defs>
    <g>
     <use style="fill:#ff00ff;stroke:#ff00ff;" x="221.880598" xlink:href="#mea37559e46" y="34.768147"/>
     <use style="fill:#ff00ff;stroke:#ff00ff;" x="221.880598" xlink:href="#mea37559e46" y="34.768147"/>
    </g>
   </g>
   <g id="line2d_47">
    <path d="M 58.414766 298.245375 
L 58.414766 223.335183 
L 153.085714 223.335183 
L 153.085714 191.82124 
L 160.330612 191.82124 
L 160.330612 186.65502 
L 165.470948 186.65502 
L 165.470948 184.588532 
L 169.458103 184.588532 
L 169.458103 184.07191 
L 172.715846 184.07191 
L 172.715846 179.938934 
L 175.470228 179.938934 
L 175.470228 172.189603 
L 177.856183 172.189603 
L 177.856183 168.573249 
L 179.960743 168.573249 
L 179.960743 167.023383 
L 181.843337 167.023383 
L 181.843337 161.857163 
L 183.546351 161.857163 
L 183.546351 160.823919 
L 187.855462 160.823919 
L 187.855462 158.757431 
L 190.241417 158.757431 
L 190.241417 154.624455 
L 191.324664 154.624455 
L 191.324664 153.074589 
L 192.345978 153.074589 
L 192.345978 149.458235 
L 193.312057 149.458235 
L 193.312057 145.325259 
L 194.228571 145.325259 
L 194.228571 143.775392 
L 195.10036 143.775392 
L 195.10036 142.742148 
L 195.931585 142.742148 
L 195.931585 140.159038 
L 196.725854 140.159038 
L 196.725854 139.642416 
L 197.486314 139.642416 
L 197.486314 138.09255 
L 198.215726 138.09255 
L 198.215726 137.575928 
L 199.590875 137.575928 
L 199.590875 132.92633 
L 201.473469 132.92633 
L 201.473469 130.859842 
L 202.059361 130.859842 
L 202.059361 126.726866 
L 202.626651 126.726866 
L 202.626651 125.693622 
L 203.709898 125.693622 
L 203.709898 115.877804 
L 205.22078 115.877804 
L 205.22078 112.26145 
L 205.697291 112.26145 
L 205.697291 107.611851 
L 207.055016 107.611851 
L 207.055016 106.061985 
L 207.485594 106.061985 
L 207.485594 105.545363 
L 208.316819 105.545363 
L 208.316819 103.478875 
L 208.718366 103.478875 
L 208.718366 102.962253 
L 209.111088 102.962253 
L 209.111088 101.929009 
L 209.495363 101.929009 
L 209.495363 100.895765 
L 210.954796 100.895765 
L 210.954796 99.862521 
L 211.301761 99.862521 
L 211.301761 97.796033 
L 211.642116 97.796033 
L 211.642116 96.246167 
L 213.252946 96.246167 
L 213.252946 93.146435 
L 213.558392 93.146435 
L 213.558392 91.596569 
L 214.444595 91.596569 
L 214.444595 89.013459 
L 216.866538 89.013459 
L 216.866538 86.430349 
L 217.362906 86.430349 
L 217.362906 85.913727 
L 217.606014 85.913727 
L 217.606014 83.330617 
L 218.316099 83.330617 
L 218.316099 78.164397 
L 218.546658 78.164397 
L 218.546658 76.097908 
L 218.99904 76.097908 
L 218.99904 75.581286 
L 219.221007 75.581286 
L 219.221007 74.548042 
L 219.44025 74.548042 
L 219.44025 69.381822 
L 219.656836 69.381822 
L 219.656836 67.831956 
L 219.870828 67.831956 
L 219.870828 64.732224 
L 220.082287 64.732224 
L 220.082287 61.11587 
L 220.497844 61.11587 
L 220.497844 49.750186 
L 220.702053 49.750186 
L 220.702053 47.683698 
L 220.903955 47.683698 
L 220.903955 46.650454 
L 221.103601 46.650454 
L 221.103601 45.61721 
L 221.30104 45.61721 
L 221.30104 45.100588 
L 221.689493 45.100588 
L 221.689493 35.801391 
L 221.880598 35.801391 
L 221.880598 34.768147 
L 358.8 34.768147 
" style="fill:none;stroke:#ff00ff;stroke-linecap:square;stroke-width:1.5;"/>
   </g>
   <g id="line2d_48">
    <defs>
     <path d="M -0 8.485281 
L 5.091169 0 
L 0 -8.485281 
L -5.091169 -0 
z
" id="md199fcd8a3" style="stroke:#ff00ff;stroke-linejoin:miter;stroke-width:1.5;"/>
    </defs>
    <g>
     <use style="fill:none;stroke:#ff00ff;stroke-linejoin:miter;stroke-width:1.5;" x="358.8" xlink:href="#md199fcd8a3" y="34.768147"/>
    </g>
   </g>
   <g id="line2d_49"/>
   <g id="line2d_50">
    <defs>
     <path d="M 0 1.5 
C 0.397805 1.5 0.77937 1.341951 1.06066 1.06066 
C 1.341951 0.77937 1.5 0.397805 1.5 0 
C 1.5 -0.397805 1.341951 -0.77937 1.06066 -1.06066 
C 0.77937 -1.341951 0.397805 -1.5 0 -1.5 
C -0.397805 -1.5 -0.77937 -1.341951 -1.06066 -1.06066 
C -1.341951 -0.77937 -1.5 -0.397805 -1.5 0 
C -1.5 0.397805 -1.341951 0.77937 -1.06066 1.06066 
C -0.77937 1.341951 -0.397805 1.5 0 1.5 
z
" id="m05e6db004c" style="stroke:#ffa500;"/>
    </defs>
    <g>
     <use style="fill:#ffa500;stroke:#ffa500;" x="230.349817" xlink:href="#m05e6db004c" y="34.768147"/>
     <use style="fill:#ffa500;stroke:#ffa500;" x="230.349817" xlink:href="#m05e6db004c" y="34.768147"/>
    </g>
   </g>
   <g id="line2d_51">
    <path d="M 58.414766 298.245375 
L 58.414766 239.350465 
L 153.085714 239.350465 
L 153.085714 234.700867 
L 169.458103 234.700867 
L 169.458103 234.184245 
L 177.856183 234.184245 
L 177.856183 233.151001 
L 179.960743 233.151001 
L 179.960743 230.051269 
L 190.241417 230.051269 
L 190.241417 229.534647 
L 191.324664 229.534647 
L 191.324664 229.018025 
L 192.345978 229.018025 
L 192.345978 227.984781 
L 195.931585 227.984781 
L 195.931585 227.468159 
L 198.916526 227.468159 
L 198.916526 225.918293 
L 199.590875 225.918293 
L 199.590875 224.368427 
L 200.867712 224.368427 
L 200.867712 221.785317 
L 203.176482 221.785317 
L 203.176482 220.235451 
L 204.227851 220.235451 
L 204.227851 218.685585 
L 206.613806 218.685585 
L 206.613806 217.135719 
L 207.906039 217.135719 
L 207.906039 214.552609 
L 209.495363 214.552609 
L 209.495363 211.452876 
L 210.239976 211.452876 
L 210.239976 209.90301 
L 211.301761 209.90301 
L 211.301761 208.353144 
L 211.976109 208.353144 
L 211.976109 207.3199 
L 212.303974 207.3199 
L 212.303974 206.286656 
L 212.62593 206.286656 
L 212.62593 205.770034 
L 213.558392 205.770034 
L 213.558392 204.73679 
L 213.858703 204.73679 
L 213.858703 203.186924 
L 214.730491 203.186924 
L 214.730491 201.637058 
L 215.011885 201.637058 
L 215.011885 201.120436 
L 215.561716 201.120436 
L 215.561716 200.603814 
L 216.095133 200.603814 
L 216.095133 197.504082 
L 216.355986 197.504082 
L 216.355986 196.470838 
L 216.866538 196.470838 
L 216.866538 193.887728 
L 217.606014 193.887728 
L 217.606014 189.754752 
L 217.845858 189.754752 
L 217.845858 188.721508 
L 218.082525 188.721508 
L 218.082525 188.204886 
L 218.316099 188.204886 
L 218.316099 183.555288 
L 218.774281 183.555288 
L 218.774281 182.005422 
L 219.221007 182.005422 
L 219.221007 179.938934 
L 220.291274 179.938934 
L 220.291274 176.322579 
L 220.702053 176.322579 
L 220.702053 172.189603 
L 220.903955 172.189603 
L 220.903955 171.672981 
L 221.103601 171.672981 
L 221.103601 167.540005 
L 221.30104 167.540005 
L 221.30104 165.473517 
L 221.496322 165.473517 
L 221.496322 163.407029 
L 221.689493 163.407029 
L 221.689493 162.373785 
L 221.880598 162.373785 
L 221.880598 155.141077 
L 222.06968 155.141077 
L 222.06968 151.008101 
L 222.256782 151.008101 
L 222.256782 147.908369 
L 222.441946 147.908369 
L 222.441946 141.192282 
L 222.62521 141.192282 
L 222.62521 136.026062 
L 222.806614 136.026062 
L 222.806614 128.793354 
L 222.986194 128.793354 
L 222.986194 121.560646 
L 223.163988 121.560646 
L 223.163988 108.645095 
L 223.34003 108.645095 
L 223.34003 96.246167 
L 223.514355 96.246167 
L 223.514355 89.530081 
L 224.195127 89.530081 
L 224.195127 85.397105 
L 224.361343 85.397105 
L 224.361343 84.363861 
L 224.689208 84.363861 
L 224.689208 80.747507 
L 225.011165 80.747507 
L 225.011165 79.197641 
L 225.483477 79.197641 
L 225.483477 78.164397 
L 226.539285 78.164397 
L 226.539285 71.44831 
L 226.685148 71.44831 
L 226.685148 70.931688 
L 226.82983 70.931688 
L 226.82983 68.348578 
L 226.973349 68.348578 
L 226.973349 67.315334 
L 227.256976 67.315334 
L 227.256976 63.182358 
L 227.536171 63.182358 
L 227.536171 60.082626 
L 227.67415 60.082626 
L 227.67415 59.566004 
L 227.811071 59.566004 
L 227.811071 53.883162 
L 227.94695 53.883162 
L 227.94695 51.816674 
L 228.081805 51.816674 
L 228.081805 50.78343 
L 228.480367 50.78343 
L 228.480367 48.716942 
L 228.611269 48.716942 
L 228.611269 48.20032 
L 228.998319 48.20032 
L 228.998319 43.0341 
L 229.125495 43.0341 
L 229.125495 40.967611 
L 229.251772 40.967611 
L 229.251772 40.450989 
L 229.377163 40.450989 
L 229.377163 38.901123 
L 229.50168 38.901123 
L 229.50168 37.351257 
L 229.748141 37.351257 
L 229.748141 36.834635 
L 229.991248 36.834635 
L 229.991248 35.801391 
L 230.111572 35.801391 
L 230.111572 35.284769 
L 230.349817 35.284769 
L 230.349817 34.768147 
L 358.8 34.768147 
L 358.8 34.768147 
" style="fill:none;stroke:#ffa500;stroke-linecap:square;stroke-width:1.5;"/>
   </g>
   <g id="line2d_52">
    <defs>
     <path d="M 0 -6 
L -1.347084 -1.854102 
L -5.706339 -1.854102 
L -2.179628 0.708204 
L -3.526712 4.854102 
L -0 2.291796 
L 3.526712 4.854102 
L 2.179628 0.708204 
L 5.706339 -1.854102 
L 1.347084 -1.854102 
z
" id="mbdd8c034d4" style="stroke:#ffa500;stroke-linejoin:bevel;stroke-width:1.5;"/>
    </defs>
    <g>
     <use style="fill:none;stroke:#ffa500;stroke-linejoin:bevel;stroke-width:1.5;" x="358.8" xlink:href="#mbdd8c034d4" y="34.768147"/>
    </g>
   </g>
   <g id="line2d_53"/>
   <g id="line2d_54">
    <defs>
     <path d="M 0 1.5 
C 0.397805 1.5 0.77937 1.341951 1.06066 1.06066 
C 1.341951 0.77937 1.5 0.397805 1.5 0 
C 1.5 -0.397805 1.341951 -0.77937 1.06066 -1.06066 
C 0.77937 -1.341951 0.397805 -1.5 0 -1.5 
C -0.397805 -1.5 -0.77937 -1.341951 -1.06066 -1.06066 
C -1.341951 -0.77937 -1.5 -0.397805 -1.5 0 
C -1.5 0.397805 -1.341951 0.77937 -1.06066 1.06066 
C -0.77937 1.341951 -0.397805 1.5 0 1.5 
z
" id="m04042445da" style="stroke:#6495ed;"/>
    </defs>
    <g>
     <use style="fill:#6495ed;stroke:#6495ed;" x="333.831532" xlink:href="#m04042445da" y="34.768147"/>
     <use style="fill:#6495ed;stroke:#6495ed;" x="333.831532" xlink:href="#m04042445da" y="34.768147"/>
    </g>
   </g>
   <g id="line2d_55">
    <path d="M 58.414766 298.245375 
L 58.414766 259.498724 
L 153.085714 259.498724 
L 153.085714 258.46548 
L 165.470948 258.46548 
L 165.470948 257.948858 
L 169.458103 257.948858 
L 169.458103 257.432236 
L 183.546351 257.432236 
L 183.546351 256.398992 
L 186.531292 256.398992 
L 186.531292 255.88237 
L 189.088235 255.88237 
L 189.088235 254.332504 
L 190.241417 254.332504 
L 190.241417 253.815882 
L 202.626651 253.815882 
L 202.626651 252.266016 
L 207.055016 252.266016 
L 207.055016 250.71615 
L 208.718366 250.71615 
L 208.718366 250.199528 
L 210.954796 250.199528 
L 210.954796 249.682906 
L 211.301761 249.682906 
L 211.301761 248.649662 
L 216.866538 248.649662 
L 216.866538 247.616418 
L 217.845858 247.616418 
L 217.845858 247.099796 
L 218.546658 247.099796 
L 218.546658 246.583173 
L 221.103601 246.583173 
L 221.103601 246.066551 
L 221.30104 246.066551 
L 221.30104 245.549929 
L 224.689208 245.549929 
L 224.689208 244.516685 
L 225.327423 244.516685 
L 225.327423 242.966819 
L 227.115725 242.966819 
L 227.115725 242.450197 
L 228.081805 242.450197 
L 228.081805 241.933575 
L 228.480367 241.933575 
L 228.480367 240.383709 
L 228.74122 240.383709 
L 228.74122 239.867087 
L 229.125495 239.867087 
L 229.125495 239.350465 
L 229.625335 239.350465 
L 229.625335 238.317221 
L 230.467759 238.317221 
L 230.467759 237.283977 
L 230.701333 237.283977 
L 230.701333 236.767355 
L 230.931892 236.767355 
L 230.931892 236.250733 
L 233.784182 236.250733 
L 233.784182 234.700867 
L 234.360623 234.700867 
L 234.360623 233.667623 
L 234.54871 233.667623 
L 234.54871 232.634379 
L 241.573979 232.634379 
L 241.637006 227.984781 
L 241.886914 227.984781 
L 241.948849 226.434915 
L 242.072077 226.434915 
L 242.072077 225.401671 
L 242.316015 225.401671 
L 242.316015 224.368427 
L 242.496806 224.368427 
L 242.556666 221.268695 
L 242.735052 221.268695 
L 242.735052 219.718829 
L 242.970162 219.718829 
L 242.970162 218.685585 
L 244.694396 218.685585 
L 244.694396 218.168963 
L 245.009724 218.168963 
L 245.061742 213.519365 
L 245.268312 213.519365 
L 245.319583 209.90301 
L 247.801277 209.90301 
L 247.801277 209.386388 
L 248.06665 209.386388 
L 248.06665 207.836522 
L 248.414459 207.836522 
L 248.457463 206.286656 
L 248.965595 206.286656 
L 248.965595 205.253412 
L 249.41902 205.253412 
L 249.41902 203.703546 
L 249.661578 203.703546 
L 249.701686 200.603814 
L 249.821472 200.603814 
L 249.861224 198.020704 
L 250.902379 198.020704 
L 250.902379 197.504082 
L 251.051592 197.504082 
L 251.125734 194.920972 
L 251.199569 194.920972 
L 251.236372 192.337862 
L 251.34633 192.337862 
L 251.34633 189.754752 
L 251.636286 189.754752 
L 251.743817 186.138398 
L 253.6407 186.138398 
L 253.6407 185.105154 
L 254.272148 185.105154 
L 254.272148 184.588532 
L 256.404262 184.588532 
L 256.404262 184.07191 
L 262.08692 184.07191 
L 262.08692 183.555288 
L 262.226593 183.555288 
L 262.226593 182.522044 
L 268.651304 182.522044 
L 268.651304 182.005422 
L 268.844475 182.005422 
L 268.844475 181.4888 
L 269.398465 181.4888 
L 269.478115 179.938934 
L 270.230294 179.938934 
L 270.230294 179.422312 
L 276.727427 179.422312 
L 276.797913 177.872445 
L 276.911862 177.872445 
L 276.911862 176.839201 
L 277.723218 176.839201 
L 277.798207 174.772713 
L 278.127734 174.772713 
L 278.176643 173.222847 
L 278.626786 173.222847 
L 278.626786 172.706225 
L 278.886834 172.706225 
L 278.996024 167.023383 
L 279.003798 167.023383 
L 279.05812 163.407029 
L 279.220103 163.407029 
L 279.312009 159.274053 
L 279.34254 159.274053 
L 279.395844 154.624455 
L 279.79435 154.624455 
L 279.898148 151.008101 
L 280.060051 151.008101 
L 280.140456 144.292014 
L 280.176885 144.292014 
L 280.176885 143.25877 
L 280.336293 143.25877 
L 280.422647 136.026062 
L 280.479986 136.026062 
L 280.494292 133.959574 
L 280.876285 133.959574 
L 280.897269 131.893086 
L 286.426566 131.893086 
L 286.50846 130.34322 
L 286.797192 130.34322 
L 286.797192 129.826598 
L 288.442556 129.826598 
L 288.442556 129.309976 
L 289.041896 129.309976 
L 289.041896 128.793354 
L 289.397296 128.793354 
L 289.505574 126.726866 
L 289.535775 126.726866 
L 289.535775 126.210244 
L 289.698838 126.210244 
L 289.724449 125.177 
L 290.154316 125.177 
L 290.200063 122.59389 
L 290.303598 122.59389 
L 290.398324 117.944292 
L 290.614712 117.944292 
L 290.66739 115.361182 
L 290.760212 115.361182 
L 290.80845 111.228206 
L 290.928478 111.228206 
L 290.996138 107.095229 
L 291.225067 107.095229 
L 291.225067 106.578607 
L 293.910966 106.578607 
L 293.910966 106.061985 
L 294.055484 106.061985 
L 294.095607 104.512119 
L 294.311388 104.512119 
L 294.403543 102.445631 
L 294.423229 102.445631 
L 294.423229 101.929009 
L 296.177146 101.929009 
L 296.177146 101.412387 
L 296.715894 101.412387 
L 296.715894 100.895765 
L 296.970769 100.895765 
L 297.021877 96.246167 
L 297.129295 96.246167 
L 297.154642 95.212923 
L 297.317132 95.212923 
L 297.425567 91.079947 
L 297.436651 91.079947 
L 297.544366 86.430349 
L 297.727911 86.430349 
L 297.727911 85.913727 
L 299.755996 85.913727 
L 299.765725 84.880483 
L 300.091025 84.880483 
L 300.0958 83.847239 
L 301.014702 83.847239 
L 301.014702 83.330617 
L 301.38498 83.330617 
L 301.38498 82.813995 
L 301.923165 82.813995 
L 302.026312 78.681019 
L 302.047727 78.681019 
L 302.049867 77.131153 
L 302.162923 77.131153 
L 302.264699 74.548042 
L 302.319587 74.548042 
L 302.344863 71.964932 
L 303.76066 71.964932 
L 303.76066 71.44831 
L 303.971364 71.44831 
L 303.971364 70.931688 
L 304.253538 70.931688 
L 304.353513 69.898444 
L 305.796599 69.898444 
L 305.886597 66.28209 
L 306.051567 66.28209 
L 306.124968 63.182358 
L 307.452545 63.182358 
L 307.534596 60.599248 
L 307.67416 60.599248 
L 307.752092 58.53276 
L 308.750148 58.53276 
L 308.750148 58.016138 
L 308.967956 58.016138 
L 308.973767 56.982894 
L 309.125628 56.982894 
L 309.194622 54.916406 
L 309.23904 54.916406 
L 309.254775 53.883162 
L 309.8205 53.883162 
L 309.8205 53.36654 
L 310.344666 53.36654 
L 310.431889 52.333296 
L 310.562597 52.333296 
L 310.562597 51.816674 
L 310.708179 51.816674 
L 310.708179 51.300052 
L 311.642874 51.300052 
L 311.723999 48.716942 
L 311.849329 48.716942 
L 311.908585 47.167076 
L 312.004458 47.167076 
L 312.004458 46.650454 
L 312.851947 46.650454 
L 312.872977 45.61721 
L 313.996431 45.61721 
L 314.039145 44.583966 
L 314.204652 44.583966 
L 314.301932 43.550722 
L 315.215967 43.550722 
L 315.247689 42.517478 
L 316.054267 42.517478 
L 316.103063 40.967611 
L 316.205103 40.967611 
L 316.315234 39.417745 
L 318.147097 39.417745 
L 318.147097 38.901123 
L 318.819256 38.901123 
L 318.819256 37.867879 
L 319.632588 37.867879 
L 319.632588 37.351257 
L 321.275289 37.351257 
L 321.275289 36.834635 
L 321.98762 36.834635 
L 321.98762 36.318013 
L 326.761927 36.318013 
L 326.761927 35.801391 
L 327.294396 35.801391 
L 327.294396 35.284769 
L 333.831532 35.284769 
L 333.831532 34.768147 
L 358.8 34.768147 
L 358.8 34.768147 
" style="fill:none;stroke:#6495ed;stroke-linecap:square;stroke-width:1.5;"/>
   </g>
   <g id="line2d_56">
    <defs>
     <path d="M -0 6 
L 6 -6 
L -6 -6 
z
" id="m4b7eead6d2" style="stroke:#6495ed;stroke-linejoin:miter;stroke-width:1.5;"/>
    </defs>
    <g>
     <use style="fill:none;stroke:#6495ed;stroke-linejoin:miter;stroke-width:1.5;" x="358.8" xlink:href="#m4b7eead6d2" y="34.768147"/>
    </g>
   </g>
   <g id="line2d_57"/>
   <g id="line2d_58">
    <path clip-path="url(#p1e68138127)" d="M 276.514286 179.422312 
" style="fill:none;stroke:#6495ed;stroke-linecap:square;stroke-width:1.5;"/>
    <defs>
     <path d="M -12 12 
L 12 -12 
M -12 -12 
L 12 12 
" id="m0f233eecba" style="stroke:#6495ed;stroke-width:3;"/>
    </defs>
    <g clip-path="url(#p1e68138127)">
     <use style="fill:#6495ed;stroke:#6495ed;stroke-width:3;" x="276.514286" xlink:href="#m0f233eecba" y="179.422312"/>
    </g>
   </g>
   <g id="line2d_59">
    <path d="M 358.8 34.768147 
L 390.48 292.97583 
" style="fill:none;stroke:#6495ed;stroke-linecap:square;stroke-width:1.5;"/>
    <g>
     <use style="fill:none;stroke:#6495ed;stroke-linejoin:miter;stroke-width:1.5;" x="358.8" xlink:href="#m4b7eead6d2" y="34.768147"/>
     <use style="fill:none;stroke:#6495ed;stroke-linejoin:miter;stroke-width:1.5;" x="390.48" xlink:href="#m4b7eead6d2" y="292.97583"/>
    </g>
   </g>
   <g id="line2d_60">
    <path d="M 358.8 34.768147 
L 390.48 208.663118 
" style="fill:none;stroke:#000080;stroke-linecap:square;stroke-width:1.5;"/>
    <g>
     <use style="fill:none;stroke:#000080;stroke-width:1.5;" x="358.8" xlink:href="#m36f89836b1" y="34.768147"/>
     <use style="fill:none;stroke:#000080;stroke-width:1.5;" x="390.48" xlink:href="#m36f89836b1" y="208.663118"/>
    </g>
   </g>
   <g id="line2d_61">
    <path d="M 358.8 34.768147 
L 390.48 124.350405 
" style="fill:none;stroke:#ffa500;stroke-linecap:square;stroke-width:1.5;"/>
    <g>
     <use style="fill:none;stroke:#ffa500;stroke-linejoin:bevel;stroke-width:1.5;" x="358.8" xlink:href="#mbdd8c034d4" y="34.768147"/>
     <use style="fill:none;stroke:#ffa500;stroke-linejoin:bevel;stroke-width:1.5;" x="390.48" xlink:href="#mbdd8c034d4" y="124.350405"/>
    </g>
   </g>
   <g id="line2d_62">
    <path d="M 358.8 34.768147 
L 390.48 40.037692 
" style="fill:none;stroke:#ff00ff;stroke-linecap:square;stroke-width:1.5;"/>
    <g>
     <use style="fill:none;stroke:#ff00ff;stroke-linejoin:miter;stroke-width:1.5;" x="358.8" xlink:href="#md199fcd8a3" y="34.768147"/>
     <use style="fill:none;stroke:#ff00ff;stroke-linejoin:miter;stroke-width:1.5;" x="390.48" xlink:href="#md199fcd8a3" y="40.037692"/>
    </g>
   </g>
   <g id="line2d_63">
    <path d="M 358.8 298.245375 
L 358.8 34.768147 
" style="fill:none;stroke:#000000;stroke-linecap:square;stroke-width:1.5;"/>
   </g>
   <g id="patch_3">
    <path d="M 70.8 298.245375 
L 70.8 32.133375 
" style="fill:none;stroke:#000000;stroke-linecap:square;stroke-linejoin:miter;stroke-width:0.8;"/>
   </g>
   <g id="patch_4">
    <path d="M 427.92 298.245375 
L 427.92 32.133375 
" style="fill:none;stroke:#000000;stroke-linecap:square;stroke-linejoin:miter;stroke-width:0.8;"/>
   </g>
   <g id="patch_5">
    <path d="M 70.8 298.245375 
L 427.92 298.245375 
" style="fill:none;stroke:#000000;stroke-linecap:square;stroke-linejoin:miter;stroke-width:0.8;"/>
   </g>
   <g id="patch_6">
    <path d="M 70.8 32.133375 
L 427.92 32.133375 
" style="fill:none;stroke:#000000;stroke-linecap:square;stroke-linejoin:miter;stroke-width:0.8;"/>
   </g>
   <g id="text_14">
    <!-- f24 -->
    <g transform="translate(396.24 297.114893)scale(0.15 -0.15)">
     <use xlink:href="#DejaVuSans-66"/>
     <use x="35.205078" xlink:href="#DejaVuSans-32"/>
     <use x="98.828125" xlink:href="#DejaVuSans-34"/>
    </g>
   </g>
   <g id="text_15">
    <!-- f23 -->
    <defs>
     <path d="M 40.578125 39.3125 
Q 47.65625 37.796875 51.625 33 
Q 55.609375 28.21875 55.609375 21.1875 
Q 55.609375 10.40625 48.1875 4.484375 
Q 40.765625 -1.421875 27.09375 -1.421875 
Q 22.515625 -1.421875 17.65625 -0.515625 
Q 12.796875 0.390625 7.625 2.203125 
L 7.625 11.71875 
Q 11.71875 9.328125 16.59375 8.109375 
Q 21.484375 6.890625 26.8125 6.890625 
Q 36.078125 6.890625 40.9375 10.546875 
Q 45.796875 14.203125 45.796875 21.1875 
Q 45.796875 27.640625 41.28125 31.265625 
Q 36.765625 34.90625 28.71875 34.90625 
L 20.21875 34.90625 
L 20.21875 43.015625 
L 29.109375 43.015625 
Q 36.375 43.015625 40.234375 45.921875 
Q 44.09375 48.828125 44.09375 54.296875 
Q 44.09375 59.90625 40.109375 62.90625 
Q 36.140625 65.921875 28.71875 65.921875 
Q 24.65625 65.921875 20.015625 65.03125 
Q 15.375 64.15625 9.8125 62.3125 
L 9.8125 71.09375 
Q 15.4375 72.65625 20.34375 73.4375 
Q 25.25 74.21875 29.59375 74.21875 
Q 40.828125 74.21875 47.359375 69.109375 
Q 53.90625 64.015625 53.90625 55.328125 
Q 53.90625 49.265625 50.4375 45.09375 
Q 46.96875 40.921875 40.578125 39.3125 
" id="DejaVuSans-33"/>
    </defs>
    <g transform="translate(396.24 212.80218)scale(0.15 -0.15)">
     <use xlink:href="#DejaVuSans-66"/>
     <use x="35.205078" xlink:href="#DejaVuSans-32"/>
     <use x="98.828125" xlink:href="#DejaVuSans-33"/>
    </g>
   </g>
   <g id="text_16">
    <!-- f20 -->
    <g transform="translate(396.24 128.489467)scale(0.15 -0.15)">
     <use xlink:href="#DejaVuSans-66"/>
     <use x="35.205078" xlink:href="#DejaVuSans-32"/>
     <use x="98.828125" xlink:href="#DejaVuSans-30"/>
    </g>
   </g>
   <g id="text_17">
    <!-- f21 -->
    <g transform="translate(396.24 44.176754)scale(0.15 -0.15)">
     <use xlink:href="#DejaVuSans-66"/>
     <use x="35.205078" xlink:href="#DejaVuSans-32"/>
     <use x="98.828125" xlink:href="#DejaVuSans-31"/>
    </g>
   </g>
   <g id="text_18">
    <!-- bbob -->
    <defs>
     <path d="M 48.6875 27.296875 
Q 48.6875 37.203125 44.609375 42.84375 
Q 40.53125 48.484375 33.40625 48.484375 
Q 26.265625 48.484375 22.1875 42.84375 
Q 18.109375 37.203125 18.109375 27.296875 
Q 18.109375 17.390625 22.1875 11.75 
Q 26.265625 6.109375 33.40625 6.109375 
Q 40.53125 6.109375 44.609375 11.75 
Q 48.6875 17.390625 48.6875 27.296875 
M 18.109375 46.390625 
Q 20.953125 51.265625 25.265625 53.625 
Q 29.59375 56 35.59375 56 
Q 45.5625 56 51.78125 48.09375 
Q 58.015625 40.1875 58.015625 27.296875 
Q 58.015625 14.40625 51.78125 6.484375 
Q 45.5625 -1.421875 35.59375 -1.421875 
Q 29.59375 -1.421875 25.265625 0.953125 
Q 20.953125 3.328125 18.109375 8.203125 
L 18.109375 0 
L 9.078125 0 
L 9.078125 75.984375 
L 18.109375 75.984375 
z
" id="DejaVuSans-62"/>
    </defs>
    <g transform="translate(74.3712 50.114612)scale(0.1666 -0.1666)">
     <use xlink:href="#DejaVuSans-62"/>
     <use x="63.476562" xlink:href="#DejaVuSans-62"/>
     <use x="126.953125" xlink:href="#DejaVuSans-6f"/>
     <use x="188.134766" xlink:href="#DejaVuSans-62"/>
    </g>
    <!-- Weak structure functions, 2-D -->
    <defs>
     <path d="M 3.328125 72.90625 
L 13.28125 72.90625 
L 28.609375 11.28125 
L 43.890625 72.90625 
L 54.984375 72.90625 
L 70.3125 11.28125 
L 85.59375 72.90625 
L 95.609375 72.90625 
L 77.296875 0 
L 64.890625 0 
L 49.515625 63.28125 
L 33.984375 0 
L 21.578125 0 
z
" id="DejaVuSans-57"/>
     <path d="M 9.078125 75.984375 
L 18.109375 75.984375 
L 18.109375 31.109375 
L 44.921875 54.6875 
L 56.390625 54.6875 
L 27.390625 29.109375 
L 57.625 0 
L 45.90625 0 
L 18.109375 26.703125 
L 18.109375 0 
L 9.078125 0 
z
" id="DejaVuSans-6b"/>
     <path d="M 11.71875 12.40625 
L 22.015625 12.40625 
L 22.015625 4 
L 14.015625 -11.625 
L 7.71875 -11.625 
L 11.71875 4 
z
" id="DejaVuSans-2c"/>
     <path d="M 19.671875 64.796875 
L 19.671875 8.109375 
L 31.59375 8.109375 
Q 46.6875 8.109375 53.6875 14.9375 
Q 60.6875 21.78125 60.6875 36.53125 
Q 60.6875 51.171875 53.6875 57.984375 
Q 46.6875 64.796875 31.59375 64.796875 
z
M 9.8125 72.90625 
L 30.078125 72.90625 
Q 51.265625 72.90625 61.171875 64.09375 
Q 71.09375 55.28125 71.09375 36.53125 
Q 71.09375 17.671875 61.125 8.828125 
Q 51.171875 0 30.078125 0 
L 9.8125 0 
z
" id="DejaVuSans-44"/>
    </defs>
    <g transform="translate(74.3712 68.770168)scale(0.1666 -0.1666)">
     <use xlink:href="#DejaVuSans-57"/>
     <use x="98.798828" xlink:href="#DejaVuSans-65"/>
     <use x="160.322266" xlink:href="#DejaVuSans-61"/>
     <use x="221.601562" xlink:href="#DejaVuSans-6b"/>
     <use x="279.511719" xlink:href="#DejaVuSans-20"/>
     <use x="311.298828" xlink:href="#DejaVuSans-73"/>
     <use x="363.398438" xlink:href="#DejaVuSans-74"/>
     <use x="402.607422" xlink:href="#DejaVuSans-72"/>
     <use x="443.720703" xlink:href="#DejaVuSans-75"/>
     <use x="507.099609" xlink:href="#DejaVuSans-63"/>
     <use x="562.080078" xlink:href="#DejaVuSans-74"/>
     <use x="601.289062" xlink:href="#DejaVuSans-75"/>
     <use x="664.667969" xlink:href="#DejaVuSans-72"/>
     <use x="705.75" xlink:href="#DejaVuSans-65"/>
     <use x="767.273438" xlink:href="#DejaVuSans-20"/>
     <use x="799.060547" xlink:href="#DejaVuSans-66"/>
     <use x="834.265625" xlink:href="#DejaVuSans-75"/>
     <use x="897.644531" xlink:href="#DejaVuSans-6e"/>
     <use x="961.023438" xlink:href="#DejaVuSans-63"/>
     <use x="1016.003906" xlink:href="#DejaVuSans-74"/>
     <use x="1055.212891" xlink:href="#DejaVuSans-69"/>
     <use x="1082.996094" xlink:href="#DejaVuSans-6f"/>
     <use x="1144.177734" xlink:href="#DejaVuSans-6e"/>
     <use x="1207.556641" xlink:href="#DejaVuSans-73"/>
     <use x="1259.65625" xlink:href="#DejaVuSans-2c"/>
     <use x="1291.443359" xlink:href="#DejaVuSans-20"/>
     <use x="1323.230469" xlink:href="#DejaVuSans-32"/>
     <use x="1386.853516" xlink:href="#DejaVuSans-2d"/>
     <use x="1422.9375" xlink:href="#DejaVuSans-44"/>
    </g>
    <!-- 51 targets in 100..1e-08 -->
    <defs>
     <path d="M 10.796875 72.90625 
L 49.515625 72.90625 
L 49.515625 64.59375 
L 19.828125 64.59375 
L 19.828125 46.734375 
Q 21.96875 47.46875 24.109375 47.828125 
Q 26.265625 48.1875 28.421875 48.1875 
Q 40.625 48.1875 47.75 41.5 
Q 54.890625 34.8125 54.890625 23.390625 
Q 54.890625 11.625 47.5625 5.09375 
Q 40.234375 -1.421875 26.90625 -1.421875 
Q 22.3125 -1.421875 17.546875 -0.640625 
Q 12.796875 0.140625 7.71875 1.703125 
L 7.71875 11.625 
Q 12.109375 9.234375 16.796875 8.0625 
Q 21.484375 6.890625 26.703125 6.890625 
Q 35.15625 6.890625 40.078125 11.328125 
Q 45.015625 15.765625 45.015625 23.390625 
Q 45.015625 31 40.078125 35.4375 
Q 35.15625 39.890625 26.703125 39.890625 
Q 22.75 39.890625 18.8125 39.015625 
Q 14.890625 38.140625 10.796875 36.28125 
z
" id="DejaVuSans-35"/>
    </defs>
    <g transform="translate(74.3712 87.425723)scale(0.1666 -0.1666)">
     <use xlink:href="#DejaVuSans-35"/>
     <use x="63.623047" xlink:href="#DejaVuSans-31"/>
     <use x="127.246094" xlink:href="#DejaVuSans-20"/>
     <use x="159.033203" xlink:href="#DejaVuSans-74"/>
     <use x="198.242188" xlink:href="#DejaVuSans-61"/>
     <use x="259.521484" xlink:href="#DejaVuSans-72"/>
     <use x="300.619141" xlink:href="#DejaVuSans-67"/>
     <use x="364.095703" xlink:href="#DejaVuSans-65"/>
     <use x="425.619141" xlink:href="#DejaVuSans-74"/>
     <use x="464.828125" xlink:href="#DejaVuSans-73"/>
     <use x="516.927734" xlink:href="#DejaVuSans-20"/>
     <use x="548.714844" xlink:href="#DejaVuSans-69"/>
     <use x="576.498047" xlink:href="#DejaVuSans-6e"/>
     <use x="639.876953" xlink:href="#DejaVuSans-20"/>
     <use x="671.664062" xlink:href="#DejaVuSans-31"/>
     <use x="735.287109" xlink:href="#DejaVuSans-30"/>
     <use x="798.910156" xlink:href="#DejaVuSans-30"/>
     <use x="862.533203" xlink:href="#DejaVuSans-2e"/>
     <use x="894.320312" xlink:href="#DejaVuSans-2e"/>
     <use x="926.107422" xlink:href="#DejaVuSans-31"/>
     <use x="989.730469" xlink:href="#DejaVuSans-65"/>
     <use x="1051.253906" xlink:href="#DejaVuSans-2d"/>
     <use x="1087.337891" xlink:href="#DejaVuSans-30"/>
     <use x="1150.960938" xlink:href="#DejaVuSans-38"/>
    </g>
    <!-- 15 instances -->
    <g transform="translate(74.3712 106.081279)scale(0.1666 -0.1666)">
     <use xlink:href="#DejaVuSans-31"/>
     <use x="63.623047" xlink:href="#DejaVuSans-35"/>
     <use x="127.246094" xlink:href="#DejaVuSans-20"/>
     <use x="159.033203" xlink:href="#DejaVuSans-69"/>
     <use x="186.816406" xlink:href="#DejaVuSans-6e"/>
     <use x="250.195312" xlink:href="#DejaVuSans-73"/>
     <use x="302.294922" xlink:href="#DejaVuSans-74"/>
     <use x="341.503906" xlink:href="#DejaVuSans-61"/>
     <use x="402.783203" xlink:href="#DejaVuSans-6e"/>
     <use x="466.162109" xlink:href="#DejaVuSans-63"/>
     <use x="521.142578" xlink:href="#DejaVuSans-65"/>
     <use x="582.666016" xlink:href="#DejaVuSans-73"/>
    </g>
   </g>
   <g id="text_19">
    <!-- v2.0.1 -->
    <g style="fill:#808080;" transform="translate(233.67875 293.504568)scale(0.1 -0.1)">
     <use xlink:href="#DejaVuSans-76"/>
     <use x="59.179688" xlink:href="#DejaVuSans-32"/>
     <use x="122.802734" xlink:href="#DejaVuSans-2e"/>
     <use x="154.589844" xlink:href="#DejaVuSans-30"/>
     <use x="218.212891" xlink:href="#DejaVuSans-2e"/>
     <use x="250" xlink:href="#DejaVuSans-31"/>
    </g>
   </g>
  </g>
 </g>
 <defs>
  <clipPath id="p1e68138127">
   <rect height="266.112" width="357.12" x="70.8" y="32.133375"/>
  </clipPath>
 </defs>
</svg>
