<?xml version="1.0" encoding="utf-8" standalone="no"?>
<!DOCTYPE svg PUBLIC "-//W3C//DTD SVG 1.1//EN"
  "http://www.w3.org/Graphics/SVG/1.1/DTD/svg11.dtd">
<!-- Created with matplotlib (http://matplotlib.org/) -->
<svg height="353pt" version="1.1" viewBox="0 0 439 353" width="439pt" xmlns="http://www.w3.org/2000/svg" xmlns:xlink="http://www.w3.org/1999/xlink">
 <defs>
  <style type="text/css">
*{stroke-linecap:butt;stroke-linejoin:round;}
  </style>
 </defs>
 <g id="figure_1">
  <g id="patch_1">
   <path d="M 0 353.22225 
L 439.489219 353.22225 
L 439.489219 0 
L 0 0 
z
" style="fill:#ffffff;"/>
  </g>
  <g id="axes_1">
   <g id="patch_2">
    <path d="M 70.8 298.245375 
L 427.92 298.245375 
L 427.92 32.133375 
L 70.8 32.133375 
z
" style="fill:#ffffff;"/>
   </g>
   <g id="matplotlib.axis_1">
    <g id="xtick_1">
     <g id="line2d_1">
      <path clip-path="url(#p94dcfd87dd)" d="M 70.8 298.245375 
L 70.8 32.133375 
" style="fill:none;stroke:#b0b0b0;stroke-linecap:square;stroke-width:0.8;"/>
     </g>
     <g id="line2d_2">
      <defs>
       <path d="M 0 0 
L 0 3.5 
" id="mdefad79792" style="stroke:#000000;stroke-width:0.8;"/>
      </defs>
      <g>
       <use style="stroke:#000000;stroke-width:0.8;" x="70.8" xlink:href="#mdefad79792" y="298.245375"/>
      </g>
     </g>
     <g id="text_1">
      <!-- 0 -->
      <defs>
       <path d="M 31.78125 66.40625 
Q 24.171875 66.40625 20.328125 58.90625 
Q 16.5 51.421875 16.5 36.375 
Q 16.5 21.390625 20.328125 13.890625 
Q 24.171875 6.390625 31.78125 6.390625 
Q 39.453125 6.390625 43.28125 13.890625 
Q 47.125 21.390625 47.125 36.375 
Q 47.125 51.421875 43.28125 58.90625 
Q 39.453125 66.40625 31.78125 66.40625 
M 31.78125 74.21875 
Q 44.046875 74.21875 50.515625 64.515625 
Q 56.984375 54.828125 56.984375 36.375 
Q 56.984375 17.96875 50.515625 8.265625 
Q 44.046875 -1.421875 31.78125 -1.421875 
Q 19.53125 -1.421875 13.0625 8.265625 
Q 6.59375 17.96875 6.59375 36.375 
Q 6.59375 54.828125 13.0625 64.515625 
Q 19.53125 74.21875 31.78125 74.21875 
" id="DejaVuSans-30"/>
      </defs>
      <g transform="translate(64.4375 320.44225)scale(0.2 -0.2)">
       <use xlink:href="#DejaVuSans-30"/>
      </g>
     </g>
    </g>
    <g id="xtick_2">
     <g id="line2d_3">
      <path clip-path="url(#p94dcfd87dd)" d="M 153.085714 298.245375 
L 153.085714 32.133375 
" style="fill:none;stroke:#b0b0b0;stroke-linecap:square;stroke-width:0.8;"/>
     </g>
     <g id="line2d_4">
      <g>
       <use style="stroke:#000000;stroke-width:0.8;" x="153.085714" xlink:href="#mdefad79792" y="298.245375"/>
      </g>
     </g>
     <g id="text_2">
      <!-- 2 -->
      <defs>
       <path d="M 19.1875 8.296875 
L 53.609375 8.296875 
L 53.609375 0 
L 7.328125 0 
L 7.328125 8.296875 
Q 12.9375 14.109375 22.625 23.890625 
Q 32.328125 33.6875 34.8125 36.53125 
Q 39.546875 41.84375 41.421875 45.53125 
Q 43.3125 49.21875 43.3125 52.78125 
Q 43.3125 58.59375 39.234375 62.25 
Q 35.15625 65.921875 28.609375 65.921875 
Q 23.96875 65.921875 18.8125 64.3125 
Q 13.671875 62.703125 7.8125 59.421875 
L 7.8125 69.390625 
Q 13.765625 71.78125 18.9375 73 
Q 24.125 74.21875 28.421875 74.21875 
Q 39.75 74.21875 46.484375 68.546875 
Q 53.21875 62.890625 53.21875 53.421875 
Q 53.21875 48.921875 51.53125 44.890625 
Q 49.859375 40.875 45.40625 35.40625 
Q 44.1875 33.984375 37.640625 27.21875 
Q 31.109375 20.453125 19.1875 8.296875 
" id="DejaVuSans-32"/>
      </defs>
      <g transform="translate(146.723214 320.44225)scale(0.2 -0.2)">
       <use xlink:href="#DejaVuSans-32"/>
      </g>
     </g>
    </g>
    <g id="xtick_3">
     <g id="line2d_5">
      <path clip-path="url(#p94dcfd87dd)" d="M 235.371429 298.245375 
L 235.371429 32.133375 
" style="fill:none;stroke:#b0b0b0;stroke-linecap:square;stroke-width:0.8;"/>
     </g>
     <g id="line2d_6">
      <g>
       <use style="stroke:#000000;stroke-width:0.8;" x="235.371429" xlink:href="#mdefad79792" y="298.245375"/>
      </g>
     </g>
     <g id="text_3">
      <!-- 4 -->
      <defs>
       <path d="M 37.796875 64.3125 
L 12.890625 25.390625 
L 37.796875 25.390625 
z
M 35.203125 72.90625 
L 47.609375 72.90625 
L 47.609375 25.390625 
L 58.015625 25.390625 
L 58.015625 17.1875 
L 47.609375 17.1875 
L 47.609375 0 
L 37.796875 0 
L 37.796875 17.1875 
L 4.890625 17.1875 
L 4.890625 26.703125 
z
" id="DejaVuSans-34"/>
      </defs>
      <g transform="translate(229.008929 320.44225)scale(0.2 -0.2)">
       <use xlink:href="#DejaVuSans-34"/>
      </g>
     </g>
    </g>
    <g id="xtick_4">
     <g id="line2d_7">
      <path clip-path="url(#p94dcfd87dd)" d="M 317.657143 298.245375 
L 317.657143 32.133375 
" style="fill:none;stroke:#b0b0b0;stroke-linecap:square;stroke-width:0.8;"/>
     </g>
     <g id="line2d_8">
      <g>
       <use style="stroke:#000000;stroke-width:0.8;" x="317.657143" xlink:href="#mdefad79792" y="298.245375"/>
      </g>
     </g>
     <g id="text_4">
      <!-- 6 -->
      <defs>
       <path d="M 33.015625 40.375 
Q 26.375 40.375 22.484375 35.828125 
Q 18.609375 31.296875 18.609375 23.390625 
Q 18.609375 15.53125 22.484375 10.953125 
Q 26.375 6.390625 33.015625 6.390625 
Q 39.65625 6.390625 43.53125 10.953125 
Q 47.40625 15.53125 47.40625 23.390625 
Q 47.40625 31.296875 43.53125 35.828125 
Q 39.65625 40.375 33.015625 40.375 
M 52.59375 71.296875 
L 52.59375 62.3125 
Q 48.875 64.0625 45.09375 64.984375 
Q 41.3125 65.921875 37.59375 65.921875 
Q 27.828125 65.921875 22.671875 59.328125 
Q 17.53125 52.734375 16.796875 39.40625 
Q 19.671875 43.65625 24.015625 45.921875 
Q 28.375 48.1875 33.59375 48.1875 
Q 44.578125 48.1875 50.953125 41.515625 
Q 57.328125 34.859375 57.328125 23.390625 
Q 57.328125 12.15625 50.6875 5.359375 
Q 44.046875 -1.421875 33.015625 -1.421875 
Q 20.359375 -1.421875 13.671875 8.265625 
Q 6.984375 17.96875 6.984375 36.375 
Q 6.984375 53.65625 15.1875 63.9375 
Q 23.390625 74.21875 37.203125 74.21875 
Q 40.921875 74.21875 44.703125 73.484375 
Q 48.484375 72.75 52.59375 71.296875 
" id="DejaVuSans-36"/>
      </defs>
      <g transform="translate(311.294643 320.44225)scale(0.2 -0.2)">
       <use xlink:href="#DejaVuSans-36"/>
      </g>
     </g>
    </g>
    <g id="xtick_5">
     <g id="line2d_9">
      <path clip-path="url(#p94dcfd87dd)" d="M 399.942857 298.245375 
L 399.942857 32.133375 
" style="fill:none;stroke:#b0b0b0;stroke-linecap:square;stroke-width:0.8;"/>
     </g>
     <g id="line2d_10">
      <g>
       <use style="stroke:#000000;stroke-width:0.8;" x="399.942857" xlink:href="#mdefad79792" y="298.245375"/>
      </g>
     </g>
     <g id="text_5">
      <!-- 8 -->
      <defs>
       <path d="M 31.78125 34.625 
Q 24.75 34.625 20.71875 30.859375 
Q 16.703125 27.09375 16.703125 20.515625 
Q 16.703125 13.921875 20.71875 10.15625 
Q 24.75 6.390625 31.78125 6.390625 
Q 38.8125 6.390625 42.859375 10.171875 
Q 46.921875 13.96875 46.921875 20.515625 
Q 46.921875 27.09375 42.890625 30.859375 
Q 38.875 34.625 31.78125 34.625 
M 21.921875 38.8125 
Q 15.578125 40.375 12.03125 44.71875 
Q 8.5 49.078125 8.5 55.328125 
Q 8.5 64.0625 14.71875 69.140625 
Q 20.953125 74.21875 31.78125 74.21875 
Q 42.671875 74.21875 48.875 69.140625 
Q 55.078125 64.0625 55.078125 55.328125 
Q 55.078125 49.078125 51.53125 44.71875 
Q 48 40.375 41.703125 38.8125 
Q 48.828125 37.15625 52.796875 32.3125 
Q 56.78125 27.484375 56.78125 20.515625 
Q 56.78125 9.90625 50.3125 4.234375 
Q 43.84375 -1.421875 31.78125 -1.421875 
Q 19.734375 -1.421875 13.25 4.234375 
Q 6.78125 9.90625 6.78125 20.515625 
Q 6.78125 27.484375 10.78125 32.3125 
Q 14.796875 37.15625 21.921875 38.8125 
M 18.3125 54.390625 
Q 18.3125 48.734375 21.84375 45.5625 
Q 25.390625 42.390625 31.78125 42.390625 
Q 38.140625 42.390625 41.71875 45.5625 
Q 45.3125 48.734375 45.3125 54.390625 
Q 45.3125 60.0625 41.71875 63.234375 
Q 38.140625 66.40625 31.78125 66.40625 
Q 25.390625 66.40625 21.84375 63.234375 
Q 18.3125 60.0625 18.3125 54.390625 
" id="DejaVuSans-38"/>
      </defs>
      <g transform="translate(393.580357 320.44225)scale(0.2 -0.2)">
       <use xlink:href="#DejaVuSans-38"/>
      </g>
     </g>
    </g>
    <g id="xtick_6">
     <g id="line2d_11">
      <defs>
       <path d="M 0 0 
L 0 2 
" id="m076dff1424" style="stroke:#000000;stroke-width:0.6;"/>
      </defs>
      <g>
       <use style="stroke:#000000;stroke-width:0.6;" x="83.185234" xlink:href="#m076dff1424" y="298.245375"/>
      </g>
     </g>
    </g>
    <g id="xtick_7">
     <g id="line2d_12">
      <g>
       <use style="stroke:#000000;stroke-width:0.6;" x="95.570468" xlink:href="#m076dff1424" y="298.245375"/>
      </g>
     </g>
    </g>
    <g id="xtick_8">
     <g id="line2d_13">
      <g>
       <use style="stroke:#000000;stroke-width:0.6;" x="102.815366" xlink:href="#m076dff1424" y="298.245375"/>
      </g>
     </g>
    </g>
    <g id="xtick_9">
     <g id="line2d_14">
      <g>
       <use style="stroke:#000000;stroke-width:0.6;" x="107.955702" xlink:href="#m076dff1424" y="298.245375"/>
      </g>
     </g>
    </g>
    <g id="xtick_10">
     <g id="line2d_15">
      <g>
       <use style="stroke:#000000;stroke-width:0.6;" x="165.470948" xlink:href="#m076dff1424" y="298.245375"/>
      </g>
     </g>
    </g>
    <g id="xtick_11">
     <g id="line2d_16">
      <g>
       <use style="stroke:#000000;stroke-width:0.6;" x="177.856183" xlink:href="#m076dff1424" y="298.245375"/>
      </g>
     </g>
    </g>
    <g id="xtick_12">
     <g id="line2d_17">
      <g>
       <use style="stroke:#000000;stroke-width:0.6;" x="185.10108" xlink:href="#m076dff1424" y="298.245375"/>
      </g>
     </g>
    </g>
    <g id="xtick_13">
     <g id="line2d_18">
      <g>
       <use style="stroke:#000000;stroke-width:0.6;" x="190.241417" xlink:href="#m076dff1424" y="298.245375"/>
      </g>
     </g>
    </g>
    <g id="xtick_14">
     <g id="line2d_19">
      <g>
       <use style="stroke:#000000;stroke-width:0.6;" x="247.756663" xlink:href="#m076dff1424" y="298.245375"/>
      </g>
     </g>
    </g>
    <g id="xtick_15">
     <g id="line2d_20">
      <g>
       <use style="stroke:#000000;stroke-width:0.6;" x="260.141897" xlink:href="#m076dff1424" y="298.245375"/>
      </g>
     </g>
    </g>
    <g id="xtick_16">
     <g id="line2d_21">
      <g>
       <use style="stroke:#000000;stroke-width:0.6;" x="267.386794" xlink:href="#m076dff1424" y="298.245375"/>
      </g>
     </g>
    </g>
    <g id="xtick_17">
     <g id="line2d_22">
      <g>
       <use style="stroke:#000000;stroke-width:0.6;" x="272.527131" xlink:href="#m076dff1424" y="298.245375"/>
      </g>
     </g>
    </g>
    <g id="xtick_18">
     <g id="line2d_23">
      <g>
       <use style="stroke:#000000;stroke-width:0.6;" x="330.042377" xlink:href="#m076dff1424" y="298.245375"/>
      </g>
     </g>
    </g>
    <g id="xtick_19">
     <g id="line2d_24">
      <g>
       <use style="stroke:#000000;stroke-width:0.6;" x="342.427611" xlink:href="#m076dff1424" y="298.245375"/>
      </g>
     </g>
    </g>
    <g id="xtick_20">
     <g id="line2d_25">
      <g>
       <use style="stroke:#000000;stroke-width:0.6;" x="349.672509" xlink:href="#m076dff1424" y="298.245375"/>
      </g>
     </g>
    </g>
    <g id="xtick_21">
     <g id="line2d_26">
      <g>
       <use style="stroke:#000000;stroke-width:0.6;" x="354.812845" xlink:href="#m076dff1424" y="298.245375"/>
      </g>
     </g>
    </g>
    <g id="xtick_22">
     <g id="line2d_27">
      <g>
       <use style="stroke:#000000;stroke-width:0.6;" x="412.328091" xlink:href="#m076dff1424" y="298.245375"/>
      </g>
     </g>
    </g>
    <g id="xtick_23">
     <g id="line2d_28">
      <g>
       <use style="stroke:#000000;stroke-width:0.6;" x="424.713325" xlink:href="#m076dff1424" y="298.245375"/>
      </g>
     </g>
    </g>
    <g id="text_6">
     <!-- log10 of (# f-evals / dimension) -->
     <defs>
      <path d="M 9.421875 75.984375 
L 18.40625 75.984375 
L 18.40625 0 
L 9.421875 0 
z
" id="DejaVuSans-6c"/>
      <path d="M 30.609375 48.390625 
Q 23.390625 48.390625 19.1875 42.75 
Q 14.984375 37.109375 14.984375 27.296875 
Q 14.984375 17.484375 19.15625 11.84375 
Q 23.34375 6.203125 30.609375 6.203125 
Q 37.796875 6.203125 41.984375 11.859375 
Q 46.1875 17.53125 46.1875 27.296875 
Q 46.1875 37.015625 41.984375 42.703125 
Q 37.796875 48.390625 30.609375 48.390625 
M 30.609375 56 
Q 42.328125 56 49.015625 48.375 
Q 55.71875 40.765625 55.71875 27.296875 
Q 55.71875 13.875 49.015625 6.21875 
Q 42.328125 -1.421875 30.609375 -1.421875 
Q 18.84375 -1.421875 12.171875 6.21875 
Q 5.515625 13.875 5.515625 27.296875 
Q 5.515625 40.765625 12.171875 48.375 
Q 18.84375 56 30.609375 56 
" id="DejaVuSans-6f"/>
      <path d="M 45.40625 27.984375 
Q 45.40625 37.75 41.375 43.109375 
Q 37.359375 48.484375 30.078125 48.484375 
Q 22.859375 48.484375 18.828125 43.109375 
Q 14.796875 37.75 14.796875 27.984375 
Q 14.796875 18.265625 18.828125 12.890625 
Q 22.859375 7.515625 30.078125 7.515625 
Q 37.359375 7.515625 41.375 12.890625 
Q 45.40625 18.265625 45.40625 27.984375 
M 54.390625 6.78125 
Q 54.390625 -7.171875 48.1875 -13.984375 
Q 42 -20.796875 29.203125 -20.796875 
Q 24.46875 -20.796875 20.265625 -20.09375 
Q 16.0625 -19.390625 12.109375 -17.921875 
L 12.109375 -9.1875 
Q 16.0625 -11.328125 19.921875 -12.34375 
Q 23.78125 -13.375 27.78125 -13.375 
Q 36.625 -13.375 41.015625 -8.765625 
Q 45.40625 -4.15625 45.40625 5.171875 
L 45.40625 9.625 
Q 42.625 4.78125 38.28125 2.390625 
Q 33.9375 0 27.875 0 
Q 17.828125 0 11.671875 7.65625 
Q 5.515625 15.328125 5.515625 27.984375 
Q 5.515625 40.671875 11.671875 48.328125 
Q 17.828125 56 27.875 56 
Q 33.9375 56 38.28125 53.609375 
Q 42.625 51.21875 45.40625 46.390625 
L 45.40625 54.6875 
L 54.390625 54.6875 
z
" id="DejaVuSans-67"/>
      <path d="M 12.40625 8.296875 
L 28.515625 8.296875 
L 28.515625 63.921875 
L 10.984375 60.40625 
L 10.984375 69.390625 
L 28.421875 72.90625 
L 38.28125 72.90625 
L 38.28125 8.296875 
L 54.390625 8.296875 
L 54.390625 0 
L 12.40625 0 
z
" id="DejaVuSans-31"/>
      <path id="DejaVuSans-20"/>
      <path d="M 37.109375 75.984375 
L 37.109375 68.5 
L 28.515625 68.5 
Q 23.6875 68.5 21.796875 66.546875 
Q 19.921875 64.59375 19.921875 59.515625 
L 19.921875 54.6875 
L 34.71875 54.6875 
L 34.71875 47.703125 
L 19.921875 47.703125 
L 19.921875 0 
L 10.890625 0 
L 10.890625 47.703125 
L 2.296875 47.703125 
L 2.296875 54.6875 
L 10.890625 54.6875 
L 10.890625 58.5 
Q 10.890625 67.625 15.140625 71.796875 
Q 19.390625 75.984375 28.609375 75.984375 
z
" id="DejaVuSans-66"/>
      <path d="M 31 75.875 
Q 24.46875 64.65625 21.28125 53.65625 
Q 18.109375 42.671875 18.109375 31.390625 
Q 18.109375 20.125 21.3125 9.0625 
Q 24.515625 -2 31 -13.1875 
L 23.1875 -13.1875 
Q 15.875 -1.703125 12.234375 9.375 
Q 8.59375 20.453125 8.59375 31.390625 
Q 8.59375 42.28125 12.203125 53.3125 
Q 15.828125 64.359375 23.1875 75.875 
z
" id="DejaVuSans-28"/>
      <path d="M 51.125 44 
L 36.921875 44 
L 32.8125 27.6875 
L 47.125 27.6875 
z
M 43.796875 71.78125 
L 38.71875 51.515625 
L 52.984375 51.515625 
L 58.109375 71.78125 
L 65.921875 71.78125 
L 60.890625 51.515625 
L 76.125 51.515625 
L 76.125 44 
L 58.984375 44 
L 54.984375 27.6875 
L 70.515625 27.6875 
L 70.515625 20.21875 
L 53.078125 20.21875 
L 48 0 
L 40.1875 0 
L 45.21875 20.21875 
L 30.90625 20.21875 
L 25.875 0 
L 18.015625 0 
L 23.09375 20.21875 
L 7.71875 20.21875 
L 7.71875 27.6875 
L 24.90625 27.6875 
L 29 44 
L 13.28125 44 
L 13.28125 51.515625 
L 30.90625 51.515625 
L 35.890625 71.78125 
z
" id="DejaVuSans-23"/>
      <path d="M 4.890625 31.390625 
L 31.203125 31.390625 
L 31.203125 23.390625 
L 4.890625 23.390625 
z
" id="DejaVuSans-2d"/>
      <path d="M 56.203125 29.59375 
L 56.203125 25.203125 
L 14.890625 25.203125 
Q 15.484375 15.921875 20.484375 11.0625 
Q 25.484375 6.203125 34.421875 6.203125 
Q 39.59375 6.203125 44.453125 7.46875 
Q 49.3125 8.734375 54.109375 11.28125 
L 54.109375 2.78125 
Q 49.265625 0.734375 44.1875 -0.34375 
Q 39.109375 -1.421875 33.890625 -1.421875 
Q 20.796875 -1.421875 13.15625 6.1875 
Q 5.515625 13.8125 5.515625 26.8125 
Q 5.515625 40.234375 12.765625 48.109375 
Q 20.015625 56 32.328125 56 
Q 43.359375 56 49.78125 48.890625 
Q 56.203125 41.796875 56.203125 29.59375 
M 47.21875 32.234375 
Q 47.125 39.59375 43.09375 43.984375 
Q 39.0625 48.390625 32.421875 48.390625 
Q 24.90625 48.390625 20.390625 44.140625 
Q 15.875 39.890625 15.1875 32.171875 
z
" id="DejaVuSans-65"/>
      <path d="M 2.984375 54.6875 
L 12.5 54.6875 
L 29.59375 8.796875 
L 46.6875 54.6875 
L 56.203125 54.6875 
L 35.6875 0 
L 23.484375 0 
z
" id="DejaVuSans-76"/>
      <path d="M 34.28125 27.484375 
Q 23.390625 27.484375 19.1875 25 
Q 14.984375 22.515625 14.984375 16.5 
Q 14.984375 11.71875 18.140625 8.90625 
Q 21.296875 6.109375 26.703125 6.109375 
Q 34.1875 6.109375 38.703125 11.40625 
Q 43.21875 16.703125 43.21875 25.484375 
L 43.21875 27.484375 
z
M 52.203125 31.203125 
L 52.203125 0 
L 43.21875 0 
L 43.21875 8.296875 
Q 40.140625 3.328125 35.546875 0.953125 
Q 30.953125 -1.421875 24.3125 -1.421875 
Q 15.921875 -1.421875 10.953125 3.296875 
Q 6 8.015625 6 15.921875 
Q 6 25.140625 12.171875 29.828125 
Q 18.359375 34.515625 30.609375 34.515625 
L 43.21875 34.515625 
L 43.21875 35.40625 
Q 43.21875 41.609375 39.140625 45 
Q 35.0625 48.390625 27.6875 48.390625 
Q 23 48.390625 18.546875 47.265625 
Q 14.109375 46.140625 10.015625 43.890625 
L 10.015625 52.203125 
Q 14.9375 54.109375 19.578125 55.046875 
Q 24.21875 56 28.609375 56 
Q 40.484375 56 46.34375 49.84375 
Q 52.203125 43.703125 52.203125 31.203125 
" id="DejaVuSans-61"/>
      <path d="M 44.28125 53.078125 
L 44.28125 44.578125 
Q 40.484375 46.53125 36.375 47.5 
Q 32.28125 48.484375 27.875 48.484375 
Q 21.1875 48.484375 17.84375 46.4375 
Q 14.5 44.390625 14.5 40.28125 
Q 14.5 37.15625 16.890625 35.375 
Q 19.28125 33.59375 26.515625 31.984375 
L 29.59375 31.296875 
Q 39.15625 29.25 43.1875 25.515625 
Q 47.21875 21.78125 47.21875 15.09375 
Q 47.21875 7.46875 41.1875 3.015625 
Q 35.15625 -1.421875 24.609375 -1.421875 
Q 20.21875 -1.421875 15.453125 -0.5625 
Q 10.6875 0.296875 5.421875 2 
L 5.421875 11.28125 
Q 10.40625 8.6875 15.234375 7.390625 
Q 20.0625 6.109375 24.8125 6.109375 
Q 31.15625 6.109375 34.5625 8.28125 
Q 37.984375 10.453125 37.984375 14.40625 
Q 37.984375 18.0625 35.515625 20.015625 
Q 33.0625 21.96875 24.703125 23.78125 
L 21.578125 24.515625 
Q 13.234375 26.265625 9.515625 29.90625 
Q 5.8125 33.546875 5.8125 39.890625 
Q 5.8125 47.609375 11.28125 51.796875 
Q 16.75 56 26.8125 56 
Q 31.78125 56 36.171875 55.265625 
Q 40.578125 54.546875 44.28125 53.078125 
" id="DejaVuSans-73"/>
      <path d="M 25.390625 72.90625 
L 33.6875 72.90625 
L 8.296875 -9.28125 
L 0 -9.28125 
z
" id="DejaVuSans-2f"/>
      <path d="M 45.40625 46.390625 
L 45.40625 75.984375 
L 54.390625 75.984375 
L 54.390625 0 
L 45.40625 0 
L 45.40625 8.203125 
Q 42.578125 3.328125 38.25 0.953125 
Q 33.9375 -1.421875 27.875 -1.421875 
Q 17.96875 -1.421875 11.734375 6.484375 
Q 5.515625 14.40625 5.515625 27.296875 
Q 5.515625 40.1875 11.734375 48.09375 
Q 17.96875 56 27.875 56 
Q 33.9375 56 38.25 53.625 
Q 42.578125 51.265625 45.40625 46.390625 
M 14.796875 27.296875 
Q 14.796875 17.390625 18.875 11.75 
Q 22.953125 6.109375 30.078125 6.109375 
Q 37.203125 6.109375 41.296875 11.75 
Q 45.40625 17.390625 45.40625 27.296875 
Q 45.40625 37.203125 41.296875 42.84375 
Q 37.203125 48.484375 30.078125 48.484375 
Q 22.953125 48.484375 18.875 42.84375 
Q 14.796875 37.203125 14.796875 27.296875 
" id="DejaVuSans-64"/>
      <path d="M 9.421875 54.6875 
L 18.40625 54.6875 
L 18.40625 0 
L 9.421875 0 
z
M 9.421875 75.984375 
L 18.40625 75.984375 
L 18.40625 64.59375 
L 9.421875 64.59375 
z
" id="DejaVuSans-69"/>
      <path d="M 52 44.1875 
Q 55.375 50.25 60.0625 53.125 
Q 64.75 56 71.09375 56 
Q 79.640625 56 84.28125 50.015625 
Q 88.921875 44.046875 88.921875 33.015625 
L 88.921875 0 
L 79.890625 0 
L 79.890625 32.71875 
Q 79.890625 40.578125 77.09375 44.375 
Q 74.3125 48.1875 68.609375 48.1875 
Q 61.625 48.1875 57.5625 43.546875 
Q 53.515625 38.921875 53.515625 30.90625 
L 53.515625 0 
L 44.484375 0 
L 44.484375 32.71875 
Q 44.484375 40.625 41.703125 44.40625 
Q 38.921875 48.1875 33.109375 48.1875 
Q 26.21875 48.1875 22.15625 43.53125 
Q 18.109375 38.875 18.109375 30.90625 
L 18.109375 0 
L 9.078125 0 
L 9.078125 54.6875 
L 18.109375 54.6875 
L 18.109375 46.1875 
Q 21.1875 51.21875 25.484375 53.609375 
Q 29.78125 56 35.6875 56 
Q 41.65625 56 45.828125 52.96875 
Q 50 49.953125 52 44.1875 
" id="DejaVuSans-6d"/>
      <path d="M 54.890625 33.015625 
L 54.890625 0 
L 45.90625 0 
L 45.90625 32.71875 
Q 45.90625 40.484375 42.875 44.328125 
Q 39.84375 48.1875 33.796875 48.1875 
Q 26.515625 48.1875 22.3125 43.546875 
Q 18.109375 38.921875 18.109375 30.90625 
L 18.109375 0 
L 9.078125 0 
L 9.078125 54.6875 
L 18.109375 54.6875 
L 18.109375 46.1875 
Q 21.34375 51.125 25.703125 53.5625 
Q 30.078125 56 35.796875 56 
Q 45.21875 56 50.046875 50.171875 
Q 54.890625 44.34375 54.890625 33.015625 
" id="DejaVuSans-6e"/>
      <path d="M 8.015625 75.875 
L 15.828125 75.875 
Q 23.140625 64.359375 26.78125 53.3125 
Q 30.421875 42.28125 30.421875 31.390625 
Q 30.421875 20.453125 26.78125 9.375 
Q 23.140625 -1.703125 15.828125 -13.1875 
L 8.015625 -13.1875 
Q 14.5 -2 17.703125 9.0625 
Q 20.90625 20.125 20.90625 31.390625 
Q 20.90625 42.671875 17.703125 53.65625 
Q 14.5 64.65625 8.015625 75.875 
" id="DejaVuSans-29"/>
     </defs>
     <g transform="translate(107.015156 342.278812)scale(0.18 -0.18)">
      <use xlink:href="#DejaVuSans-6c"/>
      <use x="27.783203" xlink:href="#DejaVuSans-6f"/>
      <use x="88.964844" xlink:href="#DejaVuSans-67"/>
      <use x="152.441406" xlink:href="#DejaVuSans-31"/>
      <use x="216.064453" xlink:href="#DejaVuSans-30"/>
      <use x="279.6875" xlink:href="#DejaVuSans-20"/>
      <use x="311.474609" xlink:href="#DejaVuSans-6f"/>
      <use x="372.65625" xlink:href="#DejaVuSans-66"/>
      <use x="407.861328" xlink:href="#DejaVuSans-20"/>
      <use x="439.648438" xlink:href="#DejaVuSans-28"/>
      <use x="478.662109" xlink:href="#DejaVuSans-23"/>
      <use x="562.451172" xlink:href="#DejaVuSans-20"/>
      <use x="594.238281" xlink:href="#DejaVuSans-66"/>
      <use x="629.365234" xlink:href="#DejaVuSans-2d"/>
      <use x="665.449219" xlink:href="#DejaVuSans-65"/>
      <use x="726.972656" xlink:href="#DejaVuSans-76"/>
      <use x="786.152344" xlink:href="#DejaVuSans-61"/>
      <use x="847.431641" xlink:href="#DejaVuSans-6c"/>
      <use x="875.214844" xlink:href="#DejaVuSans-73"/>
      <use x="927.314453" xlink:href="#DejaVuSans-20"/>
      <use x="959.101562" xlink:href="#DejaVuSans-2f"/>
      <use x="992.792969" xlink:href="#DejaVuSans-20"/>
      <use x="1024.580078" xlink:href="#DejaVuSans-64"/>
      <use x="1088.056641" xlink:href="#DejaVuSans-69"/>
      <use x="1115.839844" xlink:href="#DejaVuSans-6d"/>
      <use x="1213.251953" xlink:href="#DejaVuSans-65"/>
      <use x="1274.775391" xlink:href="#DejaVuSans-6e"/>
      <use x="1338.154297" xlink:href="#DejaVuSans-73"/>
      <use x="1390.253906" xlink:href="#DejaVuSans-69"/>
      <use x="1418.037109" xlink:href="#DejaVuSans-6f"/>
      <use x="1479.21875" xlink:href="#DejaVuSans-6e"/>
      <use x="1542.597656" xlink:href="#DejaVuSans-29"/>
     </g>
    </g>
   </g>
   <g id="matplotlib.axis_2">
    <g id="ytick_1">
     <g id="line2d_29">
      <path clip-path="url(#p94dcfd87dd)" d="M 70.8 298.245375 
L 427.92 298.245375 
" style="fill:none;stroke:#b0b0b0;stroke-linecap:square;stroke-width:0.8;"/>
     </g>
     <g id="line2d_30">
      <defs>
       <path d="M 0 0 
L -3.5 0 
" id="m8fedc0ed50" style="stroke:#000000;stroke-width:0.8;"/>
      </defs>
      <g>
       <use style="stroke:#000000;stroke-width:0.8;" x="70.8" xlink:href="#m8fedc0ed50" y="298.245375"/>
      </g>
     </g>
     <g id="text_7">
      <!-- 0.0 -->
      <defs>
       <path d="M 10.6875 12.40625 
L 21 12.40625 
L 21 0 
L 10.6875 0 
z
" id="DejaVuSans-2e"/>
      </defs>
      <g transform="translate(31.99375 305.843812)scale(0.2 -0.2)">
       <use xlink:href="#DejaVuSans-30"/>
       <use x="63.623047" xlink:href="#DejaVuSans-2e"/>
       <use x="95.410156" xlink:href="#DejaVuSans-30"/>
      </g>
     </g>
    </g>
    <g id="ytick_2">
     <g id="line2d_31">
      <path clip-path="url(#p94dcfd87dd)" d="M 70.8 245.549929 
L 427.92 245.549929 
" style="fill:none;stroke:#b0b0b0;stroke-linecap:square;stroke-width:0.8;"/>
     </g>
     <g id="line2d_32">
      <g>
       <use style="stroke:#000000;stroke-width:0.8;" x="70.8" xlink:href="#m8fedc0ed50" y="245.549929"/>
      </g>
     </g>
     <g id="text_8">
      <!-- 0.2 -->
      <g transform="translate(31.99375 253.148367)scale(0.2 -0.2)">
       <use xlink:href="#DejaVuSans-30"/>
       <use x="63.623047" xlink:href="#DejaVuSans-2e"/>
       <use x="95.410156" xlink:href="#DejaVuSans-32"/>
      </g>
     </g>
    </g>
    <g id="ytick_3">
     <g id="line2d_33">
      <path clip-path="url(#p94dcfd87dd)" d="M 70.8 192.854484 
L 427.92 192.854484 
" style="fill:none;stroke:#b0b0b0;stroke-linecap:square;stroke-width:0.8;"/>
     </g>
     <g id="line2d_34">
      <g>
       <use style="stroke:#000000;stroke-width:0.8;" x="70.8" xlink:href="#m8fedc0ed50" y="192.854484"/>
      </g>
     </g>
     <g id="text_9">
      <!-- 0.4 -->
      <g transform="translate(31.99375 200.452921)scale(0.2 -0.2)">
       <use xlink:href="#DejaVuSans-30"/>
       <use x="63.623047" xlink:href="#DejaVuSans-2e"/>
       <use x="95.410156" xlink:href="#DejaVuSans-34"/>
      </g>
     </g>
    </g>
    <g id="ytick_4">
     <g id="line2d_35">
      <path clip-path="url(#p94dcfd87dd)" d="M 70.8 140.159038 
L 427.92 140.159038 
" style="fill:none;stroke:#b0b0b0;stroke-linecap:square;stroke-width:0.8;"/>
     </g>
     <g id="line2d_36">
      <g>
       <use style="stroke:#000000;stroke-width:0.8;" x="70.8" xlink:href="#m8fedc0ed50" y="140.159038"/>
      </g>
     </g>
     <g id="text_10">
      <!-- 0.6 -->
      <g transform="translate(31.99375 147.757476)scale(0.2 -0.2)">
       <use xlink:href="#DejaVuSans-30"/>
       <use x="63.623047" xlink:href="#DejaVuSans-2e"/>
       <use x="95.410156" xlink:href="#DejaVuSans-36"/>
      </g>
     </g>
    </g>
    <g id="ytick_5">
     <g id="line2d_37">
      <path clip-path="url(#p94dcfd87dd)" d="M 70.8 87.463593 
L 427.92 87.463593 
" style="fill:none;stroke:#b0b0b0;stroke-linecap:square;stroke-width:0.8;"/>
     </g>
     <g id="line2d_38">
      <g>
       <use style="stroke:#000000;stroke-width:0.8;" x="70.8" xlink:href="#m8fedc0ed50" y="87.463593"/>
      </g>
     </g>
     <g id="text_11">
      <!-- 0.8 -->
      <g transform="translate(31.99375 95.06203)scale(0.2 -0.2)">
       <use xlink:href="#DejaVuSans-30"/>
       <use x="63.623047" xlink:href="#DejaVuSans-2e"/>
       <use x="95.410156" xlink:href="#DejaVuSans-38"/>
      </g>
     </g>
    </g>
    <g id="ytick_6">
     <g id="line2d_39">
      <path clip-path="url(#p94dcfd87dd)" d="M 70.8 34.768147 
L 427.92 34.768147 
" style="fill:none;stroke:#b0b0b0;stroke-linecap:square;stroke-width:0.8;"/>
     </g>
     <g id="line2d_40">
      <g>
       <use style="stroke:#000000;stroke-width:0.8;" x="70.8" xlink:href="#m8fedc0ed50" y="34.768147"/>
      </g>
     </g>
     <g id="text_12">
      <!-- 1.0 -->
      <g transform="translate(31.99375 42.366585)scale(0.2 -0.2)">
       <use xlink:href="#DejaVuSans-31"/>
       <use x="63.623047" xlink:href="#DejaVuSans-2e"/>
       <use x="95.410156" xlink:href="#DejaVuSans-30"/>
      </g>
     </g>
    </g>
    <g id="text_13">
     <!-- Proportion of function+target pairs -->
     <defs>
      <path d="M 19.671875 64.796875 
L 19.671875 37.40625 
L 32.078125 37.40625 
Q 38.96875 37.40625 42.71875 40.96875 
Q 46.484375 44.53125 46.484375 51.125 
Q 46.484375 57.671875 42.71875 61.234375 
Q 38.96875 64.796875 32.078125 64.796875 
z
M 9.8125 72.90625 
L 32.078125 72.90625 
Q 44.34375 72.90625 50.609375 67.359375 
Q 56.890625 61.8125 56.890625 51.125 
Q 56.890625 40.328125 50.609375 34.8125 
Q 44.34375 29.296875 32.078125 29.296875 
L 19.671875 29.296875 
L 19.671875 0 
L 9.8125 0 
z
" id="DejaVuSans-50"/>
      <path d="M 41.109375 46.296875 
Q 39.59375 47.171875 37.8125 47.578125 
Q 36.03125 48 33.890625 48 
Q 26.265625 48 22.1875 43.046875 
Q 18.109375 38.09375 18.109375 28.8125 
L 18.109375 0 
L 9.078125 0 
L 9.078125 54.6875 
L 18.109375 54.6875 
L 18.109375 46.1875 
Q 20.953125 51.171875 25.484375 53.578125 
Q 30.03125 56 36.53125 56 
Q 37.453125 56 38.578125 55.875 
Q 39.703125 55.765625 41.0625 55.515625 
z
" id="DejaVuSans-72"/>
      <path d="M 18.109375 8.203125 
L 18.109375 -20.796875 
L 9.078125 -20.796875 
L 9.078125 54.6875 
L 18.109375 54.6875 
L 18.109375 46.390625 
Q 20.953125 51.265625 25.265625 53.625 
Q 29.59375 56 35.59375 56 
Q 45.5625 56 51.78125 48.09375 
Q 58.015625 40.1875 58.015625 27.296875 
Q 58.015625 14.40625 51.78125 6.484375 
Q 45.5625 -1.421875 35.59375 -1.421875 
Q 29.59375 -1.421875 25.265625 0.953125 
Q 20.953125 3.328125 18.109375 8.203125 
M 48.6875 27.296875 
Q 48.6875 37.203125 44.609375 42.84375 
Q 40.53125 48.484375 33.40625 48.484375 
Q 26.265625 48.484375 22.1875 42.84375 
Q 18.109375 37.203125 18.109375 27.296875 
Q 18.109375 17.390625 22.1875 11.75 
Q 26.265625 6.109375 33.40625 6.109375 
Q 40.53125 6.109375 44.609375 11.75 
Q 48.6875 17.390625 48.6875 27.296875 
" id="DejaVuSans-70"/>
      <path d="M 18.3125 70.21875 
L 18.3125 54.6875 
L 36.8125 54.6875 
L 36.8125 47.703125 
L 18.3125 47.703125 
L 18.3125 18.015625 
Q 18.3125 11.328125 20.140625 9.421875 
Q 21.96875 7.515625 27.59375 7.515625 
L 36.8125 7.515625 
L 36.8125 0 
L 27.59375 0 
Q 17.1875 0 13.234375 3.875 
Q 9.28125 7.765625 9.28125 18.015625 
L 9.28125 47.703125 
L 2.6875 47.703125 
L 2.6875 54.6875 
L 9.28125 54.6875 
L 9.28125 70.21875 
z
" id="DejaVuSans-74"/>
      <path d="M 8.5 21.578125 
L 8.5 54.6875 
L 17.484375 54.6875 
L 17.484375 21.921875 
Q 17.484375 14.15625 20.5 10.265625 
Q 23.53125 6.390625 29.59375 6.390625 
Q 36.859375 6.390625 41.078125 11.03125 
Q 45.3125 15.671875 45.3125 23.6875 
L 45.3125 54.6875 
L 54.296875 54.6875 
L 54.296875 0 
L 45.3125 0 
L 45.3125 8.40625 
Q 42.046875 3.421875 37.71875 1 
Q 33.40625 -1.421875 27.6875 -1.421875 
Q 18.265625 -1.421875 13.375 4.4375 
Q 8.5 10.296875 8.5 21.578125 
M 31.109375 56 
z
" id="DejaVuSans-75"/>
      <path d="M 48.78125 52.59375 
L 48.78125 44.1875 
Q 44.96875 46.296875 41.140625 47.34375 
Q 37.3125 48.390625 33.40625 48.390625 
Q 24.65625 48.390625 19.8125 42.84375 
Q 14.984375 37.3125 14.984375 27.296875 
Q 14.984375 17.28125 19.8125 11.734375 
Q 24.65625 6.203125 33.40625 6.203125 
Q 37.3125 6.203125 41.140625 7.25 
Q 44.96875 8.296875 48.78125 10.40625 
L 48.78125 2.09375 
Q 45.015625 0.34375 40.984375 -0.53125 
Q 36.96875 -1.421875 32.421875 -1.421875 
Q 20.0625 -1.421875 12.78125 6.34375 
Q 5.515625 14.109375 5.515625 27.296875 
Q 5.515625 40.671875 12.859375 48.328125 
Q 20.21875 56 33.015625 56 
Q 37.15625 56 41.109375 55.140625 
Q 45.0625 54.296875 48.78125 52.59375 
" id="DejaVuSans-63"/>
      <path d="M 46 62.703125 
L 46 35.5 
L 73.1875 35.5 
L 73.1875 27.203125 
L 46 27.203125 
L 46 0 
L 37.796875 0 
L 37.796875 27.203125 
L 10.59375 27.203125 
L 10.59375 35.5 
L 37.796875 35.5 
L 37.796875 62.703125 
z
" id="DejaVuSans-2b"/>
     </defs>
     <g transform="translate(24.250312 323.17875)rotate(-90)scale(0.18 -0.18)">
      <use xlink:href="#DejaVuSans-50"/>
      <use x="60.287109" xlink:href="#DejaVuSans-72"/>
      <use x="101.369141" xlink:href="#DejaVuSans-6f"/>
      <use x="162.550781" xlink:href="#DejaVuSans-70"/>
      <use x="226.027344" xlink:href="#DejaVuSans-6f"/>
      <use x="287.208984" xlink:href="#DejaVuSans-72"/>
      <use x="328.322266" xlink:href="#DejaVuSans-74"/>
      <use x="367.53125" xlink:href="#DejaVuSans-69"/>
      <use x="395.314453" xlink:href="#DejaVuSans-6f"/>
      <use x="456.496094" xlink:href="#DejaVuSans-6e"/>
      <use x="519.875" xlink:href="#DejaVuSans-20"/>
      <use x="551.662109" xlink:href="#DejaVuSans-6f"/>
      <use x="612.84375" xlink:href="#DejaVuSans-66"/>
      <use x="648.048828" xlink:href="#DejaVuSans-20"/>
      <use x="679.835938" xlink:href="#DejaVuSans-66"/>
      <use x="715.041016" xlink:href="#DejaVuSans-75"/>
      <use x="778.419922" xlink:href="#DejaVuSans-6e"/>
      <use x="841.798828" xlink:href="#DejaVuSans-63"/>
      <use x="896.779297" xlink:href="#DejaVuSans-74"/>
      <use x="935.988281" xlink:href="#DejaVuSans-69"/>
      <use x="963.771484" xlink:href="#DejaVuSans-6f"/>
      <use x="1024.953125" xlink:href="#DejaVuSans-6e"/>
      <use x="1088.332031" xlink:href="#DejaVuSans-2b"/>
      <use x="1172.121094" xlink:href="#DejaVuSans-74"/>
      <use x="1211.330078" xlink:href="#DejaVuSans-61"/>
      <use x="1272.609375" xlink:href="#DejaVuSans-72"/>
      <use x="1313.707031" xlink:href="#DejaVuSans-67"/>
      <use x="1377.183594" xlink:href="#DejaVuSans-65"/>
      <use x="1438.707031" xlink:href="#DejaVuSans-74"/>
      <use x="1477.916016" xlink:href="#DejaVuSans-20"/>
      <use x="1509.703125" xlink:href="#DejaVuSans-70"/>
      <use x="1573.179688" xlink:href="#DejaVuSans-61"/>
      <use x="1634.458984" xlink:href="#DejaVuSans-69"/>
      <use x="1662.242188" xlink:href="#DejaVuSans-72"/>
      <use x="1703.355469" xlink:href="#DejaVuSans-73"/>
     </g>
    </g>
   </g>
   <g id="line2d_41">
    <defs>
     <path d="M 0 1.5 
C 0.397805 1.5 0.77937 1.341951 1.06066 1.06066 
C 1.341951 0.77937 1.5 0.397805 1.5 0 
C 1.5 -0.397805 1.341951 -0.77937 1.06066 -1.06066 
C 0.77937 -1.341951 0.397805 -1.5 0 -1.5 
C -0.397805 -1.5 -0.77937 -1.341951 -1.06066 -1.06066 
C -1.341951 -0.77937 -1.5 -0.397805 -1.5 0 
C -1.5 0.397805 -1.341951 0.77937 -1.06066 1.06066 
C -0.77937 1.341951 -0.397805 1.5 0 1.5 
z
" id="m62e521dc5b" style="stroke:#00bfbf;"/>
    </defs>
    <g>
     <use style="fill:#00bfbf;stroke:#00bfbf;" x="242.133375" xlink:href="#m62e521dc5b" y="34.768147"/>
     <use style="fill:#00bfbf;stroke:#00bfbf;" x="242.133375" xlink:href="#m62e521dc5b" y="34.768147"/>
    </g>
   </g>
   <g id="line2d_42">
    <path d="M 58.414766 298.245375 
L 58.414766 242.450197 
L 153.085714 242.450197 
L 153.085714 236.767355 
L 160.330612 236.767355 
L 160.330612 234.184245 
L 169.458103 234.184245 
L 169.458103 233.151001 
L 172.715846 233.151001 
L 172.715846 229.534647 
L 175.470228 229.534647 
L 175.470228 228.501403 
L 179.960743 228.501403 
L 179.960743 225.918293 
L 187.855462 225.918293 
L 187.855462 225.401671 
L 191.324664 225.401671 
L 191.324664 222.301939 
L 192.345978 222.301939 
L 192.345978 220.752073 
L 205.697291 220.752073 
L 205.697291 219.718829 
L 206.161424 219.718829 
L 206.161424 218.685585 
L 206.613806 218.685585 
L 206.613806 218.168963 
L 207.485594 218.168963 
L 207.485594 217.652341 
L 209.871548 217.652341 
L 209.871548 217.135719 
L 210.60096 217.135719 
L 210.60096 216.619097 
L 210.954796 216.619097 
L 210.954796 216.102475 
L 211.301761 216.102475 
L 211.301761 210.936254 
L 212.942189 210.936254 
L 212.942189 209.90301 
L 213.252946 209.90301 
L 213.252946 209.386388 
L 213.558392 209.386388 
L 213.558392 208.869766 
L 213.858703 208.869766 
L 213.858703 208.353144 
L 214.730491 208.353144 
L 214.730491 206.286656 
L 216.095133 206.286656 
L 216.095133 205.253412 
L 216.613085 205.253412 
L 216.613085 204.73679 
L 216.866538 204.73679 
L 216.866538 201.120436 
L 217.845858 201.120436 
L 217.845858 200.603814 
L 218.774281 200.603814 
L 218.774281 196.98746 
L 219.221007 196.98746 
L 219.221007 193.887728 
L 219.44025 193.887728 
L 219.44025 189.754752 
L 219.870828 189.754752 
L 219.870828 189.23813 
L 220.082287 189.23813 
L 220.082287 188.721508 
L 220.291274 188.721508 
L 220.291274 188.204886 
L 220.497844 188.204886 
L 220.497844 187.688264 
L 220.702053 187.688264 
L 220.702053 187.171642 
L 220.903955 187.171642 
L 220.903955 183.555288 
L 221.103601 183.555288 
L 221.103601 183.038666 
L 221.30104 183.038666 
L 221.30104 173.739469 
L 221.496322 173.739469 
L 221.496322 170.123115 
L 221.880598 170.123115 
L 221.880598 168.056627 
L 222.06968 168.056627 
L 222.06968 167.023383 
L 222.256782 167.023383 
L 222.256782 162.890407 
L 222.62521 162.890407 
L 222.62521 160.307297 
L 222.806614 160.307297 
L 222.806614 155.657699 
L 222.986194 155.657699 
L 222.986194 147.908369 
L 223.163988 147.908369 
L 223.163988 144.808637 
L 223.34003 144.808637 
L 223.34003 140.67566 
L 223.686995 140.67566 
L 223.686995 140.159038 
L 223.857983 140.159038 
L 223.857983 139.642416 
L 224.02735 139.642416 
L 224.02735 138.09255 
L 224.195127 138.09255 
L 224.195127 137.575928 
L 224.526028 137.575928 
L 224.526028 137.059306 
L 224.689208 137.059306 
L 224.689208 136.542684 
L 225.011165 136.542684 
L 225.011165 135.50944 
L 225.169993 135.50944 
L 225.169993 133.959574 
L 225.483477 133.959574 
L 225.483477 133.442952 
L 225.63818 133.442952 
L 225.63818 131.893086 
L 226.094412 131.893086 
L 226.094412 129.309976 
L 226.539285 129.309976 
L 226.539285 127.76011 
L 226.973349 127.76011 
L 226.973349 127.243488 
L 227.115725 127.243488 
L 227.115725 126.726866 
L 227.397119 126.726866 
L 227.397119 124.660378 
L 227.67415 124.660378 
L 227.67415 121.560646 
L 228.081805 121.560646 
L 228.081805 117.944292 
L 228.480367 117.944292 
L 228.480367 117.42767 
L 228.74122 117.42767 
L 228.74122 115.361182 
L 228.870232 115.361182 
L 228.870232 114.327938 
L 228.998319 114.327938 
L 228.998319 113.294694 
L 229.377163 113.294694 
L 229.377163 110.194961 
L 229.50168 110.194961 
L 229.50168 109.678339 
L 229.625335 109.678339 
L 229.625335 106.578607 
L 229.748141 106.578607 
L 229.748141 102.445631 
L 229.870108 102.445631 
L 229.870108 97.279411 
L 229.991248 97.279411 
L 229.991248 95.212923 
L 230.111572 95.212923 
L 230.111572 93.146435 
L 230.231092 93.146435 
L 230.231092 92.113191 
L 231.606241 92.113191 
L 231.606241 91.079947 
L 231.825484 91.079947 
L 231.825484 90.046703 
L 232.149386 90.046703 
L 232.149386 89.530081 
L 232.362105 89.530081 
L 232.362105 88.496837 
L 233.389291 88.496837 
L 233.488835 86.430349 
L 234.454914 86.430349 
L 234.454914 84.880483 
L 234.82718 84.880483 
L 234.919047 82.813995 
L 235.101376 82.813995 
L 235.101376 82.297373 
L 235.281864 82.297373 
L 235.371429 79.197641 
L 235.460547 79.197641 
L 235.549222 76.097908 
L 235.63746 76.097908 
L 235.63746 71.964932 
L 235.899589 71.964932 
L 235.899589 71.44831 
L 236.328101 71.44831 
L 236.412584 68.8652 
L 236.580361 68.8652 
L 236.580361 66.28209 
L 236.829109 66.28209 
L 236.829109 63.69898 
L 237.236145 63.69898 
L 237.236145 63.182358 
L 237.475989 63.182358 
L 237.475989 61.11587 
L 238.100267 61.11587 
L 238.17679 60.082626 
L 238.252987 60.082626 
L 238.252987 58.53276 
L 238.404412 58.53276 
L 238.404412 58.016138 
L 238.554565 58.016138 
L 238.629171 56.466272 
L 238.703467 56.466272 
L 238.703467 52.849918 
L 238.851138 52.849918 
L 238.924519 50.266808 
L 238.997599 50.266808 
L 239.070382 47.683698 
L 239.429913 47.683698 
L 239.50096 45.100588 
L 239.571724 45.100588 
L 239.571724 44.583966 
L 239.921405 44.583966 
L 239.921405 42.517478 
L 240.059384 42.517478 
L 240.059384 39.417745 
L 240.600883 39.417745 
L 240.600883 38.901123 
L 241.319625 38.901123 
L 241.319625 38.384501 
L 241.447254 38.384501 
L 241.447254 37.351257 
L 241.637006 37.351257 
L 241.637006 36.834635 
L 242.133375 36.834635 
L 242.133375 34.768147 
L 358.8 34.768147 
L 358.8 34.768147 
" style="fill:none;stroke:#00bfbf;stroke-linecap:square;stroke-width:1.5;"/>
   </g>
   <g id="line2d_43">
    <defs>
     <path d="M -6 0 
L 6 0 
M 0 6 
L 0 -6 
" id="m1c7511e27f" style="stroke:#00bfbf;stroke-width:1.5;"/>
    </defs>
    <g>
     <use style="fill:none;stroke:#00bfbf;stroke-width:1.5;" x="358.8" xlink:href="#m1c7511e27f" y="34.768147"/>
    </g>
   </g>
   <g id="line2d_44"/>
   <g id="line2d_45">
    <defs>
     <path d="M 0 1.5 
C 0.397805 1.5 0.77937 1.341951 1.06066 1.06066 
C 1.341951 0.77937 1.5 0.397805 1.5 0 
C 1.5 -0.397805 1.341951 -0.77937 1.06066 -1.06066 
C 0.77937 -1.341951 0.397805 -1.5 0 -1.5 
C -0.397805 -1.5 -0.77937 -1.341951 -1.06066 -1.06066 
C -1.341951 -0.77937 -1.5 -0.397805 -1.5 0 
C -1.5 0.397805 -1.341951 0.77937 -1.06066 1.06066 
C -0.77937 1.341951 -0.397805 1.5 0 1.5 
z
" id="m94a89731e1" style="stroke:#008000;"/>
    </defs>
    <g>
     <use style="fill:#008000;stroke:#008000;" x="258.143114" xlink:href="#m94a89731e1" y="34.768147"/>
     <use style="fill:#008000;stroke:#008000;" x="258.143114" xlink:href="#m94a89731e1" y="34.768147"/>
    </g>
   </g>
   <g id="line2d_46">
    <path d="M 51.169868 298.245375 
L 51.169868 274.997384 
L 145.840817 274.997384 
L 145.840817 264.148322 
L 153.085714 264.148322 
L 153.085714 261.04859 
L 158.226051 261.04859 
L 158.226051 257.948858 
L 162.213206 257.948858 
L 162.213206 255.365748 
L 165.470948 255.365748 
L 165.470948 253.815882 
L 168.225331 253.815882 
L 168.225331 253.29926 
L 170.611285 253.29926 
L 170.611285 252.782638 
L 172.715846 252.782638 
L 172.715846 250.71615 
L 176.301453 250.71615 
L 176.301453 250.199528 
L 177.856183 250.199528 
L 177.856183 249.166284 
L 181.843337 249.166284 
L 181.843337 248.649662 
L 182.996519 248.649662 
L 182.996519 244.000063 
L 184.079767 244.000063 
L 184.079767 242.966819 
L 186.067159 242.966819 
L 186.067159 242.450197 
L 186.983674 242.450197 
L 186.983674 241.933575 
L 192.345978 241.933575 
L 192.345978 241.416953 
L 199.810118 241.416953 
L 199.810118 240.900331 
L 205.697291 240.900331 
L 205.697291 239.350465 
L 209.368188 239.350465 
L 209.368188 237.283977 
L 210.118009 237.283977 
L 210.118009 236.250733 
L 210.361116 236.250733 
L 210.361116 235.734111 
L 210.60096 235.734111 
L 210.60096 233.667623 
L 213.046376 233.667623 
L 213.046376 231.601135 
L 213.457155 231.601135 
L 213.457155 230.567891 
L 213.659057 230.567891 
L 213.659057 229.018025 
L 214.251425 229.018025 
L 214.251425 226.951537 
L 214.444595 226.951537 
L 214.444595 226.434915 
L 214.824782 226.434915 
L 214.824782 225.401671 
L 215.197048 225.401671 
L 215.197048 222.818561 
L 215.380313 222.818561 
L 215.380313 220.752073 
L 215.741297 220.752073 
L 215.741297 217.652341 
L 215.919091 217.652341 
L 215.919091 215.585853 
L 216.095133 215.585853 
L 216.095133 214.035987 
L 216.269457 214.035987 
L 216.269457 212.48612 
L 216.613085 212.48612 
L 216.613085 211.452876 
L 217.28113 211.452876 
L 217.28113 210.936254 
L 217.44431 210.936254 
L 217.44431 210.419632 
L 217.925096 210.419632 
L 217.925096 209.90301 
L 218.698728 209.90301 
L 218.698728 209.386388 
L 219.294387 209.386388 
L 219.294387 208.869766 
L 219.44025 208.869766 
L 219.44025 207.836522 
L 219.584932 207.836522 
L 219.584932 206.286656 
L 220.152221 206.286656 
L 220.152221 205.770034 
L 220.702053 205.770034 
L 220.702053 201.120436 
L 220.970752 201.120436 
L 220.970752 200.603814 
L 221.103601 200.603814 
L 221.103601 199.053948 
L 221.235469 199.053948 
L 221.235469 198.020704 
L 221.496322 198.020704 
L 221.496322 196.98746 
L 221.625334 196.98746 
L 221.625334 194.40435 
L 221.753422 194.40435 
L 221.753422 193.371106 
L 221.880598 193.371106 
L 221.880598 192.854484 
L 222.256782 192.854484 
L 222.256782 191.304618 
L 222.503243 191.304618 
L 222.503243 190.787996 
L 222.62521 190.787996 
L 222.62521 189.23813 
L 222.74635 189.23813 
L 222.74635 187.688264 
L 222.986194 187.688264 
L 222.986194 187.171642 
L 228.392563 187.171642 
L 228.392563 186.138398 
L 228.567742 186.138398 
L 228.567742 184.07191 
L 228.91303 184.07191 
L 228.998319 180.455556 
L 229.083204 180.455556 
L 229.083204 178.90569 
L 229.991248 178.90569 
L 229.991248 177.355823 
L 230.389218 177.355823 
L 230.389218 176.839201 
L 230.623814 176.839201 
L 230.623814 176.322579 
L 230.855369 176.322579 
L 230.855369 175.289335 
L 231.083962 175.289335 
L 231.083962 174.256091 
L 231.309668 174.256091 
L 231.309668 173.739469 
L 231.45857 173.739469 
L 231.532558 169.089871 
L 231.679621 169.089871 
L 231.679621 167.540005 
L 231.897972 167.540005 
L 231.970166 165.473517 
L 232.113686 165.473517 
L 232.185016 164.440273 
L 232.607117 164.440273 
L 232.607117 163.923651 
L 232.814486 163.923651 
L 232.883078 162.890407 
L 233.019476 162.890407 
L 233.019476 162.373785 
L 233.154841 162.373785 
L 233.154841 161.340541 
L 233.289189 161.340541 
L 233.289189 160.823919 
L 233.751606 160.823919 
L 233.751606 159.790675 
L 234.074727 159.790675 
L 234.138656 157.724187 
L 234.329082 157.724187 
L 234.329082 156.690943 
L 234.454914 156.690943 
L 234.454914 156.174321 
L 234.579866 156.174321 
L 234.579866 154.624455 
L 234.703951 154.624455 
L 234.703951 153.074589 
L 234.949565 153.074589 
L 235.010444 152.041345 
L 235.191848 152.041345 
L 235.251909 148.424991 
L 235.311769 148.424991 
L 235.311769 147.391747 
L 235.783562 147.391747 
L 235.783562 146.875125 
L 237.868711 146.875125 
L 237.868711 146.358503 
L 238.227624 146.358503 
L 238.278313 142.225526 
L 238.429525 142.225526 
L 238.429525 139.125794 
L 239.215064 139.125794 
L 239.215064 138.609172 
L 239.358583 138.609172 
L 239.453627 137.575928 
L 239.595251 137.575928 
L 239.689047 135.50944 
L 239.875175 135.50944 
L 239.875175 134.992818 
L 240.059384 134.992818 
L 240.105141 131.893086 
L 240.241713 131.893086 
L 240.287006 130.859842 
L 240.377249 130.859842 
L 240.467039 128.793354 
L 240.511765 128.793354 
L 240.600883 127.243488 
L 240.689559 127.243488 
L 240.689559 126.726866 
L 241.126454 126.726866 
L 241.126454 125.693622 
L 241.383553 125.693622 
L 241.468438 122.59389 
L 241.637006 122.59389 
L 241.637006 121.560646 
L 241.969446 121.560646 
L 242.051598 118.977536 
L 242.092533 118.977536 
L 242.133375 117.42767 
L 242.214778 117.42767 
L 242.295813 114.84456 
L 242.336193 114.84456 
L 242.336193 113.811316 
L 242.616326 113.811316 
L 242.616326 112.26145 
L 242.774452 112.26145 
L 242.774452 109.678339 
L 243.657482 109.678339 
L 243.657482 109.161717 
L 243.917792 109.161717 
L 243.954671 108.128473 
L 244.210718 108.128473 
L 244.319339 106.578607 
L 244.391388 106.578607 
L 244.391388 105.545363 
L 244.57025 105.545363 
L 244.605808 102.445631 
L 244.782547 102.445631 
L 244.887757 100.895765 
L 245.130864 100.895765 
L 245.130864 100.379143 
L 245.607376 100.379143 
L 245.607376 99.862521 
L 245.74122 99.862521 
L 245.74122 98.312655 
L 245.940125 98.312655 
L 246.038753 94.179679 
L 246.26679 94.179679 
L 246.26679 93.663057 
L 246.619357 93.663057 
L 246.651066 91.596569 
L 246.745857 91.596569 
L 246.777343 90.563325 
L 246.902734 90.563325 
L 246.996203 87.980215 
L 247.120072 87.980215 
L 247.181686 86.946971 
L 247.426041 86.946971 
L 247.516819 82.297373 
L 247.577082 82.297373 
L 247.667098 80.747507 
L 247.726858 80.747507 
L 247.816124 79.714263 
L 247.963917 79.714263 
L 247.963917 77.647775 
L 248.457463 77.647775 
L 248.543161 76.614531 
L 248.628451 76.614531 
L 248.628451 75.581286 
L 248.881904 75.581286 
L 248.965595 74.03142 
L 249.486728 74.03142 
L 249.486728 73.514798 
L 249.648188 73.514798 
L 249.648188 72.481554 
L 249.887675 72.481554 
L 249.966796 70.931688 
L 250.123995 70.931688 
L 250.123995 68.8652 
L 250.331464 68.8652 
L 250.331464 68.348578 
L 250.485501 68.348578 
L 250.562024 64.215602 
L 250.914861 64.215602 
L 250.914861 62.665736 
L 251.334146 62.665736 
L 251.407127 60.599248 
L 251.479811 60.599248 
L 251.576265 58.53276 
L 251.648266 58.53276 
L 251.696106 56.466272 
L 251.815147 56.466272 
L 251.815147 55.433028 
L 252.050878 55.433028 
L 252.050878 54.916406 
L 252.237249 54.916406 
L 252.237249 54.399784 
L 252.467511 54.399784 
L 252.536015 52.333296 
L 252.717419 52.333296 
L 252.717419 51.300052 
L 252.986117 51.300052 
L 253.074793 49.233564 
L 253.381737 49.233564 
L 253.381737 48.20032 
L 253.57631 48.20032 
L 253.683498 46.650454 
L 253.704859 46.650454 
L 253.704859 46.133832 
L 254.02224 46.133832 
L 254.085046 44.067344 
L 254.579696 44.067344 
L 254.579696 43.550722 
L 255.139997 43.550722 
L 255.139997 42.000855 
L 255.316425 42.000855 
L 255.316425 41.484233 
L 255.68326 41.484233 
L 255.70236 40.450989 
L 255.797556 40.450989 
L 255.797556 39.417745 
L 255.911125 39.417745 
L 255.911125 38.384501 
L 257.394958 38.384501 
L 257.394958 36.834635 
L 257.670653 36.834635 
L 257.670653 36.318013 
L 257.908445 36.318013 
L 257.908445 35.801391 
L 258.143114 35.801391 
L 258.143114 34.768147 
L 358.8 34.768147 
L 358.8 34.768147 
" style="fill:none;stroke:#008000;stroke-linecap:square;stroke-width:1.5;"/>
   </g>
   <g id="line2d_47">
    <defs>
     <path d="M -0 6 
L 6 -6 
L -6 -6 
z
" id="mdf15e8746f" style="stroke:#008000;stroke-linejoin:miter;stroke-width:1.5;"/>
    </defs>
    <g>
     <use style="fill:none;stroke:#008000;stroke-linejoin:miter;stroke-width:1.5;" x="358.8" xlink:href="#mdf15e8746f" y="34.768147"/>
    </g>
   </g>
   <g id="line2d_48"/>
   <g id="line2d_49">
    <defs>
     <path d="M 0 1.5 
C 0.397805 1.5 0.77937 1.341951 1.06066 1.06066 
C 1.341951 0.77937 1.5 0.397805 1.5 0 
C 1.5 -0.397805 1.341951 -0.77937 1.06066 -1.06066 
C 0.77937 -1.341951 0.397805 -1.5 0 -1.5 
C -0.397805 -1.5 -0.77937 -1.341951 -1.06066 -1.06066 
C -1.341951 -0.77937 -1.5 -0.397805 -1.5 0 
C -1.5 0.397805 -1.341951 0.77937 -1.06066 1.06066 
C -0.77937 1.341951 -0.397805 1.5 0 1.5 
z
" id="m412e76251b" style="stroke:#0000ff;"/>
    </defs>
    <g>
     <use style="fill:#0000ff;stroke:#0000ff;" x="348.333938" xlink:href="#m412e76251b" y="117.42767"/>
     <use style="fill:#0000ff;stroke:#0000ff;" x="348.333938" xlink:href="#m412e76251b" y="117.42767"/>
    </g>
   </g>
   <g id="line2d_50">
    <path d="M 136.713325 298.245375 
L 136.713325 294.629021 
L 143.958223 294.629021 
L 143.958223 289.979423 
L 149.098559 289.979423 
L 149.098559 288.429557 
L 153.085714 288.429557 
L 153.085714 285.329825 
L 156.343457 285.329825 
L 156.343457 282.230093 
L 159.097839 282.230093 
L 159.097839 279.13036 
L 161.483794 279.13036 
L 161.483794 277.063872 
L 163.588354 277.063872 
L 163.588354 276.030628 
L 165.470948 276.030628 
L 165.470948 274.480762 
L 167.173962 274.480762 
L 167.173962 273.96414 
L 170.158903 273.96414 
L 170.158903 272.414274 
L 171.483073 272.414274 
L 171.483073 271.38103 
L 172.715846 271.38103 
L 172.715846 269.314542 
L 173.869028 269.314542 
L 173.869028 267.764676 
L 175.973589 267.764676 
L 175.973589 266.21481 
L 176.939668 266.21481 
L 176.939668 264.148322 
L 180.353465 264.148322 
L 180.353465 263.115078 
L 183.218486 263.115078 
L 183.218486 260.531968 
L 183.868307 260.531968 
L 183.868307 260.015346 
L 184.495323 260.015346 
L 184.495323 259.498724 
L 185.10108 259.498724 
L 185.10108 258.982102 
L 185.686972 258.982102 
L 185.686972 257.948858 
L 187.33751 257.948858 
L 187.33751 257.432236 
L 188.358823 257.432236 
L 188.358823 256.915614 
L 193.122975 256.915614 
L 193.122975 256.398992 
L 193.499159 256.398992 
L 193.499159 255.88237 
L 194.228571 255.88237 
L 194.228571 255.365748 
L 195.60372 255.365748 
L 195.60372 254.849126 
L 195.931585 254.849126 
L 195.931585 254.332504 
L 196.253542 254.332504 
L 196.253542 253.815882 
L 198.639496 253.815882 
L 198.639496 253.29926 
L 201.473469 253.29926 
L 201.473469 252.782638 
L 201.710136 252.782638 
L 201.710136 251.749394 
L 202.174269 251.749394 
L 202.174269 249.682906 
L 202.401892 249.682906 
L 202.401892 249.166284 
L 208.955034 249.166284 
L 208.955034 248.13304 
L 211.976109 248.13304 
L 211.976109 247.616418 
L 212.368831 247.616418 
L 212.368831 247.099796 
L 212.497843 247.099796 
L 212.497843 246.066551 
L 212.753106 246.066551 
L 212.753106 245.549929 
L 213.004774 245.549929 
L 213.004774 242.966819 
L 219.69984 242.966819 
L 219.785538 241.933575 
L 219.870828 241.933575 
L 219.870828 240.383709 
L 221.103601 240.383709 
L 221.103601 239.867087 
L 221.340268 239.867087 
L 221.340268 239.350465 
L 221.496322 239.350465 
L 221.496322 238.833843 
L 221.956471 238.833843 
L 221.956471 237.800599 
L 222.478749 237.800599 
L 222.478749 236.250733 
L 222.842675 236.250733 
L 222.914579 235.217489 
L 222.986194 235.217489 
L 222.986194 234.700867 
L 225.699689 234.700867 
L 225.699689 234.184245 
L 230.747683 234.184245 
L 230.840025 232.634379 
L 230.977649 232.634379 
L 230.977649 231.601135 
L 231.249758 231.601135 
L 231.249758 231.084513 
L 231.384274 231.084513 
L 231.384274 230.567891 
L 231.517785 230.567891 
L 231.517785 229.018025 
L 231.78185 229.018025 
L 231.78185 227.468159 
L 234.973941 227.468159 
L 234.973941 226.951537 
L 235.119507 226.951537 
L 235.119507 225.918293 
L 236.713458 225.918293 
L 236.713458 225.401671 
L 236.878446 225.401671 
L 236.878446 224.885049 
L 237.041925 224.885049 
L 237.041925 224.368427 
L 238.298549 224.368427 
L 238.298549 223.851805 
L 240.277957 223.851805 
L 240.277957 223.335183 
L 241.203973 223.335183 
L 241.203973 222.818561 
L 242.400612 222.818561 
L 242.496806 221.785317 
L 244.254246 221.785317 
L 244.254246 221.268695 
L 244.641296 221.268695 
L 244.72618 219.718829 
L 244.810663 219.718829 
L 244.810663 219.202207 
L 245.734551 219.202207 
L 245.834318 217.652341 
L 247.595122 217.652341 
L 247.595122 216.619097 
L 247.720891 216.619097 
L 247.720891 216.102475 
L 248.611426 216.102475 
L 248.611426 215.585853 
L 249.148348 215.585853 
L 249.148348 215.069231 
L 249.427159 215.069231 
L 249.443425 214.035987 
L 249.685653 214.035987 
L 249.685653 213.002743 
L 250.238401 213.002743 
L 250.238401 211.969498 
L 251.353637 211.969498 
L 251.353637 211.452876 
L 252.027444 211.452876 
L 252.027444 210.936254 
L 252.784973 210.936254 
L 252.784973 209.90301 
L 252.9327 209.90301 
L 252.9327 209.386388 
L 253.355634 209.386388 
L 253.407803 207.836522 
L 253.472802 207.836522 
L 253.472802 207.3199 
L 253.666391 207.3199 
L 253.75602 206.286656 
L 254.160122 206.286656 
L 254.160122 205.770034 
L 254.334083 205.770034 
L 254.371141 204.220168 
L 254.85804 204.220168 
L 254.85804 203.703546 
L 255.460194 203.703546 
L 255.506575 202.670302 
L 255.679438 202.670302 
L 255.679438 202.15368 
L 256.188213 202.15368 
L 256.188213 201.120436 
L 256.354636 201.120436 
L 256.354636 200.603814 
L 256.628608 200.603814 
L 256.628608 200.087192 
L 256.866277 200.087192 
L 256.866277 199.57057 
L 257.037163 199.57057 
L 257.132573 198.537326 
L 257.185359 198.537326 
L 257.269494 196.98746 
L 257.715054 196.98746 
L 257.715054 196.470838 
L 257.969083 196.470838 
L 257.969083 195.954216 
L 258.169738 195.954216 
L 258.229498 194.40435 
L 259.102707 194.40435 
L 259.102707 193.371106 
L 259.47751 193.371106 
L 259.47751 192.854484 
L 259.606856 192.854484 
L 259.606856 192.337862 
L 259.908088 192.337862 
L 259.908088 191.82124 
L 260.168679 191.82124 
L 260.257664 190.271374 
L 260.617938 190.271374 
L 260.617938 189.23813 
L 260.954025 189.23813 
L 260.971091 188.204886 
L 261.191479 188.204886 
L 261.283907 186.65502 
L 261.309033 186.65502 
L 261.375861 184.588532 
L 261.787966 184.588532 
L 261.787966 184.07191 
L 262.916688 184.07191 
L 262.924335 183.038666 
L 263.369834 183.038666 
L 263.414523 181.4888 
L 263.833585 181.4888 
L 263.86988 180.455556 
L 264.035895 180.455556 
L 264.071782 179.422312 
L 264.405642 179.422312 
L 264.405642 178.90569 
L 264.622483 178.90569 
L 264.719554 177.355823 
L 264.85732 177.355823 
L 264.85732 176.839201 
L 265.06878 176.839201 
L 265.170207 174.772713 
L 265.42461 174.772713 
L 265.42461 174.256091 
L 265.668885 174.256091 
L 265.668885 173.222847 
L 265.799548 173.222847 
L 265.799548 172.189603 
L 266.083687 172.189603 
L 266.083687 171.672981 
L 266.300196 171.672981 
L 266.394887 170.639737 
L 266.731678 170.639737 
L 266.799512 169.089871 
L 266.94052 169.089871 
L 267.050104 167.023383 
L 267.056172 167.023383 
L 267.086483 165.990139 
L 267.374878 165.990139 
L 267.374878 165.473517 
L 267.594049 165.473517 
L 267.658693 164.440273 
L 268.064672 164.440273 
L 268.064672 163.923651 
L 268.178992 163.923651 
L 268.258583 162.373785 
L 268.315217 162.373785 
L 268.315217 161.857163 
L 268.478449 161.857163 
L 268.55114 159.274053 
L 268.767457 159.274053 
L 268.817007 157.207565 
L 269.04101 157.207565 
L 269.089808 153.074589 
L 269.470166 153.074589 
L 269.470166 152.557967 
L 269.638983 152.557967 
L 269.638983 152.041345 
L 269.904782 152.041345 
L 269.940957 149.974857 
L 270.074686 149.974857 
L 270.074686 149.458235 
L 270.851792 149.458235 
L 270.881204 147.391747 
L 271.012965 147.391747 
L 271.012965 146.875125 
L 271.340564 146.875125 
L 271.388238 145.325259 
L 271.539945 145.325259 
L 271.539945 144.808637 
L 271.932153 144.808637 
L 272.010492 141.708904 
L 272.088489 141.708904 
L 272.088489 140.67566 
L 285.357933 140.67566 
L 285.357933 139.642416 
L 285.570161 139.642416 
L 285.671057 138.609172 
L 285.904992 138.609172 
L 285.904992 137.575928 
L 286.754934 137.575928 
L 286.754934 137.059306 
L 293.500673 137.059306 
L 293.500673 136.026062 
L 293.862983 136.026062 
L 293.862983 135.50944 
L 294.090263 135.50944 
L 294.090263 134.992818 
L 294.234007 134.992818 
L 294.234007 134.476196 
L 294.493265 134.476196 
L 294.598782 132.92633 
L 294.787413 132.92633 
L 294.787413 132.409708 
L 299.339512 132.409708 
L 299.339512 131.893086 
L 299.743339 131.893086 
L 299.743339 131.376464 
L 300.060913 131.376464 
L 300.06474 129.826598 
L 303.733026 129.826598 
L 303.733026 129.309976 
L 304.049599 129.309976 
L 304.049599 128.793354 
L 304.444699 128.793354 
L 304.445448 127.76011 
L 307.723141 127.76011 
L 307.725633 126.726866 
L 307.864029 126.726866 
L 307.864029 126.210244 
L 310.594992 126.210244 
L 310.697631 124.660378 
L 313.068544 124.660378 
L 313.068544 124.143756 
L 317.056438 124.143756 
L 317.056438 123.627134 
L 321.97738 123.627134 
L 321.97738 123.110512 
L 323.242263 123.110512 
L 323.242263 122.59389 
L 323.378472 122.59389 
L 323.378472 122.077268 
L 326.756452 122.077268 
L 326.787564 121.044024 
L 330.687424 121.044024 
L 330.687424 120.527402 
L 331.529018 120.527402 
L 331.529018 120.01078 
L 333.101879 120.01078 
L 333.101879 119.494158 
L 335.842275 119.494158 
L 335.842275 118.977536 
L 336.476651 118.977536 
L 336.476651 118.460914 
L 344.796013 118.460914 
L 344.796013 117.944292 
L 348.333938 117.944292 
L 348.333938 117.42767 
L 358.8 117.42767 
L 358.8 117.42767 
" style="fill:none;stroke:#0000ff;stroke-linecap:square;stroke-width:1.5;"/>
   </g>
   <g id="line2d_51">
    <defs>
     <path d="M 0 -6 
L -1.347084 -1.854102 
L -5.706339 -1.854102 
L -2.179628 0.708204 
L -3.526712 4.854102 
L -0 2.291796 
L 3.526712 4.854102 
L 2.179628 0.708204 
L 5.706339 -1.854102 
L 1.347084 -1.854102 
z
" id="m1fa11233d5" style="stroke:#0000ff;stroke-linejoin:bevel;stroke-width:1.5;"/>
    </defs>
    <g>
     <use style="fill:none;stroke:#0000ff;stroke-linejoin:bevel;stroke-width:1.5;" x="358.8" xlink:href="#m1fa11233d5" y="117.42767"/>
    </g>
   </g>
   <g id="line2d_52"/>
   <g id="line2d_53">
    <path clip-path="url(#p94dcfd87dd)" d="M 276.514286 140.67566 
" style="fill:none;stroke:#0000ff;stroke-linecap:square;stroke-width:1.5;"/>
    <defs>
     <path d="M -12 12 
L 12 -12 
M -12 -12 
L 12 12 
" id="m9ca4e1913e" style="stroke:#0000ff;stroke-width:3;"/>
    </defs>
    <g clip-path="url(#p94dcfd87dd)">
     <use style="fill:#0000ff;stroke:#0000ff;stroke-width:3;" x="276.514286" xlink:href="#m9ca4e1913e" y="140.67566"/>
    </g>
   </g>
   <g id="line2d_54">
    <defs>
     <path d="M 0 1.5 
C 0.397805 1.5 0.77937 1.341951 1.06066 1.06066 
C 1.341951 0.77937 1.5 0.397805 1.5 0 
C 1.5 -0.397805 1.341951 -0.77937 1.06066 -1.06066 
C 0.77937 -1.341951 0.397805 -1.5 0 -1.5 
C -0.397805 -1.5 -0.77937 -1.341951 -1.06066 -1.06066 
C -1.341951 -0.77937 -1.5 -0.397805 -1.5 0 
C -1.5 0.397805 -1.341951 0.77937 -1.06066 1.06066 
C -0.77937 1.341951 -0.397805 1.5 0 1.5 
z
" id="m6f9d23c451" style="stroke:#000000;"/>
    </defs>
    <g>
     <use style="stroke:#000000;" x="361.519603" xlink:href="#m6f9d23c451" y="132.92633"/>
     <use style="stroke:#000000;" x="361.519603" xlink:href="#m6f9d23c451" y="132.92633"/>
    </g>
   </g>
   <g id="line2d_55">
    <path d="M 161.483794 298.245375 
L 161.483794 297.728753 
L 163.588354 297.728753 
L 163.588354 296.178887 
L 167.173962 296.178887 
L 167.173962 294.112399 
L 170.158903 294.112399 
L 170.158903 292.562533 
L 171.483073 292.562533 
L 171.483073 291.529289 
L 172.715846 291.529289 
L 172.715846 290.496045 
L 173.869028 290.496045 
L 173.869028 289.979423 
L 174.952275 289.979423 
L 174.952275 288.429557 
L 175.973589 288.429557 
L 175.973589 287.912935 
L 176.939668 287.912935 
L 176.939668 287.396313 
L 177.856183 287.396313 
L 177.856183 285.329825 
L 178.727971 285.329825 
L 178.727971 284.813203 
L 180.353465 284.813203 
L 180.353465 284.296581 
L 181.113925 284.296581 
L 181.113925 282.746715 
L 181.843337 282.746715 
L 181.843337 281.713471 
L 183.868307 281.713471 
L 183.868307 278.097116 
L 184.495323 278.097116 
L 184.495323 277.580494 
L 185.10108 277.580494 
L 185.10108 277.063872 
L 186.804093 277.063872 
L 186.804093 276.54725 
L 187.33751 276.54725 
L 187.33751 276.030628 
L 190.682627 276.030628 
L 190.682627 275.514006 
L 191.113205 275.514006 
L 191.113205 274.997384 
L 191.94443 274.997384 
L 191.94443 273.447518 
L 192.738699 273.447518 
L 192.738699 272.930896 
L 203.284447 272.930896 
L 203.284447 272.414274 
L 203.498439 272.414274 
L 203.498439 271.38103 
L 203.918885 271.38103 
L 203.918885 270.864408 
L 205.123933 270.864408 
L 205.123933 270.347786 
L 205.697291 270.347786 
L 205.697291 268.281298 
L 206.613806 268.281298 
L 206.613806 267.764676 
L 208.316819 267.764676 
L 208.316819 267.248054 
L 209.265791 267.248054 
L 209.265791 266.21481 
L 211.438682 266.21481 
L 211.438682 265.698188 
L 212.23888 265.698188 
L 212.23888 265.181566 
L 213.375752 265.181566 
L 213.375752 264.148322 
L 218.454791 264.148322 
L 218.546658 262.081834 
L 218.909475 262.081834 
L 218.99904 261.04859 
L 222.032023 261.04859 
L 222.032023 260.531968 
L 222.182176 260.531968 
L 222.256782 258.46548 
L 222.478749 258.46548 
L 222.55213 257.432236 
L 222.697993 257.432236 
L 222.697993 256.915614 
L 226.303398 256.915614 
L 226.303398 255.88237 
L 228.162232 255.88237 
L 228.162232 254.849126 
L 228.532843 254.849126 
L 228.532843 253.815882 
L 228.844504 253.815882 
L 228.844504 253.29926 
L 233.12785 253.29926 
L 233.168322 251.232772 
L 233.369315 251.232772 
L 233.369315 250.71615 
L 235.046873 250.71615 
L 235.046873 250.199528 
L 235.227909 250.199528 
L 235.227909 249.166284 
L 235.371429 249.166284 
L 235.371429 248.649662 
L 236.647033 248.649662 
L 236.647033 247.616418 
L 240.970399 247.616418 
L 240.970399 247.099796 
L 242.520774 247.099796 
L 242.520774 246.583173 
L 243.24827 246.583173 
L 243.24827 245.549929 
L 243.769508 245.549929 
L 243.769508 244.516685 
L 245.734551 244.516685 
L 245.734551 244.000063 
L 247.559024 244.000063 
L 247.559024 242.966819 
L 248.508931 242.966819 
L 248.508931 241.933575 
L 250.097891 241.933575 
L 250.176088 240.383709 
L 251.657844 240.383709 
L 251.657844 239.867087 
L 253.092475 239.867087 
L 253.092475 239.350465 
L 255.025368 239.350465 
L 255.061022 238.317221 
L 255.355396 238.317221 
L 255.355396 237.800599 
L 255.518151 237.800599 
L 255.518151 236.767355 
L 256.05395 236.767355 
L 256.110016 235.217489 
L 256.595952 235.217489 
L 256.595952 234.700867 
L 257.143143 234.700867 
L 257.248497 233.667623 
L 257.745729 233.667623 
L 257.745729 232.634379 
L 258.18968 232.634379 
L 258.18968 231.601135 
L 258.55465 231.601135 
L 258.55465 231.084513 
L 258.681134 231.084513 
L 258.681134 230.051269 
L 259.197147 230.051269 
L 259.197147 229.534647 
L 259.634452 229.534647 
L 259.67118 227.468159 
L 260.070281 227.468159 
L 260.070281 226.951537 
L 260.451884 226.951537 
L 260.513242 225.918293 
L 260.851285 225.918293 
L 260.851285 225.401671 
L 260.988141 225.401671 
L 260.988141 224.885049 
L 261.755345 224.885049 
L 261.828659 221.785317 
L 262.190781 221.785317 
L 262.190781 221.268695 
L 262.893726 221.268695 
L 262.977776 220.235451 
L 263.227578 220.235451 
L 263.227578 219.718829 
L 263.362375 219.718829 
L 263.362375 219.202207 
L 264.10044 219.202207 
L 264.10044 218.685585 
L 264.43377 218.685585 
L 264.43377 218.168963 
L 264.629434 218.168963 
L 264.629434 217.652341 
L 265.095883 217.652341 
L 265.095883 217.135719 
L 265.277766 217.135719 
L 265.277766 215.585853 
L 265.838561 215.585853 
L 265.838561 215.069231 
L 266.058042 215.069231 
L 266.058042 214.035987 
L 266.432623 214.035987 
L 266.47028 213.002743 
L 266.557838 213.002743 
L 266.651177 211.452876 
L 266.76871 211.452876 
L 266.76871 210.936254 
L 267.404653 210.936254 
L 267.404653 210.419632 
L 267.920736 210.419632 
L 267.93807 208.869766 
L 268.258583 208.869766 
L 268.258583 208.353144 
L 268.388574 208.353144 
L 268.484051 207.3199 
L 268.651304 207.3199 
L 268.73987 204.220168 
L 268.817007 204.220168 
L 268.817007 203.186924 
L 269.051865 203.186924 
L 269.051865 202.670302 
L 269.331817 202.670302 
L 269.3745 199.053948 
L 269.591664 199.053948 
L 269.591664 198.537326 
L 270.136071 198.537326 
L 270.136071 198.020704 
L 270.584877 198.020704 
L 270.584877 197.504082 
L 270.876306 197.504082 
L 270.876306 196.98746 
L 271.090589 196.98746 
L 271.148587 193.887728 
L 271.311899 193.887728 
L 271.311899 192.854484 
L 272.302372 192.854484 
L 272.302372 191.82124 
L 272.504782 191.82124 
L 272.509254 190.787996 
L 273.189232 190.787996 
L 273.189232 190.271374 
L 279.011568 190.271374 
L 279.011568 189.754752 
L 279.166272 189.754752 
L 279.166272 189.23813 
L 280.475692 189.23813 
L 280.475692 188.721508 
L 281.464209 188.721508 
L 281.464209 188.204886 
L 283.002452 188.204886 
L 283.002452 187.688264 
L 284.087308 187.688264 
L 284.087308 187.171642 
L 284.55366 187.171642 
L 284.605995 186.138398 
L 284.919064 186.138398 
L 285.021473 184.07191 
L 285.101212 184.07191 
L 285.101212 183.555288 
L 285.24429 183.555288 
L 285.331772 182.005422 
L 285.993511 182.005422 
L 286.100411 180.972178 
L 286.179649 180.972178 
L 286.179649 180.455556 
L 286.392675 180.455556 
L 286.478816 179.422312 
L 287.006996 179.422312 
L 287.080344 178.389067 
L 287.314226 178.389067 
L 287.314226 177.872445 
L 290.236576 177.872445 
L 290.236576 177.355823 
L 292.003233 177.355823 
L 292.003233 176.839201 
L 293.289493 176.839201 
L 293.289493 176.322579 
L 293.591598 176.322579 
L 293.591598 175.805957 
L 293.792465 175.805957 
L 293.792465 175.289335 
L 294.120972 175.289335 
L 294.120972 174.772713 
L 294.2605 174.772713 
L 294.2605 174.256091 
L 294.680422 174.256091 
L 294.715297 173.222847 
L 298.272258 173.222847 
L 298.272258 172.706225 
L 299.450735 172.706225 
L 299.495229 171.672981 
L 300.079082 171.672981 
L 300.079082 171.156359 
L 300.363537 171.156359 
L 300.363537 170.639737 
L 300.509683 170.639737 
L 300.509683 169.089871 
L 303.305735 169.089871 
L 303.305735 168.573249 
L 304.005922 168.573249 
L 304.005922 168.056627 
L 306.578764 168.056627 
L 306.578764 167.540005 
L 306.778269 167.540005 
L 306.778269 167.023383 
L 307.48099 167.023383 
L 307.48099 166.506761 
L 307.668224 166.506761 
L 307.668224 165.990139 
L 307.790931 165.990139 
L 307.790931 165.473517 
L 309.625227 165.473517 
L 309.625227 164.956895 
L 309.793606 164.956895 
L 309.902043 163.923651 
L 310.389538 163.923651 
L 310.389538 163.407029 
L 310.652733 163.407029 
L 310.685493 160.823919 
L 312.372806 160.823919 
L 312.372806 160.307297 
L 312.754884 160.307297 
L 312.754884 159.790675 
L 313.027842 159.790675 
L 313.11883 158.240809 
L 314.497903 158.240809 
L 314.497903 157.724187 
L 315.082323 157.724187 
L 315.082323 156.690943 
L 315.204903 156.690943 
L 315.204903 156.174321 
L 316.701087 156.174321 
L 316.701087 155.657699 
L 318.493159 155.657699 
L 318.493159 155.141077 
L 320.060644 155.141077 
L 320.121767 154.107833 
L 320.310053 154.107833 
L 320.310053 153.591211 
L 320.489362 153.591211 
L 320.489362 153.074589 
L 321.952669 153.074589 
L 321.952669 152.557967 
L 323.356405 152.557967 
L 323.356405 152.041345 
L 324.625215 152.041345 
L 324.625215 151.524723 
L 325.4184 151.524723 
L 325.4184 151.008101 
L 325.603528 151.008101 
L 325.603528 150.491479 
L 325.737034 150.491479 
L 325.795824 149.458235 
L 326.473974 149.458235 
L 326.473974 148.941613 
L 326.839156 148.941613 
L 326.839156 148.424991 
L 327.634968 148.424991 
L 327.634968 147.908369 
L 327.91692 147.908369 
L 327.91692 147.391747 
L 328.907673 147.391747 
L 328.907673 146.875125 
L 329.570742 146.875125 
L 329.570742 146.358503 
L 329.73419 146.358503 
L 329.788281 144.808637 
L 330.571057 144.808637 
L 330.571057 144.292014 
L 330.7062 144.292014 
L 330.716871 142.225526 
L 331.234101 142.225526 
L 331.234101 141.708904 
L 332.130253 141.708904 
L 332.130253 141.192282 
L 333.624589 141.192282 
L 333.624589 140.67566 
L 335.056522 140.67566 
L 335.056522 140.159038 
L 335.24314 140.159038 
L 335.24314 139.642416 
L 336.43372 139.642416 
L 336.43372 139.125794 
L 338.684359 139.125794 
L 338.684359 138.609172 
L 339.226848 138.609172 
L 339.226848 138.09255 
L 339.402103 138.09255 
L 339.402103 137.575928 
L 339.721987 137.575928 
L 339.721987 137.059306 
L 340.430194 137.059306 
L 340.430194 136.542684 
L 340.868658 136.542684 
L 340.868658 136.026062 
L 341.349555 136.026062 
L 341.349555 135.50944 
L 341.688611 135.50944 
L 341.688611 134.992818 
L 342.622999 134.992818 
L 342.622999 134.476196 
L 343.577163 134.476196 
L 343.577163 133.959574 
L 353.815743 133.959574 
L 353.815743 133.442952 
L 358.8 133.442952 
L 358.8 133.442952 
" style="fill:none;stroke:#000000;stroke-linecap:square;stroke-width:1.5;"/>
   </g>
   <g id="line2d_56">
    <defs>
     <path d="M 0 6 
C 1.591219 6 3.117479 5.367802 4.242641 4.242641 
C 5.367802 3.117479 6 1.591219 6 0 
C 6 -1.591219 5.367802 -3.117479 4.242641 -4.242641 
C 3.117479 -5.367802 1.591219 -6 0 -6 
C -1.591219 -6 -3.117479 -5.367802 -4.242641 -4.242641 
C -5.367802 -3.117479 -6 -1.591219 -6 0 
C -6 1.591219 -5.367802 3.117479 -4.242641 4.242641 
C -3.117479 5.367802 -1.591219 6 0 6 
z
" id="mc91aec11ea" style="stroke:#000000;stroke-width:1.5;"/>
    </defs>
    <g>
     <use style="fill:none;stroke:#000000;stroke-width:1.5;" x="358.8" xlink:href="#mc91aec11ea" y="133.442952"/>
    </g>
   </g>
   <g id="line2d_57"/>
   <g id="line2d_58">
    <path clip-path="url(#p94dcfd87dd)" d="M 276.514286 190.271374 
" style="fill:none;stroke:#000000;stroke-linecap:square;stroke-width:1.5;"/>
    <defs>
     <path d="M -12 12 
L 12 -12 
M -12 -12 
L 12 12 
" id="m1743ae6172" style="stroke:#000000;stroke-width:3;"/>
    </defs>
    <g clip-path="url(#p94dcfd87dd)">
     <use style="stroke:#000000;stroke-width:3;" x="276.514286" xlink:href="#m1743ae6172" y="190.271374"/>
    </g>
   </g>
   <g id="line2d_59">
    <defs>
     <path d="M 0 1.5 
C 0.397805 1.5 0.77937 1.341951 1.06066 1.06066 
C 1.341951 0.77937 1.5 0.397805 1.5 0 
C 1.5 -0.397805 1.341951 -0.77937 1.06066 -1.06066 
C 0.77937 -1.341951 0.397805 -1.5 0 -1.5 
C -0.397805 -1.5 -0.77937 -1.341951 -1.06066 -1.06066 
C -1.341951 -0.77937 -1.5 -0.397805 -1.5 0 
C -1.5 0.397805 -1.341951 0.77937 -1.06066 1.06066 
C -0.77937 1.341951 -0.397805 1.5 0 1.5 
z
" id="m79378e5a4d" style="stroke:#ff0000;"/>
    </defs>
    <g>
     <use style="fill:#ff0000;stroke:#ff0000;" x="342.797993" xlink:href="#m79378e5a4d" y="194.920972"/>
     <use style="fill:#ff0000;stroke:#ff0000;" x="342.797993" xlink:href="#m79378e5a4d" y="194.920972"/>
    </g>
   </g>
   <g id="line2d_60">
    <path d="M 174.418859 298.245375 
L 174.418859 297.212131 
L 175.973589 297.212131 
L 175.973589 295.145643 
L 178.727971 295.145643 
L 178.727971 294.112399 
L 179.559196 294.112399 
L 179.559196 293.079155 
L 179.960743 293.079155 
L 179.960743 292.562533 
L 180.353465 292.562533 
L 180.353465 291.529289 
L 181.113925 291.529289 
L 181.113925 291.012667 
L 190.016657 291.012667 
L 190.016657 290.496045 
L 191.533651 290.496045 
L 191.533651 289.462801 
L 192.146332 289.462801 
L 192.146332 288.946179 
L 192.738699 288.946179 
L 192.738699 288.429557 
L 192.93187 288.429557 
L 192.93187 287.912935 
L 193.499159 287.912935 
L 193.499159 287.396313 
L 193.684323 287.396313 
L 193.684323 286.879691 
L 194.048991 286.879691 
L 194.048991 286.363069 
L 205.026559 286.363069 
L 205.026559 285.846447 
L 205.22078 285.846447 
L 205.22078 285.329825 
L 207.055016 285.329825 
L 207.055016 284.813203 
L 207.906039 284.813203 
L 207.906039 284.296581 
L 208.876492 284.296581 
L 208.876492 282.746715 
L 210.093515 282.746715 
L 210.093515 282.230093 
L 210.529345 282.230093 
L 210.529345 281.713471 
L 211.574562 281.713471 
L 211.574562 281.196849 
L 212.497843 281.196849 
L 212.497843 280.163604 
L 212.942189 280.163604 
L 212.942189 279.646982 
L 213.436839 279.646982 
L 213.436839 278.613738 
L 213.858703 278.613738 
L 213.858703 278.097116 
L 214.730491 278.097116 
L 214.730491 276.54725 
L 215.178618 276.54725 
L 215.178618 276.030628 
L 215.398536 276.030628 
L 215.398536 275.514006 
L 217.845858 275.514006 
L 217.845858 274.997384 
L 226.362663 274.997384 
L 226.362663 274.480762 
L 228.74122 274.480762 
L 228.74122 273.96414 
L 230.231092 273.96414 
L 230.231092 272.930896 
L 231.068813 272.930896 
L 231.068813 272.414274 
L 234.246813 272.414274 
L 234.246813 271.38103 
L 236.647033 271.38103 
L 236.647033 270.864408 
L 237.268311 270.864408 
L 237.268311 270.347786 
L 241.358009 270.347786 
L 241.358009 269.831164 
L 242.496806 269.831164 
L 242.496806 269.314542 
L 243.735974 269.314542 
L 243.735974 268.79792 
L 245.144657 268.79792 
L 245.144657 267.764676 
L 245.794478 267.764676 
L 245.794478 267.248054 
L 246.334638 267.248054 
L 246.334638 266.731432 
L 246.830741 266.731432 
L 246.830741 265.698188 
L 247.72984 265.698188 
L 247.72984 264.148322 
L 248.119255 264.148322 
L 248.119255 263.6317 
L 249.040584 263.6317 
L 249.040584 263.115078 
L 253.079215 263.115078 
L 253.079215 262.598456 
L 256.238303 262.598456 
L 256.238303 262.081834 
L 258.94578 262.081834 
L 258.94578 261.565212 
L 260.119548 261.565212 
L 260.119548 261.04859 
L 262.790031 261.04859 
L 262.790031 260.015346 
L 263.507268 260.015346 
L 263.507268 258.982102 
L 263.949471 258.982102 
L 263.949471 258.46548 
L 265.487648 258.46548 
L 265.487648 257.948858 
L 268.079002 257.948858 
L 268.079002 257.432236 
L 268.54835 257.432236 
L 268.54835 256.915614 
L 270.736124 256.915614 
L 270.736124 255.88237 
L 270.876306 255.88237 
L 270.876306 255.365748 
L 271.247233 255.365748 
L 271.247233 253.815882 
L 272.406112 253.815882 
L 272.406112 253.29926 
L 272.536063 253.29926 
L 272.536063 252.782638 
L 272.753509 252.782638 
L 272.753509 252.266016 
L 273.165542 252.266016 
L 273.165542 250.199528 
L 273.35206 250.199528 
L 273.35206 249.682906 
L 273.481686 249.682906 
L 273.481686 249.166284 
L 274.134456 249.166284 
L 274.134456 248.13304 
L 277.786563 248.13304 
L 277.786563 247.616418 
L 278.379003 247.616418 
L 278.379003 247.099796 
L 279.006906 247.099796 
L 279.006906 246.583173 
L 279.767561 246.583173 
L 279.767561 246.066551 
L 280.776624 246.066551 
L 280.776624 245.549929 
L 281.495335 245.549929 
L 281.495335 244.516685 
L 281.99137 244.516685 
L 281.99137 244.000063 
L 282.520028 244.000063 
L 282.520028 243.483441 
L 283.699523 243.483441 
L 283.699523 242.966819 
L 285.175095 242.966819 
L 285.243194 241.933575 
L 286.110858 241.933575 
L 286.110858 241.416953 
L 286.310248 241.416953 
L 286.310248 240.900331 
L 287.117893 240.900331 
L 287.117893 239.867087 
L 287.498766 239.867087 
L 287.498766 238.833843 
L 290.106782 238.833843 
L 290.183441 237.800599 
L 290.432795 237.800599 
L 290.432795 236.767355 
L 290.714265 236.767355 
L 290.723141 235.734111 
L 291.157483 235.734111 
L 291.157483 235.217489 
L 291.273633 235.217489 
L 291.273633 234.700867 
L 291.563055 234.700867 
L 291.563055 234.184245 
L 292.187018 234.184245 
L 292.187018 233.151001 
L 292.368932 233.151001 
L 292.368932 232.634379 
L 292.626778 232.634379 
L 292.626778 232.117757 
L 292.765476 232.117757 
L 292.802856 231.084513 
L 293.136503 231.084513 
L 293.136503 230.567891 
L 293.537925 230.567891 
L 293.537925 230.051269 
L 294.227378 230.051269 
L 294.334472 229.018025 
L 295.006477 229.018025 
L 295.096387 227.984781 
L 295.189618 227.984781 
L 295.189618 226.951537 
L 295.385822 226.951537 
L 295.385822 226.434915 
L 296.585628 226.434915 
L 296.585628 225.918293 
L 296.787856 225.918293 
L 296.787856 225.401671 
L 296.958253 225.401671 
L 297.014504 224.368427 
L 297.37449 224.368427 
L 297.380604 223.335183 
L 298.244213 223.335183 
L 298.244213 222.818561 
L 298.812313 222.818561 
L 298.838969 221.268695 
L 299.35196 221.268695 
L 299.35196 220.752073 
L 299.601072 220.752073 
L 299.601072 220.235451 
L 300.416137 220.235451 
L 300.416137 219.718829 
L 300.545102 219.718829 
L 300.545102 219.202207 
L 303.086176 219.202207 
L 303.086176 218.685585 
L 303.528539 218.685585 
L 303.528539 218.168963 
L 304.280757 218.168963 
L 304.280757 217.652341 
L 304.682657 217.652341 
L 304.682657 217.135719 
L 306.660288 217.135719 
L 306.727284 216.102475 
L 307.088914 216.102475 
L 307.088914 215.069231 
L 308.03017 215.069231 
L 308.039968 214.035987 
L 309.693997 214.035987 
L 309.693997 213.519365 
L 309.913346 213.519365 
L 309.913346 213.002743 
L 311.7357 213.002743 
L 311.7357 212.48612 
L 312.974976 212.48612 
L 313.012555 211.452876 
L 313.251707 211.452876 
L 313.251707 210.936254 
L 314.486598 210.936254 
L 314.486598 210.419632 
L 315.19137 210.419632 
L 315.217401 209.386388 
L 317.364946 209.386388 
L 317.364946 208.869766 
L 318.588732 208.869766 
L 318.686157 207.836522 
L 318.884435 207.836522 
L 318.884435 207.3199 
L 319.056926 207.3199 
L 319.056926 206.286656 
L 320.004639 206.286656 
L 320.004639 205.770034 
L 320.479295 205.770034 
L 320.479295 205.253412 
L 321.820251 205.253412 
L 321.820251 204.73679 
L 322.638057 204.73679 
L 322.638057 204.220168 
L 324.468342 204.220168 
L 324.468342 203.703546 
L 325.528465 203.703546 
L 325.528465 202.670302 
L 327.975088 202.670302 
L 327.975088 202.15368 
L 328.836514 202.15368 
L 328.836514 201.637058 
L 329.876238 201.637058 
L 329.876238 201.120436 
L 331.43712 201.120436 
L 331.509113 200.087192 
L 333.017743 200.087192 
L 333.017743 199.57057 
L 334.481408 199.57057 
L 334.481408 199.053948 
L 335.212395 199.053948 
L 335.212395 198.537326 
L 337.705809 198.537326 
L 337.705809 198.020704 
L 338.889782 198.020704 
L 338.889782 197.504082 
L 339.946909 197.504082 
L 339.946909 196.470838 
L 341.842329 196.470838 
L 341.842329 195.954216 
L 342.787971 195.954216 
L 342.797993 194.920972 
L 358.8 194.920972 
L 358.8 194.920972 
" style="fill:none;stroke:#ff0000;stroke-linecap:square;stroke-width:1.5;"/>
   </g>
   <g id="line2d_61">
    <defs>
     <path d="M -6 6 
L 6 6 
L 6 -6 
L -6 -6 
z
" id="m251dcdb1c2" style="stroke:#ff0000;stroke-linejoin:miter;stroke-width:1.5;"/>
    </defs>
    <g>
     <use style="fill:none;stroke:#ff0000;stroke-linejoin:miter;stroke-width:1.5;" x="358.8" xlink:href="#m251dcdb1c2" y="194.920972"/>
    </g>
   </g>
   <g id="line2d_62"/>
   <g id="line2d_63">
    <path clip-path="url(#p94dcfd87dd)" d="M 276.514286 248.13304 
" style="fill:none;stroke:#ff0000;stroke-linecap:square;stroke-width:1.5;"/>
    <defs>
     <path d="M -12 12 
L 12 -12 
M -12 -12 
L 12 12 
" id="mf32ba116dc" style="stroke:#ff0000;stroke-width:3;"/>
    </defs>
    <g clip-path="url(#p94dcfd87dd)">
     <use style="fill:#ff0000;stroke:#ff0000;stroke-width:3;" x="276.514286" xlink:href="#mf32ba116dc" y="248.13304"/>
    </g>
   </g>
   <g id="line2d_64">
    <defs>
     <path d="M 0 1.5 
C 0.397805 1.5 0.77937 1.341951 1.06066 1.06066 
C 1.341951 0.77937 1.5 0.397805 1.5 0 
C 1.5 -0.397805 1.341951 -0.77937 1.06066 -1.06066 
C 0.77937 -1.341951 0.397805 -1.5 0 -1.5 
C -0.397805 -1.5 -0.77937 -1.341951 -1.06066 -1.06066 
C -1.341951 -0.77937 -1.5 -0.397805 -1.5 0 
C -1.5 0.397805 -1.341951 0.77937 -1.06066 1.06066 
C -0.77937 1.341951 -0.397805 1.5 0 1.5 
z
" id="m96f43ab038" style="stroke:#bf00bf;"/>
    </defs>
    <g>
     <use style="fill:#bf00bf;stroke:#bf00bf;" x="331.85244" xlink:href="#m96f43ab038" y="272.414274"/>
     <use style="fill:#bf00bf;stroke:#bf00bf;" x="331.85244" xlink:href="#m96f43ab038" y="272.414274"/>
    </g>
   </g>
   <g id="line2d_65">
    <path d="M 203.604482 298.245375 
L 203.604482 297.728753 
L 205.977215 297.728753 
L 205.977215 297.212131 
L 206.207181 297.212131 
L 206.207181 296.695509 
L 209.495363 296.695509 
L 209.495363 296.178887 
L 209.982876 296.178887 
L 209.982876 295.662265 
L 217.845858 295.662265 
L 217.845858 295.145643 
L 220.803289 295.145643 
L 220.803289 294.112399 
L 220.984081 294.112399 
L 220.984081 293.595777 
L 221.320665 293.595777 
L 221.320665 292.562533 
L 221.554493 292.562533 
L 221.554493 292.045911 
L 222.89663 292.045911 
L 222.89663 291.529289 
L 224.656691 291.529289 
L 224.656691 291.012667 
L 225.791556 291.012667 
L 225.791556 290.496045 
L 226.019178 290.496045 
L 226.019178 289.979423 
L 227.892722 289.979423 
L 227.892722 289.462801 
L 228.322007 289.462801 
L 228.322007 288.946179 
L 230.851534 288.946179 
L 230.851534 288.429557 
L 232.697273 288.429557 
L 232.697273 287.396313 
L 234.265832 287.396313 
L 234.265832 286.879691 
L 234.464316 286.879691 
L 234.464316 285.329825 
L 234.54871 285.329825 
L 234.54871 284.813203 
L 234.558063 284.813203 
L 234.558063 284.296581 
L 236.647033 284.296581 
L 236.647033 283.779959 
L 244.486408 283.779959 
L 244.486408 283.263337 
L 276.997285 283.263337 
L 276.997285 282.746715 
L 277.314458 282.746715 
L 277.314458 282.230093 
L 278.054119 282.230093 
L 278.054119 281.713471 
L 281.543945 281.713471 
L 281.543945 280.680226 
L 287.670895 280.680226 
L 287.670895 280.163604 
L 291.746449 280.163604 
L 291.746449 279.646982 
L 297.982822 279.646982 
L 297.982822 278.613738 
L 301.392308 278.613738 
L 301.392308 278.097116 
L 302.680985 278.097116 
L 302.680985 277.063872 
L 305.651652 277.063872 
L 305.651652 276.54725 
L 309.472487 276.54725 
L 309.472487 276.030628 
L 309.529883 276.030628 
L 309.529883 275.514006 
L 311.5561 275.514006 
L 311.5561 274.997384 
L 312.144757 274.997384 
L 312.144757 274.480762 
L 316.447552 274.480762 
L 316.447552 273.96414 
L 319.880587 273.96414 
L 319.880587 273.447518 
L 325.285165 273.447518 
L 325.285165 272.930896 
L 331.85244 272.930896 
L 331.85244 272.414274 
L 358.8 272.414274 
" style="fill:none;stroke:#bf00bf;stroke-linecap:square;stroke-width:1.5;"/>
   </g>
   <g id="line2d_66">
    <defs>
     <path d="M -0 8.485281 
L 8.485281 0 
L 0 -8.485281 
L -8.485281 -0 
z
" id="mbc0825416c" style="stroke:#bf00bf;stroke-linejoin:miter;stroke-width:1.5;"/>
    </defs>
    <g>
     <use style="fill:none;stroke:#bf00bf;stroke-linejoin:miter;stroke-width:1.5;" x="358.8" xlink:href="#mbc0825416c" y="272.414274"/>
    </g>
   </g>
   <g id="line2d_67"/>
   <g id="line2d_68">
    <path clip-path="url(#p94dcfd87dd)" d="M 276.514286 283.263337 
" style="fill:none;stroke:#bf00bf;stroke-linecap:square;stroke-width:1.5;"/>
    <defs>
     <path d="M -12 12 
L 12 -12 
M -12 -12 
L 12 12 
" id="m178aea260c" style="stroke:#bf00bf;stroke-width:3;"/>
    </defs>
    <g clip-path="url(#p94dcfd87dd)">
     <use style="fill:#bf00bf;stroke:#bf00bf;stroke-width:3;" x="276.514286" xlink:href="#m178aea260c" y="283.263337"/>
    </g>
   </g>
   <g id="line2d_69">
    <path d="M 358.8 272.414274 
L 390.48 292.97583 
" style="fill:none;stroke:#bf00bf;stroke-linecap:square;stroke-width:1.5;"/>
    <g>
     <use style="fill:none;stroke:#bf00bf;stroke-linejoin:miter;stroke-width:1.5;" x="358.8" xlink:href="#mbc0825416c" y="272.414274"/>
     <use style="fill:none;stroke:#bf00bf;stroke-linejoin:miter;stroke-width:1.5;" x="390.48" xlink:href="#mbc0825416c" y="292.97583"/>
    </g>
   </g>
   <g id="line2d_70">
    <path d="M 358.8 194.920972 
L 390.48 242.388203 
" style="fill:none;stroke:#ff0000;stroke-linecap:square;stroke-width:1.5;"/>
    <g>
     <use style="fill:none;stroke:#ff0000;stroke-linejoin:miter;stroke-width:1.5;" x="358.8" xlink:href="#m251dcdb1c2" y="194.920972"/>
     <use style="fill:none;stroke:#ff0000;stroke-linejoin:miter;stroke-width:1.5;" x="390.48" xlink:href="#m251dcdb1c2" y="242.388203"/>
    </g>
   </g>
   <g id="line2d_71">
    <path d="M 358.8 133.442952 
L 390.48 191.800575 
" style="fill:none;stroke:#000000;stroke-linecap:square;stroke-width:1.5;"/>
    <g>
     <use style="fill:none;stroke:#000000;stroke-width:1.5;" x="358.8" xlink:href="#mc91aec11ea" y="133.442952"/>
     <use style="fill:none;stroke:#000000;stroke-width:1.5;" x="390.48" xlink:href="#mc91aec11ea" y="191.800575"/>
    </g>
   </g>
   <g id="line2d_72">
    <path d="M 358.8 117.42767 
L 390.48 141.212947 
" style="fill:none;stroke:#0000ff;stroke-linecap:square;stroke-width:1.5;"/>
    <g>
     <use style="fill:none;stroke:#0000ff;stroke-linejoin:bevel;stroke-width:1.5;" x="358.8" xlink:href="#m1fa11233d5" y="117.42767"/>
     <use style="fill:none;stroke:#0000ff;stroke-linejoin:bevel;stroke-width:1.5;" x="390.48" xlink:href="#m1fa11233d5" y="141.212947"/>
    </g>
   </g>
   <g id="line2d_73">
    <path d="M 358.8 34.768147 
L 390.48 90.62532 
" style="fill:none;stroke:#008000;stroke-linecap:square;stroke-width:1.5;"/>
    <g>
     <use style="fill:none;stroke:#008000;stroke-linejoin:miter;stroke-width:1.5;" x="358.8" xlink:href="#mdf15e8746f" y="34.768147"/>
     <use style="fill:none;stroke:#008000;stroke-linejoin:miter;stroke-width:1.5;" x="390.48" xlink:href="#mdf15e8746f" y="90.62532"/>
    </g>
   </g>
   <g id="line2d_74">
    <path d="M 358.8 34.768147 
L 390.48 40.037692 
" style="fill:none;stroke:#00bfbf;stroke-linecap:square;stroke-width:1.5;"/>
    <g>
     <use style="fill:none;stroke:#00bfbf;stroke-width:1.5;" x="358.8" xlink:href="#m1c7511e27f" y="34.768147"/>
     <use style="fill:none;stroke:#00bfbf;stroke-width:1.5;" x="390.48" xlink:href="#m1c7511e27f" y="40.037692"/>
    </g>
   </g>
   <g id="line2d_75">
    <path d="M 358.8 298.245375 
L 358.8 34.768147 
" style="fill:none;stroke:#000000;stroke-linecap:square;stroke-width:1.5;"/>
   </g>
   <g id="patch_3">
    <path d="M 70.8 298.245375 
L 70.8 32.133375 
" style="fill:none;stroke:#000000;stroke-linecap:square;stroke-linejoin:miter;stroke-width:0.8;"/>
   </g>
   <g id="patch_4">
    <path d="M 427.92 298.245375 
L 427.92 32.133375 
" style="fill:none;stroke:#000000;stroke-linecap:square;stroke-linejoin:miter;stroke-width:0.8;"/>
   </g>
   <g id="patch_5">
    <path d="M 70.8 298.245375 
L 427.92 298.245375 
" style="fill:none;stroke:#000000;stroke-linecap:square;stroke-linejoin:miter;stroke-width:0.8;"/>
   </g>
   <g id="patch_6">
    <path d="M 70.8 32.133375 
L 427.92 32.133375 
" style="fill:none;stroke:#000000;stroke-linecap:square;stroke-linejoin:miter;stroke-width:0.8;"/>
   </g>
   <g id="text_14">
    <!-- 40-D -->
    <defs>
     <path d="M 19.671875 64.796875 
L 19.671875 8.109375 
L 31.59375 8.109375 
Q 46.6875 8.109375 53.6875 14.9375 
Q 60.6875 21.78125 60.6875 36.53125 
Q 60.6875 51.171875 53.6875 57.984375 
Q 46.6875 64.796875 31.59375 64.796875 
z
M 9.8125 72.90625 
L 30.078125 72.90625 
Q 51.265625 72.90625 61.171875 64.09375 
Q 71.09375 55.28125 71.09375 36.53125 
Q 71.09375 17.671875 61.125 8.828125 
Q 51.171875 0 30.078125 0 
L 9.8125 0 
z
" id="DejaVuSans-44"/>
    </defs>
    <g transform="translate(396.24 297.114893)scale(0.15 -0.15)">
     <use xlink:href="#DejaVuSans-34"/>
     <use x="63.623047" xlink:href="#DejaVuSans-30"/>
     <use x="127.246094" xlink:href="#DejaVuSans-2d"/>
     <use x="163.330078" xlink:href="#DejaVuSans-44"/>
    </g>
   </g>
   <g id="text_15">
    <!-- 20-D -->
    <g transform="translate(396.24 246.527265)scale(0.15 -0.15)">
     <use xlink:href="#DejaVuSans-32"/>
     <use x="63.623047" xlink:href="#DejaVuSans-30"/>
     <use x="127.246094" xlink:href="#DejaVuSans-2d"/>
     <use x="163.330078" xlink:href="#DejaVuSans-44"/>
    </g>
   </g>
   <g id="text_16">
    <!-- 10-D -->
    <g transform="translate(396.24 195.939637)scale(0.15 -0.15)">
     <use xlink:href="#DejaVuSans-31"/>
     <use x="63.623047" xlink:href="#DejaVuSans-30"/>
     <use x="127.246094" xlink:href="#DejaVuSans-2d"/>
     <use x="163.330078" xlink:href="#DejaVuSans-44"/>
    </g>
   </g>
   <g id="text_17">
    <!-- 5-D -->
    <defs>
     <path d="M 10.796875 72.90625 
L 49.515625 72.90625 
L 49.515625 64.59375 
L 19.828125 64.59375 
L 19.828125 46.734375 
Q 21.96875 47.46875 24.109375 47.828125 
Q 26.265625 48.1875 28.421875 48.1875 
Q 40.625 48.1875 47.75 41.5 
Q 54.890625 34.8125 54.890625 23.390625 
Q 54.890625 11.625 47.5625 5.09375 
Q 40.234375 -1.421875 26.90625 -1.421875 
Q 22.3125 -1.421875 17.546875 -0.640625 
Q 12.796875 0.140625 7.71875 1.703125 
L 7.71875 11.625 
Q 12.109375 9.234375 16.796875 8.0625 
Q 21.484375 6.890625 26.703125 6.890625 
Q 35.15625 6.890625 40.078125 11.328125 
Q 45.015625 15.765625 45.015625 23.390625 
Q 45.015625 31 40.078125 35.4375 
Q 35.15625 39.890625 26.703125 39.890625 
Q 22.75 39.890625 18.8125 39.015625 
Q 14.890625 38.140625 10.796875 36.28125 
z
" id="DejaVuSans-35"/>
    </defs>
    <g transform="translate(396.24 145.35201)scale(0.15 -0.15)">
     <use xlink:href="#DejaVuSans-35"/>
     <use x="63.623047" xlink:href="#DejaVuSans-2d"/>
     <use x="99.707031" xlink:href="#DejaVuSans-44"/>
    </g>
   </g>
   <g id="text_18">
    <!-- 3-D -->
    <defs>
     <path d="M 40.578125 39.3125 
Q 47.65625 37.796875 51.625 33 
Q 55.609375 28.21875 55.609375 21.1875 
Q 55.609375 10.40625 48.1875 4.484375 
Q 40.765625 -1.421875 27.09375 -1.421875 
Q 22.515625 -1.421875 17.65625 -0.515625 
Q 12.796875 0.390625 7.625 2.203125 
L 7.625 11.71875 
Q 11.71875 9.328125 16.59375 8.109375 
Q 21.484375 6.890625 26.8125 6.890625 
Q 36.078125 6.890625 40.9375 10.546875 
Q 45.796875 14.203125 45.796875 21.1875 
Q 45.796875 27.640625 41.28125 31.265625 
Q 36.765625 34.90625 28.71875 34.90625 
L 20.21875 34.90625 
L 20.21875 43.015625 
L 29.109375 43.015625 
Q 36.375 43.015625 40.234375 45.921875 
Q 44.09375 48.828125 44.09375 54.296875 
Q 44.09375 59.90625 40.109375 62.90625 
Q 36.140625 65.921875 28.71875 65.921875 
Q 24.65625 65.921875 20.015625 65.03125 
Q 15.375 64.15625 9.8125 62.3125 
L 9.8125 71.09375 
Q 15.4375 72.65625 20.34375 73.4375 
Q 25.25 74.21875 29.59375 74.21875 
Q 40.828125 74.21875 47.359375 69.109375 
Q 53.90625 64.015625 53.90625 55.328125 
Q 53.90625 49.265625 50.4375 45.09375 
Q 46.96875 40.921875 40.578125 39.3125 
" id="DejaVuSans-33"/>
    </defs>
    <g transform="translate(396.24 94.764382)scale(0.15 -0.15)">
     <use xlink:href="#DejaVuSans-33"/>
     <use x="63.623047" xlink:href="#DejaVuSans-2d"/>
     <use x="99.707031" xlink:href="#DejaVuSans-44"/>
    </g>
   </g>
   <g id="text_19">
    <!-- 2-D -->
    <g transform="translate(396.24 44.176754)scale(0.15 -0.15)">
     <use xlink:href="#DejaVuSans-32"/>
     <use x="63.623047" xlink:href="#DejaVuSans-2d"/>
     <use x="99.707031" xlink:href="#DejaVuSans-44"/>
    </g>
   </g>
   <g id="text_20">
    <!-- bbob - f8 -->
    <defs>
     <path d="M 48.6875 27.296875 
Q 48.6875 37.203125 44.609375 42.84375 
Q 40.53125 48.484375 33.40625 48.484375 
Q 26.265625 48.484375 22.1875 42.84375 
Q 18.109375 37.203125 18.109375 27.296875 
Q 18.109375 17.390625 22.1875 11.75 
Q 26.265625 6.109375 33.40625 6.109375 
Q 40.53125 6.109375 44.609375 11.75 
Q 48.6875 17.390625 48.6875 27.296875 
M 18.109375 46.390625 
Q 20.953125 51.265625 25.265625 53.625 
Q 29.59375 56 35.59375 56 
Q 45.5625 56 51.78125 48.09375 
Q 58.015625 40.1875 58.015625 27.296875 
Q 58.015625 14.40625 51.78125 6.484375 
Q 45.5625 -1.421875 35.59375 -1.421875 
Q 29.59375 -1.421875 25.265625 0.953125 
Q 20.953125 3.328125 18.109375 8.203125 
L 18.109375 0 
L 9.078125 0 
L 9.078125 75.984375 
L 18.109375 75.984375 
z
" id="DejaVuSans-62"/>
    </defs>
    <g transform="translate(74.3712 50.114612)scale(0.1666 -0.1666)">
     <use xlink:href="#DejaVuSans-62"/>
     <use x="63.476562" xlink:href="#DejaVuSans-62"/>
     <use x="126.953125" xlink:href="#DejaVuSans-6f"/>
     <use x="188.134766" xlink:href="#DejaVuSans-62"/>
     <use x="251.611328" xlink:href="#DejaVuSans-20"/>
     <use x="283.398438" xlink:href="#DejaVuSans-2d"/>
     <use x="319.482422" xlink:href="#DejaVuSans-20"/>
     <use x="351.269531" xlink:href="#DejaVuSans-66"/>
     <use x="386.474609" xlink:href="#DejaVuSans-38"/>
    </g>
    <!-- 51 targets in 100..1e-08 -->
    <g transform="translate(74.3712 68.770168)scale(0.1666 -0.1666)">
     <use xlink:href="#DejaVuSans-35"/>
     <use x="63.623047" xlink:href="#DejaVuSans-31"/>
     <use x="127.246094" xlink:href="#DejaVuSans-20"/>
     <use x="159.033203" xlink:href="#DejaVuSans-74"/>
     <use x="198.242188" xlink:href="#DejaVuSans-61"/>
     <use x="259.521484" xlink:href="#DejaVuSans-72"/>
     <use x="300.619141" xlink:href="#DejaVuSans-67"/>
     <use x="364.095703" xlink:href="#DejaVuSans-65"/>
     <use x="425.619141" xlink:href="#DejaVuSans-74"/>
     <use x="464.828125" xlink:href="#DejaVuSans-73"/>
     <use x="516.927734" xlink:href="#DejaVuSans-20"/>
     <use x="548.714844" xlink:href="#DejaVuSans-69"/>
     <use x="576.498047" xlink:href="#DejaVuSans-6e"/>
     <use x="639.876953" xlink:href="#DejaVuSans-20"/>
     <use x="671.664062" xlink:href="#DejaVuSans-31"/>
     <use x="735.287109" xlink:href="#DejaVuSans-30"/>
     <use x="798.910156" xlink:href="#DejaVuSans-30"/>
     <use x="862.533203" xlink:href="#DejaVuSans-2e"/>
     <use x="894.320312" xlink:href="#DejaVuSans-2e"/>
     <use x="926.107422" xlink:href="#DejaVuSans-31"/>
     <use x="989.730469" xlink:href="#DejaVuSans-65"/>
     <use x="1051.253906" xlink:href="#DejaVuSans-2d"/>
     <use x="1087.337891" xlink:href="#DejaVuSans-30"/>
     <use x="1150.960938" xlink:href="#DejaVuSans-38"/>
    </g>
    <!-- 15 instances -->
    <g transform="translate(74.3712 87.425723)scale(0.1666 -0.1666)">
     <use xlink:href="#DejaVuSans-31"/>
     <use x="63.623047" xlink:href="#DejaVuSans-35"/>
     <use x="127.246094" xlink:href="#DejaVuSans-20"/>
     <use x="159.033203" xlink:href="#DejaVuSans-69"/>
     <use x="186.816406" xlink:href="#DejaVuSans-6e"/>
     <use x="250.195312" xlink:href="#DejaVuSans-73"/>
     <use x="302.294922" xlink:href="#DejaVuSans-74"/>
     <use x="341.503906" xlink:href="#DejaVuSans-61"/>
     <use x="402.783203" xlink:href="#DejaVuSans-6e"/>
     <use x="466.162109" xlink:href="#DejaVuSans-63"/>
     <use x="521.142578" xlink:href="#DejaVuSans-65"/>
     <use x="582.666016" xlink:href="#DejaVuSans-73"/>
    </g>
   </g>
   <g id="text_21">
    <!-- v2.0.1 -->
    <g style="fill:#808080;" transform="translate(233.67875 293.504568)scale(0.1 -0.1)">
     <use xlink:href="#DejaVuSans-76"/>
     <use x="59.179688" xlink:href="#DejaVuSans-32"/>
     <use x="122.802734" xlink:href="#DejaVuSans-2e"/>
     <use x="154.589844" xlink:href="#DejaVuSans-30"/>
     <use x="218.212891" xlink:href="#DejaVuSans-2e"/>
     <use x="250" xlink:href="#DejaVuSans-31"/>
    </g>
   </g>
   <g id="text_22">
    <!-- 8 Rosenbrock original -->
    <defs>
     <path d="M 44.390625 34.1875 
Q 47.5625 33.109375 50.5625 29.59375 
Q 53.5625 26.078125 56.59375 19.921875 
L 66.609375 0 
L 56 0 
L 46.6875 18.703125 
Q 43.0625 26.03125 39.671875 28.421875 
Q 36.28125 30.8125 30.421875 30.8125 
L 19.671875 30.8125 
L 19.671875 0 
L 9.8125 0 
L 9.8125 72.90625 
L 32.078125 72.90625 
Q 44.578125 72.90625 50.734375 67.671875 
Q 56.890625 62.453125 56.890625 51.90625 
Q 56.890625 45.015625 53.6875 40.46875 
Q 50.484375 35.9375 44.390625 34.1875 
M 19.671875 64.796875 
L 19.671875 38.921875 
L 32.078125 38.921875 
Q 39.203125 38.921875 42.84375 42.21875 
Q 46.484375 45.515625 46.484375 51.90625 
Q 46.484375 58.296875 42.84375 61.546875 
Q 39.203125 64.796875 32.078125 64.796875 
z
" id="DejaVuSans-52"/>
     <path d="M 9.078125 75.984375 
L 18.109375 75.984375 
L 18.109375 31.109375 
L 44.921875 54.6875 
L 56.390625 54.6875 
L 27.390625 29.109375 
L 57.625 0 
L 45.90625 0 
L 18.109375 26.703125 
L 18.109375 0 
L 9.078125 0 
z
" id="DejaVuSans-6b"/>
    </defs>
    <g transform="translate(118.89375 26.133375)scale(0.24 -0.24)">
     <use xlink:href="#DejaVuSans-38"/>
     <use x="63.623047" xlink:href="#DejaVuSans-20"/>
     <use x="95.410156" xlink:href="#DejaVuSans-52"/>
     <use x="164.830078" xlink:href="#DejaVuSans-6f"/>
     <use x="226.011719" xlink:href="#DejaVuSans-73"/>
     <use x="278.111328" xlink:href="#DejaVuSans-65"/>
     <use x="339.634766" xlink:href="#DejaVuSans-6e"/>
     <use x="403.013672" xlink:href="#DejaVuSans-62"/>
     <use x="466.490234" xlink:href="#DejaVuSans-72"/>
     <use x="507.572266" xlink:href="#DejaVuSans-6f"/>
     <use x="568.753906" xlink:href="#DejaVuSans-63"/>
     <use x="623.734375" xlink:href="#DejaVuSans-6b"/>
     <use x="681.644531" xlink:href="#DejaVuSans-20"/>
     <use x="713.431641" xlink:href="#DejaVuSans-6f"/>
     <use x="774.613281" xlink:href="#DejaVuSans-72"/>
     <use x="815.726562" xlink:href="#DejaVuSans-69"/>
     <use x="843.509766" xlink:href="#DejaVuSans-67"/>
     <use x="906.986328" xlink:href="#DejaVuSans-69"/>
     <use x="934.769531" xlink:href="#DejaVuSans-6e"/>
     <use x="998.148438" xlink:href="#DejaVuSans-61"/>
     <use x="1059.427734" xlink:href="#DejaVuSans-6c"/>
    </g>
   </g>
  </g>
 </g>
 <defs>
  <clipPath id="p94dcfd87dd">
   <rect height="266.112" width="357.12" x="70.8" y="32.133375"/>
  </clipPath>
 </defs>
</svg>
