<?xml version="1.0" encoding="utf-8" standalone="no"?>
<!DOCTYPE svg PUBLIC "-//W3C//DTD SVG 1.1//EN"
  "http://www.w3.org/Graphics/SVG/1.1/DTD/svg11.dtd">
<!-- Created with matplotlib (http://matplotlib.org/) -->
<svg height="353pt" version="1.1" viewBox="0 0 439 353" width="439pt" xmlns="http://www.w3.org/2000/svg" xmlns:xlink="http://www.w3.org/1999/xlink">
 <defs>
  <style type="text/css">
*{stroke-linecap:butt;stroke-linejoin:round;}
  </style>
 </defs>
 <g id="figure_1">
  <g id="patch_1">
   <path d="M 0 353.22225 
L 439.489219 353.22225 
L 439.489219 0 
L 0 0 
z
" style="fill:#ffffff;"/>
  </g>
  <g id="axes_1">
   <g id="patch_2">
    <path d="M 70.8 298.245375 
L 427.92 298.245375 
L 427.92 32.133375 
L 70.8 32.133375 
z
" style="fill:#ffffff;"/>
   </g>
   <g id="matplotlib.axis_1">
    <g id="xtick_1">
     <g id="line2d_1">
      <path clip-path="url(#pe35e9d67cf)" d="M 70.8 298.245375 
L 70.8 32.133375 
" style="fill:none;stroke:#b0b0b0;stroke-linecap:square;stroke-width:0.8;"/>
     </g>
     <g id="line2d_2">
      <defs>
       <path d="M 0 0 
L 0 3.5 
" id="ma0f5ebf87c" style="stroke:#000000;stroke-width:0.8;"/>
      </defs>
      <g>
       <use style="stroke:#000000;stroke-width:0.8;" x="70.8" xlink:href="#ma0f5ebf87c" y="298.245375"/>
      </g>
     </g>
     <g id="text_1">
      <!-- 0 -->
      <defs>
       <path d="M 31.78125 66.40625 
Q 24.171875 66.40625 20.328125 58.90625 
Q 16.5 51.421875 16.5 36.375 
Q 16.5 21.390625 20.328125 13.890625 
Q 24.171875 6.390625 31.78125 6.390625 
Q 39.453125 6.390625 43.28125 13.890625 
Q 47.125 21.390625 47.125 36.375 
Q 47.125 51.421875 43.28125 58.90625 
Q 39.453125 66.40625 31.78125 66.40625 
M 31.78125 74.21875 
Q 44.046875 74.21875 50.515625 64.515625 
Q 56.984375 54.828125 56.984375 36.375 
Q 56.984375 17.96875 50.515625 8.265625 
Q 44.046875 -1.421875 31.78125 -1.421875 
Q 19.53125 -1.421875 13.0625 8.265625 
Q 6.59375 17.96875 6.59375 36.375 
Q 6.59375 54.828125 13.0625 64.515625 
Q 19.53125 74.21875 31.78125 74.21875 
" id="DejaVuSans-30"/>
      </defs>
      <g transform="translate(64.4375 320.44225)scale(0.2 -0.2)">
       <use xlink:href="#DejaVuSans-30"/>
      </g>
     </g>
    </g>
    <g id="xtick_2">
     <g id="line2d_3">
      <path clip-path="url(#pe35e9d67cf)" d="M 153.085714 298.245375 
L 153.085714 32.133375 
" style="fill:none;stroke:#b0b0b0;stroke-linecap:square;stroke-width:0.8;"/>
     </g>
     <g id="line2d_4">
      <g>
       <use style="stroke:#000000;stroke-width:0.8;" x="153.085714" xlink:href="#ma0f5ebf87c" y="298.245375"/>
      </g>
     </g>
     <g id="text_2">
      <!-- 2 -->
      <defs>
       <path d="M 19.1875 8.296875 
L 53.609375 8.296875 
L 53.609375 0 
L 7.328125 0 
L 7.328125 8.296875 
Q 12.9375 14.109375 22.625 23.890625 
Q 32.328125 33.6875 34.8125 36.53125 
Q 39.546875 41.84375 41.421875 45.53125 
Q 43.3125 49.21875 43.3125 52.78125 
Q 43.3125 58.59375 39.234375 62.25 
Q 35.15625 65.921875 28.609375 65.921875 
Q 23.96875 65.921875 18.8125 64.3125 
Q 13.671875 62.703125 7.8125 59.421875 
L 7.8125 69.390625 
Q 13.765625 71.78125 18.9375 73 
Q 24.125 74.21875 28.421875 74.21875 
Q 39.75 74.21875 46.484375 68.546875 
Q 53.21875 62.890625 53.21875 53.421875 
Q 53.21875 48.921875 51.53125 44.890625 
Q 49.859375 40.875 45.40625 35.40625 
Q 44.1875 33.984375 37.640625 27.21875 
Q 31.109375 20.453125 19.1875 8.296875 
" id="DejaVuSans-32"/>
      </defs>
      <g transform="translate(146.723214 320.44225)scale(0.2 -0.2)">
       <use xlink:href="#DejaVuSans-32"/>
      </g>
     </g>
    </g>
    <g id="xtick_3">
     <g id="line2d_5">
      <path clip-path="url(#pe35e9d67cf)" d="M 235.371429 298.245375 
L 235.371429 32.133375 
" style="fill:none;stroke:#b0b0b0;stroke-linecap:square;stroke-width:0.8;"/>
     </g>
     <g id="line2d_6">
      <g>
       <use style="stroke:#000000;stroke-width:0.8;" x="235.371429" xlink:href="#ma0f5ebf87c" y="298.245375"/>
      </g>
     </g>
     <g id="text_3">
      <!-- 4 -->
      <defs>
       <path d="M 37.796875 64.3125 
L 12.890625 25.390625 
L 37.796875 25.390625 
z
M 35.203125 72.90625 
L 47.609375 72.90625 
L 47.609375 25.390625 
L 58.015625 25.390625 
L 58.015625 17.1875 
L 47.609375 17.1875 
L 47.609375 0 
L 37.796875 0 
L 37.796875 17.1875 
L 4.890625 17.1875 
L 4.890625 26.703125 
z
" id="DejaVuSans-34"/>
      </defs>
      <g transform="translate(229.008929 320.44225)scale(0.2 -0.2)">
       <use xlink:href="#DejaVuSans-34"/>
      </g>
     </g>
    </g>
    <g id="xtick_4">
     <g id="line2d_7">
      <path clip-path="url(#pe35e9d67cf)" d="M 317.657143 298.245375 
L 317.657143 32.133375 
" style="fill:none;stroke:#b0b0b0;stroke-linecap:square;stroke-width:0.8;"/>
     </g>
     <g id="line2d_8">
      <g>
       <use style="stroke:#000000;stroke-width:0.8;" x="317.657143" xlink:href="#ma0f5ebf87c" y="298.245375"/>
      </g>
     </g>
     <g id="text_4">
      <!-- 6 -->
      <defs>
       <path d="M 33.015625 40.375 
Q 26.375 40.375 22.484375 35.828125 
Q 18.609375 31.296875 18.609375 23.390625 
Q 18.609375 15.53125 22.484375 10.953125 
Q 26.375 6.390625 33.015625 6.390625 
Q 39.65625 6.390625 43.53125 10.953125 
Q 47.40625 15.53125 47.40625 23.390625 
Q 47.40625 31.296875 43.53125 35.828125 
Q 39.65625 40.375 33.015625 40.375 
M 52.59375 71.296875 
L 52.59375 62.3125 
Q 48.875 64.0625 45.09375 64.984375 
Q 41.3125 65.921875 37.59375 65.921875 
Q 27.828125 65.921875 22.671875 59.328125 
Q 17.53125 52.734375 16.796875 39.40625 
Q 19.671875 43.65625 24.015625 45.921875 
Q 28.375 48.1875 33.59375 48.1875 
Q 44.578125 48.1875 50.953125 41.515625 
Q 57.328125 34.859375 57.328125 23.390625 
Q 57.328125 12.15625 50.6875 5.359375 
Q 44.046875 -1.421875 33.015625 -1.421875 
Q 20.359375 -1.421875 13.671875 8.265625 
Q 6.984375 17.96875 6.984375 36.375 
Q 6.984375 53.65625 15.1875 63.9375 
Q 23.390625 74.21875 37.203125 74.21875 
Q 40.921875 74.21875 44.703125 73.484375 
Q 48.484375 72.75 52.59375 71.296875 
" id="DejaVuSans-36"/>
      </defs>
      <g transform="translate(311.294643 320.44225)scale(0.2 -0.2)">
       <use xlink:href="#DejaVuSans-36"/>
      </g>
     </g>
    </g>
    <g id="xtick_5">
     <g id="line2d_9">
      <path clip-path="url(#pe35e9d67cf)" d="M 399.942857 298.245375 
L 399.942857 32.133375 
" style="fill:none;stroke:#b0b0b0;stroke-linecap:square;stroke-width:0.8;"/>
     </g>
     <g id="line2d_10">
      <g>
       <use style="stroke:#000000;stroke-width:0.8;" x="399.942857" xlink:href="#ma0f5ebf87c" y="298.245375"/>
      </g>
     </g>
     <g id="text_5">
      <!-- 8 -->
      <defs>
       <path d="M 31.78125 34.625 
Q 24.75 34.625 20.71875 30.859375 
Q 16.703125 27.09375 16.703125 20.515625 
Q 16.703125 13.921875 20.71875 10.15625 
Q 24.75 6.390625 31.78125 6.390625 
Q 38.8125 6.390625 42.859375 10.171875 
Q 46.921875 13.96875 46.921875 20.515625 
Q 46.921875 27.09375 42.890625 30.859375 
Q 38.875 34.625 31.78125 34.625 
M 21.921875 38.8125 
Q 15.578125 40.375 12.03125 44.71875 
Q 8.5 49.078125 8.5 55.328125 
Q 8.5 64.0625 14.71875 69.140625 
Q 20.953125 74.21875 31.78125 74.21875 
Q 42.671875 74.21875 48.875 69.140625 
Q 55.078125 64.0625 55.078125 55.328125 
Q 55.078125 49.078125 51.53125 44.71875 
Q 48 40.375 41.703125 38.8125 
Q 48.828125 37.15625 52.796875 32.3125 
Q 56.78125 27.484375 56.78125 20.515625 
Q 56.78125 9.90625 50.3125 4.234375 
Q 43.84375 -1.421875 31.78125 -1.421875 
Q 19.734375 -1.421875 13.25 4.234375 
Q 6.78125 9.90625 6.78125 20.515625 
Q 6.78125 27.484375 10.78125 32.3125 
Q 14.796875 37.15625 21.921875 38.8125 
M 18.3125 54.390625 
Q 18.3125 48.734375 21.84375 45.5625 
Q 25.390625 42.390625 31.78125 42.390625 
Q 38.140625 42.390625 41.71875 45.5625 
Q 45.3125 48.734375 45.3125 54.390625 
Q 45.3125 60.0625 41.71875 63.234375 
Q 38.140625 66.40625 31.78125 66.40625 
Q 25.390625 66.40625 21.84375 63.234375 
Q 18.3125 60.0625 18.3125 54.390625 
" id="DejaVuSans-38"/>
      </defs>
      <g transform="translate(393.580357 320.44225)scale(0.2 -0.2)">
       <use xlink:href="#DejaVuSans-38"/>
      </g>
     </g>
    </g>
    <g id="xtick_6">
     <g id="line2d_11">
      <defs>
       <path d="M 0 0 
L 0 2 
" id="m487cc0f4a9" style="stroke:#000000;stroke-width:0.6;"/>
      </defs>
      <g>
       <use style="stroke:#000000;stroke-width:0.6;" x="83.185234" xlink:href="#m487cc0f4a9" y="298.245375"/>
      </g>
     </g>
    </g>
    <g id="xtick_7">
     <g id="line2d_12">
      <g>
       <use style="stroke:#000000;stroke-width:0.6;" x="95.570468" xlink:href="#m487cc0f4a9" y="298.245375"/>
      </g>
     </g>
    </g>
    <g id="xtick_8">
     <g id="line2d_13">
      <g>
       <use style="stroke:#000000;stroke-width:0.6;" x="102.815366" xlink:href="#m487cc0f4a9" y="298.245375"/>
      </g>
     </g>
    </g>
    <g id="xtick_9">
     <g id="line2d_14">
      <g>
       <use style="stroke:#000000;stroke-width:0.6;" x="107.955702" xlink:href="#m487cc0f4a9" y="298.245375"/>
      </g>
     </g>
    </g>
    <g id="xtick_10">
     <g id="line2d_15">
      <g>
       <use style="stroke:#000000;stroke-width:0.6;" x="165.470948" xlink:href="#m487cc0f4a9" y="298.245375"/>
      </g>
     </g>
    </g>
    <g id="xtick_11">
     <g id="line2d_16">
      <g>
       <use style="stroke:#000000;stroke-width:0.6;" x="177.856183" xlink:href="#m487cc0f4a9" y="298.245375"/>
      </g>
     </g>
    </g>
    <g id="xtick_12">
     <g id="line2d_17">
      <g>
       <use style="stroke:#000000;stroke-width:0.6;" x="185.10108" xlink:href="#m487cc0f4a9" y="298.245375"/>
      </g>
     </g>
    </g>
    <g id="xtick_13">
     <g id="line2d_18">
      <g>
       <use style="stroke:#000000;stroke-width:0.6;" x="190.241417" xlink:href="#m487cc0f4a9" y="298.245375"/>
      </g>
     </g>
    </g>
    <g id="xtick_14">
     <g id="line2d_19">
      <g>
       <use style="stroke:#000000;stroke-width:0.6;" x="247.756663" xlink:href="#m487cc0f4a9" y="298.245375"/>
      </g>
     </g>
    </g>
    <g id="xtick_15">
     <g id="line2d_20">
      <g>
       <use style="stroke:#000000;stroke-width:0.6;" x="260.141897" xlink:href="#m487cc0f4a9" y="298.245375"/>
      </g>
     </g>
    </g>
    <g id="xtick_16">
     <g id="line2d_21">
      <g>
       <use style="stroke:#000000;stroke-width:0.6;" x="267.386794" xlink:href="#m487cc0f4a9" y="298.245375"/>
      </g>
     </g>
    </g>
    <g id="xtick_17">
     <g id="line2d_22">
      <g>
       <use style="stroke:#000000;stroke-width:0.6;" x="272.527131" xlink:href="#m487cc0f4a9" y="298.245375"/>
      </g>
     </g>
    </g>
    <g id="xtick_18">
     <g id="line2d_23">
      <g>
       <use style="stroke:#000000;stroke-width:0.6;" x="330.042377" xlink:href="#m487cc0f4a9" y="298.245375"/>
      </g>
     </g>
    </g>
    <g id="xtick_19">
     <g id="line2d_24">
      <g>
       <use style="stroke:#000000;stroke-width:0.6;" x="342.427611" xlink:href="#m487cc0f4a9" y="298.245375"/>
      </g>
     </g>
    </g>
    <g id="xtick_20">
     <g id="line2d_25">
      <g>
       <use style="stroke:#000000;stroke-width:0.6;" x="349.672509" xlink:href="#m487cc0f4a9" y="298.245375"/>
      </g>
     </g>
    </g>
    <g id="xtick_21">
     <g id="line2d_26">
      <g>
       <use style="stroke:#000000;stroke-width:0.6;" x="354.812845" xlink:href="#m487cc0f4a9" y="298.245375"/>
      </g>
     </g>
    </g>
    <g id="xtick_22">
     <g id="line2d_27">
      <g>
       <use style="stroke:#000000;stroke-width:0.6;" x="412.328091" xlink:href="#m487cc0f4a9" y="298.245375"/>
      </g>
     </g>
    </g>
    <g id="xtick_23">
     <g id="line2d_28">
      <g>
       <use style="stroke:#000000;stroke-width:0.6;" x="424.713325" xlink:href="#m487cc0f4a9" y="298.245375"/>
      </g>
     </g>
    </g>
    <g id="text_6">
     <!-- log10 of (# f-evals / dimension) -->
     <defs>
      <path d="M 9.421875 75.984375 
L 18.40625 75.984375 
L 18.40625 0 
L 9.421875 0 
z
" id="DejaVuSans-6c"/>
      <path d="M 30.609375 48.390625 
Q 23.390625 48.390625 19.1875 42.75 
Q 14.984375 37.109375 14.984375 27.296875 
Q 14.984375 17.484375 19.15625 11.84375 
Q 23.34375 6.203125 30.609375 6.203125 
Q 37.796875 6.203125 41.984375 11.859375 
Q 46.1875 17.53125 46.1875 27.296875 
Q 46.1875 37.015625 41.984375 42.703125 
Q 37.796875 48.390625 30.609375 48.390625 
M 30.609375 56 
Q 42.328125 56 49.015625 48.375 
Q 55.71875 40.765625 55.71875 27.296875 
Q 55.71875 13.875 49.015625 6.21875 
Q 42.328125 -1.421875 30.609375 -1.421875 
Q 18.84375 -1.421875 12.171875 6.21875 
Q 5.515625 13.875 5.515625 27.296875 
Q 5.515625 40.765625 12.171875 48.375 
Q 18.84375 56 30.609375 56 
" id="DejaVuSans-6f"/>
      <path d="M 45.40625 27.984375 
Q 45.40625 37.75 41.375 43.109375 
Q 37.359375 48.484375 30.078125 48.484375 
Q 22.859375 48.484375 18.828125 43.109375 
Q 14.796875 37.75 14.796875 27.984375 
Q 14.796875 18.265625 18.828125 12.890625 
Q 22.859375 7.515625 30.078125 7.515625 
Q 37.359375 7.515625 41.375 12.890625 
Q 45.40625 18.265625 45.40625 27.984375 
M 54.390625 6.78125 
Q 54.390625 -7.171875 48.1875 -13.984375 
Q 42 -20.796875 29.203125 -20.796875 
Q 24.46875 -20.796875 20.265625 -20.09375 
Q 16.0625 -19.390625 12.109375 -17.921875 
L 12.109375 -9.1875 
Q 16.0625 -11.328125 19.921875 -12.34375 
Q 23.78125 -13.375 27.78125 -13.375 
Q 36.625 -13.375 41.015625 -8.765625 
Q 45.40625 -4.15625 45.40625 5.171875 
L 45.40625 9.625 
Q 42.625 4.78125 38.28125 2.390625 
Q 33.9375 0 27.875 0 
Q 17.828125 0 11.671875 7.65625 
Q 5.515625 15.328125 5.515625 27.984375 
Q 5.515625 40.671875 11.671875 48.328125 
Q 17.828125 56 27.875 56 
Q 33.9375 56 38.28125 53.609375 
Q 42.625 51.21875 45.40625 46.390625 
L 45.40625 54.6875 
L 54.390625 54.6875 
z
" id="DejaVuSans-67"/>
      <path d="M 12.40625 8.296875 
L 28.515625 8.296875 
L 28.515625 63.921875 
L 10.984375 60.40625 
L 10.984375 69.390625 
L 28.421875 72.90625 
L 38.28125 72.90625 
L 38.28125 8.296875 
L 54.390625 8.296875 
L 54.390625 0 
L 12.40625 0 
z
" id="DejaVuSans-31"/>
      <path id="DejaVuSans-20"/>
      <path d="M 37.109375 75.984375 
L 37.109375 68.5 
L 28.515625 68.5 
Q 23.6875 68.5 21.796875 66.546875 
Q 19.921875 64.59375 19.921875 59.515625 
L 19.921875 54.6875 
L 34.71875 54.6875 
L 34.71875 47.703125 
L 19.921875 47.703125 
L 19.921875 0 
L 10.890625 0 
L 10.890625 47.703125 
L 2.296875 47.703125 
L 2.296875 54.6875 
L 10.890625 54.6875 
L 10.890625 58.5 
Q 10.890625 67.625 15.140625 71.796875 
Q 19.390625 75.984375 28.609375 75.984375 
z
" id="DejaVuSans-66"/>
      <path d="M 31 75.875 
Q 24.46875 64.65625 21.28125 53.65625 
Q 18.109375 42.671875 18.109375 31.390625 
Q 18.109375 20.125 21.3125 9.0625 
Q 24.515625 -2 31 -13.1875 
L 23.1875 -13.1875 
Q 15.875 -1.703125 12.234375 9.375 
Q 8.59375 20.453125 8.59375 31.390625 
Q 8.59375 42.28125 12.203125 53.3125 
Q 15.828125 64.359375 23.1875 75.875 
z
" id="DejaVuSans-28"/>
      <path d="M 51.125 44 
L 36.921875 44 
L 32.8125 27.6875 
L 47.125 27.6875 
z
M 43.796875 71.78125 
L 38.71875 51.515625 
L 52.984375 51.515625 
L 58.109375 71.78125 
L 65.921875 71.78125 
L 60.890625 51.515625 
L 76.125 51.515625 
L 76.125 44 
L 58.984375 44 
L 54.984375 27.6875 
L 70.515625 27.6875 
L 70.515625 20.21875 
L 53.078125 20.21875 
L 48 0 
L 40.1875 0 
L 45.21875 20.21875 
L 30.90625 20.21875 
L 25.875 0 
L 18.015625 0 
L 23.09375 20.21875 
L 7.71875 20.21875 
L 7.71875 27.6875 
L 24.90625 27.6875 
L 29 44 
L 13.28125 44 
L 13.28125 51.515625 
L 30.90625 51.515625 
L 35.890625 71.78125 
z
" id="DejaVuSans-23"/>
      <path d="M 4.890625 31.390625 
L 31.203125 31.390625 
L 31.203125 23.390625 
L 4.890625 23.390625 
z
" id="DejaVuSans-2d"/>
      <path d="M 56.203125 29.59375 
L 56.203125 25.203125 
L 14.890625 25.203125 
Q 15.484375 15.921875 20.484375 11.0625 
Q 25.484375 6.203125 34.421875 6.203125 
Q 39.59375 6.203125 44.453125 7.46875 
Q 49.3125 8.734375 54.109375 11.28125 
L 54.109375 2.78125 
Q 49.265625 0.734375 44.1875 -0.34375 
Q 39.109375 -1.421875 33.890625 -1.421875 
Q 20.796875 -1.421875 13.15625 6.1875 
Q 5.515625 13.8125 5.515625 26.8125 
Q 5.515625 40.234375 12.765625 48.109375 
Q 20.015625 56 32.328125 56 
Q 43.359375 56 49.78125 48.890625 
Q 56.203125 41.796875 56.203125 29.59375 
M 47.21875 32.234375 
Q 47.125 39.59375 43.09375 43.984375 
Q 39.0625 48.390625 32.421875 48.390625 
Q 24.90625 48.390625 20.390625 44.140625 
Q 15.875 39.890625 15.1875 32.171875 
z
" id="DejaVuSans-65"/>
      <path d="M 2.984375 54.6875 
L 12.5 54.6875 
L 29.59375 8.796875 
L 46.6875 54.6875 
L 56.203125 54.6875 
L 35.6875 0 
L 23.484375 0 
z
" id="DejaVuSans-76"/>
      <path d="M 34.28125 27.484375 
Q 23.390625 27.484375 19.1875 25 
Q 14.984375 22.515625 14.984375 16.5 
Q 14.984375 11.71875 18.140625 8.90625 
Q 21.296875 6.109375 26.703125 6.109375 
Q 34.1875 6.109375 38.703125 11.40625 
Q 43.21875 16.703125 43.21875 25.484375 
L 43.21875 27.484375 
z
M 52.203125 31.203125 
L 52.203125 0 
L 43.21875 0 
L 43.21875 8.296875 
Q 40.140625 3.328125 35.546875 0.953125 
Q 30.953125 -1.421875 24.3125 -1.421875 
Q 15.921875 -1.421875 10.953125 3.296875 
Q 6 8.015625 6 15.921875 
Q 6 25.140625 12.171875 29.828125 
Q 18.359375 34.515625 30.609375 34.515625 
L 43.21875 34.515625 
L 43.21875 35.40625 
Q 43.21875 41.609375 39.140625 45 
Q 35.0625 48.390625 27.6875 48.390625 
Q 23 48.390625 18.546875 47.265625 
Q 14.109375 46.140625 10.015625 43.890625 
L 10.015625 52.203125 
Q 14.9375 54.109375 19.578125 55.046875 
Q 24.21875 56 28.609375 56 
Q 40.484375 56 46.34375 49.84375 
Q 52.203125 43.703125 52.203125 31.203125 
" id="DejaVuSans-61"/>
      <path d="M 44.28125 53.078125 
L 44.28125 44.578125 
Q 40.484375 46.53125 36.375 47.5 
Q 32.28125 48.484375 27.875 48.484375 
Q 21.1875 48.484375 17.84375 46.4375 
Q 14.5 44.390625 14.5 40.28125 
Q 14.5 37.15625 16.890625 35.375 
Q 19.28125 33.59375 26.515625 31.984375 
L 29.59375 31.296875 
Q 39.15625 29.25 43.1875 25.515625 
Q 47.21875 21.78125 47.21875 15.09375 
Q 47.21875 7.46875 41.1875 3.015625 
Q 35.15625 -1.421875 24.609375 -1.421875 
Q 20.21875 -1.421875 15.453125 -0.5625 
Q 10.6875 0.296875 5.421875 2 
L 5.421875 11.28125 
Q 10.40625 8.6875 15.234375 7.390625 
Q 20.0625 6.109375 24.8125 6.109375 
Q 31.15625 6.109375 34.5625 8.28125 
Q 37.984375 10.453125 37.984375 14.40625 
Q 37.984375 18.0625 35.515625 20.015625 
Q 33.0625 21.96875 24.703125 23.78125 
L 21.578125 24.515625 
Q 13.234375 26.265625 9.515625 29.90625 
Q 5.8125 33.546875 5.8125 39.890625 
Q 5.8125 47.609375 11.28125 51.796875 
Q 16.75 56 26.8125 56 
Q 31.78125 56 36.171875 55.265625 
Q 40.578125 54.546875 44.28125 53.078125 
" id="DejaVuSans-73"/>
      <path d="M 25.390625 72.90625 
L 33.6875 72.90625 
L 8.296875 -9.28125 
L 0 -9.28125 
z
" id="DejaVuSans-2f"/>
      <path d="M 45.40625 46.390625 
L 45.40625 75.984375 
L 54.390625 75.984375 
L 54.390625 0 
L 45.40625 0 
L 45.40625 8.203125 
Q 42.578125 3.328125 38.25 0.953125 
Q 33.9375 -1.421875 27.875 -1.421875 
Q 17.96875 -1.421875 11.734375 6.484375 
Q 5.515625 14.40625 5.515625 27.296875 
Q 5.515625 40.1875 11.734375 48.09375 
Q 17.96875 56 27.875 56 
Q 33.9375 56 38.25 53.625 
Q 42.578125 51.265625 45.40625 46.390625 
M 14.796875 27.296875 
Q 14.796875 17.390625 18.875 11.75 
Q 22.953125 6.109375 30.078125 6.109375 
Q 37.203125 6.109375 41.296875 11.75 
Q 45.40625 17.390625 45.40625 27.296875 
Q 45.40625 37.203125 41.296875 42.84375 
Q 37.203125 48.484375 30.078125 48.484375 
Q 22.953125 48.484375 18.875 42.84375 
Q 14.796875 37.203125 14.796875 27.296875 
" id="DejaVuSans-64"/>
      <path d="M 9.421875 54.6875 
L 18.40625 54.6875 
L 18.40625 0 
L 9.421875 0 
z
M 9.421875 75.984375 
L 18.40625 75.984375 
L 18.40625 64.59375 
L 9.421875 64.59375 
z
" id="DejaVuSans-69"/>
      <path d="M 52 44.1875 
Q 55.375 50.25 60.0625 53.125 
Q 64.75 56 71.09375 56 
Q 79.640625 56 84.28125 50.015625 
Q 88.921875 44.046875 88.921875 33.015625 
L 88.921875 0 
L 79.890625 0 
L 79.890625 32.71875 
Q 79.890625 40.578125 77.09375 44.375 
Q 74.3125 48.1875 68.609375 48.1875 
Q 61.625 48.1875 57.5625 43.546875 
Q 53.515625 38.921875 53.515625 30.90625 
L 53.515625 0 
L 44.484375 0 
L 44.484375 32.71875 
Q 44.484375 40.625 41.703125 44.40625 
Q 38.921875 48.1875 33.109375 48.1875 
Q 26.21875 48.1875 22.15625 43.53125 
Q 18.109375 38.875 18.109375 30.90625 
L 18.109375 0 
L 9.078125 0 
L 9.078125 54.6875 
L 18.109375 54.6875 
L 18.109375 46.1875 
Q 21.1875 51.21875 25.484375 53.609375 
Q 29.78125 56 35.6875 56 
Q 41.65625 56 45.828125 52.96875 
Q 50 49.953125 52 44.1875 
" id="DejaVuSans-6d"/>
      <path d="M 54.890625 33.015625 
L 54.890625 0 
L 45.90625 0 
L 45.90625 32.71875 
Q 45.90625 40.484375 42.875 44.328125 
Q 39.84375 48.1875 33.796875 48.1875 
Q 26.515625 48.1875 22.3125 43.546875 
Q 18.109375 38.921875 18.109375 30.90625 
L 18.109375 0 
L 9.078125 0 
L 9.078125 54.6875 
L 18.109375 54.6875 
L 18.109375 46.1875 
Q 21.34375 51.125 25.703125 53.5625 
Q 30.078125 56 35.796875 56 
Q 45.21875 56 50.046875 50.171875 
Q 54.890625 44.34375 54.890625 33.015625 
" id="DejaVuSans-6e"/>
      <path d="M 8.015625 75.875 
L 15.828125 75.875 
Q 23.140625 64.359375 26.78125 53.3125 
Q 30.421875 42.28125 30.421875 31.390625 
Q 30.421875 20.453125 26.78125 9.375 
Q 23.140625 -1.703125 15.828125 -13.1875 
L 8.015625 -13.1875 
Q 14.5 -2 17.703125 9.0625 
Q 20.90625 20.125 20.90625 31.390625 
Q 20.90625 42.671875 17.703125 53.65625 
Q 14.5 64.65625 8.015625 75.875 
" id="DejaVuSans-29"/>
     </defs>
     <g transform="translate(107.015156 342.278812)scale(0.18 -0.18)">
      <use xlink:href="#DejaVuSans-6c"/>
      <use x="27.783203" xlink:href="#DejaVuSans-6f"/>
      <use x="88.964844" xlink:href="#DejaVuSans-67"/>
      <use x="152.441406" xlink:href="#DejaVuSans-31"/>
      <use x="216.064453" xlink:href="#DejaVuSans-30"/>
      <use x="279.6875" xlink:href="#DejaVuSans-20"/>
      <use x="311.474609" xlink:href="#DejaVuSans-6f"/>
      <use x="372.65625" xlink:href="#DejaVuSans-66"/>
      <use x="407.861328" xlink:href="#DejaVuSans-20"/>
      <use x="439.648438" xlink:href="#DejaVuSans-28"/>
      <use x="478.662109" xlink:href="#DejaVuSans-23"/>
      <use x="562.451172" xlink:href="#DejaVuSans-20"/>
      <use x="594.238281" xlink:href="#DejaVuSans-66"/>
      <use x="629.365234" xlink:href="#DejaVuSans-2d"/>
      <use x="665.449219" xlink:href="#DejaVuSans-65"/>
      <use x="726.972656" xlink:href="#DejaVuSans-76"/>
      <use x="786.152344" xlink:href="#DejaVuSans-61"/>
      <use x="847.431641" xlink:href="#DejaVuSans-6c"/>
      <use x="875.214844" xlink:href="#DejaVuSans-73"/>
      <use x="927.314453" xlink:href="#DejaVuSans-20"/>
      <use x="959.101562" xlink:href="#DejaVuSans-2f"/>
      <use x="992.792969" xlink:href="#DejaVuSans-20"/>
      <use x="1024.580078" xlink:href="#DejaVuSans-64"/>
      <use x="1088.056641" xlink:href="#DejaVuSans-69"/>
      <use x="1115.839844" xlink:href="#DejaVuSans-6d"/>
      <use x="1213.251953" xlink:href="#DejaVuSans-65"/>
      <use x="1274.775391" xlink:href="#DejaVuSans-6e"/>
      <use x="1338.154297" xlink:href="#DejaVuSans-73"/>
      <use x="1390.253906" xlink:href="#DejaVuSans-69"/>
      <use x="1418.037109" xlink:href="#DejaVuSans-6f"/>
      <use x="1479.21875" xlink:href="#DejaVuSans-6e"/>
      <use x="1542.597656" xlink:href="#DejaVuSans-29"/>
     </g>
    </g>
   </g>
   <g id="matplotlib.axis_2">
    <g id="ytick_1">
     <g id="line2d_29">
      <path clip-path="url(#pe35e9d67cf)" d="M 70.8 298.245375 
L 427.92 298.245375 
" style="fill:none;stroke:#b0b0b0;stroke-linecap:square;stroke-width:0.8;"/>
     </g>
     <g id="line2d_30">
      <defs>
       <path d="M 0 0 
L -3.5 0 
" id="mcdab0d626e" style="stroke:#000000;stroke-width:0.8;"/>
      </defs>
      <g>
       <use style="stroke:#000000;stroke-width:0.8;" x="70.8" xlink:href="#mcdab0d626e" y="298.245375"/>
      </g>
     </g>
     <g id="text_7">
      <!-- 0.0 -->
      <defs>
       <path d="M 10.6875 12.40625 
L 21 12.40625 
L 21 0 
L 10.6875 0 
z
" id="DejaVuSans-2e"/>
      </defs>
      <g transform="translate(31.99375 305.843812)scale(0.2 -0.2)">
       <use xlink:href="#DejaVuSans-30"/>
       <use x="63.623047" xlink:href="#DejaVuSans-2e"/>
       <use x="95.410156" xlink:href="#DejaVuSans-30"/>
      </g>
     </g>
    </g>
    <g id="ytick_2">
     <g id="line2d_31">
      <path clip-path="url(#pe35e9d67cf)" d="M 70.8 245.549929 
L 427.92 245.549929 
" style="fill:none;stroke:#b0b0b0;stroke-linecap:square;stroke-width:0.8;"/>
     </g>
     <g id="line2d_32">
      <g>
       <use style="stroke:#000000;stroke-width:0.8;" x="70.8" xlink:href="#mcdab0d626e" y="245.549929"/>
      </g>
     </g>
     <g id="text_8">
      <!-- 0.2 -->
      <g transform="translate(31.99375 253.148367)scale(0.2 -0.2)">
       <use xlink:href="#DejaVuSans-30"/>
       <use x="63.623047" xlink:href="#DejaVuSans-2e"/>
       <use x="95.410156" xlink:href="#DejaVuSans-32"/>
      </g>
     </g>
    </g>
    <g id="ytick_3">
     <g id="line2d_33">
      <path clip-path="url(#pe35e9d67cf)" d="M 70.8 192.854484 
L 427.92 192.854484 
" style="fill:none;stroke:#b0b0b0;stroke-linecap:square;stroke-width:0.8;"/>
     </g>
     <g id="line2d_34">
      <g>
       <use style="stroke:#000000;stroke-width:0.8;" x="70.8" xlink:href="#mcdab0d626e" y="192.854484"/>
      </g>
     </g>
     <g id="text_9">
      <!-- 0.4 -->
      <g transform="translate(31.99375 200.452921)scale(0.2 -0.2)">
       <use xlink:href="#DejaVuSans-30"/>
       <use x="63.623047" xlink:href="#DejaVuSans-2e"/>
       <use x="95.410156" xlink:href="#DejaVuSans-34"/>
      </g>
     </g>
    </g>
    <g id="ytick_4">
     <g id="line2d_35">
      <path clip-path="url(#pe35e9d67cf)" d="M 70.8 140.159038 
L 427.92 140.159038 
" style="fill:none;stroke:#b0b0b0;stroke-linecap:square;stroke-width:0.8;"/>
     </g>
     <g id="line2d_36">
      <g>
       <use style="stroke:#000000;stroke-width:0.8;" x="70.8" xlink:href="#mcdab0d626e" y="140.159038"/>
      </g>
     </g>
     <g id="text_10">
      <!-- 0.6 -->
      <g transform="translate(31.99375 147.757476)scale(0.2 -0.2)">
       <use xlink:href="#DejaVuSans-30"/>
       <use x="63.623047" xlink:href="#DejaVuSans-2e"/>
       <use x="95.410156" xlink:href="#DejaVuSans-36"/>
      </g>
     </g>
    </g>
    <g id="ytick_5">
     <g id="line2d_37">
      <path clip-path="url(#pe35e9d67cf)" d="M 70.8 87.463593 
L 427.92 87.463593 
" style="fill:none;stroke:#b0b0b0;stroke-linecap:square;stroke-width:0.8;"/>
     </g>
     <g id="line2d_38">
      <g>
       <use style="stroke:#000000;stroke-width:0.8;" x="70.8" xlink:href="#mcdab0d626e" y="87.463593"/>
      </g>
     </g>
     <g id="text_11">
      <!-- 0.8 -->
      <g transform="translate(31.99375 95.06203)scale(0.2 -0.2)">
       <use xlink:href="#DejaVuSans-30"/>
       <use x="63.623047" xlink:href="#DejaVuSans-2e"/>
       <use x="95.410156" xlink:href="#DejaVuSans-38"/>
      </g>
     </g>
    </g>
    <g id="ytick_6">
     <g id="line2d_39">
      <path clip-path="url(#pe35e9d67cf)" d="M 70.8 34.768147 
L 427.92 34.768147 
" style="fill:none;stroke:#b0b0b0;stroke-linecap:square;stroke-width:0.8;"/>
     </g>
     <g id="line2d_40">
      <g>
       <use style="stroke:#000000;stroke-width:0.8;" x="70.8" xlink:href="#mcdab0d626e" y="34.768147"/>
      </g>
     </g>
     <g id="text_12">
      <!-- 1.0 -->
      <g transform="translate(31.99375 42.366585)scale(0.2 -0.2)">
       <use xlink:href="#DejaVuSans-31"/>
       <use x="63.623047" xlink:href="#DejaVuSans-2e"/>
       <use x="95.410156" xlink:href="#DejaVuSans-30"/>
      </g>
     </g>
    </g>
    <g id="text_13">
     <!-- Proportion of function+target pairs -->
     <defs>
      <path d="M 19.671875 64.796875 
L 19.671875 37.40625 
L 32.078125 37.40625 
Q 38.96875 37.40625 42.71875 40.96875 
Q 46.484375 44.53125 46.484375 51.125 
Q 46.484375 57.671875 42.71875 61.234375 
Q 38.96875 64.796875 32.078125 64.796875 
z
M 9.8125 72.90625 
L 32.078125 72.90625 
Q 44.34375 72.90625 50.609375 67.359375 
Q 56.890625 61.8125 56.890625 51.125 
Q 56.890625 40.328125 50.609375 34.8125 
Q 44.34375 29.296875 32.078125 29.296875 
L 19.671875 29.296875 
L 19.671875 0 
L 9.8125 0 
z
" id="DejaVuSans-50"/>
      <path d="M 41.109375 46.296875 
Q 39.59375 47.171875 37.8125 47.578125 
Q 36.03125 48 33.890625 48 
Q 26.265625 48 22.1875 43.046875 
Q 18.109375 38.09375 18.109375 28.8125 
L 18.109375 0 
L 9.078125 0 
L 9.078125 54.6875 
L 18.109375 54.6875 
L 18.109375 46.1875 
Q 20.953125 51.171875 25.484375 53.578125 
Q 30.03125 56 36.53125 56 
Q 37.453125 56 38.578125 55.875 
Q 39.703125 55.765625 41.0625 55.515625 
z
" id="DejaVuSans-72"/>
      <path d="M 18.109375 8.203125 
L 18.109375 -20.796875 
L 9.078125 -20.796875 
L 9.078125 54.6875 
L 18.109375 54.6875 
L 18.109375 46.390625 
Q 20.953125 51.265625 25.265625 53.625 
Q 29.59375 56 35.59375 56 
Q 45.5625 56 51.78125 48.09375 
Q 58.015625 40.1875 58.015625 27.296875 
Q 58.015625 14.40625 51.78125 6.484375 
Q 45.5625 -1.421875 35.59375 -1.421875 
Q 29.59375 -1.421875 25.265625 0.953125 
Q 20.953125 3.328125 18.109375 8.203125 
M 48.6875 27.296875 
Q 48.6875 37.203125 44.609375 42.84375 
Q 40.53125 48.484375 33.40625 48.484375 
Q 26.265625 48.484375 22.1875 42.84375 
Q 18.109375 37.203125 18.109375 27.296875 
Q 18.109375 17.390625 22.1875 11.75 
Q 26.265625 6.109375 33.40625 6.109375 
Q 40.53125 6.109375 44.609375 11.75 
Q 48.6875 17.390625 48.6875 27.296875 
" id="DejaVuSans-70"/>
      <path d="M 18.3125 70.21875 
L 18.3125 54.6875 
L 36.8125 54.6875 
L 36.8125 47.703125 
L 18.3125 47.703125 
L 18.3125 18.015625 
Q 18.3125 11.328125 20.140625 9.421875 
Q 21.96875 7.515625 27.59375 7.515625 
L 36.8125 7.515625 
L 36.8125 0 
L 27.59375 0 
Q 17.1875 0 13.234375 3.875 
Q 9.28125 7.765625 9.28125 18.015625 
L 9.28125 47.703125 
L 2.6875 47.703125 
L 2.6875 54.6875 
L 9.28125 54.6875 
L 9.28125 70.21875 
z
" id="DejaVuSans-74"/>
      <path d="M 8.5 21.578125 
L 8.5 54.6875 
L 17.484375 54.6875 
L 17.484375 21.921875 
Q 17.484375 14.15625 20.5 10.265625 
Q 23.53125 6.390625 29.59375 6.390625 
Q 36.859375 6.390625 41.078125 11.03125 
Q 45.3125 15.671875 45.3125 23.6875 
L 45.3125 54.6875 
L 54.296875 54.6875 
L 54.296875 0 
L 45.3125 0 
L 45.3125 8.40625 
Q 42.046875 3.421875 37.71875 1 
Q 33.40625 -1.421875 27.6875 -1.421875 
Q 18.265625 -1.421875 13.375 4.4375 
Q 8.5 10.296875 8.5 21.578125 
M 31.109375 56 
z
" id="DejaVuSans-75"/>
      <path d="M 48.78125 52.59375 
L 48.78125 44.1875 
Q 44.96875 46.296875 41.140625 47.34375 
Q 37.3125 48.390625 33.40625 48.390625 
Q 24.65625 48.390625 19.8125 42.84375 
Q 14.984375 37.3125 14.984375 27.296875 
Q 14.984375 17.28125 19.8125 11.734375 
Q 24.65625 6.203125 33.40625 6.203125 
Q 37.3125 6.203125 41.140625 7.25 
Q 44.96875 8.296875 48.78125 10.40625 
L 48.78125 2.09375 
Q 45.015625 0.34375 40.984375 -0.53125 
Q 36.96875 -1.421875 32.421875 -1.421875 
Q 20.0625 -1.421875 12.78125 6.34375 
Q 5.515625 14.109375 5.515625 27.296875 
Q 5.515625 40.671875 12.859375 48.328125 
Q 20.21875 56 33.015625 56 
Q 37.15625 56 41.109375 55.140625 
Q 45.0625 54.296875 48.78125 52.59375 
" id="DejaVuSans-63"/>
      <path d="M 46 62.703125 
L 46 35.5 
L 73.1875 35.5 
L 73.1875 27.203125 
L 46 27.203125 
L 46 0 
L 37.796875 0 
L 37.796875 27.203125 
L 10.59375 27.203125 
L 10.59375 35.5 
L 37.796875 35.5 
L 37.796875 62.703125 
z
" id="DejaVuSans-2b"/>
     </defs>
     <g transform="translate(24.250312 323.17875)rotate(-90)scale(0.18 -0.18)">
      <use xlink:href="#DejaVuSans-50"/>
      <use x="60.287109" xlink:href="#DejaVuSans-72"/>
      <use x="101.369141" xlink:href="#DejaVuSans-6f"/>
      <use x="162.550781" xlink:href="#DejaVuSans-70"/>
      <use x="226.027344" xlink:href="#DejaVuSans-6f"/>
      <use x="287.208984" xlink:href="#DejaVuSans-72"/>
      <use x="328.322266" xlink:href="#DejaVuSans-74"/>
      <use x="367.53125" xlink:href="#DejaVuSans-69"/>
      <use x="395.314453" xlink:href="#DejaVuSans-6f"/>
      <use x="456.496094" xlink:href="#DejaVuSans-6e"/>
      <use x="519.875" xlink:href="#DejaVuSans-20"/>
      <use x="551.662109" xlink:href="#DejaVuSans-6f"/>
      <use x="612.84375" xlink:href="#DejaVuSans-66"/>
      <use x="648.048828" xlink:href="#DejaVuSans-20"/>
      <use x="679.835938" xlink:href="#DejaVuSans-66"/>
      <use x="715.041016" xlink:href="#DejaVuSans-75"/>
      <use x="778.419922" xlink:href="#DejaVuSans-6e"/>
      <use x="841.798828" xlink:href="#DejaVuSans-63"/>
      <use x="896.779297" xlink:href="#DejaVuSans-74"/>
      <use x="935.988281" xlink:href="#DejaVuSans-69"/>
      <use x="963.771484" xlink:href="#DejaVuSans-6f"/>
      <use x="1024.953125" xlink:href="#DejaVuSans-6e"/>
      <use x="1088.332031" xlink:href="#DejaVuSans-2b"/>
      <use x="1172.121094" xlink:href="#DejaVuSans-74"/>
      <use x="1211.330078" xlink:href="#DejaVuSans-61"/>
      <use x="1272.609375" xlink:href="#DejaVuSans-72"/>
      <use x="1313.707031" xlink:href="#DejaVuSans-67"/>
      <use x="1377.183594" xlink:href="#DejaVuSans-65"/>
      <use x="1438.707031" xlink:href="#DejaVuSans-74"/>
      <use x="1477.916016" xlink:href="#DejaVuSans-20"/>
      <use x="1509.703125" xlink:href="#DejaVuSans-70"/>
      <use x="1573.179688" xlink:href="#DejaVuSans-61"/>
      <use x="1634.458984" xlink:href="#DejaVuSans-69"/>
      <use x="1662.242188" xlink:href="#DejaVuSans-72"/>
      <use x="1703.355469" xlink:href="#DejaVuSans-73"/>
     </g>
    </g>
   </g>
   <g id="line2d_41">
    <defs>
     <path d="M 0 1.5 
C 0.397805 1.5 0.77937 1.341951 1.06066 1.06066 
C 1.341951 0.77937 1.5 0.397805 1.5 0 
C 1.5 -0.397805 1.341951 -0.77937 1.06066 -1.06066 
C 0.77937 -1.341951 0.397805 -1.5 0 -1.5 
C -0.397805 -1.5 -0.77937 -1.341951 -1.06066 -1.06066 
C -1.341951 -0.77937 -1.5 -0.397805 -1.5 0 
C -1.5 0.397805 -1.341951 0.77937 -1.06066 1.06066 
C -0.77937 1.341951 -0.397805 1.5 0 1.5 
z
" id="m10519cadda" style="stroke:#00bfbf;"/>
    </defs>
    <g>
     <use style="fill:#00bfbf;stroke:#00bfbf;" x="303.259799" xlink:href="#m10519cadda" y="34.768147"/>
     <use style="fill:#00bfbf;stroke:#00bfbf;" x="303.259799" xlink:href="#m10519cadda" y="34.768147"/>
    </g>
   </g>
   <g id="line2d_42">
    <path d="M 58.414766 298.245375 
L 58.414766 293.079155 
L 153.085714 293.079155 
L 153.085714 290.496045 
L 165.470948 290.496045 
L 165.470948 287.396313 
L 169.458103 287.396313 
L 169.458103 286.879691 
L 172.715846 286.879691 
L 172.715846 285.846447 
L 175.470228 285.846447 
L 175.470228 281.713471 
L 181.843337 281.713471 
L 181.843337 281.196849 
L 187.855462 281.196849 
L 187.855462 280.163604 
L 200.240696 280.163604 
L 200.240696 278.613738 
L 202.626651 278.613738 
L 202.626651 277.063872 
L 205.697291 277.063872 
L 205.697291 276.54725 
L 207.055016 276.54725 
L 207.055016 276.030628 
L 209.111088 276.030628 
L 209.111088 275.514006 
L 209.495363 275.514006 
L 209.495363 272.414274 
L 209.871548 272.414274 
L 209.871548 271.38103 
L 211.301761 271.38103 
L 211.301761 267.248054 
L 211.642116 267.248054 
L 211.642116 266.21481 
L 212.303974 266.21481 
L 212.303974 265.181566 
L 212.62593 265.181566 
L 212.62593 260.531968 
L 214.730491 260.531968 
L 214.730491 259.498724 
L 216.355986 259.498724 
L 216.355986 256.915614 
L 217.606014 256.915614 
L 217.606014 253.29926 
L 218.316099 253.29926 
L 218.316099 252.782638 
L 218.546658 252.782638 
L 218.546658 251.749394 
L 219.656836 251.749394 
L 219.656836 251.232772 
L 220.291274 251.232772 
L 220.291274 250.71615 
L 221.496322 250.71615 
L 221.496322 250.199528 
L 221.689493 250.199528 
L 221.689493 246.066551 
L 221.880598 246.066551 
L 221.880598 245.033307 
L 222.06968 245.033307 
L 222.06968 244.000063 
L 222.256782 244.000063 
L 222.256782 242.450197 
L 223.163988 242.450197 
L 223.163988 239.867087 
L 223.857983 239.867087 
L 223.857983 238.317221 
L 224.195127 238.317221 
L 224.195127 237.283977 
L 224.526028 237.283977 
L 224.526028 236.250733 
L 226.243937 236.250733 
L 226.243937 235.734111 
L 226.82983 235.734111 
L 226.82983 234.700867 
L 227.397119 234.700867 
L 227.397119 233.667623 
L 227.536171 233.667623 
L 227.536171 231.084513 
L 228.74122 231.084513 
L 228.74122 229.534647 
L 229.125495 229.534647 
L 229.125495 229.018025 
L 229.251772 229.018025 
L 229.251772 225.401671 
L 229.377163 225.401671 
L 229.377163 224.368427 
L 229.50168 224.368427 
L 229.50168 222.301939 
L 230.111572 222.301939 
L 230.111572 221.785317 
L 235.549222 221.785317 
L 235.549222 221.268695 
L 235.986117 221.268695 
L 235.986117 220.752073 
L 236.829109 220.752073 
L 236.829109 219.718829 
L 237.155477 219.718829 
L 237.155477 219.202207 
L 237.475989 219.202207 
L 237.475989 218.685585 
L 237.790854 218.685585 
L 237.790854 217.652341 
L 237.94623 217.652341 
L 237.94623 216.619097 
L 238.252987 216.619097 
L 238.252987 212.48612 
L 238.554565 212.48612 
L 238.554565 211.969498 
L 238.703467 211.969498 
L 238.777455 208.869766 
L 238.924519 208.869766 
L 238.997599 206.803278 
L 239.571724 206.803278 
L 239.571724 205.770034 
L 240.600883 205.770034 
L 240.600883 204.73679 
L 241.319625 204.73679 
L 241.319625 202.670302 
L 241.573979 202.670302 
L 241.573979 202.15368 
L 241.824764 202.15368 
L 241.886914 200.603814 
L 242.194462 200.603814 
L 242.194462 200.087192 
L 242.316015 200.087192 
L 242.376482 198.020704 
L 242.436746 198.020704 
L 242.436746 196.470838 
L 242.556666 196.470838 
L 242.556666 194.920972 
L 243.144486 194.920972 
L 243.144486 193.371106 
L 245.216893 193.371106 
L 245.216893 192.854484 
L 245.874069 192.854484 
L 245.874069 190.271374 
L 246.459961 190.271374 
L 246.459961 189.754752 
L 246.603481 189.754752 
L 246.603481 189.23813 
L 246.980658 189.23813 
L 247.027251 185.621776 
L 247.120072 185.621776 
L 247.212414 182.522044 
L 247.258407 182.522044 
L 247.258407 182.005422 
L 247.531904 182.005422 
L 247.622147 179.938934 
L 247.667098 179.938934 
L 247.711936 178.90569 
L 249.979949 178.90569 
L 249.979949 178.389067 
L 250.676198 178.389067 
L 250.676198 177.355823 
L 251.051592 177.355823 
L 251.051592 176.322579 
L 251.236372 176.322579 
L 251.34633 173.739469 
L 251.382833 173.739469 
L 251.491896 170.123115 
L 251.708045 170.123115 
L 251.815147 164.440273 
L 252.410223 164.440273 
L 252.444618 162.890407 
L 252.615606 162.890407 
L 252.717419 159.274053 
L 252.751228 159.274053 
L 252.751228 158.240809 
L 253.019422 158.240809 
L 253.019422 156.174321 
L 253.185022 156.174321 
L 253.217959 154.624455 
L 253.381737 154.624455 
L 253.414314 153.074589 
L 255.031316 153.074589 
L 255.090678 150.491479 
L 255.149844 150.491479 
L 255.149844 148.941613 
L 255.587453 148.941613 
L 255.587453 147.908369 
L 255.788059 147.908369 
L 255.788059 146.875125 
L 255.986438 146.875125 
L 256.070788 143.775392 
L 256.154742 143.775392 
L 256.210493 140.159038 
L 256.349113 140.159038 
L 256.349113 135.50944 
L 256.541393 135.50944 
L 256.62317 132.92633 
L 256.839428 132.92633 
L 256.839428 129.826598 
L 256.999921 129.826598 
L 256.999921 129.309976 
L 257.23799 129.309976 
L 257.23799 128.276732 
L 257.550559 128.276732 
L 257.602127 126.726866 
L 257.704818 126.726866 
L 257.704818 125.693622 
L 257.933736 125.693622 
L 258.034544 123.110512 
L 258.869195 123.110512 
L 258.869195 121.560646 
L 259.0363 121.560646 
L 259.0363 120.527402 
L 259.225382 120.527402 
L 259.225382 118.460914 
L 259.620659 118.460914 
L 259.620659 117.42767 
L 259.735272 117.42767 
L 259.780912 115.877804 
L 260.007381 115.877804 
L 260.097171 110.711584 
L 260.141897 110.711584 
L 260.141897 109.678339 
L 260.517616 109.678339 
L 260.517616 109.161717 
L 261.077386 109.161717 
L 261.119728 108.128473 
L 261.371691 108.128473 
L 261.371691 107.611851 
L 261.620151 107.611851 
L 261.722665 105.028741 
L 261.783892 105.028741 
L 261.783892 103.478875 
L 262.006614 103.478875 
L 262.08692 102.445631 
L 262.186798 102.445631 
L 262.186798 100.895765 
L 262.483125 100.895765 
L 262.541805 99.345899 
L 262.851553 99.345899 
L 262.947258 94.696301 
L 263.023455 94.696301 
L 263.023455 94.179679 
L 263.137144 94.179679 
L 263.137144 93.663057 
L 263.603214 93.663057 
L 263.603214 93.146435 
L 263.84085 93.146435 
L 263.84085 92.629813 
L 264.21817 92.629813 
L 264.21817 92.113191 
L 264.412678 92.113191 
L 264.447817 89.013459 
L 264.726468 89.013459 
L 264.726468 87.463593 
L 264.949715 87.463593 
L 264.949715 86.946971 
L 265.337984 86.946971 
L 265.337984 85.913727 
L 265.750661 85.913727 
L 265.766972 84.363861 
L 265.864523 84.363861 
L 265.961545 78.164397 
L 266.185901 78.164397 
L 266.185901 76.097908 
L 266.423196 76.097908 
L 266.454599 75.064664 
L 266.765627 75.064664 
L 266.765627 74.548042 
L 267.086483 74.548042 
L 267.086483 74.03142 
L 267.252278 74.03142 
L 267.252278 72.998176 
L 267.401678 72.998176 
L 267.401678 72.481554 
L 268.015864 72.481554 
L 268.015864 71.964932 
L 268.272758 71.964932 
L 268.272758 70.931688 
L 268.665172 70.931688 
L 268.665172 70.415066 
L 268.858193 70.415066 
L 268.858193 69.381822 
L 269.251511 69.381822 
L 269.358506 67.831956 
L 269.438334 67.831956 
L 269.438334 65.765468 
L 269.70188 65.765468 
L 269.741079 64.732224 
L 270.025939 64.732224 
L 270.03878 63.182358 
L 270.192155 63.182358 
L 270.192155 61.632492 
L 271.025116 61.632492 
L 271.025116 61.11587 
L 271.230429 61.11587 
L 271.326237 59.049382 
L 271.86738 59.049382 
L 271.86738 58.53276 
L 272.358827 58.53276 
L 272.403863 56.466272 
L 272.527131 56.466272 
L 272.527131 55.433028 
L 272.826139 55.433028 
L 272.826139 54.916406 
L 273.152606 54.916406 
L 273.152606 54.399784 
L 273.933274 54.399784 
L 273.933274 53.883162 
L 275.130916 53.883162 
L 275.130916 51.300052 
L 277.428567 51.300052 
L 277.428567 50.78343 
L 278.761223 50.78343 
L 278.761223 50.266808 
L 279.081351 50.266808 
L 279.081351 49.750186 
L 279.471717 49.750186 
L 279.471717 49.233564 
L 280.169605 49.233564 
L 280.169605 48.716942 
L 280.707518 48.716942 
L 280.707518 48.20032 
L 281.386837 48.20032 
L 281.488573 46.133832 
L 282.158913 46.133832 
L 282.269311 45.100588 
L 282.500866 45.100588 
L 282.500866 44.583966 
L 282.886501 44.583966 
L 282.886501 44.067344 
L 283.777042 44.067344 
L 283.866072 43.0341 
L 284.194582 43.0341 
L 284.194582 42.517478 
L 284.471434 42.517478 
L 284.528575 41.484233 
L 284.681951 41.484233 
L 284.681951 40.967611 
L 286.178609 40.967611 
L 286.178609 40.450989 
L 288.221219 40.450989 
L 288.221219 39.934367 
L 288.606778 39.934367 
L 288.606778 39.417745 
L 291.616851 39.417745 
L 291.616851 38.901123 
L 292.897392 38.901123 
L 292.897392 38.384501 
L 293.299972 38.384501 
L 293.299972 37.867879 
L 293.55308 37.867879 
L 293.55308 37.351257 
L 294.232018 37.351257 
L 294.255204 36.318013 
L 295.415005 36.318013 
L 295.415005 35.801391 
L 298.254272 35.801391 
L 298.254272 35.284769 
L 303.259799 35.284769 
L 303.259799 34.768147 
L 358.8 34.768147 
L 358.8 34.768147 
" style="fill:none;stroke:#00bfbf;stroke-linecap:square;stroke-width:1.5;"/>
   </g>
   <g id="line2d_43">
    <defs>
     <path d="M -6 0 
L 6 0 
M 0 6 
L 0 -6 
" id="mebf1eee182" style="stroke:#00bfbf;stroke-width:1.5;"/>
    </defs>
    <g>
     <use style="fill:none;stroke:#00bfbf;stroke-width:1.5;" x="358.8" xlink:href="#mebf1eee182" y="34.768147"/>
    </g>
   </g>
   <g id="line2d_44"/>
   <g id="line2d_45">
    <path clip-path="url(#pe35e9d67cf)" d="M 276.514286 51.300052 
" style="fill:none;stroke:#00bfbf;stroke-linecap:square;stroke-width:1.5;"/>
    <defs>
     <path d="M -12 12 
L 12 -12 
M -12 -12 
L 12 12 
" id="m7042f6c21c" style="stroke:#00bfbf;stroke-width:3;"/>
    </defs>
    <g clip-path="url(#pe35e9d67cf)">
     <use style="fill:#00bfbf;stroke:#00bfbf;stroke-width:3;" x="276.514286" xlink:href="#m7042f6c21c" y="51.300052"/>
    </g>
   </g>
   <g id="line2d_46">
    <defs>
     <path d="M 0 1.5 
C 0.397805 1.5 0.77937 1.341951 1.06066 1.06066 
C 1.341951 0.77937 1.5 0.397805 1.5 0 
C 1.5 -0.397805 1.341951 -0.77937 1.06066 -1.06066 
C 0.77937 -1.341951 0.397805 -1.5 0 -1.5 
C -0.397805 -1.5 -0.77937 -1.341951 -1.06066 -1.06066 
C -1.341951 -0.77937 -1.5 -0.397805 -1.5 0 
C -1.5 0.397805 -1.341951 0.77937 -1.06066 1.06066 
C -0.77937 1.341951 -0.397805 1.5 0 1.5 
z
" id="m69c763fe99" style="stroke:#008000;"/>
    </defs>
    <g>
     <use style="fill:#008000;stroke:#008000;" x="316.91718" xlink:href="#m69c763fe99" y="34.768147"/>
     <use style="fill:#008000;stroke:#008000;" x="316.91718" xlink:href="#m69c763fe99" y="34.768147"/>
    </g>
   </g>
   <g id="line2d_47">
    <path d="M 51.169868 298.245375 
L 51.169868 285.846447 
L 145.840817 285.846447 
L 145.840817 280.680226 
L 153.085714 280.680226 
L 153.085714 279.646982 
L 165.470948 279.646982 
L 165.470948 278.613738 
L 170.611285 278.613738 
L 170.611285 276.030628 
L 181.843337 276.030628 
L 181.843337 274.997384 
L 184.079767 274.997384 
L 184.079767 274.480762 
L 186.067159 274.480762 
L 186.067159 273.447518 
L 192.995799 273.447518 
L 192.995799 272.930896 
L 204.056863 272.930896 
L 204.056863 272.414274 
L 207.199698 272.414274 
L 207.199698 270.347786 
L 210.837628 270.347786 
L 210.837628 269.831164 
L 213.659057 269.831164 
L 213.659057 269.314542 
L 214.251425 269.314542 
L 214.251425 268.281298 
L 215.380313 268.281298 
L 215.380313 267.248054 
L 215.561716 267.248054 
L 215.561716 266.731432 
L 217.116446 266.731432 
L 217.116446 265.698188 
L 217.28113 265.698188 
L 217.28113 265.181566 
L 219.147324 265.181566 
L 219.147324 264.148322 
L 219.44025 264.148322 
L 219.44025 262.598456 
L 219.870828 262.598456 
L 219.870828 261.565212 
L 220.429252 261.565212 
L 220.429252 260.015346 
L 220.566173 260.015346 
L 220.566173 259.498724 
L 220.970752 259.498724 
L 220.970752 258.982102 
L 221.366372 258.982102 
L 221.366372 257.432236 
L 221.496322 257.432236 
L 221.496322 256.915614 
L 221.753422 256.915614 
L 221.753422 256.398992 
L 221.880598 256.398992 
L 221.880598 255.365748 
L 222.132265 255.365748 
L 222.132265 254.849126 
L 222.62521 254.849126 
L 222.62521 253.815882 
L 222.866675 253.815882 
L 222.866675 253.29926 
L 228.304325 253.29926 
L 228.392563 252.266016 
L 229.335464 252.266016 
L 229.335464 251.232772 
L 230.31033 251.232772 
L 230.389218 248.13304 
L 230.623814 248.13304 
L 230.623814 247.616418 
L 231.159515 247.616418 
L 231.159515 246.066551 
L 231.309668 246.066551 
L 231.309668 245.033307 
L 231.532558 245.033307 
L 231.606241 241.933575 
L 231.679621 241.933575 
L 231.679621 241.416953 
L 231.897972 241.416953 
L 231.897972 240.900331 
L 232.04207 240.900331 
L 232.04207 240.383709 
L 232.256062 240.383709 
L 232.256062 239.867087 
L 234.517499 239.867087 
L 234.579866 237.800599 
L 235.010444 237.800599 
L 235.010444 236.767355 
L 236.691344 236.767355 
L 236.691344 236.250733 
L 237.236145 236.250733 
L 237.236145 235.217489 
L 237.502441 235.217489 
L 237.607858 233.667623 
L 237.712657 233.667623 
L 237.712657 233.151001 
L 238.227624 233.151001 
L 238.227624 232.117757 
L 238.529627 232.117757 
L 238.529627 230.051269 
L 239.118739 230.051269 
L 239.118739 229.018025 
L 239.263032 229.018025 
L 239.263032 227.984781 
L 239.782353 227.984781 
L 239.782353 227.468159 
L 240.013509 227.468159 
L 240.013509 226.951537 
L 240.150781 226.951537 
L 240.241713 225.401671 
L 240.287006 225.401671 
L 240.332185 222.818561 
L 242.735052 222.818561 
L 242.735052 221.268695 
L 243.694902 221.268695 
L 243.769508 219.202207 
L 243.843804 219.202207 
L 243.954671 216.619097 
L 243.991475 216.619097 
L 243.991475 215.585853 
L 244.137936 215.585853 
L 244.174364 214.552609 
L 244.319339 214.552609 
L 244.319339 213.519365 
L 244.463148 213.519365 
L 244.57025 211.969498 
L 244.641296 211.969498 
L 244.712061 210.936254 
L 244.782547 210.936254 
L 244.782547 210.419632 
L 245.02708 210.419632 
L 245.096336 207.836522 
L 245.540076 207.836522 
L 245.540076 207.3199 
L 245.674423 207.3199 
L 245.774525 205.253412 
L 246.005937 205.253412 
L 246.071509 202.670302 
L 246.169416 202.670302 
L 246.26679 201.120436 
L 246.555769 201.120436 
L 246.587591 198.020704 
L 247.816124 198.020704 
L 247.816124 197.504082 
L 247.99333 197.504082 
L 248.022694 194.40435 
L 248.284823 194.40435 
L 248.284823 193.887728 
L 248.514641 193.887728 
L 248.514641 191.304618 
L 248.685085 191.304618 
L 248.685085 190.787996 
L 248.825891 190.787996 
L 248.909844 188.204886 
L 248.965595 188.204886 
L 249.048897 187.171642 
L 249.159364 187.171642 
L 249.159364 186.65502 
L 249.62138 186.65502 
L 249.62138 184.588532 
L 250.889888 184.588532 
L 250.889888 182.522044 
L 251.528103 182.522044 
L 251.624298 180.972178 
L 251.672202 180.972178 
L 251.672202 180.455556 
L 252.027444 180.455556 
L 252.050878 178.90569 
L 252.444618 178.90569 
L 252.444618 177.872445 
L 252.807435 177.872445 
L 252.807435 176.839201 
L 254.02224 176.839201 
L 254.02224 175.805957 
L 254.579696 175.805957 
L 254.579696 175.289335 
L 254.781827 175.289335 
L 254.781827 174.256091 
L 254.9419 174.256091 
L 255.00156 172.706225 
L 255.625837 172.706225 
L 255.625837 171.672981 
L 256.061436 171.672981 
L 256.061436 171.156359 
L 256.686516 171.156359 
L 256.758637 168.056627 
L 256.848382 168.056627 
L 256.866277 167.023383 
L 257.377585 167.023383 
L 257.377585 166.506761 
L 257.584954 166.506761 
L 257.653546 165.473517 
L 257.92531 165.473517 
L 257.92531 164.440273 
L 258.505764 164.440273 
L 258.53837 163.407029 
L 258.845195 163.407029 
L 258.925071 160.823919 
L 259.004591 160.823919 
L 259.09955 157.207565 
L 259.146841 157.207565 
L 259.225382 155.141077 
L 259.272342 155.141077 
L 259.365892 151.524723 
L 259.902053 151.524723 
L 259.902053 151.008101 
L 261.140861 151.008101 
L 261.140861 149.458235 
L 261.253151 149.458235 
L 261.336908 148.424991 
L 261.434131 148.424991 
L 261.544599 145.841881 
L 261.558359 145.841881 
L 261.558359 145.325259 
L 261.925945 145.325259 
L 261.925945 144.808637 
L 262.272909 144.808637 
L 262.272909 142.742148 
L 262.548313 142.742148 
L 262.548313 142.225526 
L 262.677981 142.225526 
L 262.677981 140.159038 
L 262.793883 140.159038 
L 262.870735 137.575928 
L 262.909037 137.575928 
L 262.909037 137.059306 
L 263.187441 137.059306 
L 263.187441 136.542684 
L 263.523295 136.542684 
L 263.523295 136.026062 
L 264.259606 136.026062 
L 264.259606 134.992818 
L 264.447817 134.992818 
L 264.552821 129.826598 
L 264.680327 129.826598 
L 264.749494 127.243488 
L 264.989491 127.243488 
L 264.989491 125.693622 
L 265.147717 125.693622 
L 265.215102 123.627134 
L 265.832065 123.627134 
L 265.832065 122.59389 
L 266.175281 122.59389 
L 266.175281 121.044024 
L 266.302306 121.044024 
L 266.302306 119.494158 
L 266.574467 119.494158 
L 266.574467 118.977536 
L 266.822066 118.977536 
L 266.822066 118.460914 
L 267.015678 118.460914 
L 267.015678 117.944292 
L 267.36693 117.944292 
L 267.436359 116.911048 
L 267.691903 116.911048 
L 267.760084 115.877804 
L 268.286922 115.877804 
L 268.286922 115.361182 
L 268.68826 115.361182 
L 268.697487 114.327938 
L 269.008404 114.327938 
L 269.09883 111.744828 
L 269.464864 111.744828 
L 269.464864 109.678339 
L 269.605697 109.678339 
L 269.623224 108.128473 
L 270.149683 108.128473 
L 270.149683 107.611851 
L 270.335811 107.611851 
L 270.344225 106.061985 
L 270.486668 106.061985 
L 270.52002 104.512119 
L 270.627985 104.512119 
L 270.694102 101.412387 
L 270.866504 101.412387 
L 270.972402 93.663057 
L 271.405686 93.663057 
L 271.405686 92.113191 
L 271.657576 92.113191 
L 271.657576 91.079947 
L 271.782202 91.079947 
L 271.782202 90.046703 
L 272.021218 90.046703 
L 272.128121 87.980215 
L 272.682797 87.980215 
L 272.727025 85.397105 
L 272.815154 85.397105 
L 272.815154 84.363861 
L 273.909172 84.363861 
L 273.909172 82.297373 
L 279.299273 82.297373 
L 279.299273 81.780751 
L 279.441406 81.780751 
L 279.441406 81.264129 
L 279.900612 81.264129 
L 279.984189 79.714263 
L 281.202241 79.714263 
L 281.202241 79.197641 
L 281.645686 79.197641 
L 281.645686 78.681019 
L 281.779263 78.681019 
L 281.832416 77.131153 
L 282.082754 77.131153 
L 282.082754 76.614531 
L 282.23475 76.614531 
L 282.269311 75.064664 
L 282.351127 75.064664 
L 282.351127 74.548042 
L 282.938544 74.548042 
L 282.938544 74.03142 
L 283.054571 74.03142 
L 283.16164 71.44831 
L 283.247653 71.44831 
L 283.349512 69.381822 
L 283.790921 69.381822 
L 283.790921 68.8652 
L 284.128583 68.8652 
L 284.151905 67.831956 
L 284.345076 67.831956 
L 284.345076 67.315334 
L 284.467618 67.315334 
L 284.467618 66.798712 
L 284.612053 66.798712 
L 284.612053 65.765468 
L 284.736544 65.765468 
L 284.736544 64.732224 
L 284.84897 64.732224 
L 284.930968 63.69898 
L 285.027392 63.69898 
L 285.134332 62.149114 
L 285.411589 62.149114 
L 285.411589 61.11587 
L 285.720224 61.11587 
L 285.720224 60.599248 
L 286.152581 60.599248 
L 286.225364 59.566004 
L 286.304739 59.566004 
L 286.304739 56.982894 
L 286.424856 56.982894 
L 286.489725 55.94965 
L 286.767018 55.94965 
L 286.797192 54.916406 
L 290.672784 54.916406 
L 290.672784 54.399784 
L 291.38385 54.399784 
L 291.38385 53.883162 
L 291.987706 53.883162 
L 292.055223 51.816674 
L 292.398827 51.816674 
L 292.398827 51.300052 
L 292.755159 51.300052 
L 292.755159 50.78343 
L 293.548489 50.78343 
L 293.649219 48.716942 
L 293.91434 48.716942 
L 293.91434 48.20032 
L 294.312488 48.20032 
L 294.312488 47.683698 
L 294.476708 47.683698 
L 294.476708 47.167076 
L 298.012711 47.167076 
L 298.012711 46.650454 
L 298.681363 46.650454 
L 298.681363 45.61721 
L 298.804959 45.61721 
L 298.804959 45.100588 
L 298.954868 45.100588 
L 298.958261 44.067344 
L 299.152252 44.067344 
L 299.152252 43.550722 
L 299.41043 43.550722 
L 299.41043 43.0341 
L 299.788407 43.0341 
L 299.788407 42.517478 
L 299.928714 42.517478 
L 300.034424 41.484233 
L 300.051981 41.484233 
L 300.051981 40.967611 
L 300.264492 40.967611 
L 300.264492 40.450989 
L 302.895481 40.450989 
L 302.895481 39.934367 
L 303.486991 39.934367 
L 303.586755 38.901123 
L 303.644259 38.901123 
L 303.721077 37.867879 
L 304.267405 37.867879 
L 304.267405 37.351257 
L 306.859763 37.351257 
L 306.859763 36.834635 
L 309.635308 36.834635 
L 309.635308 36.318013 
L 312.394088 36.318013 
L 312.394088 35.801391 
L 315.333024 35.801391 
L 315.333024 35.284769 
L 316.91718 35.284769 
L 316.91718 34.768147 
L 358.8 34.768147 
L 358.8 34.768147 
" style="fill:none;stroke:#008000;stroke-linecap:square;stroke-width:1.5;"/>
   </g>
   <g id="line2d_48">
    <defs>
     <path d="M -0 6 
L 6 -6 
L -6 -6 
z
" id="mf023661121" style="stroke:#008000;stroke-linejoin:miter;stroke-width:1.5;"/>
    </defs>
    <g>
     <use style="fill:none;stroke:#008000;stroke-linejoin:miter;stroke-width:1.5;" x="358.8" xlink:href="#mf023661121" y="34.768147"/>
    </g>
   </g>
   <g id="line2d_49"/>
   <g id="line2d_50">
    <path clip-path="url(#pe35e9d67cf)" d="M 276.514286 82.297373 
" style="fill:none;stroke:#008000;stroke-linecap:square;stroke-width:1.5;"/>
    <defs>
     <path d="M -12 12 
L 12 -12 
M -12 -12 
L 12 12 
" id="m4adabe4098" style="stroke:#008000;stroke-width:3;"/>
    </defs>
    <g clip-path="url(#pe35e9d67cf)">
     <use style="fill:#008000;stroke:#008000;stroke-width:3;" x="276.514286" xlink:href="#m4adabe4098" y="82.297373"/>
    </g>
   </g>
   <g id="line2d_51">
    <defs>
     <path d="M 0 1.5 
C 0.397805 1.5 0.77937 1.341951 1.06066 1.06066 
C 1.341951 0.77937 1.5 0.397805 1.5 0 
C 1.5 -0.397805 1.341951 -0.77937 1.06066 -1.06066 
C 0.77937 -1.341951 0.397805 -1.5 0 -1.5 
C -0.397805 -1.5 -0.77937 -1.341951 -1.06066 -1.06066 
C -1.341951 -0.77937 -1.5 -0.397805 -1.5 0 
C -1.5 0.397805 -1.341951 0.77937 -1.06066 1.06066 
C -0.77937 1.341951 -0.397805 1.5 0 1.5 
z
" id="m7f5b6a64e9" style="stroke:#0000ff;"/>
    </defs>
    <g>
     <use style="fill:#0000ff;stroke:#0000ff;" x="332.438848" xlink:href="#m7f5b6a64e9" y="163.923651"/>
     <use style="fill:#0000ff;stroke:#0000ff;" x="332.438848" xlink:href="#m7f5b6a64e9" y="163.923651"/>
    </g>
   </g>
   <g id="line2d_52">
    <path d="M 42.042377 298.245375 
L 42.042377 293.595777 
L 136.713325 293.595777 
L 136.713325 291.012667 
L 149.098559 291.012667 
L 149.098559 288.946179 
L 153.085714 288.946179 
L 153.085714 287.912935 
L 156.343457 287.912935 
L 156.343457 285.329825 
L 165.470948 285.329825 
L 165.470948 283.263337 
L 171.483073 283.263337 
L 171.483073 282.746715 
L 174.952275 282.746715 
L 174.952275 282.230093 
L 194.582407 282.230093 
L 194.582407 281.196849 
L 194.929372 281.196849 
L 194.929372 280.680226 
L 206.967641 280.680226 
L 206.967641 279.13036 
L 207.654961 279.13036 
L 207.654961 278.613738 
L 211.301761 278.613738 
L 211.301761 278.097116 
L 212.107978 278.097116 
L 212.107978 276.54725 
L 212.497843 276.54725 
L 212.497843 275.514006 
L 213.375752 275.514006 
L 213.375752 274.997384 
L 218.728987 274.997384 
L 218.728987 272.414274 
L 221.804401 272.414274 
L 221.804401 271.897652 
L 222.405066 271.897652 
L 222.405066 270.347786 
L 223.891985 270.347786 
L 223.891985 269.314542 
L 224.493212 269.314542 
L 224.493212 268.281298 
L 224.883077 268.281298 
L 224.883077 267.248054 
L 226.124418 267.248054 
L 226.124418 266.21481 
L 229.69912 266.21481 
L 229.69912 265.181566 
L 231.114222 265.181566 
L 231.114222 264.664944 
L 232.04207 264.664944 
L 232.04207 264.148322 
L 232.55141 264.148322 
L 232.55141 263.6317 
L 233.087287 263.6317 
L 233.12785 262.081834 
L 233.488835 262.081834 
L 233.488835 261.565212 
L 234.7903 261.565212 
L 234.7903 261.04859 
L 237.074442 261.04859 
L 237.074442 260.531968 
L 238.32886 260.531968 
L 238.32886 260.015346 
L 238.629171 260.015346 
L 238.629171 259.498724 
L 238.983007 259.498724 
L 238.983007 258.982102 
L 239.838104 258.982102 
L 239.893681 257.948858 
L 239.976725 257.948858 
L 239.976725 256.915614 
L 240.223563 256.915614 
L 240.223563 255.88237 
L 241.409061 255.88237 
L 241.409061 254.849126 
L 243.132917 254.849126 
L 243.132917 253.815882 
L 243.589927 253.815882 
L 243.589927 252.782638 
L 245.040953 252.782638 
L 245.040953 251.749394 
L 245.370708 251.749394 
L 245.370708 251.232772 
L 245.492814 251.232772 
L 245.492814 250.199528 
L 245.674423 250.199528 
L 245.714531 249.166284 
L 246.840148 249.166284 
L 246.840148 248.649662 
L 248.560252 248.649662 
L 248.560252 248.13304 
L 248.764073 248.13304 
L 248.764073 247.616418 
L 250.253945 247.616418 
L 250.253945 246.066551 
L 250.516149 246.066551 
L 250.516149 245.033307 
L 251.971078 245.033307 
L 251.971078 244.000063 
L 252.458357 244.000063 
L 252.458357 243.483441 
L 253.132197 243.483441 
L 253.132197 241.933575 
L 253.290206 241.933575 
L 253.290206 240.383709 
L 253.6407 240.383709 
L 253.679223 238.317221 
L 253.781546 238.317221 
L 253.781546 236.250733 
L 255.759538 236.250733 
L 255.759538 235.734111 
L 256.199357 235.734111 
L 256.199357 234.700867 
L 256.552318 234.700867 
L 256.552318 234.184245 
L 256.672056 234.184245 
L 256.672056 233.667623 
L 257.132573 233.667623 
L 257.174814 232.117757 
L 258.259303 232.117757 
L 258.259303 231.601135 
L 258.583918 231.601135 
L 258.583918 231.084513 
L 259.551537 231.084513 
L 259.560769 229.018025 
L 260.460663 229.018025 
L 260.460663 227.984781 
L 260.894165 227.984781 
L 260.894165 227.468159 
L 261.550104 227.468159 
L 261.550104 226.951537 
L 261.982451 226.951537 
L 261.982451 226.434915 
L 262.182813 226.434915 
L 262.182813 225.918293 
L 262.365183 225.918293 
L 262.365183 222.818561 
L 262.93962 222.818561 
L 262.93962 222.301939 
L 263.332508 222.301939 
L 263.399639 219.202207 
L 263.473935 219.202207 
L 263.473935 218.685585 
L 263.687662 218.685585 
L 263.731564 216.619097 
L 264.468868 216.619097 
L 264.468868 216.102475 
L 264.733379 216.102475 
L 264.733379 215.585853 
L 265.230789 215.585853 
L 265.230789 214.552609 
L 265.471081 214.552609 
L 265.471081 213.519365 
L 265.766972 213.519365 
L 265.766972 213.002743 
L 266.134867 213.002743 
L 266.134867 212.48612 
L 266.451461 212.48612 
L 266.451461 211.969498 
L 267.019731 211.969498 
L 267.02581 210.936254 
L 267.404653 210.936254 
L 267.404653 209.90301 
L 268.04172 209.90301 
L 268.04172 208.869766 
L 268.767457 208.869766 
L 268.767457 208.353144 
L 269.03558 208.353144 
L 269.03558 207.836522 
L 269.315785 207.836522 
L 269.315785 207.3199 
L 269.644233 207.3199 
L 269.649481 205.770034 
L 269.884077 205.770034 
L 269.884077 204.220168 
L 270.679247 204.220168 
L 270.679247 203.703546 
L 271.085747 203.703546 
L 271.158235 202.15368 
L 271.359649 202.15368 
L 271.454768 201.120436 
L 271.927534 201.120436 
L 271.927534 199.57057 
L 272.106792 199.57057 
L 272.106792 199.053948 
L 272.428585 199.053948 
L 272.428585 197.504082 
L 272.616249 197.504082 
L 272.718188 193.887728 
L 272.955262 193.887728 
L 272.955262 192.854484 
L 273.309355 192.854484 
L 273.326449 190.787996 
L 273.530319 190.787996 
L 273.580925 189.754752 
L 284.224782 189.754752 
L 284.224782 189.23813 
L 285.160784 189.23813 
L 285.160784 188.721508 
L 285.548621 188.721508 
L 285.548621 188.204886 
L 286.322636 188.204886 
L 286.390619 187.171642 
L 286.831328 187.171642 
L 286.831328 186.65502 
L 286.973195 186.65502 
L 286.973195 186.138398 
L 287.372708 186.138398 
L 287.469754 183.555288 
L 287.492967 183.555288 
L 287.492967 183.038666 
L 287.60666 183.038666 
L 287.704358 181.4888 
L 293.167487 181.4888 
L 293.167487 180.972178 
L 293.98169 180.972178 
L 293.98169 180.455556 
L 294.756542 180.455556 
L 294.792553 179.422312 
L 295.143693 179.422312 
L 295.166356 178.389067 
L 295.35659 178.389067 
L 295.35659 177.872445 
L 299.697508 177.872445 
L 299.697508 177.355823 
L 300.074303 177.355823 
L 300.074303 176.839201 
L 300.398308 176.839201 
L 300.398308 176.322579 
L 300.535788 176.322579 
L 300.539514 174.772713 
L 304.678224 174.772713 
L 304.678224 174.256091 
L 307.552848 174.256091 
L 307.552848 173.739469 
L 308.06566 173.739469 
L 308.14008 172.706225 
L 310.584908 172.706225 
L 310.584908 172.189603 
L 310.871402 172.189603 
L 310.871402 171.672981 
L 313.323129 171.672981 
L 313.323129 170.639737 
L 315.466564 170.639737 
L 315.466564 170.123115 
L 318.833984 170.123115 
L 318.833984 169.606493 
L 321.900891 169.606493 
L 321.900891 169.089871 
L 322.132444 169.089871 
L 322.132444 168.573249 
L 323.503347 168.573249 
L 323.503347 168.056627 
L 324.579183 168.056627 
L 324.579183 167.540005 
L 324.747229 167.540005 
L 324.747229 167.023383 
L 325.910126 167.023383 
L 325.910126 166.506761 
L 327.001942 166.506761 
L 327.001942 165.990139 
L 327.99684 165.990139 
L 328.030867 164.956895 
L 329.926395 164.956895 
L 329.926395 164.440273 
L 332.438848 164.440273 
L 332.438848 163.923651 
L 358.8 163.923651 
L 358.8 163.923651 
" style="fill:none;stroke:#0000ff;stroke-linecap:square;stroke-width:1.5;"/>
   </g>
   <g id="line2d_53">
    <defs>
     <path d="M 0 -6 
L -1.347084 -1.854102 
L -5.706339 -1.854102 
L -2.179628 0.708204 
L -3.526712 4.854102 
L -0 2.291796 
L 3.526712 4.854102 
L 2.179628 0.708204 
L 5.706339 -1.854102 
L 1.347084 -1.854102 
z
" id="m6956be061a" style="stroke:#0000ff;stroke-linejoin:bevel;stroke-width:1.5;"/>
    </defs>
    <g>
     <use style="fill:none;stroke:#0000ff;stroke-linejoin:bevel;stroke-width:1.5;" x="358.8" xlink:href="#m6956be061a" y="163.923651"/>
    </g>
   </g>
   <g id="line2d_54"/>
   <g id="line2d_55">
    <path clip-path="url(#pe35e9d67cf)" d="M 276.514286 189.754752 
" style="fill:none;stroke:#0000ff;stroke-linecap:square;stroke-width:1.5;"/>
    <defs>
     <path d="M -12 12 
L 12 -12 
M -12 -12 
L 12 12 
" id="m73dcf5cfe2" style="stroke:#0000ff;stroke-width:3;"/>
    </defs>
    <g clip-path="url(#pe35e9d67cf)">
     <use style="fill:#0000ff;stroke:#0000ff;stroke-width:3;" x="276.514286" xlink:href="#m73dcf5cfe2" y="189.754752"/>
    </g>
   </g>
   <g id="line2d_56">
    <defs>
     <path d="M 0 1.5 
C 0.397805 1.5 0.77937 1.341951 1.06066 1.06066 
C 1.341951 0.77937 1.5 0.397805 1.5 0 
C 1.5 -0.397805 1.341951 -0.77937 1.06066 -1.06066 
C 0.77937 -1.341951 0.397805 -1.5 0 -1.5 
C -0.397805 -1.5 -0.77937 -1.341951 -1.06066 -1.06066 
C -1.341951 -0.77937 -1.5 -0.397805 -1.5 0 
C -1.5 0.397805 -1.341951 0.77937 -1.06066 1.06066 
C -0.77937 1.341951 -0.397805 1.5 0 1.5 
z
" id="mfcaded65bb" style="stroke:#000000;"/>
    </defs>
    <g>
     <use style="stroke:#000000;" x="322.0071" xlink:href="#mfcaded65bb" y="220.752073"/>
     <use style="stroke:#000000;" x="322.0071" xlink:href="#mfcaded65bb" y="220.752073"/>
    </g>
   </g>
   <g id="line2d_57">
    <path d="M 136.713325 298.245375 
L 136.713325 296.178887 
L 143.958223 296.178887 
L 143.958223 294.629021 
L 149.098559 294.629021 
L 149.098559 292.045911 
L 159.097839 292.045911 
L 159.097839 291.529289 
L 165.470948 291.529289 
L 165.470948 291.012667 
L 194.929372 291.012667 
L 194.929372 290.496045 
L 199.983597 290.496045 
L 199.983597 289.979423 
L 205.884393 289.979423 
L 205.884393 289.462801 
L 206.791599 289.462801 
L 206.791599 288.946179 
L 207.485594 288.946179 
L 207.485594 288.429557 
L 214.09537 288.429557 
L 214.09537 287.396313 
L 216.714898 287.396313 
L 216.714898 286.879691 
L 218.082525 286.879691 
L 218.082525 286.363069 
L 220.207972 286.363069 
L 220.207972 284.813203 
L 220.620649 284.813203 
L 220.620649 284.296581 
L 221.727878 284.296581 
L 221.804401 282.230093 
L 222.032023 282.230093 
L 222.032023 281.196849 
L 222.405066 281.196849 
L 222.405066 280.680226 
L 222.986194 280.680226 
L 222.986194 280.163604 
L 224.624114 280.163604 
L 224.624114 279.646982 
L 226.421731 279.646982 
L 226.421731 278.097116 
L 226.82983 278.097116 
L 226.82983 277.580494 
L 228.637335 277.580494 
L 228.637335 276.54725 
L 232.04207 276.54725 
L 232.04207 275.514006 
L 233.087287 275.514006 
L 233.12785 274.480762 
L 233.409244 274.480762 
L 233.409244 273.96414 
L 235.371429 273.96414 
L 235.371429 273.447518 
L 239.38715 273.447518 
L 239.38715 272.414274 
L 239.557594 272.414274 
L 239.557594 271.897652 
L 239.726428 271.897652 
L 239.726428 271.38103 
L 240.031873 271.38103 
L 240.031873 270.864408 
L 243.657482 270.864408 
L 243.657482 269.831164 
L 245.061742 269.831164 
L 245.061742 269.314542 
L 246.877726 269.314542 
L 246.877726 268.281298 
L 247.559024 268.281298 
L 247.559024 267.764676 
L 247.827993 267.764676 
L 247.827993 267.248054 
L 249.845334 267.248054 
L 249.845334 266.731432 
L 250.129211 266.731432 
L 250.129211 265.698188 
L 250.546745 265.698188 
L 250.546745 265.181566 
L 250.714094 265.181566 
L 250.714094 264.664944 
L 250.969679 264.664944 
L 250.969679 263.6317 
L 251.455616 263.6317 
L 251.455616 262.598456 
L 255.494991 262.598456 
L 255.541282 261.565212 
L 256.210493 261.565212 
L 256.210493 261.04859 
L 256.61773 261.04859 
L 256.61773 260.015346 
L 257.047789 260.015346 
L 257.047789 259.498724 
L 258.671436 259.498724 
L 258.671436 257.948858 
L 259.055298 257.948858 
L 259.055298 257.432236 
L 259.616059 257.432236 
L 259.616059 256.398992 
L 261.309033 256.398992 
L 261.309033 255.365748 
L 261.434131 255.365748 
L 261.434131 254.849126 
L 262.855391 254.849126 
L 262.93962 252.782638 
L 263.038655 252.782638 
L 263.038655 251.749394 
L 263.272623 251.749394 
L 263.272623 250.71615 
L 263.746175 250.71615 
L 263.746175 250.199528 
L 264.250144 250.199528 
L 264.250144 249.682906 
L 264.398604 249.682906 
L 264.398604 249.166284 
L 265.007646 249.166284 
L 265.089111 248.13304 
L 265.122946 248.13304 
L 265.122946 247.616418 
L 265.603193 247.616418 
L 265.603193 246.583173 
L 266.6139 246.583173 
L 266.713133 244.000063 
L 267.128831 244.000063 
L 267.128831 243.483441 
L 267.635213 243.483441 
L 267.635213 242.966819 
L 267.920736 242.966819 
L 267.920736 242.450197 
L 268.144773 242.450197 
L 268.144773 241.416953 
L 268.500847 241.416953 
L 268.500847 240.900331 
L 268.756427 240.900331 
L 268.756427 240.383709 
L 269.073557 240.383709 
L 269.073557 239.867087 
L 269.27832 239.867087 
L 269.27832 238.833843 
L 270.100288 238.833843 
L 270.100288 238.317221 
L 270.334128 238.317221 
L 270.334128 236.767355 
L 271.525777 236.767355 
L 271.525777 236.250733 
L 273.176314 236.250733 
L 273.176314 235.734111 
L 273.580925 235.734111 
L 273.580925 234.700867 
L 274.238264 234.700867 
L 274.238264 233.667623 
L 284.045155 233.667623 
L 284.084968 232.634379 
L 285.005927 232.634379 
L 285.005927 232.117757 
L 286.075316 232.117757 
L 286.177569 231.084513 
L 287.104068 231.084513 
L 287.104068 230.051269 
L 287.279045 230.051269 
L 287.279045 229.534647 
L 294.631224 229.534647 
L 294.631224 229.018025 
L 294.888657 229.018025 
L 294.888657 228.501403 
L 299.97556 228.501403 
L 299.97556 227.984781 
L 304.195182 227.984781 
L 304.23234 226.951537 
L 304.641242 226.951537 
L 304.641242 226.434915 
L 307.789068 226.434915 
L 307.789068 225.918293 
L 308.072993 225.918293 
L 308.076048 224.885049 
L 310.651146 224.885049 
L 310.651146 224.368427 
L 310.83584 224.368427 
L 310.893331 223.335183 
L 313.117448 223.335183 
L 313.117448 222.818561 
L 313.33087 222.818561 
L 313.33087 222.301939 
L 317.216486 222.301939 
L 317.216486 221.785317 
L 318.960011 221.785317 
L 318.960011 221.268695 
L 322.0071 221.268695 
L 322.0071 220.752073 
L 358.8 220.752073 
L 358.8 220.752073 
" style="fill:none;stroke:#000000;stroke-linecap:square;stroke-width:1.5;"/>
   </g>
   <g id="line2d_58">
    <defs>
     <path d="M 0 6 
C 1.591219 6 3.117479 5.367802 4.242641 4.242641 
C 5.367802 3.117479 6 1.591219 6 0 
C 6 -1.591219 5.367802 -3.117479 4.242641 -4.242641 
C 3.117479 -5.367802 1.591219 -6 0 -6 
C -1.591219 -6 -3.117479 -5.367802 -4.242641 -4.242641 
C -5.367802 -3.117479 -6 -1.591219 -6 0 
C -6 1.591219 -5.367802 3.117479 -4.242641 4.242641 
C -3.117479 5.367802 -1.591219 6 0 6 
z
" id="mb19b83618b" style="stroke:#000000;stroke-width:1.5;"/>
    </defs>
    <g>
     <use style="fill:none;stroke:#000000;stroke-width:1.5;" x="358.8" xlink:href="#mb19b83618b" y="220.752073"/>
    </g>
   </g>
   <g id="line2d_59"/>
   <g id="line2d_60">
    <path clip-path="url(#pe35e9d67cf)" d="M 276.514286 233.667623 
" style="fill:none;stroke:#000000;stroke-linecap:square;stroke-width:1.5;"/>
    <defs>
     <path d="M -12 12 
L 12 -12 
M -12 -12 
L 12 12 
" id="madea672fde" style="stroke:#000000;stroke-width:3;"/>
    </defs>
    <g clip-path="url(#pe35e9d67cf)">
     <use style="stroke:#000000;stroke-width:3;" x="276.514286" xlink:href="#madea672fde" y="233.667623"/>
    </g>
   </g>
   <g id="line2d_61">
    <defs>
     <path d="M 0 1.5 
C 0.397805 1.5 0.77937 1.341951 1.06066 1.06066 
C 1.341951 0.77937 1.5 0.397805 1.5 0 
C 1.5 -0.397805 1.341951 -0.77937 1.06066 -1.06066 
C 0.77937 -1.341951 0.397805 -1.5 0 -1.5 
C -0.397805 -1.5 -0.77937 -1.341951 -1.06066 -1.06066 
C -1.341951 -0.77937 -1.5 -0.397805 -1.5 0 
C -1.5 0.397805 -1.341951 0.77937 -1.06066 1.06066 
C -0.77937 1.341951 -0.397805 1.5 0 1.5 
z
" id="ma91cebcab7" style="stroke:#ff0000;"/>
    </defs>
    <g>
     <use style="fill:#ff0000;stroke:#ff0000;" x="317.648743" xlink:href="#ma91cebcab7" y="251.749394"/>
     <use style="fill:#ff0000;stroke:#ff0000;" x="317.648743" xlink:href="#ma91cebcab7" y="251.749394"/>
    </g>
   </g>
   <g id="line2d_62">
    <path d="M 201.233625 298.245375 
L 201.233625 297.728753 
L 204.531566 297.728753 
L 204.531566 296.695509 
L 209.722023 296.695509 
L 209.722023 296.178887 
L 209.871548 296.178887 
L 209.871548 295.662265 
L 213.497719 295.662265 
L 213.497719 294.629021 
L 215.776997 294.629021 
L 215.776997 294.112399 
L 218.269628 294.112399 
L 218.269628 293.595777 
L 218.638055 293.595777 
L 218.638055 293.079155 
L 222.806614 293.079155 
L 222.806614 291.529289 
L 227.20061 291.529289 
L 227.20061 291.012667 
L 228.135463 291.012667 
L 228.135463 290.496045 
L 234.454914 290.496045 
L 234.454914 289.979423 
L 236.089401 289.979423 
L 236.089401 289.462801 
L 236.862016 289.462801 
L 236.862016 287.912935 
L 237.428278 287.912935 
L 237.428278 287.396313 
L 239.215064 287.396313 
L 239.24386 286.363069 
L 240.493888 286.363069 
L 240.493888 285.846447 
L 241.074587 285.846447 
L 241.074587 284.813203 
L 241.421801 284.813203 
L 241.421801 283.779959 
L 247.783445 283.779959 
L 247.783445 283.263337 
L 248.057868 283.263337 
L 248.057868 282.746715 
L 251.836491 282.746715 
L 251.836491 282.230093 
L 254.953848 282.230093 
L 254.953848 281.713471 
L 255.279324 281.713471 
L 255.279324 280.680226 
L 256.590504 280.680226 
L 256.590504 280.163604 
L 257.452169 280.163604 
L 257.452169 279.13036 
L 259.22068 279.13036 
L 259.230084 278.097116 
L 260.337373 278.097116 
L 260.337373 277.580494 
L 260.46505 277.580494 
L 260.46505 277.063872 
L 261.380029 277.063872 
L 261.380029 276.030628 
L 262.569123 276.030628 
L 262.627522 273.96414 
L 263.938639 273.96414 
L 263.938639 273.447518 
L 264.121903 273.447518 
L 264.1897 271.897652 
L 264.997436 271.897652 
L 264.997436 271.38103 
L 265.119565 271.38103 
L 265.119565 270.347786 
L 265.858036 270.347786 
L 265.858036 269.831164 
L 266.173156 269.831164 
L 266.26535 268.79792 
L 267.65576 268.79792 
L 267.66749 267.764676 
L 269.211222 267.764676 
L 269.211222 267.248054 
L 269.743689 267.248054 
L 269.743689 266.731432 
L 270.237913 266.731432 
L 270.237913 266.21481 
L 270.644537 266.21481 
L 270.748465 265.181566 
L 271.563533 265.181566 
L 271.563533 264.664944 
L 272.284268 264.664944 
L 272.284268 264.148322 
L 273.189232 264.148322 
L 273.189232 262.598456 
L 273.38828 262.598456 
L 273.38828 262.081834 
L 274.891854 262.081834 
L 274.891854 261.04859 
L 275.971879 261.04859 
L 275.971879 260.015346 
L 285.115572 260.015346 
L 285.115572 259.498724 
L 286.035509 259.498724 
L 286.035509 258.982102 
L 287.621061 258.982102 
L 287.621061 258.46548 
L 287.924603 258.46548 
L 287.924603 257.432236 
L 288.192429 257.432236 
L 288.192429 256.915614 
L 288.630375 256.915614 
L 288.630375 256.398992 
L 288.85748 256.398992 
L 288.85748 255.88237 
L 293.649904 255.88237 
L 293.649904 255.365748 
L 295.500419 255.365748 
L 295.500419 254.849126 
L 295.676146 254.849126 
L 295.676146 254.332504 
L 295.965438 254.332504 
L 295.965438 253.815882 
L 296.116402 253.815882 
L 296.116402 253.29926 
L 301.263747 253.29926 
L 301.263747 252.782638 
L 315.739374 252.782638 
L 315.739374 252.266016 
L 317.648743 252.266016 
L 317.648743 251.749394 
L 358.8 251.749394 
L 358.8 251.749394 
" style="fill:none;stroke:#ff0000;stroke-linecap:square;stroke-width:1.5;"/>
   </g>
   <g id="line2d_63">
    <defs>
     <path d="M -6 6 
L 6 6 
L 6 -6 
L -6 -6 
z
" id="m98b808dd1c" style="stroke:#ff0000;stroke-linejoin:miter;stroke-width:1.5;"/>
    </defs>
    <g>
     <use style="fill:none;stroke:#ff0000;stroke-linejoin:miter;stroke-width:1.5;" x="358.8" xlink:href="#m98b808dd1c" y="251.749394"/>
    </g>
   </g>
   <g id="line2d_64"/>
   <g id="line2d_65">
    <path clip-path="url(#pe35e9d67cf)" d="M 276.514286 260.015346 
" style="fill:none;stroke:#ff0000;stroke-linecap:square;stroke-width:1.5;"/>
    <defs>
     <path d="M -12 12 
L 12 -12 
M -12 -12 
L 12 12 
" id="m1af77efd73" style="stroke:#ff0000;stroke-width:3;"/>
    </defs>
    <g clip-path="url(#pe35e9d67cf)">
     <use style="fill:#ff0000;stroke:#ff0000;stroke-width:3;" x="276.514286" xlink:href="#m1af77efd73" y="260.015346"/>
    </g>
   </g>
   <g id="line2d_66">
    <defs>
     <path d="M 0 1.5 
C 0.397805 1.5 0.77937 1.341951 1.06066 1.06066 
C 1.341951 0.77937 1.5 0.397805 1.5 0 
C 1.5 -0.397805 1.341951 -0.77937 1.06066 -1.06066 
C 0.77937 -1.341951 0.397805 -1.5 0 -1.5 
C -0.397805 -1.5 -0.77937 -1.341951 -1.06066 -1.06066 
C -1.341951 -0.77937 -1.5 -0.397805 -1.5 0 
C -1.5 0.397805 -1.341951 0.77937 -1.06066 1.06066 
C -0.77937 1.341951 -0.397805 1.5 0 1.5 
z
" id="m228f3a94ea" style="stroke:#bf00bf;"/>
    </defs>
    <g>
     <use style="fill:#bf00bf;stroke:#bf00bf;" x="320.78697" xlink:href="#m228f3a94ea" y="262.081834"/>
     <use style="fill:#bf00bf;stroke:#bf00bf;" x="320.78697" xlink:href="#m228f3a94ea" y="262.081834"/>
    </g>
   </g>
   <g id="line2d_67">
    <path d="M 246.096036 298.245375 
L 246.096036 297.728753 
L 247.027251 297.728753 
L 247.027251 297.212131 
L 247.48661 297.212131 
L 247.48661 296.695509 
L 247.698497 296.695509 
L 247.698497 296.178887 
L 251.557016 296.178887 
L 251.557016 295.145643 
L 252.389554 295.145643 
L 252.389554 294.629021 
L 254.169484 294.629021 
L 254.169484 293.595777 
L 254.392722 293.595777 
L 254.392722 293.079155 
L 256.863594 293.079155 
L 256.863594 292.562533 
L 256.954594 292.562533 
L 256.954594 291.529289 
L 257.584095 291.529289 
L 257.584095 291.012667 
L 260.693894 291.012667 
L 260.693894 290.496045 
L 260.72851 290.496045 
L 260.72851 288.946179 
L 261.488069 288.946179 
L 261.488069 288.429557 
L 263.671171 288.429557 
L 263.671171 287.912935 
L 263.947666 287.912935 
L 263.947666 287.396313 
L 264.177231 287.396313 
L 264.177231 286.879691 
L 264.554566 286.879691 
L 264.554566 286.363069 
L 264.73856 286.363069 
L 264.73856 285.329825 
L 264.822978 285.329825 
L 264.822978 284.813203 
L 265.061997 284.813203 
L 265.061997 284.296581 
L 265.185372 284.296581 
L 265.185372 283.263337 
L 265.893685 283.263337 
L 265.893685 282.746715 
L 268.519025 282.746715 
L 268.519025 281.713471 
L 268.565085 281.713471 
L 268.565085 281.196849 
L 268.612418 281.196849 
L 268.612418 280.680226 
L 268.766079 280.680226 
L 268.766079 280.163604 
L 269.005684 280.163604 
L 269.005684 279.13036 
L 270.439871 279.13036 
L 270.439871 278.097116 
L 271.154617 278.097116 
L 271.154617 277.580494 
L 271.896326 277.580494 
L 271.896326 277.063872 
L 271.914826 277.063872 
L 271.914826 276.54725 
L 272.402739 276.54725 
L 272.402739 276.030628 
L 273.122387 276.030628 
L 273.122387 275.514006 
L 273.239739 275.514006 
L 273.239739 274.480762 
L 273.727712 274.480762 
L 273.727712 273.96414 
L 273.937402 273.96414 
L 273.937402 272.930896 
L 274.867379 272.930896 
L 274.867379 272.414274 
L 274.915319 272.414274 
L 274.915319 271.897652 
L 275.461834 271.897652 
L 275.461834 271.38103 
L 275.575187 271.38103 
L 275.575187 270.864408 
L 276.195188 270.864408 
L 276.195188 269.831164 
L 276.339217 269.831164 
L 276.339217 269.314542 
L 286.481885 269.314542 
L 286.481885 268.79792 
L 286.687821 268.79792 
L 286.687821 268.281298 
L 286.88691 268.281298 
L 286.88691 267.764676 
L 288.420545 267.764676 
L 288.420545 267.248054 
L 288.824316 267.248054 
L 288.824316 266.731432 
L 295.700281 266.731432 
L 295.700281 266.21481 
L 300.898225 266.21481 
L 300.898225 265.698188 
L 305.237032 265.698188 
L 305.237032 264.664944 
L 311.064185 264.664944 
L 311.064185 263.6317 
L 311.259129 263.6317 
L 311.259129 263.115078 
L 319.220566 263.115078 
L 319.220566 262.598456 
L 320.78697 262.598456 
L 320.78697 262.081834 
L 358.8 262.081834 
" style="fill:none;stroke:#bf00bf;stroke-linecap:square;stroke-width:1.5;"/>
   </g>
   <g id="line2d_68">
    <defs>
     <path d="M -0 8.485281 
L 8.485281 0 
L 0 -8.485281 
L -8.485281 -0 
z
" id="m7941dbb6a4" style="stroke:#bf00bf;stroke-linejoin:miter;stroke-width:1.5;"/>
    </defs>
    <g>
     <use style="fill:none;stroke:#bf00bf;stroke-linejoin:miter;stroke-width:1.5;" x="358.8" xlink:href="#m7941dbb6a4" y="262.081834"/>
    </g>
   </g>
   <g id="line2d_69"/>
   <g id="line2d_70">
    <path clip-path="url(#pe35e9d67cf)" d="M 276.514286 269.314542 
" style="fill:none;stroke:#bf00bf;stroke-linecap:square;stroke-width:1.5;"/>
    <defs>
     <path d="M -12 12 
L 12 -12 
M -12 -12 
L 12 12 
" id="mb454a07738" style="stroke:#bf00bf;stroke-width:3;"/>
    </defs>
    <g clip-path="url(#pe35e9d67cf)">
     <use style="fill:#bf00bf;stroke:#bf00bf;stroke-width:3;" x="276.514286" xlink:href="#mb454a07738" y="269.314542"/>
    </g>
   </g>
   <g id="line2d_71">
    <path d="M 358.8 262.081834 
L 390.48 292.97583 
" style="fill:none;stroke:#bf00bf;stroke-linecap:square;stroke-width:1.5;"/>
    <g>
     <use style="fill:none;stroke:#bf00bf;stroke-linejoin:miter;stroke-width:1.5;" x="358.8" xlink:href="#m7941dbb6a4" y="262.081834"/>
     <use style="fill:none;stroke:#bf00bf;stroke-linejoin:miter;stroke-width:1.5;" x="390.48" xlink:href="#m7941dbb6a4" y="292.97583"/>
    </g>
   </g>
   <g id="line2d_72">
    <path d="M 358.8 251.749394 
L 390.48 242.388203 
" style="fill:none;stroke:#ff0000;stroke-linecap:square;stroke-width:1.5;"/>
    <g>
     <use style="fill:none;stroke:#ff0000;stroke-linejoin:miter;stroke-width:1.5;" x="358.8" xlink:href="#m98b808dd1c" y="251.749394"/>
     <use style="fill:none;stroke:#ff0000;stroke-linejoin:miter;stroke-width:1.5;" x="390.48" xlink:href="#m98b808dd1c" y="242.388203"/>
    </g>
   </g>
   <g id="line2d_73">
    <path d="M 358.8 220.752073 
L 390.48 191.800575 
" style="fill:none;stroke:#000000;stroke-linecap:square;stroke-width:1.5;"/>
    <g>
     <use style="fill:none;stroke:#000000;stroke-width:1.5;" x="358.8" xlink:href="#mb19b83618b" y="220.752073"/>
     <use style="fill:none;stroke:#000000;stroke-width:1.5;" x="390.48" xlink:href="#mb19b83618b" y="191.800575"/>
    </g>
   </g>
   <g id="line2d_74">
    <path d="M 358.8 163.923651 
L 390.48 141.212947 
" style="fill:none;stroke:#0000ff;stroke-linecap:square;stroke-width:1.5;"/>
    <g>
     <use style="fill:none;stroke:#0000ff;stroke-linejoin:bevel;stroke-width:1.5;" x="358.8" xlink:href="#m6956be061a" y="163.923651"/>
     <use style="fill:none;stroke:#0000ff;stroke-linejoin:bevel;stroke-width:1.5;" x="390.48" xlink:href="#m6956be061a" y="141.212947"/>
    </g>
   </g>
   <g id="line2d_75">
    <path d="M 358.8 34.768147 
L 390.48 90.62532 
" style="fill:none;stroke:#008000;stroke-linecap:square;stroke-width:1.5;"/>
    <g>
     <use style="fill:none;stroke:#008000;stroke-linejoin:miter;stroke-width:1.5;" x="358.8" xlink:href="#mf023661121" y="34.768147"/>
     <use style="fill:none;stroke:#008000;stroke-linejoin:miter;stroke-width:1.5;" x="390.48" xlink:href="#mf023661121" y="90.62532"/>
    </g>
   </g>
   <g id="line2d_76">
    <path d="M 358.8 34.768147 
L 390.48 40.037692 
" style="fill:none;stroke:#00bfbf;stroke-linecap:square;stroke-width:1.5;"/>
    <g>
     <use style="fill:none;stroke:#00bfbf;stroke-width:1.5;" x="358.8" xlink:href="#mebf1eee182" y="34.768147"/>
     <use style="fill:none;stroke:#00bfbf;stroke-width:1.5;" x="390.48" xlink:href="#mebf1eee182" y="40.037692"/>
    </g>
   </g>
   <g id="line2d_77">
    <path d="M 358.8 298.245375 
L 358.8 34.768147 
" style="fill:none;stroke:#000000;stroke-linecap:square;stroke-width:1.5;"/>
   </g>
   <g id="patch_3">
    <path d="M 70.8 298.245375 
L 70.8 32.133375 
" style="fill:none;stroke:#000000;stroke-linecap:square;stroke-linejoin:miter;stroke-width:0.8;"/>
   </g>
   <g id="patch_4">
    <path d="M 427.92 298.245375 
L 427.92 32.133375 
" style="fill:none;stroke:#000000;stroke-linecap:square;stroke-linejoin:miter;stroke-width:0.8;"/>
   </g>
   <g id="patch_5">
    <path d="M 70.8 298.245375 
L 427.92 298.245375 
" style="fill:none;stroke:#000000;stroke-linecap:square;stroke-linejoin:miter;stroke-width:0.8;"/>
   </g>
   <g id="patch_6">
    <path d="M 70.8 32.133375 
L 427.92 32.133375 
" style="fill:none;stroke:#000000;stroke-linecap:square;stroke-linejoin:miter;stroke-width:0.8;"/>
   </g>
   <g id="text_14">
    <!-- 40-D -->
    <defs>
     <path d="M 19.671875 64.796875 
L 19.671875 8.109375 
L 31.59375 8.109375 
Q 46.6875 8.109375 53.6875 14.9375 
Q 60.6875 21.78125 60.6875 36.53125 
Q 60.6875 51.171875 53.6875 57.984375 
Q 46.6875 64.796875 31.59375 64.796875 
z
M 9.8125 72.90625 
L 30.078125 72.90625 
Q 51.265625 72.90625 61.171875 64.09375 
Q 71.09375 55.28125 71.09375 36.53125 
Q 71.09375 17.671875 61.125 8.828125 
Q 51.171875 0 30.078125 0 
L 9.8125 0 
z
" id="DejaVuSans-44"/>
    </defs>
    <g transform="translate(396.24 297.114893)scale(0.15 -0.15)">
     <use xlink:href="#DejaVuSans-34"/>
     <use x="63.623047" xlink:href="#DejaVuSans-30"/>
     <use x="127.246094" xlink:href="#DejaVuSans-2d"/>
     <use x="163.330078" xlink:href="#DejaVuSans-44"/>
    </g>
   </g>
   <g id="text_15">
    <!-- 20-D -->
    <g transform="translate(396.24 246.527265)scale(0.15 -0.15)">
     <use xlink:href="#DejaVuSans-32"/>
     <use x="63.623047" xlink:href="#DejaVuSans-30"/>
     <use x="127.246094" xlink:href="#DejaVuSans-2d"/>
     <use x="163.330078" xlink:href="#DejaVuSans-44"/>
    </g>
   </g>
   <g id="text_16">
    <!-- 10-D -->
    <g transform="translate(396.24 195.939637)scale(0.15 -0.15)">
     <use xlink:href="#DejaVuSans-31"/>
     <use x="63.623047" xlink:href="#DejaVuSans-30"/>
     <use x="127.246094" xlink:href="#DejaVuSans-2d"/>
     <use x="163.330078" xlink:href="#DejaVuSans-44"/>
    </g>
   </g>
   <g id="text_17">
    <!-- 5-D -->
    <defs>
     <path d="M 10.796875 72.90625 
L 49.515625 72.90625 
L 49.515625 64.59375 
L 19.828125 64.59375 
L 19.828125 46.734375 
Q 21.96875 47.46875 24.109375 47.828125 
Q 26.265625 48.1875 28.421875 48.1875 
Q 40.625 48.1875 47.75 41.5 
Q 54.890625 34.8125 54.890625 23.390625 
Q 54.890625 11.625 47.5625 5.09375 
Q 40.234375 -1.421875 26.90625 -1.421875 
Q 22.3125 -1.421875 17.546875 -0.640625 
Q 12.796875 0.140625 7.71875 1.703125 
L 7.71875 11.625 
Q 12.109375 9.234375 16.796875 8.0625 
Q 21.484375 6.890625 26.703125 6.890625 
Q 35.15625 6.890625 40.078125 11.328125 
Q 45.015625 15.765625 45.015625 23.390625 
Q 45.015625 31 40.078125 35.4375 
Q 35.15625 39.890625 26.703125 39.890625 
Q 22.75 39.890625 18.8125 39.015625 
Q 14.890625 38.140625 10.796875 36.28125 
z
" id="DejaVuSans-35"/>
    </defs>
    <g transform="translate(396.24 145.35201)scale(0.15 -0.15)">
     <use xlink:href="#DejaVuSans-35"/>
     <use x="63.623047" xlink:href="#DejaVuSans-2d"/>
     <use x="99.707031" xlink:href="#DejaVuSans-44"/>
    </g>
   </g>
   <g id="text_18">
    <!-- 3-D -->
    <defs>
     <path d="M 40.578125 39.3125 
Q 47.65625 37.796875 51.625 33 
Q 55.609375 28.21875 55.609375 21.1875 
Q 55.609375 10.40625 48.1875 4.484375 
Q 40.765625 -1.421875 27.09375 -1.421875 
Q 22.515625 -1.421875 17.65625 -0.515625 
Q 12.796875 0.390625 7.625 2.203125 
L 7.625 11.71875 
Q 11.71875 9.328125 16.59375 8.109375 
Q 21.484375 6.890625 26.8125 6.890625 
Q 36.078125 6.890625 40.9375 10.546875 
Q 45.796875 14.203125 45.796875 21.1875 
Q 45.796875 27.640625 41.28125 31.265625 
Q 36.765625 34.90625 28.71875 34.90625 
L 20.21875 34.90625 
L 20.21875 43.015625 
L 29.109375 43.015625 
Q 36.375 43.015625 40.234375 45.921875 
Q 44.09375 48.828125 44.09375 54.296875 
Q 44.09375 59.90625 40.109375 62.90625 
Q 36.140625 65.921875 28.71875 65.921875 
Q 24.65625 65.921875 20.015625 65.03125 
Q 15.375 64.15625 9.8125 62.3125 
L 9.8125 71.09375 
Q 15.4375 72.65625 20.34375 73.4375 
Q 25.25 74.21875 29.59375 74.21875 
Q 40.828125 74.21875 47.359375 69.109375 
Q 53.90625 64.015625 53.90625 55.328125 
Q 53.90625 49.265625 50.4375 45.09375 
Q 46.96875 40.921875 40.578125 39.3125 
" id="DejaVuSans-33"/>
    </defs>
    <g transform="translate(396.24 94.764382)scale(0.15 -0.15)">
     <use xlink:href="#DejaVuSans-33"/>
     <use x="63.623047" xlink:href="#DejaVuSans-2d"/>
     <use x="99.707031" xlink:href="#DejaVuSans-44"/>
    </g>
   </g>
   <g id="text_19">
    <!-- 2-D -->
    <g transform="translate(396.24 44.176754)scale(0.15 -0.15)">
     <use xlink:href="#DejaVuSans-32"/>
     <use x="63.623047" xlink:href="#DejaVuSans-2d"/>
     <use x="99.707031" xlink:href="#DejaVuSans-44"/>
    </g>
   </g>
   <g id="text_20">
    <!-- bbob - f11 -->
    <defs>
     <path d="M 48.6875 27.296875 
Q 48.6875 37.203125 44.609375 42.84375 
Q 40.53125 48.484375 33.40625 48.484375 
Q 26.265625 48.484375 22.1875 42.84375 
Q 18.109375 37.203125 18.109375 27.296875 
Q 18.109375 17.390625 22.1875 11.75 
Q 26.265625 6.109375 33.40625 6.109375 
Q 40.53125 6.109375 44.609375 11.75 
Q 48.6875 17.390625 48.6875 27.296875 
M 18.109375 46.390625 
Q 20.953125 51.265625 25.265625 53.625 
Q 29.59375 56 35.59375 56 
Q 45.5625 56 51.78125 48.09375 
Q 58.015625 40.1875 58.015625 27.296875 
Q 58.015625 14.40625 51.78125 6.484375 
Q 45.5625 -1.421875 35.59375 -1.421875 
Q 29.59375 -1.421875 25.265625 0.953125 
Q 20.953125 3.328125 18.109375 8.203125 
L 18.109375 0 
L 9.078125 0 
L 9.078125 75.984375 
L 18.109375 75.984375 
z
" id="DejaVuSans-62"/>
    </defs>
    <g transform="translate(74.3712 50.114612)scale(0.1666 -0.1666)">
     <use xlink:href="#DejaVuSans-62"/>
     <use x="63.476562" xlink:href="#DejaVuSans-62"/>
     <use x="126.953125" xlink:href="#DejaVuSans-6f"/>
     <use x="188.134766" xlink:href="#DejaVuSans-62"/>
     <use x="251.611328" xlink:href="#DejaVuSans-20"/>
     <use x="283.398438" xlink:href="#DejaVuSans-2d"/>
     <use x="319.482422" xlink:href="#DejaVuSans-20"/>
     <use x="351.269531" xlink:href="#DejaVuSans-66"/>
     <use x="386.474609" xlink:href="#DejaVuSans-31"/>
     <use x="450.097656" xlink:href="#DejaVuSans-31"/>
    </g>
    <!-- 51 targets in 100..1e-08 -->
    <g transform="translate(74.3712 68.770168)scale(0.1666 -0.1666)">
     <use xlink:href="#DejaVuSans-35"/>
     <use x="63.623047" xlink:href="#DejaVuSans-31"/>
     <use x="127.246094" xlink:href="#DejaVuSans-20"/>
     <use x="159.033203" xlink:href="#DejaVuSans-74"/>
     <use x="198.242188" xlink:href="#DejaVuSans-61"/>
     <use x="259.521484" xlink:href="#DejaVuSans-72"/>
     <use x="300.619141" xlink:href="#DejaVuSans-67"/>
     <use x="364.095703" xlink:href="#DejaVuSans-65"/>
     <use x="425.619141" xlink:href="#DejaVuSans-74"/>
     <use x="464.828125" xlink:href="#DejaVuSans-73"/>
     <use x="516.927734" xlink:href="#DejaVuSans-20"/>
     <use x="548.714844" xlink:href="#DejaVuSans-69"/>
     <use x="576.498047" xlink:href="#DejaVuSans-6e"/>
     <use x="639.876953" xlink:href="#DejaVuSans-20"/>
     <use x="671.664062" xlink:href="#DejaVuSans-31"/>
     <use x="735.287109" xlink:href="#DejaVuSans-30"/>
     <use x="798.910156" xlink:href="#DejaVuSans-30"/>
     <use x="862.533203" xlink:href="#DejaVuSans-2e"/>
     <use x="894.320312" xlink:href="#DejaVuSans-2e"/>
     <use x="926.107422" xlink:href="#DejaVuSans-31"/>
     <use x="989.730469" xlink:href="#DejaVuSans-65"/>
     <use x="1051.253906" xlink:href="#DejaVuSans-2d"/>
     <use x="1087.337891" xlink:href="#DejaVuSans-30"/>
     <use x="1150.960938" xlink:href="#DejaVuSans-38"/>
    </g>
    <!-- 15 instances -->
    <g transform="translate(74.3712 87.425723)scale(0.1666 -0.1666)">
     <use xlink:href="#DejaVuSans-31"/>
     <use x="63.623047" xlink:href="#DejaVuSans-35"/>
     <use x="127.246094" xlink:href="#DejaVuSans-20"/>
     <use x="159.033203" xlink:href="#DejaVuSans-69"/>
     <use x="186.816406" xlink:href="#DejaVuSans-6e"/>
     <use x="250.195312" xlink:href="#DejaVuSans-73"/>
     <use x="302.294922" xlink:href="#DejaVuSans-74"/>
     <use x="341.503906" xlink:href="#DejaVuSans-61"/>
     <use x="402.783203" xlink:href="#DejaVuSans-6e"/>
     <use x="466.162109" xlink:href="#DejaVuSans-63"/>
     <use x="521.142578" xlink:href="#DejaVuSans-65"/>
     <use x="582.666016" xlink:href="#DejaVuSans-73"/>
    </g>
   </g>
   <g id="text_21">
    <!-- v2.0.1 -->
    <g style="fill:#808080;" transform="translate(233.67875 293.504568)scale(0.1 -0.1)">
     <use xlink:href="#DejaVuSans-76"/>
     <use x="59.179688" xlink:href="#DejaVuSans-32"/>
     <use x="122.802734" xlink:href="#DejaVuSans-2e"/>
     <use x="154.589844" xlink:href="#DejaVuSans-30"/>
     <use x="218.212891" xlink:href="#DejaVuSans-2e"/>
     <use x="250" xlink:href="#DejaVuSans-31"/>
    </g>
   </g>
   <g id="text_22">
    <!-- 11 Discus -->
    <g transform="translate(190.996875 26.133375)scale(0.24 -0.24)">
     <use xlink:href="#DejaVuSans-31"/>
     <use x="63.623047" xlink:href="#DejaVuSans-31"/>
     <use x="127.246094" xlink:href="#DejaVuSans-20"/>
     <use x="159.033203" xlink:href="#DejaVuSans-44"/>
     <use x="236.035156" xlink:href="#DejaVuSans-69"/>
     <use x="263.818359" xlink:href="#DejaVuSans-73"/>
     <use x="315.917969" xlink:href="#DejaVuSans-63"/>
     <use x="370.898438" xlink:href="#DejaVuSans-75"/>
     <use x="434.277344" xlink:href="#DejaVuSans-73"/>
    </g>
   </g>
  </g>
 </g>
 <defs>
  <clipPath id="pe35e9d67cf">
   <rect height="266.112" width="357.12" x="70.8" y="32.133375"/>
  </clipPath>
 </defs>
</svg>
