<?xml version="1.0" encoding="utf-8" standalone="no"?>
<!DOCTYPE svg PUBLIC "-//W3C//DTD SVG 1.1//EN"
  "http://www.w3.org/Graphics/SVG/1.1/DTD/svg11.dtd">
<!-- Created with matplotlib (http://matplotlib.org/) -->
<svg height="353pt" version="1.1" viewBox="0 0 438 353" width="438pt" xmlns="http://www.w3.org/2000/svg" xmlns:xlink="http://www.w3.org/1999/xlink">
 <defs>
  <style type="text/css">
*{stroke-linecap:butt;stroke-linejoin:round;}
  </style>
 </defs>
 <g id="figure_1">
  <g id="patch_1">
   <path d="M 0 353.22225 
L 438.62 353.22225 
L 438.62 0 
L 0 0 
z
" style="fill:#ffffff;"/>
  </g>
  <g id="axes_1">
   <g id="patch_2">
    <path d="M 70.8 298.245375 
L 427.92 298.245375 
L 427.92 32.133375 
L 70.8 32.133375 
z
" style="fill:#ffffff;"/>
   </g>
   <g id="matplotlib.axis_1">
    <g id="xtick_1">
     <g id="line2d_1">
      <path clip-path="url(#p81492a35db)" d="M 70.8 298.245375 
L 70.8 32.133375 
" style="fill:none;stroke:#b0b0b0;stroke-linecap:square;stroke-width:0.8;"/>
     </g>
     <g id="line2d_2">
      <defs>
       <path d="M 0 0 
L 0 3.5 
" id="m0b284a669d" style="stroke:#000000;stroke-width:0.8;"/>
      </defs>
      <g>
       <use style="stroke:#000000;stroke-width:0.8;" x="70.8" xlink:href="#m0b284a669d" y="298.245375"/>
      </g>
     </g>
     <g id="text_1">
      <!-- 0 -->
      <defs>
       <path d="M 31.78125 66.40625 
Q 24.171875 66.40625 20.328125 58.90625 
Q 16.5 51.421875 16.5 36.375 
Q 16.5 21.390625 20.328125 13.890625 
Q 24.171875 6.390625 31.78125 6.390625 
Q 39.453125 6.390625 43.28125 13.890625 
Q 47.125 21.390625 47.125 36.375 
Q 47.125 51.421875 43.28125 58.90625 
Q 39.453125 66.40625 31.78125 66.40625 
M 31.78125 74.21875 
Q 44.046875 74.21875 50.515625 64.515625 
Q 56.984375 54.828125 56.984375 36.375 
Q 56.984375 17.96875 50.515625 8.265625 
Q 44.046875 -1.421875 31.78125 -1.421875 
Q 19.53125 -1.421875 13.0625 8.265625 
Q 6.59375 17.96875 6.59375 36.375 
Q 6.59375 54.828125 13.0625 64.515625 
Q 19.53125 74.21875 31.78125 74.21875 
" id="DejaVuSans-30"/>
      </defs>
      <g transform="translate(64.4375 320.44225)scale(0.2 -0.2)">
       <use xlink:href="#DejaVuSans-30"/>
      </g>
     </g>
    </g>
    <g id="xtick_2">
     <g id="line2d_3">
      <path clip-path="url(#p81492a35db)" d="M 153.085714 298.245375 
L 153.085714 32.133375 
" style="fill:none;stroke:#b0b0b0;stroke-linecap:square;stroke-width:0.8;"/>
     </g>
     <g id="line2d_4">
      <g>
       <use style="stroke:#000000;stroke-width:0.8;" x="153.085714" xlink:href="#m0b284a669d" y="298.245375"/>
      </g>
     </g>
     <g id="text_2">
      <!-- 2 -->
      <defs>
       <path d="M 19.1875 8.296875 
L 53.609375 8.296875 
L 53.609375 0 
L 7.328125 0 
L 7.328125 8.296875 
Q 12.9375 14.109375 22.625 23.890625 
Q 32.328125 33.6875 34.8125 36.53125 
Q 39.546875 41.84375 41.421875 45.53125 
Q 43.3125 49.21875 43.3125 52.78125 
Q 43.3125 58.59375 39.234375 62.25 
Q 35.15625 65.921875 28.609375 65.921875 
Q 23.96875 65.921875 18.8125 64.3125 
Q 13.671875 62.703125 7.8125 59.421875 
L 7.8125 69.390625 
Q 13.765625 71.78125 18.9375 73 
Q 24.125 74.21875 28.421875 74.21875 
Q 39.75 74.21875 46.484375 68.546875 
Q 53.21875 62.890625 53.21875 53.421875 
Q 53.21875 48.921875 51.53125 44.890625 
Q 49.859375 40.875 45.40625 35.40625 
Q 44.1875 33.984375 37.640625 27.21875 
Q 31.109375 20.453125 19.1875 8.296875 
" id="DejaVuSans-32"/>
      </defs>
      <g transform="translate(146.723214 320.44225)scale(0.2 -0.2)">
       <use xlink:href="#DejaVuSans-32"/>
      </g>
     </g>
    </g>
    <g id="xtick_3">
     <g id="line2d_5">
      <path clip-path="url(#p81492a35db)" d="M 235.371429 298.245375 
L 235.371429 32.133375 
" style="fill:none;stroke:#b0b0b0;stroke-linecap:square;stroke-width:0.8;"/>
     </g>
     <g id="line2d_6">
      <g>
       <use style="stroke:#000000;stroke-width:0.8;" x="235.371429" xlink:href="#m0b284a669d" y="298.245375"/>
      </g>
     </g>
     <g id="text_3">
      <!-- 4 -->
      <defs>
       <path d="M 37.796875 64.3125 
L 12.890625 25.390625 
L 37.796875 25.390625 
z
M 35.203125 72.90625 
L 47.609375 72.90625 
L 47.609375 25.390625 
L 58.015625 25.390625 
L 58.015625 17.1875 
L 47.609375 17.1875 
L 47.609375 0 
L 37.796875 0 
L 37.796875 17.1875 
L 4.890625 17.1875 
L 4.890625 26.703125 
z
" id="DejaVuSans-34"/>
      </defs>
      <g transform="translate(229.008929 320.44225)scale(0.2 -0.2)">
       <use xlink:href="#DejaVuSans-34"/>
      </g>
     </g>
    </g>
    <g id="xtick_4">
     <g id="line2d_7">
      <path clip-path="url(#p81492a35db)" d="M 317.657143 298.245375 
L 317.657143 32.133375 
" style="fill:none;stroke:#b0b0b0;stroke-linecap:square;stroke-width:0.8;"/>
     </g>
     <g id="line2d_8">
      <g>
       <use style="stroke:#000000;stroke-width:0.8;" x="317.657143" xlink:href="#m0b284a669d" y="298.245375"/>
      </g>
     </g>
     <g id="text_4">
      <!-- 6 -->
      <defs>
       <path d="M 33.015625 40.375 
Q 26.375 40.375 22.484375 35.828125 
Q 18.609375 31.296875 18.609375 23.390625 
Q 18.609375 15.53125 22.484375 10.953125 
Q 26.375 6.390625 33.015625 6.390625 
Q 39.65625 6.390625 43.53125 10.953125 
Q 47.40625 15.53125 47.40625 23.390625 
Q 47.40625 31.296875 43.53125 35.828125 
Q 39.65625 40.375 33.015625 40.375 
M 52.59375 71.296875 
L 52.59375 62.3125 
Q 48.875 64.0625 45.09375 64.984375 
Q 41.3125 65.921875 37.59375 65.921875 
Q 27.828125 65.921875 22.671875 59.328125 
Q 17.53125 52.734375 16.796875 39.40625 
Q 19.671875 43.65625 24.015625 45.921875 
Q 28.375 48.1875 33.59375 48.1875 
Q 44.578125 48.1875 50.953125 41.515625 
Q 57.328125 34.859375 57.328125 23.390625 
Q 57.328125 12.15625 50.6875 5.359375 
Q 44.046875 -1.421875 33.015625 -1.421875 
Q 20.359375 -1.421875 13.671875 8.265625 
Q 6.984375 17.96875 6.984375 36.375 
Q 6.984375 53.65625 15.1875 63.9375 
Q 23.390625 74.21875 37.203125 74.21875 
Q 40.921875 74.21875 44.703125 73.484375 
Q 48.484375 72.75 52.59375 71.296875 
" id="DejaVuSans-36"/>
      </defs>
      <g transform="translate(311.294643 320.44225)scale(0.2 -0.2)">
       <use xlink:href="#DejaVuSans-36"/>
      </g>
     </g>
    </g>
    <g id="xtick_5">
     <g id="line2d_9">
      <path clip-path="url(#p81492a35db)" d="M 399.942857 298.245375 
L 399.942857 32.133375 
" style="fill:none;stroke:#b0b0b0;stroke-linecap:square;stroke-width:0.8;"/>
     </g>
     <g id="line2d_10">
      <g>
       <use style="stroke:#000000;stroke-width:0.8;" x="399.942857" xlink:href="#m0b284a669d" y="298.245375"/>
      </g>
     </g>
     <g id="text_5">
      <!-- 8 -->
      <defs>
       <path d="M 31.78125 34.625 
Q 24.75 34.625 20.71875 30.859375 
Q 16.703125 27.09375 16.703125 20.515625 
Q 16.703125 13.921875 20.71875 10.15625 
Q 24.75 6.390625 31.78125 6.390625 
Q 38.8125 6.390625 42.859375 10.171875 
Q 46.921875 13.96875 46.921875 20.515625 
Q 46.921875 27.09375 42.890625 30.859375 
Q 38.875 34.625 31.78125 34.625 
M 21.921875 38.8125 
Q 15.578125 40.375 12.03125 44.71875 
Q 8.5 49.078125 8.5 55.328125 
Q 8.5 64.0625 14.71875 69.140625 
Q 20.953125 74.21875 31.78125 74.21875 
Q 42.671875 74.21875 48.875 69.140625 
Q 55.078125 64.0625 55.078125 55.328125 
Q 55.078125 49.078125 51.53125 44.71875 
Q 48 40.375 41.703125 38.8125 
Q 48.828125 37.15625 52.796875 32.3125 
Q 56.78125 27.484375 56.78125 20.515625 
Q 56.78125 9.90625 50.3125 4.234375 
Q 43.84375 -1.421875 31.78125 -1.421875 
Q 19.734375 -1.421875 13.25 4.234375 
Q 6.78125 9.90625 6.78125 20.515625 
Q 6.78125 27.484375 10.78125 32.3125 
Q 14.796875 37.15625 21.921875 38.8125 
M 18.3125 54.390625 
Q 18.3125 48.734375 21.84375 45.5625 
Q 25.390625 42.390625 31.78125 42.390625 
Q 38.140625 42.390625 41.71875 45.5625 
Q 45.3125 48.734375 45.3125 54.390625 
Q 45.3125 60.0625 41.71875 63.234375 
Q 38.140625 66.40625 31.78125 66.40625 
Q 25.390625 66.40625 21.84375 63.234375 
Q 18.3125 60.0625 18.3125 54.390625 
" id="DejaVuSans-38"/>
      </defs>
      <g transform="translate(393.580357 320.44225)scale(0.2 -0.2)">
       <use xlink:href="#DejaVuSans-38"/>
      </g>
     </g>
    </g>
    <g id="xtick_6">
     <g id="line2d_11">
      <defs>
       <path d="M 0 0 
L 0 2 
" id="mf7fc95f25c" style="stroke:#000000;stroke-width:0.6;"/>
      </defs>
      <g>
       <use style="stroke:#000000;stroke-width:0.6;" x="83.185234" xlink:href="#mf7fc95f25c" y="298.245375"/>
      </g>
     </g>
    </g>
    <g id="xtick_7">
     <g id="line2d_12">
      <g>
       <use style="stroke:#000000;stroke-width:0.6;" x="95.570468" xlink:href="#mf7fc95f25c" y="298.245375"/>
      </g>
     </g>
    </g>
    <g id="xtick_8">
     <g id="line2d_13">
      <g>
       <use style="stroke:#000000;stroke-width:0.6;" x="102.815366" xlink:href="#mf7fc95f25c" y="298.245375"/>
      </g>
     </g>
    </g>
    <g id="xtick_9">
     <g id="line2d_14">
      <g>
       <use style="stroke:#000000;stroke-width:0.6;" x="107.955702" xlink:href="#mf7fc95f25c" y="298.245375"/>
      </g>
     </g>
    </g>
    <g id="xtick_10">
     <g id="line2d_15">
      <g>
       <use style="stroke:#000000;stroke-width:0.6;" x="165.470948" xlink:href="#mf7fc95f25c" y="298.245375"/>
      </g>
     </g>
    </g>
    <g id="xtick_11">
     <g id="line2d_16">
      <g>
       <use style="stroke:#000000;stroke-width:0.6;" x="177.856183" xlink:href="#mf7fc95f25c" y="298.245375"/>
      </g>
     </g>
    </g>
    <g id="xtick_12">
     <g id="line2d_17">
      <g>
       <use style="stroke:#000000;stroke-width:0.6;" x="185.10108" xlink:href="#mf7fc95f25c" y="298.245375"/>
      </g>
     </g>
    </g>
    <g id="xtick_13">
     <g id="line2d_18">
      <g>
       <use style="stroke:#000000;stroke-width:0.6;" x="190.241417" xlink:href="#mf7fc95f25c" y="298.245375"/>
      </g>
     </g>
    </g>
    <g id="xtick_14">
     <g id="line2d_19">
      <g>
       <use style="stroke:#000000;stroke-width:0.6;" x="247.756663" xlink:href="#mf7fc95f25c" y="298.245375"/>
      </g>
     </g>
    </g>
    <g id="xtick_15">
     <g id="line2d_20">
      <g>
       <use style="stroke:#000000;stroke-width:0.6;" x="260.141897" xlink:href="#mf7fc95f25c" y="298.245375"/>
      </g>
     </g>
    </g>
    <g id="xtick_16">
     <g id="line2d_21">
      <g>
       <use style="stroke:#000000;stroke-width:0.6;" x="267.386794" xlink:href="#mf7fc95f25c" y="298.245375"/>
      </g>
     </g>
    </g>
    <g id="xtick_17">
     <g id="line2d_22">
      <g>
       <use style="stroke:#000000;stroke-width:0.6;" x="272.527131" xlink:href="#mf7fc95f25c" y="298.245375"/>
      </g>
     </g>
    </g>
    <g id="xtick_18">
     <g id="line2d_23">
      <g>
       <use style="stroke:#000000;stroke-width:0.6;" x="330.042377" xlink:href="#mf7fc95f25c" y="298.245375"/>
      </g>
     </g>
    </g>
    <g id="xtick_19">
     <g id="line2d_24">
      <g>
       <use style="stroke:#000000;stroke-width:0.6;" x="342.427611" xlink:href="#mf7fc95f25c" y="298.245375"/>
      </g>
     </g>
    </g>
    <g id="xtick_20">
     <g id="line2d_25">
      <g>
       <use style="stroke:#000000;stroke-width:0.6;" x="349.672509" xlink:href="#mf7fc95f25c" y="298.245375"/>
      </g>
     </g>
    </g>
    <g id="xtick_21">
     <g id="line2d_26">
      <g>
       <use style="stroke:#000000;stroke-width:0.6;" x="354.812845" xlink:href="#mf7fc95f25c" y="298.245375"/>
      </g>
     </g>
    </g>
    <g id="xtick_22">
     <g id="line2d_27">
      <g>
       <use style="stroke:#000000;stroke-width:0.6;" x="412.328091" xlink:href="#mf7fc95f25c" y="298.245375"/>
      </g>
     </g>
    </g>
    <g id="xtick_23">
     <g id="line2d_28">
      <g>
       <use style="stroke:#000000;stroke-width:0.6;" x="424.713325" xlink:href="#mf7fc95f25c" y="298.245375"/>
      </g>
     </g>
    </g>
    <g id="text_6">
     <!-- log10 of (# f-evals / dimension) -->
     <defs>
      <path d="M 9.421875 75.984375 
L 18.40625 75.984375 
L 18.40625 0 
L 9.421875 0 
z
" id="DejaVuSans-6c"/>
      <path d="M 30.609375 48.390625 
Q 23.390625 48.390625 19.1875 42.75 
Q 14.984375 37.109375 14.984375 27.296875 
Q 14.984375 17.484375 19.15625 11.84375 
Q 23.34375 6.203125 30.609375 6.203125 
Q 37.796875 6.203125 41.984375 11.859375 
Q 46.1875 17.53125 46.1875 27.296875 
Q 46.1875 37.015625 41.984375 42.703125 
Q 37.796875 48.390625 30.609375 48.390625 
M 30.609375 56 
Q 42.328125 56 49.015625 48.375 
Q 55.71875 40.765625 55.71875 27.296875 
Q 55.71875 13.875 49.015625 6.21875 
Q 42.328125 -1.421875 30.609375 -1.421875 
Q 18.84375 -1.421875 12.171875 6.21875 
Q 5.515625 13.875 5.515625 27.296875 
Q 5.515625 40.765625 12.171875 48.375 
Q 18.84375 56 30.609375 56 
" id="DejaVuSans-6f"/>
      <path d="M 45.40625 27.984375 
Q 45.40625 37.75 41.375 43.109375 
Q 37.359375 48.484375 30.078125 48.484375 
Q 22.859375 48.484375 18.828125 43.109375 
Q 14.796875 37.75 14.796875 27.984375 
Q 14.796875 18.265625 18.828125 12.890625 
Q 22.859375 7.515625 30.078125 7.515625 
Q 37.359375 7.515625 41.375 12.890625 
Q 45.40625 18.265625 45.40625 27.984375 
M 54.390625 6.78125 
Q 54.390625 -7.171875 48.1875 -13.984375 
Q 42 -20.796875 29.203125 -20.796875 
Q 24.46875 -20.796875 20.265625 -20.09375 
Q 16.0625 -19.390625 12.109375 -17.921875 
L 12.109375 -9.1875 
Q 16.0625 -11.328125 19.921875 -12.34375 
Q 23.78125 -13.375 27.78125 -13.375 
Q 36.625 -13.375 41.015625 -8.765625 
Q 45.40625 -4.15625 45.40625 5.171875 
L 45.40625 9.625 
Q 42.625 4.78125 38.28125 2.390625 
Q 33.9375 0 27.875 0 
Q 17.828125 0 11.671875 7.65625 
Q 5.515625 15.328125 5.515625 27.984375 
Q 5.515625 40.671875 11.671875 48.328125 
Q 17.828125 56 27.875 56 
Q 33.9375 56 38.28125 53.609375 
Q 42.625 51.21875 45.40625 46.390625 
L 45.40625 54.6875 
L 54.390625 54.6875 
z
" id="DejaVuSans-67"/>
      <path d="M 12.40625 8.296875 
L 28.515625 8.296875 
L 28.515625 63.921875 
L 10.984375 60.40625 
L 10.984375 69.390625 
L 28.421875 72.90625 
L 38.28125 72.90625 
L 38.28125 8.296875 
L 54.390625 8.296875 
L 54.390625 0 
L 12.40625 0 
z
" id="DejaVuSans-31"/>
      <path id="DejaVuSans-20"/>
      <path d="M 37.109375 75.984375 
L 37.109375 68.5 
L 28.515625 68.5 
Q 23.6875 68.5 21.796875 66.546875 
Q 19.921875 64.59375 19.921875 59.515625 
L 19.921875 54.6875 
L 34.71875 54.6875 
L 34.71875 47.703125 
L 19.921875 47.703125 
L 19.921875 0 
L 10.890625 0 
L 10.890625 47.703125 
L 2.296875 47.703125 
L 2.296875 54.6875 
L 10.890625 54.6875 
L 10.890625 58.5 
Q 10.890625 67.625 15.140625 71.796875 
Q 19.390625 75.984375 28.609375 75.984375 
z
" id="DejaVuSans-66"/>
      <path d="M 31 75.875 
Q 24.46875 64.65625 21.28125 53.65625 
Q 18.109375 42.671875 18.109375 31.390625 
Q 18.109375 20.125 21.3125 9.0625 
Q 24.515625 -2 31 -13.1875 
L 23.1875 -13.1875 
Q 15.875 -1.703125 12.234375 9.375 
Q 8.59375 20.453125 8.59375 31.390625 
Q 8.59375 42.28125 12.203125 53.3125 
Q 15.828125 64.359375 23.1875 75.875 
z
" id="DejaVuSans-28"/>
      <path d="M 51.125 44 
L 36.921875 44 
L 32.8125 27.6875 
L 47.125 27.6875 
z
M 43.796875 71.78125 
L 38.71875 51.515625 
L 52.984375 51.515625 
L 58.109375 71.78125 
L 65.921875 71.78125 
L 60.890625 51.515625 
L 76.125 51.515625 
L 76.125 44 
L 58.984375 44 
L 54.984375 27.6875 
L 70.515625 27.6875 
L 70.515625 20.21875 
L 53.078125 20.21875 
L 48 0 
L 40.1875 0 
L 45.21875 20.21875 
L 30.90625 20.21875 
L 25.875 0 
L 18.015625 0 
L 23.09375 20.21875 
L 7.71875 20.21875 
L 7.71875 27.6875 
L 24.90625 27.6875 
L 29 44 
L 13.28125 44 
L 13.28125 51.515625 
L 30.90625 51.515625 
L 35.890625 71.78125 
z
" id="DejaVuSans-23"/>
      <path d="M 4.890625 31.390625 
L 31.203125 31.390625 
L 31.203125 23.390625 
L 4.890625 23.390625 
z
" id="DejaVuSans-2d"/>
      <path d="M 56.203125 29.59375 
L 56.203125 25.203125 
L 14.890625 25.203125 
Q 15.484375 15.921875 20.484375 11.0625 
Q 25.484375 6.203125 34.421875 6.203125 
Q 39.59375 6.203125 44.453125 7.46875 
Q 49.3125 8.734375 54.109375 11.28125 
L 54.109375 2.78125 
Q 49.265625 0.734375 44.1875 -0.34375 
Q 39.109375 -1.421875 33.890625 -1.421875 
Q 20.796875 -1.421875 13.15625 6.1875 
Q 5.515625 13.8125 5.515625 26.8125 
Q 5.515625 40.234375 12.765625 48.109375 
Q 20.015625 56 32.328125 56 
Q 43.359375 56 49.78125 48.890625 
Q 56.203125 41.796875 56.203125 29.59375 
M 47.21875 32.234375 
Q 47.125 39.59375 43.09375 43.984375 
Q 39.0625 48.390625 32.421875 48.390625 
Q 24.90625 48.390625 20.390625 44.140625 
Q 15.875 39.890625 15.1875 32.171875 
z
" id="DejaVuSans-65"/>
      <path d="M 2.984375 54.6875 
L 12.5 54.6875 
L 29.59375 8.796875 
L 46.6875 54.6875 
L 56.203125 54.6875 
L 35.6875 0 
L 23.484375 0 
z
" id="DejaVuSans-76"/>
      <path d="M 34.28125 27.484375 
Q 23.390625 27.484375 19.1875 25 
Q 14.984375 22.515625 14.984375 16.5 
Q 14.984375 11.71875 18.140625 8.90625 
Q 21.296875 6.109375 26.703125 6.109375 
Q 34.1875 6.109375 38.703125 11.40625 
Q 43.21875 16.703125 43.21875 25.484375 
L 43.21875 27.484375 
z
M 52.203125 31.203125 
L 52.203125 0 
L 43.21875 0 
L 43.21875 8.296875 
Q 40.140625 3.328125 35.546875 0.953125 
Q 30.953125 -1.421875 24.3125 -1.421875 
Q 15.921875 -1.421875 10.953125 3.296875 
Q 6 8.015625 6 15.921875 
Q 6 25.140625 12.171875 29.828125 
Q 18.359375 34.515625 30.609375 34.515625 
L 43.21875 34.515625 
L 43.21875 35.40625 
Q 43.21875 41.609375 39.140625 45 
Q 35.0625 48.390625 27.6875 48.390625 
Q 23 48.390625 18.546875 47.265625 
Q 14.109375 46.140625 10.015625 43.890625 
L 10.015625 52.203125 
Q 14.9375 54.109375 19.578125 55.046875 
Q 24.21875 56 28.609375 56 
Q 40.484375 56 46.34375 49.84375 
Q 52.203125 43.703125 52.203125 31.203125 
" id="DejaVuSans-61"/>
      <path d="M 44.28125 53.078125 
L 44.28125 44.578125 
Q 40.484375 46.53125 36.375 47.5 
Q 32.28125 48.484375 27.875 48.484375 
Q 21.1875 48.484375 17.84375 46.4375 
Q 14.5 44.390625 14.5 40.28125 
Q 14.5 37.15625 16.890625 35.375 
Q 19.28125 33.59375 26.515625 31.984375 
L 29.59375 31.296875 
Q 39.15625 29.25 43.1875 25.515625 
Q 47.21875 21.78125 47.21875 15.09375 
Q 47.21875 7.46875 41.1875 3.015625 
Q 35.15625 -1.421875 24.609375 -1.421875 
Q 20.21875 -1.421875 15.453125 -0.5625 
Q 10.6875 0.296875 5.421875 2 
L 5.421875 11.28125 
Q 10.40625 8.6875 15.234375 7.390625 
Q 20.0625 6.109375 24.8125 6.109375 
Q 31.15625 6.109375 34.5625 8.28125 
Q 37.984375 10.453125 37.984375 14.40625 
Q 37.984375 18.0625 35.515625 20.015625 
Q 33.0625 21.96875 24.703125 23.78125 
L 21.578125 24.515625 
Q 13.234375 26.265625 9.515625 29.90625 
Q 5.8125 33.546875 5.8125 39.890625 
Q 5.8125 47.609375 11.28125 51.796875 
Q 16.75 56 26.8125 56 
Q 31.78125 56 36.171875 55.265625 
Q 40.578125 54.546875 44.28125 53.078125 
" id="DejaVuSans-73"/>
      <path d="M 25.390625 72.90625 
L 33.6875 72.90625 
L 8.296875 -9.28125 
L 0 -9.28125 
z
" id="DejaVuSans-2f"/>
      <path d="M 45.40625 46.390625 
L 45.40625 75.984375 
L 54.390625 75.984375 
L 54.390625 0 
L 45.40625 0 
L 45.40625 8.203125 
Q 42.578125 3.328125 38.25 0.953125 
Q 33.9375 -1.421875 27.875 -1.421875 
Q 17.96875 -1.421875 11.734375 6.484375 
Q 5.515625 14.40625 5.515625 27.296875 
Q 5.515625 40.1875 11.734375 48.09375 
Q 17.96875 56 27.875 56 
Q 33.9375 56 38.25 53.625 
Q 42.578125 51.265625 45.40625 46.390625 
M 14.796875 27.296875 
Q 14.796875 17.390625 18.875 11.75 
Q 22.953125 6.109375 30.078125 6.109375 
Q 37.203125 6.109375 41.296875 11.75 
Q 45.40625 17.390625 45.40625 27.296875 
Q 45.40625 37.203125 41.296875 42.84375 
Q 37.203125 48.484375 30.078125 48.484375 
Q 22.953125 48.484375 18.875 42.84375 
Q 14.796875 37.203125 14.796875 27.296875 
" id="DejaVuSans-64"/>
      <path d="M 9.421875 54.6875 
L 18.40625 54.6875 
L 18.40625 0 
L 9.421875 0 
z
M 9.421875 75.984375 
L 18.40625 75.984375 
L 18.40625 64.59375 
L 9.421875 64.59375 
z
" id="DejaVuSans-69"/>
      <path d="M 52 44.1875 
Q 55.375 50.25 60.0625 53.125 
Q 64.75 56 71.09375 56 
Q 79.640625 56 84.28125 50.015625 
Q 88.921875 44.046875 88.921875 33.015625 
L 88.921875 0 
L 79.890625 0 
L 79.890625 32.71875 
Q 79.890625 40.578125 77.09375 44.375 
Q 74.3125 48.1875 68.609375 48.1875 
Q 61.625 48.1875 57.5625 43.546875 
Q 53.515625 38.921875 53.515625 30.90625 
L 53.515625 0 
L 44.484375 0 
L 44.484375 32.71875 
Q 44.484375 40.625 41.703125 44.40625 
Q 38.921875 48.1875 33.109375 48.1875 
Q 26.21875 48.1875 22.15625 43.53125 
Q 18.109375 38.875 18.109375 30.90625 
L 18.109375 0 
L 9.078125 0 
L 9.078125 54.6875 
L 18.109375 54.6875 
L 18.109375 46.1875 
Q 21.1875 51.21875 25.484375 53.609375 
Q 29.78125 56 35.6875 56 
Q 41.65625 56 45.828125 52.96875 
Q 50 49.953125 52 44.1875 
" id="DejaVuSans-6d"/>
      <path d="M 54.890625 33.015625 
L 54.890625 0 
L 45.90625 0 
L 45.90625 32.71875 
Q 45.90625 40.484375 42.875 44.328125 
Q 39.84375 48.1875 33.796875 48.1875 
Q 26.515625 48.1875 22.3125 43.546875 
Q 18.109375 38.921875 18.109375 30.90625 
L 18.109375 0 
L 9.078125 0 
L 9.078125 54.6875 
L 18.109375 54.6875 
L 18.109375 46.1875 
Q 21.34375 51.125 25.703125 53.5625 
Q 30.078125 56 35.796875 56 
Q 45.21875 56 50.046875 50.171875 
Q 54.890625 44.34375 54.890625 33.015625 
" id="DejaVuSans-6e"/>
      <path d="M 8.015625 75.875 
L 15.828125 75.875 
Q 23.140625 64.359375 26.78125 53.3125 
Q 30.421875 42.28125 30.421875 31.390625 
Q 30.421875 20.453125 26.78125 9.375 
Q 23.140625 -1.703125 15.828125 -13.1875 
L 8.015625 -13.1875 
Q 14.5 -2 17.703125 9.0625 
Q 20.90625 20.125 20.90625 31.390625 
Q 20.90625 42.671875 17.703125 53.65625 
Q 14.5 64.65625 8.015625 75.875 
" id="DejaVuSans-29"/>
     </defs>
     <g transform="translate(107.015156 342.278812)scale(0.18 -0.18)">
      <use xlink:href="#DejaVuSans-6c"/>
      <use x="27.783203" xlink:href="#DejaVuSans-6f"/>
      <use x="88.964844" xlink:href="#DejaVuSans-67"/>
      <use x="152.441406" xlink:href="#DejaVuSans-31"/>
      <use x="216.064453" xlink:href="#DejaVuSans-30"/>
      <use x="279.6875" xlink:href="#DejaVuSans-20"/>
      <use x="311.474609" xlink:href="#DejaVuSans-6f"/>
      <use x="372.65625" xlink:href="#DejaVuSans-66"/>
      <use x="407.861328" xlink:href="#DejaVuSans-20"/>
      <use x="439.648438" xlink:href="#DejaVuSans-28"/>
      <use x="478.662109" xlink:href="#DejaVuSans-23"/>
      <use x="562.451172" xlink:href="#DejaVuSans-20"/>
      <use x="594.238281" xlink:href="#DejaVuSans-66"/>
      <use x="629.365234" xlink:href="#DejaVuSans-2d"/>
      <use x="665.449219" xlink:href="#DejaVuSans-65"/>
      <use x="726.972656" xlink:href="#DejaVuSans-76"/>
      <use x="786.152344" xlink:href="#DejaVuSans-61"/>
      <use x="847.431641" xlink:href="#DejaVuSans-6c"/>
      <use x="875.214844" xlink:href="#DejaVuSans-73"/>
      <use x="927.314453" xlink:href="#DejaVuSans-20"/>
      <use x="959.101562" xlink:href="#DejaVuSans-2f"/>
      <use x="992.792969" xlink:href="#DejaVuSans-20"/>
      <use x="1024.580078" xlink:href="#DejaVuSans-64"/>
      <use x="1088.056641" xlink:href="#DejaVuSans-69"/>
      <use x="1115.839844" xlink:href="#DejaVuSans-6d"/>
      <use x="1213.251953" xlink:href="#DejaVuSans-65"/>
      <use x="1274.775391" xlink:href="#DejaVuSans-6e"/>
      <use x="1338.154297" xlink:href="#DejaVuSans-73"/>
      <use x="1390.253906" xlink:href="#DejaVuSans-69"/>
      <use x="1418.037109" xlink:href="#DejaVuSans-6f"/>
      <use x="1479.21875" xlink:href="#DejaVuSans-6e"/>
      <use x="1542.597656" xlink:href="#DejaVuSans-29"/>
     </g>
    </g>
   </g>
   <g id="matplotlib.axis_2">
    <g id="ytick_1">
     <g id="line2d_29">
      <path clip-path="url(#p81492a35db)" d="M 70.8 298.245375 
L 427.92 298.245375 
" style="fill:none;stroke:#b0b0b0;stroke-linecap:square;stroke-width:0.8;"/>
     </g>
     <g id="line2d_30">
      <defs>
       <path d="M 0 0 
L -3.5 0 
" id="m2c06cd5d45" style="stroke:#000000;stroke-width:0.8;"/>
      </defs>
      <g>
       <use style="stroke:#000000;stroke-width:0.8;" x="70.8" xlink:href="#m2c06cd5d45" y="298.245375"/>
      </g>
     </g>
     <g id="text_7">
      <!-- 0.0 -->
      <defs>
       <path d="M 10.6875 12.40625 
L 21 12.40625 
L 21 0 
L 10.6875 0 
z
" id="DejaVuSans-2e"/>
      </defs>
      <g transform="translate(31.99375 305.843812)scale(0.2 -0.2)">
       <use xlink:href="#DejaVuSans-30"/>
       <use x="63.623047" xlink:href="#DejaVuSans-2e"/>
       <use x="95.410156" xlink:href="#DejaVuSans-30"/>
      </g>
     </g>
    </g>
    <g id="ytick_2">
     <g id="line2d_31">
      <path clip-path="url(#p81492a35db)" d="M 70.8 245.549929 
L 427.92 245.549929 
" style="fill:none;stroke:#b0b0b0;stroke-linecap:square;stroke-width:0.8;"/>
     </g>
     <g id="line2d_32">
      <g>
       <use style="stroke:#000000;stroke-width:0.8;" x="70.8" xlink:href="#m2c06cd5d45" y="245.549929"/>
      </g>
     </g>
     <g id="text_8">
      <!-- 0.2 -->
      <g transform="translate(31.99375 253.148367)scale(0.2 -0.2)">
       <use xlink:href="#DejaVuSans-30"/>
       <use x="63.623047" xlink:href="#DejaVuSans-2e"/>
       <use x="95.410156" xlink:href="#DejaVuSans-32"/>
      </g>
     </g>
    </g>
    <g id="ytick_3">
     <g id="line2d_33">
      <path clip-path="url(#p81492a35db)" d="M 70.8 192.854484 
L 427.92 192.854484 
" style="fill:none;stroke:#b0b0b0;stroke-linecap:square;stroke-width:0.8;"/>
     </g>
     <g id="line2d_34">
      <g>
       <use style="stroke:#000000;stroke-width:0.8;" x="70.8" xlink:href="#m2c06cd5d45" y="192.854484"/>
      </g>
     </g>
     <g id="text_9">
      <!-- 0.4 -->
      <g transform="translate(31.99375 200.452921)scale(0.2 -0.2)">
       <use xlink:href="#DejaVuSans-30"/>
       <use x="63.623047" xlink:href="#DejaVuSans-2e"/>
       <use x="95.410156" xlink:href="#DejaVuSans-34"/>
      </g>
     </g>
    </g>
    <g id="ytick_4">
     <g id="line2d_35">
      <path clip-path="url(#p81492a35db)" d="M 70.8 140.159038 
L 427.92 140.159038 
" style="fill:none;stroke:#b0b0b0;stroke-linecap:square;stroke-width:0.8;"/>
     </g>
     <g id="line2d_36">
      <g>
       <use style="stroke:#000000;stroke-width:0.8;" x="70.8" xlink:href="#m2c06cd5d45" y="140.159038"/>
      </g>
     </g>
     <g id="text_10">
      <!-- 0.6 -->
      <g transform="translate(31.99375 147.757476)scale(0.2 -0.2)">
       <use xlink:href="#DejaVuSans-30"/>
       <use x="63.623047" xlink:href="#DejaVuSans-2e"/>
       <use x="95.410156" xlink:href="#DejaVuSans-36"/>
      </g>
     </g>
    </g>
    <g id="ytick_5">
     <g id="line2d_37">
      <path clip-path="url(#p81492a35db)" d="M 70.8 87.463593 
L 427.92 87.463593 
" style="fill:none;stroke:#b0b0b0;stroke-linecap:square;stroke-width:0.8;"/>
     </g>
     <g id="line2d_38">
      <g>
       <use style="stroke:#000000;stroke-width:0.8;" x="70.8" xlink:href="#m2c06cd5d45" y="87.463593"/>
      </g>
     </g>
     <g id="text_11">
      <!-- 0.8 -->
      <g transform="translate(31.99375 95.06203)scale(0.2 -0.2)">
       <use xlink:href="#DejaVuSans-30"/>
       <use x="63.623047" xlink:href="#DejaVuSans-2e"/>
       <use x="95.410156" xlink:href="#DejaVuSans-38"/>
      </g>
     </g>
    </g>
    <g id="ytick_6">
     <g id="line2d_39">
      <path clip-path="url(#p81492a35db)" d="M 70.8 34.768147 
L 427.92 34.768147 
" style="fill:none;stroke:#b0b0b0;stroke-linecap:square;stroke-width:0.8;"/>
     </g>
     <g id="line2d_40">
      <g>
       <use style="stroke:#000000;stroke-width:0.8;" x="70.8" xlink:href="#m2c06cd5d45" y="34.768147"/>
      </g>
     </g>
     <g id="text_12">
      <!-- 1.0 -->
      <g transform="translate(31.99375 42.366585)scale(0.2 -0.2)">
       <use xlink:href="#DejaVuSans-31"/>
       <use x="63.623047" xlink:href="#DejaVuSans-2e"/>
       <use x="95.410156" xlink:href="#DejaVuSans-30"/>
      </g>
     </g>
    </g>
    <g id="text_13">
     <!-- Proportion of function+target pairs -->
     <defs>
      <path d="M 19.671875 64.796875 
L 19.671875 37.40625 
L 32.078125 37.40625 
Q 38.96875 37.40625 42.71875 40.96875 
Q 46.484375 44.53125 46.484375 51.125 
Q 46.484375 57.671875 42.71875 61.234375 
Q 38.96875 64.796875 32.078125 64.796875 
z
M 9.8125 72.90625 
L 32.078125 72.90625 
Q 44.34375 72.90625 50.609375 67.359375 
Q 56.890625 61.8125 56.890625 51.125 
Q 56.890625 40.328125 50.609375 34.8125 
Q 44.34375 29.296875 32.078125 29.296875 
L 19.671875 29.296875 
L 19.671875 0 
L 9.8125 0 
z
" id="DejaVuSans-50"/>
      <path d="M 41.109375 46.296875 
Q 39.59375 47.171875 37.8125 47.578125 
Q 36.03125 48 33.890625 48 
Q 26.265625 48 22.1875 43.046875 
Q 18.109375 38.09375 18.109375 28.8125 
L 18.109375 0 
L 9.078125 0 
L 9.078125 54.6875 
L 18.109375 54.6875 
L 18.109375 46.1875 
Q 20.953125 51.171875 25.484375 53.578125 
Q 30.03125 56 36.53125 56 
Q 37.453125 56 38.578125 55.875 
Q 39.703125 55.765625 41.0625 55.515625 
z
" id="DejaVuSans-72"/>
      <path d="M 18.109375 8.203125 
L 18.109375 -20.796875 
L 9.078125 -20.796875 
L 9.078125 54.6875 
L 18.109375 54.6875 
L 18.109375 46.390625 
Q 20.953125 51.265625 25.265625 53.625 
Q 29.59375 56 35.59375 56 
Q 45.5625 56 51.78125 48.09375 
Q 58.015625 40.1875 58.015625 27.296875 
Q 58.015625 14.40625 51.78125 6.484375 
Q 45.5625 -1.421875 35.59375 -1.421875 
Q 29.59375 -1.421875 25.265625 0.953125 
Q 20.953125 3.328125 18.109375 8.203125 
M 48.6875 27.296875 
Q 48.6875 37.203125 44.609375 42.84375 
Q 40.53125 48.484375 33.40625 48.484375 
Q 26.265625 48.484375 22.1875 42.84375 
Q 18.109375 37.203125 18.109375 27.296875 
Q 18.109375 17.390625 22.1875 11.75 
Q 26.265625 6.109375 33.40625 6.109375 
Q 40.53125 6.109375 44.609375 11.75 
Q 48.6875 17.390625 48.6875 27.296875 
" id="DejaVuSans-70"/>
      <path d="M 18.3125 70.21875 
L 18.3125 54.6875 
L 36.8125 54.6875 
L 36.8125 47.703125 
L 18.3125 47.703125 
L 18.3125 18.015625 
Q 18.3125 11.328125 20.140625 9.421875 
Q 21.96875 7.515625 27.59375 7.515625 
L 36.8125 7.515625 
L 36.8125 0 
L 27.59375 0 
Q 17.1875 0 13.234375 3.875 
Q 9.28125 7.765625 9.28125 18.015625 
L 9.28125 47.703125 
L 2.6875 47.703125 
L 2.6875 54.6875 
L 9.28125 54.6875 
L 9.28125 70.21875 
z
" id="DejaVuSans-74"/>
      <path d="M 8.5 21.578125 
L 8.5 54.6875 
L 17.484375 54.6875 
L 17.484375 21.921875 
Q 17.484375 14.15625 20.5 10.265625 
Q 23.53125 6.390625 29.59375 6.390625 
Q 36.859375 6.390625 41.078125 11.03125 
Q 45.3125 15.671875 45.3125 23.6875 
L 45.3125 54.6875 
L 54.296875 54.6875 
L 54.296875 0 
L 45.3125 0 
L 45.3125 8.40625 
Q 42.046875 3.421875 37.71875 1 
Q 33.40625 -1.421875 27.6875 -1.421875 
Q 18.265625 -1.421875 13.375 4.4375 
Q 8.5 10.296875 8.5 21.578125 
M 31.109375 56 
z
" id="DejaVuSans-75"/>
      <path d="M 48.78125 52.59375 
L 48.78125 44.1875 
Q 44.96875 46.296875 41.140625 47.34375 
Q 37.3125 48.390625 33.40625 48.390625 
Q 24.65625 48.390625 19.8125 42.84375 
Q 14.984375 37.3125 14.984375 27.296875 
Q 14.984375 17.28125 19.8125 11.734375 
Q 24.65625 6.203125 33.40625 6.203125 
Q 37.3125 6.203125 41.140625 7.25 
Q 44.96875 8.296875 48.78125 10.40625 
L 48.78125 2.09375 
Q 45.015625 0.34375 40.984375 -0.53125 
Q 36.96875 -1.421875 32.421875 -1.421875 
Q 20.0625 -1.421875 12.78125 6.34375 
Q 5.515625 14.109375 5.515625 27.296875 
Q 5.515625 40.671875 12.859375 48.328125 
Q 20.21875 56 33.015625 56 
Q 37.15625 56 41.109375 55.140625 
Q 45.0625 54.296875 48.78125 52.59375 
" id="DejaVuSans-63"/>
      <path d="M 46 62.703125 
L 46 35.5 
L 73.1875 35.5 
L 73.1875 27.203125 
L 46 27.203125 
L 46 0 
L 37.796875 0 
L 37.796875 27.203125 
L 10.59375 27.203125 
L 10.59375 35.5 
L 37.796875 35.5 
L 37.796875 62.703125 
z
" id="DejaVuSans-2b"/>
     </defs>
     <g transform="translate(24.250312 323.17875)rotate(-90)scale(0.18 -0.18)">
      <use xlink:href="#DejaVuSans-50"/>
      <use x="60.287109" xlink:href="#DejaVuSans-72"/>
      <use x="101.369141" xlink:href="#DejaVuSans-6f"/>
      <use x="162.550781" xlink:href="#DejaVuSans-70"/>
      <use x="226.027344" xlink:href="#DejaVuSans-6f"/>
      <use x="287.208984" xlink:href="#DejaVuSans-72"/>
      <use x="328.322266" xlink:href="#DejaVuSans-74"/>
      <use x="367.53125" xlink:href="#DejaVuSans-69"/>
      <use x="395.314453" xlink:href="#DejaVuSans-6f"/>
      <use x="456.496094" xlink:href="#DejaVuSans-6e"/>
      <use x="519.875" xlink:href="#DejaVuSans-20"/>
      <use x="551.662109" xlink:href="#DejaVuSans-6f"/>
      <use x="612.84375" xlink:href="#DejaVuSans-66"/>
      <use x="648.048828" xlink:href="#DejaVuSans-20"/>
      <use x="679.835938" xlink:href="#DejaVuSans-66"/>
      <use x="715.041016" xlink:href="#DejaVuSans-75"/>
      <use x="778.419922" xlink:href="#DejaVuSans-6e"/>
      <use x="841.798828" xlink:href="#DejaVuSans-63"/>
      <use x="896.779297" xlink:href="#DejaVuSans-74"/>
      <use x="935.988281" xlink:href="#DejaVuSans-69"/>
      <use x="963.771484" xlink:href="#DejaVuSans-6f"/>
      <use x="1024.953125" xlink:href="#DejaVuSans-6e"/>
      <use x="1088.332031" xlink:href="#DejaVuSans-2b"/>
      <use x="1172.121094" xlink:href="#DejaVuSans-74"/>
      <use x="1211.330078" xlink:href="#DejaVuSans-61"/>
      <use x="1272.609375" xlink:href="#DejaVuSans-72"/>
      <use x="1313.707031" xlink:href="#DejaVuSans-67"/>
      <use x="1377.183594" xlink:href="#DejaVuSans-65"/>
      <use x="1438.707031" xlink:href="#DejaVuSans-74"/>
      <use x="1477.916016" xlink:href="#DejaVuSans-20"/>
      <use x="1509.703125" xlink:href="#DejaVuSans-70"/>
      <use x="1573.179688" xlink:href="#DejaVuSans-61"/>
      <use x="1634.458984" xlink:href="#DejaVuSans-69"/>
      <use x="1662.242188" xlink:href="#DejaVuSans-72"/>
      <use x="1703.355469" xlink:href="#DejaVuSans-73"/>
     </g>
    </g>
   </g>
   <g id="line2d_41">
    <defs>
     <path d="M 0 1.5 
C 0.397805 1.5 0.77937 1.341951 1.06066 1.06066 
C 1.341951 0.77937 1.5 0.397805 1.5 0 
C 1.5 -0.397805 1.341951 -0.77937 1.06066 -1.06066 
C 0.77937 -1.341951 0.397805 -1.5 0 -1.5 
C -0.397805 -1.5 -0.77937 -1.341951 -1.06066 -1.06066 
C -1.341951 -0.77937 -1.5 -0.397805 -1.5 0 
C -1.5 0.397805 -1.341951 0.77937 -1.06066 1.06066 
C -0.77937 1.341951 -0.397805 1.5 0 1.5 
z
" id="me68053d096" style="stroke:#000080;"/>
    </defs>
    <g>
     <use style="fill:#000080;stroke:#000080;" x="259.849155" xlink:href="#me68053d096" y="34.768147"/>
     <use style="fill:#000080;stroke:#000080;" x="259.849155" xlink:href="#me68053d096" y="34.768147"/>
    </g>
   </g>
   <g id="line2d_42">
    <path d="M 58.414766 298.245375 
L 58.414766 259.498724 
L 153.085714 259.498724 
L 153.085714 251.232772 
L 160.330612 251.232772 
L 160.330612 249.166284 
L 169.458103 249.166284 
L 169.458103 248.649662 
L 172.715846 248.649662 
L 172.715846 246.066551 
L 175.470228 246.066551 
L 175.470228 244.000063 
L 179.960743 244.000063 
L 179.960743 242.966819 
L 183.546351 242.966819 
L 183.546351 241.416953 
L 185.10108 241.416953 
L 185.10108 240.383709 
L 191.324664 240.383709 
L 191.324664 239.867087 
L 195.10036 239.867087 
L 195.10036 239.350465 
L 195.931585 239.350465 
L 195.931585 238.317221 
L 197.486314 238.317221 
L 197.486314 237.800599 
L 199.590875 237.800599 
L 199.590875 237.283977 
L 200.240696 237.283977 
L 200.240696 236.250733 
L 202.059361 236.250733 
L 202.059361 235.734111 
L 203.709898 235.734111 
L 203.709898 234.184245 
L 204.227851 234.184245 
L 204.227851 233.151001 
L 205.22078 233.151001 
L 205.22078 232.634379 
L 205.697291 232.634379 
L 205.697291 232.117757 
L 206.613806 232.117757 
L 206.613806 230.567891 
L 207.055016 230.567891 
L 207.055016 229.018025 
L 208.316819 229.018025 
L 208.316819 227.468159 
L 208.718366 227.468159 
L 208.718366 225.401671 
L 209.111088 225.401671 
L 209.111088 223.851805 
L 210.239976 223.851805 
L 210.239976 222.818561 
L 210.60096 222.818561 
L 210.60096 220.752073 
L 210.954796 220.752073 
L 210.954796 218.168963 
L 211.301761 218.168963 
L 211.301761 217.135719 
L 211.976109 217.135719 
L 211.976109 216.619097 
L 212.62593 216.619097 
L 212.62593 216.102475 
L 213.252946 216.102475 
L 213.252946 213.519365 
L 214.154051 213.519365 
L 214.154051 213.002743 
L 214.730491 213.002743 
L 214.730491 212.48612 
L 217.362906 212.48612 
L 217.362906 211.452876 
L 218.082525 211.452876 
L 218.082525 209.386388 
L 218.774281 209.386388 
L 218.774281 208.869766 
L 219.656836 208.869766 
L 219.656836 207.836522 
L 220.082287 207.836522 
L 220.082287 207.3199 
L 220.903955 207.3199 
L 220.903955 206.803278 
L 221.689493 206.803278 
L 221.689493 205.770034 
L 222.256782 205.770034 
L 222.256782 202.670302 
L 222.806614 202.670302 
L 222.806614 202.15368 
L 223.163988 202.15368 
L 223.163988 201.120436 
L 223.34003 201.120436 
L 223.34003 198.537326 
L 223.514355 198.537326 
L 223.514355 198.020704 
L 223.686995 198.020704 
L 223.686995 196.98746 
L 223.857983 196.98746 
L 223.857983 195.954216 
L 224.361343 195.954216 
L 224.361343 195.437594 
L 224.850911 195.437594 
L 224.850911 192.337862 
L 225.63818 192.337862 
L 225.63818 191.82124 
L 225.791556 191.82124 
L 225.791556 190.787996 
L 225.943626 190.787996 
L 225.943626 189.754752 
L 226.094412 189.754752 
L 226.094412 187.688264 
L 226.243937 187.688264 
L 226.243937 186.65502 
L 226.82983 186.65502 
L 226.82983 186.138398 
L 227.397119 186.138398 
L 227.397119 184.588532 
L 227.536171 184.588532 
L 227.536171 182.522044 
L 227.67415 182.522044 
L 227.67415 182.005422 
L 227.94695 182.005422 
L 227.94695 181.4888 
L 228.870232 181.4888 
L 228.870232 180.972178 
L 228.998319 180.972178 
L 228.998319 180.455556 
L 229.125495 180.455556 
L 229.125495 179.938934 
L 229.377163 179.938934 
L 229.377163 177.872445 
L 229.50168 177.872445 
L 229.50168 176.839201 
L 229.748141 176.839201 
L 229.748141 174.772713 
L 229.870108 174.772713 
L 229.870108 174.256091 
L 229.991248 174.256091 
L 229.991248 170.639737 
L 230.111572 170.639737 
L 230.111572 169.089871 
L 230.231092 169.089871 
L 230.231092 168.056627 
L 234.265832 168.056627 
L 234.265832 167.023383 
L 235.460547 167.023383 
L 235.460547 166.506761 
L 235.725264 166.506761 
L 235.725264 164.956895 
L 235.986117 164.956895 
L 235.986117 164.440273 
L 236.328101 164.440273 
L 236.412584 160.823919 
L 236.49667 160.823919 
L 236.580361 159.790675 
L 236.829109 159.790675 
L 236.829109 159.274053 
L 237.790854 159.274053 
L 237.790854 158.757431 
L 237.94623 158.757431 
L 238.023414 156.690943 
L 238.100267 156.690943 
L 238.17679 155.141077 
L 238.252987 155.141077 
L 238.32886 152.557967 
L 238.404412 152.557967 
L 238.479646 147.908369 
L 238.554565 147.908369 
L 238.554565 146.358503 
L 238.777455 146.358503 
L 238.777455 142.742148 
L 238.997599 142.742148 
L 239.070382 138.09255 
L 239.142869 138.09255 
L 239.215064 136.542684 
L 239.358583 136.542684 
L 239.358583 134.992818 
L 239.571724 134.992818 
L 239.571724 134.476196 
L 239.782353 134.476196 
L 239.782353 133.959574 
L 239.921405 133.959574 
L 239.921405 131.376464 
L 240.996503 131.376464 
L 241.061597 129.826598 
L 241.383553 129.826598 
L 241.447254 126.210244 
L 241.762397 126.210244 
L 241.824764 118.460914 
L 241.886914 118.460914 
L 241.886914 117.944292 
L 242.072077 117.944292 
L 242.072077 116.911048 
L 242.194462 116.911048 
L 242.194462 116.394426 
L 242.316015 116.394426 
L 242.376482 115.361182 
L 242.436746 115.361182 
L 242.436746 114.84456 
L 245.624161 114.84456 
L 245.624161 114.327938 
L 245.774525 114.327938 
L 245.874069 111.228206 
L 245.923634 111.228206 
L 245.973061 109.161717 
L 246.411864 109.161717 
L 246.507929 106.578607 
L 246.603481 106.578607 
L 246.603481 104.512119 
L 246.840148 104.512119 
L 246.887108 102.445631 
L 246.980658 102.445631 
L 247.027251 100.379143 
L 247.166303 100.379143 
L 247.258407 95.212923 
L 247.304281 95.212923 
L 247.395678 93.663057 
L 247.531904 93.663057 
L 247.531904 93.146435 
L 247.711936 93.146435 
L 247.801277 89.530081 
L 247.890174 89.530081 
L 247.890174 88.496837 
L 248.022694 88.496837 
L 248.022694 87.980215 
L 248.154239 87.980215 
L 248.154239 87.463593 
L 248.414459 87.463593 
L 248.414459 86.946971 
L 248.585857 86.946971 
L 248.670944 83.847239 
L 248.797818 83.847239 
L 248.797818 82.813995 
L 248.965595 82.813995 
L 249.007294 81.264129 
L 249.173125 81.264129 
L 249.255467 77.647775 
L 249.296496 77.647775 
L 249.296496 76.614531 
L 249.41902 76.614531 
L 249.41902 76.097908 
L 249.540711 76.097908 
L 249.62138 75.064664 
L 249.661578 75.064664 
L 249.701686 73.514798 
L 249.821472 73.514798 
L 249.821472 72.998176 
L 251.815147 72.998176 
L 251.815147 72.481554 
L 252.132654 72.481554 
L 252.132654 71.44831 
L 252.375762 71.44831 
L 252.375762 70.931688 
L 252.615606 70.931688 
L 252.615606 68.8652 
L 252.751228 68.8652 
L 252.751228 68.348578 
L 252.95275 68.348578 
L 253.052665 62.665736 
L 253.085847 62.665736 
L 253.185022 59.566004 
L 253.381737 59.566004 
L 253.479289 55.94965 
L 253.704859 55.94965 
L 253.704859 54.916406 
L 254.2411 54.916406 
L 254.334083 53.883162 
L 254.395803 53.883162 
L 254.426584 52.333296 
L 254.518609 52.333296 
L 254.610162 50.78343 
L 254.701249 50.78343 
L 254.731508 49.233564 
L 254.852035 49.233564 
L 254.852035 48.716942 
L 255.149844 48.716942 
L 255.149844 47.683698 
L 255.267592 47.683698 
L 255.267592 46.650454 
L 255.788059 46.650454 
L 255.788059 46.133832 
L 256.541393 46.133832 
L 256.541393 45.61721 
L 256.893086 45.61721 
L 256.893086 45.100588 
L 257.23799 45.100588 
L 257.23799 42.517478 
L 257.368892 42.517478 
L 257.472928 40.450989 
L 257.653546 40.450989 
L 257.653546 39.934367 
L 258.700513 39.934367 
L 258.700513 37.351257 
L 258.988715 37.351257 
L 258.988715 36.318013 
L 259.10744 36.318013 
L 259.10744 35.801391 
L 259.689515 35.801391 
L 259.689515 35.284769 
L 259.849155 35.284769 
L 259.849155 34.768147 
L 358.8 34.768147 
L 358.8 34.768147 
" style="fill:none;stroke:#000080;stroke-linecap:square;stroke-width:1.5;"/>
   </g>
   <g id="line2d_43">
    <defs>
     <path d="M 0 6 
C 1.591219 6 3.117479 5.367802 4.242641 4.242641 
C 5.367802 3.117479 6 1.591219 6 0 
C 6 -1.591219 5.367802 -3.117479 4.242641 -4.242641 
C 3.117479 -5.367802 1.591219 -6 0 -6 
C -1.591219 -6 -3.117479 -5.367802 -4.242641 -4.242641 
C -5.367802 -3.117479 -6 -1.591219 -6 0 
C -6 1.591219 -5.367802 3.117479 -4.242641 4.242641 
C -3.117479 5.367802 -1.591219 6 0 6 
z
" id="mb404812fb4" style="stroke:#000080;stroke-width:1.5;"/>
    </defs>
    <g>
     <use style="fill:none;stroke:#000080;stroke-width:1.5;" x="358.8" xlink:href="#mb404812fb4" y="34.768147"/>
    </g>
   </g>
   <g id="line2d_44"/>
   <g id="line2d_45">
    <defs>
     <path d="M 0 1.5 
C 0.397805 1.5 0.77937 1.341951 1.06066 1.06066 
C 1.341951 0.77937 1.5 0.397805 1.5 0 
C 1.5 -0.397805 1.341951 -0.77937 1.06066 -1.06066 
C 0.77937 -1.341951 0.397805 -1.5 0 -1.5 
C -0.397805 -1.5 -0.77937 -1.341951 -1.06066 -1.06066 
C -1.341951 -0.77937 -1.5 -0.397805 -1.5 0 
C -1.5 0.397805 -1.341951 0.77937 -1.06066 1.06066 
C -0.77937 1.341951 -0.397805 1.5 0 1.5 
z
" id="mac24452b43" style="stroke:#ff00ff;"/>
    </defs>
    <g>
     <use style="fill:#ff00ff;stroke:#ff00ff;" x="241.824764" xlink:href="#mac24452b43" y="34.768147"/>
     <use style="fill:#ff00ff;stroke:#ff00ff;" x="241.824764" xlink:href="#mac24452b43" y="34.768147"/>
    </g>
   </g>
   <g id="line2d_46">
    <path d="M 58.414766 298.245375 
L 58.414766 220.752073 
L 153.085714 220.752073 
L 153.085714 217.135719 
L 165.470948 217.135719 
L 165.470948 216.102475 
L 172.715846 216.102475 
L 172.715846 214.552609 
L 175.470228 214.552609 
L 175.470228 214.035987 
L 185.10108 214.035987 
L 185.10108 212.48612 
L 187.855462 212.48612 
L 187.855462 210.419632 
L 191.324664 210.419632 
L 191.324664 208.353144 
L 192.345978 208.353144 
L 192.345978 207.836522 
L 196.725854 207.836522 
L 196.725854 207.3199 
L 211.301761 207.3199 
L 211.301761 205.253412 
L 211.642116 205.253412 
L 211.642116 204.220168 
L 212.303974 204.220168 
L 212.303974 203.186924 
L 212.62593 203.186924 
L 212.62593 202.15368 
L 212.942189 202.15368 
L 212.942189 198.020704 
L 213.252946 198.020704 
L 213.252946 191.304618 
L 213.858703 191.304618 
L 213.858703 184.588532 
L 214.444595 184.588532 
L 214.444595 183.555288 
L 215.011885 183.555288 
L 215.011885 180.972178 
L 215.830415 180.972178 
L 215.830415 178.90569 
L 217.845858 178.90569 
L 217.845858 173.739469 
L 218.316099 173.739469 
L 218.316099 173.222847 
L 218.546658 173.222847 
L 218.546658 170.123115 
L 218.774281 170.123115 
L 218.774281 164.956895 
L 218.99904 164.956895 
L 218.99904 163.923651 
L 219.221007 163.923651 
L 219.221007 159.274053 
L 219.44025 159.274053 
L 219.44025 157.724187 
L 220.082287 157.724187 
L 220.082287 153.591211 
L 220.291274 153.591211 
L 220.291274 149.458235 
L 220.702053 149.458235 
L 220.702053 147.908369 
L 220.903955 147.908369 
L 220.903955 140.159038 
L 221.30104 140.159038 
L 221.30104 139.125794 
L 221.689493 139.125794 
L 221.689493 137.059306 
L 221.880598 137.059306 
L 221.880598 134.476196 
L 222.06968 134.476196 
L 222.06968 132.92633 
L 222.256782 132.92633 
L 222.256782 129.826598 
L 222.441946 129.826598 
L 222.441946 129.309976 
L 222.62521 129.309976 
L 222.62521 119.494158 
L 222.806614 119.494158 
L 222.806614 116.394426 
L 222.986194 116.394426 
L 222.986194 114.327938 
L 223.163988 114.327938 
L 223.163988 110.194961 
L 223.514355 110.194961 
L 223.514355 109.161717 
L 223.857983 109.161717 
L 223.857983 107.095229 
L 224.02735 107.095229 
L 224.02735 106.578607 
L 224.361343 106.578607 
L 224.361343 102.445631 
L 224.526028 102.445631 
L 224.526028 101.929009 
L 225.011165 101.929009 
L 225.011165 99.345899 
L 225.327423 99.345899 
L 225.327423 98.829277 
L 225.63818 98.829277 
L 225.63818 95.212923 
L 226.094412 95.212923 
L 226.094412 94.696301 
L 226.243937 94.696301 
L 226.243937 91.596569 
L 226.973349 91.596569 
L 226.973349 91.079947 
L 227.115725 91.079947 
L 227.115725 90.046703 
L 227.397119 90.046703 
L 227.397119 89.530081 
L 227.67415 89.530081 
L 227.67415 88.496837 
L 227.811071 88.496837 
L 227.811071 86.946971 
L 227.94695 86.946971 
L 227.94695 81.780751 
L 228.081805 81.780751 
L 228.081805 80.747507 
L 228.215649 80.747507 
L 228.215649 79.197641 
L 228.348498 79.197641 
L 228.348498 78.681019 
L 228.611269 78.681019 
L 228.611269 77.131153 
L 228.74122 77.131153 
L 228.74122 75.581286 
L 228.998319 75.581286 
L 228.998319 74.03142 
L 229.251772 74.03142 
L 229.251772 72.481554 
L 229.377163 72.481554 
L 229.377163 70.931688 
L 229.50168 70.931688 
L 229.50168 70.415066 
L 229.625335 70.415066 
L 229.625335 68.8652 
L 229.748141 68.8652 
L 229.748141 68.348578 
L 229.870108 68.348578 
L 229.870108 67.831956 
L 229.991248 67.831956 
L 229.991248 66.798712 
L 230.231092 66.798712 
L 230.231092 65.248846 
L 230.701333 65.248846 
L 230.701333 63.182358 
L 232.256062 63.182358 
L 232.256062 62.665736 
L 232.676508 62.665736 
L 232.676508 61.632492 
L 233.978403 61.632492 
L 233.978403 60.599248 
L 234.360623 60.599248 
L 234.360623 59.566004 
L 234.54871 59.566004 
L 234.54871 58.016138 
L 234.734838 58.016138 
L 234.734838 56.466272 
L 234.919047 56.466272 
L 234.919047 55.94965 
L 236.412584 55.94965 
L 236.412584 54.399784 
L 237.396399 54.399784 
L 237.475989 53.36654 
L 238.17679 53.36654 
L 238.17679 51.300052 
L 238.479646 51.300052 
L 238.479646 50.266808 
L 238.703467 50.266808 
L 238.703467 47.683698 
L 239.070382 47.683698 
L 239.142869 46.133832 
L 239.215064 46.133832 
L 239.215064 43.0341 
L 239.852014 43.0341 
L 239.921405 37.867879 
L 240.996503 37.867879 
L 240.996503 37.351257 
L 241.383553 37.351257 
L 241.383553 35.801391 
L 241.824764 35.801391 
L 241.824764 34.768147 
L 358.8 34.768147 
L 358.8 34.768147 
" style="fill:none;stroke:#ff00ff;stroke-linecap:square;stroke-width:1.5;"/>
   </g>
   <g id="line2d_47">
    <defs>
     <path d="M -0 8.485281 
L 5.091169 0 
L 0 -8.485281 
L -5.091169 -0 
z
" id="md8d3cf8f9a" style="stroke:#ff00ff;stroke-linejoin:miter;stroke-width:1.5;"/>
    </defs>
    <g>
     <use style="fill:none;stroke:#ff00ff;stroke-linejoin:miter;stroke-width:1.5;" x="358.8" xlink:href="#md8d3cf8f9a" y="34.768147"/>
    </g>
   </g>
   <g id="line2d_48"/>
   <g id="line2d_49">
    <defs>
     <path d="M 0 1.5 
C 0.397805 1.5 0.77937 1.341951 1.06066 1.06066 
C 1.341951 0.77937 1.5 0.397805 1.5 0 
C 1.5 -0.397805 1.341951 -0.77937 1.06066 -1.06066 
C 0.77937 -1.341951 0.397805 -1.5 0 -1.5 
C -0.397805 -1.5 -0.77937 -1.341951 -1.06066 -1.06066 
C -1.341951 -0.77937 -1.5 -0.397805 -1.5 0 
C -1.5 0.397805 -1.341951 0.77937 -1.06066 1.06066 
C -0.77937 1.341951 -0.397805 1.5 0 1.5 
z
" id="mc6ebdde147" style="stroke:#ffa500;"/>
    </defs>
    <g>
     <use style="fill:#ffa500;stroke:#ffa500;" x="280.415467" xlink:href="#mc6ebdde147" y="34.768147"/>
     <use style="fill:#ffa500;stroke:#ffa500;" x="280.415467" xlink:href="#mc6ebdde147" y="34.768147"/>
    </g>
   </g>
   <g id="line2d_50">
    <path d="M 58.414766 298.245375 
L 58.414766 252.782638 
L 153.085714 252.782638 
L 153.085714 241.933575 
L 160.330612 241.933575 
L 160.330612 239.350465 
L 165.470948 239.350465 
L 165.470948 237.283977 
L 169.458103 237.283977 
L 169.458103 236.250733 
L 186.531292 236.250733 
L 186.531292 235.217489 
L 190.241417 235.217489 
L 190.241417 234.700867 
L 191.324664 234.700867 
L 191.324664 233.667623 
L 192.345978 233.667623 
L 192.345978 232.117757 
L 193.312057 232.117757 
L 193.312057 231.601135 
L 198.916526 231.601135 
L 198.916526 230.567891 
L 199.590875 230.567891 
L 199.590875 230.051269 
L 200.240696 230.051269 
L 200.240696 229.534647 
L 202.059361 229.534647 
L 202.059361 228.501403 
L 202.626651 228.501403 
L 202.626651 225.918293 
L 203.709898 225.918293 
L 203.709898 223.335183 
L 204.227851 223.335183 
L 204.227851 222.301939 
L 204.731212 222.301939 
L 204.731212 221.785317 
L 206.161424 221.785317 
L 206.161424 217.652341 
L 207.055016 217.652341 
L 207.055016 217.135719 
L 207.485594 217.135719 
L 207.485594 214.552609 
L 207.906039 214.552609 
L 207.906039 214.035987 
L 208.316819 214.035987 
L 208.316819 210.936254 
L 208.718366 210.936254 
L 208.718366 209.386388 
L 209.111088 209.386388 
L 209.111088 208.353144 
L 209.495363 208.353144 
L 209.495363 206.803278 
L 209.871548 206.803278 
L 209.871548 205.253412 
L 210.60096 205.253412 
L 210.60096 200.087192 
L 210.954796 200.087192 
L 210.954796 197.504082 
L 211.301761 197.504082 
L 211.301761 196.98746 
L 211.642116 196.98746 
L 211.642116 193.371106 
L 211.976109 193.371106 
L 211.976109 191.82124 
L 212.303974 191.82124 
L 212.303974 191.304618 
L 214.444595 191.304618 
L 214.444595 190.271374 
L 215.288915 190.271374 
L 215.288915 188.721508 
L 215.561716 188.721508 
L 215.561716 188.204886 
L 215.830415 188.204886 
L 215.830415 187.688264 
L 217.362906 187.688264 
L 217.362906 186.138398 
L 217.845858 186.138398 
L 217.845858 185.621776 
L 218.316099 185.621776 
L 218.316099 185.105154 
L 218.774281 185.105154 
L 218.774281 184.07191 
L 218.99904 184.07191 
L 218.99904 183.555288 
L 219.44025 183.555288 
L 219.44025 182.522044 
L 219.656836 182.522044 
L 219.656836 180.972178 
L 219.870828 180.972178 
L 219.870828 179.938934 
L 220.082287 179.938934 
L 220.082287 177.355823 
L 220.291274 177.355823 
L 220.291274 174.772713 
L 220.497844 174.772713 
L 220.497844 171.156359 
L 221.103601 171.156359 
L 221.103601 168.573249 
L 221.30104 168.573249 
L 221.30104 166.506761 
L 221.880598 166.506761 
L 221.880598 160.823919 
L 222.06968 160.823919 
L 222.06968 160.307297 
L 222.62521 160.307297 
L 222.62521 157.724187 
L 222.806614 157.724187 
L 222.806614 149.458235 
L 222.986194 149.458235 
L 222.986194 146.358503 
L 223.34003 146.358503 
L 223.34003 143.25877 
L 223.514355 143.25877 
L 223.514355 142.742148 
L 223.686995 142.742148 
L 223.686995 141.708904 
L 224.195127 141.708904 
L 224.195127 139.642416 
L 224.526028 139.642416 
L 224.526028 137.575928 
L 224.689208 137.575928 
L 224.689208 136.542684 
L 225.169993 136.542684 
L 225.169993 133.959574 
L 225.483477 133.959574 
L 225.483477 131.376464 
L 225.63818 131.376464 
L 225.63818 129.826598 
L 226.539285 129.826598 
L 226.539285 128.793354 
L 227.115725 128.793354 
L 227.115725 126.726866 
L 227.397119 126.726866 
L 227.397119 124.660378 
L 227.536171 124.660378 
L 227.536171 123.110512 
L 227.67415 123.110512 
L 227.67415 122.59389 
L 227.94695 122.59389 
L 227.94695 121.044024 
L 228.081805 121.044024 
L 228.081805 118.460914 
L 228.215649 118.460914 
L 228.215649 117.42767 
L 228.480367 117.42767 
L 228.480367 115.361182 
L 228.611269 115.361182 
L 228.611269 114.84456 
L 228.74122 114.84456 
L 228.74122 113.294694 
L 228.870232 113.294694 
L 228.870232 111.228206 
L 228.998319 111.228206 
L 228.998319 109.678339 
L 229.125495 109.678339 
L 229.125495 107.095229 
L 229.251772 107.095229 
L 229.251772 103.995497 
L 229.377163 103.995497 
L 229.377163 102.962253 
L 229.50168 102.962253 
L 229.50168 101.412387 
L 229.625335 101.412387 
L 229.625335 98.829277 
L 229.748141 98.829277 
L 229.748141 98.312655 
L 229.870108 98.312655 
L 229.870108 97.796033 
L 229.991248 97.796033 
L 229.991248 95.212923 
L 230.111572 95.212923 
L 230.111572 92.629813 
L 230.231092 92.629813 
L 230.231092 90.046703 
L 235.549222 90.046703 
L 235.549222 89.013459 
L 235.812639 89.013459 
L 235.899589 86.946971 
L 235.986117 86.946971 
L 235.986117 86.430349 
L 236.49667 86.430349 
L 236.49667 82.297373 
L 236.746577 82.297373 
L 236.746577 81.780751 
L 237.074442 81.780751 
L 237.074442 79.197641 
L 237.634115 79.197641 
L 237.634115 78.681019 
L 237.868711 78.681019 
L 237.868711 77.647775 
L 238.252987 77.647775 
L 238.252987 76.614531 
L 238.404412 76.614531 
L 238.404412 75.581286 
L 238.554565 75.581286 
L 238.554565 72.998176 
L 238.703467 72.998176 
L 238.777455 67.831956 
L 238.924519 67.831956 
L 238.924519 65.765468 
L 239.070382 65.765468 
L 239.142869 62.665736 
L 239.571724 62.665736 
L 239.571724 62.149114 
L 240.600883 62.149114 
L 240.600883 60.082626 
L 241.255466 60.082626 
L 241.255466 58.53276 
L 242.194462 58.53276 
L 242.194462 56.466272 
L 245.774525 56.466272 
L 245.774525 55.94965 
L 246.459961 55.94965 
L 246.459961 51.300052 
L 247.212414 51.300052 
L 247.304281 48.20032 
L 247.395678 48.20032 
L 247.441202 46.650454 
L 247.667098 46.650454 
L 247.667098 45.61721 
L 251.309753 45.61721 
L 251.382833 43.550722 
L 276.955496 43.550722 
L 276.955496 43.0341 
L 277.257987 43.0341 
L 277.309332 41.484233 
L 277.437053 41.484233 
L 277.487887 39.934367 
L 277.681422 39.934367 
L 277.773246 37.867879 
L 278.274062 37.867879 
L 278.379003 36.318013 
L 278.42723 36.318013 
L 278.42723 35.801391 
L 278.571135 35.801391 
L 278.571135 35.284769 
L 280.415467 35.284769 
L 280.415467 34.768147 
L 358.8 34.768147 
L 358.8 34.768147 
" style="fill:none;stroke:#ffa500;stroke-linecap:square;stroke-width:1.5;"/>
   </g>
   <g id="line2d_51">
    <defs>
     <path d="M 0 -6 
L -1.347084 -1.854102 
L -5.706339 -1.854102 
L -2.179628 0.708204 
L -3.526712 4.854102 
L -0 2.291796 
L 3.526712 4.854102 
L 2.179628 0.708204 
L 5.706339 -1.854102 
L 1.347084 -1.854102 
z
" id="m8c4fbd324b" style="stroke:#ffa500;stroke-linejoin:bevel;stroke-width:1.5;"/>
    </defs>
    <g>
     <use style="fill:none;stroke:#ffa500;stroke-linejoin:bevel;stroke-width:1.5;" x="358.8" xlink:href="#m8c4fbd324b" y="34.768147"/>
    </g>
   </g>
   <g id="line2d_52"/>
   <g id="line2d_53">
    <path clip-path="url(#p81492a35db)" d="M 276.514286 43.550722 
" style="fill:none;stroke:#ffa500;stroke-linecap:square;stroke-width:1.5;"/>
    <defs>
     <path d="M -12 12 
L 12 -12 
M -12 -12 
L 12 12 
" id="m2b482293c6" style="stroke:#ffa500;stroke-width:3;"/>
    </defs>
    <g clip-path="url(#p81492a35db)">
     <use style="fill:#ffa500;stroke:#ffa500;stroke-width:3;" x="276.514286" xlink:href="#m2b482293c6" y="43.550722"/>
    </g>
   </g>
   <g id="line2d_54">
    <defs>
     <path d="M 0 1.5 
C 0.397805 1.5 0.77937 1.341951 1.06066 1.06066 
C 1.341951 0.77937 1.5 0.397805 1.5 0 
C 1.5 -0.397805 1.341951 -0.77937 1.06066 -1.06066 
C 0.77937 -1.341951 0.397805 -1.5 0 -1.5 
C -0.397805 -1.5 -0.77937 -1.341951 -1.06066 -1.06066 
C -1.341951 -0.77937 -1.5 -0.397805 -1.5 0 
C -1.5 0.397805 -1.341951 0.77937 -1.06066 1.06066 
C -0.77937 1.341951 -0.397805 1.5 0 1.5 
z
" id="mf63a9a644e" style="stroke:#6495ed;"/>
    </defs>
    <g>
     <use style="fill:#6495ed;stroke:#6495ed;" x="242.616326" xlink:href="#mf63a9a644e" y="34.768147"/>
     <use style="fill:#6495ed;stroke:#6495ed;" x="242.616326" xlink:href="#mf63a9a644e" y="34.768147"/>
    </g>
   </g>
   <g id="line2d_55">
    <path d="M 58.414766 298.245375 
L 58.414766 236.767355 
L 153.085714 236.767355 
L 153.085714 232.634379 
L 160.330612 232.634379 
L 160.330612 230.567891 
L 165.470948 230.567891 
L 165.470948 230.051269 
L 172.715846 230.051269 
L 172.715846 229.534647 
L 175.470228 229.534647 
L 175.470228 227.984781 
L 177.856183 227.984781 
L 177.856183 226.951537 
L 179.960743 226.951537 
L 179.960743 226.434915 
L 181.843337 226.434915 
L 181.843337 225.918293 
L 183.546351 225.918293 
L 183.546351 224.885049 
L 185.10108 224.885049 
L 185.10108 224.368427 
L 193.312057 224.368427 
L 193.312057 221.785317 
L 194.228571 221.785317 
L 194.228571 220.235451 
L 196.725854 220.235451 
L 196.725854 219.718829 
L 197.486314 219.718829 
L 197.486314 218.685585 
L 201.473469 218.685585 
L 201.473469 214.552609 
L 203.709898 214.552609 
L 203.709898 212.48612 
L 204.227851 212.48612 
L 204.227851 211.969498 
L 204.731212 211.969498 
L 204.731212 211.452876 
L 205.697291 211.452876 
L 205.697291 210.936254 
L 207.485594 210.936254 
L 207.485594 208.869766 
L 208.316819 208.869766 
L 208.316819 207.836522 
L 208.718366 207.836522 
L 208.718366 206.286656 
L 209.111088 206.286656 
L 209.111088 204.73679 
L 209.871548 204.73679 
L 209.871548 204.220168 
L 210.239976 204.220168 
L 210.239976 203.703546 
L 211.301761 203.703546 
L 211.301761 203.186924 
L 214.154051 203.186924 
L 214.154051 202.670302 
L 216.866538 202.670302 
L 216.866538 201.637058 
L 217.116446 201.637058 
L 217.116446 201.120436 
L 217.606014 201.120436 
L 217.606014 200.603814 
L 218.774281 200.603814 
L 218.774281 198.020704 
L 218.99904 198.020704 
L 218.99904 197.504082 
L 219.221007 197.504082 
L 219.221007 196.470838 
L 219.44025 196.470838 
L 219.44025 193.887728 
L 220.082287 193.887728 
L 220.082287 192.854484 
L 220.291274 192.854484 
L 220.291274 190.787996 
L 220.702053 190.787996 
L 220.702053 188.721508 
L 220.903955 188.721508 
L 220.903955 188.204886 
L 221.103601 188.204886 
L 221.103601 187.171642 
L 221.496322 187.171642 
L 221.496322 185.105154 
L 221.689493 185.105154 
L 221.689493 183.555288 
L 221.880598 183.555288 
L 221.880598 182.005422 
L 222.06968 182.005422 
L 222.06968 179.422312 
L 222.256782 179.422312 
L 222.256782 178.90569 
L 222.441946 178.90569 
L 222.441946 175.805957 
L 222.62521 175.805957 
L 222.62521 175.289335 
L 222.806614 175.289335 
L 222.806614 168.056627 
L 222.986194 168.056627 
L 222.986194 166.506761 
L 223.163988 166.506761 
L 223.163988 163.407029 
L 223.34003 163.407029 
L 223.34003 162.373785 
L 223.514355 162.373785 
L 223.514355 157.724187 
L 223.686995 157.724187 
L 223.686995 157.207565 
L 224.195127 157.207565 
L 224.195127 154.107833 
L 224.361343 154.107833 
L 224.361343 152.557967 
L 225.791556 152.557967 
L 225.791556 151.524723 
L 225.943626 151.524723 
L 225.943626 149.974857 
L 226.243937 149.974857 
L 226.243937 149.458235 
L 226.973349 149.458235 
L 226.973349 148.941613 
L 227.256976 148.941613 
L 227.256976 147.391747 
L 227.536171 147.391747 
L 227.536171 146.875125 
L 227.67415 146.875125 
L 227.67415 146.358503 
L 228.081805 146.358503 
L 228.081805 145.325259 
L 228.215649 145.325259 
L 228.215649 142.225526 
L 228.480367 142.225526 
L 228.480367 140.159038 
L 228.870232 140.159038 
L 228.870232 138.609172 
L 228.998319 138.609172 
L 228.998319 133.442952 
L 229.125495 133.442952 
L 229.125495 131.376464 
L 229.251772 131.376464 
L 229.251772 129.826598 
L 229.377163 129.826598 
L 229.377163 127.76011 
L 229.50168 127.76011 
L 229.50168 125.693622 
L 229.748141 125.693622 
L 229.748141 124.143756 
L 229.870108 124.143756 
L 229.870108 121.560646 
L 229.991248 121.560646 
L 229.991248 119.494158 
L 230.231092 119.494158 
L 230.231092 117.944292 
L 230.349817 117.944292 
L 230.349817 116.911048 
L 230.467759 116.911048 
L 230.467759 114.84456 
L 231.272248 114.84456 
L 231.272248 113.811316 
L 232.362105 113.811316 
L 232.362105 113.294694 
L 232.780091 113.294694 
L 232.780091 112.778072 
L 233.188523 112.778072 
L 233.188523 112.26145 
L 233.587827 112.26145 
L 233.686274 109.161717 
L 234.170535 109.161717 
L 234.265832 106.578607 
L 234.642016 106.578607 
L 234.642016 105.028741 
L 235.101376 105.028741 
L 235.191848 102.445631 
L 235.371429 102.445631 
L 235.460547 100.895765 
L 235.549222 100.895765 
L 235.63746 99.345899 
L 235.725264 99.345899 
L 235.812639 97.279411 
L 235.986117 97.279411 
L 236.072229 93.663057 
L 236.829109 93.663057 
L 236.829109 91.596569 
L 237.155477 91.596569 
L 237.155477 90.563325 
L 237.396399 90.563325 
L 237.396399 89.013459 
L 237.555227 89.013459 
L 237.634115 87.980215 
L 237.868711 87.980215 
L 237.94623 83.847239 
L 238.023414 83.847239 
L 238.023414 80.747507 
L 238.252987 80.747507 
L 238.32886 78.164397 
L 238.404412 78.164397 
L 238.479646 74.548042 
L 238.554565 74.548042 
L 238.629171 71.964932 
L 238.703467 71.964932 
L 238.777455 65.248846 
L 238.851138 65.248846 
L 238.851138 64.215602 
L 239.142869 64.215602 
L 239.215064 59.049382 
L 239.286968 59.049382 
L 239.358583 54.399784 
L 239.429913 54.399784 
L 239.50096 50.266808 
L 239.571724 50.266808 
L 239.571724 47.683698 
L 239.712419 47.683698 
L 239.782353 44.583966 
L 240.467039 44.583966 
L 240.534086 42.000855 
L 240.931172 42.000855 
L 240.996503 40.967611 
L 241.061597 40.967611 
L 241.061597 40.450989 
L 241.255466 40.450989 
L 241.255466 39.934367 
L 241.510729 39.934367 
L 241.510729 39.417745 
L 242.072077 39.417745 
L 242.072077 37.867879 
L 242.255342 37.867879 
L 242.316015 36.834635 
L 242.496806 36.834635 
L 242.496806 35.801391 
L 242.616326 35.801391 
L 242.616326 34.768147 
L 358.8 34.768147 
L 358.8 34.768147 
" style="fill:none;stroke:#6495ed;stroke-linecap:square;stroke-width:1.5;"/>
   </g>
   <g id="line2d_56">
    <defs>
     <path d="M -0 6 
L 6 -6 
L -6 -6 
z
" id="m4503d07b68" style="stroke:#6495ed;stroke-linejoin:miter;stroke-width:1.5;"/>
    </defs>
    <g>
     <use style="fill:none;stroke:#6495ed;stroke-linejoin:miter;stroke-width:1.5;" x="358.8" xlink:href="#m4503d07b68" y="34.768147"/>
    </g>
   </g>
   <g id="line2d_57"/>
   <g id="line2d_58">
    <defs>
     <path d="M 0 1.5 
C 0.397805 1.5 0.77937 1.341951 1.06066 1.06066 
C 1.341951 0.77937 1.5 0.397805 1.5 0 
C 1.5 -0.397805 1.341951 -0.77937 1.06066 -1.06066 
C 0.77937 -1.341951 0.397805 -1.5 0 -1.5 
C -0.397805 -1.5 -0.77937 -1.341951 -1.06066 -1.06066 
C -1.341951 -0.77937 -1.5 -0.397805 -1.5 0 
C -1.5 0.397805 -1.341951 0.77937 -1.06066 1.06066 
C -0.77937 1.341951 -0.397805 1.5 0 1.5 
z
" id="m95b06083fa" style="stroke:#ff0000;"/>
    </defs>
    <g>
     <use style="fill:#ff0000;stroke:#ff0000;" x="238.554565" xlink:href="#m95b06083fa" y="34.768147"/>
     <use style="fill:#ff0000;stroke:#ff0000;" x="238.554565" xlink:href="#m95b06083fa" y="34.768147"/>
    </g>
   </g>
   <g id="line2d_59">
    <path d="M 58.414766 298.245375 
L 58.414766 259.498724 
L 153.085714 259.498724 
L 153.085714 257.948858 
L 165.470948 257.948858 
L 165.470948 256.915614 
L 172.715846 256.915614 
L 172.715846 255.365748 
L 179.960743 255.365748 
L 179.960743 253.815882 
L 181.843337 253.815882 
L 181.843337 252.782638 
L 183.546351 252.782638 
L 183.546351 252.266016 
L 192.345978 252.266016 
L 192.345978 251.749394 
L 195.931585 251.749394 
L 195.931585 251.232772 
L 196.725854 251.232772 
L 196.725854 250.71615 
L 198.215726 250.71615 
L 198.215726 250.199528 
L 200.240696 250.199528 
L 200.240696 249.682906 
L 200.867712 249.682906 
L 200.867712 247.616418 
L 206.613806 247.616418 
L 206.613806 246.583173 
L 208.316819 246.583173 
L 208.316819 245.549929 
L 211.301761 245.549929 
L 211.301761 245.033307 
L 211.976109 245.033307 
L 211.976109 243.483441 
L 214.444595 243.483441 
L 214.444595 242.966819 
L 215.561716 242.966819 
L 215.561716 241.933575 
L 216.095133 241.933575 
L 216.095133 239.867087 
L 216.355986 239.867087 
L 216.355986 238.833843 
L 216.613085 238.833843 
L 216.613085 235.734111 
L 217.116446 235.734111 
L 217.116446 235.217489 
L 218.082525 235.217489 
L 218.082525 229.534647 
L 218.774281 229.534647 
L 218.774281 228.501403 
L 218.99904 228.501403 
L 218.99904 227.468159 
L 219.221007 227.468159 
L 219.221007 223.851805 
L 219.44025 223.851805 
L 219.44025 222.301939 
L 219.656836 222.301939 
L 219.656836 218.685585 
L 219.870828 218.685585 
L 219.870828 215.585853 
L 220.291274 215.585853 
L 220.291274 211.452876 
L 220.497844 211.452876 
L 220.497844 210.936254 
L 220.702053 210.936254 
L 220.702053 210.419632 
L 220.903955 210.419632 
L 220.903955 207.836522 
L 221.30104 207.836522 
L 221.30104 204.73679 
L 221.496322 204.73679 
L 221.496322 198.020704 
L 221.689493 198.020704 
L 221.689493 192.854484 
L 221.880598 192.854484 
L 221.880598 186.138398 
L 222.06968 186.138398 
L 222.06968 182.005422 
L 222.256782 182.005422 
L 222.256782 179.422312 
L 222.441946 179.422312 
L 222.441946 174.256091 
L 222.62521 174.256091 
L 222.62521 172.189603 
L 222.806614 172.189603 
L 222.806614 163.923651 
L 222.986194 163.923651 
L 222.986194 153.074589 
L 223.163988 153.074589 
L 223.163988 148.941613 
L 223.34003 148.941613 
L 223.34003 144.808637 
L 223.514355 144.808637 
L 223.514355 141.708904 
L 223.686995 141.708904 
L 223.686995 140.67566 
L 223.857983 140.67566 
L 223.857983 137.059306 
L 224.02735 137.059306 
L 224.02735 134.476196 
L 224.195127 134.476196 
L 224.195127 131.893086 
L 224.361343 131.893086 
L 224.361343 127.76011 
L 224.526028 127.76011 
L 224.526028 122.59389 
L 224.689208 122.59389 
L 224.689208 119.494158 
L 224.850911 119.494158 
L 224.850911 118.460914 
L 225.483477 118.460914 
L 225.483477 117.42767 
L 225.791556 117.42767 
L 225.791556 116.394426 
L 226.094412 116.394426 
L 226.094412 114.327938 
L 226.82983 114.327938 
L 226.82983 110.711584 
L 226.973349 110.711584 
L 226.973349 108.128473 
L 227.115725 108.128473 
L 227.115725 106.578607 
L 227.811071 106.578607 
L 227.811071 105.028741 
L 227.94695 105.028741 
L 227.94695 103.478875 
L 228.081805 103.478875 
L 228.081805 100.379143 
L 228.215649 100.379143 
L 228.215649 98.312655 
L 228.348498 98.312655 
L 228.348498 97.796033 
L 228.480367 97.796033 
L 228.480367 95.729545 
L 228.611269 95.729545 
L 228.611269 93.146435 
L 228.74122 93.146435 
L 228.74122 85.913727 
L 228.870232 85.913727 
L 228.870232 84.880483 
L 228.998319 84.880483 
L 228.998319 81.264129 
L 229.125495 81.264129 
L 229.125495 78.681019 
L 229.251772 78.681019 
L 229.251772 75.581286 
L 229.50168 75.581286 
L 229.50168 67.831956 
L 229.625335 67.831956 
L 229.625335 64.732224 
L 229.870108 64.732224 
L 229.870108 62.149114 
L 229.991248 62.149114 
L 229.991248 60.082626 
L 230.111572 60.082626 
L 230.111572 51.816674 
L 230.231092 51.816674 
L 230.231092 48.716942 
L 235.460547 48.716942 
L 235.549222 38.901123 
L 235.63746 38.901123 
L 235.63746 37.351257 
L 235.812639 37.351257 
L 235.812639 35.801391 
L 236.829109 35.801391 
L 236.829109 35.284769 
L 238.554565 35.284769 
L 238.554565 34.768147 
L 358.8 34.768147 
L 358.8 34.768147 
" style="fill:none;stroke:#ff0000;stroke-linecap:square;stroke-width:1.5;"/>
   </g>
   <g id="line2d_60">
    <defs>
     <path d="M 0 -6 
L -5.196152 -3 
L -5.196152 3 
L -0 6 
L 5.196152 3 
L 5.196152 -3 
z
" id="m376c4b7ddc" style="stroke:#ff0000;stroke-linejoin:miter;stroke-width:1.5;"/>
    </defs>
    <g>
     <use style="fill:none;stroke:#ff0000;stroke-linejoin:miter;stroke-width:1.5;" x="358.8" xlink:href="#m376c4b7ddc" y="34.768147"/>
    </g>
   </g>
   <g id="line2d_61"/>
   <g id="line2d_62">
    <path d="M 358.8 34.768147 
L 390.48 292.97583 
" style="fill:none;stroke:#ffa500;stroke-linecap:square;stroke-width:1.5;"/>
    <g>
     <use style="fill:none;stroke:#ffa500;stroke-linejoin:bevel;stroke-width:1.5;" x="358.8" xlink:href="#m8c4fbd324b" y="34.768147"/>
     <use style="fill:none;stroke:#ffa500;stroke-linejoin:bevel;stroke-width:1.5;" x="390.48" xlink:href="#m8c4fbd324b" y="292.97583"/>
    </g>
   </g>
   <g id="line2d_63">
    <path d="M 358.8 34.768147 
L 390.48 229.741296 
" style="fill:none;stroke:#000080;stroke-linecap:square;stroke-width:1.5;"/>
    <g>
     <use style="fill:none;stroke:#000080;stroke-width:1.5;" x="358.8" xlink:href="#mb404812fb4" y="34.768147"/>
     <use style="fill:none;stroke:#000080;stroke-width:1.5;" x="390.48" xlink:href="#mb404812fb4" y="229.741296"/>
    </g>
   </g>
   <g id="line2d_64">
    <path d="M 358.8 34.768147 
L 390.48 166.506761 
" style="fill:none;stroke:#6495ed;stroke-linecap:square;stroke-width:1.5;"/>
    <g>
     <use style="fill:none;stroke:#6495ed;stroke-linejoin:miter;stroke-width:1.5;" x="358.8" xlink:href="#m4503d07b68" y="34.768147"/>
     <use style="fill:none;stroke:#6495ed;stroke-linejoin:miter;stroke-width:1.5;" x="390.48" xlink:href="#m4503d07b68" y="166.506761"/>
    </g>
   </g>
   <g id="line2d_65">
    <path d="M 358.8 34.768147 
L 390.48 103.272226 
" style="fill:none;stroke:#ff00ff;stroke-linecap:square;stroke-width:1.5;"/>
    <g>
     <use style="fill:none;stroke:#ff00ff;stroke-linejoin:miter;stroke-width:1.5;" x="358.8" xlink:href="#md8d3cf8f9a" y="34.768147"/>
     <use style="fill:none;stroke:#ff00ff;stroke-linejoin:miter;stroke-width:1.5;" x="390.48" xlink:href="#md8d3cf8f9a" y="103.272226"/>
    </g>
   </g>
   <g id="line2d_66">
    <path d="M 358.8 34.768147 
L 390.48 40.037692 
" style="fill:none;stroke:#ff0000;stroke-linecap:square;stroke-width:1.5;"/>
    <g>
     <use style="fill:none;stroke:#ff0000;stroke-linejoin:miter;stroke-width:1.5;" x="358.8" xlink:href="#m376c4b7ddc" y="34.768147"/>
     <use style="fill:none;stroke:#ff0000;stroke-linejoin:miter;stroke-width:1.5;" x="390.48" xlink:href="#m376c4b7ddc" y="40.037692"/>
    </g>
   </g>
   <g id="line2d_67">
    <path d="M 358.8 298.245375 
L 358.8 34.768147 
" style="fill:none;stroke:#000000;stroke-linecap:square;stroke-width:1.5;"/>
   </g>
   <g id="patch_3">
    <path d="M 70.8 298.245375 
L 70.8 32.133375 
" style="fill:none;stroke:#000000;stroke-linecap:square;stroke-linejoin:miter;stroke-width:0.8;"/>
   </g>
   <g id="patch_4">
    <path d="M 427.92 298.245375 
L 427.92 32.133375 
" style="fill:none;stroke:#000000;stroke-linecap:square;stroke-linejoin:miter;stroke-width:0.8;"/>
   </g>
   <g id="patch_5">
    <path d="M 70.8 298.245375 
L 427.92 298.245375 
" style="fill:none;stroke:#000000;stroke-linecap:square;stroke-linejoin:miter;stroke-width:0.8;"/>
   </g>
   <g id="patch_6">
    <path d="M 70.8 32.133375 
L 427.92 32.133375 
" style="fill:none;stroke:#000000;stroke-linecap:square;stroke-linejoin:miter;stroke-width:0.8;"/>
   </g>
   <g id="text_14">
    <!-- f16 -->
    <g transform="translate(396.24 297.114893)scale(0.15 -0.15)">
     <use xlink:href="#DejaVuSans-66"/>
     <use x="35.205078" xlink:href="#DejaVuSans-31"/>
     <use x="98.828125" xlink:href="#DejaVuSans-36"/>
    </g>
   </g>
   <g id="text_15">
    <!-- f18 -->
    <g transform="translate(396.24 233.880358)scale(0.15 -0.15)">
     <use xlink:href="#DejaVuSans-66"/>
     <use x="35.205078" xlink:href="#DejaVuSans-31"/>
     <use x="98.828125" xlink:href="#DejaVuSans-38"/>
    </g>
   </g>
   <g id="text_16">
    <!-- f17 -->
    <defs>
     <path d="M 8.203125 72.90625 
L 55.078125 72.90625 
L 55.078125 68.703125 
L 28.609375 0 
L 18.3125 0 
L 43.21875 64.59375 
L 8.203125 64.59375 
z
" id="DejaVuSans-37"/>
    </defs>
    <g transform="translate(396.24 170.645824)scale(0.15 -0.15)">
     <use xlink:href="#DejaVuSans-66"/>
     <use x="35.205078" xlink:href="#DejaVuSans-31"/>
     <use x="98.828125" xlink:href="#DejaVuSans-37"/>
    </g>
   </g>
   <g id="text_17">
    <!-- f19 -->
    <defs>
     <path d="M 10.984375 1.515625 
L 10.984375 10.5 
Q 14.703125 8.734375 18.5 7.8125 
Q 22.3125 6.890625 25.984375 6.890625 
Q 35.75 6.890625 40.890625 13.453125 
Q 46.046875 20.015625 46.78125 33.40625 
Q 43.953125 29.203125 39.59375 26.953125 
Q 35.25 24.703125 29.984375 24.703125 
Q 19.046875 24.703125 12.671875 31.3125 
Q 6.296875 37.9375 6.296875 49.421875 
Q 6.296875 60.640625 12.9375 67.421875 
Q 19.578125 74.21875 30.609375 74.21875 
Q 43.265625 74.21875 49.921875 64.515625 
Q 56.59375 54.828125 56.59375 36.375 
Q 56.59375 19.140625 48.40625 8.859375 
Q 40.234375 -1.421875 26.421875 -1.421875 
Q 22.703125 -1.421875 18.890625 -0.6875 
Q 15.09375 0.046875 10.984375 1.515625 
M 30.609375 32.421875 
Q 37.25 32.421875 41.125 36.953125 
Q 45.015625 41.5 45.015625 49.421875 
Q 45.015625 57.28125 41.125 61.84375 
Q 37.25 66.40625 30.609375 66.40625 
Q 23.96875 66.40625 20.09375 61.84375 
Q 16.21875 57.28125 16.21875 49.421875 
Q 16.21875 41.5 20.09375 36.953125 
Q 23.96875 32.421875 30.609375 32.421875 
" id="DejaVuSans-39"/>
    </defs>
    <g transform="translate(396.24 107.411289)scale(0.15 -0.15)">
     <use xlink:href="#DejaVuSans-66"/>
     <use x="35.205078" xlink:href="#DejaVuSans-31"/>
     <use x="98.828125" xlink:href="#DejaVuSans-39"/>
    </g>
   </g>
   <g id="text_18">
    <!-- f15 -->
    <defs>
     <path d="M 10.796875 72.90625 
L 49.515625 72.90625 
L 49.515625 64.59375 
L 19.828125 64.59375 
L 19.828125 46.734375 
Q 21.96875 47.46875 24.109375 47.828125 
Q 26.265625 48.1875 28.421875 48.1875 
Q 40.625 48.1875 47.75 41.5 
Q 54.890625 34.8125 54.890625 23.390625 
Q 54.890625 11.625 47.5625 5.09375 
Q 40.234375 -1.421875 26.90625 -1.421875 
Q 22.3125 -1.421875 17.546875 -0.640625 
Q 12.796875 0.140625 7.71875 1.703125 
L 7.71875 11.625 
Q 12.109375 9.234375 16.796875 8.0625 
Q 21.484375 6.890625 26.703125 6.890625 
Q 35.15625 6.890625 40.078125 11.328125 
Q 45.015625 15.765625 45.015625 23.390625 
Q 45.015625 31 40.078125 35.4375 
Q 35.15625 39.890625 26.703125 39.890625 
Q 22.75 39.890625 18.8125 39.015625 
Q 14.890625 38.140625 10.796875 36.28125 
z
" id="DejaVuSans-35"/>
    </defs>
    <g transform="translate(396.24 44.176754)scale(0.15 -0.15)">
     <use xlink:href="#DejaVuSans-66"/>
     <use x="35.205078" xlink:href="#DejaVuSans-31"/>
     <use x="98.828125" xlink:href="#DejaVuSans-35"/>
    </g>
   </g>
   <g id="text_19">
    <!-- bbob -->
    <defs>
     <path d="M 48.6875 27.296875 
Q 48.6875 37.203125 44.609375 42.84375 
Q 40.53125 48.484375 33.40625 48.484375 
Q 26.265625 48.484375 22.1875 42.84375 
Q 18.109375 37.203125 18.109375 27.296875 
Q 18.109375 17.390625 22.1875 11.75 
Q 26.265625 6.109375 33.40625 6.109375 
Q 40.53125 6.109375 44.609375 11.75 
Q 48.6875 17.390625 48.6875 27.296875 
M 18.109375 46.390625 
Q 20.953125 51.265625 25.265625 53.625 
Q 29.59375 56 35.59375 56 
Q 45.5625 56 51.78125 48.09375 
Q 58.015625 40.1875 58.015625 27.296875 
Q 58.015625 14.40625 51.78125 6.484375 
Q 45.5625 -1.421875 35.59375 -1.421875 
Q 29.59375 -1.421875 25.265625 0.953125 
Q 20.953125 3.328125 18.109375 8.203125 
L 18.109375 0 
L 9.078125 0 
L 9.078125 75.984375 
L 18.109375 75.984375 
z
" id="DejaVuSans-62"/>
    </defs>
    <g transform="translate(74.3712 50.114612)scale(0.1666 -0.1666)">
     <use xlink:href="#DejaVuSans-62"/>
     <use x="63.476562" xlink:href="#DejaVuSans-62"/>
     <use x="126.953125" xlink:href="#DejaVuSans-6f"/>
     <use x="188.134766" xlink:href="#DejaVuSans-62"/>
    </g>
    <!-- Multi-modal functions, 2-D -->
    <defs>
     <path d="M 9.8125 72.90625 
L 24.515625 72.90625 
L 43.109375 23.296875 
L 61.8125 72.90625 
L 76.515625 72.90625 
L 76.515625 0 
L 66.890625 0 
L 66.890625 64.015625 
L 48.09375 14.015625 
L 38.1875 14.015625 
L 19.390625 64.015625 
L 19.390625 0 
L 9.8125 0 
z
" id="DejaVuSans-4d"/>
     <path d="M 11.71875 12.40625 
L 22.015625 12.40625 
L 22.015625 4 
L 14.015625 -11.625 
L 7.71875 -11.625 
L 11.71875 4 
z
" id="DejaVuSans-2c"/>
     <path d="M 19.671875 64.796875 
L 19.671875 8.109375 
L 31.59375 8.109375 
Q 46.6875 8.109375 53.6875 14.9375 
Q 60.6875 21.78125 60.6875 36.53125 
Q 60.6875 51.171875 53.6875 57.984375 
Q 46.6875 64.796875 31.59375 64.796875 
z
M 9.8125 72.90625 
L 30.078125 72.90625 
Q 51.265625 72.90625 61.171875 64.09375 
Q 71.09375 55.28125 71.09375 36.53125 
Q 71.09375 17.671875 61.125 8.828125 
Q 51.171875 0 30.078125 0 
L 9.8125 0 
z
" id="DejaVuSans-44"/>
    </defs>
    <g transform="translate(74.3712 68.770168)scale(0.1666 -0.1666)">
     <use xlink:href="#DejaVuSans-4d"/>
     <use x="86.279297" xlink:href="#DejaVuSans-75"/>
     <use x="149.658203" xlink:href="#DejaVuSans-6c"/>
     <use x="177.441406" xlink:href="#DejaVuSans-74"/>
     <use x="216.650391" xlink:href="#DejaVuSans-69"/>
     <use x="244.433594" xlink:href="#DejaVuSans-2d"/>
     <use x="280.517578" xlink:href="#DejaVuSans-6d"/>
     <use x="377.929688" xlink:href="#DejaVuSans-6f"/>
     <use x="439.111328" xlink:href="#DejaVuSans-64"/>
     <use x="502.587891" xlink:href="#DejaVuSans-61"/>
     <use x="563.867188" xlink:href="#DejaVuSans-6c"/>
     <use x="591.650391" xlink:href="#DejaVuSans-20"/>
     <use x="623.4375" xlink:href="#DejaVuSans-66"/>
     <use x="658.642578" xlink:href="#DejaVuSans-75"/>
     <use x="722.021484" xlink:href="#DejaVuSans-6e"/>
     <use x="785.400391" xlink:href="#DejaVuSans-63"/>
     <use x="840.380859" xlink:href="#DejaVuSans-74"/>
     <use x="879.589844" xlink:href="#DejaVuSans-69"/>
     <use x="907.373047" xlink:href="#DejaVuSans-6f"/>
     <use x="968.554688" xlink:href="#DejaVuSans-6e"/>
     <use x="1031.933594" xlink:href="#DejaVuSans-73"/>
     <use x="1084.033203" xlink:href="#DejaVuSans-2c"/>
     <use x="1115.820312" xlink:href="#DejaVuSans-20"/>
     <use x="1147.607422" xlink:href="#DejaVuSans-32"/>
     <use x="1211.230469" xlink:href="#DejaVuSans-2d"/>
     <use x="1247.314453" xlink:href="#DejaVuSans-44"/>
    </g>
    <!-- 51 targets in 100..1e-08 -->
    <g transform="translate(74.3712 87.425723)scale(0.1666 -0.1666)">
     <use xlink:href="#DejaVuSans-35"/>
     <use x="63.623047" xlink:href="#DejaVuSans-31"/>
     <use x="127.246094" xlink:href="#DejaVuSans-20"/>
     <use x="159.033203" xlink:href="#DejaVuSans-74"/>
     <use x="198.242188" xlink:href="#DejaVuSans-61"/>
     <use x="259.521484" xlink:href="#DejaVuSans-72"/>
     <use x="300.619141" xlink:href="#DejaVuSans-67"/>
     <use x="364.095703" xlink:href="#DejaVuSans-65"/>
     <use x="425.619141" xlink:href="#DejaVuSans-74"/>
     <use x="464.828125" xlink:href="#DejaVuSans-73"/>
     <use x="516.927734" xlink:href="#DejaVuSans-20"/>
     <use x="548.714844" xlink:href="#DejaVuSans-69"/>
     <use x="576.498047" xlink:href="#DejaVuSans-6e"/>
     <use x="639.876953" xlink:href="#DejaVuSans-20"/>
     <use x="671.664062" xlink:href="#DejaVuSans-31"/>
     <use x="735.287109" xlink:href="#DejaVuSans-30"/>
     <use x="798.910156" xlink:href="#DejaVuSans-30"/>
     <use x="862.533203" xlink:href="#DejaVuSans-2e"/>
     <use x="894.320312" xlink:href="#DejaVuSans-2e"/>
     <use x="926.107422" xlink:href="#DejaVuSans-31"/>
     <use x="989.730469" xlink:href="#DejaVuSans-65"/>
     <use x="1051.253906" xlink:href="#DejaVuSans-2d"/>
     <use x="1087.337891" xlink:href="#DejaVuSans-30"/>
     <use x="1150.960938" xlink:href="#DejaVuSans-38"/>
    </g>
    <!-- 15 instances -->
    <g transform="translate(74.3712 106.081279)scale(0.1666 -0.1666)">
     <use xlink:href="#DejaVuSans-31"/>
     <use x="63.623047" xlink:href="#DejaVuSans-35"/>
     <use x="127.246094" xlink:href="#DejaVuSans-20"/>
     <use x="159.033203" xlink:href="#DejaVuSans-69"/>
     <use x="186.816406" xlink:href="#DejaVuSans-6e"/>
     <use x="250.195312" xlink:href="#DejaVuSans-73"/>
     <use x="302.294922" xlink:href="#DejaVuSans-74"/>
     <use x="341.503906" xlink:href="#DejaVuSans-61"/>
     <use x="402.783203" xlink:href="#DejaVuSans-6e"/>
     <use x="466.162109" xlink:href="#DejaVuSans-63"/>
     <use x="521.142578" xlink:href="#DejaVuSans-65"/>
     <use x="582.666016" xlink:href="#DejaVuSans-73"/>
    </g>
   </g>
   <g id="text_20">
    <!-- v2.0.1 -->
    <g style="fill:#808080;" transform="translate(233.67875 293.504568)scale(0.1 -0.1)">
     <use xlink:href="#DejaVuSans-76"/>
     <use x="59.179688" xlink:href="#DejaVuSans-32"/>
     <use x="122.802734" xlink:href="#DejaVuSans-2e"/>
     <use x="154.589844" xlink:href="#DejaVuSans-30"/>
     <use x="218.212891" xlink:href="#DejaVuSans-2e"/>
     <use x="250" xlink:href="#DejaVuSans-31"/>
    </g>
   </g>
  </g>
 </g>
 <defs>
  <clipPath id="p81492a35db">
   <rect height="266.112" width="357.12" x="70.8" y="32.133375"/>
  </clipPath>
 </defs>
</svg>
