<?xml version="1.0" encoding="utf-8" standalone="no"?>
<!DOCTYPE svg PUBLIC "-//W3C//DTD SVG 1.1//EN"
  "http://www.w3.org/Graphics/SVG/1.1/DTD/svg11.dtd">
<!-- Created with matplotlib (http://matplotlib.org/) -->
<svg height="407pt" version="1.1" viewBox="0 0 460 407" width="460pt" xmlns="http://www.w3.org/2000/svg" xmlns:xlink="http://www.w3.org/1999/xlink">
 <defs>
  <style type="text/css">
*{stroke-linecap:butt;stroke-linejoin:round;}
  </style>
 </defs>
 <g id="figure_1">
  <g id="patch_1">
   <path d="
M0 407.712
L460.8 407.712
L460.8 0
L0 0
z
" style="fill:#ffffff;"/>
  </g>
  <g id="axes_1">
   <g id="patch_2">
    <path d="
M7.2 352.8
L453.6 352.8
L453.6 7.2
L7.2 7.2
z
" style="fill:#ffffff;"/>
   </g>
   <g id="line2d_1">
    <path clip-path="url(#p99b4b0da67)" d="
M-1 284.364
L62.2416 284.364
L62.2416 279.802
L70.1874 279.802
L70.1874 275.24
L71.3118 275.24
L71.3118 270.677
L71.9824 270.677
L71.9824 266.115
L72.4728 266.115
L72.4728 261.552
L73.0385 261.552
L73.0385 256.99
L73.5361 256.99
L73.5361 252.428
L74.3327 252.428
L74.3327 247.865
L74.8869 247.865
L74.8869 243.303
L75.6546 243.303
L75.6546 238.741
L77.7494 238.741
L77.7494 234.178
L77.9207 234.178
L77.9207 229.616
L78.0913 229.616
L78.0913 225.053
L78.9586 225.053
L78.9586 220.491
L79.8474 220.491
L79.8474 215.929
L123.31 215.929
L123.31 211.366
L128.921 211.366
L128.921 206.804
L130.155 206.804
L130.155 202.242
L130.873 202.242
L130.873 197.679
L132.047 197.679
L132.047 193.117
L133.956 193.117
L133.956 188.554
L135.396 188.554
L135.396 183.992
L135.539 183.992
L135.539 179.43
L136.012 179.43
L136.035 170.305
L136.346 170.305
L136.455 161.18
L137.899 161.18
L137.899 156.618
L138.106 156.618
L138.106 152.055
L138.272 152.055
L138.272 147.493
L140.802 147.493
L140.802 142.931
L141.283 142.931
L141.283 138.368
L141.579 138.368
L141.579 133.806
L142.562 133.806
L142.562 129.244
L142.77 129.244
L142.77 124.681
L143.874 124.681
L143.874 120.119
L144.388 120.119
L144.388 115.556
L144.792 115.556
L144.792 110.994
L145.086 110.994
L145.086 106.432
L145.724 106.432
L145.724 101.869
L146.171 101.869
L146.171 97.3069
L148.92 97.3069
L148.92 92.7446
L149.409 92.7446
L149.409 88.1822
L149.754 88.1822
L149.754 83.6198
L151.154 83.6198
L151.154 79.0574
L162.784 79.0574
L162.784 74.495
L168.028 74.495
L168.028 69.9327
L168.809 69.9327
L168.809 65.3703
L169.814 65.3703
L169.814 60.8079
L170.561 60.8079
L170.561 56.2455
L173.21 56.2455
L173.21 51.6832
L173.516 51.6832
L173.516 47.1208
L173.854 47.1208
L173.854 42.5584
L175.338 42.5584
L175.338 37.996
L175.938 37.996
L175.938 33.4337
L176.527 33.4337
L176.527 28.8713
L178.997 28.8713
L178.997 24.3089
L179.779 24.3089
L179.779 19.7465
L185.34 19.7465
L185.34 15.1842
L202.658 15.1842
L202.658 10.6218
L202.658 10.6218
L453.6 10.6218
L453.6 10.6218" style="fill:none;stroke:#ff0000;stroke-linecap:square;stroke-width:3.0;"/>
   </g>
   <g id="line2d_2">
    <path clip-path="url(#p99b4b0da67)" d="
M231.284 352.8
L231.284 348.238
L233.094 348.238
L233.094 343.675
L234.938 343.675
L234.938 339.113
L237.012 339.113
L237.012 334.55
L237.41 334.55
L237.41 329.988
L238.089 329.988
L238.089 325.426
L238.373 325.426
L238.373 320.863
L239.449 320.863
L239.449 316.301
L240.038 316.301
L240.077 307.176
L240.73 307.176
L240.73 302.614
L241.002 302.614
L241.002 298.051
L241.35 298.051
L241.412 288.927
L241.694 288.927
L241.694 284.364
L242.212 284.364
L242.238 270.677
L242.386 270.677
L242.386 266.115
L242.654 266.115
L242.654 261.552
L242.784 261.552
L242.871 252.428
L243.144 252.428
L243.144 247.865
L243.299 247.865
L243.299 243.303
L243.496 243.303
L243.496 238.741
L243.747 238.741
L243.747 234.178
L243.986 234.178
L243.986 229.616
L244.172 229.616
L244.172 225.053
L244.33 225.053
L244.33 220.491
L244.994 220.491
L244.994 215.929
L254.022 215.929
L254.022 211.366
L255.182 211.366
L255.261 202.242
L255.728 202.242
L255.728 197.679
L256.253 197.679
L256.253 193.117
L257.385 193.117
L257.392 183.992
L257.826 183.992
L257.885 174.867
L258.212 174.867
L258.212 170.305
L259.866 170.305
L259.866 165.743
L260.286 165.743
L260.286 161.18
L261.471 161.18
L261.471 156.618
L262.186 156.618
L262.186 152.055
L262.366 152.055
L262.366 147.493
L262.746 147.493
L262.746 142.931
L263.87 142.931
L263.87 138.368
L264.213 138.368
L264.213 133.806
L264.74 133.806
L264.74 129.244
L265.089 129.244
L265.089 124.681
L266.429 124.681
L266.429 120.119
L268.116 120.119
L268.116 115.556
L268.559 115.556
L268.559 110.994
L271.144 110.994
L271.144 106.432
L271.649 106.432
L271.649 101.869
L273.026 101.869
L273.026 97.3069
L273.34 97.3069
L273.34 92.7446
L279.36 92.7446
L279.36 88.1822
L280.366 88.1822
L280.366 83.6198
L281.951 83.6198
L281.951 79.0574
L320.335 79.0574
L320.335 74.495
L331.464 74.495
L331.464 69.9327
L341.183 69.9327
L341.183 65.3703
L343.355 65.3703
L343.355 60.8079
L345.175 60.8079
L345.175 56.2455
L346.051 56.2455
L346.051 51.6832
L346.775 51.6832
L346.775 47.1208
L347.466 47.1208
L347.466 42.5584
L350.217 42.5584
L350.217 37.996
L351.782 37.996
L351.782 33.4337
L353.484 33.4337
L353.484 28.8713
L356.764 28.8713
L356.764 24.3089
L359.659 24.3089
L359.659 19.7465
L361.02 19.7465
L361.02 15.1842
L361.876 15.1842
L361.876 10.6218
L361.876 10.6218
L453.6 10.6218
L453.6 10.6218" style="fill:none;stroke:#00bfbf;stroke-linecap:square;"/>
   </g>
   <g id="line2d_3">
    <path clip-path="url(#p99b4b0da67)" d="
M231.284 352.8
L231.284 348.238
L233.094 348.238
L233.094 343.675
L234.938 343.675
L234.938 339.113
L237.012 339.113
L237.012 334.55
L237.41 334.55
L237.41 329.988
L238.089 329.988
L238.089 325.426
L238.373 325.426
L238.373 320.863
L239.449 320.863
L239.449 316.301
L240.038 316.301
L240.077 307.176
L240.73 307.176
L240.73 302.614
L241.002 302.614
L241.002 298.051
L241.35 298.051
L241.412 288.927
L241.694 288.927
L241.694 284.364
L242.212 284.364
L242.238 270.677
L242.386 270.677
L242.386 266.115
L242.654 266.115
L242.654 261.552
L242.784 261.552
L242.871 252.428
L243.144 252.428
L243.144 247.865
L243.299 247.865
L243.299 243.303
L243.496 243.303
L243.496 238.741
L243.747 238.741
L243.747 234.178
L243.986 234.178
L243.986 229.616
L244.172 229.616
L244.172 225.053
L244.33 225.053
L244.33 220.491
L244.994 220.491
L244.994 215.929
L254.022 215.929
L254.022 211.366
L255.182 211.366
L255.261 202.242
L255.728 202.242
L255.728 197.679
L256.253 197.679
L256.253 193.117
L257.385 193.117
L257.392 183.992
L257.826 183.992
L257.885 174.867
L258.212 174.867
L258.212 170.305
L259.866 170.305
L259.866 165.743
L260.286 165.743
L260.286 161.18
L261.471 161.18
L261.471 156.618
L262.186 156.618
L262.186 152.055
L262.366 152.055
L262.366 147.493
L262.746 147.493
L262.746 142.931
L263.87 142.931
L263.87 138.368
L264.213 138.368
L264.213 133.806
L264.74 133.806
L264.74 129.244
L265.089 129.244
L265.089 124.681
L266.429 124.681
L266.429 120.119
L268.116 120.119
L268.116 115.556
L268.559 115.556
L268.559 110.994
L271.144 110.994
L271.144 106.432
L271.649 106.432
L271.649 101.869
L273.026 101.869
L273.026 97.3069
L273.34 97.3069
L273.34 92.7446
L279.36 92.7446
L279.36 88.1822
L280.366 88.1822
L280.366 83.6198
L281.951 83.6198
L281.951 79.0574
L320.335 79.0574
L320.335 74.495
L331.464 74.495
L331.464 69.9327
L341.183 69.9327
L341.183 65.3703
L343.355 65.3703
L343.355 60.8079
L345.175 60.8079
L345.175 56.2455
L346.051 56.2455
L346.051 51.6832
L346.775 51.6832
L346.775 47.1208
L347.466 47.1208
L347.466 42.5584
L350.217 42.5584
L350.217 37.996
L351.782 37.996
L351.782 33.4337
L353.484 33.4337
L353.484 28.8713
L356.764 28.8713
L356.764 24.3089
L359.659 24.3089
L359.659 19.7465
L361.02 19.7465
L361.02 15.1842
L361.876 15.1842
L361.876 10.6218
L361.876 10.6218
L453.6 10.6218
L453.6 10.6218" style="fill:none;stroke:#bf00bf;stroke-linecap:square;"/>
   </g>
   <g id="line2d_4">
    <path clip-path="url(#p99b4b0da67)" d="
M231.284 352.8
L231.284 348.238
L233.094 348.238
L233.094 343.675
L234.938 343.675
L234.938 339.113
L237.012 339.113
L237.012 334.55
L237.41 334.55
L237.41 329.988
L238.089 329.988
L238.089 325.426
L238.373 325.426
L238.373 320.863
L239.449 320.863
L239.449 316.301
L240.038 316.301
L240.077 307.176
L240.73 307.176
L240.73 302.614
L241.002 302.614
L241.002 298.051
L241.35 298.051
L241.412 288.927
L241.694 288.927
L241.694 284.364
L242.212 284.364
L242.238 270.677
L242.386 270.677
L242.386 266.115
L242.654 266.115
L242.654 261.552
L242.784 261.552
L242.871 252.428
L243.144 252.428
L243.144 247.865
L243.299 247.865
L243.299 243.303
L243.496 243.303
L243.496 238.741
L243.747 238.741
L243.747 234.178
L243.986 234.178
L243.986 229.616
L244.172 229.616
L244.172 225.053
L244.33 225.053
L244.33 220.491
L244.994 220.491
L244.994 215.929
L254.022 215.929
L254.022 211.366
L255.182 211.366
L255.261 202.242
L255.728 202.242
L255.728 197.679
L256.253 197.679
L256.253 193.117
L257.385 193.117
L257.392 183.992
L257.826 183.992
L257.885 174.867
L258.212 174.867
L258.212 170.305
L259.866 170.305
L259.866 165.743
L260.286 165.743
L260.286 161.18
L261.471 161.18
L261.471 156.618
L262.186 156.618
L262.186 152.055
L262.366 152.055
L262.366 147.493
L262.746 147.493
L262.746 142.931
L263.87 142.931
L263.87 138.368
L264.213 138.368
L264.213 133.806
L264.74 133.806
L264.74 129.244
L265.089 129.244
L265.089 124.681
L266.429 124.681
L266.429 120.119
L268.116 120.119
L268.116 115.556
L268.559 115.556
L268.559 110.994
L271.144 110.994
L271.144 106.432
L271.649 106.432
L271.649 101.869
L273.026 101.869
L273.026 97.3069
L273.34 97.3069
L273.34 92.7446
L279.36 92.7446
L279.36 88.1822
L280.366 88.1822
L280.366 83.6198
L281.951 83.6198
L281.951 79.0574
L320.335 79.0574
L320.335 74.495
L331.464 74.495
L331.464 69.9327
L341.183 69.9327
L341.183 65.3703
L343.355 65.3703
L343.355 60.8079
L345.175 60.8079
L345.175 56.2455
L346.051 56.2455
L346.051 51.6832
L346.775 51.6832
L346.775 47.1208
L347.466 47.1208
L347.466 42.5584
L350.217 42.5584
L350.217 37.996
L351.782 37.996
L351.782 33.4337
L353.484 33.4337
L353.484 28.8713
L356.764 28.8713
L356.764 24.3089
L359.659 24.3089
L359.659 19.7465
L361.02 19.7465
L361.02 15.1842
L361.876 15.1842
L361.876 10.6218
L361.876 10.6218
L453.6 10.6218
L453.6 10.6218" style="fill:none;stroke:#000000;stroke-linecap:square;"/>
   </g>
   <g id="line2d_5">
    <path clip-path="url(#p99b4b0da67)" d="
M231.284 352.8
L231.284 348.238
L233.094 348.238
L233.094 343.675
L234.938 343.675
L234.938 339.113
L237.012 339.113
L237.012 334.55
L237.41 334.55
L237.41 329.988
L238.089 329.988
L238.089 325.426
L238.373 325.426
L238.373 320.863
L239.449 320.863
L239.449 316.301
L240.038 316.301
L240.077 307.176
L240.73 307.176
L240.73 302.614
L241.002 302.614
L241.002 298.051
L241.35 298.051
L241.412 288.927
L241.694 288.927
L241.694 284.364
L242.212 284.364
L242.238 270.677
L242.386 270.677
L242.386 266.115
L242.654 266.115
L242.654 261.552
L242.784 261.552
L242.871 252.428
L243.144 252.428
L243.144 247.865
L243.299 247.865
L243.299 243.303
L243.496 243.303
L243.496 238.741
L243.747 238.741
L243.747 234.178
L243.986 234.178
L243.986 229.616
L244.172 229.616
L244.172 225.053
L244.33 225.053
L244.33 220.491
L244.994 220.491
L244.994 215.929
L254.022 215.929
L254.022 211.366
L255.182 211.366
L255.261 202.242
L255.728 202.242
L255.728 197.679
L256.253 197.679
L256.253 193.117
L257.385 193.117
L257.392 183.992
L257.826 183.992
L257.885 174.867
L258.212 174.867
L258.212 170.305
L259.866 170.305
L259.866 165.743
L260.286 165.743
L260.286 161.18
L261.471 161.18
L261.471 156.618
L262.186 156.618
L262.186 152.055
L262.366 152.055
L262.366 147.493
L262.746 147.493
L262.746 142.931
L263.87 142.931
L263.87 138.368
L264.213 138.368
L264.213 133.806
L264.74 133.806
L264.74 129.244
L265.089 129.244
L265.089 124.681
L266.429 124.681
L266.429 120.119
L268.116 120.119
L268.116 115.556
L268.559 115.556
L268.559 110.994
L271.144 110.994
L271.144 106.432
L271.649 106.432
L271.649 101.869
L273.026 101.869
L273.026 97.3069
L273.34 97.3069
L273.34 92.7446
L279.36 92.7446
L279.36 88.1822
L280.366 88.1822
L280.366 83.6198
L281.951 83.6198
L281.951 79.0574
L320.335 79.0574
L320.335 74.495
L331.464 74.495
L331.464 69.9327
L341.183 69.9327
L341.183 65.3703
L343.355 65.3703
L343.355 60.8079
L345.175 60.8079
L345.175 56.2455
L346.051 56.2455
L346.051 51.6832
L346.775 51.6832
L346.775 47.1208
L347.466 47.1208
L347.466 42.5584
L350.217 42.5584
L350.217 37.996
L351.782 37.996
L351.782 33.4337
L353.484 33.4337
L353.484 28.8713
L356.764 28.8713
L356.764 24.3089
L359.659 24.3089
L359.659 19.7465
L361.02 19.7465
L361.02 15.1842
L361.876 15.1842
L361.876 10.6218
L361.876 10.6218
L453.6 10.6218
L453.6 10.6218" style="fill:none;stroke:#00bfbf;stroke-linecap:square;"/>
   </g>
   <g id="line2d_6">
    <path clip-path="url(#p99b4b0da67)" d="
M216.323 352.8
L216.323 348.238
L217.291 348.238
L217.291 343.675
L218.273 343.675
L218.292 334.55
L219.113 334.55
L219.113 329.988
L219.386 329.988
L219.386 325.426
L220.627 325.426
L220.627 320.863
L222.521 320.863
L222.571 311.739
L222.763 311.739
L222.763 307.176
L223.164 307.176
L223.164 302.614
L223.387 302.614
L223.387 298.051
L223.961 298.051
L223.961 293.489
L224.733 293.489
L224.733 288.927
L225 288.927
L225 284.364
L229.974 284.364
L229.974 279.802
L231.837 279.802
L231.837 275.24
L232.417 275.24
L232.419 266.115
L232.828 266.115
L232.828 261.552
L232.959 261.552
L232.959 256.99
L233.101 256.99
L233.121 238.741
L233.642 238.741
L233.642 234.178
L234.377 234.178
L234.377 229.616
L234.571 229.616
L234.571 225.053
L234.707 225.053
L234.707 220.491
L234.839 220.491
L234.839 215.929
L239.941 215.929
L239.941 211.366
L240.164 211.366
L240.164 206.804
L240.632 206.804
L240.632 202.242
L241.181 202.242
L241.232 193.117
L241.37 193.117
L241.463 183.992
L241.658 183.992
L241.658 179.43
L242.413 179.43
L242.413 174.867
L242.754 174.867
L242.798 161.18
L243.128 161.18
L243.128 156.618
L243.335 156.618
L243.41 142.931
L243.683 142.931
L243.683 138.368
L243.967 138.368
L243.967 133.806
L244.382 133.806
L244.382 129.244
L244.522 129.244
L244.577 115.556
L244.856 115.556
L244.856 110.994
L244.98 110.994
L245.047 97.3069
L245.368 97.3069
L245.368 92.7446
L246.071 92.7446
L246.123 83.6198
L246.683 83.6198
L246.683 79.0574
L308.388 79.0574
L308.388 74.495
L309.404 74.495
L309.404 69.9327
L309.718 69.9327
L309.718 65.3703
L310.988 65.3703
L310.988 60.8079
L311.75 60.8079
L311.75 56.2455
L311.946 56.2455
L311.946 51.6832
L312.479 51.6832
L312.479 47.1208
L312.597 47.1208
L312.597 42.5584
L313.533 42.5584
L313.533 37.996
L313.664 37.996
L313.664 33.4337
L315.752 33.4337
L315.752 28.8713
L315.874 28.8713
L315.901 19.7465
L316.438 19.7465
L316.438 15.1842
L322.773 15.1842
L322.773 10.6218
L322.773 10.6218
L453.6 10.6218
L453.6 10.6218" style="fill:none;stroke:#bf00bf;stroke-linecap:square;"/>
   </g>
   <g id="line2d_7">
    <path clip-path="url(#p99b4b0da67)" d="
M203.836 352.8
L203.836 348.238
L204.591 348.238
L204.591 343.675
L205.205 343.675
L205.205 339.113
L205.474 339.113
L205.474 334.55
L207.649 334.55
L207.746 320.863
L207.774 320.863
L207.774 316.301
L209.918 316.301
L209.918 311.739
L210.594 311.739
L210.594 307.176
L210.948 307.176
L211.001 298.051
L211.258 298.051
L211.258 293.489
L211.539 293.489
L211.539 288.927
L213.806 288.927
L213.806 284.364
L222.681 284.364
L222.681 279.802
L223.994 279.802
L223.994 275.24
L224.187 275.24
L224.187 270.677
L224.533 270.677
L224.533 266.115
L224.701 266.115
L224.701 261.552
L225.279 261.552
L225.279 256.99
L225.698 256.99
L225.698 252.428
L226.456 252.428
L226.514 243.303
L226.6 243.303
L226.6 238.741
L226.993 238.741
L226.993 234.178
L227.108 234.178
L227.108 229.616
L227.264 229.616
L227.264 225.053
L227.825 225.053
L227.825 220.491
L228.823 220.491
L228.823 215.929
L231.867 215.929
L231.867 211.366
L232.004 211.366
L232.058 202.242
L233.202 202.242
L233.202 197.679
L233.603 197.679
L233.603 193.117
L233.915 193.117
L233.915 188.554
L234.578 188.554
L234.578 183.992
L234.772 183.992
L234.844 165.743
L235.687 165.743
L235.687 161.18
L235.974 161.18
L236.04 152.055
L236.177 152.055
L236.28 142.931
L236.892 142.931
L236.892 138.368
L237.049 138.368
L237.12 129.244
L237.57 129.244
L237.666 115.556
L237.734 115.556
L237.734 110.994
L238.084 110.994
L238.084 106.432
L238.356 106.432
L238.356 101.869
L238.809 101.869
L238.87 92.7446
L239.057 92.7446
L239.071 79.0574
L292.481 79.0574
L292.481 74.495
L293.04 74.495
L293.04 69.9327
L294.209 69.9327
L294.209 65.3703
L296.846 65.3703
L296.846 60.8079
L297.284 60.8079
L297.284 56.2455
L297.527 56.2455
L297.527 51.6832
L298.3 51.6832
L298.3 47.1208
L298.829 47.1208
L298.829 42.5584
L299.073 42.5584
L299.073 37.996
L299.227 37.996
L299.232 28.8713
L302.967 28.8713
L303.013 19.7465
L303.161 19.7465
L303.161 15.1842
L310.509 15.1842
L310.509 10.6218
L310.509 10.6218
L453.6 10.6218
L453.6 10.6218" style="fill:none;stroke:#000000;stroke-linecap:square;"/>
   </g>
   <g id="line2d_8">
    <path clip-path="url(#p99b4b0da67)" d="
M165.547 352.8
L165.547 348.238
L167.999 348.238
L167.999 343.675
L168.361 343.675
L168.361 339.113
L170.193 339.113
L170.193 334.55
L171.347 334.55
L171.347 329.988
L171.736 329.988
L171.736 325.426
L172.389 325.426
L172.389 320.863
L173.744 320.863
L173.744 316.301
L173.856 316.301
L173.856 311.739
L174.409 311.739
L174.409 307.176
L174.653 307.176
L174.653 302.614
L177.97 302.614
L177.97 298.051
L181.577 298.051
L181.577 293.489
L183.911 293.489
L183.947 284.364
L184.946 284.364
L184.946 279.802
L188.126 279.802
L188.126 275.24
L191.226 275.24
L191.226 270.677
L192.856 270.677
L192.856 266.115
L197.125 266.115
L197.125 261.552
L198.056 261.552
L198.056 256.99
L202.51 256.99
L202.51 252.428
L202.821 252.428
L202.821 247.865
L203.602 247.865
L203.602 243.303
L205.229 243.303
L205.229 238.741
L210.047 238.741
L210.047 234.178
L210.319 234.178
L210.394 225.053
L212.338 225.053
L212.338 220.491
L213.882 220.491
L213.882 215.929
L216.621 215.929
L216.621 211.366
L217.675 211.366
L217.675 206.804
L217.902 206.804
L217.902 202.242
L218.048 202.242
L218.048 197.679
L218.573 197.679
L218.573 193.117
L219.6 193.117
L219.6 188.554
L220.168 188.554
L220.168 183.992
L220.449 183.992
L220.449 179.43
L220.629 179.43
L220.629 174.867
L221.064 174.867
L221.064 170.305
L221.643 170.305
L221.689 161.18
L221.893 161.18
L221.893 156.618
L222.101 156.618
L222.101 152.055
L222.877 152.055
L222.877 147.493
L223.797 147.493
L223.798 138.368
L224.273 138.368
L224.273 133.806
L224.74 133.806
L224.846 124.681
L224.904 124.681
L224.904 120.119
L225.508 120.119
L225.508 115.556
L226.487 115.556
L226.487 110.994
L226.623 110.994
L226.623 106.432
L227.565 106.432
L227.565 101.869
L228.731 101.869
L228.748 92.7446
L229 92.7446
L229.042 83.6198
L230.155 83.6198
L230.155 79.0574
L255.908 79.0574
L256.002 69.9327
L257.602 69.9327
L257.602 65.3703
L260.145 65.3703
L260.145 60.8079
L261.4 60.8079
L261.4 56.2455
L261.566 56.2455
L261.566 51.6832
L261.747 51.6832
L261.747 47.1208
L262.566 47.1208
L262.566 42.5584
L265.047 42.5584
L265.047 37.996
L265.716 37.996
L265.716 33.4337
L270.792 33.4337
L270.792 28.8713
L274.915 28.8713
L274.915 24.3089
L277.152 24.3089
L277.152 19.7465
L277.786 19.7465
L277.786 15.1842
L280.277 15.1842
L280.277 10.6218
L280.277 10.6218
L453.6 10.6218
L453.6 10.6218" style="fill:none;stroke:#00bfbf;stroke-linecap:square;"/>
   </g>
   <g id="line2d_9">
    <path clip-path="url(#p99b4b0da67)" d="
M-1 325.426
L128.758 325.426
L128.758 320.863
L139.331 320.863
L139.331 316.301
L140.677 316.301
L140.741 307.176
L141.359 307.176
L141.359 302.614
L145.391 302.614
L145.391 298.051
L146.12 298.051
L146.12 293.489
L148.588 293.489
L148.588 288.927
L149.237 288.927
L149.237 284.364
L149.738 284.364
L149.738 279.802
L151.396 279.802
L151.396 275.24
L163.357 275.24
L163.357 270.677
L164.22 270.677
L164.22 266.115
L165.945 266.115
L165.945 261.552
L178.024 261.552
L178.024 256.99
L184.03 256.99
L184.03 252.428
L188.929 252.428
L188.929 247.865
L190.167 247.865
L190.167 243.303
L194.591 243.303
L194.591 238.741
L195.176 238.741
L195.176 234.178
L198.897 234.178
L198.897 229.616
L203.119 229.616
L203.119 225.053
L203.346 225.053
L203.346 220.491
L203.603 220.491
L203.603 215.929
L205.723 215.929
L205.723 211.366
L206.355 211.366
L206.355 206.804
L207.785 206.804
L207.785 202.242
L207.993 202.242
L207.993 197.679
L208.627 197.679
L208.652 188.554
L209.057 188.554
L209.057 183.992
L209.601 183.992
L209.601 179.43
L210.519 179.43
L210.574 170.305
L210.987 170.305
L210.987 165.743
L211.134 165.743
L211.149 156.618
L211.821 156.618
L211.858 147.493
L213.014 147.493
L213.102 138.368
L213.788 138.368
L213.788 133.806
L215.064 133.806
L215.064 129.244
L215.195 129.244
L215.216 120.119
L216.005 120.119
L216.07 110.994
L216.532 110.994
L216.532 106.432
L216.704 106.432
L216.704 101.869
L217.513 101.869
L217.513 97.3069
L217.829 97.3069
L217.829 92.7446
L217.976 92.7446
L217.976 88.1822
L219.967 88.1822
L219.967 83.6198
L227.275 83.6198
L227.275 79.0574
L230.604 79.0574
L230.604 74.495
L231.084 74.495
L231.084 69.9327
L236.732 69.9327
L236.732 65.3703
L237.522 65.3703
L237.522 60.8079
L241.73 60.8079
L241.808 51.6832
L244.104 51.6832
L244.104 47.1208
L247.254 47.1208
L247.254 42.5584
L250.375 42.5584
L250.375 37.996
L251.34 37.996
L251.34 33.4337
L254.401 33.4337
L254.401 28.8713
L257.466 28.8713
L257.466 24.3089
L257.685 24.3089
L257.685 19.7465
L258.108 19.7465
L258.108 15.1842
L261.673 15.1842
L261.673 10.6218
L261.673 10.6218
L453.6 10.6218
L453.6 10.6218" style="fill:none;stroke:#bf00bf;stroke-linecap:square;"/>
   </g>
   <g id="line2d_10">
    <path clip-path="url(#p99b4b0da67)" d="
M-1 284.364
L74.3327 284.364
L74.3327 279.802
L77.3972 279.802
L77.3972 275.24
L77.9207 275.24
L77.9207 270.677
L80.1066 270.677
L80.1066 266.115
L81.3905 266.115
L81.3905 261.552
L82.8134 261.552
L82.8134 256.99
L83.6265 256.99
L83.6265 252.428
L85.8458 252.428
L85.8458 247.865
L87.1944 247.865
L87.1944 243.303
L87.5727 243.303
L87.5727 238.741
L89.3833 238.741
L89.3833 234.178
L90.6631 234.178
L90.6631 229.616
L92.8724 229.616
L92.8724 225.053
L94.3895 225.053
L94.4238 215.929
L141.266 215.929
L141.266 211.366
L141.395 211.366
L141.395 206.804
L144.533 206.804
L144.533 202.242
L144.989 202.242
L144.989 197.679
L145.162 197.679
L145.162 193.117
L146.096 193.117
L146.096 188.554
L147.435 188.554
L147.435 183.992
L150.378 183.992
L150.378 179.43
L150.7 179.43
L150.7 174.867
L152.148 174.867
L152.148 170.305
L152.377 170.305
L152.377 165.743
L152.981 165.743
L152.981 161.18
L153.387 161.18
L153.387 156.618
L153.796 156.618
L153.796 152.055
L154.957 152.055
L154.957 147.493
L155.538 147.493
L155.538 142.931
L156.625 142.931
L156.685 133.806
L159.449 133.806
L159.449 129.244
L159.632 129.244
L159.65 120.119
L160.671 120.119
L160.671 115.556
L161.464 115.556
L161.464 110.994
L162.014 110.994
L162.014 106.432
L163 106.432
L163 101.869
L163.197 101.869
L163.197 97.3069
L164.588 97.3069
L164.588 92.7446
L166.614 92.7446
L166.614 88.1822
L166.886 88.1822
L166.886 83.6198
L167.431 83.6198
L167.431 79.0574
L168.737 79.0574
L168.737 74.495
L176.527 74.495
L176.527 69.9327
L178.576 69.9327
L178.576 65.3703
L178.89 65.3703
L178.89 60.8079
L179.711 60.8079
L179.711 56.2455
L180.926 56.2455
L180.926 51.6832
L184.49 51.6832
L184.49 47.1208
L185.298 47.1208
L185.34 37.996
L189.254 37.996
L189.254 33.4337
L196.214 33.4337
L196.214 28.8713
L196.525 28.8713
L196.525 24.3089
L196.824 24.3089
L196.824 19.7465
L198.854 19.7465
L198.854 15.1842
L199.903 15.1842
L199.903 10.6218
L199.903 10.6218
L453.6 10.6218
L453.6 10.6218" style="fill:none;stroke:#000000;stroke-linecap:square;"/>
   </g>
   <g id="patch_3">
    <path d="
M7.2 7.2
L453.6 7.2" style="fill:none;stroke:#000000;stroke-linecap:square;stroke-linejoin:miter;"/>
   </g>
   <g id="patch_4">
    <path d="
M453.6 352.8
L453.6 7.2" style="fill:none;stroke:#000000;stroke-linecap:square;stroke-linejoin:miter;"/>
   </g>
   <g id="patch_5">
    <path d="
M7.2 352.8
L453.6 352.8" style="fill:none;stroke:#000000;stroke-linecap:square;stroke-linejoin:miter;"/>
   </g>
   <g id="patch_6">
    <path d="
M7.2 352.8
L7.2 7.2" style="fill:none;stroke:#000000;stroke-linecap:square;stroke-linejoin:miter;"/>
   </g>
   <g id="matplotlib.axis_1">
    <g id="xtick_1"/>
    <g id="xtick_2">
     <g id="line2d_11">
      <path clip-path="url(#p99b4b0da67)" d="
M51.7532 352.8
L51.7532 7.2" style="fill:none;stroke:#000000;stroke-dasharray:1.000000,3.000000;stroke-dashoffset:0.0;stroke-width:0.5;"/>
     </g>
     <g id="line2d_12">
      <defs>
       <path d="
M0 0
L0 -4" id="m93b0483c22" style="stroke:#000000;stroke-width:0.5;"/>
      </defs>
      <g>
       <use style="stroke:#000000;stroke-width:0.5;" x="51.753173483" xlink:href="#m93b0483c22" y="352.8"/>
      </g>
     </g>
     <g id="line2d_13">
      <defs>
       <path d="
M0 0
L0 4" id="m741efc42ff" style="stroke:#000000;stroke-width:0.5;"/>
      </defs>
      <g>
       <use style="stroke:#000000;stroke-width:0.5;" x="51.753173483" xlink:href="#m741efc42ff" y="7.2"/>
      </g>
     </g>
     <g id="text_1">
      <!-- -6 -->
      <defs>
       <path d="
M33.0156 40.375
Q26.375 40.375 22.4844 35.8281
Q18.6094 31.2969 18.6094 23.3906
Q18.6094 15.5312 22.4844 10.9531
Q26.375 6.39062 33.0156 6.39062
Q39.6562 6.39062 43.5312 10.9531
Q47.4062 15.5312 47.4062 23.3906
Q47.4062 31.2969 43.5312 35.8281
Q39.6562 40.375 33.0156 40.375
M52.5938 71.2969
L52.5938 62.3125
Q48.875 64.0625 45.0938 64.9844
Q41.3125 65.9219 37.5938 65.9219
Q27.8281 65.9219 22.6719 59.3281
Q17.5312 52.7344 16.7969 39.4062
Q19.6719 43.6562 24.0156 45.9219
Q28.375 48.1875 33.5938 48.1875
Q44.5781 48.1875 50.9531 41.5156
Q57.3281 34.8594 57.3281 23.3906
Q57.3281 12.1562 50.6875 5.35938
Q44.0469 -1.42188 33.0156 -1.42188
Q20.3594 -1.42188 13.6719 8.26562
Q6.98438 17.9688 6.98438 36.375
Q6.98438 53.6562 15.1875 63.9375
Q23.3906 74.2188 37.2031 74.2188
Q40.9219 74.2188 44.7031 73.4844
Q48.4844 72.75 52.5938 71.2969" id="BitstreamVeraSans-Roman-36"/>
       <path d="
M4.89062 31.3906
L31.2031 31.3906
L31.2031 23.3906
L4.89062 23.3906
z
" id="BitstreamVeraSans-Roman-2d"/>
      </defs>
      <g transform="translate(42.901610983 371.996875)scale(0.2 -0.2)">
       <use xlink:href="#BitstreamVeraSans-Roman-2d"/>
       <use x="36.083984375" xlink:href="#BitstreamVeraSans-Roman-36"/>
      </g>
     </g>
    </g>
    <g id="xtick_3">
     <g id="line2d_14">
      <path clip-path="url(#p99b4b0da67)" d="
M96.4028 352.8
L96.4028 7.2" style="fill:none;stroke:#000000;stroke-dasharray:1.000000,3.000000;stroke-dashoffset:0.0;stroke-width:0.5;"/>
     </g>
     <g id="line2d_15">
      <g>
       <use style="stroke:#000000;stroke-width:0.5;" x="96.4028208737" xlink:href="#m93b0483c22" y="352.8"/>
      </g>
     </g>
     <g id="line2d_16">
      <g>
       <use style="stroke:#000000;stroke-width:0.5;" x="96.4028208737" xlink:href="#m741efc42ff" y="7.2"/>
      </g>
     </g>
     <g id="text_2">
      <!-- -4 -->
      <defs>
       <path d="
M37.7969 64.3125
L12.8906 25.3906
L37.7969 25.3906
z

M35.2031 72.9062
L47.6094 72.9062
L47.6094 25.3906
L58.0156 25.3906
L58.0156 17.1875
L47.6094 17.1875
L47.6094 0
L37.7969 0
L37.7969 17.1875
L4.89062 17.1875
L4.89062 26.7031
z
" id="BitstreamVeraSans-Roman-34"/>
      </defs>
      <g transform="translate(87.4825083737 371.996875)scale(0.2 -0.2)">
       <use xlink:href="#BitstreamVeraSans-Roman-2d"/>
       <use x="36.083984375" xlink:href="#BitstreamVeraSans-Roman-34"/>
      </g>
     </g>
    </g>
    <g id="xtick_4">
     <g id="line2d_17">
      <path clip-path="url(#p99b4b0da67)" d="
M141.052 352.8
L141.052 7.2" style="fill:none;stroke:#000000;stroke-dasharray:1.000000,3.000000;stroke-dashoffset:0.0;stroke-width:0.5;"/>
     </g>
     <g id="line2d_18">
      <g>
       <use style="stroke:#000000;stroke-width:0.5;" x="141.052468265" xlink:href="#m93b0483c22" y="352.8"/>
      </g>
     </g>
     <g id="line2d_19">
      <g>
       <use style="stroke:#000000;stroke-width:0.5;" x="141.052468265" xlink:href="#m741efc42ff" y="7.2"/>
      </g>
     </g>
     <g id="text_3">
      <!-- -2 -->
      <defs>
       <path d="
M19.1875 8.29688
L53.6094 8.29688
L53.6094 0
L7.32812 0
L7.32812 8.29688
Q12.9375 14.1094 22.625 23.8906
Q32.3281 33.6875 34.8125 36.5312
Q39.5469 41.8438 41.4219 45.5312
Q43.3125 49.2188 43.3125 52.7812
Q43.3125 58.5938 39.2344 62.25
Q35.1562 65.9219 28.6094 65.9219
Q23.9688 65.9219 18.8125 64.3125
Q13.6719 62.7031 7.8125 59.4219
L7.8125 69.3906
Q13.7656 71.7812 18.9375 73
Q24.125 74.2188 28.4219 74.2188
Q39.75 74.2188 46.4844 68.5469
Q53.2188 62.8906 53.2188 53.4219
Q53.2188 48.9219 51.5312 44.8906
Q49.8594 40.875 45.4062 35.4062
Q44.1875 33.9844 37.6406 27.2188
Q31.1094 20.4531 19.1875 8.29688" id="BitstreamVeraSans-Roman-32"/>
      </defs>
      <g transform="translate(132.572780765 371.996875)scale(0.2 -0.2)">
       <use xlink:href="#BitstreamVeraSans-Roman-2d"/>
       <use x="36.083984375" xlink:href="#BitstreamVeraSans-Roman-32"/>
      </g>
     </g>
    </g>
    <g id="xtick_5">
     <g id="line2d_20">
      <path clip-path="url(#p99b4b0da67)" d="
M185.702 352.8
L185.702 7.2" style="fill:none;stroke:#000000;stroke-dasharray:1.000000,3.000000;stroke-dashoffset:0.0;stroke-width:0.5;"/>
     </g>
     <g id="line2d_21">
      <g>
       <use style="stroke:#000000;stroke-width:0.5;" x="185.702115655" xlink:href="#m93b0483c22" y="352.8"/>
      </g>
     </g>
     <g id="line2d_22">
      <g>
       <use style="stroke:#000000;stroke-width:0.5;" x="185.702115655" xlink:href="#m741efc42ff" y="7.2"/>
      </g>
     </g>
     <g id="text_4">
      <!-- 0 -->
      <defs>
       <path d="
M31.7812 66.4062
Q24.1719 66.4062 20.3281 58.9062
Q16.5 51.4219 16.5 36.375
Q16.5 21.3906 20.3281 13.8906
Q24.1719 6.39062 31.7812 6.39062
Q39.4531 6.39062 43.2812 13.8906
Q47.125 21.3906 47.125 36.375
Q47.125 51.4219 43.2812 58.9062
Q39.4531 66.4062 31.7812 66.4062
M31.7812 74.2188
Q44.0469 74.2188 50.5156 64.5156
Q56.9844 54.8281 56.9844 36.375
Q56.9844 17.9688 50.5156 8.26562
Q44.0469 -1.42188 31.7812 -1.42188
Q19.5312 -1.42188 13.0625 8.26562
Q6.59375 17.9688 6.59375 36.375
Q6.59375 54.8281 13.0625 64.5156
Q19.5312 74.2188 31.7812 74.2188" id="BitstreamVeraSans-Roman-30"/>
      </defs>
      <g transform="translate(180.663053155 371.996875)scale(0.2 -0.2)">
       <use xlink:href="#BitstreamVeraSans-Roman-30"/>
      </g>
     </g>
    </g>
    <g id="xtick_6">
     <g id="line2d_23">
      <path clip-path="url(#p99b4b0da67)" d="
M230.352 352.8
L230.352 7.2" style="fill:none;stroke:#000000;stroke-dasharray:1.000000,3.000000;stroke-dashoffset:0.0;stroke-width:0.5;"/>
     </g>
     <g id="line2d_24">
      <g>
       <use style="stroke:#000000;stroke-width:0.5;" x="230.351763046" xlink:href="#m93b0483c22" y="352.8"/>
      </g>
     </g>
     <g id="line2d_25">
      <g>
       <use style="stroke:#000000;stroke-width:0.5;" x="230.351763046" xlink:href="#m741efc42ff" y="7.2"/>
      </g>
     </g>
     <g id="text_5">
      <!-- 2 -->
      <g transform="translate(225.723638046 371.996875)scale(0.2 -0.2)">
       <use xlink:href="#BitstreamVeraSans-Roman-32"/>
      </g>
     </g>
    </g>
    <g id="xtick_7">
     <g id="line2d_26">
      <path clip-path="url(#p99b4b0da67)" d="
M275.001 352.8
L275.001 7.2" style="fill:none;stroke:#000000;stroke-dasharray:1.000000,3.000000;stroke-dashoffset:0.0;stroke-width:0.5;"/>
     </g>
     <g id="line2d_27">
      <g>
       <use style="stroke:#000000;stroke-width:0.5;" x="275.001410437" xlink:href="#m93b0483c22" y="352.8"/>
      </g>
     </g>
     <g id="line2d_28">
      <g>
       <use style="stroke:#000000;stroke-width:0.5;" x="275.001410437" xlink:href="#m741efc42ff" y="7.2"/>
      </g>
     </g>
     <g id="text_6">
      <!-- 4 -->
      <g transform="translate(269.688910437 371.996875)scale(0.2 -0.2)">
       <use xlink:href="#BitstreamVeraSans-Roman-34"/>
      </g>
     </g>
    </g>
    <g id="xtick_8">
     <g id="line2d_29">
      <path clip-path="url(#p99b4b0da67)" d="
M319.651 352.8
L319.651 7.2" style="fill:none;stroke:#000000;stroke-dasharray:1.000000,3.000000;stroke-dashoffset:0.0;stroke-width:0.5;"/>
     </g>
     <g id="line2d_30">
      <g>
       <use style="stroke:#000000;stroke-width:0.5;" x="319.651057828" xlink:href="#m93b0483c22" y="352.8"/>
      </g>
     </g>
     <g id="line2d_31">
      <g>
       <use style="stroke:#000000;stroke-width:0.5;" x="319.651057828" xlink:href="#m741efc42ff" y="7.2"/>
      </g>
     </g>
     <g id="text_7">
      <!-- 6 -->
      <g transform="translate(314.616682828 371.996875)scale(0.2 -0.2)">
       <use xlink:href="#BitstreamVeraSans-Roman-36"/>
      </g>
     </g>
    </g>
    <g id="xtick_9">
     <g id="line2d_32">
      <path clip-path="url(#p99b4b0da67)" d="
M364.301 352.8
L364.301 7.2" style="fill:none;stroke:#000000;stroke-dasharray:1.000000,3.000000;stroke-dashoffset:0.0;stroke-width:0.5;"/>
     </g>
     <g id="line2d_33">
      <g>
       <use style="stroke:#000000;stroke-width:0.5;" x="364.300705218" xlink:href="#m93b0483c22" y="352.8"/>
      </g>
     </g>
     <g id="line2d_34">
      <g>
       <use style="stroke:#000000;stroke-width:0.5;" x="364.300705218" xlink:href="#m741efc42ff" y="7.2"/>
      </g>
     </g>
     <g id="text_8">
      <!-- 8 -->
      <defs>
       <path d="
M31.7812 34.625
Q24.75 34.625 20.7188 30.8594
Q16.7031 27.0938 16.7031 20.5156
Q16.7031 13.9219 20.7188 10.1562
Q24.75 6.39062 31.7812 6.39062
Q38.8125 6.39062 42.8594 10.1719
Q46.9219 13.9688 46.9219 20.5156
Q46.9219 27.0938 42.8906 30.8594
Q38.875 34.625 31.7812 34.625
M21.9219 38.8125
Q15.5781 40.375 12.0312 44.7188
Q8.5 49.0781 8.5 55.3281
Q8.5 64.0625 14.7188 69.1406
Q20.9531 74.2188 31.7812 74.2188
Q42.6719 74.2188 48.875 69.1406
Q55.0781 64.0625 55.0781 55.3281
Q55.0781 49.0781 51.5312 44.7188
Q48 40.375 41.7031 38.8125
Q48.8281 37.1562 52.7969 32.3125
Q56.7812 27.4844 56.7812 20.5156
Q56.7812 9.90625 50.3125 4.23438
Q43.8438 -1.42188 31.7812 -1.42188
Q19.7344 -1.42188 13.25 4.23438
Q6.78125 9.90625 6.78125 20.5156
Q6.78125 27.4844 10.7812 32.3125
Q14.7969 37.1562 21.9219 38.8125
M18.3125 54.3906
Q18.3125 48.7344 21.8438 45.5625
Q25.3906 42.3906 31.7812 42.3906
Q38.1406 42.3906 41.7188 45.5625
Q45.3125 48.7344 45.3125 54.3906
Q45.3125 60.0625 41.7188 63.2344
Q38.1406 66.4062 31.7812 66.4062
Q25.3906 66.4062 21.8438 63.2344
Q18.3125 60.0625 18.3125 54.3906" id="BitstreamVeraSans-Roman-38"/>
      </defs>
      <g transform="translate(359.300705218 371.996875)scale(0.2 -0.2)">
       <use xlink:href="#BitstreamVeraSans-Roman-38"/>
      </g>
     </g>
    </g>
    <g id="xtick_10">
     <g id="line2d_35">
      <path clip-path="url(#p99b4b0da67)" d="
M408.95 352.8
L408.95 7.2" style="fill:none;stroke:#000000;stroke-dasharray:1.000000,3.000000;stroke-dashoffset:0.0;stroke-width:0.5;"/>
     </g>
     <g id="line2d_36">
      <g>
       <use style="stroke:#000000;stroke-width:0.5;" x="408.950352609" xlink:href="#m93b0483c22" y="352.8"/>
      </g>
     </g>
     <g id="line2d_37">
      <g>
       <use style="stroke:#000000;stroke-width:0.5;" x="408.950352609" xlink:href="#m741efc42ff" y="7.2"/>
      </g>
     </g>
     <g id="text_9">
      <!-- 10 -->
      <defs>
       <path d="
M12.4062 8.29688
L28.5156 8.29688
L28.5156 63.9219
L10.9844 60.4062
L10.9844 69.3906
L28.4219 72.9062
L38.2812 72.9062
L38.2812 8.29688
L54.3906 8.29688
L54.3906 0
L12.4062 0
z
" id="BitstreamVeraSans-Roman-31"/>
      </defs>
      <g transform="translate(397.987852609 371.996875)scale(0.2 -0.2)">
       <use xlink:href="#BitstreamVeraSans-Roman-31"/>
       <use x="63.623046875" xlink:href="#BitstreamVeraSans-Roman-30"/>
      </g>
     </g>
    </g>
    <g id="xtick_11">
     <g id="line2d_38">
      <path clip-path="url(#p99b4b0da67)" d="
M453.6 352.8
L453.6 7.2" style="fill:none;stroke:#000000;stroke-dasharray:1.000000,3.000000;stroke-dashoffset:0.0;stroke-width:0.5;"/>
     </g>
     <g id="line2d_39">
      <g>
       <use style="stroke:#000000;stroke-width:0.5;" x="453.6" xlink:href="#m93b0483c22" y="352.8"/>
      </g>
     </g>
     <g id="line2d_40">
      <g>
       <use style="stroke:#000000;stroke-width:0.5;" x="453.6" xlink:href="#m741efc42ff" y="7.2"/>
      </g>
     </g>
    </g>
    <g id="xtick_12"/>
    <g id="xtick_13">
     <g id="line2d_41">
      <defs>
       <path d="
M0 0
L0 -2" id="m177f7580d0" style="stroke:#000000;stroke-width:0.5;"/>
      </defs>
      <g>
       <use style="stroke:#000000;stroke-width:0.5;" x="51.753173483" xlink:href="#m177f7580d0" y="352.8"/>
      </g>
     </g>
     <g id="line2d_42">
      <defs>
       <path d="
M0 0
L0 2" id="m5284c7e2a0" style="stroke:#000000;stroke-width:0.5;"/>
      </defs>
      <g>
       <use style="stroke:#000000;stroke-width:0.5;" x="51.753173483" xlink:href="#m5284c7e2a0" y="7.2"/>
      </g>
     </g>
    </g>
    <g id="xtick_14">
     <g id="line2d_43">
      <g>
       <use style="stroke:#000000;stroke-width:0.5;" x="96.4028208737" xlink:href="#m177f7580d0" y="352.8"/>
      </g>
     </g>
     <g id="line2d_44">
      <g>
       <use style="stroke:#000000;stroke-width:0.5;" x="96.4028208737" xlink:href="#m5284c7e2a0" y="7.2"/>
      </g>
     </g>
    </g>
    <g id="xtick_15">
     <g id="line2d_45">
      <g>
       <use style="stroke:#000000;stroke-width:0.5;" x="141.052468265" xlink:href="#m177f7580d0" y="352.8"/>
      </g>
     </g>
     <g id="line2d_46">
      <g>
       <use style="stroke:#000000;stroke-width:0.5;" x="141.052468265" xlink:href="#m5284c7e2a0" y="7.2"/>
      </g>
     </g>
    </g>
    <g id="xtick_16">
     <g id="line2d_47">
      <g>
       <use style="stroke:#000000;stroke-width:0.5;" x="185.702115655" xlink:href="#m177f7580d0" y="352.8"/>
      </g>
     </g>
     <g id="line2d_48">
      <g>
       <use style="stroke:#000000;stroke-width:0.5;" x="185.702115655" xlink:href="#m5284c7e2a0" y="7.2"/>
      </g>
     </g>
    </g>
    <g id="xtick_17">
     <g id="line2d_49">
      <g>
       <use style="stroke:#000000;stroke-width:0.5;" x="230.351763046" xlink:href="#m177f7580d0" y="352.8"/>
      </g>
     </g>
     <g id="line2d_50">
      <g>
       <use style="stroke:#000000;stroke-width:0.5;" x="230.351763046" xlink:href="#m5284c7e2a0" y="7.2"/>
      </g>
     </g>
    </g>
    <g id="xtick_18">
     <g id="line2d_51">
      <g>
       <use style="stroke:#000000;stroke-width:0.5;" x="275.001410437" xlink:href="#m177f7580d0" y="352.8"/>
      </g>
     </g>
     <g id="line2d_52">
      <g>
       <use style="stroke:#000000;stroke-width:0.5;" x="275.001410437" xlink:href="#m5284c7e2a0" y="7.2"/>
      </g>
     </g>
    </g>
    <g id="xtick_19">
     <g id="line2d_53">
      <g>
       <use style="stroke:#000000;stroke-width:0.5;" x="319.651057828" xlink:href="#m177f7580d0" y="352.8"/>
      </g>
     </g>
     <g id="line2d_54">
      <g>
       <use style="stroke:#000000;stroke-width:0.5;" x="319.651057828" xlink:href="#m5284c7e2a0" y="7.2"/>
      </g>
     </g>
    </g>
    <g id="xtick_20">
     <g id="line2d_55">
      <g>
       <use style="stroke:#000000;stroke-width:0.5;" x="364.300705218" xlink:href="#m177f7580d0" y="352.8"/>
      </g>
     </g>
     <g id="line2d_56">
      <g>
       <use style="stroke:#000000;stroke-width:0.5;" x="364.300705218" xlink:href="#m5284c7e2a0" y="7.2"/>
      </g>
     </g>
    </g>
    <g id="xtick_21">
     <g id="line2d_57">
      <g>
       <use style="stroke:#000000;stroke-width:0.5;" x="408.950352609" xlink:href="#m177f7580d0" y="352.8"/>
      </g>
     </g>
     <g id="line2d_58">
      <g>
       <use style="stroke:#000000;stroke-width:0.5;" x="408.950352609" xlink:href="#m5284c7e2a0" y="7.2"/>
      </g>
     </g>
    </g>
    <g id="xtick_22">
     <g id="line2d_59">
      <g>
       <use style="stroke:#000000;stroke-width:0.5;" x="453.6" xlink:href="#m177f7580d0" y="352.8"/>
      </g>
     </g>
     <g id="line2d_60">
      <g>
       <use style="stroke:#000000;stroke-width:0.5;" x="453.6" xlink:href="#m5284c7e2a0" y="7.2"/>
      </g>
     </g>
    </g>
    <g id="text_10">
     <!-- log10 of Df -->
     <defs>
      <path id="BitstreamVeraSans-Roman-20"/>
      <path d="
M30.6094 48.3906
Q23.3906 48.3906 19.1875 42.75
Q14.9844 37.1094 14.9844 27.2969
Q14.9844 17.4844 19.1562 11.8438
Q23.3438 6.20312 30.6094 6.20312
Q37.7969 6.20312 41.9844 11.8594
Q46.1875 17.5312 46.1875 27.2969
Q46.1875 37.0156 41.9844 42.7031
Q37.7969 48.3906 30.6094 48.3906
M30.6094 56
Q42.3281 56 49.0156 48.375
Q55.7188 40.7656 55.7188 27.2969
Q55.7188 13.875 49.0156 6.21875
Q42.3281 -1.42188 30.6094 -1.42188
Q18.8438 -1.42188 12.1719 6.21875
Q5.51562 13.875 5.51562 27.2969
Q5.51562 40.7656 12.1719 48.375
Q18.8438 56 30.6094 56" id="BitstreamVeraSans-Roman-6f"/>
      <path d="
M9.42188 75.9844
L18.4062 75.9844
L18.4062 0
L9.42188 0
z
" id="BitstreamVeraSans-Roman-6c"/>
      <path d="
M19.6719 64.7969
L19.6719 8.10938
L31.5938 8.10938
Q46.6875 8.10938 53.6875 14.9375
Q60.6875 21.7812 60.6875 36.5312
Q60.6875 51.1719 53.6875 57.9844
Q46.6875 64.7969 31.5938 64.7969
z

M9.8125 72.9062
L30.0781 72.9062
Q51.2656 72.9062 61.1719 64.0938
Q71.0938 55.2812 71.0938 36.5312
Q71.0938 17.6719 61.125 8.82812
Q51.1719 0 30.0781 0
L9.8125 0
z
" id="BitstreamVeraSans-Roman-44"/>
      <path d="
M45.4062 27.9844
Q45.4062 37.75 41.375 43.1094
Q37.3594 48.4844 30.0781 48.4844
Q22.8594 48.4844 18.8281 43.1094
Q14.7969 37.75 14.7969 27.9844
Q14.7969 18.2656 18.8281 12.8906
Q22.8594 7.51562 30.0781 7.51562
Q37.3594 7.51562 41.375 12.8906
Q45.4062 18.2656 45.4062 27.9844
M54.3906 6.78125
Q54.3906 -7.17188 48.1875 -13.9844
Q42 -20.7969 29.2031 -20.7969
Q24.4688 -20.7969 20.2656 -20.0938
Q16.0625 -19.3906 12.1094 -17.9219
L12.1094 -9.1875
Q16.0625 -11.3281 19.9219 -12.3438
Q23.7812 -13.375 27.7812 -13.375
Q36.625 -13.375 41.0156 -8.76562
Q45.4062 -4.15625 45.4062 5.17188
L45.4062 9.625
Q42.625 4.78125 38.2812 2.39062
Q33.9375 0 27.875 0
Q17.8281 0 11.6719 7.65625
Q5.51562 15.3281 5.51562 27.9844
Q5.51562 40.6719 11.6719 48.3281
Q17.8281 56 27.875 56
Q33.9375 56 38.2812 53.6094
Q42.625 51.2188 45.4062 46.3906
L45.4062 54.6875
L54.3906 54.6875
z
" id="BitstreamVeraSans-Roman-67"/>
      <path d="
M37.1094 75.9844
L37.1094 68.5
L28.5156 68.5
Q23.6875 68.5 21.7969 66.5469
Q19.9219 64.5938 19.9219 59.5156
L19.9219 54.6875
L34.7188 54.6875
L34.7188 47.7031
L19.9219 47.7031
L19.9219 0
L10.8906 0
L10.8906 47.7031
L2.29688 47.7031
L2.29688 54.6875
L10.8906 54.6875
L10.8906 58.5
Q10.8906 67.625 15.1406 71.7969
Q19.3906 75.9844 28.6094 75.9844
z
" id="BitstreamVeraSans-Roman-66"/>
     </defs>
     <g transform="translate(175.0234375 396.353125)scale(0.2 -0.2)">
      <use xlink:href="#BitstreamVeraSans-Roman-6c"/>
      <use x="27.783203125" xlink:href="#BitstreamVeraSans-Roman-6f"/>
      <use x="88.96484375" xlink:href="#BitstreamVeraSans-Roman-67"/>
      <use x="152.44140625" xlink:href="#BitstreamVeraSans-Roman-31"/>
      <use x="216.064453125" xlink:href="#BitstreamVeraSans-Roman-30"/>
      <use x="279.6875" xlink:href="#BitstreamVeraSans-Roman-20"/>
      <use x="311.474609375" xlink:href="#BitstreamVeraSans-Roman-6f"/>
      <use x="372.65625" xlink:href="#BitstreamVeraSans-Roman-66"/>
      <use x="407.861328125" xlink:href="#BitstreamVeraSans-Roman-20"/>
      <use x="439.6484375" xlink:href="#BitstreamVeraSans-Roman-44"/>
      <use x="516.650390625" xlink:href="#BitstreamVeraSans-Roman-66"/>
     </g>
    </g>
   </g>
   <g id="matplotlib.axis_2">
    <g id="ytick_1">
     <g id="line2d_61">
      <path clip-path="url(#p99b4b0da67)" d="
M7.2 352.8
L453.6 352.8" style="fill:none;stroke:#000000;stroke-dasharray:1.000000,3.000000;stroke-dashoffset:0.0;stroke-width:0.5;"/>
     </g>
     <g id="line2d_62">
      <defs>
       <path d="
M0 0
L4 0" id="m728421d6d4" style="stroke:#000000;stroke-width:0.5;"/>
      </defs>
      <g>
       <use style="stroke:#000000;stroke-width:0.5;" x="7.2" xlink:href="#m728421d6d4" y="352.8"/>
      </g>
     </g>
     <g id="line2d_63">
      <defs>
       <path d="
M0 0
L-4 0" id="mcb0005524f" style="stroke:#000000;stroke-width:0.5;"/>
      </defs>
      <g>
       <use style="stroke:#000000;stroke-width:0.5;" x="453.6" xlink:href="#mcb0005524f" y="352.8"/>
      </g>
     </g>
    </g>
    <g id="ytick_2">
     <g id="line2d_64">
      <path clip-path="url(#p99b4b0da67)" d="
M7.2 284.364
L453.6 284.364" style="fill:none;stroke:#000000;stroke-dasharray:1.000000,3.000000;stroke-dashoffset:0.0;stroke-width:0.5;"/>
     </g>
     <g id="line2d_65">
      <g>
       <use style="stroke:#000000;stroke-width:0.5;" x="7.2" xlink:href="#m728421d6d4" y="284.364356436"/>
      </g>
     </g>
     <g id="line2d_66">
      <g>
       <use style="stroke:#000000;stroke-width:0.5;" x="453.6" xlink:href="#mcb0005524f" y="284.364356436"/>
      </g>
     </g>
    </g>
    <g id="ytick_3">
     <g id="line2d_67">
      <path clip-path="url(#p99b4b0da67)" d="
M7.2 215.929
L453.6 215.929" style="fill:none;stroke:#000000;stroke-dasharray:1.000000,3.000000;stroke-dashoffset:0.0;stroke-width:0.5;"/>
     </g>
     <g id="line2d_68">
      <g>
       <use style="stroke:#000000;stroke-width:0.5;" x="7.2" xlink:href="#m728421d6d4" y="215.928712871"/>
      </g>
     </g>
     <g id="line2d_69">
      <g>
       <use style="stroke:#000000;stroke-width:0.5;" x="453.6" xlink:href="#mcb0005524f" y="215.928712871"/>
      </g>
     </g>
    </g>
    <g id="ytick_4">
     <g id="line2d_70">
      <path clip-path="url(#p99b4b0da67)" d="
M7.2 147.493
L453.6 147.493" style="fill:none;stroke:#000000;stroke-dasharray:1.000000,3.000000;stroke-dashoffset:0.0;stroke-width:0.5;"/>
     </g>
     <g id="line2d_71">
      <g>
       <use style="stroke:#000000;stroke-width:0.5;" x="7.2" xlink:href="#m728421d6d4" y="147.493069307"/>
      </g>
     </g>
     <g id="line2d_72">
      <g>
       <use style="stroke:#000000;stroke-width:0.5;" x="453.6" xlink:href="#mcb0005524f" y="147.493069307"/>
      </g>
     </g>
    </g>
    <g id="ytick_5">
     <g id="line2d_73">
      <path clip-path="url(#p99b4b0da67)" d="
M7.2 79.0574
L453.6 79.0574" style="fill:none;stroke:#000000;stroke-dasharray:1.000000,3.000000;stroke-dashoffset:0.0;stroke-width:0.5;"/>
     </g>
     <g id="line2d_74">
      <g>
       <use style="stroke:#000000;stroke-width:0.5;" x="7.2" xlink:href="#m728421d6d4" y="79.0574257426"/>
      </g>
     </g>
     <g id="line2d_75">
      <g>
       <use style="stroke:#000000;stroke-width:0.5;" x="453.6" xlink:href="#mcb0005524f" y="79.0574257426"/>
      </g>
     </g>
    </g>
    <g id="ytick_6">
     <g id="line2d_76">
      <path clip-path="url(#p99b4b0da67)" d="
M7.2 10.6218
L453.6 10.6218" style="fill:none;stroke:#000000;stroke-dasharray:1.000000,3.000000;stroke-dashoffset:0.0;stroke-width:0.5;"/>
     </g>
     <g id="line2d_77">
      <g>
       <use style="stroke:#000000;stroke-width:0.5;" x="7.2" xlink:href="#m728421d6d4" y="10.6217821782"/>
      </g>
     </g>
     <g id="line2d_78">
      <g>
       <use style="stroke:#000000;stroke-width:0.5;" x="453.6" xlink:href="#mcb0005524f" y="10.6217821782"/>
      </g>
     </g>
    </g>
   </g>
   <g id="text_11">
    <!-- {f1-f5}, 20-D -->
    <defs>
     <path d="
M12.5 -9.28125
L15.9219 -9.28125
Q22.75 -9.28125 24.8281 -7.17188
Q26.9062 -5.07812 26.9062 1.90625
L26.9062 14.0156
Q26.9062 21.625 29.0938 25.0938
Q31.2969 28.5625 36.7188 29.8906
Q31.2969 31.1094 29.0938 34.5625
Q26.9062 38.0312 26.9062 45.7031
L26.9062 57.8125
Q26.9062 64.75 24.8281 66.875
Q22.75 69 15.9219 69
L12.5 69
L12.5 75.9844
L15.5781 75.9844
Q27.7344 75.9844 31.8125 72.3906
Q35.8906 68.7969 35.8906 58.0156
L35.8906 46.2969
Q35.8906 39.0156 38.5156 36.2031
Q41.1562 33.4062 48.0938 33.4062
L51.125 33.4062
L51.125 26.4219
L48.0938 26.4219
Q41.1562 26.4219 38.5156 23.5781
Q35.8906 20.75 35.8906 13.375
L35.8906 1.70312
Q35.8906 -9.07812 31.8125 -12.6875
Q27.7344 -16.3125 15.5781 -16.3125
L12.5 -16.3125
z
" id="BitstreamVeraSans-Roman-7d"/>
     <path d="
M51.125 -9.28125
L51.125 -16.3125
L48.0938 -16.3125
Q35.9375 -16.3125 31.8125 -12.6875
Q27.6875 -9.07812 27.6875 1.70312
L27.6875 13.375
Q27.6875 20.75 25.0469 23.5781
Q22.4062 26.4219 15.4844 26.4219
L12.5 26.4219
L12.5 33.4062
L15.4844 33.4062
Q22.4688 33.4062 25.0781 36.2031
Q27.6875 39.0156 27.6875 46.2969
L27.6875 58.0156
Q27.6875 68.7969 31.8125 72.3906
Q35.9375 75.9844 48.0938 75.9844
L51.125 75.9844
L51.125 69
L47.7969 69
Q40.9219 69 38.8125 66.8438
Q36.7188 64.7031 36.7188 57.8125
L36.7188 45.7031
Q36.7188 38.0312 34.5 34.5625
Q32.2812 31.1094 26.9062 29.8906
Q32.3281 28.5625 34.5156 25.0938
Q36.7188 21.625 36.7188 14.0156
L36.7188 1.90625
Q36.7188 -4.98438 38.8125 -7.125
Q40.9219 -9.28125 47.7969 -9.28125
z
" id="BitstreamVeraSans-Roman-7b"/>
     <path d="
M11.7188 12.4062
L22.0156 12.4062
L22.0156 4
L14.0156 -11.625
L7.71875 -11.625
L11.7188 4
z
" id="BitstreamVeraSans-Roman-2c"/>
     <path d="
M10.7969 72.9062
L49.5156 72.9062
L49.5156 64.5938
L19.8281 64.5938
L19.8281 46.7344
Q21.9688 47.4688 24.1094 47.8281
Q26.2656 48.1875 28.4219 48.1875
Q40.625 48.1875 47.75 41.5
Q54.8906 34.8125 54.8906 23.3906
Q54.8906 11.625 47.5625 5.09375
Q40.2344 -1.42188 26.9062 -1.42188
Q22.3125 -1.42188 17.5469 -0.640625
Q12.7969 0.140625 7.71875 1.70312
L7.71875 11.625
Q12.1094 9.23438 16.7969 8.0625
Q21.4844 6.89062 26.7031 6.89062
Q35.1562 6.89062 40.0781 11.3281
Q45.0156 15.7656 45.0156 23.3906
Q45.0156 31 40.0781 35.4375
Q35.1562 39.8906 26.7031 39.8906
Q22.75 39.8906 18.8125 39.0156
Q14.8906 38.1406 10.7969 36.2812
z
" id="BitstreamVeraSans-Roman-35"/>
    </defs>
    <g transform="translate(312.87825 345.888)scale(0.2 -0.2)">
     <use xlink:href="#BitstreamVeraSans-Roman-7b"/>
     <use x="63.623046875" xlink:href="#BitstreamVeraSans-Roman-66"/>
     <use x="98.828125" xlink:href="#BitstreamVeraSans-Roman-31"/>
     <use x="162.451171875" xlink:href="#BitstreamVeraSans-Roman-2d"/>
     <use x="198.53515625" xlink:href="#BitstreamVeraSans-Roman-66"/>
     <use x="233.740234375" xlink:href="#BitstreamVeraSans-Roman-35"/>
     <use x="297.36328125" xlink:href="#BitstreamVeraSans-Roman-7d"/>
     <use x="360.986328125" xlink:href="#BitstreamVeraSans-Roman-2c"/>
     <use x="392.7734375" xlink:href="#BitstreamVeraSans-Roman-20"/>
     <use x="424.560546875" xlink:href="#BitstreamVeraSans-Roman-32"/>
     <use x="488.18359375" xlink:href="#BitstreamVeraSans-Roman-30"/>
     <use x="551.806640625" xlink:href="#BitstreamVeraSans-Roman-2d"/>
     <use x="587.890625" xlink:href="#BitstreamVeraSans-Roman-44"/>
    </g>
   </g>
   <g id="text_12">
    <!-- v0.0.0 -->
    <defs>
     <path d="
M2.98438 54.6875
L12.5 54.6875
L29.5938 8.79688
L46.6875 54.6875
L56.2031 54.6875
L35.6875 0
L23.4844 0
z
" id="BitstreamVeraSans-Roman-76"/>
     <path d="
M10.6875 12.4062
L21 12.4062
L21 0
L10.6875 0
z
" id="BitstreamVeraSans-Roman-2e"/>
    </defs>
    <g style="fill:#808080;" transform="translate(215.2 347.2643125)scale(0.1 -0.1)">
     <use xlink:href="#BitstreamVeraSans-Roman-76"/>
     <use x="59.1796875" xlink:href="#BitstreamVeraSans-Roman-30"/>
     <use x="122.802734375" xlink:href="#BitstreamVeraSans-Roman-2e"/>
     <use x="154.58984375" xlink:href="#BitstreamVeraSans-Roman-30"/>
     <use x="218.212890625" xlink:href="#BitstreamVeraSans-Roman-2e"/>
     <use x="250.0" xlink:href="#BitstreamVeraSans-Roman-30"/>
    </g>
   </g>
  </g>
 </g>
 <defs>
  <clipPath id="p99b4b0da67">
   <rect height="345.6" width="446.4" x="7.2" y="7.2"/>
  </clipPath>
 </defs>
</svg>
