<?xml version="1.0" encoding="utf-8" standalone="no"?>
<!DOCTYPE svg PUBLIC "-//W3C//DTD SVG 1.1//EN"
  "http://www.w3.org/Graphics/SVG/1.1/DTD/svg11.dtd">
<!-- Created with matplotlib (http://matplotlib.org/) -->
<svg height="407pt" version="1.1" viewBox="0 0 460 407" width="460pt" xmlns="http://www.w3.org/2000/svg" xmlns:xlink="http://www.w3.org/1999/xlink">
 <defs>
  <style type="text/css">
*{stroke-linecap:butt;stroke-linejoin:round;}
  </style>
 </defs>
 <g id="figure_1">
  <g id="patch_1">
   <path d="
M0 407.712
L460.8 407.712
L460.8 0
L0 0
z
" style="fill:#ffffff;"/>
  </g>
  <g id="axes_1">
   <g id="patch_2">
    <path d="
M7.2 352.8
L453.6 352.8
L453.6 7.2
L7.2 7.2
z
" style="fill:#ffffff;"/>
   </g>
   <g id="line2d_1">
    <path clip-path="url(#p948daaf33d)" d="
M-1 284.364
L7.07136 284.364
L7.07136 10.6218
L7.07136 10.6218
L453.6 10.6218
L453.6 10.6218" style="fill:none;stroke:#ff0000;stroke-linecap:square;stroke-width:3.0;"/>
   </g>
   <g id="line2d_2">
    <path clip-path="url(#p948daaf33d)" d="
M229.651 352.8
L229.651 348.238
L242.167 348.238
L242.167 343.675
L244.081 343.675
L244.081 339.113
L250.082 339.113
L250.082 334.55
L252.999 334.55
L252.999 329.988
L255.674 329.988
L255.674 325.426
L257.446 325.426
L257.446 320.863
L258.658 320.863
L258.658 316.301
L259.637 316.301
L259.637 311.739
L261.6 311.739
L261.6 307.176
L262.355 307.176
L262.355 302.614
L263.101 302.614
L263.101 298.051
L263.968 298.051
L263.968 293.489
L264.135 293.489
L264.135 288.927
L268.587 288.927
L268.587 284.364
L273.69 284.364
L273.69 279.802
L278.406 279.802
L278.406 275.24
L280.092 275.24
L280.092 270.677
L280.669 270.677
L280.669 266.115
L280.847 266.115
L280.847 261.552
L281.422 261.552
L281.422 256.99
L281.726 256.99
L281.797 247.865
L282.308 247.865
L282.312 238.741
L283.052 238.741
L283.052 234.178
L285.619 234.178
L285.619 229.616
L286.25 229.616
L286.25 225.053
L287.654 225.053
L287.678 215.929
L289.966 215.929
L290.003 206.804
L290.644 206.804
L290.644 202.242
L291.981 202.242
L291.981 197.679
L292.77 197.679
L292.77 193.117
L293.156 193.117
L293.156 188.554
L293.712 188.554
L293.712 183.992
L294.16 183.992
L294.16 179.43
L295.326 179.43
L295.326 174.867
L295.479 174.867
L295.559 165.743
L295.734 165.743
L295.809 156.618
L296.283 156.618
L296.322 147.493
L296.618 147.493
L296.618 142.931
L297.769 142.931
L297.769 138.368
L298.099 138.368
L298.174 129.244
L298.637 129.244
L298.637 124.681
L299.589 124.681
L299.589 120.119
L299.911 120.119
L299.911 115.556
L300.227 115.556
L300.332 106.432
L300.351 106.432
L300.351 101.869
L300.463 101.869
L300.463 97.3069
L301.1 97.3069
L301.119 88.1822
L302.718 88.1822
L302.718 83.6198
L304.124 83.6198
L304.124 79.0574
L345.487 79.0574
L345.487 74.495
L354.735 74.495
L354.735 69.9327
L359.969 69.9327
L359.969 65.3703
L364.642 65.3703
L364.642 60.8079
L368.185 60.8079
L368.185 56.2455
L371.673 56.2455
L371.673 51.6832
L374.07 51.6832
L374.07 47.1208
L375.94 47.1208
L375.94 42.5584
L376.143 42.5584
L376.143 37.996
L376.352 37.996
L376.352 33.4337
L379.561 33.4337
L379.561 28.8713
L380.086 28.8713
L380.086 24.3089
L381.395 24.3089
L381.395 19.7465
L385.919 19.7465
L385.919 15.1842
L387.934 15.1842
L387.934 10.6218
L387.934 10.6218
L453.6 10.6218
L453.6 10.6218" style="fill:none;stroke:#00bfbf;stroke-linecap:square;"/>
   </g>
   <g id="line2d_3">
    <path clip-path="url(#p948daaf33d)" d="
M229.651 352.8
L229.651 348.238
L242.167 348.238
L242.167 343.675
L244.081 343.675
L244.081 339.113
L250.082 339.113
L250.082 334.55
L252.999 334.55
L252.999 329.988
L255.674 329.988
L255.674 325.426
L257.446 325.426
L257.446 320.863
L258.658 320.863
L258.658 316.301
L259.637 316.301
L259.637 311.739
L261.6 311.739
L261.6 307.176
L262.355 307.176
L262.355 302.614
L263.101 302.614
L263.101 298.051
L263.968 298.051
L263.968 293.489
L264.135 293.489
L264.135 288.927
L268.587 288.927
L268.587 284.364
L273.69 284.364
L273.69 279.802
L278.406 279.802
L278.406 275.24
L280.092 275.24
L280.092 270.677
L280.669 270.677
L280.669 266.115
L280.847 266.115
L280.847 261.552
L281.422 261.552
L281.422 256.99
L281.726 256.99
L281.797 247.865
L282.308 247.865
L282.312 238.741
L283.052 238.741
L283.052 234.178
L285.619 234.178
L285.619 229.616
L286.25 229.616
L286.25 225.053
L287.654 225.053
L287.678 215.929
L289.966 215.929
L290.003 206.804
L290.644 206.804
L290.644 202.242
L291.981 202.242
L291.981 197.679
L292.77 197.679
L292.77 193.117
L293.156 193.117
L293.156 188.554
L293.712 188.554
L293.712 183.992
L294.16 183.992
L294.16 179.43
L295.326 179.43
L295.326 174.867
L295.479 174.867
L295.559 165.743
L295.734 165.743
L295.809 156.618
L296.283 156.618
L296.322 147.493
L296.618 147.493
L296.618 142.931
L297.769 142.931
L297.769 138.368
L298.099 138.368
L298.174 129.244
L298.637 129.244
L298.637 124.681
L299.589 124.681
L299.589 120.119
L299.911 120.119
L299.911 115.556
L300.227 115.556
L300.332 106.432
L300.351 106.432
L300.351 101.869
L300.463 101.869
L300.463 97.3069
L301.1 97.3069
L301.119 88.1822
L302.718 88.1822
L302.718 83.6198
L304.124 83.6198
L304.124 79.0574
L345.487 79.0574
L345.487 74.495
L354.735 74.495
L354.735 69.9327
L359.969 69.9327
L359.969 65.3703
L364.642 65.3703
L364.642 60.8079
L368.185 60.8079
L368.185 56.2455
L371.673 56.2455
L371.673 51.6832
L374.07 51.6832
L374.07 47.1208
L375.94 47.1208
L375.94 42.5584
L376.143 42.5584
L376.143 37.996
L376.352 37.996
L376.352 33.4337
L379.561 33.4337
L379.561 28.8713
L380.086 28.8713
L380.086 24.3089
L381.395 24.3089
L381.395 19.7465
L385.919 19.7465
L385.919 15.1842
L387.934 15.1842
L387.934 10.6218
L387.934 10.6218
L453.6 10.6218
L453.6 10.6218" style="fill:none;stroke:#bf00bf;stroke-linecap:square;"/>
   </g>
   <g id="line2d_4">
    <path clip-path="url(#p948daaf33d)" d="
M229.651 352.8
L229.651 348.238
L242.167 348.238
L242.167 343.675
L244.081 343.675
L244.081 339.113
L250.082 339.113
L250.082 334.55
L252.999 334.55
L252.999 329.988
L255.674 329.988
L255.674 325.426
L257.446 325.426
L257.446 320.863
L258.658 320.863
L258.658 316.301
L259.637 316.301
L259.637 311.739
L261.6 311.739
L261.6 307.176
L262.355 307.176
L262.355 302.614
L263.101 302.614
L263.101 298.051
L263.968 298.051
L263.968 293.489
L264.135 293.489
L264.135 288.927
L268.587 288.927
L268.587 284.364
L273.69 284.364
L273.69 279.802
L278.406 279.802
L278.406 275.24
L280.092 275.24
L280.092 270.677
L280.669 270.677
L280.669 266.115
L280.847 266.115
L280.847 261.552
L281.422 261.552
L281.422 256.99
L281.726 256.99
L281.797 247.865
L282.308 247.865
L282.312 238.741
L283.052 238.741
L283.052 234.178
L285.619 234.178
L285.619 229.616
L286.25 229.616
L286.25 225.053
L287.654 225.053
L287.678 215.929
L289.966 215.929
L290.003 206.804
L290.644 206.804
L290.644 202.242
L291.981 202.242
L291.981 197.679
L292.77 197.679
L292.77 193.117
L293.156 193.117
L293.156 188.554
L293.712 188.554
L293.712 183.992
L294.16 183.992
L294.16 179.43
L295.326 179.43
L295.326 174.867
L295.479 174.867
L295.559 165.743
L295.734 165.743
L295.809 156.618
L296.283 156.618
L296.322 147.493
L296.618 147.493
L296.618 142.931
L297.769 142.931
L297.769 138.368
L298.099 138.368
L298.174 129.244
L298.637 129.244
L298.637 124.681
L299.589 124.681
L299.589 120.119
L299.911 120.119
L299.911 115.556
L300.227 115.556
L300.332 106.432
L300.351 106.432
L300.351 101.869
L300.463 101.869
L300.463 97.3069
L301.1 97.3069
L301.119 88.1822
L302.718 88.1822
L302.718 83.6198
L304.124 83.6198
L304.124 79.0574
L345.487 79.0574
L345.487 74.495
L354.735 74.495
L354.735 69.9327
L359.969 69.9327
L359.969 65.3703
L364.642 65.3703
L364.642 60.8079
L368.185 60.8079
L368.185 56.2455
L371.673 56.2455
L371.673 51.6832
L374.07 51.6832
L374.07 47.1208
L375.94 47.1208
L375.94 42.5584
L376.143 42.5584
L376.143 37.996
L376.352 37.996
L376.352 33.4337
L379.561 33.4337
L379.561 28.8713
L380.086 28.8713
L380.086 24.3089
L381.395 24.3089
L381.395 19.7465
L385.919 19.7465
L385.919 15.1842
L387.934 15.1842
L387.934 10.6218
L387.934 10.6218
L453.6 10.6218
L453.6 10.6218" style="fill:none;stroke:#000000;stroke-linecap:square;"/>
   </g>
   <g id="line2d_5">
    <path clip-path="url(#p948daaf33d)" d="
M229.651 352.8
L229.651 348.238
L242.167 348.238
L242.167 343.675
L244.081 343.675
L244.081 339.113
L250.082 339.113
L250.082 334.55
L252.999 334.55
L252.999 329.988
L255.674 329.988
L255.674 325.426
L257.446 325.426
L257.446 320.863
L258.658 320.863
L258.658 316.301
L259.637 316.301
L259.637 311.739
L261.6 311.739
L261.6 307.176
L262.355 307.176
L262.355 302.614
L263.101 302.614
L263.101 298.051
L263.968 298.051
L263.968 293.489
L264.135 293.489
L264.135 288.927
L268.587 288.927
L268.587 284.364
L273.69 284.364
L273.69 279.802
L278.406 279.802
L278.406 275.24
L280.092 275.24
L280.092 270.677
L280.669 270.677
L280.669 266.115
L280.847 266.115
L280.847 261.552
L281.422 261.552
L281.422 256.99
L281.726 256.99
L281.797 247.865
L282.308 247.865
L282.312 238.741
L283.052 238.741
L283.052 234.178
L285.619 234.178
L285.619 229.616
L286.25 229.616
L286.25 225.053
L287.654 225.053
L287.678 215.929
L289.966 215.929
L290.003 206.804
L290.644 206.804
L290.644 202.242
L291.981 202.242
L291.981 197.679
L292.77 197.679
L292.77 193.117
L293.156 193.117
L293.156 188.554
L293.712 188.554
L293.712 183.992
L294.16 183.992
L294.16 179.43
L295.326 179.43
L295.326 174.867
L295.479 174.867
L295.559 165.743
L295.734 165.743
L295.809 156.618
L296.283 156.618
L296.322 147.493
L296.618 147.493
L296.618 142.931
L297.769 142.931
L297.769 138.368
L298.099 138.368
L298.174 129.244
L298.637 129.244
L298.637 124.681
L299.589 124.681
L299.589 120.119
L299.911 120.119
L299.911 115.556
L300.227 115.556
L300.332 106.432
L300.351 106.432
L300.351 101.869
L300.463 101.869
L300.463 97.3069
L301.1 97.3069
L301.119 88.1822
L302.718 88.1822
L302.718 83.6198
L304.124 83.6198
L304.124 79.0574
L345.487 79.0574
L345.487 74.495
L354.735 74.495
L354.735 69.9327
L359.969 69.9327
L359.969 65.3703
L364.642 65.3703
L364.642 60.8079
L368.185 60.8079
L368.185 56.2455
L371.673 56.2455
L371.673 51.6832
L374.07 51.6832
L374.07 47.1208
L375.94 47.1208
L375.94 42.5584
L376.143 42.5584
L376.143 37.996
L376.352 37.996
L376.352 33.4337
L379.561 33.4337
L379.561 28.8713
L380.086 28.8713
L380.086 24.3089
L381.395 24.3089
L381.395 19.7465
L385.919 19.7465
L385.919 15.1842
L387.934 15.1842
L387.934 10.6218
L387.934 10.6218
L453.6 10.6218
L453.6 10.6218" style="fill:none;stroke:#00bfbf;stroke-linecap:square;"/>
   </g>
   <g id="line2d_6">
    <path clip-path="url(#p948daaf33d)" d="
M208.718 352.8
L208.718 348.238
L216.28 348.238
L216.28 343.675
L217.418 343.675
L217.418 339.113
L217.659 339.113
L217.659 334.55
L220.397 334.55
L220.397 329.988
L224.104 329.988
L224.104 325.426
L225.828 325.426
L225.828 320.863
L228.772 320.863
L228.772 316.301
L233.332 316.301
L233.332 311.739
L234.418 311.739
L234.418 307.176
L235.793 307.176
L235.793 302.614
L236.55 302.614
L236.55 298.051
L242.188 298.051
L242.188 293.489
L247.351 293.489
L247.351 288.927
L253.024 288.927
L253.024 284.364
L255.536 284.364
L255.536 279.802
L256.522 279.802
L256.522 275.24
L257.99 275.24
L257.99 270.677
L260.041 270.677
L260.041 266.115
L260.285 266.115
L260.285 261.552
L262.348 261.552
L262.348 256.99
L262.509 256.99
L262.509 252.428
L264.227 252.428
L264.227 247.865
L266.613 247.865
L266.613 243.303
L266.768 243.303
L266.768 238.741
L268.471 238.741
L268.471 234.178
L268.882 234.178
L268.882 229.616
L270.61 229.616
L270.61 225.053
L271.148 225.053
L271.148 220.491
L272.197 220.491
L272.197 215.929
L272.758 215.929
L272.758 211.366
L273.264 211.366
L273.264 206.804
L274.065 206.804
L274.065 202.242
L274.885 202.242
L274.885 197.679
L275.547 197.679
L275.547 193.117
L277.517 193.117
L277.517 188.554
L279.943 188.554
L279.943 183.992
L280.546 183.992
L280.546 179.43
L281.565 179.43
L281.569 170.305
L281.787 170.305
L281.787 165.743
L282.859 165.743
L282.859 161.18
L283.055 161.18
L283.055 156.618
L283.74 156.618
L283.778 147.493
L284.492 147.493
L284.492 142.931
L284.69 142.931
L284.763 133.806
L285.248 133.806
L285.248 129.244
L285.657 129.244
L285.657 124.681
L286.939 124.681
L286.939 120.119
L287.232 120.119
L287.232 115.556
L288.575 115.556
L288.575 110.994
L288.898 110.994
L288.898 106.432
L290.389 106.432
L290.389 101.869
L290.561 101.869
L290.561 97.3069
L291.246 97.3069
L291.246 92.7446
L291.362 92.7446
L291.362 88.1822
L292.353 88.1822
L292.353 83.6198
L295.687 83.6198
L295.687 79.0574
L330.996 79.0574
L330.996 74.495
L341.478 74.495
L341.478 69.9327
L342.995 69.9327
L343.025 60.8079
L345.877 60.8079
L345.877 56.2455
L346.401 56.2455
L346.401 51.6832
L349.951 51.6832
L349.951 47.1208
L352.151 47.1208
L352.151 42.5584
L352.707 42.5584
L352.707 37.996
L353.089 37.996
L353.089 33.4337
L355.886 33.4337
L355.886 28.8713
L358.058 28.8713
L358.058 24.3089
L359.063 24.3089
L359.063 19.7465
L360.421 19.7465
L360.421 15.1842
L363.354 15.1842
L363.354 10.6218
L363.354 10.6218
L453.6 10.6218
L453.6 10.6218" style="fill:none;stroke:#bf00bf;stroke-linecap:square;"/>
   </g>
   <g id="line2d_7">
    <path clip-path="url(#p948daaf33d)" d="
M-1 284.364
L122.684 284.364
L122.684 279.802
L138.16 279.802
L138.16 275.24
L138.413 275.24
L138.413 270.677
L139.478 270.677
L139.478 266.115
L142.275 266.115
L142.275 261.552
L149.916 261.552
L149.916 256.99
L150.982 256.99
L150.982 252.428
L152.949 252.428
L152.949 247.865
L153.967 247.865
L153.967 243.303
L154.353 243.303
L154.353 238.741
L159.701 238.741
L159.701 234.178
L166.369 234.178
L166.369 229.616
L166.777 229.616
L166.777 225.053
L173.202 225.053
L173.202 220.491
L178.542 220.491
L178.542 215.929
L214.621 215.929
L214.621 211.366
L215.031 211.366
L215.031 206.804
L216.062 206.804
L216.062 202.242
L227.726 202.242
L227.726 197.679
L240.776 197.679
L240.776 193.117
L241.809 193.117
L241.809 188.554
L246.759 188.554
L246.759 183.992
L247.399 183.992
L247.424 170.305
L247.939 170.305
L247.939 165.743
L248.788 165.743
L248.788 161.18
L248.915 161.18
L248.997 152.055
L249.582 152.055
L249.582 147.493
L250.612 147.493
L250.612 142.931
L253.687 142.931
L253.687 138.368
L254.593 138.368
L254.593 133.806
L255.81 133.806
L255.81 129.244
L256.507 129.244
L256.507 124.681
L259.687 124.681
L259.705 115.556
L260.554 115.556
L260.554 110.994
L260.685 110.994
L260.685 106.432
L262.968 106.432
L262.968 101.869
L264.19 101.869
L264.201 92.7446
L265.626 92.7446
L265.626 88.1822
L266.128 88.1822
L266.141 79.0574
L270.106 79.0574
L270.106 74.495
L270.729 74.495
L270.729 69.9327
L272.55 69.9327
L272.55 65.3703
L274.059 65.3703
L274.164 56.2455
L280.006 56.2455
L280.006 51.6832
L287.788 51.6832
L287.788 47.1208
L288.325 47.1208
L288.325 42.5584
L295.741 42.5584
L295.741 37.996
L299.915 37.996
L299.915 33.4337
L304.292 33.4337
L304.292 28.8713
L304.527 28.8713
L304.527 24.3089
L313.019 24.3089
L313.019 19.7465
L314.934 19.7465
L314.934 15.1842
L325.09 15.1842
L325.09 10.6218
L325.09 10.6218
L453.6 10.6218
L453.6 10.6218" style="fill:none;stroke:#000000;stroke-linecap:square;"/>
   </g>
   <g id="line2d_8">
    <path clip-path="url(#p948daaf33d)" d="
M-1 211.366
L1.58516 211.366
L1.58516 206.804
L3.39492 206.804
L3.39492 202.242
L10.3648 202.242
L10.3648 197.679
L25.0855 197.679
L25.0855 193.117
L61.3424 193.117
L61.3424 188.554
L66.0204 188.554
L66.0204 183.992
L68.0874 183.992
L68.0874 179.43
L109.23 179.43
L109.23 174.867
L109.883 174.867
L109.883 170.305
L111.141 170.305
L111.141 165.743
L112.026 165.743
L112.026 161.18
L130.925 161.18
L130.925 156.618
L143.625 156.618
L143.625 152.055
L152.67 152.055
L152.67 147.493
L158.79 147.493
L158.79 142.931
L159.541 142.931
L159.541 138.368
L160.507 138.368
L160.507 133.806
L162.887 133.806
L162.887 129.244
L163.59 129.244
L163.59 124.681
L165.022 124.681
L165.022 120.119
L166.572 120.119
L166.572 115.556
L168.8 115.556
L168.8 110.994
L170.149 110.994
L170.149 106.432
L175.567 106.432
L175.567 101.869
L178.141 101.869
L178.141 97.3069
L188.089 97.3069
L188.089 92.7446
L192.727 92.7446
L192.727 88.1822
L197.527 88.1822
L197.527 83.6198
L199.593 83.6198
L199.593 79.0574
L205.824 79.0574
L205.824 74.495
L209.758 74.495
L209.775 65.3703
L213.626 65.3703
L213.626 60.8079
L217.046 60.8079
L217.046 56.2455
L224.335 56.2455
L224.335 51.6832
L224.875 51.6832
L224.875 47.1208
L245.155 47.1208
L245.191 15.1842
L246.725 15.1842
L246.725 10.6218
L246.725 10.6218
L453.6 10.6218
L453.6 10.6218" style="fill:none;stroke:#00bfbf;stroke-linecap:square;"/>
   </g>
   <g id="patch_3">
    <path d="
M7.2 7.2
L453.6 7.2" style="fill:none;stroke:#000000;stroke-linecap:square;stroke-linejoin:miter;"/>
   </g>
   <g id="patch_4">
    <path d="
M453.6 352.8
L453.6 7.2" style="fill:none;stroke:#000000;stroke-linecap:square;stroke-linejoin:miter;"/>
   </g>
   <g id="patch_5">
    <path d="
M7.2 352.8
L453.6 352.8" style="fill:none;stroke:#000000;stroke-linecap:square;stroke-linejoin:miter;"/>
   </g>
   <g id="patch_6">
    <path d="
M7.2 352.8
L7.2 7.2" style="fill:none;stroke:#000000;stroke-linecap:square;stroke-linejoin:miter;"/>
   </g>
   <g id="matplotlib.axis_1">
    <g id="xtick_1"/>
    <g id="xtick_2">
     <g id="line2d_9">
      <path clip-path="url(#p948daaf33d)" d="
M36.8399 352.8
L36.8399 7.2" style="fill:none;stroke:#000000;stroke-dasharray:1.000000,3.000000;stroke-dashoffset:0.0;stroke-width:0.5;"/>
     </g>
     <g id="line2d_10">
      <defs>
       <path d="
M0 0
L0 -4" id="m93b0483c22" style="stroke:#000000;stroke-width:0.5;"/>
      </defs>
      <g>
       <use style="stroke:#000000;stroke-width:0.5;" x="36.8399349321" xlink:href="#m93b0483c22" y="352.8"/>
      </g>
     </g>
     <g id="line2d_11">
      <defs>
       <path d="
M0 0
L0 4" id="m741efc42ff" style="stroke:#000000;stroke-width:0.5;"/>
      </defs>
      <g>
       <use style="stroke:#000000;stroke-width:0.5;" x="36.8399349321" xlink:href="#m741efc42ff" y="7.2"/>
      </g>
     </g>
     <g id="text_1">
      <!-- -7 -->
      <defs>
       <path d="
M4.89062 31.3906
L31.2031 31.3906
L31.2031 23.3906
L4.89062 23.3906
z
" id="BitstreamVeraSans-Roman-2d"/>
       <path d="
M8.20312 72.9062
L55.0781 72.9062
L55.0781 68.7031
L28.6094 0
L18.3125 0
L43.2188 64.5938
L8.20312 64.5938
z
" id="BitstreamVeraSans-Roman-37"/>
      </defs>
      <g transform="translate(28.2133724321 371.996875)scale(0.2 -0.2)">
       <use xlink:href="#BitstreamVeraSans-Roman-2d"/>
       <use x="36.083984375" xlink:href="#BitstreamVeraSans-Roman-37"/>
      </g>
     </g>
    </g>
    <g id="xtick_3">
     <g id="line2d_12">
      <path clip-path="url(#p948daaf33d)" d="
M66.6085 352.8
L66.6085 7.2" style="fill:none;stroke:#000000;stroke-dasharray:1.000000,3.000000;stroke-dashoffset:0.0;stroke-width:0.5;"/>
     </g>
     <g id="line2d_13">
      <g>
       <use style="stroke:#000000;stroke-width:0.5;" x="66.6085110084" xlink:href="#m93b0483c22" y="352.8"/>
      </g>
     </g>
     <g id="line2d_14">
      <g>
       <use style="stroke:#000000;stroke-width:0.5;" x="66.6085110084" xlink:href="#m741efc42ff" y="7.2"/>
      </g>
     </g>
     <g id="text_2">
      <!-- -6 -->
      <defs>
       <path d="
M33.0156 40.375
Q26.375 40.375 22.4844 35.8281
Q18.6094 31.2969 18.6094 23.3906
Q18.6094 15.5312 22.4844 10.9531
Q26.375 6.39062 33.0156 6.39062
Q39.6562 6.39062 43.5312 10.9531
Q47.4062 15.5312 47.4062 23.3906
Q47.4062 31.2969 43.5312 35.8281
Q39.6562 40.375 33.0156 40.375
M52.5938 71.2969
L52.5938 62.3125
Q48.875 64.0625 45.0938 64.9844
Q41.3125 65.9219 37.5938 65.9219
Q27.8281 65.9219 22.6719 59.3281
Q17.5312 52.7344 16.7969 39.4062
Q19.6719 43.6562 24.0156 45.9219
Q28.375 48.1875 33.5938 48.1875
Q44.5781 48.1875 50.9531 41.5156
Q57.3281 34.8594 57.3281 23.3906
Q57.3281 12.1562 50.6875 5.35938
Q44.0469 -1.42188 33.0156 -1.42188
Q20.3594 -1.42188 13.6719 8.26562
Q6.98438 17.9688 6.98438 36.375
Q6.98438 53.6562 15.1875 63.9375
Q23.3906 74.2188 37.2031 74.2188
Q40.9219 74.2188 44.7031 73.4844
Q48.4844 72.75 52.5938 71.2969" id="BitstreamVeraSans-Roman-36"/>
      </defs>
      <g transform="translate(57.7569485084 371.996875)scale(0.2 -0.2)">
       <use xlink:href="#BitstreamVeraSans-Roman-2d"/>
       <use x="36.083984375" xlink:href="#BitstreamVeraSans-Roman-36"/>
      </g>
     </g>
    </g>
    <g id="xtick_4">
     <g id="line2d_15">
      <path clip-path="url(#p948daaf33d)" d="
M96.3771 352.8
L96.3771 7.2" style="fill:none;stroke:#000000;stroke-dasharray:1.000000,3.000000;stroke-dashoffset:0.0;stroke-width:0.5;"/>
     </g>
     <g id="line2d_16">
      <g>
       <use style="stroke:#000000;stroke-width:0.5;" x="96.3770870846" xlink:href="#m93b0483c22" y="352.8"/>
      </g>
     </g>
     <g id="line2d_17">
      <g>
       <use style="stroke:#000000;stroke-width:0.5;" x="96.3770870846" xlink:href="#m741efc42ff" y="7.2"/>
      </g>
     </g>
     <g id="text_3">
      <!-- -5 -->
      <defs>
       <path d="
M10.7969 72.9062
L49.5156 72.9062
L49.5156 64.5938
L19.8281 64.5938
L19.8281 46.7344
Q21.9688 47.4688 24.1094 47.8281
Q26.2656 48.1875 28.4219 48.1875
Q40.625 48.1875 47.75 41.5
Q54.8906 34.8125 54.8906 23.3906
Q54.8906 11.625 47.5625 5.09375
Q40.2344 -1.42188 26.9062 -1.42188
Q22.3125 -1.42188 17.5469 -0.640625
Q12.7969 0.140625 7.71875 1.70312
L7.71875 11.625
Q12.1094 9.23438 16.7969 8.0625
Q21.4844 6.89062 26.7031 6.89062
Q35.1562 6.89062 40.0781 11.3281
Q45.0156 15.7656 45.0156 23.3906
Q45.0156 31 40.0781 35.4375
Q35.1562 39.8906 26.7031 39.8906
Q22.75 39.8906 18.8125 39.0156
Q14.8906 38.1406 10.7969 36.2812
z
" id="BitstreamVeraSans-Roman-35"/>
      </defs>
      <g transform="translate(87.7692745846 371.996875)scale(0.2 -0.2)">
       <use xlink:href="#BitstreamVeraSans-Roman-2d"/>
       <use x="36.083984375" xlink:href="#BitstreamVeraSans-Roman-35"/>
      </g>
     </g>
    </g>
    <g id="xtick_5">
     <g id="line2d_18">
      <path clip-path="url(#p948daaf33d)" d="
M126.146 352.8
L126.146 7.2" style="fill:none;stroke:#000000;stroke-dasharray:1.000000,3.000000;stroke-dashoffset:0.0;stroke-width:0.5;"/>
     </g>
     <g id="line2d_19">
      <g>
       <use style="stroke:#000000;stroke-width:0.5;" x="126.145663161" xlink:href="#m93b0483c22" y="352.8"/>
      </g>
     </g>
     <g id="line2d_20">
      <g>
       <use style="stroke:#000000;stroke-width:0.5;" x="126.145663161" xlink:href="#m741efc42ff" y="7.2"/>
      </g>
     </g>
     <g id="text_4">
      <!-- -4 -->
      <defs>
       <path d="
M37.7969 64.3125
L12.8906 25.3906
L37.7969 25.3906
z

M35.2031 72.9062
L47.6094 72.9062
L47.6094 25.3906
L58.0156 25.3906
L58.0156 17.1875
L47.6094 17.1875
L47.6094 0
L37.7969 0
L37.7969 17.1875
L4.89062 17.1875
L4.89062 26.7031
z
" id="BitstreamVeraSans-Roman-34"/>
      </defs>
      <g transform="translate(117.225350661 371.996875)scale(0.2 -0.2)">
       <use xlink:href="#BitstreamVeraSans-Roman-2d"/>
       <use x="36.083984375" xlink:href="#BitstreamVeraSans-Roman-34"/>
      </g>
     </g>
    </g>
    <g id="xtick_6">
     <g id="line2d_21">
      <path clip-path="url(#p948daaf33d)" d="
M155.914 352.8
L155.914 7.2" style="fill:none;stroke:#000000;stroke-dasharray:1.000000,3.000000;stroke-dashoffset:0.0;stroke-width:0.5;"/>
     </g>
     <g id="line2d_22">
      <g>
       <use style="stroke:#000000;stroke-width:0.5;" x="155.914239237" xlink:href="#m93b0483c22" y="352.8"/>
      </g>
     </g>
     <g id="line2d_23">
      <g>
       <use style="stroke:#000000;stroke-width:0.5;" x="155.914239237" xlink:href="#m741efc42ff" y="7.2"/>
      </g>
     </g>
     <g id="text_5">
      <!-- -3 -->
      <defs>
       <path d="
M40.5781 39.3125
Q47.6562 37.7969 51.625 33
Q55.6094 28.2188 55.6094 21.1875
Q55.6094 10.4062 48.1875 4.48438
Q40.7656 -1.42188 27.0938 -1.42188
Q22.5156 -1.42188 17.6562 -0.515625
Q12.7969 0.390625 7.625 2.20312
L7.625 11.7188
Q11.7188 9.32812 16.5938 8.10938
Q21.4844 6.89062 26.8125 6.89062
Q36.0781 6.89062 40.9375 10.5469
Q45.7969 14.2031 45.7969 21.1875
Q45.7969 27.6406 41.2812 31.2656
Q36.7656 34.9062 28.7188 34.9062
L20.2188 34.9062
L20.2188 43.0156
L29.1094 43.0156
Q36.375 43.0156 40.2344 45.9219
Q44.0938 48.8281 44.0938 54.2969
Q44.0938 59.9062 40.1094 62.9062
Q36.1406 65.9219 28.7188 65.9219
Q24.6562 65.9219 20.0156 65.0312
Q15.375 64.1562 9.8125 62.3125
L9.8125 71.0938
Q15.4375 72.6562 20.3438 73.4375
Q25.25 74.2188 29.5938 74.2188
Q40.8281 74.2188 47.3594 69.1094
Q53.9062 64.0156 53.9062 55.3281
Q53.9062 49.2656 50.4375 45.0938
Q46.9688 40.9219 40.5781 39.3125" id="BitstreamVeraSans-Roman-33"/>
      </defs>
      <g transform="translate(147.234551737 371.996875)scale(0.2 -0.2)">
       <use xlink:href="#BitstreamVeraSans-Roman-2d"/>
       <use x="36.083984375" xlink:href="#BitstreamVeraSans-Roman-33"/>
      </g>
     </g>
    </g>
    <g id="xtick_7">
     <g id="line2d_24">
      <path clip-path="url(#p948daaf33d)" d="
M185.683 352.8
L185.683 7.2" style="fill:none;stroke:#000000;stroke-dasharray:1.000000,3.000000;stroke-dashoffset:0.0;stroke-width:0.5;"/>
     </g>
     <g id="line2d_25">
      <g>
       <use style="stroke:#000000;stroke-width:0.5;" x="185.682815313" xlink:href="#m93b0483c22" y="352.8"/>
      </g>
     </g>
     <g id="line2d_26">
      <g>
       <use style="stroke:#000000;stroke-width:0.5;" x="185.682815313" xlink:href="#m741efc42ff" y="7.2"/>
      </g>
     </g>
     <g id="text_6">
      <!-- -2 -->
      <defs>
       <path d="
M19.1875 8.29688
L53.6094 8.29688
L53.6094 0
L7.32812 0
L7.32812 8.29688
Q12.9375 14.1094 22.625 23.8906
Q32.3281 33.6875 34.8125 36.5312
Q39.5469 41.8438 41.4219 45.5312
Q43.3125 49.2188 43.3125 52.7812
Q43.3125 58.5938 39.2344 62.25
Q35.1562 65.9219 28.6094 65.9219
Q23.9688 65.9219 18.8125 64.3125
Q13.6719 62.7031 7.8125 59.4219
L7.8125 69.3906
Q13.7656 71.7812 18.9375 73
Q24.125 74.2188 28.4219 74.2188
Q39.75 74.2188 46.4844 68.5469
Q53.2188 62.8906 53.2188 53.4219
Q53.2188 48.9219 51.5312 44.8906
Q49.8594 40.875 45.4062 35.4062
Q44.1875 33.9844 37.6406 27.2188
Q31.1094 20.4531 19.1875 8.29688" id="BitstreamVeraSans-Roman-32"/>
      </defs>
      <g transform="translate(177.203127813 371.996875)scale(0.2 -0.2)">
       <use xlink:href="#BitstreamVeraSans-Roman-2d"/>
       <use x="36.083984375" xlink:href="#BitstreamVeraSans-Roman-32"/>
      </g>
     </g>
    </g>
    <g id="xtick_8">
     <g id="line2d_27">
      <path clip-path="url(#p948daaf33d)" d="
M215.451 352.8
L215.451 7.2" style="fill:none;stroke:#000000;stroke-dasharray:1.000000,3.000000;stroke-dashoffset:0.0;stroke-width:0.5;"/>
     </g>
     <g id="line2d_28">
      <g>
       <use style="stroke:#000000;stroke-width:0.5;" x="215.45139139" xlink:href="#m93b0483c22" y="352.8"/>
      </g>
     </g>
     <g id="line2d_29">
      <g>
       <use style="stroke:#000000;stroke-width:0.5;" x="215.45139139" xlink:href="#m741efc42ff" y="7.2"/>
      </g>
     </g>
     <g id="text_7">
      <!-- -1 -->
      <defs>
       <path d="
M12.4062 8.29688
L28.5156 8.29688
L28.5156 63.9219
L10.9844 60.4062
L10.9844 69.3906
L28.4219 72.9062
L38.2812 72.9062
L38.2812 8.29688
L54.3906 8.29688
L54.3906 0
L12.4062 0
z
" id="BitstreamVeraSans-Roman-31"/>
      </defs>
      <g transform="translate(206.89357889 371.996875)scale(0.2 -0.2)">
       <use xlink:href="#BitstreamVeraSans-Roman-2d"/>
       <use x="36.083984375" xlink:href="#BitstreamVeraSans-Roman-31"/>
      </g>
     </g>
    </g>
    <g id="xtick_9">
     <g id="line2d_30">
      <path clip-path="url(#p948daaf33d)" d="
M245.22 352.8
L245.22 7.2" style="fill:none;stroke:#000000;stroke-dasharray:1.000000,3.000000;stroke-dashoffset:0.0;stroke-width:0.5;"/>
     </g>
     <g id="line2d_31">
      <g>
       <use style="stroke:#000000;stroke-width:0.5;" x="245.219967466" xlink:href="#m93b0483c22" y="352.8"/>
      </g>
     </g>
     <g id="line2d_32">
      <g>
       <use style="stroke:#000000;stroke-width:0.5;" x="245.219967466" xlink:href="#m741efc42ff" y="7.2"/>
      </g>
     </g>
     <g id="text_8">
      <!-- 0 -->
      <defs>
       <path d="
M31.7812 66.4062
Q24.1719 66.4062 20.3281 58.9062
Q16.5 51.4219 16.5 36.375
Q16.5 21.3906 20.3281 13.8906
Q24.1719 6.39062 31.7812 6.39062
Q39.4531 6.39062 43.2812 13.8906
Q47.125 21.3906 47.125 36.375
Q47.125 51.4219 43.2812 58.9062
Q39.4531 66.4062 31.7812 66.4062
M31.7812 74.2188
Q44.0469 74.2188 50.5156 64.5156
Q56.9844 54.8281 56.9844 36.375
Q56.9844 17.9688 50.5156 8.26562
Q44.0469 -1.42188 31.7812 -1.42188
Q19.5312 -1.42188 13.0625 8.26562
Q6.59375 17.9688 6.59375 36.375
Q6.59375 54.8281 13.0625 64.5156
Q19.5312 74.2188 31.7812 74.2188" id="BitstreamVeraSans-Roman-30"/>
      </defs>
      <g transform="translate(240.180904966 371.996875)scale(0.2 -0.2)">
       <use xlink:href="#BitstreamVeraSans-Roman-30"/>
      </g>
     </g>
    </g>
    <g id="xtick_10">
     <g id="line2d_33">
      <path clip-path="url(#p948daaf33d)" d="
M274.989 352.8
L274.989 7.2" style="fill:none;stroke:#000000;stroke-dasharray:1.000000,3.000000;stroke-dashoffset:0.0;stroke-width:0.5;"/>
     </g>
     <g id="line2d_34">
      <g>
       <use style="stroke:#000000;stroke-width:0.5;" x="274.988543542" xlink:href="#m93b0483c22" y="352.8"/>
      </g>
     </g>
     <g id="line2d_35">
      <g>
       <use style="stroke:#000000;stroke-width:0.5;" x="274.988543542" xlink:href="#m741efc42ff" y="7.2"/>
      </g>
     </g>
     <g id="text_9">
      <!-- 1 -->
      <g transform="translate(270.647918542 371.996875)scale(0.2 -0.2)">
       <use xlink:href="#BitstreamVeraSans-Roman-31"/>
      </g>
     </g>
    </g>
    <g id="xtick_11">
     <g id="line2d_36">
      <path clip-path="url(#p948daaf33d)" d="
M304.757 352.8
L304.757 7.2" style="fill:none;stroke:#000000;stroke-dasharray:1.000000,3.000000;stroke-dashoffset:0.0;stroke-width:0.5;"/>
     </g>
     <g id="line2d_37">
      <g>
       <use style="stroke:#000000;stroke-width:0.5;" x="304.757119619" xlink:href="#m93b0483c22" y="352.8"/>
      </g>
     </g>
     <g id="line2d_38">
      <g>
       <use style="stroke:#000000;stroke-width:0.5;" x="304.757119619" xlink:href="#m741efc42ff" y="7.2"/>
      </g>
     </g>
     <g id="text_10">
      <!-- 2 -->
      <g transform="translate(300.128994619 371.996875)scale(0.2 -0.2)">
       <use xlink:href="#BitstreamVeraSans-Roman-32"/>
      </g>
     </g>
    </g>
    <g id="xtick_12">
     <g id="line2d_39">
      <path clip-path="url(#p948daaf33d)" d="
M334.526 352.8
L334.526 7.2" style="fill:none;stroke:#000000;stroke-dasharray:1.000000,3.000000;stroke-dashoffset:0.0;stroke-width:0.5;"/>
     </g>
     <g id="line2d_40">
      <g>
       <use style="stroke:#000000;stroke-width:0.5;" x="334.525695695" xlink:href="#m93b0483c22" y="352.8"/>
      </g>
     </g>
     <g id="line2d_41">
      <g>
       <use style="stroke:#000000;stroke-width:0.5;" x="334.525695695" xlink:href="#m741efc42ff" y="7.2"/>
      </g>
     </g>
     <g id="text_11">
      <!-- 3 -->
      <g transform="translate(329.727258195 371.996875)scale(0.2 -0.2)">
       <use xlink:href="#BitstreamVeraSans-Roman-33"/>
      </g>
     </g>
    </g>
    <g id="xtick_13">
     <g id="line2d_42">
      <path clip-path="url(#p948daaf33d)" d="
M364.294 352.8
L364.294 7.2" style="fill:none;stroke:#000000;stroke-dasharray:1.000000,3.000000;stroke-dashoffset:0.0;stroke-width:0.5;"/>
     </g>
     <g id="line2d_43">
      <g>
       <use style="stroke:#000000;stroke-width:0.5;" x="364.294271771" xlink:href="#m93b0483c22" y="352.8"/>
      </g>
     </g>
     <g id="line2d_44">
      <g>
       <use style="stroke:#000000;stroke-width:0.5;" x="364.294271771" xlink:href="#m741efc42ff" y="7.2"/>
      </g>
     </g>
     <g id="text_12">
      <!-- 4 -->
      <g transform="translate(358.981771771 371.996875)scale(0.2 -0.2)">
       <use xlink:href="#BitstreamVeraSans-Roman-34"/>
      </g>
     </g>
    </g>
    <g id="xtick_14">
     <g id="line2d_45">
      <path clip-path="url(#p948daaf33d)" d="
M394.063 352.8
L394.063 7.2" style="fill:none;stroke:#000000;stroke-dasharray:1.000000,3.000000;stroke-dashoffset:0.0;stroke-width:0.5;"/>
     </g>
     <g id="line2d_46">
      <g>
       <use style="stroke:#000000;stroke-width:0.5;" x="394.062847847" xlink:href="#m93b0483c22" y="352.8"/>
      </g>
     </g>
     <g id="line2d_47">
      <g>
       <use style="stroke:#000000;stroke-width:0.5;" x="394.062847847" xlink:href="#m741efc42ff" y="7.2"/>
      </g>
     </g>
     <g id="text_13">
      <!-- 5 -->
      <g transform="translate(389.345660347 371.996875)scale(0.2 -0.2)">
       <use xlink:href="#BitstreamVeraSans-Roman-35"/>
      </g>
     </g>
    </g>
    <g id="xtick_15">
     <g id="line2d_48">
      <path clip-path="url(#p948daaf33d)" d="
M423.831 352.8
L423.831 7.2" style="fill:none;stroke:#000000;stroke-dasharray:1.000000,3.000000;stroke-dashoffset:0.0;stroke-width:0.5;"/>
     </g>
     <g id="line2d_49">
      <g>
       <use style="stroke:#000000;stroke-width:0.5;" x="423.831423924" xlink:href="#m93b0483c22" y="352.8"/>
      </g>
     </g>
     <g id="line2d_50">
      <g>
       <use style="stroke:#000000;stroke-width:0.5;" x="423.831423924" xlink:href="#m741efc42ff" y="7.2"/>
      </g>
     </g>
     <g id="text_14">
      <!-- 6 -->
      <g transform="translate(418.797048924 371.996875)scale(0.2 -0.2)">
       <use xlink:href="#BitstreamVeraSans-Roman-36"/>
      </g>
     </g>
    </g>
    <g id="xtick_16">
     <g id="line2d_51">
      <path clip-path="url(#p948daaf33d)" d="
M453.6 352.8
L453.6 7.2" style="fill:none;stroke:#000000;stroke-dasharray:1.000000,3.000000;stroke-dashoffset:0.0;stroke-width:0.5;"/>
     </g>
     <g id="line2d_52">
      <g>
       <use style="stroke:#000000;stroke-width:0.5;" x="453.6" xlink:href="#m93b0483c22" y="352.8"/>
      </g>
     </g>
     <g id="line2d_53">
      <g>
       <use style="stroke:#000000;stroke-width:0.5;" x="453.6" xlink:href="#m741efc42ff" y="7.2"/>
      </g>
     </g>
    </g>
    <g id="xtick_17"/>
    <g id="xtick_18">
     <g id="line2d_54">
      <defs>
       <path d="
M0 0
L0 -2" id="m177f7580d0" style="stroke:#000000;stroke-width:0.5;"/>
      </defs>
      <g>
       <use style="stroke:#000000;stroke-width:0.5;" x="36.8399349321" xlink:href="#m177f7580d0" y="352.8"/>
      </g>
     </g>
     <g id="line2d_55">
      <defs>
       <path d="
M0 0
L0 2" id="m5284c7e2a0" style="stroke:#000000;stroke-width:0.5;"/>
      </defs>
      <g>
       <use style="stroke:#000000;stroke-width:0.5;" x="36.8399349321" xlink:href="#m5284c7e2a0" y="7.2"/>
      </g>
     </g>
    </g>
    <g id="xtick_19">
     <g id="line2d_56">
      <g>
       <use style="stroke:#000000;stroke-width:0.5;" x="66.6085110084" xlink:href="#m177f7580d0" y="352.8"/>
      </g>
     </g>
     <g id="line2d_57">
      <g>
       <use style="stroke:#000000;stroke-width:0.5;" x="66.6085110084" xlink:href="#m5284c7e2a0" y="7.2"/>
      </g>
     </g>
    </g>
    <g id="xtick_20">
     <g id="line2d_58">
      <g>
       <use style="stroke:#000000;stroke-width:0.5;" x="96.3770870846" xlink:href="#m177f7580d0" y="352.8"/>
      </g>
     </g>
     <g id="line2d_59">
      <g>
       <use style="stroke:#000000;stroke-width:0.5;" x="96.3770870846" xlink:href="#m5284c7e2a0" y="7.2"/>
      </g>
     </g>
    </g>
    <g id="xtick_21">
     <g id="line2d_60">
      <g>
       <use style="stroke:#000000;stroke-width:0.5;" x="126.145663161" xlink:href="#m177f7580d0" y="352.8"/>
      </g>
     </g>
     <g id="line2d_61">
      <g>
       <use style="stroke:#000000;stroke-width:0.5;" x="126.145663161" xlink:href="#m5284c7e2a0" y="7.2"/>
      </g>
     </g>
    </g>
    <g id="xtick_22">
     <g id="line2d_62">
      <g>
       <use style="stroke:#000000;stroke-width:0.5;" x="155.914239237" xlink:href="#m177f7580d0" y="352.8"/>
      </g>
     </g>
     <g id="line2d_63">
      <g>
       <use style="stroke:#000000;stroke-width:0.5;" x="155.914239237" xlink:href="#m5284c7e2a0" y="7.2"/>
      </g>
     </g>
    </g>
    <g id="xtick_23">
     <g id="line2d_64">
      <g>
       <use style="stroke:#000000;stroke-width:0.5;" x="185.682815313" xlink:href="#m177f7580d0" y="352.8"/>
      </g>
     </g>
     <g id="line2d_65">
      <g>
       <use style="stroke:#000000;stroke-width:0.5;" x="185.682815313" xlink:href="#m5284c7e2a0" y="7.2"/>
      </g>
     </g>
    </g>
    <g id="xtick_24">
     <g id="line2d_66">
      <g>
       <use style="stroke:#000000;stroke-width:0.5;" x="215.45139139" xlink:href="#m177f7580d0" y="352.8"/>
      </g>
     </g>
     <g id="line2d_67">
      <g>
       <use style="stroke:#000000;stroke-width:0.5;" x="215.45139139" xlink:href="#m5284c7e2a0" y="7.2"/>
      </g>
     </g>
    </g>
    <g id="xtick_25">
     <g id="line2d_68">
      <g>
       <use style="stroke:#000000;stroke-width:0.5;" x="245.219967466" xlink:href="#m177f7580d0" y="352.8"/>
      </g>
     </g>
     <g id="line2d_69">
      <g>
       <use style="stroke:#000000;stroke-width:0.5;" x="245.219967466" xlink:href="#m5284c7e2a0" y="7.2"/>
      </g>
     </g>
    </g>
    <g id="xtick_26">
     <g id="line2d_70">
      <g>
       <use style="stroke:#000000;stroke-width:0.5;" x="274.988543542" xlink:href="#m177f7580d0" y="352.8"/>
      </g>
     </g>
     <g id="line2d_71">
      <g>
       <use style="stroke:#000000;stroke-width:0.5;" x="274.988543542" xlink:href="#m5284c7e2a0" y="7.2"/>
      </g>
     </g>
    </g>
    <g id="xtick_27">
     <g id="line2d_72">
      <g>
       <use style="stroke:#000000;stroke-width:0.5;" x="304.757119619" xlink:href="#m177f7580d0" y="352.8"/>
      </g>
     </g>
     <g id="line2d_73">
      <g>
       <use style="stroke:#000000;stroke-width:0.5;" x="304.757119619" xlink:href="#m5284c7e2a0" y="7.2"/>
      </g>
     </g>
    </g>
    <g id="xtick_28">
     <g id="line2d_74">
      <g>
       <use style="stroke:#000000;stroke-width:0.5;" x="334.525695695" xlink:href="#m177f7580d0" y="352.8"/>
      </g>
     </g>
     <g id="line2d_75">
      <g>
       <use style="stroke:#000000;stroke-width:0.5;" x="334.525695695" xlink:href="#m5284c7e2a0" y="7.2"/>
      </g>
     </g>
    </g>
    <g id="xtick_29">
     <g id="line2d_76">
      <g>
       <use style="stroke:#000000;stroke-width:0.5;" x="364.294271771" xlink:href="#m177f7580d0" y="352.8"/>
      </g>
     </g>
     <g id="line2d_77">
      <g>
       <use style="stroke:#000000;stroke-width:0.5;" x="364.294271771" xlink:href="#m5284c7e2a0" y="7.2"/>
      </g>
     </g>
    </g>
    <g id="xtick_30">
     <g id="line2d_78">
      <g>
       <use style="stroke:#000000;stroke-width:0.5;" x="394.062847847" xlink:href="#m177f7580d0" y="352.8"/>
      </g>
     </g>
     <g id="line2d_79">
      <g>
       <use style="stroke:#000000;stroke-width:0.5;" x="394.062847847" xlink:href="#m5284c7e2a0" y="7.2"/>
      </g>
     </g>
    </g>
    <g id="xtick_31">
     <g id="line2d_80">
      <g>
       <use style="stroke:#000000;stroke-width:0.5;" x="423.831423924" xlink:href="#m177f7580d0" y="352.8"/>
      </g>
     </g>
     <g id="line2d_81">
      <g>
       <use style="stroke:#000000;stroke-width:0.5;" x="423.831423924" xlink:href="#m5284c7e2a0" y="7.2"/>
      </g>
     </g>
    </g>
    <g id="xtick_32">
     <g id="line2d_82">
      <g>
       <use style="stroke:#000000;stroke-width:0.5;" x="453.6" xlink:href="#m177f7580d0" y="352.8"/>
      </g>
     </g>
     <g id="line2d_83">
      <g>
       <use style="stroke:#000000;stroke-width:0.5;" x="453.6" xlink:href="#m5284c7e2a0" y="7.2"/>
      </g>
     </g>
    </g>
    <g id="text_15">
     <!-- log10 of Df -->
     <defs>
      <path id="BitstreamVeraSans-Roman-20"/>
      <path d="
M30.6094 48.3906
Q23.3906 48.3906 19.1875 42.75
Q14.9844 37.1094 14.9844 27.2969
Q14.9844 17.4844 19.1562 11.8438
Q23.3438 6.20312 30.6094 6.20312
Q37.7969 6.20312 41.9844 11.8594
Q46.1875 17.5312 46.1875 27.2969
Q46.1875 37.0156 41.9844 42.7031
Q37.7969 48.3906 30.6094 48.3906
M30.6094 56
Q42.3281 56 49.0156 48.375
Q55.7188 40.7656 55.7188 27.2969
Q55.7188 13.875 49.0156 6.21875
Q42.3281 -1.42188 30.6094 -1.42188
Q18.8438 -1.42188 12.1719 6.21875
Q5.51562 13.875 5.51562 27.2969
Q5.51562 40.7656 12.1719 48.375
Q18.8438 56 30.6094 56" id="BitstreamVeraSans-Roman-6f"/>
      <path d="
M9.42188 75.9844
L18.4062 75.9844
L18.4062 0
L9.42188 0
z
" id="BitstreamVeraSans-Roman-6c"/>
      <path d="
M19.6719 64.7969
L19.6719 8.10938
L31.5938 8.10938
Q46.6875 8.10938 53.6875 14.9375
Q60.6875 21.7812 60.6875 36.5312
Q60.6875 51.1719 53.6875 57.9844
Q46.6875 64.7969 31.5938 64.7969
z

M9.8125 72.9062
L30.0781 72.9062
Q51.2656 72.9062 61.1719 64.0938
Q71.0938 55.2812 71.0938 36.5312
Q71.0938 17.6719 61.125 8.82812
Q51.1719 0 30.0781 0
L9.8125 0
z
" id="BitstreamVeraSans-Roman-44"/>
      <path d="
M45.4062 27.9844
Q45.4062 37.75 41.375 43.1094
Q37.3594 48.4844 30.0781 48.4844
Q22.8594 48.4844 18.8281 43.1094
Q14.7969 37.75 14.7969 27.9844
Q14.7969 18.2656 18.8281 12.8906
Q22.8594 7.51562 30.0781 7.51562
Q37.3594 7.51562 41.375 12.8906
Q45.4062 18.2656 45.4062 27.9844
M54.3906 6.78125
Q54.3906 -7.17188 48.1875 -13.9844
Q42 -20.7969 29.2031 -20.7969
Q24.4688 -20.7969 20.2656 -20.0938
Q16.0625 -19.3906 12.1094 -17.9219
L12.1094 -9.1875
Q16.0625 -11.3281 19.9219 -12.3438
Q23.7812 -13.375 27.7812 -13.375
Q36.625 -13.375 41.0156 -8.76562
Q45.4062 -4.15625 45.4062 5.17188
L45.4062 9.625
Q42.625 4.78125 38.2812 2.39062
Q33.9375 0 27.875 0
Q17.8281 0 11.6719 7.65625
Q5.51562 15.3281 5.51562 27.9844
Q5.51562 40.6719 11.6719 48.3281
Q17.8281 56 27.875 56
Q33.9375 56 38.2812 53.6094
Q42.625 51.2188 45.4062 46.3906
L45.4062 54.6875
L54.3906 54.6875
z
" id="BitstreamVeraSans-Roman-67"/>
      <path d="
M37.1094 75.9844
L37.1094 68.5
L28.5156 68.5
Q23.6875 68.5 21.7969 66.5469
Q19.9219 64.5938 19.9219 59.5156
L19.9219 54.6875
L34.7188 54.6875
L34.7188 47.7031
L19.9219 47.7031
L19.9219 0
L10.8906 0
L10.8906 47.7031
L2.29688 47.7031
L2.29688 54.6875
L10.8906 54.6875
L10.8906 58.5
Q10.8906 67.625 15.1406 71.7969
Q19.3906 75.9844 28.6094 75.9844
z
" id="BitstreamVeraSans-Roman-66"/>
     </defs>
     <g transform="translate(175.0234375 396.353125)scale(0.2 -0.2)">
      <use xlink:href="#BitstreamVeraSans-Roman-6c"/>
      <use x="27.783203125" xlink:href="#BitstreamVeraSans-Roman-6f"/>
      <use x="88.96484375" xlink:href="#BitstreamVeraSans-Roman-67"/>
      <use x="152.44140625" xlink:href="#BitstreamVeraSans-Roman-31"/>
      <use x="216.064453125" xlink:href="#BitstreamVeraSans-Roman-30"/>
      <use x="279.6875" xlink:href="#BitstreamVeraSans-Roman-20"/>
      <use x="311.474609375" xlink:href="#BitstreamVeraSans-Roman-6f"/>
      <use x="372.65625" xlink:href="#BitstreamVeraSans-Roman-66"/>
      <use x="407.861328125" xlink:href="#BitstreamVeraSans-Roman-20"/>
      <use x="439.6484375" xlink:href="#BitstreamVeraSans-Roman-44"/>
      <use x="516.650390625" xlink:href="#BitstreamVeraSans-Roman-66"/>
     </g>
    </g>
   </g>
   <g id="matplotlib.axis_2">
    <g id="ytick_1">
     <g id="line2d_84">
      <path clip-path="url(#p948daaf33d)" d="
M7.2 352.8
L453.6 352.8" style="fill:none;stroke:#000000;stroke-dasharray:1.000000,3.000000;stroke-dashoffset:0.0;stroke-width:0.5;"/>
     </g>
     <g id="line2d_85">
      <defs>
       <path d="
M0 0
L4 0" id="m728421d6d4" style="stroke:#000000;stroke-width:0.5;"/>
      </defs>
      <g>
       <use style="stroke:#000000;stroke-width:0.5;" x="7.2" xlink:href="#m728421d6d4" y="352.8"/>
      </g>
     </g>
     <g id="line2d_86">
      <defs>
       <path d="
M0 0
L-4 0" id="mcb0005524f" style="stroke:#000000;stroke-width:0.5;"/>
      </defs>
      <g>
       <use style="stroke:#000000;stroke-width:0.5;" x="453.6" xlink:href="#mcb0005524f" y="352.8"/>
      </g>
     </g>
    </g>
    <g id="ytick_2">
     <g id="line2d_87">
      <path clip-path="url(#p948daaf33d)" d="
M7.2 284.364
L453.6 284.364" style="fill:none;stroke:#000000;stroke-dasharray:1.000000,3.000000;stroke-dashoffset:0.0;stroke-width:0.5;"/>
     </g>
     <g id="line2d_88">
      <g>
       <use style="stroke:#000000;stroke-width:0.5;" x="7.2" xlink:href="#m728421d6d4" y="284.364356436"/>
      </g>
     </g>
     <g id="line2d_89">
      <g>
       <use style="stroke:#000000;stroke-width:0.5;" x="453.6" xlink:href="#mcb0005524f" y="284.364356436"/>
      </g>
     </g>
    </g>
    <g id="ytick_3">
     <g id="line2d_90">
      <path clip-path="url(#p948daaf33d)" d="
M7.2 215.929
L453.6 215.929" style="fill:none;stroke:#000000;stroke-dasharray:1.000000,3.000000;stroke-dashoffset:0.0;stroke-width:0.5;"/>
     </g>
     <g id="line2d_91">
      <g>
       <use style="stroke:#000000;stroke-width:0.5;" x="7.2" xlink:href="#m728421d6d4" y="215.928712871"/>
      </g>
     </g>
     <g id="line2d_92">
      <g>
       <use style="stroke:#000000;stroke-width:0.5;" x="453.6" xlink:href="#mcb0005524f" y="215.928712871"/>
      </g>
     </g>
    </g>
    <g id="ytick_4">
     <g id="line2d_93">
      <path clip-path="url(#p948daaf33d)" d="
M7.2 147.493
L453.6 147.493" style="fill:none;stroke:#000000;stroke-dasharray:1.000000,3.000000;stroke-dashoffset:0.0;stroke-width:0.5;"/>
     </g>
     <g id="line2d_94">
      <g>
       <use style="stroke:#000000;stroke-width:0.5;" x="7.2" xlink:href="#m728421d6d4" y="147.493069307"/>
      </g>
     </g>
     <g id="line2d_95">
      <g>
       <use style="stroke:#000000;stroke-width:0.5;" x="453.6" xlink:href="#mcb0005524f" y="147.493069307"/>
      </g>
     </g>
    </g>
    <g id="ytick_5">
     <g id="line2d_96">
      <path clip-path="url(#p948daaf33d)" d="
M7.2 79.0574
L453.6 79.0574" style="fill:none;stroke:#000000;stroke-dasharray:1.000000,3.000000;stroke-dashoffset:0.0;stroke-width:0.5;"/>
     </g>
     <g id="line2d_97">
      <g>
       <use style="stroke:#000000;stroke-width:0.5;" x="7.2" xlink:href="#m728421d6d4" y="79.0574257426"/>
      </g>
     </g>
     <g id="line2d_98">
      <g>
       <use style="stroke:#000000;stroke-width:0.5;" x="453.6" xlink:href="#mcb0005524f" y="79.0574257426"/>
      </g>
     </g>
    </g>
    <g id="ytick_6">
     <g id="line2d_99">
      <path clip-path="url(#p948daaf33d)" d="
M7.2 10.6218
L453.6 10.6218" style="fill:none;stroke:#000000;stroke-dasharray:1.000000,3.000000;stroke-dashoffset:0.0;stroke-width:0.5;"/>
     </g>
     <g id="line2d_100">
      <g>
       <use style="stroke:#000000;stroke-width:0.5;" x="7.2" xlink:href="#m728421d6d4" y="10.6217821782"/>
      </g>
     </g>
     <g id="line2d_101">
      <g>
       <use style="stroke:#000000;stroke-width:0.5;" x="453.6" xlink:href="#mcb0005524f" y="10.6217821782"/>
      </g>
     </g>
    </g>
   </g>
   <g id="text_16">
    <!-- {f1-f5}, 5-D -->
    <defs>
     <path d="
M12.5 -9.28125
L15.9219 -9.28125
Q22.75 -9.28125 24.8281 -7.17188
Q26.9062 -5.07812 26.9062 1.90625
L26.9062 14.0156
Q26.9062 21.625 29.0938 25.0938
Q31.2969 28.5625 36.7188 29.8906
Q31.2969 31.1094 29.0938 34.5625
Q26.9062 38.0312 26.9062 45.7031
L26.9062 57.8125
Q26.9062 64.75 24.8281 66.875
Q22.75 69 15.9219 69
L12.5 69
L12.5 75.9844
L15.5781 75.9844
Q27.7344 75.9844 31.8125 72.3906
Q35.8906 68.7969 35.8906 58.0156
L35.8906 46.2969
Q35.8906 39.0156 38.5156 36.2031
Q41.1562 33.4062 48.0938 33.4062
L51.125 33.4062
L51.125 26.4219
L48.0938 26.4219
Q41.1562 26.4219 38.5156 23.5781
Q35.8906 20.75 35.8906 13.375
L35.8906 1.70312
Q35.8906 -9.07812 31.8125 -12.6875
Q27.7344 -16.3125 15.5781 -16.3125
L12.5 -16.3125
z
" id="BitstreamVeraSans-Roman-7d"/>
     <path d="
M51.125 -9.28125
L51.125 -16.3125
L48.0938 -16.3125
Q35.9375 -16.3125 31.8125 -12.6875
Q27.6875 -9.07812 27.6875 1.70312
L27.6875 13.375
Q27.6875 20.75 25.0469 23.5781
Q22.4062 26.4219 15.4844 26.4219
L12.5 26.4219
L12.5 33.4062
L15.4844 33.4062
Q22.4688 33.4062 25.0781 36.2031
Q27.6875 39.0156 27.6875 46.2969
L27.6875 58.0156
Q27.6875 68.7969 31.8125 72.3906
Q35.9375 75.9844 48.0938 75.9844
L51.125 75.9844
L51.125 69
L47.7969 69
Q40.9219 69 38.8125 66.8438
Q36.7188 64.7031 36.7188 57.8125
L36.7188 45.7031
Q36.7188 38.0312 34.5 34.5625
Q32.2812 31.1094 26.9062 29.8906
Q32.3281 28.5625 34.5156 25.0938
Q36.7188 21.625 36.7188 14.0156
L36.7188 1.90625
Q36.7188 -4.98438 38.8125 -7.125
Q40.9219 -9.28125 47.7969 -9.28125
z
" id="BitstreamVeraSans-Roman-7b"/>
     <path d="
M11.7188 12.4062
L22.0156 12.4062
L22.0156 4
L14.0156 -11.625
L7.71875 -11.625
L11.7188 4
z
" id="BitstreamVeraSans-Roman-2c"/>
    </defs>
    <g transform="translate(325.60325 345.888)scale(0.2 -0.2)">
     <use xlink:href="#BitstreamVeraSans-Roman-7b"/>
     <use x="63.623046875" xlink:href="#BitstreamVeraSans-Roman-66"/>
     <use x="98.828125" xlink:href="#BitstreamVeraSans-Roman-31"/>
     <use x="162.451171875" xlink:href="#BitstreamVeraSans-Roman-2d"/>
     <use x="198.53515625" xlink:href="#BitstreamVeraSans-Roman-66"/>
     <use x="233.740234375" xlink:href="#BitstreamVeraSans-Roman-35"/>
     <use x="297.36328125" xlink:href="#BitstreamVeraSans-Roman-7d"/>
     <use x="360.986328125" xlink:href="#BitstreamVeraSans-Roman-2c"/>
     <use x="392.7734375" xlink:href="#BitstreamVeraSans-Roman-20"/>
     <use x="424.560546875" xlink:href="#BitstreamVeraSans-Roman-35"/>
     <use x="488.18359375" xlink:href="#BitstreamVeraSans-Roman-2d"/>
     <use x="524.267578125" xlink:href="#BitstreamVeraSans-Roman-44"/>
    </g>
   </g>
   <g id="text_17">
    <!-- v2.0.1 -->
    <defs>
     <path d="
M2.98438 54.6875
L12.5 54.6875
L29.5938 8.79688
L46.6875 54.6875
L56.2031 54.6875
L35.6875 0
L23.4844 0
z
" id="BitstreamVeraSans-Roman-76"/>
     <path d="
M10.6875 12.4062
L21 12.4062
L21 0
L10.6875 0
z
" id="BitstreamVeraSans-Roman-2e"/>
    </defs>
    <g style="fill:#808080;" transform="translate(215.3296875 347.2643125)scale(0.1 -0.1)">
     <use xlink:href="#BitstreamVeraSans-Roman-76"/>
     <use x="59.1796875" xlink:href="#BitstreamVeraSans-Roman-32"/>
     <use x="122.802734375" xlink:href="#BitstreamVeraSans-Roman-2e"/>
     <use x="154.58984375" xlink:href="#BitstreamVeraSans-Roman-30"/>
     <use x="218.212890625" xlink:href="#BitstreamVeraSans-Roman-2e"/>
     <use x="250.0" xlink:href="#BitstreamVeraSans-Roman-31"/>
    </g>
   </g>
  </g>
 </g>
 <defs>
  <clipPath id="p948daaf33d">
   <rect height="345.6" width="446.4" x="7.2" y="7.2"/>
  </clipPath>
 </defs>
</svg>
