<?xml version="1.0" encoding="utf-8" standalone="no"?>
<!DOCTYPE svg PUBLIC "-//W3C//DTD SVG 1.1//EN"
  "http://www.w3.org/Graphics/SVG/1.1/DTD/svg11.dtd">
<!-- Created with matplotlib (http://matplotlib.org/) -->
<svg height="333pt" version="1.1" viewBox="0 0 378 333" width="378pt" xmlns="http://www.w3.org/2000/svg" xmlns:xlink="http://www.w3.org/1999/xlink">
 <defs>
  <style type="text/css">
*{stroke-linecap:butt;stroke-linejoin:round;}
  </style>
 </defs>
 <g id="figure_1">
  <g id="patch_1">
   <path d="M 0 333.7245 
L 378.52 333.7245 
L 378.52 0 
L 0 0 
z
" style="fill:#ffffff;"/>
  </g>
  <g id="axes_1">
   <g id="patch_2">
    <path d="M 10.7 276.812 
L 367.82 276.812 
L 367.82 10.7 
L 10.7 10.7 
z
" style="fill:#ffffff;"/>
   </g>
   <g id="matplotlib.axis_1">
    <g id="xtick_1">
     <g id="line2d_1">
      <path clip-path="url(#p251f1e5823)" d="M 10.61131 276.812 
L 10.61131 10.7 
" style="fill:none;stroke:#b0b0b0;stroke-linecap:square;stroke-width:0.8;"/>
     </g>
     <g id="line2d_2">
      <defs>
       <path d="M 0 0 
L 0 3.5 
" id="m8b80612b93" style="stroke:#000000;stroke-width:0.8;"/>
      </defs>
      <g>
       <use style="stroke:#000000;stroke-width:0.8;" x="10.61131" xlink:href="#m8b80612b93" y="276.812"/>
      </g>
     </g>
    </g>
    <g id="xtick_2">
     <g id="line2d_3">
      <path clip-path="url(#p251f1e5823)" d="M 92.705517 276.812 
L 92.705517 10.7 
" style="fill:none;stroke:#b0b0b0;stroke-linecap:square;stroke-width:0.8;"/>
     </g>
     <g id="line2d_4">
      <g>
       <use style="stroke:#000000;stroke-width:0.8;" x="92.705517" xlink:href="#m8b80612b93" y="276.812"/>
      </g>
     </g>
     <g id="text_1">
      <!-- -4 -->
      <defs>
       <path d="M 4.890625 31.390625 
L 31.203125 31.390625 
L 31.203125 23.390625 
L 4.890625 23.390625 
z
" id="DejaVuSans-2d"/>
       <path d="M 37.796875 64.3125 
L 12.890625 25.390625 
L 37.796875 25.390625 
z
M 35.203125 72.90625 
L 47.609375 72.90625 
L 47.609375 25.390625 
L 58.015625 25.390625 
L 58.015625 17.1875 
L 47.609375 17.1875 
L 47.609375 0 
L 37.796875 0 
L 37.796875 17.1875 
L 4.890625 17.1875 
L 4.890625 26.703125 
z
" id="DejaVuSans-34"/>
      </defs>
      <g transform="translate(82.735205 299.008875)scale(0.2 -0.2)">
       <use xlink:href="#DejaVuSans-2d"/>
       <use x="36.083984" xlink:href="#DejaVuSans-34"/>
      </g>
     </g>
    </g>
    <g id="xtick_3">
     <g id="line2d_5">
      <path clip-path="url(#p251f1e5823)" d="M 174.799724 276.812 
L 174.799724 10.7 
" style="fill:none;stroke:#b0b0b0;stroke-linecap:square;stroke-width:0.8;"/>
     </g>
     <g id="line2d_6">
      <g>
       <use style="stroke:#000000;stroke-width:0.8;" x="174.799724" xlink:href="#m8b80612b93" y="276.812"/>
      </g>
     </g>
     <g id="text_2">
      <!-- 0 -->
      <defs>
       <path d="M 31.78125 66.40625 
Q 24.171875 66.40625 20.328125 58.90625 
Q 16.5 51.421875 16.5 36.375 
Q 16.5 21.390625 20.328125 13.890625 
Q 24.171875 6.390625 31.78125 6.390625 
Q 39.453125 6.390625 43.28125 13.890625 
Q 47.125 21.390625 47.125 36.375 
Q 47.125 51.421875 43.28125 58.90625 
Q 39.453125 66.40625 31.78125 66.40625 
M 31.78125 74.21875 
Q 44.046875 74.21875 50.515625 64.515625 
Q 56.984375 54.828125 56.984375 36.375 
Q 56.984375 17.96875 50.515625 8.265625 
Q 44.046875 -1.421875 31.78125 -1.421875 
Q 19.53125 -1.421875 13.0625 8.265625 
Q 6.59375 17.96875 6.59375 36.375 
Q 6.59375 54.828125 13.0625 64.515625 
Q 19.53125 74.21875 31.78125 74.21875 
" id="DejaVuSans-30"/>
      </defs>
      <g transform="translate(168.437224 299.008875)scale(0.2 -0.2)">
       <use xlink:href="#DejaVuSans-30"/>
      </g>
     </g>
    </g>
    <g id="xtick_4">
     <g id="line2d_7">
      <path clip-path="url(#p251f1e5823)" d="M 256.893931 276.812 
L 256.893931 10.7 
" style="fill:none;stroke:#b0b0b0;stroke-linecap:square;stroke-width:0.8;"/>
     </g>
     <g id="line2d_8">
      <g>
       <use style="stroke:#000000;stroke-width:0.8;" x="256.893931" xlink:href="#m8b80612b93" y="276.812"/>
      </g>
     </g>
     <g id="text_3">
      <!-- 4 -->
      <g transform="translate(250.531431 299.008875)scale(0.2 -0.2)">
       <use xlink:href="#DejaVuSans-34"/>
      </g>
     </g>
    </g>
    <g id="xtick_5">
     <g id="line2d_9">
      <path clip-path="url(#p251f1e5823)" d="M 338.988138 276.812 
L 338.988138 10.7 
" style="fill:none;stroke:#b0b0b0;stroke-linecap:square;stroke-width:0.8;"/>
     </g>
     <g id="line2d_10">
      <g>
       <use style="stroke:#000000;stroke-width:0.8;" x="338.988138" xlink:href="#m8b80612b93" y="276.812"/>
      </g>
     </g>
     <g id="text_4">
      <!-- 8 -->
      <defs>
       <path d="M 31.78125 34.625 
Q 24.75 34.625 20.71875 30.859375 
Q 16.703125 27.09375 16.703125 20.515625 
Q 16.703125 13.921875 20.71875 10.15625 
Q 24.75 6.390625 31.78125 6.390625 
Q 38.8125 6.390625 42.859375 10.171875 
Q 46.921875 13.96875 46.921875 20.515625 
Q 46.921875 27.09375 42.890625 30.859375 
Q 38.875 34.625 31.78125 34.625 
M 21.921875 38.8125 
Q 15.578125 40.375 12.03125 44.71875 
Q 8.5 49.078125 8.5 55.328125 
Q 8.5 64.0625 14.71875 69.140625 
Q 20.953125 74.21875 31.78125 74.21875 
Q 42.671875 74.21875 48.875 69.140625 
Q 55.078125 64.0625 55.078125 55.328125 
Q 55.078125 49.078125 51.53125 44.71875 
Q 48 40.375 41.703125 38.8125 
Q 48.828125 37.15625 52.796875 32.3125 
Q 56.78125 27.484375 56.78125 20.515625 
Q 56.78125 9.90625 50.3125 4.234375 
Q 43.84375 -1.421875 31.78125 -1.421875 
Q 19.734375 -1.421875 13.25 4.234375 
Q 6.78125 9.90625 6.78125 20.515625 
Q 6.78125 27.484375 10.78125 32.3125 
Q 14.796875 37.15625 21.921875 38.8125 
M 18.3125 54.390625 
Q 18.3125 48.734375 21.84375 45.5625 
Q 25.390625 42.390625 31.78125 42.390625 
Q 38.140625 42.390625 41.71875 45.5625 
Q 45.3125 48.734375 45.3125 54.390625 
Q 45.3125 60.0625 41.71875 63.234375 
Q 38.140625 66.40625 31.78125 66.40625 
Q 25.390625 66.40625 21.84375 63.234375 
Q 18.3125 60.0625 18.3125 54.390625 
" id="DejaVuSans-38"/>
      </defs>
      <g transform="translate(332.625638 299.008875)scale(0.2 -0.2)">
       <use xlink:href="#DejaVuSans-38"/>
      </g>
     </g>
    </g>
    <g id="text_5">
     <!-- log10 of Df -->
     <defs>
      <path d="M 9.421875 75.984375 
L 18.40625 75.984375 
L 18.40625 0 
L 9.421875 0 
z
" id="DejaVuSans-6c"/>
      <path d="M 30.609375 48.390625 
Q 23.390625 48.390625 19.1875 42.75 
Q 14.984375 37.109375 14.984375 27.296875 
Q 14.984375 17.484375 19.15625 11.84375 
Q 23.34375 6.203125 30.609375 6.203125 
Q 37.796875 6.203125 41.984375 11.859375 
Q 46.1875 17.53125 46.1875 27.296875 
Q 46.1875 37.015625 41.984375 42.703125 
Q 37.796875 48.390625 30.609375 48.390625 
M 30.609375 56 
Q 42.328125 56 49.015625 48.375 
Q 55.71875 40.765625 55.71875 27.296875 
Q 55.71875 13.875 49.015625 6.21875 
Q 42.328125 -1.421875 30.609375 -1.421875 
Q 18.84375 -1.421875 12.171875 6.21875 
Q 5.515625 13.875 5.515625 27.296875 
Q 5.515625 40.765625 12.171875 48.375 
Q 18.84375 56 30.609375 56 
" id="DejaVuSans-6f"/>
      <path d="M 45.40625 27.984375 
Q 45.40625 37.75 41.375 43.109375 
Q 37.359375 48.484375 30.078125 48.484375 
Q 22.859375 48.484375 18.828125 43.109375 
Q 14.796875 37.75 14.796875 27.984375 
Q 14.796875 18.265625 18.828125 12.890625 
Q 22.859375 7.515625 30.078125 7.515625 
Q 37.359375 7.515625 41.375 12.890625 
Q 45.40625 18.265625 45.40625 27.984375 
M 54.390625 6.78125 
Q 54.390625 -7.171875 48.1875 -13.984375 
Q 42 -20.796875 29.203125 -20.796875 
Q 24.46875 -20.796875 20.265625 -20.09375 
Q 16.0625 -19.390625 12.109375 -17.921875 
L 12.109375 -9.1875 
Q 16.0625 -11.328125 19.921875 -12.34375 
Q 23.78125 -13.375 27.78125 -13.375 
Q 36.625 -13.375 41.015625 -8.765625 
Q 45.40625 -4.15625 45.40625 5.171875 
L 45.40625 9.625 
Q 42.625 4.78125 38.28125 2.390625 
Q 33.9375 0 27.875 0 
Q 17.828125 0 11.671875 7.65625 
Q 5.515625 15.328125 5.515625 27.984375 
Q 5.515625 40.671875 11.671875 48.328125 
Q 17.828125 56 27.875 56 
Q 33.9375 56 38.28125 53.609375 
Q 42.625 51.21875 45.40625 46.390625 
L 45.40625 54.6875 
L 54.390625 54.6875 
z
" id="DejaVuSans-67"/>
      <path d="M 12.40625 8.296875 
L 28.515625 8.296875 
L 28.515625 63.921875 
L 10.984375 60.40625 
L 10.984375 69.390625 
L 28.421875 72.90625 
L 38.28125 72.90625 
L 38.28125 8.296875 
L 54.390625 8.296875 
L 54.390625 0 
L 12.40625 0 
z
" id="DejaVuSans-31"/>
      <path id="DejaVuSans-20"/>
      <path d="M 37.109375 75.984375 
L 37.109375 68.5 
L 28.515625 68.5 
Q 23.6875 68.5 21.796875 66.546875 
Q 19.921875 64.59375 19.921875 59.515625 
L 19.921875 54.6875 
L 34.71875 54.6875 
L 34.71875 47.703125 
L 19.921875 47.703125 
L 19.921875 0 
L 10.890625 0 
L 10.890625 47.703125 
L 2.296875 47.703125 
L 2.296875 54.6875 
L 10.890625 54.6875 
L 10.890625 58.5 
Q 10.890625 67.625 15.140625 71.796875 
Q 19.390625 75.984375 28.609375 75.984375 
z
" id="DejaVuSans-66"/>
      <path d="M 19.671875 64.796875 
L 19.671875 8.109375 
L 31.59375 8.109375 
Q 46.6875 8.109375 53.6875 14.9375 
Q 60.6875 21.78125 60.6875 36.53125 
Q 60.6875 51.171875 53.6875 57.984375 
Q 46.6875 64.796875 31.59375 64.796875 
z
M 9.8125 72.90625 
L 30.078125 72.90625 
Q 51.265625 72.90625 61.171875 64.09375 
Q 71.09375 55.28125 71.09375 36.53125 
Q 71.09375 17.671875 61.125 8.828125 
Q 51.171875 0 30.078125 0 
L 9.8125 0 
z
" id="DejaVuSans-44"/>
     </defs>
     <g transform="translate(134.074063 322.365125)scale(0.2 -0.2)">
      <use xlink:href="#DejaVuSans-6c"/>
      <use x="27.783203" xlink:href="#DejaVuSans-6f"/>
      <use x="88.964844" xlink:href="#DejaVuSans-67"/>
      <use x="152.441406" xlink:href="#DejaVuSans-31"/>
      <use x="216.064453" xlink:href="#DejaVuSans-30"/>
      <use x="279.6875" xlink:href="#DejaVuSans-20"/>
      <use x="311.474609" xlink:href="#DejaVuSans-6f"/>
      <use x="372.65625" xlink:href="#DejaVuSans-66"/>
      <use x="407.861328" xlink:href="#DejaVuSans-20"/>
      <use x="439.648438" xlink:href="#DejaVuSans-44"/>
      <use x="516.650391" xlink:href="#DejaVuSans-66"/>
     </g>
    </g>
   </g>
   <g id="matplotlib.axis_2">
    <g id="ytick_1">
     <g id="line2d_11">
      <path clip-path="url(#p251f1e5823)" d="M 10.7 276.812 
L 367.82 276.812 
" style="fill:none;stroke:#b0b0b0;stroke-linecap:square;stroke-width:0.8;"/>
     </g>
     <g id="line2d_12">
      <defs>
       <path d="M 0 0 
L -3.5 0 
" id="mf89981ebb0" style="stroke:#000000;stroke-width:0.8;"/>
      </defs>
      <g>
       <use style="stroke:#000000;stroke-width:0.8;" x="10.7" xlink:href="#mf89981ebb0" y="276.812"/>
      </g>
     </g>
    </g>
    <g id="ytick_2">
     <g id="line2d_13">
      <path clip-path="url(#p251f1e5823)" d="M 10.7 224.116554 
L 367.82 224.116554 
" style="fill:none;stroke:#b0b0b0;stroke-linecap:square;stroke-width:0.8;"/>
     </g>
     <g id="line2d_14">
      <g>
       <use style="stroke:#000000;stroke-width:0.8;" x="10.7" xlink:href="#mf89981ebb0" y="224.116554"/>
      </g>
     </g>
    </g>
    <g id="ytick_3">
     <g id="line2d_15">
      <path clip-path="url(#p251f1e5823)" d="M 10.7 171.421109 
L 367.82 171.421109 
" style="fill:none;stroke:#b0b0b0;stroke-linecap:square;stroke-width:0.8;"/>
     </g>
     <g id="line2d_16">
      <g>
       <use style="stroke:#000000;stroke-width:0.8;" x="10.7" xlink:href="#mf89981ebb0" y="171.421109"/>
      </g>
     </g>
    </g>
    <g id="ytick_4">
     <g id="line2d_17">
      <path clip-path="url(#p251f1e5823)" d="M 10.7 118.725663 
L 367.82 118.725663 
" style="fill:none;stroke:#b0b0b0;stroke-linecap:square;stroke-width:0.8;"/>
     </g>
     <g id="line2d_18">
      <g>
       <use style="stroke:#000000;stroke-width:0.8;" x="10.7" xlink:href="#mf89981ebb0" y="118.725663"/>
      </g>
     </g>
    </g>
    <g id="ytick_5">
     <g id="line2d_19">
      <path clip-path="url(#p251f1e5823)" d="M 10.7 66.030218 
L 367.82 66.030218 
" style="fill:none;stroke:#b0b0b0;stroke-linecap:square;stroke-width:0.8;"/>
     </g>
     <g id="line2d_20">
      <g>
       <use style="stroke:#000000;stroke-width:0.8;" x="10.7" xlink:href="#mf89981ebb0" y="66.030218"/>
      </g>
     </g>
    </g>
    <g id="ytick_6">
     <g id="line2d_21">
      <path clip-path="url(#p251f1e5823)" d="M 10.7 13.334772 
L 367.82 13.334772 
" style="fill:none;stroke:#b0b0b0;stroke-linecap:square;stroke-width:0.8;"/>
     </g>
     <g id="line2d_22">
      <g>
       <use style="stroke:#000000;stroke-width:0.8;" x="10.7" xlink:href="#mf89981ebb0" y="13.334772"/>
      </g>
     </g>
    </g>
   </g>
   <g id="line2d_23">
    <path clip-path="url(#p251f1e5823)" d="M -1 224.116554 
L 10.61131 224.116554 
L 10.61131 13.334772 
L 10.61131 13.334772 
L 367.82 13.334772 
L 367.82 13.334772 
" style="fill:none;stroke:#ff0000;stroke-linecap:square;stroke-width:3;"/>
   </g>
   <g id="line2d_24">
    <path clip-path="url(#p251f1e5823)" d="M 207.95202 276.812 
L 207.95202 273.29897 
L 211.079307 273.29897 
L 211.114566 266.272911 
L 212.888654 266.272911 
L 212.956652 259.246851 
L 213.291918 259.246851 
L 213.291918 255.733822 
L 213.461746 255.733822 
L 213.461746 252.220792 
L 213.673214 252.220792 
L 213.702431 245.194733 
L 213.855728 245.194733 
L 213.855728 241.681703 
L 214.253114 241.681703 
L 214.253114 238.168673 
L 214.45355 238.168673 
L 214.504747 231.142614 
L 215.189963 231.142614 
L 215.189963 227.629584 
L 215.994583 227.629584 
L 215.994583 224.116554 
L 218.477007 224.116554 
L 218.477007 220.603525 
L 220.025699 220.603525 
L 220.025699 217.090495 
L 220.315798 217.090495 
L 220.315798 213.577465 
L 220.428269 213.577465 
L 220.428269 210.064436 
L 221.011682 210.064436 
L 221.011682 206.551406 
L 221.129678 206.551406 
L 221.129678 203.038376 
L 221.342681 203.038376 
L 221.342681 199.525347 
L 221.617535 199.525347 
L 221.617535 196.012317 
L 222.035579 196.012317 
L 222.035579 192.499287 
L 222.200737 192.499287 
L 222.200737 188.986257 
L 222.361108 188.986257 
L 222.361108 185.473228 
L 222.522346 185.473228 
L 222.587561 178.447168 
L 222.742716 178.447168 
L 222.742716 174.934139 
L 222.994422 174.934139 
L 222.994422 171.421109 
L 229.020288 171.421109 
L 229.025447 164.39505 
L 229.258599 164.39505 
L 229.258599 160.88202 
L 229.525756 160.88202 
L 229.525756 157.36899 
L 230.198259 157.36899 
L 230.29981 150.342931 
L 230.320852 150.342931 
L 230.420418 139.803842 
L 230.508255 139.803842 
L 230.508255 136.290812 
L 230.808543 136.290812 
L 230.808543 132.777782 
L 231.617496 132.777782 
L 231.720558 118.725663 
L 231.962741 118.725663 
L 231.962741 115.212634 
L 232.52717 115.212634 
L 232.52717 111.699604 
L 232.656376 111.699604 
L 232.699918 104.673545 
L 232.8406 104.673545 
L 232.8406 101.160515 
L 233.022253 101.160515 
L 233.08281 94.134455 
L 233.268838 94.134455 
L 233.275885 87.108396 
L 233.394915 87.108396 
L 233.465814 76.569307 
L 233.658783 76.569307 
L 233.658783 73.056277 
L 234.121709 73.056277 
L 234.121709 69.543248 
L 234.779684 69.543248 
L 234.779684 66.030218 
L 292.056177 66.030218 
L 292.061021 59.004158 
L 293.256996 59.004158 
L 293.256996 55.491129 
L 295.356496 55.491129 
L 295.356496 51.978099 
L 296.356076 51.978099 
L 296.356076 48.465069 
L 296.659165 48.465069 
L 296.659165 44.95204 
L 297.232758 44.95204 
L 297.232758 41.43901 
L 298.100355 41.43901 
L 298.100355 37.92598 
L 298.792498 37.92598 
L 298.845172 30.899921 
L 300.338344 30.899921 
L 300.338344 27.386891 
L 303.567533 27.386891 
L 303.567533 23.873861 
L 304.00334 23.873861 
L 304.00334 20.360832 
L 304.567968 20.360832 
L 304.567968 16.847802 
L 306.314212 16.847802 
L 306.314212 13.334772 
L 306.314212 13.334772 
L 367.82 13.334772 
L 367.82 13.334772 
" style="fill:none;stroke:#00bfbf;stroke-linecap:square;stroke-width:1.5;"/>
   </g>
   <g id="line2d_25">
    <path clip-path="url(#p251f1e5823)" d="M 207.95202 276.812 
L 207.95202 273.29897 
L 211.079307 273.29897 
L 211.114566 266.272911 
L 212.888654 266.272911 
L 212.956652 259.246851 
L 213.291918 259.246851 
L 213.291918 255.733822 
L 213.461746 255.733822 
L 213.461746 252.220792 
L 213.673214 252.220792 
L 213.702431 245.194733 
L 213.855728 245.194733 
L 213.855728 241.681703 
L 214.253114 241.681703 
L 214.253114 238.168673 
L 214.45355 238.168673 
L 214.504747 231.142614 
L 215.189963 231.142614 
L 215.189963 227.629584 
L 215.994583 227.629584 
L 215.994583 224.116554 
L 218.477007 224.116554 
L 218.477007 220.603525 
L 220.025699 220.603525 
L 220.025699 217.090495 
L 220.315798 217.090495 
L 220.315798 213.577465 
L 220.428269 213.577465 
L 220.428269 210.064436 
L 221.011682 210.064436 
L 221.011682 206.551406 
L 221.129678 206.551406 
L 221.129678 203.038376 
L 221.342681 203.038376 
L 221.342681 199.525347 
L 221.617535 199.525347 
L 221.617535 196.012317 
L 222.035579 196.012317 
L 222.035579 192.499287 
L 222.200737 192.499287 
L 222.200737 188.986257 
L 222.361108 188.986257 
L 222.361108 185.473228 
L 222.522346 185.473228 
L 222.587561 178.447168 
L 222.742716 178.447168 
L 222.742716 174.934139 
L 222.994422 174.934139 
L 222.994422 171.421109 
L 229.020288 171.421109 
L 229.025447 164.39505 
L 229.258599 164.39505 
L 229.258599 160.88202 
L 229.525756 160.88202 
L 229.525756 157.36899 
L 230.198259 157.36899 
L 230.29981 150.342931 
L 230.320852 150.342931 
L 230.420418 139.803842 
L 230.508255 139.803842 
L 230.508255 136.290812 
L 230.808543 136.290812 
L 230.808543 132.777782 
L 231.617496 132.777782 
L 231.720558 118.725663 
L 231.962741 118.725663 
L 231.962741 115.212634 
L 232.52717 115.212634 
L 232.52717 111.699604 
L 232.656376 111.699604 
L 232.699918 104.673545 
L 232.8406 104.673545 
L 232.8406 101.160515 
L 233.022253 101.160515 
L 233.08281 94.134455 
L 233.268838 94.134455 
L 233.275885 87.108396 
L 233.394915 87.108396 
L 233.465814 76.569307 
L 233.658783 76.569307 
L 233.658783 73.056277 
L 234.121709 73.056277 
L 234.121709 69.543248 
L 234.779684 69.543248 
L 234.779684 66.030218 
L 292.056177 66.030218 
L 292.061021 59.004158 
L 293.256996 59.004158 
L 293.256996 55.491129 
L 295.356496 55.491129 
L 295.356496 51.978099 
L 296.356076 51.978099 
L 296.356076 48.465069 
L 296.659165 48.465069 
L 296.659165 44.95204 
L 297.232758 44.95204 
L 297.232758 41.43901 
L 298.100355 41.43901 
L 298.100355 37.92598 
L 298.792498 37.92598 
L 298.845172 30.899921 
L 300.338344 30.899921 
L 300.338344 27.386891 
L 303.567533 27.386891 
L 303.567533 23.873861 
L 304.00334 23.873861 
L 304.00334 20.360832 
L 304.567968 20.360832 
L 304.567968 16.847802 
L 306.314212 16.847802 
L 306.314212 13.334772 
L 306.314212 13.334772 
L 367.82 13.334772 
L 367.82 13.334772 
" style="fill:none;stroke:#bf00bf;stroke-linecap:square;stroke-width:1.5;"/>
   </g>
   <g id="line2d_26">
    <path clip-path="url(#p251f1e5823)" d="M 207.95202 276.812 
L 207.95202 273.29897 
L 211.079307 273.29897 
L 211.114566 266.272911 
L 212.888654 266.272911 
L 212.956652 259.246851 
L 213.291918 259.246851 
L 213.291918 255.733822 
L 213.461746 255.733822 
L 213.461746 252.220792 
L 213.673214 252.220792 
L 213.702431 245.194733 
L 213.855728 245.194733 
L 213.855728 241.681703 
L 214.253114 241.681703 
L 214.253114 238.168673 
L 214.45355 238.168673 
L 214.504747 231.142614 
L 215.189963 231.142614 
L 215.189963 227.629584 
L 215.994583 227.629584 
L 215.994583 224.116554 
L 218.477007 224.116554 
L 218.477007 220.603525 
L 220.025699 220.603525 
L 220.025699 217.090495 
L 220.315798 217.090495 
L 220.315798 213.577465 
L 220.428269 213.577465 
L 220.428269 210.064436 
L 221.011682 210.064436 
L 221.011682 206.551406 
L 221.129678 206.551406 
L 221.129678 203.038376 
L 221.342681 203.038376 
L 221.342681 199.525347 
L 221.617535 199.525347 
L 221.617535 196.012317 
L 222.035579 196.012317 
L 222.035579 192.499287 
L 222.200737 192.499287 
L 222.200737 188.986257 
L 222.361108 188.986257 
L 222.361108 185.473228 
L 222.522346 185.473228 
L 222.587561 178.447168 
L 222.742716 178.447168 
L 222.742716 174.934139 
L 222.994422 174.934139 
L 222.994422 171.421109 
L 229.020288 171.421109 
L 229.025447 164.39505 
L 229.258599 164.39505 
L 229.258599 160.88202 
L 229.525756 160.88202 
L 229.525756 157.36899 
L 230.198259 157.36899 
L 230.29981 150.342931 
L 230.320852 150.342931 
L 230.420418 139.803842 
L 230.508255 139.803842 
L 230.508255 136.290812 
L 230.808543 136.290812 
L 230.808543 132.777782 
L 231.617496 132.777782 
L 231.720558 118.725663 
L 231.962741 118.725663 
L 231.962741 115.212634 
L 232.52717 115.212634 
L 232.52717 111.699604 
L 232.656376 111.699604 
L 232.699918 104.673545 
L 232.8406 104.673545 
L 232.8406 101.160515 
L 233.022253 101.160515 
L 233.08281 94.134455 
L 233.268838 94.134455 
L 233.275885 87.108396 
L 233.394915 87.108396 
L 233.465814 76.569307 
L 233.658783 76.569307 
L 233.658783 73.056277 
L 234.121709 73.056277 
L 234.121709 69.543248 
L 234.779684 69.543248 
L 234.779684 66.030218 
L 292.056177 66.030218 
L 292.061021 59.004158 
L 293.256996 59.004158 
L 293.256996 55.491129 
L 295.356496 55.491129 
L 295.356496 51.978099 
L 296.356076 51.978099 
L 296.356076 48.465069 
L 296.659165 48.465069 
L 296.659165 44.95204 
L 297.232758 44.95204 
L 297.232758 41.43901 
L 298.100355 41.43901 
L 298.100355 37.92598 
L 298.792498 37.92598 
L 298.845172 30.899921 
L 300.338344 30.899921 
L 300.338344 27.386891 
L 303.567533 27.386891 
L 303.567533 23.873861 
L 304.00334 23.873861 
L 304.00334 20.360832 
L 304.567968 20.360832 
L 304.567968 16.847802 
L 306.314212 16.847802 
L 306.314212 13.334772 
L 306.314212 13.334772 
L 367.82 13.334772 
L 367.82 13.334772 
" style="fill:none;stroke:#000000;stroke-linecap:square;stroke-width:1.5;"/>
   </g>
   <g id="line2d_27">
    <path clip-path="url(#p251f1e5823)" d="M 207.95202 276.812 
L 207.95202 273.29897 
L 211.079307 273.29897 
L 211.114566 266.272911 
L 212.888654 266.272911 
L 212.956652 259.246851 
L 213.291918 259.246851 
L 213.291918 255.733822 
L 213.461746 255.733822 
L 213.461746 252.220792 
L 213.673214 252.220792 
L 213.702431 245.194733 
L 213.855728 245.194733 
L 213.855728 241.681703 
L 214.253114 241.681703 
L 214.253114 238.168673 
L 214.45355 238.168673 
L 214.504747 231.142614 
L 215.189963 231.142614 
L 215.189963 227.629584 
L 215.994583 227.629584 
L 215.994583 224.116554 
L 218.477007 224.116554 
L 218.477007 220.603525 
L 220.025699 220.603525 
L 220.025699 217.090495 
L 220.315798 217.090495 
L 220.315798 213.577465 
L 220.428269 213.577465 
L 220.428269 210.064436 
L 221.011682 210.064436 
L 221.011682 206.551406 
L 221.129678 206.551406 
L 221.129678 203.038376 
L 221.342681 203.038376 
L 221.342681 199.525347 
L 221.617535 199.525347 
L 221.617535 196.012317 
L 222.035579 196.012317 
L 222.035579 192.499287 
L 222.200737 192.499287 
L 222.200737 188.986257 
L 222.361108 188.986257 
L 222.361108 185.473228 
L 222.522346 185.473228 
L 222.587561 178.447168 
L 222.742716 178.447168 
L 222.742716 174.934139 
L 222.994422 174.934139 
L 222.994422 171.421109 
L 229.020288 171.421109 
L 229.025447 164.39505 
L 229.258599 164.39505 
L 229.258599 160.88202 
L 229.525756 160.88202 
L 229.525756 157.36899 
L 230.198259 157.36899 
L 230.29981 150.342931 
L 230.320852 150.342931 
L 230.420418 139.803842 
L 230.508255 139.803842 
L 230.508255 136.290812 
L 230.808543 136.290812 
L 230.808543 132.777782 
L 231.617496 132.777782 
L 231.720558 118.725663 
L 231.962741 118.725663 
L 231.962741 115.212634 
L 232.52717 115.212634 
L 232.52717 111.699604 
L 232.656376 111.699604 
L 232.699918 104.673545 
L 232.8406 104.673545 
L 232.8406 101.160515 
L 233.022253 101.160515 
L 233.08281 94.134455 
L 233.268838 94.134455 
L 233.275885 87.108396 
L 233.394915 87.108396 
L 233.465814 76.569307 
L 233.658783 76.569307 
L 233.658783 73.056277 
L 234.121709 73.056277 
L 234.121709 69.543248 
L 234.779684 69.543248 
L 234.779684 66.030218 
L 292.056177 66.030218 
L 292.061021 59.004158 
L 293.256996 59.004158 
L 293.256996 55.491129 
L 295.356496 55.491129 
L 295.356496 51.978099 
L 296.356076 51.978099 
L 296.356076 48.465069 
L 296.659165 48.465069 
L 296.659165 44.95204 
L 297.232758 44.95204 
L 297.232758 41.43901 
L 298.100355 41.43901 
L 298.100355 37.92598 
L 298.792498 37.92598 
L 298.845172 30.899921 
L 300.338344 30.899921 
L 300.338344 27.386891 
L 303.567533 27.386891 
L 303.567533 23.873861 
L 304.00334 23.873861 
L 304.00334 20.360832 
L 304.567968 20.360832 
L 304.567968 16.847802 
L 306.314212 16.847802 
L 306.314212 13.334772 
L 306.314212 13.334772 
L 367.82 13.334772 
L 367.82 13.334772 
" style="fill:none;stroke:#00bfbf;stroke-linecap:square;stroke-width:1.5;"/>
   </g>
   <g id="line2d_28">
    <path clip-path="url(#p251f1e5823)" d="M 192.087618 276.812 
L 192.087618 273.29897 
L 192.506212 273.29897 
L 192.506212 269.785941 
L 192.709954 269.785941 
L 192.709954 266.272911 
L 193.14566 266.272911 
L 193.14566 262.759881 
L 194.078256 262.759881 
L 194.078256 259.246851 
L 194.212213 259.246851 
L 194.212213 255.733822 
L 194.509877 255.733822 
L 194.610785 248.707762 
L 195.371789 248.707762 
L 195.371789 245.194733 
L 195.905452 245.194733 
L 195.905452 241.681703 
L 196.326637 241.681703 
L 196.326637 238.168673 
L 197.109338 238.168673 
L 197.109338 234.655644 
L 197.320337 234.655644 
L 197.320337 231.142614 
L 198.318399 231.142614 
L 198.318399 227.629584 
L 200.123292 227.629584 
L 200.123292 224.116554 
L 206.699235 224.116554 
L 206.699235 220.603525 
L 208.746609 220.603525 
L 208.784197 213.577465 
L 209.012597 213.577465 
L 209.049176 206.551406 
L 210.0011 206.551406 
L 210.0011 203.038376 
L 210.508144 203.038376 
L 210.508144 199.525347 
L 210.805554 199.525347 
L 210.814821 192.499287 
L 211.08226 192.499287 
L 211.08226 188.986257 
L 211.896583 188.986257 
L 211.986816 181.960198 
L 213.130976 181.960198 
L 213.218443 174.934139 
L 213.484324 174.934139 
L 213.484324 171.421109 
L 216.331816 171.421109 
L 216.331816 167.908079 
L 216.878226 167.908079 
L 216.878226 164.39505 
L 218.396378 164.39505 
L 218.396378 160.88202 
L 218.923981 160.88202 
L 218.923981 157.36899 
L 219.063749 157.36899 
L 219.121459 150.342931 
L 220.066985 150.342931 
L 220.107626 143.316871 
L 220.392351 143.316871 
L 220.407263 132.777782 
L 220.636475 132.777782 
L 220.69601 122.238693 
L 220.933085 122.238693 
L 221.035016 111.699604 
L 221.161545 111.699604 
L 221.161545 108.186574 
L 221.279208 108.186574 
L 221.342793 101.160515 
L 221.471611 101.160515 
L 221.471611 97.647485 
L 222.170904 97.647485 
L 222.251622 90.621426 
L 222.457623 90.621426 
L 222.457623 87.108396 
L 222.69211 87.108396 
L 222.754495 80.082337 
L 222.908137 80.082337 
L 222.908137 76.569307 
L 223.405272 76.569307 
L 223.405272 73.056277 
L 224.341259 73.056277 
L 224.341259 69.543248 
L 225.041851 69.543248 
L 225.041851 66.030218 
L 268.320984 66.030218 
L 268.320984 62.517188 
L 268.472956 62.517188 
L 268.472956 59.004158 
L 269.24 59.004158 
L 269.24 55.491129 
L 269.903331 55.491129 
L 269.903331 51.978099 
L 271.022239 51.978099 
L 271.022239 48.465069 
L 272.877799 48.465069 
L 272.877799 44.95204 
L 273.548592 44.95204 
L 273.548592 41.43901 
L 274.292632 41.43901 
L 274.292632 37.92598 
L 275.163505 37.92598 
L 275.163505 34.41295 
L 278.563194 34.41295 
L 278.563194 30.899921 
L 278.822119 30.899921 
L 278.83249 23.873861 
L 279.835016 23.873861 
L 279.835016 20.360832 
L 284.381139 20.360832 
L 284.381139 16.847802 
L 284.602901 16.847802 
L 284.602901 13.334772 
L 284.602901 13.334772 
L 367.82 13.334772 
L 367.82 13.334772 
" style="fill:none;stroke:#bf00bf;stroke-linecap:square;stroke-width:1.5;"/>
   </g>
   <g id="line2d_29">
    <path clip-path="url(#p251f1e5823)" d="M -1 241.681703 
L 134.326521 241.681703 
L 134.326521 238.168673 
L 134.825957 238.168673 
L 134.825957 234.655644 
L 138.184716 234.655644 
L 138.184716 231.142614 
L 139.318583 231.142614 
L 139.318583 227.629584 
L 140.144515 227.629584 
L 140.144515 224.116554 
L 141.479531 224.116554 
L 141.479531 220.603525 
L 143.634502 220.603525 
L 143.634502 217.090495 
L 145.101035 217.090495 
L 145.101035 213.577465 
L 145.499618 213.577465 
L 145.499618 210.064436 
L 147.743294 210.064436 
L 147.743294 206.551406 
L 148.49364 206.551406 
L 148.49364 203.038376 
L 150.768031 203.038376 
L 150.768031 199.525347 
L 156.243674 199.525347 
L 156.243674 196.012317 
L 156.980574 196.012317 
L 156.980574 192.499287 
L 167.779174 192.499287 
L 167.779174 188.986257 
L 171.172769 188.986257 
L 171.172769 185.473228 
L 176.683569 185.473228 
L 176.683569 181.960198 
L 180.99297 181.960198 
L 180.99297 178.447168 
L 190.742272 178.447168 
L 190.742272 174.934139 
L 194.346392 174.934139 
L 194.346392 171.421109 
L 195.316156 171.421109 
L 195.316156 167.908079 
L 196.264473 167.908079 
L 196.264473 164.39505 
L 197.541156 164.39505 
L 197.541156 160.88202 
L 199.183687 160.88202 
L 199.183687 157.36899 
L 199.570918 157.36899 
L 199.570918 153.85596 
L 200.028922 153.85596 
L 200.028922 150.342931 
L 200.809818 150.342931 
L 200.881693 143.316871 
L 201.246835 143.316871 
L 201.252353 136.290812 
L 201.421614 136.290812 
L 201.421614 132.777782 
L 201.740604 132.777782 
L 201.833749 125.751723 
L 202.138142 125.751723 
L 202.205757 118.725663 
L 202.537135 118.725663 
L 202.606014 111.699604 
L 202.810385 111.699604 
L 202.810385 108.186574 
L 202.98936 108.186574 
L 202.98936 104.673545 
L 203.188005 104.673545 
L 203.203238 97.647485 
L 204.002028 97.647485 
L 204.002028 94.134455 
L 205.605338 94.134455 
L 205.605338 90.621426 
L 206.801424 90.621426 
L 206.801424 87.108396 
L 207.692578 87.108396 
L 207.692578 83.595366 
L 208.297601 83.595366 
L 208.383374 76.569307 
L 208.477422 76.569307 
L 208.477422 73.056277 
L 208.698783 73.056277 
L 208.698783 69.543248 
L 211.719842 69.543248 
L 211.719842 66.030218 
L 218.691542 66.030218 
L 218.691542 62.517188 
L 221.767535 62.517188 
L 221.767535 59.004158 
L 223.270064 59.004158 
L 223.270064 55.491129 
L 223.944073 55.491129 
L 223.944073 51.978099 
L 227.049505 51.978099 
L 227.049505 48.465069 
L 227.508268 48.465069 
L 227.508268 44.95204 
L 228.697272 44.95204 
L 228.697272 41.43901 
L 232.414128 41.43901 
L 232.414128 37.92598 
L 237.034102 37.92598 
L 237.034102 34.41295 
L 238.547593 34.41295 
L 238.547593 30.899921 
L 240.017794 30.899921 
L 240.017794 27.386891 
L 241.817098 27.386891 
L 241.817098 23.873861 
L 242.439232 23.873861 
L 242.439232 20.360832 
L 248.788518 20.360832 
L 248.788518 16.847802 
L 256.410387 16.847802 
L 256.410387 13.334772 
L 256.410387 13.334772 
L 367.82 13.334772 
L 367.82 13.334772 
" style="fill:none;stroke:#000000;stroke-linecap:square;stroke-width:1.5;"/>
   </g>
   <g id="line2d_30">
    <path clip-path="url(#p251f1e5823)" d="M -1 224.116554 
L 75.895155 224.116554 
L 75.895155 220.603525 
L 76.13496 220.603525 
L 76.13496 217.090495 
L 77.398885 217.090495 
L 77.398885 213.577465 
L 80.012059 213.577465 
L 80.012059 210.064436 
L 80.654592 210.064436 
L 80.654592 206.551406 
L 82.045925 206.551406 
L 82.045925 203.038376 
L 82.931755 203.038376 
L 82.931755 199.525347 
L 87.342364 199.525347 
L 87.342364 196.012317 
L 88.229767 196.012317 
L 88.229767 192.499287 
L 90.067913 192.499287 
L 90.067913 188.986257 
L 91.711372 188.986257 
L 91.711372 185.473228 
L 93.187285 185.473228 
L 93.187285 181.960198 
L 101.909571 181.960198 
L 101.909571 178.447168 
L 105.30364 178.447168 
L 105.30364 174.934139 
L 114.016274 174.934139 
L 114.016274 171.421109 
L 153.007018 171.421109 
L 153.007018 167.908079 
L 155.878873 167.908079 
L 155.878873 164.39505 
L 156.51758 164.39505 
L 156.51758 160.88202 
L 156.633067 160.88202 
L 156.633067 157.36899 
L 157.020002 157.36899 
L 157.020002 153.85596 
L 161.711719 153.85596 
L 161.711719 150.342931 
L 162.42047 150.342931 
L 162.42047 146.829901 
L 164.491034 146.829901 
L 164.550023 139.803842 
L 164.890986 139.803842 
L 164.890986 136.290812 
L 165.449054 136.290812 
L 165.449054 132.777782 
L 166.779956 132.777782 
L 166.779956 129.264752 
L 169.858004 129.264752 
L 169.858004 125.751723 
L 172.045941 125.751723 
L 172.110516 118.725663 
L 172.897437 118.725663 
L 172.897437 115.212634 
L 173.474703 115.212634 
L 173.474703 111.699604 
L 174.124416 111.699604 
L 174.124416 108.186574 
L 174.585608 108.186574 
L 174.585608 104.673545 
L 175.962816 104.673545 
L 175.962816 101.160515 
L 176.614471 101.160515 
L 176.614471 97.647485 
L 177.037202 97.647485 
L 177.037202 94.134455 
L 178.31588 94.134455 
L 178.31588 90.621426 
L 178.782621 90.621426 
L 178.782621 87.108396 
L 179.223297 87.108396 
L 179.223297 83.595366 
L 179.953619 83.595366 
L 179.953619 80.082337 
L 180.193589 80.082337 
L 180.193589 76.569307 
L 180.377997 76.569307 
L 180.377997 73.056277 
L 181.515685 73.056277 
L 181.515685 69.543248 
L 181.985017 69.543248 
L 181.985017 66.030218 
L 183.539888 66.030218 
L 183.539888 62.517188 
L 184.208752 62.517188 
L 184.208752 59.004158 
L 184.328007 59.004158 
L 184.375884 51.978099 
L 185.476361 51.978099 
L 185.476361 48.465069 
L 185.657305 48.465069 
L 185.657305 44.95204 
L 185.83778 44.95204 
L 185.83778 41.43901 
L 186.586294 41.43901 
L 186.586294 37.92598 
L 186.895475 37.92598 
L 186.957081 30.899921 
L 187.387168 30.899921 
L 187.387168 27.386891 
L 188.203622 27.386891 
L 188.203622 23.873861 
L 189.881743 23.873861 
L 189.962417 16.847802 
L 191.842791 16.847802 
L 191.842791 13.334772 
L 191.842791 13.334772 
L 367.82 13.334772 
L 367.82 13.334772 
" style="fill:none;stroke:#00bfbf;stroke-linecap:square;stroke-width:1.5;"/>
   </g>
   <g id="patch_3">
    <path d="M 10.7 276.812 
L 10.7 10.7 
" style="fill:none;stroke:#000000;stroke-linecap:square;stroke-linejoin:miter;stroke-width:0.8;"/>
   </g>
   <g id="patch_4">
    <path d="M 367.82 276.812 
L 367.82 10.7 
" style="fill:none;stroke:#000000;stroke-linecap:square;stroke-linejoin:miter;stroke-width:0.8;"/>
   </g>
   <g id="patch_5">
    <path d="M 10.7 276.812 
L 367.82 276.812 
" style="fill:none;stroke:#000000;stroke-linecap:square;stroke-linejoin:miter;stroke-width:0.8;"/>
   </g>
   <g id="patch_6">
    <path d="M 10.7 10.7 
L 367.82 10.7 
" style="fill:none;stroke:#000000;stroke-linecap:square;stroke-linejoin:miter;stroke-width:0.8;"/>
   </g>
   <g id="text_6">
    <!-- {f1-f5}, 20-D -->
    <defs>
     <path d="M 51.125 -9.28125 
L 51.125 -16.3125 
L 48.09375 -16.3125 
Q 35.9375 -16.3125 31.8125 -12.6875 
Q 27.6875 -9.078125 27.6875 1.703125 
L 27.6875 13.375 
Q 27.6875 20.75 25.046875 23.578125 
Q 22.40625 26.421875 15.484375 26.421875 
L 12.5 26.421875 
L 12.5 33.40625 
L 15.484375 33.40625 
Q 22.46875 33.40625 25.078125 36.203125 
Q 27.6875 39.015625 27.6875 46.296875 
L 27.6875 58.015625 
Q 27.6875 68.796875 31.8125 72.390625 
Q 35.9375 75.984375 48.09375 75.984375 
L 51.125 75.984375 
L 51.125 69 
L 47.796875 69 
Q 40.921875 69 38.8125 66.84375 
Q 36.71875 64.703125 36.71875 57.8125 
L 36.71875 45.703125 
Q 36.71875 38.03125 34.5 34.5625 
Q 32.28125 31.109375 26.90625 29.890625 
Q 32.328125 28.5625 34.515625 25.09375 
Q 36.71875 21.625 36.71875 14.015625 
L 36.71875 1.90625 
Q 36.71875 -4.984375 38.8125 -7.125 
Q 40.921875 -9.28125 47.796875 -9.28125 
z
" id="DejaVuSans-7b"/>
     <path d="M 10.796875 72.90625 
L 49.515625 72.90625 
L 49.515625 64.59375 
L 19.828125 64.59375 
L 19.828125 46.734375 
Q 21.96875 47.46875 24.109375 47.828125 
Q 26.265625 48.1875 28.421875 48.1875 
Q 40.625 48.1875 47.75 41.5 
Q 54.890625 34.8125 54.890625 23.390625 
Q 54.890625 11.625 47.5625 5.09375 
Q 40.234375 -1.421875 26.90625 -1.421875 
Q 22.3125 -1.421875 17.546875 -0.640625 
Q 12.796875 0.140625 7.71875 1.703125 
L 7.71875 11.625 
Q 12.109375 9.234375 16.796875 8.0625 
Q 21.484375 6.890625 26.703125 6.890625 
Q 35.15625 6.890625 40.078125 11.328125 
Q 45.015625 15.765625 45.015625 23.390625 
Q 45.015625 31 40.078125 35.4375 
Q 35.15625 39.890625 26.703125 39.890625 
Q 22.75 39.890625 18.8125 39.015625 
Q 14.890625 38.140625 10.796875 36.28125 
z
" id="DejaVuSans-35"/>
     <path d="M 12.5 -9.28125 
L 15.921875 -9.28125 
Q 22.75 -9.28125 24.828125 -7.171875 
Q 26.90625 -5.078125 26.90625 1.90625 
L 26.90625 14.015625 
Q 26.90625 21.625 29.09375 25.09375 
Q 31.296875 28.5625 36.71875 29.890625 
Q 31.296875 31.109375 29.09375 34.5625 
Q 26.90625 38.03125 26.90625 45.703125 
L 26.90625 57.8125 
Q 26.90625 64.75 24.828125 66.875 
Q 22.75 69 15.921875 69 
L 12.5 69 
L 12.5 75.984375 
L 15.578125 75.984375 
Q 27.734375 75.984375 31.8125 72.390625 
Q 35.890625 68.796875 35.890625 58.015625 
L 35.890625 46.296875 
Q 35.890625 39.015625 38.515625 36.203125 
Q 41.15625 33.40625 48.09375 33.40625 
L 51.125 33.40625 
L 51.125 26.421875 
L 48.09375 26.421875 
Q 41.15625 26.421875 38.515625 23.578125 
Q 35.890625 20.75 35.890625 13.375 
L 35.890625 1.703125 
Q 35.890625 -9.078125 31.8125 -12.6875 
Q 27.734375 -16.3125 15.578125 -16.3125 
L 12.5 -16.3125 
z
" id="DejaVuSans-7d"/>
     <path d="M 11.71875 12.40625 
L 22.015625 12.40625 
L 22.015625 4 
L 14.015625 -11.625 
L 7.71875 -11.625 
L 11.71875 4 
z
" id="DejaVuSans-2c"/>
     <path d="M 19.1875 8.296875 
L 53.609375 8.296875 
L 53.609375 0 
L 7.328125 0 
L 7.328125 8.296875 
Q 12.9375 14.109375 22.625 23.890625 
Q 32.328125 33.6875 34.8125 36.53125 
Q 39.546875 41.84375 41.421875 45.53125 
Q 43.3125 49.21875 43.3125 52.78125 
Q 43.3125 58.59375 39.234375 62.25 
Q 35.15625 65.921875 28.609375 65.921875 
Q 23.96875 65.921875 18.8125 64.3125 
Q 13.671875 62.703125 7.8125 59.421875 
L 7.8125 69.390625 
Q 13.765625 71.78125 18.9375 73 
Q 24.125 74.21875 28.421875 74.21875 
Q 39.75 74.21875 46.484375 68.546875 
Q 53.21875 62.890625 53.21875 53.421875 
Q 53.21875 48.921875 51.53125 44.890625 
Q 49.859375 40.875 45.40625 35.40625 
Q 44.1875 33.984375 37.640625 27.21875 
Q 31.109375 20.453125 19.1875 8.296875 
" id="DejaVuSans-32"/>
    </defs>
    <g transform="translate(227.7026 271.48976)scale(0.2 -0.2)">
     <use xlink:href="#DejaVuSans-7b"/>
     <use x="63.623047" xlink:href="#DejaVuSans-66"/>
     <use x="98.828125" xlink:href="#DejaVuSans-31"/>
     <use x="162.451172" xlink:href="#DejaVuSans-2d"/>
     <use x="198.535156" xlink:href="#DejaVuSans-66"/>
     <use x="233.740234" xlink:href="#DejaVuSans-35"/>
     <use x="297.363281" xlink:href="#DejaVuSans-7d"/>
     <use x="360.986328" xlink:href="#DejaVuSans-2c"/>
     <use x="392.773438" xlink:href="#DejaVuSans-20"/>
     <use x="424.560547" xlink:href="#DejaVuSans-32"/>
     <use x="488.183594" xlink:href="#DejaVuSans-30"/>
     <use x="551.806641" xlink:href="#DejaVuSans-2d"/>
     <use x="587.890625" xlink:href="#DejaVuSans-44"/>
    </g>
   </g>
   <g id="text_7">
    <!-- v2.0.1 -->
    <defs>
     <path d="M 2.984375 54.6875 
L 12.5 54.6875 
L 29.59375 8.796875 
L 46.6875 54.6875 
L 56.203125 54.6875 
L 35.6875 0 
L 23.484375 0 
z
" id="DejaVuSans-76"/>
     <path d="M 10.6875 12.40625 
L 21 12.40625 
L 21 0 
L 10.6875 0 
z
" id="DejaVuSans-2e"/>
    </defs>
    <g style="fill:#808080;" transform="translate(173.57875 272.071193)scale(0.1 -0.1)">
     <use xlink:href="#DejaVuSans-76"/>
     <use x="59.179688" xlink:href="#DejaVuSans-32"/>
     <use x="122.802734" xlink:href="#DejaVuSans-2e"/>
     <use x="154.589844" xlink:href="#DejaVuSans-30"/>
     <use x="218.212891" xlink:href="#DejaVuSans-2e"/>
     <use x="250" xlink:href="#DejaVuSans-31"/>
    </g>
   </g>
  </g>
 </g>
 <defs>
  <clipPath id="p251f1e5823">
   <rect height="266.112" width="357.12" x="10.7" y="10.7"/>
  </clipPath>
 </defs>
</svg>
