<?xml version="1.0" encoding="utf-8" standalone="no"?>
<!DOCTYPE svg PUBLIC "-//W3C//DTD SVG 1.1//EN"
  "http://www.w3.org/Graphics/SVG/1.1/DTD/svg11.dtd">
<!-- Created with matplotlib (http://matplotlib.org/) -->
<svg height="333pt" version="1.1" viewBox="0 0 378 333" width="378pt" xmlns="http://www.w3.org/2000/svg" xmlns:xlink="http://www.w3.org/1999/xlink">
 <defs>
  <style type="text/css">
*{stroke-linecap:butt;stroke-linejoin:round;}
  </style>
 </defs>
 <g id="figure_1">
  <g id="patch_1">
   <path d="M 0 333.7245 
L 378.52 333.7245 
L 378.52 0 
L 0 0 
z
" style="fill:#ffffff;"/>
  </g>
  <g id="axes_1">
   <g id="patch_2">
    <path d="M 10.7 276.812 
L 367.82 276.812 
L 367.82 10.7 
L 10.7 10.7 
z
" style="fill:#ffffff;"/>
   </g>
   <g id="matplotlib.axis_1">
    <g id="xtick_1">
     <g id="line2d_1">
      <path clip-path="url(#pc8492ce5b9)" d="M 10.603105 276.812 
L 10.603105 10.7 
" style="fill:none;stroke:#b0b0b0;stroke-linecap:square;stroke-width:0.8;"/>
     </g>
     <g id="line2d_2">
      <defs>
       <path d="M 0 0 
L 0 3.5 
" id="m457b5962f7" style="stroke:#000000;stroke-width:0.8;"/>
      </defs>
      <g>
       <use style="stroke:#000000;stroke-width:0.8;" x="10.603105" xlink:href="#m457b5962f7" y="276.812"/>
      </g>
     </g>
    </g>
    <g id="xtick_2">
     <g id="line2d_3">
      <path clip-path="url(#pc8492ce5b9)" d="M 77.869841 276.812 
L 77.869841 10.7 
" style="fill:none;stroke:#b0b0b0;stroke-linecap:square;stroke-width:0.8;"/>
     </g>
     <g id="line2d_4">
      <g>
       <use style="stroke:#000000;stroke-width:0.8;" x="77.869841" xlink:href="#m457b5962f7" y="276.812"/>
      </g>
     </g>
     <g id="text_1">
      <!-- -5 -->
      <defs>
       <path d="M 4.890625 31.390625 
L 31.203125 31.390625 
L 31.203125 23.390625 
L 4.890625 23.390625 
z
" id="DejaVuSans-2d"/>
       <path d="M 10.796875 72.90625 
L 49.515625 72.90625 
L 49.515625 64.59375 
L 19.828125 64.59375 
L 19.828125 46.734375 
Q 21.96875 47.46875 24.109375 47.828125 
Q 26.265625 48.1875 28.421875 48.1875 
Q 40.625 48.1875 47.75 41.5 
Q 54.890625 34.8125 54.890625 23.390625 
Q 54.890625 11.625 47.5625 5.09375 
Q 40.234375 -1.421875 26.90625 -1.421875 
Q 22.3125 -1.421875 17.546875 -0.640625 
Q 12.796875 0.140625 7.71875 1.703125 
L 7.71875 11.625 
Q 12.109375 9.234375 16.796875 8.0625 
Q 21.484375 6.890625 26.703125 6.890625 
Q 35.15625 6.890625 40.078125 11.328125 
Q 45.015625 15.765625 45.015625 23.390625 
Q 45.015625 31 40.078125 35.4375 
Q 35.15625 39.890625 26.703125 39.890625 
Q 22.75 39.890625 18.8125 39.015625 
Q 14.890625 38.140625 10.796875 36.28125 
z
" id="DejaVuSans-35"/>
      </defs>
      <g transform="translate(67.899528 299.008875)scale(0.2 -0.2)">
       <use xlink:href="#DejaVuSans-2d"/>
       <use x="36.083984" xlink:href="#DejaVuSans-35"/>
      </g>
     </g>
    </g>
    <g id="xtick_3">
     <g id="line2d_5">
      <path clip-path="url(#pc8492ce5b9)" d="M 145.136577 276.812 
L 145.136577 10.7 
" style="fill:none;stroke:#b0b0b0;stroke-linecap:square;stroke-width:0.8;"/>
     </g>
     <g id="line2d_6">
      <g>
       <use style="stroke:#000000;stroke-width:0.8;" x="145.136577" xlink:href="#m457b5962f7" y="276.812"/>
      </g>
     </g>
     <g id="text_2">
      <!-- -2 -->
      <defs>
       <path d="M 19.1875 8.296875 
L 53.609375 8.296875 
L 53.609375 0 
L 7.328125 0 
L 7.328125 8.296875 
Q 12.9375 14.109375 22.625 23.890625 
Q 32.328125 33.6875 34.8125 36.53125 
Q 39.546875 41.84375 41.421875 45.53125 
Q 43.3125 49.21875 43.3125 52.78125 
Q 43.3125 58.59375 39.234375 62.25 
Q 35.15625 65.921875 28.609375 65.921875 
Q 23.96875 65.921875 18.8125 64.3125 
Q 13.671875 62.703125 7.8125 59.421875 
L 7.8125 69.390625 
Q 13.765625 71.78125 18.9375 73 
Q 24.125 74.21875 28.421875 74.21875 
Q 39.75 74.21875 46.484375 68.546875 
Q 53.21875 62.890625 53.21875 53.421875 
Q 53.21875 48.921875 51.53125 44.890625 
Q 49.859375 40.875 45.40625 35.40625 
Q 44.1875 33.984375 37.640625 27.21875 
Q 31.109375 20.453125 19.1875 8.296875 
" id="DejaVuSans-32"/>
      </defs>
      <g transform="translate(135.166264 299.008875)scale(0.2 -0.2)">
       <use xlink:href="#DejaVuSans-2d"/>
       <use x="36.083984" xlink:href="#DejaVuSans-32"/>
      </g>
     </g>
    </g>
    <g id="xtick_4">
     <g id="line2d_7">
      <path clip-path="url(#pc8492ce5b9)" d="M 212.403312 276.812 
L 212.403312 10.7 
" style="fill:none;stroke:#b0b0b0;stroke-linecap:square;stroke-width:0.8;"/>
     </g>
     <g id="line2d_8">
      <g>
       <use style="stroke:#000000;stroke-width:0.8;" x="212.403312" xlink:href="#m457b5962f7" y="276.812"/>
      </g>
     </g>
     <g id="text_3">
      <!-- 1 -->
      <defs>
       <path d="M 12.40625 8.296875 
L 28.515625 8.296875 
L 28.515625 63.921875 
L 10.984375 60.40625 
L 10.984375 69.390625 
L 28.421875 72.90625 
L 38.28125 72.90625 
L 38.28125 8.296875 
L 54.390625 8.296875 
L 54.390625 0 
L 12.40625 0 
z
" id="DejaVuSans-31"/>
      </defs>
      <g transform="translate(206.040812 299.008875)scale(0.2 -0.2)">
       <use xlink:href="#DejaVuSans-31"/>
      </g>
     </g>
    </g>
    <g id="xtick_5">
     <g id="line2d_9">
      <path clip-path="url(#pc8492ce5b9)" d="M 279.670048 276.812 
L 279.670048 10.7 
" style="fill:none;stroke:#b0b0b0;stroke-linecap:square;stroke-width:0.8;"/>
     </g>
     <g id="line2d_10">
      <g>
       <use style="stroke:#000000;stroke-width:0.8;" x="279.670048" xlink:href="#m457b5962f7" y="276.812"/>
      </g>
     </g>
     <g id="text_4">
      <!-- 4 -->
      <defs>
       <path d="M 37.796875 64.3125 
L 12.890625 25.390625 
L 37.796875 25.390625 
z
M 35.203125 72.90625 
L 47.609375 72.90625 
L 47.609375 25.390625 
L 58.015625 25.390625 
L 58.015625 17.1875 
L 47.609375 17.1875 
L 47.609375 0 
L 37.796875 0 
L 37.796875 17.1875 
L 4.890625 17.1875 
L 4.890625 26.703125 
z
" id="DejaVuSans-34"/>
      </defs>
      <g transform="translate(273.307548 299.008875)scale(0.2 -0.2)">
       <use xlink:href="#DejaVuSans-34"/>
      </g>
     </g>
    </g>
    <g id="xtick_6">
     <g id="line2d_11">
      <path clip-path="url(#pc8492ce5b9)" d="M 346.936784 276.812 
L 346.936784 10.7 
" style="fill:none;stroke:#b0b0b0;stroke-linecap:square;stroke-width:0.8;"/>
     </g>
     <g id="line2d_12">
      <g>
       <use style="stroke:#000000;stroke-width:0.8;" x="346.936784" xlink:href="#m457b5962f7" y="276.812"/>
      </g>
     </g>
     <g id="text_5">
      <!-- 7 -->
      <defs>
       <path d="M 8.203125 72.90625 
L 55.078125 72.90625 
L 55.078125 68.703125 
L 28.609375 0 
L 18.3125 0 
L 43.21875 64.59375 
L 8.203125 64.59375 
z
" id="DejaVuSans-37"/>
      </defs>
      <g transform="translate(340.574284 299.008875)scale(0.2 -0.2)">
       <use xlink:href="#DejaVuSans-37"/>
      </g>
     </g>
    </g>
    <g id="text_6">
     <!-- log10 of Df -->
     <defs>
      <path d="M 9.421875 75.984375 
L 18.40625 75.984375 
L 18.40625 0 
L 9.421875 0 
z
" id="DejaVuSans-6c"/>
      <path d="M 30.609375 48.390625 
Q 23.390625 48.390625 19.1875 42.75 
Q 14.984375 37.109375 14.984375 27.296875 
Q 14.984375 17.484375 19.15625 11.84375 
Q 23.34375 6.203125 30.609375 6.203125 
Q 37.796875 6.203125 41.984375 11.859375 
Q 46.1875 17.53125 46.1875 27.296875 
Q 46.1875 37.015625 41.984375 42.703125 
Q 37.796875 48.390625 30.609375 48.390625 
M 30.609375 56 
Q 42.328125 56 49.015625 48.375 
Q 55.71875 40.765625 55.71875 27.296875 
Q 55.71875 13.875 49.015625 6.21875 
Q 42.328125 -1.421875 30.609375 -1.421875 
Q 18.84375 -1.421875 12.171875 6.21875 
Q 5.515625 13.875 5.515625 27.296875 
Q 5.515625 40.765625 12.171875 48.375 
Q 18.84375 56 30.609375 56 
" id="DejaVuSans-6f"/>
      <path d="M 45.40625 27.984375 
Q 45.40625 37.75 41.375 43.109375 
Q 37.359375 48.484375 30.078125 48.484375 
Q 22.859375 48.484375 18.828125 43.109375 
Q 14.796875 37.75 14.796875 27.984375 
Q 14.796875 18.265625 18.828125 12.890625 
Q 22.859375 7.515625 30.078125 7.515625 
Q 37.359375 7.515625 41.375 12.890625 
Q 45.40625 18.265625 45.40625 27.984375 
M 54.390625 6.78125 
Q 54.390625 -7.171875 48.1875 -13.984375 
Q 42 -20.796875 29.203125 -20.796875 
Q 24.46875 -20.796875 20.265625 -20.09375 
Q 16.0625 -19.390625 12.109375 -17.921875 
L 12.109375 -9.1875 
Q 16.0625 -11.328125 19.921875 -12.34375 
Q 23.78125 -13.375 27.78125 -13.375 
Q 36.625 -13.375 41.015625 -8.765625 
Q 45.40625 -4.15625 45.40625 5.171875 
L 45.40625 9.625 
Q 42.625 4.78125 38.28125 2.390625 
Q 33.9375 0 27.875 0 
Q 17.828125 0 11.671875 7.65625 
Q 5.515625 15.328125 5.515625 27.984375 
Q 5.515625 40.671875 11.671875 48.328125 
Q 17.828125 56 27.875 56 
Q 33.9375 56 38.28125 53.609375 
Q 42.625 51.21875 45.40625 46.390625 
L 45.40625 54.6875 
L 54.390625 54.6875 
z
" id="DejaVuSans-67"/>
      <path d="M 31.78125 66.40625 
Q 24.171875 66.40625 20.328125 58.90625 
Q 16.5 51.421875 16.5 36.375 
Q 16.5 21.390625 20.328125 13.890625 
Q 24.171875 6.390625 31.78125 6.390625 
Q 39.453125 6.390625 43.28125 13.890625 
Q 47.125 21.390625 47.125 36.375 
Q 47.125 51.421875 43.28125 58.90625 
Q 39.453125 66.40625 31.78125 66.40625 
M 31.78125 74.21875 
Q 44.046875 74.21875 50.515625 64.515625 
Q 56.984375 54.828125 56.984375 36.375 
Q 56.984375 17.96875 50.515625 8.265625 
Q 44.046875 -1.421875 31.78125 -1.421875 
Q 19.53125 -1.421875 13.0625 8.265625 
Q 6.59375 17.96875 6.59375 36.375 
Q 6.59375 54.828125 13.0625 64.515625 
Q 19.53125 74.21875 31.78125 74.21875 
" id="DejaVuSans-30"/>
      <path id="DejaVuSans-20"/>
      <path d="M 37.109375 75.984375 
L 37.109375 68.5 
L 28.515625 68.5 
Q 23.6875 68.5 21.796875 66.546875 
Q 19.921875 64.59375 19.921875 59.515625 
L 19.921875 54.6875 
L 34.71875 54.6875 
L 34.71875 47.703125 
L 19.921875 47.703125 
L 19.921875 0 
L 10.890625 0 
L 10.890625 47.703125 
L 2.296875 47.703125 
L 2.296875 54.6875 
L 10.890625 54.6875 
L 10.890625 58.5 
Q 10.890625 67.625 15.140625 71.796875 
Q 19.390625 75.984375 28.609375 75.984375 
z
" id="DejaVuSans-66"/>
      <path d="M 19.671875 64.796875 
L 19.671875 8.109375 
L 31.59375 8.109375 
Q 46.6875 8.109375 53.6875 14.9375 
Q 60.6875 21.78125 60.6875 36.53125 
Q 60.6875 51.171875 53.6875 57.984375 
Q 46.6875 64.796875 31.59375 64.796875 
z
M 9.8125 72.90625 
L 30.078125 72.90625 
Q 51.265625 72.90625 61.171875 64.09375 
Q 71.09375 55.28125 71.09375 36.53125 
Q 71.09375 17.671875 61.125 8.828125 
Q 51.171875 0 30.078125 0 
L 9.8125 0 
z
" id="DejaVuSans-44"/>
     </defs>
     <g transform="translate(134.074063 322.365125)scale(0.2 -0.2)">
      <use xlink:href="#DejaVuSans-6c"/>
      <use x="27.783203" xlink:href="#DejaVuSans-6f"/>
      <use x="88.964844" xlink:href="#DejaVuSans-67"/>
      <use x="152.441406" xlink:href="#DejaVuSans-31"/>
      <use x="216.064453" xlink:href="#DejaVuSans-30"/>
      <use x="279.6875" xlink:href="#DejaVuSans-20"/>
      <use x="311.474609" xlink:href="#DejaVuSans-6f"/>
      <use x="372.65625" xlink:href="#DejaVuSans-66"/>
      <use x="407.861328" xlink:href="#DejaVuSans-20"/>
      <use x="439.648438" xlink:href="#DejaVuSans-44"/>
      <use x="516.650391" xlink:href="#DejaVuSans-66"/>
     </g>
    </g>
   </g>
   <g id="matplotlib.axis_2">
    <g id="ytick_1">
     <g id="line2d_13">
      <path clip-path="url(#pc8492ce5b9)" d="M 10.7 276.812 
L 367.82 276.812 
" style="fill:none;stroke:#b0b0b0;stroke-linecap:square;stroke-width:0.8;"/>
     </g>
     <g id="line2d_14">
      <defs>
       <path d="M 0 0 
L -3.5 0 
" id="md8e20dd3cf" style="stroke:#000000;stroke-width:0.8;"/>
      </defs>
      <g>
       <use style="stroke:#000000;stroke-width:0.8;" x="10.7" xlink:href="#md8e20dd3cf" y="276.812"/>
      </g>
     </g>
    </g>
    <g id="ytick_2">
     <g id="line2d_15">
      <path clip-path="url(#pc8492ce5b9)" d="M 10.7 224.116554 
L 367.82 224.116554 
" style="fill:none;stroke:#b0b0b0;stroke-linecap:square;stroke-width:0.8;"/>
     </g>
     <g id="line2d_16">
      <g>
       <use style="stroke:#000000;stroke-width:0.8;" x="10.7" xlink:href="#md8e20dd3cf" y="224.116554"/>
      </g>
     </g>
    </g>
    <g id="ytick_3">
     <g id="line2d_17">
      <path clip-path="url(#pc8492ce5b9)" d="M 10.7 171.421109 
L 367.82 171.421109 
" style="fill:none;stroke:#b0b0b0;stroke-linecap:square;stroke-width:0.8;"/>
     </g>
     <g id="line2d_18">
      <g>
       <use style="stroke:#000000;stroke-width:0.8;" x="10.7" xlink:href="#md8e20dd3cf" y="171.421109"/>
      </g>
     </g>
    </g>
    <g id="ytick_4">
     <g id="line2d_19">
      <path clip-path="url(#pc8492ce5b9)" d="M 10.7 118.725663 
L 367.82 118.725663 
" style="fill:none;stroke:#b0b0b0;stroke-linecap:square;stroke-width:0.8;"/>
     </g>
     <g id="line2d_20">
      <g>
       <use style="stroke:#000000;stroke-width:0.8;" x="10.7" xlink:href="#md8e20dd3cf" y="118.725663"/>
      </g>
     </g>
    </g>
    <g id="ytick_5">
     <g id="line2d_21">
      <path clip-path="url(#pc8492ce5b9)" d="M 10.7 66.030218 
L 367.82 66.030218 
" style="fill:none;stroke:#b0b0b0;stroke-linecap:square;stroke-width:0.8;"/>
     </g>
     <g id="line2d_22">
      <g>
       <use style="stroke:#000000;stroke-width:0.8;" x="10.7" xlink:href="#md8e20dd3cf" y="66.030218"/>
      </g>
     </g>
    </g>
    <g id="ytick_6">
     <g id="line2d_23">
      <path clip-path="url(#pc8492ce5b9)" d="M 10.7 13.334772 
L 367.82 13.334772 
" style="fill:none;stroke:#b0b0b0;stroke-linecap:square;stroke-width:0.8;"/>
     </g>
     <g id="line2d_24">
      <g>
       <use style="stroke:#000000;stroke-width:0.8;" x="10.7" xlink:href="#md8e20dd3cf" y="13.334772"/>
      </g>
     </g>
    </g>
   </g>
   <g id="line2d_25">
    <path clip-path="url(#pc8492ce5b9)" d="M -1 272.420713 
L 10.603105 272.420713 
L 10.603105 268.029426 
L 10.603105 268.029426 
L 10.603105 263.638139 
L 10.603105 263.638139 
L 10.603105 259.246851 
L 10.603105 259.246851 
L 10.603105 254.855564 
L 10.603105 254.855564 
L 10.603105 250.464277 
L 10.603105 250.464277 
L 10.603105 246.07299 
L 10.603105 246.07299 
L 10.603105 241.681703 
L 10.603105 241.681703 
L 10.603105 237.290416 
L 10.603105 237.290416 
L 10.603105 232.899129 
L 10.603105 232.899129 
L 10.603105 228.507842 
L 10.603105 228.507842 
L 10.603105 224.116554 
L 10.603105 224.116554 
L 10.603105 219.725267 
L 10.603105 219.725267 
L 10.603105 215.33398 
L 10.603105 215.33398 
L 10.603105 210.942693 
L 10.603105 210.942693 
L 10.603105 206.551406 
L 10.603105 206.551406 
L 10.603105 202.160119 
L 10.603105 202.160119 
L 10.603105 197.768832 
L 10.603105 197.768832 
L 10.603105 193.377545 
L 10.603105 193.377545 
L 10.603105 188.986257 
L 10.603105 188.986257 
L 10.603105 184.59497 
L 10.603105 184.59497 
L 10.603105 180.203683 
L 10.603105 180.203683 
L 10.603105 175.812396 
L 10.603105 175.812396 
L 10.603105 171.421109 
L 10.603105 171.421109 
L 10.603105 167.029822 
L 10.603105 167.029822 
L 10.603105 162.638535 
L 10.603105 162.638535 
L 10.603105 158.247248 
L 10.603105 158.247248 
L 10.603105 153.85596 
L 10.603105 153.85596 
L 10.603105 149.464673 
L 64.102105 149.464673 
L 64.102105 145.073386 
L 79.136675 145.073386 
L 79.136675 140.682099 
L 80.822347 140.682099 
L 80.822347 136.290812 
L 89.840393 136.290812 
L 89.840393 131.899525 
L 91.411413 131.899525 
L 91.411413 127.508238 
L 94.741267 127.508238 
L 94.741267 123.11695 
L 95.372527 123.11695 
L 95.372527 118.725663 
L 95.911698 118.725663 
L 95.911698 114.334376 
L 96.426935 114.334376 
L 96.426935 109.943089 
L 97.676064 109.943089 
L 97.676064 105.551802 
L 102.361642 105.551802 
L 102.361642 101.160515 
L 102.436296 101.160515 
L 102.436296 96.769228 
L 106.745175 96.769228 
L 106.745175 92.377941 
L 107.315167 92.377941 
L 107.315167 87.986653 
L 110.694419 87.986653 
L 110.694419 83.595366 
L 116.691604 83.595366 
L 116.691604 79.204079 
L 117.793628 79.204079 
L 117.793628 74.812792 
L 126.16301 74.812792 
L 126.16301 70.421505 
L 127.501422 70.421505 
L 127.501422 66.030218 
L 133.831852 66.030218 
L 133.831852 61.638931 
L 139.048149 61.638931 
L 139.048149 57.247644 
L 140.178362 57.247644 
L 140.178362 52.856356 
L 140.275807 52.856356 
L 140.275807 48.465069 
L 141.001384 48.465069 
L 141.001384 44.073782 
L 142.675931 44.073782 
L 142.675931 39.682495 
L 143.763652 39.682495 
L 143.763652 35.291208 
L 158.1485 35.291208 
L 158.1485 30.899921 
L 175.036117 30.899921 
L 175.036117 26.508634 
L 179.163485 26.508634 
L 179.163485 22.117347 
L 184.569209 22.117347 
L 184.569209 17.726059 
L 203.310762 17.726059 
L 203.310762 13.334772 
L 203.310762 13.334772 
L 203.310762 13.334772 
L 367.82 13.334772 
" style="fill:none;stroke:#ff0000;stroke-linecap:square;stroke-width:3;"/>
   </g>
   <g id="line2d_26">
    <path clip-path="url(#pc8492ce5b9)" d="M 206.293015 276.812 
L 206.293015 272.420713 
L 206.941102 272.420713 
L 206.941102 268.029426 
L 209.549827 268.029426 
L 209.549827 263.638139 
L 210.963307 263.638139 
L 210.963307 259.246851 
L 212.111863 259.246851 
L 212.111863 254.855564 
L 213.073456 254.855564 
L 213.073456 250.464277 
L 214.480408 250.464277 
L 214.480408 246.07299 
L 214.859086 246.07299 
L 214.859086 241.681703 
L 214.877306 241.681703 
L 214.877306 237.290416 
L 214.906931 237.290416 
L 214.906931 232.899129 
L 214.946637 232.899129 
L 214.946637 228.507842 
L 216.644927 228.507842 
L 216.644927 224.116554 
L 217.772082 224.116554 
L 217.772082 219.725267 
L 218.511808 219.725267 
L 218.511808 215.33398 
L 218.647806 215.33398 
L 218.647806 210.942693 
L 218.791778 210.942693 
L 218.791778 206.551406 
L 219.181523 206.551406 
L 219.181523 202.160119 
L 220.008103 202.160119 
L 220.008103 197.768832 
L 220.298853 197.768832 
L 220.298853 193.377545 
L 220.686398 193.377545 
L 220.686398 188.986257 
L 221.862717 188.986257 
L 221.862717 184.59497 
L 222.979724 184.59497 
L 222.979724 180.203683 
L 224.678756 180.203683 
L 224.678756 175.812396 
L 226.139735 175.812396 
L 226.139735 171.421109 
L 226.449041 171.421109 
L 226.449041 167.029822 
L 226.830983 167.029822 
L 226.830983 162.638535 
L 228.967304 162.638535 
L 228.967304 158.247248 
L 230.098951 158.247248 
L 230.098951 153.85596 
L 231.505924 153.85596 
L 231.505924 149.464673 
L 231.980577 149.464673 
L 231.980577 145.073386 
L 235.292782 145.073386 
L 235.292782 140.682099 
L 236.195665 140.682099 
L 236.195665 136.290812 
L 237.204294 136.290812 
L 237.204294 131.899525 
L 238.564223 131.899525 
L 238.564223 127.508238 
L 238.587938 127.508238 
L 238.587938 123.11695 
L 238.886595 123.11695 
L 238.886595 118.725663 
L 239.392153 118.725663 
L 239.392153 114.334376 
L 240.331336 114.334376 
L 240.331336 109.943089 
L 240.725566 109.943089 
L 240.725566 105.551802 
L 242.580275 105.551802 
L 242.580275 101.160515 
L 245.517372 101.160515 
L 245.517372 96.769228 
L 246.486488 96.769228 
L 246.486488 92.377941 
L 247.132296 92.377941 
L 247.132296 87.986653 
L 247.201637 87.986653 
L 247.201637 83.595366 
L 247.41304 83.595366 
L 247.41304 79.204079 
L 248.055278 79.204079 
L 248.055278 74.812792 
L 248.288077 74.812792 
L 248.288077 70.421505 
L 248.311385 70.421505 
L 248.311385 66.030218 
L 250.259998 66.030218 
L 250.259998 61.638931 
L 250.502532 61.638931 
L 250.502532 57.247644 
L 252.902011 57.247644 
L 252.902011 52.856356 
L 253.751998 52.856356 
L 253.751998 48.465069 
L 255.383447 48.465069 
L 255.383447 44.073782 
L 255.479947 44.073782 
L 255.479947 39.682495 
L 257.081477 39.682495 
L 257.081477 35.291208 
L 257.124575 35.291208 
L 257.124575 30.899921 
L 257.444333 30.899921 
L 257.444333 26.508634 
L 258.685885 26.508634 
L 258.685885 22.117347 
L 271.696455 22.117347 
L 271.696455 17.726059 
L 275.669586 17.726059 
L 275.669586 13.334772 
L 275.669586 13.334772 
L 275.669586 13.334772 
L 367.82 13.334772 
" style="fill:none;stroke:#00bfbf;stroke-linecap:square;stroke-width:1.5;"/>
   </g>
   <g id="line2d_27">
    <path clip-path="url(#pc8492ce5b9)" d="M 206.293015 276.812 
L 206.293015 272.420713 
L 206.941102 272.420713 
L 206.941102 268.029426 
L 209.549827 268.029426 
L 209.549827 263.638139 
L 210.963307 263.638139 
L 210.963307 259.246851 
L 212.111863 259.246851 
L 212.111863 254.855564 
L 213.073456 254.855564 
L 213.073456 250.464277 
L 214.480408 250.464277 
L 214.480408 246.07299 
L 214.859086 246.07299 
L 214.859086 241.681703 
L 214.877306 241.681703 
L 214.877306 237.290416 
L 214.906931 237.290416 
L 214.906931 232.899129 
L 214.946637 232.899129 
L 214.946637 228.507842 
L 216.644927 228.507842 
L 216.644927 224.116554 
L 217.772082 224.116554 
L 217.772082 219.725267 
L 218.511808 219.725267 
L 218.511808 215.33398 
L 218.647806 215.33398 
L 218.647806 210.942693 
L 218.791778 210.942693 
L 218.791778 206.551406 
L 219.181523 206.551406 
L 219.181523 202.160119 
L 220.008103 202.160119 
L 220.008103 197.768832 
L 220.298853 197.768832 
L 220.298853 193.377545 
L 220.686398 193.377545 
L 220.686398 188.986257 
L 221.862717 188.986257 
L 221.862717 184.59497 
L 222.979724 184.59497 
L 222.979724 180.203683 
L 224.678756 180.203683 
L 224.678756 175.812396 
L 226.139735 175.812396 
L 226.139735 171.421109 
L 226.449041 171.421109 
L 226.449041 167.029822 
L 226.830983 167.029822 
L 226.830983 162.638535 
L 228.967304 162.638535 
L 228.967304 158.247248 
L 230.098951 158.247248 
L 230.098951 153.85596 
L 231.505924 153.85596 
L 231.505924 149.464673 
L 231.980577 149.464673 
L 231.980577 145.073386 
L 235.292782 145.073386 
L 235.292782 140.682099 
L 236.195665 140.682099 
L 236.195665 136.290812 
L 237.204294 136.290812 
L 237.204294 131.899525 
L 238.564223 131.899525 
L 238.564223 127.508238 
L 238.587938 127.508238 
L 238.587938 123.11695 
L 238.886595 123.11695 
L 238.886595 118.725663 
L 239.392153 118.725663 
L 239.392153 114.334376 
L 240.331336 114.334376 
L 240.331336 109.943089 
L 240.725566 109.943089 
L 240.725566 105.551802 
L 242.580275 105.551802 
L 242.580275 101.160515 
L 245.517372 101.160515 
L 245.517372 96.769228 
L 246.486488 96.769228 
L 246.486488 92.377941 
L 247.132296 92.377941 
L 247.132296 87.986653 
L 247.201637 87.986653 
L 247.201637 83.595366 
L 247.41304 83.595366 
L 247.41304 79.204079 
L 248.055278 79.204079 
L 248.055278 74.812792 
L 248.288077 74.812792 
L 248.288077 70.421505 
L 248.311385 70.421505 
L 248.311385 66.030218 
L 250.259998 66.030218 
L 250.259998 61.638931 
L 250.502532 61.638931 
L 250.502532 57.247644 
L 252.902011 57.247644 
L 252.902011 52.856356 
L 253.751998 52.856356 
L 253.751998 48.465069 
L 255.383447 48.465069 
L 255.383447 44.073782 
L 255.479947 44.073782 
L 255.479947 39.682495 
L 257.081477 39.682495 
L 257.081477 35.291208 
L 257.124575 35.291208 
L 257.124575 30.899921 
L 257.444333 30.899921 
L 257.444333 26.508634 
L 258.685885 26.508634 
L 258.685885 22.117347 
L 271.696455 22.117347 
L 271.696455 17.726059 
L 275.669586 17.726059 
L 275.669586 13.334772 
L 275.669586 13.334772 
L 275.669586 13.334772 
L 367.82 13.334772 
" style="fill:none;stroke:#bf00bf;stroke-linecap:square;stroke-width:1.5;"/>
   </g>
   <g id="line2d_28">
    <path clip-path="url(#pc8492ce5b9)" d="M 206.293015 276.812 
L 206.293015 272.420713 
L 206.941102 272.420713 
L 206.941102 268.029426 
L 209.549827 268.029426 
L 209.549827 263.638139 
L 210.963307 263.638139 
L 210.963307 259.246851 
L 212.111863 259.246851 
L 212.111863 254.855564 
L 213.073456 254.855564 
L 213.073456 250.464277 
L 214.480408 250.464277 
L 214.480408 246.07299 
L 214.859086 246.07299 
L 214.859086 241.681703 
L 214.877306 241.681703 
L 214.877306 237.290416 
L 214.906931 237.290416 
L 214.906931 232.899129 
L 214.946637 232.899129 
L 214.946637 228.507842 
L 216.644927 228.507842 
L 216.644927 224.116554 
L 217.772082 224.116554 
L 217.772082 219.725267 
L 218.511808 219.725267 
L 218.511808 215.33398 
L 218.647806 215.33398 
L 218.647806 210.942693 
L 218.791778 210.942693 
L 218.791778 206.551406 
L 219.181523 206.551406 
L 219.181523 202.160119 
L 220.008103 202.160119 
L 220.008103 197.768832 
L 220.298853 197.768832 
L 220.298853 193.377545 
L 220.686398 193.377545 
L 220.686398 188.986257 
L 221.862717 188.986257 
L 221.862717 184.59497 
L 222.979724 184.59497 
L 222.979724 180.203683 
L 224.678756 180.203683 
L 224.678756 175.812396 
L 226.139735 175.812396 
L 226.139735 171.421109 
L 226.449041 171.421109 
L 226.449041 167.029822 
L 226.830983 167.029822 
L 226.830983 162.638535 
L 228.967304 162.638535 
L 228.967304 158.247248 
L 230.098951 158.247248 
L 230.098951 153.85596 
L 231.505924 153.85596 
L 231.505924 149.464673 
L 231.980577 149.464673 
L 231.980577 145.073386 
L 235.292782 145.073386 
L 235.292782 140.682099 
L 236.195665 140.682099 
L 236.195665 136.290812 
L 237.204294 136.290812 
L 237.204294 131.899525 
L 238.564223 131.899525 
L 238.564223 127.508238 
L 238.587938 127.508238 
L 238.587938 123.11695 
L 238.886595 123.11695 
L 238.886595 118.725663 
L 239.392153 118.725663 
L 239.392153 114.334376 
L 240.331336 114.334376 
L 240.331336 109.943089 
L 240.725566 109.943089 
L 240.725566 105.551802 
L 242.580275 105.551802 
L 242.580275 101.160515 
L 245.517372 101.160515 
L 245.517372 96.769228 
L 246.486488 96.769228 
L 246.486488 92.377941 
L 247.132296 92.377941 
L 247.132296 87.986653 
L 247.201637 87.986653 
L 247.201637 83.595366 
L 247.41304 83.595366 
L 247.41304 79.204079 
L 248.055278 79.204079 
L 248.055278 74.812792 
L 248.288077 74.812792 
L 248.288077 70.421505 
L 248.311385 70.421505 
L 248.311385 66.030218 
L 250.259998 66.030218 
L 250.259998 61.638931 
L 250.502532 61.638931 
L 250.502532 57.247644 
L 252.902011 57.247644 
L 252.902011 52.856356 
L 253.751998 52.856356 
L 253.751998 48.465069 
L 255.383447 48.465069 
L 255.383447 44.073782 
L 255.479947 44.073782 
L 255.479947 39.682495 
L 257.081477 39.682495 
L 257.081477 35.291208 
L 257.124575 35.291208 
L 257.124575 30.899921 
L 257.444333 30.899921 
L 257.444333 26.508634 
L 258.685885 26.508634 
L 258.685885 22.117347 
L 271.696455 22.117347 
L 271.696455 17.726059 
L 275.669586 17.726059 
L 275.669586 13.334772 
L 275.669586 13.334772 
L 275.669586 13.334772 
L 367.82 13.334772 
" style="fill:none;stroke:#000000;stroke-linecap:square;stroke-width:1.5;"/>
   </g>
   <g id="line2d_29">
    <path clip-path="url(#pc8492ce5b9)" d="M 206.293015 276.812 
L 206.293015 272.420713 
L 206.941102 272.420713 
L 206.941102 268.029426 
L 209.549827 268.029426 
L 209.549827 263.638139 
L 210.963307 263.638139 
L 210.963307 259.246851 
L 212.111863 259.246851 
L 212.111863 254.855564 
L 213.073456 254.855564 
L 213.073456 250.464277 
L 214.480408 250.464277 
L 214.480408 246.07299 
L 214.859086 246.07299 
L 214.859086 241.681703 
L 214.877306 241.681703 
L 214.877306 237.290416 
L 214.906931 237.290416 
L 214.906931 232.899129 
L 214.946637 232.899129 
L 214.946637 228.507842 
L 216.644927 228.507842 
L 216.644927 224.116554 
L 217.772082 224.116554 
L 217.772082 219.725267 
L 218.511808 219.725267 
L 218.511808 215.33398 
L 218.647806 215.33398 
L 218.647806 210.942693 
L 218.791778 210.942693 
L 218.791778 206.551406 
L 219.181523 206.551406 
L 219.181523 202.160119 
L 220.008103 202.160119 
L 220.008103 197.768832 
L 220.298853 197.768832 
L 220.298853 193.377545 
L 220.686398 193.377545 
L 220.686398 188.986257 
L 221.862717 188.986257 
L 221.862717 184.59497 
L 222.979724 184.59497 
L 222.979724 180.203683 
L 224.678756 180.203683 
L 224.678756 175.812396 
L 226.139735 175.812396 
L 226.139735 171.421109 
L 226.449041 171.421109 
L 226.449041 167.029822 
L 226.830983 167.029822 
L 226.830983 162.638535 
L 228.967304 162.638535 
L 228.967304 158.247248 
L 230.098951 158.247248 
L 230.098951 153.85596 
L 231.505924 153.85596 
L 231.505924 149.464673 
L 231.980577 149.464673 
L 231.980577 145.073386 
L 235.292782 145.073386 
L 235.292782 140.682099 
L 236.195665 140.682099 
L 236.195665 136.290812 
L 237.204294 136.290812 
L 237.204294 131.899525 
L 238.564223 131.899525 
L 238.564223 127.508238 
L 238.587938 127.508238 
L 238.587938 123.11695 
L 238.886595 123.11695 
L 238.886595 118.725663 
L 239.392153 118.725663 
L 239.392153 114.334376 
L 240.331336 114.334376 
L 240.331336 109.943089 
L 240.725566 109.943089 
L 240.725566 105.551802 
L 242.580275 105.551802 
L 242.580275 101.160515 
L 245.517372 101.160515 
L 245.517372 96.769228 
L 246.486488 96.769228 
L 246.486488 92.377941 
L 247.132296 92.377941 
L 247.132296 87.986653 
L 247.201637 87.986653 
L 247.201637 83.595366 
L 247.41304 83.595366 
L 247.41304 79.204079 
L 248.055278 79.204079 
L 248.055278 74.812792 
L 248.288077 74.812792 
L 248.288077 70.421505 
L 248.311385 70.421505 
L 248.311385 66.030218 
L 250.259998 66.030218 
L 250.259998 61.638931 
L 250.502532 61.638931 
L 250.502532 57.247644 
L 252.902011 57.247644 
L 252.902011 52.856356 
L 253.751998 52.856356 
L 253.751998 48.465069 
L 255.383447 48.465069 
L 255.383447 44.073782 
L 255.479947 44.073782 
L 255.479947 39.682495 
L 257.081477 39.682495 
L 257.081477 35.291208 
L 257.124575 35.291208 
L 257.124575 30.899921 
L 257.444333 30.899921 
L 257.444333 26.508634 
L 258.685885 26.508634 
L 258.685885 22.117347 
L 271.696455 22.117347 
L 271.696455 17.726059 
L 275.669586 17.726059 
L 275.669586 13.334772 
L 275.669586 13.334772 
L 275.669586 13.334772 
L 367.82 13.334772 
" style="fill:none;stroke:#00bfbf;stroke-linecap:square;stroke-width:1.5;"/>
   </g>
   <g id="line2d_30">
    <path clip-path="url(#pc8492ce5b9)" d="M 188.449069 276.812 
L 188.449069 272.420713 
L 193.640185 272.420713 
L 193.640185 268.029426 
L 194.712029 268.029426 
L 194.712029 263.638139 
L 196.1141 263.638139 
L 196.1141 259.246851 
L 202.978276 259.246851 
L 202.978276 254.855564 
L 203.726912 254.855564 
L 203.726912 250.464277 
L 204.246402 250.464277 
L 204.246402 246.07299 
L 204.509904 246.07299 
L 204.509904 241.681703 
L 205.087726 241.681703 
L 205.087726 237.290416 
L 206.293015 237.290416 
L 206.293015 232.899129 
L 207.685105 232.899129 
L 207.685105 228.507842 
L 208.066103 228.507842 
L 208.066103 224.116554 
L 208.302107 224.116554 
L 208.302107 219.725267 
L 208.629706 219.725267 
L 208.629706 215.33398 
L 208.934035 215.33398 
L 208.934035 210.942693 
L 209.27418 210.942693 
L 209.27418 206.551406 
L 209.511369 206.551406 
L 209.511369 202.160119 
L 209.602644 202.160119 
L 209.602644 197.768832 
L 210.314137 197.768832 
L 210.314137 193.377545 
L 211.140175 193.377545 
L 211.140175 188.986257 
L 211.332889 188.986257 
L 211.332889 184.59497 
L 211.358941 184.59497 
L 211.358941 180.203683 
L 211.416799 180.203683 
L 211.416799 175.812396 
L 211.917082 175.812396 
L 211.917082 171.421109 
L 213.728839 171.421109 
L 213.728839 167.029822 
L 214.560627 167.029822 
L 214.560627 162.638535 
L 214.655359 162.638535 
L 214.655359 158.247248 
L 215.082809 158.247248 
L 215.082809 153.85596 
L 216.168039 153.85596 
L 216.168039 149.464673 
L 216.448651 149.464673 
L 216.448651 145.073386 
L 216.826179 145.073386 
L 216.826179 140.682099 
L 217.08875 140.682099 
L 217.08875 136.290812 
L 217.975869 136.290812 
L 217.975869 131.899525 
L 218.782843 131.899525 
L 218.782843 127.508238 
L 218.929879 127.508238 
L 218.929879 123.11695 
L 219.213869 123.11695 
L 219.213869 118.725663 
L 219.538476 118.725663 
L 219.538476 114.334376 
L 220.247224 114.334376 
L 220.247224 109.943089 
L 220.449902 109.943089 
L 220.449902 105.551802 
L 220.866599 105.551802 
L 220.866599 101.160515 
L 222.309003 101.160515 
L 222.309003 96.769228 
L 222.7443 96.769228 
L 222.7443 92.377941 
L 222.884964 92.377941 
L 222.884964 87.986653 
L 224.349157 87.986653 
L 224.349157 83.595366 
L 225.366321 83.595366 
L 225.366321 79.204079 
L 226.708154 79.204079 
L 226.708154 74.812792 
L 227.521509 74.812792 
L 227.521509 70.421505 
L 228.101792 70.421505 
L 228.101792 66.030218 
L 228.640124 66.030218 
L 228.640124 61.638931 
L 230.696072 61.638931 
L 230.696072 57.247644 
L 231.984504 57.247644 
L 231.984504 52.856356 
L 233.801506 52.856356 
L 233.801506 48.465069 
L 234.24629 48.465069 
L 234.24629 44.073782 
L 234.334368 44.073782 
L 234.334368 39.682495 
L 236.347959 39.682495 
L 236.347959 35.291208 
L 237.787302 35.291208 
L 237.787302 30.899921 
L 238.216885 30.899921 
L 238.216885 26.508634 
L 238.942206 26.508634 
L 238.942206 22.117347 
L 240.05975 22.117347 
L 240.05975 17.726059 
L 243.355884 17.726059 
L 243.355884 13.334772 
L 243.355884 13.334772 
L 243.355884 13.334772 
L 367.82 13.334772 
" style="fill:none;stroke:#bf00bf;stroke-linecap:square;stroke-width:1.5;"/>
   </g>
   <g id="line2d_31">
    <path clip-path="url(#pc8492ce5b9)" d="M 167.028289 276.812 
L 167.028289 272.420713 
L 167.437412 272.420713 
L 167.437412 268.029426 
L 172.376476 268.029426 
L 172.376476 263.638139 
L 175.713203 263.638139 
L 175.713203 259.246851 
L 177.449767 259.246851 
L 177.449767 254.855564 
L 178.007169 254.855564 
L 178.007169 250.464277 
L 178.927779 250.464277 
L 178.927779 246.07299 
L 179.008379 246.07299 
L 179.008379 241.681703 
L 181.823366 241.681703 
L 181.823366 237.290416 
L 182.071618 237.290416 
L 182.071618 232.899129 
L 182.777921 232.899129 
L 182.777921 228.507842 
L 182.786109 228.507842 
L 182.786109 224.116554 
L 184.66654 224.116554 
L 184.66654 219.725267 
L 185.272778 219.725267 
L 185.272778 215.33398 
L 186.006492 215.33398 
L 186.006492 210.942693 
L 187.407424 210.942693 
L 187.407424 206.551406 
L 188.476543 206.551406 
L 188.476543 202.160119 
L 188.648273 202.160119 
L 188.648273 197.768832 
L 189.368536 197.768832 
L 189.368536 193.377545 
L 190.545123 193.377545 
L 190.545123 188.986257 
L 191.314738 188.986257 
L 191.314738 184.59497 
L 192.293335 184.59497 
L 192.293335 180.203683 
L 192.525962 180.203683 
L 192.525962 175.812396 
L 193.956437 175.812396 
L 193.956437 171.421109 
L 195.158698 171.421109 
L 195.158698 167.029822 
L 195.255757 167.029822 
L 195.255757 162.638535 
L 195.885226 162.638535 
L 195.885226 158.247248 
L 196.297686 158.247248 
L 196.297686 153.85596 
L 196.597077 153.85596 
L 196.597077 149.464673 
L 197.874431 149.464673 
L 197.874431 145.073386 
L 199.407204 145.073386 
L 199.407204 140.682099 
L 199.671513 140.682099 
L 199.671513 136.290812 
L 201.876598 136.290812 
L 201.876598 131.899525 
L 202.098254 131.899525 
L 202.098254 127.508238 
L 202.170437 127.508238 
L 202.170437 123.11695 
L 202.391212 123.11695 
L 202.391212 118.725663 
L 202.418851 118.725663 
L 202.418851 114.334376 
L 202.753438 114.334376 
L 202.753438 109.943089 
L 202.870676 109.943089 
L 202.870676 105.551802 
L 203.635837 105.551802 
L 203.635837 101.160515 
L 203.672854 101.160515 
L 203.672854 96.769228 
L 203.692442 96.769228 
L 203.692442 92.377941 
L 203.810258 92.377941 
L 203.810258 87.986653 
L 204.078638 87.986653 
L 204.078638 83.595366 
L 204.250096 83.595366 
L 204.250096 79.204079 
L 204.270068 79.204079 
L 204.270068 74.812792 
L 204.335406 74.812792 
L 204.335406 70.421505 
L 204.394263 70.421505 
L 204.394263 66.030218 
L 204.495448 66.030218 
L 204.495448 61.638931 
L 204.701412 61.638931 
L 204.701412 57.247644 
L 204.824751 57.247644 
L 204.824751 52.856356 
L 205.011249 52.856356 
L 205.011249 48.465069 
L 205.5495 48.465069 
L 205.5495 44.073782 
L 206.675479 44.073782 
L 206.675479 39.682495 
L 206.92609 39.682495 
L 206.92609 35.291208 
L 208.055513 35.291208 
L 208.055513 30.899921 
L 208.067572 30.899921 
L 208.067572 26.508634 
L 209.064988 26.508634 
L 209.064988 22.117347 
L 215.106421 22.117347 
L 215.106421 17.726059 
L 235.940552 17.726059 
L 235.940552 13.334772 
L 235.940552 13.334772 
L 235.940552 13.334772 
L 367.82 13.334772 
" style="fill:none;stroke:#000000;stroke-linecap:square;stroke-width:1.5;"/>
   </g>
   <g id="line2d_32">
    <path clip-path="url(#pc8492ce5b9)" d="M -1 272.420713 
L 71.776556 272.420713 
L 71.776556 268.029426 
L 72.505135 268.029426 
L 72.505135 263.638139 
L 82.490084 263.638139 
L 82.490084 259.246851 
L 89.17581 259.246851 
L 89.17581 254.855564 
L 93.685083 254.855564 
L 93.685083 250.464277 
L 99.029768 250.464277 
L 99.029768 246.07299 
L 99.092915 246.07299 
L 99.092915 241.681703 
L 106.450676 241.681703 
L 106.450676 237.290416 
L 108.326941 237.290416 
L 108.326941 232.899129 
L 115.628349 232.899129 
L 115.628349 228.507842 
L 123.78452 228.507842 
L 123.78452 224.116554 
L 135.248545 224.116554 
L 135.248545 219.725267 
L 143.254342 219.725267 
L 143.254342 215.33398 
L 143.273037 215.33398 
L 143.273037 210.942693 
L 143.834621 210.942693 
L 143.834621 206.551406 
L 151.046545 206.551406 
L 151.046545 202.160119 
L 153.092446 202.160119 
L 153.092446 197.768832 
L 157.688979 197.768832 
L 157.688979 193.377545 
L 158.627405 193.377545 
L 158.627405 188.986257 
L 159.11616 188.986257 
L 159.11616 184.59497 
L 162.620825 184.59497 
L 162.620825 180.203683 
L 164.802118 180.203683 
L 164.802118 175.812396 
L 166.14372 175.812396 
L 166.14372 171.421109 
L 170.69772 171.421109 
L 170.69772 167.029822 
L 172.566125 167.029822 
L 172.566125 162.638535 
L 172.610012 162.638535 
L 172.610012 158.247248 
L 174.466015 158.247248 
L 174.466015 153.85596 
L 174.813633 153.85596 
L 174.813633 149.464673 
L 175.290041 149.464673 
L 175.290041 145.073386 
L 176.103254 145.073386 
L 176.103254 140.682099 
L 176.220833 140.682099 
L 176.220833 136.290812 
L 177.476889 136.290812 
L 177.476889 131.899525 
L 179.295344 131.899525 
L 179.295344 127.508238 
L 180.788132 127.508238 
L 180.788132 123.11695 
L 181.067195 123.11695 
L 181.067195 118.725663 
L 181.202812 118.725663 
L 181.202812 114.334376 
L 181.699807 114.334376 
L 181.699807 109.943089 
L 182.128209 109.943089 
L 182.128209 105.551802 
L 182.385689 105.551802 
L 182.385689 101.160515 
L 183.083608 101.160515 
L 183.083608 96.769228 
L 183.366532 96.769228 
L 183.366532 92.377941 
L 184.197847 92.377941 
L 184.197847 87.986653 
L 184.224457 87.986653 
L 184.224457 83.595366 
L 184.831664 83.595366 
L 184.831664 79.204079 
L 185.190158 79.204079 
L 185.190158 74.812792 
L 186.006492 74.812792 
L 186.006492 70.421505 
L 186.67333 70.421505 
L 186.67333 66.030218 
L 187.822313 66.030218 
L 187.822313 61.638931 
L 190.334055 61.638931 
L 190.334055 57.247644 
L 193.886924 57.247644 
L 193.886924 52.856356 
L 194.10116 52.856356 
L 194.10116 48.465069 
L 194.485419 48.465069 
L 194.485419 44.073782 
L 195.101286 44.073782 
L 195.101286 39.682495 
L 196.505125 39.682495 
L 196.505125 35.291208 
L 200.156262 35.291208 
L 200.156262 30.899921 
L 200.815074 30.899921 
L 200.815074 26.508634 
L 201.252671 26.508634 
L 201.252671 22.117347 
L 203.535013 22.117347 
L 203.535013 17.726059 
L 204.433828 17.726059 
L 204.433828 13.334772 
L 204.433828 13.334772 
L 204.433828 13.334772 
L 367.82 13.334772 
" style="fill:none;stroke:#00bfbf;stroke-linecap:square;stroke-width:1.5;"/>
   </g>
   <g id="line2d_33">
    <path clip-path="url(#pc8492ce5b9)" d="M -1 272.420713 
L 10.603105 272.420713 
L 10.603105 268.029426 
L 10.603105 268.029426 
L 10.603105 263.638139 
L 10.603105 263.638139 
L 10.603105 259.246851 
L 10.603105 259.246851 
L 10.603105 254.855564 
L 10.603105 254.855564 
L 10.603105 250.464277 
L 10.603105 250.464277 
L 10.603105 246.07299 
L 10.603105 246.07299 
L 10.603105 241.681703 
L 10.603105 241.681703 
L 10.603105 237.290416 
L 10.603105 237.290416 
L 10.603105 232.899129 
L 10.603105 232.899129 
L 10.603105 228.507842 
L 10.603105 228.507842 
L 10.603105 224.116554 
L 10.603105 224.116554 
L 10.603105 219.725267 
L 10.603105 219.725267 
L 10.603105 215.33398 
L 10.603105 215.33398 
L 10.603105 210.942693 
L 10.603105 210.942693 
L 10.603105 206.551406 
L 10.603105 206.551406 
L 10.603105 202.160119 
L 10.603105 202.160119 
L 10.603105 197.768832 
L 10.603105 197.768832 
L 10.603105 193.377545 
L 10.603105 193.377545 
L 10.603105 188.986257 
L 10.603105 188.986257 
L 10.603105 184.59497 
L 10.603105 184.59497 
L 10.603105 180.203683 
L 10.603105 180.203683 
L 10.603105 175.812396 
L 10.603105 175.812396 
L 10.603105 171.421109 
L 10.603105 171.421109 
L 10.603105 167.029822 
L 10.603105 167.029822 
L 10.603105 162.638535 
L 10.603105 162.638535 
L 10.603105 158.247248 
L 10.603105 158.247248 
L 10.603105 153.85596 
L 10.603105 153.85596 
L 10.603105 149.464673 
L 64.102105 149.464673 
L 64.102105 145.073386 
L 79.136675 145.073386 
L 79.136675 140.682099 
L 80.822347 140.682099 
L 80.822347 136.290812 
L 89.840393 136.290812 
L 89.840393 131.899525 
L 91.411413 131.899525 
L 91.411413 127.508238 
L 94.741267 127.508238 
L 94.741267 123.11695 
L 95.372527 123.11695 
L 95.372527 118.725663 
L 95.911698 118.725663 
L 95.911698 114.334376 
L 96.426935 114.334376 
L 96.426935 109.943089 
L 97.676064 109.943089 
L 97.676064 105.551802 
L 102.361642 105.551802 
L 102.361642 101.160515 
L 102.436296 101.160515 
L 102.436296 96.769228 
L 106.745175 96.769228 
L 106.745175 92.377941 
L 107.315167 92.377941 
L 107.315167 87.986653 
L 110.694419 87.986653 
L 110.694419 83.595366 
L 116.691604 83.595366 
L 116.691604 79.204079 
L 117.793628 79.204079 
L 117.793628 74.812792 
L 126.16301 74.812792 
L 126.16301 70.421505 
L 127.501422 70.421505 
L 127.501422 66.030218 
L 133.831852 66.030218 
L 133.831852 61.638931 
L 139.048149 61.638931 
L 139.048149 57.247644 
L 140.178362 57.247644 
L 140.178362 52.856356 
L 140.275807 52.856356 
L 140.275807 48.465069 
L 141.001384 48.465069 
L 141.001384 44.073782 
L 142.675931 44.073782 
L 142.675931 39.682495 
L 143.763652 39.682495 
L 143.763652 35.291208 
L 158.1485 35.291208 
L 158.1485 30.899921 
L 175.036117 30.899921 
L 175.036117 26.508634 
L 179.163485 26.508634 
L 179.163485 22.117347 
L 184.569209 22.117347 
L 184.569209 17.726059 
L 203.310762 17.726059 
L 203.310762 13.334772 
L 203.310762 13.334772 
L 203.310762 13.334772 
L 367.82 13.334772 
" style="fill:none;stroke:#bf00bf;stroke-linecap:square;stroke-width:1.5;"/>
   </g>
   <g id="patch_3">
    <path d="M 10.7 276.812 
L 10.7 10.7 
" style="fill:none;stroke:#000000;stroke-linecap:square;stroke-linejoin:miter;stroke-width:0.8;"/>
   </g>
   <g id="patch_4">
    <path d="M 367.82 276.812 
L 367.82 10.7 
" style="fill:none;stroke:#000000;stroke-linecap:square;stroke-linejoin:miter;stroke-width:0.8;"/>
   </g>
   <g id="patch_5">
    <path d="M 10.7 276.812 
L 367.82 276.812 
" style="fill:none;stroke:#000000;stroke-linecap:square;stroke-linejoin:miter;stroke-width:0.8;"/>
   </g>
   <g id="patch_6">
    <path d="M 10.7 10.7 
L 367.82 10.7 
" style="fill:none;stroke:#000000;stroke-linecap:square;stroke-linejoin:miter;stroke-width:0.8;"/>
   </g>
   <g id="text_7">
    <!-- {f6-f9}, 5-D -->
    <defs>
     <path d="M 51.125 -9.28125 
L 51.125 -16.3125 
L 48.09375 -16.3125 
Q 35.9375 -16.3125 31.8125 -12.6875 
Q 27.6875 -9.078125 27.6875 1.703125 
L 27.6875 13.375 
Q 27.6875 20.75 25.046875 23.578125 
Q 22.40625 26.421875 15.484375 26.421875 
L 12.5 26.421875 
L 12.5 33.40625 
L 15.484375 33.40625 
Q 22.46875 33.40625 25.078125 36.203125 
Q 27.6875 39.015625 27.6875 46.296875 
L 27.6875 58.015625 
Q 27.6875 68.796875 31.8125 72.390625 
Q 35.9375 75.984375 48.09375 75.984375 
L 51.125 75.984375 
L 51.125 69 
L 47.796875 69 
Q 40.921875 69 38.8125 66.84375 
Q 36.71875 64.703125 36.71875 57.8125 
L 36.71875 45.703125 
Q 36.71875 38.03125 34.5 34.5625 
Q 32.28125 31.109375 26.90625 29.890625 
Q 32.328125 28.5625 34.515625 25.09375 
Q 36.71875 21.625 36.71875 14.015625 
L 36.71875 1.90625 
Q 36.71875 -4.984375 38.8125 -7.125 
Q 40.921875 -9.28125 47.796875 -9.28125 
z
" id="DejaVuSans-7b"/>
     <path d="M 33.015625 40.375 
Q 26.375 40.375 22.484375 35.828125 
Q 18.609375 31.296875 18.609375 23.390625 
Q 18.609375 15.53125 22.484375 10.953125 
Q 26.375 6.390625 33.015625 6.390625 
Q 39.65625 6.390625 43.53125 10.953125 
Q 47.40625 15.53125 47.40625 23.390625 
Q 47.40625 31.296875 43.53125 35.828125 
Q 39.65625 40.375 33.015625 40.375 
M 52.59375 71.296875 
L 52.59375 62.3125 
Q 48.875 64.0625 45.09375 64.984375 
Q 41.3125 65.921875 37.59375 65.921875 
Q 27.828125 65.921875 22.671875 59.328125 
Q 17.53125 52.734375 16.796875 39.40625 
Q 19.671875 43.65625 24.015625 45.921875 
Q 28.375 48.1875 33.59375 48.1875 
Q 44.578125 48.1875 50.953125 41.515625 
Q 57.328125 34.859375 57.328125 23.390625 
Q 57.328125 12.15625 50.6875 5.359375 
Q 44.046875 -1.421875 33.015625 -1.421875 
Q 20.359375 -1.421875 13.671875 8.265625 
Q 6.984375 17.96875 6.984375 36.375 
Q 6.984375 53.65625 15.1875 63.9375 
Q 23.390625 74.21875 37.203125 74.21875 
Q 40.921875 74.21875 44.703125 73.484375 
Q 48.484375 72.75 52.59375 71.296875 
" id="DejaVuSans-36"/>
     <path d="M 10.984375 1.515625 
L 10.984375 10.5 
Q 14.703125 8.734375 18.5 7.8125 
Q 22.3125 6.890625 25.984375 6.890625 
Q 35.75 6.890625 40.890625 13.453125 
Q 46.046875 20.015625 46.78125 33.40625 
Q 43.953125 29.203125 39.59375 26.953125 
Q 35.25 24.703125 29.984375 24.703125 
Q 19.046875 24.703125 12.671875 31.3125 
Q 6.296875 37.9375 6.296875 49.421875 
Q 6.296875 60.640625 12.9375 67.421875 
Q 19.578125 74.21875 30.609375 74.21875 
Q 43.265625 74.21875 49.921875 64.515625 
Q 56.59375 54.828125 56.59375 36.375 
Q 56.59375 19.140625 48.40625 8.859375 
Q 40.234375 -1.421875 26.421875 -1.421875 
Q 22.703125 -1.421875 18.890625 -0.6875 
Q 15.09375 0.046875 10.984375 1.515625 
M 30.609375 32.421875 
Q 37.25 32.421875 41.125 36.953125 
Q 45.015625 41.5 45.015625 49.421875 
Q 45.015625 57.28125 41.125 61.84375 
Q 37.25 66.40625 30.609375 66.40625 
Q 23.96875 66.40625 20.09375 61.84375 
Q 16.21875 57.28125 16.21875 49.421875 
Q 16.21875 41.5 20.09375 36.953125 
Q 23.96875 32.421875 30.609375 32.421875 
" id="DejaVuSans-39"/>
     <path d="M 12.5 -9.28125 
L 15.921875 -9.28125 
Q 22.75 -9.28125 24.828125 -7.171875 
Q 26.90625 -5.078125 26.90625 1.90625 
L 26.90625 14.015625 
Q 26.90625 21.625 29.09375 25.09375 
Q 31.296875 28.5625 36.71875 29.890625 
Q 31.296875 31.109375 29.09375 34.5625 
Q 26.90625 38.03125 26.90625 45.703125 
L 26.90625 57.8125 
Q 26.90625 64.75 24.828125 66.875 
Q 22.75 69 15.921875 69 
L 12.5 69 
L 12.5 75.984375 
L 15.578125 75.984375 
Q 27.734375 75.984375 31.8125 72.390625 
Q 35.890625 68.796875 35.890625 58.015625 
L 35.890625 46.296875 
Q 35.890625 39.015625 38.515625 36.203125 
Q 41.15625 33.40625 48.09375 33.40625 
L 51.125 33.40625 
L 51.125 26.421875 
L 48.09375 26.421875 
Q 41.15625 26.421875 38.515625 23.578125 
Q 35.890625 20.75 35.890625 13.375 
L 35.890625 1.703125 
Q 35.890625 -9.078125 31.8125 -12.6875 
Q 27.734375 -16.3125 15.578125 -16.3125 
L 12.5 -16.3125 
z
" id="DejaVuSans-7d"/>
     <path d="M 11.71875 12.40625 
L 22.015625 12.40625 
L 22.015625 4 
L 14.015625 -11.625 
L 7.71875 -11.625 
L 11.71875 4 
z
" id="DejaVuSans-2c"/>
    </defs>
    <g transform="translate(240.4276 271.48976)scale(0.2 -0.2)">
     <use xlink:href="#DejaVuSans-7b"/>
     <use x="63.623047" xlink:href="#DejaVuSans-66"/>
     <use x="98.828125" xlink:href="#DejaVuSans-36"/>
     <use x="162.451172" xlink:href="#DejaVuSans-2d"/>
     <use x="198.535156" xlink:href="#DejaVuSans-66"/>
     <use x="233.740234" xlink:href="#DejaVuSans-39"/>
     <use x="297.363281" xlink:href="#DejaVuSans-7d"/>
     <use x="360.986328" xlink:href="#DejaVuSans-2c"/>
     <use x="392.773438" xlink:href="#DejaVuSans-20"/>
     <use x="424.560547" xlink:href="#DejaVuSans-35"/>
     <use x="488.183594" xlink:href="#DejaVuSans-2d"/>
     <use x="524.267578" xlink:href="#DejaVuSans-44"/>
    </g>
   </g>
   <g id="text_8">
    <!-- v2.0.1 -->
    <defs>
     <path d="M 2.984375 54.6875 
L 12.5 54.6875 
L 29.59375 8.796875 
L 46.6875 54.6875 
L 56.203125 54.6875 
L 35.6875 0 
L 23.484375 0 
z
" id="DejaVuSans-76"/>
     <path d="M 10.6875 12.40625 
L 21 12.40625 
L 21 0 
L 10.6875 0 
z
" id="DejaVuSans-2e"/>
    </defs>
    <g style="fill:#808080;" transform="translate(173.57875 272.071193)scale(0.1 -0.1)">
     <use xlink:href="#DejaVuSans-76"/>
     <use x="59.179688" xlink:href="#DejaVuSans-32"/>
     <use x="122.802734" xlink:href="#DejaVuSans-2e"/>
     <use x="154.589844" xlink:href="#DejaVuSans-30"/>
     <use x="218.212891" xlink:href="#DejaVuSans-2e"/>
     <use x="250" xlink:href="#DejaVuSans-31"/>
    </g>
   </g>
  </g>
 </g>
 <defs>
  <clipPath id="pc8492ce5b9">
   <rect height="266.112" width="357.12" x="10.7" y="10.7"/>
  </clipPath>
 </defs>
</svg>
