<?xml version="1.0" encoding="utf-8" standalone="no"?>
<!DOCTYPE svg PUBLIC "-//W3C//DTD SVG 1.1//EN"
  "http://www.w3.org/Graphics/SVG/1.1/DTD/svg11.dtd">
<!-- Created with matplotlib (http://matplotlib.org/) -->
<svg height="335pt" version="1.1" viewBox="0 0 440 335" width="440pt" xmlns="http://www.w3.org/2000/svg" xmlns:xlink="http://www.w3.org/1999/xlink">
 <defs>
  <style type="text/css">
*{stroke-linecap:butt;stroke-linejoin:round;}
  </style>
 </defs>
 <g id="figure_1">
  <g id="patch_1">
   <path d="M 0 335.188165 
L 440.045 335.188165 
L 440.045 0 
L 0 0 
z
" style="fill:#ffffff;"/>
  </g>
  <g id="axes_1">
   <g id="patch_2">
    <path d="M 69.3625 278.275665 
L 426.4825 278.275665 
L 426.4825 12.163665 
L 69.3625 12.163665 
z
" style="fill:#ffffff;"/>
   </g>
   <g id="line2d_1">
    <path clip-path="url(#p08617d51b8)" d="M 232.356023 278.275665 
L 232.356023 273.884378 
L 234.808322 273.884378 
L 234.808322 269.493091 
L 235.737414 269.493091 
L 235.737414 265.101804 
L 235.737414 265.101804 
L 235.737414 260.710517 
L 236.191729 260.710517 
L 236.191729 256.31923 
L 236.3417 256.31923 
L 236.3417 251.927942 
L 236.49095 251.927942 
L 236.49095 247.536655 
L 237.226614 247.536655 
L 237.226614 243.145368 
L 237.659781 243.145368 
L 237.659781 238.754081 
L 237.802836 238.754081 
L 237.802836 234.362794 
L 237.802836 234.362794 
L 237.802836 229.971507 
L 237.945235 229.971507 
L 237.945235 225.58022 
L 237.945235 225.58022 
L 237.945235 221.188933 
L 238.368549 221.188933 
L 238.368549 216.797645 
L 238.368549 216.797645 
L 238.368549 212.406358 
L 239.334379 212.406358 
L 239.334379 208.015071 
L 239.604896 208.015071 
L 239.604896 203.623784 
L 239.739275 203.623784 
L 239.739275 199.232497 
L 239.873074 199.232497 
L 239.873074 194.84121 
L 240.006298 194.84121 
L 240.006298 190.449923 
L 240.402573 190.449923 
L 240.402573 186.058636 
L 240.402573 186.058636 
L 240.402573 181.667348 
L 240.533547 181.667348 
L 240.533547 177.276061 
L 242.801172 177.276061 
L 242.801172 172.884774 
L 243.992831 172.884774 
L 243.992831 168.493487 
L 244.225766 168.493487 
L 244.225766 164.1022 
L 258.410733 164.1022 
L 258.410733 159.710913 
L 260.967478 159.710913 
L 260.967478 155.319626 
L 263.729765 155.319626 
L 263.729765 150.928338 
L 269.846786 150.928338 
L 269.846786 146.537051 
L 269.846786 146.537051 
L 269.846786 146.537051 
L 426.4825 146.537051 
" style="fill:none;stroke:#f5deb3;stroke-linecap:square;stroke-width:1.5;"/>
   </g>
   <g id="line2d_2"/>
   <g id="line2d_3">
    <path clip-path="url(#p08617d51b8)" d="M 232.854267 278.275665 
L 232.854267 273.884378 
L 238.066772 273.884378 
L 238.066772 269.493091 
L 240.595722 269.493091 
L 240.595722 265.101804 
L 244.63742 265.101804 
L 244.63742 260.710517 
L 245.1243 260.710517 
L 245.1243 256.31923 
L 245.375555 256.31923 
L 245.375555 251.927942 
L 245.396844 251.927942 
L 245.396844 247.536655 
L 245.481857 247.536655 
L 245.481857 243.145368 
L 246.184839 243.145368 
L 246.184839 238.754081 
L 246.689058 238.754081 
L 246.689058 234.362794 
L 246.831627 234.362794 
L 246.831627 229.971507 
L 247.089636 229.971507 
L 247.089636 225.58022 
L 247.250435 225.58022 
L 247.250435 221.188933 
L 247.290505 221.188933 
L 247.290505 216.797645 
L 247.315522 216.797645 
L 247.315522 212.406358 
L 247.340519 212.406358 
L 247.340519 208.015071 
L 247.420375 208.015071 
L 247.420375 203.623784 
L 248.776029 203.623784 
L 248.776029 199.232497 
L 249.254238 199.232497 
L 249.254238 194.84121 
L 249.7113 194.84121 
L 249.7113 190.449923 
L 250.097778 190.449923 
L 250.097778 186.058636 
L 250.869964 186.058636 
L 250.869964 181.667348 
L 251.220315 181.667348 
L 251.220315 177.276061 
L 256.843401 177.276061 
L 256.843401 172.884774 
L 257.419261 172.884774 
L 257.419261 168.493487 
L 257.767572 168.493487 
L 257.767572 164.1022 
L 258.305631 164.1022 
L 258.305631 159.710913 
L 258.358226 159.710913 
L 258.358226 155.319626 
L 258.37924 155.319626 
L 258.37924 150.928338 
L 259.442618 150.928338 
L 259.442618 146.537051 
L 259.547315 146.537051 
L 259.547315 142.145764 
L 260.349419 142.145764 
L 260.349419 137.754477 
L 260.831911 137.754477 
L 260.831911 133.36319 
L 260.91913 133.36319 
L 260.91913 128.971903 
L 261.497568 128.971903 
L 261.497568 124.580616 
L 261.922084 124.580616 
L 261.922084 120.189329 
L 262.872427 120.189329 
L 262.872427 115.798041 
L 264.73851 115.798041 
L 264.73851 111.406754 
L 266.247045 111.406754 
L 266.247045 107.015467 
L 271.762715 107.015467 
L 271.762715 102.62418 
L 273.97852 102.62418 
L 273.97852 98.232893 
L 274.128488 98.232893 
L 274.128488 93.841606 
L 274.966246 93.841606 
L 274.966246 89.450319 
L 275.215462 89.450319 
L 275.215462 85.059032 
L 275.583561 85.059032 
L 275.583561 80.667744 
L 275.583561 80.667744 
L 275.583561 80.667744 
L 426.4825 80.667744 
" style="fill:none;stroke:#f5deb3;stroke-linecap:square;stroke-width:1.5;"/>
   </g>
   <g id="line2d_4">
    <path clip-path="url(#p08617d51b8)" d="M 272.42643 278.275665 
L 272.42643 273.884378 
L 276.076238 273.884378 
L 276.076238 269.493091 
L 278.277879 269.493091 
L 278.277879 265.101804 
L 278.662577 265.101804 
L 278.662577 260.710517 
L 281.197758 260.710517 
L 281.197758 256.31923 
L 281.212854 256.31923 
L 281.212854 251.927942 
L 282.510086 251.927942 
L 282.510086 247.536655 
L 283.067912 247.536655 
L 283.067912 243.145368 
L 283.080546 243.145368 
L 283.080546 238.754081 
L 283.415041 238.754081 
L 283.415041 234.362794 
L 283.852417 234.362794 
L 283.852417 229.971507 
L 284.155867 229.971507 
L 284.155867 225.58022 
L 285.063615 225.58022 
L 285.063615 221.188933 
L 285.38483 221.188933 
L 285.38483 216.797645 
L 285.525234 216.797645 
L 285.525234 212.406358 
L 287.296288 212.406358 
L 287.296288 208.015071 
L 288.29979 208.015071 
L 288.29979 203.623784 
L 288.722564 203.623784 
L 288.722564 199.232497 
L 289.00168 199.232497 
L 289.00168 194.84121 
L 291.39348 194.84121 
L 291.39348 190.449923 
L 297.949754 190.449923 
L 297.949754 186.058636 
L 300.198824 186.058636 
L 300.198824 181.667348 
L 302.937513 181.667348 
L 302.937513 177.276061 
L 304.76628 177.276061 
L 304.76628 172.884774 
L 305.883802 172.884774 
L 305.883802 168.493487 
L 308.291268 168.493487 
L 308.291268 164.1022 
L 310.813318 164.1022 
L 310.813318 159.710913 
L 314.322207 159.710913 
L 314.322207 155.319626 
L 314.811968 155.319626 
L 314.811968 150.928338 
L 316.188746 150.928338 
L 316.188746 146.537051 
L 316.188746 146.537051 
L 316.188746 146.537051 
L 426.4825 146.537051 
" style="fill:none;stroke:#f5deb3;stroke-linecap:square;stroke-width:1.5;"/>
   </g>
   <g id="line2d_5">
    <path clip-path="url(#p08617d51b8)" d="M 263.493158 278.275665 
L 263.493158 273.884378 
L 265.2589 273.884378 
L 265.2589 269.493091 
L 267.011793 269.493091 
L 267.011793 265.101804 
L 267.149315 265.101804 
L 267.149315 260.710517 
L 268.426233 260.710517 
L 268.426233 256.31923 
L 268.763729 256.31923 
L 268.763729 251.927942 
L 270.138114 251.927942 
L 270.138114 247.536655 
L 270.47418 247.536655 
L 270.47418 243.145368 
L 270.523923 243.145368 
L 270.523923 238.754081 
L 270.561768 238.754081 
L 270.561768 234.362794 
L 271.035637 234.362794 
L 271.035637 229.971507 
L 272.317165 229.971507 
L 272.317165 225.58022 
L 272.546401 225.58022 
L 272.546401 221.188933 
L 272.942985 221.188933 
L 272.942985 216.797645 
L 272.947363 216.797645 
L 272.947363 212.406358 
L 273.158964 212.406358 
L 273.158964 208.015071 
L 273.243635 208.015071 
L 273.243635 203.623784 
L 273.580029 203.623784 
L 273.580029 199.232497 
L 273.676391 199.232497 
L 273.676391 194.84121 
L 273.855471 194.84121 
L 273.855471 190.449923 
L 273.885217 190.449923 
L 273.885217 186.058636 
L 273.946744 186.058636 
L 273.946744 181.667348 
L 274.26515 181.667348 
L 274.26515 177.276061 
L 274.353136 177.276061 
L 274.353136 172.884774 
L 274.68812 172.884774 
L 274.68812 168.493487 
L 275.661874 168.493487 
L 275.661874 164.1022 
L 275.993013 164.1022 
L 275.993013 159.710913 
L 276.0703 159.710913 
L 276.0703 155.319626 
L 276.230208 155.319626 
L 276.230208 150.928338 
L 276.557315 150.928338 
L 276.557315 146.537051 
L 277.813597 146.537051 
L 277.813597 142.145764 
L 278.447001 142.145764 
L 278.447001 137.754477 
L 278.542185 137.754477 
L 278.542185 133.36319 
L 279.157447 133.36319 
L 279.157447 128.971903 
L 279.362819 128.971903 
L 279.362819 124.580616 
L 281.663993 124.580616 
L 281.663993 120.189329 
L 281.718484 120.189329 
L 281.718484 115.798041 
L 282.113552 115.798041 
L 282.113552 111.406754 
L 297.884184 111.406754 
L 297.884184 107.015467 
L 298.618999 107.015467 
L 298.618999 102.62418 
L 307.064647 102.62418 
L 307.064647 98.232893 
L 307.735051 98.232893 
L 307.735051 93.841606 
L 311.36693 93.841606 
L 311.36693 89.450319 
L 313.151627 89.450319 
L 313.151627 85.059032 
L 317.56212 85.059032 
L 317.56212 80.667744 
L 317.56212 80.667744 
L 317.56212 80.667744 
L 426.4825 80.667744 
" style="fill:none;stroke:#f5deb3;stroke-linecap:square;stroke-width:1.5;"/>
   </g>
   <g id="line2d_6"/>
   <g id="line2d_7">
    <path clip-path="url(#p08617d51b8)" d="M 260.532867 278.275665 
L 260.532867 273.884378 
L 260.877166 273.884378 
L 260.877166 269.493091 
L 262.322375 269.493091 
L 262.322375 265.101804 
L 262.766233 265.101804 
L 262.766233 260.710517 
L 263.01446 260.710517 
L 263.01446 256.31923 
L 263.227794 256.31923 
L 263.227794 251.927942 
L 263.770987 251.927942 
L 263.770987 247.536655 
L 264.031763 247.536655 
L 264.031763 243.145368 
L 264.261417 243.145368 
L 264.261417 238.754081 
L 265.070419 238.754081 
L 265.070419 234.362794 
L 265.115534 234.362794 
L 265.115534 229.971507 
L 265.784494 229.971507 
L 265.784494 225.58022 
L 266.89495 225.58022 
L 266.89495 221.188933 
L 267.017094 221.188933 
L 267.017094 216.797645 
L 268.471783 216.797645 
L 268.471783 212.406358 
L 284.510703 212.406358 
L 284.510703 208.015071 
L 285.978646 208.015071 
L 285.978646 203.623784 
L 286.375874 203.623784 
L 286.375874 199.232497 
L 287.165077 199.232497 
L 287.165077 194.84121 
L 287.257673 194.84121 
L 287.257673 190.449923 
L 287.761391 190.449923 
L 287.761391 186.058636 
L 287.921193 186.058636 
L 287.921193 181.667348 
L 289.22266 181.667348 
L 289.22266 177.276061 
L 289.520433 177.276061 
L 289.520433 172.884774 
L 290.228152 172.884774 
L 290.228152 168.493487 
L 290.29454 168.493487 
L 290.29454 164.1022 
L 290.372022 164.1022 
L 290.372022 159.710913 
L 290.415677 159.710913 
L 290.415677 155.319626 
L 291.586115 155.319626 
L 291.586115 150.928338 
L 292.176972 150.928338 
L 292.176972 146.537051 
L 292.361306 146.537051 
L 292.361306 142.145764 
L 293.323687 142.145764 
L 293.323687 137.754477 
L 293.455052 137.754477 
L 293.455052 133.36319 
L 293.865921 133.36319 
L 293.865921 128.971903 
L 293.971684 128.971903 
L 293.971684 124.580616 
L 294.326406 124.580616 
L 294.326406 120.189329 
L 294.805049 120.189329 
L 294.805049 115.798041 
L 295.458106 115.798041 
L 295.458106 111.406754 
L 295.619771 111.406754 
L 295.619771 107.015467 
L 296.426992 107.015467 
L 296.426992 102.62418 
L 296.696894 102.62418 
L 296.696894 98.232893 
L 296.896778 98.232893 
L 296.896778 93.841606 
L 297.372506 93.841606 
L 297.372506 89.450319 
L 318.931483 89.450319 
L 318.931483 85.059032 
L 339.161433 85.059032 
L 339.161433 80.667744 
L 399.064769 80.667744 
L 399.064769 76.276457 
L 413.104892 76.276457 
L 413.104892 71.88517 
L 417.036694 71.88517 
L 417.036694 67.493883 
L 422.58603 67.493883 
L 422.58603 63.102596 
L 431.2695 63.102596 
L 431.2695 58.711309 
L 437.795957 58.711309 
L 437.795957 54.320022 
L 441.045 54.320022 
" style="fill:none;stroke:#f5deb3;stroke-linecap:square;stroke-width:1.5;"/>
   </g>
   <g id="line2d_8">
    <path clip-path="url(#p08617d51b8)" d="M 361.180483 278.275665 
L 361.180483 273.884378 
L 361.235435 273.884378 
L 361.235435 269.493091 
L 361.277981 269.493091 
L 361.277981 265.101804 
L 361.64099 265.101804 
L 361.64099 260.710517 
L 361.652653 260.710517 
L 361.652653 256.31923 
L 361.677346 256.31923 
L 361.677346 251.927942 
L 361.729424 251.927942 
L 361.729424 247.536655 
L 361.73105 247.536655 
L 361.73105 243.145368 
L 361.745681 243.145368 
L 361.745681 238.754081 
L 361.820352 238.754081 
L 361.820352 234.362794 
L 361.861107 234.362794 
L 361.861107 229.971507 
L 362.228966 229.971507 
L 362.228966 225.58022 
L 362.230197 225.58022 
L 362.230197 221.188933 
L 362.377788 221.188933 
L 362.377788 216.797645 
L 363.278525 216.797645 
L 363.278525 212.406358 
L 363.278525 212.406358 
L 363.278525 212.406358 
L 426.4825 212.406358 
" style="fill:none;stroke:#f5deb3;stroke-linecap:square;stroke-width:1.5;"/>
   </g>
   <g id="line2d_9">
    <path clip-path="url(#p08617d51b8)" d="M 259.762353 278.275665 
L 259.762353 273.884378 
L 261.586094 273.884378 
L 261.586094 269.493091 
L 261.696398 269.493091 
L 261.696398 265.101804 
L 263.152844 265.101804 
L 263.152844 260.710517 
L 263.368213 260.710517 
L 263.368213 256.31923 
L 263.430749 256.31923 
L 263.430749 251.927942 
L 263.650112 251.927942 
L 263.650112 247.536655 
L 263.961657 247.536655 
L 263.961657 243.145368 
L 264.51812 243.145368 
L 264.51812 238.754081 
L 264.632803 238.754081 
L 264.632803 234.362794 
L 264.897815 234.362794 
L 264.897815 229.971507 
L 266.162713 229.971507 
L 266.162713 225.58022 
L 266.477107 225.58022 
L 266.477107 221.188933 
L 267.259947 221.188933 
L 267.259947 216.797645 
L 269.015705 216.797645 
L 269.015705 212.406358 
L 269.730455 212.406358 
L 269.730455 208.015071 
L 281.692076 208.015071 
L 281.692076 203.623784 
L 281.866609 203.623784 
L 281.866609 199.232497 
L 282.280877 199.232497 
L 282.280877 194.84121 
L 282.284117 194.84121 
L 282.284117 190.449923 
L 282.761552 190.449923 
L 282.761552 186.058636 
L 282.833254 186.058636 
L 282.833254 181.667348 
L 283.682542 181.667348 
L 283.682542 177.276061 
L 283.99225 177.276061 
L 283.99225 172.884774 
L 284.055046 172.884774 
L 284.055046 168.493487 
L 284.116189 168.493487 
L 284.116189 164.1022 
L 284.151291 164.1022 
L 284.151291 159.710913 
L 284.267 159.710913 
L 284.267 155.319626 
L 284.463928 155.319626 
L 284.463928 150.928338 
L 284.898774 150.928338 
L 284.898774 146.537051 
L 284.996893 146.537051 
L 284.996893 142.145764 
L 285.444872 142.145764 
L 285.444872 137.754477 
L 285.809935 137.754477 
L 285.809935 133.36319 
L 286.180754 133.36319 
L 286.180754 128.971903 
L 286.20646 128.971903 
L 286.20646 124.580616 
L 286.51894 124.580616 
L 286.51894 120.189329 
L 286.938644 120.189329 
L 286.938644 115.798041 
L 287.853581 115.798041 
L 287.853581 111.406754 
L 288.265076 111.406754 
L 288.265076 107.015467 
L 289.01081 107.015467 
L 289.01081 102.62418 
L 289.435647 102.62418 
L 289.435647 98.232893 
L 290.92744 98.232893 
L 290.92744 93.841606 
L 291.55249 93.841606 
L 291.55249 89.450319 
L 291.581314 89.450319 
L 291.581314 85.059032 
L 296.992711 85.059032 
L 296.992711 80.667744 
L 298.557706 80.667744 
L 298.557706 76.276457 
L 299.659524 76.276457 
L 299.659524 71.88517 
L 299.839415 71.88517 
L 299.839415 67.493883 
L 300.074919 67.493883 
L 300.074919 63.102596 
L 300.258777 63.102596 
L 300.258777 58.711309 
L 301.420134 58.711309 
L 301.420134 54.320022 
L 301.884311 54.320022 
L 301.884311 49.928735 
L 302.73206 49.928735 
L 302.73206 45.537447 
L 303.384611 45.537447 
L 303.384611 41.14616 
L 304.383319 41.14616 
L 304.383319 36.754873 
L 305.289204 36.754873 
L 305.289204 32.363586 
L 305.495316 32.363586 
L 305.495316 27.972299 
L 306.08827 27.972299 
L 306.08827 23.581012 
L 306.175381 23.581012 
L 306.175381 19.189725 
L 311.652333 19.189725 
L 311.652333 14.798437 
L 311.652333 14.798437 
L 311.652333 14.798437 
L 426.4825 14.798437 
" style="fill:none;stroke:#f5deb3;stroke-linecap:square;stroke-width:1.5;"/>
   </g>
   <g id="line2d_10">
    <path clip-path="url(#p08617d51b8)" d="M 416.302739 278.275665 
L 416.302739 273.884378 
L 416.6329 273.884378 
L 416.6329 269.493091 
L 417.065597 269.493091 
L 417.065597 265.101804 
L 418.68137 265.101804 
L 418.68137 260.710517 
L 418.783716 260.710517 
L 418.783716 256.31923 
L 419.475768 256.31923 
L 419.475768 251.927942 
L 419.579889 251.927942 
L 419.579889 247.536655 
L 420.58655 247.536655 
L 420.58655 243.145368 
L 425.050428 243.145368 
L 425.050428 238.754081 
L 425.145446 238.754081 
L 425.145446 234.362794 
L 425.145446 234.362794 
L 425.145446 234.362794 
L 426.4825 234.362794 
" style="fill:none;stroke:#f5deb3;stroke-linecap:square;stroke-width:1.5;"/>
   </g>
   <g id="line2d_11">
    <path clip-path="url(#p08617d51b8)" d="M 268.243364 278.275665 
L 268.243364 273.884378 
L 270.717394 273.884378 
L 270.717394 269.493091 
L 274.216862 269.493091 
L 274.216862 265.101804 
L 279.453463 265.101804 
L 279.453463 260.710517 
L 280.207369 260.710517 
L 280.207369 256.31923 
L 280.599802 256.31923 
L 280.599802 251.927942 
L 283.247459 251.927942 
L 283.247459 247.536655 
L 283.288263 247.536655 
L 283.288263 243.145368 
L 283.725871 243.145368 
L 283.725871 238.754081 
L 292.360135 238.754081 
L 292.360135 234.362794 
L 292.799519 234.362794 
L 292.799519 229.971507 
L 295.096876 229.971507 
L 295.096876 225.58022 
L 296.515173 225.58022 
L 296.515173 221.188933 
L 307.093781 221.188933 
L 307.093781 216.797645 
L 373.975293 216.797645 
L 373.975293 212.406358 
L 392.516121 212.406358 
L 392.516121 208.015071 
L 393.394767 208.015071 
L 393.394767 203.623784 
L 395.204065 203.623784 
L 395.204065 199.232497 
L 395.323425 199.232497 
L 395.323425 194.84121 
L 395.355509 194.84121 
L 395.355509 190.449923 
L 395.530333 190.449923 
L 395.530333 186.058636 
L 395.641027 186.058636 
L 395.641027 181.667348 
L 395.66843 181.667348 
L 395.66843 177.276061 
L 395.694386 177.276061 
L 395.694386 172.884774 
L 395.773751 172.884774 
L 395.773751 168.493487 
L 395.790567 168.493487 
L 395.790567 164.1022 
L 395.797408 164.1022 
L 395.797408 159.710913 
L 395.806457 159.710913 
L 395.806457 155.319626 
L 395.82984 155.319626 
L 395.82984 150.928338 
L 395.832298 150.928338 
L 395.832298 146.537051 
L 395.851789 146.537051 
L 395.851789 142.145764 
L 395.868605 142.145764 
L 395.868605 137.754477 
L 395.885536 137.754477 
L 395.885536 133.36319 
L 395.887824 133.36319 
L 395.887824 128.971903 
L 395.908402 128.971903 
L 395.908402 124.580616 
L 395.966406 124.580616 
L 395.966406 120.189329 
L 396.091633 120.189329 
L 396.091633 115.798041 
L 396.179219 115.798041 
L 396.179219 111.406754 
L 396.359756 111.406754 
L 396.359756 107.015467 
L 418.414164 107.015467 
L 418.414164 102.62418 
L 420.999614 102.62418 
L 420.999614 98.232893 
L 421.457935 98.232893 
L 421.457935 93.841606 
L 421.562184 93.841606 
L 421.562184 89.450319 
L 424.60747 89.450319 
L 424.60747 85.059032 
L 441.045 85.059032 
" style="fill:none;stroke:#f5deb3;stroke-linecap:square;stroke-width:1.5;"/>
   </g>
   <g id="line2d_12">
    <path clip-path="url(#p08617d51b8)" d="M 234.763377 278.275665 
L 234.763377 273.884378 
L 238.607874 273.884378 
L 238.607874 269.493091 
L 238.746632 269.493091 
L 238.746632 265.101804 
L 239.968293 265.101804 
L 239.968293 260.710517 
L 240.23336 260.710517 
L 240.23336 256.31923 
L 240.756796 256.31923 
L 240.756796 251.927942 
L 241.143656 251.927942 
L 241.143656 247.536655 
L 241.143656 247.536655 
L 241.143656 243.145368 
L 241.398909 243.145368 
L 241.398909 238.754081 
L 241.398909 238.754081 
L 241.398909 234.362794 
L 241.525751 234.362794 
L 241.525751 229.971507 
L 241.652077 229.971507 
L 241.652077 225.58022 
L 241.777891 225.58022 
L 241.777891 221.188933 
L 241.903197 221.188933 
L 241.903197 216.797645 
L 241.903197 216.797645 
L 241.903197 212.406358 
L 242.276105 212.406358 
L 242.276105 208.015071 
L 242.276105 208.015071 
L 242.276105 203.623784 
L 242.276105 203.623784 
L 242.276105 199.232497 
L 242.644583 199.232497 
L 242.644583 194.84121 
L 242.644583 194.84121 
L 242.644583 190.449923 
L 242.644583 190.449923 
L 242.644583 186.058636 
L 243.008735 186.058636 
L 243.008735 181.667348 
L 243.129175 181.667348 
L 243.129175 177.276061 
L 245.220766 177.276061 
L 245.220766 172.884774 
L 248.823707 172.884774 
L 248.823707 168.493487 
L 262.059198 168.493487 
L 262.059198 164.1022 
L 264.264313 164.1022 
L 264.264313 159.710913 
L 264.566912 159.710913 
L 264.566912 155.319626 
L 264.926177 155.319626 
L 264.926177 150.928338 
L 272.588503 150.928338 
L 272.588503 146.537051 
L 272.588503 146.537051 
L 272.588503 146.537051 
L 426.4825 146.537051 
" style="fill:none;stroke:#f5deb3;stroke-linecap:square;stroke-width:1.5;"/>
   </g>
   <g id="line2d_13"/>
   <g id="line2d_14"/>
   <g id="line2d_15"/>
   <g id="line2d_16">
    <path clip-path="url(#p08617d51b8)" d="M 347.943882 278.275665 
L 347.943882 273.884378 
L 348.630893 273.884378 
L 348.630893 269.493091 
L 353.300623 269.493091 
L 353.300623 265.101804 
L 369.116751 265.101804 
L 369.116751 260.710517 
L 369.188037 260.710517 
L 369.188037 256.31923 
L 369.473702 256.31923 
L 369.473702 251.927942 
L 380.618944 251.927942 
L 380.618944 247.536655 
L 383.341565 247.536655 
L 383.341565 243.145368 
L 384.514782 243.145368 
L 384.514782 238.754081 
L 388.042214 238.754081 
L 388.042214 234.362794 
L 389.927155 234.362794 
L 389.927155 229.971507 
L 391.506908 229.971507 
L 391.506908 225.58022 
L 399.104947 225.58022 
L 399.104947 221.188933 
L 405.502002 221.188933 
L 405.502002 216.797645 
L 405.747614 216.797645 
L 405.747614 212.406358 
L 428.619479 212.406358 
L 428.619479 208.015071 
L 431.742118 208.015071 
L 431.742118 203.623784 
L 431.793077 203.623784 
L 431.793077 199.232497 
L 432.916527 199.232497 
L 432.916527 194.84121 
L 434.305736 194.84121 
L 434.305736 190.449923 
L 434.64004 190.449923 
L 434.64004 186.058636 
L 434.866535 186.058636 
L 434.866535 181.667348 
L 436.439737 181.667348 
L 436.439737 177.276061 
L 436.856838 177.276061 
L 436.856838 172.884774 
L 437.458253 172.884774 
L 437.458253 168.493487 
L 437.572763 168.493487 
L 437.572763 164.1022 
L 437.651588 164.1022 
L 437.651588 159.710913 
L 439.0712 159.710913 
L 439.0712 155.319626 
L 441.045 155.319626 
" style="fill:none;stroke:#f5deb3;stroke-linecap:square;stroke-width:1.5;"/>
   </g>
   <g id="line2d_17">
    <path clip-path="url(#p08617d51b8)" d="M 349.70962 278.275665 
L 349.70962 273.884378 
L 351.736159 273.884378 
L 351.736159 269.493091 
L 353.297504 269.493091 
L 353.297504 265.101804 
L 353.473634 265.101804 
L 353.473634 260.710517 
L 356.616943 260.710517 
L 356.616943 256.31923 
L 357.327777 256.31923 
L 357.327777 251.927942 
L 357.37416 251.927942 
L 357.37416 247.536655 
L 361.256398 247.536655 
L 361.256398 243.145368 
L 361.814489 243.145368 
L 361.814489 238.754081 
L 361.876673 238.754081 
L 361.876673 234.362794 
L 363.317054 234.362794 
L 363.317054 229.971507 
L 364.971016 229.971507 
L 364.971016 225.58022 
L 365.241261 225.58022 
L 365.241261 221.188933 
L 371.078805 221.188933 
L 371.078805 216.797645 
L 375.439918 216.797645 
L 375.439918 212.406358 
L 394.390846 212.406358 
L 394.390846 208.015071 
L 399.396663 208.015071 
L 399.396663 203.623784 
L 400.896456 203.623784 
L 400.896456 199.232497 
L 401.800901 199.232497 
L 401.800901 194.84121 
L 402.612195 194.84121 
L 402.612195 190.449923 
L 402.888853 190.449923 
L 402.888853 186.058636 
L 403.689161 186.058636 
L 403.689161 181.667348 
L 403.968473 181.667348 
L 403.968473 177.276061 
L 404.750839 177.276061 
L 404.750839 172.884774 
L 404.921747 172.884774 
L 404.921747 168.493487 
L 404.921747 168.493487 
L 404.921747 168.493487 
L 426.4825 168.493487 
" style="fill:none;stroke:#f5deb3;stroke-linecap:square;stroke-width:1.5;"/>
   </g>
   <g id="line2d_18">
    <path clip-path="url(#p08617d51b8)" d="M 215.78119 278.275665 
L 215.78119 273.884378 
L 222.824296 273.884378 
L 222.824296 269.493091 
L 222.945228 269.493091 
L 222.945228 265.101804 
L 223.41349 265.101804 
L 223.41349 260.710517 
L 223.585938 260.710517 
L 223.585938 256.31923 
L 225.654295 256.31923 
L 225.654295 251.927942 
L 225.724599 251.927942 
L 225.724599 247.536655 
L 225.794743 247.536655 
L 225.794743 243.145368 
L 225.834755 243.145368 
L 225.834755 238.754081 
L 226.162897 238.754081 
L 226.162897 234.362794 
L 226.409198 234.362794 
L 226.409198 229.971507 
L 226.507174 229.971507 
L 226.507174 225.58022 
L 226.536506 225.58022 
L 226.536506 221.188933 
L 226.682754 221.188933 
L 226.682754 216.797645 
L 226.924978 216.797645 
L 226.924978 212.406358 
L 227.040577 212.406358 
L 227.040577 208.015071 
L 227.894105 208.015071 
L 227.894105 203.623784 
L 228.154928 203.623784 
L 228.154928 199.232497 
L 228.173474 199.232497 
L 228.173474 194.84121 
L 228.219792 194.84121 
L 228.219792 190.449923 
L 228.888273 190.449923 
L 228.888273 186.058636 
L 230.58064 186.058636 
L 230.58064 181.667348 
L 230.794359 181.667348 
L 230.794359 177.276061 
L 234.628152 177.276061 
L 234.628152 172.884774 
L 245.566638 172.884774 
L 245.566638 168.493487 
L 249.023156 168.493487 
L 249.023156 164.1022 
L 250.361849 164.1022 
L 250.361849 159.710913 
L 251.131992 159.710913 
L 251.131992 155.319626 
L 252.414168 155.319626 
L 252.414168 150.928338 
L 252.697179 150.928338 
L 252.697179 146.537051 
L 253.243179 146.537051 
L 253.243179 142.145764 
L 253.571947 142.145764 
L 253.571947 137.754477 
L 254.331108 137.754477 
L 254.331108 133.36319 
L 255.715856 133.36319 
L 255.715856 128.971903 
L 259.133224 128.971903 
L 259.133224 124.580616 
L 260.526334 124.580616 
L 260.526334 120.189329 
L 262.589451 120.189329 
L 262.589451 115.798041 
L 262.929923 115.798041 
L 262.929923 111.406754 
L 265.504729 111.406754 
L 265.504729 107.015467 
L 265.759667 107.015467 
L 265.759667 102.62418 
L 267.141398 102.62418 
L 267.141398 98.232893 
L 272.074967 98.232893 
L 272.074967 93.841606 
L 281.078412 93.841606 
L 281.078412 89.450319 
L 282.63207 89.450319 
L 282.63207 85.059032 
L 287.950896 85.059032 
L 287.950896 80.667744 
L 287.950896 80.667744 
L 287.950896 80.667744 
L 426.4825 80.667744 
" style="fill:none;stroke:#f5deb3;stroke-linecap:square;stroke-width:1.5;"/>
   </g>
   <g id="line2d_19"/>
   <g id="line2d_20">
    <path clip-path="url(#p08617d51b8)" d="M 278.633434 278.275665 
L 278.633434 273.884378 
L 281.673908 273.884378 
L 281.673908 269.493091 
L 284.987986 269.493091 
L 284.987986 265.101804 
L 288.183481 265.101804 
L 288.183481 260.710517 
L 289.696969 260.710517 
L 289.696969 256.31923 
L 290.853792 256.31923 
L 290.853792 251.927942 
L 292.328511 251.927942 
L 292.328511 247.536655 
L 292.987085 247.536655 
L 292.987085 243.145368 
L 294.032751 243.145368 
L 294.032751 238.754081 
L 294.320912 238.754081 
L 294.320912 234.362794 
L 294.489691 234.362794 
L 294.489691 229.971507 
L 296.947306 229.971507 
L 296.947306 225.58022 
L 296.988678 225.58022 
L 296.988678 221.188933 
L 298.222289 221.188933 
L 298.222289 216.797645 
L 298.652467 216.797645 
L 298.652467 212.406358 
L 299.432019 212.406358 
L 299.432019 208.015071 
L 300.979953 208.015071 
L 300.979953 203.623784 
L 301.092352 203.623784 
L 301.092352 199.232497 
L 302.785642 199.232497 
L 302.785642 194.84121 
L 305.124408 194.84121 
L 305.124408 190.449923 
L 309.283874 190.449923 
L 309.283874 186.058636 
L 311.11471 186.058636 
L 311.11471 181.667348 
L 319.860841 181.667348 
L 319.860841 177.276061 
L 327.413699 177.276061 
L 327.413699 172.884774 
L 330.031366 172.884774 
L 330.031366 168.493487 
L 330.072695 168.493487 
L 330.072695 164.1022 
L 331.327665 164.1022 
L 331.327665 159.710913 
L 334.122688 159.710913 
L 334.122688 155.319626 
L 357.399051 155.319626 
L 357.399051 150.928338 
L 358.014931 150.928338 
L 358.014931 146.537051 
L 358.014931 146.537051 
L 358.014931 146.537051 
L 426.4825 146.537051 
" style="fill:none;stroke:#f5deb3;stroke-linecap:square;stroke-width:1.5;"/>
   </g>
   <g id="line2d_21"/>
   <g id="line2d_22">
    <path clip-path="url(#p08617d51b8)" d="M 282.085849 278.275665 
L 282.085849 273.884378 
L 282.272775 273.884378 
L 282.272775 269.493091 
L 283.289832 269.493091 
L 283.289832 265.101804 
L 283.978448 265.101804 
L 283.978448 260.710517 
L 284.282193 260.710517 
L 284.282193 256.31923 
L 284.348952 256.31923 
L 284.348952 251.927942 
L 284.694106 251.927942 
L 284.694106 247.536655 
L 284.993925 247.536655 
L 284.993925 243.145368 
L 285.419991 243.145368 
L 285.419991 238.754081 
L 285.728858 238.754081 
L 285.728858 234.362794 
L 286.411348 234.362794 
L 286.411348 229.971507 
L 287.10689 229.971507 
L 287.10689 225.58022 
L 287.180298 225.58022 
L 287.180298 221.188933 
L 288.137908 221.188933 
L 288.137908 216.797645 
L 288.365106 216.797645 
L 288.365106 212.406358 
L 288.801442 212.406358 
L 288.801442 208.015071 
L 288.823755 208.015071 
L 288.823755 203.623784 
L 289.018634 203.623784 
L 289.018634 199.232497 
L 289.658677 199.232497 
L 289.658677 194.84121 
L 290.323306 194.84121 
L 290.323306 190.449923 
L 290.628082 190.449923 
L 290.628082 186.058636 
L 290.95685 186.058636 
L 290.95685 181.667348 
L 291.483926 181.667348 
L 291.483926 177.276061 
L 292.734816 177.276061 
L 292.734816 172.884774 
L 293.600489 172.884774 
L 293.600489 168.493487 
L 294.30992 168.493487 
L 294.30992 164.1022 
L 294.313218 164.1022 
L 294.313218 159.710913 
L 296.757909 159.710913 
L 296.757909 155.319626 
L 297.514606 155.319626 
L 297.514606 150.928338 
L 298.441492 150.928338 
L 298.441492 146.537051 
L 309.739114 146.537051 
L 309.739114 142.145764 
L 312.025933 142.145764 
L 312.025933 137.754477 
L 312.694329 137.754477 
L 312.694329 133.36319 
L 313.126464 133.36319 
L 313.126464 128.971903 
L 314.390758 128.971903 
L 314.390758 124.580616 
L 315.008322 124.580616 
L 315.008322 120.189329 
L 315.476896 120.189329 
L 315.476896 115.798041 
L 325.632401 115.798041 
L 325.632401 111.406754 
L 327.436001 111.406754 
L 327.436001 107.015467 
L 331.566396 107.015467 
L 331.566396 102.62418 
L 334.95484 102.62418 
L 334.95484 98.232893 
L 341.38861 98.232893 
L 341.38861 93.841606 
L 346.160094 93.841606 
L 346.160094 89.450319 
L 352.145341 89.450319 
L 352.145341 85.059032 
L 352.145341 85.059032 
L 352.145341 85.059032 
L 426.4825 85.059032 
" style="fill:none;stroke:#f5deb3;stroke-linecap:square;stroke-width:1.5;"/>
   </g>
   <g id="line2d_23">
    <path clip-path="url(#p08617d51b8)" d="M 389.184348 278.275665 
L 389.184348 273.884378 
L 396.682341 273.884378 
L 396.682341 269.493091 
L 407.056341 269.493091 
L 407.056341 265.101804 
L 410.49704 265.101804 
L 410.49704 260.710517 
L 416.682695 260.710517 
L 416.682695 256.31923 
L 421.512998 256.31923 
L 421.512998 251.927942 
L 421.512998 251.927942 
L 421.512998 251.927942 
L 426.4825 251.927942 
" style="fill:none;stroke:#f5deb3;stroke-linecap:square;stroke-width:1.5;"/>
   </g>
   <g id="line2d_24">
    <path clip-path="url(#p08617d51b8)" d="M 267.861468 278.275665 
L 267.861468 273.884378 
L 274.801732 273.884378 
L 274.801732 269.493091 
L 276.024744 269.493091 
L 276.024744 265.101804 
L 277.497649 265.101804 
L 277.497649 260.710517 
L 277.52599 260.710517 
L 277.52599 256.31923 
L 278.109684 256.31923 
L 278.109684 251.927942 
L 278.697148 251.927942 
L 278.697148 247.536655 
L 281.411764 247.536655 
L 281.411764 243.145368 
L 282.074434 243.145368 
L 282.074434 238.754081 
L 282.310025 238.754081 
L 282.310025 234.362794 
L 283.113685 234.362794 
L 283.113685 229.971507 
L 283.450946 229.971507 
L 283.450946 225.58022 
L 283.463424 225.58022 
L 283.463424 221.188933 
L 284.898774 221.188933 
L 284.898774 216.797645 
L 285.031014 216.797645 
L 285.031014 212.406358 
L 329.313096 212.406358 
L 329.313096 208.015071 
L 329.488659 208.015071 
L 329.488659 203.623784 
L 329.823539 203.623784 
L 329.823539 199.232497 
L 330.918673 199.232497 
L 330.918673 194.84121 
L 330.938593 194.84121 
L 330.938593 190.449923 
L 331.224501 190.449923 
L 331.224501 186.058636 
L 331.610025 186.058636 
L 331.610025 181.667348 
L 331.762903 181.667348 
L 331.762903 177.276061 
L 331.867572 177.276061 
L 331.867572 172.884774 
L 331.917648 172.884774 
L 331.917648 168.493487 
L 332.395987 168.493487 
L 332.395987 164.1022 
L 332.630821 164.1022 
L 332.630821 159.710913 
L 332.634975 159.710913 
L 332.634975 155.319626 
L 332.709024 155.319626 
L 332.709024 150.928338 
L 332.794661 150.928338 
L 332.794661 146.537051 
L 332.799748 146.537051 
L 332.799748 142.145764 
L 332.949418 142.145764 
L 332.949418 137.754477 
L 332.995568 137.754477 
L 332.995568 133.36319 
L 333.173833 133.36319 
L 333.173833 128.971903 
L 333.292006 128.971903 
L 333.292006 124.580616 
L 333.319213 124.580616 
L 333.319213 120.189329 
L 333.397573 120.189329 
L 333.397573 115.798041 
L 333.738358 115.798041 
L 333.738358 111.406754 
L 333.908124 111.406754 
L 333.908124 107.015467 
L 334.541104 107.015467 
L 334.541104 102.62418 
L 334.964921 102.62418 
L 334.964921 98.232893 
L 335.269928 98.232893 
L 335.269928 93.841606 
L 335.679913 93.841606 
L 335.679913 89.450319 
L 337.129529 89.450319 
L 337.129529 85.059032 
L 338.180828 85.059032 
L 338.180828 80.667744 
L 342.326419 80.667744 
L 342.326419 76.276457 
L 344.188048 76.276457 
L 344.188048 71.88517 
L 344.747751 71.88517 
L 344.747751 67.493883 
L 344.935322 67.493883 
L 344.935322 63.102596 
L 345.286485 63.102596 
L 345.286485 58.711309 
L 345.414375 58.711309 
L 345.414375 54.320022 
L 346.246756 54.320022 
L 346.246756 49.928735 
L 347.108929 49.928735 
L 347.108929 45.537447 
L 347.156387 45.537447 
L 347.156387 41.14616 
L 347.505778 41.14616 
L 347.505778 36.754873 
L 347.732479 36.754873 
L 347.732479 32.363586 
L 348.226431 32.363586 
L 348.226431 27.972299 
L 348.664266 27.972299 
L 348.664266 23.581012 
L 349.04126 23.581012 
L 349.04126 19.189725 
L 349.728595 19.189725 
L 349.728595 14.798437 
L 349.728595 14.798437 
L 349.728595 14.798437 
L 426.4825 14.798437 
" style="fill:none;stroke:#f5deb3;stroke-linecap:square;stroke-width:1.5;"/>
   </g>
   <g id="line2d_25">
    <path clip-path="url(#p08617d51b8)" d="M 365.979746 278.275665 
L 365.979746 273.884378 
L 366.415876 273.884378 
L 366.415876 269.493091 
L 366.555262 269.493091 
L 366.555262 265.101804 
L 366.556547 265.101804 
L 366.556547 260.710517 
L 367.225769 260.710517 
L 367.225769 256.31923 
L 367.455104 256.31923 
L 367.455104 251.927942 
L 367.578722 251.927942 
L 367.578722 247.536655 
L 367.807116 247.536655 
L 367.807116 243.145368 
L 368.185058 243.145368 
L 368.185058 238.754081 
L 368.357672 238.754081 
L 368.357672 234.362794 
L 368.50511 234.362794 
L 368.50511 229.971507 
L 368.801386 229.971507 
L 368.801386 225.58022 
L 369.020193 225.58022 
L 369.020193 221.188933 
L 369.443186 221.188933 
L 369.443186 216.797645 
L 370.406249 216.797645 
L 370.406249 212.406358 
L 370.406249 212.406358 
L 370.406249 212.406358 
L 426.4825 212.406358 
" style="fill:none;stroke:#f5deb3;stroke-linecap:square;stroke-width:1.5;"/>
   </g>
   <g id="line2d_26">
    <path clip-path="url(#p08617d51b8)" d="M 293.679123 278.275665 
L 293.679123 273.884378 
L 296.723348 273.884378 
L 296.723348 269.493091 
L 297.759513 269.493091 
L 297.759513 265.101804 
L 298.607516 265.101804 
L 298.607516 260.710517 
L 298.914185 260.710517 
L 298.914185 256.31923 
L 299.59562 256.31923 
L 299.59562 251.927942 
L 299.750061 251.927942 
L 299.750061 247.536655 
L 300.756604 247.536655 
L 300.756604 243.145368 
L 302.208987 243.145368 
L 302.208987 238.754081 
L 302.494011 238.754081 
L 302.494011 234.362794 
L 303.815647 234.362794 
L 303.815647 229.971507 
L 304.789814 229.971507 
L 304.789814 225.58022 
L 306.107816 225.58022 
L 306.107816 221.188933 
L 306.271221 221.188933 
L 306.271221 216.797645 
L 307.604273 216.797645 
L 307.604273 212.406358 
L 307.617161 212.406358 
L 307.617161 208.015071 
L 308.472854 208.015071 
L 308.472854 203.623784 
L 309.068073 203.623784 
L 309.068073 199.232497 
L 309.811229 199.232497 
L 309.811229 194.84121 
L 312.439238 194.84121 
L 312.439238 190.449923 
L 313.030419 190.449923 
L 313.030419 186.058636 
L 313.469786 186.058636 
L 313.469786 181.667348 
L 313.506515 181.667348 
L 313.506515 177.276061 
L 314.116223 177.276061 
L 314.116223 172.884774 
L 314.177119 172.884774 
L 314.177119 168.493487 
L 314.743205 168.493487 
L 314.743205 164.1022 
L 314.776753 164.1022 
L 314.776753 159.710913 
L 315.17989 159.710913 
L 315.17989 155.319626 
L 315.354418 155.319626 
L 315.354418 150.928338 
L 315.815084 150.928338 
L 315.815084 146.537051 
L 316.757998 146.537051 
L 316.757998 142.145764 
L 316.783045 142.145764 
L 316.783045 137.754477 
L 316.833079 137.754477 
L 316.833079 133.36319 
L 316.860192 133.36319 
L 316.860192 128.971903 
L 316.964698 128.971903 
L 316.964698 124.580616 
L 317.482014 124.580616 
L 317.482014 120.189329 
L 317.803265 120.189329 
L 317.803265 115.798041 
L 318.450092 115.798041 
L 318.450092 111.406754 
L 321.246676 111.406754 
L 321.246676 107.015467 
L 349.017149 107.015467 
L 349.017149 102.62418 
L 357.485799 102.62418 
L 357.485799 98.232893 
L 358.025081 98.232893 
L 358.025081 93.841606 
L 358.438398 93.841606 
L 358.438398 89.450319 
L 361.222469 89.450319 
L 361.222469 85.059032 
L 364.806984 85.059032 
L 364.806984 80.667744 
L 384.823643 80.667744 
L 384.823643 76.276457 
L 390.096079 76.276457 
L 390.096079 71.88517 
L 403.609732 71.88517 
L 403.609732 67.493883 
L 416.606619 67.493883 
L 416.606619 63.102596 
L 416.606619 63.102596 
L 416.606619 63.102596 
L 426.4825 63.102596 
" style="fill:none;stroke:#f5deb3;stroke-linecap:square;stroke-width:1.5;"/>
   </g>
   <g id="line2d_27"/>
   <g id="line2d_28">
    <path clip-path="url(#p08617d51b8)" d="M 249.525557 278.275665 
L 249.525557 273.884378 
L 251.171769 273.884378 
L 251.171769 269.493091 
L 251.935232 269.493091 
L 251.935232 265.101804 
L 252.324929 265.101804 
L 252.324929 260.710517 
L 253.99017 260.710517 
L 253.99017 256.31923 
L 254.151078 256.31923 
L 254.151078 251.927942 
L 254.45055 251.927942 
L 254.45055 247.536655 
L 254.735348 247.536655 
L 254.735348 243.145368 
L 294.575917 243.145368 
L 294.575917 238.754081 
L 294.62275 238.754081 
L 294.62275 234.362794 
L 294.770408 234.362794 
L 294.770408 229.971507 
L 294.865578 229.971507 
L 294.865578 225.58022 
L 295.161118 225.58022 
L 295.161118 221.188933 
L 303.333698 221.188933 
L 303.333698 216.797645 
L 304.653069 216.797645 
L 304.653069 212.406358 
L 304.87126 212.406358 
L 304.87126 208.015071 
L 304.936887 208.015071 
L 304.936887 203.623784 
L 305.035846 203.623784 
L 305.035846 199.232497 
L 305.37012 199.232497 
L 305.37012 194.84121 
L 305.850477 194.84121 
L 305.850477 190.449923 
L 306.248037 190.449923 
L 306.248037 186.058636 
L 306.417404 186.058636 
L 306.417404 181.667348 
L 306.85113 181.667348 
L 306.85113 177.276061 
L 307.206421 177.276061 
L 307.206421 172.884774 
L 307.270913 172.884774 
L 307.270913 168.493487 
L 307.298409 168.493487 
L 307.298409 164.1022 
L 307.769262 164.1022 
L 307.769262 159.710913 
L 307.997086 159.710913 
L 307.997086 155.319626 
L 308.028185 155.319626 
L 308.028185 150.928338 
L 308.161412 150.928338 
L 308.161412 146.537051 
L 308.775684 146.537051 
L 308.775684 142.145764 
L 308.998315 142.145764 
L 308.998315 137.754477 
L 309.090608 137.754477 
L 309.090608 133.36319 
L 309.143808 133.36319 
L 309.143808 128.971903 
L 309.164927 128.971903 
L 309.164927 124.580616 
L 309.809895 124.580616 
L 309.809895 120.189329 
L 310.093401 120.189329 
L 310.093401 115.798041 
L 310.138971 115.798041 
L 310.138971 111.406754 
L 310.186451 111.406754 
L 310.186451 107.015467 
L 310.263452 107.015467 
L 310.263452 102.62418 
L 310.348784 102.62418 
L 310.348784 98.232893 
L 310.702048 98.232893 
L 310.702048 93.841606 
L 311.926413 93.841606 
L 311.926413 89.450319 
L 313.050853 89.450319 
L 313.050853 85.059032 
L 313.171982 85.059032 
L 313.171982 80.667744 
L 314.673149 80.667744 
L 314.673149 76.276457 
L 314.736377 76.276457 
L 314.736377 71.88517 
L 314.94282 71.88517 
L 314.94282 67.493883 
L 315.424067 67.493883 
L 315.424067 63.102596 
L 316.274965 63.102596 
L 316.274965 58.711309 
L 316.734531 58.711309 
L 316.734531 54.320022 
L 317.529894 54.320022 
L 317.529894 49.928735 
L 317.798625 49.928735 
L 317.798625 45.537447 
L 318.562969 45.537447 
L 318.562969 41.14616 
L 319.500828 41.14616 
L 319.500828 36.754873 
L 321.718679 36.754873 
L 321.718679 32.363586 
L 322.798717 32.363586 
L 322.798717 27.972299 
L 323.121739 27.972299 
L 323.121739 23.581012 
L 338.369459 23.581012 
L 338.369459 19.189725 
L 339.505185 19.189725 
L 339.505185 14.798437 
L 339.505185 14.798437 
L 339.505185 14.798437 
L 426.4825 14.798437 
" style="fill:none;stroke:#f5deb3;stroke-linecap:square;stroke-width:1.5;"/>
   </g>
   <g id="line2d_29">
    <path clip-path="url(#p08617d51b8)" d="M 220.728233 278.275665 
L 220.728233 273.884378 
L 220.728233 273.884378 
L 220.728233 269.493091 
L 220.728233 269.493091 
L 220.728233 265.101804 
L 229.701904 265.101804 
L 229.701904 260.710517 
L 229.701904 260.710517 
L 229.701904 256.31923 
L 229.701904 256.31923 
L 229.701904 251.927942 
L 244.2589 251.927942 
L 244.2589 247.536655 
L 244.2589 247.536655 
L 244.2589 243.145368 
L 244.2589 243.145368 
L 244.2589 238.754081 
L 244.784288 238.754081 
L 244.784288 234.362794 
L 244.784288 234.362794 
L 244.784288 229.971507 
L 244.784288 229.971507 
L 244.784288 225.58022 
L 254.18316 225.58022 
L 254.18316 221.188933 
L 254.18316 221.188933 
L 254.18316 216.797645 
L 254.18316 216.797645 
L 254.18316 212.406358 
L 255.413004 212.406358 
L 255.413004 208.015071 
L 255.413004 208.015071 
L 255.413004 203.623784 
L 255.413004 203.623784 
L 255.413004 199.232497 
L 255.673863 199.232497 
L 255.673863 194.84121 
L 255.673863 194.84121 
L 255.673863 190.449923 
L 255.673863 190.449923 
L 255.673863 186.058636 
L 256.543983 186.058636 
L 256.543983 181.667348 
L 256.543983 181.667348 
L 256.543983 177.276061 
L 256.543983 177.276061 
L 256.543983 172.884774 
L 256.588524 172.884774 
L 256.588524 168.493487 
L 256.588524 168.493487 
L 256.588524 164.1022 
L 256.588524 164.1022 
L 256.588524 159.710913 
L 272.603999 159.710913 
L 272.603999 155.319626 
L 272.603999 155.319626 
L 272.603999 150.928338 
L 272.603999 150.928338 
L 272.603999 146.537051 
L 272.603999 146.537051 
L 272.603999 146.537051 
L 426.4825 146.537051 
" style="fill:none;stroke:#f5deb3;stroke-linecap:square;stroke-width:1.5;"/>
   </g>
   <g id="line2d_30"/>
   <g id="matplotlib.axis_1">
    <g id="xtick_1">
     <g id="line2d_31">
      <path clip-path="url(#p08617d51b8)" d="M 69.3625 278.275665 
L 69.3625 12.163665 
" style="fill:none;stroke:#b0b0b0;stroke-linecap:square;stroke-width:0.8;"/>
     </g>
     <g id="line2d_32">
      <defs>
       <path d="M 0 0 
L 0 3.5 
" id="m6f141f856d" style="stroke:#000000;stroke-width:0.8;"/>
      </defs>
      <g>
       <use style="stroke:#000000;stroke-width:0.8;" x="69.3625" xlink:href="#m6f141f856d" y="278.275665"/>
      </g>
     </g>
     <g id="text_1">
      <!-- 0 -->
      <defs>
       <path d="M 31.78125 66.40625 
Q 24.171875 66.40625 20.328125 58.90625 
Q 16.5 51.421875 16.5 36.375 
Q 16.5 21.390625 20.328125 13.890625 
Q 24.171875 6.390625 31.78125 6.390625 
Q 39.453125 6.390625 43.28125 13.890625 
Q 47.125 21.390625 47.125 36.375 
Q 47.125 51.421875 43.28125 58.90625 
Q 39.453125 66.40625 31.78125 66.40625 
M 31.78125 74.21875 
Q 44.046875 74.21875 50.515625 64.515625 
Q 56.984375 54.828125 56.984375 36.375 
Q 56.984375 17.96875 50.515625 8.265625 
Q 44.046875 -1.421875 31.78125 -1.421875 
Q 19.53125 -1.421875 13.0625 8.265625 
Q 6.59375 17.96875 6.59375 36.375 
Q 6.59375 54.828125 13.0625 64.515625 
Q 19.53125 74.21875 31.78125 74.21875 
" id="DejaVuSans-30"/>
      </defs>
      <g transform="translate(63 300.47254)scale(0.2 -0.2)">
       <use xlink:href="#DejaVuSans-30"/>
      </g>
     </g>
    </g>
    <g id="xtick_2">
     <g id="line2d_33">
      <path clip-path="url(#p08617d51b8)" d="M 140.7865 278.275665 
L 140.7865 12.163665 
" style="fill:none;stroke:#b0b0b0;stroke-linecap:square;stroke-width:0.8;"/>
     </g>
     <g id="line2d_34">
      <g>
       <use style="stroke:#000000;stroke-width:0.8;" x="140.7865" xlink:href="#m6f141f856d" y="278.275665"/>
      </g>
     </g>
     <g id="text_2">
      <!-- 1 -->
      <defs>
       <path d="M 12.40625 8.296875 
L 28.515625 8.296875 
L 28.515625 63.921875 
L 10.984375 60.40625 
L 10.984375 69.390625 
L 28.421875 72.90625 
L 38.28125 72.90625 
L 38.28125 8.296875 
L 54.390625 8.296875 
L 54.390625 0 
L 12.40625 0 
z
" id="DejaVuSans-31"/>
      </defs>
      <g transform="translate(134.424 300.47254)scale(0.2 -0.2)">
       <use xlink:href="#DejaVuSans-31"/>
      </g>
     </g>
    </g>
    <g id="xtick_3">
     <g id="line2d_35">
      <path clip-path="url(#p08617d51b8)" d="M 212.2105 278.275665 
L 212.2105 12.163665 
" style="fill:none;stroke:#b0b0b0;stroke-linecap:square;stroke-width:0.8;"/>
     </g>
     <g id="line2d_36">
      <g>
       <use style="stroke:#000000;stroke-width:0.8;" x="212.2105" xlink:href="#m6f141f856d" y="278.275665"/>
      </g>
     </g>
     <g id="text_3">
      <!-- 2 -->
      <defs>
       <path d="M 19.1875 8.296875 
L 53.609375 8.296875 
L 53.609375 0 
L 7.328125 0 
L 7.328125 8.296875 
Q 12.9375 14.109375 22.625 23.890625 
Q 32.328125 33.6875 34.8125 36.53125 
Q 39.546875 41.84375 41.421875 45.53125 
Q 43.3125 49.21875 43.3125 52.78125 
Q 43.3125 58.59375 39.234375 62.25 
Q 35.15625 65.921875 28.609375 65.921875 
Q 23.96875 65.921875 18.8125 64.3125 
Q 13.671875 62.703125 7.8125 59.421875 
L 7.8125 69.390625 
Q 13.765625 71.78125 18.9375 73 
Q 24.125 74.21875 28.421875 74.21875 
Q 39.75 74.21875 46.484375 68.546875 
Q 53.21875 62.890625 53.21875 53.421875 
Q 53.21875 48.921875 51.53125 44.890625 
Q 49.859375 40.875 45.40625 35.40625 
Q 44.1875 33.984375 37.640625 27.21875 
Q 31.109375 20.453125 19.1875 8.296875 
" id="DejaVuSans-32"/>
      </defs>
      <g transform="translate(205.848 300.47254)scale(0.2 -0.2)">
       <use xlink:href="#DejaVuSans-32"/>
      </g>
     </g>
    </g>
    <g id="xtick_4">
     <g id="line2d_37">
      <path clip-path="url(#p08617d51b8)" d="M 283.6345 278.275665 
L 283.6345 12.163665 
" style="fill:none;stroke:#b0b0b0;stroke-linecap:square;stroke-width:0.8;"/>
     </g>
     <g id="line2d_38">
      <g>
       <use style="stroke:#000000;stroke-width:0.8;" x="283.6345" xlink:href="#m6f141f856d" y="278.275665"/>
      </g>
     </g>
     <g id="text_4">
      <!-- 3 -->
      <defs>
       <path d="M 40.578125 39.3125 
Q 47.65625 37.796875 51.625 33 
Q 55.609375 28.21875 55.609375 21.1875 
Q 55.609375 10.40625 48.1875 4.484375 
Q 40.765625 -1.421875 27.09375 -1.421875 
Q 22.515625 -1.421875 17.65625 -0.515625 
Q 12.796875 0.390625 7.625 2.203125 
L 7.625 11.71875 
Q 11.71875 9.328125 16.59375 8.109375 
Q 21.484375 6.890625 26.8125 6.890625 
Q 36.078125 6.890625 40.9375 10.546875 
Q 45.796875 14.203125 45.796875 21.1875 
Q 45.796875 27.640625 41.28125 31.265625 
Q 36.765625 34.90625 28.71875 34.90625 
L 20.21875 34.90625 
L 20.21875 43.015625 
L 29.109375 43.015625 
Q 36.375 43.015625 40.234375 45.921875 
Q 44.09375 48.828125 44.09375 54.296875 
Q 44.09375 59.90625 40.109375 62.90625 
Q 36.140625 65.921875 28.71875 65.921875 
Q 24.65625 65.921875 20.015625 65.03125 
Q 15.375 64.15625 9.8125 62.3125 
L 9.8125 71.09375 
Q 15.4375 72.65625 20.34375 73.4375 
Q 25.25 74.21875 29.59375 74.21875 
Q 40.828125 74.21875 47.359375 69.109375 
Q 53.90625 64.015625 53.90625 55.328125 
Q 53.90625 49.265625 50.4375 45.09375 
Q 46.96875 40.921875 40.578125 39.3125 
" id="DejaVuSans-33"/>
      </defs>
      <g transform="translate(277.272 300.47254)scale(0.2 -0.2)">
       <use xlink:href="#DejaVuSans-33"/>
      </g>
     </g>
    </g>
    <g id="xtick_5">
     <g id="line2d_39">
      <path clip-path="url(#p08617d51b8)" d="M 355.0585 278.275665 
L 355.0585 12.163665 
" style="fill:none;stroke:#b0b0b0;stroke-linecap:square;stroke-width:0.8;"/>
     </g>
     <g id="line2d_40">
      <g>
       <use style="stroke:#000000;stroke-width:0.8;" x="355.0585" xlink:href="#m6f141f856d" y="278.275665"/>
      </g>
     </g>
     <g id="text_5">
      <!-- 4 -->
      <defs>
       <path d="M 37.796875 64.3125 
L 12.890625 25.390625 
L 37.796875 25.390625 
z
M 35.203125 72.90625 
L 47.609375 72.90625 
L 47.609375 25.390625 
L 58.015625 25.390625 
L 58.015625 17.1875 
L 47.609375 17.1875 
L 47.609375 0 
L 37.796875 0 
L 37.796875 17.1875 
L 4.890625 17.1875 
L 4.890625 26.703125 
z
" id="DejaVuSans-34"/>
      </defs>
      <g transform="translate(348.696 300.47254)scale(0.2 -0.2)">
       <use xlink:href="#DejaVuSans-34"/>
      </g>
     </g>
    </g>
    <g id="xtick_6">
     <g id="line2d_41">
      <path clip-path="url(#p08617d51b8)" d="M 426.4825 278.275665 
L 426.4825 12.163665 
" style="fill:none;stroke:#b0b0b0;stroke-linecap:square;stroke-width:0.8;"/>
     </g>
     <g id="line2d_42">
      <g>
       <use style="stroke:#000000;stroke-width:0.8;" x="426.4825" xlink:href="#m6f141f856d" y="278.275665"/>
      </g>
     </g>
     <g id="text_6">
      <!-- 5 -->
      <defs>
       <path d="M 10.796875 72.90625 
L 49.515625 72.90625 
L 49.515625 64.59375 
L 19.828125 64.59375 
L 19.828125 46.734375 
Q 21.96875 47.46875 24.109375 47.828125 
Q 26.265625 48.1875 28.421875 48.1875 
Q 40.625 48.1875 47.75 41.5 
Q 54.890625 34.8125 54.890625 23.390625 
Q 54.890625 11.625 47.5625 5.09375 
Q 40.234375 -1.421875 26.90625 -1.421875 
Q 22.3125 -1.421875 17.546875 -0.640625 
Q 12.796875 0.140625 7.71875 1.703125 
L 7.71875 11.625 
Q 12.109375 9.234375 16.796875 8.0625 
Q 21.484375 6.890625 26.703125 6.890625 
Q 35.15625 6.890625 40.078125 11.328125 
Q 45.015625 15.765625 45.015625 23.390625 
Q 45.015625 31 40.078125 35.4375 
Q 35.15625 39.890625 26.703125 39.890625 
Q 22.75 39.890625 18.8125 39.015625 
Q 14.890625 38.140625 10.796875 36.28125 
z
" id="DejaVuSans-35"/>
      </defs>
      <g transform="translate(420.12 300.47254)scale(0.2 -0.2)">
       <use xlink:href="#DejaVuSans-35"/>
      </g>
     </g>
    </g>
    <g id="xtick_7">
     <g id="line2d_43">
      <defs>
       <path d="M 0 0 
L 0 2 
" id="m84b3081015" style="stroke:#000000;stroke-width:0.6;"/>
      </defs>
      <g>
       <use style="stroke:#000000;stroke-width:0.6;" x="90.863266" xlink:href="#m84b3081015" y="278.275665"/>
      </g>
     </g>
    </g>
    <g id="xtick_8">
     <g id="line2d_44">
      <g>
       <use style="stroke:#000000;stroke-width:0.6;" x="103.440408" xlink:href="#m84b3081015" y="278.275665"/>
      </g>
     </g>
    </g>
    <g id="xtick_9">
     <g id="line2d_45">
      <g>
       <use style="stroke:#000000;stroke-width:0.6;" x="112.364033" xlink:href="#m84b3081015" y="278.275665"/>
      </g>
     </g>
    </g>
    <g id="xtick_10">
     <g id="line2d_46">
      <g>
       <use style="stroke:#000000;stroke-width:0.6;" x="119.285734" xlink:href="#m84b3081015" y="278.275665"/>
      </g>
     </g>
    </g>
    <g id="xtick_11">
     <g id="line2d_47">
      <g>
       <use style="stroke:#000000;stroke-width:0.6;" x="124.941175" xlink:href="#m84b3081015" y="278.275665"/>
      </g>
     </g>
    </g>
    <g id="xtick_12">
     <g id="line2d_48">
      <g>
       <use style="stroke:#000000;stroke-width:0.6;" x="129.722782" xlink:href="#m84b3081015" y="278.275665"/>
      </g>
     </g>
    </g>
    <g id="xtick_13">
     <g id="line2d_49">
      <g>
       <use style="stroke:#000000;stroke-width:0.6;" x="133.864799" xlink:href="#m84b3081015" y="278.275665"/>
      </g>
     </g>
    </g>
    <g id="xtick_14">
     <g id="line2d_50">
      <g>
       <use style="stroke:#000000;stroke-width:0.6;" x="137.518317" xlink:href="#m84b3081015" y="278.275665"/>
      </g>
     </g>
    </g>
    <g id="xtick_15">
     <g id="line2d_51">
      <g>
       <use style="stroke:#000000;stroke-width:0.6;" x="233.711266" xlink:href="#m84b3081015" y="278.275665"/>
      </g>
     </g>
    </g>
    <g id="xtick_16">
     <g id="line2d_52">
      <g>
       <use style="stroke:#000000;stroke-width:0.6;" x="246.288408" xlink:href="#m84b3081015" y="278.275665"/>
      </g>
     </g>
    </g>
    <g id="xtick_17">
     <g id="line2d_53">
      <g>
       <use style="stroke:#000000;stroke-width:0.6;" x="255.212033" xlink:href="#m84b3081015" y="278.275665"/>
      </g>
     </g>
    </g>
    <g id="xtick_18">
     <g id="line2d_54">
      <g>
       <use style="stroke:#000000;stroke-width:0.6;" x="262.133734" xlink:href="#m84b3081015" y="278.275665"/>
      </g>
     </g>
    </g>
    <g id="xtick_19">
     <g id="line2d_55">
      <g>
       <use style="stroke:#000000;stroke-width:0.6;" x="267.789175" xlink:href="#m84b3081015" y="278.275665"/>
      </g>
     </g>
    </g>
    <g id="xtick_20">
     <g id="line2d_56">
      <g>
       <use style="stroke:#000000;stroke-width:0.6;" x="272.570782" xlink:href="#m84b3081015" y="278.275665"/>
      </g>
     </g>
    </g>
    <g id="xtick_21">
     <g id="line2d_57">
      <g>
       <use style="stroke:#000000;stroke-width:0.6;" x="276.712799" xlink:href="#m84b3081015" y="278.275665"/>
      </g>
     </g>
    </g>
    <g id="xtick_22">
     <g id="line2d_58">
      <g>
       <use style="stroke:#000000;stroke-width:0.6;" x="280.366317" xlink:href="#m84b3081015" y="278.275665"/>
      </g>
     </g>
    </g>
    <g id="xtick_23">
     <g id="line2d_59">
      <g>
       <use style="stroke:#000000;stroke-width:0.6;" x="376.559266" xlink:href="#m84b3081015" y="278.275665"/>
      </g>
     </g>
    </g>
    <g id="xtick_24">
     <g id="line2d_60">
      <g>
       <use style="stroke:#000000;stroke-width:0.6;" x="389.136408" xlink:href="#m84b3081015" y="278.275665"/>
      </g>
     </g>
    </g>
    <g id="xtick_25">
     <g id="line2d_61">
      <g>
       <use style="stroke:#000000;stroke-width:0.6;" x="398.060033" xlink:href="#m84b3081015" y="278.275665"/>
      </g>
     </g>
    </g>
    <g id="xtick_26">
     <g id="line2d_62">
      <g>
       <use style="stroke:#000000;stroke-width:0.6;" x="404.981734" xlink:href="#m84b3081015" y="278.275665"/>
      </g>
     </g>
    </g>
    <g id="xtick_27">
     <g id="line2d_63">
      <g>
       <use style="stroke:#000000;stroke-width:0.6;" x="410.637175" xlink:href="#m84b3081015" y="278.275665"/>
      </g>
     </g>
    </g>
    <g id="xtick_28">
     <g id="line2d_64">
      <g>
       <use style="stroke:#000000;stroke-width:0.6;" x="415.418782" xlink:href="#m84b3081015" y="278.275665"/>
      </g>
     </g>
    </g>
    <g id="xtick_29">
     <g id="line2d_65">
      <g>
       <use style="stroke:#000000;stroke-width:0.6;" x="419.560799" xlink:href="#m84b3081015" y="278.275665"/>
      </g>
     </g>
    </g>
    <g id="xtick_30">
     <g id="line2d_66">
      <g>
       <use style="stroke:#000000;stroke-width:0.6;" x="423.214317" xlink:href="#m84b3081015" y="278.275665"/>
      </g>
     </g>
    </g>
    <g id="text_7">
     <!-- log10 of FEvals / DIM -->
     <defs>
      <path d="M 9.421875 75.984375 
L 18.40625 75.984375 
L 18.40625 0 
L 9.421875 0 
z
" id="DejaVuSans-6c"/>
      <path d="M 30.609375 48.390625 
Q 23.390625 48.390625 19.1875 42.75 
Q 14.984375 37.109375 14.984375 27.296875 
Q 14.984375 17.484375 19.15625 11.84375 
Q 23.34375 6.203125 30.609375 6.203125 
Q 37.796875 6.203125 41.984375 11.859375 
Q 46.1875 17.53125 46.1875 27.296875 
Q 46.1875 37.015625 41.984375 42.703125 
Q 37.796875 48.390625 30.609375 48.390625 
M 30.609375 56 
Q 42.328125 56 49.015625 48.375 
Q 55.71875 40.765625 55.71875 27.296875 
Q 55.71875 13.875 49.015625 6.21875 
Q 42.328125 -1.421875 30.609375 -1.421875 
Q 18.84375 -1.421875 12.171875 6.21875 
Q 5.515625 13.875 5.515625 27.296875 
Q 5.515625 40.765625 12.171875 48.375 
Q 18.84375 56 30.609375 56 
" id="DejaVuSans-6f"/>
      <path d="M 45.40625 27.984375 
Q 45.40625 37.75 41.375 43.109375 
Q 37.359375 48.484375 30.078125 48.484375 
Q 22.859375 48.484375 18.828125 43.109375 
Q 14.796875 37.75 14.796875 27.984375 
Q 14.796875 18.265625 18.828125 12.890625 
Q 22.859375 7.515625 30.078125 7.515625 
Q 37.359375 7.515625 41.375 12.890625 
Q 45.40625 18.265625 45.40625 27.984375 
M 54.390625 6.78125 
Q 54.390625 -7.171875 48.1875 -13.984375 
Q 42 -20.796875 29.203125 -20.796875 
Q 24.46875 -20.796875 20.265625 -20.09375 
Q 16.0625 -19.390625 12.109375 -17.921875 
L 12.109375 -9.1875 
Q 16.0625 -11.328125 19.921875 -12.34375 
Q 23.78125 -13.375 27.78125 -13.375 
Q 36.625 -13.375 41.015625 -8.765625 
Q 45.40625 -4.15625 45.40625 5.171875 
L 45.40625 9.625 
Q 42.625 4.78125 38.28125 2.390625 
Q 33.9375 0 27.875 0 
Q 17.828125 0 11.671875 7.65625 
Q 5.515625 15.328125 5.515625 27.984375 
Q 5.515625 40.671875 11.671875 48.328125 
Q 17.828125 56 27.875 56 
Q 33.9375 56 38.28125 53.609375 
Q 42.625 51.21875 45.40625 46.390625 
L 45.40625 54.6875 
L 54.390625 54.6875 
z
" id="DejaVuSans-67"/>
      <path id="DejaVuSans-20"/>
      <path d="M 37.109375 75.984375 
L 37.109375 68.5 
L 28.515625 68.5 
Q 23.6875 68.5 21.796875 66.546875 
Q 19.921875 64.59375 19.921875 59.515625 
L 19.921875 54.6875 
L 34.71875 54.6875 
L 34.71875 47.703125 
L 19.921875 47.703125 
L 19.921875 0 
L 10.890625 0 
L 10.890625 47.703125 
L 2.296875 47.703125 
L 2.296875 54.6875 
L 10.890625 54.6875 
L 10.890625 58.5 
Q 10.890625 67.625 15.140625 71.796875 
Q 19.390625 75.984375 28.609375 75.984375 
z
" id="DejaVuSans-66"/>
      <path d="M 9.8125 72.90625 
L 51.703125 72.90625 
L 51.703125 64.59375 
L 19.671875 64.59375 
L 19.671875 43.109375 
L 48.578125 43.109375 
L 48.578125 34.8125 
L 19.671875 34.8125 
L 19.671875 0 
L 9.8125 0 
z
" id="DejaVuSans-46"/>
      <path d="M 9.8125 72.90625 
L 55.90625 72.90625 
L 55.90625 64.59375 
L 19.671875 64.59375 
L 19.671875 43.015625 
L 54.390625 43.015625 
L 54.390625 34.71875 
L 19.671875 34.71875 
L 19.671875 8.296875 
L 56.78125 8.296875 
L 56.78125 0 
L 9.8125 0 
z
" id="DejaVuSans-45"/>
      <path d="M 2.984375 54.6875 
L 12.5 54.6875 
L 29.59375 8.796875 
L 46.6875 54.6875 
L 56.203125 54.6875 
L 35.6875 0 
L 23.484375 0 
z
" id="DejaVuSans-76"/>
      <path d="M 34.28125 27.484375 
Q 23.390625 27.484375 19.1875 25 
Q 14.984375 22.515625 14.984375 16.5 
Q 14.984375 11.71875 18.140625 8.90625 
Q 21.296875 6.109375 26.703125 6.109375 
Q 34.1875 6.109375 38.703125 11.40625 
Q 43.21875 16.703125 43.21875 25.484375 
L 43.21875 27.484375 
z
M 52.203125 31.203125 
L 52.203125 0 
L 43.21875 0 
L 43.21875 8.296875 
Q 40.140625 3.328125 35.546875 0.953125 
Q 30.953125 -1.421875 24.3125 -1.421875 
Q 15.921875 -1.421875 10.953125 3.296875 
Q 6 8.015625 6 15.921875 
Q 6 25.140625 12.171875 29.828125 
Q 18.359375 34.515625 30.609375 34.515625 
L 43.21875 34.515625 
L 43.21875 35.40625 
Q 43.21875 41.609375 39.140625 45 
Q 35.0625 48.390625 27.6875 48.390625 
Q 23 48.390625 18.546875 47.265625 
Q 14.109375 46.140625 10.015625 43.890625 
L 10.015625 52.203125 
Q 14.9375 54.109375 19.578125 55.046875 
Q 24.21875 56 28.609375 56 
Q 40.484375 56 46.34375 49.84375 
Q 52.203125 43.703125 52.203125 31.203125 
" id="DejaVuSans-61"/>
      <path d="M 44.28125 53.078125 
L 44.28125 44.578125 
Q 40.484375 46.53125 36.375 47.5 
Q 32.28125 48.484375 27.875 48.484375 
Q 21.1875 48.484375 17.84375 46.4375 
Q 14.5 44.390625 14.5 40.28125 
Q 14.5 37.15625 16.890625 35.375 
Q 19.28125 33.59375 26.515625 31.984375 
L 29.59375 31.296875 
Q 39.15625 29.25 43.1875 25.515625 
Q 47.21875 21.78125 47.21875 15.09375 
Q 47.21875 7.46875 41.1875 3.015625 
Q 35.15625 -1.421875 24.609375 -1.421875 
Q 20.21875 -1.421875 15.453125 -0.5625 
Q 10.6875 0.296875 5.421875 2 
L 5.421875 11.28125 
Q 10.40625 8.6875 15.234375 7.390625 
Q 20.0625 6.109375 24.8125 6.109375 
Q 31.15625 6.109375 34.5625 8.28125 
Q 37.984375 10.453125 37.984375 14.40625 
Q 37.984375 18.0625 35.515625 20.015625 
Q 33.0625 21.96875 24.703125 23.78125 
L 21.578125 24.515625 
Q 13.234375 26.265625 9.515625 29.90625 
Q 5.8125 33.546875 5.8125 39.890625 
Q 5.8125 47.609375 11.28125 51.796875 
Q 16.75 56 26.8125 56 
Q 31.78125 56 36.171875 55.265625 
Q 40.578125 54.546875 44.28125 53.078125 
" id="DejaVuSans-73"/>
      <path d="M 25.390625 72.90625 
L 33.6875 72.90625 
L 8.296875 -9.28125 
L 0 -9.28125 
z
" id="DejaVuSans-2f"/>
      <path d="M 19.671875 64.796875 
L 19.671875 8.109375 
L 31.59375 8.109375 
Q 46.6875 8.109375 53.6875 14.9375 
Q 60.6875 21.78125 60.6875 36.53125 
Q 60.6875 51.171875 53.6875 57.984375 
Q 46.6875 64.796875 31.59375 64.796875 
z
M 9.8125 72.90625 
L 30.078125 72.90625 
Q 51.265625 72.90625 61.171875 64.09375 
Q 71.09375 55.28125 71.09375 36.53125 
Q 71.09375 17.671875 61.125 8.828125 
Q 51.171875 0 30.078125 0 
L 9.8125 0 
z
" id="DejaVuSans-44"/>
      <path d="M 9.8125 72.90625 
L 19.671875 72.90625 
L 19.671875 0 
L 9.8125 0 
z
" id="DejaVuSans-49"/>
      <path d="M 9.8125 72.90625 
L 24.515625 72.90625 
L 43.109375 23.296875 
L 61.8125 72.90625 
L 76.515625 72.90625 
L 76.515625 0 
L 66.890625 0 
L 66.890625 64.015625 
L 48.09375 14.015625 
L 38.1875 14.015625 
L 19.390625 64.015625 
L 19.390625 0 
L 9.8125 0 
z
" id="DejaVuSans-4d"/>
     </defs>
     <g transform="translate(142.849063 323.82879)scale(0.2 -0.2)">
      <use xlink:href="#DejaVuSans-6c"/>
      <use x="27.783203" xlink:href="#DejaVuSans-6f"/>
      <use x="88.964844" xlink:href="#DejaVuSans-67"/>
      <use x="152.441406" xlink:href="#DejaVuSans-31"/>
      <use x="216.064453" xlink:href="#DejaVuSans-30"/>
      <use x="279.6875" xlink:href="#DejaVuSans-20"/>
      <use x="311.474609" xlink:href="#DejaVuSans-6f"/>
      <use x="372.65625" xlink:href="#DejaVuSans-66"/>
      <use x="407.861328" xlink:href="#DejaVuSans-20"/>
      <use x="439.648438" xlink:href="#DejaVuSans-46"/>
      <use x="497.167969" xlink:href="#DejaVuSans-45"/>
      <use x="560.351562" xlink:href="#DejaVuSans-76"/>
      <use x="619.53125" xlink:href="#DejaVuSans-61"/>
      <use x="680.810547" xlink:href="#DejaVuSans-6c"/>
      <use x="708.59375" xlink:href="#DejaVuSans-73"/>
      <use x="760.693359" xlink:href="#DejaVuSans-20"/>
      <use x="792.480469" xlink:href="#DejaVuSans-2f"/>
      <use x="826.171875" xlink:href="#DejaVuSans-20"/>
      <use x="857.958984" xlink:href="#DejaVuSans-44"/>
      <use x="934.960938" xlink:href="#DejaVuSans-49"/>
      <use x="964.453125" xlink:href="#DejaVuSans-4d"/>
     </g>
    </g>
   </g>
   <g id="matplotlib.axis_2">
    <g id="ytick_1">
     <g id="line2d_67">
      <path clip-path="url(#p08617d51b8)" d="M 69.3625 278.275665 
L 426.4825 278.275665 
" style="fill:none;stroke:#b0b0b0;stroke-linecap:square;stroke-width:0.8;"/>
     </g>
     <g id="line2d_68">
      <defs>
       <path d="M 0 0 
L -3.5 0 
" id="mfe0d92c623" style="stroke:#000000;stroke-width:0.8;"/>
      </defs>
      <g>
       <use style="stroke:#000000;stroke-width:0.8;" x="69.3625" xlink:href="#mfe0d92c623" y="278.275665"/>
      </g>
     </g>
     <g id="text_8">
      <!-- 0.0 -->
      <defs>
       <path d="M 10.6875 12.40625 
L 21 12.40625 
L 21 0 
L 10.6875 0 
z
" id="DejaVuSans-2e"/>
      </defs>
      <g transform="translate(30.55625 285.874103)scale(0.2 -0.2)">
       <use xlink:href="#DejaVuSans-30"/>
       <use x="63.623047" xlink:href="#DejaVuSans-2e"/>
       <use x="95.410156" xlink:href="#DejaVuSans-30"/>
      </g>
     </g>
    </g>
    <g id="ytick_2">
     <g id="line2d_69">
      <path clip-path="url(#p08617d51b8)" d="M 69.3625 225.58022 
L 426.4825 225.58022 
" style="fill:none;stroke:#b0b0b0;stroke-linecap:square;stroke-width:0.8;"/>
     </g>
     <g id="line2d_70">
      <g>
       <use style="stroke:#000000;stroke-width:0.8;" x="69.3625" xlink:href="#mfe0d92c623" y="225.58022"/>
      </g>
     </g>
     <g id="text_9">
      <!-- 0.2 -->
      <g transform="translate(30.55625 233.178657)scale(0.2 -0.2)">
       <use xlink:href="#DejaVuSans-30"/>
       <use x="63.623047" xlink:href="#DejaVuSans-2e"/>
       <use x="95.410156" xlink:href="#DejaVuSans-32"/>
      </g>
     </g>
    </g>
    <g id="ytick_3">
     <g id="line2d_71">
      <path clip-path="url(#p08617d51b8)" d="M 69.3625 172.884774 
L 426.4825 172.884774 
" style="fill:none;stroke:#b0b0b0;stroke-linecap:square;stroke-width:0.8;"/>
     </g>
     <g id="line2d_72">
      <g>
       <use style="stroke:#000000;stroke-width:0.8;" x="69.3625" xlink:href="#mfe0d92c623" y="172.884774"/>
      </g>
     </g>
     <g id="text_10">
      <!-- 0.4 -->
      <g transform="translate(30.55625 180.483212)scale(0.2 -0.2)">
       <use xlink:href="#DejaVuSans-30"/>
       <use x="63.623047" xlink:href="#DejaVuSans-2e"/>
       <use x="95.410156" xlink:href="#DejaVuSans-34"/>
      </g>
     </g>
    </g>
    <g id="ytick_4">
     <g id="line2d_73">
      <path clip-path="url(#p08617d51b8)" d="M 69.3625 120.189329 
L 426.4825 120.189329 
" style="fill:none;stroke:#b0b0b0;stroke-linecap:square;stroke-width:0.8;"/>
     </g>
     <g id="line2d_74">
      <g>
       <use style="stroke:#000000;stroke-width:0.8;" x="69.3625" xlink:href="#mfe0d92c623" y="120.189329"/>
      </g>
     </g>
     <g id="text_11">
      <!-- 0.6 -->
      <defs>
       <path d="M 33.015625 40.375 
Q 26.375 40.375 22.484375 35.828125 
Q 18.609375 31.296875 18.609375 23.390625 
Q 18.609375 15.53125 22.484375 10.953125 
Q 26.375 6.390625 33.015625 6.390625 
Q 39.65625 6.390625 43.53125 10.953125 
Q 47.40625 15.53125 47.40625 23.390625 
Q 47.40625 31.296875 43.53125 35.828125 
Q 39.65625 40.375 33.015625 40.375 
M 52.59375 71.296875 
L 52.59375 62.3125 
Q 48.875 64.0625 45.09375 64.984375 
Q 41.3125 65.921875 37.59375 65.921875 
Q 27.828125 65.921875 22.671875 59.328125 
Q 17.53125 52.734375 16.796875 39.40625 
Q 19.671875 43.65625 24.015625 45.921875 
Q 28.375 48.1875 33.59375 48.1875 
Q 44.578125 48.1875 50.953125 41.515625 
Q 57.328125 34.859375 57.328125 23.390625 
Q 57.328125 12.15625 50.6875 5.359375 
Q 44.046875 -1.421875 33.015625 -1.421875 
Q 20.359375 -1.421875 13.671875 8.265625 
Q 6.984375 17.96875 6.984375 36.375 
Q 6.984375 53.65625 15.1875 63.9375 
Q 23.390625 74.21875 37.203125 74.21875 
Q 40.921875 74.21875 44.703125 73.484375 
Q 48.484375 72.75 52.59375 71.296875 
" id="DejaVuSans-36"/>
      </defs>
      <g transform="translate(30.55625 127.787766)scale(0.2 -0.2)">
       <use xlink:href="#DejaVuSans-30"/>
       <use x="63.623047" xlink:href="#DejaVuSans-2e"/>
       <use x="95.410156" xlink:href="#DejaVuSans-36"/>
      </g>
     </g>
    </g>
    <g id="ytick_5">
     <g id="line2d_75">
      <path clip-path="url(#p08617d51b8)" d="M 69.3625 67.493883 
L 426.4825 67.493883 
" style="fill:none;stroke:#b0b0b0;stroke-linecap:square;stroke-width:0.8;"/>
     </g>
     <g id="line2d_76">
      <g>
       <use style="stroke:#000000;stroke-width:0.8;" x="69.3625" xlink:href="#mfe0d92c623" y="67.493883"/>
      </g>
     </g>
     <g id="text_12">
      <!-- 0.8 -->
      <defs>
       <path d="M 31.78125 34.625 
Q 24.75 34.625 20.71875 30.859375 
Q 16.703125 27.09375 16.703125 20.515625 
Q 16.703125 13.921875 20.71875 10.15625 
Q 24.75 6.390625 31.78125 6.390625 
Q 38.8125 6.390625 42.859375 10.171875 
Q 46.921875 13.96875 46.921875 20.515625 
Q 46.921875 27.09375 42.890625 30.859375 
Q 38.875 34.625 31.78125 34.625 
M 21.921875 38.8125 
Q 15.578125 40.375 12.03125 44.71875 
Q 8.5 49.078125 8.5 55.328125 
Q 8.5 64.0625 14.71875 69.140625 
Q 20.953125 74.21875 31.78125 74.21875 
Q 42.671875 74.21875 48.875 69.140625 
Q 55.078125 64.0625 55.078125 55.328125 
Q 55.078125 49.078125 51.53125 44.71875 
Q 48 40.375 41.703125 38.8125 
Q 48.828125 37.15625 52.796875 32.3125 
Q 56.78125 27.484375 56.78125 20.515625 
Q 56.78125 9.90625 50.3125 4.234375 
Q 43.84375 -1.421875 31.78125 -1.421875 
Q 19.734375 -1.421875 13.25 4.234375 
Q 6.78125 9.90625 6.78125 20.515625 
Q 6.78125 27.484375 10.78125 32.3125 
Q 14.796875 37.15625 21.921875 38.8125 
M 18.3125 54.390625 
Q 18.3125 48.734375 21.84375 45.5625 
Q 25.390625 42.390625 31.78125 42.390625 
Q 38.140625 42.390625 41.71875 45.5625 
Q 45.3125 48.734375 45.3125 54.390625 
Q 45.3125 60.0625 41.71875 63.234375 
Q 38.140625 66.40625 31.78125 66.40625 
Q 25.390625 66.40625 21.84375 63.234375 
Q 18.3125 60.0625 18.3125 54.390625 
" id="DejaVuSans-38"/>
      </defs>
      <g transform="translate(30.55625 75.092321)scale(0.2 -0.2)">
       <use xlink:href="#DejaVuSans-30"/>
       <use x="63.623047" xlink:href="#DejaVuSans-2e"/>
       <use x="95.410156" xlink:href="#DejaVuSans-38"/>
      </g>
     </g>
    </g>
    <g id="ytick_6">
     <g id="line2d_77">
      <path clip-path="url(#p08617d51b8)" d="M 69.3625 14.798437 
L 426.4825 14.798437 
" style="fill:none;stroke:#b0b0b0;stroke-linecap:square;stroke-width:0.8;"/>
     </g>
     <g id="line2d_78">
      <g>
       <use style="stroke:#000000;stroke-width:0.8;" x="69.3625" xlink:href="#mfe0d92c623" y="14.798437"/>
      </g>
     </g>
     <g id="text_13">
      <!-- 1.0 -->
      <g transform="translate(30.55625 22.396875)scale(0.2 -0.2)">
       <use xlink:href="#DejaVuSans-31"/>
       <use x="63.623047" xlink:href="#DejaVuSans-2e"/>
       <use x="95.410156" xlink:href="#DejaVuSans-30"/>
      </g>
     </g>
    </g>
    <g id="text_14">
     <!-- proportion of trials -->
     <defs>
      <path d="M 18.109375 8.203125 
L 18.109375 -20.796875 
L 9.078125 -20.796875 
L 9.078125 54.6875 
L 18.109375 54.6875 
L 18.109375 46.390625 
Q 20.953125 51.265625 25.265625 53.625 
Q 29.59375 56 35.59375 56 
Q 45.5625 56 51.78125 48.09375 
Q 58.015625 40.1875 58.015625 27.296875 
Q 58.015625 14.40625 51.78125 6.484375 
Q 45.5625 -1.421875 35.59375 -1.421875 
Q 29.59375 -1.421875 25.265625 0.953125 
Q 20.953125 3.328125 18.109375 8.203125 
M 48.6875 27.296875 
Q 48.6875 37.203125 44.609375 42.84375 
Q 40.53125 48.484375 33.40625 48.484375 
Q 26.265625 48.484375 22.1875 42.84375 
Q 18.109375 37.203125 18.109375 27.296875 
Q 18.109375 17.390625 22.1875 11.75 
Q 26.265625 6.109375 33.40625 6.109375 
Q 40.53125 6.109375 44.609375 11.75 
Q 48.6875 17.390625 48.6875 27.296875 
" id="DejaVuSans-70"/>
      <path d="M 41.109375 46.296875 
Q 39.59375 47.171875 37.8125 47.578125 
Q 36.03125 48 33.890625 48 
Q 26.265625 48 22.1875 43.046875 
Q 18.109375 38.09375 18.109375 28.8125 
L 18.109375 0 
L 9.078125 0 
L 9.078125 54.6875 
L 18.109375 54.6875 
L 18.109375 46.1875 
Q 20.953125 51.171875 25.484375 53.578125 
Q 30.03125 56 36.53125 56 
Q 37.453125 56 38.578125 55.875 
Q 39.703125 55.765625 41.0625 55.515625 
z
" id="DejaVuSans-72"/>
      <path d="M 18.3125 70.21875 
L 18.3125 54.6875 
L 36.8125 54.6875 
L 36.8125 47.703125 
L 18.3125 47.703125 
L 18.3125 18.015625 
Q 18.3125 11.328125 20.140625 9.421875 
Q 21.96875 7.515625 27.59375 7.515625 
L 36.8125 7.515625 
L 36.8125 0 
L 27.59375 0 
Q 17.1875 0 13.234375 3.875 
Q 9.28125 7.765625 9.28125 18.015625 
L 9.28125 47.703125 
L 2.6875 47.703125 
L 2.6875 54.6875 
L 9.28125 54.6875 
L 9.28125 70.21875 
z
" id="DejaVuSans-74"/>
      <path d="M 9.421875 54.6875 
L 18.40625 54.6875 
L 18.40625 0 
L 9.421875 0 
z
M 9.421875 75.984375 
L 18.40625 75.984375 
L 18.40625 64.59375 
L 9.421875 64.59375 
z
" id="DejaVuSans-69"/>
      <path d="M 54.890625 33.015625 
L 54.890625 0 
L 45.90625 0 
L 45.90625 32.71875 
Q 45.90625 40.484375 42.875 44.328125 
Q 39.84375 48.1875 33.796875 48.1875 
Q 26.515625 48.1875 22.3125 43.546875 
Q 18.109375 38.921875 18.109375 30.90625 
L 18.109375 0 
L 9.078125 0 
L 9.078125 54.6875 
L 18.109375 54.6875 
L 18.109375 46.1875 
Q 21.34375 51.125 25.703125 53.5625 
Q 30.078125 56 35.796875 56 
Q 45.21875 56 50.046875 50.171875 
Q 54.890625 44.34375 54.890625 33.015625 
" id="DejaVuSans-6e"/>
     </defs>
     <g transform="translate(22.396875 238.44779)rotate(-90)scale(0.2 -0.2)">
      <use xlink:href="#DejaVuSans-70"/>
      <use x="63.476562" xlink:href="#DejaVuSans-72"/>
      <use x="104.558594" xlink:href="#DejaVuSans-6f"/>
      <use x="165.740234" xlink:href="#DejaVuSans-70"/>
      <use x="229.216797" xlink:href="#DejaVuSans-6f"/>
      <use x="290.398438" xlink:href="#DejaVuSans-72"/>
      <use x="331.511719" xlink:href="#DejaVuSans-74"/>
      <use x="370.720703" xlink:href="#DejaVuSans-69"/>
      <use x="398.503906" xlink:href="#DejaVuSans-6f"/>
      <use x="459.685547" xlink:href="#DejaVuSans-6e"/>
      <use x="523.064453" xlink:href="#DejaVuSans-20"/>
      <use x="554.851562" xlink:href="#DejaVuSans-6f"/>
      <use x="616.033203" xlink:href="#DejaVuSans-66"/>
      <use x="651.238281" xlink:href="#DejaVuSans-20"/>
      <use x="683.025391" xlink:href="#DejaVuSans-74"/>
      <use x="722.234375" xlink:href="#DejaVuSans-72"/>
      <use x="763.347656" xlink:href="#DejaVuSans-69"/>
      <use x="791.130859" xlink:href="#DejaVuSans-61"/>
      <use x="852.410156" xlink:href="#DejaVuSans-6c"/>
      <use x="880.193359" xlink:href="#DejaVuSans-73"/>
     </g>
    </g>
   </g>
   <g id="line2d_79">
    <path clip-path="url(#p08617d51b8)" d="M 293.172383 278.275665 
L 293.172383 273.884378 
L 296.211642 273.884378 
L 296.211642 269.493091 
L 301.867083 269.493091 
L 301.867083 265.101804 
L 303.380508 265.101804 
L 303.380508 260.710517 
L 305.135266 260.710517 
L 305.135266 256.31923 
L 306.052152 256.31923 
L 306.052152 251.927942 
L 307.522525 251.927942 
L 307.522525 247.536655 
L 308.232374 247.536655 
L 308.232374 243.145368 
L 308.788784 243.145368 
L 308.788784 238.754081 
L 312.056967 238.754081 
L 312.056967 234.362794 
L 316.980053 234.362794 
L 316.980053 229.971507 
L 316.980053 229.971507 
L 316.980053 225.58022 
L 317.504922 225.58022 
L 317.504922 221.188933 
L 318.928998 221.188933 
L 318.928998 216.797645 
L 320.385559 216.797645 
L 320.385559 212.406358 
L 321.411846 212.406358 
L 321.411846 208.015071 
L 324.049615 208.015071 
L 324.049615 203.623784 
L 326.167222 203.623784 
L 326.167222 199.232497 
L 333.557734 199.232497 
L 333.557734 194.84121 
L 335.944992 194.84121 
L 335.944992 190.449923 
L 341.408364 190.449923 
L 341.408364 186.058636 
L 343.683031 186.058636 
L 343.683031 181.667348 
L 344.565567 181.667348 
L 344.565567 177.276061 
L 345.040467 177.276061 
L 345.040467 172.884774 
L 345.760396 172.884774 
L 345.760396 168.493487 
L 345.92739 168.493487 
L 345.92739 164.1022 
L 347.825047 164.1022 
L 347.825047 159.710913 
L 352.472082 159.710913 
L 352.472082 155.319626 
L 355.274877 155.319626 
L 355.274877 150.928338 
L 356.423862 150.928338 
L 356.423862 146.537051 
L 359.204394 146.537051 
L 359.204394 142.145764 
L 359.339789 142.145764 
L 359.339789 137.754477 
L 364.136833 137.754477 
L 364.136833 133.36319 
L 365.362324 133.36319 
L 365.362324 128.971903 
L 365.473384 128.971903 
L 365.473384 124.580616 
L 371.15099 124.580616 
L 371.15099 120.189329 
L 372.024824 120.189329 
L 372.024824 115.798041 
L 374.951867 115.798041 
L 374.951867 111.406754 
L 403.410249 111.406754 
L 403.410249 107.015467 
L 405.124094 107.015467 
L 405.124094 102.62418 
L 407.340257 102.62418 
L 407.340257 98.232893 
L 410.388025 98.232893 
L 410.388025 93.841606 
L 419.350711 93.841606 
L 419.350711 89.450319 
L 419.541406 89.450319 
L 419.541406 85.059032 
L 419.576305 85.059032 
L 419.576305 80.667744 
L 419.761771 80.667744 
L 419.761771 76.276457 
L 419.761771 76.276457 
L 419.761771 76.276457 
L 426.4825 76.276457 
" style="fill:none;stroke:#000000;stroke-linecap:square;stroke-width:1.5;"/>
   </g>
   <g id="line2d_80"/>
   <g id="line2d_81">
    <path clip-path="url(#p08617d51b8)" d="M 374.040208 278.275665 
L 374.040208 273.884378 
L 375.614451 273.884378 
L 375.614451 269.493091 
L 378.59994 269.493091 
L 378.59994 265.101804 
L 382.162966 265.101804 
L 382.162966 260.710517 
L 382.676538 260.710517 
L 382.676538 256.31923 
L 382.816293 256.31923 
L 382.816293 251.927942 
L 382.828966 251.927942 
L 382.828966 247.536655 
L 387.51267 247.536655 
L 387.51267 243.145368 
L 389.588051 243.145368 
L 389.588051 238.754081 
L 391.099534 238.754081 
L 391.099534 234.362794 
L 392.53151 234.362794 
L 392.53151 229.971507 
L 393.009726 229.971507 
L 393.009726 225.58022 
L 394.920827 225.58022 
L 394.920827 221.188933 
L 397.258787 221.188933 
L 397.258787 216.797645 
L 398.368683 216.797645 
L 398.368683 212.406358 
L 402.008548 212.406358 
L 402.008548 208.015071 
L 411.838848 208.015071 
L 411.838848 203.623784 
L 411.838848 203.623784 
L 411.838848 203.623784 
L 426.4825 203.623784 
" style="fill:none;stroke:#00bfbf;stroke-linecap:square;stroke-width:1.5;"/>
   </g>
   <g id="line2d_82"/>
   <g id="line2d_83">
    <path clip-path="url(#p08617d51b8)" d="M 412.376265 278.275665 
L 412.376265 273.884378 
L 413.096154 273.884378 
L 413.096154 269.493091 
L 413.823048 269.493091 
L 413.823048 265.101804 
L 415.836924 265.101804 
L 415.836924 260.710517 
L 416.041729 260.710517 
L 416.041729 256.31923 
L 416.067777 256.31923 
L 416.067777 251.927942 
L 417.079566 251.927942 
L 417.079566 247.536655 
L 418.375214 247.536655 
L 418.375214 243.145368 
L 419.946134 243.145368 
L 419.946134 238.754081 
L 421.23628 238.754081 
L 421.23628 234.362794 
L 421.597842 234.362794 
L 421.597842 229.971507 
L 422.41484 229.971507 
L 422.41484 225.58022 
L 423.020707 225.58022 
L 423.020707 221.188933 
L 423.740597 221.188933 
L 423.740597 216.797645 
L 423.740597 216.797645 
L 423.740597 216.797645 
L 426.4825 216.797645 
" style="fill:none;stroke:#bf00bf;stroke-linecap:square;stroke-width:1.5;"/>
   </g>
   <g id="line2d_84"/>
   <g id="line2d_85"/>
   <g id="line2d_86">
    <path clip-path="url(#p08617d51b8)" d="M 426.4825 278.275665 
L 426.4825 12.163665 
" style="fill:none;stroke:#000000;stroke-linecap:square;stroke-width:1.5;"/>
   </g>
   <g id="patch_3">
    <path d="M 69.3625 278.275665 
L 69.3625 12.163665 
" style="fill:none;stroke:#000000;stroke-linecap:square;stroke-linejoin:miter;stroke-width:0.8;"/>
   </g>
   <g id="patch_4">
    <path d="M 426.4825 278.275665 
L 426.4825 12.163665 
" style="fill:none;stroke:#000000;stroke-linecap:square;stroke-linejoin:miter;stroke-width:0.8;"/>
   </g>
   <g id="patch_5">
    <path d="M 69.3625 278.275665 
L 426.4825 278.275665 
" style="fill:none;stroke:#000000;stroke-linecap:square;stroke-linejoin:miter;stroke-width:0.8;"/>
   </g>
   <g id="patch_6">
    <path d="M 69.3625 12.163665 
L 426.4825 12.163665 
" style="fill:none;stroke:#000000;stroke-linecap:square;stroke-linejoin:miter;stroke-width:0.8;"/>
   </g>
   <g id="text_15">
    <!-- {f6-f9}, 20-D -->
    <defs>
     <path d="M 51.125 -9.28125 
L 51.125 -16.3125 
L 48.09375 -16.3125 
Q 35.9375 -16.3125 31.8125 -12.6875 
Q 27.6875 -9.078125 27.6875 1.703125 
L 27.6875 13.375 
Q 27.6875 20.75 25.046875 23.578125 
Q 22.40625 26.421875 15.484375 26.421875 
L 12.5 26.421875 
L 12.5 33.40625 
L 15.484375 33.40625 
Q 22.46875 33.40625 25.078125 36.203125 
Q 27.6875 39.015625 27.6875 46.296875 
L 27.6875 58.015625 
Q 27.6875 68.796875 31.8125 72.390625 
Q 35.9375 75.984375 48.09375 75.984375 
L 51.125 75.984375 
L 51.125 69 
L 47.796875 69 
Q 40.921875 69 38.8125 66.84375 
Q 36.71875 64.703125 36.71875 57.8125 
L 36.71875 45.703125 
Q 36.71875 38.03125 34.5 34.5625 
Q 32.28125 31.109375 26.90625 29.890625 
Q 32.328125 28.5625 34.515625 25.09375 
Q 36.71875 21.625 36.71875 14.015625 
L 36.71875 1.90625 
Q 36.71875 -4.984375 38.8125 -7.125 
Q 40.921875 -9.28125 47.796875 -9.28125 
z
" id="DejaVuSans-7b"/>
     <path d="M 4.890625 31.390625 
L 31.203125 31.390625 
L 31.203125 23.390625 
L 4.890625 23.390625 
z
" id="DejaVuSans-2d"/>
     <path d="M 10.984375 1.515625 
L 10.984375 10.5 
Q 14.703125 8.734375 18.5 7.8125 
Q 22.3125 6.890625 25.984375 6.890625 
Q 35.75 6.890625 40.890625 13.453125 
Q 46.046875 20.015625 46.78125 33.40625 
Q 43.953125 29.203125 39.59375 26.953125 
Q 35.25 24.703125 29.984375 24.703125 
Q 19.046875 24.703125 12.671875 31.3125 
Q 6.296875 37.9375 6.296875 49.421875 
Q 6.296875 60.640625 12.9375 67.421875 
Q 19.578125 74.21875 30.609375 74.21875 
Q 43.265625 74.21875 49.921875 64.515625 
Q 56.59375 54.828125 56.59375 36.375 
Q 56.59375 19.140625 48.40625 8.859375 
Q 40.234375 -1.421875 26.421875 -1.421875 
Q 22.703125 -1.421875 18.890625 -0.6875 
Q 15.09375 0.046875 10.984375 1.515625 
M 30.609375 32.421875 
Q 37.25 32.421875 41.125 36.953125 
Q 45.015625 41.5 45.015625 49.421875 
Q 45.015625 57.28125 41.125 61.84375 
Q 37.25 66.40625 30.609375 66.40625 
Q 23.96875 66.40625 20.09375 61.84375 
Q 16.21875 57.28125 16.21875 49.421875 
Q 16.21875 41.5 20.09375 36.953125 
Q 23.96875 32.421875 30.609375 32.421875 
" id="DejaVuSans-39"/>
     <path d="M 12.5 -9.28125 
L 15.921875 -9.28125 
Q 22.75 -9.28125 24.828125 -7.171875 
Q 26.90625 -5.078125 26.90625 1.90625 
L 26.90625 14.015625 
Q 26.90625 21.625 29.09375 25.09375 
Q 31.296875 28.5625 36.71875 29.890625 
Q 31.296875 31.109375 29.09375 34.5625 
Q 26.90625 38.03125 26.90625 45.703125 
L 26.90625 57.8125 
Q 26.90625 64.75 24.828125 66.875 
Q 22.75 69 15.921875 69 
L 12.5 69 
L 12.5 75.984375 
L 15.578125 75.984375 
Q 27.734375 75.984375 31.8125 72.390625 
Q 35.890625 68.796875 35.890625 58.015625 
L 35.890625 46.296875 
Q 35.890625 39.015625 38.515625 36.203125 
Q 41.15625 33.40625 48.09375 33.40625 
L 51.125 33.40625 
L 51.125 26.421875 
L 48.09375 26.421875 
Q 41.15625 26.421875 38.515625 23.578125 
Q 35.890625 20.75 35.890625 13.375 
L 35.890625 1.703125 
Q 35.890625 -9.078125 31.8125 -12.6875 
Q 27.734375 -16.3125 15.578125 -16.3125 
L 12.5 -16.3125 
z
" id="DejaVuSans-7d"/>
     <path d="M 11.71875 12.40625 
L 22.015625 12.40625 
L 22.015625 4 
L 14.015625 -11.625 
L 7.71875 -11.625 
L 11.71875 4 
z
" id="DejaVuSans-2c"/>
    </defs>
    <g transform="translate(181.435 32.68278)scale(0.2 -0.2)">
     <use xlink:href="#DejaVuSans-7b"/>
     <use x="63.623047" xlink:href="#DejaVuSans-66"/>
     <use x="98.828125" xlink:href="#DejaVuSans-36"/>
     <use x="162.451172" xlink:href="#DejaVuSans-2d"/>
     <use x="198.535156" xlink:href="#DejaVuSans-66"/>
     <use x="233.740234" xlink:href="#DejaVuSans-39"/>
     <use x="297.363281" xlink:href="#DejaVuSans-7d"/>
     <use x="360.986328" xlink:href="#DejaVuSans-2c"/>
     <use x="392.773438" xlink:href="#DejaVuSans-20"/>
     <use x="424.560547" xlink:href="#DejaVuSans-32"/>
     <use x="488.183594" xlink:href="#DejaVuSans-30"/>
     <use x="551.806641" xlink:href="#DejaVuSans-2d"/>
     <use x="587.890625" xlink:href="#DejaVuSans-44"/>
    </g>
   </g>
   <g id="text_16">
    <!-- absolute targets -->
    <defs>
     <path d="M 48.6875 27.296875 
Q 48.6875 37.203125 44.609375 42.84375 
Q 40.53125 48.484375 33.40625 48.484375 
Q 26.265625 48.484375 22.1875 42.84375 
Q 18.109375 37.203125 18.109375 27.296875 
Q 18.109375 17.390625 22.1875 11.75 
Q 26.265625 6.109375 33.40625 6.109375 
Q 40.53125 6.109375 44.609375 11.75 
Q 48.6875 17.390625 48.6875 27.296875 
M 18.109375 46.390625 
Q 20.953125 51.265625 25.265625 53.625 
Q 29.59375 56 35.59375 56 
Q 45.5625 56 51.78125 48.09375 
Q 58.015625 40.1875 58.015625 27.296875 
Q 58.015625 14.40625 51.78125 6.484375 
Q 45.5625 -1.421875 35.59375 -1.421875 
Q 29.59375 -1.421875 25.265625 0.953125 
Q 20.953125 3.328125 18.109375 8.203125 
L 18.109375 0 
L 9.078125 0 
L 9.078125 75.984375 
L 18.109375 75.984375 
z
" id="DejaVuSans-62"/>
     <path d="M 8.5 21.578125 
L 8.5 54.6875 
L 17.484375 54.6875 
L 17.484375 21.921875 
Q 17.484375 14.15625 20.5 10.265625 
Q 23.53125 6.390625 29.59375 6.390625 
Q 36.859375 6.390625 41.078125 11.03125 
Q 45.3125 15.671875 45.3125 23.6875 
L 45.3125 54.6875 
L 54.296875 54.6875 
L 54.296875 0 
L 45.3125 0 
L 45.3125 8.40625 
Q 42.046875 3.421875 37.71875 1 
Q 33.40625 -1.421875 27.6875 -1.421875 
Q 18.265625 -1.421875 13.375 4.4375 
Q 8.5 10.296875 8.5 21.578125 
M 31.109375 56 
z
" id="DejaVuSans-75"/>
     <path d="M 56.203125 29.59375 
L 56.203125 25.203125 
L 14.890625 25.203125 
Q 15.484375 15.921875 20.484375 11.0625 
Q 25.484375 6.203125 34.421875 6.203125 
Q 39.59375 6.203125 44.453125 7.46875 
Q 49.3125 8.734375 54.109375 11.28125 
L 54.109375 2.78125 
Q 49.265625 0.734375 44.1875 -0.34375 
Q 39.109375 -1.421875 33.890625 -1.421875 
Q 20.796875 -1.421875 13.15625 6.1875 
Q 5.515625 13.8125 5.515625 26.8125 
Q 5.515625 40.234375 12.765625 48.109375 
Q 20.015625 56 32.328125 56 
Q 43.359375 56 49.78125 48.890625 
Q 56.203125 41.796875 56.203125 29.59375 
M 47.21875 32.234375 
Q 47.125 39.59375 43.09375 43.984375 
Q 39.0625 48.390625 32.421875 48.390625 
Q 24.90625 48.390625 20.390625 44.140625 
Q 15.875 39.890625 15.1875 32.171875 
z
" id="DejaVuSans-65"/>
    </defs>
    <g transform="translate(69.3625 291.449527)scale(0.14 -0.14)">
     <use xlink:href="#DejaVuSans-61"/>
     <use x="61.279297" xlink:href="#DejaVuSans-62"/>
     <use x="124.755859" xlink:href="#DejaVuSans-73"/>
     <use x="176.855469" xlink:href="#DejaVuSans-6f"/>
     <use x="238.037109" xlink:href="#DejaVuSans-6c"/>
     <use x="265.820312" xlink:href="#DejaVuSans-75"/>
     <use x="329.199219" xlink:href="#DejaVuSans-74"/>
     <use x="368.408203" xlink:href="#DejaVuSans-65"/>
     <use x="429.931641" xlink:href="#DejaVuSans-20"/>
     <use x="461.71875" xlink:href="#DejaVuSans-74"/>
     <use x="500.927734" xlink:href="#DejaVuSans-61"/>
     <use x="562.207031" xlink:href="#DejaVuSans-72"/>
     <use x="603.304688" xlink:href="#DejaVuSans-67"/>
     <use x="666.78125" xlink:href="#DejaVuSans-65"/>
     <use x="728.304688" xlink:href="#DejaVuSans-74"/>
     <use x="767.513672" xlink:href="#DejaVuSans-73"/>
    </g>
   </g>
   <g id="text_17">
    <!-- v2.0.1 -->
    <g style="fill:#808080;" transform="translate(232.24125 273.534858)scale(0.1 -0.1)">
     <use xlink:href="#DejaVuSans-76"/>
     <use x="59.179688" xlink:href="#DejaVuSans-32"/>
     <use x="122.802734" xlink:href="#DejaVuSans-2e"/>
     <use x="154.589844" xlink:href="#DejaVuSans-30"/>
     <use x="218.212891" xlink:href="#DejaVuSans-2e"/>
     <use x="250" xlink:href="#DejaVuSans-31"/>
    </g>
   </g>
   <g id="legend_1">
    <g id="patch_7">
     <path d="M 83.3625 145.588665 
L 212.584375 145.588665 
Q 216.584375 145.588665 216.584375 141.588665 
L 216.584375 26.163665 
Q 216.584375 22.163665 212.584375 22.163665 
L 83.3625 22.163665 
Q 79.3625 22.163665 79.3625 26.163665 
L 79.3625 141.588665 
Q 79.3625 145.588665 83.3625 145.588665 
z
" style="fill:#ffffff;opacity:0.2;stroke:#cccccc;stroke-linejoin:miter;"/>
    </g>
    <g id="line2d_87">
     <path d="M 87.3625 38.36054 
L 127.3625 38.36054 
" style="fill:none;stroke:#000000;stroke-linecap:square;stroke-width:1.5;"/>
    </g>
    <g id="line2d_88"/>
    <g id="text_18">
     <!-- 1: 4/4 -->
     <defs>
      <path d="M 11.71875 12.40625 
L 22.015625 12.40625 
L 22.015625 0 
L 11.71875 0 
z
M 11.71875 51.703125 
L 22.015625 51.703125 
L 22.015625 39.3125 
L 11.71875 39.3125 
z
" id="DejaVuSans-3a"/>
     </defs>
     <g transform="translate(143.3625 45.36054)scale(0.2 -0.2)">
      <use xlink:href="#DejaVuSans-31"/>
      <use x="63.623047" xlink:href="#DejaVuSans-3a"/>
      <use x="97.314453" xlink:href="#DejaVuSans-20"/>
      <use x="129.101562" xlink:href="#DejaVuSans-34"/>
      <use x="192.724609" xlink:href="#DejaVuSans-2f"/>
      <use x="226.416016" xlink:href="#DejaVuSans-34"/>
     </g>
    </g>
    <g id="line2d_89">
     <path d="M 87.3625 67.71679 
L 127.3625 67.71679 
" style="fill:none;stroke:#00bfbf;stroke-linecap:square;stroke-width:1.5;"/>
    </g>
    <g id="line2d_90"/>
    <g id="text_19">
     <!-- -1: 2/4 -->
     <g transform="translate(143.3625 74.71679)scale(0.2 -0.2)">
      <use xlink:href="#DejaVuSans-2d"/>
      <use x="36.083984" xlink:href="#DejaVuSans-31"/>
      <use x="99.707031" xlink:href="#DejaVuSans-3a"/>
      <use x="133.398438" xlink:href="#DejaVuSans-20"/>
      <use x="165.185547" xlink:href="#DejaVuSans-32"/>
      <use x="228.808594" xlink:href="#DejaVuSans-2f"/>
      <use x="262.5" xlink:href="#DejaVuSans-34"/>
     </g>
    </g>
    <g id="line2d_91">
     <path d="M 87.3625 97.07304 
L 127.3625 97.07304 
" style="fill:none;stroke:#bf00bf;stroke-linecap:square;stroke-width:1.5;"/>
    </g>
    <g id="line2d_92"/>
    <g id="text_20">
     <!-- -4: 1/4 -->
     <g transform="translate(143.3625 104.07304)scale(0.2 -0.2)">
      <use xlink:href="#DejaVuSans-2d"/>
      <use x="36.083984" xlink:href="#DejaVuSans-34"/>
      <use x="99.707031" xlink:href="#DejaVuSans-3a"/>
      <use x="133.398438" xlink:href="#DejaVuSans-20"/>
      <use x="165.185547" xlink:href="#DejaVuSans-31"/>
      <use x="228.808594" xlink:href="#DejaVuSans-2f"/>
      <use x="262.5" xlink:href="#DejaVuSans-34"/>
     </g>
    </g>
    <g id="line2d_93">
     <path d="M 87.3625 126.42929 
L 127.3625 126.42929 
" style="fill:none;stroke:#ff0000;stroke-linecap:square;stroke-width:3;"/>
    </g>
    <g id="line2d_94"/>
    <g id="text_21">
     <!-- -8: 0/4 -->
     <g transform="translate(143.3625 133.42929)scale(0.2 -0.2)">
      <use xlink:href="#DejaVuSans-2d"/>
      <use x="36.083984" xlink:href="#DejaVuSans-38"/>
      <use x="99.707031" xlink:href="#DejaVuSans-3a"/>
      <use x="133.398438" xlink:href="#DejaVuSans-20"/>
      <use x="165.185547" xlink:href="#DejaVuSans-30"/>
      <use x="228.808594" xlink:href="#DejaVuSans-2f"/>
      <use x="262.5" xlink:href="#DejaVuSans-34"/>
     </g>
    </g>
   </g>
  </g>
 </g>
 <defs>
  <clipPath id="p08617d51b8">
   <rect height="266.112" width="357.12" x="69.3625" y="12.163665"/>
  </clipPath>
 </defs>
</svg>
