<?xml version="1.0" encoding="utf-8" standalone="no"?>
<!DOCTYPE svg PUBLIC "-//W3C//DTD SVG 1.1//EN"
  "http://www.w3.org/Graphics/SVG/1.1/DTD/svg11.dtd">
<!-- Created with matplotlib (http://matplotlib.org/) -->
<svg height="335pt" version="1.1" viewBox="0 0 440 335" width="440pt" xmlns="http://www.w3.org/2000/svg" xmlns:xlink="http://www.w3.org/1999/xlink">
 <defs>
  <style type="text/css">
*{stroke-linecap:butt;stroke-linejoin:round;}
  </style>
 </defs>
 <g id="figure_1">
  <g id="patch_1">
   <path d="M 0 335.188165 
L 440.045 335.188165 
L 440.045 0 
L 0 0 
z
" style="fill:#ffffff;"/>
  </g>
  <g id="axes_1">
   <g id="patch_2">
    <path d="M 69.3625 278.275665 
L 426.4825 278.275665 
L 426.4825 12.163665 
L 69.3625 12.163665 
z
" style="fill:#ffffff;"/>
   </g>
   <g id="line2d_1"/>
   <g id="line2d_2"/>
   <g id="line2d_3"/>
   <g id="line2d_4">
    <path clip-path="url(#pa1a052dd8b)" d="M 276.994564 278.275665 
L 276.994564 274.762636 
L 276.994564 274.762636 
L 276.994564 274.762636 
L 277.00993 274.762636 
L 277.00993 271.249606 
L 277.699249 271.249606 
L 277.699249 267.736576 
L 278.192971 267.736576 
L 278.192971 264.223546 
L 278.518416 264.223546 
L 278.518416 260.710517 
L 278.822375 260.710517 
L 278.849532 253.684457 
L 278.934469 253.684457 
L 278.934469 250.171428 
L 279.46411 250.171428 
L 279.501344 239.632338 
L 280.707368 239.632338 
L 280.707368 236.119309 
L 281.113759 236.119309 
L 281.113759 232.606279 
L 281.769584 232.606279 
L 281.769584 229.093249 
L 281.883024 229.093249 
L 281.883024 225.58022 
L 282.567928 225.58022 
L 282.567928 222.06719 
L 283.023653 222.06719 
L 283.023653 218.55416 
L 283.685639 218.55416 
L 283.685639 215.041131 
L 283.837012 215.041131 
L 283.837012 211.528101 
L 284.23355 211.528101 
L 284.23355 208.015071 
L 284.590512 208.015071 
L 284.590512 204.502041 
L 286.06481 204.502041 
L 286.093479 197.475982 
L 287.217628 197.475982 
L 287.217628 193.962952 
L 288.135225 193.962952 
L 288.135225 190.449923 
L 289.181184 190.449923 
L 289.231726 183.423863 
L 289.76323 183.423863 
L 289.76323 179.910834 
L 290.023081 179.910834 
L 290.023081 176.397804 
L 292.388218 176.397804 
L 292.388218 172.884774 
L 294.179926 172.884774 
L 294.179926 169.371744 
L 294.750905 169.371744 
L 294.750905 165.858715 
L 294.896877 165.858715 
L 294.896877 162.345685 
L 295.717628 162.345685 
L 295.717628 158.832655 
L 296.05304 158.832655 
L 296.05304 155.319626 
L 296.955383 155.319626 
L 296.955383 151.806596 
L 297.135554 151.806596 
L 297.141575 144.780537 
L 297.333638 144.780537 
L 297.333638 141.267507 
L 297.646188 141.267507 
L 297.714233 134.241447 
L 297.995669 134.241447 
L 297.995669 130.728418 
L 298.31518 130.728418 
L 298.349943 123.702358 
L 298.691627 123.702358 
L 298.691627 120.189329 
L 299.263802 120.189329 
L 299.263802 116.676299 
L 300.563104 116.676299 
L 300.563104 113.163269 
L 302.504986 113.163269 
L 302.504986 109.650239 
L 308.527124 109.650239 
L 308.527124 106.13721 
L 308.962006 106.13721 
L 309.048939 99.11115 
L 309.354347 99.11115 
L 309.354347 95.598121 
L 311.629697 95.598121 
L 311.629697 92.085091 
L 316.928135 92.085091 
L 316.928135 88.572061 
L 320.655677 88.572061 
L 320.655677 85.059032 
L 323.985065 85.059032 
L 323.985065 81.546002 
L 324.359099 81.546002 
L 324.359099 78.032972 
L 324.56745 78.032972 
L 324.56745 74.519942 
L 324.691132 74.519942 
L 324.691132 71.006913 
L 325.332997 71.006913 
L 325.332997 67.493883 
L 326.265477 67.493883 
L 326.265477 63.980853 
L 340.424793 63.980853 
L 340.424793 60.467824 
L 350.021696 60.467824 
L 350.021696 56.954794 
L 351.947083 56.954794 
L 351.947083 53.441764 
L 351.947083 53.441764 
L 426.4825 53.441764 
L 426.4825 53.441764 
" style="fill:none;stroke:#f5deb3;stroke-linecap:square;stroke-width:1.5;"/>
   </g>
   <g id="line2d_5">
    <path clip-path="url(#pa1a052dd8b)" d="M 271.072864 278.275665 
L 271.072864 274.762636 
L 271.260641 274.762636 
L 271.260641 271.249606 
L 271.577962 271.249606 
L 271.577962 267.736576 
L 272.198545 267.736576 
L 272.198545 264.223546 
L 272.866267 264.223546 
L 272.866267 260.710517 
L 276.038616 260.710517 
L 276.038616 257.197487 
L 277.704883 257.197487 
L 277.704883 253.684457 
L 278.778876 253.684457 
L 278.778876 250.171428 
L 281.476676 250.171428 
L 281.476676 246.658398 
L 281.69868 246.658398 
L 281.69868 243.145368 
L 286.290571 243.145368 
L 286.290571 239.632338 
L 286.941433 239.632338 
L 286.941433 236.119309 
L 288.627643 236.119309 
L 288.627643 232.606279 
L 290.005404 232.606279 
L 290.005404 229.093249 
L 291.149773 229.093249 
L 291.149773 225.58022 
L 336.637713 225.58022 
L 336.637713 222.06719 
L 339.595446 222.06719 
L 339.595446 218.55416 
L 340.171192 218.55416 
L 340.171192 215.041131 
L 340.184472 215.041131 
L 340.184472 211.528101 
L 340.39221 211.528101 
L 340.39221 208.015071 
L 340.5372 208.015071 
L 340.5372 204.502041 
L 341.198373 204.502041 
L 341.198373 200.989012 
L 341.699125 200.989012 
L 341.699125 197.475982 
L 341.908846 197.475982 
L 341.908846 193.962952 
L 342.055896 193.962952 
L 342.055896 190.449923 
L 342.797685 190.449923 
L 342.797685 186.936893 
L 343.365174 186.936893 
L 343.365174 183.423863 
L 344.113094 183.423863 
L 344.113094 179.910834 
L 344.220179 179.910834 
L 344.220179 176.397804 
L 345.954441 176.397804 
L 345.954441 172.884774 
L 353.888219 172.884774 
L 353.888219 169.371744 
L 371.053533 169.371744 
L 371.053533 165.858715 
L 373.696836 165.858715 
L 373.696836 162.345685 
L 374.574047 162.345685 
L 374.574047 158.832655 
L 376.333637 158.832655 
L 376.333637 155.319626 
L 377.324754 155.319626 
L 377.324754 151.806596 
L 377.42612 151.806596 
L 377.42612 148.293566 
L 378.42606 148.293566 
L 378.42606 144.780537 
L 378.689484 144.780537 
L 378.689484 141.267507 
L 378.899817 141.267507 
L 378.899817 137.754477 
L 378.995958 137.754477 
L 378.995958 134.241447 
L 378.99861 134.241447 
L 378.99861 130.728418 
L 383.974442 130.728418 
L 383.974442 127.215388 
L 384.236194 127.215388 
L 384.236194 123.702358 
L 384.792377 123.702358 
L 384.792377 120.189329 
L 389.148245 120.189329 
L 389.148245 116.676299 
L 389.148245 116.676299 
L 389.148245 116.676299 
L 426.4825 116.676299 
" style="fill:none;stroke:#f5deb3;stroke-linecap:square;stroke-width:1.5;"/>
   </g>
   <g id="line2d_6"/>
   <g id="line2d_7">
    <path clip-path="url(#pa1a052dd8b)" d="M 276.245957 278.275665 
L 276.245957 274.762636 
L 276.245957 274.762636 
L 276.245957 274.762636 
L 276.281362 274.762636 
L 276.344205 267.736576 
L 276.516371 267.736576 
L 276.516371 264.223546 
L 276.79025 264.223546 
L 276.79025 260.710517 
L 276.963811 260.710517 
L 276.963811 257.197487 
L 277.187997 257.197487 
L 277.187997 253.684457 
L 277.33846 253.684457 
L 277.372641 246.658398 
L 277.734911 246.658398 
L 277.806112 236.119309 
L 277.865943 236.119309 
L 277.865943 232.606279 
L 279.130559 232.606279 
L 279.130559 229.093249 
L 284.996893 229.093249 
L 284.996893 225.58022 
L 285.134628 225.58022 
L 285.134628 222.06719 
L 285.283521 222.06719 
L 285.283521 218.55416 
L 285.650476 218.55416 
L 285.753493 211.528101 
L 285.781003 211.528101 
L 285.781003 208.015071 
L 286.117826 208.015071 
L 286.117826 204.502041 
L 286.797505 204.502041 
L 286.797505 200.989012 
L 287.207954 200.989012 
L 287.207954 197.475982 
L 288.057321 197.475982 
L 288.117781 190.449923 
L 288.631604 190.449923 
L 288.631604 186.936893 
L 289.062932 186.936893 
L 289.062932 183.423863 
L 289.251143 183.423863 
L 289.251143 179.910834 
L 290.393234 179.910834 
L 290.393234 176.397804 
L 290.791054 176.397804 
L 290.821824 169.371744 
L 291.850241 169.371744 
L 291.850241 165.858715 
L 292.042435 165.858715 
L 292.042435 162.345685 
L 292.516609 162.345685 
L 292.516609 158.832655 
L 292.918174 158.832655 
L 292.918174 155.319626 
L 293.970573 155.319626 
L 293.970573 151.806596 
L 294.089269 151.806596 
L 294.089269 148.293566 
L 294.418565 148.293566 
L 294.418565 144.780537 
L 295.741782 144.780537 
L 295.741782 141.267507 
L 296.352973 141.267507 
L 296.352973 137.754477 
L 296.624537 137.754477 
L 296.624537 134.241447 
L 297.965392 134.241447 
L 297.965392 130.728418 
L 298.32967 130.728418 
L 298.374061 123.702358 
L 299.574289 123.702358 
L 299.574289 120.189329 
L 300.221547 120.189329 
L 300.221547 116.676299 
L 307.62074 116.676299 
L 307.62074 113.163269 
L 313.875531 113.163269 
L 313.875531 109.650239 
L 318.311458 109.650239 
L 318.311458 106.13721 
L 321.353976 106.13721 
L 321.353976 102.62418 
L 328.754664 102.62418 
L 328.754664 99.11115 
L 329.28534 99.11115 
L 329.28534 95.598121 
L 329.790984 95.598121 
L 329.790984 92.085091 
L 330.750023 92.085091 
L 330.750023 88.572061 
L 331.236203 88.572061 
L 331.236203 85.059032 
L 331.40257 85.059032 
L 331.40257 81.546002 
L 341.153484 81.546002 
L 341.153484 78.032972 
L 343.9531 78.032972 
L 343.9531 74.519942 
L 344.228536 74.519942 
L 344.228536 71.006913 
L 344.554471 71.006913 
L 344.554471 67.493883 
L 441.045 67.493883 
L 441.045 67.493883 
" style="fill:none;stroke:#f5deb3;stroke-linecap:square;stroke-width:1.5;"/>
   </g>
   <g id="line2d_8"/>
   <g id="line2d_9">
    <path clip-path="url(#pa1a052dd8b)" d="M 274.88821 278.275665 
L 274.88821 274.762636 
L 275.154364 274.762636 
L 275.154364 271.249606 
L 275.294709 271.249606 
L 275.294709 267.736576 
L 275.436441 267.736576 
L 275.436441 264.223546 
L 275.715975 264.223546 
L 275.715975 260.710517 
L 275.879707 260.710517 
L 275.879707 257.197487 
L 276.171079 257.197487 
L 276.279396 250.171428 
L 276.404964 250.171428 
L 276.506614 239.632338 
L 276.561212 239.632338 
L 276.574846 229.093249 
L 276.911844 229.093249 
L 276.911844 225.58022 
L 279.05335 225.58022 
L 279.05335 222.06719 
L 282.056489 222.06719 
L 282.056489 218.55416 
L 282.429572 218.55416 
L 282.487563 208.015071 
L 282.667291 208.015071 
L 282.740808 200.989012 
L 282.882553 200.989012 
L 282.920666 190.449923 
L 283.0015 190.449923 
L 283.108953 183.423863 
L 283.5724 183.423863 
L 283.5724 179.910834 
L 283.741332 179.910834 
L 283.741332 176.397804 
L 284.058106 176.397804 
L 284.165016 169.371744 
L 284.424642 169.371744 
L 284.424642 165.858715 
L 285.205478 165.858715 
L 285.205478 162.345685 
L 285.355499 162.345685 
L 285.355499 158.832655 
L 286.100642 158.832655 
L 286.100642 155.319626 
L 286.828303 155.319626 
L 286.828303 151.806596 
L 287.323841 151.806596 
L 287.323841 148.293566 
L 287.448899 148.293566 
L 287.448899 144.780537 
L 287.689347 144.780537 
L 287.734225 137.754477 
L 287.800741 137.754477 
L 287.800741 134.241447 
L 288.085551 134.241447 
L 288.085551 130.728418 
L 288.322466 130.728418 
L 288.397047 120.189329 
L 288.605189 120.189329 
L 288.640844 113.163269 
L 288.785683 113.163269 
L 288.785683 109.650239 
L 288.944227 109.650239 
L 288.944227 106.13721 
L 289.114967 106.13721 
L 289.114967 102.62418 
L 292.233445 102.62418 
L 292.263992 95.598121 
L 295.102235 95.598121 
L 295.102235 92.085091 
L 295.444331 92.085091 
L 295.444331 88.572061 
L 298.718342 88.572061 
L 298.718342 85.059032 
L 300.625945 85.059032 
L 300.685973 78.032972 
L 303.72164 78.032972 
L 303.72164 74.519942 
L 304.89784 74.519942 
L 304.89784 71.006913 
L 307.868121 71.006913 
L 307.868121 67.493883 
L 310.29433 67.493883 
L 310.29433 63.980853 
L 313.811108 63.980853 
L 313.811108 60.467824 
L 315.13835 60.467824 
L 315.13835 56.954794 
L 315.295792 56.954794 
L 315.295792 53.441764 
L 315.77989 53.441764 
L 315.77989 49.928735 
L 316.012309 49.928735 
L 316.012309 46.415705 
L 325.673624 46.415705 
L 325.673624 42.902675 
L 333.504024 42.902675 
L 333.504024 39.389645 
L 343.450977 39.389645 
L 343.450977 35.876616 
L 345.445472 35.876616 
L 345.445472 32.363586 
L 345.98147 32.363586 
L 345.98147 28.850556 
L 346.28197 28.850556 
L 346.28197 25.337527 
L 346.906667 25.337527 
L 346.906667 21.824497 
L 348.611424 21.824497 
L 348.611424 18.311467 
L 349.160037 18.311467 
L 349.160037 14.798437 
L 349.160037 14.798437 
L 426.4825 14.798437 
L 426.4825 14.798437 
" style="fill:none;stroke:#f5deb3;stroke-linecap:square;stroke-width:1.5;"/>
   </g>
   <g id="line2d_10"/>
   <g id="line2d_11">
    <path clip-path="url(#pa1a052dd8b)" d="M 431.967645 278.275665 
L 431.967645 274.762636 
L 441.045 274.762636 
" style="fill:none;stroke:#f5deb3;stroke-linecap:square;stroke-width:1.5;"/>
   </g>
   <g id="line2d_12">
    <path clip-path="url(#pa1a052dd8b)" d="M 339.809689 278.275665 
L 339.809689 274.762636 
L 339.809689 274.762636 
L 339.809689 274.762636 
L 426.4825 274.762636 
" style="fill:none;stroke:#f5deb3;stroke-linecap:square;stroke-width:1.5;"/>
   </g>
   <g id="line2d_13"/>
   <g id="line2d_14"/>
   <g id="line2d_15"/>
   <g id="line2d_16">
    <path clip-path="url(#pa1a052dd8b)" style="fill:none;stroke:#f5deb3;stroke-linecap:square;stroke-width:1.5;"/>
   </g>
   <g id="line2d_17">
    <path clip-path="url(#pa1a052dd8b)" d="M 366.93926 278.275665 
L 366.93926 274.762636 
L 369.188431 274.762636 
L 369.188431 271.249606 
L 372.735199 271.249606 
L 372.735199 267.736576 
L 372.89968 267.736576 
L 372.89968 264.223546 
L 373.375581 264.223546 
L 373.375581 260.710517 
L 373.417315 260.710517 
L 373.417315 257.197487 
L 373.556963 257.197487 
L 373.556963 253.684457 
L 374.089204 253.684457 
L 374.089204 250.171428 
L 374.413661 250.171428 
L 374.413661 246.658398 
L 374.741421 246.658398 
L 374.741421 243.145368 
L 375.141663 243.145368 
L 375.141663 239.632338 
L 375.297934 239.632338 
L 375.297934 236.119309 
L 375.830193 236.119309 
L 375.830193 232.606279 
L 375.857095 232.606279 
L 375.857095 229.093249 
L 375.905286 229.093249 
L 375.905286 225.58022 
L 376.132547 225.58022 
L 376.132547 222.06719 
L 376.428712 222.06719 
L 376.428712 218.55416 
L 376.887259 218.55416 
L 376.887259 215.041131 
L 377.646739 215.041131 
L 377.646739 211.528101 
L 378.487481 211.528101 
L 378.487481 208.015071 
L 378.518218 208.015071 
L 378.518218 204.502041 
L 379.653988 204.502041 
L 379.653988 200.989012 
L 380.645127 200.989012 
L 380.645127 197.475982 
L 380.959015 197.475982 
L 380.959015 193.962952 
L 381.185301 193.962952 
L 381.185301 190.449923 
L 381.665161 190.449923 
L 381.665161 186.936893 
L 382.457834 186.936893 
L 382.457834 183.423863 
L 382.549963 183.423863 
L 382.549963 179.910834 
L 382.602787 179.910834 
L 382.602787 176.397804 
L 382.731626 176.397804 
L 382.731626 172.884774 
L 383.355147 172.884774 
L 383.355147 169.371744 
L 383.54542 169.371744 
L 383.54542 165.858715 
L 383.686499 165.858715 
L 383.686499 162.345685 
L 383.78759 162.345685 
L 383.78759 158.832655 
L 385.042095 158.832655 
L 385.042095 155.319626 
L 385.262768 155.319626 
L 385.262768 151.806596 
L 385.300058 151.806596 
L 385.300058 148.293566 
L 385.561289 148.293566 
L 385.561289 144.780537 
L 385.991768 144.780537 
L 385.991768 141.267507 
L 386.03602 141.267507 
L 386.03602 137.754477 
L 386.281517 137.754477 
L 386.281517 134.241447 
L 386.959791 134.241447 
L 386.959791 130.728418 
L 387.092381 130.728418 
L 387.092381 127.215388 
L 387.791317 127.215388 
L 387.791317 123.702358 
L 389.042641 123.702358 
L 389.042641 120.189329 
L 389.384804 120.189329 
L 389.384804 116.676299 
L 393.683112 116.676299 
L 393.683112 113.163269 
L 394.682401 113.163269 
L 394.682401 109.650239 
L 394.812221 109.650239 
L 394.812221 106.13721 
L 394.81743 106.13721 
L 394.81743 102.62418 
L 395.015199 102.62418 
L 395.015199 99.11115 
L 395.127148 99.11115 
L 395.127148 95.598121 
L 396.048347 95.598121 
L 396.048347 92.085091 
L 396.423912 92.085091 
L 396.423912 88.572061 
L 396.662635 88.572061 
L 396.662635 85.059032 
L 396.92432 85.059032 
L 396.92432 81.546002 
L 398.159097 81.546002 
L 398.159097 78.032972 
L 398.491402 78.032972 
L 398.491402 74.519942 
L 398.649573 74.519942 
L 398.649573 71.006913 
L 398.974171 71.006913 
L 398.974171 67.493883 
L 398.974171 67.493883 
L 398.974171 67.493883 
L 426.4825 67.493883 
" style="fill:none;stroke:#f5deb3;stroke-linecap:square;stroke-width:1.5;"/>
   </g>
   <g id="line2d_18">
    <path clip-path="url(#pa1a052dd8b)" d="M 257.595701 278.275665 
L 257.595701 274.762636 
L 262.276094 274.762636 
L 262.276094 271.249606 
L 263.436698 271.249606 
L 263.436698 267.736576 
L 264.151163 267.736576 
L 264.151163 264.223546 
L 264.397244 264.223546 
L 264.397244 260.710517 
L 265.806546 260.710517 
L 265.806546 257.197487 
L 269.778979 257.197487 
L 269.778979 253.684457 
L 273.280471 253.684457 
L 273.280471 250.171428 
L 273.461844 250.171428 
L 273.461844 246.658398 
L 273.502722 246.658398 
L 273.502722 243.145368 
L 277.298535 243.145368 
L 277.298535 239.632338 
L 280.856997 239.632338 
L 280.856997 236.119309 
L 283.041048 236.119309 
L 283.041048 232.606279 
L 285.436093 232.606279 
L 285.436093 229.093249 
L 291.320932 229.093249 
L 291.320932 225.58022 
L 330.693942 225.58022 
L 330.693942 222.06719 
L 331.290979 222.06719 
L 331.290979 218.55416 
L 332.444254 218.55416 
L 332.444254 215.041131 
L 332.660848 215.041131 
L 332.660848 211.528101 
L 333.869762 211.528101 
L 333.869762 208.015071 
L 334.045225 208.015071 
L 334.045225 204.502041 
L 334.220004 204.502041 
L 334.220004 200.989012 
L 334.578345 200.989012 
L 334.578345 197.475982 
L 334.622735 197.475982 
L 334.622735 193.962952 
L 335.015273 193.962952 
L 335.015273 190.449923 
L 335.386535 190.449923 
L 335.386535 186.936893 
L 335.482012 186.936893 
L 335.482012 183.423863 
L 335.592307 183.423863 
L 335.592307 179.910834 
L 335.63208 179.910834 
L 335.63208 176.397804 
L 335.899004 176.397804 
L 335.899004 172.884774 
L 335.950161 172.884774 
L 335.950161 169.371744 
L 336.227469 169.371744 
L 336.227469 165.858715 
L 336.418705 165.858715 
L 336.418705 162.345685 
L 336.439064 162.345685 
L 336.439064 158.832655 
L 337.138927 158.832655 
L 337.138927 155.319626 
L 337.162133 155.319626 
L 337.162133 151.806596 
L 340.442934 151.806596 
L 340.442934 148.293566 
L 344.323169 148.293566 
L 344.323169 144.780537 
L 352.861079 144.780537 
L 352.861079 141.267507 
L 358.085208 141.267507 
L 358.085208 137.754477 
L 358.515217 137.754477 
L 358.515217 134.241447 
L 360.263626 134.241447 
L 360.263626 130.728418 
L 372.929246 130.728418 
L 372.929246 127.215388 
L 387.964409 127.215388 
L 387.964409 123.702358 
L 396.608277 123.702358 
L 396.608277 120.189329 
L 396.608277 120.189329 
L 396.608277 120.189329 
L 426.4825 120.189329 
" style="fill:none;stroke:#f5deb3;stroke-linecap:square;stroke-width:1.5;"/>
   </g>
   <g id="line2d_19"/>
   <g id="line2d_20"/>
   <g id="line2d_21"/>
   <g id="line2d_22"/>
   <g id="line2d_23"/>
   <g id="line2d_24">
    <path clip-path="url(#pa1a052dd8b)" d="M 290.65654 278.275665 
L 290.65654 274.762636 
L 291.68079 274.762636 
L 291.68079 271.249606 
L 292.37769 271.249606 
L 292.37769 267.736576 
L 292.902073 267.736576 
L 292.902073 264.223546 
L 293.363382 264.223546 
L 293.363382 260.710517 
L 294.945383 260.710517 
L 294.945383 257.197487 
L 295.440091 257.197487 
L 295.440091 253.684457 
L 295.744931 253.684457 
L 295.793177 246.658398 
L 296.365322 246.658398 
L 296.365322 243.145368 
L 296.991703 243.145368 
L 296.991703 239.632338 
L 297.886144 239.632338 
L 297.926283 232.606279 
L 298.348978 232.606279 
L 298.360557 225.58022 
L 298.920818 225.58022 
L 298.920818 222.06719 
L 299.694662 222.06719 
L 299.741758 215.041131 
L 299.911998 215.041131 
L 299.924843 208.015071 
L 300.715497 208.015071 
L 300.715497 204.502041 
L 300.945355 204.502041 
L 300.945355 200.989012 
L 301.417512 200.989012 
L 301.510041 190.449923 
L 301.773886 190.449923 
L 301.773886 186.936893 
L 302.447534 186.936893 
L 302.520176 179.910834 
L 302.571598 179.910834 
L 302.571598 176.397804 
L 302.891696 176.397804 
L 302.891696 172.884774 
L 303.039731 172.884774 
L 303.039731 169.371744 
L 304.122422 169.371744 
L 304.122422 165.858715 
L 304.551299 165.858715 
L 304.551299 162.345685 
L 304.850918 162.345685 
L 304.850918 158.832655 
L 304.993808 158.832655 
L 305.090256 151.806596 
L 305.380893 151.806596 
L 305.380893 148.293566 
L 306.832781 148.293566 
L 306.844525 141.267507 
L 307.279599 141.267507 
L 307.279599 137.754477 
L 307.975865 137.754477 
L 307.975865 134.241447 
L 308.71494 134.241447 
L 308.761199 127.215388 
L 309.118584 127.215388 
L 309.118584 123.702358 
L 309.501553 123.702358 
L 309.501553 120.189329 
L 314.177119 120.189329 
L 314.177119 116.676299 
L 314.371763 116.676299 
L 314.371763 113.163269 
L 314.851678 113.163269 
L 314.851678 109.650239 
L 315.073686 109.650239 
L 315.083253 102.62418 
L 315.59391 102.62418 
L 315.59391 99.11115 
L 315.751265 99.11115 
L 315.751265 95.598121 
L 316.186574 95.598121 
L 316.186574 92.085091 
L 316.760663 92.085091 
L 316.784643 85.059032 
L 317.573027 85.059032 
L 317.573027 81.546002 
L 317.691722 81.546002 
L 317.713442 74.519942 
L 319.051539 74.519942 
L 319.051539 71.006913 
L 322.495788 71.006913 
L 322.495788 67.493883 
L 329.460352 67.493883 
L 329.460352 63.980853 
L 336.379646 63.980853 
L 336.379646 60.467824 
L 336.88975 60.467824 
L 336.88975 56.954794 
L 339.10753 56.954794 
L 339.154183 49.928735 
L 339.575524 49.928735 
L 339.575524 46.415705 
L 339.779499 46.415705 
L 339.779499 42.902675 
L 340.058454 42.902675 
L 340.058454 39.389645 
L 340.318962 39.389645 
L 340.32819 32.363586 
L 340.622042 32.363586 
L 340.622042 28.850556 
L 343.508647 28.850556 
L 343.508647 25.337527 
L 343.684373 25.337527 
L 343.684373 21.824497 
L 344.347275 21.824497 
L 344.347275 18.311467 
L 344.970338 18.311467 
L 344.970338 14.798437 
L 344.970338 14.798437 
L 426.4825 14.798437 
L 426.4825 14.798437 
" style="fill:none;stroke:#f5deb3;stroke-linecap:square;stroke-width:1.5;"/>
   </g>
   <g id="line2d_25"/>
   <g id="line2d_26">
    <path clip-path="url(#pa1a052dd8b)" d="M 294.590083 278.275665 
L 294.590083 274.762636 
L 307.685806 274.762636 
L 307.685806 271.249606 
L 307.752161 271.249606 
L 307.752161 267.736576 
L 311.556649 267.736576 
L 311.556649 264.223546 
L 313.608182 264.223546 
L 313.608182 260.710517 
L 314.106933 260.710517 
L 314.106933 257.197487 
L 315.166985 257.197487 
L 315.166985 253.684457 
L 315.313671 253.684457 
L 315.313671 250.171428 
L 315.354418 250.171428 
L 315.354418 246.658398 
L 315.705521 246.658398 
L 315.705521 243.145368 
L 315.791442 243.145368 
L 315.791442 239.632338 
L 316.255465 239.632338 
L 316.255465 236.119309 
L 316.338797 236.119309 
L 316.338797 232.606279 
L 316.388473 232.606279 
L 316.388473 229.093249 
L 316.442918 229.093249 
L 316.442918 225.58022 
L 316.772389 225.58022 
L 316.772389 222.06719 
L 316.864443 222.06719 
L 316.864443 218.55416 
L 316.946687 218.55416 
L 316.946687 215.041131 
L 317.466906 215.041131 
L 317.466906 211.528101 
L 318.007235 211.528101 
L 318.007235 208.015071 
L 318.445043 208.015071 
L 318.445043 204.502041 
L 318.452111 204.502041 
L 318.452111 200.989012 
L 318.508598 200.989012 
L 318.508598 197.475982 
L 319.27798 197.475982 
L 319.27798 193.962952 
L 319.353585 193.962952 
L 319.353585 190.449923 
L 319.396215 190.449923 
L 319.396215 186.936893 
L 319.494483 186.936893 
L 319.494483 183.423863 
L 320.394569 183.423863 
L 320.394569 179.910834 
L 320.71064 179.910834 
L 320.71064 176.397804 
L 322.211792 176.397804 
L 322.211792 172.884774 
L 322.591793 172.884774 
L 322.591793 169.371744 
L 323.404018 169.371744 
L 323.404018 165.858715 
L 325.141137 165.858715 
L 325.141137 162.345685 
L 325.214695 162.345685 
L 325.214695 158.832655 
L 329.716995 158.832655 
L 329.716995 155.319626 
L 332.600124 155.319626 
L 332.600124 151.806596 
L 339.13553 151.806596 
L 339.13553 148.293566 
L 343.233754 148.293566 
L 343.233754 144.780537 
L 345.042824 144.780537 
L 345.042824 141.267507 
L 346.250464 141.267507 
L 346.250464 137.754477 
L 346.316939 137.754477 
L 346.316939 134.241447 
L 347.453501 134.241447 
L 347.453501 130.728418 
L 347.517449 130.728418 
L 347.517449 127.215388 
L 347.724425 127.215388 
L 347.724425 123.702358 
L 348.997356 123.702358 
L 348.997356 120.189329 
L 354.95908 120.189329 
L 354.95908 116.676299 
L 355.273029 116.676299 
L 355.273029 113.163269 
L 355.729727 113.163269 
L 355.729727 109.650239 
L 361.74143 109.650239 
L 361.74143 106.13721 
L 362.361982 106.13721 
L 362.361982 102.62418 
L 362.959784 102.62418 
L 362.959784 99.11115 
L 363.452476 99.11115 
L 363.452476 95.598121 
L 372.987251 95.598121 
L 372.987251 92.085091 
L 379.406516 92.085091 
L 379.406516 88.572061 
L 405.853323 88.572061 
L 405.853323 85.059032 
L 409.605309 85.059032 
L 409.605309 81.546002 
L 410.493872 81.546002 
L 410.493872 78.032972 
L 412.72844 78.032972 
L 412.72844 74.519942 
L 419.325736 74.519942 
L 419.325736 71.006913 
L 419.325736 71.006913 
L 419.325736 71.006913 
L 426.4825 71.006913 
" style="fill:none;stroke:#f5deb3;stroke-linecap:square;stroke-width:1.5;"/>
   </g>
   <g id="line2d_27"/>
   <g id="line2d_28">
    <path clip-path="url(#pa1a052dd8b)" d="M 275.078845 278.275665 
L 275.078845 274.762636 
L 275.078845 274.762636 
L 275.078845 274.762636 
L 275.133972 274.762636 
L 275.2419 267.736576 
L 275.499002 267.736576 
L 275.543323 260.710517 
L 275.761987 260.710517 
L 275.761987 257.197487 
L 275.883689 257.197487 
L 275.883689 253.684457 
L 276.393213 253.684457 
L 276.487092 246.658398 
L 276.528075 246.658398 
L 276.528075 243.145368 
L 277.086643 243.145368 
L 277.086643 239.632338 
L 277.384026 239.632338 
L 277.384026 236.119309 
L 277.809854 236.119309 
L 277.869679 225.58022 
L 277.994564 225.58022 
L 277.994564 222.06719 
L 278.231762 222.06719 
L 278.231762 218.55416 
L 278.664397 218.55416 
L 278.664397 215.041131 
L 279.046158 215.041131 
L 279.046158 211.528101 
L 279.173569 211.528101 
L 279.173569 208.015071 
L 279.804643 208.015071 
L 279.804643 204.502041 
L 280.049343 204.502041 
L 280.049343 200.989012 
L 280.448924 200.989012 
L 280.448924 197.475982 
L 280.724408 197.475982 
L 280.724408 193.962952 
L 281.177619 193.962952 
L 281.177619 190.449923 
L 282.170511 190.449923 
L 282.203013 183.423863 
L 282.503653 183.423863 
L 282.614444 176.397804 
L 283.173561 176.397804 
L 283.173561 172.884774 
L 283.937007 172.884774 
L 283.970778 165.858715 
L 284.457887 165.858715 
L 284.521256 151.806596 
L 285.292343 151.806596 
L 285.292343 148.293566 
L 285.488732 148.293566 
L 285.488732 144.780537 
L 285.798365 144.780537 
L 285.798365 141.267507 
L 286.05477 141.267507 
L 286.05477 137.754477 
L 286.400001 137.754477 
L 286.40993 130.728418 
L 287.288018 130.728418 
L 287.288018 127.215388 
L 287.716553 127.215388 
L 287.716553 123.702358 
L 288.839495 123.702358 
L 288.839495 120.189329 
L 295.136508 120.189329 
L 295.136508 116.676299 
L 295.499395 116.676299 
L 295.499395 113.163269 
L 296.32208 113.163269 
L 296.32208 109.650239 
L 296.695876 109.650239 
L 296.695876 106.13721 
L 296.852246 106.13721 
L 296.852246 102.62418 
L 297.474924 102.62418 
L 297.474924 99.11115 
L 297.694525 99.11115 
L 297.694525 95.598121 
L 298.073665 95.598121 
L 298.073665 92.085091 
L 298.618999 92.085091 
L 298.618999 88.572061 
L 298.826874 88.572061 
L 298.826874 85.059032 
L 299.783253 85.059032 
L 299.783253 81.546002 
L 301.381648 81.546002 
L 301.381648 78.032972 
L 301.500451 78.032972 
L 301.500451 74.519942 
L 304.380141 74.519942 
L 304.380141 71.006913 
L 305.132164 71.006913 
L 305.132164 67.493883 
L 308.301073 67.493883 
L 308.301073 63.980853 
L 309.363145 63.980853 
L 309.363145 60.467824 
L 313.727746 60.467824 
L 313.727746 56.954794 
L 314.436757 56.954794 
L 314.436757 53.441764 
L 315.262801 53.441764 
L 315.327632 46.415705 
L 315.387312 46.415705 
L 315.387312 42.902675 
L 315.72978 42.902675 
L 315.72978 39.389645 
L 315.845297 39.389645 
L 315.845297 35.876616 
L 317.03664 35.876616 
L 317.08363 28.850556 
L 318.722513 28.850556 
L 318.722513 25.337527 
L 319.666798 25.337527 
L 319.666798 21.824497 
L 320.744415 21.824497 
L 320.744415 18.311467 
L 321.529093 18.311467 
L 321.529093 14.798437 
L 321.529093 14.798437 
L 426.4825 14.798437 
L 426.4825 14.798437 
" style="fill:none;stroke:#f5deb3;stroke-linecap:square;stroke-width:1.5;"/>
   </g>
   <g id="line2d_29"/>
   <g id="line2d_30"/>
   <g id="matplotlib.axis_1">
    <g id="xtick_1">
     <g id="line2d_31">
      <path clip-path="url(#pa1a052dd8b)" d="M 140.7865 278.275665 
L 140.7865 12.163665 
" style="fill:none;stroke:#b0b0b0;stroke-linecap:square;stroke-width:0.8;"/>
     </g>
     <g id="line2d_32">
      <defs>
       <path d="M 0 0 
L 0 3.5 
" id="mc96a166e45" style="stroke:#000000;stroke-width:0.8;"/>
      </defs>
      <g>
       <use style="stroke:#000000;stroke-width:0.8;" x="140.7865" xlink:href="#mc96a166e45" y="278.275665"/>
      </g>
     </g>
     <g id="text_1">
      <!-- 1 -->
      <defs>
       <path d="M 12.40625 8.296875 
L 28.515625 8.296875 
L 28.515625 63.921875 
L 10.984375 60.40625 
L 10.984375 69.390625 
L 28.421875 72.90625 
L 38.28125 72.90625 
L 38.28125 8.296875 
L 54.390625 8.296875 
L 54.390625 0 
L 12.40625 0 
z
" id="DejaVuSans-31"/>
      </defs>
      <g transform="translate(134.424 300.47254)scale(0.2 -0.2)">
       <use xlink:href="#DejaVuSans-31"/>
      </g>
     </g>
    </g>
    <g id="xtick_2">
     <g id="line2d_33">
      <path clip-path="url(#pa1a052dd8b)" d="M 283.6345 278.275665 
L 283.6345 12.163665 
" style="fill:none;stroke:#b0b0b0;stroke-linecap:square;stroke-width:0.8;"/>
     </g>
     <g id="line2d_34">
      <g>
       <use style="stroke:#000000;stroke-width:0.8;" x="283.6345" xlink:href="#mc96a166e45" y="278.275665"/>
      </g>
     </g>
     <g id="text_2">
      <!-- 3 -->
      <defs>
       <path d="M 40.578125 39.3125 
Q 47.65625 37.796875 51.625 33 
Q 55.609375 28.21875 55.609375 21.1875 
Q 55.609375 10.40625 48.1875 4.484375 
Q 40.765625 -1.421875 27.09375 -1.421875 
Q 22.515625 -1.421875 17.65625 -0.515625 
Q 12.796875 0.390625 7.625 2.203125 
L 7.625 11.71875 
Q 11.71875 9.328125 16.59375 8.109375 
Q 21.484375 6.890625 26.8125 6.890625 
Q 36.078125 6.890625 40.9375 10.546875 
Q 45.796875 14.203125 45.796875 21.1875 
Q 45.796875 27.640625 41.28125 31.265625 
Q 36.765625 34.90625 28.71875 34.90625 
L 20.21875 34.90625 
L 20.21875 43.015625 
L 29.109375 43.015625 
Q 36.375 43.015625 40.234375 45.921875 
Q 44.09375 48.828125 44.09375 54.296875 
Q 44.09375 59.90625 40.109375 62.90625 
Q 36.140625 65.921875 28.71875 65.921875 
Q 24.65625 65.921875 20.015625 65.03125 
Q 15.375 64.15625 9.8125 62.3125 
L 9.8125 71.09375 
Q 15.4375 72.65625 20.34375 73.4375 
Q 25.25 74.21875 29.59375 74.21875 
Q 40.828125 74.21875 47.359375 69.109375 
Q 53.90625 64.015625 53.90625 55.328125 
Q 53.90625 49.265625 50.4375 45.09375 
Q 46.96875 40.921875 40.578125 39.3125 
" id="DejaVuSans-33"/>
      </defs>
      <g transform="translate(277.272 300.47254)scale(0.2 -0.2)">
       <use xlink:href="#DejaVuSans-33"/>
      </g>
     </g>
    </g>
    <g id="xtick_3">
     <g id="line2d_35">
      <path clip-path="url(#pa1a052dd8b)" d="M 426.4825 278.275665 
L 426.4825 12.163665 
" style="fill:none;stroke:#b0b0b0;stroke-linecap:square;stroke-width:0.8;"/>
     </g>
     <g id="line2d_36">
      <g>
       <use style="stroke:#000000;stroke-width:0.8;" x="426.4825" xlink:href="#mc96a166e45" y="278.275665"/>
      </g>
     </g>
     <g id="text_3">
      <!-- 5 -->
      <defs>
       <path d="M 10.796875 72.90625 
L 49.515625 72.90625 
L 49.515625 64.59375 
L 19.828125 64.59375 
L 19.828125 46.734375 
Q 21.96875 47.46875 24.109375 47.828125 
Q 26.265625 48.1875 28.421875 48.1875 
Q 40.625 48.1875 47.75 41.5 
Q 54.890625 34.8125 54.890625 23.390625 
Q 54.890625 11.625 47.5625 5.09375 
Q 40.234375 -1.421875 26.90625 -1.421875 
Q 22.3125 -1.421875 17.546875 -0.640625 
Q 12.796875 0.140625 7.71875 1.703125 
L 7.71875 11.625 
Q 12.109375 9.234375 16.796875 8.0625 
Q 21.484375 6.890625 26.703125 6.890625 
Q 35.15625 6.890625 40.078125 11.328125 
Q 45.015625 15.765625 45.015625 23.390625 
Q 45.015625 31 40.078125 35.4375 
Q 35.15625 39.890625 26.703125 39.890625 
Q 22.75 39.890625 18.8125 39.015625 
Q 14.890625 38.140625 10.796875 36.28125 
z
" id="DejaVuSans-35"/>
      </defs>
      <g transform="translate(420.12 300.47254)scale(0.2 -0.2)">
       <use xlink:href="#DejaVuSans-35"/>
      </g>
     </g>
    </g>
    <g id="xtick_4">
     <g id="line2d_37">
      <defs>
       <path d="M 0 0 
L 0 2 
" id="m2734ec4ef0" style="stroke:#000000;stroke-width:0.6;"/>
      </defs>
      <g>
       <use style="stroke:#000000;stroke-width:0.6;" x="90.863266" xlink:href="#m2734ec4ef0" y="278.275665"/>
      </g>
     </g>
    </g>
    <g id="xtick_5">
     <g id="line2d_38">
      <g>
       <use style="stroke:#000000;stroke-width:0.6;" x="103.440408" xlink:href="#m2734ec4ef0" y="278.275665"/>
      </g>
     </g>
    </g>
    <g id="xtick_6">
     <g id="line2d_39">
      <g>
       <use style="stroke:#000000;stroke-width:0.6;" x="112.364033" xlink:href="#m2734ec4ef0" y="278.275665"/>
      </g>
     </g>
    </g>
    <g id="xtick_7">
     <g id="line2d_40">
      <g>
       <use style="stroke:#000000;stroke-width:0.6;" x="119.285734" xlink:href="#m2734ec4ef0" y="278.275665"/>
      </g>
     </g>
    </g>
    <g id="xtick_8">
     <g id="line2d_41">
      <g>
       <use style="stroke:#000000;stroke-width:0.6;" x="124.941175" xlink:href="#m2734ec4ef0" y="278.275665"/>
      </g>
     </g>
    </g>
    <g id="xtick_9">
     <g id="line2d_42">
      <g>
       <use style="stroke:#000000;stroke-width:0.6;" x="129.722782" xlink:href="#m2734ec4ef0" y="278.275665"/>
      </g>
     </g>
    </g>
    <g id="xtick_10">
     <g id="line2d_43">
      <g>
       <use style="stroke:#000000;stroke-width:0.6;" x="133.864799" xlink:href="#m2734ec4ef0" y="278.275665"/>
      </g>
     </g>
    </g>
    <g id="xtick_11">
     <g id="line2d_44">
      <g>
       <use style="stroke:#000000;stroke-width:0.6;" x="137.518317" xlink:href="#m2734ec4ef0" y="278.275665"/>
      </g>
     </g>
    </g>
    <g id="xtick_12">
     <g id="line2d_45">
      <g>
       <use style="stroke:#000000;stroke-width:0.6;" x="233.711266" xlink:href="#m2734ec4ef0" y="278.275665"/>
      </g>
     </g>
    </g>
    <g id="xtick_13">
     <g id="line2d_46">
      <g>
       <use style="stroke:#000000;stroke-width:0.6;" x="246.288408" xlink:href="#m2734ec4ef0" y="278.275665"/>
      </g>
     </g>
    </g>
    <g id="xtick_14">
     <g id="line2d_47">
      <g>
       <use style="stroke:#000000;stroke-width:0.6;" x="255.212033" xlink:href="#m2734ec4ef0" y="278.275665"/>
      </g>
     </g>
    </g>
    <g id="xtick_15">
     <g id="line2d_48">
      <g>
       <use style="stroke:#000000;stroke-width:0.6;" x="262.133734" xlink:href="#m2734ec4ef0" y="278.275665"/>
      </g>
     </g>
    </g>
    <g id="xtick_16">
     <g id="line2d_49">
      <g>
       <use style="stroke:#000000;stroke-width:0.6;" x="267.789175" xlink:href="#m2734ec4ef0" y="278.275665"/>
      </g>
     </g>
    </g>
    <g id="xtick_17">
     <g id="line2d_50">
      <g>
       <use style="stroke:#000000;stroke-width:0.6;" x="272.570782" xlink:href="#m2734ec4ef0" y="278.275665"/>
      </g>
     </g>
    </g>
    <g id="xtick_18">
     <g id="line2d_51">
      <g>
       <use style="stroke:#000000;stroke-width:0.6;" x="276.712799" xlink:href="#m2734ec4ef0" y="278.275665"/>
      </g>
     </g>
    </g>
    <g id="xtick_19">
     <g id="line2d_52">
      <g>
       <use style="stroke:#000000;stroke-width:0.6;" x="280.366317" xlink:href="#m2734ec4ef0" y="278.275665"/>
      </g>
     </g>
    </g>
    <g id="xtick_20">
     <g id="line2d_53">
      <g>
       <use style="stroke:#000000;stroke-width:0.6;" x="376.559266" xlink:href="#m2734ec4ef0" y="278.275665"/>
      </g>
     </g>
    </g>
    <g id="xtick_21">
     <g id="line2d_54">
      <g>
       <use style="stroke:#000000;stroke-width:0.6;" x="389.136408" xlink:href="#m2734ec4ef0" y="278.275665"/>
      </g>
     </g>
    </g>
    <g id="xtick_22">
     <g id="line2d_55">
      <g>
       <use style="stroke:#000000;stroke-width:0.6;" x="398.060033" xlink:href="#m2734ec4ef0" y="278.275665"/>
      </g>
     </g>
    </g>
    <g id="xtick_23">
     <g id="line2d_56">
      <g>
       <use style="stroke:#000000;stroke-width:0.6;" x="404.981734" xlink:href="#m2734ec4ef0" y="278.275665"/>
      </g>
     </g>
    </g>
    <g id="xtick_24">
     <g id="line2d_57">
      <g>
       <use style="stroke:#000000;stroke-width:0.6;" x="410.637175" xlink:href="#m2734ec4ef0" y="278.275665"/>
      </g>
     </g>
    </g>
    <g id="xtick_25">
     <g id="line2d_58">
      <g>
       <use style="stroke:#000000;stroke-width:0.6;" x="415.418782" xlink:href="#m2734ec4ef0" y="278.275665"/>
      </g>
     </g>
    </g>
    <g id="xtick_26">
     <g id="line2d_59">
      <g>
       <use style="stroke:#000000;stroke-width:0.6;" x="419.560799" xlink:href="#m2734ec4ef0" y="278.275665"/>
      </g>
     </g>
    </g>
    <g id="xtick_27">
     <g id="line2d_60">
      <g>
       <use style="stroke:#000000;stroke-width:0.6;" x="423.214317" xlink:href="#m2734ec4ef0" y="278.275665"/>
      </g>
     </g>
    </g>
    <g id="text_4">
     <!-- log10 of FEvals / DIM -->
     <defs>
      <path d="M 9.421875 75.984375 
L 18.40625 75.984375 
L 18.40625 0 
L 9.421875 0 
z
" id="DejaVuSans-6c"/>
      <path d="M 30.609375 48.390625 
Q 23.390625 48.390625 19.1875 42.75 
Q 14.984375 37.109375 14.984375 27.296875 
Q 14.984375 17.484375 19.15625 11.84375 
Q 23.34375 6.203125 30.609375 6.203125 
Q 37.796875 6.203125 41.984375 11.859375 
Q 46.1875 17.53125 46.1875 27.296875 
Q 46.1875 37.015625 41.984375 42.703125 
Q 37.796875 48.390625 30.609375 48.390625 
M 30.609375 56 
Q 42.328125 56 49.015625 48.375 
Q 55.71875 40.765625 55.71875 27.296875 
Q 55.71875 13.875 49.015625 6.21875 
Q 42.328125 -1.421875 30.609375 -1.421875 
Q 18.84375 -1.421875 12.171875 6.21875 
Q 5.515625 13.875 5.515625 27.296875 
Q 5.515625 40.765625 12.171875 48.375 
Q 18.84375 56 30.609375 56 
" id="DejaVuSans-6f"/>
      <path d="M 45.40625 27.984375 
Q 45.40625 37.75 41.375 43.109375 
Q 37.359375 48.484375 30.078125 48.484375 
Q 22.859375 48.484375 18.828125 43.109375 
Q 14.796875 37.75 14.796875 27.984375 
Q 14.796875 18.265625 18.828125 12.890625 
Q 22.859375 7.515625 30.078125 7.515625 
Q 37.359375 7.515625 41.375 12.890625 
Q 45.40625 18.265625 45.40625 27.984375 
M 54.390625 6.78125 
Q 54.390625 -7.171875 48.1875 -13.984375 
Q 42 -20.796875 29.203125 -20.796875 
Q 24.46875 -20.796875 20.265625 -20.09375 
Q 16.0625 -19.390625 12.109375 -17.921875 
L 12.109375 -9.1875 
Q 16.0625 -11.328125 19.921875 -12.34375 
Q 23.78125 -13.375 27.78125 -13.375 
Q 36.625 -13.375 41.015625 -8.765625 
Q 45.40625 -4.15625 45.40625 5.171875 
L 45.40625 9.625 
Q 42.625 4.78125 38.28125 2.390625 
Q 33.9375 0 27.875 0 
Q 17.828125 0 11.671875 7.65625 
Q 5.515625 15.328125 5.515625 27.984375 
Q 5.515625 40.671875 11.671875 48.328125 
Q 17.828125 56 27.875 56 
Q 33.9375 56 38.28125 53.609375 
Q 42.625 51.21875 45.40625 46.390625 
L 45.40625 54.6875 
L 54.390625 54.6875 
z
" id="DejaVuSans-67"/>
      <path d="M 31.78125 66.40625 
Q 24.171875 66.40625 20.328125 58.90625 
Q 16.5 51.421875 16.5 36.375 
Q 16.5 21.390625 20.328125 13.890625 
Q 24.171875 6.390625 31.78125 6.390625 
Q 39.453125 6.390625 43.28125 13.890625 
Q 47.125 21.390625 47.125 36.375 
Q 47.125 51.421875 43.28125 58.90625 
Q 39.453125 66.40625 31.78125 66.40625 
M 31.78125 74.21875 
Q 44.046875 74.21875 50.515625 64.515625 
Q 56.984375 54.828125 56.984375 36.375 
Q 56.984375 17.96875 50.515625 8.265625 
Q 44.046875 -1.421875 31.78125 -1.421875 
Q 19.53125 -1.421875 13.0625 8.265625 
Q 6.59375 17.96875 6.59375 36.375 
Q 6.59375 54.828125 13.0625 64.515625 
Q 19.53125 74.21875 31.78125 74.21875 
" id="DejaVuSans-30"/>
      <path id="DejaVuSans-20"/>
      <path d="M 37.109375 75.984375 
L 37.109375 68.5 
L 28.515625 68.5 
Q 23.6875 68.5 21.796875 66.546875 
Q 19.921875 64.59375 19.921875 59.515625 
L 19.921875 54.6875 
L 34.71875 54.6875 
L 34.71875 47.703125 
L 19.921875 47.703125 
L 19.921875 0 
L 10.890625 0 
L 10.890625 47.703125 
L 2.296875 47.703125 
L 2.296875 54.6875 
L 10.890625 54.6875 
L 10.890625 58.5 
Q 10.890625 67.625 15.140625 71.796875 
Q 19.390625 75.984375 28.609375 75.984375 
z
" id="DejaVuSans-66"/>
      <path d="M 9.8125 72.90625 
L 51.703125 72.90625 
L 51.703125 64.59375 
L 19.671875 64.59375 
L 19.671875 43.109375 
L 48.578125 43.109375 
L 48.578125 34.8125 
L 19.671875 34.8125 
L 19.671875 0 
L 9.8125 0 
z
" id="DejaVuSans-46"/>
      <path d="M 9.8125 72.90625 
L 55.90625 72.90625 
L 55.90625 64.59375 
L 19.671875 64.59375 
L 19.671875 43.015625 
L 54.390625 43.015625 
L 54.390625 34.71875 
L 19.671875 34.71875 
L 19.671875 8.296875 
L 56.78125 8.296875 
L 56.78125 0 
L 9.8125 0 
z
" id="DejaVuSans-45"/>
      <path d="M 2.984375 54.6875 
L 12.5 54.6875 
L 29.59375 8.796875 
L 46.6875 54.6875 
L 56.203125 54.6875 
L 35.6875 0 
L 23.484375 0 
z
" id="DejaVuSans-76"/>
      <path d="M 34.28125 27.484375 
Q 23.390625 27.484375 19.1875 25 
Q 14.984375 22.515625 14.984375 16.5 
Q 14.984375 11.71875 18.140625 8.90625 
Q 21.296875 6.109375 26.703125 6.109375 
Q 34.1875 6.109375 38.703125 11.40625 
Q 43.21875 16.703125 43.21875 25.484375 
L 43.21875 27.484375 
z
M 52.203125 31.203125 
L 52.203125 0 
L 43.21875 0 
L 43.21875 8.296875 
Q 40.140625 3.328125 35.546875 0.953125 
Q 30.953125 -1.421875 24.3125 -1.421875 
Q 15.921875 -1.421875 10.953125 3.296875 
Q 6 8.015625 6 15.921875 
Q 6 25.140625 12.171875 29.828125 
Q 18.359375 34.515625 30.609375 34.515625 
L 43.21875 34.515625 
L 43.21875 35.40625 
Q 43.21875 41.609375 39.140625 45 
Q 35.0625 48.390625 27.6875 48.390625 
Q 23 48.390625 18.546875 47.265625 
Q 14.109375 46.140625 10.015625 43.890625 
L 10.015625 52.203125 
Q 14.9375 54.109375 19.578125 55.046875 
Q 24.21875 56 28.609375 56 
Q 40.484375 56 46.34375 49.84375 
Q 52.203125 43.703125 52.203125 31.203125 
" id="DejaVuSans-61"/>
      <path d="M 44.28125 53.078125 
L 44.28125 44.578125 
Q 40.484375 46.53125 36.375 47.5 
Q 32.28125 48.484375 27.875 48.484375 
Q 21.1875 48.484375 17.84375 46.4375 
Q 14.5 44.390625 14.5 40.28125 
Q 14.5 37.15625 16.890625 35.375 
Q 19.28125 33.59375 26.515625 31.984375 
L 29.59375 31.296875 
Q 39.15625 29.25 43.1875 25.515625 
Q 47.21875 21.78125 47.21875 15.09375 
Q 47.21875 7.46875 41.1875 3.015625 
Q 35.15625 -1.421875 24.609375 -1.421875 
Q 20.21875 -1.421875 15.453125 -0.5625 
Q 10.6875 0.296875 5.421875 2 
L 5.421875 11.28125 
Q 10.40625 8.6875 15.234375 7.390625 
Q 20.0625 6.109375 24.8125 6.109375 
Q 31.15625 6.109375 34.5625 8.28125 
Q 37.984375 10.453125 37.984375 14.40625 
Q 37.984375 18.0625 35.515625 20.015625 
Q 33.0625 21.96875 24.703125 23.78125 
L 21.578125 24.515625 
Q 13.234375 26.265625 9.515625 29.90625 
Q 5.8125 33.546875 5.8125 39.890625 
Q 5.8125 47.609375 11.28125 51.796875 
Q 16.75 56 26.8125 56 
Q 31.78125 56 36.171875 55.265625 
Q 40.578125 54.546875 44.28125 53.078125 
" id="DejaVuSans-73"/>
      <path d="M 25.390625 72.90625 
L 33.6875 72.90625 
L 8.296875 -9.28125 
L 0 -9.28125 
z
" id="DejaVuSans-2f"/>
      <path d="M 19.671875 64.796875 
L 19.671875 8.109375 
L 31.59375 8.109375 
Q 46.6875 8.109375 53.6875 14.9375 
Q 60.6875 21.78125 60.6875 36.53125 
Q 60.6875 51.171875 53.6875 57.984375 
Q 46.6875 64.796875 31.59375 64.796875 
z
M 9.8125 72.90625 
L 30.078125 72.90625 
Q 51.265625 72.90625 61.171875 64.09375 
Q 71.09375 55.28125 71.09375 36.53125 
Q 71.09375 17.671875 61.125 8.828125 
Q 51.171875 0 30.078125 0 
L 9.8125 0 
z
" id="DejaVuSans-44"/>
      <path d="M 9.8125 72.90625 
L 19.671875 72.90625 
L 19.671875 0 
L 9.8125 0 
z
" id="DejaVuSans-49"/>
      <path d="M 9.8125 72.90625 
L 24.515625 72.90625 
L 43.109375 23.296875 
L 61.8125 72.90625 
L 76.515625 72.90625 
L 76.515625 0 
L 66.890625 0 
L 66.890625 64.015625 
L 48.09375 14.015625 
L 38.1875 14.015625 
L 19.390625 64.015625 
L 19.390625 0 
L 9.8125 0 
z
" id="DejaVuSans-4d"/>
     </defs>
     <g transform="translate(142.849063 323.82879)scale(0.2 -0.2)">
      <use xlink:href="#DejaVuSans-6c"/>
      <use x="27.783203" xlink:href="#DejaVuSans-6f"/>
      <use x="88.964844" xlink:href="#DejaVuSans-67"/>
      <use x="152.441406" xlink:href="#DejaVuSans-31"/>
      <use x="216.064453" xlink:href="#DejaVuSans-30"/>
      <use x="279.6875" xlink:href="#DejaVuSans-20"/>
      <use x="311.474609" xlink:href="#DejaVuSans-6f"/>
      <use x="372.65625" xlink:href="#DejaVuSans-66"/>
      <use x="407.861328" xlink:href="#DejaVuSans-20"/>
      <use x="439.648438" xlink:href="#DejaVuSans-46"/>
      <use x="497.167969" xlink:href="#DejaVuSans-45"/>
      <use x="560.351562" xlink:href="#DejaVuSans-76"/>
      <use x="619.53125" xlink:href="#DejaVuSans-61"/>
      <use x="680.810547" xlink:href="#DejaVuSans-6c"/>
      <use x="708.59375" xlink:href="#DejaVuSans-73"/>
      <use x="760.693359" xlink:href="#DejaVuSans-20"/>
      <use x="792.480469" xlink:href="#DejaVuSans-2f"/>
      <use x="826.171875" xlink:href="#DejaVuSans-20"/>
      <use x="857.958984" xlink:href="#DejaVuSans-44"/>
      <use x="934.960938" xlink:href="#DejaVuSans-49"/>
      <use x="964.453125" xlink:href="#DejaVuSans-4d"/>
     </g>
    </g>
   </g>
   <g id="matplotlib.axis_2">
    <g id="ytick_1">
     <g id="line2d_61">
      <path clip-path="url(#pa1a052dd8b)" d="M 69.3625 278.275665 
L 426.4825 278.275665 
" style="fill:none;stroke:#b0b0b0;stroke-linecap:square;stroke-width:0.8;"/>
     </g>
     <g id="line2d_62">
      <defs>
       <path d="M 0 0 
L -3.5 0 
" id="m8b25b886c4" style="stroke:#000000;stroke-width:0.8;"/>
      </defs>
      <g>
       <use style="stroke:#000000;stroke-width:0.8;" x="69.3625" xlink:href="#m8b25b886c4" y="278.275665"/>
      </g>
     </g>
     <g id="text_5">
      <!-- 0.0 -->
      <defs>
       <path d="M 10.6875 12.40625 
L 21 12.40625 
L 21 0 
L 10.6875 0 
z
" id="DejaVuSans-2e"/>
      </defs>
      <g transform="translate(30.55625 285.874103)scale(0.2 -0.2)">
       <use xlink:href="#DejaVuSans-30"/>
       <use x="63.623047" xlink:href="#DejaVuSans-2e"/>
       <use x="95.410156" xlink:href="#DejaVuSans-30"/>
      </g>
     </g>
    </g>
    <g id="ytick_2">
     <g id="line2d_63">
      <path clip-path="url(#pa1a052dd8b)" d="M 69.3625 225.58022 
L 426.4825 225.58022 
" style="fill:none;stroke:#b0b0b0;stroke-linecap:square;stroke-width:0.8;"/>
     </g>
     <g id="line2d_64">
      <g>
       <use style="stroke:#000000;stroke-width:0.8;" x="69.3625" xlink:href="#m8b25b886c4" y="225.58022"/>
      </g>
     </g>
     <g id="text_6">
      <!-- 0.2 -->
      <defs>
       <path d="M 19.1875 8.296875 
L 53.609375 8.296875 
L 53.609375 0 
L 7.328125 0 
L 7.328125 8.296875 
Q 12.9375 14.109375 22.625 23.890625 
Q 32.328125 33.6875 34.8125 36.53125 
Q 39.546875 41.84375 41.421875 45.53125 
Q 43.3125 49.21875 43.3125 52.78125 
Q 43.3125 58.59375 39.234375 62.25 
Q 35.15625 65.921875 28.609375 65.921875 
Q 23.96875 65.921875 18.8125 64.3125 
Q 13.671875 62.703125 7.8125 59.421875 
L 7.8125 69.390625 
Q 13.765625 71.78125 18.9375 73 
Q 24.125 74.21875 28.421875 74.21875 
Q 39.75 74.21875 46.484375 68.546875 
Q 53.21875 62.890625 53.21875 53.421875 
Q 53.21875 48.921875 51.53125 44.890625 
Q 49.859375 40.875 45.40625 35.40625 
Q 44.1875 33.984375 37.640625 27.21875 
Q 31.109375 20.453125 19.1875 8.296875 
" id="DejaVuSans-32"/>
      </defs>
      <g transform="translate(30.55625 233.178657)scale(0.2 -0.2)">
       <use xlink:href="#DejaVuSans-30"/>
       <use x="63.623047" xlink:href="#DejaVuSans-2e"/>
       <use x="95.410156" xlink:href="#DejaVuSans-32"/>
      </g>
     </g>
    </g>
    <g id="ytick_3">
     <g id="line2d_65">
      <path clip-path="url(#pa1a052dd8b)" d="M 69.3625 172.884774 
L 426.4825 172.884774 
" style="fill:none;stroke:#b0b0b0;stroke-linecap:square;stroke-width:0.8;"/>
     </g>
     <g id="line2d_66">
      <g>
       <use style="stroke:#000000;stroke-width:0.8;" x="69.3625" xlink:href="#m8b25b886c4" y="172.884774"/>
      </g>
     </g>
     <g id="text_7">
      <!-- 0.4 -->
      <defs>
       <path d="M 37.796875 64.3125 
L 12.890625 25.390625 
L 37.796875 25.390625 
z
M 35.203125 72.90625 
L 47.609375 72.90625 
L 47.609375 25.390625 
L 58.015625 25.390625 
L 58.015625 17.1875 
L 47.609375 17.1875 
L 47.609375 0 
L 37.796875 0 
L 37.796875 17.1875 
L 4.890625 17.1875 
L 4.890625 26.703125 
z
" id="DejaVuSans-34"/>
      </defs>
      <g transform="translate(30.55625 180.483212)scale(0.2 -0.2)">
       <use xlink:href="#DejaVuSans-30"/>
       <use x="63.623047" xlink:href="#DejaVuSans-2e"/>
       <use x="95.410156" xlink:href="#DejaVuSans-34"/>
      </g>
     </g>
    </g>
    <g id="ytick_4">
     <g id="line2d_67">
      <path clip-path="url(#pa1a052dd8b)" d="M 69.3625 120.189329 
L 426.4825 120.189329 
" style="fill:none;stroke:#b0b0b0;stroke-linecap:square;stroke-width:0.8;"/>
     </g>
     <g id="line2d_68">
      <g>
       <use style="stroke:#000000;stroke-width:0.8;" x="69.3625" xlink:href="#m8b25b886c4" y="120.189329"/>
      </g>
     </g>
     <g id="text_8">
      <!-- 0.6 -->
      <defs>
       <path d="M 33.015625 40.375 
Q 26.375 40.375 22.484375 35.828125 
Q 18.609375 31.296875 18.609375 23.390625 
Q 18.609375 15.53125 22.484375 10.953125 
Q 26.375 6.390625 33.015625 6.390625 
Q 39.65625 6.390625 43.53125 10.953125 
Q 47.40625 15.53125 47.40625 23.390625 
Q 47.40625 31.296875 43.53125 35.828125 
Q 39.65625 40.375 33.015625 40.375 
M 52.59375 71.296875 
L 52.59375 62.3125 
Q 48.875 64.0625 45.09375 64.984375 
Q 41.3125 65.921875 37.59375 65.921875 
Q 27.828125 65.921875 22.671875 59.328125 
Q 17.53125 52.734375 16.796875 39.40625 
Q 19.671875 43.65625 24.015625 45.921875 
Q 28.375 48.1875 33.59375 48.1875 
Q 44.578125 48.1875 50.953125 41.515625 
Q 57.328125 34.859375 57.328125 23.390625 
Q 57.328125 12.15625 50.6875 5.359375 
Q 44.046875 -1.421875 33.015625 -1.421875 
Q 20.359375 -1.421875 13.671875 8.265625 
Q 6.984375 17.96875 6.984375 36.375 
Q 6.984375 53.65625 15.1875 63.9375 
Q 23.390625 74.21875 37.203125 74.21875 
Q 40.921875 74.21875 44.703125 73.484375 
Q 48.484375 72.75 52.59375 71.296875 
" id="DejaVuSans-36"/>
      </defs>
      <g transform="translate(30.55625 127.787766)scale(0.2 -0.2)">
       <use xlink:href="#DejaVuSans-30"/>
       <use x="63.623047" xlink:href="#DejaVuSans-2e"/>
       <use x="95.410156" xlink:href="#DejaVuSans-36"/>
      </g>
     </g>
    </g>
    <g id="ytick_5">
     <g id="line2d_69">
      <path clip-path="url(#pa1a052dd8b)" d="M 69.3625 67.493883 
L 426.4825 67.493883 
" style="fill:none;stroke:#b0b0b0;stroke-linecap:square;stroke-width:0.8;"/>
     </g>
     <g id="line2d_70">
      <g>
       <use style="stroke:#000000;stroke-width:0.8;" x="69.3625" xlink:href="#m8b25b886c4" y="67.493883"/>
      </g>
     </g>
     <g id="text_9">
      <!-- 0.8 -->
      <defs>
       <path d="M 31.78125 34.625 
Q 24.75 34.625 20.71875 30.859375 
Q 16.703125 27.09375 16.703125 20.515625 
Q 16.703125 13.921875 20.71875 10.15625 
Q 24.75 6.390625 31.78125 6.390625 
Q 38.8125 6.390625 42.859375 10.171875 
Q 46.921875 13.96875 46.921875 20.515625 
Q 46.921875 27.09375 42.890625 30.859375 
Q 38.875 34.625 31.78125 34.625 
M 21.921875 38.8125 
Q 15.578125 40.375 12.03125 44.71875 
Q 8.5 49.078125 8.5 55.328125 
Q 8.5 64.0625 14.71875 69.140625 
Q 20.953125 74.21875 31.78125 74.21875 
Q 42.671875 74.21875 48.875 69.140625 
Q 55.078125 64.0625 55.078125 55.328125 
Q 55.078125 49.078125 51.53125 44.71875 
Q 48 40.375 41.703125 38.8125 
Q 48.828125 37.15625 52.796875 32.3125 
Q 56.78125 27.484375 56.78125 20.515625 
Q 56.78125 9.90625 50.3125 4.234375 
Q 43.84375 -1.421875 31.78125 -1.421875 
Q 19.734375 -1.421875 13.25 4.234375 
Q 6.78125 9.90625 6.78125 20.515625 
Q 6.78125 27.484375 10.78125 32.3125 
Q 14.796875 37.15625 21.921875 38.8125 
M 18.3125 54.390625 
Q 18.3125 48.734375 21.84375 45.5625 
Q 25.390625 42.390625 31.78125 42.390625 
Q 38.140625 42.390625 41.71875 45.5625 
Q 45.3125 48.734375 45.3125 54.390625 
Q 45.3125 60.0625 41.71875 63.234375 
Q 38.140625 66.40625 31.78125 66.40625 
Q 25.390625 66.40625 21.84375 63.234375 
Q 18.3125 60.0625 18.3125 54.390625 
" id="DejaVuSans-38"/>
      </defs>
      <g transform="translate(30.55625 75.092321)scale(0.2 -0.2)">
       <use xlink:href="#DejaVuSans-30"/>
       <use x="63.623047" xlink:href="#DejaVuSans-2e"/>
       <use x="95.410156" xlink:href="#DejaVuSans-38"/>
      </g>
     </g>
    </g>
    <g id="ytick_6">
     <g id="line2d_71">
      <path clip-path="url(#pa1a052dd8b)" d="M 69.3625 14.798437 
L 426.4825 14.798437 
" style="fill:none;stroke:#b0b0b0;stroke-linecap:square;stroke-width:0.8;"/>
     </g>
     <g id="line2d_72">
      <g>
       <use style="stroke:#000000;stroke-width:0.8;" x="69.3625" xlink:href="#m8b25b886c4" y="14.798437"/>
      </g>
     </g>
     <g id="text_10">
      <!-- 1.0 -->
      <g transform="translate(30.55625 22.396875)scale(0.2 -0.2)">
       <use xlink:href="#DejaVuSans-31"/>
       <use x="63.623047" xlink:href="#DejaVuSans-2e"/>
       <use x="95.410156" xlink:href="#DejaVuSans-30"/>
      </g>
     </g>
    </g>
    <g id="text_11">
     <!-- proportion of trials -->
     <defs>
      <path d="M 18.109375 8.203125 
L 18.109375 -20.796875 
L 9.078125 -20.796875 
L 9.078125 54.6875 
L 18.109375 54.6875 
L 18.109375 46.390625 
Q 20.953125 51.265625 25.265625 53.625 
Q 29.59375 56 35.59375 56 
Q 45.5625 56 51.78125 48.09375 
Q 58.015625 40.1875 58.015625 27.296875 
Q 58.015625 14.40625 51.78125 6.484375 
Q 45.5625 -1.421875 35.59375 -1.421875 
Q 29.59375 -1.421875 25.265625 0.953125 
Q 20.953125 3.328125 18.109375 8.203125 
M 48.6875 27.296875 
Q 48.6875 37.203125 44.609375 42.84375 
Q 40.53125 48.484375 33.40625 48.484375 
Q 26.265625 48.484375 22.1875 42.84375 
Q 18.109375 37.203125 18.109375 27.296875 
Q 18.109375 17.390625 22.1875 11.75 
Q 26.265625 6.109375 33.40625 6.109375 
Q 40.53125 6.109375 44.609375 11.75 
Q 48.6875 17.390625 48.6875 27.296875 
" id="DejaVuSans-70"/>
      <path d="M 41.109375 46.296875 
Q 39.59375 47.171875 37.8125 47.578125 
Q 36.03125 48 33.890625 48 
Q 26.265625 48 22.1875 43.046875 
Q 18.109375 38.09375 18.109375 28.8125 
L 18.109375 0 
L 9.078125 0 
L 9.078125 54.6875 
L 18.109375 54.6875 
L 18.109375 46.1875 
Q 20.953125 51.171875 25.484375 53.578125 
Q 30.03125 56 36.53125 56 
Q 37.453125 56 38.578125 55.875 
Q 39.703125 55.765625 41.0625 55.515625 
z
" id="DejaVuSans-72"/>
      <path d="M 18.3125 70.21875 
L 18.3125 54.6875 
L 36.8125 54.6875 
L 36.8125 47.703125 
L 18.3125 47.703125 
L 18.3125 18.015625 
Q 18.3125 11.328125 20.140625 9.421875 
Q 21.96875 7.515625 27.59375 7.515625 
L 36.8125 7.515625 
L 36.8125 0 
L 27.59375 0 
Q 17.1875 0 13.234375 3.875 
Q 9.28125 7.765625 9.28125 18.015625 
L 9.28125 47.703125 
L 2.6875 47.703125 
L 2.6875 54.6875 
L 9.28125 54.6875 
L 9.28125 70.21875 
z
" id="DejaVuSans-74"/>
      <path d="M 9.421875 54.6875 
L 18.40625 54.6875 
L 18.40625 0 
L 9.421875 0 
z
M 9.421875 75.984375 
L 18.40625 75.984375 
L 18.40625 64.59375 
L 9.421875 64.59375 
z
" id="DejaVuSans-69"/>
      <path d="M 54.890625 33.015625 
L 54.890625 0 
L 45.90625 0 
L 45.90625 32.71875 
Q 45.90625 40.484375 42.875 44.328125 
Q 39.84375 48.1875 33.796875 48.1875 
Q 26.515625 48.1875 22.3125 43.546875 
Q 18.109375 38.921875 18.109375 30.90625 
L 18.109375 0 
L 9.078125 0 
L 9.078125 54.6875 
L 18.109375 54.6875 
L 18.109375 46.1875 
Q 21.34375 51.125 25.703125 53.5625 
Q 30.078125 56 35.796875 56 
Q 45.21875 56 50.046875 50.171875 
Q 54.890625 44.34375 54.890625 33.015625 
" id="DejaVuSans-6e"/>
     </defs>
     <g transform="translate(22.396875 238.44779)rotate(-90)scale(0.2 -0.2)">
      <use xlink:href="#DejaVuSans-70"/>
      <use x="63.476562" xlink:href="#DejaVuSans-72"/>
      <use x="104.558594" xlink:href="#DejaVuSans-6f"/>
      <use x="165.740234" xlink:href="#DejaVuSans-70"/>
      <use x="229.216797" xlink:href="#DejaVuSans-6f"/>
      <use x="290.398438" xlink:href="#DejaVuSans-72"/>
      <use x="331.511719" xlink:href="#DejaVuSans-74"/>
      <use x="370.720703" xlink:href="#DejaVuSans-69"/>
      <use x="398.503906" xlink:href="#DejaVuSans-6f"/>
      <use x="459.685547" xlink:href="#DejaVuSans-6e"/>
      <use x="523.064453" xlink:href="#DejaVuSans-20"/>
      <use x="554.851562" xlink:href="#DejaVuSans-6f"/>
      <use x="616.033203" xlink:href="#DejaVuSans-66"/>
      <use x="651.238281" xlink:href="#DejaVuSans-20"/>
      <use x="683.025391" xlink:href="#DejaVuSans-74"/>
      <use x="722.234375" xlink:href="#DejaVuSans-72"/>
      <use x="763.347656" xlink:href="#DejaVuSans-69"/>
      <use x="791.130859" xlink:href="#DejaVuSans-61"/>
      <use x="852.410156" xlink:href="#DejaVuSans-6c"/>
      <use x="880.193359" xlink:href="#DejaVuSans-73"/>
     </g>
    </g>
   </g>
   <g id="line2d_73">
    <path clip-path="url(#pa1a052dd8b)" d="M 183.788033 278.275665 
L 183.788033 274.762636 
L 183.788033 274.762636 
L 183.788033 271.249606 
L 190.709734 271.249606 
L 190.709734 267.736576 
L 190.709734 267.736576 
L 190.709734 264.223546 
L 190.709734 264.223546 
L 190.709734 260.710517 
L 190.709734 260.710517 
L 190.709734 257.197487 
L 190.709734 257.197487 
L 190.709734 253.684457 
L 190.709734 253.684457 
L 190.709734 250.171428 
L 190.709734 250.171428 
L 190.709734 246.658398 
L 196.365175 246.658398 
L 196.365175 243.145368 
L 196.365175 243.145368 
L 196.365175 239.632338 
L 196.365175 239.632338 
L 196.365175 236.119309 
L 212.2105 236.119309 
L 212.2105 232.606279 
L 212.2105 232.606279 
L 212.2105 229.093249 
L 220.34879 229.093249 
L 220.34879 225.58022 
L 329.662882 225.58022 
L 329.662882 222.06719 
L 331.038675 222.06719 
L 331.038675 218.55416 
L 333.557734 218.55416 
L 333.557734 215.041131 
L 339.005689 215.041131 
L 339.005689 211.528101 
L 339.109605 211.528101 
L 339.109605 208.015071 
L 339.213175 208.015071 
L 339.213175 204.502041 
L 339.213175 204.502041 
L 339.213175 200.989012 
L 341.504547 200.989012 
L 341.504547 197.475982 
L 344.868616 197.475982 
L 344.868616 193.962952 
L 347.90328 193.962952 
L 347.90328 190.449923 
L 349.907645 190.449923 
L 349.907645 186.936893 
L 354.9964 186.936893 
L 354.9964 183.423863 
L 357.873614 183.423863 
L 357.873614 179.910834 
L 357.958482 179.910834 
L 357.958482 176.397804 
L 357.958482 176.397804 
L 357.958482 172.884774 
L 360.349925 172.884774 
L 360.349925 169.371744 
L 360.610372 169.371744 
L 360.610372 165.858715 
L 362.691622 165.858715 
L 362.691622 162.345685 
L 363.005314 162.345685 
L 363.005314 158.832655 
L 363.1012 158.832655 
L 363.1012 155.319626 
L 364.020874 155.319626 
L 364.020874 151.806596 
L 364.298451 151.806596 
L 364.298451 148.293566 
L 366.369383 148.293566 
L 366.369383 144.780537 
L 366.412435 144.780537 
L 366.412435 141.267507 
L 367.676973 141.267507 
L 367.676973 137.754477 
L 368.652751 137.754477 
L 368.652751 134.241447 
L 369.384506 134.241447 
L 369.384506 130.728418 
L 369.598768 130.728418 
L 369.598768 127.215388 
L 369.618173 127.215388 
L 369.618173 123.702358 
L 372.804773 123.702358 
L 372.804773 120.189329 
L 400.20943 120.189329 
L 400.20943 116.676299 
L 402.361581 116.676299 
L 402.361581 113.163269 
L 402.375079 113.163269 
L 402.375079 109.650239 
L 403.915161 109.650239 
L 403.915161 106.13721 
L 404.651177 106.13721 
L 404.651177 102.62418 
L 405.265804 102.62418 
L 405.265804 99.11115 
L 406.701265 99.11115 
L 406.701265 95.598121 
L 407.983251 95.598121 
L 407.983251 92.085091 
L 408.646278 92.085091 
L 408.646278 88.572061 
L 411.684288 88.572061 
L 411.684288 85.059032 
L 416.292616 85.059032 
L 416.292616 81.546002 
L 417.994209 81.546002 
L 417.994209 78.032972 
L 422.329846 78.032972 
L 422.329846 74.519942 
L 422.329846 74.519942 
L 422.329846 74.519942 
L 426.4825 74.519942 
" style="fill:none;stroke:#000000;stroke-linecap:square;stroke-width:1.5;"/>
   </g>
   <g id="line2d_74"/>
   <g id="line2d_75">
    <path clip-path="url(#pa1a052dd8b)" d="M 252.79374 278.275665 
L 252.79374 274.762636 
L 255.212033 274.762636 
L 255.212033 271.249606 
L 255.212033 271.249606 
L 255.212033 267.736576 
L 255.212033 267.736576 
L 255.212033 264.223546 
L 258.865551 264.223546 
L 258.865551 260.710517 
L 258.865551 260.710517 
L 258.865551 257.197487 
L 260.214417 257.197487 
L 260.214417 253.684457 
L 260.867474 253.684457 
L 260.867474 250.171428 
L 277.098134 250.171428 
L 277.098134 246.658398 
L 280.709072 246.658398 
L 280.709072 243.145368 
L 282.043431 243.145368 
L 282.043431 239.632338 
L 283.322748 239.632338 
L 283.322748 236.119309 
L 294.292326 236.119309 
L 294.292326 232.606279 
L 297.626437 232.606279 
L 297.626437 229.093249 
L 303.869007 229.093249 
L 303.869007 225.58022 
L 380.212784 225.58022 
L 380.212784 222.06719 
L 380.70516 222.06719 
L 380.70516 218.55416 
L 380.827043 218.55416 
L 380.827043 215.041131 
L 381.548449 215.041131 
L 381.548449 211.528101 
L 384.107388 211.528101 
L 384.107388 208.015071 
L 386.729292 208.015071 
L 386.729292 204.502041 
L 387.458146 204.502041 
L 387.458146 200.989012 
L 389.932598 200.989012 
L 389.932598 197.475982 
L 389.932598 197.475982 
L 389.932598 197.475982 
L 426.4825 197.475982 
" style="fill:none;stroke:#00bfbf;stroke-linecap:square;stroke-width:1.5;"/>
   </g>
   <g id="line2d_76"/>
   <g id="line2d_77">
    <path clip-path="url(#pa1a052dd8b)" d="M 394.645024 278.275665 
L 394.645024 274.762636 
L 394.645024 274.762636 
L 394.645024 274.762636 
L 426.4825 274.762636 
" style="fill:none;stroke:#bf00bf;stroke-linecap:square;stroke-width:1.5;"/>
   </g>
   <g id="line2d_78"/>
   <g id="line2d_79"/>
   <g id="line2d_80">
    <path clip-path="url(#pa1a052dd8b)" d="M 426.4825 278.275665 
L 426.4825 12.163665 
" style="fill:none;stroke:#000000;stroke-linecap:square;stroke-width:1.5;"/>
   </g>
   <g id="patch_3">
    <path d="M 69.3625 278.275665 
L 69.3625 12.163665 
" style="fill:none;stroke:#000000;stroke-linecap:square;stroke-linejoin:miter;stroke-width:0.8;"/>
   </g>
   <g id="patch_4">
    <path d="M 426.4825 278.275665 
L 426.4825 12.163665 
" style="fill:none;stroke:#000000;stroke-linecap:square;stroke-linejoin:miter;stroke-width:0.8;"/>
   </g>
   <g id="patch_5">
    <path d="M 69.3625 278.275665 
L 426.4825 278.275665 
" style="fill:none;stroke:#000000;stroke-linecap:square;stroke-linejoin:miter;stroke-width:0.8;"/>
   </g>
   <g id="patch_6">
    <path d="M 69.3625 12.163665 
L 426.4825 12.163665 
" style="fill:none;stroke:#000000;stroke-linecap:square;stroke-linejoin:miter;stroke-width:0.8;"/>
   </g>
   <g id="text_12">
    <!-- {f10-f14}, 20-D -->
    <defs>
     <path d="M 51.125 -9.28125 
L 51.125 -16.3125 
L 48.09375 -16.3125 
Q 35.9375 -16.3125 31.8125 -12.6875 
Q 27.6875 -9.078125 27.6875 1.703125 
L 27.6875 13.375 
Q 27.6875 20.75 25.046875 23.578125 
Q 22.40625 26.421875 15.484375 26.421875 
L 12.5 26.421875 
L 12.5 33.40625 
L 15.484375 33.40625 
Q 22.46875 33.40625 25.078125 36.203125 
Q 27.6875 39.015625 27.6875 46.296875 
L 27.6875 58.015625 
Q 27.6875 68.796875 31.8125 72.390625 
Q 35.9375 75.984375 48.09375 75.984375 
L 51.125 75.984375 
L 51.125 69 
L 47.796875 69 
Q 40.921875 69 38.8125 66.84375 
Q 36.71875 64.703125 36.71875 57.8125 
L 36.71875 45.703125 
Q 36.71875 38.03125 34.5 34.5625 
Q 32.28125 31.109375 26.90625 29.890625 
Q 32.328125 28.5625 34.515625 25.09375 
Q 36.71875 21.625 36.71875 14.015625 
L 36.71875 1.90625 
Q 36.71875 -4.984375 38.8125 -7.125 
Q 40.921875 -9.28125 47.796875 -9.28125 
z
" id="DejaVuSans-7b"/>
     <path d="M 4.890625 31.390625 
L 31.203125 31.390625 
L 31.203125 23.390625 
L 4.890625 23.390625 
z
" id="DejaVuSans-2d"/>
     <path d="M 12.5 -9.28125 
L 15.921875 -9.28125 
Q 22.75 -9.28125 24.828125 -7.171875 
Q 26.90625 -5.078125 26.90625 1.90625 
L 26.90625 14.015625 
Q 26.90625 21.625 29.09375 25.09375 
Q 31.296875 28.5625 36.71875 29.890625 
Q 31.296875 31.109375 29.09375 34.5625 
Q 26.90625 38.03125 26.90625 45.703125 
L 26.90625 57.8125 
Q 26.90625 64.75 24.828125 66.875 
Q 22.75 69 15.921875 69 
L 12.5 69 
L 12.5 75.984375 
L 15.578125 75.984375 
Q 27.734375 75.984375 31.8125 72.390625 
Q 35.890625 68.796875 35.890625 58.015625 
L 35.890625 46.296875 
Q 35.890625 39.015625 38.515625 36.203125 
Q 41.15625 33.40625 48.09375 33.40625 
L 51.125 33.40625 
L 51.125 26.421875 
L 48.09375 26.421875 
Q 41.15625 26.421875 38.515625 23.578125 
Q 35.890625 20.75 35.890625 13.375 
L 35.890625 1.703125 
Q 35.890625 -9.078125 31.8125 -12.6875 
Q 27.734375 -16.3125 15.578125 -16.3125 
L 12.5 -16.3125 
z
" id="DejaVuSans-7d"/>
     <path d="M 11.71875 12.40625 
L 22.015625 12.40625 
L 22.015625 4 
L 14.015625 -11.625 
L 7.71875 -11.625 
L 11.71875 4 
z
" id="DejaVuSans-2c"/>
    </defs>
    <g transform="translate(168.71 32.68278)scale(0.2 -0.2)">
     <use xlink:href="#DejaVuSans-7b"/>
     <use x="63.623047" xlink:href="#DejaVuSans-66"/>
     <use x="98.828125" xlink:href="#DejaVuSans-31"/>
     <use x="162.451172" xlink:href="#DejaVuSans-30"/>
     <use x="226.074219" xlink:href="#DejaVuSans-2d"/>
     <use x="262.158203" xlink:href="#DejaVuSans-66"/>
     <use x="297.363281" xlink:href="#DejaVuSans-31"/>
     <use x="360.986328" xlink:href="#DejaVuSans-34"/>
     <use x="424.609375" xlink:href="#DejaVuSans-7d"/>
     <use x="488.232422" xlink:href="#DejaVuSans-2c"/>
     <use x="520.019531" xlink:href="#DejaVuSans-20"/>
     <use x="551.806641" xlink:href="#DejaVuSans-32"/>
     <use x="615.429688" xlink:href="#DejaVuSans-30"/>
     <use x="679.052734" xlink:href="#DejaVuSans-2d"/>
     <use x="715.136719" xlink:href="#DejaVuSans-44"/>
    </g>
   </g>
   <g id="text_13">
    <!-- absolute targets -->
    <defs>
     <path d="M 48.6875 27.296875 
Q 48.6875 37.203125 44.609375 42.84375 
Q 40.53125 48.484375 33.40625 48.484375 
Q 26.265625 48.484375 22.1875 42.84375 
Q 18.109375 37.203125 18.109375 27.296875 
Q 18.109375 17.390625 22.1875 11.75 
Q 26.265625 6.109375 33.40625 6.109375 
Q 40.53125 6.109375 44.609375 11.75 
Q 48.6875 17.390625 48.6875 27.296875 
M 18.109375 46.390625 
Q 20.953125 51.265625 25.265625 53.625 
Q 29.59375 56 35.59375 56 
Q 45.5625 56 51.78125 48.09375 
Q 58.015625 40.1875 58.015625 27.296875 
Q 58.015625 14.40625 51.78125 6.484375 
Q 45.5625 -1.421875 35.59375 -1.421875 
Q 29.59375 -1.421875 25.265625 0.953125 
Q 20.953125 3.328125 18.109375 8.203125 
L 18.109375 0 
L 9.078125 0 
L 9.078125 75.984375 
L 18.109375 75.984375 
z
" id="DejaVuSans-62"/>
     <path d="M 8.5 21.578125 
L 8.5 54.6875 
L 17.484375 54.6875 
L 17.484375 21.921875 
Q 17.484375 14.15625 20.5 10.265625 
Q 23.53125 6.390625 29.59375 6.390625 
Q 36.859375 6.390625 41.078125 11.03125 
Q 45.3125 15.671875 45.3125 23.6875 
L 45.3125 54.6875 
L 54.296875 54.6875 
L 54.296875 0 
L 45.3125 0 
L 45.3125 8.40625 
Q 42.046875 3.421875 37.71875 1 
Q 33.40625 -1.421875 27.6875 -1.421875 
Q 18.265625 -1.421875 13.375 4.4375 
Q 8.5 10.296875 8.5 21.578125 
M 31.109375 56 
z
" id="DejaVuSans-75"/>
     <path d="M 56.203125 29.59375 
L 56.203125 25.203125 
L 14.890625 25.203125 
Q 15.484375 15.921875 20.484375 11.0625 
Q 25.484375 6.203125 34.421875 6.203125 
Q 39.59375 6.203125 44.453125 7.46875 
Q 49.3125 8.734375 54.109375 11.28125 
L 54.109375 2.78125 
Q 49.265625 0.734375 44.1875 -0.34375 
Q 39.109375 -1.421875 33.890625 -1.421875 
Q 20.796875 -1.421875 13.15625 6.1875 
Q 5.515625 13.8125 5.515625 26.8125 
Q 5.515625 40.234375 12.765625 48.109375 
Q 20.015625 56 32.328125 56 
Q 43.359375 56 49.78125 48.890625 
Q 56.203125 41.796875 56.203125 29.59375 
M 47.21875 32.234375 
Q 47.125 39.59375 43.09375 43.984375 
Q 39.0625 48.390625 32.421875 48.390625 
Q 24.90625 48.390625 20.390625 44.140625 
Q 15.875 39.890625 15.1875 32.171875 
z
" id="DejaVuSans-65"/>
    </defs>
    <g transform="translate(69.3625 291.449527)scale(0.14 -0.14)">
     <use xlink:href="#DejaVuSans-61"/>
     <use x="61.279297" xlink:href="#DejaVuSans-62"/>
     <use x="124.755859" xlink:href="#DejaVuSans-73"/>
     <use x="176.855469" xlink:href="#DejaVuSans-6f"/>
     <use x="238.037109" xlink:href="#DejaVuSans-6c"/>
     <use x="265.820312" xlink:href="#DejaVuSans-75"/>
     <use x="329.199219" xlink:href="#DejaVuSans-74"/>
     <use x="368.408203" xlink:href="#DejaVuSans-65"/>
     <use x="429.931641" xlink:href="#DejaVuSans-20"/>
     <use x="461.71875" xlink:href="#DejaVuSans-74"/>
     <use x="500.927734" xlink:href="#DejaVuSans-61"/>
     <use x="562.207031" xlink:href="#DejaVuSans-72"/>
     <use x="603.304688" xlink:href="#DejaVuSans-67"/>
     <use x="666.78125" xlink:href="#DejaVuSans-65"/>
     <use x="728.304688" xlink:href="#DejaVuSans-74"/>
     <use x="767.513672" xlink:href="#DejaVuSans-73"/>
    </g>
   </g>
   <g id="text_14">
    <!-- v2.0.1 -->
    <g style="fill:#808080;" transform="translate(232.24125 273.534858)scale(0.1 -0.1)">
     <use xlink:href="#DejaVuSans-76"/>
     <use x="59.179688" xlink:href="#DejaVuSans-32"/>
     <use x="122.802734" xlink:href="#DejaVuSans-2e"/>
     <use x="154.589844" xlink:href="#DejaVuSans-30"/>
     <use x="218.212891" xlink:href="#DejaVuSans-2e"/>
     <use x="250" xlink:href="#DejaVuSans-31"/>
    </g>
   </g>
   <g id="legend_1">
    <g id="patch_7">
     <path d="M 83.3625 145.588665 
L 212.584375 145.588665 
Q 216.584375 145.588665 216.584375 141.588665 
L 216.584375 26.163665 
Q 216.584375 22.163665 212.584375 22.163665 
L 83.3625 22.163665 
Q 79.3625 22.163665 79.3625 26.163665 
L 79.3625 141.588665 
Q 79.3625 145.588665 83.3625 145.588665 
z
" style="fill:#ffffff;opacity:0.2;stroke:#cccccc;stroke-linejoin:miter;"/>
    </g>
    <g id="line2d_81">
     <path d="M 87.3625 38.36054 
L 127.3625 38.36054 
" style="fill:none;stroke:#000000;stroke-linecap:square;stroke-width:1.5;"/>
    </g>
    <g id="line2d_82"/>
    <g id="text_15">
     <!-- 1: 4/5 -->
     <defs>
      <path d="M 11.71875 12.40625 
L 22.015625 12.40625 
L 22.015625 0 
L 11.71875 0 
z
M 11.71875 51.703125 
L 22.015625 51.703125 
L 22.015625 39.3125 
L 11.71875 39.3125 
z
" id="DejaVuSans-3a"/>
     </defs>
     <g transform="translate(143.3625 45.36054)scale(0.2 -0.2)">
      <use xlink:href="#DejaVuSans-31"/>
      <use x="63.623047" xlink:href="#DejaVuSans-3a"/>
      <use x="97.314453" xlink:href="#DejaVuSans-20"/>
      <use x="129.101562" xlink:href="#DejaVuSans-34"/>
      <use x="192.724609" xlink:href="#DejaVuSans-2f"/>
      <use x="226.416016" xlink:href="#DejaVuSans-35"/>
     </g>
    </g>
    <g id="line2d_83">
     <path d="M 87.3625 67.71679 
L 127.3625 67.71679 
" style="fill:none;stroke:#00bfbf;stroke-linecap:square;stroke-width:1.5;"/>
    </g>
    <g id="line2d_84"/>
    <g id="text_16">
     <!-- -1: 3/5 -->
     <g transform="translate(143.3625 74.71679)scale(0.2 -0.2)">
      <use xlink:href="#DejaVuSans-2d"/>
      <use x="36.083984" xlink:href="#DejaVuSans-31"/>
      <use x="99.707031" xlink:href="#DejaVuSans-3a"/>
      <use x="133.398438" xlink:href="#DejaVuSans-20"/>
      <use x="165.185547" xlink:href="#DejaVuSans-33"/>
      <use x="228.808594" xlink:href="#DejaVuSans-2f"/>
      <use x="262.5" xlink:href="#DejaVuSans-35"/>
     </g>
    </g>
    <g id="line2d_85">
     <path d="M 87.3625 97.07304 
L 127.3625 97.07304 
" style="fill:none;stroke:#bf00bf;stroke-linecap:square;stroke-width:1.5;"/>
    </g>
    <g id="line2d_86"/>
    <g id="text_17">
     <!-- -4: 1/5 -->
     <g transform="translate(143.3625 104.07304)scale(0.2 -0.2)">
      <use xlink:href="#DejaVuSans-2d"/>
      <use x="36.083984" xlink:href="#DejaVuSans-34"/>
      <use x="99.707031" xlink:href="#DejaVuSans-3a"/>
      <use x="133.398438" xlink:href="#DejaVuSans-20"/>
      <use x="165.185547" xlink:href="#DejaVuSans-31"/>
      <use x="228.808594" xlink:href="#DejaVuSans-2f"/>
      <use x="262.5" xlink:href="#DejaVuSans-35"/>
     </g>
    </g>
    <g id="line2d_87">
     <path d="M 87.3625 126.42929 
L 127.3625 126.42929 
" style="fill:none;stroke:#ff0000;stroke-linecap:square;stroke-width:3;"/>
    </g>
    <g id="line2d_88"/>
    <g id="text_18">
     <!-- -8: 0/5 -->
     <g transform="translate(143.3625 133.42929)scale(0.2 -0.2)">
      <use xlink:href="#DejaVuSans-2d"/>
      <use x="36.083984" xlink:href="#DejaVuSans-38"/>
      <use x="99.707031" xlink:href="#DejaVuSans-3a"/>
      <use x="133.398438" xlink:href="#DejaVuSans-20"/>
      <use x="165.185547" xlink:href="#DejaVuSans-30"/>
      <use x="228.808594" xlink:href="#DejaVuSans-2f"/>
      <use x="262.5" xlink:href="#DejaVuSans-35"/>
     </g>
    </g>
   </g>
  </g>
 </g>
 <defs>
  <clipPath id="pa1a052dd8b">
   <rect height="266.112" width="357.12" x="69.3625" y="12.163665"/>
  </clipPath>
 </defs>
</svg>
