<?xml version="1.0" encoding="utf-8" standalone="no"?>
<!DOCTYPE svg PUBLIC "-//W3C//DTD SVG 1.1//EN"
  "http://www.w3.org/Graphics/SVG/1.1/DTD/svg11.dtd">
<!-- Created with matplotlib (http://matplotlib.org/) -->
<svg height="335pt" version="1.1" viewBox="0 0 437 335" width="437pt" xmlns="http://www.w3.org/2000/svg" xmlns:xlink="http://www.w3.org/1999/xlink">
 <defs>
  <style type="text/css">
*{stroke-linecap:butt;stroke-linejoin:round;}
  </style>
 </defs>
 <g id="figure_1">
  <g id="patch_1">
   <path d="M 0 335.188165 
L 437.1825 335.188165 
L 437.1825 0 
L 0 0 
z
" style="fill:#ffffff;"/>
  </g>
  <g id="axes_1">
   <g id="patch_2">
    <path d="M 69.3625 278.275665 
L 426.4825 278.275665 
L 426.4825 12.163665 
L 69.3625 12.163665 
z
" style="fill:#ffffff;"/>
   </g>
   <g id="line2d_1"/>
   <g id="line2d_2">
    <path clip-path="url(#p234835a7ae)" d="M 370.301582 278.275665 
L 370.301582 267.736576 
L 374.18956 267.736576 
L 374.18956 257.197487 
L 374.18956 257.197487 
L 374.18956 257.197487 
L 426.4825 257.197487 
" style="fill:none;stroke:#f5deb3;stroke-linecap:square;stroke-width:1.5;"/>
   </g>
   <g id="line2d_3"/>
   <g id="line2d_4"/>
   <g id="line2d_5"/>
   <g id="line2d_6"/>
   <g id="line2d_7">
    <path clip-path="url(#p234835a7ae)" d="M 336.589647 278.275665 
L 336.589647 274.762636 
L 359.756332 274.762636 
L 359.756332 271.249606 
L 365.438776 271.249606 
L 365.438776 267.736576 
L 365.928552 267.736576 
L 365.928552 264.223546 
L 366.580197 264.223546 
L 366.580197 260.710517 
L 370.866828 260.710517 
L 370.866828 257.197487 
L 371.070754 257.197487 
L 371.070754 253.684457 
L 373.232782 253.684457 
L 373.232782 250.171428 
L 378.626649 250.171428 
L 378.626649 246.658398 
L 383.546906 246.658398 
L 383.546906 243.145368 
L 383.904145 243.145368 
L 383.904145 239.632338 
L 385.147396 239.632338 
L 385.147396 236.119309 
L 394.952902 236.119309 
L 394.952902 232.606279 
L 399.380689 232.606279 
L 399.380689 229.093249 
L 402.270449 229.093249 
L 402.270449 225.58022 
L 405.749975 225.58022 
L 405.749975 222.06719 
L 407.386335 222.06719 
L 407.386335 218.55416 
L 408.67471 218.55416 
L 408.67471 215.041131 
L 412.036357 215.041131 
L 412.081789 208.015071 
L 412.17629 208.015071 
L 412.17629 204.502041 
L 413.31649 204.502041 
L 413.31649 200.989012 
L 417.44136 200.989012 
L 417.44136 197.475982 
L 421.857957 197.475982 
L 421.857957 193.962952 
L 430.539851 193.962952 
L 430.539851 190.449923 
L 431.050762 190.449923 
L 431.050762 186.936893 
L 434.324122 186.936893 
L 434.324122 183.423863 
L 438.1825 183.423863 
L 438.1825 183.423863 
" style="fill:none;stroke:#f5deb3;stroke-linecap:square;stroke-width:1.5;"/>
   </g>
   <g id="line2d_8">
    <path clip-path="url(#p234835a7ae)" d="M 353.597763 278.275665 
L 353.597763 274.762636 
L 354.929192 274.762636 
L 354.929192 271.249606 
L 355.338267 271.249606 
L 355.338267 267.736576 
L 355.508715 267.736576 
L 355.508715 264.223546 
L 355.997062 264.223546 
L 355.997062 260.710517 
L 356.011504 260.710517 
L 356.011504 257.197487 
L 369.885885 257.197487 
L 369.885885 253.684457 
L 370.716276 253.684457 
L 370.716276 250.171428 
L 371.304597 250.171428 
L 371.304597 246.658398 
L 371.375067 246.658398 
L 371.375067 243.145368 
L 371.792751 243.145368 
L 371.792751 239.632338 
L 372.189176 239.632338 
L 372.189176 236.119309 
L 372.19489 236.119309 
L 372.19489 232.606279 
L 372.542844 232.606279 
L 372.542844 229.093249 
L 372.558728 229.093249 
L 372.558728 225.58022 
L 372.842211 225.58022 
L 372.842211 222.06719 
L 374.292512 222.06719 
L 374.292512 218.55416 
L 409.149331 218.55416 
L 409.149331 215.041131 
L 409.678072 215.041131 
L 409.678072 211.528101 
L 409.678072 211.528101 
L 409.678072 211.528101 
L 426.4825 211.528101 
" style="fill:none;stroke:#f5deb3;stroke-linecap:square;stroke-width:1.5;"/>
   </g>
   <g id="line2d_9">
    <path clip-path="url(#p234835a7ae)" d="M 241.682079 278.275665 
L 241.682079 274.762636 
L 278.49829 274.762636 
L 278.49829 271.249606 
L 279.056946 271.249606 
L 279.056946 267.736576 
L 279.746681 267.736576 
L 279.746681 264.223546 
L 282.67689 264.223546 
L 282.67689 260.710517 
L 286.630385 260.710517 
L 286.630385 257.197487 
L 287.088858 257.197487 
L 287.088858 253.684457 
L 287.24387 253.684457 
L 287.24387 250.171428 
L 288.082863 250.171428 
L 288.093611 243.145368 
L 288.339795 243.145368 
L 288.339795 239.632338 
L 288.647442 239.632338 
L 288.647442 236.119309 
L 295.631362 236.119309 
L 295.631362 232.606279 
L 300.442453 232.606279 
L 300.442453 229.093249 
L 301.187616 229.093249 
L 301.187616 225.58022 
L 302.056067 225.58022 
L 302.056067 222.06719 
L 302.757188 222.06719 
L 302.757188 218.55416 
L 303.833444 218.55416 
L 303.885159 211.528101 
L 308.29407 211.528101 
L 308.29407 208.015071 
L 309.289301 208.015071 
L 309.289301 204.502041 
L 310.103313 204.502041 
L 310.103313 200.989012 
L 310.337639 200.989012 
L 310.337639 197.475982 
L 310.59623 197.475982 
L 310.59623 193.962952 
L 310.718245 193.962952 
L 310.795877 186.936893 
L 310.901661 186.936893 
L 310.901661 183.423863 
L 311.130054 183.423863 
L 311.130054 179.910834 
L 312.086731 179.910834 
L 312.180796 172.884774 
L 312.348414 172.884774 
L 312.348414 169.371744 
L 312.765963 169.371744 
L 312.765963 165.858715 
L 313.380745 165.858715 
L 313.380745 162.345685 
L 314.287587 162.345685 
L 314.326821 155.319626 
L 314.752875 155.319626 
L 314.752875 151.806596 
L 315.667442 151.806596 
L 315.749062 144.780537 
L 319.381032 144.780537 
L 319.381032 141.267507 
L 324.663873 141.267507 
L 324.663873 137.754477 
L 324.915721 137.754477 
L 324.951767 130.728418 
L 326.006199 130.728418 
L 326.006199 127.215388 
L 329.727525 127.215388 
L 329.727525 123.702358 
L 331.417197 123.702358 
L 331.417197 120.189329 
L 332.407578 120.189329 
L 332.407578 116.676299 
L 334.50111 116.676299 
L 334.50111 113.163269 
L 334.93378 113.163269 
L 334.93378 109.650239 
L 335.858708 109.650239 
L 335.858708 106.13721 
L 336.562629 106.13721 
L 336.562629 102.62418 
L 336.732222 102.62418 
L 336.732222 99.11115 
L 341.142312 99.11115 
L 341.142312 95.598121 
L 342.697119 95.598121 
L 342.722983 88.572061 
L 343.180347 88.572061 
L 343.180347 85.059032 
L 343.514273 85.059032 
L 343.514273 81.546002 
L 343.650786 81.546002 
L 343.650786 78.032972 
L 345.648005 78.032972 
L 345.648005 74.519942 
L 347.762319 74.519942 
L 347.762319 71.006913 
L 347.943102 71.006913 
L 347.943102 67.493883 
L 350.60867 67.493883 
L 350.60867 63.980853 
L 352.780732 63.980853 
L 352.780732 60.467824 
L 355.31305 60.467824 
L 355.31305 56.954794 
L 355.864967 56.954794 
L 355.864967 53.441764 
L 369.253273 53.441764 
L 369.253273 49.928735 
L 374.990392 49.928735 
L 374.990392 46.415705 
L 375.113158 46.415705 
L 375.113158 42.902675 
L 378.005262 42.902675 
L 378.005262 39.389645 
L 386.169595 39.389645 
L 386.169595 35.876616 
L 387.62165 35.876616 
L 387.62165 32.363586 
L 391.765893 32.363586 
L 391.765893 28.850556 
L 396.36938 28.850556 
L 396.36938 25.337527 
L 397.894259 25.337527 
L 397.977723 18.311467 
L 410.145682 18.311467 
L 410.145682 14.798437 
L 410.145682 14.798437 
L 426.4825 14.798437 
L 426.4825 14.798437 
" style="fill:none;stroke:#f5deb3;stroke-linecap:square;stroke-width:1.5;"/>
   </g>
   <g id="line2d_10"/>
   <g id="line2d_11">
    <path clip-path="url(#p234835a7ae)" d="M 386.568866 278.275665 
L 386.568866 274.762636 
L 430.754817 274.762636 
L 430.754817 271.249606 
L 437.255345 271.249606 
L 437.255345 267.736576 
L 438.1825 267.736576 
" style="fill:none;stroke:#f5deb3;stroke-linecap:square;stroke-width:1.5;"/>
   </g>
   <g id="line2d_12"/>
   <g id="line2d_13"/>
   <g id="line2d_14"/>
   <g id="line2d_15"/>
   <g id="line2d_16"/>
   <g id="line2d_17">
    <path clip-path="url(#p234835a7ae)" d="M 347.571791 278.275665 
L 347.571791 274.762636 
L 349.670896 274.762636 
L 349.670896 271.249606 
L 350.590046 271.249606 
L 350.590046 267.736576 
L 351.836467 267.736576 
L 351.836467 264.223546 
L 354.254708 264.223546 
L 354.254708 260.710517 
L 354.366559 260.710517 
L 354.366559 257.197487 
L 355.522164 257.197487 
L 355.522164 253.684457 
L 355.841384 253.684457 
L 355.841384 250.171428 
L 355.966952 250.171428 
L 355.966952 246.658398 
L 358.911551 246.658398 
L 358.911551 243.145368 
L 359.341951 243.145368 
L 359.341951 239.632338 
L 366.036735 239.632338 
L 366.036735 236.119309 
L 371.728662 236.119309 
L 371.728662 232.606279 
L 371.802516 232.606279 
L 371.802516 229.093249 
L 371.845877 229.093249 
L 371.845877 225.58022 
L 374.307859 225.58022 
L 374.307859 222.06719 
L 374.946313 222.06719 
L 374.946313 218.55416 
L 377.141882 218.55416 
L 377.141882 215.041131 
L 378.221814 215.041131 
L 378.221814 211.528101 
L 379.070353 211.528101 
L 379.070353 208.015071 
L 380.206442 208.015071 
L 380.206442 204.502041 
L 381.580916 204.502041 
L 381.580916 200.989012 
L 385.521408 200.989012 
L 385.521408 197.475982 
L 386.346803 197.475982 
L 386.346803 193.962952 
L 388.225471 193.962952 
L 388.225471 190.449923 
L 389.131445 190.449923 
L 389.131445 186.936893 
L 391.429317 186.936893 
L 391.429317 183.423863 
L 392.460809 183.423863 
L 392.460809 179.910834 
L 392.460809 179.910834 
L 392.460809 179.910834 
L 426.4825 179.910834 
" style="fill:none;stroke:#f5deb3;stroke-linecap:square;stroke-width:1.5;"/>
   </g>
   <g id="line2d_18"/>
   <g id="line2d_19">
    <path clip-path="url(#p234835a7ae)" d="M 362.590567 278.275665 
L 362.590567 277.104655 
L 362.590567 277.104655 
L 362.590567 277.104655 
L 362.590567 275.933645 
L 362.590567 275.933645 
L 362.590567 275.933645 
L 362.590567 274.762636 
L 391.799692 274.762636 
L 391.799692 271.249606 
L 400.277371 271.249606 
L 400.277371 267.736576 
L 403.092893 267.736576 
L 403.092893 264.223546 
L 410.376453 264.223546 
L 410.376453 260.710517 
L 415.183566 260.710517 
L 415.183566 257.197487 
L 416.157129 257.197487 
L 416.157129 253.684457 
L 417.328231 253.684457 
L 417.328231 250.171428 
L 419.440133 250.171428 
L 419.440133 246.658398 
L 421.432412 246.658398 
L 421.432412 243.145368 
L 421.594719 243.145368 
L 421.594719 239.632338 
L 422.771179 239.632338 
L 422.771179 236.119309 
L 425.392611 236.119309 
L 425.392611 232.606279 
L 434.375584 232.606279 
L 434.375584 229.093249 
L 435.230136 229.093249 
L 435.230136 225.58022 
L 436.457351 225.58022 
L 436.457351 222.06719 
L 438.1825 222.06719 
L 438.1825 222.06719 
" style="fill:none;stroke:#f5deb3;stroke-linecap:square;stroke-width:1.5;"/>
   </g>
   <g id="line2d_20">
    <path clip-path="url(#p234835a7ae)" d="M 348.895174 278.275665 
L 348.895174 274.762636 
L 348.895174 274.762636 
L 348.895174 274.762636 
L 426.4825 274.762636 
" style="fill:none;stroke:#f5deb3;stroke-linecap:square;stroke-width:1.5;"/>
   </g>
   <g id="line2d_21"/>
   <g id="line2d_22">
    <path clip-path="url(#p234835a7ae)" d="M 362.718288 278.275665 
L 362.718288 274.762636 
L 381.327932 274.762636 
L 381.327932 271.249606 
L 400.194087 271.249606 
L 400.194087 267.736576 
L 409.339557 267.736576 
L 409.339557 264.223546 
L 423.338352 264.223546 
L 423.338352 260.710517 
L 423.338352 260.710517 
L 423.338352 260.710517 
L 426.4825 260.710517 
" style="fill:none;stroke:#f5deb3;stroke-linecap:square;stroke-width:1.5;"/>
   </g>
   <g id="line2d_23">
    <path clip-path="url(#p234835a7ae)" d="M 379.171172 278.275665 
L 379.171172 274.762636 
L 386.023163 274.762636 
L 386.023163 271.249606 
L 386.023163 271.249606 
L 386.023163 271.249606 
L 426.4825 271.249606 
" style="fill:none;stroke:#f5deb3;stroke-linecap:square;stroke-width:1.5;"/>
   </g>
   <g id="line2d_24">
    <path clip-path="url(#p234835a7ae)" d="M 268.776251 278.275665 
L 268.776251 274.762636 
L 271.506962 274.762636 
L 271.506962 271.249606 
L 273.176351 271.249606 
L 273.176351 267.736576 
L 277.243315 267.736576 
L 277.243315 264.223546 
L 279.873003 264.223546 
L 279.873003 260.710517 
L 328.566142 260.710517 
L 328.566142 257.197487 
L 330.133374 257.197487 
L 330.133374 253.684457 
L 330.497027 253.684457 
L 330.497027 250.171428 
L 330.625488 250.171428 
L 330.625488 246.658398 
L 331.852828 246.658398 
L 331.852828 243.145368 
L 332.124297 243.145368 
L 332.203462 236.119309 
L 333.480711 236.119309 
L 333.480711 232.606279 
L 333.777807 232.606279 
L 333.84918 225.58022 
L 334.009783 225.58022 
L 334.009783 222.06719 
L 334.306723 222.06719 
L 334.306723 218.55416 
L 336.43963 218.55416 
L 336.43963 215.041131 
L 338.376896 215.041131 
L 338.376896 211.528101 
L 338.856481 211.528101 
L 338.856481 208.015071 
L 339.0369 208.015071 
L 339.0369 204.502041 
L 339.747248 204.502041 
L 339.747248 200.989012 
L 339.899323 200.989012 
L 339.899323 197.475982 
L 340.105959 197.475982 
L 340.183219 190.449923 
L 340.547849 190.449923 
L 340.652656 183.423863 
L 341.057666 183.423863 
L 341.057666 179.910834 
L 341.392947 179.910834 
L 341.4911 172.884774 
L 341.718922 172.884774 
L 341.718922 169.371744 
L 341.949816 169.371744 
L 341.982931 162.345685 
L 343.289336 162.345685 
L 343.305651 155.319626 
L 343.760816 155.319626 
L 343.760816 151.806596 
L 344.397181 151.806596 
L 344.397181 148.293566 
L 345.360144 148.293566 
L 345.360144 144.780537 
L 345.611852 144.780537 
L 345.611852 141.267507 
L 348.219664 141.267507 
L 348.219664 137.754477 
L 349.865134 137.754477 
L 349.865134 134.241447 
L 353.938589 134.241447 
L 353.938589 130.728418 
L 359.41158 130.728418 
L 359.41158 127.215388 
L 359.554664 127.215388 
L 359.554664 123.702358 
L 360.234107 123.702358 
L 360.234107 120.189329 
L 361.927548 120.189329 
L 361.927548 116.676299 
L 362.776874 116.676299 
L 362.776874 113.163269 
L 364.282788 113.163269 
L 364.282788 109.650239 
L 365.157377 109.650239 
L 365.157377 106.13721 
L 369.180169 106.13721 
L 369.180169 102.62418 
L 373.000213 102.62418 
L 373.000213 99.11115 
L 373.683566 99.11115 
L 373.683566 95.598121 
L 377.029653 95.598121 
L 377.029653 92.085091 
L 382.060263 92.085091 
L 382.060263 88.572061 
L 382.8705 88.572061 
L 382.8705 85.059032 
L 384.566762 85.059032 
L 384.602684 78.032972 
L 384.819484 78.032972 
L 384.819484 74.519942 
L 386.850627 74.519942 
L 386.850627 71.006913 
L 387.851403 71.006913 
L 387.851403 67.493883 
L 404.878828 67.493883 
L 404.878828 63.980853 
L 405.562157 63.980853 
L 405.562157 60.467824 
L 406.634637 60.467824 
L 406.634637 56.954794 
L 410.081221 56.954794 
L 410.081221 53.441764 
L 415.778285 53.441764 
L 415.778285 49.928735 
L 420.22641 49.928735 
L 420.22641 46.415705 
L 420.6978 46.415705 
L 420.6978 42.902675 
L 424.822067 42.902675 
L 424.822067 39.389645 
L 426.779047 39.389645 
L 426.779047 35.876616 
L 433.228159 35.876616 
L 433.228159 32.363586 
L 435.640177 32.363586 
L 435.640177 28.850556 
L 438.1825 28.850556 
L 438.1825 28.850556 
" style="fill:none;stroke:#f5deb3;stroke-linecap:square;stroke-width:1.5;"/>
   </g>
   <g id="line2d_25">
    <path clip-path="url(#p234835a7ae)" d="M 363.17292 278.275665 
L 363.17292 274.762636 
L 365.769079 274.762636 
L 365.769079 271.249606 
L 365.926804 271.249606 
L 365.926804 267.736576 
L 367.031333 267.736576 
L 367.031333 264.223546 
L 368.451577 264.223546 
L 368.451577 260.710517 
L 369.004962 260.710517 
L 369.004962 257.197487 
L 369.241101 257.197487 
L 369.241101 253.684457 
L 369.906264 253.684457 
L 369.906264 250.171428 
L 369.937769 250.171428 
L 369.937769 246.658398 
L 371.691306 246.658398 
L 371.691306 243.145368 
L 372.644362 243.145368 
L 372.644362 239.632338 
L 390.464545 239.632338 
L 390.464545 236.119309 
L 391.009724 236.119309 
L 391.009724 232.606279 
L 391.440455 232.606279 
L 391.440455 229.093249 
L 391.810318 229.093249 
L 391.810318 225.58022 
L 391.898599 225.58022 
L 391.898599 222.06719 
L 392.116706 222.06719 
L 392.116706 218.55416 
L 392.426235 218.55416 
L 392.426235 215.041131 
L 392.456908 215.041131 
L 392.456908 211.528101 
L 392.523353 211.528101 
L 392.523353 208.015071 
L 392.524651 208.015071 
L 392.524651 204.502041 
L 392.550225 204.502041 
L 392.550225 200.989012 
L 392.558745 200.989012 
L 392.558745 197.475982 
L 392.612034 197.475982 
L 392.612034 193.962952 
L 392.750196 193.962952 
L 392.750196 190.449923 
L 392.772091 190.449923 
L 392.772091 186.936893 
L 392.8773 186.936893 
L 392.8773 183.423863 
L 393.18681 183.423863 
L 393.18681 179.910834 
L 393.326597 179.910834 
L 393.326597 176.397804 
L 393.35567 176.397804 
L 393.35567 172.884774 
L 393.434086 172.884774 
L 393.434086 169.371744 
L 393.481759 169.371744 
L 393.481759 165.858715 
L 393.727239 165.858715 
L 393.727239 162.345685 
L 393.824819 162.345685 
L 393.824819 158.832655 
L 394.005455 158.832655 
L 394.005455 155.319626 
L 399.087247 155.319626 
L 399.087247 151.806596 
L 421.131335 151.806596 
L 421.131335 148.293566 
L 421.131335 148.293566 
L 421.131335 148.293566 
L 426.4825 148.293566 
" style="fill:none;stroke:#f5deb3;stroke-linecap:square;stroke-width:1.5;"/>
   </g>
   <g id="line2d_26">
    <path clip-path="url(#p234835a7ae)" d="M 317.25829 278.275665 
L 317.25829 274.762636 
L 319.675534 274.762636 
L 319.675534 271.249606 
L 326.248992 271.249606 
L 326.248992 267.736576 
L 327.268533 267.736576 
L 327.268533 264.223546 
L 328.357032 264.223546 
L 328.357032 260.710517 
L 329.731737 260.710517 
L 329.731737 257.197487 
L 332.037112 257.197487 
L 332.037112 253.684457 
L 338.239565 253.684457 
L 338.239565 250.171428 
L 341.342789 250.171428 
L 341.342789 246.658398 
L 349.412983 246.658398 
L 349.412983 243.145368 
L 351.14254 243.145368 
L 351.14254 239.632338 
L 359.897307 239.632338 
L 359.897307 236.119309 
L 365.068998 236.119309 
L 365.068998 232.606279 
L 365.856365 232.606279 
L 365.856365 229.093249 
L 370.876144 229.093249 
L 370.876144 225.58022 
L 375.431636 225.58022 
L 375.431636 222.06719 
L 377.395337 222.06719 
L 377.395337 218.55416 
L 379.796135 218.55416 
L 379.796135 215.041131 
L 381.778945 215.041131 
L 381.778945 211.528101 
L 382.497498 211.528101 
L 382.497498 208.015071 
L 382.497498 208.015071 
L 382.497498 208.015071 
L 426.4825 208.015071 
" style="fill:none;stroke:#f5deb3;stroke-linecap:square;stroke-width:1.5;"/>
   </g>
   <g id="line2d_27"/>
   <g id="line2d_28">
    <path clip-path="url(#p234835a7ae)" d="M 260.763905 278.275665 
L 260.763905 274.762636 
L 271.989298 274.762636 
L 271.989298 271.249606 
L 307.890835 271.249606 
L 307.890835 267.736576 
L 318.621263 267.736576 
L 318.621263 264.223546 
L 321.698681 264.223546 
L 321.698681 260.710517 
L 323.517414 260.710517 
L 323.517414 257.197487 
L 338.187241 257.197487 
L 338.187241 253.684457 
L 338.839741 253.684457 
L 338.839741 250.171428 
L 340.42181 250.171428 
L 340.42181 246.658398 
L 341.0898 246.658398 
L 341.0898 243.145368 
L 341.977257 243.145368 
L 341.977257 239.632338 
L 343.78224 239.632338 
L 343.78224 236.119309 
L 344.647248 236.119309 
L 344.647248 232.606279 
L 345.542794 232.606279 
L 345.542794 229.093249 
L 346.071947 229.093249 
L 346.071947 225.58022 
L 350.979521 225.58022 
L 350.979521 222.06719 
L 351.166462 222.06719 
L 351.166462 218.55416 
L 351.64453 218.55416 
L 351.713709 211.528101 
L 351.986836 211.528101 
L 351.986836 208.015071 
L 358.543368 208.015071 
L 358.543368 204.502041 
L 360.170511 204.502041 
L 360.170511 200.989012 
L 360.901555 200.989012 
L 360.901555 197.475982 
L 361.471812 197.475982 
L 361.471812 193.962952 
L 361.925062 193.962952 
L 362.005006 186.936893 
L 363.809645 186.936893 
L 363.809645 183.423863 
L 363.945034 183.423863 
L 363.945034 179.910834 
L 364.396856 179.910834 
L 364.396856 176.397804 
L 367.155492 176.397804 
L 367.155492 172.884774 
L 368.345446 172.884774 
L 368.345446 169.371744 
L 368.491836 169.371744 
L 368.491836 165.858715 
L 368.679556 165.858715 
L 368.679556 162.345685 
L 369.330122 162.345685 
L 369.330122 158.832655 
L 370.236615 158.832655 
L 370.236615 155.319626 
L 371.352328 155.319626 
L 371.35453 148.293566 
L 371.601904 148.293566 
L 371.601904 144.780537 
L 372.553434 144.780537 
L 372.553434 141.267507 
L 372.913464 141.267507 
L 372.913464 137.754477 
L 373.488973 137.754477 
L 373.488973 134.241447 
L 373.879989 134.241447 
L 373.879989 130.728418 
L 374.417068 130.728418 
L 374.417068 127.215388 
L 374.729907 127.215388 
L 374.729907 123.702358 
L 376.182903 123.702358 
L 376.182903 120.189329 
L 377.547144 120.189329 
L 377.547144 116.676299 
L 377.698809 116.676299 
L 377.698809 113.163269 
L 378.197402 113.163269 
L 378.197402 109.650239 
L 379.425329 109.650239 
L 379.425329 106.13721 
L 380.204787 106.13721 
L 380.204787 102.62418 
L 387.162486 102.62418 
L 387.162486 99.11115 
L 389.855306 99.11115 
L 389.855306 95.598121 
L 393.806502 95.598121 
L 393.806502 92.085091 
L 394.148471 92.085091 
L 394.148471 88.572061 
L 394.475572 88.572061 
L 394.475572 85.059032 
L 396.890557 85.059032 
L 396.890557 81.546002 
L 397.353974 81.546002 
L 397.353974 78.032972 
L 401.480517 78.032972 
L 401.480517 74.519942 
L 402.538616 74.519942 
L 402.538616 71.006913 
L 406.354337 71.006913 
L 406.354337 67.493883 
L 406.507209 67.493883 
L 406.507209 63.980853 
L 425.159126 63.980853 
L 425.159126 60.467824 
L 425.30497 60.467824 
L 425.30497 56.954794 
L 425.54523 56.954794 
L 425.54523 53.441764 
L 428.019313 53.441764 
L 428.019313 49.928735 
L 435.816173 49.928735 
L 435.816173 46.415705 
L 438.1825 46.415705 
L 438.1825 46.415705 
" style="fill:none;stroke:#f5deb3;stroke-linecap:square;stroke-width:1.5;"/>
   </g>
   <g id="line2d_29"/>
   <g id="line2d_30"/>
   <g id="matplotlib.axis_1">
    <g id="xtick_1">
     <g id="line2d_31">
      <path clip-path="url(#p234835a7ae)" d="M 69.3625 278.275665 
L 69.3625 12.163665 
" style="fill:none;stroke:#b0b0b0;stroke-linecap:square;stroke-width:0.8;"/>
     </g>
     <g id="line2d_32">
      <defs>
       <path d="M 0 0 
L 0 3.5 
" id="m898cdcedf0" style="stroke:#000000;stroke-width:0.8;"/>
      </defs>
      <g>
       <use style="stroke:#000000;stroke-width:0.8;" x="69.3625" xlink:href="#m898cdcedf0" y="278.275665"/>
      </g>
     </g>
     <g id="text_1">
      <!-- 0 -->
      <defs>
       <path d="M 31.78125 66.40625 
Q 24.171875 66.40625 20.328125 58.90625 
Q 16.5 51.421875 16.5 36.375 
Q 16.5 21.390625 20.328125 13.890625 
Q 24.171875 6.390625 31.78125 6.390625 
Q 39.453125 6.390625 43.28125 13.890625 
Q 47.125 21.390625 47.125 36.375 
Q 47.125 51.421875 43.28125 58.90625 
Q 39.453125 66.40625 31.78125 66.40625 
M 31.78125 74.21875 
Q 44.046875 74.21875 50.515625 64.515625 
Q 56.984375 54.828125 56.984375 36.375 
Q 56.984375 17.96875 50.515625 8.265625 
Q 44.046875 -1.421875 31.78125 -1.421875 
Q 19.53125 -1.421875 13.0625 8.265625 
Q 6.59375 17.96875 6.59375 36.375 
Q 6.59375 54.828125 13.0625 64.515625 
Q 19.53125 74.21875 31.78125 74.21875 
" id="DejaVuSans-30"/>
      </defs>
      <g transform="translate(63 300.47254)scale(0.2 -0.2)">
       <use xlink:href="#DejaVuSans-30"/>
      </g>
     </g>
    </g>
    <g id="xtick_2">
     <g id="line2d_33">
      <path clip-path="url(#p234835a7ae)" d="M 212.2105 278.275665 
L 212.2105 12.163665 
" style="fill:none;stroke:#b0b0b0;stroke-linecap:square;stroke-width:0.8;"/>
     </g>
     <g id="line2d_34">
      <g>
       <use style="stroke:#000000;stroke-width:0.8;" x="212.2105" xlink:href="#m898cdcedf0" y="278.275665"/>
      </g>
     </g>
     <g id="text_2">
      <!-- 2 -->
      <defs>
       <path d="M 19.1875 8.296875 
L 53.609375 8.296875 
L 53.609375 0 
L 7.328125 0 
L 7.328125 8.296875 
Q 12.9375 14.109375 22.625 23.890625 
Q 32.328125 33.6875 34.8125 36.53125 
Q 39.546875 41.84375 41.421875 45.53125 
Q 43.3125 49.21875 43.3125 52.78125 
Q 43.3125 58.59375 39.234375 62.25 
Q 35.15625 65.921875 28.609375 65.921875 
Q 23.96875 65.921875 18.8125 64.3125 
Q 13.671875 62.703125 7.8125 59.421875 
L 7.8125 69.390625 
Q 13.765625 71.78125 18.9375 73 
Q 24.125 74.21875 28.421875 74.21875 
Q 39.75 74.21875 46.484375 68.546875 
Q 53.21875 62.890625 53.21875 53.421875 
Q 53.21875 48.921875 51.53125 44.890625 
Q 49.859375 40.875 45.40625 35.40625 
Q 44.1875 33.984375 37.640625 27.21875 
Q 31.109375 20.453125 19.1875 8.296875 
" id="DejaVuSans-32"/>
      </defs>
      <g transform="translate(205.848 300.47254)scale(0.2 -0.2)">
       <use xlink:href="#DejaVuSans-32"/>
      </g>
     </g>
    </g>
    <g id="xtick_3">
     <g id="line2d_35">
      <path clip-path="url(#p234835a7ae)" d="M 355.0585 278.275665 
L 355.0585 12.163665 
" style="fill:none;stroke:#b0b0b0;stroke-linecap:square;stroke-width:0.8;"/>
     </g>
     <g id="line2d_36">
      <g>
       <use style="stroke:#000000;stroke-width:0.8;" x="355.0585" xlink:href="#m898cdcedf0" y="278.275665"/>
      </g>
     </g>
     <g id="text_3">
      <!-- 4 -->
      <defs>
       <path d="M 37.796875 64.3125 
L 12.890625 25.390625 
L 37.796875 25.390625 
z
M 35.203125 72.90625 
L 47.609375 72.90625 
L 47.609375 25.390625 
L 58.015625 25.390625 
L 58.015625 17.1875 
L 47.609375 17.1875 
L 47.609375 0 
L 37.796875 0 
L 37.796875 17.1875 
L 4.890625 17.1875 
L 4.890625 26.703125 
z
" id="DejaVuSans-34"/>
      </defs>
      <g transform="translate(348.696 300.47254)scale(0.2 -0.2)">
       <use xlink:href="#DejaVuSans-34"/>
      </g>
     </g>
    </g>
    <g id="xtick_4">
     <g id="line2d_37">
      <defs>
       <path d="M 0 0 
L 0 2 
" id="m5e424b1bdd" style="stroke:#000000;stroke-width:0.6;"/>
      </defs>
      <g>
       <use style="stroke:#000000;stroke-width:0.6;" x="90.863266" xlink:href="#m5e424b1bdd" y="278.275665"/>
      </g>
     </g>
    </g>
    <g id="xtick_5">
     <g id="line2d_38">
      <g>
       <use style="stroke:#000000;stroke-width:0.6;" x="103.440408" xlink:href="#m5e424b1bdd" y="278.275665"/>
      </g>
     </g>
    </g>
    <g id="xtick_6">
     <g id="line2d_39">
      <g>
       <use style="stroke:#000000;stroke-width:0.6;" x="112.364033" xlink:href="#m5e424b1bdd" y="278.275665"/>
      </g>
     </g>
    </g>
    <g id="xtick_7">
     <g id="line2d_40">
      <g>
       <use style="stroke:#000000;stroke-width:0.6;" x="119.285734" xlink:href="#m5e424b1bdd" y="278.275665"/>
      </g>
     </g>
    </g>
    <g id="xtick_8">
     <g id="line2d_41">
      <g>
       <use style="stroke:#000000;stroke-width:0.6;" x="124.941175" xlink:href="#m5e424b1bdd" y="278.275665"/>
      </g>
     </g>
    </g>
    <g id="xtick_9">
     <g id="line2d_42">
      <g>
       <use style="stroke:#000000;stroke-width:0.6;" x="129.722782" xlink:href="#m5e424b1bdd" y="278.275665"/>
      </g>
     </g>
    </g>
    <g id="xtick_10">
     <g id="line2d_43">
      <g>
       <use style="stroke:#000000;stroke-width:0.6;" x="133.864799" xlink:href="#m5e424b1bdd" y="278.275665"/>
      </g>
     </g>
    </g>
    <g id="xtick_11">
     <g id="line2d_44">
      <g>
       <use style="stroke:#000000;stroke-width:0.6;" x="137.518317" xlink:href="#m5e424b1bdd" y="278.275665"/>
      </g>
     </g>
    </g>
    <g id="xtick_12">
     <g id="line2d_45">
      <g>
       <use style="stroke:#000000;stroke-width:0.6;" x="233.711266" xlink:href="#m5e424b1bdd" y="278.275665"/>
      </g>
     </g>
    </g>
    <g id="xtick_13">
     <g id="line2d_46">
      <g>
       <use style="stroke:#000000;stroke-width:0.6;" x="246.288408" xlink:href="#m5e424b1bdd" y="278.275665"/>
      </g>
     </g>
    </g>
    <g id="xtick_14">
     <g id="line2d_47">
      <g>
       <use style="stroke:#000000;stroke-width:0.6;" x="255.212033" xlink:href="#m5e424b1bdd" y="278.275665"/>
      </g>
     </g>
    </g>
    <g id="xtick_15">
     <g id="line2d_48">
      <g>
       <use style="stroke:#000000;stroke-width:0.6;" x="262.133734" xlink:href="#m5e424b1bdd" y="278.275665"/>
      </g>
     </g>
    </g>
    <g id="xtick_16">
     <g id="line2d_49">
      <g>
       <use style="stroke:#000000;stroke-width:0.6;" x="267.789175" xlink:href="#m5e424b1bdd" y="278.275665"/>
      </g>
     </g>
    </g>
    <g id="xtick_17">
     <g id="line2d_50">
      <g>
       <use style="stroke:#000000;stroke-width:0.6;" x="272.570782" xlink:href="#m5e424b1bdd" y="278.275665"/>
      </g>
     </g>
    </g>
    <g id="xtick_18">
     <g id="line2d_51">
      <g>
       <use style="stroke:#000000;stroke-width:0.6;" x="276.712799" xlink:href="#m5e424b1bdd" y="278.275665"/>
      </g>
     </g>
    </g>
    <g id="xtick_19">
     <g id="line2d_52">
      <g>
       <use style="stroke:#000000;stroke-width:0.6;" x="280.366317" xlink:href="#m5e424b1bdd" y="278.275665"/>
      </g>
     </g>
    </g>
    <g id="xtick_20">
     <g id="line2d_53">
      <g>
       <use style="stroke:#000000;stroke-width:0.6;" x="376.559266" xlink:href="#m5e424b1bdd" y="278.275665"/>
      </g>
     </g>
    </g>
    <g id="xtick_21">
     <g id="line2d_54">
      <g>
       <use style="stroke:#000000;stroke-width:0.6;" x="389.136408" xlink:href="#m5e424b1bdd" y="278.275665"/>
      </g>
     </g>
    </g>
    <g id="xtick_22">
     <g id="line2d_55">
      <g>
       <use style="stroke:#000000;stroke-width:0.6;" x="398.060033" xlink:href="#m5e424b1bdd" y="278.275665"/>
      </g>
     </g>
    </g>
    <g id="xtick_23">
     <g id="line2d_56">
      <g>
       <use style="stroke:#000000;stroke-width:0.6;" x="404.981734" xlink:href="#m5e424b1bdd" y="278.275665"/>
      </g>
     </g>
    </g>
    <g id="xtick_24">
     <g id="line2d_57">
      <g>
       <use style="stroke:#000000;stroke-width:0.6;" x="410.637175" xlink:href="#m5e424b1bdd" y="278.275665"/>
      </g>
     </g>
    </g>
    <g id="xtick_25">
     <g id="line2d_58">
      <g>
       <use style="stroke:#000000;stroke-width:0.6;" x="415.418782" xlink:href="#m5e424b1bdd" y="278.275665"/>
      </g>
     </g>
    </g>
    <g id="xtick_26">
     <g id="line2d_59">
      <g>
       <use style="stroke:#000000;stroke-width:0.6;" x="419.560799" xlink:href="#m5e424b1bdd" y="278.275665"/>
      </g>
     </g>
    </g>
    <g id="xtick_27">
     <g id="line2d_60">
      <g>
       <use style="stroke:#000000;stroke-width:0.6;" x="423.214317" xlink:href="#m5e424b1bdd" y="278.275665"/>
      </g>
     </g>
    </g>
    <g id="text_4">
     <!-- log10 of FEvals / DIM -->
     <defs>
      <path d="M 9.421875 75.984375 
L 18.40625 75.984375 
L 18.40625 0 
L 9.421875 0 
z
" id="DejaVuSans-6c"/>
      <path d="M 30.609375 48.390625 
Q 23.390625 48.390625 19.1875 42.75 
Q 14.984375 37.109375 14.984375 27.296875 
Q 14.984375 17.484375 19.15625 11.84375 
Q 23.34375 6.203125 30.609375 6.203125 
Q 37.796875 6.203125 41.984375 11.859375 
Q 46.1875 17.53125 46.1875 27.296875 
Q 46.1875 37.015625 41.984375 42.703125 
Q 37.796875 48.390625 30.609375 48.390625 
M 30.609375 56 
Q 42.328125 56 49.015625 48.375 
Q 55.71875 40.765625 55.71875 27.296875 
Q 55.71875 13.875 49.015625 6.21875 
Q 42.328125 -1.421875 30.609375 -1.421875 
Q 18.84375 -1.421875 12.171875 6.21875 
Q 5.515625 13.875 5.515625 27.296875 
Q 5.515625 40.765625 12.171875 48.375 
Q 18.84375 56 30.609375 56 
" id="DejaVuSans-6f"/>
      <path d="M 45.40625 27.984375 
Q 45.40625 37.75 41.375 43.109375 
Q 37.359375 48.484375 30.078125 48.484375 
Q 22.859375 48.484375 18.828125 43.109375 
Q 14.796875 37.75 14.796875 27.984375 
Q 14.796875 18.265625 18.828125 12.890625 
Q 22.859375 7.515625 30.078125 7.515625 
Q 37.359375 7.515625 41.375 12.890625 
Q 45.40625 18.265625 45.40625 27.984375 
M 54.390625 6.78125 
Q 54.390625 -7.171875 48.1875 -13.984375 
Q 42 -20.796875 29.203125 -20.796875 
Q 24.46875 -20.796875 20.265625 -20.09375 
Q 16.0625 -19.390625 12.109375 -17.921875 
L 12.109375 -9.1875 
Q 16.0625 -11.328125 19.921875 -12.34375 
Q 23.78125 -13.375 27.78125 -13.375 
Q 36.625 -13.375 41.015625 -8.765625 
Q 45.40625 -4.15625 45.40625 5.171875 
L 45.40625 9.625 
Q 42.625 4.78125 38.28125 2.390625 
Q 33.9375 0 27.875 0 
Q 17.828125 0 11.671875 7.65625 
Q 5.515625 15.328125 5.515625 27.984375 
Q 5.515625 40.671875 11.671875 48.328125 
Q 17.828125 56 27.875 56 
Q 33.9375 56 38.28125 53.609375 
Q 42.625 51.21875 45.40625 46.390625 
L 45.40625 54.6875 
L 54.390625 54.6875 
z
" id="DejaVuSans-67"/>
      <path d="M 12.40625 8.296875 
L 28.515625 8.296875 
L 28.515625 63.921875 
L 10.984375 60.40625 
L 10.984375 69.390625 
L 28.421875 72.90625 
L 38.28125 72.90625 
L 38.28125 8.296875 
L 54.390625 8.296875 
L 54.390625 0 
L 12.40625 0 
z
" id="DejaVuSans-31"/>
      <path id="DejaVuSans-20"/>
      <path d="M 37.109375 75.984375 
L 37.109375 68.5 
L 28.515625 68.5 
Q 23.6875 68.5 21.796875 66.546875 
Q 19.921875 64.59375 19.921875 59.515625 
L 19.921875 54.6875 
L 34.71875 54.6875 
L 34.71875 47.703125 
L 19.921875 47.703125 
L 19.921875 0 
L 10.890625 0 
L 10.890625 47.703125 
L 2.296875 47.703125 
L 2.296875 54.6875 
L 10.890625 54.6875 
L 10.890625 58.5 
Q 10.890625 67.625 15.140625 71.796875 
Q 19.390625 75.984375 28.609375 75.984375 
z
" id="DejaVuSans-66"/>
      <path d="M 9.8125 72.90625 
L 51.703125 72.90625 
L 51.703125 64.59375 
L 19.671875 64.59375 
L 19.671875 43.109375 
L 48.578125 43.109375 
L 48.578125 34.8125 
L 19.671875 34.8125 
L 19.671875 0 
L 9.8125 0 
z
" id="DejaVuSans-46"/>
      <path d="M 9.8125 72.90625 
L 55.90625 72.90625 
L 55.90625 64.59375 
L 19.671875 64.59375 
L 19.671875 43.015625 
L 54.390625 43.015625 
L 54.390625 34.71875 
L 19.671875 34.71875 
L 19.671875 8.296875 
L 56.78125 8.296875 
L 56.78125 0 
L 9.8125 0 
z
" id="DejaVuSans-45"/>
      <path d="M 2.984375 54.6875 
L 12.5 54.6875 
L 29.59375 8.796875 
L 46.6875 54.6875 
L 56.203125 54.6875 
L 35.6875 0 
L 23.484375 0 
z
" id="DejaVuSans-76"/>
      <path d="M 34.28125 27.484375 
Q 23.390625 27.484375 19.1875 25 
Q 14.984375 22.515625 14.984375 16.5 
Q 14.984375 11.71875 18.140625 8.90625 
Q 21.296875 6.109375 26.703125 6.109375 
Q 34.1875 6.109375 38.703125 11.40625 
Q 43.21875 16.703125 43.21875 25.484375 
L 43.21875 27.484375 
z
M 52.203125 31.203125 
L 52.203125 0 
L 43.21875 0 
L 43.21875 8.296875 
Q 40.140625 3.328125 35.546875 0.953125 
Q 30.953125 -1.421875 24.3125 -1.421875 
Q 15.921875 -1.421875 10.953125 3.296875 
Q 6 8.015625 6 15.921875 
Q 6 25.140625 12.171875 29.828125 
Q 18.359375 34.515625 30.609375 34.515625 
L 43.21875 34.515625 
L 43.21875 35.40625 
Q 43.21875 41.609375 39.140625 45 
Q 35.0625 48.390625 27.6875 48.390625 
Q 23 48.390625 18.546875 47.265625 
Q 14.109375 46.140625 10.015625 43.890625 
L 10.015625 52.203125 
Q 14.9375 54.109375 19.578125 55.046875 
Q 24.21875 56 28.609375 56 
Q 40.484375 56 46.34375 49.84375 
Q 52.203125 43.703125 52.203125 31.203125 
" id="DejaVuSans-61"/>
      <path d="M 44.28125 53.078125 
L 44.28125 44.578125 
Q 40.484375 46.53125 36.375 47.5 
Q 32.28125 48.484375 27.875 48.484375 
Q 21.1875 48.484375 17.84375 46.4375 
Q 14.5 44.390625 14.5 40.28125 
Q 14.5 37.15625 16.890625 35.375 
Q 19.28125 33.59375 26.515625 31.984375 
L 29.59375 31.296875 
Q 39.15625 29.25 43.1875 25.515625 
Q 47.21875 21.78125 47.21875 15.09375 
Q 47.21875 7.46875 41.1875 3.015625 
Q 35.15625 -1.421875 24.609375 -1.421875 
Q 20.21875 -1.421875 15.453125 -0.5625 
Q 10.6875 0.296875 5.421875 2 
L 5.421875 11.28125 
Q 10.40625 8.6875 15.234375 7.390625 
Q 20.0625 6.109375 24.8125 6.109375 
Q 31.15625 6.109375 34.5625 8.28125 
Q 37.984375 10.453125 37.984375 14.40625 
Q 37.984375 18.0625 35.515625 20.015625 
Q 33.0625 21.96875 24.703125 23.78125 
L 21.578125 24.515625 
Q 13.234375 26.265625 9.515625 29.90625 
Q 5.8125 33.546875 5.8125 39.890625 
Q 5.8125 47.609375 11.28125 51.796875 
Q 16.75 56 26.8125 56 
Q 31.78125 56 36.171875 55.265625 
Q 40.578125 54.546875 44.28125 53.078125 
" id="DejaVuSans-73"/>
      <path d="M 25.390625 72.90625 
L 33.6875 72.90625 
L 8.296875 -9.28125 
L 0 -9.28125 
z
" id="DejaVuSans-2f"/>
      <path d="M 19.671875 64.796875 
L 19.671875 8.109375 
L 31.59375 8.109375 
Q 46.6875 8.109375 53.6875 14.9375 
Q 60.6875 21.78125 60.6875 36.53125 
Q 60.6875 51.171875 53.6875 57.984375 
Q 46.6875 64.796875 31.59375 64.796875 
z
M 9.8125 72.90625 
L 30.078125 72.90625 
Q 51.265625 72.90625 61.171875 64.09375 
Q 71.09375 55.28125 71.09375 36.53125 
Q 71.09375 17.671875 61.125 8.828125 
Q 51.171875 0 30.078125 0 
L 9.8125 0 
z
" id="DejaVuSans-44"/>
      <path d="M 9.8125 72.90625 
L 19.671875 72.90625 
L 19.671875 0 
L 9.8125 0 
z
" id="DejaVuSans-49"/>
      <path d="M 9.8125 72.90625 
L 24.515625 72.90625 
L 43.109375 23.296875 
L 61.8125 72.90625 
L 76.515625 72.90625 
L 76.515625 0 
L 66.890625 0 
L 66.890625 64.015625 
L 48.09375 14.015625 
L 38.1875 14.015625 
L 19.390625 64.015625 
L 19.390625 0 
L 9.8125 0 
z
" id="DejaVuSans-4d"/>
     </defs>
     <g transform="translate(142.849063 323.82879)scale(0.2 -0.2)">
      <use xlink:href="#DejaVuSans-6c"/>
      <use x="27.783203" xlink:href="#DejaVuSans-6f"/>
      <use x="88.964844" xlink:href="#DejaVuSans-67"/>
      <use x="152.441406" xlink:href="#DejaVuSans-31"/>
      <use x="216.064453" xlink:href="#DejaVuSans-30"/>
      <use x="279.6875" xlink:href="#DejaVuSans-20"/>
      <use x="311.474609" xlink:href="#DejaVuSans-6f"/>
      <use x="372.65625" xlink:href="#DejaVuSans-66"/>
      <use x="407.861328" xlink:href="#DejaVuSans-20"/>
      <use x="439.648438" xlink:href="#DejaVuSans-46"/>
      <use x="497.167969" xlink:href="#DejaVuSans-45"/>
      <use x="560.351562" xlink:href="#DejaVuSans-76"/>
      <use x="619.53125" xlink:href="#DejaVuSans-61"/>
      <use x="680.810547" xlink:href="#DejaVuSans-6c"/>
      <use x="708.59375" xlink:href="#DejaVuSans-73"/>
      <use x="760.693359" xlink:href="#DejaVuSans-20"/>
      <use x="792.480469" xlink:href="#DejaVuSans-2f"/>
      <use x="826.171875" xlink:href="#DejaVuSans-20"/>
      <use x="857.958984" xlink:href="#DejaVuSans-44"/>
      <use x="934.960938" xlink:href="#DejaVuSans-49"/>
      <use x="964.453125" xlink:href="#DejaVuSans-4d"/>
     </g>
    </g>
   </g>
   <g id="matplotlib.axis_2">
    <g id="ytick_1">
     <g id="line2d_61">
      <path clip-path="url(#p234835a7ae)" d="M 69.3625 278.275665 
L 426.4825 278.275665 
" style="fill:none;stroke:#b0b0b0;stroke-linecap:square;stroke-width:0.8;"/>
     </g>
     <g id="line2d_62">
      <defs>
       <path d="M 0 0 
L -3.5 0 
" id="mc41bf7e865" style="stroke:#000000;stroke-width:0.8;"/>
      </defs>
      <g>
       <use style="stroke:#000000;stroke-width:0.8;" x="69.3625" xlink:href="#mc41bf7e865" y="278.275665"/>
      </g>
     </g>
     <g id="text_5">
      <!-- 0.0 -->
      <defs>
       <path d="M 10.6875 12.40625 
L 21 12.40625 
L 21 0 
L 10.6875 0 
z
" id="DejaVuSans-2e"/>
      </defs>
      <g transform="translate(30.55625 285.874103)scale(0.2 -0.2)">
       <use xlink:href="#DejaVuSans-30"/>
       <use x="63.623047" xlink:href="#DejaVuSans-2e"/>
       <use x="95.410156" xlink:href="#DejaVuSans-30"/>
      </g>
     </g>
    </g>
    <g id="ytick_2">
     <g id="line2d_63">
      <path clip-path="url(#p234835a7ae)" d="M 69.3625 225.58022 
L 426.4825 225.58022 
" style="fill:none;stroke:#b0b0b0;stroke-linecap:square;stroke-width:0.8;"/>
     </g>
     <g id="line2d_64">
      <g>
       <use style="stroke:#000000;stroke-width:0.8;" x="69.3625" xlink:href="#mc41bf7e865" y="225.58022"/>
      </g>
     </g>
     <g id="text_6">
      <!-- 0.2 -->
      <g transform="translate(30.55625 233.178657)scale(0.2 -0.2)">
       <use xlink:href="#DejaVuSans-30"/>
       <use x="63.623047" xlink:href="#DejaVuSans-2e"/>
       <use x="95.410156" xlink:href="#DejaVuSans-32"/>
      </g>
     </g>
    </g>
    <g id="ytick_3">
     <g id="line2d_65">
      <path clip-path="url(#p234835a7ae)" d="M 69.3625 172.884774 
L 426.4825 172.884774 
" style="fill:none;stroke:#b0b0b0;stroke-linecap:square;stroke-width:0.8;"/>
     </g>
     <g id="line2d_66">
      <g>
       <use style="stroke:#000000;stroke-width:0.8;" x="69.3625" xlink:href="#mc41bf7e865" y="172.884774"/>
      </g>
     </g>
     <g id="text_7">
      <!-- 0.4 -->
      <g transform="translate(30.55625 180.483212)scale(0.2 -0.2)">
       <use xlink:href="#DejaVuSans-30"/>
       <use x="63.623047" xlink:href="#DejaVuSans-2e"/>
       <use x="95.410156" xlink:href="#DejaVuSans-34"/>
      </g>
     </g>
    </g>
    <g id="ytick_4">
     <g id="line2d_67">
      <path clip-path="url(#p234835a7ae)" d="M 69.3625 120.189329 
L 426.4825 120.189329 
" style="fill:none;stroke:#b0b0b0;stroke-linecap:square;stroke-width:0.8;"/>
     </g>
     <g id="line2d_68">
      <g>
       <use style="stroke:#000000;stroke-width:0.8;" x="69.3625" xlink:href="#mc41bf7e865" y="120.189329"/>
      </g>
     </g>
     <g id="text_8">
      <!-- 0.6 -->
      <defs>
       <path d="M 33.015625 40.375 
Q 26.375 40.375 22.484375 35.828125 
Q 18.609375 31.296875 18.609375 23.390625 
Q 18.609375 15.53125 22.484375 10.953125 
Q 26.375 6.390625 33.015625 6.390625 
Q 39.65625 6.390625 43.53125 10.953125 
Q 47.40625 15.53125 47.40625 23.390625 
Q 47.40625 31.296875 43.53125 35.828125 
Q 39.65625 40.375 33.015625 40.375 
M 52.59375 71.296875 
L 52.59375 62.3125 
Q 48.875 64.0625 45.09375 64.984375 
Q 41.3125 65.921875 37.59375 65.921875 
Q 27.828125 65.921875 22.671875 59.328125 
Q 17.53125 52.734375 16.796875 39.40625 
Q 19.671875 43.65625 24.015625 45.921875 
Q 28.375 48.1875 33.59375 48.1875 
Q 44.578125 48.1875 50.953125 41.515625 
Q 57.328125 34.859375 57.328125 23.390625 
Q 57.328125 12.15625 50.6875 5.359375 
Q 44.046875 -1.421875 33.015625 -1.421875 
Q 20.359375 -1.421875 13.671875 8.265625 
Q 6.984375 17.96875 6.984375 36.375 
Q 6.984375 53.65625 15.1875 63.9375 
Q 23.390625 74.21875 37.203125 74.21875 
Q 40.921875 74.21875 44.703125 73.484375 
Q 48.484375 72.75 52.59375 71.296875 
" id="DejaVuSans-36"/>
      </defs>
      <g transform="translate(30.55625 127.787766)scale(0.2 -0.2)">
       <use xlink:href="#DejaVuSans-30"/>
       <use x="63.623047" xlink:href="#DejaVuSans-2e"/>
       <use x="95.410156" xlink:href="#DejaVuSans-36"/>
      </g>
     </g>
    </g>
    <g id="ytick_5">
     <g id="line2d_69">
      <path clip-path="url(#p234835a7ae)" d="M 69.3625 67.493883 
L 426.4825 67.493883 
" style="fill:none;stroke:#b0b0b0;stroke-linecap:square;stroke-width:0.8;"/>
     </g>
     <g id="line2d_70">
      <g>
       <use style="stroke:#000000;stroke-width:0.8;" x="69.3625" xlink:href="#mc41bf7e865" y="67.493883"/>
      </g>
     </g>
     <g id="text_9">
      <!-- 0.8 -->
      <defs>
       <path d="M 31.78125 34.625 
Q 24.75 34.625 20.71875 30.859375 
Q 16.703125 27.09375 16.703125 20.515625 
Q 16.703125 13.921875 20.71875 10.15625 
Q 24.75 6.390625 31.78125 6.390625 
Q 38.8125 6.390625 42.859375 10.171875 
Q 46.921875 13.96875 46.921875 20.515625 
Q 46.921875 27.09375 42.890625 30.859375 
Q 38.875 34.625 31.78125 34.625 
M 21.921875 38.8125 
Q 15.578125 40.375 12.03125 44.71875 
Q 8.5 49.078125 8.5 55.328125 
Q 8.5 64.0625 14.71875 69.140625 
Q 20.953125 74.21875 31.78125 74.21875 
Q 42.671875 74.21875 48.875 69.140625 
Q 55.078125 64.0625 55.078125 55.328125 
Q 55.078125 49.078125 51.53125 44.71875 
Q 48 40.375 41.703125 38.8125 
Q 48.828125 37.15625 52.796875 32.3125 
Q 56.78125 27.484375 56.78125 20.515625 
Q 56.78125 9.90625 50.3125 4.234375 
Q 43.84375 -1.421875 31.78125 -1.421875 
Q 19.734375 -1.421875 13.25 4.234375 
Q 6.78125 9.90625 6.78125 20.515625 
Q 6.78125 27.484375 10.78125 32.3125 
Q 14.796875 37.15625 21.921875 38.8125 
M 18.3125 54.390625 
Q 18.3125 48.734375 21.84375 45.5625 
Q 25.390625 42.390625 31.78125 42.390625 
Q 38.140625 42.390625 41.71875 45.5625 
Q 45.3125 48.734375 45.3125 54.390625 
Q 45.3125 60.0625 41.71875 63.234375 
Q 38.140625 66.40625 31.78125 66.40625 
Q 25.390625 66.40625 21.84375 63.234375 
Q 18.3125 60.0625 18.3125 54.390625 
" id="DejaVuSans-38"/>
      </defs>
      <g transform="translate(30.55625 75.092321)scale(0.2 -0.2)">
       <use xlink:href="#DejaVuSans-30"/>
       <use x="63.623047" xlink:href="#DejaVuSans-2e"/>
       <use x="95.410156" xlink:href="#DejaVuSans-38"/>
      </g>
     </g>
    </g>
    <g id="ytick_6">
     <g id="line2d_71">
      <path clip-path="url(#p234835a7ae)" d="M 69.3625 14.798437 
L 426.4825 14.798437 
" style="fill:none;stroke:#b0b0b0;stroke-linecap:square;stroke-width:0.8;"/>
     </g>
     <g id="line2d_72">
      <g>
       <use style="stroke:#000000;stroke-width:0.8;" x="69.3625" xlink:href="#mc41bf7e865" y="14.798437"/>
      </g>
     </g>
     <g id="text_10">
      <!-- 1.0 -->
      <g transform="translate(30.55625 22.396875)scale(0.2 -0.2)">
       <use xlink:href="#DejaVuSans-31"/>
       <use x="63.623047" xlink:href="#DejaVuSans-2e"/>
       <use x="95.410156" xlink:href="#DejaVuSans-30"/>
      </g>
     </g>
    </g>
    <g id="text_11">
     <!-- proportion of trials -->
     <defs>
      <path d="M 18.109375 8.203125 
L 18.109375 -20.796875 
L 9.078125 -20.796875 
L 9.078125 54.6875 
L 18.109375 54.6875 
L 18.109375 46.390625 
Q 20.953125 51.265625 25.265625 53.625 
Q 29.59375 56 35.59375 56 
Q 45.5625 56 51.78125 48.09375 
Q 58.015625 40.1875 58.015625 27.296875 
Q 58.015625 14.40625 51.78125 6.484375 
Q 45.5625 -1.421875 35.59375 -1.421875 
Q 29.59375 -1.421875 25.265625 0.953125 
Q 20.953125 3.328125 18.109375 8.203125 
M 48.6875 27.296875 
Q 48.6875 37.203125 44.609375 42.84375 
Q 40.53125 48.484375 33.40625 48.484375 
Q 26.265625 48.484375 22.1875 42.84375 
Q 18.109375 37.203125 18.109375 27.296875 
Q 18.109375 17.390625 22.1875 11.75 
Q 26.265625 6.109375 33.40625 6.109375 
Q 40.53125 6.109375 44.609375 11.75 
Q 48.6875 17.390625 48.6875 27.296875 
" id="DejaVuSans-70"/>
      <path d="M 41.109375 46.296875 
Q 39.59375 47.171875 37.8125 47.578125 
Q 36.03125 48 33.890625 48 
Q 26.265625 48 22.1875 43.046875 
Q 18.109375 38.09375 18.109375 28.8125 
L 18.109375 0 
L 9.078125 0 
L 9.078125 54.6875 
L 18.109375 54.6875 
L 18.109375 46.1875 
Q 20.953125 51.171875 25.484375 53.578125 
Q 30.03125 56 36.53125 56 
Q 37.453125 56 38.578125 55.875 
Q 39.703125 55.765625 41.0625 55.515625 
z
" id="DejaVuSans-72"/>
      <path d="M 18.3125 70.21875 
L 18.3125 54.6875 
L 36.8125 54.6875 
L 36.8125 47.703125 
L 18.3125 47.703125 
L 18.3125 18.015625 
Q 18.3125 11.328125 20.140625 9.421875 
Q 21.96875 7.515625 27.59375 7.515625 
L 36.8125 7.515625 
L 36.8125 0 
L 27.59375 0 
Q 17.1875 0 13.234375 3.875 
Q 9.28125 7.765625 9.28125 18.015625 
L 9.28125 47.703125 
L 2.6875 47.703125 
L 2.6875 54.6875 
L 9.28125 54.6875 
L 9.28125 70.21875 
z
" id="DejaVuSans-74"/>
      <path d="M 9.421875 54.6875 
L 18.40625 54.6875 
L 18.40625 0 
L 9.421875 0 
z
M 9.421875 75.984375 
L 18.40625 75.984375 
L 18.40625 64.59375 
L 9.421875 64.59375 
z
" id="DejaVuSans-69"/>
      <path d="M 54.890625 33.015625 
L 54.890625 0 
L 45.90625 0 
L 45.90625 32.71875 
Q 45.90625 40.484375 42.875 44.328125 
Q 39.84375 48.1875 33.796875 48.1875 
Q 26.515625 48.1875 22.3125 43.546875 
Q 18.109375 38.921875 18.109375 30.90625 
L 18.109375 0 
L 9.078125 0 
L 9.078125 54.6875 
L 18.109375 54.6875 
L 18.109375 46.1875 
Q 21.34375 51.125 25.703125 53.5625 
Q 30.078125 56 35.796875 56 
Q 45.21875 56 50.046875 50.171875 
Q 54.890625 44.34375 54.890625 33.015625 
" id="DejaVuSans-6e"/>
     </defs>
     <g transform="translate(22.396875 238.44779)rotate(-90)scale(0.2 -0.2)">
      <use xlink:href="#DejaVuSans-70"/>
      <use x="63.476562" xlink:href="#DejaVuSans-72"/>
      <use x="104.558594" xlink:href="#DejaVuSans-6f"/>
      <use x="165.740234" xlink:href="#DejaVuSans-70"/>
      <use x="229.216797" xlink:href="#DejaVuSans-6f"/>
      <use x="290.398438" xlink:href="#DejaVuSans-72"/>
      <use x="331.511719" xlink:href="#DejaVuSans-74"/>
      <use x="370.720703" xlink:href="#DejaVuSans-69"/>
      <use x="398.503906" xlink:href="#DejaVuSans-6f"/>
      <use x="459.685547" xlink:href="#DejaVuSans-6e"/>
      <use x="523.064453" xlink:href="#DejaVuSans-20"/>
      <use x="554.851562" xlink:href="#DejaVuSans-6f"/>
      <use x="616.033203" xlink:href="#DejaVuSans-66"/>
      <use x="651.238281" xlink:href="#DejaVuSans-20"/>
      <use x="683.025391" xlink:href="#DejaVuSans-74"/>
      <use x="722.234375" xlink:href="#DejaVuSans-72"/>
      <use x="763.347656" xlink:href="#DejaVuSans-69"/>
      <use x="791.130859" xlink:href="#DejaVuSans-61"/>
      <use x="852.410156" xlink:href="#DejaVuSans-6c"/>
      <use x="880.193359" xlink:href="#DejaVuSans-73"/>
     </g>
    </g>
   </g>
   <g id="line2d_73">
    <path clip-path="url(#p234835a7ae)" d="M 19.439266 278.275665 
L 19.439266 274.762636 
L 19.439266 274.762636 
L 19.439266 274.762636 
L 19.439266 271.249606 
L 19.439266 271.249606 
L 19.439266 271.249606 
L 19.439266 267.736576 
L 19.439266 267.736576 
L 19.439266 267.736576 
L 19.439266 264.223546 
L 19.439266 264.223546 
L 19.439266 264.223546 
L 19.439266 260.710517 
L 19.439266 260.710517 
L 19.439266 260.710517 
L 19.439266 257.197487 
L 19.439266 257.197487 
L 19.439266 257.197487 
L 19.439266 253.684457 
L 19.439266 253.684457 
L 19.439266 253.684457 
L 19.439266 250.171428 
L 19.439266 250.171428 
L 19.439266 250.171428 
L 19.439266 246.658398 
L 19.439266 246.658398 
L 19.439266 246.658398 
L 19.439266 243.145368 
L 19.439266 243.145368 
L 19.439266 243.145368 
L 19.439266 239.632338 
L 19.439266 239.632338 
L 19.439266 239.632338 
L 19.439266 236.119309 
L 19.439266 236.119309 
L 19.439266 236.119309 
L 19.439266 232.606279 
L 19.439266 232.606279 
L 19.439266 232.606279 
L 19.439266 229.093249 
L 19.439266 229.093249 
L 19.439266 229.093249 
L 19.439266 225.58022 
L 19.439266 225.58022 
L 19.439266 225.58022 
L 19.439266 222.06719 
L 19.439266 222.06719 
L 19.439266 222.06719 
L 19.439266 218.55416 
L 19.439266 218.55416 
L 19.439266 218.55416 
L 19.439266 215.041131 
L 19.439266 215.041131 
L 19.439266 215.041131 
L 19.439266 211.528101 
L 19.439266 211.528101 
L 19.439266 211.528101 
L 19.439266 208.015071 
L 19.439266 208.015071 
L 19.439266 208.015071 
L 19.439266 204.502041 
L 19.439266 204.502041 
L 19.439266 204.502041 
L 19.439266 200.989012 
L 19.439266 200.989012 
L 19.439266 200.989012 
L 19.439266 197.475982 
L 19.439266 197.475982 
L 19.439266 197.475982 
L 19.439266 193.962952 
L 19.439266 193.962952 
L 19.439266 193.962952 
L 19.439266 190.449923 
L 19.439266 190.449923 
L 19.439266 190.449923 
L 19.439266 186.936893 
L 19.439266 186.936893 
L 19.439266 186.936893 
L 19.439266 183.423863 
L 19.439266 183.423863 
L 19.439266 183.423863 
L 19.439266 179.910834 
L 19.439266 179.910834 
L 19.439266 179.910834 
L 19.439266 176.397804 
L 19.439266 176.397804 
L 19.439266 176.397804 
L 19.439266 172.884774 
L 19.439266 172.884774 
L 19.439266 172.884774 
L 19.439266 169.371744 
L 19.439266 169.371744 
L 19.439266 169.371744 
L 19.439266 165.858715 
L 19.439266 165.858715 
L 19.439266 165.858715 
L 19.439266 162.345685 
L 19.439266 162.345685 
L 19.439266 162.345685 
L 19.439266 158.832655 
L 19.439266 158.832655 
L 19.439266 158.832655 
L 19.439266 155.319626 
L 19.439266 155.319626 
L 19.439266 155.319626 
L 19.439266 151.806596 
L 183.788033 151.806596 
L 183.788033 130.728418 
L 196.365175 130.728418 
L 196.365175 109.650239 
L 205.288799 109.650239 
L 205.288799 88.572061 
L 212.2105 88.572061 
L 212.2105 85.059032 
L 222.647549 85.059032 
L 222.647549 78.032972 
L 233.711266 78.032972 
L 233.711266 74.519942 
L 236.667698 74.519942 
L 236.667698 71.006913 
L 239.366708 71.006913 
L 239.366708 67.493883 
L 241.849556 67.493883 
L 241.849556 63.980853 
L 244.148315 63.980853 
L 244.148315 60.467824 
L 251.94385 60.467824 
L 251.94385 56.954794 
L 287.149848 56.954794 
L 287.149848 53.441764 
L 288.7686 53.441764 
L 288.7686 49.928735 
L 289.802665 49.928735 
L 289.802665 42.902675 
L 299.3555 42.902675 
L 299.3555 39.389645 
L 304.190451 39.389645 
L 304.190451 35.876616 
L 319.519855 35.876616 
L 319.519855 32.363586 
L 320.099667 32.363586 
L 320.099667 28.850556 
L 324.716717 28.850556 
L 324.716717 25.337527 
L 336.514165 25.337527 
L 336.514165 21.824497 
L 341.311882 21.824497 
L 341.311882 18.311467 
L 347.031678 18.311467 
L 347.031678 14.798437 
L 347.031678 14.798437 
L 426.4825 14.798437 
L 426.4825 14.798437 
" style="fill:none;stroke:#000000;stroke-linecap:square;stroke-width:1.5;"/>
   </g>
   <g id="line2d_74"/>
   <g id="line2d_75">
    <path clip-path="url(#p234835a7ae)" d="M 274.294506 278.275665 
L 274.294506 274.762636 
L 305.749525 274.762636 
L 305.749525 271.249606 
L 315.12599 271.249606 
L 315.12599 267.736576 
L 315.572315 267.736576 
L 315.572315 264.223546 
L 315.793092 264.223546 
L 315.793092 260.710517 
L 316.660815 260.710517 
L 316.660815 257.197487 
L 317.08574 257.197487 
L 317.08574 253.684457 
L 324.716717 253.684457 
L 324.716717 250.171428 
L 325.850698 250.171428 
L 325.850698 246.658398 
L 326.480549 246.658398 
L 326.480549 243.145368 
L 326.636033 243.145368 
L 326.636033 239.632338 
L 326.636033 239.632338 
L 326.636033 236.119309 
L 332.676809 236.119309 
L 332.676809 232.606279 
L 334.05011 232.606279 
L 334.05011 229.093249 
L 336.738941 229.093249 
L 336.738941 225.58022 
L 336.962101 225.58022 
L 336.962101 222.06719 
L 338.374771 222.06719 
L 338.374771 218.55416 
L 339.109605 218.55416 
L 339.109605 215.041131 
L 339.213175 215.041131 
L 339.213175 211.528101 
L 339.419282 211.528101 
L 339.419282 208.015071 
L 346.87054 208.015071 
L 346.87054 204.502041 
L 347.191984 204.502041 
L 347.191984 200.989012 
L 347.981315 200.989012 
L 347.981315 197.475982 
L 349.797583 197.475982 
L 349.797583 193.962952 
L 351.022652 193.962952 
L 351.022652 190.449923 
L 351.373948 190.449923 
L 351.373948 186.936893 
L 351.721309 186.936893 
L 351.721309 183.423863 
L 353.921218 183.423863 
L 353.921218 179.910834 
L 354.934175 179.910834 
L 354.934175 176.397804 
L 357.27295 176.397804 
L 357.27295 172.884774 
L 358.014931 172.884774 
L 358.014931 169.371744 
L 359.822377 169.371744 
L 359.822377 165.858715 
L 360.920049 165.858715 
L 360.920049 162.345685 
L 364.0441 162.345685 
L 364.0441 158.832655 
L 367.552814 158.832655 
L 367.552814 155.319626 
L 371.261575 155.319626 
L 371.261575 151.806596 
L 371.261575 151.806596 
L 371.261575 151.806596 
L 426.4825 151.806596 
" style="fill:none;stroke:#00bfbf;stroke-linecap:square;stroke-width:1.5;"/>
   </g>
   <g id="line2d_76"/>
   <g id="line2d_77">
    <path clip-path="url(#p234835a7ae)" d="M 354.746748 278.275665 
L 354.746748 274.762636 
L 360.1926 274.762636 
L 360.1926 271.249606 
L 364.596383 271.249606 
L 364.596383 267.736576 
L 365.451204 267.736576 
L 365.451204 264.223546 
L 365.495549 264.223546 
L 365.495549 260.710517 
L 374.73879 260.710517 
L 374.73879 257.197487 
L 377.536325 257.197487 
L 377.536325 253.684457 
L 377.536325 253.684457 
L 377.536325 253.684457 
L 426.4825 253.684457 
" style="fill:none;stroke:#bf00bf;stroke-linecap:square;stroke-width:1.5;"/>
   </g>
   <g id="line2d_78"/>
   <g id="line2d_79"/>
   <g id="line2d_80">
    <path clip-path="url(#p234835a7ae)" d="M 426.4825 278.275665 
L 426.4825 12.163665 
" style="fill:none;stroke:#000000;stroke-linecap:square;stroke-width:1.5;"/>
   </g>
   <g id="patch_3">
    <path d="M 69.3625 278.275665 
L 69.3625 12.163665 
" style="fill:none;stroke:#000000;stroke-linecap:square;stroke-linejoin:miter;stroke-width:0.8;"/>
   </g>
   <g id="patch_4">
    <path d="M 426.4825 278.275665 
L 426.4825 12.163665 
" style="fill:none;stroke:#000000;stroke-linecap:square;stroke-linejoin:miter;stroke-width:0.8;"/>
   </g>
   <g id="patch_5">
    <path d="M 69.3625 278.275665 
L 426.4825 278.275665 
" style="fill:none;stroke:#000000;stroke-linecap:square;stroke-linejoin:miter;stroke-width:0.8;"/>
   </g>
   <g id="patch_6">
    <path d="M 69.3625 12.163665 
L 426.4825 12.163665 
" style="fill:none;stroke:#000000;stroke-linecap:square;stroke-linejoin:miter;stroke-width:0.8;"/>
   </g>
   <g id="text_12">
    <!-- {f15-f19}, 5-D -->
    <defs>
     <path d="M 51.125 -9.28125 
L 51.125 -16.3125 
L 48.09375 -16.3125 
Q 35.9375 -16.3125 31.8125 -12.6875 
Q 27.6875 -9.078125 27.6875 1.703125 
L 27.6875 13.375 
Q 27.6875 20.75 25.046875 23.578125 
Q 22.40625 26.421875 15.484375 26.421875 
L 12.5 26.421875 
L 12.5 33.40625 
L 15.484375 33.40625 
Q 22.46875 33.40625 25.078125 36.203125 
Q 27.6875 39.015625 27.6875 46.296875 
L 27.6875 58.015625 
Q 27.6875 68.796875 31.8125 72.390625 
Q 35.9375 75.984375 48.09375 75.984375 
L 51.125 75.984375 
L 51.125 69 
L 47.796875 69 
Q 40.921875 69 38.8125 66.84375 
Q 36.71875 64.703125 36.71875 57.8125 
L 36.71875 45.703125 
Q 36.71875 38.03125 34.5 34.5625 
Q 32.28125 31.109375 26.90625 29.890625 
Q 32.328125 28.5625 34.515625 25.09375 
Q 36.71875 21.625 36.71875 14.015625 
L 36.71875 1.90625 
Q 36.71875 -4.984375 38.8125 -7.125 
Q 40.921875 -9.28125 47.796875 -9.28125 
z
" id="DejaVuSans-7b"/>
     <path d="M 10.796875 72.90625 
L 49.515625 72.90625 
L 49.515625 64.59375 
L 19.828125 64.59375 
L 19.828125 46.734375 
Q 21.96875 47.46875 24.109375 47.828125 
Q 26.265625 48.1875 28.421875 48.1875 
Q 40.625 48.1875 47.75 41.5 
Q 54.890625 34.8125 54.890625 23.390625 
Q 54.890625 11.625 47.5625 5.09375 
Q 40.234375 -1.421875 26.90625 -1.421875 
Q 22.3125 -1.421875 17.546875 -0.640625 
Q 12.796875 0.140625 7.71875 1.703125 
L 7.71875 11.625 
Q 12.109375 9.234375 16.796875 8.0625 
Q 21.484375 6.890625 26.703125 6.890625 
Q 35.15625 6.890625 40.078125 11.328125 
Q 45.015625 15.765625 45.015625 23.390625 
Q 45.015625 31 40.078125 35.4375 
Q 35.15625 39.890625 26.703125 39.890625 
Q 22.75 39.890625 18.8125 39.015625 
Q 14.890625 38.140625 10.796875 36.28125 
z
" id="DejaVuSans-35"/>
     <path d="M 4.890625 31.390625 
L 31.203125 31.390625 
L 31.203125 23.390625 
L 4.890625 23.390625 
z
" id="DejaVuSans-2d"/>
     <path d="M 10.984375 1.515625 
L 10.984375 10.5 
Q 14.703125 8.734375 18.5 7.8125 
Q 22.3125 6.890625 25.984375 6.890625 
Q 35.75 6.890625 40.890625 13.453125 
Q 46.046875 20.015625 46.78125 33.40625 
Q 43.953125 29.203125 39.59375 26.953125 
Q 35.25 24.703125 29.984375 24.703125 
Q 19.046875 24.703125 12.671875 31.3125 
Q 6.296875 37.9375 6.296875 49.421875 
Q 6.296875 60.640625 12.9375 67.421875 
Q 19.578125 74.21875 30.609375 74.21875 
Q 43.265625 74.21875 49.921875 64.515625 
Q 56.59375 54.828125 56.59375 36.375 
Q 56.59375 19.140625 48.40625 8.859375 
Q 40.234375 -1.421875 26.421875 -1.421875 
Q 22.703125 -1.421875 18.890625 -0.6875 
Q 15.09375 0.046875 10.984375 1.515625 
M 30.609375 32.421875 
Q 37.25 32.421875 41.125 36.953125 
Q 45.015625 41.5 45.015625 49.421875 
Q 45.015625 57.28125 41.125 61.84375 
Q 37.25 66.40625 30.609375 66.40625 
Q 23.96875 66.40625 20.09375 61.84375 
Q 16.21875 57.28125 16.21875 49.421875 
Q 16.21875 41.5 20.09375 36.953125 
Q 23.96875 32.421875 30.609375 32.421875 
" id="DejaVuSans-39"/>
     <path d="M 12.5 -9.28125 
L 15.921875 -9.28125 
Q 22.75 -9.28125 24.828125 -7.171875 
Q 26.90625 -5.078125 26.90625 1.90625 
L 26.90625 14.015625 
Q 26.90625 21.625 29.09375 25.09375 
Q 31.296875 28.5625 36.71875 29.890625 
Q 31.296875 31.109375 29.09375 34.5625 
Q 26.90625 38.03125 26.90625 45.703125 
L 26.90625 57.8125 
Q 26.90625 64.75 24.828125 66.875 
Q 22.75 69 15.921875 69 
L 12.5 69 
L 12.5 75.984375 
L 15.578125 75.984375 
Q 27.734375 75.984375 31.8125 72.390625 
Q 35.890625 68.796875 35.890625 58.015625 
L 35.890625 46.296875 
Q 35.890625 39.015625 38.515625 36.203125 
Q 41.15625 33.40625 48.09375 33.40625 
L 51.125 33.40625 
L 51.125 26.421875 
L 48.09375 26.421875 
Q 41.15625 26.421875 38.515625 23.578125 
Q 35.890625 20.75 35.890625 13.375 
L 35.890625 1.703125 
Q 35.890625 -9.078125 31.8125 -12.6875 
Q 27.734375 -16.3125 15.578125 -16.3125 
L 12.5 -16.3125 
z
" id="DejaVuSans-7d"/>
     <path d="M 11.71875 12.40625 
L 22.015625 12.40625 
L 22.015625 4 
L 14.015625 -11.625 
L 7.71875 -11.625 
L 11.71875 4 
z
" id="DejaVuSans-2c"/>
    </defs>
    <g transform="translate(175.0725 32.68278)scale(0.2 -0.2)">
     <use xlink:href="#DejaVuSans-7b"/>
     <use x="63.623047" xlink:href="#DejaVuSans-66"/>
     <use x="98.828125" xlink:href="#DejaVuSans-31"/>
     <use x="162.451172" xlink:href="#DejaVuSans-35"/>
     <use x="226.074219" xlink:href="#DejaVuSans-2d"/>
     <use x="262.158203" xlink:href="#DejaVuSans-66"/>
     <use x="297.363281" xlink:href="#DejaVuSans-31"/>
     <use x="360.986328" xlink:href="#DejaVuSans-39"/>
     <use x="424.609375" xlink:href="#DejaVuSans-7d"/>
     <use x="488.232422" xlink:href="#DejaVuSans-2c"/>
     <use x="520.019531" xlink:href="#DejaVuSans-20"/>
     <use x="551.806641" xlink:href="#DejaVuSans-35"/>
     <use x="615.429688" xlink:href="#DejaVuSans-2d"/>
     <use x="651.513672" xlink:href="#DejaVuSans-44"/>
    </g>
   </g>
   <g id="text_13">
    <!-- absolute targets -->
    <defs>
     <path d="M 48.6875 27.296875 
Q 48.6875 37.203125 44.609375 42.84375 
Q 40.53125 48.484375 33.40625 48.484375 
Q 26.265625 48.484375 22.1875 42.84375 
Q 18.109375 37.203125 18.109375 27.296875 
Q 18.109375 17.390625 22.1875 11.75 
Q 26.265625 6.109375 33.40625 6.109375 
Q 40.53125 6.109375 44.609375 11.75 
Q 48.6875 17.390625 48.6875 27.296875 
M 18.109375 46.390625 
Q 20.953125 51.265625 25.265625 53.625 
Q 29.59375 56 35.59375 56 
Q 45.5625 56 51.78125 48.09375 
Q 58.015625 40.1875 58.015625 27.296875 
Q 58.015625 14.40625 51.78125 6.484375 
Q 45.5625 -1.421875 35.59375 -1.421875 
Q 29.59375 -1.421875 25.265625 0.953125 
Q 20.953125 3.328125 18.109375 8.203125 
L 18.109375 0 
L 9.078125 0 
L 9.078125 75.984375 
L 18.109375 75.984375 
z
" id="DejaVuSans-62"/>
     <path d="M 8.5 21.578125 
L 8.5 54.6875 
L 17.484375 54.6875 
L 17.484375 21.921875 
Q 17.484375 14.15625 20.5 10.265625 
Q 23.53125 6.390625 29.59375 6.390625 
Q 36.859375 6.390625 41.078125 11.03125 
Q 45.3125 15.671875 45.3125 23.6875 
L 45.3125 54.6875 
L 54.296875 54.6875 
L 54.296875 0 
L 45.3125 0 
L 45.3125 8.40625 
Q 42.046875 3.421875 37.71875 1 
Q 33.40625 -1.421875 27.6875 -1.421875 
Q 18.265625 -1.421875 13.375 4.4375 
Q 8.5 10.296875 8.5 21.578125 
M 31.109375 56 
z
" id="DejaVuSans-75"/>
     <path d="M 56.203125 29.59375 
L 56.203125 25.203125 
L 14.890625 25.203125 
Q 15.484375 15.921875 20.484375 11.0625 
Q 25.484375 6.203125 34.421875 6.203125 
Q 39.59375 6.203125 44.453125 7.46875 
Q 49.3125 8.734375 54.109375 11.28125 
L 54.109375 2.78125 
Q 49.265625 0.734375 44.1875 -0.34375 
Q 39.109375 -1.421875 33.890625 -1.421875 
Q 20.796875 -1.421875 13.15625 6.1875 
Q 5.515625 13.8125 5.515625 26.8125 
Q 5.515625 40.234375 12.765625 48.109375 
Q 20.015625 56 32.328125 56 
Q 43.359375 56 49.78125 48.890625 
Q 56.203125 41.796875 56.203125 29.59375 
M 47.21875 32.234375 
Q 47.125 39.59375 43.09375 43.984375 
Q 39.0625 48.390625 32.421875 48.390625 
Q 24.90625 48.390625 20.390625 44.140625 
Q 15.875 39.890625 15.1875 32.171875 
z
" id="DejaVuSans-65"/>
    </defs>
    <g transform="translate(69.3625 291.449527)scale(0.14 -0.14)">
     <use xlink:href="#DejaVuSans-61"/>
     <use x="61.279297" xlink:href="#DejaVuSans-62"/>
     <use x="124.755859" xlink:href="#DejaVuSans-73"/>
     <use x="176.855469" xlink:href="#DejaVuSans-6f"/>
     <use x="238.037109" xlink:href="#DejaVuSans-6c"/>
     <use x="265.820312" xlink:href="#DejaVuSans-75"/>
     <use x="329.199219" xlink:href="#DejaVuSans-74"/>
     <use x="368.408203" xlink:href="#DejaVuSans-65"/>
     <use x="429.931641" xlink:href="#DejaVuSans-20"/>
     <use x="461.71875" xlink:href="#DejaVuSans-74"/>
     <use x="500.927734" xlink:href="#DejaVuSans-61"/>
     <use x="562.207031" xlink:href="#DejaVuSans-72"/>
     <use x="603.304688" xlink:href="#DejaVuSans-67"/>
     <use x="666.78125" xlink:href="#DejaVuSans-65"/>
     <use x="728.304688" xlink:href="#DejaVuSans-74"/>
     <use x="767.513672" xlink:href="#DejaVuSans-73"/>
    </g>
   </g>
   <g id="text_14">
    <!-- v2.0.1 -->
    <g style="fill:#808080;" transform="translate(232.24125 273.534858)scale(0.1 -0.1)">
     <use xlink:href="#DejaVuSans-76"/>
     <use x="59.179688" xlink:href="#DejaVuSans-32"/>
     <use x="122.802734" xlink:href="#DejaVuSans-2e"/>
     <use x="154.589844" xlink:href="#DejaVuSans-30"/>
     <use x="218.212891" xlink:href="#DejaVuSans-2e"/>
     <use x="250" xlink:href="#DejaVuSans-31"/>
    </g>
   </g>
   <g id="legend_1">
    <g id="patch_7">
     <path d="M 83.3625 268.275665 
L 212.584375 268.275665 
Q 216.584375 268.275665 216.584375 264.275665 
L 216.584375 148.850665 
Q 216.584375 144.850665 212.584375 144.850665 
L 83.3625 144.850665 
Q 79.3625 144.850665 79.3625 148.850665 
L 79.3625 264.275665 
Q 79.3625 268.275665 83.3625 268.275665 
z
" style="fill:#ffffff;opacity:0.2;stroke:#cccccc;stroke-linejoin:miter;"/>
    </g>
    <g id="line2d_81">
     <path d="M 87.3625 161.04754 
L 127.3625 161.04754 
" style="fill:none;stroke:#000000;stroke-linecap:square;stroke-width:1.5;"/>
    </g>
    <g id="line2d_82"/>
    <g id="text_15">
     <!-- 1: 5/5 -->
     <defs>
      <path d="M 11.71875 12.40625 
L 22.015625 12.40625 
L 22.015625 0 
L 11.71875 0 
z
M 11.71875 51.703125 
L 22.015625 51.703125 
L 22.015625 39.3125 
L 11.71875 39.3125 
z
" id="DejaVuSans-3a"/>
     </defs>
     <g transform="translate(143.3625 168.04754)scale(0.2 -0.2)">
      <use xlink:href="#DejaVuSans-31"/>
      <use x="63.623047" xlink:href="#DejaVuSans-3a"/>
      <use x="97.314453" xlink:href="#DejaVuSans-20"/>
      <use x="129.101562" xlink:href="#DejaVuSans-35"/>
      <use x="192.724609" xlink:href="#DejaVuSans-2f"/>
      <use x="226.416016" xlink:href="#DejaVuSans-35"/>
     </g>
    </g>
    <g id="line2d_83">
     <path d="M 87.3625 190.40379 
L 127.3625 190.40379 
" style="fill:none;stroke:#00bfbf;stroke-linecap:square;stroke-width:1.5;"/>
    </g>
    <g id="line2d_84"/>
    <g id="text_16">
     <!-- -1: 4/5 -->
     <g transform="translate(143.3625 197.40379)scale(0.2 -0.2)">
      <use xlink:href="#DejaVuSans-2d"/>
      <use x="36.083984" xlink:href="#DejaVuSans-31"/>
      <use x="99.707031" xlink:href="#DejaVuSans-3a"/>
      <use x="133.398438" xlink:href="#DejaVuSans-20"/>
      <use x="165.185547" xlink:href="#DejaVuSans-34"/>
      <use x="228.808594" xlink:href="#DejaVuSans-2f"/>
      <use x="262.5" xlink:href="#DejaVuSans-35"/>
     </g>
    </g>
    <g id="line2d_85">
     <path d="M 87.3625 219.76004 
L 127.3625 219.76004 
" style="fill:none;stroke:#bf00bf;stroke-linecap:square;stroke-width:1.5;"/>
    </g>
    <g id="line2d_86"/>
    <g id="text_17">
     <!-- -4: 2/5 -->
     <g transform="translate(143.3625 226.76004)scale(0.2 -0.2)">
      <use xlink:href="#DejaVuSans-2d"/>
      <use x="36.083984" xlink:href="#DejaVuSans-34"/>
      <use x="99.707031" xlink:href="#DejaVuSans-3a"/>
      <use x="133.398438" xlink:href="#DejaVuSans-20"/>
      <use x="165.185547" xlink:href="#DejaVuSans-32"/>
      <use x="228.808594" xlink:href="#DejaVuSans-2f"/>
      <use x="262.5" xlink:href="#DejaVuSans-35"/>
     </g>
    </g>
    <g id="line2d_87">
     <path d="M 87.3625 249.11629 
L 127.3625 249.11629 
" style="fill:none;stroke:#ff0000;stroke-linecap:square;stroke-width:3;"/>
    </g>
    <g id="line2d_88"/>
    <g id="text_18">
     <!-- -8: 0/5 -->
     <g transform="translate(143.3625 256.11629)scale(0.2 -0.2)">
      <use xlink:href="#DejaVuSans-2d"/>
      <use x="36.083984" xlink:href="#DejaVuSans-38"/>
      <use x="99.707031" xlink:href="#DejaVuSans-3a"/>
      <use x="133.398438" xlink:href="#DejaVuSans-20"/>
      <use x="165.185547" xlink:href="#DejaVuSans-30"/>
      <use x="228.808594" xlink:href="#DejaVuSans-2f"/>
      <use x="262.5" xlink:href="#DejaVuSans-35"/>
     </g>
    </g>
   </g>
  </g>
 </g>
 <defs>
  <clipPath id="p234835a7ae">
   <rect height="266.112" width="357.12" x="69.3625" y="12.163665"/>
  </clipPath>
 </defs>
</svg>
