<?xml version="1.0" encoding="utf-8" standalone="no"?>
<!DOCTYPE svg PUBLIC "-//W3C//DTD SVG 1.1//EN"
  "http://www.w3.org/Graphics/SVG/1.1/DTD/svg11.dtd">
<!-- Created with matplotlib (http://matplotlib.org/) -->
<svg height="413pt" version="1.1" viewBox="0 0 523 413" width="523pt" xmlns="http://www.w3.org/2000/svg" xmlns:xlink="http://www.w3.org/1999/xlink">
 <defs>
  <style type="text/css">
*{stroke-linecap:butt;stroke-linejoin:round;}
  </style>
 </defs>
 <g id="figure_1">
  <g id="patch_1">
   <path d="
M0 413.969
L523.239 413.969
L523.239 0
L0 0
z
" style="fill:#ffffff;"/>
  </g>
  <g id="axes_1">
   <g id="patch_2">
    <path d="
M64.9219 359.056
L511.322 359.056
L511.322 13.4563
L64.9219 13.4563
z
" style="fill:#ffffff;"/>
   </g>
   <g id="line2d_1">
    <path clip-path="url(#p4b24e7e61f)" d="
M268.664 359.056
L268.664 353.353
L271.729 353.353
L271.729 347.65
L272.891 347.65
L272.891 341.947
L272.891 341.947
L272.891 336.244
L273.458 336.244
L273.458 330.541
L273.646 330.541
L273.646 324.839
L273.832 324.839
L273.832 319.136
L274.752 319.136
L274.752 313.433
L275.293 313.433
L275.293 307.73
L275.472 307.73
L275.472 302.027
L275.472 302.027
L275.472 296.324
L275.65 296.324
L275.65 290.621
L275.65 290.621
L275.65 284.918
L276.179 284.918
L276.179 279.215
L276.179 279.215
L276.179 273.512
L277.387 273.512
L277.387 267.809
L277.725 267.809
L277.725 262.106
L277.893 262.106
L277.893 256.403
L278.06 256.403
L278.06 250.7
L278.227 250.7
L278.227 244.997
L278.722 244.997
L278.722 239.294
L278.722 239.294
L278.722 233.591
L278.886 233.591
L278.886 227.888
L281.72 227.888
L281.72 222.185
L283.21 222.185
L283.21 216.482
L283.501 216.482
L283.501 210.779
L301.232 210.779
L301.232 205.076
L304.428 205.076
L304.428 199.373
L307.881 199.373
L307.881 193.67
L315.527 193.67
L315.527 187.967
L315.527 187.967
L315.527 187.967
L511.322 187.967" style="fill:none;stroke:#f5deb3;stroke-linecap:square;"/>
   </g>
   <g id="line2d_2"/>
   <g id="line2d_3">
    <path clip-path="url(#p4b24e7e61f)" d="
M269.287 359.056
L269.287 353.353
L275.802 353.353
L275.802 347.65
L278.963 347.65
L278.963 341.947
L284.016 341.947
L284.016 336.244
L284.624 336.244
L284.624 330.541
L284.938 330.541
L284.938 324.839
L284.965 324.839
L284.965 319.136
L285.071 319.136
L285.071 313.433
L285.95 313.433
L285.95 307.73
L286.58 307.73
L286.58 302.027
L286.758 302.027
L286.758 296.324
L287.081 296.324
L287.081 290.621
L287.282 290.621
L287.282 284.918
L287.332 284.918
L287.332 279.215
L287.363 279.215
L287.363 273.512
L287.394 273.512
L287.394 267.809
L287.494 267.809
L287.494 262.106
L289.189 262.106
L289.189 256.403
L289.787 256.403
L289.787 250.7
L290.358 250.7
L290.358 244.997
L290.841 244.997
L290.841 239.294
L291.806 239.294
L291.806 233.591
L292.244 233.591
L292.244 227.888
L299.273 227.888
L299.273 222.185
L299.993 222.185
L299.993 216.482
L300.428 216.482
L300.428 210.779
L301.101 210.779
L301.101 205.076
L301.167 205.076
L301.167 199.373
L301.193 199.373
L301.193 193.67
L302.522 193.67
L302.522 187.967
L302.653 187.967
L302.653 182.264
L303.656 182.264
L303.656 176.561
L304.259 176.561
L304.259 170.858
L304.368 170.858
L304.368 165.155
L305.091 165.155
L305.091 159.452
L305.621 159.452
L305.621 153.749
L306.809 153.749
L306.809 148.046
L309.142 148.046
L309.142 142.343
L311.028 142.343
L311.028 136.641
L317.922 136.641
L317.922 130.938
L320.692 130.938
L320.692 125.235
L320.879 125.235
L320.879 119.532
L321.927 119.532
L321.927 113.829
L322.238 113.829
L322.238 108.126
L322.698 108.126
L322.698 102.423
L322.698 102.423
L322.698 102.423
L511.322 102.423" style="fill:none;stroke:#f5deb3;stroke-linecap:square;"/>
   </g>
   <g id="line2d_4">
    <path clip-path="url(#p4b24e7e61f)" d="
M318.752 359.056
L318.752 353.353
L323.314 353.353
L323.314 347.65
L326.066 347.65
L326.066 341.947
L326.547 341.947
L326.547 336.244
L329.716 336.244
L329.716 330.541
L329.735 330.541
L329.735 324.839
L331.356 324.839
L331.356 319.136
L332.054 319.136
L332.054 313.433
L332.069 313.433
L332.069 307.73
L332.488 307.73
L332.488 302.027
L333.034 302.027
L333.034 296.324
L333.414 296.324
L333.414 290.621
L334.548 290.621
L334.548 284.918
L334.95 284.918
L334.95 279.215
L335.125 279.215
L335.125 273.512
L337.339 273.512
L337.339 267.809
L338.593 267.809
L338.593 262.106
L339.122 262.106
L339.122 256.403
L339.471 256.403
L339.471 250.7
L342.461 250.7
L342.461 244.997
L350.656 244.997
L350.656 239.294
L353.467 239.294
L353.467 233.591
L356.891 233.591
L356.891 227.888
L359.177 227.888
L359.177 222.185
L360.574 222.185
L360.574 216.482
L363.583 216.482
L363.583 210.779
L366.735 210.779
L366.735 205.076
L371.122 205.076
L371.122 199.373
L371.734 199.373
L371.734 193.67
L373.455 193.67
L373.455 187.967
L373.455 187.967
L373.455 187.967
L511.322 187.967" style="fill:none;stroke:#f5deb3;stroke-linecap:square;"/>
   </g>
   <g id="line2d_5">
    <path clip-path="url(#p4b24e7e61f)" d="
M307.585 359.056
L307.585 353.353
L309.792 353.353
L309.792 347.65
L311.983 347.65
L311.983 341.947
L312.155 341.947
L312.155 336.244
L313.752 336.244
L313.752 330.541
L314.173 330.541
L314.173 324.839
L315.891 324.839
L315.891 319.136
L316.311 319.136
L316.311 313.433
L316.374 313.433
L316.374 307.73
L316.421 307.73
L316.421 302.027
L317.013 302.027
L317.013 296.324
L318.615 296.324
L318.615 290.621
L318.902 290.621
L318.902 284.918
L319.397 284.918
L319.397 279.215
L319.403 279.215
L319.403 273.512
L319.667 273.512
L319.667 267.809
L319.773 267.809
L319.773 262.106
L320.194 262.106
L320.194 256.403
L320.314 256.403
L320.314 250.7
L320.538 250.7
L320.538 244.997
L320.575 244.997
L320.575 239.294
L320.652 239.294
L320.652 233.591
L321.05 233.591
L321.05 227.888
L321.16 227.888
L321.16 222.185
L321.579 222.185
L321.579 216.482
L322.796 216.482
L322.796 210.779
L323.21 210.779
L323.21 205.076
L323.307 205.076
L323.307 199.373
L323.507 199.373
L323.507 193.67
L323.915 193.67
L323.915 187.967
L325.486 187.967
L325.486 182.264
L326.278 182.264
L326.278 176.561
L326.396 176.561
L326.396 170.858
L327.166 170.858
L327.166 165.155
L327.422 165.155
L327.422 159.452
L330.299 159.452
L330.299 153.749
L330.367 153.749
L330.367 148.046
L330.861 148.046
L330.861 142.343
L350.574 142.343
L350.574 136.641
L351.492 136.641
L351.492 130.938
L362.05 130.938
L362.05 125.235
L362.888 125.235
L362.888 119.532
L367.427 119.532
L367.427 113.829
L369.658 113.829
L369.658 108.126
L375.171 108.126
L375.171 102.423
L375.171 102.423
L375.171 102.423
L511.322 102.423" style="fill:none;stroke:#f5deb3;stroke-linecap:square;"/>
   </g>
   <g id="line2d_6"/>
   <g id="line2d_7">
    <path clip-path="url(#p4b24e7e61f)" d="
M303.885 359.056
L303.885 353.353
L304.315 353.353
L304.315 347.65
L306.122 347.65
L306.122 341.947
L306.677 341.947
L306.677 336.244
L306.987 336.244
L306.987 330.541
L307.253 330.541
L307.253 324.839
L307.932 324.839
L307.932 319.136
L308.258 319.136
L308.258 313.433
L308.546 313.433
L308.546 307.73
L309.557 307.73
L309.557 302.027
L309.613 302.027
L309.613 296.324
L310.449 296.324
L310.449 290.621
L311.837 290.621
L311.837 284.918
L311.99 284.918
L311.99 279.215
L313.808 279.215
L313.808 273.512
L333.857 273.512
L333.857 267.809
L335.692 267.809
L335.692 262.106
L336.189 262.106
L336.189 256.403
L337.175 256.403
L337.175 250.7
L337.291 250.7
L337.291 244.997
L337.92 244.997
L337.92 239.294
L338.12 239.294
L338.12 233.591
L339.747 233.591
L339.747 227.888
L340.119 227.888
L340.119 222.185
L341.004 222.185
L341.004 216.482
L341.087 216.482
L341.087 210.779
L341.184 210.779
L341.184 205.076
L341.238 205.076
L341.238 199.373
L342.701 199.373
L342.701 193.67
L343.44 193.67
L343.44 187.967
L343.67 187.967
L343.67 182.264
L344.873 182.264
L344.873 176.561
L345.038 176.561
L345.038 170.858
L345.551 170.858
L345.551 165.155
L345.683 165.155
L345.683 159.452
L346.127 159.452
L346.127 153.749
L346.725 153.749
L346.725 148.046
L347.541 148.046
L347.541 142.343
L347.743 142.343
L347.743 136.641
L348.752 136.641
L348.752 130.938
L349.09 130.938
L349.09 125.235
L349.34 125.235
L349.34 119.532
L349.934 119.532
L349.934 113.829
L376.883 113.829
L376.883 108.126
L402.171 108.126
L402.171 102.423
L477.05 102.423
L477.05 96.7197
L494.6 96.7197
L494.6 91.0167
L499.515 91.0167
L499.515 85.3138
L506.451 85.3138
L506.451 79.6108
L517.306 79.6108
L517.306 73.9078
L524.239 73.9078" style="fill:none;stroke:#f5deb3;stroke-linecap:square;"/>
   </g>
   <g id="line2d_8">
    <path clip-path="url(#p4b24e7e61f)" d="
M429.694 359.056
L429.694 353.353
L429.763 353.353
L429.763 347.65
L429.816 347.65
L429.816 341.947
L430.27 341.947
L430.27 336.244
L430.285 336.244
L430.285 330.541
L430.315 330.541
L430.315 324.839
L430.381 324.839
L430.381 319.136
L430.383 319.136
L430.383 313.433
L430.401 313.433
L430.401 307.73
L430.494 307.73
L430.494 302.027
L430.545 302.027
L430.545 296.324
L431.005 296.324
L431.005 290.621
L431.006 290.621
L431.006 284.918
L431.191 284.918
L431.191 279.215
L432.317 279.215
L432.317 273.512
L432.317 273.512
L432.317 273.512
L511.322 273.512" style="fill:none;stroke:#f5deb3;stroke-linecap:square;"/>
   </g>
   <g id="line2d_9">
    <path clip-path="url(#p4b24e7e61f)" d="
M302.922 359.056
L302.922 353.353
L305.201 353.353
L305.201 347.65
L305.339 347.65
L305.339 341.947
L307.16 341.947
L307.16 336.244
L307.429 336.244
L307.429 330.541
L307.507 330.541
L307.507 324.839
L307.781 324.839
L307.781 319.136
L308.171 319.136
L308.171 313.433
L308.866 313.433
L308.866 307.73
L309.01 307.73
L309.01 302.027
L309.341 302.027
L309.341 296.324
L310.922 296.324
L310.922 290.621
L311.315 290.621
L311.315 284.918
L312.294 284.918
L312.294 279.215
L314.488 279.215
L314.488 273.512
L315.382 273.512
L315.382 267.809
L330.334 267.809
L330.334 262.106
L330.552 262.106
L330.552 256.403
L331.07 256.403
L331.07 250.7
L331.074 250.7
L331.074 244.997
L331.671 244.997
L331.671 239.294
L331.76 239.294
L331.76 233.591
L332.822 233.591
L332.822 227.888
L333.209 227.888
L333.209 222.185
L333.288 222.185
L333.288 216.482
L333.364 216.482
L333.364 210.779
L333.408 210.779
L333.408 205.076
L333.552 205.076
L333.552 199.373
L333.799 199.373
L333.799 193.67
L334.342 193.67
L334.342 187.967
L334.465 187.967
L334.465 182.264
L335.025 182.264
L335.025 176.561
L335.481 176.561
L335.481 170.858
L335.945 170.858
L335.945 165.155
L335.977 165.155
L335.977 159.452
L336.367 159.452
L336.367 153.749
L336.892 153.749
L336.892 148.046
L338.036 148.046
L338.036 142.343
L338.55 142.343
L338.55 136.641
L339.482 136.641
L339.482 130.938
L340.013 130.938
L340.013 125.235
L341.878 125.235
L341.878 119.532
L342.659 119.532
L342.659 113.829
L342.695 113.829
L342.695 108.126
L349.46 108.126
L349.46 102.423
L351.416 102.423
L351.416 96.7197
L352.793 96.7197
L352.793 91.0167
L353.018 91.0167
L353.018 85.3138
L353.312 85.3138
L353.312 79.6108
L353.542 79.6108
L353.542 73.9078
L354.994 73.9078
L354.994 68.2049
L355.574 68.2049
L355.574 62.5019
L356.634 62.5019
L356.634 56.7989
L357.45 56.7989
L357.45 51.0959
L358.698 51.0959
L358.698 45.393
L359.83 45.393
L359.83 39.69
L360.088 39.69
L360.088 33.987
L360.829 33.987
L360.829 28.2841
L360.938 28.2841
L360.938 22.5811
L367.784 22.5811
L367.784 16.8781
L367.784 16.8781
L367.784 16.8781
L511.322 16.8781" style="fill:none;stroke:#f5deb3;stroke-linecap:square;"/>
   </g>
   <g id="line2d_10">
    <path clip-path="url(#p4b24e7e61f)" d="
M498.597 359.056
L498.597 353.353
L499.01 353.353
L499.01 347.65
L499.551 347.65
L499.551 341.947
L501.57 341.947
L501.57 336.244
L501.698 336.244
L501.698 330.541
L502.563 330.541
L502.563 324.839
L502.694 324.839
L502.694 319.136
L503.952 319.136
L503.952 313.433
L509.532 313.433
L509.532 307.73
L509.651 307.73
L509.651 302.027
L509.651 302.027
L509.651 302.027
L511.322 302.027" style="fill:none;stroke:#f5deb3;stroke-linecap:square;"/>
   </g>
   <g id="line2d_11">
    <path clip-path="url(#p4b24e7e61f)" d="
M313.523 359.056
L313.523 353.353
L316.615 353.353
L316.615 347.65
L320.99 347.65
L320.99 341.947
L327.536 341.947
L327.536 336.244
L328.478 336.244
L328.478 330.541
L328.969 330.541
L328.969 324.839
L332.278 324.839
L332.278 319.136
L332.329 319.136
L332.329 313.433
L332.876 313.433
L332.876 307.73
L343.669 307.73
L343.669 302.027
L344.218 302.027
L344.218 296.324
L347.09 296.324
L347.09 290.621
L348.863 290.621
L348.863 284.918
L362.086 284.918
L362.086 279.215
L445.688 279.215
L445.688 273.512
L468.864 273.512
L468.864 267.809
L469.962 267.809
L469.962 262.106
L472.224 262.106
L472.224 256.403
L472.373 256.403
L472.373 250.7
L472.413 250.7
L472.413 244.997
L472.632 244.997
L472.632 239.294
L472.77 239.294
L472.77 233.591
L472.804 233.591
L472.804 227.888
L472.837 227.888
L472.837 222.185
L472.936 222.185
L472.936 216.482
L472.957 216.482
L472.957 210.779
L472.966 210.779
L472.966 205.076
L472.977 205.076
L472.977 199.373
L473.006 199.373
L473.006 193.67
L473.009 193.67
L473.009 187.967
L473.033 187.967
L473.033 182.264
L473.055 182.264
L473.055 176.561
L473.076 176.561
L473.076 170.858
L473.079 170.858
L473.079 165.155
L473.104 165.155
L473.104 159.452
L473.177 159.452
L473.177 153.749
L473.333 153.749
L473.333 148.046
L473.443 148.046
L473.443 142.343
L473.668 142.343
L473.668 136.641
L501.236 136.641
L501.236 130.938
L504.468 130.938
L504.468 125.235
L505.041 125.235
L505.041 119.532
L505.171 119.532
L505.171 113.829
L508.978 113.829
L508.978 108.126
L524.239 108.126" style="fill:none;stroke:#f5deb3;stroke-linecap:square;"/>
   </g>
   <g id="line2d_12">
    <path clip-path="url(#p4b24e7e61f)" d="
M271.673 359.056
L271.673 353.353
L276.479 353.353
L276.479 347.65
L276.652 347.65
L276.652 341.947
L278.179 341.947
L278.179 336.244
L278.51 336.244
L278.51 330.541
L279.165 330.541
L279.165 324.839
L279.648 324.839
L279.648 319.136
L279.648 319.136
L279.648 313.433
L279.967 313.433
L279.967 307.73
L279.967 307.73
L279.967 302.027
L280.126 302.027
L280.126 296.324
L280.284 296.324
L280.284 290.621
L280.441 290.621
L280.441 284.918
L280.598 284.918
L280.598 279.215
L280.598 279.215
L280.598 273.512
L281.064 273.512
L281.064 267.809
L281.064 267.809
L281.064 262.106
L281.064 262.106
L281.064 256.403
L281.524 256.403
L281.524 250.7
L281.524 250.7
L281.524 244.997
L281.524 244.997
L281.524 239.294
L281.98 239.294
L281.98 233.591
L282.13 233.591
L282.13 227.888
L284.745 227.888
L284.745 222.185
L289.248 222.185
L289.248 216.482
L305.793 216.482
L305.793 210.779
L308.549 210.779
L308.549 205.076
L308.927 205.076
L308.927 199.373
L309.376 199.373
L309.376 193.67
L318.954 193.67
L318.954 187.967
L318.954 187.967
L318.954 187.967
L511.322 187.967" style="fill:none;stroke:#f5deb3;stroke-linecap:square;"/>
   </g>
   <g id="line2d_13"/>
   <g id="line2d_14"/>
   <g id="line2d_15"/>
   <g id="line2d_16">
    <path clip-path="url(#p4b24e7e61f)" d="
M413.149 359.056
L413.149 353.353
L414.007 353.353
L414.007 347.65
L419.845 347.65
L419.845 341.947
L439.615 341.947
L439.615 336.244
L439.704 336.244
L439.704 330.541
L440.061 330.541
L440.061 324.839
L453.992 324.839
L453.992 319.136
L457.396 319.136
L457.396 313.433
L458.862 313.433
L458.862 307.73
L463.272 307.73
L463.272 302.027
L465.628 302.027
L465.628 296.324
L467.602 296.324
L467.602 290.621
L477.1 290.621
L477.1 284.918
L485.096 284.918
L485.096 279.215
L485.403 279.215
L485.403 273.512
L513.993 273.512
L513.993 267.809
L517.896 267.809
L517.896 262.106
L517.96 262.106
L517.96 256.403
L519.364 256.403
L519.364 250.7
L521.101 250.7
L521.101 244.997
L521.519 244.997
L521.519 239.294
L521.802 239.294
L521.802 233.591
L523.768 233.591
L523.768 227.888
L524.239 227.888" style="fill:none;stroke:#f5deb3;stroke-linecap:square;"/>
   </g>
   <g id="line2d_17">
    <path clip-path="url(#p4b24e7e61f)" d="
M415.356 359.056
L415.356 353.353
L417.889 353.353
L417.889 347.65
L419.841 347.65
L419.841 341.947
L420.061 341.947
L420.061 336.244
L423.99 336.244
L423.99 330.541
L424.878 330.541
L424.878 324.839
L424.936 324.839
L424.936 319.136
L429.789 319.136
L429.789 313.433
L430.487 313.433
L430.487 307.73
L430.565 307.73
L430.565 302.027
L432.365 302.027
L432.365 296.324
L434.433 296.324
L434.433 290.621
L434.77 290.621
L434.77 284.918
L442.067 284.918
L442.067 279.215
L447.519 279.215
L447.519 273.512
L471.207 273.512
L471.207 267.809
L477.465 267.809
L477.465 262.106
L479.339 262.106
L479.339 256.403
L480.47 256.403
L480.47 250.7
L481.484 250.7
L481.484 244.997
L481.83 244.997
L481.83 239.294
L482.83 239.294
L482.83 233.591
L483.179 233.591
L483.179 227.888
L484.157 227.888
L484.157 222.185
L484.371 222.185
L484.371 216.482
L484.371 216.482
L484.371 216.482
L511.322 216.482" style="fill:none;stroke:#f5deb3;stroke-linecap:square;"/>
   </g>
   <g id="line2d_18">
    <path clip-path="url(#p4b24e7e61f)" d="
M247.945 359.056
L247.945 353.353
L256.749 353.353
L256.749 347.65
L256.9 347.65
L256.9 341.947
L257.486 341.947
L257.486 336.244
L257.701 336.244
L257.701 330.541
L260.287 330.541
L260.287 324.839
L260.374 324.839
L260.374 319.136
L260.462 319.136
L260.462 313.433
L260.512 313.433
L260.512 307.73
L260.922 307.73
L260.922 302.027
L261.23 302.027
L261.23 296.324
L261.353 296.324
L261.353 290.621
L261.389 290.621
L261.389 284.918
L261.572 284.918
L261.572 279.215
L261.875 279.215
L261.875 273.512
L262.019 273.512
L262.019 267.809
L263.086 267.809
L263.086 262.106
L263.412 262.106
L263.412 256.403
L263.436 256.403
L263.436 250.7
L263.493 250.7
L263.493 244.997
L264.329 244.997
L264.329 239.294
L266.445 239.294
L266.445 233.591
L266.712 233.591
L266.712 227.888
L271.504 227.888
L271.504 222.185
L285.177 222.185
L285.177 216.482
L289.498 216.482
L289.498 210.779
L291.171 210.779
L291.171 205.076
L292.134 205.076
L292.134 199.373
L293.736 199.373
L293.736 193.67
L294.09 193.67
L294.09 187.967
L294.773 187.967
L294.773 182.264
L295.184 182.264
L295.184 176.561
L296.133 176.561
L296.133 170.858
L297.864 170.858
L297.864 165.155
L302.135 165.155
L302.135 159.452
L303.877 159.452
L303.877 153.749
L306.456 153.749
L306.456 148.046
L306.881 148.046
L306.881 142.343
L310.1 142.343
L310.1 136.641
L310.418 136.641
L310.418 130.938
L312.145 130.938
L312.145 125.235
L318.312 125.235
L318.312 119.532
L329.567 119.532
L329.567 113.829
L331.509 113.829
L331.509 108.126
L338.157 108.126
L338.157 102.423
L338.157 102.423
L338.157 102.423
L511.322 102.423" style="fill:none;stroke:#f5deb3;stroke-linecap:square;"/>
   </g>
   <g id="line2d_19"/>
   <g id="line2d_20">
    <path clip-path="url(#p4b24e7e61f)" d="
M326.511 359.056
L326.511 353.353
L330.311 353.353
L330.311 347.65
L334.454 347.65
L334.454 341.947
L338.448 341.947
L338.448 336.244
L340.34 336.244
L340.34 330.541
L341.786 330.541
L341.786 324.839
L343.629 324.839
L343.629 319.136
L344.453 319.136
L344.453 313.433
L345.76 313.433
L345.76 307.73
L346.12 307.73
L346.12 302.027
L346.331 302.027
L346.331 296.324
L349.403 296.324
L349.403 290.621
L349.455 290.621
L349.455 284.918
L350.997 284.918
L350.997 279.215
L351.534 279.215
L351.534 273.512
L352.509 273.512
L352.509 267.809
L354.444 267.809
L354.444 262.106
L354.584 262.106
L354.584 256.403
L356.701 256.403
L356.701 250.7
L359.624 250.7
L359.624 244.997
L364.824 244.997
L364.824 239.294
L367.112 239.294
L367.112 233.591
L378.045 233.591
L378.045 227.888
L387.486 227.888
L387.486 222.185
L390.758 222.185
L390.758 216.482
L390.81 216.482
L390.81 210.779
L392.378 210.779
L392.378 205.076
L395.872 205.076
L395.872 199.373
L424.968 199.373
L424.968 193.67
L425.737 193.67
L425.737 187.967
L425.737 187.967
L425.737 187.967
L511.322 187.967" style="fill:none;stroke:#f5deb3;stroke-linecap:square;"/>
   </g>
   <g id="line2d_21"/>
   <g id="line2d_22">
    <path clip-path="url(#p4b24e7e61f)" d="
M330.826 359.056
L330.826 353.353
L331.06 353.353
L331.06 347.65
L332.331 347.65
L332.331 341.947
L333.192 341.947
L333.192 336.244
L333.571 336.244
L333.571 330.541
L333.655 330.541
L333.655 324.839
L334.086 324.839
L334.086 319.136
L334.461 319.136
L334.461 313.433
L334.994 313.433
L334.994 307.73
L335.38 307.73
L335.38 302.027
L336.233 302.027
L336.233 296.324
L337.102 296.324
L337.102 290.621
L337.194 290.621
L337.194 284.918
L338.391 284.918
L338.391 279.215
L338.675 279.215
L338.675 273.512
L339.221 273.512
L339.221 267.809
L339.248 267.809
L339.248 262.106
L339.492 262.106
L339.492 256.403
L340.292 256.403
L340.292 250.7
L341.123 250.7
L341.123 244.997
L341.504 244.997
L341.504 239.294
L341.915 239.294
L341.915 233.591
L342.574 233.591
L342.574 227.888
L344.137 227.888
L344.137 222.185
L345.219 222.185
L345.219 216.482
L346.106 216.482
L346.106 210.779
L346.11 210.779
L346.11 205.076
L349.166 205.076
L349.166 199.373
L350.112 199.373
L350.112 193.67
L351.271 193.67
L351.271 187.967
L365.393 187.967
L365.393 182.264
L368.251 182.264
L368.251 176.561
L369.087 176.561
L369.087 170.858
L369.627 170.858
L369.627 165.155
L371.207 165.155
L371.207 159.452
L371.979 159.452
L371.979 153.749
L372.565 153.749
L372.565 148.046
L385.259 148.046
L385.259 142.343
L387.514 142.343
L387.514 136.641
L392.677 136.641
L392.677 130.938
L396.912 130.938
L396.912 125.235
L404.955 125.235
L404.955 119.532
L410.919 119.532
L410.919 113.829
L418.4 113.829
L418.4 108.126
L418.4 108.126
L418.4 108.126
L511.322 108.126" style="fill:none;stroke:#f5deb3;stroke-linecap:square;"/>
   </g>
   <g id="line2d_23">
    <path clip-path="url(#p4b24e7e61f)" d="
M464.699 359.056
L464.699 353.353
L474.072 353.353
L474.072 347.65
L487.039 347.65
L487.039 341.947
L491.34 341.947
L491.34 336.244
L499.072 336.244
L499.072 330.541
L505.11 330.541
L505.11 324.839
L505.11 324.839
L505.11 324.839
L511.322 324.839" style="fill:none;stroke:#f5deb3;stroke-linecap:square;"/>
   </g>
   <g id="line2d_24">
    <path clip-path="url(#p4b24e7e61f)" d="
M313.046 359.056
L313.046 353.353
L321.721 353.353
L321.721 347.65
L323.25 347.65
L323.25 341.947
L325.091 341.947
L325.091 336.244
L325.126 336.244
L325.126 330.541
L325.856 330.541
L325.856 324.839
L326.59 324.839
L326.59 319.136
L329.983 319.136
L329.983 313.433
L330.812 313.433
L330.812 307.73
L331.106 307.73
L331.106 302.027
L332.111 302.027
L332.111 296.324
L332.532 296.324
L332.532 290.621
L332.548 290.621
L332.548 284.918
L334.342 284.918
L334.342 279.215
L334.508 279.215
L334.508 273.512
L389.86 273.512
L389.86 267.809
L390.08 267.809
L390.08 262.106
L390.498 262.106
L390.498 256.403
L391.867 256.403
L391.867 250.7
L391.892 250.7
L391.892 244.997
L392.249 244.997
L392.249 239.294
L392.731 239.294
L392.731 233.591
L392.922 233.591
L392.922 227.888
L393.053 227.888
L393.053 222.185
L393.116 222.185
L393.116 216.482
L393.714 216.482
L393.714 210.779
L394.007 210.779
L394.007 205.076
L394.012 205.076
L394.012 199.373
L394.105 199.373
L394.105 193.67
L394.212 193.67
L394.212 187.967
L394.218 187.967
L394.218 182.264
L394.406 182.264
L394.406 176.561
L394.463 176.561
L394.463 170.858
L394.686 170.858
L394.686 165.155
L394.834 165.155
L394.834 159.452
L394.868 159.452
L394.868 153.749
L394.966 153.749
L394.966 148.046
L395.392 148.046
L395.392 142.343
L395.604 142.343
L395.604 136.641
L396.395 136.641
L396.395 130.938
L396.925 130.938
L396.925 125.235
L397.306 125.235
L397.306 119.532
L397.819 119.532
L397.819 113.829
L399.631 113.829
L399.631 108.126
L400.945 108.126
L400.945 102.423
L406.127 102.423
L406.127 96.7197
L408.454 96.7197
L408.454 91.0167
L409.153 91.0167
L409.153 85.3138
L409.388 85.3138
L409.388 79.6108
L409.827 79.6108
L409.827 73.9078
L409.987 73.9078
L409.987 68.2049
L411.027 68.2049
L411.027 62.5019
L412.105 62.5019
L412.105 56.7989
L412.164 56.7989
L412.164 51.0959
L412.601 51.0959
L412.601 45.393
L412.884 45.393
L412.884 39.69
L413.502 39.69
L413.502 33.987
L414.049 33.987
L414.049 28.2841
L414.52 28.2841
L414.52 22.5811
L415.379 22.5811
L415.379 16.8781
L415.379 16.8781
L415.379 16.8781
L511.322 16.8781" style="fill:none;stroke:#f5deb3;stroke-linecap:square;"/>
   </g>
   <g id="line2d_25">
    <path clip-path="url(#p4b24e7e61f)" d="
M435.693 359.056
L435.693 353.353
L436.239 353.353
L436.239 347.65
L436.413 347.65
L436.413 341.947
L436.414 341.947
L436.414 336.244
L437.251 336.244
L437.251 330.541
L437.538 330.541
L437.538 324.839
L437.692 324.839
L437.692 319.136
L437.978 319.136
L437.978 313.433
L438.45 313.433
L438.45 307.73
L438.666 307.73
L438.666 302.027
L438.85 302.027
L438.85 296.324
L439.22 296.324
L439.22 290.621
L439.494 290.621
L439.494 284.918
L440.023 284.918
L440.023 279.215
L441.227 279.215
L441.227 273.512
L441.227 273.512
L441.227 273.512
L511.322 273.512" style="fill:none;stroke:#f5deb3;stroke-linecap:square;"/>
   </g>
   <g id="line2d_26">
    <path clip-path="url(#p4b24e7e61f)" d="
M345.318 359.056
L345.318 353.353
L349.123 353.353
L349.123 347.65
L350.418 347.65
L350.418 341.947
L351.478 341.947
L351.478 336.244
L351.861 336.244
L351.861 330.541
L352.713 330.541
L352.713 324.839
L352.906 324.839
L352.906 319.136
L354.165 319.136
L354.165 313.433
L355.98 313.433
L355.98 307.73
L356.336 307.73
L356.336 302.027
L357.988 302.027
L357.988 296.324
L359.206 296.324
L359.206 290.621
L360.854 290.621
L360.854 284.918
L361.058 284.918
L361.058 279.215
L362.724 279.215
L362.724 273.512
L362.74 273.512
L362.74 267.809
L363.81 267.809
L363.81 262.106
L364.554 262.106
L364.554 256.403
L365.483 256.403
L365.483 250.7
L368.768 250.7
L368.768 244.997
L369.507 244.997
L369.507 239.294
L370.056 239.294
L370.056 233.591
L370.102 233.591
L370.102 227.888
L370.864 227.888
L370.864 222.185
L370.94 222.185
L370.94 216.482
L371.648 216.482
L371.648 210.779
L371.69 210.779
L371.69 205.076
L372.194 205.076
L372.194 199.373
L372.412 199.373
L372.412 193.67
L372.988 193.67
L372.988 187.967
L374.166 187.967
L374.166 182.264
L374.198 182.264
L374.198 176.561
L374.26 176.561
L374.26 170.858
L374.294 170.858
L374.294 165.155
L374.425 165.155
L374.425 159.452
L375.071 159.452
L375.071 153.749
L375.473 153.749
L375.473 148.046
L376.281 148.046
L376.281 142.343
L379.777 142.343
L379.777 136.641
L414.49 136.641
L414.49 130.938
L425.076 130.938
L425.076 125.235
L425.75 125.235
L425.75 119.532
L426.267 119.532
L426.267 113.829
L429.747 113.829
L429.747 108.126
L434.227 108.126
L434.227 102.423
L459.248 102.423
L459.248 96.7197
L465.839 96.7197
L465.839 91.0167
L482.731 91.0167
L482.731 85.3138
L498.977 85.3138
L498.977 79.6108
L498.977 79.6108
L498.977 79.6108
L511.322 79.6108" style="fill:none;stroke:#f5deb3;stroke-linecap:square;"/>
   </g>
   <g id="line2d_27"/>
   <g id="line2d_28">
    <path clip-path="url(#p4b24e7e61f)" d="
M290.126 359.056
L290.126 353.353
L292.183 353.353
L292.183 347.65
L293.138 347.65
L293.138 341.947
L293.625 341.947
L293.625 336.244
L295.706 336.244
L295.706 330.541
L295.908 330.541
L295.908 324.839
L296.282 324.839
L296.282 319.136
L296.638 319.136
L296.638 313.433
L346.439 313.433
L346.439 307.73
L346.497 307.73
L346.497 302.027
L346.682 302.027
L346.682 296.324
L346.801 296.324
L346.801 290.621
L347.17 290.621
L347.17 284.918
L357.386 284.918
L357.386 279.215
L359.035 279.215
L359.035 273.512
L359.308 273.512
L359.308 267.809
L359.39 267.809
L359.39 262.106
L359.514 262.106
L359.514 256.403
L359.931 256.403
L359.931 250.7
L360.532 250.7
L360.532 244.997
L361.029 244.997
L361.029 239.294
L361.241 239.294
L361.241 233.591
L361.783 233.591
L361.783 227.888
L362.227 227.888
L362.227 222.185
L362.307 222.185
L362.307 216.482
L362.342 216.482
L362.342 210.779
L362.93 210.779
L362.93 205.076
L363.215 205.076
L363.215 199.373
L363.254 199.373
L363.254 193.67
L363.421 193.67
L363.421 187.967
L364.188 187.967
L364.188 182.264
L364.467 182.264
L364.467 176.561
L364.582 176.561
L364.582 170.858
L364.649 170.858
L364.649 165.155
L364.675 165.155
L364.675 159.452
L365.481 159.452
L365.481 153.749
L365.836 153.749
L365.836 148.046
L365.892 148.046
L365.892 142.343
L365.952 142.343
L365.952 136.641
L366.048 136.641
L366.048 130.938
L366.155 130.938
L366.155 125.235
L366.596 125.235
L366.596 119.532
L368.127 119.532
L368.127 113.829
L369.532 113.829
L369.532 108.126
L369.684 108.126
L369.684 102.423
L371.56 102.423
L371.56 96.7197
L371.639 96.7197
L371.639 91.0167
L371.897 91.0167
L371.897 85.3138
L372.499 85.3138
L372.499 79.6108
L373.562 79.6108
L373.562 73.9078
L374.137 73.9078
L374.137 68.2049
L375.131 68.2049
L375.131 62.5019
L375.467 62.5019
L375.467 56.7989
L376.422 56.7989
L376.422 51.0959
L377.595 51.0959
L377.595 45.393
L380.367 45.393
L380.367 39.69
L381.717 39.69
L381.717 33.987
L382.121 33.987
L382.121 28.2841
L401.181 28.2841
L401.181 22.5811
L402.6 22.5811
L402.6 16.8781
L402.6 16.8781
L402.6 16.8781
L511.322 16.8781" style="fill:none;stroke:#f5deb3;stroke-linecap:square;"/>
   </g>
   <g id="line2d_29">
    <path clip-path="url(#p4b24e7e61f)" d="
M254.129 359.056
L254.129 353.353
L254.129 353.353
L254.129 347.65
L254.129 347.65
L254.129 341.947
L265.346 341.947
L265.346 336.244
L265.346 336.244
L265.346 330.541
L265.346 330.541
L265.346 324.839
L283.542 324.839
L283.542 319.136
L283.542 319.136
L283.542 313.433
L283.542 313.433
L283.542 307.73
L284.199 307.73
L284.199 302.027
L284.199 302.027
L284.199 296.324
L284.199 296.324
L284.199 290.621
L295.948 290.621
L295.948 284.918
L295.948 284.918
L295.948 279.215
L295.948 279.215
L295.948 273.512
L297.485 273.512
L297.485 267.809
L297.485 267.809
L297.485 262.106
L297.485 262.106
L297.485 256.403
L297.811 256.403
L297.811 250.7
L297.811 250.7
L297.811 244.997
L297.811 244.997
L297.811 239.294
L298.899 239.294
L298.899 233.591
L298.899 233.591
L298.899 227.888
L298.899 227.888
L298.899 222.185
L298.954 222.185
L298.954 216.482
L298.954 216.482
L298.954 210.779
L298.954 210.779
L298.954 205.076
L318.974 205.076
L318.974 199.373
L318.974 199.373
L318.974 193.67
L318.974 193.67
L318.974 187.967
L318.974 187.967
L318.974 187.967
L511.322 187.967" style="fill:none;stroke:#f5deb3;stroke-linecap:square;"/>
   </g>
   <g id="line2d_30"/>
   <g id="line2d_31">
    <path clip-path="url(#p4b24e7e61f)" d="
M344.684 359.056
L344.684 353.353
L348.483 353.353
L348.483 347.65
L355.553 347.65
L355.553 341.947
L357.444 341.947
L357.444 336.244
L359.638 336.244
L359.638 330.541
L360.784 330.541
L360.784 324.839
L362.622 324.839
L362.622 319.136
L363.509 319.136
L363.509 313.433
L364.205 313.433
L364.205 307.73
L368.29 307.73
L368.29 302.027
L374.444 302.027
L374.444 296.324
L374.444 296.324
L374.444 290.621
L375.1 290.621
L375.1 284.918
L376.88 284.918
L376.88 279.215
L378.701 279.215
L378.701 273.512
L379.984 273.512
L379.984 267.809
L383.281 267.809
L383.281 262.106
L385.928 262.106
L385.928 256.403
L395.166 256.403
L395.166 250.7
L398.15 250.7
L398.15 244.997
L404.979 244.997
L404.979 239.294
L407.823 239.294
L407.823 233.591
L408.926 233.591
L408.926 227.888
L409.519 227.888
L409.519 222.185
L410.419 222.185
L410.419 216.482
L410.628 216.482
L410.628 210.779
L413 210.779
L413 205.076
L418.809 205.076
L418.809 199.373
L422.312 199.373
L422.312 193.67
L423.749 193.67
L423.749 187.967
L427.224 187.967
L427.224 182.264
L427.393 182.264
L427.393 176.561
L433.39 176.561
L433.39 170.858
L434.922 170.858
L434.922 165.155
L435.06 165.155
L435.06 159.452
L442.157 159.452
L442.157 153.749
L443.25 153.749
L443.25 148.046
L446.909 148.046
L446.909 142.343
L482.482 142.343
L482.482 136.641
L484.624 136.641
L484.624 130.938
L487.394 130.938
L487.394 125.235
L491.204 125.235
L491.204 119.532
L502.407 119.532
L502.407 113.829
L502.646 113.829
L502.646 108.126
L502.689 108.126
L502.689 102.423
L502.921 102.423
L502.921 96.7197
L502.921 96.7197
L502.921 96.7197
L511.322 96.7197" style="fill:none;stroke:#000000;stroke-linecap:square;"/>
   </g>
   <g id="line2d_32"/>
   <g id="line2d_33">
    <path clip-path="url(#p4b24e7e61f)" d="
M445.769 359.056
L445.769 353.353
L447.737 353.353
L447.737 347.65
L451.469 347.65
L451.469 341.947
L455.922 341.947
L455.922 336.244
L456.564 336.244
L456.564 330.541
L456.739 330.541
L456.739 324.839
L456.755 324.839
L456.755 319.136
L462.61 319.136
L462.61 313.433
L465.204 313.433
L465.204 307.73
L467.093 307.73
L467.093 302.027
L468.883 302.027
L468.883 296.324
L469.481 296.324
L469.481 290.621
L471.87 290.621
L471.87 284.918
L474.792 284.918
L474.792 279.215
L476.18 279.215
L476.18 273.512
L480.729 273.512
L480.729 267.809
L493.017 267.809
L493.017 262.106
L493.017 262.106
L493.017 262.106
L511.322 262.106" style="fill:none;stroke:#00bfbf;stroke-linecap:square;"/>
   </g>
   <g id="line2d_34"/>
   <g id="line2d_35">
    <path clip-path="url(#p4b24e7e61f)" d="
M493.689 359.056
L493.689 353.353
L494.589 353.353
L494.589 347.65
L495.498 347.65
L495.498 341.947
L498.015 341.947
L498.015 336.244
L498.271 336.244
L498.271 330.541
L498.303 330.541
L498.303 324.839
L499.568 324.839
L499.568 319.136
L501.188 319.136
L501.188 313.433
L503.151 313.433
L503.151 307.73
L504.764 307.73
L504.764 302.027
L505.216 302.027
L505.216 296.324
L506.237 296.324
L506.237 290.621
L506.995 290.621
L506.995 284.918
L507.894 284.918
L507.894 279.215
L507.894 279.215
L507.894 279.215
L511.322 279.215" style="fill:none;stroke:#bf00bf;stroke-linecap:square;"/>
   </g>
   <g id="line2d_36"/>
   <g id="line2d_37"/>
   <g id="line2d_38">
    <path clip-path="url(#p4b24e7e61f)" d="
M511.322 359.056
L511.322 13.4563" style="fill:none;stroke:#000000;stroke-linecap:square;"/>
   </g>
   <g id="patch_3">
    <path d="
M64.9219 13.4563
L511.322 13.4563" style="fill:none;stroke:#000000;stroke-linecap:square;stroke-linejoin:miter;"/>
   </g>
   <g id="patch_4">
    <path d="
M511.322 359.056
L511.322 13.4563" style="fill:none;stroke:#000000;stroke-linecap:square;stroke-linejoin:miter;"/>
   </g>
   <g id="patch_5">
    <path d="
M64.9219 359.056
L511.322 359.056" style="fill:none;stroke:#000000;stroke-linecap:square;stroke-linejoin:miter;"/>
   </g>
   <g id="patch_6">
    <path d="
M64.9219 359.056
L64.9219 13.4563" style="fill:none;stroke:#000000;stroke-linecap:square;stroke-linejoin:miter;"/>
   </g>
   <g id="matplotlib.axis_1">
    <g id="xtick_1">
     <g id="line2d_39">
      <path clip-path="url(#p4b24e7e61f)" d="
M154.202 359.056
L154.202 13.4563" style="fill:none;stroke:#000000;stroke-dasharray:1.000000,3.000000;stroke-dashoffset:0.0;stroke-width:0.5;"/>
     </g>
     <g id="line2d_40">
      <defs>
       <path d="
M0 0
L0 -4" id="m93b0483c22" style="stroke:#000000;stroke-width:0.5;"/>
      </defs>
      <g>
       <use style="stroke:#000000;stroke-width:0.5;" x="154.201875" xlink:href="#m93b0483c22" y="359.056342822"/>
      </g>
     </g>
     <g id="line2d_41">
      <defs>
       <path d="
M0 0
L0 4" id="m741efc42ff" style="stroke:#000000;stroke-width:0.5;"/>
      </defs>
      <g>
       <use style="stroke:#000000;stroke-width:0.5;" x="154.201875" xlink:href="#m741efc42ff" y="13.4563428218"/>
      </g>
     </g>
     <g id="text_1">
      <!-- 1 -->
      <defs>
       <path d="
M12.4062 8.29688
L28.5156 8.29688
L28.5156 63.9219
L10.9844 60.4062
L10.9844 69.3906
L28.4219 72.9062
L38.2812 72.9062
L38.2812 8.29688
L54.3906 8.29688
L54.3906 0
L12.4062 0
z
" id="BitstreamVeraSans-Roman-31"/>
      </defs>
      <g transform="translate(149.86125 378.253217822)scale(0.2 -0.2)">
       <use xlink:href="#BitstreamVeraSans-Roman-31"/>
      </g>
     </g>
    </g>
    <g id="xtick_2">
     <g id="line2d_42">
      <path clip-path="url(#p4b24e7e61f)" d="
M243.482 359.056
L243.482 13.4563" style="fill:none;stroke:#000000;stroke-dasharray:1.000000,3.000000;stroke-dashoffset:0.0;stroke-width:0.5;"/>
     </g>
     <g id="line2d_43">
      <g>
       <use style="stroke:#000000;stroke-width:0.5;" x="243.481875" xlink:href="#m93b0483c22" y="359.056342822"/>
      </g>
     </g>
     <g id="line2d_44">
      <g>
       <use style="stroke:#000000;stroke-width:0.5;" x="243.481875" xlink:href="#m741efc42ff" y="13.4563428218"/>
      </g>
     </g>
     <g id="text_2">
      <!-- 2 -->
      <defs>
       <path d="
M19.1875 8.29688
L53.6094 8.29688
L53.6094 0
L7.32812 0
L7.32812 8.29688
Q12.9375 14.1094 22.625 23.8906
Q32.3281 33.6875 34.8125 36.5312
Q39.5469 41.8438 41.4219 45.5312
Q43.3125 49.2188 43.3125 52.7812
Q43.3125 58.5938 39.2344 62.25
Q35.1562 65.9219 28.6094 65.9219
Q23.9688 65.9219 18.8125 64.3125
Q13.6719 62.7031 7.8125 59.4219
L7.8125 69.3906
Q13.7656 71.7812 18.9375 73
Q24.125 74.2188 28.4219 74.2188
Q39.75 74.2188 46.4844 68.5469
Q53.2188 62.8906 53.2188 53.4219
Q53.2188 48.9219 51.5312 44.8906
Q49.8594 40.875 45.4062 35.4062
Q44.1875 33.9844 37.6406 27.2188
Q31.1094 20.4531 19.1875 8.29688" id="BitstreamVeraSans-Roman-32"/>
      </defs>
      <g transform="translate(238.85375 378.253217822)scale(0.2 -0.2)">
       <use xlink:href="#BitstreamVeraSans-Roman-32"/>
      </g>
     </g>
    </g>
    <g id="xtick_3">
     <g id="line2d_45">
      <path clip-path="url(#p4b24e7e61f)" d="
M332.762 359.056
L332.762 13.4563" style="fill:none;stroke:#000000;stroke-dasharray:1.000000,3.000000;stroke-dashoffset:0.0;stroke-width:0.5;"/>
     </g>
     <g id="line2d_46">
      <g>
       <use style="stroke:#000000;stroke-width:0.5;" x="332.761875" xlink:href="#m93b0483c22" y="359.056342822"/>
      </g>
     </g>
     <g id="line2d_47">
      <g>
       <use style="stroke:#000000;stroke-width:0.5;" x="332.761875" xlink:href="#m741efc42ff" y="13.4563428218"/>
      </g>
     </g>
     <g id="text_3">
      <!-- 3 -->
      <defs>
       <path d="
M40.5781 39.3125
Q47.6562 37.7969 51.625 33
Q55.6094 28.2188 55.6094 21.1875
Q55.6094 10.4062 48.1875 4.48438
Q40.7656 -1.42188 27.0938 -1.42188
Q22.5156 -1.42188 17.6562 -0.515625
Q12.7969 0.390625 7.625 2.20312
L7.625 11.7188
Q11.7188 9.32812 16.5938 8.10938
Q21.4844 6.89062 26.8125 6.89062
Q36.0781 6.89062 40.9375 10.5469
Q45.7969 14.2031 45.7969 21.1875
Q45.7969 27.6406 41.2812 31.2656
Q36.7656 34.9062 28.7188 34.9062
L20.2188 34.9062
L20.2188 43.0156
L29.1094 43.0156
Q36.375 43.0156 40.2344 45.9219
Q44.0938 48.8281 44.0938 54.2969
Q44.0938 59.9062 40.1094 62.9062
Q36.1406 65.9219 28.7188 65.9219
Q24.6562 65.9219 20.0156 65.0312
Q15.375 64.1562 9.8125 62.3125
L9.8125 71.0938
Q15.4375 72.6562 20.3438 73.4375
Q25.25 74.2188 29.5938 74.2188
Q40.8281 74.2188 47.3594 69.1094
Q53.9062 64.0156 53.9062 55.3281
Q53.9062 49.2656 50.4375 45.0938
Q46.9688 40.9219 40.5781 39.3125" id="BitstreamVeraSans-Roman-33"/>
      </defs>
      <g transform="translate(327.9634375 378.253217822)scale(0.2 -0.2)">
       <use xlink:href="#BitstreamVeraSans-Roman-33"/>
      </g>
     </g>
    </g>
    <g id="xtick_4">
     <g id="line2d_48">
      <path clip-path="url(#p4b24e7e61f)" d="
M422.042 359.056
L422.042 13.4563" style="fill:none;stroke:#000000;stroke-dasharray:1.000000,3.000000;stroke-dashoffset:0.0;stroke-width:0.5;"/>
     </g>
     <g id="line2d_49">
      <g>
       <use style="stroke:#000000;stroke-width:0.5;" x="422.041875" xlink:href="#m93b0483c22" y="359.056342822"/>
      </g>
     </g>
     <g id="line2d_50">
      <g>
       <use style="stroke:#000000;stroke-width:0.5;" x="422.041875" xlink:href="#m741efc42ff" y="13.4563428218"/>
      </g>
     </g>
     <g id="text_4">
      <!-- 4 -->
      <defs>
       <path d="
M37.7969 64.3125
L12.8906 25.3906
L37.7969 25.3906
z

M35.2031 72.9062
L47.6094 72.9062
L47.6094 25.3906
L58.0156 25.3906
L58.0156 17.1875
L47.6094 17.1875
L47.6094 0
L37.7969 0
L37.7969 17.1875
L4.89062 17.1875
L4.89062 26.7031
z
" id="BitstreamVeraSans-Roman-34"/>
      </defs>
      <g transform="translate(416.729375 378.253217822)scale(0.2 -0.2)">
       <use xlink:href="#BitstreamVeraSans-Roman-34"/>
      </g>
     </g>
    </g>
    <g id="xtick_5">
     <g id="line2d_51">
      <path clip-path="url(#p4b24e7e61f)" d="
M511.322 359.056
L511.322 13.4563" style="fill:none;stroke:#000000;stroke-dasharray:1.000000,3.000000;stroke-dashoffset:0.0;stroke-width:0.5;"/>
     </g>
     <g id="line2d_52">
      <g>
       <use style="stroke:#000000;stroke-width:0.5;" x="511.321875" xlink:href="#m93b0483c22" y="359.056342822"/>
      </g>
     </g>
     <g id="line2d_53">
      <g>
       <use style="stroke:#000000;stroke-width:0.5;" x="511.321875" xlink:href="#m741efc42ff" y="13.4563428218"/>
      </g>
     </g>
     <g id="text_5">
      <!-- 5 -->
      <defs>
       <path d="
M10.7969 72.9062
L49.5156 72.9062
L49.5156 64.5938
L19.8281 64.5938
L19.8281 46.7344
Q21.9688 47.4688 24.1094 47.8281
Q26.2656 48.1875 28.4219 48.1875
Q40.625 48.1875 47.75 41.5
Q54.8906 34.8125 54.8906 23.3906
Q54.8906 11.625 47.5625 5.09375
Q40.2344 -1.42188 26.9062 -1.42188
Q22.3125 -1.42188 17.5469 -0.640625
Q12.7969 0.140625 7.71875 1.70312
L7.71875 11.625
Q12.1094 9.23438 16.7969 8.0625
Q21.4844 6.89062 26.7031 6.89062
Q35.1562 6.89062 40.0781 11.3281
Q45.0156 15.7656 45.0156 23.3906
Q45.0156 31 40.0781 35.4375
Q35.1562 39.8906 26.7031 39.8906
Q22.75 39.8906 18.8125 39.0156
Q14.8906 38.1406 10.7969 36.2812
z
" id="BitstreamVeraSans-Roman-35"/>
      </defs>
      <g transform="translate(506.6046875 378.253217822)scale(0.2 -0.2)">
       <use xlink:href="#BitstreamVeraSans-Roman-35"/>
      </g>
     </g>
    </g>
    <g id="xtick_6">
     <g id="line2d_54">
      <defs>
       <path d="
M0 0
L0 -2" id="m177f7580d0" style="stroke:#000000;stroke-width:0.5;"/>
      </defs>
      <g>
       <use style="stroke:#000000;stroke-width:0.5;" x="91.7978330129" xlink:href="#m177f7580d0" y="359.056342822"/>
      </g>
     </g>
     <g id="line2d_55">
      <defs>
       <path d="
M0 0
L0 2" id="m5284c7e2a0" style="stroke:#000000;stroke-width:0.5;"/>
      </defs>
      <g>
       <use style="stroke:#000000;stroke-width:0.5;" x="91.7978330129" xlink:href="#m5284c7e2a0" y="13.4563428218"/>
      </g>
     </g>
    </g>
    <g id="xtick_7">
     <g id="line2d_56">
      <g>
       <use style="stroke:#000000;stroke-width:0.5;" x="107.519260621" xlink:href="#m177f7580d0" y="359.056342822"/>
      </g>
     </g>
     <g id="line2d_57">
      <g>
       <use style="stroke:#000000;stroke-width:0.5;" x="107.519260621" xlink:href="#m5284c7e2a0" y="13.4563428218"/>
      </g>
     </g>
    </g>
    <g id="xtick_8">
     <g id="line2d_58">
      <g>
       <use style="stroke:#000000;stroke-width:0.5;" x="118.673791026" xlink:href="#m177f7580d0" y="359.056342822"/>
      </g>
     </g>
     <g id="line2d_59">
      <g>
       <use style="stroke:#000000;stroke-width:0.5;" x="118.673791026" xlink:href="#m5284c7e2a0" y="13.4563428218"/>
      </g>
     </g>
    </g>
    <g id="xtick_9">
     <g id="line2d_60">
      <g>
       <use style="stroke:#000000;stroke-width:0.5;" x="127.325916987" xlink:href="#m177f7580d0" y="359.056342822"/>
      </g>
     </g>
     <g id="line2d_61">
      <g>
       <use style="stroke:#000000;stroke-width:0.5;" x="127.325916987" xlink:href="#m5284c7e2a0" y="13.4563428218"/>
      </g>
     </g>
    </g>
    <g id="xtick_10">
     <g id="line2d_62">
      <g>
       <use style="stroke:#000000;stroke-width:0.5;" x="134.395218634" xlink:href="#m177f7580d0" y="359.056342822"/>
      </g>
     </g>
     <g id="line2d_63">
      <g>
       <use style="stroke:#000000;stroke-width:0.5;" x="134.395218634" xlink:href="#m5284c7e2a0" y="13.4563428218"/>
      </g>
     </g>
    </g>
    <g id="xtick_11">
     <g id="line2d_64">
      <g>
       <use style="stroke:#000000;stroke-width:0.5;" x="140.372228012" xlink:href="#m177f7580d0" y="359.056342822"/>
      </g>
     </g>
     <g id="line2d_65">
      <g>
       <use style="stroke:#000000;stroke-width:0.5;" x="140.372228012" xlink:href="#m5284c7e2a0" y="13.4563428218"/>
      </g>
     </g>
    </g>
    <g id="xtick_12">
     <g id="line2d_66">
      <g>
       <use style="stroke:#000000;stroke-width:0.5;" x="145.549749039" xlink:href="#m177f7580d0" y="359.056342822"/>
      </g>
     </g>
     <g id="line2d_67">
      <g>
       <use style="stroke:#000000;stroke-width:0.5;" x="145.549749039" xlink:href="#m5284c7e2a0" y="13.4563428218"/>
      </g>
     </g>
    </g>
    <g id="xtick_13">
     <g id="line2d_68">
      <g>
       <use style="stroke:#000000;stroke-width:0.5;" x="150.116646243" xlink:href="#m177f7580d0" y="359.056342822"/>
      </g>
     </g>
     <g id="line2d_69">
      <g>
       <use style="stroke:#000000;stroke-width:0.5;" x="150.116646243" xlink:href="#m5284c7e2a0" y="13.4563428218"/>
      </g>
     </g>
    </g>
    <g id="xtick_14">
     <g id="line2d_70">
      <g>
       <use style="stroke:#000000;stroke-width:0.5;" x="181.077833013" xlink:href="#m177f7580d0" y="359.056342822"/>
      </g>
     </g>
     <g id="line2d_71">
      <g>
       <use style="stroke:#000000;stroke-width:0.5;" x="181.077833013" xlink:href="#m5284c7e2a0" y="13.4563428218"/>
      </g>
     </g>
    </g>
    <g id="xtick_15">
     <g id="line2d_72">
      <g>
       <use style="stroke:#000000;stroke-width:0.5;" x="196.799260621" xlink:href="#m177f7580d0" y="359.056342822"/>
      </g>
     </g>
     <g id="line2d_73">
      <g>
       <use style="stroke:#000000;stroke-width:0.5;" x="196.799260621" xlink:href="#m5284c7e2a0" y="13.4563428218"/>
      </g>
     </g>
    </g>
    <g id="xtick_16">
     <g id="line2d_74">
      <g>
       <use style="stroke:#000000;stroke-width:0.5;" x="207.953791026" xlink:href="#m177f7580d0" y="359.056342822"/>
      </g>
     </g>
     <g id="line2d_75">
      <g>
       <use style="stroke:#000000;stroke-width:0.5;" x="207.953791026" xlink:href="#m5284c7e2a0" y="13.4563428218"/>
      </g>
     </g>
    </g>
    <g id="xtick_17">
     <g id="line2d_76">
      <g>
       <use style="stroke:#000000;stroke-width:0.5;" x="216.605916987" xlink:href="#m177f7580d0" y="359.056342822"/>
      </g>
     </g>
     <g id="line2d_77">
      <g>
       <use style="stroke:#000000;stroke-width:0.5;" x="216.605916987" xlink:href="#m5284c7e2a0" y="13.4563428218"/>
      </g>
     </g>
    </g>
    <g id="xtick_18">
     <g id="line2d_78">
      <g>
       <use style="stroke:#000000;stroke-width:0.5;" x="223.675218634" xlink:href="#m177f7580d0" y="359.056342822"/>
      </g>
     </g>
     <g id="line2d_79">
      <g>
       <use style="stroke:#000000;stroke-width:0.5;" x="223.675218634" xlink:href="#m5284c7e2a0" y="13.4563428218"/>
      </g>
     </g>
    </g>
    <g id="xtick_19">
     <g id="line2d_80">
      <g>
       <use style="stroke:#000000;stroke-width:0.5;" x="229.652228012" xlink:href="#m177f7580d0" y="359.056342822"/>
      </g>
     </g>
     <g id="line2d_81">
      <g>
       <use style="stroke:#000000;stroke-width:0.5;" x="229.652228012" xlink:href="#m5284c7e2a0" y="13.4563428218"/>
      </g>
     </g>
    </g>
    <g id="xtick_20">
     <g id="line2d_82">
      <g>
       <use style="stroke:#000000;stroke-width:0.5;" x="234.829749039" xlink:href="#m177f7580d0" y="359.056342822"/>
      </g>
     </g>
     <g id="line2d_83">
      <g>
       <use style="stroke:#000000;stroke-width:0.5;" x="234.829749039" xlink:href="#m5284c7e2a0" y="13.4563428218"/>
      </g>
     </g>
    </g>
    <g id="xtick_21">
     <g id="line2d_84">
      <g>
       <use style="stroke:#000000;stroke-width:0.5;" x="239.396646243" xlink:href="#m177f7580d0" y="359.056342822"/>
      </g>
     </g>
     <g id="line2d_85">
      <g>
       <use style="stroke:#000000;stroke-width:0.5;" x="239.396646243" xlink:href="#m5284c7e2a0" y="13.4563428218"/>
      </g>
     </g>
    </g>
    <g id="xtick_22">
     <g id="line2d_86">
      <g>
       <use style="stroke:#000000;stroke-width:0.5;" x="270.357833013" xlink:href="#m177f7580d0" y="359.056342822"/>
      </g>
     </g>
     <g id="line2d_87">
      <g>
       <use style="stroke:#000000;stroke-width:0.5;" x="270.357833013" xlink:href="#m5284c7e2a0" y="13.4563428218"/>
      </g>
     </g>
    </g>
    <g id="xtick_23">
     <g id="line2d_88">
      <g>
       <use style="stroke:#000000;stroke-width:0.5;" x="286.079260621" xlink:href="#m177f7580d0" y="359.056342822"/>
      </g>
     </g>
     <g id="line2d_89">
      <g>
       <use style="stroke:#000000;stroke-width:0.5;" x="286.079260621" xlink:href="#m5284c7e2a0" y="13.4563428218"/>
      </g>
     </g>
    </g>
    <g id="xtick_24">
     <g id="line2d_90">
      <g>
       <use style="stroke:#000000;stroke-width:0.5;" x="297.233791026" xlink:href="#m177f7580d0" y="359.056342822"/>
      </g>
     </g>
     <g id="line2d_91">
      <g>
       <use style="stroke:#000000;stroke-width:0.5;" x="297.233791026" xlink:href="#m5284c7e2a0" y="13.4563428218"/>
      </g>
     </g>
    </g>
    <g id="xtick_25">
     <g id="line2d_92">
      <g>
       <use style="stroke:#000000;stroke-width:0.5;" x="305.885916987" xlink:href="#m177f7580d0" y="359.056342822"/>
      </g>
     </g>
     <g id="line2d_93">
      <g>
       <use style="stroke:#000000;stroke-width:0.5;" x="305.885916987" xlink:href="#m5284c7e2a0" y="13.4563428218"/>
      </g>
     </g>
    </g>
    <g id="xtick_26">
     <g id="line2d_94">
      <g>
       <use style="stroke:#000000;stroke-width:0.5;" x="312.955218634" xlink:href="#m177f7580d0" y="359.056342822"/>
      </g>
     </g>
     <g id="line2d_95">
      <g>
       <use style="stroke:#000000;stroke-width:0.5;" x="312.955218634" xlink:href="#m5284c7e2a0" y="13.4563428218"/>
      </g>
     </g>
    </g>
    <g id="xtick_27">
     <g id="line2d_96">
      <g>
       <use style="stroke:#000000;stroke-width:0.5;" x="318.932228012" xlink:href="#m177f7580d0" y="359.056342822"/>
      </g>
     </g>
     <g id="line2d_97">
      <g>
       <use style="stroke:#000000;stroke-width:0.5;" x="318.932228012" xlink:href="#m5284c7e2a0" y="13.4563428218"/>
      </g>
     </g>
    </g>
    <g id="xtick_28">
     <g id="line2d_98">
      <g>
       <use style="stroke:#000000;stroke-width:0.5;" x="324.109749039" xlink:href="#m177f7580d0" y="359.056342822"/>
      </g>
     </g>
     <g id="line2d_99">
      <g>
       <use style="stroke:#000000;stroke-width:0.5;" x="324.109749039" xlink:href="#m5284c7e2a0" y="13.4563428218"/>
      </g>
     </g>
    </g>
    <g id="xtick_29">
     <g id="line2d_100">
      <g>
       <use style="stroke:#000000;stroke-width:0.5;" x="328.676646243" xlink:href="#m177f7580d0" y="359.056342822"/>
      </g>
     </g>
     <g id="line2d_101">
      <g>
       <use style="stroke:#000000;stroke-width:0.5;" x="328.676646243" xlink:href="#m5284c7e2a0" y="13.4563428218"/>
      </g>
     </g>
    </g>
    <g id="xtick_30">
     <g id="line2d_102">
      <g>
       <use style="stroke:#000000;stroke-width:0.5;" x="359.637833013" xlink:href="#m177f7580d0" y="359.056342822"/>
      </g>
     </g>
     <g id="line2d_103">
      <g>
       <use style="stroke:#000000;stroke-width:0.5;" x="359.637833013" xlink:href="#m5284c7e2a0" y="13.4563428218"/>
      </g>
     </g>
    </g>
    <g id="xtick_31">
     <g id="line2d_104">
      <g>
       <use style="stroke:#000000;stroke-width:0.5;" x="375.359260621" xlink:href="#m177f7580d0" y="359.056342822"/>
      </g>
     </g>
     <g id="line2d_105">
      <g>
       <use style="stroke:#000000;stroke-width:0.5;" x="375.359260621" xlink:href="#m5284c7e2a0" y="13.4563428218"/>
      </g>
     </g>
    </g>
    <g id="xtick_32">
     <g id="line2d_106">
      <g>
       <use style="stroke:#000000;stroke-width:0.5;" x="386.513791026" xlink:href="#m177f7580d0" y="359.056342822"/>
      </g>
     </g>
     <g id="line2d_107">
      <g>
       <use style="stroke:#000000;stroke-width:0.5;" x="386.513791026" xlink:href="#m5284c7e2a0" y="13.4563428218"/>
      </g>
     </g>
    </g>
    <g id="xtick_33">
     <g id="line2d_108">
      <g>
       <use style="stroke:#000000;stroke-width:0.5;" x="395.165916987" xlink:href="#m177f7580d0" y="359.056342822"/>
      </g>
     </g>
     <g id="line2d_109">
      <g>
       <use style="stroke:#000000;stroke-width:0.5;" x="395.165916987" xlink:href="#m5284c7e2a0" y="13.4563428218"/>
      </g>
     </g>
    </g>
    <g id="xtick_34">
     <g id="line2d_110">
      <g>
       <use style="stroke:#000000;stroke-width:0.5;" x="402.235218634" xlink:href="#m177f7580d0" y="359.056342822"/>
      </g>
     </g>
     <g id="line2d_111">
      <g>
       <use style="stroke:#000000;stroke-width:0.5;" x="402.235218634" xlink:href="#m5284c7e2a0" y="13.4563428218"/>
      </g>
     </g>
    </g>
    <g id="xtick_35">
     <g id="line2d_112">
      <g>
       <use style="stroke:#000000;stroke-width:0.5;" x="408.212228012" xlink:href="#m177f7580d0" y="359.056342822"/>
      </g>
     </g>
     <g id="line2d_113">
      <g>
       <use style="stroke:#000000;stroke-width:0.5;" x="408.212228012" xlink:href="#m5284c7e2a0" y="13.4563428218"/>
      </g>
     </g>
    </g>
    <g id="xtick_36">
     <g id="line2d_114">
      <g>
       <use style="stroke:#000000;stroke-width:0.5;" x="413.389749039" xlink:href="#m177f7580d0" y="359.056342822"/>
      </g>
     </g>
     <g id="line2d_115">
      <g>
       <use style="stroke:#000000;stroke-width:0.5;" x="413.389749039" xlink:href="#m5284c7e2a0" y="13.4563428218"/>
      </g>
     </g>
    </g>
    <g id="xtick_37">
     <g id="line2d_116">
      <g>
       <use style="stroke:#000000;stroke-width:0.5;" x="417.956646243" xlink:href="#m177f7580d0" y="359.056342822"/>
      </g>
     </g>
     <g id="line2d_117">
      <g>
       <use style="stroke:#000000;stroke-width:0.5;" x="417.956646243" xlink:href="#m5284c7e2a0" y="13.4563428218"/>
      </g>
     </g>
    </g>
    <g id="xtick_38">
     <g id="line2d_118">
      <g>
       <use style="stroke:#000000;stroke-width:0.5;" x="448.917833013" xlink:href="#m177f7580d0" y="359.056342822"/>
      </g>
     </g>
     <g id="line2d_119">
      <g>
       <use style="stroke:#000000;stroke-width:0.5;" x="448.917833013" xlink:href="#m5284c7e2a0" y="13.4563428218"/>
      </g>
     </g>
    </g>
    <g id="xtick_39">
     <g id="line2d_120">
      <g>
       <use style="stroke:#000000;stroke-width:0.5;" x="464.639260621" xlink:href="#m177f7580d0" y="359.056342822"/>
      </g>
     </g>
     <g id="line2d_121">
      <g>
       <use style="stroke:#000000;stroke-width:0.5;" x="464.639260621" xlink:href="#m5284c7e2a0" y="13.4563428218"/>
      </g>
     </g>
    </g>
    <g id="xtick_40">
     <g id="line2d_122">
      <g>
       <use style="stroke:#000000;stroke-width:0.5;" x="475.793791026" xlink:href="#m177f7580d0" y="359.056342822"/>
      </g>
     </g>
     <g id="line2d_123">
      <g>
       <use style="stroke:#000000;stroke-width:0.5;" x="475.793791026" xlink:href="#m5284c7e2a0" y="13.4563428218"/>
      </g>
     </g>
    </g>
    <g id="xtick_41">
     <g id="line2d_124">
      <g>
       <use style="stroke:#000000;stroke-width:0.5;" x="484.445916987" xlink:href="#m177f7580d0" y="359.056342822"/>
      </g>
     </g>
     <g id="line2d_125">
      <g>
       <use style="stroke:#000000;stroke-width:0.5;" x="484.445916987" xlink:href="#m5284c7e2a0" y="13.4563428218"/>
      </g>
     </g>
    </g>
    <g id="xtick_42">
     <g id="line2d_126">
      <g>
       <use style="stroke:#000000;stroke-width:0.5;" x="491.515218634" xlink:href="#m177f7580d0" y="359.056342822"/>
      </g>
     </g>
     <g id="line2d_127">
      <g>
       <use style="stroke:#000000;stroke-width:0.5;" x="491.515218634" xlink:href="#m5284c7e2a0" y="13.4563428218"/>
      </g>
     </g>
    </g>
    <g id="xtick_43">
     <g id="line2d_128">
      <g>
       <use style="stroke:#000000;stroke-width:0.5;" x="497.492228012" xlink:href="#m177f7580d0" y="359.056342822"/>
      </g>
     </g>
     <g id="line2d_129">
      <g>
       <use style="stroke:#000000;stroke-width:0.5;" x="497.492228012" xlink:href="#m5284c7e2a0" y="13.4563428218"/>
      </g>
     </g>
    </g>
    <g id="xtick_44">
     <g id="line2d_130">
      <g>
       <use style="stroke:#000000;stroke-width:0.5;" x="502.669749039" xlink:href="#m177f7580d0" y="359.056342822"/>
      </g>
     </g>
     <g id="line2d_131">
      <g>
       <use style="stroke:#000000;stroke-width:0.5;" x="502.669749039" xlink:href="#m5284c7e2a0" y="13.4563428218"/>
      </g>
     </g>
    </g>
    <g id="xtick_45">
     <g id="line2d_132">
      <g>
       <use style="stroke:#000000;stroke-width:0.5;" x="507.236646243" xlink:href="#m177f7580d0" y="359.056342822"/>
      </g>
     </g>
     <g id="line2d_133">
      <g>
       <use style="stroke:#000000;stroke-width:0.5;" x="507.236646243" xlink:href="#m5284c7e2a0" y="13.4563428218"/>
      </g>
     </g>
    </g>
    <g id="text_6">
     <!-- log10 of FEvals / DIM -->
     <defs>
      <path id="BitstreamVeraSans-Roman-20"/>
      <path d="
M31.7812 66.4062
Q24.1719 66.4062 20.3281 58.9062
Q16.5 51.4219 16.5 36.375
Q16.5 21.3906 20.3281 13.8906
Q24.1719 6.39062 31.7812 6.39062
Q39.4531 6.39062 43.2812 13.8906
Q47.125 21.3906 47.125 36.375
Q47.125 51.4219 43.2812 58.9062
Q39.4531 66.4062 31.7812 66.4062
M31.7812 74.2188
Q44.0469 74.2188 50.5156 64.5156
Q56.9844 54.8281 56.9844 36.375
Q56.9844 17.9688 50.5156 8.26562
Q44.0469 -1.42188 31.7812 -1.42188
Q19.5312 -1.42188 13.0625 8.26562
Q6.59375 17.9688 6.59375 36.375
Q6.59375 54.8281 13.0625 64.5156
Q19.5312 74.2188 31.7812 74.2188" id="BitstreamVeraSans-Roman-30"/>
      <path d="
M9.8125 72.9062
L24.5156 72.9062
L43.1094 23.2969
L61.8125 72.9062
L76.5156 72.9062
L76.5156 0
L66.8906 0
L66.8906 64.0156
L48.0938 14.0156
L38.1875 14.0156
L19.3906 64.0156
L19.3906 0
L9.8125 0
z
" id="BitstreamVeraSans-Roman-4d"/>
      <path d="
M30.6094 48.3906
Q23.3906 48.3906 19.1875 42.75
Q14.9844 37.1094 14.9844 27.2969
Q14.9844 17.4844 19.1562 11.8438
Q23.3438 6.20312 30.6094 6.20312
Q37.7969 6.20312 41.9844 11.8594
Q46.1875 17.5312 46.1875 27.2969
Q46.1875 37.0156 41.9844 42.7031
Q37.7969 48.3906 30.6094 48.3906
M30.6094 56
Q42.3281 56 49.0156 48.375
Q55.7188 40.7656 55.7188 27.2969
Q55.7188 13.875 49.0156 6.21875
Q42.3281 -1.42188 30.6094 -1.42188
Q18.8438 -1.42188 12.1719 6.21875
Q5.51562 13.875 5.51562 27.2969
Q5.51562 40.7656 12.1719 48.375
Q18.8438 56 30.6094 56" id="BitstreamVeraSans-Roman-6f"/>
      <path d="
M9.42188 75.9844
L18.4062 75.9844
L18.4062 0
L9.42188 0
z
" id="BitstreamVeraSans-Roman-6c"/>
      <path d="
M9.8125 72.9062
L51.7031 72.9062
L51.7031 64.5938
L19.6719 64.5938
L19.6719 43.1094
L48.5781 43.1094
L48.5781 34.8125
L19.6719 34.8125
L19.6719 0
L9.8125 0
z
" id="BitstreamVeraSans-Roman-46"/>
      <path d="
M9.8125 72.9062
L55.9062 72.9062
L55.9062 64.5938
L19.6719 64.5938
L19.6719 43.0156
L54.3906 43.0156
L54.3906 34.7188
L19.6719 34.7188
L19.6719 8.29688
L56.7812 8.29688
L56.7812 0
L9.8125 0
z
" id="BitstreamVeraSans-Roman-45"/>
      <path d="
M19.6719 64.7969
L19.6719 8.10938
L31.5938 8.10938
Q46.6875 8.10938 53.6875 14.9375
Q60.6875 21.7812 60.6875 36.5312
Q60.6875 51.1719 53.6875 57.9844
Q46.6875 64.7969 31.5938 64.7969
z

M9.8125 72.9062
L30.0781 72.9062
Q51.2656 72.9062 61.1719 64.0938
Q71.0938 55.2812 71.0938 36.5312
Q71.0938 17.6719 61.125 8.82812
Q51.1719 0 30.0781 0
L9.8125 0
z
" id="BitstreamVeraSans-Roman-44"/>
      <path d="
M25.3906 72.9062
L33.6875 72.9062
L8.29688 -9.28125
L0 -9.28125
z
" id="BitstreamVeraSans-Roman-2f"/>
      <path d="
M2.98438 54.6875
L12.5 54.6875
L29.5938 8.79688
L46.6875 54.6875
L56.2031 54.6875
L35.6875 0
L23.4844 0
z
" id="BitstreamVeraSans-Roman-76"/>
      <path d="
M45.4062 27.9844
Q45.4062 37.75 41.375 43.1094
Q37.3594 48.4844 30.0781 48.4844
Q22.8594 48.4844 18.8281 43.1094
Q14.7969 37.75 14.7969 27.9844
Q14.7969 18.2656 18.8281 12.8906
Q22.8594 7.51562 30.0781 7.51562
Q37.3594 7.51562 41.375 12.8906
Q45.4062 18.2656 45.4062 27.9844
M54.3906 6.78125
Q54.3906 -7.17188 48.1875 -13.9844
Q42 -20.7969 29.2031 -20.7969
Q24.4688 -20.7969 20.2656 -20.0938
Q16.0625 -19.3906 12.1094 -17.9219
L12.1094 -9.1875
Q16.0625 -11.3281 19.9219 -12.3438
Q23.7812 -13.375 27.7812 -13.375
Q36.625 -13.375 41.0156 -8.76562
Q45.4062 -4.15625 45.4062 5.17188
L45.4062 9.625
Q42.625 4.78125 38.2812 2.39062
Q33.9375 0 27.875 0
Q17.8281 0 11.6719 7.65625
Q5.51562 15.3281 5.51562 27.9844
Q5.51562 40.6719 11.6719 48.3281
Q17.8281 56 27.875 56
Q33.9375 56 38.2812 53.6094
Q42.625 51.2188 45.4062 46.3906
L45.4062 54.6875
L54.3906 54.6875
z
" id="BitstreamVeraSans-Roman-67"/>
      <path d="
M37.1094 75.9844
L37.1094 68.5
L28.5156 68.5
Q23.6875 68.5 21.7969 66.5469
Q19.9219 64.5938 19.9219 59.5156
L19.9219 54.6875
L34.7188 54.6875
L34.7188 47.7031
L19.9219 47.7031
L19.9219 0
L10.8906 0
L10.8906 47.7031
L2.29688 47.7031
L2.29688 54.6875
L10.8906 54.6875
L10.8906 58.5
Q10.8906 67.625 15.1406 71.7969
Q19.3906 75.9844 28.6094 75.9844
z
" id="BitstreamVeraSans-Roman-66"/>
      <path d="
M34.2812 27.4844
Q23.3906 27.4844 19.1875 25
Q14.9844 22.5156 14.9844 16.5
Q14.9844 11.7188 18.1406 8.90625
Q21.2969 6.10938 26.7031 6.10938
Q34.1875 6.10938 38.7031 11.4062
Q43.2188 16.7031 43.2188 25.4844
L43.2188 27.4844
z

M52.2031 31.2031
L52.2031 0
L43.2188 0
L43.2188 8.29688
Q40.1406 3.32812 35.5469 0.953125
Q30.9531 -1.42188 24.3125 -1.42188
Q15.9219 -1.42188 10.9531 3.29688
Q6 8.01562 6 15.9219
Q6 25.1406 12.1719 29.8281
Q18.3594 34.5156 30.6094 34.5156
L43.2188 34.5156
L43.2188 35.4062
Q43.2188 41.6094 39.1406 45
Q35.0625 48.3906 27.6875 48.3906
Q23 48.3906 18.5469 47.2656
Q14.1094 46.1406 10.0156 43.8906
L10.0156 52.2031
Q14.9375 54.1094 19.5781 55.0469
Q24.2188 56 28.6094 56
Q40.4844 56 46.3438 49.8438
Q52.2031 43.7031 52.2031 31.2031" id="BitstreamVeraSans-Roman-61"/>
      <path d="
M44.2812 53.0781
L44.2812 44.5781
Q40.4844 46.5312 36.375 47.5
Q32.2812 48.4844 27.875 48.4844
Q21.1875 48.4844 17.8438 46.4375
Q14.5 44.3906 14.5 40.2812
Q14.5 37.1562 16.8906 35.375
Q19.2812 33.5938 26.5156 31.9844
L29.5938 31.2969
Q39.1562 29.25 43.1875 25.5156
Q47.2188 21.7812 47.2188 15.0938
Q47.2188 7.46875 41.1875 3.01562
Q35.1562 -1.42188 24.6094 -1.42188
Q20.2188 -1.42188 15.4531 -0.5625
Q10.6875 0.296875 5.42188 2
L5.42188 11.2812
Q10.4062 8.6875 15.2344 7.39062
Q20.0625 6.10938 24.8125 6.10938
Q31.1562 6.10938 34.5625 8.28125
Q37.9844 10.4531 37.9844 14.4062
Q37.9844 18.0625 35.5156 20.0156
Q33.0625 21.9688 24.7031 23.7812
L21.5781 24.5156
Q13.2344 26.2656 9.51562 29.9062
Q5.8125 33.5469 5.8125 39.8906
Q5.8125 47.6094 11.2812 51.7969
Q16.75 56 26.8125 56
Q31.7812 56 36.1719 55.2656
Q40.5781 54.5469 44.2812 53.0781" id="BitstreamVeraSans-Roman-73"/>
      <path d="
M9.8125 72.9062
L19.6719 72.9062
L19.6719 0
L9.8125 0
z
" id="BitstreamVeraSans-Roman-49"/>
     </defs>
     <g transform="translate(184.025 402.609467822)scale(0.2 -0.2)">
      <use xlink:href="#BitstreamVeraSans-Roman-6c"/>
      <use x="27.783203125" xlink:href="#BitstreamVeraSans-Roman-6f"/>
      <use x="88.96484375" xlink:href="#BitstreamVeraSans-Roman-67"/>
      <use x="152.44140625" xlink:href="#BitstreamVeraSans-Roman-31"/>
      <use x="216.064453125" xlink:href="#BitstreamVeraSans-Roman-30"/>
      <use x="279.6875" xlink:href="#BitstreamVeraSans-Roman-20"/>
      <use x="311.474609375" xlink:href="#BitstreamVeraSans-Roman-6f"/>
      <use x="372.65625" xlink:href="#BitstreamVeraSans-Roman-66"/>
      <use x="407.861328125" xlink:href="#BitstreamVeraSans-Roman-20"/>
      <use x="439.6484375" xlink:href="#BitstreamVeraSans-Roman-46"/>
      <use x="497.16796875" xlink:href="#BitstreamVeraSans-Roman-45"/>
      <use x="560.3515625" xlink:href="#BitstreamVeraSans-Roman-76"/>
      <use x="619.53125" xlink:href="#BitstreamVeraSans-Roman-61"/>
      <use x="680.810546875" xlink:href="#BitstreamVeraSans-Roman-6c"/>
      <use x="708.59375" xlink:href="#BitstreamVeraSans-Roman-73"/>
      <use x="760.693359375" xlink:href="#BitstreamVeraSans-Roman-20"/>
      <use x="792.48046875" xlink:href="#BitstreamVeraSans-Roman-2f"/>
      <use x="826.171875" xlink:href="#BitstreamVeraSans-Roman-20"/>
      <use x="857.958984375" xlink:href="#BitstreamVeraSans-Roman-44"/>
      <use x="934.9609375" xlink:href="#BitstreamVeraSans-Roman-49"/>
      <use x="964.453125" xlink:href="#BitstreamVeraSans-Roman-4d"/>
     </g>
    </g>
   </g>
   <g id="matplotlib.axis_2">
    <g id="ytick_1">
     <g id="line2d_134">
      <path clip-path="url(#p4b24e7e61f)" d="
M64.9219 359.056
L511.322 359.056" style="fill:none;stroke:#000000;stroke-dasharray:1.000000,3.000000;stroke-dashoffset:0.0;stroke-width:0.5;"/>
     </g>
     <g id="line2d_135">
      <defs>
       <path d="
M0 0
L4 0" id="m728421d6d4" style="stroke:#000000;stroke-width:0.5;"/>
      </defs>
      <g>
       <use style="stroke:#000000;stroke-width:0.5;" x="64.921875" xlink:href="#m728421d6d4" y="359.056342822"/>
      </g>
     </g>
     <g id="line2d_136">
      <defs>
       <path d="
M0 0
L-4 0" id="mcb0005524f" style="stroke:#000000;stroke-width:0.5;"/>
      </defs>
      <g>
       <use style="stroke:#000000;stroke-width:0.5;" x="511.321875" xlink:href="#mcb0005524f" y="359.056342822"/>
      </g>
     </g>
     <g id="text_7">
      <!-- 0.0 -->
      <defs>
       <path d="
M10.6875 12.4062
L21 12.4062
L21 0
L10.6875 0
z
" id="BitstreamVeraSans-Roman-2e"/>
      </defs>
      <g transform="translate(31.7625 364.575092822)scale(0.2 -0.2)">
       <use xlink:href="#BitstreamVeraSans-Roman-30"/>
       <use x="63.623046875" xlink:href="#BitstreamVeraSans-Roman-2e"/>
       <use x="95.41015625" xlink:href="#BitstreamVeraSans-Roman-30"/>
      </g>
     </g>
    </g>
    <g id="ytick_2">
     <g id="line2d_137">
      <path clip-path="url(#p4b24e7e61f)" d="
M64.9219 290.621
L511.322 290.621" style="fill:none;stroke:#000000;stroke-dasharray:1.000000,3.000000;stroke-dashoffset:0.0;stroke-width:0.5;"/>
     </g>
     <g id="line2d_138">
      <g>
       <use style="stroke:#000000;stroke-width:0.5;" x="64.921875" xlink:href="#m728421d6d4" y="290.620699257"/>
      </g>
     </g>
     <g id="line2d_139">
      <g>
       <use style="stroke:#000000;stroke-width:0.5;" x="511.321875" xlink:href="#mcb0005524f" y="290.620699257"/>
      </g>
     </g>
     <g id="text_8">
      <!-- 0.2 -->
      <g transform="translate(32.4375 296.139449257)scale(0.2 -0.2)">
       <use xlink:href="#BitstreamVeraSans-Roman-30"/>
       <use x="63.623046875" xlink:href="#BitstreamVeraSans-Roman-2e"/>
       <use x="95.41015625" xlink:href="#BitstreamVeraSans-Roman-32"/>
      </g>
     </g>
    </g>
    <g id="ytick_3">
     <g id="line2d_140">
      <path clip-path="url(#p4b24e7e61f)" d="
M64.9219 222.185
L511.322 222.185" style="fill:none;stroke:#000000;stroke-dasharray:1.000000,3.000000;stroke-dashoffset:0.0;stroke-width:0.5;"/>
     </g>
     <g id="line2d_141">
      <g>
       <use style="stroke:#000000;stroke-width:0.5;" x="64.921875" xlink:href="#m728421d6d4" y="222.185055693"/>
      </g>
     </g>
     <g id="line2d_142">
      <g>
       <use style="stroke:#000000;stroke-width:0.5;" x="511.321875" xlink:href="#mcb0005524f" y="222.185055693"/>
      </g>
     </g>
     <g id="text_9">
      <!-- 0.4 -->
      <g transform="translate(31.55625 227.703805693)scale(0.2 -0.2)">
       <use xlink:href="#BitstreamVeraSans-Roman-30"/>
       <use x="63.623046875" xlink:href="#BitstreamVeraSans-Roman-2e"/>
       <use x="95.41015625" xlink:href="#BitstreamVeraSans-Roman-34"/>
      </g>
     </g>
    </g>
    <g id="ytick_4">
     <g id="line2d_143">
      <path clip-path="url(#p4b24e7e61f)" d="
M64.9219 153.749
L511.322 153.749" style="fill:none;stroke:#000000;stroke-dasharray:1.000000,3.000000;stroke-dashoffset:0.0;stroke-width:0.5;"/>
     </g>
     <g id="line2d_144">
      <g>
       <use style="stroke:#000000;stroke-width:0.5;" x="64.921875" xlink:href="#m728421d6d4" y="153.749412129"/>
      </g>
     </g>
     <g id="line2d_145">
      <g>
       <use style="stroke:#000000;stroke-width:0.5;" x="511.321875" xlink:href="#mcb0005524f" y="153.749412129"/>
      </g>
     </g>
     <g id="text_10">
      <!-- 0.6 -->
      <defs>
       <path d="
M33.0156 40.375
Q26.375 40.375 22.4844 35.8281
Q18.6094 31.2969 18.6094 23.3906
Q18.6094 15.5312 22.4844 10.9531
Q26.375 6.39062 33.0156 6.39062
Q39.6562 6.39062 43.5312 10.9531
Q47.4062 15.5312 47.4062 23.3906
Q47.4062 31.2969 43.5312 35.8281
Q39.6562 40.375 33.0156 40.375
M52.5938 71.2969
L52.5938 62.3125
Q48.875 64.0625 45.0938 64.9844
Q41.3125 65.9219 37.5938 65.9219
Q27.8281 65.9219 22.6719 59.3281
Q17.5312 52.7344 16.7969 39.4062
Q19.6719 43.6562 24.0156 45.9219
Q28.375 48.1875 33.5938 48.1875
Q44.5781 48.1875 50.9531 41.5156
Q57.3281 34.8594 57.3281 23.3906
Q57.3281 12.1562 50.6875 5.35938
Q44.0469 -1.42188 33.0156 -1.42188
Q20.3594 -1.42188 13.6719 8.26562
Q6.98438 17.9688 6.98438 36.375
Q6.98438 53.6562 15.1875 63.9375
Q23.3906 74.2188 37.2031 74.2188
Q40.9219 74.2188 44.7031 73.4844
Q48.4844 72.75 52.5938 71.2969" id="BitstreamVeraSans-Roman-36"/>
      </defs>
      <g transform="translate(31.69375 159.268162129)scale(0.2 -0.2)">
       <use xlink:href="#BitstreamVeraSans-Roman-30"/>
       <use x="63.623046875" xlink:href="#BitstreamVeraSans-Roman-2e"/>
       <use x="95.41015625" xlink:href="#BitstreamVeraSans-Roman-36"/>
      </g>
     </g>
    </g>
    <g id="ytick_5">
     <g id="line2d_146">
      <path clip-path="url(#p4b24e7e61f)" d="
M64.9219 85.3138
L511.322 85.3138" style="fill:none;stroke:#000000;stroke-dasharray:1.000000,3.000000;stroke-dashoffset:0.0;stroke-width:0.5;"/>
     </g>
     <g id="line2d_147">
      <g>
       <use style="stroke:#000000;stroke-width:0.5;" x="64.921875" xlink:href="#m728421d6d4" y="85.3137685644"/>
      </g>
     </g>
     <g id="line2d_148">
      <g>
       <use style="stroke:#000000;stroke-width:0.5;" x="511.321875" xlink:href="#mcb0005524f" y="85.3137685644"/>
      </g>
     </g>
     <g id="text_11">
      <!-- 0.8 -->
      <defs>
       <path d="
M31.7812 34.625
Q24.75 34.625 20.7188 30.8594
Q16.7031 27.0938 16.7031 20.5156
Q16.7031 13.9219 20.7188 10.1562
Q24.75 6.39062 31.7812 6.39062
Q38.8125 6.39062 42.8594 10.1719
Q46.9219 13.9688 46.9219 20.5156
Q46.9219 27.0938 42.8906 30.8594
Q38.875 34.625 31.7812 34.625
M21.9219 38.8125
Q15.5781 40.375 12.0312 44.7188
Q8.5 49.0781 8.5 55.3281
Q8.5 64.0625 14.7188 69.1406
Q20.9531 74.2188 31.7812 74.2188
Q42.6719 74.2188 48.875 69.1406
Q55.0781 64.0625 55.0781 55.3281
Q55.0781 49.0781 51.5312 44.7188
Q48 40.375 41.7031 38.8125
Q48.8281 37.1562 52.7969 32.3125
Q56.7812 27.4844 56.7812 20.5156
Q56.7812 9.90625 50.3125 4.23438
Q43.8438 -1.42188 31.7812 -1.42188
Q19.7344 -1.42188 13.25 4.23438
Q6.78125 9.90625 6.78125 20.5156
Q6.78125 27.4844 10.7812 32.3125
Q14.7969 37.1562 21.9219 38.8125
M18.3125 54.3906
Q18.3125 48.7344 21.8438 45.5625
Q25.3906 42.3906 31.7812 42.3906
Q38.1406 42.3906 41.7188 45.5625
Q45.3125 48.7344 45.3125 54.3906
Q45.3125 60.0625 41.7188 63.2344
Q38.1406 66.4062 31.7812 66.4062
Q25.3906 66.4062 21.8438 63.2344
Q18.3125 60.0625 18.3125 54.3906" id="BitstreamVeraSans-Roman-38"/>
      </defs>
      <g transform="translate(31.803125 90.8325185644)scale(0.2 -0.2)">
       <use xlink:href="#BitstreamVeraSans-Roman-30"/>
       <use x="63.623046875" xlink:href="#BitstreamVeraSans-Roman-2e"/>
       <use x="95.41015625" xlink:href="#BitstreamVeraSans-Roman-38"/>
      </g>
     </g>
    </g>
    <g id="ytick_6">
     <g id="line2d_149">
      <path clip-path="url(#p4b24e7e61f)" d="
M64.9219 16.8781
L511.322 16.8781" style="fill:none;stroke:#000000;stroke-dasharray:1.000000,3.000000;stroke-dashoffset:0.0;stroke-width:0.5;"/>
     </g>
     <g id="line2d_150">
      <g>
       <use style="stroke:#000000;stroke-width:0.5;" x="64.921875" xlink:href="#m728421d6d4" y="16.878125"/>
      </g>
     </g>
     <g id="line2d_151">
      <g>
       <use style="stroke:#000000;stroke-width:0.5;" x="511.321875" xlink:href="#mcb0005524f" y="16.878125"/>
      </g>
     </g>
     <g id="text_12">
      <!-- 1.0 -->
      <g transform="translate(32.640625 22.396875)scale(0.2 -0.2)">
       <use xlink:href="#BitstreamVeraSans-Roman-31"/>
       <use x="63.623046875" xlink:href="#BitstreamVeraSans-Roman-2e"/>
       <use x="95.41015625" xlink:href="#BitstreamVeraSans-Roman-30"/>
      </g>
     </g>
    </g>
    <g id="text_13">
     <!-- proportion of trials -->
     <defs>
      <path d="
M54.8906 33.0156
L54.8906 0
L45.9062 0
L45.9062 32.7188
Q45.9062 40.4844 42.875 44.3281
Q39.8438 48.1875 33.7969 48.1875
Q26.5156 48.1875 22.3125 43.5469
Q18.1094 38.9219 18.1094 30.9062
L18.1094 0
L9.07812 0
L9.07812 54.6875
L18.1094 54.6875
L18.1094 46.1875
Q21.3438 51.125 25.7031 53.5625
Q30.0781 56 35.7969 56
Q45.2188 56 50.0469 50.1719
Q54.8906 44.3438 54.8906 33.0156" id="BitstreamVeraSans-Roman-6e"/>
      <path d="
M9.42188 54.6875
L18.4062 54.6875
L18.4062 0
L9.42188 0
z

M9.42188 75.9844
L18.4062 75.9844
L18.4062 64.5938
L9.42188 64.5938
z
" id="BitstreamVeraSans-Roman-69"/>
      <path d="
M18.3125 70.2188
L18.3125 54.6875
L36.8125 54.6875
L36.8125 47.7031
L18.3125 47.7031
L18.3125 18.0156
Q18.3125 11.3281 20.1406 9.42188
Q21.9688 7.51562 27.5938 7.51562
L36.8125 7.51562
L36.8125 0
L27.5938 0
Q17.1875 0 13.2344 3.875
Q9.28125 7.76562 9.28125 18.0156
L9.28125 47.7031
L2.6875 47.7031
L2.6875 54.6875
L9.28125 54.6875
L9.28125 70.2188
z
" id="BitstreamVeraSans-Roman-74"/>
      <path d="
M41.1094 46.2969
Q39.5938 47.1719 37.8125 47.5781
Q36.0312 48 33.8906 48
Q26.2656 48 22.1875 43.0469
Q18.1094 38.0938 18.1094 28.8125
L18.1094 0
L9.07812 0
L9.07812 54.6875
L18.1094 54.6875
L18.1094 46.1875
Q20.9531 51.1719 25.4844 53.5781
Q30.0312 56 36.5312 56
Q37.4531 56 38.5781 55.875
Q39.7031 55.7656 41.0625 55.5156
z
" id="BitstreamVeraSans-Roman-72"/>
      <path d="
M18.1094 8.20312
L18.1094 -20.7969
L9.07812 -20.7969
L9.07812 54.6875
L18.1094 54.6875
L18.1094 46.3906
Q20.9531 51.2656 25.2656 53.625
Q29.5938 56 35.5938 56
Q45.5625 56 51.7812 48.0938
Q58.0156 40.1875 58.0156 27.2969
Q58.0156 14.4062 51.7812 6.48438
Q45.5625 -1.42188 35.5938 -1.42188
Q29.5938 -1.42188 25.2656 0.953125
Q20.9531 3.32812 18.1094 8.20312
M48.6875 27.2969
Q48.6875 37.2031 44.6094 42.8438
Q40.5312 48.4844 33.4062 48.4844
Q26.2656 48.4844 22.1875 42.8438
Q18.1094 37.2031 18.1094 27.2969
Q18.1094 17.3906 22.1875 11.75
Q26.2656 6.10938 33.4062 6.10938
Q40.5312 6.10938 44.6094 11.75
Q48.6875 17.3906 48.6875 27.2969" id="BitstreamVeraSans-Roman-70"/>
     </defs>
     <g transform="translate(22.396875 278.775092822)rotate(-90.0)scale(0.2 -0.2)">
      <use xlink:href="#BitstreamVeraSans-Roman-70"/>
      <use x="63.4765625" xlink:href="#BitstreamVeraSans-Roman-72"/>
      <use x="102.33984375" xlink:href="#BitstreamVeraSans-Roman-6f"/>
      <use x="163.521484375" xlink:href="#BitstreamVeraSans-Roman-70"/>
      <use x="226.998046875" xlink:href="#BitstreamVeraSans-Roman-6f"/>
      <use x="288.1796875" xlink:href="#BitstreamVeraSans-Roman-72"/>
      <use x="329.29296875" xlink:href="#BitstreamVeraSans-Roman-74"/>
      <use x="368.501953125" xlink:href="#BitstreamVeraSans-Roman-69"/>
      <use x="396.28515625" xlink:href="#BitstreamVeraSans-Roman-6f"/>
      <use x="457.466796875" xlink:href="#BitstreamVeraSans-Roman-6e"/>
      <use x="520.845703125" xlink:href="#BitstreamVeraSans-Roman-20"/>
      <use x="552.6328125" xlink:href="#BitstreamVeraSans-Roman-6f"/>
      <use x="613.814453125" xlink:href="#BitstreamVeraSans-Roman-66"/>
      <use x="649.01953125" xlink:href="#BitstreamVeraSans-Roman-20"/>
      <use x="680.806640625" xlink:href="#BitstreamVeraSans-Roman-74"/>
      <use x="720.015625" xlink:href="#BitstreamVeraSans-Roman-72"/>
      <use x="761.12890625" xlink:href="#BitstreamVeraSans-Roman-69"/>
      <use x="788.912109375" xlink:href="#BitstreamVeraSans-Roman-61"/>
      <use x="850.19140625" xlink:href="#BitstreamVeraSans-Roman-6c"/>
      <use x="877.974609375" xlink:href="#BitstreamVeraSans-Roman-73"/>
     </g>
    </g>
   </g>
   <g id="text_14">
    <!-- {f6-f9}, 20-D -->
    <defs>
     <path d="
M11.7188 12.4062
L22.0156 12.4062
L22.0156 4
L14.0156 -11.625
L7.71875 -11.625
L11.7188 4
z
" id="BitstreamVeraSans-Roman-2c"/>
     <path d="
M12.5 -9.28125
L15.9219 -9.28125
Q22.75 -9.28125 24.8281 -7.17188
Q26.9062 -5.07812 26.9062 1.90625
L26.9062 14.0156
Q26.9062 21.625 29.0938 25.0938
Q31.2969 28.5625 36.7188 29.8906
Q31.2969 31.1094 29.0938 34.5625
Q26.9062 38.0312 26.9062 45.7031
L26.9062 57.8125
Q26.9062 64.75 24.8281 66.875
Q22.75 69 15.9219 69
L12.5 69
L12.5 75.9844
L15.5781 75.9844
Q27.7344 75.9844 31.8125 72.3906
Q35.8906 68.7969 35.8906 58.0156
L35.8906 46.2969
Q35.8906 39.0156 38.5156 36.2031
Q41.1562 33.4062 48.0938 33.4062
L51.125 33.4062
L51.125 26.4219
L48.0938 26.4219
Q41.1562 26.4219 38.5156 23.5781
Q35.8906 20.75 35.8906 13.375
L35.8906 1.70312
Q35.8906 -9.07812 31.8125 -12.6875
Q27.7344 -16.3125 15.5781 -16.3125
L12.5 -16.3125
z
" id="BitstreamVeraSans-Roman-7d"/>
     <path d="
M10.9844 1.51562
L10.9844 10.5
Q14.7031 8.73438 18.5 7.8125
Q22.3125 6.89062 25.9844 6.89062
Q35.75 6.89062 40.8906 13.4531
Q46.0469 20.0156 46.7812 33.4062
Q43.9531 29.2031 39.5938 26.9531
Q35.25 24.7031 29.9844 24.7031
Q19.0469 24.7031 12.6719 31.3125
Q6.29688 37.9375 6.29688 49.4219
Q6.29688 60.6406 12.9375 67.4219
Q19.5781 74.2188 30.6094 74.2188
Q43.2656 74.2188 49.9219 64.5156
Q56.5938 54.8281 56.5938 36.375
Q56.5938 19.1406 48.4062 8.85938
Q40.2344 -1.42188 26.4219 -1.42188
Q22.7031 -1.42188 18.8906 -0.6875
Q15.0938 0.046875 10.9844 1.51562
M30.6094 32.4219
Q37.25 32.4219 41.125 36.9531
Q45.0156 41.5 45.0156 49.4219
Q45.0156 57.2812 41.125 61.8438
Q37.25 66.4062 30.6094 66.4062
Q23.9688 66.4062 20.0938 61.8438
Q16.2188 57.2812 16.2188 49.4219
Q16.2188 41.5 20.0938 36.9531
Q23.9688 32.4219 30.6094 32.4219" id="BitstreamVeraSans-Roman-39"/>
     <path d="
M51.125 -9.28125
L51.125 -16.3125
L48.0938 -16.3125
Q35.9375 -16.3125 31.8125 -12.6875
Q27.6875 -9.07812 27.6875 1.70312
L27.6875 13.375
Q27.6875 20.75 25.0469 23.5781
Q22.4062 26.4219 15.4844 26.4219
L12.5 26.4219
L12.5 33.4062
L15.4844 33.4062
Q22.4688 33.4062 25.0781 36.2031
Q27.6875 39.0156 27.6875 46.2969
L27.6875 58.0156
Q27.6875 68.7969 31.8125 72.3906
Q35.9375 75.9844 48.0938 75.9844
L51.125 75.9844
L51.125 69
L47.7969 69
Q40.9219 69 38.8125 66.8438
Q36.7188 64.7031 36.7188 57.8125
L36.7188 45.7031
Q36.7188 38.0312 34.5 34.5625
Q32.2812 31.1094 26.9062 29.8906
Q32.3281 28.5625 34.5156 25.0938
Q36.7188 21.625 36.7188 14.0156
L36.7188 1.90625
Q36.7188 -4.98438 38.8125 -7.125
Q40.9219 -9.28125 47.7969 -9.28125
z
" id="BitstreamVeraSans-Roman-7b"/>
     <path d="
M4.89062 31.3906
L31.2031 31.3906
L31.2031 23.3906
L4.89062 23.3906
z
" id="BitstreamVeraSans-Roman-2d"/>
    </defs>
    <g transform="translate(222.225 35.5652178218)scale(0.2 -0.2)">
     <use xlink:href="#BitstreamVeraSans-Roman-7b"/>
     <use x="63.623046875" xlink:href="#BitstreamVeraSans-Roman-66"/>
     <use x="98.828125" xlink:href="#BitstreamVeraSans-Roman-36"/>
     <use x="162.451171875" xlink:href="#BitstreamVeraSans-Roman-2d"/>
     <use x="198.53515625" xlink:href="#BitstreamVeraSans-Roman-66"/>
     <use x="233.740234375" xlink:href="#BitstreamVeraSans-Roman-39"/>
     <use x="297.36328125" xlink:href="#BitstreamVeraSans-Roman-7d"/>
     <use x="360.986328125" xlink:href="#BitstreamVeraSans-Roman-2c"/>
     <use x="392.7734375" xlink:href="#BitstreamVeraSans-Roman-20"/>
     <use x="424.560546875" xlink:href="#BitstreamVeraSans-Roman-32"/>
     <use x="488.18359375" xlink:href="#BitstreamVeraSans-Roman-30"/>
     <use x="551.806640625" xlink:href="#BitstreamVeraSans-Roman-2d"/>
     <use x="587.890625" xlink:href="#BitstreamVeraSans-Roman-44"/>
    </g>
   </g>
   <g id="text_15">
    <!-- absolute targets -->
    <defs>
     <path d="
M56.2031 29.5938
L56.2031 25.2031
L14.8906 25.2031
Q15.4844 15.9219 20.4844 11.0625
Q25.4844 6.20312 34.4219 6.20312
Q39.5938 6.20312 44.4531 7.46875
Q49.3125 8.73438 54.1094 11.2812
L54.1094 2.78125
Q49.2656 0.734375 44.1875 -0.34375
Q39.1094 -1.42188 33.8906 -1.42188
Q20.7969 -1.42188 13.1562 6.1875
Q5.51562 13.8125 5.51562 26.8125
Q5.51562 40.2344 12.7656 48.1094
Q20.0156 56 32.3281 56
Q43.3594 56 49.7812 48.8906
Q56.2031 41.7969 56.2031 29.5938
M47.2188 32.2344
Q47.125 39.5938 43.0938 43.9844
Q39.0625 48.3906 32.4219 48.3906
Q24.9062 48.3906 20.3906 44.1406
Q15.875 39.8906 15.1875 32.1719
z
" id="BitstreamVeraSans-Roman-65"/>
     <path d="
M8.5 21.5781
L8.5 54.6875
L17.4844 54.6875
L17.4844 21.9219
Q17.4844 14.1562 20.5 10.2656
Q23.5312 6.39062 29.5938 6.39062
Q36.8594 6.39062 41.0781 11.0312
Q45.3125 15.6719 45.3125 23.6875
L45.3125 54.6875
L54.2969 54.6875
L54.2969 0
L45.3125 0
L45.3125 8.40625
Q42.0469 3.42188 37.7188 1
Q33.4062 -1.42188 27.6875 -1.42188
Q18.2656 -1.42188 13.375 4.4375
Q8.5 10.2969 8.5 21.5781" id="BitstreamVeraSans-Roman-75"/>
     <path d="
M48.6875 27.2969
Q48.6875 37.2031 44.6094 42.8438
Q40.5312 48.4844 33.4062 48.4844
Q26.2656 48.4844 22.1875 42.8438
Q18.1094 37.2031 18.1094 27.2969
Q18.1094 17.3906 22.1875 11.75
Q26.2656 6.10938 33.4062 6.10938
Q40.5312 6.10938 44.6094 11.75
Q48.6875 17.3906 48.6875 27.2969
M18.1094 46.3906
Q20.9531 51.2656 25.2656 53.625
Q29.5938 56 35.5938 56
Q45.5625 56 51.7812 48.0938
Q58.0156 40.1875 58.0156 27.2969
Q58.0156 14.4062 51.7812 6.48438
Q45.5625 -1.42188 35.5938 -1.42188
Q29.5938 -1.42188 25.2656 0.953125
Q20.9531 3.32812 18.1094 8.20312
L18.1094 0
L9.07812 0
L9.07812 75.9844
L18.1094 75.9844
z
" id="BitstreamVeraSans-Roman-62"/>
    </defs>
    <g transform="translate(64.921875 359.056342822)scale(0.14 -0.14)">
     <use xlink:href="#BitstreamVeraSans-Roman-61"/>
     <use x="61.279296875" xlink:href="#BitstreamVeraSans-Roman-62"/>
     <use x="124.755859375" xlink:href="#BitstreamVeraSans-Roman-73"/>
     <use x="176.85546875" xlink:href="#BitstreamVeraSans-Roman-6f"/>
     <use x="238.037109375" xlink:href="#BitstreamVeraSans-Roman-6c"/>
     <use x="265.8203125" xlink:href="#BitstreamVeraSans-Roman-75"/>
     <use x="329.19921875" xlink:href="#BitstreamVeraSans-Roman-74"/>
     <use x="368.408203125" xlink:href="#BitstreamVeraSans-Roman-65"/>
     <use x="429.931640625" xlink:href="#BitstreamVeraSans-Roman-20"/>
     <use x="461.71875" xlink:href="#BitstreamVeraSans-Roman-74"/>
     <use x="500.927734375" xlink:href="#BitstreamVeraSans-Roman-61"/>
     <use x="562.20703125" xlink:href="#BitstreamVeraSans-Roman-72"/>
     <use x="601.5703125" xlink:href="#BitstreamVeraSans-Roman-67"/>
     <use x="665.046875" xlink:href="#BitstreamVeraSans-Roman-65"/>
     <use x="726.5703125" xlink:href="#BitstreamVeraSans-Roman-74"/>
     <use x="765.779296875" xlink:href="#BitstreamVeraSans-Roman-73"/>
    </g>
   </g>
   <g id="text_16">
    <!-- v2.0.1 -->
    <g style="fill:#808080;" transform="translate(273.0515625 353.520655322)scale(0.1 -0.1)">
     <use xlink:href="#BitstreamVeraSans-Roman-76"/>
     <use x="59.1796875" xlink:href="#BitstreamVeraSans-Roman-32"/>
     <use x="122.802734375" xlink:href="#BitstreamVeraSans-Roman-2e"/>
     <use x="154.58984375" xlink:href="#BitstreamVeraSans-Roman-30"/>
     <use x="218.212890625" xlink:href="#BitstreamVeraSans-Roman-2e"/>
     <use x="250.0" xlink:href="#BitstreamVeraSans-Roman-31"/>
    </g>
   </g>
   <g id="legend_1">
    <g id="patch_7">
     <path d="
M74.9219 146.881
L211.022 146.881
L211.022 23.4563
L74.9219 23.4563
z
" style="fill:#ffffff;opacity:0.2;stroke:#000000;stroke-linejoin:miter;"/>
    </g>
    <g id="line2d_152">
     <path d="
M88.9219 39.6532
L116.922 39.6532" style="fill:none;stroke:#000000;stroke-linecap:square;"/>
    </g>
    <g id="line2d_153"/>
    <g id="text_17">
     <!-- 1: 4/4 -->
     <defs>
      <path d="
M11.7188 12.4062
L22.0156 12.4062
L22.0156 0
L11.7188 0
z

M11.7188 51.7031
L22.0156 51.7031
L22.0156 39.3125
L11.7188 39.3125
z
" id="BitstreamVeraSans-Roman-3a"/>
     </defs>
     <g transform="translate(138.921875 46.6532178218)scale(0.2 -0.2)">
      <use xlink:href="#BitstreamVeraSans-Roman-31"/>
      <use x="63.623046875" xlink:href="#BitstreamVeraSans-Roman-3a"/>
      <use x="97.314453125" xlink:href="#BitstreamVeraSans-Roman-20"/>
      <use x="129.1015625" xlink:href="#BitstreamVeraSans-Roman-34"/>
      <use x="192.724609375" xlink:href="#BitstreamVeraSans-Roman-2f"/>
      <use x="226.416015625" xlink:href="#BitstreamVeraSans-Roman-34"/>
     </g>
    </g>
    <g id="line2d_154">
     <path d="
M88.9219 69.0095
L116.922 69.0095" style="fill:none;stroke:#00bfbf;stroke-linecap:square;"/>
    </g>
    <g id="line2d_155"/>
    <g id="text_18">
     <!-- -1: 2/4 -->
     <g transform="translate(138.921875 76.0094678218)scale(0.2 -0.2)">
      <use xlink:href="#BitstreamVeraSans-Roman-2d"/>
      <use x="36.083984375" xlink:href="#BitstreamVeraSans-Roman-31"/>
      <use x="99.70703125" xlink:href="#BitstreamVeraSans-Roman-3a"/>
      <use x="133.3984375" xlink:href="#BitstreamVeraSans-Roman-20"/>
      <use x="165.185546875" xlink:href="#BitstreamVeraSans-Roman-32"/>
      <use x="228.80859375" xlink:href="#BitstreamVeraSans-Roman-2f"/>
      <use x="262.5" xlink:href="#BitstreamVeraSans-Roman-34"/>
     </g>
    </g>
    <g id="line2d_156">
     <path d="
M88.9219 98.3657
L116.922 98.3657" style="fill:none;stroke:#bf00bf;stroke-linecap:square;"/>
    </g>
    <g id="line2d_157"/>
    <g id="text_19">
     <!-- -4: 1/4 -->
     <g transform="translate(138.921875 105.365717822)scale(0.2 -0.2)">
      <use xlink:href="#BitstreamVeraSans-Roman-2d"/>
      <use x="36.083984375" xlink:href="#BitstreamVeraSans-Roman-34"/>
      <use x="99.70703125" xlink:href="#BitstreamVeraSans-Roman-3a"/>
      <use x="133.3984375" xlink:href="#BitstreamVeraSans-Roman-20"/>
      <use x="165.185546875" xlink:href="#BitstreamVeraSans-Roman-31"/>
      <use x="228.80859375" xlink:href="#BitstreamVeraSans-Roman-2f"/>
      <use x="262.5" xlink:href="#BitstreamVeraSans-Roman-34"/>
     </g>
    </g>
    <g id="line2d_158">
     <path d="
M88.9219 127.722
L116.922 127.722" style="fill:none;stroke:#ff0000;stroke-linecap:square;stroke-width:3.0;"/>
    </g>
    <g id="line2d_159"/>
    <g id="text_20">
     <!-- -8: 0/4 -->
     <g transform="translate(138.921875 134.721967822)scale(0.2 -0.2)">
      <use xlink:href="#BitstreamVeraSans-Roman-2d"/>
      <use x="36.083984375" xlink:href="#BitstreamVeraSans-Roman-38"/>
      <use x="99.70703125" xlink:href="#BitstreamVeraSans-Roman-3a"/>
      <use x="133.3984375" xlink:href="#BitstreamVeraSans-Roman-20"/>
      <use x="165.185546875" xlink:href="#BitstreamVeraSans-Roman-30"/>
      <use x="228.80859375" xlink:href="#BitstreamVeraSans-Roman-2f"/>
      <use x="262.5" xlink:href="#BitstreamVeraSans-Roman-34"/>
     </g>
    </g>
   </g>
  </g>
 </g>
 <defs>
  <clipPath id="p4b24e7e61f">
   <rect height="345.6" width="446.4" x="64.921875" y="13.4563428218"/>
  </clipPath>
 </defs>
</svg>
