<?xml version="1.0" encoding="utf-8" standalone="no"?>
<!DOCTYPE svg PUBLIC "-//W3C//DTD SVG 1.1//EN"
  "http://www.w3.org/Graphics/SVG/1.1/DTD/svg11.dtd">
<!-- Created with matplotlib (http://matplotlib.org/) -->
<svg height="407pt" version="1.1" viewBox="0 0 460 407" width="460pt" xmlns="http://www.w3.org/2000/svg" xmlns:xlink="http://www.w3.org/1999/xlink">
 <defs>
  <style type="text/css">
*{stroke-linecap:butt;stroke-linejoin:round;}
  </style>
 </defs>
 <g id="figure_1">
  <g id="patch_1">
   <path d="
M0 407.712
L460.8 407.712
L460.8 0
L0 0
z
" style="fill:#ffffff;"/>
  </g>
  <g id="axes_1">
   <g id="patch_2">
    <path d="
M7.2 352.8
L453.6 352.8
L453.6 7.2
L7.2 7.2
z
" style="fill:#ffffff;"/>
   </g>
   <g id="line2d_1">
    <path clip-path="url(#p99b4b0da67)" d="
M-1 79.0574
L0.705741 79.0574
L0.705741 74.495
L2.81544 74.495
L2.81544 69.9327
L3.18141 69.9327
L3.18141 65.3703
L6.30111 65.3703
L6.30111 60.8079
L8.15732 60.8079
L8.15732 56.2455
L11.8965 56.2455
L11.8965 51.6832
L16.9998 51.6832
L16.9998 47.1208
L20.3106 47.1208
L20.3106 42.5584
L20.5745 42.5584
L20.5745 37.996
L25.1257 37.996
L25.1257 33.4337
L28.6181 33.4337
L28.6181 28.8713
L30.4773 28.8713
L30.4773 24.3089
L31.1892 24.3089
L31.1892 19.7465
L35.2439 19.7465
L35.2439 15.1842
L46.122 15.1842
L46.122 10.6218
L46.122 10.6218
L453.6 10.6218
L453.6 10.6218" style="fill:none;stroke:#ff0000;stroke-linecap:square;stroke-width:3.0;"/>
   </g>
   <g id="line2d_2">
    <path clip-path="url(#p99b4b0da67)" d="
M247.475 352.8
L247.475 348.238
L248.151 348.238
L248.151 343.675
L250.622 343.675
L250.622 339.113
L250.984 339.113
L251.006 329.988
L251.444 329.988
L251.444 325.426
L251.638 325.426
L251.638 320.863
L251.849 320.863
L251.849 316.301
L253.367 316.301
L253.367 311.739
L253.628 311.739
L253.696 302.614
L254.088 302.614
L254.088 298.051
L254.648 298.051
L254.709 288.927
L254.782 288.927
L254.804 279.802
L255.084 279.802
L255.084 275.24
L255.489 275.24
L255.489 270.677
L255.918 270.677
L255.918 266.115
L256.106 266.115
L256.106 261.552
L256.421 261.552
L256.421 256.99
L256.536 256.99
L256.573 247.865
L256.683 247.865
L256.683 243.303
L256.809 243.303
L256.809 238.741
L256.959 238.741
L257.059 229.616
L257.399 229.616
L257.399 225.053
L257.636 225.053
L257.636 220.491
L257.765 220.491
L257.765 215.929
L263.656 215.929
L263.656 211.366
L266.023 211.366
L266.023 206.804
L268.532 206.804
L268.532 202.242
L268.789 202.242
L268.837 193.117
L269.716 193.117
L269.716 188.554
L269.856 188.554
L269.856 183.992
L270.615 183.992
L270.615 179.43
L271.203 179.43
L271.203 174.867
L271.496 174.867
L271.496 170.305
L271.883 170.305
L271.883 165.743
L272.042 165.743
L272.042 161.18
L272.405 161.18
L272.405 156.618
L272.725 156.618
L272.725 152.055
L273.426 152.055
L273.426 147.493
L274.044 147.493
L274.044 142.931
L274.503 142.931
L274.503 138.368
L275.69 138.368
L275.69 133.806
L276.237 133.806
L276.237 129.244
L276.544 129.244
L276.649 120.119
L278.165 120.119
L278.165 115.556
L281.123 115.556
L281.123 110.994
L283.617 110.994
L283.617 106.432
L283.901 106.432
L283.901 101.869
L284.633 101.869
L284.633 97.3069
L285.858 97.3069
L285.858 92.7446
L287.926 92.7446
L287.926 88.1822
L289.224 88.1822
L289.224 83.6198
L292.131 83.6198
L292.131 79.0574
L345.341 79.0574
L345.341 74.495
L350.258 74.495
L350.258 69.9327
L359.692 69.9327
L359.692 65.3703
L360.94 65.3703
L360.94 60.8079
L365.258 60.8079
L365.258 56.2455
L365.448 56.2455
L365.448 51.6832
L366.709 51.6832
L366.709 47.1208
L367.31 47.1208
L367.31 42.5584
L368.945 42.5584
L368.945 37.996
L369.621 37.996
L369.621 33.4337
L370.681 33.4337
L370.681 28.8713
L372.891 28.8713
L372.891 24.3089
L373.12 24.3089
L373.12 19.7465
L375.981 19.7465
L375.981 15.1842
L380.459 15.1842
L380.459 10.6218
L380.459 10.6218
L453.6 10.6218
L453.6 10.6218" style="fill:none;stroke:#00bfbf;stroke-linecap:square;"/>
   </g>
   <g id="line2d_3">
    <path clip-path="url(#p99b4b0da67)" d="
M247.475 352.8
L247.475 348.238
L248.151 348.238
L248.151 343.675
L250.622 343.675
L250.622 339.113
L250.984 339.113
L251.006 329.988
L251.444 329.988
L251.444 325.426
L251.638 325.426
L251.638 320.863
L251.849 320.863
L251.849 316.301
L253.367 316.301
L253.367 311.739
L253.628 311.739
L253.696 302.614
L254.088 302.614
L254.088 298.051
L254.648 298.051
L254.709 288.927
L254.782 288.927
L254.804 279.802
L255.084 279.802
L255.084 275.24
L255.489 275.24
L255.489 270.677
L255.918 270.677
L255.918 266.115
L256.106 266.115
L256.106 261.552
L256.421 261.552
L256.421 256.99
L256.536 256.99
L256.573 247.865
L256.683 247.865
L256.683 243.303
L256.809 243.303
L256.809 238.741
L256.959 238.741
L257.059 229.616
L257.399 229.616
L257.399 225.053
L257.636 225.053
L257.636 220.491
L257.765 220.491
L257.765 215.929
L263.656 215.929
L263.656 211.366
L266.023 211.366
L266.023 206.804
L268.532 206.804
L268.532 202.242
L268.789 202.242
L268.837 193.117
L269.716 193.117
L269.716 188.554
L269.856 188.554
L269.856 183.992
L270.615 183.992
L270.615 179.43
L271.203 179.43
L271.203 174.867
L271.496 174.867
L271.496 170.305
L271.883 170.305
L271.883 165.743
L272.042 165.743
L272.042 161.18
L272.405 161.18
L272.405 156.618
L272.725 156.618
L272.725 152.055
L273.426 152.055
L273.426 147.493
L274.044 147.493
L274.044 142.931
L274.503 142.931
L274.503 138.368
L275.69 138.368
L275.69 133.806
L276.237 133.806
L276.237 129.244
L276.544 129.244
L276.649 120.119
L278.165 120.119
L278.165 115.556
L281.123 115.556
L281.123 110.994
L283.617 110.994
L283.617 106.432
L283.901 106.432
L283.901 101.869
L284.633 101.869
L284.633 97.3069
L285.858 97.3069
L285.858 92.7446
L287.926 92.7446
L287.926 88.1822
L289.224 88.1822
L289.224 83.6198
L292.131 83.6198
L292.131 79.0574
L345.341 79.0574
L345.341 74.495
L350.258 74.495
L350.258 69.9327
L359.692 69.9327
L359.692 65.3703
L360.94 65.3703
L360.94 60.8079
L365.258 60.8079
L365.258 56.2455
L365.448 56.2455
L365.448 51.6832
L366.709 51.6832
L366.709 47.1208
L367.31 47.1208
L367.31 42.5584
L368.945 42.5584
L368.945 37.996
L369.621 37.996
L369.621 33.4337
L370.681 33.4337
L370.681 28.8713
L372.891 28.8713
L372.891 24.3089
L373.12 24.3089
L373.12 19.7465
L375.981 19.7465
L375.981 15.1842
L380.459 15.1842
L380.459 10.6218
L380.459 10.6218
L453.6 10.6218
L453.6 10.6218" style="fill:none;stroke:#bf00bf;stroke-linecap:square;"/>
   </g>
   <g id="line2d_4">
    <path clip-path="url(#p99b4b0da67)" d="
M247.475 352.8
L247.475 348.238
L248.151 348.238
L248.151 343.675
L250.622 343.675
L250.622 339.113
L250.984 339.113
L251.006 329.988
L251.444 329.988
L251.444 325.426
L251.638 325.426
L251.638 320.863
L251.849 320.863
L251.849 316.301
L253.367 316.301
L253.367 311.739
L253.628 311.739
L253.696 302.614
L254.088 302.614
L254.088 298.051
L254.648 298.051
L254.709 288.927
L254.782 288.927
L254.804 279.802
L255.084 279.802
L255.084 275.24
L255.489 275.24
L255.489 270.677
L255.918 270.677
L255.918 266.115
L256.106 266.115
L256.106 261.552
L256.421 261.552
L256.421 256.99
L256.536 256.99
L256.573 247.865
L256.683 247.865
L256.683 243.303
L256.809 243.303
L256.809 238.741
L256.959 238.741
L257.059 229.616
L257.399 229.616
L257.399 225.053
L257.636 225.053
L257.636 220.491
L257.765 220.491
L257.765 215.929
L263.656 215.929
L263.656 211.366
L266.023 211.366
L266.023 206.804
L268.532 206.804
L268.532 202.242
L268.789 202.242
L268.837 193.117
L269.716 193.117
L269.716 188.554
L269.856 188.554
L269.856 183.992
L270.615 183.992
L270.615 179.43
L271.203 179.43
L271.203 174.867
L271.496 174.867
L271.496 170.305
L271.883 170.305
L271.883 165.743
L272.042 165.743
L272.042 161.18
L272.405 161.18
L272.405 156.618
L272.725 156.618
L272.725 152.055
L273.426 152.055
L273.426 147.493
L274.044 147.493
L274.044 142.931
L274.503 142.931
L274.503 138.368
L275.69 138.368
L275.69 133.806
L276.237 133.806
L276.237 129.244
L276.544 129.244
L276.649 120.119
L278.165 120.119
L278.165 115.556
L281.123 115.556
L281.123 110.994
L283.617 110.994
L283.617 106.432
L283.901 106.432
L283.901 101.869
L284.633 101.869
L284.633 97.3069
L285.858 97.3069
L285.858 92.7446
L287.926 92.7446
L287.926 88.1822
L289.224 88.1822
L289.224 83.6198
L292.131 83.6198
L292.131 79.0574
L345.341 79.0574
L345.341 74.495
L350.258 74.495
L350.258 69.9327
L359.692 69.9327
L359.692 65.3703
L360.94 65.3703
L360.94 60.8079
L365.258 60.8079
L365.258 56.2455
L365.448 56.2455
L365.448 51.6832
L366.709 51.6832
L366.709 47.1208
L367.31 47.1208
L367.31 42.5584
L368.945 42.5584
L368.945 37.996
L369.621 37.996
L369.621 33.4337
L370.681 33.4337
L370.681 28.8713
L372.891 28.8713
L372.891 24.3089
L373.12 24.3089
L373.12 19.7465
L375.981 19.7465
L375.981 15.1842
L380.459 15.1842
L380.459 10.6218
L380.459 10.6218
L453.6 10.6218
L453.6 10.6218" style="fill:none;stroke:#000000;stroke-linecap:square;"/>
   </g>
   <g id="line2d_5">
    <path clip-path="url(#p99b4b0da67)" d="
M247.475 352.8
L247.475 348.238
L248.151 348.238
L248.151 343.675
L250.622 343.675
L250.622 339.113
L250.984 339.113
L251.006 329.988
L251.444 329.988
L251.444 325.426
L251.638 325.426
L251.638 320.863
L251.849 320.863
L251.849 316.301
L253.367 316.301
L253.367 311.739
L253.628 311.739
L253.696 302.614
L254.088 302.614
L254.088 298.051
L254.648 298.051
L254.709 288.927
L254.782 288.927
L254.804 279.802
L255.084 279.802
L255.084 275.24
L255.489 275.24
L255.489 270.677
L255.918 270.677
L255.918 266.115
L256.106 266.115
L256.106 261.552
L256.421 261.552
L256.421 256.99
L256.536 256.99
L256.573 247.865
L256.683 247.865
L256.683 243.303
L256.809 243.303
L256.809 238.741
L256.926 238.741
L256.959 229.616
L257.059 229.616
L257.059 225.053
L257.399 225.053
L257.399 220.491
L257.636 220.491
L257.636 215.929
L257.765 215.929
L257.765 211.366
L263.656 211.366
L263.656 206.804
L266.023 206.804
L266.023 202.242
L268.532 202.242
L268.532 197.679
L268.789 197.679
L268.837 188.554
L269.716 188.554
L269.716 183.992
L269.856 183.992
L269.856 179.43
L270.615 179.43
L270.615 174.867
L271.203 174.867
L271.203 170.305
L271.496 170.305
L271.496 165.743
L271.883 165.743
L271.883 161.18
L272.042 161.18
L272.042 156.618
L272.405 156.618
L272.405 152.055
L272.725 152.055
L272.725 147.493
L273.426 147.493
L273.426 142.931
L274.044 142.931
L274.044 138.368
L274.503 138.368
L274.503 133.806
L275.69 133.806
L275.69 129.244
L276.237 129.244
L276.237 124.681
L276.544 124.681
L276.544 120.119
L278.165 120.119
L278.165 115.556
L281.123 115.556
L281.123 110.994
L283.617 110.994
L283.617 106.432
L283.901 106.432
L283.901 101.869
L284.633 101.869
L284.633 97.3069
L285.858 97.3069
L285.858 92.7446
L287.926 92.7446
L287.926 88.1822
L289.224 88.1822
L289.224 83.6198
L292.131 83.6198
L292.131 79.0574
L345.341 79.0574
L345.341 74.495
L350.258 74.495
L350.258 69.9327
L359.692 69.9327
L359.692 65.3703
L360.94 65.3703
L360.94 60.8079
L365.258 60.8079
L365.258 56.2455
L365.448 56.2455
L365.448 51.6832
L366.709 51.6832
L366.709 47.1208
L367.31 47.1208
L367.31 42.5584
L368.945 42.5584
L368.945 37.996
L369.621 37.996
L369.621 33.4337
L370.681 33.4337
L370.681 28.8713
L372.891 28.8713
L372.891 24.3089
L373.12 24.3089
L373.12 19.7465
L375.981 19.7465
L375.981 15.1842
L380.459 15.1842
L380.459 10.6218
L380.459 10.6218
L453.6 10.6218
L453.6 10.6218" style="fill:none;stroke:#00bfbf;stroke-linecap:square;"/>
   </g>
   <g id="line2d_6">
    <path clip-path="url(#p99b4b0da67)" d="
M220.842 352.8
L220.842 348.238
L221.441 348.238
L221.441 343.675
L222.513 343.675
L222.513 339.113
L225.382 339.113
L225.382 334.55
L225.538 334.55
L225.592 325.426
L225.864 325.426
L225.938 316.301
L226.701 316.301
L226.701 311.739
L227.298 311.739
L227.298 307.176
L227.621 307.176
L227.621 302.614
L227.982 302.614
L228.063 293.489
L228.715 293.489
L228.715 288.927
L231.826 288.927
L231.826 284.364
L237.65 284.364
L237.65 279.802
L238.691 279.802
L238.691 275.24
L239.35 275.24
L239.35 270.677
L239.942 270.677
L239.942 266.115
L240.139 266.115
L240.139 261.552
L240.35 261.552
L240.35 256.99
L240.676 256.99
L240.676 252.428
L240.835 252.428
L240.835 247.865
L241.221 247.865
L241.221 243.303
L241.612 243.303
L241.612 238.741
L241.728 238.741
L241.728 234.178
L241.933 234.178
L241.972 225.053
L242.215 225.053
L242.215 220.491
L242.898 220.491
L242.898 215.929
L249.473 215.929
L249.473 211.366
L249.804 211.366
L249.858 202.242
L250.164 202.242
L250.164 197.679
L250.294 197.679
L250.294 193.117
L250.733 193.117
L250.733 188.554
L251.228 188.554
L251.228 183.992
L251.531 183.992
L251.546 174.867
L251.893 174.867
L251.893 170.305
L252.107 170.305
L252.159 161.18
L252.276 161.18
L252.276 156.618
L252.824 156.618
L252.849 142.931
L253.314 142.931
L253.336 133.806
L253.491 133.806
L253.585 124.681
L254.019 124.681
L254.019 120.119
L254.421 120.119
L254.505 106.432
L254.668 106.432
L254.668 101.869
L254.922 101.869
L254.922 97.3069
L255.652 97.3069
L255.652 92.7446
L255.813 92.7446
L255.813 88.1822
L256.01 88.1822
L256.01 83.6198
L256.58 83.6198
L256.58 79.0574
L316.429 79.0574
L316.429 74.495
L317.667 74.495
L317.706 65.3703
L318.733 65.3703
L318.733 60.8079
L318.976 60.8079
L318.976 56.2455
L320.148 56.2455
L320.148 51.6832
L322.142 51.6832
L322.142 47.1208
L322.551 47.1208
L322.551 42.5584
L322.878 42.5584
L322.878 37.996
L323.954 37.996
L323.954 33.4337
L324.288 33.4337
L324.288 28.8713
L325.254 28.8713
L325.254 24.3089
L325.525 24.3089
L325.525 19.7465
L326.302 19.7465
L326.302 15.1842
L327.334 15.1842
L327.334 10.6218
L327.334 10.6218
L453.6 10.6218
L453.6 10.6218" style="fill:none;stroke:#bf00bf;stroke-linecap:square;"/>
   </g>
   <g id="line2d_7">
    <path clip-path="url(#p99b4b0da67)" d="
M-1 348.238
L219.501 348.238
L219.501 343.675
L222.051 343.675
L222.051 339.113
L226.831 339.113
L226.831 334.55
L227.815 334.55
L227.815 329.988
L228.012 329.988
L228.012 325.426
L229.777 325.426
L229.777 320.863
L231.205 320.863
L231.205 316.301
L233.36 316.301
L233.36 311.739
L233.523 311.739
L233.523 307.176
L234.178 307.176
L234.178 302.614
L236.413 302.614
L236.413 298.051
L236.59 298.051
L236.628 288.927
L237.084 288.927
L237.084 284.364
L237.867 284.364
L237.867 279.802
L238.167 279.802
L238.167 275.24
L239.513 275.24
L239.562 266.115
L240.813 266.115
L240.813 261.552
L241.939 261.552
L241.939 256.99
L242.733 256.99
L242.733 252.428
L243.07 252.428
L243.07 247.865
L244.236 247.865
L244.236 243.303
L244.501 243.303
L244.501 238.741
L245.234 238.741
L245.234 234.178
L245.682 234.178
L245.682 229.616
L245.949 229.616
L245.949 225.053
L246.351 225.053
L246.351 220.491
L247.37 220.491
L247.37 215.929
L247.862 215.929
L247.867 206.804
L248.873 206.804
L248.873 202.242
L249.048 202.242
L249.048 197.679
L249.412 197.679
L249.412 193.117
L250.332 193.117
L250.332 188.554
L250.862 188.554
L250.862 183.992
L251.085 183.992
L251.085 179.43
L251.451 179.43
L251.451 174.867
L251.806 174.867
L251.806 170.305
L252.843 170.305
L252.843 165.743
L253.523 165.743
L253.523 161.18
L254.234 161.18
L254.234 156.618
L255.148 156.618
L255.211 147.493
L255.304 147.493
L255.304 142.931
L255.866 142.931
L255.866 138.368
L256.037 138.368
L256.037 133.806
L257.443 133.806
L257.495 124.681
L257.798 124.681
L257.798 120.119
L258.105 120.119
L258.175 110.994
L258.556 110.994
L258.556 106.432
L258.714 106.432
L258.714 101.869
L259.524 101.869
L259.524 97.3069
L260.702 97.3069
L260.702 92.7446
L261.444 92.7446
L261.444 88.1822
L261.721 88.1822
L261.721 83.6198
L262.74 83.6198
L262.74 79.0574
L262.985 79.0574
L262.985 74.495
L263.133 74.495
L263.133 69.9327
L310.794 69.9327
L310.794 65.3703
L318.804 65.3703
L318.804 60.8079
L319.697 60.8079
L319.697 56.2455
L323.93 56.2455
L323.93 51.6832
L325.855 51.6832
L325.869 37.996
L329.198 37.996
L329.198 33.4337
L329.859 33.4337
L329.859 28.8713
L335.111 28.8713
L335.111 24.3089
L337.387 24.3089
L337.387 19.7465
L339.295 19.7465
L339.295 15.1842
L340.514 15.1842
L340.514 10.6218
L340.514 10.6218
L453.6 10.6218
L453.6 10.6218" style="fill:none;stroke:#000000;stroke-linecap:square;"/>
   </g>
   <g id="line2d_8">
    <path clip-path="url(#p99b4b0da67)" d="
M-1 284.364
L116.319 284.364
L116.319 279.802
L128.174 279.802
L128.174 275.24
L128.429 275.24
L128.429 270.677
L130.639 270.677
L130.639 266.115
L134.08 266.115
L134.08 261.552
L135.355 261.552
L135.355 256.99
L138.389 256.99
L138.434 247.865
L139.349 247.865
L139.349 243.303
L140.266 243.303
L140.266 238.741
L140.441 238.741
L140.441 234.178
L140.715 234.178
L140.715 229.616
L141.498 229.616
L141.498 225.053
L149.226 225.053
L149.226 220.491
L152.364 220.491
L152.364 215.929
L201.154 215.929
L201.154 211.366
L201.433 211.366
L201.433 206.804
L201.949 206.804
L201.949 202.242
L202.613 202.242
L202.613 197.679
L203.225 197.679
L203.25 188.554
L205.351 188.554
L205.351 183.992
L206.511 183.992
L206.511 179.43
L206.666 179.43
L206.676 170.305
L206.853 170.305
L206.853 165.743
L208.872 165.743
L208.872 161.18
L210.213 161.18
L210.229 152.055
L211.223 152.055
L211.223 147.493
L212.193 147.493
L212.193 142.931
L213.31 142.931
L213.31 138.368
L213.592 138.368
L213.596 129.244
L214.386 129.244
L214.386 124.681
L214.705 124.681
L214.705 120.119
L215.815 120.119
L215.815 115.556
L216.946 115.556
L216.946 110.994
L217.654 110.994
L217.654 106.432
L218.01 106.432
L218.01 101.869
L218.312 101.869
L218.312 97.3069
L218.763 97.3069
L218.871 88.1822
L219.154 88.1822
L219.154 83.6198
L219.42 83.6198
L219.42 79.0574
L221.539 79.0574
L221.539 74.495
L228.015 74.495
L228.015 69.9327
L228.359 69.9327
L228.359 65.3703
L231.114 65.3703
L231.114 60.8079
L240.93 60.8079
L240.93 56.2455
L244.58 56.2455
L244.58 51.6832
L245.799 51.6832
L245.799 47.1208
L246.131 47.1208
L246.131 42.5584
L247.624 42.5584
L247.624 37.996
L249.991 37.996
L249.991 33.4337
L250.672 33.4337
L250.672 28.8713
L251.729 28.8713
L251.729 24.3089
L251.919 24.3089
L251.919 19.7465
L253.906 19.7465
L253.906 15.1842
L255.122 15.1842
L255.122 10.6218
L255.122 10.6218
L453.6 10.6218
L453.6 10.6218" style="fill:none;stroke:#00bfbf;stroke-linecap:square;"/>
   </g>
   <g id="patch_3">
    <path d="
M7.2 7.2
L453.6 7.2" style="fill:none;stroke:#000000;stroke-linecap:square;stroke-linejoin:miter;"/>
   </g>
   <g id="patch_4">
    <path d="
M453.6 352.8
L453.6 7.2" style="fill:none;stroke:#000000;stroke-linecap:square;stroke-linejoin:miter;"/>
   </g>
   <g id="patch_5">
    <path d="
M7.2 352.8
L453.6 352.8" style="fill:none;stroke:#000000;stroke-linecap:square;stroke-linejoin:miter;"/>
   </g>
   <g id="patch_6">
    <path d="
M7.2 352.8
L7.2 7.2" style="fill:none;stroke:#000000;stroke-linecap:square;stroke-linejoin:miter;"/>
   </g>
   <g id="matplotlib.axis_1">
    <g id="xtick_1"/>
    <g id="xtick_2">
     <g id="line2d_9">
      <path clip-path="url(#p99b4b0da67)" d="
M54.0986 352.8
L54.0986 7.2" style="fill:none;stroke:#000000;stroke-dasharray:1.000000,3.000000;stroke-dashoffset:0.0;stroke-width:0.5;"/>
     </g>
     <g id="line2d_10">
      <defs>
       <path d="
M0 0
L0 -4" id="m93b0483c22" style="stroke:#000000;stroke-width:0.5;"/>
      </defs>
      <g>
       <use style="stroke:#000000;stroke-width:0.5;" x="54.0986107985" xlink:href="#m93b0483c22" y="352.8"/>
      </g>
     </g>
     <g id="line2d_11">
      <defs>
       <path d="
M0 0
L0 4" id="m741efc42ff" style="stroke:#000000;stroke-width:0.5;"/>
      </defs>
      <g>
       <use style="stroke:#000000;stroke-width:0.5;" x="54.0986107985" xlink:href="#m741efc42ff" y="7.2"/>
      </g>
     </g>
     <g id="text_1">
      <!-- -6 -->
      <defs>
       <path d="
M33.0156 40.375
Q26.375 40.375 22.4844 35.8281
Q18.6094 31.2969 18.6094 23.3906
Q18.6094 15.5312 22.4844 10.9531
Q26.375 6.39062 33.0156 6.39062
Q39.6562 6.39062 43.5312 10.9531
Q47.4062 15.5312 47.4062 23.3906
Q47.4062 31.2969 43.5312 35.8281
Q39.6562 40.375 33.0156 40.375
M52.5938 71.2969
L52.5938 62.3125
Q48.875 64.0625 45.0938 64.9844
Q41.3125 65.9219 37.5938 65.9219
Q27.8281 65.9219 22.6719 59.3281
Q17.5312 52.7344 16.7969 39.4062
Q19.6719 43.6562 24.0156 45.9219
Q28.375 48.1875 33.5938 48.1875
Q44.5781 48.1875 50.9531 41.5156
Q57.3281 34.8594 57.3281 23.3906
Q57.3281 12.1562 50.6875 5.35938
Q44.0469 -1.42188 33.0156 -1.42188
Q20.3594 -1.42188 13.6719 8.26562
Q6.98438 17.9688 6.98438 36.375
Q6.98438 53.6562 15.1875 63.9375
Q23.3906 74.2188 37.2031 74.2188
Q40.9219 74.2188 44.7031 73.4844
Q48.4844 72.75 52.5938 71.2969" id="BitstreamVeraSans-Roman-36"/>
       <path d="
M4.89062 31.3906
L31.2031 31.3906
L31.2031 23.3906
L4.89062 23.3906
z
" id="BitstreamVeraSans-Roman-2d"/>
      </defs>
      <g transform="translate(45.2470482985 371.996875)scale(0.2 -0.2)">
       <use xlink:href="#BitstreamVeraSans-Roman-2d"/>
       <use x="36.083984375" xlink:href="#BitstreamVeraSans-Roman-36"/>
      </g>
     </g>
    </g>
    <g id="xtick_3">
     <g id="line2d_12">
      <path clip-path="url(#p99b4b0da67)" d="
M101.099 352.8
L101.099 7.2" style="fill:none;stroke:#000000;stroke-dasharray:1.000000,3.000000;stroke-dashoffset:0.0;stroke-width:0.5;"/>
     </g>
     <g id="line2d_13">
      <g>
       <use style="stroke:#000000;stroke-width:0.5;" x="101.098774234" xlink:href="#m93b0483c22" y="352.8"/>
      </g>
     </g>
     <g id="line2d_14">
      <g>
       <use style="stroke:#000000;stroke-width:0.5;" x="101.098774234" xlink:href="#m741efc42ff" y="7.2"/>
      </g>
     </g>
     <g id="text_2">
      <!-- -4 -->
      <defs>
       <path d="
M37.7969 64.3125
L12.8906 25.3906
L37.7969 25.3906
z

M35.2031 72.9062
L47.6094 72.9062
L47.6094 25.3906
L58.0156 25.3906
L58.0156 17.1875
L47.6094 17.1875
L47.6094 0
L37.7969 0
L37.7969 17.1875
L4.89062 17.1875
L4.89062 26.7031
z
" id="BitstreamVeraSans-Roman-34"/>
      </defs>
      <g transform="translate(92.1784617339 371.996875)scale(0.2 -0.2)">
       <use xlink:href="#BitstreamVeraSans-Roman-2d"/>
       <use x="36.083984375" xlink:href="#BitstreamVeraSans-Roman-34"/>
      </g>
     </g>
    </g>
    <g id="xtick_4">
     <g id="line2d_15">
      <path clip-path="url(#p99b4b0da67)" d="
M148.099 352.8
L148.099 7.2" style="fill:none;stroke:#000000;stroke-dasharray:1.000000,3.000000;stroke-dashoffset:0.0;stroke-width:0.5;"/>
     </g>
     <g id="line2d_16">
      <g>
       <use style="stroke:#000000;stroke-width:0.5;" x="148.098937669" xlink:href="#m93b0483c22" y="352.8"/>
      </g>
     </g>
     <g id="line2d_17">
      <g>
       <use style="stroke:#000000;stroke-width:0.5;" x="148.098937669" xlink:href="#m741efc42ff" y="7.2"/>
      </g>
     </g>
     <g id="text_3">
      <!-- -2 -->
      <defs>
       <path d="
M19.1875 8.29688
L53.6094 8.29688
L53.6094 0
L7.32812 0
L7.32812 8.29688
Q12.9375 14.1094 22.625 23.8906
Q32.3281 33.6875 34.8125 36.5312
Q39.5469 41.8438 41.4219 45.5312
Q43.3125 49.2188 43.3125 52.7812
Q43.3125 58.5938 39.2344 62.25
Q35.1562 65.9219 28.6094 65.9219
Q23.9688 65.9219 18.8125 64.3125
Q13.6719 62.7031 7.8125 59.4219
L7.8125 69.3906
Q13.7656 71.7812 18.9375 73
Q24.125 74.2188 28.4219 74.2188
Q39.75 74.2188 46.4844 68.5469
Q53.2188 62.8906 53.2188 53.4219
Q53.2188 48.9219 51.5312 44.8906
Q49.8594 40.875 45.4062 35.4062
Q44.1875 33.9844 37.6406 27.2188
Q31.1094 20.4531 19.1875 8.29688" id="BitstreamVeraSans-Roman-32"/>
      </defs>
      <g transform="translate(139.619250169 371.996875)scale(0.2 -0.2)">
       <use xlink:href="#BitstreamVeraSans-Roman-2d"/>
       <use x="36.083984375" xlink:href="#BitstreamVeraSans-Roman-32"/>
      </g>
     </g>
    </g>
    <g id="xtick_5">
     <g id="line2d_18">
      <path clip-path="url(#p99b4b0da67)" d="
M195.099 352.8
L195.099 7.2" style="fill:none;stroke:#000000;stroke-dasharray:1.000000,3.000000;stroke-dashoffset:0.0;stroke-width:0.5;"/>
     </g>
     <g id="line2d_19">
      <g>
       <use style="stroke:#000000;stroke-width:0.5;" x="195.099101105" xlink:href="#m93b0483c22" y="352.8"/>
      </g>
     </g>
     <g id="line2d_20">
      <g>
       <use style="stroke:#000000;stroke-width:0.5;" x="195.099101105" xlink:href="#m741efc42ff" y="7.2"/>
      </g>
     </g>
     <g id="text_4">
      <!-- 0 -->
      <defs>
       <path d="
M31.7812 66.4062
Q24.1719 66.4062 20.3281 58.9062
Q16.5 51.4219 16.5 36.375
Q16.5 21.3906 20.3281 13.8906
Q24.1719 6.39062 31.7812 6.39062
Q39.4531 6.39062 43.2812 13.8906
Q47.125 21.3906 47.125 36.375
Q47.125 51.4219 43.2812 58.9062
Q39.4531 66.4062 31.7812 66.4062
M31.7812 74.2188
Q44.0469 74.2188 50.5156 64.5156
Q56.9844 54.8281 56.9844 36.375
Q56.9844 17.9688 50.5156 8.26562
Q44.0469 -1.42188 31.7812 -1.42188
Q19.5312 -1.42188 13.0625 8.26562
Q6.59375 17.9688 6.59375 36.375
Q6.59375 54.8281 13.0625 64.5156
Q19.5312 74.2188 31.7812 74.2188" id="BitstreamVeraSans-Roman-30"/>
      </defs>
      <g transform="translate(190.060038605 371.996875)scale(0.2 -0.2)">
       <use xlink:href="#BitstreamVeraSans-Roman-30"/>
      </g>
     </g>
    </g>
    <g id="xtick_6">
     <g id="line2d_21">
      <path clip-path="url(#p99b4b0da67)" d="
M242.099 352.8
L242.099 7.2" style="fill:none;stroke:#000000;stroke-dasharray:1.000000,3.000000;stroke-dashoffset:0.0;stroke-width:0.5;"/>
     </g>
     <g id="line2d_22">
      <g>
       <use style="stroke:#000000;stroke-width:0.5;" x="242.09926454" xlink:href="#m93b0483c22" y="352.8"/>
      </g>
     </g>
     <g id="line2d_23">
      <g>
       <use style="stroke:#000000;stroke-width:0.5;" x="242.09926454" xlink:href="#m741efc42ff" y="7.2"/>
      </g>
     </g>
     <g id="text_5">
      <!-- 2 -->
      <g transform="translate(237.47113954 371.996875)scale(0.2 -0.2)">
       <use xlink:href="#BitstreamVeraSans-Roman-32"/>
      </g>
     </g>
    </g>
    <g id="xtick_7">
     <g id="line2d_24">
      <path clip-path="url(#p99b4b0da67)" d="
M289.099 352.8
L289.099 7.2" style="fill:none;stroke:#000000;stroke-dasharray:1.000000,3.000000;stroke-dashoffset:0.0;stroke-width:0.5;"/>
     </g>
     <g id="line2d_25">
      <g>
       <use style="stroke:#000000;stroke-width:0.5;" x="289.099427976" xlink:href="#m93b0483c22" y="352.8"/>
      </g>
     </g>
     <g id="line2d_26">
      <g>
       <use style="stroke:#000000;stroke-width:0.5;" x="289.099427976" xlink:href="#m741efc42ff" y="7.2"/>
      </g>
     </g>
     <g id="text_6">
      <!-- 4 -->
      <g transform="translate(283.786927976 371.996875)scale(0.2 -0.2)">
       <use xlink:href="#BitstreamVeraSans-Roman-34"/>
      </g>
     </g>
    </g>
    <g id="xtick_8">
     <g id="line2d_27">
      <path clip-path="url(#p99b4b0da67)" d="
M336.1 352.8
L336.1 7.2" style="fill:none;stroke:#000000;stroke-dasharray:1.000000,3.000000;stroke-dashoffset:0.0;stroke-width:0.5;"/>
     </g>
     <g id="line2d_28">
      <g>
       <use style="stroke:#000000;stroke-width:0.5;" x="336.099591411" xlink:href="#m93b0483c22" y="352.8"/>
      </g>
     </g>
     <g id="line2d_29">
      <g>
       <use style="stroke:#000000;stroke-width:0.5;" x="336.099591411" xlink:href="#m741efc42ff" y="7.2"/>
      </g>
     </g>
     <g id="text_7">
      <!-- 6 -->
      <g transform="translate(331.065216411 371.996875)scale(0.2 -0.2)">
       <use xlink:href="#BitstreamVeraSans-Roman-36"/>
      </g>
     </g>
    </g>
    <g id="xtick_9">
     <g id="line2d_30">
      <path clip-path="url(#p99b4b0da67)" d="
M383.1 352.8
L383.1 7.2" style="fill:none;stroke:#000000;stroke-dasharray:1.000000,3.000000;stroke-dashoffset:0.0;stroke-width:0.5;"/>
     </g>
     <g id="line2d_31">
      <g>
       <use style="stroke:#000000;stroke-width:0.5;" x="383.099754847" xlink:href="#m93b0483c22" y="352.8"/>
      </g>
     </g>
     <g id="line2d_32">
      <g>
       <use style="stroke:#000000;stroke-width:0.5;" x="383.099754847" xlink:href="#m741efc42ff" y="7.2"/>
      </g>
     </g>
     <g id="text_8">
      <!-- 8 -->
      <defs>
       <path d="
M31.7812 34.625
Q24.75 34.625 20.7188 30.8594
Q16.7031 27.0938 16.7031 20.5156
Q16.7031 13.9219 20.7188 10.1562
Q24.75 6.39062 31.7812 6.39062
Q38.8125 6.39062 42.8594 10.1719
Q46.9219 13.9688 46.9219 20.5156
Q46.9219 27.0938 42.8906 30.8594
Q38.875 34.625 31.7812 34.625
M21.9219 38.8125
Q15.5781 40.375 12.0312 44.7188
Q8.5 49.0781 8.5 55.3281
Q8.5 64.0625 14.7188 69.1406
Q20.9531 74.2188 31.7812 74.2188
Q42.6719 74.2188 48.875 69.1406
Q55.0781 64.0625 55.0781 55.3281
Q55.0781 49.0781 51.5312 44.7188
Q48 40.375 41.7031 38.8125
Q48.8281 37.1562 52.7969 32.3125
Q56.7812 27.4844 56.7812 20.5156
Q56.7812 9.90625 50.3125 4.23438
Q43.8438 -1.42188 31.7812 -1.42188
Q19.7344 -1.42188 13.25 4.23438
Q6.78125 9.90625 6.78125 20.5156
Q6.78125 27.4844 10.7812 32.3125
Q14.7969 37.1562 21.9219 38.8125
M18.3125 54.3906
Q18.3125 48.7344 21.8438 45.5625
Q25.3906 42.3906 31.7812 42.3906
Q38.1406 42.3906 41.7188 45.5625
Q45.3125 48.7344 45.3125 54.3906
Q45.3125 60.0625 41.7188 63.2344
Q38.1406 66.4062 31.7812 66.4062
Q25.3906 66.4062 21.8438 63.2344
Q18.3125 60.0625 18.3125 54.3906" id="BitstreamVeraSans-Roman-38"/>
      </defs>
      <g transform="translate(378.099754847 371.996875)scale(0.2 -0.2)">
       <use xlink:href="#BitstreamVeraSans-Roman-38"/>
      </g>
     </g>
    </g>
    <g id="xtick_10">
     <g id="line2d_33">
      <path clip-path="url(#p99b4b0da67)" d="
M430.1 352.8
L430.1 7.2" style="fill:none;stroke:#000000;stroke-dasharray:1.000000,3.000000;stroke-dashoffset:0.0;stroke-width:0.5;"/>
     </g>
     <g id="line2d_34">
      <g>
       <use style="stroke:#000000;stroke-width:0.5;" x="430.099918282" xlink:href="#m93b0483c22" y="352.8"/>
      </g>
     </g>
     <g id="line2d_35">
      <g>
       <use style="stroke:#000000;stroke-width:0.5;" x="430.099918282" xlink:href="#m741efc42ff" y="7.2"/>
      </g>
     </g>
     <g id="text_9">
      <!-- 10 -->
      <defs>
       <path d="
M12.4062 8.29688
L28.5156 8.29688
L28.5156 63.9219
L10.9844 60.4062
L10.9844 69.3906
L28.4219 72.9062
L38.2812 72.9062
L38.2812 8.29688
L54.3906 8.29688
L54.3906 0
L12.4062 0
z
" id="BitstreamVeraSans-Roman-31"/>
      </defs>
      <g transform="translate(419.137418282 371.996875)scale(0.2 -0.2)">
       <use xlink:href="#BitstreamVeraSans-Roman-31"/>
       <use x="63.623046875" xlink:href="#BitstreamVeraSans-Roman-30"/>
      </g>
     </g>
    </g>
    <g id="xtick_11"/>
    <g id="xtick_12">
     <g id="line2d_36">
      <defs>
       <path d="
M0 0
L0 -2" id="m177f7580d0" style="stroke:#000000;stroke-width:0.5;"/>
      </defs>
      <g>
       <use style="stroke:#000000;stroke-width:0.5;" x="54.0986107985" xlink:href="#m177f7580d0" y="352.8"/>
      </g>
     </g>
     <g id="line2d_37">
      <defs>
       <path d="
M0 0
L0 2" id="m5284c7e2a0" style="stroke:#000000;stroke-width:0.5;"/>
      </defs>
      <g>
       <use style="stroke:#000000;stroke-width:0.5;" x="54.0986107985" xlink:href="#m5284c7e2a0" y="7.2"/>
      </g>
     </g>
    </g>
    <g id="xtick_13">
     <g id="line2d_38">
      <g>
       <use style="stroke:#000000;stroke-width:0.5;" x="101.098774234" xlink:href="#m177f7580d0" y="352.8"/>
      </g>
     </g>
     <g id="line2d_39">
      <g>
       <use style="stroke:#000000;stroke-width:0.5;" x="101.098774234" xlink:href="#m5284c7e2a0" y="7.2"/>
      </g>
     </g>
    </g>
    <g id="xtick_14">
     <g id="line2d_40">
      <g>
       <use style="stroke:#000000;stroke-width:0.5;" x="148.098937669" xlink:href="#m177f7580d0" y="352.8"/>
      </g>
     </g>
     <g id="line2d_41">
      <g>
       <use style="stroke:#000000;stroke-width:0.5;" x="148.098937669" xlink:href="#m5284c7e2a0" y="7.2"/>
      </g>
     </g>
    </g>
    <g id="xtick_15">
     <g id="line2d_42">
      <g>
       <use style="stroke:#000000;stroke-width:0.5;" x="195.099101105" xlink:href="#m177f7580d0" y="352.8"/>
      </g>
     </g>
     <g id="line2d_43">
      <g>
       <use style="stroke:#000000;stroke-width:0.5;" x="195.099101105" xlink:href="#m5284c7e2a0" y="7.2"/>
      </g>
     </g>
    </g>
    <g id="xtick_16">
     <g id="line2d_44">
      <g>
       <use style="stroke:#000000;stroke-width:0.5;" x="242.09926454" xlink:href="#m177f7580d0" y="352.8"/>
      </g>
     </g>
     <g id="line2d_45">
      <g>
       <use style="stroke:#000000;stroke-width:0.5;" x="242.09926454" xlink:href="#m5284c7e2a0" y="7.2"/>
      </g>
     </g>
    </g>
    <g id="xtick_17">
     <g id="line2d_46">
      <g>
       <use style="stroke:#000000;stroke-width:0.5;" x="289.099427976" xlink:href="#m177f7580d0" y="352.8"/>
      </g>
     </g>
     <g id="line2d_47">
      <g>
       <use style="stroke:#000000;stroke-width:0.5;" x="289.099427976" xlink:href="#m5284c7e2a0" y="7.2"/>
      </g>
     </g>
    </g>
    <g id="xtick_18">
     <g id="line2d_48">
      <g>
       <use style="stroke:#000000;stroke-width:0.5;" x="336.099591411" xlink:href="#m177f7580d0" y="352.8"/>
      </g>
     </g>
     <g id="line2d_49">
      <g>
       <use style="stroke:#000000;stroke-width:0.5;" x="336.099591411" xlink:href="#m5284c7e2a0" y="7.2"/>
      </g>
     </g>
    </g>
    <g id="xtick_19">
     <g id="line2d_50">
      <g>
       <use style="stroke:#000000;stroke-width:0.5;" x="383.099754847" xlink:href="#m177f7580d0" y="352.8"/>
      </g>
     </g>
     <g id="line2d_51">
      <g>
       <use style="stroke:#000000;stroke-width:0.5;" x="383.099754847" xlink:href="#m5284c7e2a0" y="7.2"/>
      </g>
     </g>
    </g>
    <g id="xtick_20">
     <g id="line2d_52">
      <g>
       <use style="stroke:#000000;stroke-width:0.5;" x="430.099918282" xlink:href="#m177f7580d0" y="352.8"/>
      </g>
     </g>
     <g id="line2d_53">
      <g>
       <use style="stroke:#000000;stroke-width:0.5;" x="430.099918282" xlink:href="#m5284c7e2a0" y="7.2"/>
      </g>
     </g>
    </g>
    <g id="text_10">
     <!-- log10 of Df -->
     <defs>
      <path id="BitstreamVeraSans-Roman-20"/>
      <path d="
M30.6094 48.3906
Q23.3906 48.3906 19.1875 42.75
Q14.9844 37.1094 14.9844 27.2969
Q14.9844 17.4844 19.1562 11.8438
Q23.3438 6.20312 30.6094 6.20312
Q37.7969 6.20312 41.9844 11.8594
Q46.1875 17.5312 46.1875 27.2969
Q46.1875 37.0156 41.9844 42.7031
Q37.7969 48.3906 30.6094 48.3906
M30.6094 56
Q42.3281 56 49.0156 48.375
Q55.7188 40.7656 55.7188 27.2969
Q55.7188 13.875 49.0156 6.21875
Q42.3281 -1.42188 30.6094 -1.42188
Q18.8438 -1.42188 12.1719 6.21875
Q5.51562 13.875 5.51562 27.2969
Q5.51562 40.7656 12.1719 48.375
Q18.8438 56 30.6094 56" id="BitstreamVeraSans-Roman-6f"/>
      <path d="
M9.42188 75.9844
L18.4062 75.9844
L18.4062 0
L9.42188 0
z
" id="BitstreamVeraSans-Roman-6c"/>
      <path d="
M19.6719 64.7969
L19.6719 8.10938
L31.5938 8.10938
Q46.6875 8.10938 53.6875 14.9375
Q60.6875 21.7812 60.6875 36.5312
Q60.6875 51.1719 53.6875 57.9844
Q46.6875 64.7969 31.5938 64.7969
z

M9.8125 72.9062
L30.0781 72.9062
Q51.2656 72.9062 61.1719 64.0938
Q71.0938 55.2812 71.0938 36.5312
Q71.0938 17.6719 61.125 8.82812
Q51.1719 0 30.0781 0
L9.8125 0
z
" id="BitstreamVeraSans-Roman-44"/>
      <path d="
M45.4062 27.9844
Q45.4062 37.75 41.375 43.1094
Q37.3594 48.4844 30.0781 48.4844
Q22.8594 48.4844 18.8281 43.1094
Q14.7969 37.75 14.7969 27.9844
Q14.7969 18.2656 18.8281 12.8906
Q22.8594 7.51562 30.0781 7.51562
Q37.3594 7.51562 41.375 12.8906
Q45.4062 18.2656 45.4062 27.9844
M54.3906 6.78125
Q54.3906 -7.17188 48.1875 -13.9844
Q42 -20.7969 29.2031 -20.7969
Q24.4688 -20.7969 20.2656 -20.0938
Q16.0625 -19.3906 12.1094 -17.9219
L12.1094 -9.1875
Q16.0625 -11.3281 19.9219 -12.3438
Q23.7812 -13.375 27.7812 -13.375
Q36.625 -13.375 41.0156 -8.76562
Q45.4062 -4.15625 45.4062 5.17188
L45.4062 9.625
Q42.625 4.78125 38.2812 2.39062
Q33.9375 0 27.875 0
Q17.8281 0 11.6719 7.65625
Q5.51562 15.3281 5.51562 27.9844
Q5.51562 40.6719 11.6719 48.3281
Q17.8281 56 27.875 56
Q33.9375 56 38.2812 53.6094
Q42.625 51.2188 45.4062 46.3906
L45.4062 54.6875
L54.3906 54.6875
z
" id="BitstreamVeraSans-Roman-67"/>
      <path d="
M37.1094 75.9844
L37.1094 68.5
L28.5156 68.5
Q23.6875 68.5 21.7969 66.5469
Q19.9219 64.5938 19.9219 59.5156
L19.9219 54.6875
L34.7188 54.6875
L34.7188 47.7031
L19.9219 47.7031
L19.9219 0
L10.8906 0
L10.8906 47.7031
L2.29688 47.7031
L2.29688 54.6875
L10.8906 54.6875
L10.8906 58.5
Q10.8906 67.625 15.1406 71.7969
Q19.3906 75.9844 28.6094 75.9844
z
" id="BitstreamVeraSans-Roman-66"/>
     </defs>
     <g transform="translate(175.0234375 396.353125)scale(0.2 -0.2)">
      <use xlink:href="#BitstreamVeraSans-Roman-6c"/>
      <use x="27.783203125" xlink:href="#BitstreamVeraSans-Roman-6f"/>
      <use x="88.96484375" xlink:href="#BitstreamVeraSans-Roman-67"/>
      <use x="152.44140625" xlink:href="#BitstreamVeraSans-Roman-31"/>
      <use x="216.064453125" xlink:href="#BitstreamVeraSans-Roman-30"/>
      <use x="279.6875" xlink:href="#BitstreamVeraSans-Roman-20"/>
      <use x="311.474609375" xlink:href="#BitstreamVeraSans-Roman-6f"/>
      <use x="372.65625" xlink:href="#BitstreamVeraSans-Roman-66"/>
      <use x="407.861328125" xlink:href="#BitstreamVeraSans-Roman-20"/>
      <use x="439.6484375" xlink:href="#BitstreamVeraSans-Roman-44"/>
      <use x="516.650390625" xlink:href="#BitstreamVeraSans-Roman-66"/>
     </g>
    </g>
   </g>
   <g id="matplotlib.axis_2">
    <g id="ytick_1">
     <g id="line2d_54">
      <path clip-path="url(#p99b4b0da67)" d="
M7.2 352.8
L453.6 352.8" style="fill:none;stroke:#000000;stroke-dasharray:1.000000,3.000000;stroke-dashoffset:0.0;stroke-width:0.5;"/>
     </g>
     <g id="line2d_55">
      <defs>
       <path d="
M0 0
L4 0" id="m728421d6d4" style="stroke:#000000;stroke-width:0.5;"/>
      </defs>
      <g>
       <use style="stroke:#000000;stroke-width:0.5;" x="7.2" xlink:href="#m728421d6d4" y="352.8"/>
      </g>
     </g>
     <g id="line2d_56">
      <defs>
       <path d="
M0 0
L-4 0" id="mcb0005524f" style="stroke:#000000;stroke-width:0.5;"/>
      </defs>
      <g>
       <use style="stroke:#000000;stroke-width:0.5;" x="453.6" xlink:href="#mcb0005524f" y="352.8"/>
      </g>
     </g>
    </g>
    <g id="ytick_2">
     <g id="line2d_57">
      <path clip-path="url(#p99b4b0da67)" d="
M7.2 284.364
L453.6 284.364" style="fill:none;stroke:#000000;stroke-dasharray:1.000000,3.000000;stroke-dashoffset:0.0;stroke-width:0.5;"/>
     </g>
     <g id="line2d_58">
      <g>
       <use style="stroke:#000000;stroke-width:0.5;" x="7.2" xlink:href="#m728421d6d4" y="284.364356436"/>
      </g>
     </g>
     <g id="line2d_59">
      <g>
       <use style="stroke:#000000;stroke-width:0.5;" x="453.6" xlink:href="#mcb0005524f" y="284.364356436"/>
      </g>
     </g>
    </g>
    <g id="ytick_3">
     <g id="line2d_60">
      <path clip-path="url(#p99b4b0da67)" d="
M7.2 215.929
L453.6 215.929" style="fill:none;stroke:#000000;stroke-dasharray:1.000000,3.000000;stroke-dashoffset:0.0;stroke-width:0.5;"/>
     </g>
     <g id="line2d_61">
      <g>
       <use style="stroke:#000000;stroke-width:0.5;" x="7.2" xlink:href="#m728421d6d4" y="215.928712871"/>
      </g>
     </g>
     <g id="line2d_62">
      <g>
       <use style="stroke:#000000;stroke-width:0.5;" x="453.6" xlink:href="#mcb0005524f" y="215.928712871"/>
      </g>
     </g>
    </g>
    <g id="ytick_4">
     <g id="line2d_63">
      <path clip-path="url(#p99b4b0da67)" d="
M7.2 147.493
L453.6 147.493" style="fill:none;stroke:#000000;stroke-dasharray:1.000000,3.000000;stroke-dashoffset:0.0;stroke-width:0.5;"/>
     </g>
     <g id="line2d_64">
      <g>
       <use style="stroke:#000000;stroke-width:0.5;" x="7.2" xlink:href="#m728421d6d4" y="147.493069307"/>
      </g>
     </g>
     <g id="line2d_65">
      <g>
       <use style="stroke:#000000;stroke-width:0.5;" x="453.6" xlink:href="#mcb0005524f" y="147.493069307"/>
      </g>
     </g>
    </g>
    <g id="ytick_5">
     <g id="line2d_66">
      <path clip-path="url(#p99b4b0da67)" d="
M7.2 79.0574
L453.6 79.0574" style="fill:none;stroke:#000000;stroke-dasharray:1.000000,3.000000;stroke-dashoffset:0.0;stroke-width:0.5;"/>
     </g>
     <g id="line2d_67">
      <g>
       <use style="stroke:#000000;stroke-width:0.5;" x="7.2" xlink:href="#m728421d6d4" y="79.0574257426"/>
      </g>
     </g>
     <g id="line2d_68">
      <g>
       <use style="stroke:#000000;stroke-width:0.5;" x="453.6" xlink:href="#mcb0005524f" y="79.0574257426"/>
      </g>
     </g>
    </g>
    <g id="ytick_6">
     <g id="line2d_69">
      <path clip-path="url(#p99b4b0da67)" d="
M7.2 10.6218
L453.6 10.6218" style="fill:none;stroke:#000000;stroke-dasharray:1.000000,3.000000;stroke-dashoffset:0.0;stroke-width:0.5;"/>
     </g>
     <g id="line2d_70">
      <g>
       <use style="stroke:#000000;stroke-width:0.5;" x="7.2" xlink:href="#m728421d6d4" y="10.6217821782"/>
      </g>
     </g>
     <g id="line2d_71">
      <g>
       <use style="stroke:#000000;stroke-width:0.5;" x="453.6" xlink:href="#mcb0005524f" y="10.6217821782"/>
      </g>
     </g>
    </g>
   </g>
   <g id="text_11">
    <!-- {f1-f5}, 20-D -->
    <defs>
     <path d="
M12.5 -9.28125
L15.9219 -9.28125
Q22.75 -9.28125 24.8281 -7.17188
Q26.9062 -5.07812 26.9062 1.90625
L26.9062 14.0156
Q26.9062 21.625 29.0938 25.0938
Q31.2969 28.5625 36.7188 29.8906
Q31.2969 31.1094 29.0938 34.5625
Q26.9062 38.0312 26.9062 45.7031
L26.9062 57.8125
Q26.9062 64.75 24.8281 66.875
Q22.75 69 15.9219 69
L12.5 69
L12.5 75.9844
L15.5781 75.9844
Q27.7344 75.9844 31.8125 72.3906
Q35.8906 68.7969 35.8906 58.0156
L35.8906 46.2969
Q35.8906 39.0156 38.5156 36.2031
Q41.1562 33.4062 48.0938 33.4062
L51.125 33.4062
L51.125 26.4219
L48.0938 26.4219
Q41.1562 26.4219 38.5156 23.5781
Q35.8906 20.75 35.8906 13.375
L35.8906 1.70312
Q35.8906 -9.07812 31.8125 -12.6875
Q27.7344 -16.3125 15.5781 -16.3125
L12.5 -16.3125
z
" id="BitstreamVeraSans-Roman-7d"/>
     <path d="
M51.125 -9.28125
L51.125 -16.3125
L48.0938 -16.3125
Q35.9375 -16.3125 31.8125 -12.6875
Q27.6875 -9.07812 27.6875 1.70312
L27.6875 13.375
Q27.6875 20.75 25.0469 23.5781
Q22.4062 26.4219 15.4844 26.4219
L12.5 26.4219
L12.5 33.4062
L15.4844 33.4062
Q22.4688 33.4062 25.0781 36.2031
Q27.6875 39.0156 27.6875 46.2969
L27.6875 58.0156
Q27.6875 68.7969 31.8125 72.3906
Q35.9375 75.9844 48.0938 75.9844
L51.125 75.9844
L51.125 69
L47.7969 69
Q40.9219 69 38.8125 66.8438
Q36.7188 64.7031 36.7188 57.8125
L36.7188 45.7031
Q36.7188 38.0312 34.5 34.5625
Q32.2812 31.1094 26.9062 29.8906
Q32.3281 28.5625 34.5156 25.0938
Q36.7188 21.625 36.7188 14.0156
L36.7188 1.90625
Q36.7188 -4.98438 38.8125 -7.125
Q40.9219 -9.28125 47.7969 -9.28125
z
" id="BitstreamVeraSans-Roman-7b"/>
     <path d="
M11.7188 12.4062
L22.0156 12.4062
L22.0156 4
L14.0156 -11.625
L7.71875 -11.625
L11.7188 4
z
" id="BitstreamVeraSans-Roman-2c"/>
     <path d="
M10.7969 72.9062
L49.5156 72.9062
L49.5156 64.5938
L19.8281 64.5938
L19.8281 46.7344
Q21.9688 47.4688 24.1094 47.8281
Q26.2656 48.1875 28.4219 48.1875
Q40.625 48.1875 47.75 41.5
Q54.8906 34.8125 54.8906 23.3906
Q54.8906 11.625 47.5625 5.09375
Q40.2344 -1.42188 26.9062 -1.42188
Q22.3125 -1.42188 17.5469 -0.640625
Q12.7969 0.140625 7.71875 1.70312
L7.71875 11.625
Q12.1094 9.23438 16.7969 8.0625
Q21.4844 6.89062 26.7031 6.89062
Q35.1562 6.89062 40.0781 11.3281
Q45.0156 15.7656 45.0156 23.3906
Q45.0156 31 40.0781 35.4375
Q35.1562 39.8906 26.7031 39.8906
Q22.75 39.8906 18.8125 39.0156
Q14.8906 38.1406 10.7969 36.2812
z
" id="BitstreamVeraSans-Roman-35"/>
    </defs>
    <g transform="translate(312.87825 345.888)scale(0.2 -0.2)">
     <use xlink:href="#BitstreamVeraSans-Roman-7b"/>
     <use x="63.623046875" xlink:href="#BitstreamVeraSans-Roman-66"/>
     <use x="98.828125" xlink:href="#BitstreamVeraSans-Roman-31"/>
     <use x="162.451171875" xlink:href="#BitstreamVeraSans-Roman-2d"/>
     <use x="198.53515625" xlink:href="#BitstreamVeraSans-Roman-66"/>
     <use x="233.740234375" xlink:href="#BitstreamVeraSans-Roman-35"/>
     <use x="297.36328125" xlink:href="#BitstreamVeraSans-Roman-7d"/>
     <use x="360.986328125" xlink:href="#BitstreamVeraSans-Roman-2c"/>
     <use x="392.7734375" xlink:href="#BitstreamVeraSans-Roman-20"/>
     <use x="424.560546875" xlink:href="#BitstreamVeraSans-Roman-32"/>
     <use x="488.18359375" xlink:href="#BitstreamVeraSans-Roman-30"/>
     <use x="551.806640625" xlink:href="#BitstreamVeraSans-Roman-2d"/>
     <use x="587.890625" xlink:href="#BitstreamVeraSans-Roman-44"/>
    </g>
   </g>
   <g id="text_12">
    <!-- v2.1 -->
    <defs>
     <path d="
M2.98438 54.6875
L12.5 54.6875
L29.5938 8.79688
L46.6875 54.6875
L56.2031 54.6875
L35.6875 0
L23.4844 0
z
" id="BitstreamVeraSans-Roman-76"/>
     <path d="
M10.6875 12.4062
L21 12.4062
L21 0
L10.6875 0
z
" id="BitstreamVeraSans-Roman-2e"/>
    </defs>
    <g style="fill:#808080;" transform="translate(220.1 347.2643125)scale(0.1 -0.1)">
     <use xlink:href="#BitstreamVeraSans-Roman-76"/>
     <use x="59.1796875" xlink:href="#BitstreamVeraSans-Roman-32"/>
     <use x="122.802734375" xlink:href="#BitstreamVeraSans-Roman-2e"/>
     <use x="154.58984375" xlink:href="#BitstreamVeraSans-Roman-31"/>
    </g>
   </g>
  </g>
 </g>
 <defs>
  <clipPath id="p99b4b0da67">
   <rect height="345.6" width="446.4" x="7.2" y="7.2"/>
  </clipPath>
 </defs>
</svg>
