<?xml version="1.0" encoding="utf-8" standalone="no"?>
<!DOCTYPE svg PUBLIC "-//W3C//DTD SVG 1.1//EN"
  "http://www.w3.org/Graphics/SVG/1.1/DTD/svg11.dtd">
<!-- Created with matplotlib (http://matplotlib.org/) -->
<svg height="407pt" version="1.1" viewBox="0 0 460 407" width="460pt" xmlns="http://www.w3.org/2000/svg" xmlns:xlink="http://www.w3.org/1999/xlink">
 <defs>
  <style type="text/css">
*{stroke-linecap:butt;stroke-linejoin:round;}
  </style>
 </defs>
 <g id="figure_1">
  <g id="patch_1">
   <path d="
M0 407.712
L460.8 407.712
L460.8 0
L0 0
z
" style="fill:#ffffff;"/>
  </g>
  <g id="axes_1">
   <g id="patch_2">
    <path d="
M7.2 352.8
L453.6 352.8
L453.6 7.2
L7.2 7.2
z
" style="fill:#ffffff;"/>
   </g>
   <g id="line2d_1">
    <path clip-path="url(#p99b4b0da67)" d="
M-1 284.364
L7.0928 284.364
L7.0928 83.6198
L93.0376 83.6198
L93.0376 79.0574
L93.8816 79.0574
L93.8816 74.495
L99.2463 74.495
L99.2463 69.9327
L106.004 69.9327
L106.004 65.3703
L108.075 65.3703
L108.075 60.8079
L109.415 60.8079
L109.415 56.2455
L111.087 56.2455
L111.087 51.6832
L118.004 51.6832
L118.004 47.1208
L120.856 47.1208
L120.856 42.5584
L121.602 42.5584
L121.602 37.996
L124.886 37.996
L124.886 33.4337
L128.8 33.4337
L128.8 28.8713
L131.51 28.8713
L131.51 24.3089
L133.747 24.3089
L133.747 19.7465
L136.052 19.7465
L136.113 10.6218
L136.113 10.6218
L453.6 10.6218
L453.6 10.6218" style="fill:none;stroke:#ff0000;stroke-linecap:square;stroke-width:3.0;"/>
   </g>
   <g id="line2d_2">
    <path clip-path="url(#p99b4b0da67)" d="
M235.195 352.8
L235.195 348.238
L237.836 348.238
L237.836 343.675
L239.879 343.675
L239.879 339.113
L240.342 339.113
L240.342 334.55
L244.03 334.55
L244.03 329.988
L246.246 329.988
L246.246 325.426
L248.118 325.426
L248.118 320.863
L248.548 320.863
L248.548 316.301
L249.616 316.301
L249.705 307.176
L250.491 307.176
L250.491 302.614
L251.556 302.614
L251.643 293.489
L251.916 293.489
L251.916 288.927
L253.629 288.927
L253.629 284.364
L253.83 284.364
L253.83 279.802
L254.061 279.802
L254.061 275.24
L254.486 275.24
L254.486 270.677
L255.034 270.677
L255.114 261.552
L255.335 261.552
L255.366 252.428
L256.133 252.428
L256.133 247.865
L256.286 247.865
L256.286 243.303
L257.34 243.303
L257.34 238.741
L257.454 238.741
L257.456 229.616
L257.926 229.616
L257.926 225.053
L258.075 225.053
L258.075 220.491
L258.661 220.491
L258.661 215.929
L260.552 215.929
L260.552 211.366
L260.708 211.366
L260.708 206.804
L261.601 206.804
L261.601 202.242
L261.974 202.242
L261.974 197.679
L263.062 197.679
L263.062 193.117
L263.809 193.117
L263.809 188.554
L264.823 188.554
L264.823 183.992
L265.254 183.992
L265.254 179.43
L265.977 179.43
L265.977 174.867
L266.682 174.867
L266.682 170.305
L266.806 170.305
L266.806 165.743
L267.149 165.743
L267.149 161.18
L267.972 161.18
L268.068 152.055
L269.758 152.055
L269.758 147.493
L270.521 147.493
L270.521 142.931
L271.297 142.931
L271.379 129.244
L271.435 129.244
L271.435 124.681
L271.587 124.681
L271.676 115.556
L274.427 115.556
L274.427 110.994
L275.111 110.994
L275.111 106.432
L275.706 106.432
L275.706 101.869
L277.034 101.869
L277.034 97.3069
L281.44 97.3069
L281.44 92.7446
L292.704 92.7446
L292.704 88.1822
L296.07 88.1822
L296.07 83.6198
L299.063 83.6198
L299.063 79.0574
L348.047 79.0574
L348.047 74.495
L350.009 74.495
L350.009 69.9327
L354.131 69.9327
L354.131 65.3703
L364.427 65.3703
L364.427 60.8079
L366.36 60.8079
L366.36 56.2455
L367.702 56.2455
L367.702 51.6832
L372.424 51.6832
L372.424 47.1208
L374.535 47.1208
L374.535 42.5584
L374.827 42.5584
L374.827 37.996
L375.099 37.996
L375.099 33.4337
L377.177 33.4337
L377.177 28.8713
L383.275 28.8713
L383.275 24.3089
L384.177 24.3089
L384.177 19.7465
L387.737 19.7465
L387.737 15.1842
L395.989 15.1842
L395.989 10.6218
L395.989 10.6218
L453.6 10.6218
L453.6 10.6218" style="fill:none;stroke:#00bfbf;stroke-linecap:square;"/>
   </g>
   <g id="line2d_3">
    <path clip-path="url(#p99b4b0da67)" d="
M235.195 352.8
L235.195 348.238
L237.836 348.238
L237.836 343.675
L239.879 343.675
L239.879 339.113
L240.342 339.113
L240.342 334.55
L244.03 334.55
L244.03 329.988
L246.246 329.988
L246.246 325.426
L248.118 325.426
L248.118 320.863
L248.548 320.863
L248.548 316.301
L249.616 316.301
L249.705 307.176
L250.491 307.176
L250.491 302.614
L251.556 302.614
L251.643 293.489
L251.916 293.489
L251.916 288.927
L253.629 288.927
L253.629 284.364
L253.83 284.364
L253.83 279.802
L254.061 279.802
L254.061 275.24
L254.486 275.24
L254.486 270.677
L255.034 270.677
L255.114 261.552
L255.335 261.552
L255.366 252.428
L256.133 252.428
L256.133 247.865
L256.286 247.865
L256.286 243.303
L257.34 243.303
L257.34 238.741
L257.454 238.741
L257.456 229.616
L257.926 229.616
L257.926 225.053
L258.075 225.053
L258.075 220.491
L258.661 220.491
L258.661 215.929
L260.552 215.929
L260.552 211.366
L260.708 211.366
L260.708 206.804
L261.601 206.804
L261.601 202.242
L261.974 202.242
L261.974 197.679
L263.062 197.679
L263.062 193.117
L263.809 193.117
L263.809 188.554
L264.823 188.554
L264.823 183.992
L265.254 183.992
L265.254 179.43
L265.977 179.43
L265.977 174.867
L266.682 174.867
L266.682 170.305
L266.806 170.305
L266.806 165.743
L267.149 165.743
L267.149 161.18
L267.972 161.18
L268.068 152.055
L269.758 152.055
L269.758 147.493
L270.521 147.493
L270.521 142.931
L271.297 142.931
L271.379 129.244
L271.435 129.244
L271.435 124.681
L271.587 124.681
L271.676 115.556
L274.427 115.556
L274.427 110.994
L275.111 110.994
L275.111 106.432
L275.706 106.432
L275.706 101.869
L277.034 101.869
L277.034 97.3069
L281.44 97.3069
L281.44 92.7446
L292.704 92.7446
L292.704 88.1822
L296.07 88.1822
L296.07 83.6198
L299.063 83.6198
L299.063 79.0574
L348.047 79.0574
L348.047 74.495
L350.009 74.495
L350.009 69.9327
L354.131 69.9327
L354.131 65.3703
L364.427 65.3703
L364.427 60.8079
L366.36 60.8079
L366.36 56.2455
L367.702 56.2455
L367.702 51.6832
L372.424 51.6832
L372.424 47.1208
L374.535 47.1208
L374.535 42.5584
L374.827 42.5584
L374.827 37.996
L375.099 37.996
L375.099 33.4337
L377.177 33.4337
L377.177 28.8713
L383.275 28.8713
L383.275 24.3089
L384.177 24.3089
L384.177 19.7465
L387.737 19.7465
L387.737 15.1842
L395.989 15.1842
L395.989 10.6218
L395.989 10.6218
L453.6 10.6218
L453.6 10.6218" style="fill:none;stroke:#bf00bf;stroke-linecap:square;"/>
   </g>
   <g id="line2d_4">
    <path clip-path="url(#p99b4b0da67)" d="
M235.195 352.8
L235.195 348.238
L237.836 348.238
L237.836 343.675
L239.879 343.675
L239.879 339.113
L240.342 339.113
L240.342 334.55
L244.03 334.55
L244.03 329.988
L246.246 329.988
L246.246 325.426
L248.118 325.426
L248.118 320.863
L248.548 320.863
L248.548 316.301
L249.616 316.301
L249.705 307.176
L250.491 307.176
L250.491 302.614
L251.556 302.614
L251.643 293.489
L251.916 293.489
L251.916 288.927
L253.629 288.927
L253.629 284.364
L253.83 284.364
L253.83 279.802
L254.061 279.802
L254.061 275.24
L254.486 275.24
L254.486 270.677
L255.034 270.677
L255.114 261.552
L255.335 261.552
L255.366 252.428
L256.133 252.428
L256.133 247.865
L256.286 247.865
L256.286 243.303
L257.34 243.303
L257.34 238.741
L257.454 238.741
L257.456 229.616
L257.926 229.616
L257.926 225.053
L258.075 225.053
L258.075 220.491
L258.661 220.491
L258.661 215.929
L260.552 215.929
L260.552 211.366
L260.708 211.366
L260.708 206.804
L261.601 206.804
L261.601 202.242
L261.974 202.242
L261.974 197.679
L263.062 197.679
L263.062 193.117
L263.809 193.117
L263.809 188.554
L264.823 188.554
L264.823 183.992
L265.254 183.992
L265.254 179.43
L265.977 179.43
L265.977 174.867
L266.682 174.867
L266.682 170.305
L266.806 170.305
L266.806 165.743
L267.149 165.743
L267.149 161.18
L267.972 161.18
L268.068 152.055
L269.758 152.055
L269.758 147.493
L270.521 147.493
L270.521 142.931
L271.297 142.931
L271.379 129.244
L271.435 129.244
L271.435 124.681
L271.587 124.681
L271.676 115.556
L274.427 115.556
L274.427 110.994
L275.111 110.994
L275.111 106.432
L275.706 106.432
L275.706 101.869
L277.034 101.869
L277.034 97.3069
L281.44 97.3069
L281.44 92.7446
L292.704 92.7446
L292.704 88.1822
L296.07 88.1822
L296.07 83.6198
L299.063 83.6198
L299.063 79.0574
L348.047 79.0574
L348.047 74.495
L350.009 74.495
L350.009 69.9327
L354.131 69.9327
L354.131 65.3703
L364.427 65.3703
L364.427 60.8079
L366.36 60.8079
L366.36 56.2455
L367.702 56.2455
L367.702 51.6832
L372.424 51.6832
L372.424 47.1208
L374.535 47.1208
L374.535 42.5584
L374.827 42.5584
L374.827 37.996
L375.099 37.996
L375.099 33.4337
L377.177 33.4337
L377.177 28.8713
L383.275 28.8713
L383.275 24.3089
L384.177 24.3089
L384.177 19.7465
L387.737 19.7465
L387.737 15.1842
L395.989 15.1842
L395.989 10.6218
L395.989 10.6218
L453.6 10.6218
L453.6 10.6218" style="fill:none;stroke:#000000;stroke-linecap:square;"/>
   </g>
   <g id="line2d_5">
    <path clip-path="url(#p99b4b0da67)" d="
M235.195 352.8
L235.195 348.238
L237.836 348.238
L237.836 343.675
L239.879 343.675
L239.879 339.113
L240.342 339.113
L240.342 334.55
L244.03 334.55
L244.03 329.988
L246.246 329.988
L246.246 325.426
L248.118 325.426
L248.118 320.863
L248.548 320.863
L248.548 316.301
L249.616 316.301
L249.705 307.176
L250.491 307.176
L250.491 302.614
L251.556 302.614
L251.643 293.489
L251.916 293.489
L251.916 288.927
L253.629 288.927
L253.629 284.364
L253.83 284.364
L253.83 279.802
L254.061 279.802
L254.061 275.24
L254.486 275.24
L254.486 270.677
L255.034 270.677
L255.114 261.552
L255.335 261.552
L255.366 252.428
L256.133 252.428
L256.133 247.865
L256.286 247.865
L256.286 243.303
L257.34 243.303
L257.34 238.741
L257.454 238.741
L257.456 229.616
L257.926 229.616
L257.926 225.053
L258.075 225.053
L258.075 220.491
L258.661 220.491
L258.661 215.929
L260.552 215.929
L260.552 211.366
L260.708 211.366
L260.708 206.804
L261.601 206.804
L261.601 202.242
L261.974 202.242
L261.974 197.679
L263.062 197.679
L263.062 193.117
L263.809 193.117
L263.809 188.554
L264.823 188.554
L264.823 183.992
L265.254 183.992
L265.254 179.43
L265.977 179.43
L265.977 174.867
L266.682 174.867
L266.682 170.305
L266.806 170.305
L266.806 165.743
L267.149 165.743
L267.149 161.18
L267.972 161.18
L268.068 152.055
L269.758 152.055
L269.758 147.493
L270.521 147.493
L270.521 142.931
L271.297 142.931
L271.379 129.244
L271.435 129.244
L271.435 124.681
L271.587 124.681
L271.676 115.556
L274.427 115.556
L274.427 110.994
L275.111 110.994
L275.111 106.432
L275.706 106.432
L275.706 101.869
L277.034 101.869
L277.034 97.3069
L281.44 97.3069
L281.44 92.7446
L292.704 92.7446
L292.704 88.1822
L296.07 88.1822
L296.07 83.6198
L299.063 83.6198
L299.063 79.0574
L348.047 79.0574
L348.047 74.495
L350.009 74.495
L350.009 69.9327
L354.131 69.9327
L354.131 65.3703
L364.427 65.3703
L364.427 60.8079
L366.36 60.8079
L366.36 56.2455
L367.702 56.2455
L367.702 51.6832
L372.424 51.6832
L372.424 47.1208
L374.535 47.1208
L374.535 42.5584
L374.827 42.5584
L374.827 37.996
L375.099 37.996
L375.099 33.4337
L377.177 33.4337
L377.177 28.8713
L383.275 28.8713
L383.275 24.3089
L384.177 24.3089
L384.177 19.7465
L387.737 19.7465
L387.737 15.1842
L395.989 15.1842
L395.989 10.6218
L395.989 10.6218
L453.6 10.6218
L453.6 10.6218" style="fill:none;stroke:#00bfbf;stroke-linecap:square;"/>
   </g>
   <g id="line2d_6">
    <path clip-path="url(#p99b4b0da67)" d="
M201.728 352.8
L201.728 348.238
L205.647 348.238
L205.647 343.675
L207.874 343.675
L207.874 339.113
L208.971 339.113
L208.971 334.55
L212.373 334.55
L212.373 329.988
L213.359 329.988
L213.359 325.426
L216.255 325.426
L216.255 320.863
L220.705 320.863
L220.705 316.301
L221.111 316.301
L221.111 311.739
L221.993 311.739
L222.013 302.614
L222.303 302.614
L222.303 298.051
L224.828 298.051
L224.828 293.489
L225.332 293.489
L225.332 288.927
L227.461 288.927
L227.461 284.364
L230.463 284.364
L230.463 279.802
L233.411 279.802
L233.411 275.24
L234.15 275.24
L234.261 266.115
L234.483 266.115
L234.483 261.552
L235.009 261.552
L235.009 256.99
L236.496 256.99
L236.496 252.428
L236.678 252.428
L236.678 247.865
L236.854 247.865
L236.854 243.303
L238.005 243.303
L238.005 238.741
L239.153 238.741
L239.153 234.178
L239.485 234.178
L239.485 229.616
L240.613 229.616
L240.613 225.053
L240.856 225.053
L240.856 220.491
L242.316 220.491
L242.316 215.929
L244.073 215.929
L244.073 211.366
L244.302 211.366
L244.302 206.804
L244.685 206.804
L244.685 202.242
L245.472 202.242
L245.472 197.679
L245.629 197.679
L245.74 188.554
L246.257 188.554
L246.327 179.43
L247.949 179.43
L247.949 174.867
L248.062 174.867
L248.136 156.618
L248.189 156.618
L248.279 147.493
L248.359 147.493
L248.359 142.931
L248.658 142.931
L248.658 138.368
L248.828 138.368
L248.828 133.806
L249.671 133.806
L249.671 129.244
L249.864 129.244
L249.957 115.556
L250.08 115.556
L250.08 110.994
L250.292 110.994
L250.292 106.432
L250.457 106.432
L250.457 101.869
L251.296 101.869
L251.296 97.3069
L251.629 97.3069
L251.629 92.7446
L252.279 92.7446
L252.279 88.1822
L253.286 88.1822
L253.286 83.6198
L255.919 83.6198
L255.919 79.0574
L286.47 79.0574
L286.47 74.495
L291.361 74.495
L291.361 69.9327
L298.311 69.9327
L298.311 65.3703
L305.38 65.3703
L305.38 60.8079
L306.985 60.8079
L306.985 56.2455
L307.734 56.2455
L307.734 51.6832
L308.738 51.6832
L308.738 47.1208
L309.111 47.1208
L309.111 42.5584
L310.121 42.5584
L310.121 37.996
L311.38 37.996
L311.38 33.4337
L312.454 33.4337
L312.454 28.8713
L313.351 28.8713
L313.351 24.3089
L315.196 24.3089
L315.196 19.7465
L322.23 19.7465
L322.23 15.1842
L334.55 15.1842
L334.55 10.6218
L334.55 10.6218
L453.6 10.6218
L453.6 10.6218" style="fill:none;stroke:#bf00bf;stroke-linecap:square;"/>
   </g>
   <g id="line2d_7">
    <path clip-path="url(#p99b4b0da67)" d="
M184.559 352.8
L184.559 348.238
L189.753 348.238
L189.753 343.675
L191.103 343.675
L191.103 339.113
L195.131 339.113
L195.131 334.55
L195.648 334.55
L195.648 329.988
L196.659 329.988
L196.659 325.426
L198.23 325.426
L198.23 320.863
L198.98 320.863
L198.98 316.301
L201.558 316.301
L201.558 311.739
L203.54 311.739
L203.54 307.176
L204.153 307.176
L204.153 302.614
L206.329 302.614
L206.329 298.051
L207.125 298.051
L207.125 293.489
L208.256 293.489
L208.256 288.927
L214.662 288.927
L214.662 284.364
L217.142 284.364
L217.142 279.802
L220.999 279.802
L220.999 275.24
L223.843 275.24
L223.871 266.115
L225.297 266.115
L225.297 261.552
L226.917 261.552
L226.917 256.99
L227.123 256.99
L227.123 252.428
L227.877 252.428
L227.952 243.303
L228.187 243.303
L228.187 238.741
L231.374 238.741
L231.385 229.616
L231.554 229.616
L231.554 225.053
L232.012 225.053
L232.012 220.491
L232.598 220.491
L232.638 211.366
L232.874 211.366
L232.898 202.242
L233.807 202.242
L233.807 197.679
L235.085 197.679
L235.085 193.117
L236.282 193.117
L236.282 188.554
L236.42 188.554
L236.494 179.43
L236.589 179.43
L236.589 174.867
L236.997 174.867
L236.997 170.305
L237.164 170.305
L237.236 156.618
L239.08 156.618
L239.08 152.055
L239.44 152.055
L239.44 147.493
L239.828 147.493
L239.841 133.806
L240.447 133.806
L240.447 129.244
L240.744 129.244
L240.744 124.681
L240.908 124.681
L240.908 120.119
L241.818 120.119
L241.818 115.556
L242.815 115.556
L242.815 110.994
L243.214 110.994
L243.214 106.432
L243.783 106.432
L243.783 101.869
L244.046 101.869
L244.092 92.7446
L244.219 92.7446
L244.219 88.1822
L246.008 88.1822
L246.008 83.6198
L246.357 83.6198
L246.357 79.0574
L278.56 79.0574
L278.56 74.495
L282.517 74.495
L282.517 69.9327
L282.875 69.9327
L282.875 65.3703
L284.571 65.3703
L284.571 60.8079
L288.515 60.8079
L288.515 56.2455
L293.252 56.2455
L293.252 51.6832
L297.723 51.6832
L297.723 47.1208
L298.518 47.1208
L298.622 37.996
L299.264 37.996
L299.264 33.4337
L301.11 33.4337
L301.11 28.8713
L305.94 28.8713
L305.94 24.3089
L306.445 24.3089
L306.445 19.7465
L308.1 19.7465
L308.1 15.1842
L310.48 15.1842
L310.48 10.6218
L310.48 10.6218
L453.6 10.6218
L453.6 10.6218" style="fill:none;stroke:#000000;stroke-linecap:square;"/>
   </g>
   <g id="line2d_8">
    <path clip-path="url(#p99b4b0da67)" d="
M7.0928 352.8
L7.0928 348.238
L7.0928 348.238
L7.0928 348.238
L7.0928 343.675
L7.0928 343.675
L7.0928 343.675
L7.0928 339.113
L7.0928 339.113
L7.0928 339.113
L7.0928 334.55
L138.291 334.55
L138.291 329.988
L144.7 329.988
L144.7 325.426
L146.827 325.426
L146.827 320.863
L147.952 320.863
L147.952 316.301
L153.261 316.301
L153.279 307.176
L156.79 307.176
L156.79 302.614
L160.218 302.614
L160.218 298.051
L161.261 298.051
L161.261 293.489
L162.905 293.489
L162.905 288.927
L166.288 288.927
L166.288 284.364
L166.441 284.364
L166.441 279.802
L167.416 279.802
L167.416 275.24
L169.368 275.24
L169.368 270.677
L177.928 270.677
L177.928 266.115
L181.396 266.115
L181.396 261.552
L201.724 261.552
L201.724 256.99
L202.799 256.99
L202.799 252.428
L203.978 252.428
L203.978 247.865
L204.896 247.865
L204.896 243.303
L205.733 243.303
L205.733 238.741
L208.602 238.741
L208.602 234.178
L211.059 234.178
L211.059 229.616
L212.881 229.616
L212.881 225.053
L213.007 225.053
L213.007 220.491
L216.51 220.491
L216.51 215.929
L220.524 215.929
L220.524 211.366
L220.796 211.366
L220.796 206.804
L221.353 206.804
L221.353 202.242
L221.484 202.242
L221.484 197.679
L222.752 197.679
L222.856 188.554
L223.359 188.554
L223.359 183.992
L223.639 183.992
L223.639 179.43
L224.667 179.43
L224.696 170.305
L225.003 170.305
L225.003 165.743
L225.911 165.743
L225.911 161.18
L226.906 161.18
L226.906 156.618
L227.697 156.618
L227.801 147.493
L228.844 147.493
L228.844 142.931
L230.04 142.931
L230.04 138.368
L230.157 138.368
L230.157 133.806
L231.318 133.806
L231.318 129.244
L231.664 129.244
L231.664 124.681
L231.798 124.681
L231.798 120.119
L232.091 120.119
L232.091 115.556
L232.48 115.556
L232.48 110.994
L232.932 110.994
L232.932 106.432
L233.293 106.432
L233.293 101.869
L234.309 101.869
L234.415 92.7446
L236.454 92.7446
L236.454 88.1822
L236.648 88.1822
L236.69 79.0574
L242.404 79.0574
L242.404 74.495
L244.53 74.495
L244.53 69.9327
L254.854 69.9327
L254.854 65.3703
L270.673 65.3703
L270.673 60.8079
L273.316 60.8079
L273.316 56.2455
L273.826 56.2455
L273.826 51.6832
L276.602 51.6832
L276.602 47.1208
L276.944 47.1208
L276.944 42.5584
L277.368 42.5584
L277.368 37.996
L278.555 37.996
L278.555 33.4337
L278.696 33.4337
L278.696 28.8713
L279.8 28.8713
L279.8 24.3089
L283.557 24.3089
L283.557 19.7465
L285.849 19.7465
L285.849 15.1842
L295.701 15.1842
L295.701 10.6218
L295.701 10.6218
L453.6 10.6218
L453.6 10.6218" style="fill:none;stroke:#00bfbf;stroke-linecap:square;"/>
   </g>
   <g id="line2d_9">
    <path clip-path="url(#p99b4b0da67)" d="
M-1 284.364
L85.0125 284.364
L85.0125 279.802
L110.634 279.802
L110.634 275.24
L115.723 275.24
L115.723 270.677
L118.45 270.677
L118.45 266.115
L121.943 266.115
L121.943 261.552
L125.644 261.552
L125.644 256.99
L129.397 256.99
L129.397 252.428
L129.795 252.428
L129.795 247.865
L133.582 247.865
L133.582 243.303
L134.538 243.303
L134.538 238.741
L142.028 238.741
L142.028 234.178
L142.72 234.178
L142.72 229.616
L143.007 229.616
L143.007 225.053
L146.429 225.053
L146.429 220.491
L153.593 220.491
L153.593 215.929
L182.158 215.929
L182.158 211.366
L193.15 211.366
L193.15 206.804
L199.545 206.804
L199.545 202.242
L204.835 202.242
L204.835 197.679
L206.848 197.679
L206.947 188.554
L207.146 188.554
L207.163 179.43
L207.947 179.43
L207.947 174.867
L208.272 174.867
L208.272 170.305
L209.006 170.305
L209.006 165.743
L210.485 165.743
L210.54 152.055
L211.248 152.055
L211.248 147.493
L211.703 147.493
L211.703 142.931
L213.402 142.931
L213.402 138.368
L213.838 138.368
L213.838 133.806
L216.388 133.806
L216.388 129.244
L216.598 129.244
L216.598 124.681
L218.51 124.681
L218.51 120.119
L218.776 120.119
L218.776 115.556
L219.415 115.556
L219.482 106.432
L220.6 106.432
L220.6 101.869
L221.081 101.869
L221.081 97.3069
L226.454 97.3069
L226.454 92.7446
L227.009 92.7446
L227.009 88.1822
L228.006 88.1822
L228.032 79.0574
L228.144 79.0574
L228.144 74.495
L228.326 74.495
L228.326 69.9327
L234.51 69.9327
L234.51 65.3703
L235.796 65.3703
L235.796 60.8079
L242.388 60.8079
L242.388 56.2455
L250.425 56.2455
L250.425 51.6832
L251.733 51.6832
L251.733 47.1208
L261.729 47.1208
L261.729 42.5584
L264.546 42.5584
L264.546 37.996
L264.939 37.996
L264.939 33.4337
L267.012 33.4337
L267.012 28.8713
L269.111 28.8713
L269.111 24.3089
L270.686 24.3089
L270.686 19.7465
L274.497 19.7465
L274.497 15.1842
L277.863 15.1842
L277.863 10.6218
L277.863 10.6218
L453.6 10.6218
L453.6 10.6218" style="fill:none;stroke:#bf00bf;stroke-linecap:square;"/>
   </g>
   <g id="line2d_10">
    <path clip-path="url(#p99b4b0da67)" d="
M-1 252.428
L60.7907 252.428
L60.7907 247.865
L75.2536 247.865
L75.2536 243.303
L87.575 243.303
L87.575 238.741
L87.941 238.741
L87.941 234.178
L91.6418 234.178
L91.6418 229.616
L96.7113 229.616
L96.7113 225.053
L98.6318 225.053
L98.6318 220.491
L99.6845 220.491
L99.6845 215.929
L108.214 215.929
L108.214 211.366
L111.667 211.366
L111.667 206.804
L141.071 206.804
L141.071 202.242
L144.711 202.242
L144.711 197.679
L148.727 197.679
L148.727 193.117
L156.418 193.117
L156.418 188.554
L156.96 188.554
L156.984 179.43
L157.313 179.43
L157.313 174.867
L157.575 174.867
L157.575 170.305
L163.837 170.305
L163.837 165.743
L164.073 165.743
L164.073 161.18
L168.595 161.18
L168.595 156.618
L169.044 156.618
L169.044 152.055
L169.453 152.055
L169.453 147.493
L169.57 147.493
L169.57 142.931
L170.526 142.931
L170.526 138.368
L172.109 138.368
L172.109 133.806
L172.868 133.806
L172.868 129.244
L175.078 129.244
L175.078 124.681
L175.485 124.681
L175.485 120.119
L176.177 120.119
L176.177 115.556
L178.019 115.556
L178.019 110.994
L179.918 110.994
L179.918 106.432
L180.797 106.432
L180.797 101.869
L181.596 101.869
L181.596 97.3069
L182.628 97.3069
L182.628 92.7446
L188.78 92.7446
L188.78 88.1822
L189.619 88.1822
L189.619 83.6198
L194.132 83.6198
L194.132 79.0574
L199.238 79.0574
L199.238 74.495
L200.428 74.495
L200.428 69.9327
L200.875 69.9327
L200.875 65.3703
L201.029 65.3703
L201.029 60.8079
L205.486 60.8079
L205.486 56.2455
L206.331 56.2455
L206.331 51.6832
L223.716 51.6832
L223.716 47.1208
L225.438 47.1208
L225.438 42.5584
L225.615 42.5584
L225.615 37.996
L232.782 37.996
L232.782 33.4337
L236.843 33.4337
L236.843 28.8713
L240.843 28.8713
L240.843 24.3089
L242.373 24.3089
L242.373 19.7465
L244.278 19.7465
L244.278 15.1842
L251.627 15.1842
L251.627 10.6218
L251.627 10.6218
L453.6 10.6218
L453.6 10.6218" style="fill:none;stroke:#000000;stroke-linecap:square;"/>
   </g>
   <g id="patch_3">
    <path d="
M7.2 7.2
L453.6 7.2" style="fill:none;stroke:#000000;stroke-linecap:square;stroke-linejoin:miter;"/>
   </g>
   <g id="patch_4">
    <path d="
M453.6 352.8
L453.6 7.2" style="fill:none;stroke:#000000;stroke-linecap:square;stroke-linejoin:miter;"/>
   </g>
   <g id="patch_5">
    <path d="
M7.2 352.8
L453.6 352.8" style="fill:none;stroke:#000000;stroke-linecap:square;stroke-linejoin:miter;"/>
   </g>
   <g id="patch_6">
    <path d="
M7.2 352.8
L7.2 7.2" style="fill:none;stroke:#000000;stroke-linecap:square;stroke-linejoin:miter;"/>
   </g>
   <g id="matplotlib.axis_1">
    <g id="xtick_1"/>
    <g id="xtick_2">
     <g id="line2d_11">
      <path clip-path="url(#p99b4b0da67)" d="
M56.7047 352.8
L56.7047 7.2" style="fill:none;stroke:#000000;stroke-dasharray:1.000000,3.000000;stroke-dashoffset:0.0;stroke-width:0.5;"/>
     </g>
     <g id="line2d_12">
      <defs>
       <path d="
M0 0
L0 -4" id="m93b0483c22" style="stroke:#000000;stroke-width:0.5;"/>
      </defs>
      <g>
       <use style="stroke:#000000;stroke-width:0.5;" x="56.70471484" xlink:href="#m93b0483c22" y="352.8"/>
      </g>
     </g>
     <g id="line2d_13">
      <defs>
       <path d="
M0 0
L0 4" id="m741efc42ff" style="stroke:#000000;stroke-width:0.5;"/>
      </defs>
      <g>
       <use style="stroke:#000000;stroke-width:0.5;" x="56.70471484" xlink:href="#m741efc42ff" y="7.2"/>
      </g>
     </g>
     <g id="text_1">
      <!-- -6 -->
      <defs>
       <path d="
M33.0156 40.375
Q26.375 40.375 22.4844 35.8281
Q18.6094 31.2969 18.6094 23.3906
Q18.6094 15.5312 22.4844 10.9531
Q26.375 6.39062 33.0156 6.39062
Q39.6562 6.39062 43.5312 10.9531
Q47.4062 15.5312 47.4062 23.3906
Q47.4062 31.2969 43.5312 35.8281
Q39.6562 40.375 33.0156 40.375
M52.5938 71.2969
L52.5938 62.3125
Q48.875 64.0625 45.0938 64.9844
Q41.3125 65.9219 37.5938 65.9219
Q27.8281 65.9219 22.6719 59.3281
Q17.5312 52.7344 16.7969 39.4062
Q19.6719 43.6562 24.0156 45.9219
Q28.375 48.1875 33.5938 48.1875
Q44.5781 48.1875 50.9531 41.5156
Q57.3281 34.8594 57.3281 23.3906
Q57.3281 12.1562 50.6875 5.35938
Q44.0469 -1.42188 33.0156 -1.42188
Q20.3594 -1.42188 13.6719 8.26562
Q6.98438 17.9688 6.98438 36.375
Q6.98438 53.6562 15.1875 63.9375
Q23.3906 74.2188 37.2031 74.2188
Q40.9219 74.2188 44.7031 73.4844
Q48.4844 72.75 52.5938 71.2969" id="BitstreamVeraSans-Roman-36"/>
       <path d="
M4.89062 31.3906
L31.2031 31.3906
L31.2031 23.3906
L4.89062 23.3906
z
" id="BitstreamVeraSans-Roman-2d"/>
      </defs>
      <g transform="translate(47.85315234 371.996875)scale(0.2 -0.2)">
       <use xlink:href="#BitstreamVeraSans-Roman-2d"/>
       <use x="36.083984375" xlink:href="#BitstreamVeraSans-Roman-36"/>
      </g>
     </g>
    </g>
    <g id="xtick_3">
     <g id="line2d_14">
      <path clip-path="url(#p99b4b0da67)" d="
M106.317 352.8
L106.317 7.2" style="fill:none;stroke:#000000;stroke-dasharray:1.000000,3.000000;stroke-dashoffset:0.0;stroke-width:0.5;"/>
     </g>
     <g id="line2d_15">
      <g>
       <use style="stroke:#000000;stroke-width:0.5;" x="106.316625485" xlink:href="#m93b0483c22" y="352.8"/>
      </g>
     </g>
     <g id="line2d_16">
      <g>
       <use style="stroke:#000000;stroke-width:0.5;" x="106.316625485" xlink:href="#m741efc42ff" y="7.2"/>
      </g>
     </g>
     <g id="text_2">
      <!-- -4 -->
      <defs>
       <path d="
M37.7969 64.3125
L12.8906 25.3906
L37.7969 25.3906
z

M35.2031 72.9062
L47.6094 72.9062
L47.6094 25.3906
L58.0156 25.3906
L58.0156 17.1875
L47.6094 17.1875
L47.6094 0
L37.7969 0
L37.7969 17.1875
L4.89062 17.1875
L4.89062 26.7031
z
" id="BitstreamVeraSans-Roman-34"/>
      </defs>
      <g transform="translate(97.396312985 371.996875)scale(0.2 -0.2)">
       <use xlink:href="#BitstreamVeraSans-Roman-2d"/>
       <use x="36.083984375" xlink:href="#BitstreamVeraSans-Roman-34"/>
      </g>
     </g>
    </g>
    <g id="xtick_4">
     <g id="line2d_17">
      <path clip-path="url(#p99b4b0da67)" d="
M155.929 352.8
L155.929 7.2" style="fill:none;stroke:#000000;stroke-dasharray:1.000000,3.000000;stroke-dashoffset:0.0;stroke-width:0.5;"/>
     </g>
     <g id="line2d_18">
      <g>
       <use style="stroke:#000000;stroke-width:0.5;" x="155.92853613" xlink:href="#m93b0483c22" y="352.8"/>
      </g>
     </g>
     <g id="line2d_19">
      <g>
       <use style="stroke:#000000;stroke-width:0.5;" x="155.92853613" xlink:href="#m741efc42ff" y="7.2"/>
      </g>
     </g>
     <g id="text_3">
      <!-- -2 -->
      <defs>
       <path d="
M19.1875 8.29688
L53.6094 8.29688
L53.6094 0
L7.32812 0
L7.32812 8.29688
Q12.9375 14.1094 22.625 23.8906
Q32.3281 33.6875 34.8125 36.5312
Q39.5469 41.8438 41.4219 45.5312
Q43.3125 49.2188 43.3125 52.7812
Q43.3125 58.5938 39.2344 62.25
Q35.1562 65.9219 28.6094 65.9219
Q23.9688 65.9219 18.8125 64.3125
Q13.6719 62.7031 7.8125 59.4219
L7.8125 69.3906
Q13.7656 71.7812 18.9375 73
Q24.125 74.2188 28.4219 74.2188
Q39.75 74.2188 46.4844 68.5469
Q53.2188 62.8906 53.2188 53.4219
Q53.2188 48.9219 51.5312 44.8906
Q49.8594 40.875 45.4062 35.4062
Q44.1875 33.9844 37.6406 27.2188
Q31.1094 20.4531 19.1875 8.29688" id="BitstreamVeraSans-Roman-32"/>
      </defs>
      <g transform="translate(147.44884863 371.996875)scale(0.2 -0.2)">
       <use xlink:href="#BitstreamVeraSans-Roman-2d"/>
       <use x="36.083984375" xlink:href="#BitstreamVeraSans-Roman-32"/>
      </g>
     </g>
    </g>
    <g id="xtick_5">
     <g id="line2d_20">
      <path clip-path="url(#p99b4b0da67)" d="
M205.54 352.8
L205.54 7.2" style="fill:none;stroke:#000000;stroke-dasharray:1.000000,3.000000;stroke-dashoffset:0.0;stroke-width:0.5;"/>
     </g>
     <g id="line2d_21">
      <g>
       <use style="stroke:#000000;stroke-width:0.5;" x="205.540446775" xlink:href="#m93b0483c22" y="352.8"/>
      </g>
     </g>
     <g id="line2d_22">
      <g>
       <use style="stroke:#000000;stroke-width:0.5;" x="205.540446775" xlink:href="#m741efc42ff" y="7.2"/>
      </g>
     </g>
     <g id="text_4">
      <!-- 0 -->
      <defs>
       <path d="
M31.7812 66.4062
Q24.1719 66.4062 20.3281 58.9062
Q16.5 51.4219 16.5 36.375
Q16.5 21.3906 20.3281 13.8906
Q24.1719 6.39062 31.7812 6.39062
Q39.4531 6.39062 43.2812 13.8906
Q47.125 21.3906 47.125 36.375
Q47.125 51.4219 43.2812 58.9062
Q39.4531 66.4062 31.7812 66.4062
M31.7812 74.2188
Q44.0469 74.2188 50.5156 64.5156
Q56.9844 54.8281 56.9844 36.375
Q56.9844 17.9688 50.5156 8.26562
Q44.0469 -1.42188 31.7812 -1.42188
Q19.5312 -1.42188 13.0625 8.26562
Q6.59375 17.9688 6.59375 36.375
Q6.59375 54.8281 13.0625 64.5156
Q19.5312 74.2188 31.7812 74.2188" id="BitstreamVeraSans-Roman-30"/>
      </defs>
      <g transform="translate(200.501384275 371.996875)scale(0.2 -0.2)">
       <use xlink:href="#BitstreamVeraSans-Roman-30"/>
      </g>
     </g>
    </g>
    <g id="xtick_6">
     <g id="line2d_23">
      <path clip-path="url(#p99b4b0da67)" d="
M255.152 352.8
L255.152 7.2" style="fill:none;stroke:#000000;stroke-dasharray:1.000000,3.000000;stroke-dashoffset:0.0;stroke-width:0.5;"/>
     </g>
     <g id="line2d_24">
      <g>
       <use style="stroke:#000000;stroke-width:0.5;" x="255.15235742" xlink:href="#m93b0483c22" y="352.8"/>
      </g>
     </g>
     <g id="line2d_25">
      <g>
       <use style="stroke:#000000;stroke-width:0.5;" x="255.15235742" xlink:href="#m741efc42ff" y="7.2"/>
      </g>
     </g>
     <g id="text_5">
      <!-- 2 -->
      <g transform="translate(250.52423242 371.996875)scale(0.2 -0.2)">
       <use xlink:href="#BitstreamVeraSans-Roman-32"/>
      </g>
     </g>
    </g>
    <g id="xtick_7">
     <g id="line2d_26">
      <path clip-path="url(#p99b4b0da67)" d="
M304.764 352.8
L304.764 7.2" style="fill:none;stroke:#000000;stroke-dasharray:1.000000,3.000000;stroke-dashoffset:0.0;stroke-width:0.5;"/>
     </g>
     <g id="line2d_27">
      <g>
       <use style="stroke:#000000;stroke-width:0.5;" x="304.764268065" xlink:href="#m93b0483c22" y="352.8"/>
      </g>
     </g>
     <g id="line2d_28">
      <g>
       <use style="stroke:#000000;stroke-width:0.5;" x="304.764268065" xlink:href="#m741efc42ff" y="7.2"/>
      </g>
     </g>
     <g id="text_6">
      <!-- 4 -->
      <g transform="translate(299.451768065 371.996875)scale(0.2 -0.2)">
       <use xlink:href="#BitstreamVeraSans-Roman-34"/>
      </g>
     </g>
    </g>
    <g id="xtick_8">
     <g id="line2d_29">
      <path clip-path="url(#p99b4b0da67)" d="
M354.376 352.8
L354.376 7.2" style="fill:none;stroke:#000000;stroke-dasharray:1.000000,3.000000;stroke-dashoffset:0.0;stroke-width:0.5;"/>
     </g>
     <g id="line2d_30">
      <g>
       <use style="stroke:#000000;stroke-width:0.5;" x="354.37617871" xlink:href="#m93b0483c22" y="352.8"/>
      </g>
     </g>
     <g id="line2d_31">
      <g>
       <use style="stroke:#000000;stroke-width:0.5;" x="354.37617871" xlink:href="#m741efc42ff" y="7.2"/>
      </g>
     </g>
     <g id="text_7">
      <!-- 6 -->
      <g transform="translate(349.34180371 371.996875)scale(0.2 -0.2)">
       <use xlink:href="#BitstreamVeraSans-Roman-36"/>
      </g>
     </g>
    </g>
    <g id="xtick_9">
     <g id="line2d_32">
      <path clip-path="url(#p99b4b0da67)" d="
M403.988 352.8
L403.988 7.2" style="fill:none;stroke:#000000;stroke-dasharray:1.000000,3.000000;stroke-dashoffset:0.0;stroke-width:0.5;"/>
     </g>
     <g id="line2d_33">
      <g>
       <use style="stroke:#000000;stroke-width:0.5;" x="403.988089355" xlink:href="#m93b0483c22" y="352.8"/>
      </g>
     </g>
     <g id="line2d_34">
      <g>
       <use style="stroke:#000000;stroke-width:0.5;" x="403.988089355" xlink:href="#m741efc42ff" y="7.2"/>
      </g>
     </g>
     <g id="text_8">
      <!-- 8 -->
      <defs>
       <path d="
M31.7812 34.625
Q24.75 34.625 20.7188 30.8594
Q16.7031 27.0938 16.7031 20.5156
Q16.7031 13.9219 20.7188 10.1562
Q24.75 6.39062 31.7812 6.39062
Q38.8125 6.39062 42.8594 10.1719
Q46.9219 13.9688 46.9219 20.5156
Q46.9219 27.0938 42.8906 30.8594
Q38.875 34.625 31.7812 34.625
M21.9219 38.8125
Q15.5781 40.375 12.0312 44.7188
Q8.5 49.0781 8.5 55.3281
Q8.5 64.0625 14.7188 69.1406
Q20.9531 74.2188 31.7812 74.2188
Q42.6719 74.2188 48.875 69.1406
Q55.0781 64.0625 55.0781 55.3281
Q55.0781 49.0781 51.5312 44.7188
Q48 40.375 41.7031 38.8125
Q48.8281 37.1562 52.7969 32.3125
Q56.7812 27.4844 56.7812 20.5156
Q56.7812 9.90625 50.3125 4.23438
Q43.8438 -1.42188 31.7812 -1.42188
Q19.7344 -1.42188 13.25 4.23438
Q6.78125 9.90625 6.78125 20.5156
Q6.78125 27.4844 10.7812 32.3125
Q14.7969 37.1562 21.9219 38.8125
M18.3125 54.3906
Q18.3125 48.7344 21.8438 45.5625
Q25.3906 42.3906 31.7812 42.3906
Q38.1406 42.3906 41.7188 45.5625
Q45.3125 48.7344 45.3125 54.3906
Q45.3125 60.0625 41.7188 63.2344
Q38.1406 66.4062 31.7812 66.4062
Q25.3906 66.4062 21.8438 63.2344
Q18.3125 60.0625 18.3125 54.3906" id="BitstreamVeraSans-Roman-38"/>
      </defs>
      <g transform="translate(398.988089355 371.996875)scale(0.2 -0.2)">
       <use xlink:href="#BitstreamVeraSans-Roman-38"/>
      </g>
     </g>
    </g>
    <g id="xtick_10">
     <g id="line2d_35">
      <path clip-path="url(#p99b4b0da67)" d="
M453.6 352.8
L453.6 7.2" style="fill:none;stroke:#000000;stroke-dasharray:1.000000,3.000000;stroke-dashoffset:0.0;stroke-width:0.5;"/>
     </g>
     <g id="line2d_36">
      <g>
       <use style="stroke:#000000;stroke-width:0.5;" x="453.6" xlink:href="#m93b0483c22" y="352.8"/>
      </g>
     </g>
     <g id="line2d_37">
      <g>
       <use style="stroke:#000000;stroke-width:0.5;" x="453.6" xlink:href="#m741efc42ff" y="7.2"/>
      </g>
     </g>
    </g>
    <g id="xtick_11"/>
    <g id="xtick_12">
     <g id="line2d_38">
      <defs>
       <path d="
M0 0
L0 -2" id="m177f7580d0" style="stroke:#000000;stroke-width:0.5;"/>
      </defs>
      <g>
       <use style="stroke:#000000;stroke-width:0.5;" x="56.70471484" xlink:href="#m177f7580d0" y="352.8"/>
      </g>
     </g>
     <g id="line2d_39">
      <defs>
       <path d="
M0 0
L0 2" id="m5284c7e2a0" style="stroke:#000000;stroke-width:0.5;"/>
      </defs>
      <g>
       <use style="stroke:#000000;stroke-width:0.5;" x="56.70471484" xlink:href="#m5284c7e2a0" y="7.2"/>
      </g>
     </g>
    </g>
    <g id="xtick_13">
     <g id="line2d_40">
      <g>
       <use style="stroke:#000000;stroke-width:0.5;" x="106.316625485" xlink:href="#m177f7580d0" y="352.8"/>
      </g>
     </g>
     <g id="line2d_41">
      <g>
       <use style="stroke:#000000;stroke-width:0.5;" x="106.316625485" xlink:href="#m5284c7e2a0" y="7.2"/>
      </g>
     </g>
    </g>
    <g id="xtick_14">
     <g id="line2d_42">
      <g>
       <use style="stroke:#000000;stroke-width:0.5;" x="155.92853613" xlink:href="#m177f7580d0" y="352.8"/>
      </g>
     </g>
     <g id="line2d_43">
      <g>
       <use style="stroke:#000000;stroke-width:0.5;" x="155.92853613" xlink:href="#m5284c7e2a0" y="7.2"/>
      </g>
     </g>
    </g>
    <g id="xtick_15">
     <g id="line2d_44">
      <g>
       <use style="stroke:#000000;stroke-width:0.5;" x="205.540446775" xlink:href="#m177f7580d0" y="352.8"/>
      </g>
     </g>
     <g id="line2d_45">
      <g>
       <use style="stroke:#000000;stroke-width:0.5;" x="205.540446775" xlink:href="#m5284c7e2a0" y="7.2"/>
      </g>
     </g>
    </g>
    <g id="xtick_16">
     <g id="line2d_46">
      <g>
       <use style="stroke:#000000;stroke-width:0.5;" x="255.15235742" xlink:href="#m177f7580d0" y="352.8"/>
      </g>
     </g>
     <g id="line2d_47">
      <g>
       <use style="stroke:#000000;stroke-width:0.5;" x="255.15235742" xlink:href="#m5284c7e2a0" y="7.2"/>
      </g>
     </g>
    </g>
    <g id="xtick_17">
     <g id="line2d_48">
      <g>
       <use style="stroke:#000000;stroke-width:0.5;" x="304.764268065" xlink:href="#m177f7580d0" y="352.8"/>
      </g>
     </g>
     <g id="line2d_49">
      <g>
       <use style="stroke:#000000;stroke-width:0.5;" x="304.764268065" xlink:href="#m5284c7e2a0" y="7.2"/>
      </g>
     </g>
    </g>
    <g id="xtick_18">
     <g id="line2d_50">
      <g>
       <use style="stroke:#000000;stroke-width:0.5;" x="354.37617871" xlink:href="#m177f7580d0" y="352.8"/>
      </g>
     </g>
     <g id="line2d_51">
      <g>
       <use style="stroke:#000000;stroke-width:0.5;" x="354.37617871" xlink:href="#m5284c7e2a0" y="7.2"/>
      </g>
     </g>
    </g>
    <g id="xtick_19">
     <g id="line2d_52">
      <g>
       <use style="stroke:#000000;stroke-width:0.5;" x="403.988089355" xlink:href="#m177f7580d0" y="352.8"/>
      </g>
     </g>
     <g id="line2d_53">
      <g>
       <use style="stroke:#000000;stroke-width:0.5;" x="403.988089355" xlink:href="#m5284c7e2a0" y="7.2"/>
      </g>
     </g>
    </g>
    <g id="xtick_20">
     <g id="line2d_54">
      <g>
       <use style="stroke:#000000;stroke-width:0.5;" x="453.6" xlink:href="#m177f7580d0" y="352.8"/>
      </g>
     </g>
     <g id="line2d_55">
      <g>
       <use style="stroke:#000000;stroke-width:0.5;" x="453.6" xlink:href="#m5284c7e2a0" y="7.2"/>
      </g>
     </g>
    </g>
    <g id="text_9">
     <!-- log10 of Df -->
     <defs>
      <path id="BitstreamVeraSans-Roman-20"/>
      <path d="
M12.4062 8.29688
L28.5156 8.29688
L28.5156 63.9219
L10.9844 60.4062
L10.9844 69.3906
L28.4219 72.9062
L38.2812 72.9062
L38.2812 8.29688
L54.3906 8.29688
L54.3906 0
L12.4062 0
z
" id="BitstreamVeraSans-Roman-31"/>
      <path d="
M30.6094 48.3906
Q23.3906 48.3906 19.1875 42.75
Q14.9844 37.1094 14.9844 27.2969
Q14.9844 17.4844 19.1562 11.8438
Q23.3438 6.20312 30.6094 6.20312
Q37.7969 6.20312 41.9844 11.8594
Q46.1875 17.5312 46.1875 27.2969
Q46.1875 37.0156 41.9844 42.7031
Q37.7969 48.3906 30.6094 48.3906
M30.6094 56
Q42.3281 56 49.0156 48.375
Q55.7188 40.7656 55.7188 27.2969
Q55.7188 13.875 49.0156 6.21875
Q42.3281 -1.42188 30.6094 -1.42188
Q18.8438 -1.42188 12.1719 6.21875
Q5.51562 13.875 5.51562 27.2969
Q5.51562 40.7656 12.1719 48.375
Q18.8438 56 30.6094 56" id="BitstreamVeraSans-Roman-6f"/>
      <path d="
M9.42188 75.9844
L18.4062 75.9844
L18.4062 0
L9.42188 0
z
" id="BitstreamVeraSans-Roman-6c"/>
      <path d="
M19.6719 64.7969
L19.6719 8.10938
L31.5938 8.10938
Q46.6875 8.10938 53.6875 14.9375
Q60.6875 21.7812 60.6875 36.5312
Q60.6875 51.1719 53.6875 57.9844
Q46.6875 64.7969 31.5938 64.7969
z

M9.8125 72.9062
L30.0781 72.9062
Q51.2656 72.9062 61.1719 64.0938
Q71.0938 55.2812 71.0938 36.5312
Q71.0938 17.6719 61.125 8.82812
Q51.1719 0 30.0781 0
L9.8125 0
z
" id="BitstreamVeraSans-Roman-44"/>
      <path d="
M45.4062 27.9844
Q45.4062 37.75 41.375 43.1094
Q37.3594 48.4844 30.0781 48.4844
Q22.8594 48.4844 18.8281 43.1094
Q14.7969 37.75 14.7969 27.9844
Q14.7969 18.2656 18.8281 12.8906
Q22.8594 7.51562 30.0781 7.51562
Q37.3594 7.51562 41.375 12.8906
Q45.4062 18.2656 45.4062 27.9844
M54.3906 6.78125
Q54.3906 -7.17188 48.1875 -13.9844
Q42 -20.7969 29.2031 -20.7969
Q24.4688 -20.7969 20.2656 -20.0938
Q16.0625 -19.3906 12.1094 -17.9219
L12.1094 -9.1875
Q16.0625 -11.3281 19.9219 -12.3438
Q23.7812 -13.375 27.7812 -13.375
Q36.625 -13.375 41.0156 -8.76562
Q45.4062 -4.15625 45.4062 5.17188
L45.4062 9.625
Q42.625 4.78125 38.2812 2.39062
Q33.9375 0 27.875 0
Q17.8281 0 11.6719 7.65625
Q5.51562 15.3281 5.51562 27.9844
Q5.51562 40.6719 11.6719 48.3281
Q17.8281 56 27.875 56
Q33.9375 56 38.2812 53.6094
Q42.625 51.2188 45.4062 46.3906
L45.4062 54.6875
L54.3906 54.6875
z
" id="BitstreamVeraSans-Roman-67"/>
      <path d="
M37.1094 75.9844
L37.1094 68.5
L28.5156 68.5
Q23.6875 68.5 21.7969 66.5469
Q19.9219 64.5938 19.9219 59.5156
L19.9219 54.6875
L34.7188 54.6875
L34.7188 47.7031
L19.9219 47.7031
L19.9219 0
L10.8906 0
L10.8906 47.7031
L2.29688 47.7031
L2.29688 54.6875
L10.8906 54.6875
L10.8906 58.5
Q10.8906 67.625 15.1406 71.7969
Q19.3906 75.9844 28.6094 75.9844
z
" id="BitstreamVeraSans-Roman-66"/>
     </defs>
     <g transform="translate(175.0234375 396.353125)scale(0.2 -0.2)">
      <use xlink:href="#BitstreamVeraSans-Roman-6c"/>
      <use x="27.783203125" xlink:href="#BitstreamVeraSans-Roman-6f"/>
      <use x="88.96484375" xlink:href="#BitstreamVeraSans-Roman-67"/>
      <use x="152.44140625" xlink:href="#BitstreamVeraSans-Roman-31"/>
      <use x="216.064453125" xlink:href="#BitstreamVeraSans-Roman-30"/>
      <use x="279.6875" xlink:href="#BitstreamVeraSans-Roman-20"/>
      <use x="311.474609375" xlink:href="#BitstreamVeraSans-Roman-6f"/>
      <use x="372.65625" xlink:href="#BitstreamVeraSans-Roman-66"/>
      <use x="407.861328125" xlink:href="#BitstreamVeraSans-Roman-20"/>
      <use x="439.6484375" xlink:href="#BitstreamVeraSans-Roman-44"/>
      <use x="516.650390625" xlink:href="#BitstreamVeraSans-Roman-66"/>
     </g>
    </g>
   </g>
   <g id="matplotlib.axis_2">
    <g id="ytick_1">
     <g id="line2d_56">
      <path clip-path="url(#p99b4b0da67)" d="
M7.2 352.8
L453.6 352.8" style="fill:none;stroke:#000000;stroke-dasharray:1.000000,3.000000;stroke-dashoffset:0.0;stroke-width:0.5;"/>
     </g>
     <g id="line2d_57">
      <defs>
       <path d="
M0 0
L4 0" id="m728421d6d4" style="stroke:#000000;stroke-width:0.5;"/>
      </defs>
      <g>
       <use style="stroke:#000000;stroke-width:0.5;" x="7.2" xlink:href="#m728421d6d4" y="352.8"/>
      </g>
     </g>
     <g id="line2d_58">
      <defs>
       <path d="
M0 0
L-4 0" id="mcb0005524f" style="stroke:#000000;stroke-width:0.5;"/>
      </defs>
      <g>
       <use style="stroke:#000000;stroke-width:0.5;" x="453.6" xlink:href="#mcb0005524f" y="352.8"/>
      </g>
     </g>
    </g>
    <g id="ytick_2">
     <g id="line2d_59">
      <path clip-path="url(#p99b4b0da67)" d="
M7.2 284.364
L453.6 284.364" style="fill:none;stroke:#000000;stroke-dasharray:1.000000,3.000000;stroke-dashoffset:0.0;stroke-width:0.5;"/>
     </g>
     <g id="line2d_60">
      <g>
       <use style="stroke:#000000;stroke-width:0.5;" x="7.2" xlink:href="#m728421d6d4" y="284.364356436"/>
      </g>
     </g>
     <g id="line2d_61">
      <g>
       <use style="stroke:#000000;stroke-width:0.5;" x="453.6" xlink:href="#mcb0005524f" y="284.364356436"/>
      </g>
     </g>
    </g>
    <g id="ytick_3">
     <g id="line2d_62">
      <path clip-path="url(#p99b4b0da67)" d="
M7.2 215.929
L453.6 215.929" style="fill:none;stroke:#000000;stroke-dasharray:1.000000,3.000000;stroke-dashoffset:0.0;stroke-width:0.5;"/>
     </g>
     <g id="line2d_63">
      <g>
       <use style="stroke:#000000;stroke-width:0.5;" x="7.2" xlink:href="#m728421d6d4" y="215.928712871"/>
      </g>
     </g>
     <g id="line2d_64">
      <g>
       <use style="stroke:#000000;stroke-width:0.5;" x="453.6" xlink:href="#mcb0005524f" y="215.928712871"/>
      </g>
     </g>
    </g>
    <g id="ytick_4">
     <g id="line2d_65">
      <path clip-path="url(#p99b4b0da67)" d="
M7.2 147.493
L453.6 147.493" style="fill:none;stroke:#000000;stroke-dasharray:1.000000,3.000000;stroke-dashoffset:0.0;stroke-width:0.5;"/>
     </g>
     <g id="line2d_66">
      <g>
       <use style="stroke:#000000;stroke-width:0.5;" x="7.2" xlink:href="#m728421d6d4" y="147.493069307"/>
      </g>
     </g>
     <g id="line2d_67">
      <g>
       <use style="stroke:#000000;stroke-width:0.5;" x="453.6" xlink:href="#mcb0005524f" y="147.493069307"/>
      </g>
     </g>
    </g>
    <g id="ytick_5">
     <g id="line2d_68">
      <path clip-path="url(#p99b4b0da67)" d="
M7.2 79.0574
L453.6 79.0574" style="fill:none;stroke:#000000;stroke-dasharray:1.000000,3.000000;stroke-dashoffset:0.0;stroke-width:0.5;"/>
     </g>
     <g id="line2d_69">
      <g>
       <use style="stroke:#000000;stroke-width:0.5;" x="7.2" xlink:href="#m728421d6d4" y="79.0574257426"/>
      </g>
     </g>
     <g id="line2d_70">
      <g>
       <use style="stroke:#000000;stroke-width:0.5;" x="453.6" xlink:href="#mcb0005524f" y="79.0574257426"/>
      </g>
     </g>
    </g>
    <g id="ytick_6">
     <g id="line2d_71">
      <path clip-path="url(#p99b4b0da67)" d="
M7.2 10.6218
L453.6 10.6218" style="fill:none;stroke:#000000;stroke-dasharray:1.000000,3.000000;stroke-dashoffset:0.0;stroke-width:0.5;"/>
     </g>
     <g id="line2d_72">
      <g>
       <use style="stroke:#000000;stroke-width:0.5;" x="7.2" xlink:href="#m728421d6d4" y="10.6217821782"/>
      </g>
     </g>
     <g id="line2d_73">
      <g>
       <use style="stroke:#000000;stroke-width:0.5;" x="453.6" xlink:href="#mcb0005524f" y="10.6217821782"/>
      </g>
     </g>
    </g>
   </g>
   <g id="text_10">
    <!-- {f1-f5}, 5-D -->
    <defs>
     <path d="
M12.5 -9.28125
L15.9219 -9.28125
Q22.75 -9.28125 24.8281 -7.17188
Q26.9062 -5.07812 26.9062 1.90625
L26.9062 14.0156
Q26.9062 21.625 29.0938 25.0938
Q31.2969 28.5625 36.7188 29.8906
Q31.2969 31.1094 29.0938 34.5625
Q26.9062 38.0312 26.9062 45.7031
L26.9062 57.8125
Q26.9062 64.75 24.8281 66.875
Q22.75 69 15.9219 69
L12.5 69
L12.5 75.9844
L15.5781 75.9844
Q27.7344 75.9844 31.8125 72.3906
Q35.8906 68.7969 35.8906 58.0156
L35.8906 46.2969
Q35.8906 39.0156 38.5156 36.2031
Q41.1562 33.4062 48.0938 33.4062
L51.125 33.4062
L51.125 26.4219
L48.0938 26.4219
Q41.1562 26.4219 38.5156 23.5781
Q35.8906 20.75 35.8906 13.375
L35.8906 1.70312
Q35.8906 -9.07812 31.8125 -12.6875
Q27.7344 -16.3125 15.5781 -16.3125
L12.5 -16.3125
z
" id="BitstreamVeraSans-Roman-7d"/>
     <path d="
M51.125 -9.28125
L51.125 -16.3125
L48.0938 -16.3125
Q35.9375 -16.3125 31.8125 -12.6875
Q27.6875 -9.07812 27.6875 1.70312
L27.6875 13.375
Q27.6875 20.75 25.0469 23.5781
Q22.4062 26.4219 15.4844 26.4219
L12.5 26.4219
L12.5 33.4062
L15.4844 33.4062
Q22.4688 33.4062 25.0781 36.2031
Q27.6875 39.0156 27.6875 46.2969
L27.6875 58.0156
Q27.6875 68.7969 31.8125 72.3906
Q35.9375 75.9844 48.0938 75.9844
L51.125 75.9844
L51.125 69
L47.7969 69
Q40.9219 69 38.8125 66.8438
Q36.7188 64.7031 36.7188 57.8125
L36.7188 45.7031
Q36.7188 38.0312 34.5 34.5625
Q32.2812 31.1094 26.9062 29.8906
Q32.3281 28.5625 34.5156 25.0938
Q36.7188 21.625 36.7188 14.0156
L36.7188 1.90625
Q36.7188 -4.98438 38.8125 -7.125
Q40.9219 -9.28125 47.7969 -9.28125
z
" id="BitstreamVeraSans-Roman-7b"/>
     <path d="
M11.7188 12.4062
L22.0156 12.4062
L22.0156 4
L14.0156 -11.625
L7.71875 -11.625
L11.7188 4
z
" id="BitstreamVeraSans-Roman-2c"/>
     <path d="
M10.7969 72.9062
L49.5156 72.9062
L49.5156 64.5938
L19.8281 64.5938
L19.8281 46.7344
Q21.9688 47.4688 24.1094 47.8281
Q26.2656 48.1875 28.4219 48.1875
Q40.625 48.1875 47.75 41.5
Q54.8906 34.8125 54.8906 23.3906
Q54.8906 11.625 47.5625 5.09375
Q40.2344 -1.42188 26.9062 -1.42188
Q22.3125 -1.42188 17.5469 -0.640625
Q12.7969 0.140625 7.71875 1.70312
L7.71875 11.625
Q12.1094 9.23438 16.7969 8.0625
Q21.4844 6.89062 26.7031 6.89062
Q35.1562 6.89062 40.0781 11.3281
Q45.0156 15.7656 45.0156 23.3906
Q45.0156 31 40.0781 35.4375
Q35.1562 39.8906 26.7031 39.8906
Q22.75 39.8906 18.8125 39.0156
Q14.8906 38.1406 10.7969 36.2812
z
" id="BitstreamVeraSans-Roman-35"/>
    </defs>
    <g transform="translate(325.60325 345.888)scale(0.2 -0.2)">
     <use xlink:href="#BitstreamVeraSans-Roman-7b"/>
     <use x="63.623046875" xlink:href="#BitstreamVeraSans-Roman-66"/>
     <use x="98.828125" xlink:href="#BitstreamVeraSans-Roman-31"/>
     <use x="162.451171875" xlink:href="#BitstreamVeraSans-Roman-2d"/>
     <use x="198.53515625" xlink:href="#BitstreamVeraSans-Roman-66"/>
     <use x="233.740234375" xlink:href="#BitstreamVeraSans-Roman-35"/>
     <use x="297.36328125" xlink:href="#BitstreamVeraSans-Roman-7d"/>
     <use x="360.986328125" xlink:href="#BitstreamVeraSans-Roman-2c"/>
     <use x="392.7734375" xlink:href="#BitstreamVeraSans-Roman-20"/>
     <use x="424.560546875" xlink:href="#BitstreamVeraSans-Roman-35"/>
     <use x="488.18359375" xlink:href="#BitstreamVeraSans-Roman-2d"/>
     <use x="524.267578125" xlink:href="#BitstreamVeraSans-Roman-44"/>
    </g>
   </g>
   <g id="text_11">
    <!-- v0.0.0 -->
    <defs>
     <path d="
M2.98438 54.6875
L12.5 54.6875
L29.5938 8.79688
L46.6875 54.6875
L56.2031 54.6875
L35.6875 0
L23.4844 0
z
" id="BitstreamVeraSans-Roman-76"/>
     <path d="
M10.6875 12.4062
L21 12.4062
L21 0
L10.6875 0
z
" id="BitstreamVeraSans-Roman-2e"/>
    </defs>
    <g style="fill:#808080;" transform="translate(215.2 347.2643125)scale(0.1 -0.1)">
     <use xlink:href="#BitstreamVeraSans-Roman-76"/>
     <use x="59.1796875" xlink:href="#BitstreamVeraSans-Roman-30"/>
     <use x="122.802734375" xlink:href="#BitstreamVeraSans-Roman-2e"/>
     <use x="154.58984375" xlink:href="#BitstreamVeraSans-Roman-30"/>
     <use x="218.212890625" xlink:href="#BitstreamVeraSans-Roman-2e"/>
     <use x="250.0" xlink:href="#BitstreamVeraSans-Roman-30"/>
    </g>
   </g>
  </g>
 </g>
 <defs>
  <clipPath id="p99b4b0da67">
   <rect height="345.6" width="446.4" x="7.2" y="7.2"/>
  </clipPath>
 </defs>
</svg>
