<?xml version="1.0" encoding="utf-8" standalone="no"?>
<!DOCTYPE svg PUBLIC "-//W3C//DTD SVG 1.1//EN"
  "http://www.w3.org/Graphics/SVG/1.1/DTD/svg11.dtd">
<!-- Created with matplotlib (http://matplotlib.org/) -->
<svg height="353pt" version="1.1" viewBox="0 0 439 353" width="439pt" xmlns="http://www.w3.org/2000/svg" xmlns:xlink="http://www.w3.org/1999/xlink">
 <defs>
  <style type="text/css">
*{stroke-linecap:butt;stroke-linejoin:round;}
  </style>
 </defs>
 <g id="figure_1">
  <g id="patch_1">
   <path d="M 0 353.22225 
L 439.489219 353.22225 
L 439.489219 0 
L 0 0 
z
" style="fill:#ffffff;"/>
  </g>
  <g id="axes_1">
   <g id="patch_2">
    <path d="M 70.8 298.245375 
L 427.92 298.245375 
L 427.92 32.133375 
L 70.8 32.133375 
z
" style="fill:#ffffff;"/>
   </g>
   <g id="matplotlib.axis_1">
    <g id="xtick_1">
     <g id="line2d_1">
      <path clip-path="url(#p54b3bcc9db)" d="M 70.8 298.245375 
L 70.8 32.133375 
" style="fill:none;stroke:#b0b0b0;stroke-linecap:square;stroke-width:0.8;"/>
     </g>
     <g id="line2d_2">
      <defs>
       <path d="M 0 0 
L 0 3.5 
" id="ma15a5e3c53" style="stroke:#000000;stroke-width:0.8;"/>
      </defs>
      <g>
       <use style="stroke:#000000;stroke-width:0.8;" x="70.8" xlink:href="#ma15a5e3c53" y="298.245375"/>
      </g>
     </g>
     <g id="text_1">
      <!-- 0 -->
      <defs>
       <path d="M 31.78125 66.40625 
Q 24.171875 66.40625 20.328125 58.90625 
Q 16.5 51.421875 16.5 36.375 
Q 16.5 21.390625 20.328125 13.890625 
Q 24.171875 6.390625 31.78125 6.390625 
Q 39.453125 6.390625 43.28125 13.890625 
Q 47.125 21.390625 47.125 36.375 
Q 47.125 51.421875 43.28125 58.90625 
Q 39.453125 66.40625 31.78125 66.40625 
M 31.78125 74.21875 
Q 44.046875 74.21875 50.515625 64.515625 
Q 56.984375 54.828125 56.984375 36.375 
Q 56.984375 17.96875 50.515625 8.265625 
Q 44.046875 -1.421875 31.78125 -1.421875 
Q 19.53125 -1.421875 13.0625 8.265625 
Q 6.59375 17.96875 6.59375 36.375 
Q 6.59375 54.828125 13.0625 64.515625 
Q 19.53125 74.21875 31.78125 74.21875 
" id="DejaVuSans-30"/>
      </defs>
      <g transform="translate(64.4375 320.44225)scale(0.2 -0.2)">
       <use xlink:href="#DejaVuSans-30"/>
      </g>
     </g>
    </g>
    <g id="xtick_2">
     <g id="line2d_3">
      <path clip-path="url(#p54b3bcc9db)" d="M 153.085714 298.245375 
L 153.085714 32.133375 
" style="fill:none;stroke:#b0b0b0;stroke-linecap:square;stroke-width:0.8;"/>
     </g>
     <g id="line2d_4">
      <g>
       <use style="stroke:#000000;stroke-width:0.8;" x="153.085714" xlink:href="#ma15a5e3c53" y="298.245375"/>
      </g>
     </g>
     <g id="text_2">
      <!-- 2 -->
      <defs>
       <path d="M 19.1875 8.296875 
L 53.609375 8.296875 
L 53.609375 0 
L 7.328125 0 
L 7.328125 8.296875 
Q 12.9375 14.109375 22.625 23.890625 
Q 32.328125 33.6875 34.8125 36.53125 
Q 39.546875 41.84375 41.421875 45.53125 
Q 43.3125 49.21875 43.3125 52.78125 
Q 43.3125 58.59375 39.234375 62.25 
Q 35.15625 65.921875 28.609375 65.921875 
Q 23.96875 65.921875 18.8125 64.3125 
Q 13.671875 62.703125 7.8125 59.421875 
L 7.8125 69.390625 
Q 13.765625 71.78125 18.9375 73 
Q 24.125 74.21875 28.421875 74.21875 
Q 39.75 74.21875 46.484375 68.546875 
Q 53.21875 62.890625 53.21875 53.421875 
Q 53.21875 48.921875 51.53125 44.890625 
Q 49.859375 40.875 45.40625 35.40625 
Q 44.1875 33.984375 37.640625 27.21875 
Q 31.109375 20.453125 19.1875 8.296875 
" id="DejaVuSans-32"/>
      </defs>
      <g transform="translate(146.723214 320.44225)scale(0.2 -0.2)">
       <use xlink:href="#DejaVuSans-32"/>
      </g>
     </g>
    </g>
    <g id="xtick_3">
     <g id="line2d_5">
      <path clip-path="url(#p54b3bcc9db)" d="M 235.371429 298.245375 
L 235.371429 32.133375 
" style="fill:none;stroke:#b0b0b0;stroke-linecap:square;stroke-width:0.8;"/>
     </g>
     <g id="line2d_6">
      <g>
       <use style="stroke:#000000;stroke-width:0.8;" x="235.371429" xlink:href="#ma15a5e3c53" y="298.245375"/>
      </g>
     </g>
     <g id="text_3">
      <!-- 4 -->
      <defs>
       <path d="M 37.796875 64.3125 
L 12.890625 25.390625 
L 37.796875 25.390625 
z
M 35.203125 72.90625 
L 47.609375 72.90625 
L 47.609375 25.390625 
L 58.015625 25.390625 
L 58.015625 17.1875 
L 47.609375 17.1875 
L 47.609375 0 
L 37.796875 0 
L 37.796875 17.1875 
L 4.890625 17.1875 
L 4.890625 26.703125 
z
" id="DejaVuSans-34"/>
      </defs>
      <g transform="translate(229.008929 320.44225)scale(0.2 -0.2)">
       <use xlink:href="#DejaVuSans-34"/>
      </g>
     </g>
    </g>
    <g id="xtick_4">
     <g id="line2d_7">
      <path clip-path="url(#p54b3bcc9db)" d="M 317.657143 298.245375 
L 317.657143 32.133375 
" style="fill:none;stroke:#b0b0b0;stroke-linecap:square;stroke-width:0.8;"/>
     </g>
     <g id="line2d_8">
      <g>
       <use style="stroke:#000000;stroke-width:0.8;" x="317.657143" xlink:href="#ma15a5e3c53" y="298.245375"/>
      </g>
     </g>
     <g id="text_4">
      <!-- 6 -->
      <defs>
       <path d="M 33.015625 40.375 
Q 26.375 40.375 22.484375 35.828125 
Q 18.609375 31.296875 18.609375 23.390625 
Q 18.609375 15.53125 22.484375 10.953125 
Q 26.375 6.390625 33.015625 6.390625 
Q 39.65625 6.390625 43.53125 10.953125 
Q 47.40625 15.53125 47.40625 23.390625 
Q 47.40625 31.296875 43.53125 35.828125 
Q 39.65625 40.375 33.015625 40.375 
M 52.59375 71.296875 
L 52.59375 62.3125 
Q 48.875 64.0625 45.09375 64.984375 
Q 41.3125 65.921875 37.59375 65.921875 
Q 27.828125 65.921875 22.671875 59.328125 
Q 17.53125 52.734375 16.796875 39.40625 
Q 19.671875 43.65625 24.015625 45.921875 
Q 28.375 48.1875 33.59375 48.1875 
Q 44.578125 48.1875 50.953125 41.515625 
Q 57.328125 34.859375 57.328125 23.390625 
Q 57.328125 12.15625 50.6875 5.359375 
Q 44.046875 -1.421875 33.015625 -1.421875 
Q 20.359375 -1.421875 13.671875 8.265625 
Q 6.984375 17.96875 6.984375 36.375 
Q 6.984375 53.65625 15.1875 63.9375 
Q 23.390625 74.21875 37.203125 74.21875 
Q 40.921875 74.21875 44.703125 73.484375 
Q 48.484375 72.75 52.59375 71.296875 
" id="DejaVuSans-36"/>
      </defs>
      <g transform="translate(311.294643 320.44225)scale(0.2 -0.2)">
       <use xlink:href="#DejaVuSans-36"/>
      </g>
     </g>
    </g>
    <g id="xtick_5">
     <g id="line2d_9">
      <path clip-path="url(#p54b3bcc9db)" d="M 399.942857 298.245375 
L 399.942857 32.133375 
" style="fill:none;stroke:#b0b0b0;stroke-linecap:square;stroke-width:0.8;"/>
     </g>
     <g id="line2d_10">
      <g>
       <use style="stroke:#000000;stroke-width:0.8;" x="399.942857" xlink:href="#ma15a5e3c53" y="298.245375"/>
      </g>
     </g>
     <g id="text_5">
      <!-- 8 -->
      <defs>
       <path d="M 31.78125 34.625 
Q 24.75 34.625 20.71875 30.859375 
Q 16.703125 27.09375 16.703125 20.515625 
Q 16.703125 13.921875 20.71875 10.15625 
Q 24.75 6.390625 31.78125 6.390625 
Q 38.8125 6.390625 42.859375 10.171875 
Q 46.921875 13.96875 46.921875 20.515625 
Q 46.921875 27.09375 42.890625 30.859375 
Q 38.875 34.625 31.78125 34.625 
M 21.921875 38.8125 
Q 15.578125 40.375 12.03125 44.71875 
Q 8.5 49.078125 8.5 55.328125 
Q 8.5 64.0625 14.71875 69.140625 
Q 20.953125 74.21875 31.78125 74.21875 
Q 42.671875 74.21875 48.875 69.140625 
Q 55.078125 64.0625 55.078125 55.328125 
Q 55.078125 49.078125 51.53125 44.71875 
Q 48 40.375 41.703125 38.8125 
Q 48.828125 37.15625 52.796875 32.3125 
Q 56.78125 27.484375 56.78125 20.515625 
Q 56.78125 9.90625 50.3125 4.234375 
Q 43.84375 -1.421875 31.78125 -1.421875 
Q 19.734375 -1.421875 13.25 4.234375 
Q 6.78125 9.90625 6.78125 20.515625 
Q 6.78125 27.484375 10.78125 32.3125 
Q 14.796875 37.15625 21.921875 38.8125 
M 18.3125 54.390625 
Q 18.3125 48.734375 21.84375 45.5625 
Q 25.390625 42.390625 31.78125 42.390625 
Q 38.140625 42.390625 41.71875 45.5625 
Q 45.3125 48.734375 45.3125 54.390625 
Q 45.3125 60.0625 41.71875 63.234375 
Q 38.140625 66.40625 31.78125 66.40625 
Q 25.390625 66.40625 21.84375 63.234375 
Q 18.3125 60.0625 18.3125 54.390625 
" id="DejaVuSans-38"/>
      </defs>
      <g transform="translate(393.580357 320.44225)scale(0.2 -0.2)">
       <use xlink:href="#DejaVuSans-38"/>
      </g>
     </g>
    </g>
    <g id="xtick_6">
     <g id="line2d_11">
      <defs>
       <path d="M 0 0 
L 0 2 
" id="mdc6e35b17e" style="stroke:#000000;stroke-width:0.6;"/>
      </defs>
      <g>
       <use style="stroke:#000000;stroke-width:0.6;" x="83.185234" xlink:href="#mdc6e35b17e" y="298.245375"/>
      </g>
     </g>
    </g>
    <g id="xtick_7">
     <g id="line2d_12">
      <g>
       <use style="stroke:#000000;stroke-width:0.6;" x="95.570468" xlink:href="#mdc6e35b17e" y="298.245375"/>
      </g>
     </g>
    </g>
    <g id="xtick_8">
     <g id="line2d_13">
      <g>
       <use style="stroke:#000000;stroke-width:0.6;" x="102.815366" xlink:href="#mdc6e35b17e" y="298.245375"/>
      </g>
     </g>
    </g>
    <g id="xtick_9">
     <g id="line2d_14">
      <g>
       <use style="stroke:#000000;stroke-width:0.6;" x="107.955702" xlink:href="#mdc6e35b17e" y="298.245375"/>
      </g>
     </g>
    </g>
    <g id="xtick_10">
     <g id="line2d_15">
      <g>
       <use style="stroke:#000000;stroke-width:0.6;" x="165.470948" xlink:href="#mdc6e35b17e" y="298.245375"/>
      </g>
     </g>
    </g>
    <g id="xtick_11">
     <g id="line2d_16">
      <g>
       <use style="stroke:#000000;stroke-width:0.6;" x="177.856183" xlink:href="#mdc6e35b17e" y="298.245375"/>
      </g>
     </g>
    </g>
    <g id="xtick_12">
     <g id="line2d_17">
      <g>
       <use style="stroke:#000000;stroke-width:0.6;" x="185.10108" xlink:href="#mdc6e35b17e" y="298.245375"/>
      </g>
     </g>
    </g>
    <g id="xtick_13">
     <g id="line2d_18">
      <g>
       <use style="stroke:#000000;stroke-width:0.6;" x="190.241417" xlink:href="#mdc6e35b17e" y="298.245375"/>
      </g>
     </g>
    </g>
    <g id="xtick_14">
     <g id="line2d_19">
      <g>
       <use style="stroke:#000000;stroke-width:0.6;" x="247.756663" xlink:href="#mdc6e35b17e" y="298.245375"/>
      </g>
     </g>
    </g>
    <g id="xtick_15">
     <g id="line2d_20">
      <g>
       <use style="stroke:#000000;stroke-width:0.6;" x="260.141897" xlink:href="#mdc6e35b17e" y="298.245375"/>
      </g>
     </g>
    </g>
    <g id="xtick_16">
     <g id="line2d_21">
      <g>
       <use style="stroke:#000000;stroke-width:0.6;" x="267.386794" xlink:href="#mdc6e35b17e" y="298.245375"/>
      </g>
     </g>
    </g>
    <g id="xtick_17">
     <g id="line2d_22">
      <g>
       <use style="stroke:#000000;stroke-width:0.6;" x="272.527131" xlink:href="#mdc6e35b17e" y="298.245375"/>
      </g>
     </g>
    </g>
    <g id="xtick_18">
     <g id="line2d_23">
      <g>
       <use style="stroke:#000000;stroke-width:0.6;" x="330.042377" xlink:href="#mdc6e35b17e" y="298.245375"/>
      </g>
     </g>
    </g>
    <g id="xtick_19">
     <g id="line2d_24">
      <g>
       <use style="stroke:#000000;stroke-width:0.6;" x="342.427611" xlink:href="#mdc6e35b17e" y="298.245375"/>
      </g>
     </g>
    </g>
    <g id="xtick_20">
     <g id="line2d_25">
      <g>
       <use style="stroke:#000000;stroke-width:0.6;" x="349.672509" xlink:href="#mdc6e35b17e" y="298.245375"/>
      </g>
     </g>
    </g>
    <g id="xtick_21">
     <g id="line2d_26">
      <g>
       <use style="stroke:#000000;stroke-width:0.6;" x="354.812845" xlink:href="#mdc6e35b17e" y="298.245375"/>
      </g>
     </g>
    </g>
    <g id="xtick_22">
     <g id="line2d_27">
      <g>
       <use style="stroke:#000000;stroke-width:0.6;" x="412.328091" xlink:href="#mdc6e35b17e" y="298.245375"/>
      </g>
     </g>
    </g>
    <g id="xtick_23">
     <g id="line2d_28">
      <g>
       <use style="stroke:#000000;stroke-width:0.6;" x="424.713325" xlink:href="#mdc6e35b17e" y="298.245375"/>
      </g>
     </g>
    </g>
    <g id="text_6">
     <!-- log10 of (# f-evals / dimension) -->
     <defs>
      <path d="M 9.421875 75.984375 
L 18.40625 75.984375 
L 18.40625 0 
L 9.421875 0 
z
" id="DejaVuSans-6c"/>
      <path d="M 30.609375 48.390625 
Q 23.390625 48.390625 19.1875 42.75 
Q 14.984375 37.109375 14.984375 27.296875 
Q 14.984375 17.484375 19.15625 11.84375 
Q 23.34375 6.203125 30.609375 6.203125 
Q 37.796875 6.203125 41.984375 11.859375 
Q 46.1875 17.53125 46.1875 27.296875 
Q 46.1875 37.015625 41.984375 42.703125 
Q 37.796875 48.390625 30.609375 48.390625 
M 30.609375 56 
Q 42.328125 56 49.015625 48.375 
Q 55.71875 40.765625 55.71875 27.296875 
Q 55.71875 13.875 49.015625 6.21875 
Q 42.328125 -1.421875 30.609375 -1.421875 
Q 18.84375 -1.421875 12.171875 6.21875 
Q 5.515625 13.875 5.515625 27.296875 
Q 5.515625 40.765625 12.171875 48.375 
Q 18.84375 56 30.609375 56 
" id="DejaVuSans-6f"/>
      <path d="M 45.40625 27.984375 
Q 45.40625 37.75 41.375 43.109375 
Q 37.359375 48.484375 30.078125 48.484375 
Q 22.859375 48.484375 18.828125 43.109375 
Q 14.796875 37.75 14.796875 27.984375 
Q 14.796875 18.265625 18.828125 12.890625 
Q 22.859375 7.515625 30.078125 7.515625 
Q 37.359375 7.515625 41.375 12.890625 
Q 45.40625 18.265625 45.40625 27.984375 
M 54.390625 6.78125 
Q 54.390625 -7.171875 48.1875 -13.984375 
Q 42 -20.796875 29.203125 -20.796875 
Q 24.46875 -20.796875 20.265625 -20.09375 
Q 16.0625 -19.390625 12.109375 -17.921875 
L 12.109375 -9.1875 
Q 16.0625 -11.328125 19.921875 -12.34375 
Q 23.78125 -13.375 27.78125 -13.375 
Q 36.625 -13.375 41.015625 -8.765625 
Q 45.40625 -4.15625 45.40625 5.171875 
L 45.40625 9.625 
Q 42.625 4.78125 38.28125 2.390625 
Q 33.9375 0 27.875 0 
Q 17.828125 0 11.671875 7.65625 
Q 5.515625 15.328125 5.515625 27.984375 
Q 5.515625 40.671875 11.671875 48.328125 
Q 17.828125 56 27.875 56 
Q 33.9375 56 38.28125 53.609375 
Q 42.625 51.21875 45.40625 46.390625 
L 45.40625 54.6875 
L 54.390625 54.6875 
z
" id="DejaVuSans-67"/>
      <path d="M 12.40625 8.296875 
L 28.515625 8.296875 
L 28.515625 63.921875 
L 10.984375 60.40625 
L 10.984375 69.390625 
L 28.421875 72.90625 
L 38.28125 72.90625 
L 38.28125 8.296875 
L 54.390625 8.296875 
L 54.390625 0 
L 12.40625 0 
z
" id="DejaVuSans-31"/>
      <path id="DejaVuSans-20"/>
      <path d="M 37.109375 75.984375 
L 37.109375 68.5 
L 28.515625 68.5 
Q 23.6875 68.5 21.796875 66.546875 
Q 19.921875 64.59375 19.921875 59.515625 
L 19.921875 54.6875 
L 34.71875 54.6875 
L 34.71875 47.703125 
L 19.921875 47.703125 
L 19.921875 0 
L 10.890625 0 
L 10.890625 47.703125 
L 2.296875 47.703125 
L 2.296875 54.6875 
L 10.890625 54.6875 
L 10.890625 58.5 
Q 10.890625 67.625 15.140625 71.796875 
Q 19.390625 75.984375 28.609375 75.984375 
z
" id="DejaVuSans-66"/>
      <path d="M 31 75.875 
Q 24.46875 64.65625 21.28125 53.65625 
Q 18.109375 42.671875 18.109375 31.390625 
Q 18.109375 20.125 21.3125 9.0625 
Q 24.515625 -2 31 -13.1875 
L 23.1875 -13.1875 
Q 15.875 -1.703125 12.234375 9.375 
Q 8.59375 20.453125 8.59375 31.390625 
Q 8.59375 42.28125 12.203125 53.3125 
Q 15.828125 64.359375 23.1875 75.875 
z
" id="DejaVuSans-28"/>
      <path d="M 51.125 44 
L 36.921875 44 
L 32.8125 27.6875 
L 47.125 27.6875 
z
M 43.796875 71.78125 
L 38.71875 51.515625 
L 52.984375 51.515625 
L 58.109375 71.78125 
L 65.921875 71.78125 
L 60.890625 51.515625 
L 76.125 51.515625 
L 76.125 44 
L 58.984375 44 
L 54.984375 27.6875 
L 70.515625 27.6875 
L 70.515625 20.21875 
L 53.078125 20.21875 
L 48 0 
L 40.1875 0 
L 45.21875 20.21875 
L 30.90625 20.21875 
L 25.875 0 
L 18.015625 0 
L 23.09375 20.21875 
L 7.71875 20.21875 
L 7.71875 27.6875 
L 24.90625 27.6875 
L 29 44 
L 13.28125 44 
L 13.28125 51.515625 
L 30.90625 51.515625 
L 35.890625 71.78125 
z
" id="DejaVuSans-23"/>
      <path d="M 4.890625 31.390625 
L 31.203125 31.390625 
L 31.203125 23.390625 
L 4.890625 23.390625 
z
" id="DejaVuSans-2d"/>
      <path d="M 56.203125 29.59375 
L 56.203125 25.203125 
L 14.890625 25.203125 
Q 15.484375 15.921875 20.484375 11.0625 
Q 25.484375 6.203125 34.421875 6.203125 
Q 39.59375 6.203125 44.453125 7.46875 
Q 49.3125 8.734375 54.109375 11.28125 
L 54.109375 2.78125 
Q 49.265625 0.734375 44.1875 -0.34375 
Q 39.109375 -1.421875 33.890625 -1.421875 
Q 20.796875 -1.421875 13.15625 6.1875 
Q 5.515625 13.8125 5.515625 26.8125 
Q 5.515625 40.234375 12.765625 48.109375 
Q 20.015625 56 32.328125 56 
Q 43.359375 56 49.78125 48.890625 
Q 56.203125 41.796875 56.203125 29.59375 
M 47.21875 32.234375 
Q 47.125 39.59375 43.09375 43.984375 
Q 39.0625 48.390625 32.421875 48.390625 
Q 24.90625 48.390625 20.390625 44.140625 
Q 15.875 39.890625 15.1875 32.171875 
z
" id="DejaVuSans-65"/>
      <path d="M 2.984375 54.6875 
L 12.5 54.6875 
L 29.59375 8.796875 
L 46.6875 54.6875 
L 56.203125 54.6875 
L 35.6875 0 
L 23.484375 0 
z
" id="DejaVuSans-76"/>
      <path d="M 34.28125 27.484375 
Q 23.390625 27.484375 19.1875 25 
Q 14.984375 22.515625 14.984375 16.5 
Q 14.984375 11.71875 18.140625 8.90625 
Q 21.296875 6.109375 26.703125 6.109375 
Q 34.1875 6.109375 38.703125 11.40625 
Q 43.21875 16.703125 43.21875 25.484375 
L 43.21875 27.484375 
z
M 52.203125 31.203125 
L 52.203125 0 
L 43.21875 0 
L 43.21875 8.296875 
Q 40.140625 3.328125 35.546875 0.953125 
Q 30.953125 -1.421875 24.3125 -1.421875 
Q 15.921875 -1.421875 10.953125 3.296875 
Q 6 8.015625 6 15.921875 
Q 6 25.140625 12.171875 29.828125 
Q 18.359375 34.515625 30.609375 34.515625 
L 43.21875 34.515625 
L 43.21875 35.40625 
Q 43.21875 41.609375 39.140625 45 
Q 35.0625 48.390625 27.6875 48.390625 
Q 23 48.390625 18.546875 47.265625 
Q 14.109375 46.140625 10.015625 43.890625 
L 10.015625 52.203125 
Q 14.9375 54.109375 19.578125 55.046875 
Q 24.21875 56 28.609375 56 
Q 40.484375 56 46.34375 49.84375 
Q 52.203125 43.703125 52.203125 31.203125 
" id="DejaVuSans-61"/>
      <path d="M 44.28125 53.078125 
L 44.28125 44.578125 
Q 40.484375 46.53125 36.375 47.5 
Q 32.28125 48.484375 27.875 48.484375 
Q 21.1875 48.484375 17.84375 46.4375 
Q 14.5 44.390625 14.5 40.28125 
Q 14.5 37.15625 16.890625 35.375 
Q 19.28125 33.59375 26.515625 31.984375 
L 29.59375 31.296875 
Q 39.15625 29.25 43.1875 25.515625 
Q 47.21875 21.78125 47.21875 15.09375 
Q 47.21875 7.46875 41.1875 3.015625 
Q 35.15625 -1.421875 24.609375 -1.421875 
Q 20.21875 -1.421875 15.453125 -0.5625 
Q 10.6875 0.296875 5.421875 2 
L 5.421875 11.28125 
Q 10.40625 8.6875 15.234375 7.390625 
Q 20.0625 6.109375 24.8125 6.109375 
Q 31.15625 6.109375 34.5625 8.28125 
Q 37.984375 10.453125 37.984375 14.40625 
Q 37.984375 18.0625 35.515625 20.015625 
Q 33.0625 21.96875 24.703125 23.78125 
L 21.578125 24.515625 
Q 13.234375 26.265625 9.515625 29.90625 
Q 5.8125 33.546875 5.8125 39.890625 
Q 5.8125 47.609375 11.28125 51.796875 
Q 16.75 56 26.8125 56 
Q 31.78125 56 36.171875 55.265625 
Q 40.578125 54.546875 44.28125 53.078125 
" id="DejaVuSans-73"/>
      <path d="M 25.390625 72.90625 
L 33.6875 72.90625 
L 8.296875 -9.28125 
L 0 -9.28125 
z
" id="DejaVuSans-2f"/>
      <path d="M 45.40625 46.390625 
L 45.40625 75.984375 
L 54.390625 75.984375 
L 54.390625 0 
L 45.40625 0 
L 45.40625 8.203125 
Q 42.578125 3.328125 38.25 0.953125 
Q 33.9375 -1.421875 27.875 -1.421875 
Q 17.96875 -1.421875 11.734375 6.484375 
Q 5.515625 14.40625 5.515625 27.296875 
Q 5.515625 40.1875 11.734375 48.09375 
Q 17.96875 56 27.875 56 
Q 33.9375 56 38.25 53.625 
Q 42.578125 51.265625 45.40625 46.390625 
M 14.796875 27.296875 
Q 14.796875 17.390625 18.875 11.75 
Q 22.953125 6.109375 30.078125 6.109375 
Q 37.203125 6.109375 41.296875 11.75 
Q 45.40625 17.390625 45.40625 27.296875 
Q 45.40625 37.203125 41.296875 42.84375 
Q 37.203125 48.484375 30.078125 48.484375 
Q 22.953125 48.484375 18.875 42.84375 
Q 14.796875 37.203125 14.796875 27.296875 
" id="DejaVuSans-64"/>
      <path d="M 9.421875 54.6875 
L 18.40625 54.6875 
L 18.40625 0 
L 9.421875 0 
z
M 9.421875 75.984375 
L 18.40625 75.984375 
L 18.40625 64.59375 
L 9.421875 64.59375 
z
" id="DejaVuSans-69"/>
      <path d="M 52 44.1875 
Q 55.375 50.25 60.0625 53.125 
Q 64.75 56 71.09375 56 
Q 79.640625 56 84.28125 50.015625 
Q 88.921875 44.046875 88.921875 33.015625 
L 88.921875 0 
L 79.890625 0 
L 79.890625 32.71875 
Q 79.890625 40.578125 77.09375 44.375 
Q 74.3125 48.1875 68.609375 48.1875 
Q 61.625 48.1875 57.5625 43.546875 
Q 53.515625 38.921875 53.515625 30.90625 
L 53.515625 0 
L 44.484375 0 
L 44.484375 32.71875 
Q 44.484375 40.625 41.703125 44.40625 
Q 38.921875 48.1875 33.109375 48.1875 
Q 26.21875 48.1875 22.15625 43.53125 
Q 18.109375 38.875 18.109375 30.90625 
L 18.109375 0 
L 9.078125 0 
L 9.078125 54.6875 
L 18.109375 54.6875 
L 18.109375 46.1875 
Q 21.1875 51.21875 25.484375 53.609375 
Q 29.78125 56 35.6875 56 
Q 41.65625 56 45.828125 52.96875 
Q 50 49.953125 52 44.1875 
" id="DejaVuSans-6d"/>
      <path d="M 54.890625 33.015625 
L 54.890625 0 
L 45.90625 0 
L 45.90625 32.71875 
Q 45.90625 40.484375 42.875 44.328125 
Q 39.84375 48.1875 33.796875 48.1875 
Q 26.515625 48.1875 22.3125 43.546875 
Q 18.109375 38.921875 18.109375 30.90625 
L 18.109375 0 
L 9.078125 0 
L 9.078125 54.6875 
L 18.109375 54.6875 
L 18.109375 46.1875 
Q 21.34375 51.125 25.703125 53.5625 
Q 30.078125 56 35.796875 56 
Q 45.21875 56 50.046875 50.171875 
Q 54.890625 44.34375 54.890625 33.015625 
" id="DejaVuSans-6e"/>
      <path d="M 8.015625 75.875 
L 15.828125 75.875 
Q 23.140625 64.359375 26.78125 53.3125 
Q 30.421875 42.28125 30.421875 31.390625 
Q 30.421875 20.453125 26.78125 9.375 
Q 23.140625 -1.703125 15.828125 -13.1875 
L 8.015625 -13.1875 
Q 14.5 -2 17.703125 9.0625 
Q 20.90625 20.125 20.90625 31.390625 
Q 20.90625 42.671875 17.703125 53.65625 
Q 14.5 64.65625 8.015625 75.875 
" id="DejaVuSans-29"/>
     </defs>
     <g transform="translate(107.015156 342.278812)scale(0.18 -0.18)">
      <use xlink:href="#DejaVuSans-6c"/>
      <use x="27.783203" xlink:href="#DejaVuSans-6f"/>
      <use x="88.964844" xlink:href="#DejaVuSans-67"/>
      <use x="152.441406" xlink:href="#DejaVuSans-31"/>
      <use x="216.064453" xlink:href="#DejaVuSans-30"/>
      <use x="279.6875" xlink:href="#DejaVuSans-20"/>
      <use x="311.474609" xlink:href="#DejaVuSans-6f"/>
      <use x="372.65625" xlink:href="#DejaVuSans-66"/>
      <use x="407.861328" xlink:href="#DejaVuSans-20"/>
      <use x="439.648438" xlink:href="#DejaVuSans-28"/>
      <use x="478.662109" xlink:href="#DejaVuSans-23"/>
      <use x="562.451172" xlink:href="#DejaVuSans-20"/>
      <use x="594.238281" xlink:href="#DejaVuSans-66"/>
      <use x="629.365234" xlink:href="#DejaVuSans-2d"/>
      <use x="665.449219" xlink:href="#DejaVuSans-65"/>
      <use x="726.972656" xlink:href="#DejaVuSans-76"/>
      <use x="786.152344" xlink:href="#DejaVuSans-61"/>
      <use x="847.431641" xlink:href="#DejaVuSans-6c"/>
      <use x="875.214844" xlink:href="#DejaVuSans-73"/>
      <use x="927.314453" xlink:href="#DejaVuSans-20"/>
      <use x="959.101562" xlink:href="#DejaVuSans-2f"/>
      <use x="992.792969" xlink:href="#DejaVuSans-20"/>
      <use x="1024.580078" xlink:href="#DejaVuSans-64"/>
      <use x="1088.056641" xlink:href="#DejaVuSans-69"/>
      <use x="1115.839844" xlink:href="#DejaVuSans-6d"/>
      <use x="1213.251953" xlink:href="#DejaVuSans-65"/>
      <use x="1274.775391" xlink:href="#DejaVuSans-6e"/>
      <use x="1338.154297" xlink:href="#DejaVuSans-73"/>
      <use x="1390.253906" xlink:href="#DejaVuSans-69"/>
      <use x="1418.037109" xlink:href="#DejaVuSans-6f"/>
      <use x="1479.21875" xlink:href="#DejaVuSans-6e"/>
      <use x="1542.597656" xlink:href="#DejaVuSans-29"/>
     </g>
    </g>
   </g>
   <g id="matplotlib.axis_2">
    <g id="ytick_1">
     <g id="line2d_29">
      <path clip-path="url(#p54b3bcc9db)" d="M 70.8 298.245375 
L 427.92 298.245375 
" style="fill:none;stroke:#b0b0b0;stroke-linecap:square;stroke-width:0.8;"/>
     </g>
     <g id="line2d_30">
      <defs>
       <path d="M 0 0 
L -3.5 0 
" id="mc0f9bead8d" style="stroke:#000000;stroke-width:0.8;"/>
      </defs>
      <g>
       <use style="stroke:#000000;stroke-width:0.8;" x="70.8" xlink:href="#mc0f9bead8d" y="298.245375"/>
      </g>
     </g>
     <g id="text_7">
      <!-- 0.0 -->
      <defs>
       <path d="M 10.6875 12.40625 
L 21 12.40625 
L 21 0 
L 10.6875 0 
z
" id="DejaVuSans-2e"/>
      </defs>
      <g transform="translate(31.99375 305.843812)scale(0.2 -0.2)">
       <use xlink:href="#DejaVuSans-30"/>
       <use x="63.623047" xlink:href="#DejaVuSans-2e"/>
       <use x="95.410156" xlink:href="#DejaVuSans-30"/>
      </g>
     </g>
    </g>
    <g id="ytick_2">
     <g id="line2d_31">
      <path clip-path="url(#p54b3bcc9db)" d="M 70.8 245.549929 
L 427.92 245.549929 
" style="fill:none;stroke:#b0b0b0;stroke-linecap:square;stroke-width:0.8;"/>
     </g>
     <g id="line2d_32">
      <g>
       <use style="stroke:#000000;stroke-width:0.8;" x="70.8" xlink:href="#mc0f9bead8d" y="245.549929"/>
      </g>
     </g>
     <g id="text_8">
      <!-- 0.2 -->
      <g transform="translate(31.99375 253.148367)scale(0.2 -0.2)">
       <use xlink:href="#DejaVuSans-30"/>
       <use x="63.623047" xlink:href="#DejaVuSans-2e"/>
       <use x="95.410156" xlink:href="#DejaVuSans-32"/>
      </g>
     </g>
    </g>
    <g id="ytick_3">
     <g id="line2d_33">
      <path clip-path="url(#p54b3bcc9db)" d="M 70.8 192.854484 
L 427.92 192.854484 
" style="fill:none;stroke:#b0b0b0;stroke-linecap:square;stroke-width:0.8;"/>
     </g>
     <g id="line2d_34">
      <g>
       <use style="stroke:#000000;stroke-width:0.8;" x="70.8" xlink:href="#mc0f9bead8d" y="192.854484"/>
      </g>
     </g>
     <g id="text_9">
      <!-- 0.4 -->
      <g transform="translate(31.99375 200.452921)scale(0.2 -0.2)">
       <use xlink:href="#DejaVuSans-30"/>
       <use x="63.623047" xlink:href="#DejaVuSans-2e"/>
       <use x="95.410156" xlink:href="#DejaVuSans-34"/>
      </g>
     </g>
    </g>
    <g id="ytick_4">
     <g id="line2d_35">
      <path clip-path="url(#p54b3bcc9db)" d="M 70.8 140.159038 
L 427.92 140.159038 
" style="fill:none;stroke:#b0b0b0;stroke-linecap:square;stroke-width:0.8;"/>
     </g>
     <g id="line2d_36">
      <g>
       <use style="stroke:#000000;stroke-width:0.8;" x="70.8" xlink:href="#mc0f9bead8d" y="140.159038"/>
      </g>
     </g>
     <g id="text_10">
      <!-- 0.6 -->
      <g transform="translate(31.99375 147.757476)scale(0.2 -0.2)">
       <use xlink:href="#DejaVuSans-30"/>
       <use x="63.623047" xlink:href="#DejaVuSans-2e"/>
       <use x="95.410156" xlink:href="#DejaVuSans-36"/>
      </g>
     </g>
    </g>
    <g id="ytick_5">
     <g id="line2d_37">
      <path clip-path="url(#p54b3bcc9db)" d="M 70.8 87.463593 
L 427.92 87.463593 
" style="fill:none;stroke:#b0b0b0;stroke-linecap:square;stroke-width:0.8;"/>
     </g>
     <g id="line2d_38">
      <g>
       <use style="stroke:#000000;stroke-width:0.8;" x="70.8" xlink:href="#mc0f9bead8d" y="87.463593"/>
      </g>
     </g>
     <g id="text_11">
      <!-- 0.8 -->
      <g transform="translate(31.99375 95.06203)scale(0.2 -0.2)">
       <use xlink:href="#DejaVuSans-30"/>
       <use x="63.623047" xlink:href="#DejaVuSans-2e"/>
       <use x="95.410156" xlink:href="#DejaVuSans-38"/>
      </g>
     </g>
    </g>
    <g id="ytick_6">
     <g id="line2d_39">
      <path clip-path="url(#p54b3bcc9db)" d="M 70.8 34.768147 
L 427.92 34.768147 
" style="fill:none;stroke:#b0b0b0;stroke-linecap:square;stroke-width:0.8;"/>
     </g>
     <g id="line2d_40">
      <g>
       <use style="stroke:#000000;stroke-width:0.8;" x="70.8" xlink:href="#mc0f9bead8d" y="34.768147"/>
      </g>
     </g>
     <g id="text_12">
      <!-- 1.0 -->
      <g transform="translate(31.99375 42.366585)scale(0.2 -0.2)">
       <use xlink:href="#DejaVuSans-31"/>
       <use x="63.623047" xlink:href="#DejaVuSans-2e"/>
       <use x="95.410156" xlink:href="#DejaVuSans-30"/>
      </g>
     </g>
    </g>
    <g id="text_13">
     <!-- Proportion of function+target pairs -->
     <defs>
      <path d="M 19.671875 64.796875 
L 19.671875 37.40625 
L 32.078125 37.40625 
Q 38.96875 37.40625 42.71875 40.96875 
Q 46.484375 44.53125 46.484375 51.125 
Q 46.484375 57.671875 42.71875 61.234375 
Q 38.96875 64.796875 32.078125 64.796875 
z
M 9.8125 72.90625 
L 32.078125 72.90625 
Q 44.34375 72.90625 50.609375 67.359375 
Q 56.890625 61.8125 56.890625 51.125 
Q 56.890625 40.328125 50.609375 34.8125 
Q 44.34375 29.296875 32.078125 29.296875 
L 19.671875 29.296875 
L 19.671875 0 
L 9.8125 0 
z
" id="DejaVuSans-50"/>
      <path d="M 41.109375 46.296875 
Q 39.59375 47.171875 37.8125 47.578125 
Q 36.03125 48 33.890625 48 
Q 26.265625 48 22.1875 43.046875 
Q 18.109375 38.09375 18.109375 28.8125 
L 18.109375 0 
L 9.078125 0 
L 9.078125 54.6875 
L 18.109375 54.6875 
L 18.109375 46.1875 
Q 20.953125 51.171875 25.484375 53.578125 
Q 30.03125 56 36.53125 56 
Q 37.453125 56 38.578125 55.875 
Q 39.703125 55.765625 41.0625 55.515625 
z
" id="DejaVuSans-72"/>
      <path d="M 18.109375 8.203125 
L 18.109375 -20.796875 
L 9.078125 -20.796875 
L 9.078125 54.6875 
L 18.109375 54.6875 
L 18.109375 46.390625 
Q 20.953125 51.265625 25.265625 53.625 
Q 29.59375 56 35.59375 56 
Q 45.5625 56 51.78125 48.09375 
Q 58.015625 40.1875 58.015625 27.296875 
Q 58.015625 14.40625 51.78125 6.484375 
Q 45.5625 -1.421875 35.59375 -1.421875 
Q 29.59375 -1.421875 25.265625 0.953125 
Q 20.953125 3.328125 18.109375 8.203125 
M 48.6875 27.296875 
Q 48.6875 37.203125 44.609375 42.84375 
Q 40.53125 48.484375 33.40625 48.484375 
Q 26.265625 48.484375 22.1875 42.84375 
Q 18.109375 37.203125 18.109375 27.296875 
Q 18.109375 17.390625 22.1875 11.75 
Q 26.265625 6.109375 33.40625 6.109375 
Q 40.53125 6.109375 44.609375 11.75 
Q 48.6875 17.390625 48.6875 27.296875 
" id="DejaVuSans-70"/>
      <path d="M 18.3125 70.21875 
L 18.3125 54.6875 
L 36.8125 54.6875 
L 36.8125 47.703125 
L 18.3125 47.703125 
L 18.3125 18.015625 
Q 18.3125 11.328125 20.140625 9.421875 
Q 21.96875 7.515625 27.59375 7.515625 
L 36.8125 7.515625 
L 36.8125 0 
L 27.59375 0 
Q 17.1875 0 13.234375 3.875 
Q 9.28125 7.765625 9.28125 18.015625 
L 9.28125 47.703125 
L 2.6875 47.703125 
L 2.6875 54.6875 
L 9.28125 54.6875 
L 9.28125 70.21875 
z
" id="DejaVuSans-74"/>
      <path d="M 8.5 21.578125 
L 8.5 54.6875 
L 17.484375 54.6875 
L 17.484375 21.921875 
Q 17.484375 14.15625 20.5 10.265625 
Q 23.53125 6.390625 29.59375 6.390625 
Q 36.859375 6.390625 41.078125 11.03125 
Q 45.3125 15.671875 45.3125 23.6875 
L 45.3125 54.6875 
L 54.296875 54.6875 
L 54.296875 0 
L 45.3125 0 
L 45.3125 8.40625 
Q 42.046875 3.421875 37.71875 1 
Q 33.40625 -1.421875 27.6875 -1.421875 
Q 18.265625 -1.421875 13.375 4.4375 
Q 8.5 10.296875 8.5 21.578125 
M 31.109375 56 
z
" id="DejaVuSans-75"/>
      <path d="M 48.78125 52.59375 
L 48.78125 44.1875 
Q 44.96875 46.296875 41.140625 47.34375 
Q 37.3125 48.390625 33.40625 48.390625 
Q 24.65625 48.390625 19.8125 42.84375 
Q 14.984375 37.3125 14.984375 27.296875 
Q 14.984375 17.28125 19.8125 11.734375 
Q 24.65625 6.203125 33.40625 6.203125 
Q 37.3125 6.203125 41.140625 7.25 
Q 44.96875 8.296875 48.78125 10.40625 
L 48.78125 2.09375 
Q 45.015625 0.34375 40.984375 -0.53125 
Q 36.96875 -1.421875 32.421875 -1.421875 
Q 20.0625 -1.421875 12.78125 6.34375 
Q 5.515625 14.109375 5.515625 27.296875 
Q 5.515625 40.671875 12.859375 48.328125 
Q 20.21875 56 33.015625 56 
Q 37.15625 56 41.109375 55.140625 
Q 45.0625 54.296875 48.78125 52.59375 
" id="DejaVuSans-63"/>
      <path d="M 46 62.703125 
L 46 35.5 
L 73.1875 35.5 
L 73.1875 27.203125 
L 46 27.203125 
L 46 0 
L 37.796875 0 
L 37.796875 27.203125 
L 10.59375 27.203125 
L 10.59375 35.5 
L 37.796875 35.5 
L 37.796875 62.703125 
z
" id="DejaVuSans-2b"/>
     </defs>
     <g transform="translate(24.250312 323.17875)rotate(-90)scale(0.18 -0.18)">
      <use xlink:href="#DejaVuSans-50"/>
      <use x="60.287109" xlink:href="#DejaVuSans-72"/>
      <use x="101.369141" xlink:href="#DejaVuSans-6f"/>
      <use x="162.550781" xlink:href="#DejaVuSans-70"/>
      <use x="226.027344" xlink:href="#DejaVuSans-6f"/>
      <use x="287.208984" xlink:href="#DejaVuSans-72"/>
      <use x="328.322266" xlink:href="#DejaVuSans-74"/>
      <use x="367.53125" xlink:href="#DejaVuSans-69"/>
      <use x="395.314453" xlink:href="#DejaVuSans-6f"/>
      <use x="456.496094" xlink:href="#DejaVuSans-6e"/>
      <use x="519.875" xlink:href="#DejaVuSans-20"/>
      <use x="551.662109" xlink:href="#DejaVuSans-6f"/>
      <use x="612.84375" xlink:href="#DejaVuSans-66"/>
      <use x="648.048828" xlink:href="#DejaVuSans-20"/>
      <use x="679.835938" xlink:href="#DejaVuSans-66"/>
      <use x="715.041016" xlink:href="#DejaVuSans-75"/>
      <use x="778.419922" xlink:href="#DejaVuSans-6e"/>
      <use x="841.798828" xlink:href="#DejaVuSans-63"/>
      <use x="896.779297" xlink:href="#DejaVuSans-74"/>
      <use x="935.988281" xlink:href="#DejaVuSans-69"/>
      <use x="963.771484" xlink:href="#DejaVuSans-6f"/>
      <use x="1024.953125" xlink:href="#DejaVuSans-6e"/>
      <use x="1088.332031" xlink:href="#DejaVuSans-2b"/>
      <use x="1172.121094" xlink:href="#DejaVuSans-74"/>
      <use x="1211.330078" xlink:href="#DejaVuSans-61"/>
      <use x="1272.609375" xlink:href="#DejaVuSans-72"/>
      <use x="1313.707031" xlink:href="#DejaVuSans-67"/>
      <use x="1377.183594" xlink:href="#DejaVuSans-65"/>
      <use x="1438.707031" xlink:href="#DejaVuSans-74"/>
      <use x="1477.916016" xlink:href="#DejaVuSans-20"/>
      <use x="1509.703125" xlink:href="#DejaVuSans-70"/>
      <use x="1573.179688" xlink:href="#DejaVuSans-61"/>
      <use x="1634.458984" xlink:href="#DejaVuSans-69"/>
      <use x="1662.242188" xlink:href="#DejaVuSans-72"/>
      <use x="1703.355469" xlink:href="#DejaVuSans-73"/>
     </g>
    </g>
   </g>
   <g id="line2d_41">
    <defs>
     <path d="M 0 1.5 
C 0.397805 1.5 0.77937 1.341951 1.06066 1.06066 
C 1.341951 0.77937 1.5 0.397805 1.5 0 
C 1.5 -0.397805 1.341951 -0.77937 1.06066 -1.06066 
C 0.77937 -1.341951 0.397805 -1.5 0 -1.5 
C -0.397805 -1.5 -0.77937 -1.341951 -1.06066 -1.06066 
C -1.341951 -0.77937 -1.5 -0.397805 -1.5 0 
C -1.5 0.397805 -1.341951 0.77937 -1.06066 1.06066 
C -0.77937 1.341951 -0.397805 1.5 0 1.5 
z
" id="m0236e46655" style="stroke:#00bfbf;"/>
    </defs>
    <g>
     <use style="fill:#00bfbf;stroke:#00bfbf;" x="237.316452" xlink:href="#m0236e46655" y="34.768147"/>
     <use style="fill:#00bfbf;stroke:#00bfbf;" x="237.316452" xlink:href="#m0236e46655" y="34.768147"/>
    </g>
   </g>
   <g id="line2d_42">
    <path d="M 58.414766 298.245375 
L 58.414766 295.662265 
L 153.085714 295.662265 
L 153.085714 295.145643 
L 160.330612 295.145643 
L 160.330612 292.045911 
L 172.715846 292.045911 
L 172.715846 291.529289 
L 179.960743 291.529289 
L 179.960743 290.496045 
L 181.843337 290.496045 
L 181.843337 288.429557 
L 186.531292 288.429557 
L 186.531292 287.396313 
L 187.855462 287.396313 
L 187.855462 286.879691 
L 191.324664 286.879691 
L 191.324664 285.846447 
L 196.725854 285.846447 
L 196.725854 285.329825 
L 197.486314 285.329825 
L 197.486314 284.296581 
L 200.240696 284.296581 
L 200.240696 283.263337 
L 203.176482 283.263337 
L 203.176482 282.746715 
L 203.709898 282.746715 
L 203.709898 279.646982 
L 205.697291 279.646982 
L 205.697291 278.613738 
L 206.613806 278.613738 
L 206.613806 276.030628 
L 207.055016 276.030628 
L 207.055016 275.514006 
L 207.906039 275.514006 
L 207.906039 271.897652 
L 210.239976 271.897652 
L 210.239976 270.347786 
L 210.954796 270.347786 
L 210.954796 269.831164 
L 211.301761 269.831164 
L 211.301761 268.79792 
L 211.642116 268.79792 
L 211.642116 267.248054 
L 212.62593 267.248054 
L 212.62593 265.698188 
L 212.942189 265.698188 
L 212.942189 262.598456 
L 213.252946 262.598456 
L 213.252946 261.04859 
L 213.858703 261.04859 
L 213.858703 259.498724 
L 214.444595 259.498724 
L 214.444595 257.432236 
L 215.288915 257.432236 
L 215.288915 256.915614 
L 215.561716 256.915614 
L 215.561716 255.365748 
L 216.613085 255.365748 
L 216.613085 254.849126 
L 217.845858 254.849126 
L 217.845858 252.782638 
L 218.082525 252.782638 
L 218.082525 251.232772 
L 219.44025 251.232772 
L 219.44025 244.516685 
L 219.656836 244.516685 
L 219.656836 244.000063 
L 219.870828 244.000063 
L 219.870828 240.900331 
L 220.082287 240.900331 
L 220.082287 237.283977 
L 220.291274 237.283977 
L 220.291274 234.700867 
L 220.903955 234.700867 
L 220.903955 232.634379 
L 221.103601 232.634379 
L 221.103601 229.018025 
L 221.30104 229.018025 
L 221.30104 226.951537 
L 221.496322 226.951537 
L 221.496322 223.851805 
L 221.689493 223.851805 
L 221.689493 213.002743 
L 221.880598 213.002743 
L 221.880598 201.120436 
L 222.06968 201.120436 
L 222.06968 194.40435 
L 222.256782 194.40435 
L 222.256782 193.887728 
L 222.441946 193.887728 
L 222.441946 188.721508 
L 222.62521 188.721508 
L 222.62521 183.038666 
L 222.806614 183.038666 
L 222.806614 179.938934 
L 222.986194 179.938934 
L 222.986194 176.322579 
L 223.163988 176.322579 
L 223.163988 171.156359 
L 223.34003 171.156359 
L 223.34003 158.240809 
L 223.514355 158.240809 
L 223.514355 156.690943 
L 223.686995 156.690943 
L 223.686995 154.107833 
L 223.857983 154.107833 
L 223.857983 152.557967 
L 224.02735 152.557967 
L 224.02735 150.491479 
L 224.361343 150.491479 
L 224.361343 149.458235 
L 224.850911 149.458235 
L 224.850911 147.391747 
L 225.011165 147.391747 
L 225.011165 144.292014 
L 225.169993 144.292014 
L 225.169993 141.708904 
L 225.943626 141.708904 
L 225.943626 137.059306 
L 226.094412 137.059306 
L 226.094412 133.959574 
L 226.243937 133.959574 
L 226.243937 132.92633 
L 226.392221 132.92633 
L 226.392221 129.826598 
L 226.539285 129.826598 
L 226.539285 129.309976 
L 226.685148 129.309976 
L 226.685148 128.276732 
L 226.82983 128.276732 
L 226.82983 126.726866 
L 226.973349 126.726866 
L 226.973349 125.693622 
L 227.115725 125.693622 
L 227.115725 124.660378 
L 227.256976 124.660378 
L 227.256976 121.560646 
L 227.397119 121.560646 
L 227.397119 121.044024 
L 227.811071 121.044024 
L 227.811071 119.494158 
L 227.94695 119.494158 
L 227.94695 116.394426 
L 228.081805 116.394426 
L 228.081805 115.361182 
L 228.215649 115.361182 
L 228.215649 110.194961 
L 228.348498 110.194961 
L 228.348498 108.128473 
L 228.480367 108.128473 
L 228.480367 99.345899 
L 228.611269 99.345899 
L 228.611269 98.829277 
L 228.74122 98.829277 
L 228.74122 93.663057 
L 228.870232 93.663057 
L 228.870232 89.013459 
L 228.998319 89.013459 
L 228.998319 83.330617 
L 229.125495 83.330617 
L 229.125495 78.164397 
L 229.251772 78.164397 
L 229.251772 72.998176 
L 229.377163 72.998176 
L 229.377163 68.8652 
L 229.50168 68.8652 
L 229.50168 65.248846 
L 229.625335 65.248846 
L 229.625335 64.215602 
L 229.748141 64.215602 
L 229.748141 62.665736 
L 229.870108 62.665736 
L 229.870108 55.433028 
L 229.991248 55.433028 
L 229.991248 52.849918 
L 230.111572 52.849918 
L 230.111572 48.20032 
L 230.231092 48.20032 
L 230.231092 45.61721 
L 231.934105 45.61721 
L 232.04207 43.0341 
L 232.467522 43.0341 
L 232.467522 42.517478 
L 235.460547 42.517478 
L 235.549222 38.384501 
L 235.812639 38.384501 
L 235.812639 37.867879 
L 236.072229 37.867879 
L 236.157927 36.318013 
L 237.155477 36.318013 
L 237.155477 35.801391 
L 237.316452 35.801391 
L 237.316452 34.768147 
L 358.8 34.768147 
L 358.8 34.768147 
" style="fill:none;stroke:#00bfbf;stroke-linecap:square;stroke-width:1.5;"/>
   </g>
   <g id="line2d_43">
    <defs>
     <path d="M -6 0 
L 6 0 
M 0 6 
L 0 -6 
" id="m321477f62e" style="stroke:#00bfbf;stroke-width:1.5;"/>
    </defs>
    <g>
     <use style="fill:none;stroke:#00bfbf;stroke-width:1.5;" x="358.8" xlink:href="#m321477f62e" y="34.768147"/>
    </g>
   </g>
   <g id="line2d_44"/>
   <g id="line2d_45">
    <defs>
     <path d="M 0 1.5 
C 0.397805 1.5 0.77937 1.341951 1.06066 1.06066 
C 1.341951 0.77937 1.5 0.397805 1.5 0 
C 1.5 -0.397805 1.341951 -0.77937 1.06066 -1.06066 
C 0.77937 -1.341951 0.397805 -1.5 0 -1.5 
C -0.397805 -1.5 -0.77937 -1.341951 -1.06066 -1.06066 
C -1.341951 -0.77937 -1.5 -0.397805 -1.5 0 
C -1.5 0.397805 -1.341951 0.77937 -1.06066 1.06066 
C -0.77937 1.341951 -0.397805 1.5 0 1.5 
z
" id="me4ecfafcee" style="stroke:#008000;"/>
    </defs>
    <g>
     <use style="fill:#008000;stroke:#008000;" x="231.825484" xlink:href="#me4ecfafcee" y="34.768147"/>
     <use style="fill:#008000;stroke:#008000;" x="231.825484" xlink:href="#me4ecfafcee" y="34.768147"/>
    </g>
   </g>
   <g id="line2d_46">
    <path d="M 145.840817 298.245375 
L 145.840817 297.728753 
L 153.085714 297.728753 
L 153.085714 296.695509 
L 158.226051 296.695509 
L 158.226051 295.145643 
L 165.470948 295.145643 
L 165.470948 293.595777 
L 168.225331 293.595777 
L 168.225331 290.496045 
L 176.301453 290.496045 
L 176.301453 288.946179 
L 179.286395 288.946179 
L 179.286395 284.813203 
L 185.10108 284.813203 
L 185.10108 280.163604 
L 186.983674 280.163604 
L 186.983674 279.646982 
L 187.855462 279.646982 
L 187.855462 277.580494 
L 190.241417 277.580494 
L 190.241417 276.54725 
L 191.671629 276.54725 
L 191.671629 273.447518 
L 197.975882 273.447518 
L 197.975882 271.897652 
L 199.810118 271.897652 
L 199.810118 270.864408 
L 206.613806 270.864408 
L 206.613806 270.347786 
L 207.485594 270.347786 
L 207.485594 269.831164 
L 208.316819 269.831164 
L 208.316819 268.281298 
L 211.529383 268.281298 
L 211.529383 267.248054 
L 212.411938 267.248054 
L 212.411938 266.731432 
L 212.62593 266.731432 
L 212.62593 266.21481 
L 212.83739 266.21481 
L 212.83739 263.6317 
L 213.457155 263.6317 
L 213.457155 260.015346 
L 213.659057 260.015346 
L 213.659057 259.498724 
L 213.858703 259.498724 
L 213.858703 258.982102 
L 214.056143 258.982102 
L 214.056143 257.432236 
L 214.444595 257.432236 
L 214.444595 255.365748 
L 214.6357 255.365748 
L 214.6357 250.199528 
L 214.824782 250.199528 
L 214.824782 245.549929 
L 215.011885 245.549929 
L 215.011885 239.350465 
L 215.197048 239.350465 
L 215.197048 238.317221 
L 215.380313 238.317221 
L 215.380313 232.117757 
L 215.561716 232.117757 
L 215.561716 230.567891 
L 215.741297 230.567891 
L 215.741297 226.434915 
L 215.919091 226.434915 
L 215.919091 223.335183 
L 216.095133 223.335183 
L 216.095133 206.803278 
L 216.269457 206.803278 
L 216.269457 202.15368 
L 216.442097 202.15368 
L 216.442097 199.57057 
L 216.782453 199.57057 
L 216.782453 198.020704 
L 216.95023 198.020704 
L 216.95023 197.504082 
L 217.44431 197.504082 
L 217.44431 196.98746 
L 217.606014 196.98746 
L 217.606014 196.470838 
L 217.766267 196.470838 
L 217.766267 194.920972 
L 217.925096 194.920972 
L 217.925096 194.40435 
L 218.849515 194.40435 
L 218.849515 192.337862 
L 219.147324 192.337862 
L 219.147324 187.688264 
L 219.44025 187.688264 
L 219.44025 186.65502 
L 219.584932 186.65502 
L 219.584932 184.07191 
L 219.728452 184.07191 
L 219.728452 183.555288 
L 220.012079 183.555288 
L 220.012079 182.522044 
L 220.152221 182.522044 
L 220.152221 179.422312 
L 220.291274 179.422312 
L 220.291274 177.872445 
L 220.429252 177.872445 
L 220.429252 174.772713 
L 220.566173 174.772713 
L 220.566173 174.256091 
L 220.702053 174.256091 
L 220.702053 165.990139 
L 220.836907 165.990139 
L 220.836907 162.890407 
L 220.970752 162.890407 
L 220.970752 162.373785 
L 221.103601 162.373785 
L 221.103601 157.724187 
L 221.235469 157.724187 
L 221.235469 155.657699 
L 221.366372 155.657699 
L 221.366372 149.458235 
L 221.496322 149.458235 
L 221.496322 144.292014 
L 221.625334 144.292014 
L 221.625334 143.775392 
L 221.753422 143.775392 
L 221.753422 143.25877 
L 222.006875 143.25877 
L 222.006875 138.09255 
L 222.132265 138.09255 
L 222.132265 132.92633 
L 222.256782 132.92633 
L 222.256782 127.76011 
L 222.380438 127.76011 
L 222.380438 121.560646 
L 222.503243 121.560646 
L 222.503243 114.327938 
L 222.62521 114.327938 
L 222.62521 107.095229 
L 222.74635 107.095229 
L 222.74635 100.379143 
L 222.866675 100.379143 
L 222.866675 96.762789 
L 222.986194 96.762789 
L 222.986194 93.663057 
L 228.215649 93.663057 
L 228.304325 73.514798 
L 228.392563 73.514798 
L 228.392563 72.998176 
L 228.567742 72.998176 
L 228.654691 69.898444 
L 228.74122 69.898444 
L 228.74122 67.315334 
L 229.167687 67.315334 
L 229.167687 66.798712 
L 229.50168 66.798712 
L 229.584212 64.732224 
L 229.748141 64.732224 
L 229.829544 63.182358 
L 229.991248 63.182358 
L 229.991248 61.632492 
L 230.151501 61.632492 
L 230.151501 60.082626 
L 230.31033 60.082626 
L 230.31033 59.049382 
L 230.467759 59.049382 
L 230.545957 57.499516 
L 230.623814 57.499516 
L 230.701333 51.300052 
L 230.778517 51.300052 
L 230.855369 50.266808 
L 230.931892 50.266808 
L 231.008089 49.233564 
L 231.083962 49.233564 
L 231.159515 44.067344 
L 231.234749 44.067344 
L 231.309668 42.000855 
L 231.384274 42.000855 
L 231.45857 38.384501 
L 231.532558 38.384501 
L 231.606241 35.801391 
L 231.825484 35.801391 
L 231.825484 34.768147 
L 358.8 34.768147 
L 358.8 34.768147 
" style="fill:none;stroke:#008000;stroke-linecap:square;stroke-width:1.5;"/>
   </g>
   <g id="line2d_47">
    <defs>
     <path d="M -0 6 
L 6 -6 
L -6 -6 
z
" id="m0f93cb5d5d" style="stroke:#008000;stroke-linejoin:miter;stroke-width:1.5;"/>
    </defs>
    <g>
     <use style="fill:none;stroke:#008000;stroke-linejoin:miter;stroke-width:1.5;" x="358.8" xlink:href="#m0f93cb5d5d" y="34.768147"/>
    </g>
   </g>
   <g id="line2d_48"/>
   <g id="line2d_49">
    <defs>
     <path d="M 0 1.5 
C 0.397805 1.5 0.77937 1.341951 1.06066 1.06066 
C 1.341951 0.77937 1.5 0.397805 1.5 0 
C 1.5 -0.397805 1.341951 -0.77937 1.06066 -1.06066 
C 0.77937 -1.341951 0.397805 -1.5 0 -1.5 
C -0.397805 -1.5 -0.77937 -1.341951 -1.06066 -1.06066 
C -1.341951 -0.77937 -1.5 -0.397805 -1.5 0 
C -1.5 0.397805 -1.341951 0.77937 -1.06066 1.06066 
C -0.77937 1.341951 -0.397805 1.5 0 1.5 
z
" id="m0c83e27ba1" style="stroke:#0000ff;"/>
    </defs>
    <g>
     <use style="fill:#0000ff;stroke:#0000ff;" x="236.812633" xlink:href="#m0c83e27ba1" y="34.768147"/>
     <use style="fill:#0000ff;stroke:#0000ff;" x="236.812633" xlink:href="#m0c83e27ba1" y="34.768147"/>
    </g>
   </g>
   <g id="line2d_50">
    <path d="M 159.097839 298.245375 
L 159.097839 297.728753 
L 161.483794 297.728753 
L 161.483794 296.695509 
L 163.588354 296.695509 
L 163.588354 296.178887 
L 171.483073 296.178887 
L 171.483073 295.145643 
L 173.869028 295.145643 
L 173.869028 293.595777 
L 175.973589 293.595777 
L 175.973589 293.079155 
L 176.939668 293.079155 
L 176.939668 291.529289 
L 179.559196 291.529289 
L 179.559196 289.462801 
L 183.218486 289.462801 
L 183.218486 287.912935 
L 184.495323 287.912935 
L 184.495323 286.363069 
L 185.10108 286.363069 
L 185.10108 285.846447 
L 186.254262 285.846447 
L 186.254262 285.329825 
L 187.855462 285.329825 
L 187.855462 282.230093 
L 188.358823 282.230093 
L 188.358823 281.713471 
L 189.324902 281.713471 
L 189.324902 281.196849 
L 190.241417 281.196849 
L 190.241417 277.063872 
L 193.122975 277.063872 
L 193.122975 274.997384 
L 194.228571 274.997384 
L 194.228571 274.480762 
L 202.626651 274.480762 
L 202.626651 273.447518 
L 203.284447 273.447518 
L 203.284447 272.930896 
L 204.125455 272.930896 
L 204.125455 271.897652 
L 204.329664 271.897652 
L 204.329664 268.281298 
L 204.531566 268.281298 
L 204.531566 267.764676 
L 204.731212 267.764676 
L 204.731212 266.731432 
L 205.508209 266.731432 
L 205.508209 263.6317 
L 206.252821 263.6317 
L 206.252821 263.115078 
L 206.967641 263.115078 
L 206.967641 261.04859 
L 207.654961 261.04859 
L 207.654961 260.015346 
L 209.722023 260.015346 
L 209.722023 257.948858 
L 209.871548 257.948858 
L 209.871548 257.432236 
L 210.457441 257.432236 
L 210.457441 256.915614 
L 210.743337 256.915614 
L 210.743337 253.29926 
L 211.02473 253.29926 
L 211.02473 252.782638 
L 211.163782 252.782638 
L 211.163782 252.266016 
L 211.574562 252.266016 
L 211.574562 251.232772 
L 211.709416 251.232772 
L 211.709416 250.199528 
L 211.84326 250.199528 
L 211.84326 248.13304 
L 211.976109 248.13304 
L 211.976109 245.033307 
L 212.107978 245.033307 
L 212.107978 244.000063 
L 212.23888 244.000063 
L 212.23888 242.450197 
L 212.368831 242.450197 
L 212.368831 239.867087 
L 212.497843 239.867087 
L 212.497843 239.350465 
L 212.62593 239.350465 
L 212.62593 237.800599 
L 212.753106 237.800599 
L 212.753106 231.601135 
L 212.879383 231.601135 
L 212.879383 226.434915 
L 213.004774 226.434915 
L 213.004774 223.335183 
L 213.129291 223.335183 
L 213.129291 218.168963 
L 213.252946 218.168963 
L 213.252946 216.102475 
L 213.375752 216.102475 
L 213.375752 214.552609 
L 213.497719 214.552609 
L 213.497719 211.452876 
L 213.618859 211.452876 
L 213.618859 206.803278 
L 213.739183 206.803278 
L 213.739183 202.15368 
L 213.858703 202.15368 
L 213.858703 196.470838 
L 214.899859 196.470838 
L 214.899859 195.437594 
L 215.453095 195.437594 
L 215.453095 194.920972 
L 216.199931 194.920972 
L 216.304119 192.854484 
L 218.176321 192.854484 
L 218.269628 191.304618 
L 218.362449 191.304618 
L 218.362449 190.787996 
L 218.638055 190.787996 
L 218.638055 189.23813 
L 218.819459 189.23813 
L 218.909475 188.204886 
L 218.99904 188.204886 
L 219.088158 185.621776 
L 219.176833 185.621776 
L 219.265071 183.038666 
L 219.352875 183.038666 
L 219.352875 182.522044 
L 219.5272 182.522044 
L 219.5272 182.005422 
L 219.69984 182.005422 
L 219.69984 179.938934 
L 219.955712 179.938934 
L 220.040195 178.90569 
L 220.291274 178.90569 
L 220.374188 177.355823 
L 220.783088 177.355823 
L 220.863756 176.322579 
L 221.418465 176.322579 
L 221.418465 174.256091 
L 221.573841 174.256091 
L 221.651025 170.123115 
L 221.727878 170.123115 
L 221.727878 168.056627 
L 221.880598 168.056627 
L 221.956471 166.506761 
L 222.032023 166.506761 
L 222.107257 163.923651 
L 222.182176 163.923651 
L 222.256782 161.857163 
L 222.331078 161.857163 
L 222.405066 157.724187 
L 222.55213 157.724187 
L 222.62521 151.008101 
L 222.697993 151.008101 
L 222.77048 140.159038 
L 222.842675 140.159038 
L 222.914579 137.059306 
L 222.986194 137.059306 
L 223.057524 129.826598 
L 223.128571 129.826598 
L 223.128571 129.309976 
L 223.269821 129.309976 
L 223.269821 128.793354 
L 223.755586 128.793354 
L 223.755586 127.243488 
L 224.883077 127.243488 
L 224.947236 126.210244 
L 225.264617 126.210244 
L 225.327423 124.660378 
L 225.390008 124.660378 
L 225.452375 123.627134 
L 225.57646 123.627134 
L 225.57646 121.560646 
L 225.760986 121.560646 
L 225.822073 117.42767 
L 225.882953 117.42767 
L 225.943626 115.361182 
L 226.004093 115.361182 
L 226.064357 110.711584 
L 226.124418 110.711584 
L 226.184277 106.578607 
L 226.243937 106.578607 
L 226.243937 105.545363 
L 229.049298 105.545363 
L 229.150822 102.962253 
L 229.201368 102.962253 
L 229.201368 102.445631 
L 229.352155 102.445631 
L 229.451977 99.862521 
L 229.991248 99.862521 
L 230.087572 98.312655 
L 230.231092 98.312655 
L 230.231092 94.696301 
L 230.373468 94.696301 
L 230.467759 93.146435 
L 230.561555 93.146435 
L 230.654862 89.013459 
L 230.701333 89.013459 
L 230.793914 86.430349 
L 230.886018 86.430349 
L 230.931892 84.363861 
L 231.023289 84.363861 
L 231.114222 78.164397 
L 231.159515 78.164397 
L 231.249758 73.514798 
L 231.294709 73.514798 
L 231.384274 64.732224 
L 232.425429 64.732224 
L 232.425429 62.149114 
L 232.634906 62.149114 
L 232.634906 61.632492 
L 232.841954 61.632492 
L 232.924107 60.082626 
L 232.965042 60.082626 
L 233.046632 53.36654 
L 233.087287 53.36654 
L 233.168322 51.300052 
L 233.289189 51.300052 
L 233.369315 50.266808 
L 233.409244 50.266808 
L 233.449084 46.133832 
L 234.56741 46.133832 
L 234.56741 45.61721 
L 234.7903 45.61721 
L 234.863983 42.517478 
L 234.973941 42.517478 
L 234.973941 42.000855 
L 235.335657 42.000855 
L 235.442758 39.934367 
L 235.478317 39.934367 
L 235.478317 39.417745 
L 236.446266 39.417745 
L 236.546932 37.351257 
L 236.647033 37.351257 
L 236.647033 35.284769 
L 236.812633 35.284769 
L 236.812633 34.768147 
L 358.8 34.768147 
L 358.8 34.768147 
" style="fill:none;stroke:#0000ff;stroke-linecap:square;stroke-width:1.5;"/>
   </g>
   <g id="line2d_51">
    <defs>
     <path d="M 0 -6 
L -1.347084 -1.854102 
L -5.706339 -1.854102 
L -2.179628 0.708204 
L -3.526712 4.854102 
L -0 2.291796 
L 3.526712 4.854102 
L 2.179628 0.708204 
L 5.706339 -1.854102 
L 1.347084 -1.854102 
z
" id="mec0c535da1" style="stroke:#0000ff;stroke-linejoin:bevel;stroke-width:1.5;"/>
    </defs>
    <g>
     <use style="fill:none;stroke:#0000ff;stroke-linejoin:bevel;stroke-width:1.5;" x="358.8" xlink:href="#mec0c535da1" y="34.768147"/>
    </g>
   </g>
   <g id="line2d_52"/>
   <g id="line2d_53">
    <defs>
     <path d="M 0 1.5 
C 0.397805 1.5 0.77937 1.341951 1.06066 1.06066 
C 1.341951 0.77937 1.5 0.397805 1.5 0 
C 1.5 -0.397805 1.341951 -0.77937 1.06066 -1.06066 
C 0.77937 -1.341951 0.397805 -1.5 0 -1.5 
C -0.397805 -1.5 -0.77937 -1.341951 -1.06066 -1.06066 
C -1.341951 -0.77937 -1.5 -0.397805 -1.5 0 
C -1.5 0.397805 -1.341951 0.77937 -1.06066 1.06066 
C -0.77937 1.341951 -0.397805 1.5 0 1.5 
z
" id="me061171979" style="stroke:#000000;"/>
    </defs>
    <g>
     <use style="stroke:#000000;" x="247.720891" xlink:href="#me061171979" y="34.768147"/>
     <use style="stroke:#000000;" x="247.720891" xlink:href="#me061171979" y="34.768147"/>
    </g>
   </g>
   <g id="line2d_54">
    <path d="M 179.559196 298.245375 
L 179.559196 297.728753 
L 181.113925 297.728753 
L 181.113925 297.212131 
L 182.544138 297.212131 
L 182.544138 296.178887 
L 185.10108 296.178887 
L 185.10108 295.662265 
L 186.804093 295.662265 
L 186.804093 295.145643 
L 189.789035 295.145643 
L 189.789035 294.629021 
L 190.682627 294.629021 
L 190.682627 294.112399 
L 191.94443 294.112399 
L 191.94443 292.562533 
L 193.867587 292.562533 
L 193.867587 289.462801 
L 194.228571 289.462801 
L 194.228571 288.429557 
L 203.709898 288.429557 
L 203.709898 287.912935 
L 211.709416 287.912935 
L 211.709416 287.396313 
L 212.23888 287.396313 
L 212.23888 286.879691 
L 212.879383 286.879691 
L 212.879383 286.363069 
L 213.004774 286.363069 
L 213.004774 285.329825 
L 213.252946 285.329825 
L 213.252946 284.296581 
L 213.375752 284.296581 
L 213.375752 283.263337 
L 219.176833 283.263337 
L 219.265071 278.613738 
L 219.352875 278.613738 
L 219.352875 277.580494 
L 219.613728 277.580494 
L 219.69984 276.030628 
L 219.785538 276.030628 
L 219.785538 275.514006 
L 220.040195 275.514006 
L 220.124281 272.414274 
L 220.207972 272.414274 
L 220.207972 270.864408 
L 220.45672 270.864408 
L 220.538873 269.314542 
L 220.702053 269.314542 
L 220.783088 267.764676 
L 220.863756 267.764676 
L 220.863756 267.248054 
L 221.340268 267.248054 
L 221.418465 265.698188 
L 221.727878 265.698188 
L 221.804401 261.04859 
L 221.880598 261.04859 
L 221.880598 256.915614 
L 222.032023 256.915614 
L 222.107257 250.71615 
L 222.182176 250.71615 
L 222.182176 248.649662 
L 222.331078 248.649662 
L 222.405066 246.066551 
L 222.478749 246.066551 
L 222.55213 241.933575 
L 222.62521 241.933575 
L 222.697993 237.800599 
L 222.77048 237.800599 
L 222.842675 233.667623 
L 222.914579 233.667623 
L 222.986194 229.534647 
L 223.549016 229.534647 
L 223.549016 229.018025 
L 225.20159 229.018025 
L 225.20159 228.501403 
L 225.699689 228.501403 
L 225.699689 227.984781 
L 226.004093 227.984781 
L 226.004093 227.468159 
L 226.124418 227.468159 
L 226.124418 226.951537 
L 226.421731 226.951537 
L 226.421731 226.434915 
L 227.45287 226.434915 
L 227.45287 225.918293 
L 228.108654 225.918293 
L 228.215649 224.368427 
L 228.532843 224.368427 
L 228.637335 222.818561 
L 228.689353 222.818561 
L 228.792936 214.552609 
L 228.844504 214.552609 
L 228.947195 210.936254 
L 228.998319 210.936254 
L 228.998319 209.386388 
L 231.428888 209.386388 
L 231.473392 207.3199 
L 231.606241 207.3199 
L 231.606241 206.803278 
L 232.383238 206.803278 
L 232.383238 206.286656 
L 232.55141 206.286656 
L 232.593206 204.220168 
L 232.718013 204.220168 
L 232.800736 202.15368 
L 232.924107 202.15368 
L 233.005883 199.57057 
L 233.046632 199.57057 
L 233.12785 196.470838 
L 233.168322 196.470838 
L 233.248991 188.721508 
L 233.289189 188.721508 
L 233.369315 183.038666 
L 233.409244 183.038666 
L 233.488835 173.222847 
L 234.604752 173.222847 
L 234.679203 172.189603 
L 234.716312 172.189603 
L 234.753345 171.156359 
L 234.863983 171.156359 
L 234.937364 166.506761 
L 235.010444 166.506761 
L 235.083227 164.440273 
L 235.191848 164.440273 
L 235.299813 157.724187 
L 235.335657 157.724187 
L 235.371429 153.074589 
L 237.139299 153.074589 
L 237.139299 151.008101 
L 237.4601 151.008101 
L 237.4601 150.491479 
L 237.992581 150.491479 
L 238.084923 149.458235 
L 238.14622 149.458235 
L 238.237773 147.391747 
L 238.268187 147.391747 
L 238.359119 144.808637 
L 238.419484 144.808637 
L 238.509652 138.609172 
L 238.539607 138.609172 
L 238.629171 129.309976 
L 238.953787 129.309976 
L 238.953787 128.793354 
L 239.329972 128.793354 
L 239.329972 128.276732 
L 239.865914 128.276732 
L 239.949086 125.693622 
L 240.031873 125.693622 
L 240.114278 124.143756 
L 240.944257 124.143756 
L 240.944257 123.627134 
L 241.100539 123.627134 
L 241.178171 120.527402 
L 241.255466 120.527402 
L 241.358009 111.228206 
L 241.383553 111.228206 
L 241.434532 106.061985 
L 241.611822 106.061985 
L 241.712346 104.512119 
L 241.936479 104.512119 
L 242.035198 101.929009 
L 242.084354 101.929009 
L 242.182261 99.345899 
L 242.279636 99.345899 
L 242.35232 94.696301 
L 242.400612 94.696301 
L 242.496806 86.430349 
L 242.520774 86.430349 
L 242.616326 76.614531 
L 242.758702 76.614531 
L 242.758702 75.581286 
L 243.385718 75.581286 
L 243.454047 74.548042 
L 243.544749 74.548042 
L 243.634992 70.415066 
L 243.657482 70.415066 
L 243.724782 66.798712 
L 244.534621 66.798712 
L 244.641296 62.149114 
L 244.662555 62.149114 
L 244.768472 55.94965 
L 244.78958 55.94965 
L 244.852756 52.333296 
L 245.593936 52.333296 
L 245.593936 51.816674 
L 245.714531 51.816674 
L 245.714531 50.266808 
L 245.893911 50.266808 
L 245.93353 48.716942 
L 246.363637 48.716942 
L 246.459961 47.167076 
L 246.593949 47.167076 
L 246.689043 45.100588 
L 246.708001 45.100588 
L 246.802491 39.934367 
L 246.82133 39.934367 
L 246.82133 37.867879 
L 247.322598 37.867879 
L 247.413902 35.801391 
L 247.649131 35.801391 
L 247.720891 34.768147 
L 358.8 34.768147 
L 358.8 34.768147 
" style="fill:none;stroke:#000000;stroke-linecap:square;stroke-width:1.5;"/>
   </g>
   <g id="line2d_55">
    <defs>
     <path d="M 0 6 
C 1.591219 6 3.117479 5.367802 4.242641 4.242641 
C 5.367802 3.117479 6 1.591219 6 0 
C 6 -1.591219 5.367802 -3.117479 4.242641 -4.242641 
C 3.117479 -5.367802 1.591219 -6 0 -6 
C -1.591219 -6 -3.117479 -5.367802 -4.242641 -4.242641 
C -5.367802 -3.117479 -6 -1.591219 -6 0 
C -6 1.591219 -5.367802 3.117479 -4.242641 4.242641 
C -3.117479 5.367802 -1.591219 6 0 6 
z
" id="mbb8425a784" style="stroke:#000000;stroke-width:1.5;"/>
    </defs>
    <g>
     <use style="fill:none;stroke:#000000;stroke-width:1.5;" x="358.8" xlink:href="#mbb8425a784" y="34.768147"/>
    </g>
   </g>
   <g id="line2d_56"/>
   <g id="line2d_57">
    <defs>
     <path d="M 0 1.5 
C 0.397805 1.5 0.77937 1.341951 1.06066 1.06066 
C 1.341951 0.77937 1.5 0.397805 1.5 0 
C 1.5 -0.397805 1.341951 -0.77937 1.06066 -1.06066 
C 0.77937 -1.341951 0.397805 -1.5 0 -1.5 
C -0.397805 -1.5 -0.77937 -1.341951 -1.06066 -1.06066 
C -1.341951 -0.77937 -1.5 -0.397805 -1.5 0 
C -1.5 0.397805 -1.341951 0.77937 -1.06066 1.06066 
C -0.77937 1.341951 -0.397805 1.5 0 1.5 
z
" id="m46cd09aae5" style="stroke:#ff0000;"/>
    </defs>
    <g>
     <use style="fill:#ff0000;stroke:#ff0000;" x="260.799693" xlink:href="#m46cd09aae5" y="34.768147"/>
     <use style="fill:#ff0000;stroke:#ff0000;" x="260.799693" xlink:href="#m46cd09aae5" y="34.768147"/>
    </g>
   </g>
   <g id="line2d_58">
    <path d="M 206.343753 298.245375 
L 206.343753 297.728753 
L 206.343753 297.728753 
L 206.343753 297.728753 
L 206.434225 297.728753 
L 206.434225 297.212131 
L 208.071486 297.212131 
L 208.071486 296.695509 
L 208.397854 296.695509 
L 208.397854 296.178887 
L 209.419167 296.178887 
L 209.419167 295.662265 
L 209.722023 295.662265 
L 209.796942 293.595777 
L 210.019832 293.595777 
L 210.019832 293.079155 
L 210.166896 293.079155 
L 210.166896 292.562533 
L 210.60096 292.562533 
L 210.60096 292.045911 
L 212.62593 292.045911 
L 212.62593 291.529289 
L 213.004774 291.529289 
L 213.004774 291.012667 
L 213.375752 291.012667 
L 213.375752 290.496045 
L 213.618859 290.496045 
L 213.618859 289.979423 
L 213.739183 289.979423 
L 213.799043 288.429557 
L 215.936773 288.429557 
L 215.936773 287.396313 
L 216.199931 287.396313 
L 216.252101 286.363069 
L 216.407702 286.363069 
L 216.407702 285.329825 
L 216.613085 285.329825 
L 216.613085 283.779959 
L 217.845858 283.779959 
L 217.845858 283.263337 
L 218.546658 283.263337 
L 218.546658 282.230093 
L 218.864524 282.230093 
L 218.864524 280.680226 
L 218.99904 280.680226 
L 218.99904 279.13036 
L 221.02401 279.13036 
L 221.02401 278.097116 
L 221.918574 278.097116 
L 221.918574 277.580494 
L 222.878663 277.580494 
L 222.986194 276.030628 
L 224.558783 276.030628 
L 224.624114 274.997384 
L 225.822073 274.997384 
L 225.913315 273.447518 
L 225.973885 273.447518 
L 226.064357 272.414274 
L 226.124418 272.414274 
L 226.214132 270.864408 
L 226.597773 270.864408 
L 226.597773 269.831164 
L 226.800987 269.831164 
L 226.800987 269.314542 
L 227.087341 269.314542 
L 227.087341 268.79792 
L 227.20061 268.79792 
L 227.285093 267.764676 
L 227.369178 267.764676 
L 227.369178 267.248054 
L 227.48068 267.248054 
L 227.59149 264.664944 
L 227.619086 264.664944 
L 227.729044 260.015346 
L 227.78377 260.015346 
L 227.78377 259.498724 
L 228.637335 259.498724 
L 228.637335 258.46548 
L 228.767097 258.46548 
L 228.870232 254.849126 
L 228.895923 254.849126 
L 228.998319 251.232772 
L 229.69912 251.232772 
L 229.69912 250.71615 
L 229.991248 250.71615 
L 230.06354 248.649662 
L 230.231092 248.649662 
L 230.231092 248.13304 
L 231.339548 248.13304 
L 231.339548 247.616418 
L 232.404346 247.616418 
L 232.467522 245.549929 
L 232.593206 245.549929 
L 232.655719 244.516685 
L 233.369315 244.516685 
L 233.369315 243.483441 
L 233.488835 243.483441 
L 233.488835 242.966819 
L 234.322767 242.966819 
L 234.398399 238.833843 
L 234.454914 238.833843 
L 234.454914 238.317221 
L 235.299813 238.317221 
L 235.299813 237.800599 
L 235.742773 237.800599 
L 235.812639 236.767355 
L 236.05504 236.767355 
L 236.140821 234.184245 
L 236.192092 234.184245 
L 236.294196 231.084513 
L 236.927647 231.084513 
L 237.009349 229.018025 
L 237.058191 229.018025 
L 237.074442 227.984781 
L 237.712657 227.984781 
L 237.822038 226.434915 
L 237.837609 226.434915 
L 237.837609 225.401671 
L 238.374229 225.401671 
L 238.374229 224.368427 
L 238.524635 224.368427 
L 238.629171 220.752073 
L 238.836426 220.752073 
L 238.909867 219.718829 
L 239.157331 219.718829 
L 239.24386 218.685585 
L 239.286968 218.685585 
L 239.358583 214.552609 
L 239.935251 214.552609 
L 239.935251 214.035987 
L 240.720492 214.035987 
L 240.786596 211.452876 
L 241.21686 211.452876 
L 241.242607 210.419632 
L 241.332429 210.419632 
L 241.332429 208.869766 
L 241.78737 208.869766 
L 241.886914 207.3199 
L 241.899318 207.3199 
L 241.973562 202.670302 
L 242.010569 202.670302 
L 242.010569 201.637058 
L 242.520774 201.637058 
L 242.592486 200.087192 
L 243.589927 200.087192 
L 243.634992 198.537326 
L 243.724782 198.537326 
L 243.769508 194.40435 
L 244.188915 194.40435 
L 244.243374 191.304618 
L 244.308507 191.304618 
L 244.319339 190.271374 
L 244.704997 190.271374 
L 244.810663 186.138398 
L 245.103247 186.138398 
L 245.103247 185.105154 
L 245.288838 185.105154 
L 245.370708 179.422312 
L 245.624161 179.422312 
L 245.624161 177.872445 
L 245.754549 177.872445 
L 245.864139 174.256091 
L 246.334638 174.256091 
L 246.334638 173.739469 
L 246.574869 173.739469 
L 246.574869 173.222847 
L 246.793065 173.222847 
L 246.840148 170.123115 
L 247.203201 170.123115 
L 247.249218 167.540005 
L 247.658117 167.540005 
L 247.747726 161.857163 
L 248.206587 161.857163 
L 248.224002 160.307297 
L 248.483216 160.307297 
L 248.585857 156.690943 
L 248.594384 156.690943 
L 248.628451 153.074589 
L 248.932166 153.074589 
L 249.040584 148.941613 
L 249.048897 148.941613 
L 249.048897 147.908369 
L 249.402732 147.908369 
L 249.451552 144.292014 
L 249.845334 144.292014 
L 249.861224 143.25877 
L 250.600163 143.25877 
L 250.638221 140.159038 
L 250.969679 140.159038 
L 251.014405 137.575928 
L 251.096114 137.575928 
L 251.096114 137.059306 
L 251.353637 137.059306 
L 251.397413 134.476196 
L 251.607501 134.476196 
L 251.715206 128.793354 
L 251.729517 128.793354 
L 251.743817 125.177 
L 252.083633 125.177 
L 252.097653 122.59389 
L 252.382659 122.59389 
L 252.444618 116.394426 
L 252.751228 116.394426 
L 252.784973 113.294694 
L 253.072581 113.294694 
L 253.072581 112.778072 
L 253.316406 112.778072 
L 253.414314 111.744828 
L 253.440332 111.744828 
L 253.440332 110.711584 
L 253.711262 110.711584 
L 253.768788 108.645095 
L 253.946581 108.645095 
L 254.053671 106.578607 
L 254.078775 106.578607 
L 254.09758 102.962253 
L 254.203771 102.962253 
L 254.203771 102.445631 
L 254.321713 102.445631 
L 254.389641 99.345899 
L 254.658799 99.345899 
L 254.701249 93.663057 
L 254.971755 93.663057 
L 255.00156 91.079947 
L 255.291048 91.079947 
L 255.296908 90.046703 
L 255.52972 90.046703 
L 255.581688 88.496837 
L 255.748117 88.496837 
L 255.844964 82.297373 
L 255.862 82.297373 
L 255.873348 79.714263 
L 256.093215 79.714263 
L 256.121208 78.164397 
L 256.426274 78.164397 
L 256.426274 77.647775 
L 256.612288 77.647775 
L 256.704574 68.348578 
L 256.946583 68.348578 
L 256.973272 65.765468 
L 257.216956 65.765468 
L 257.23799 63.69898 
L 257.509198 63.69898 
L 257.52472 62.665736 
L 257.699697 62.665736 
L 257.755942 56.466272 
L 257.964038 56.466272 
L 258.009395 54.399784 
L 258.244407 54.399784 
L 258.259303 52.333296 
L 258.48127 52.333296 
L 258.500868 49.750186 
L 258.671436 49.750186 
L 258.73921 46.133832 
L 258.960103 46.133832 
L 258.988715 42.517478 
L 259.201856 42.517478 
L 259.225382 40.450989 
L 259.602253 40.450989 
L 259.689515 37.867879 
L 260.115074 37.867879 
L 260.141897 36.834635 
L 260.337373 36.834635 
L 260.337373 35.284769 
L 260.799693 35.284769 
L 260.799693 34.768147 
L 358.8 34.768147 
L 358.8 34.768147 
" style="fill:none;stroke:#ff0000;stroke-linecap:square;stroke-width:1.5;"/>
   </g>
   <g id="line2d_59">
    <defs>
     <path d="M -6 6 
L 6 6 
L 6 -6 
L -6 -6 
z
" id="m42a25bbdcb" style="stroke:#ff0000;stroke-linejoin:miter;stroke-width:1.5;"/>
    </defs>
    <g>
     <use style="fill:none;stroke:#ff0000;stroke-linejoin:miter;stroke-width:1.5;" x="358.8" xlink:href="#m42a25bbdcb" y="34.768147"/>
    </g>
   </g>
   <g id="line2d_60"/>
   <g id="line2d_61">
    <defs>
     <path d="M 0 1.5 
C 0.397805 1.5 0.77937 1.341951 1.06066 1.06066 
C 1.341951 0.77937 1.5 0.397805 1.5 0 
C 1.5 -0.397805 1.341951 -0.77937 1.06066 -1.06066 
C 0.77937 -1.341951 0.397805 -1.5 0 -1.5 
C -0.397805 -1.5 -0.77937 -1.341951 -1.06066 -1.06066 
C -1.341951 -0.77937 -1.5 -0.397805 -1.5 0 
C -1.5 0.397805 -1.341951 0.77937 -1.06066 1.06066 
C -0.77937 1.341951 -0.397805 1.5 0 1.5 
z
" id="m86d74306c2" style="stroke:#bf00bf;"/>
    </defs>
    <g>
     <use style="fill:#bf00bf;stroke:#bf00bf;" x="274.229129" xlink:href="#m86d74306c2" y="34.768147"/>
     <use style="fill:#bf00bf;stroke:#bf00bf;" x="274.229129" xlink:href="#m86d74306c2" y="34.768147"/>
    </g>
   </g>
   <g id="line2d_62">
    <path d="M 226.019178 298.245375 
L 226.019178 297.728753 
L 227.550017 297.728753 
L 227.550017 297.212131 
L 228.268907 297.212131 
L 228.268907 296.695509 
L 228.870232 296.695509 
L 228.870232 296.178887 
L 230.219176 296.178887 
L 230.219176 295.662265 
L 231.238502 295.662265 
L 231.238502 295.145643 
L 231.373103 295.145643 
L 231.373103 294.629021 
L 231.683282 294.629021 
L 231.683282 294.112399 
L 231.847261 294.112399 
L 231.934105 290.496045 
L 232.362105 290.496045 
L 232.362105 289.462801 
L 233.968742 289.462801 
L 233.968742 288.946179 
L 234.322767 288.946179 
L 234.426679 287.912935 
L 234.445507 287.912935 
L 234.445507 286.879691 
L 234.558063 286.879691 
L 234.558063 286.363069 
L 234.80875 286.363069 
L 234.919047 284.813203 
L 235.010444 284.813203 
L 235.065059 283.263337 
L 235.830063 283.263337 
L 235.830063 282.230093 
L 236.029225 282.230093 
L 236.063636 281.196849 
L 236.234706 281.196849 
L 236.234706 280.680226 
L 236.412584 280.680226 
L 236.412584 279.13036 
L 236.605392 279.13036 
L 236.663663 276.030628 
L 237.4601 276.030628 
L 237.4601 275.514006 
L 237.860941 275.514006 
L 237.860941 274.997384 
L 238.606822 274.997384 
L 238.606822 274.480762 
L 238.975706 274.480762 
L 238.990304 273.447518 
L 239.508049 273.447518 
L 239.508049 272.414274 
L 239.74742 272.414274 
L 239.852014 270.864408 
L 240.332185 270.864408 
L 240.332185 270.347786 
L 240.480469 270.347786 
L 240.480469 269.831164 
L 240.700612 269.831164 
L 240.799788 267.764676 
L 240.970399 267.764676 
L 240.970399 267.248054 
L 241.293989 267.248054 
L 241.370786 265.698188 
L 241.415432 265.698188 
L 241.440895 262.598456 
L 241.674716 262.598456 
L 241.712346 261.04859 
L 241.930291 261.04859 
L 241.979736 260.015346 
L 242.084354 260.015346 
L 242.084354 259.498724 
L 242.85887 259.498724 
L 242.882358 258.46548 
L 243.045911 258.46548 
L 243.045911 257.948858 
L 243.476766 257.948858 
L 243.488114 256.398992 
L 244.308507 256.398992 
L 244.384197 253.815882 
L 244.931412 253.815882 
L 244.931412 253.29926 
L 245.05135 253.29926 
L 245.066935 252.266016 
L 245.350276 252.266016 
L 245.350276 251.749394 
L 245.598977 251.749394 
L 245.669403 248.13304 
L 246.042031 248.13304 
L 246.120529 246.583173 
L 246.184056 246.583173 
L 246.261934 245.033307 
L 246.305592 245.033307 
L 246.324961 244.000063 
L 246.589181 244.000063 
L 246.589181 243.483441 
L 246.830741 243.483441 
L 246.840148 242.450197 
L 247.059793 242.450197 
L 247.087639 240.900331 
L 247.707458 240.900331 
L 247.707458 240.383709 
L 247.960973 240.383709 
L 247.97863 238.317221 
L 248.088588 238.317221 
L 248.184794 237.283977 
L 248.478926 237.283977 
L 248.478926 236.767355 
L 248.965595 236.767355 
L 248.965595 236.250733 
L 249.082109 236.250733 
L 249.082109 235.734111 
L 249.239029 235.734111 
L 249.255467 233.667623 
L 249.577057 233.667623 
L 249.661578 230.567891 
L 249.857252 230.567891 
L 249.857252 230.051269 
L 250.050808 230.051269 
L 250.050808 229.534647 
L 250.246175 229.534647 
L 250.284993 228.501403 
L 250.431739 228.501403 
L 250.508492 226.434915 
L 251.014405 226.434915 
L 251.014405 225.918293 
L 251.192199 225.918293 
L 251.192199 225.401671 
L 251.408341 225.401671 
L 251.408341 224.885049 
L 251.600298 224.885049 
L 251.600298 224.368427 
L 251.768815 224.368427 
L 251.768815 223.335183 
L 251.921611 223.335183 
L 251.921611 221.785317 
L 252.122161 221.785317 
L 252.230295 220.752073 
L 252.612202 220.752073 
L 252.612202 220.235451 
L 252.768108 220.235451 
L 252.778229 218.685585 
L 253.089161 218.685585 
L 253.089161 218.168963 
L 253.303311 218.168963 
L 253.303311 217.652341 
L 253.437082 217.652341 
L 253.476046 215.069231 
L 253.740048 215.069231 
L 253.740048 214.552609 
L 253.956056 214.552609 
L 253.993906 212.48612 
L 254.075639 212.48612 
L 254.116366 210.936254 
L 254.237992 210.936254 
L 254.237992 210.419632 
L 254.530843 210.419632 
L 254.530843 209.90301 
L 254.69822 209.90301 
L 254.743597 207.836522 
L 254.843024 207.836522 
L 254.843024 206.803278 
L 254.989644 206.803278 
L 255.037261 205.253412 
L 255.439865 205.253412 
L 255.439865 204.73679 
L 255.552836 204.73679 
L 255.616249 202.670302 
L 255.725254 202.670302 
L 255.728113 200.087192 
L 255.901688 200.087192 
L 255.901688 199.57057 
L 256.140777 199.57057 
L 256.140777 199.053948 
L 256.304872 199.053948 
L 256.304872 198.537326 
L 256.680191 198.537326 
L 256.726219 196.98746 
L 256.825988 196.98746 
L 256.825988 196.470838 
L 256.959933 196.470838 
L 257.007908 194.920972 
L 257.483299 194.920972 
L 257.498843 193.371106 
L 257.617568 193.371106 
L 257.630426 191.82124 
L 257.748283 191.82124 
L 257.748283 191.304618 
L 257.872977 191.304618 
L 257.898319 189.754752 
L 258.004361 189.754752 
L 258.029517 187.171642 
L 258.451833 187.171642 
L 258.532668 185.105154 
L 258.744041 185.105154 
L 258.842793 183.555288 
L 258.861999 183.555288 
L 258.861999 182.522044 
L 259.095603 182.522044 
L 259.105074 181.4888 
L 259.223031 181.4888 
L 259.244181 178.90569 
L 259.551537 178.90569 
L 259.574607 177.355823 
L 259.803689 177.355823 
L 259.82871 175.289335 
L 260.047842 175.289335 
L 260.056821 172.706225 
L 260.361658 172.706225 
L 260.469436 171.672981 
L 260.580928 171.672981 
L 260.596177 170.123115 
L 260.719862 170.123115 
L 260.719862 168.573249 
L 260.892024 168.573249 
L 260.926258 166.506761 
L 261.00943 166.506761 
L 261.115498 164.440273 
L 261.531516 164.440273 
L 261.531516 163.407029 
L 261.759426 163.407029 
L 261.759426 161.857163 
L 262.010638 161.857163 
L 262.044804 160.307297 
L 262.343476 160.307297 
L 262.343476 159.790675 
L 262.459599 159.790675 
L 262.541805 158.757431 
L 262.639179 158.757431 
L 262.734094 156.174321 
L 262.826585 156.174321 
L 262.85731 154.624455 
L 263.013948 154.624455 
L 263.118246 149.974857 
L 263.137144 149.974857 
L 263.137144 149.458235 
L 263.390331 149.458235 
L 263.390331 148.941613 
L 263.505418 148.941613 
L 263.582961 147.391747 
L 263.673004 147.391747 
L 263.673004 146.875125 
L 263.855371 146.875125 
L 263.93322 144.292014 
L 263.967511 144.292014 
L 263.967511 143.775392 
L 264.118328 143.775392 
L 264.125478 142.742148 
L 264.305076 142.742148 
L 264.382756 141.192282 
L 264.655477 141.192282 
L 264.655477 140.159038 
L 264.828134 140.159038 
L 264.828134 139.125794 
L 264.994032 139.125794 
L 265.019549 137.059306 
L 265.168521 137.059306 
L 265.249259 134.476196 
L 265.337984 134.476196 
L 265.419623 132.92633 
L 265.48268 132.92633 
L 265.586732 129.826598 
L 265.663966 129.826598 
L 265.7425 128.793354 
L 265.911483 128.793354 
L 265.992159 127.76011 
L 266.069267 127.76011 
L 266.174749 124.660378 
L 266.260593 124.660378 
L 266.330236 122.077268 
L 266.617009 122.077268 
L 266.686828 120.527402 
L 266.761002 120.527402 
L 266.85789 118.977536 
L 266.926775 118.977536 
L 266.934413 115.361182 
L 267.151477 115.361182 
L 267.253779 113.294694 
L 267.303215 113.294694 
L 267.327134 111.744828 
L 267.458124 111.744828 
L 267.546888 110.194961 
L 267.671887 110.194961 
L 267.674817 109.161717 
L 267.825099 109.161717 
L 267.900492 105.545363 
L 267.971246 105.545363 
L 268.061805 103.478875 
L 268.198923 103.478875 
L 268.198923 102.962253 
L 268.323697 102.962253 
L 268.418114 100.895765 
L 268.53858 100.895765 
L 268.609637 98.312655 
L 268.744011 98.312655 
L 268.822504 96.246167 
L 268.906125 96.246167 
L 269.016561 94.696301 
L 269.081684 94.696301 
L 269.089808 93.146435 
L 269.423726 93.146435 
L 269.484736 91.596569 
L 269.557411 91.596569 
L 269.645545 88.496837 
L 269.683558 88.496837 
L 269.754126 87.463593 
L 269.89702 87.463593 
L 269.960307 86.430349 
L 270.022085 86.430349 
L 270.130963 84.363861 
L 270.1399 84.363861 
L 270.1399 83.847239 
L 270.393371 83.847239 
L 270.393371 83.330617 
L 270.50752 83.330617 
L 270.589856 79.197641 
L 270.634608 79.197641 
L 270.642055 78.164397 
L 270.765728 78.164397 
L 270.828472 76.614531 
L 270.887326 76.614531 
L 270.950866 73.514798 
L 271.009318 73.514798 
L 271.079694 71.964932 
L 271.25323 71.964932 
L 271.313094 69.898444 
L 271.371567 69.898444 
L 271.43341 67.831956 
L 271.500956 67.831956 
L 271.610616 66.28209 
L 271.668125 66.28209 
L 271.777932 64.215602 
L 271.786082 64.215602 
L 271.789574 62.665736 
L 271.944849 62.665736 
L 272.015089 59.566004 
L 272.125076 59.566004 
L 272.187785 58.016138 
L 272.243468 58.016138 
L 272.312547 56.982894 
L 272.367843 56.982894 
L 272.367843 56.466272 
L 272.526014 56.466272 
L 272.582882 55.433028 
L 272.637349 55.433028 
L 272.747995 50.78343 
L 272.812956 50.78343 
L 272.90941 48.20032 
L 273.019476 48.20032 
L 273.087788 46.133832 
L 273.138582 46.133832 
L 273.193536 44.583966 
L 273.290104 44.583966 
L 273.345661 42.517478 
L 273.50179 42.517478 
L 273.568286 37.351257 
L 273.624037 37.351257 
L 273.624037 36.834635 
L 273.911584 36.834635 
L 273.911584 36.318013 
L 274.023881 36.318013 
L 274.023881 35.801391 
L 274.229129 35.801391 
L 274.229129 34.768147 
L 358.8 34.768147 
L 358.8 34.768147 
" style="fill:none;stroke:#bf00bf;stroke-linecap:square;stroke-width:1.5;"/>
   </g>
   <g id="line2d_63">
    <defs>
     <path d="M -0 8.485281 
L 8.485281 0 
L 0 -8.485281 
L -8.485281 -0 
z
" id="m25aafdb005" style="stroke:#bf00bf;stroke-linejoin:miter;stroke-width:1.5;"/>
    </defs>
    <g>
     <use style="fill:none;stroke:#bf00bf;stroke-linejoin:miter;stroke-width:1.5;" x="358.8" xlink:href="#m25aafdb005" y="34.768147"/>
    </g>
   </g>
   <g id="line2d_64"/>
   <g id="line2d_65">
    <path d="M 358.8 34.768147 
L 390.48 292.97583 
" style="fill:none;stroke:#bf00bf;stroke-linecap:square;stroke-width:1.5;"/>
    <g>
     <use style="fill:none;stroke:#bf00bf;stroke-linejoin:miter;stroke-width:1.5;" x="358.8" xlink:href="#m25aafdb005" y="34.768147"/>
     <use style="fill:none;stroke:#bf00bf;stroke-linejoin:miter;stroke-width:1.5;" x="390.48" xlink:href="#m25aafdb005" y="292.97583"/>
    </g>
   </g>
   <g id="line2d_66">
    <path d="M 358.8 34.768147 
L 390.48 242.388203 
" style="fill:none;stroke:#ff0000;stroke-linecap:square;stroke-width:1.5;"/>
    <g>
     <use style="fill:none;stroke:#ff0000;stroke-linejoin:miter;stroke-width:1.5;" x="358.8" xlink:href="#m42a25bbdcb" y="34.768147"/>
     <use style="fill:none;stroke:#ff0000;stroke-linejoin:miter;stroke-width:1.5;" x="390.48" xlink:href="#m42a25bbdcb" y="242.388203"/>
    </g>
   </g>
   <g id="line2d_67">
    <path d="M 358.8 34.768147 
L 390.48 191.800575 
" style="fill:none;stroke:#000000;stroke-linecap:square;stroke-width:1.5;"/>
    <g>
     <use style="fill:none;stroke:#000000;stroke-width:1.5;" x="358.8" xlink:href="#mbb8425a784" y="34.768147"/>
     <use style="fill:none;stroke:#000000;stroke-width:1.5;" x="390.48" xlink:href="#mbb8425a784" y="191.800575"/>
    </g>
   </g>
   <g id="line2d_68">
    <path d="M 358.8 34.768147 
L 390.48 141.212947 
" style="fill:none;stroke:#00bfbf;stroke-linecap:square;stroke-width:1.5;"/>
    <g>
     <use style="fill:none;stroke:#00bfbf;stroke-width:1.5;" x="358.8" xlink:href="#m321477f62e" y="34.768147"/>
     <use style="fill:none;stroke:#00bfbf;stroke-width:1.5;" x="390.48" xlink:href="#m321477f62e" y="141.212947"/>
    </g>
   </g>
   <g id="line2d_69">
    <path d="M 358.8 34.768147 
L 390.48 90.62532 
" style="fill:none;stroke:#0000ff;stroke-linecap:square;stroke-width:1.5;"/>
    <g>
     <use style="fill:none;stroke:#0000ff;stroke-linejoin:bevel;stroke-width:1.5;" x="358.8" xlink:href="#mec0c535da1" y="34.768147"/>
     <use style="fill:none;stroke:#0000ff;stroke-linejoin:bevel;stroke-width:1.5;" x="390.48" xlink:href="#mec0c535da1" y="90.62532"/>
    </g>
   </g>
   <g id="line2d_70">
    <path d="M 358.8 34.768147 
L 390.48 40.037692 
" style="fill:none;stroke:#008000;stroke-linecap:square;stroke-width:1.5;"/>
    <g>
     <use style="fill:none;stroke:#008000;stroke-linejoin:miter;stroke-width:1.5;" x="358.8" xlink:href="#m0f93cb5d5d" y="34.768147"/>
     <use style="fill:none;stroke:#008000;stroke-linejoin:miter;stroke-width:1.5;" x="390.48" xlink:href="#m0f93cb5d5d" y="40.037692"/>
    </g>
   </g>
   <g id="line2d_71">
    <path d="M 358.8 298.245375 
L 358.8 34.768147 
" style="fill:none;stroke:#000000;stroke-linecap:square;stroke-width:1.5;"/>
   </g>
   <g id="patch_3">
    <path d="M 70.8 298.245375 
L 70.8 32.133375 
" style="fill:none;stroke:#000000;stroke-linecap:square;stroke-linejoin:miter;stroke-width:0.8;"/>
   </g>
   <g id="patch_4">
    <path d="M 427.92 298.245375 
L 427.92 32.133375 
" style="fill:none;stroke:#000000;stroke-linecap:square;stroke-linejoin:miter;stroke-width:0.8;"/>
   </g>
   <g id="patch_5">
    <path d="M 70.8 298.245375 
L 427.92 298.245375 
" style="fill:none;stroke:#000000;stroke-linecap:square;stroke-linejoin:miter;stroke-width:0.8;"/>
   </g>
   <g id="patch_6">
    <path d="M 70.8 32.133375 
L 427.92 32.133375 
" style="fill:none;stroke:#000000;stroke-linecap:square;stroke-linejoin:miter;stroke-width:0.8;"/>
   </g>
   <g id="text_14">
    <!-- 40-D -->
    <defs>
     <path d="M 19.671875 64.796875 
L 19.671875 8.109375 
L 31.59375 8.109375 
Q 46.6875 8.109375 53.6875 14.9375 
Q 60.6875 21.78125 60.6875 36.53125 
Q 60.6875 51.171875 53.6875 57.984375 
Q 46.6875 64.796875 31.59375 64.796875 
z
M 9.8125 72.90625 
L 30.078125 72.90625 
Q 51.265625 72.90625 61.171875 64.09375 
Q 71.09375 55.28125 71.09375 36.53125 
Q 71.09375 17.671875 61.125 8.828125 
Q 51.171875 0 30.078125 0 
L 9.8125 0 
z
" id="DejaVuSans-44"/>
    </defs>
    <g transform="translate(396.24 297.114893)scale(0.15 -0.15)">
     <use xlink:href="#DejaVuSans-34"/>
     <use x="63.623047" xlink:href="#DejaVuSans-30"/>
     <use x="127.246094" xlink:href="#DejaVuSans-2d"/>
     <use x="163.330078" xlink:href="#DejaVuSans-44"/>
    </g>
   </g>
   <g id="text_15">
    <!-- 20-D -->
    <g transform="translate(396.24 246.527265)scale(0.15 -0.15)">
     <use xlink:href="#DejaVuSans-32"/>
     <use x="63.623047" xlink:href="#DejaVuSans-30"/>
     <use x="127.246094" xlink:href="#DejaVuSans-2d"/>
     <use x="163.330078" xlink:href="#DejaVuSans-44"/>
    </g>
   </g>
   <g id="text_16">
    <!-- 10-D -->
    <g transform="translate(396.24 195.939637)scale(0.15 -0.15)">
     <use xlink:href="#DejaVuSans-31"/>
     <use x="63.623047" xlink:href="#DejaVuSans-30"/>
     <use x="127.246094" xlink:href="#DejaVuSans-2d"/>
     <use x="163.330078" xlink:href="#DejaVuSans-44"/>
    </g>
   </g>
   <g id="text_17">
    <!-- 2-D -->
    <g transform="translate(396.24 145.35201)scale(0.15 -0.15)">
     <use xlink:href="#DejaVuSans-32"/>
     <use x="63.623047" xlink:href="#DejaVuSans-2d"/>
     <use x="99.707031" xlink:href="#DejaVuSans-44"/>
    </g>
   </g>
   <g id="text_18">
    <!-- 5-D -->
    <defs>
     <path d="M 10.796875 72.90625 
L 49.515625 72.90625 
L 49.515625 64.59375 
L 19.828125 64.59375 
L 19.828125 46.734375 
Q 21.96875 47.46875 24.109375 47.828125 
Q 26.265625 48.1875 28.421875 48.1875 
Q 40.625 48.1875 47.75 41.5 
Q 54.890625 34.8125 54.890625 23.390625 
Q 54.890625 11.625 47.5625 5.09375 
Q 40.234375 -1.421875 26.90625 -1.421875 
Q 22.3125 -1.421875 17.546875 -0.640625 
Q 12.796875 0.140625 7.71875 1.703125 
L 7.71875 11.625 
Q 12.109375 9.234375 16.796875 8.0625 
Q 21.484375 6.890625 26.703125 6.890625 
Q 35.15625 6.890625 40.078125 11.328125 
Q 45.015625 15.765625 45.015625 23.390625 
Q 45.015625 31 40.078125 35.4375 
Q 35.15625 39.890625 26.703125 39.890625 
Q 22.75 39.890625 18.8125 39.015625 
Q 14.890625 38.140625 10.796875 36.28125 
z
" id="DejaVuSans-35"/>
    </defs>
    <g transform="translate(396.24 94.764382)scale(0.15 -0.15)">
     <use xlink:href="#DejaVuSans-35"/>
     <use x="63.623047" xlink:href="#DejaVuSans-2d"/>
     <use x="99.707031" xlink:href="#DejaVuSans-44"/>
    </g>
   </g>
   <g id="text_19">
    <!-- 3-D -->
    <defs>
     <path d="M 40.578125 39.3125 
Q 47.65625 37.796875 51.625 33 
Q 55.609375 28.21875 55.609375 21.1875 
Q 55.609375 10.40625 48.1875 4.484375 
Q 40.765625 -1.421875 27.09375 -1.421875 
Q 22.515625 -1.421875 17.65625 -0.515625 
Q 12.796875 0.390625 7.625 2.203125 
L 7.625 11.71875 
Q 11.71875 9.328125 16.59375 8.109375 
Q 21.484375 6.890625 26.8125 6.890625 
Q 36.078125 6.890625 40.9375 10.546875 
Q 45.796875 14.203125 45.796875 21.1875 
Q 45.796875 27.640625 41.28125 31.265625 
Q 36.765625 34.90625 28.71875 34.90625 
L 20.21875 34.90625 
L 20.21875 43.015625 
L 29.109375 43.015625 
Q 36.375 43.015625 40.234375 45.921875 
Q 44.09375 48.828125 44.09375 54.296875 
Q 44.09375 59.90625 40.109375 62.90625 
Q 36.140625 65.921875 28.71875 65.921875 
Q 24.65625 65.921875 20.015625 65.03125 
Q 15.375 64.15625 9.8125 62.3125 
L 9.8125 71.09375 
Q 15.4375 72.65625 20.34375 73.4375 
Q 25.25 74.21875 29.59375 74.21875 
Q 40.828125 74.21875 47.359375 69.109375 
Q 53.90625 64.015625 53.90625 55.328125 
Q 53.90625 49.265625 50.4375 45.09375 
Q 46.96875 40.921875 40.578125 39.3125 
" id="DejaVuSans-33"/>
    </defs>
    <g transform="translate(396.24 44.176754)scale(0.15 -0.15)">
     <use xlink:href="#DejaVuSans-33"/>
     <use x="63.623047" xlink:href="#DejaVuSans-2d"/>
     <use x="99.707031" xlink:href="#DejaVuSans-44"/>
    </g>
   </g>
   <g id="text_20">
    <!-- bbob - f2 -->
    <defs>
     <path d="M 48.6875 27.296875 
Q 48.6875 37.203125 44.609375 42.84375 
Q 40.53125 48.484375 33.40625 48.484375 
Q 26.265625 48.484375 22.1875 42.84375 
Q 18.109375 37.203125 18.109375 27.296875 
Q 18.109375 17.390625 22.1875 11.75 
Q 26.265625 6.109375 33.40625 6.109375 
Q 40.53125 6.109375 44.609375 11.75 
Q 48.6875 17.390625 48.6875 27.296875 
M 18.109375 46.390625 
Q 20.953125 51.265625 25.265625 53.625 
Q 29.59375 56 35.59375 56 
Q 45.5625 56 51.78125 48.09375 
Q 58.015625 40.1875 58.015625 27.296875 
Q 58.015625 14.40625 51.78125 6.484375 
Q 45.5625 -1.421875 35.59375 -1.421875 
Q 29.59375 -1.421875 25.265625 0.953125 
Q 20.953125 3.328125 18.109375 8.203125 
L 18.109375 0 
L 9.078125 0 
L 9.078125 75.984375 
L 18.109375 75.984375 
z
" id="DejaVuSans-62"/>
    </defs>
    <g transform="translate(74.3712 50.114612)scale(0.1666 -0.1666)">
     <use xlink:href="#DejaVuSans-62"/>
     <use x="63.476562" xlink:href="#DejaVuSans-62"/>
     <use x="126.953125" xlink:href="#DejaVuSans-6f"/>
     <use x="188.134766" xlink:href="#DejaVuSans-62"/>
     <use x="251.611328" xlink:href="#DejaVuSans-20"/>
     <use x="283.398438" xlink:href="#DejaVuSans-2d"/>
     <use x="319.482422" xlink:href="#DejaVuSans-20"/>
     <use x="351.269531" xlink:href="#DejaVuSans-66"/>
     <use x="386.474609" xlink:href="#DejaVuSans-32"/>
    </g>
    <!-- 51 targets in 100..1e-08 -->
    <g transform="translate(74.3712 68.770168)scale(0.1666 -0.1666)">
     <use xlink:href="#DejaVuSans-35"/>
     <use x="63.623047" xlink:href="#DejaVuSans-31"/>
     <use x="127.246094" xlink:href="#DejaVuSans-20"/>
     <use x="159.033203" xlink:href="#DejaVuSans-74"/>
     <use x="198.242188" xlink:href="#DejaVuSans-61"/>
     <use x="259.521484" xlink:href="#DejaVuSans-72"/>
     <use x="300.619141" xlink:href="#DejaVuSans-67"/>
     <use x="364.095703" xlink:href="#DejaVuSans-65"/>
     <use x="425.619141" xlink:href="#DejaVuSans-74"/>
     <use x="464.828125" xlink:href="#DejaVuSans-73"/>
     <use x="516.927734" xlink:href="#DejaVuSans-20"/>
     <use x="548.714844" xlink:href="#DejaVuSans-69"/>
     <use x="576.498047" xlink:href="#DejaVuSans-6e"/>
     <use x="639.876953" xlink:href="#DejaVuSans-20"/>
     <use x="671.664062" xlink:href="#DejaVuSans-31"/>
     <use x="735.287109" xlink:href="#DejaVuSans-30"/>
     <use x="798.910156" xlink:href="#DejaVuSans-30"/>
     <use x="862.533203" xlink:href="#DejaVuSans-2e"/>
     <use x="894.320312" xlink:href="#DejaVuSans-2e"/>
     <use x="926.107422" xlink:href="#DejaVuSans-31"/>
     <use x="989.730469" xlink:href="#DejaVuSans-65"/>
     <use x="1051.253906" xlink:href="#DejaVuSans-2d"/>
     <use x="1087.337891" xlink:href="#DejaVuSans-30"/>
     <use x="1150.960938" xlink:href="#DejaVuSans-38"/>
    </g>
    <!-- 15 instances -->
    <g transform="translate(74.3712 87.425723)scale(0.1666 -0.1666)">
     <use xlink:href="#DejaVuSans-31"/>
     <use x="63.623047" xlink:href="#DejaVuSans-35"/>
     <use x="127.246094" xlink:href="#DejaVuSans-20"/>
     <use x="159.033203" xlink:href="#DejaVuSans-69"/>
     <use x="186.816406" xlink:href="#DejaVuSans-6e"/>
     <use x="250.195312" xlink:href="#DejaVuSans-73"/>
     <use x="302.294922" xlink:href="#DejaVuSans-74"/>
     <use x="341.503906" xlink:href="#DejaVuSans-61"/>
     <use x="402.783203" xlink:href="#DejaVuSans-6e"/>
     <use x="466.162109" xlink:href="#DejaVuSans-63"/>
     <use x="521.142578" xlink:href="#DejaVuSans-65"/>
     <use x="582.666016" xlink:href="#DejaVuSans-73"/>
    </g>
   </g>
   <g id="text_21">
    <!-- v2.0.1 -->
    <g style="fill:#808080;" transform="translate(233.67875 293.504568)scale(0.1 -0.1)">
     <use xlink:href="#DejaVuSans-76"/>
     <use x="59.179688" xlink:href="#DejaVuSans-32"/>
     <use x="122.802734" xlink:href="#DejaVuSans-2e"/>
     <use x="154.589844" xlink:href="#DejaVuSans-30"/>
     <use x="218.212891" xlink:href="#DejaVuSans-2e"/>
     <use x="250" xlink:href="#DejaVuSans-31"/>
    </g>
   </g>
   <g id="text_22">
    <!-- 2 Ellipsoid separable -->
    <defs>
     <path d="M 9.8125 72.90625 
L 55.90625 72.90625 
L 55.90625 64.59375 
L 19.671875 64.59375 
L 19.671875 43.015625 
L 54.390625 43.015625 
L 54.390625 34.71875 
L 19.671875 34.71875 
L 19.671875 8.296875 
L 56.78125 8.296875 
L 56.78125 0 
L 9.8125 0 
z
" id="DejaVuSans-45"/>
    </defs>
    <g transform="translate(125.120625 26.133375)scale(0.24 -0.24)">
     <use xlink:href="#DejaVuSans-32"/>
     <use x="63.623047" xlink:href="#DejaVuSans-20"/>
     <use x="95.410156" xlink:href="#DejaVuSans-45"/>
     <use x="158.59375" xlink:href="#DejaVuSans-6c"/>
     <use x="186.376953" xlink:href="#DejaVuSans-6c"/>
     <use x="214.160156" xlink:href="#DejaVuSans-69"/>
     <use x="241.943359" xlink:href="#DejaVuSans-70"/>
     <use x="305.419922" xlink:href="#DejaVuSans-73"/>
     <use x="357.519531" xlink:href="#DejaVuSans-6f"/>
     <use x="418.701172" xlink:href="#DejaVuSans-69"/>
     <use x="446.484375" xlink:href="#DejaVuSans-64"/>
     <use x="509.960938" xlink:href="#DejaVuSans-20"/>
     <use x="541.748047" xlink:href="#DejaVuSans-73"/>
     <use x="593.847656" xlink:href="#DejaVuSans-65"/>
     <use x="655.371094" xlink:href="#DejaVuSans-70"/>
     <use x="718.847656" xlink:href="#DejaVuSans-61"/>
     <use x="780.126953" xlink:href="#DejaVuSans-72"/>
     <use x="821.240234" xlink:href="#DejaVuSans-61"/>
     <use x="882.519531" xlink:href="#DejaVuSans-62"/>
     <use x="945.996094" xlink:href="#DejaVuSans-6c"/>
     <use x="973.779297" xlink:href="#DejaVuSans-65"/>
    </g>
   </g>
  </g>
 </g>
 <defs>
  <clipPath id="p54b3bcc9db">
   <rect height="266.112" width="357.12" x="70.8" y="32.133375"/>
  </clipPath>
 </defs>
</svg>
