<?xml version="1.0" encoding="utf-8" standalone="no"?>
<!DOCTYPE svg PUBLIC "-//W3C//DTD SVG 1.1//EN"
  "http://www.w3.org/Graphics/SVG/1.1/DTD/svg11.dtd">
<!-- Created with matplotlib (http://matplotlib.org/) -->
<svg height="353pt" version="1.1" viewBox="0 0 439 353" width="439pt" xmlns="http://www.w3.org/2000/svg" xmlns:xlink="http://www.w3.org/1999/xlink">
 <defs>
  <style type="text/css">
*{stroke-linecap:butt;stroke-linejoin:round;}
  </style>
 </defs>
 <g id="figure_1">
  <g id="patch_1">
   <path d="M 0 353.22225 
L 439.489219 353.22225 
L 439.489219 0 
L 0 0 
z
" style="fill:#ffffff;"/>
  </g>
  <g id="axes_1">
   <g id="patch_2">
    <path d="M 70.8 298.245375 
L 427.92 298.245375 
L 427.92 32.133375 
L 70.8 32.133375 
z
" style="fill:#ffffff;"/>
   </g>
   <g id="matplotlib.axis_1">
    <g id="xtick_1">
     <g id="line2d_1">
      <path clip-path="url(#p53137d96b4)" d="M 70.8 298.245375 
L 70.8 32.133375 
" style="fill:none;stroke:#b0b0b0;stroke-linecap:square;stroke-width:0.8;"/>
     </g>
     <g id="line2d_2">
      <defs>
       <path d="M 0 0 
L 0 3.5 
" id="m996b737305" style="stroke:#000000;stroke-width:0.8;"/>
      </defs>
      <g>
       <use style="stroke:#000000;stroke-width:0.8;" x="70.8" xlink:href="#m996b737305" y="298.245375"/>
      </g>
     </g>
     <g id="text_1">
      <!-- 0 -->
      <defs>
       <path d="M 31.78125 66.40625 
Q 24.171875 66.40625 20.328125 58.90625 
Q 16.5 51.421875 16.5 36.375 
Q 16.5 21.390625 20.328125 13.890625 
Q 24.171875 6.390625 31.78125 6.390625 
Q 39.453125 6.390625 43.28125 13.890625 
Q 47.125 21.390625 47.125 36.375 
Q 47.125 51.421875 43.28125 58.90625 
Q 39.453125 66.40625 31.78125 66.40625 
M 31.78125 74.21875 
Q 44.046875 74.21875 50.515625 64.515625 
Q 56.984375 54.828125 56.984375 36.375 
Q 56.984375 17.96875 50.515625 8.265625 
Q 44.046875 -1.421875 31.78125 -1.421875 
Q 19.53125 -1.421875 13.0625 8.265625 
Q 6.59375 17.96875 6.59375 36.375 
Q 6.59375 54.828125 13.0625 64.515625 
Q 19.53125 74.21875 31.78125 74.21875 
" id="DejaVuSans-30"/>
      </defs>
      <g transform="translate(64.4375 320.44225)scale(0.2 -0.2)">
       <use xlink:href="#DejaVuSans-30"/>
      </g>
     </g>
    </g>
    <g id="xtick_2">
     <g id="line2d_3">
      <path clip-path="url(#p53137d96b4)" d="M 153.085714 298.245375 
L 153.085714 32.133375 
" style="fill:none;stroke:#b0b0b0;stroke-linecap:square;stroke-width:0.8;"/>
     </g>
     <g id="line2d_4">
      <g>
       <use style="stroke:#000000;stroke-width:0.8;" x="153.085714" xlink:href="#m996b737305" y="298.245375"/>
      </g>
     </g>
     <g id="text_2">
      <!-- 2 -->
      <defs>
       <path d="M 19.1875 8.296875 
L 53.609375 8.296875 
L 53.609375 0 
L 7.328125 0 
L 7.328125 8.296875 
Q 12.9375 14.109375 22.625 23.890625 
Q 32.328125 33.6875 34.8125 36.53125 
Q 39.546875 41.84375 41.421875 45.53125 
Q 43.3125 49.21875 43.3125 52.78125 
Q 43.3125 58.59375 39.234375 62.25 
Q 35.15625 65.921875 28.609375 65.921875 
Q 23.96875 65.921875 18.8125 64.3125 
Q 13.671875 62.703125 7.8125 59.421875 
L 7.8125 69.390625 
Q 13.765625 71.78125 18.9375 73 
Q 24.125 74.21875 28.421875 74.21875 
Q 39.75 74.21875 46.484375 68.546875 
Q 53.21875 62.890625 53.21875 53.421875 
Q 53.21875 48.921875 51.53125 44.890625 
Q 49.859375 40.875 45.40625 35.40625 
Q 44.1875 33.984375 37.640625 27.21875 
Q 31.109375 20.453125 19.1875 8.296875 
" id="DejaVuSans-32"/>
      </defs>
      <g transform="translate(146.723214 320.44225)scale(0.2 -0.2)">
       <use xlink:href="#DejaVuSans-32"/>
      </g>
     </g>
    </g>
    <g id="xtick_3">
     <g id="line2d_5">
      <path clip-path="url(#p53137d96b4)" d="M 235.371429 298.245375 
L 235.371429 32.133375 
" style="fill:none;stroke:#b0b0b0;stroke-linecap:square;stroke-width:0.8;"/>
     </g>
     <g id="line2d_6">
      <g>
       <use style="stroke:#000000;stroke-width:0.8;" x="235.371429" xlink:href="#m996b737305" y="298.245375"/>
      </g>
     </g>
     <g id="text_3">
      <!-- 4 -->
      <defs>
       <path d="M 37.796875 64.3125 
L 12.890625 25.390625 
L 37.796875 25.390625 
z
M 35.203125 72.90625 
L 47.609375 72.90625 
L 47.609375 25.390625 
L 58.015625 25.390625 
L 58.015625 17.1875 
L 47.609375 17.1875 
L 47.609375 0 
L 37.796875 0 
L 37.796875 17.1875 
L 4.890625 17.1875 
L 4.890625 26.703125 
z
" id="DejaVuSans-34"/>
      </defs>
      <g transform="translate(229.008929 320.44225)scale(0.2 -0.2)">
       <use xlink:href="#DejaVuSans-34"/>
      </g>
     </g>
    </g>
    <g id="xtick_4">
     <g id="line2d_7">
      <path clip-path="url(#p53137d96b4)" d="M 317.657143 298.245375 
L 317.657143 32.133375 
" style="fill:none;stroke:#b0b0b0;stroke-linecap:square;stroke-width:0.8;"/>
     </g>
     <g id="line2d_8">
      <g>
       <use style="stroke:#000000;stroke-width:0.8;" x="317.657143" xlink:href="#m996b737305" y="298.245375"/>
      </g>
     </g>
     <g id="text_4">
      <!-- 6 -->
      <defs>
       <path d="M 33.015625 40.375 
Q 26.375 40.375 22.484375 35.828125 
Q 18.609375 31.296875 18.609375 23.390625 
Q 18.609375 15.53125 22.484375 10.953125 
Q 26.375 6.390625 33.015625 6.390625 
Q 39.65625 6.390625 43.53125 10.953125 
Q 47.40625 15.53125 47.40625 23.390625 
Q 47.40625 31.296875 43.53125 35.828125 
Q 39.65625 40.375 33.015625 40.375 
M 52.59375 71.296875 
L 52.59375 62.3125 
Q 48.875 64.0625 45.09375 64.984375 
Q 41.3125 65.921875 37.59375 65.921875 
Q 27.828125 65.921875 22.671875 59.328125 
Q 17.53125 52.734375 16.796875 39.40625 
Q 19.671875 43.65625 24.015625 45.921875 
Q 28.375 48.1875 33.59375 48.1875 
Q 44.578125 48.1875 50.953125 41.515625 
Q 57.328125 34.859375 57.328125 23.390625 
Q 57.328125 12.15625 50.6875 5.359375 
Q 44.046875 -1.421875 33.015625 -1.421875 
Q 20.359375 -1.421875 13.671875 8.265625 
Q 6.984375 17.96875 6.984375 36.375 
Q 6.984375 53.65625 15.1875 63.9375 
Q 23.390625 74.21875 37.203125 74.21875 
Q 40.921875 74.21875 44.703125 73.484375 
Q 48.484375 72.75 52.59375 71.296875 
" id="DejaVuSans-36"/>
      </defs>
      <g transform="translate(311.294643 320.44225)scale(0.2 -0.2)">
       <use xlink:href="#DejaVuSans-36"/>
      </g>
     </g>
    </g>
    <g id="xtick_5">
     <g id="line2d_9">
      <path clip-path="url(#p53137d96b4)" d="M 399.942857 298.245375 
L 399.942857 32.133375 
" style="fill:none;stroke:#b0b0b0;stroke-linecap:square;stroke-width:0.8;"/>
     </g>
     <g id="line2d_10">
      <g>
       <use style="stroke:#000000;stroke-width:0.8;" x="399.942857" xlink:href="#m996b737305" y="298.245375"/>
      </g>
     </g>
     <g id="text_5">
      <!-- 8 -->
      <defs>
       <path d="M 31.78125 34.625 
Q 24.75 34.625 20.71875 30.859375 
Q 16.703125 27.09375 16.703125 20.515625 
Q 16.703125 13.921875 20.71875 10.15625 
Q 24.75 6.390625 31.78125 6.390625 
Q 38.8125 6.390625 42.859375 10.171875 
Q 46.921875 13.96875 46.921875 20.515625 
Q 46.921875 27.09375 42.890625 30.859375 
Q 38.875 34.625 31.78125 34.625 
M 21.921875 38.8125 
Q 15.578125 40.375 12.03125 44.71875 
Q 8.5 49.078125 8.5 55.328125 
Q 8.5 64.0625 14.71875 69.140625 
Q 20.953125 74.21875 31.78125 74.21875 
Q 42.671875 74.21875 48.875 69.140625 
Q 55.078125 64.0625 55.078125 55.328125 
Q 55.078125 49.078125 51.53125 44.71875 
Q 48 40.375 41.703125 38.8125 
Q 48.828125 37.15625 52.796875 32.3125 
Q 56.78125 27.484375 56.78125 20.515625 
Q 56.78125 9.90625 50.3125 4.234375 
Q 43.84375 -1.421875 31.78125 -1.421875 
Q 19.734375 -1.421875 13.25 4.234375 
Q 6.78125 9.90625 6.78125 20.515625 
Q 6.78125 27.484375 10.78125 32.3125 
Q 14.796875 37.15625 21.921875 38.8125 
M 18.3125 54.390625 
Q 18.3125 48.734375 21.84375 45.5625 
Q 25.390625 42.390625 31.78125 42.390625 
Q 38.140625 42.390625 41.71875 45.5625 
Q 45.3125 48.734375 45.3125 54.390625 
Q 45.3125 60.0625 41.71875 63.234375 
Q 38.140625 66.40625 31.78125 66.40625 
Q 25.390625 66.40625 21.84375 63.234375 
Q 18.3125 60.0625 18.3125 54.390625 
" id="DejaVuSans-38"/>
      </defs>
      <g transform="translate(393.580357 320.44225)scale(0.2 -0.2)">
       <use xlink:href="#DejaVuSans-38"/>
      </g>
     </g>
    </g>
    <g id="xtick_6">
     <g id="line2d_11">
      <defs>
       <path d="M 0 0 
L 0 2 
" id="md12248c332" style="stroke:#000000;stroke-width:0.6;"/>
      </defs>
      <g>
       <use style="stroke:#000000;stroke-width:0.6;" x="83.185234" xlink:href="#md12248c332" y="298.245375"/>
      </g>
     </g>
    </g>
    <g id="xtick_7">
     <g id="line2d_12">
      <g>
       <use style="stroke:#000000;stroke-width:0.6;" x="95.570468" xlink:href="#md12248c332" y="298.245375"/>
      </g>
     </g>
    </g>
    <g id="xtick_8">
     <g id="line2d_13">
      <g>
       <use style="stroke:#000000;stroke-width:0.6;" x="102.815366" xlink:href="#md12248c332" y="298.245375"/>
      </g>
     </g>
    </g>
    <g id="xtick_9">
     <g id="line2d_14">
      <g>
       <use style="stroke:#000000;stroke-width:0.6;" x="107.955702" xlink:href="#md12248c332" y="298.245375"/>
      </g>
     </g>
    </g>
    <g id="xtick_10">
     <g id="line2d_15">
      <g>
       <use style="stroke:#000000;stroke-width:0.6;" x="165.470948" xlink:href="#md12248c332" y="298.245375"/>
      </g>
     </g>
    </g>
    <g id="xtick_11">
     <g id="line2d_16">
      <g>
       <use style="stroke:#000000;stroke-width:0.6;" x="177.856183" xlink:href="#md12248c332" y="298.245375"/>
      </g>
     </g>
    </g>
    <g id="xtick_12">
     <g id="line2d_17">
      <g>
       <use style="stroke:#000000;stroke-width:0.6;" x="185.10108" xlink:href="#md12248c332" y="298.245375"/>
      </g>
     </g>
    </g>
    <g id="xtick_13">
     <g id="line2d_18">
      <g>
       <use style="stroke:#000000;stroke-width:0.6;" x="190.241417" xlink:href="#md12248c332" y="298.245375"/>
      </g>
     </g>
    </g>
    <g id="xtick_14">
     <g id="line2d_19">
      <g>
       <use style="stroke:#000000;stroke-width:0.6;" x="247.756663" xlink:href="#md12248c332" y="298.245375"/>
      </g>
     </g>
    </g>
    <g id="xtick_15">
     <g id="line2d_20">
      <g>
       <use style="stroke:#000000;stroke-width:0.6;" x="260.141897" xlink:href="#md12248c332" y="298.245375"/>
      </g>
     </g>
    </g>
    <g id="xtick_16">
     <g id="line2d_21">
      <g>
       <use style="stroke:#000000;stroke-width:0.6;" x="267.386794" xlink:href="#md12248c332" y="298.245375"/>
      </g>
     </g>
    </g>
    <g id="xtick_17">
     <g id="line2d_22">
      <g>
       <use style="stroke:#000000;stroke-width:0.6;" x="272.527131" xlink:href="#md12248c332" y="298.245375"/>
      </g>
     </g>
    </g>
    <g id="xtick_18">
     <g id="line2d_23">
      <g>
       <use style="stroke:#000000;stroke-width:0.6;" x="330.042377" xlink:href="#md12248c332" y="298.245375"/>
      </g>
     </g>
    </g>
    <g id="xtick_19">
     <g id="line2d_24">
      <g>
       <use style="stroke:#000000;stroke-width:0.6;" x="342.427611" xlink:href="#md12248c332" y="298.245375"/>
      </g>
     </g>
    </g>
    <g id="xtick_20">
     <g id="line2d_25">
      <g>
       <use style="stroke:#000000;stroke-width:0.6;" x="349.672509" xlink:href="#md12248c332" y="298.245375"/>
      </g>
     </g>
    </g>
    <g id="xtick_21">
     <g id="line2d_26">
      <g>
       <use style="stroke:#000000;stroke-width:0.6;" x="354.812845" xlink:href="#md12248c332" y="298.245375"/>
      </g>
     </g>
    </g>
    <g id="xtick_22">
     <g id="line2d_27">
      <g>
       <use style="stroke:#000000;stroke-width:0.6;" x="412.328091" xlink:href="#md12248c332" y="298.245375"/>
      </g>
     </g>
    </g>
    <g id="xtick_23">
     <g id="line2d_28">
      <g>
       <use style="stroke:#000000;stroke-width:0.6;" x="424.713325" xlink:href="#md12248c332" y="298.245375"/>
      </g>
     </g>
    </g>
    <g id="text_6">
     <!-- log10 of (# f-evals / dimension) -->
     <defs>
      <path d="M 9.421875 75.984375 
L 18.40625 75.984375 
L 18.40625 0 
L 9.421875 0 
z
" id="DejaVuSans-6c"/>
      <path d="M 30.609375 48.390625 
Q 23.390625 48.390625 19.1875 42.75 
Q 14.984375 37.109375 14.984375 27.296875 
Q 14.984375 17.484375 19.15625 11.84375 
Q 23.34375 6.203125 30.609375 6.203125 
Q 37.796875 6.203125 41.984375 11.859375 
Q 46.1875 17.53125 46.1875 27.296875 
Q 46.1875 37.015625 41.984375 42.703125 
Q 37.796875 48.390625 30.609375 48.390625 
M 30.609375 56 
Q 42.328125 56 49.015625 48.375 
Q 55.71875 40.765625 55.71875 27.296875 
Q 55.71875 13.875 49.015625 6.21875 
Q 42.328125 -1.421875 30.609375 -1.421875 
Q 18.84375 -1.421875 12.171875 6.21875 
Q 5.515625 13.875 5.515625 27.296875 
Q 5.515625 40.765625 12.171875 48.375 
Q 18.84375 56 30.609375 56 
" id="DejaVuSans-6f"/>
      <path d="M 45.40625 27.984375 
Q 45.40625 37.75 41.375 43.109375 
Q 37.359375 48.484375 30.078125 48.484375 
Q 22.859375 48.484375 18.828125 43.109375 
Q 14.796875 37.75 14.796875 27.984375 
Q 14.796875 18.265625 18.828125 12.890625 
Q 22.859375 7.515625 30.078125 7.515625 
Q 37.359375 7.515625 41.375 12.890625 
Q 45.40625 18.265625 45.40625 27.984375 
M 54.390625 6.78125 
Q 54.390625 -7.171875 48.1875 -13.984375 
Q 42 -20.796875 29.203125 -20.796875 
Q 24.46875 -20.796875 20.265625 -20.09375 
Q 16.0625 -19.390625 12.109375 -17.921875 
L 12.109375 -9.1875 
Q 16.0625 -11.328125 19.921875 -12.34375 
Q 23.78125 -13.375 27.78125 -13.375 
Q 36.625 -13.375 41.015625 -8.765625 
Q 45.40625 -4.15625 45.40625 5.171875 
L 45.40625 9.625 
Q 42.625 4.78125 38.28125 2.390625 
Q 33.9375 0 27.875 0 
Q 17.828125 0 11.671875 7.65625 
Q 5.515625 15.328125 5.515625 27.984375 
Q 5.515625 40.671875 11.671875 48.328125 
Q 17.828125 56 27.875 56 
Q 33.9375 56 38.28125 53.609375 
Q 42.625 51.21875 45.40625 46.390625 
L 45.40625 54.6875 
L 54.390625 54.6875 
z
" id="DejaVuSans-67"/>
      <path d="M 12.40625 8.296875 
L 28.515625 8.296875 
L 28.515625 63.921875 
L 10.984375 60.40625 
L 10.984375 69.390625 
L 28.421875 72.90625 
L 38.28125 72.90625 
L 38.28125 8.296875 
L 54.390625 8.296875 
L 54.390625 0 
L 12.40625 0 
z
" id="DejaVuSans-31"/>
      <path id="DejaVuSans-20"/>
      <path d="M 37.109375 75.984375 
L 37.109375 68.5 
L 28.515625 68.5 
Q 23.6875 68.5 21.796875 66.546875 
Q 19.921875 64.59375 19.921875 59.515625 
L 19.921875 54.6875 
L 34.71875 54.6875 
L 34.71875 47.703125 
L 19.921875 47.703125 
L 19.921875 0 
L 10.890625 0 
L 10.890625 47.703125 
L 2.296875 47.703125 
L 2.296875 54.6875 
L 10.890625 54.6875 
L 10.890625 58.5 
Q 10.890625 67.625 15.140625 71.796875 
Q 19.390625 75.984375 28.609375 75.984375 
z
" id="DejaVuSans-66"/>
      <path d="M 31 75.875 
Q 24.46875 64.65625 21.28125 53.65625 
Q 18.109375 42.671875 18.109375 31.390625 
Q 18.109375 20.125 21.3125 9.0625 
Q 24.515625 -2 31 -13.1875 
L 23.1875 -13.1875 
Q 15.875 -1.703125 12.234375 9.375 
Q 8.59375 20.453125 8.59375 31.390625 
Q 8.59375 42.28125 12.203125 53.3125 
Q 15.828125 64.359375 23.1875 75.875 
z
" id="DejaVuSans-28"/>
      <path d="M 51.125 44 
L 36.921875 44 
L 32.8125 27.6875 
L 47.125 27.6875 
z
M 43.796875 71.78125 
L 38.71875 51.515625 
L 52.984375 51.515625 
L 58.109375 71.78125 
L 65.921875 71.78125 
L 60.890625 51.515625 
L 76.125 51.515625 
L 76.125 44 
L 58.984375 44 
L 54.984375 27.6875 
L 70.515625 27.6875 
L 70.515625 20.21875 
L 53.078125 20.21875 
L 48 0 
L 40.1875 0 
L 45.21875 20.21875 
L 30.90625 20.21875 
L 25.875 0 
L 18.015625 0 
L 23.09375 20.21875 
L 7.71875 20.21875 
L 7.71875 27.6875 
L 24.90625 27.6875 
L 29 44 
L 13.28125 44 
L 13.28125 51.515625 
L 30.90625 51.515625 
L 35.890625 71.78125 
z
" id="DejaVuSans-23"/>
      <path d="M 4.890625 31.390625 
L 31.203125 31.390625 
L 31.203125 23.390625 
L 4.890625 23.390625 
z
" id="DejaVuSans-2d"/>
      <path d="M 56.203125 29.59375 
L 56.203125 25.203125 
L 14.890625 25.203125 
Q 15.484375 15.921875 20.484375 11.0625 
Q 25.484375 6.203125 34.421875 6.203125 
Q 39.59375 6.203125 44.453125 7.46875 
Q 49.3125 8.734375 54.109375 11.28125 
L 54.109375 2.78125 
Q 49.265625 0.734375 44.1875 -0.34375 
Q 39.109375 -1.421875 33.890625 -1.421875 
Q 20.796875 -1.421875 13.15625 6.1875 
Q 5.515625 13.8125 5.515625 26.8125 
Q 5.515625 40.234375 12.765625 48.109375 
Q 20.015625 56 32.328125 56 
Q 43.359375 56 49.78125 48.890625 
Q 56.203125 41.796875 56.203125 29.59375 
M 47.21875 32.234375 
Q 47.125 39.59375 43.09375 43.984375 
Q 39.0625 48.390625 32.421875 48.390625 
Q 24.90625 48.390625 20.390625 44.140625 
Q 15.875 39.890625 15.1875 32.171875 
z
" id="DejaVuSans-65"/>
      <path d="M 2.984375 54.6875 
L 12.5 54.6875 
L 29.59375 8.796875 
L 46.6875 54.6875 
L 56.203125 54.6875 
L 35.6875 0 
L 23.484375 0 
z
" id="DejaVuSans-76"/>
      <path d="M 34.28125 27.484375 
Q 23.390625 27.484375 19.1875 25 
Q 14.984375 22.515625 14.984375 16.5 
Q 14.984375 11.71875 18.140625 8.90625 
Q 21.296875 6.109375 26.703125 6.109375 
Q 34.1875 6.109375 38.703125 11.40625 
Q 43.21875 16.703125 43.21875 25.484375 
L 43.21875 27.484375 
z
M 52.203125 31.203125 
L 52.203125 0 
L 43.21875 0 
L 43.21875 8.296875 
Q 40.140625 3.328125 35.546875 0.953125 
Q 30.953125 -1.421875 24.3125 -1.421875 
Q 15.921875 -1.421875 10.953125 3.296875 
Q 6 8.015625 6 15.921875 
Q 6 25.140625 12.171875 29.828125 
Q 18.359375 34.515625 30.609375 34.515625 
L 43.21875 34.515625 
L 43.21875 35.40625 
Q 43.21875 41.609375 39.140625 45 
Q 35.0625 48.390625 27.6875 48.390625 
Q 23 48.390625 18.546875 47.265625 
Q 14.109375 46.140625 10.015625 43.890625 
L 10.015625 52.203125 
Q 14.9375 54.109375 19.578125 55.046875 
Q 24.21875 56 28.609375 56 
Q 40.484375 56 46.34375 49.84375 
Q 52.203125 43.703125 52.203125 31.203125 
" id="DejaVuSans-61"/>
      <path d="M 44.28125 53.078125 
L 44.28125 44.578125 
Q 40.484375 46.53125 36.375 47.5 
Q 32.28125 48.484375 27.875 48.484375 
Q 21.1875 48.484375 17.84375 46.4375 
Q 14.5 44.390625 14.5 40.28125 
Q 14.5 37.15625 16.890625 35.375 
Q 19.28125 33.59375 26.515625 31.984375 
L 29.59375 31.296875 
Q 39.15625 29.25 43.1875 25.515625 
Q 47.21875 21.78125 47.21875 15.09375 
Q 47.21875 7.46875 41.1875 3.015625 
Q 35.15625 -1.421875 24.609375 -1.421875 
Q 20.21875 -1.421875 15.453125 -0.5625 
Q 10.6875 0.296875 5.421875 2 
L 5.421875 11.28125 
Q 10.40625 8.6875 15.234375 7.390625 
Q 20.0625 6.109375 24.8125 6.109375 
Q 31.15625 6.109375 34.5625 8.28125 
Q 37.984375 10.453125 37.984375 14.40625 
Q 37.984375 18.0625 35.515625 20.015625 
Q 33.0625 21.96875 24.703125 23.78125 
L 21.578125 24.515625 
Q 13.234375 26.265625 9.515625 29.90625 
Q 5.8125 33.546875 5.8125 39.890625 
Q 5.8125 47.609375 11.28125 51.796875 
Q 16.75 56 26.8125 56 
Q 31.78125 56 36.171875 55.265625 
Q 40.578125 54.546875 44.28125 53.078125 
" id="DejaVuSans-73"/>
      <path d="M 25.390625 72.90625 
L 33.6875 72.90625 
L 8.296875 -9.28125 
L 0 -9.28125 
z
" id="DejaVuSans-2f"/>
      <path d="M 45.40625 46.390625 
L 45.40625 75.984375 
L 54.390625 75.984375 
L 54.390625 0 
L 45.40625 0 
L 45.40625 8.203125 
Q 42.578125 3.328125 38.25 0.953125 
Q 33.9375 -1.421875 27.875 -1.421875 
Q 17.96875 -1.421875 11.734375 6.484375 
Q 5.515625 14.40625 5.515625 27.296875 
Q 5.515625 40.1875 11.734375 48.09375 
Q 17.96875 56 27.875 56 
Q 33.9375 56 38.25 53.625 
Q 42.578125 51.265625 45.40625 46.390625 
M 14.796875 27.296875 
Q 14.796875 17.390625 18.875 11.75 
Q 22.953125 6.109375 30.078125 6.109375 
Q 37.203125 6.109375 41.296875 11.75 
Q 45.40625 17.390625 45.40625 27.296875 
Q 45.40625 37.203125 41.296875 42.84375 
Q 37.203125 48.484375 30.078125 48.484375 
Q 22.953125 48.484375 18.875 42.84375 
Q 14.796875 37.203125 14.796875 27.296875 
" id="DejaVuSans-64"/>
      <path d="M 9.421875 54.6875 
L 18.40625 54.6875 
L 18.40625 0 
L 9.421875 0 
z
M 9.421875 75.984375 
L 18.40625 75.984375 
L 18.40625 64.59375 
L 9.421875 64.59375 
z
" id="DejaVuSans-69"/>
      <path d="M 52 44.1875 
Q 55.375 50.25 60.0625 53.125 
Q 64.75 56 71.09375 56 
Q 79.640625 56 84.28125 50.015625 
Q 88.921875 44.046875 88.921875 33.015625 
L 88.921875 0 
L 79.890625 0 
L 79.890625 32.71875 
Q 79.890625 40.578125 77.09375 44.375 
Q 74.3125 48.1875 68.609375 48.1875 
Q 61.625 48.1875 57.5625 43.546875 
Q 53.515625 38.921875 53.515625 30.90625 
L 53.515625 0 
L 44.484375 0 
L 44.484375 32.71875 
Q 44.484375 40.625 41.703125 44.40625 
Q 38.921875 48.1875 33.109375 48.1875 
Q 26.21875 48.1875 22.15625 43.53125 
Q 18.109375 38.875 18.109375 30.90625 
L 18.109375 0 
L 9.078125 0 
L 9.078125 54.6875 
L 18.109375 54.6875 
L 18.109375 46.1875 
Q 21.1875 51.21875 25.484375 53.609375 
Q 29.78125 56 35.6875 56 
Q 41.65625 56 45.828125 52.96875 
Q 50 49.953125 52 44.1875 
" id="DejaVuSans-6d"/>
      <path d="M 54.890625 33.015625 
L 54.890625 0 
L 45.90625 0 
L 45.90625 32.71875 
Q 45.90625 40.484375 42.875 44.328125 
Q 39.84375 48.1875 33.796875 48.1875 
Q 26.515625 48.1875 22.3125 43.546875 
Q 18.109375 38.921875 18.109375 30.90625 
L 18.109375 0 
L 9.078125 0 
L 9.078125 54.6875 
L 18.109375 54.6875 
L 18.109375 46.1875 
Q 21.34375 51.125 25.703125 53.5625 
Q 30.078125 56 35.796875 56 
Q 45.21875 56 50.046875 50.171875 
Q 54.890625 44.34375 54.890625 33.015625 
" id="DejaVuSans-6e"/>
      <path d="M 8.015625 75.875 
L 15.828125 75.875 
Q 23.140625 64.359375 26.78125 53.3125 
Q 30.421875 42.28125 30.421875 31.390625 
Q 30.421875 20.453125 26.78125 9.375 
Q 23.140625 -1.703125 15.828125 -13.1875 
L 8.015625 -13.1875 
Q 14.5 -2 17.703125 9.0625 
Q 20.90625 20.125 20.90625 31.390625 
Q 20.90625 42.671875 17.703125 53.65625 
Q 14.5 64.65625 8.015625 75.875 
" id="DejaVuSans-29"/>
     </defs>
     <g transform="translate(107.015156 342.278812)scale(0.18 -0.18)">
      <use xlink:href="#DejaVuSans-6c"/>
      <use x="27.783203" xlink:href="#DejaVuSans-6f"/>
      <use x="88.964844" xlink:href="#DejaVuSans-67"/>
      <use x="152.441406" xlink:href="#DejaVuSans-31"/>
      <use x="216.064453" xlink:href="#DejaVuSans-30"/>
      <use x="279.6875" xlink:href="#DejaVuSans-20"/>
      <use x="311.474609" xlink:href="#DejaVuSans-6f"/>
      <use x="372.65625" xlink:href="#DejaVuSans-66"/>
      <use x="407.861328" xlink:href="#DejaVuSans-20"/>
      <use x="439.648438" xlink:href="#DejaVuSans-28"/>
      <use x="478.662109" xlink:href="#DejaVuSans-23"/>
      <use x="562.451172" xlink:href="#DejaVuSans-20"/>
      <use x="594.238281" xlink:href="#DejaVuSans-66"/>
      <use x="629.365234" xlink:href="#DejaVuSans-2d"/>
      <use x="665.449219" xlink:href="#DejaVuSans-65"/>
      <use x="726.972656" xlink:href="#DejaVuSans-76"/>
      <use x="786.152344" xlink:href="#DejaVuSans-61"/>
      <use x="847.431641" xlink:href="#DejaVuSans-6c"/>
      <use x="875.214844" xlink:href="#DejaVuSans-73"/>
      <use x="927.314453" xlink:href="#DejaVuSans-20"/>
      <use x="959.101562" xlink:href="#DejaVuSans-2f"/>
      <use x="992.792969" xlink:href="#DejaVuSans-20"/>
      <use x="1024.580078" xlink:href="#DejaVuSans-64"/>
      <use x="1088.056641" xlink:href="#DejaVuSans-69"/>
      <use x="1115.839844" xlink:href="#DejaVuSans-6d"/>
      <use x="1213.251953" xlink:href="#DejaVuSans-65"/>
      <use x="1274.775391" xlink:href="#DejaVuSans-6e"/>
      <use x="1338.154297" xlink:href="#DejaVuSans-73"/>
      <use x="1390.253906" xlink:href="#DejaVuSans-69"/>
      <use x="1418.037109" xlink:href="#DejaVuSans-6f"/>
      <use x="1479.21875" xlink:href="#DejaVuSans-6e"/>
      <use x="1542.597656" xlink:href="#DejaVuSans-29"/>
     </g>
    </g>
   </g>
   <g id="matplotlib.axis_2">
    <g id="ytick_1">
     <g id="line2d_29">
      <path clip-path="url(#p53137d96b4)" d="M 70.8 298.245375 
L 427.92 298.245375 
" style="fill:none;stroke:#b0b0b0;stroke-linecap:square;stroke-width:0.8;"/>
     </g>
     <g id="line2d_30">
      <defs>
       <path d="M 0 0 
L -3.5 0 
" id="m47eacd7f52" style="stroke:#000000;stroke-width:0.8;"/>
      </defs>
      <g>
       <use style="stroke:#000000;stroke-width:0.8;" x="70.8" xlink:href="#m47eacd7f52" y="298.245375"/>
      </g>
     </g>
     <g id="text_7">
      <!-- 0.0 -->
      <defs>
       <path d="M 10.6875 12.40625 
L 21 12.40625 
L 21 0 
L 10.6875 0 
z
" id="DejaVuSans-2e"/>
      </defs>
      <g transform="translate(31.99375 305.843812)scale(0.2 -0.2)">
       <use xlink:href="#DejaVuSans-30"/>
       <use x="63.623047" xlink:href="#DejaVuSans-2e"/>
       <use x="95.410156" xlink:href="#DejaVuSans-30"/>
      </g>
     </g>
    </g>
    <g id="ytick_2">
     <g id="line2d_31">
      <path clip-path="url(#p53137d96b4)" d="M 70.8 245.549929 
L 427.92 245.549929 
" style="fill:none;stroke:#b0b0b0;stroke-linecap:square;stroke-width:0.8;"/>
     </g>
     <g id="line2d_32">
      <g>
       <use style="stroke:#000000;stroke-width:0.8;" x="70.8" xlink:href="#m47eacd7f52" y="245.549929"/>
      </g>
     </g>
     <g id="text_8">
      <!-- 0.2 -->
      <g transform="translate(31.99375 253.148367)scale(0.2 -0.2)">
       <use xlink:href="#DejaVuSans-30"/>
       <use x="63.623047" xlink:href="#DejaVuSans-2e"/>
       <use x="95.410156" xlink:href="#DejaVuSans-32"/>
      </g>
     </g>
    </g>
    <g id="ytick_3">
     <g id="line2d_33">
      <path clip-path="url(#p53137d96b4)" d="M 70.8 192.854484 
L 427.92 192.854484 
" style="fill:none;stroke:#b0b0b0;stroke-linecap:square;stroke-width:0.8;"/>
     </g>
     <g id="line2d_34">
      <g>
       <use style="stroke:#000000;stroke-width:0.8;" x="70.8" xlink:href="#m47eacd7f52" y="192.854484"/>
      </g>
     </g>
     <g id="text_9">
      <!-- 0.4 -->
      <g transform="translate(31.99375 200.452921)scale(0.2 -0.2)">
       <use xlink:href="#DejaVuSans-30"/>
       <use x="63.623047" xlink:href="#DejaVuSans-2e"/>
       <use x="95.410156" xlink:href="#DejaVuSans-34"/>
      </g>
     </g>
    </g>
    <g id="ytick_4">
     <g id="line2d_35">
      <path clip-path="url(#p53137d96b4)" d="M 70.8 140.159038 
L 427.92 140.159038 
" style="fill:none;stroke:#b0b0b0;stroke-linecap:square;stroke-width:0.8;"/>
     </g>
     <g id="line2d_36">
      <g>
       <use style="stroke:#000000;stroke-width:0.8;" x="70.8" xlink:href="#m47eacd7f52" y="140.159038"/>
      </g>
     </g>
     <g id="text_10">
      <!-- 0.6 -->
      <g transform="translate(31.99375 147.757476)scale(0.2 -0.2)">
       <use xlink:href="#DejaVuSans-30"/>
       <use x="63.623047" xlink:href="#DejaVuSans-2e"/>
       <use x="95.410156" xlink:href="#DejaVuSans-36"/>
      </g>
     </g>
    </g>
    <g id="ytick_5">
     <g id="line2d_37">
      <path clip-path="url(#p53137d96b4)" d="M 70.8 87.463593 
L 427.92 87.463593 
" style="fill:none;stroke:#b0b0b0;stroke-linecap:square;stroke-width:0.8;"/>
     </g>
     <g id="line2d_38">
      <g>
       <use style="stroke:#000000;stroke-width:0.8;" x="70.8" xlink:href="#m47eacd7f52" y="87.463593"/>
      </g>
     </g>
     <g id="text_11">
      <!-- 0.8 -->
      <g transform="translate(31.99375 95.06203)scale(0.2 -0.2)">
       <use xlink:href="#DejaVuSans-30"/>
       <use x="63.623047" xlink:href="#DejaVuSans-2e"/>
       <use x="95.410156" xlink:href="#DejaVuSans-38"/>
      </g>
     </g>
    </g>
    <g id="ytick_6">
     <g id="line2d_39">
      <path clip-path="url(#p53137d96b4)" d="M 70.8 34.768147 
L 427.92 34.768147 
" style="fill:none;stroke:#b0b0b0;stroke-linecap:square;stroke-width:0.8;"/>
     </g>
     <g id="line2d_40">
      <g>
       <use style="stroke:#000000;stroke-width:0.8;" x="70.8" xlink:href="#m47eacd7f52" y="34.768147"/>
      </g>
     </g>
     <g id="text_12">
      <!-- 1.0 -->
      <g transform="translate(31.99375 42.366585)scale(0.2 -0.2)">
       <use xlink:href="#DejaVuSans-31"/>
       <use x="63.623047" xlink:href="#DejaVuSans-2e"/>
       <use x="95.410156" xlink:href="#DejaVuSans-30"/>
      </g>
     </g>
    </g>
    <g id="text_13">
     <!-- Proportion of function+target pairs -->
     <defs>
      <path d="M 19.671875 64.796875 
L 19.671875 37.40625 
L 32.078125 37.40625 
Q 38.96875 37.40625 42.71875 40.96875 
Q 46.484375 44.53125 46.484375 51.125 
Q 46.484375 57.671875 42.71875 61.234375 
Q 38.96875 64.796875 32.078125 64.796875 
z
M 9.8125 72.90625 
L 32.078125 72.90625 
Q 44.34375 72.90625 50.609375 67.359375 
Q 56.890625 61.8125 56.890625 51.125 
Q 56.890625 40.328125 50.609375 34.8125 
Q 44.34375 29.296875 32.078125 29.296875 
L 19.671875 29.296875 
L 19.671875 0 
L 9.8125 0 
z
" id="DejaVuSans-50"/>
      <path d="M 41.109375 46.296875 
Q 39.59375 47.171875 37.8125 47.578125 
Q 36.03125 48 33.890625 48 
Q 26.265625 48 22.1875 43.046875 
Q 18.109375 38.09375 18.109375 28.8125 
L 18.109375 0 
L 9.078125 0 
L 9.078125 54.6875 
L 18.109375 54.6875 
L 18.109375 46.1875 
Q 20.953125 51.171875 25.484375 53.578125 
Q 30.03125 56 36.53125 56 
Q 37.453125 56 38.578125 55.875 
Q 39.703125 55.765625 41.0625 55.515625 
z
" id="DejaVuSans-72"/>
      <path d="M 18.109375 8.203125 
L 18.109375 -20.796875 
L 9.078125 -20.796875 
L 9.078125 54.6875 
L 18.109375 54.6875 
L 18.109375 46.390625 
Q 20.953125 51.265625 25.265625 53.625 
Q 29.59375 56 35.59375 56 
Q 45.5625 56 51.78125 48.09375 
Q 58.015625 40.1875 58.015625 27.296875 
Q 58.015625 14.40625 51.78125 6.484375 
Q 45.5625 -1.421875 35.59375 -1.421875 
Q 29.59375 -1.421875 25.265625 0.953125 
Q 20.953125 3.328125 18.109375 8.203125 
M 48.6875 27.296875 
Q 48.6875 37.203125 44.609375 42.84375 
Q 40.53125 48.484375 33.40625 48.484375 
Q 26.265625 48.484375 22.1875 42.84375 
Q 18.109375 37.203125 18.109375 27.296875 
Q 18.109375 17.390625 22.1875 11.75 
Q 26.265625 6.109375 33.40625 6.109375 
Q 40.53125 6.109375 44.609375 11.75 
Q 48.6875 17.390625 48.6875 27.296875 
" id="DejaVuSans-70"/>
      <path d="M 18.3125 70.21875 
L 18.3125 54.6875 
L 36.8125 54.6875 
L 36.8125 47.703125 
L 18.3125 47.703125 
L 18.3125 18.015625 
Q 18.3125 11.328125 20.140625 9.421875 
Q 21.96875 7.515625 27.59375 7.515625 
L 36.8125 7.515625 
L 36.8125 0 
L 27.59375 0 
Q 17.1875 0 13.234375 3.875 
Q 9.28125 7.765625 9.28125 18.015625 
L 9.28125 47.703125 
L 2.6875 47.703125 
L 2.6875 54.6875 
L 9.28125 54.6875 
L 9.28125 70.21875 
z
" id="DejaVuSans-74"/>
      <path d="M 8.5 21.578125 
L 8.5 54.6875 
L 17.484375 54.6875 
L 17.484375 21.921875 
Q 17.484375 14.15625 20.5 10.265625 
Q 23.53125 6.390625 29.59375 6.390625 
Q 36.859375 6.390625 41.078125 11.03125 
Q 45.3125 15.671875 45.3125 23.6875 
L 45.3125 54.6875 
L 54.296875 54.6875 
L 54.296875 0 
L 45.3125 0 
L 45.3125 8.40625 
Q 42.046875 3.421875 37.71875 1 
Q 33.40625 -1.421875 27.6875 -1.421875 
Q 18.265625 -1.421875 13.375 4.4375 
Q 8.5 10.296875 8.5 21.578125 
M 31.109375 56 
z
" id="DejaVuSans-75"/>
      <path d="M 48.78125 52.59375 
L 48.78125 44.1875 
Q 44.96875 46.296875 41.140625 47.34375 
Q 37.3125 48.390625 33.40625 48.390625 
Q 24.65625 48.390625 19.8125 42.84375 
Q 14.984375 37.3125 14.984375 27.296875 
Q 14.984375 17.28125 19.8125 11.734375 
Q 24.65625 6.203125 33.40625 6.203125 
Q 37.3125 6.203125 41.140625 7.25 
Q 44.96875 8.296875 48.78125 10.40625 
L 48.78125 2.09375 
Q 45.015625 0.34375 40.984375 -0.53125 
Q 36.96875 -1.421875 32.421875 -1.421875 
Q 20.0625 -1.421875 12.78125 6.34375 
Q 5.515625 14.109375 5.515625 27.296875 
Q 5.515625 40.671875 12.859375 48.328125 
Q 20.21875 56 33.015625 56 
Q 37.15625 56 41.109375 55.140625 
Q 45.0625 54.296875 48.78125 52.59375 
" id="DejaVuSans-63"/>
      <path d="M 46 62.703125 
L 46 35.5 
L 73.1875 35.5 
L 73.1875 27.203125 
L 46 27.203125 
L 46 0 
L 37.796875 0 
L 37.796875 27.203125 
L 10.59375 27.203125 
L 10.59375 35.5 
L 37.796875 35.5 
L 37.796875 62.703125 
z
" id="DejaVuSans-2b"/>
     </defs>
     <g transform="translate(24.250312 323.17875)rotate(-90)scale(0.18 -0.18)">
      <use xlink:href="#DejaVuSans-50"/>
      <use x="60.287109" xlink:href="#DejaVuSans-72"/>
      <use x="101.369141" xlink:href="#DejaVuSans-6f"/>
      <use x="162.550781" xlink:href="#DejaVuSans-70"/>
      <use x="226.027344" xlink:href="#DejaVuSans-6f"/>
      <use x="287.208984" xlink:href="#DejaVuSans-72"/>
      <use x="328.322266" xlink:href="#DejaVuSans-74"/>
      <use x="367.53125" xlink:href="#DejaVuSans-69"/>
      <use x="395.314453" xlink:href="#DejaVuSans-6f"/>
      <use x="456.496094" xlink:href="#DejaVuSans-6e"/>
      <use x="519.875" xlink:href="#DejaVuSans-20"/>
      <use x="551.662109" xlink:href="#DejaVuSans-6f"/>
      <use x="612.84375" xlink:href="#DejaVuSans-66"/>
      <use x="648.048828" xlink:href="#DejaVuSans-20"/>
      <use x="679.835938" xlink:href="#DejaVuSans-66"/>
      <use x="715.041016" xlink:href="#DejaVuSans-75"/>
      <use x="778.419922" xlink:href="#DejaVuSans-6e"/>
      <use x="841.798828" xlink:href="#DejaVuSans-63"/>
      <use x="896.779297" xlink:href="#DejaVuSans-74"/>
      <use x="935.988281" xlink:href="#DejaVuSans-69"/>
      <use x="963.771484" xlink:href="#DejaVuSans-6f"/>
      <use x="1024.953125" xlink:href="#DejaVuSans-6e"/>
      <use x="1088.332031" xlink:href="#DejaVuSans-2b"/>
      <use x="1172.121094" xlink:href="#DejaVuSans-74"/>
      <use x="1211.330078" xlink:href="#DejaVuSans-61"/>
      <use x="1272.609375" xlink:href="#DejaVuSans-72"/>
      <use x="1313.707031" xlink:href="#DejaVuSans-67"/>
      <use x="1377.183594" xlink:href="#DejaVuSans-65"/>
      <use x="1438.707031" xlink:href="#DejaVuSans-74"/>
      <use x="1477.916016" xlink:href="#DejaVuSans-20"/>
      <use x="1509.703125" xlink:href="#DejaVuSans-70"/>
      <use x="1573.179688" xlink:href="#DejaVuSans-61"/>
      <use x="1634.458984" xlink:href="#DejaVuSans-69"/>
      <use x="1662.242188" xlink:href="#DejaVuSans-72"/>
      <use x="1703.355469" xlink:href="#DejaVuSans-73"/>
     </g>
    </g>
   </g>
   <g id="line2d_41">
    <defs>
     <path d="M 0 1.5 
C 0.397805 1.5 0.77937 1.341951 1.06066 1.06066 
C 1.341951 0.77937 1.5 0.397805 1.5 0 
C 1.5 -0.397805 1.341951 -0.77937 1.06066 -1.06066 
C 0.77937 -1.341951 0.397805 -1.5 0 -1.5 
C -0.397805 -1.5 -0.77937 -1.341951 -1.06066 -1.06066 
C -1.341951 -0.77937 -1.5 -0.397805 -1.5 0 
C -1.5 0.397805 -1.341951 0.77937 -1.06066 1.06066 
C -0.77937 1.341951 -0.397805 1.5 0 1.5 
z
" id="m1831050aea" style="stroke:#00bfbf;"/>
    </defs>
    <g>
     <use style="fill:#00bfbf;stroke:#00bfbf;" x="237.555227" xlink:href="#m1831050aea" y="34.768147"/>
     <use style="fill:#00bfbf;stroke:#00bfbf;" x="237.555227" xlink:href="#m1831050aea" y="34.768147"/>
    </g>
   </g>
   <g id="line2d_42">
    <path d="M 58.414766 298.245375 
L 58.414766 257.948858 
L 153.085714 257.948858 
L 153.085714 254.332504 
L 160.330612 254.332504 
L 160.330612 252.782638 
L 172.715846 252.782638 
L 172.715846 250.199528 
L 177.856183 250.199528 
L 177.856183 249.682906 
L 179.960743 249.682906 
L 179.960743 247.616418 
L 185.10108 247.616418 
L 185.10108 245.549929 
L 186.531292 245.549929 
L 186.531292 245.033307 
L 189.088235 245.033307 
L 189.088235 242.450197 
L 192.345978 242.450197 
L 192.345978 240.383709 
L 195.10036 240.383709 
L 195.10036 238.833843 
L 198.215726 238.833843 
L 198.215726 237.800599 
L 198.916526 237.800599 
L 198.916526 235.734111 
L 200.240696 235.734111 
L 200.240696 232.634379 
L 200.867712 232.634379 
L 200.867712 231.601135 
L 205.697291 231.601135 
L 205.697291 231.084513 
L 206.161424 231.084513 
L 206.161424 230.567891 
L 207.055016 230.567891 
L 207.055016 229.534647 
L 207.485594 229.534647 
L 207.485594 226.434915 
L 207.906039 226.434915 
L 207.906039 222.818561 
L 208.718366 222.818561 
L 208.718366 222.301939 
L 209.495363 222.301939 
L 209.495363 221.785317 
L 209.871548 221.785317 
L 209.871548 220.752073 
L 210.239976 220.752073 
L 210.239976 220.235451 
L 210.954796 220.235451 
L 210.954796 218.168963 
L 213.252946 218.168963 
L 213.252946 217.135719 
L 215.561716 217.135719 
L 215.561716 216.102475 
L 215.830415 216.102475 
L 215.830415 215.585853 
L 216.095133 215.585853 
L 216.095133 213.519365 
L 218.774281 213.519365 
L 218.774281 212.48612 
L 219.221007 212.48612 
L 219.221007 210.936254 
L 219.656836 210.936254 
L 219.656836 208.869766 
L 219.870828 208.869766 
L 219.870828 207.3199 
L 220.291274 207.3199 
L 220.291274 206.286656 
L 220.497844 206.286656 
L 220.497844 205.253412 
L 220.702053 205.253412 
L 220.702053 200.603814 
L 221.103601 200.603814 
L 221.103601 196.98746 
L 221.30104 196.98746 
L 221.30104 189.23813 
L 221.496322 189.23813 
L 221.496322 184.07191 
L 221.689493 184.07191 
L 221.689493 180.455556 
L 221.880598 180.455556 
L 221.880598 178.90569 
L 222.06968 178.90569 
L 222.06968 172.189603 
L 222.256782 172.189603 
L 222.256782 166.506761 
L 222.441946 166.506761 
L 222.441946 157.724187 
L 222.62521 157.724187 
L 222.62521 155.657699 
L 222.806614 155.657699 
L 222.806614 151.008101 
L 222.986194 151.008101 
L 222.986194 147.391747 
L 223.163988 147.391747 
L 223.163988 146.358503 
L 223.34003 146.358503 
L 223.34003 144.292014 
L 223.686995 144.292014 
L 223.686995 140.159038 
L 223.857983 140.159038 
L 223.857983 136.542684 
L 224.02735 136.542684 
L 224.02735 136.026062 
L 224.361343 136.026062 
L 224.361343 133.959574 
L 224.689208 133.959574 
L 224.689208 131.376464 
L 225.011165 131.376464 
L 225.011165 125.693622 
L 225.483477 125.693622 
L 225.483477 124.660378 
L 225.791556 124.660378 
L 225.791556 123.110512 
L 225.943626 123.110512 
L 225.943626 122.59389 
L 226.243937 122.59389 
L 226.243937 119.494158 
L 226.685148 119.494158 
L 226.685148 116.911048 
L 226.973349 116.911048 
L 226.973349 114.84456 
L 227.256976 114.84456 
L 227.256976 113.294694 
L 227.397119 113.294694 
L 227.397119 111.744828 
L 227.536171 111.744828 
L 227.536171 109.161717 
L 227.67415 109.161717 
L 227.67415 104.512119 
L 227.811071 104.512119 
L 227.811071 100.379143 
L 228.081805 100.379143 
L 228.081805 98.312655 
L 228.215649 98.312655 
L 228.215649 93.663057 
L 228.480367 93.663057 
L 228.480367 89.530081 
L 228.611269 89.530081 
L 228.611269 84.363861 
L 228.74122 84.363861 
L 228.74122 82.297373 
L 228.870232 82.297373 
L 228.870232 78.681019 
L 228.998319 78.681019 
L 228.998319 70.931688 
L 229.125495 70.931688 
L 229.125495 62.665736 
L 229.251772 62.665736 
L 229.251772 61.11587 
L 229.377163 61.11587 
L 229.377163 58.016138 
L 229.50168 58.016138 
L 229.50168 53.883162 
L 229.625335 53.883162 
L 229.625335 51.300052 
L 229.748141 51.300052 
L 229.748141 49.750186 
L 229.870108 49.750186 
L 229.870108 48.20032 
L 229.991248 48.20032 
L 229.991248 47.167076 
L 230.231092 47.167076 
L 230.231092 46.133832 
L 235.460547 46.133832 
L 235.549222 40.967611 
L 235.63746 40.967611 
L 235.725264 39.934367 
L 235.899589 39.934367 
L 235.899589 39.417745 
L 236.412584 39.417745 
L 236.412584 38.901123 
L 236.746577 38.901123 
L 236.746577 37.351257 
L 237.316452 37.351257 
L 237.316452 35.801391 
L 237.555227 35.801391 
L 237.555227 34.768147 
L 358.8 34.768147 
L 358.8 34.768147 
" style="fill:none;stroke:#00bfbf;stroke-linecap:square;stroke-width:1.5;"/>
   </g>
   <g id="line2d_43">
    <defs>
     <path d="M -6 0 
L 6 0 
M 0 6 
L 0 -6 
" id="maf5470eb04" style="stroke:#00bfbf;stroke-width:1.5;"/>
    </defs>
    <g>
     <use style="fill:none;stroke:#00bfbf;stroke-width:1.5;" x="358.8" xlink:href="#maf5470eb04" y="34.768147"/>
    </g>
   </g>
   <g id="line2d_44"/>
   <g id="line2d_45">
    <defs>
     <path d="M 0 1.5 
C 0.397805 1.5 0.77937 1.341951 1.06066 1.06066 
C 1.341951 0.77937 1.5 0.397805 1.5 0 
C 1.5 -0.397805 1.341951 -0.77937 1.06066 -1.06066 
C 0.77937 -1.341951 0.397805 -1.5 0 -1.5 
C -0.397805 -1.5 -0.77937 -1.341951 -1.06066 -1.06066 
C -1.341951 -0.77937 -1.5 -0.397805 -1.5 0 
C -1.5 0.397805 -1.341951 0.77937 -1.06066 1.06066 
C -0.77937 1.341951 -0.397805 1.5 0 1.5 
z
" id="m288c99c695" style="stroke:#008000;"/>
    </defs>
    <g>
     <use style="fill:#008000;stroke:#008000;" x="237.502441" xlink:href="#m288c99c695" y="34.768147"/>
     <use style="fill:#008000;stroke:#008000;" x="237.502441" xlink:href="#m288c99c695" y="34.768147"/>
    </g>
   </g>
   <g id="line2d_46">
    <path d="M 51.169868 298.245375 
L 51.169868 273.96414 
L 145.840817 273.96414 
L 145.840817 267.248054 
L 153.085714 267.248054 
L 153.085714 265.181566 
L 158.226051 265.181566 
L 158.226051 262.598456 
L 162.213206 262.598456 
L 162.213206 261.04859 
L 165.470948 261.04859 
L 165.470948 257.432236 
L 168.225331 257.432236 
L 168.225331 256.398992 
L 170.611285 256.398992 
L 170.611285 255.365748 
L 176.301453 255.365748 
L 176.301453 254.332504 
L 179.286395 254.332504 
L 179.286395 253.815882 
L 180.610565 253.815882 
L 180.610565 252.266016 
L 181.843337 252.266016 
L 181.843337 250.199528 
L 182.996519 250.199528 
L 182.996519 249.682906 
L 184.079767 249.682906 
L 184.079767 249.166284 
L 185.10108 249.166284 
L 185.10108 248.13304 
L 186.983674 248.13304 
L 186.983674 247.616418 
L 190.241417 247.616418 
L 190.241417 247.099796 
L 191.671629 247.099796 
L 191.671629 246.066551 
L 192.345978 246.066551 
L 192.345978 245.033307 
L 193.622815 245.033307 
L 193.622815 244.000063 
L 195.381753 244.000063 
L 195.381753 243.483441 
L 198.452393 243.483441 
L 198.452393 242.966819 
L 199.368908 242.966819 
L 199.368908 238.317221 
L 199.810118 238.317221 
L 199.810118 237.800599 
L 200.240696 237.800599 
L 200.240696 236.250733 
L 201.866191 236.250733 
L 201.866191 235.217489 
L 202.250466 235.217489 
L 202.250466 234.700867 
L 202.626651 234.700867 
L 202.626651 233.151001 
L 203.356063 233.151001 
L 203.356063 232.634379 
L 211.071201 232.634379 
L 211.071201 232.117757 
L 211.529383 232.117757 
L 211.529383 231.601135 
L 214.251425 231.601135 
L 214.251425 230.567891 
L 215.741297 230.567891 
L 215.741297 228.501403 
L 216.095133 228.501403 
L 216.095133 226.951537 
L 216.269457 226.951537 
L 216.269457 226.434915 
L 216.442097 226.434915 
L 216.442097 223.851805 
L 217.116446 223.851805 
L 217.116446 222.818561 
L 217.28113 222.818561 
L 217.28113 220.235451 
L 217.44431 220.235451 
L 217.44431 218.168963 
L 217.606014 218.168963 
L 217.606014 217.652341 
L 217.766267 217.652341 
L 217.766267 216.619097 
L 218.23858 216.619097 
L 218.23858 214.035987 
L 218.546658 214.035987 
L 218.546658 210.936254 
L 218.849515 210.936254 
L 218.849515 209.386388 
L 219.147324 209.386388 
L 219.147324 208.353144 
L 219.294387 208.353144 
L 219.294387 205.770034 
L 219.44025 205.770034 
L 219.44025 202.670302 
L 219.584932 202.670302 
L 219.584932 202.15368 
L 220.012079 202.15368 
L 220.012079 201.120436 
L 220.152221 201.120436 
L 220.152221 200.603814 
L 220.291274 200.603814 
L 220.291274 195.954216 
L 220.429252 195.954216 
L 220.429252 193.887728 
L 220.702053 193.887728 
L 220.702053 188.721508 
L 220.836907 188.721508 
L 220.836907 188.204886 
L 220.970752 188.204886 
L 220.970752 185.621776 
L 221.103601 185.621776 
L 221.103601 183.038666 
L 221.235469 183.038666 
L 221.235469 176.839201 
L 221.366372 176.839201 
L 221.366372 175.289335 
L 221.496322 175.289335 
L 221.496322 171.672981 
L 221.753422 171.672981 
L 221.753422 170.123115 
L 221.880598 170.123115 
L 221.880598 167.540005 
L 222.006875 167.540005 
L 222.006875 163.407029 
L 222.132265 163.407029 
L 222.132265 156.690943 
L 222.256782 156.690943 
L 222.256782 151.008101 
L 222.380438 151.008101 
L 222.380438 147.908369 
L 222.503243 147.908369 
L 222.503243 146.358503 
L 222.62521 146.358503 
L 222.62521 139.125794 
L 222.74635 139.125794 
L 222.74635 129.309976 
L 222.866675 129.309976 
L 222.866675 115.877804 
L 222.986194 115.877804 
L 222.986194 111.744828 
L 228.215649 111.744828 
L 228.304325 102.445631 
L 228.392563 102.445631 
L 228.480367 96.762789 
L 228.567742 96.762789 
L 228.567742 94.179679 
L 228.827331 94.179679 
L 228.827331 91.079947 
L 229.083204 91.079947 
L 229.083204 89.530081 
L 229.335464 89.530081 
L 229.335464 89.013459 
L 229.748141 89.013459 
L 229.829544 87.980215 
L 229.910579 87.980215 
L 229.910579 85.397105 
L 230.071554 85.397105 
L 230.151501 83.847239 
L 230.231092 83.847239 
L 230.31033 79.197641 
L 230.389218 79.197641 
L 230.467759 76.614531 
L 230.701333 76.614531 
L 230.778517 71.964932 
L 230.855369 71.964932 
L 230.931892 67.315334 
L 231.008089 67.315334 
L 231.083962 63.182358 
L 231.159515 63.182358 
L 231.234749 60.082626 
L 231.309668 60.082626 
L 231.384274 55.433028 
L 231.45857 55.433028 
L 231.532558 49.233564 
L 231.606241 49.233564 
L 231.679621 47.167076 
L 231.825484 47.167076 
L 231.897972 43.550722 
L 231.970166 43.550722 
L 232.04207 39.417745 
L 232.113686 39.417745 
L 232.113686 36.318013 
L 235.490154 36.318013 
L 235.490154 35.801391 
L 237.502441 35.801391 
L 237.502441 34.768147 
L 358.8 34.768147 
L 358.8 34.768147 
" style="fill:none;stroke:#008000;stroke-linecap:square;stroke-width:1.5;"/>
   </g>
   <g id="line2d_47">
    <defs>
     <path d="M -0 6 
L 6 -6 
L -6 -6 
z
" id="m90dd9a2d75" style="stroke:#008000;stroke-linejoin:miter;stroke-width:1.5;"/>
    </defs>
    <g>
     <use style="fill:none;stroke:#008000;stroke-linejoin:miter;stroke-width:1.5;" x="358.8" xlink:href="#m90dd9a2d75" y="34.768147"/>
    </g>
   </g>
   <g id="line2d_48"/>
   <g id="line2d_49">
    <defs>
     <path d="M 0 1.5 
C 0.397805 1.5 0.77937 1.341951 1.06066 1.06066 
C 1.341951 0.77937 1.5 0.397805 1.5 0 
C 1.5 -0.397805 1.341951 -0.77937 1.06066 -1.06066 
C 0.77937 -1.341951 0.397805 -1.5 0 -1.5 
C -0.397805 -1.5 -0.77937 -1.341951 -1.06066 -1.06066 
C -1.341951 -0.77937 -1.5 -0.397805 -1.5 0 
C -1.5 0.397805 -1.341951 0.77937 -1.06066 1.06066 
C -0.77937 1.341951 -0.397805 1.5 0 1.5 
z
" id="m44d813009c" style="stroke:#0000ff;"/>
    </defs>
    <g>
     <use style="fill:#0000ff;stroke:#0000ff;" x="242.303896" xlink:href="#m44d813009c" y="34.768147"/>
     <use style="fill:#0000ff;stroke:#0000ff;" x="242.303896" xlink:href="#m44d813009c" y="34.768147"/>
    </g>
   </g>
   <g id="line2d_50">
    <path d="M 42.042377 298.245375 
L 42.042377 287.912935 
L 136.713325 287.912935 
L 136.713325 282.746715 
L 143.958223 282.746715 
L 143.958223 280.163604 
L 149.098559 280.163604 
L 149.098559 277.063872 
L 153.085714 277.063872 
L 153.085714 272.414274 
L 156.343457 272.414274 
L 156.343457 271.38103 
L 159.097839 271.38103 
L 159.097839 269.831164 
L 161.483794 269.831164 
L 161.483794 267.764676 
L 170.158903 267.764676 
L 170.158903 267.248054 
L 172.715846 267.248054 
L 172.715846 264.664944 
L 175.973589 264.664944 
L 175.973589 264.148322 
L 176.939668 264.148322 
L 176.939668 263.6317 
L 177.856183 263.6317 
L 177.856183 262.598456 
L 178.727971 262.598456 
L 178.727971 261.565212 
L 180.353465 261.565212 
L 180.353465 260.015346 
L 181.843337 260.015346 
L 181.843337 259.498724 
L 183.218486 259.498724 
L 183.218486 258.46548 
L 183.868307 258.46548 
L 183.868307 257.432236 
L 184.495323 257.432236 
L 184.495323 256.915614 
L 185.686972 256.915614 
L 185.686972 256.398992 
L 186.804093 256.398992 
L 186.804093 255.365748 
L 187.855462 255.365748 
L 187.855462 254.332504 
L 188.848391 254.332504 
L 188.848391 250.71615 
L 189.789035 250.71615 
L 189.789035 250.199528 
L 190.241417 250.199528 
L 190.241417 248.649662 
L 190.682627 248.649662 
L 190.682627 246.583173 
L 191.94443 246.583173 
L 191.94443 245.033307 
L 192.738699 245.033307 
L 192.738699 244.516685 
L 199.458026 244.516685 
L 199.458026 242.966819 
L 199.983597 242.966819 
L 199.983597 242.450197 
L 200.240696 242.450197 
L 200.240696 241.416953 
L 201.233625 241.416953 
L 201.233625 240.383709 
L 201.473469 240.383709 
L 201.473469 238.317221 
L 201.710136 238.317221 
L 201.710136 236.767355 
L 202.174269 236.767355 
L 202.174269 236.250733 
L 204.731212 236.250733 
L 204.731212 235.734111 
L 205.317104 235.734111 
L 205.317104 235.217489 
L 205.697291 235.217489 
L 205.697291 234.700867 
L 207.822738 234.700867 
L 207.822738 234.184245 
L 212.753106 234.184245 
L 212.753106 233.151001 
L 212.879383 233.151001 
L 212.879383 232.117757 
L 213.252946 232.117757 
L 213.252946 230.567891 
L 213.375752 230.567891 
L 213.375752 230.051269 
L 213.497719 230.051269 
L 213.497719 227.984781 
L 213.618859 227.984781 
L 213.618859 227.468159 
L 213.739183 227.468159 
L 213.739183 226.434915 
L 213.858703 226.434915 
L 213.858703 224.885049 
L 214.328944 224.885049 
L 214.328944 223.335183 
L 214.787126 223.335183 
L 214.787126 221.268695 
L 215.989716 221.268695 
L 215.989716 220.752073 
L 216.304119 220.752073 
L 216.304119 219.202207 
L 217.411793 219.202207 
L 217.411793 218.168963 
L 217.798146 218.168963 
L 217.798146 217.652341 
L 218.176321 217.652341 
L 218.176321 217.135719 
L 218.546658 217.135719 
L 218.546658 216.619097 
L 218.728987 216.619097 
L 218.819459 214.035987 
L 219.44025 214.035987 
L 219.44025 213.002743 
L 220.374188 213.002743 
L 220.45672 209.386388 
L 221.340268 209.386388 
L 221.418465 208.353144 
L 221.496322 208.353144 
L 221.573841 205.253412 
L 222.032023 205.253412 
L 222.107257 204.220168 
L 222.182176 204.220168 
L 222.182176 201.120436 
L 222.331078 201.120436 
L 222.405066 199.053948 
L 222.478749 199.053948 
L 222.55213 192.854484 
L 222.62521 192.854484 
L 222.697993 190.271374 
L 222.77048 190.271374 
L 222.842675 187.688264 
L 222.914579 187.688264 
L 222.986194 180.972178 
L 224.624114 180.972178 
L 224.624114 180.455556 
L 225.13834 180.455556 
L 225.13834 178.90569 
L 225.264617 178.90569 
L 225.327423 175.805957 
L 225.390008 175.805957 
L 225.390008 175.289335 
L 225.699689 175.289335 
L 225.760986 172.706225 
L 225.822073 172.706225 
L 225.882953 170.123115 
L 225.943626 170.123115 
L 226.004093 167.023383 
L 226.064357 167.023383 
L 226.124418 162.373785 
L 226.184277 162.373785 
L 226.243937 157.207565 
L 228.162232 157.207565 
L 228.162232 156.174321 
L 229.049298 156.174321 
L 229.100132 155.141077 
L 229.201368 155.141077 
L 229.201368 153.591211 
L 229.551245 153.591211 
L 229.551245 152.557967 
L 229.894402 152.557967 
L 229.894402 151.524723 
L 230.039475 151.524723 
L 230.039475 150.491479 
L 230.326135 150.491479 
L 230.373468 148.941613 
L 230.467759 148.941613 
L 230.561555 145.841881 
L 230.654862 145.841881 
L 230.747683 140.159038 
L 230.793914 140.159038 
L 230.886018 136.026062 
L 230.931892 136.026062 
L 231.023289 129.309976 
L 231.068813 129.309976 
L 231.159515 123.110512 
L 231.204693 123.110512 
L 231.294709 113.811316 
L 231.339548 113.811316 
L 231.384274 110.194961 
L 231.650305 110.194961 
L 231.650305 109.678339 
L 232.298555 109.678339 
L 232.298555 108.128473 
L 232.425429 108.128473 
L 232.425429 107.095229 
L 232.883078 107.095229 
L 232.965042 102.445631 
L 233.046632 102.445631 
L 233.087287 101.412387 
L 233.168322 101.412387 
L 233.248991 99.345899 
L 233.289189 99.345899 
L 233.369315 95.729545 
L 233.449084 95.729545 
L 233.449084 92.113191 
L 234.113112 92.113191 
L 234.113112 91.596569 
L 234.56741 91.596569 
L 234.642016 90.046703 
L 234.716312 90.046703 
L 234.716312 89.530081 
L 234.863983 89.530081 
L 234.973941 84.363861 
L 235.046873 84.363861 
L 235.046873 83.847239 
L 235.227909 83.847239 
L 235.299813 82.297373 
L 235.371429 82.297373 
L 235.442758 80.230885 
L 236.277219 80.230885 
L 236.311157 79.197641 
L 236.613728 79.197641 
L 236.713458 76.097908 
L 236.779636 76.097908 
L 236.878446 67.831956 
L 236.911262 67.831956 
L 237.009349 63.182358 
L 237.041925 63.182358 
L 237.139299 58.016138 
L 237.618366 58.016138 
L 237.649851 56.466272 
L 237.899759 56.466272 
L 237.899759 55.94965 
L 238.207307 55.94965 
L 238.298549 54.399784 
L 238.32886 54.399784 
L 238.359119 51.816674 
L 238.479646 51.816674 
L 238.569511 50.266808 
L 238.629171 50.266808 
L 238.718289 46.133832 
L 239.329972 46.133832 
L 239.358583 45.100588 
L 239.472575 45.100588 
L 239.50096 44.067344 
L 239.614049 44.067344 
L 239.614049 42.517478 
L 239.726428 42.517478 
L 239.726428 40.450989 
L 239.838104 40.450989 
L 239.893681 38.384501 
L 240.031873 38.384501 
L 240.031873 36.834635 
L 241.434532 36.834635 
L 241.434532 35.284769 
L 242.303896 35.284769 
L 242.303896 34.768147 
L 358.8 34.768147 
L 358.8 34.768147 
" style="fill:none;stroke:#0000ff;stroke-linecap:square;stroke-width:1.5;"/>
   </g>
   <g id="line2d_51">
    <defs>
     <path d="M 0 -6 
L -1.347084 -1.854102 
L -5.706339 -1.854102 
L -2.179628 0.708204 
L -3.526712 4.854102 
L -0 2.291796 
L 3.526712 4.854102 
L 2.179628 0.708204 
L 5.706339 -1.854102 
L 1.347084 -1.854102 
z
" id="mb8ae2f822e" style="stroke:#0000ff;stroke-linejoin:bevel;stroke-width:1.5;"/>
    </defs>
    <g>
     <use style="fill:none;stroke:#0000ff;stroke-linejoin:bevel;stroke-width:1.5;" x="358.8" xlink:href="#mb8ae2f822e" y="34.768147"/>
    </g>
   </g>
   <g id="line2d_52"/>
   <g id="line2d_53">
    <defs>
     <path d="M 0 1.5 
C 0.397805 1.5 0.77937 1.341951 1.06066 1.06066 
C 1.341951 0.77937 1.5 0.397805 1.5 0 
C 1.5 -0.397805 1.341951 -0.77937 1.06066 -1.06066 
C 0.77937 -1.341951 0.397805 -1.5 0 -1.5 
C -0.397805 -1.5 -0.77937 -1.341951 -1.06066 -1.06066 
C -1.341951 -0.77937 -1.5 -0.397805 -1.5 0 
C -1.5 0.397805 -1.341951 0.77937 -1.06066 1.06066 
C -0.77937 1.341951 -0.397805 1.5 0 1.5 
z
" id="me04b2c5bbe" style="stroke:#000000;"/>
    </defs>
    <g>
     <use style="stroke:#000000;" x="250.969679" xlink:href="#me04b2c5bbe" y="34.768147"/>
     <use style="stroke:#000000;" x="250.969679" xlink:href="#me04b2c5bbe" y="34.768147"/>
    </g>
   </g>
   <g id="line2d_54">
    <path d="M 136.713325 298.245375 
L 136.713325 297.212131 
L 143.958223 297.212131 
L 143.958223 294.629021 
L 149.098559 294.629021 
L 149.098559 293.079155 
L 153.085714 293.079155 
L 153.085714 288.946179 
L 156.343457 288.946179 
L 156.343457 287.396313 
L 159.097839 287.396313 
L 159.097839 286.879691 
L 161.483794 286.879691 
L 161.483794 282.230093 
L 163.588354 282.230093 
L 163.588354 280.680226 
L 165.470948 280.680226 
L 165.470948 280.163604 
L 167.173962 280.163604 
L 167.173962 279.646982 
L 168.728691 279.646982 
L 168.728691 278.613738 
L 170.158903 278.613738 
L 170.158903 278.097116 
L 171.483073 278.097116 
L 171.483073 274.997384 
L 173.869028 274.997384 
L 173.869028 273.96414 
L 177.856183 273.96414 
L 177.856183 271.38103 
L 179.559196 271.38103 
L 179.559196 269.831164 
L 181.113925 269.831164 
L 181.113925 269.314542 
L 181.843337 269.314542 
L 181.843337 267.248054 
L 182.544138 267.248054 
L 182.544138 265.698188 
L 183.868307 265.698188 
L 183.868307 265.181566 
L 184.495323 265.181566 
L 184.495323 264.664944 
L 185.10108 264.664944 
L 185.10108 264.148322 
L 185.686972 264.148322 
L 185.686972 263.6317 
L 186.254262 263.6317 
L 186.254262 262.598456 
L 187.33751 262.598456 
L 187.33751 262.081834 
L 187.855462 262.081834 
L 187.855462 261.04859 
L 188.358823 261.04859 
L 188.358823 260.531968 
L 189.789035 260.531968 
L 189.789035 260.015346 
L 190.241417 260.015346 
L 190.241417 259.498724 
L 190.682627 259.498724 
L 190.682627 258.982102 
L 191.533651 258.982102 
L 191.533651 257.432236 
L 192.345978 257.432236 
L 192.345978 255.88237 
L 193.122975 255.88237 
L 193.122975 255.365748 
L 193.499159 255.365748 
L 193.499159 252.782638 
L 193.867587 252.782638 
L 193.867587 252.266016 
L 194.228571 252.266016 
L 194.228571 251.749394 
L 210.457441 251.749394 
L 210.457441 251.232772 
L 211.301761 251.232772 
L 211.301761 249.682906 
L 211.709416 249.682906 
L 211.709416 249.166284 
L 212.107978 249.166284 
L 212.107978 248.649662 
L 212.23888 248.649662 
L 212.23888 247.616418 
L 212.368831 247.616418 
L 212.368831 247.099796 
L 212.62593 247.099796 
L 212.62593 246.583173 
L 213.004774 246.583173 
L 213.004774 244.516685 
L 213.375752 244.516685 
L 213.375752 244.000063 
L 213.497719 244.000063 
L 213.497719 242.450197 
L 213.739183 242.450197 
L 213.739183 241.416953 
L 213.858703 241.416953 
L 213.858703 239.867087 
L 219.44025 239.867087 
L 219.44025 239.350465 
L 221.880598 239.350465 
L 221.880598 238.317221 
L 222.331078 238.317221 
L 222.405066 237.283977 
L 222.697993 237.283977 
L 222.697993 235.217489 
L 222.842675 235.217489 
L 222.914579 231.084513 
L 222.986194 231.084513 
L 222.986194 229.018025 
L 224.754065 229.018025 
L 224.754065 228.501403 
L 225.264617 228.501403 
L 225.264617 227.984781 
L 225.57646 227.984781 
L 225.57646 226.951537 
L 225.699689 226.951537 
L 225.760986 224.368427 
L 225.943626 224.368427 
L 225.943626 223.851805 
L 226.944737 223.851805 
L 226.944737 223.335183 
L 228.108654 223.335183 
L 228.108654 222.818561 
L 228.427736 222.818561 
L 228.532843 219.718829 
L 228.637335 219.718829 
L 228.74122 218.168963 
L 228.792936 218.168963 
L 228.844504 216.619097 
L 228.947195 216.619097 
L 228.998319 209.90301 
L 229.451977 209.90301 
L 229.451977 209.386388 
L 229.649964 209.386388 
L 229.69912 207.836522 
L 230.087572 207.836522 
L 230.13554 206.286656 
L 230.326135 206.286656 
L 230.373468 204.73679 
L 230.654862 204.73679 
L 230.654862 203.703546 
L 231.068813 203.703546 
L 231.068813 203.186924 
L 231.294709 203.186924 
L 231.294709 202.670302 
L 231.428888 202.670302 
L 231.473392 200.603814 
L 231.562067 200.603814 
L 231.562067 199.57057 
L 232.55141 199.57057 
L 232.55141 199.053948 
L 232.676508 199.053948 
L 232.718013 197.504082 
L 232.800736 197.504082 
L 232.883078 195.954216 
L 233.046632 195.954216 
L 233.046632 193.887728 
L 233.168322 193.887728 
L 233.248991 191.82124 
L 233.289189 191.82124 
L 233.369315 190.271374 
L 233.409244 190.271374 
L 233.488835 186.65502 
L 233.568073 186.65502 
L 233.568073 185.621776 
L 233.686274 185.621776 
L 233.686274 184.07191 
L 234.113112 184.07191 
L 234.189635 182.522044 
L 234.265832 182.522044 
L 234.265832 181.4888 
L 234.492492 181.4888 
L 234.492492 180.972178 
L 234.604752 180.972178 
L 234.604752 179.938934 
L 234.716312 179.938934 
L 234.753345 177.872445 
L 234.863983 177.872445 
L 234.900711 175.805957 
L 235.010444 175.805957 
L 235.119507 170.123115 
L 235.191848 170.123115 
L 235.299813 167.540005 
L 235.335657 167.540005 
L 235.371429 163.407029 
L 238.389327 163.407029 
L 238.389327 162.890407 
L 238.658927 162.890407 
L 238.688633 161.857163 
L 239.186221 161.857163 
L 239.186221 160.823919 
L 239.670327 160.823919 
L 239.726428 158.757431 
L 239.782353 158.757431 
L 239.865914 154.107833 
L 239.921405 154.107833 
L 240.031873 145.325259 
L 240.059384 145.325259 
L 240.169004 140.159038 
L 240.196305 140.159038 
L 240.196305 139.125794 
L 240.386249 139.125794 
L 240.386249 138.609172 
L 240.627532 138.609172 
L 240.707241 137.575928 
L 240.786596 137.575928 
L 240.865601 135.50944 
L 240.970399 135.50944 
L 241.074587 131.376464 
L 241.100539 131.376464 
L 241.203973 122.077268 
L 241.229738 122.077268 
L 241.332429 113.294694 
L 241.358009 113.294694 
L 241.383553 110.194961 
L 242.496806 110.194961 
L 242.568614 108.645095 
L 242.663911 108.645095 
L 242.663911 108.128473 
L 242.946789 108.128473 
L 242.946789 107.611851 
L 243.408524 107.611851 
L 243.499456 105.545363 
L 243.522117 105.545363 
L 243.612474 100.379143 
L 243.634992 100.379143 
L 243.724782 95.212923 
L 243.747159 95.212923 
L 243.769508 89.530081 
L 244.013521 89.530081 
L 244.013521 89.013459 
L 244.340985 89.013459 
L 244.340985 88.496837 
L 244.556007 88.496837 
L 244.556007 87.980215 
L 244.72618 87.980215 
L 244.831722 84.880483 
L 244.873765 84.880483 
L 244.915709 79.714263 
L 245.573757 79.714263 
L 245.674423 74.548042 
L 245.734551 74.548042 
L 245.794478 68.8652 
L 245.854204 68.8652 
L 245.913732 63.69898 
L 246.051862 63.69898 
L 246.051862 63.182358 
L 246.363637 63.182358 
L 246.440738 60.082626 
L 246.498346 60.082626 
L 246.574869 58.016138 
L 246.613008 58.016138 
L 246.708001 55.433028 
L 246.726939 55.433028 
L 246.82133 50.78343 
L 246.840148 50.78343 
L 246.877726 48.20032 
L 247.340896 48.20032 
L 247.340896 47.683698 
L 247.522854 47.683698 
L 247.577082 45.61721 
L 247.667098 45.61721 
L 247.756663 44.067344 
L 247.845781 44.067344 
L 247.845781 43.550722 
L 248.057868 43.550722 
L 248.057868 43.0341 
L 248.388607 43.0341 
L 248.474636 41.484233 
L 248.543161 41.484233 
L 248.594384 40.450989 
L 249.972059 40.450989 
L 249.972059 39.934367 
L 250.113558 39.934367 
L 250.207272 35.801391 
L 250.238401 35.801391 
L 250.238401 35.284769 
L 250.969679 35.284769 
L 250.969679 34.768147 
L 358.8 34.768147 
L 358.8 34.768147 
" style="fill:none;stroke:#000000;stroke-linecap:square;stroke-width:1.5;"/>
   </g>
   <g id="line2d_55">
    <defs>
     <path d="M 0 6 
C 1.591219 6 3.117479 5.367802 4.242641 4.242641 
C 5.367802 3.117479 6 1.591219 6 0 
C 6 -1.591219 5.367802 -3.117479 4.242641 -4.242641 
C 3.117479 -5.367802 1.591219 -6 0 -6 
C -1.591219 -6 -3.117479 -5.367802 -4.242641 -4.242641 
C -5.367802 -3.117479 -6 -1.591219 -6 0 
C -6 1.591219 -5.367802 3.117479 -4.242641 4.242641 
C -3.117479 5.367802 -1.591219 6 0 6 
z
" id="m3574a0ce9b" style="stroke:#000000;stroke-width:1.5;"/>
    </defs>
    <g>
     <use style="fill:none;stroke:#000000;stroke-width:1.5;" x="358.8" xlink:href="#m3574a0ce9b" y="34.768147"/>
    </g>
   </g>
   <g id="line2d_56"/>
   <g id="line2d_57">
    <defs>
     <path d="M 0 1.5 
C 0.397805 1.5 0.77937 1.341951 1.06066 1.06066 
C 1.341951 0.77937 1.5 0.397805 1.5 0 
C 1.5 -0.397805 1.341951 -0.77937 1.06066 -1.06066 
C 0.77937 -1.341951 0.397805 -1.5 0 -1.5 
C -0.397805 -1.5 -0.77937 -1.341951 -1.06066 -1.06066 
C -1.341951 -0.77937 -1.5 -0.397805 -1.5 0 
C -1.5 0.397805 -1.341951 0.77937 -1.06066 1.06066 
C -0.77937 1.341951 -0.397805 1.5 0 1.5 
z
" id="mea6e09a0cc" style="stroke:#ff0000;"/>
    </defs>
    <g>
     <use style="fill:#ff0000;stroke:#ff0000;" x="261.624263" xlink:href="#mea6e09a0cc" y="34.768147"/>
     <use style="fill:#ff0000;stroke:#ff0000;" x="261.624263" xlink:href="#mea6e09a0cc" y="34.768147"/>
    </g>
   </g>
   <g id="line2d_58">
    <path d="M 154.788728 298.245375 
L 154.788728 297.728753 
L 159.097839 297.728753 
L 159.097839 296.695509 
L 160.330612 296.695509 
L 160.330612 295.662265 
L 161.483794 295.662265 
L 161.483794 294.629021 
L 162.567041 294.629021 
L 162.567041 293.595777 
L 163.588354 293.595777 
L 163.588354 293.079155 
L 165.470948 293.079155 
L 165.470948 292.562533 
L 166.342737 292.562533 
L 166.342737 289.979423 
L 167.173962 289.979423 
L 167.173962 289.462801 
L 167.968231 289.462801 
L 167.968231 288.946179 
L 168.728691 288.946179 
L 168.728691 288.429557 
L 169.458103 288.429557 
L 169.458103 287.912935 
L 170.158903 287.912935 
L 170.158903 287.396313 
L 172.715846 287.396313 
L 172.715846 286.879691 
L 173.301738 286.879691 
L 173.301738 283.263337 
L 173.869028 283.263337 
L 173.869028 282.746715 
L 174.418859 282.746715 
L 174.418859 282.230093 
L 175.470228 282.230093 
L 175.470228 280.680226 
L 175.973589 280.680226 
L 175.973589 280.163604 
L 176.939668 280.163604 
L 176.939668 279.646982 
L 177.856183 279.646982 
L 177.856183 279.13036 
L 179.148416 279.13036 
L 179.148416 277.580494 
L 179.559196 277.580494 
L 179.559196 277.063872 
L 180.73774 277.063872 
L 180.73774 276.54725 
L 191.740221 276.54725 
L 191.740221 274.480762 
L 192.93187 274.480762 
L 192.93187 273.96414 
L 193.867587 273.96414 
L 193.867587 272.930896 
L 199.853646 272.930896 
L 199.853646 272.414274 
L 200.112609 272.414274 
L 200.112609 271.897652 
L 200.61954 271.897652 
L 200.61954 271.38103 
L 201.233625 271.38103 
L 201.233625 270.864408 
L 205.884393 270.864408 
L 205.884393 270.347786 
L 206.434225 270.347786 
L 206.434225 269.831164 
L 211.370352 269.831164 
L 211.438682 268.79792 
L 212.303974 268.79792 
L 212.303974 268.281298 
L 212.879383 268.281298 
L 212.942189 267.248054 
L 213.314454 267.248054 
L 213.314454 266.731432 
L 213.436839 266.731432 
L 213.497719 265.181566 
L 213.618859 265.181566 
L 213.618859 264.664944 
L 214.843581 264.664944 
L 214.843581 264.148322 
L 215.233852 264.148322 
L 215.288915 262.598456 
L 216.407702 262.598456 
L 216.510689 260.015346 
L 217.940901 260.015346 
L 217.940901 259.498724 
L 218.316099 259.498724 
L 218.40868 258.46548 
L 218.99904 258.46548 
L 218.99904 257.432236 
L 219.309027 257.432236 
L 219.309027 256.915614 
L 219.913321 256.915614 
L 219.913321 256.398992 
L 220.082287 256.398992 
L 220.082287 255.88237 
L 220.742616 255.88237 
L 220.742616 255.365748 
L 221.804401 255.365748 
L 221.804401 254.332504 
L 222.182176 254.332504 
L 222.182176 253.815882 
L 222.368111 253.815882 
L 222.405066 252.266016 
L 222.734273 252.266016 
L 222.77048 250.199528 
L 222.986194 250.199528 
L 222.986194 249.682906 
L 224.328223 249.682906 
L 224.394402 248.649662 
L 226.82983 248.649662 
L 226.82983 248.13304 
L 227.20061 248.13304 
L 227.20061 247.616418 
L 227.369178 247.616418 
L 227.45287 245.549929 
L 227.508447 245.549929 
L 227.508447 245.033307 
L 228.792936 245.033307 
L 228.792936 244.516685 
L 228.921577 244.516685 
L 228.921577 242.966819 
L 229.302034 242.966819 
L 229.302034 242.450197 
L 230.18338 242.450197 
L 230.231092 241.416953 
L 231.317142 241.416953 
L 231.317142 240.383709 
L 232.277321 240.383709 
L 232.362105 239.350465 
L 232.404346 239.350465 
L 232.404346 238.833843 
L 232.73873 238.833843 
L 232.800736 236.767355 
L 233.005883 236.767355 
L 233.066971 235.734111 
L 233.488835 235.734111 
L 233.488835 234.700867 
L 234.09393 234.700867 
L 234.09393 234.184245 
L 234.771832 234.184245 
L 234.771832 233.151001 
L 235.083227 233.151001 
L 235.119507 230.051269 
L 235.299813 230.051269 
L 235.389288 228.501403 
L 235.442758 228.501403 
L 235.442758 227.468159 
L 236.003373 227.468159 
L 236.003373 226.951537 
L 236.175018 226.951537 
L 236.20915 224.368427 
L 236.361942 224.368427 
L 236.361942 223.851805 
L 236.927647 223.851805 
L 236.993038 221.785317 
L 237.041925 221.785317 
L 237.139299 219.202207 
L 238.115598 219.202207 
L 238.115598 218.168963 
L 238.464625 218.168963 
L 238.539607 216.102475 
L 238.584445 216.102475 
L 238.584445 215.585853 
L 239.429913 215.585853 
L 239.429913 215.069231 
L 239.796307 215.069231 
L 239.838104 214.035987 
L 240.00432 214.035987 
L 240.045634 213.002743 
L 240.693981 213.002743 
L 240.733732 211.969498 
L 240.944257 211.969498 
L 240.944257 211.452876 
L 241.203973 211.452876 
L 241.21686 210.419632 
L 241.332429 210.419632 
L 241.332429 209.386388 
L 241.459967 209.386388 
L 241.459967 208.869766 
L 241.712346 208.869766 
L 241.712346 208.353144 
L 241.837211 208.353144 
L 241.886914 206.286656 
L 241.985907 206.286656 
L 242.010569 202.15368 
L 242.267493 202.15368 
L 242.267493 201.120436 
L 242.412664 201.120436 
L 242.412664 199.57057 
L 242.556666 199.57057 
L 242.616326 195.954216 
L 243.179148 195.954216 
L 243.259765 194.40435 
L 243.735974 194.40435 
L 243.769508 190.271374 
L 244.232495 190.271374 
L 244.286822 188.721508 
L 244.768472 188.721508 
L 244.842242 187.171642 
L 245.319583 187.171642 
L 245.370708 183.038666 
L 245.724544 183.038666 
L 245.824366 178.90569 
L 245.844264 178.90569 
L 245.874069 175.805957 
L 246.20843 175.805957 
L 246.315279 172.706225 
L 246.82133 172.706225 
L 246.84955 169.606493 
L 247.193984 169.606493 
L 247.304281 165.990139 
L 247.694015 165.990139 
L 247.756663 163.407029 
L 248.136756 163.407029 
L 248.197873 160.307297 
L 248.982287 160.307297 
L 249.023947 158.240809 
L 249.353779 158.240809 
L 249.459676 153.591211 
L 249.484025 153.591211 
L 249.484025 153.074589 
L 249.773654 153.074589 
L 249.861224 146.875125 
L 249.979949 146.875125 
L 249.979949 146.358503 
L 250.14485 146.358503 
L 250.253945 141.192282 
L 250.962214 141.192282 
L 251.014405 136.542684 
L 251.295101 136.542684 
L 251.382833 131.376464 
L 251.700882 131.376464 
L 251.715206 130.34322 
L 251.985186 130.34322 
L 252.083633 128.276732 
L 252.097653 128.276732 
L 252.097653 127.243488 
L 252.430868 127.243488 
L 252.444618 124.660378 
L 252.656401 124.660378 
L 252.757982 121.044024 
L 252.784973 121.044024 
L 252.852273 118.977536 
L 252.9327 118.977536 
L 253.039375 115.877804 
L 253.112347 115.877804 
L 253.112347 115.361182 
L 253.329491 115.361182 
L 253.440332 111.744828 
L 253.743243 111.744828 
L 253.743243 111.228206 
L 254.085046 111.228206 
L 254.085046 110.711584 
L 254.334083 110.711584 
L 254.389641 106.061985 
L 254.634497 106.061985 
L 254.701249 101.929009 
L 254.870045 101.929009 
L 254.971755 97.796033 
L 254.983683 97.796033 
L 255.00156 95.212923 
L 255.232349 95.212923 
L 255.291048 93.146435 
L 255.535502 93.146435 
L 255.564382 91.079947 
L 255.844964 91.079947 
L 255.896024 88.496837 
L 256.132393 88.496837 
L 256.199357 85.397105 
L 256.360157 85.397105 
L 256.431773 79.714263 
L 256.682902 79.714263 
L 256.709987 77.131153 
L 256.946583 77.131153 
L 256.973272 74.03142 
L 257.148425 74.03142 
L 257.232734 72.481554 
L 257.441781 72.481554 
L 257.493663 71.44831 
L 257.730398 71.44831 
L 257.745729 68.348578 
L 257.958991 68.348578 
L 258.004361 62.665736 
L 258.169738 62.665736 
L 258.249373 59.566004 
L 258.486171 59.566004 
L 258.505764 54.916406 
L 258.676285 54.916406 
L 258.734377 50.78343 
L 258.94578 50.78343 
L 258.98395 48.716942 
L 259.22068 48.716942 
L 259.239483 47.683698 
L 259.412485 47.683698 
L 259.454314 43.0341 
L 259.662005 43.0341 
L 259.684933 41.484233 
L 260.070281 41.484233 
L 260.106125 39.417745 
L 260.451884 39.417745 
L 260.451884 37.867879 
L 260.803998 37.867879 
L 260.803998 37.351257 
L 260.988141 37.351257 
L 260.988141 36.834635 
L 261.128184 36.834635 
L 261.128184 36.318013 
L 261.570735 36.318013 
L 261.624263 34.768147 
L 358.8 34.768147 
L 358.8 34.768147 
" style="fill:none;stroke:#ff0000;stroke-linecap:square;stroke-width:1.5;"/>
   </g>
   <g id="line2d_59">
    <defs>
     <path d="M -6 6 
L 6 6 
L 6 -6 
L -6 -6 
z
" id="mfd68ca6c82" style="stroke:#ff0000;stroke-linejoin:miter;stroke-width:1.5;"/>
    </defs>
    <g>
     <use style="fill:none;stroke:#ff0000;stroke-linejoin:miter;stroke-width:1.5;" x="358.8" xlink:href="#mfd68ca6c82" y="34.768147"/>
    </g>
   </g>
   <g id="line2d_60"/>
   <g id="line2d_61">
    <defs>
     <path d="M 0 1.5 
C 0.397805 1.5 0.77937 1.341951 1.06066 1.06066 
C 1.341951 0.77937 1.5 0.397805 1.5 0 
C 1.5 -0.397805 1.341951 -0.77937 1.06066 -1.06066 
C 0.77937 -1.341951 0.397805 -1.5 0 -1.5 
C -0.397805 -1.5 -0.77937 -1.341951 -1.06066 -1.06066 
C -1.341951 -0.77937 -1.5 -0.397805 -1.5 0 
C -1.5 0.397805 -1.341951 0.77937 -1.06066 1.06066 
C -0.77937 1.341951 -0.397805 1.5 0 1.5 
z
" id="m0990eaa1a4" style="stroke:#bf00bf;"/>
    </defs>
    <g>
     <use style="fill:#bf00bf;stroke:#bf00bf;" x="273.963184" xlink:href="#m0990eaa1a4" y="34.768147"/>
     <use style="fill:#bf00bf;stroke:#bf00bf;" x="273.963184" xlink:href="#m0990eaa1a4" y="34.768147"/>
    </g>
   </g>
   <g id="line2d_62">
    <path d="M 168.728691 298.245375 
L 168.728691 297.728753 
L 181.843337 297.728753 
L 181.843337 297.212131 
L 197.927525 297.212131 
L 197.927525 296.695509 
L 198.569562 296.695509 
L 198.569562 294.629021 
L 199.391229 294.629021 
L 199.458026 293.595777 
L 200.048219 293.595777 
L 200.048219 293.079155 
L 200.61954 293.079155 
L 200.61954 292.562533 
L 201.112485 292.562533 
L 201.112485 292.045911 
L 201.353949 292.045911 
L 201.353949 291.012667 
L 202.848618 291.012667 
L 202.848618 290.496045 
L 203.067861 290.496045 
L 203.067861 289.462801 
L 203.445181 289.462801 
L 203.445181 288.946179 
L 203.918885 288.946179 
L 203.918885 287.912935 
L 204.780776 287.912935 
L 204.780776 286.879691 
L 205.460624 286.879691 
L 205.460624 286.363069 
L 205.884393 286.363069 
L 205.884393 285.846447 
L 206.252821 285.846447 
L 206.252821 285.329825 
L 206.47929 285.329825 
L 206.47929 284.296581 
L 210.529345 284.296581 
L 210.60096 282.746715 
L 212.107978 282.746715 
L 212.107978 282.230093 
L 214.983944 282.230093 
L 215.011885 281.196849 
L 215.123213 281.196849 
L 215.123213 280.680226 
L 216.433505 280.680226 
L 216.433505 280.163604 
L 223.686995 280.163604 
L 223.686995 279.646982 
L 224.328223 279.646982 
L 224.328223 278.613738 
L 225.090755 278.613738 
L 225.090755 278.097116 
L 225.913315 278.097116 
L 225.913315 277.580494 
L 226.139401 277.580494 
L 226.214132 276.030628 
L 226.973349 276.030628 
L 226.973349 275.514006 
L 227.425016 275.514006 
L 227.522314 273.447518 
L 227.605294 273.447518 
L 227.605294 272.414274 
L 228.081805 272.414274 
L 228.081805 271.897652 
L 228.308747 271.897652 
L 228.308747 270.864408 
L 229.489267 270.864408 
L 229.489267 270.347786 
L 231.22724 270.347786 
L 231.328348 269.314542 
L 231.749055 269.314542 
L 231.749055 268.79792 
L 232.170773 268.79792 
L 232.170773 268.281298 
L 233.823196 268.281298 
L 233.900968 266.731432 
L 234.407831 266.731432 
L 234.407831 265.698188 
L 234.873173 265.698188 
L 234.873173 264.664944 
L 235.487195 264.664944 
L 235.58457 263.115078 
L 235.968845 263.115078 
L 235.968845 262.598456 
L 236.157927 262.598456 
L 236.20915 261.04859 
L 236.353488 261.04859 
L 236.370393 260.015346 
L 236.49667 260.015346 
L 236.49667 259.498724 
L 236.919456 259.498724 
L 236.919456 258.982102 
L 237.308437 258.982102 
L 237.308437 257.948858 
L 238.666358 257.948858 
L 238.696051 255.365748 
L 239.351435 255.365748 
L 239.351435 254.849126 
L 239.852014 254.849126 
L 239.852014 254.332504 
L 239.983627 254.332504 
L 239.983627 253.29926 
L 240.209939 253.29926 
L 240.209939 252.782638 
L 240.976929 252.782638 
L 240.989981 251.232772 
L 241.319625 251.232772 
L 241.383553 248.649662 
L 242.285704 248.649662 
L 242.285704 248.13304 
L 242.870618 248.13304 
L 242.870618 247.616418 
L 243.11555 247.616418 
L 243.202218 246.066551 
L 243.67433 246.066551 
L 243.758337 245.033307 
L 244.04104 245.033307 
L 244.068516 243.483441 
L 244.232495 243.483441 
L 244.319339 242.450197 
L 244.384197 242.450197 
L 244.384197 241.416953 
L 244.539969 241.416953 
L 244.539969 240.900331 
L 244.800125 240.900331 
L 244.800125 240.383709 
L 245.492814 240.383709 
L 245.492814 239.867087 
L 246.223038 239.867087 
L 246.315279 237.800599 
L 246.363637 237.800599 
L 246.363637 236.250733 
L 246.938621 236.250733 
L 246.938621 235.734111 
L 247.073722 235.734111 
L 247.073722 233.667623 
L 247.527379 233.667623 
L 247.527379 233.151001 
L 247.921183 233.151001 
L 247.965389 231.601135 
L 248.049081 231.601135 
L 248.049081 230.567891 
L 248.508931 230.567891 
L 248.508931 229.534647 
L 248.835706 229.534647 
L 248.835706 228.501403 
L 249.036426 228.501403 
L 249.036426 227.984781 
L 249.234917 227.984781 
L 249.234917 225.918293 
L 249.520486 225.918293 
L 249.520486 225.401671 
L 249.857252 225.401671 
L 249.857252 224.885049 
L 250.039017 224.885049 
L 250.042948 222.301939 
L 250.447116 222.301939 
L 250.447116 221.785317 
L 250.816014 221.785317 
L 250.827303 219.718829 
L 251.181139 219.718829 
L 251.181139 219.202207 
L 251.368241 219.202207 
L 251.368241 218.685585 
L 251.560627 218.685585 
L 251.560627 218.168963 
L 251.711626 218.168963 
L 251.733093 217.135719 
L 252.016889 217.135719 
L 252.090645 215.069231 
L 252.136151 215.069231 
L 252.136151 214.552609 
L 252.271978 214.552609 
L 252.271978 214.035987 
L 252.601987 214.035987 
L 252.646211 212.48612 
L 252.751228 212.48612 
L 252.751228 211.452876 
L 252.946069 211.452876 
L 252.986117 209.90301 
L 253.112347 209.90301 
L 253.112347 209.386388 
L 253.456574 209.386388 
L 253.456574 208.869766 
L 253.59243 208.869766 
L 253.65355 207.836522 
L 253.943422 207.836522 
L 253.943422 207.3199 
L 254.078775 207.3199 
L 254.078775 206.286656 
L 254.27525 206.286656 
L 254.27525 205.770034 
L 254.546124 205.770034 
L 254.549179 204.73679 
L 254.692161 204.73679 
L 254.69822 202.15368 
L 254.843024 202.15368 
L 254.843024 201.120436 
L 255.140982 201.120436 
L 255.149844 200.087192 
L 255.273459 200.087192 
L 255.273459 199.57057 
L 255.58457 199.57057 
L 255.607615 198.537326 
L 255.696633 198.537326 
L 255.768099 195.954216 
L 255.870512 195.954216 
L 255.870512 194.920972 
L 256.042716 194.920972 
L 256.042716 193.887728 
L 256.288253 193.887728 
L 256.288253 193.371106 
L 256.565965 193.371106 
L 256.565965 192.337862 
L 256.973272 192.337862 
L 256.973272 191.304618 
L 257.092881 191.304618 
L 257.153706 189.23813 
L 257.227476 189.23813 
L 257.23799 187.688264 
L 257.363675 187.688264 
L 257.363675 186.138398 
L 257.612423 186.138398 
L 257.612423 185.621776 
L 258.134786 185.621776 
L 258.134786 184.588532 
L 258.279145 184.588532 
L 258.380493 183.555288 
L 258.397739 183.555288 
L 258.505764 181.4888 
L 258.530224 181.4888 
L 258.627731 178.90569 
L 258.861999 178.90569 
L 258.861999 178.389067 
L 259.105074 178.389067 
L 259.10744 177.355823 
L 259.218328 177.355823 
L 259.223031 176.322579 
L 259.361227 176.322579 
L 259.361227 175.805957 
L 259.590739 175.805957 
L 259.684933 174.772713 
L 259.799136 174.772713 
L 259.799136 173.739469 
L 259.917138 173.739469 
L 260.025375 171.156359 
L 260.246565 171.156359 
L 260.357245 169.606493 
L 260.497922 169.606493 
L 260.497922 168.056627 
L 260.71121 168.056627 
L 260.737153 167.023383 
L 260.898448 167.023383 
L 260.898448 166.506761 
L 261.117613 166.506761 
L 261.202006 164.440273 
L 261.321582 164.440273 
L 261.348742 161.857163 
L 261.535649 161.857163 
L 261.634538 159.274053 
L 261.743097 159.274053 
L 261.743097 158.240809 
L 262.130935 158.240809 
L 262.130935 157.724187 
L 262.246458 157.724187 
L 262.331624 156.690943 
L 262.43997 156.690943 
L 262.541805 154.107833 
L 262.633352 154.107833 
L 262.736026 152.557967 
L 262.924335 152.557967 
L 263.017751 150.491479 
L 263.114464 150.491479 
L 263.114464 149.974857 
L 263.235093 149.974857 
L 263.33998 146.875125 
L 263.37729 146.875125 
L 263.42382 144.808637 
L 263.488757 144.808637 
L 263.488757 143.25877 
L 263.693156 143.25877 
L 263.693156 142.742148 
L 263.848112 142.742148 
L 263.848112 142.225526 
L 264.062817 142.225526 
L 264.062817 141.708904 
L 264.234164 141.708904 
L 264.234164 141.192282 
L 264.395083 141.192282 
L 264.503896 139.125794 
L 264.596391 139.125794 
L 264.679749 136.026062 
L 264.91213 136.026062 
L 264.999138 133.442952 
L 265.249259 133.442952 
L 265.354676 131.376464 
L 265.416298 131.376464 
L 265.525695 129.309976 
L 265.585085 129.309976 
L 265.665606 128.276732 
L 265.732702 128.276732 
L 265.828816 125.693622 
L 265.893685 125.693622 
L 265.909865 124.143756 
L 266.006642 124.143756 
L 266.093295 121.560646 
L 266.233613 121.560646 
L 266.320755 120.01078 
L 266.377564 120.01078 
L 266.487513 116.394426 
L 266.694569 116.394426 
L 266.793356 113.811316 
L 266.854822 113.811316 
L 266.929831 111.744828 
L 267.095566 111.744828 
L 267.095566 110.711584 
L 267.312188 110.711584 
L 267.386794 108.645095 
L 267.55279 108.645095 
L 267.627869 106.578607 
L 267.819286 106.578607 
L 267.900492 103.478875 
L 267.971246 103.478875 
L 267.971246 102.445631 
L 268.337821 102.445631 
L 268.412491 99.862521 
L 268.539976 99.862521 
L 268.606856 98.829277 
L 268.676258 98.829277 
L 268.748151 97.279411 
L 268.884229 97.279411 
L 268.884229 96.762789 
L 269.016561 96.762789 
L 269.100634 93.663057 
L 269.149269 93.663057 
L 269.168147 90.563325 
L 269.287694 90.563325 
L 269.358506 87.980215 
L 269.564003 87.980215 
L 269.620596 85.397105 
L 269.751518 85.397105 
L 269.751518 84.363861 
L 269.882782 84.363861 
L 269.946119 82.297373 
L 270.072123 82.297373 
L 270.137347 80.230885 
L 270.201062 80.230885 
L 270.201062 79.714263 
L 270.327814 79.714263 
L 270.385819 76.097908 
L 270.469969 76.097908 
L 270.562453 74.548042 
L 270.582387 74.548042 
L 270.628399 73.514798 
L 270.695339 73.514798 
L 270.776816 69.381822 
L 270.8297 69.381822 
L 270.8297 68.8652 
L 271.070003 68.8652 
L 271.070003 68.348578 
L 271.194369 68.348578 
L 271.25443 66.798712 
L 271.311899 66.798712 
L 271.371567 64.732224 
L 271.428661 64.732224 
L 271.428661 64.215602 
L 271.547025 64.215602 
L 271.605914 62.665736 
L 271.666953 62.665736 
L 271.723113 59.049382 
L 271.855789 59.049382 
L 271.899796 58.016138 
L 272.070167 58.016138 
L 272.12736 56.466272 
L 272.188923 56.466272 
L 272.198025 53.883162 
L 272.354317 53.883162 
L 272.431953 50.78343 
L 272.540527 50.78343 
L 272.649554 45.100588 
L 272.68169 45.100588 
L 272.756817 43.550722 
L 272.815154 43.550722 
L 272.911596 42.517478 
L 273.182774 42.517478 
L 273.292244 39.417745 
L 273.354193 39.417745 
L 273.46262 37.867879 
L 273.556694 37.867879 
L 273.606174 35.801391 
L 273.715177 35.801391 
L 273.715177 35.284769 
L 273.963184 35.284769 
L 273.963184 34.768147 
L 358.8 34.768147 
L 358.8 34.768147 
" style="fill:none;stroke:#bf00bf;stroke-linecap:square;stroke-width:1.5;"/>
   </g>
   <g id="line2d_63">
    <defs>
     <path d="M -0 8.485281 
L 8.485281 0 
L 0 -8.485281 
L -8.485281 -0 
z
" id="m20e3a699cc" style="stroke:#bf00bf;stroke-linejoin:miter;stroke-width:1.5;"/>
    </defs>
    <g>
     <use style="fill:none;stroke:#bf00bf;stroke-linejoin:miter;stroke-width:1.5;" x="358.8" xlink:href="#m20e3a699cc" y="34.768147"/>
    </g>
   </g>
   <g id="line2d_64"/>
   <g id="line2d_65">
    <path d="M 358.8 34.768147 
L 390.48 292.97583 
" style="fill:none;stroke:#bf00bf;stroke-linecap:square;stroke-width:1.5;"/>
    <g>
     <use style="fill:none;stroke:#bf00bf;stroke-linejoin:miter;stroke-width:1.5;" x="358.8" xlink:href="#m20e3a699cc" y="34.768147"/>
     <use style="fill:none;stroke:#bf00bf;stroke-linejoin:miter;stroke-width:1.5;" x="390.48" xlink:href="#m20e3a699cc" y="292.97583"/>
    </g>
   </g>
   <g id="line2d_66">
    <path d="M 358.8 34.768147 
L 390.48 242.388203 
" style="fill:none;stroke:#ff0000;stroke-linecap:square;stroke-width:1.5;"/>
    <g>
     <use style="fill:none;stroke:#ff0000;stroke-linejoin:miter;stroke-width:1.5;" x="358.8" xlink:href="#mfd68ca6c82" y="34.768147"/>
     <use style="fill:none;stroke:#ff0000;stroke-linejoin:miter;stroke-width:1.5;" x="390.48" xlink:href="#mfd68ca6c82" y="242.388203"/>
    </g>
   </g>
   <g id="line2d_67">
    <path d="M 358.8 34.768147 
L 390.48 191.800575 
" style="fill:none;stroke:#000000;stroke-linecap:square;stroke-width:1.5;"/>
    <g>
     <use style="fill:none;stroke:#000000;stroke-width:1.5;" x="358.8" xlink:href="#m3574a0ce9b" y="34.768147"/>
     <use style="fill:none;stroke:#000000;stroke-width:1.5;" x="390.48" xlink:href="#m3574a0ce9b" y="191.800575"/>
    </g>
   </g>
   <g id="line2d_68">
    <path d="M 358.8 34.768147 
L 390.48 141.212947 
" style="fill:none;stroke:#0000ff;stroke-linecap:square;stroke-width:1.5;"/>
    <g>
     <use style="fill:none;stroke:#0000ff;stroke-linejoin:bevel;stroke-width:1.5;" x="358.8" xlink:href="#mb8ae2f822e" y="34.768147"/>
     <use style="fill:none;stroke:#0000ff;stroke-linejoin:bevel;stroke-width:1.5;" x="390.48" xlink:href="#mb8ae2f822e" y="141.212947"/>
    </g>
   </g>
   <g id="line2d_69">
    <path d="M 358.8 34.768147 
L 390.48 90.62532 
" style="fill:none;stroke:#00bfbf;stroke-linecap:square;stroke-width:1.5;"/>
    <g>
     <use style="fill:none;stroke:#00bfbf;stroke-width:1.5;" x="358.8" xlink:href="#maf5470eb04" y="34.768147"/>
     <use style="fill:none;stroke:#00bfbf;stroke-width:1.5;" x="390.48" xlink:href="#maf5470eb04" y="90.62532"/>
    </g>
   </g>
   <g id="line2d_70">
    <path d="M 358.8 34.768147 
L 390.48 40.037692 
" style="fill:none;stroke:#008000;stroke-linecap:square;stroke-width:1.5;"/>
    <g>
     <use style="fill:none;stroke:#008000;stroke-linejoin:miter;stroke-width:1.5;" x="358.8" xlink:href="#m90dd9a2d75" y="34.768147"/>
     <use style="fill:none;stroke:#008000;stroke-linejoin:miter;stroke-width:1.5;" x="390.48" xlink:href="#m90dd9a2d75" y="40.037692"/>
    </g>
   </g>
   <g id="line2d_71">
    <path d="M 358.8 298.245375 
L 358.8 34.768147 
" style="fill:none;stroke:#000000;stroke-linecap:square;stroke-width:1.5;"/>
   </g>
   <g id="patch_3">
    <path d="M 70.8 298.245375 
L 70.8 32.133375 
" style="fill:none;stroke:#000000;stroke-linecap:square;stroke-linejoin:miter;stroke-width:0.8;"/>
   </g>
   <g id="patch_4">
    <path d="M 427.92 298.245375 
L 427.92 32.133375 
" style="fill:none;stroke:#000000;stroke-linecap:square;stroke-linejoin:miter;stroke-width:0.8;"/>
   </g>
   <g id="patch_5">
    <path d="M 70.8 298.245375 
L 427.92 298.245375 
" style="fill:none;stroke:#000000;stroke-linecap:square;stroke-linejoin:miter;stroke-width:0.8;"/>
   </g>
   <g id="patch_6">
    <path d="M 70.8 32.133375 
L 427.92 32.133375 
" style="fill:none;stroke:#000000;stroke-linecap:square;stroke-linejoin:miter;stroke-width:0.8;"/>
   </g>
   <g id="text_14">
    <!-- 40-D -->
    <defs>
     <path d="M 19.671875 64.796875 
L 19.671875 8.109375 
L 31.59375 8.109375 
Q 46.6875 8.109375 53.6875 14.9375 
Q 60.6875 21.78125 60.6875 36.53125 
Q 60.6875 51.171875 53.6875 57.984375 
Q 46.6875 64.796875 31.59375 64.796875 
z
M 9.8125 72.90625 
L 30.078125 72.90625 
Q 51.265625 72.90625 61.171875 64.09375 
Q 71.09375 55.28125 71.09375 36.53125 
Q 71.09375 17.671875 61.125 8.828125 
Q 51.171875 0 30.078125 0 
L 9.8125 0 
z
" id="DejaVuSans-44"/>
    </defs>
    <g transform="translate(396.24 297.114893)scale(0.15 -0.15)">
     <use xlink:href="#DejaVuSans-34"/>
     <use x="63.623047" xlink:href="#DejaVuSans-30"/>
     <use x="127.246094" xlink:href="#DejaVuSans-2d"/>
     <use x="163.330078" xlink:href="#DejaVuSans-44"/>
    </g>
   </g>
   <g id="text_15">
    <!-- 20-D -->
    <g transform="translate(396.24 246.527265)scale(0.15 -0.15)">
     <use xlink:href="#DejaVuSans-32"/>
     <use x="63.623047" xlink:href="#DejaVuSans-30"/>
     <use x="127.246094" xlink:href="#DejaVuSans-2d"/>
     <use x="163.330078" xlink:href="#DejaVuSans-44"/>
    </g>
   </g>
   <g id="text_16">
    <!-- 10-D -->
    <g transform="translate(396.24 195.939637)scale(0.15 -0.15)">
     <use xlink:href="#DejaVuSans-31"/>
     <use x="63.623047" xlink:href="#DejaVuSans-30"/>
     <use x="127.246094" xlink:href="#DejaVuSans-2d"/>
     <use x="163.330078" xlink:href="#DejaVuSans-44"/>
    </g>
   </g>
   <g id="text_17">
    <!-- 5-D -->
    <defs>
     <path d="M 10.796875 72.90625 
L 49.515625 72.90625 
L 49.515625 64.59375 
L 19.828125 64.59375 
L 19.828125 46.734375 
Q 21.96875 47.46875 24.109375 47.828125 
Q 26.265625 48.1875 28.421875 48.1875 
Q 40.625 48.1875 47.75 41.5 
Q 54.890625 34.8125 54.890625 23.390625 
Q 54.890625 11.625 47.5625 5.09375 
Q 40.234375 -1.421875 26.90625 -1.421875 
Q 22.3125 -1.421875 17.546875 -0.640625 
Q 12.796875 0.140625 7.71875 1.703125 
L 7.71875 11.625 
Q 12.109375 9.234375 16.796875 8.0625 
Q 21.484375 6.890625 26.703125 6.890625 
Q 35.15625 6.890625 40.078125 11.328125 
Q 45.015625 15.765625 45.015625 23.390625 
Q 45.015625 31 40.078125 35.4375 
Q 35.15625 39.890625 26.703125 39.890625 
Q 22.75 39.890625 18.8125 39.015625 
Q 14.890625 38.140625 10.796875 36.28125 
z
" id="DejaVuSans-35"/>
    </defs>
    <g transform="translate(396.24 145.35201)scale(0.15 -0.15)">
     <use xlink:href="#DejaVuSans-35"/>
     <use x="63.623047" xlink:href="#DejaVuSans-2d"/>
     <use x="99.707031" xlink:href="#DejaVuSans-44"/>
    </g>
   </g>
   <g id="text_18">
    <!-- 2-D -->
    <g transform="translate(396.24 94.764382)scale(0.15 -0.15)">
     <use xlink:href="#DejaVuSans-32"/>
     <use x="63.623047" xlink:href="#DejaVuSans-2d"/>
     <use x="99.707031" xlink:href="#DejaVuSans-44"/>
    </g>
   </g>
   <g id="text_19">
    <!-- 3-D -->
    <defs>
     <path d="M 40.578125 39.3125 
Q 47.65625 37.796875 51.625 33 
Q 55.609375 28.21875 55.609375 21.1875 
Q 55.609375 10.40625 48.1875 4.484375 
Q 40.765625 -1.421875 27.09375 -1.421875 
Q 22.515625 -1.421875 17.65625 -0.515625 
Q 12.796875 0.390625 7.625 2.203125 
L 7.625 11.71875 
Q 11.71875 9.328125 16.59375 8.109375 
Q 21.484375 6.890625 26.8125 6.890625 
Q 36.078125 6.890625 40.9375 10.546875 
Q 45.796875 14.203125 45.796875 21.1875 
Q 45.796875 27.640625 41.28125 31.265625 
Q 36.765625 34.90625 28.71875 34.90625 
L 20.21875 34.90625 
L 20.21875 43.015625 
L 29.109375 43.015625 
Q 36.375 43.015625 40.234375 45.921875 
Q 44.09375 48.828125 44.09375 54.296875 
Q 44.09375 59.90625 40.109375 62.90625 
Q 36.140625 65.921875 28.71875 65.921875 
Q 24.65625 65.921875 20.015625 65.03125 
Q 15.375 64.15625 9.8125 62.3125 
L 9.8125 71.09375 
Q 15.4375 72.65625 20.34375 73.4375 
Q 25.25 74.21875 29.59375 74.21875 
Q 40.828125 74.21875 47.359375 69.109375 
Q 53.90625 64.015625 53.90625 55.328125 
Q 53.90625 49.265625 50.4375 45.09375 
Q 46.96875 40.921875 40.578125 39.3125 
" id="DejaVuSans-33"/>
    </defs>
    <g transform="translate(396.24 44.176754)scale(0.15 -0.15)">
     <use xlink:href="#DejaVuSans-33"/>
     <use x="63.623047" xlink:href="#DejaVuSans-2d"/>
     <use x="99.707031" xlink:href="#DejaVuSans-44"/>
    </g>
   </g>
   <g id="text_20">
    <!-- bbob - f3 -->
    <defs>
     <path d="M 48.6875 27.296875 
Q 48.6875 37.203125 44.609375 42.84375 
Q 40.53125 48.484375 33.40625 48.484375 
Q 26.265625 48.484375 22.1875 42.84375 
Q 18.109375 37.203125 18.109375 27.296875 
Q 18.109375 17.390625 22.1875 11.75 
Q 26.265625 6.109375 33.40625 6.109375 
Q 40.53125 6.109375 44.609375 11.75 
Q 48.6875 17.390625 48.6875 27.296875 
M 18.109375 46.390625 
Q 20.953125 51.265625 25.265625 53.625 
Q 29.59375 56 35.59375 56 
Q 45.5625 56 51.78125 48.09375 
Q 58.015625 40.1875 58.015625 27.296875 
Q 58.015625 14.40625 51.78125 6.484375 
Q 45.5625 -1.421875 35.59375 -1.421875 
Q 29.59375 -1.421875 25.265625 0.953125 
Q 20.953125 3.328125 18.109375 8.203125 
L 18.109375 0 
L 9.078125 0 
L 9.078125 75.984375 
L 18.109375 75.984375 
z
" id="DejaVuSans-62"/>
    </defs>
    <g transform="translate(74.3712 50.114612)scale(0.1666 -0.1666)">
     <use xlink:href="#DejaVuSans-62"/>
     <use x="63.476562" xlink:href="#DejaVuSans-62"/>
     <use x="126.953125" xlink:href="#DejaVuSans-6f"/>
     <use x="188.134766" xlink:href="#DejaVuSans-62"/>
     <use x="251.611328" xlink:href="#DejaVuSans-20"/>
     <use x="283.398438" xlink:href="#DejaVuSans-2d"/>
     <use x="319.482422" xlink:href="#DejaVuSans-20"/>
     <use x="351.269531" xlink:href="#DejaVuSans-66"/>
     <use x="386.474609" xlink:href="#DejaVuSans-33"/>
    </g>
    <!-- 51 targets in 100..1e-08 -->
    <g transform="translate(74.3712 68.770168)scale(0.1666 -0.1666)">
     <use xlink:href="#DejaVuSans-35"/>
     <use x="63.623047" xlink:href="#DejaVuSans-31"/>
     <use x="127.246094" xlink:href="#DejaVuSans-20"/>
     <use x="159.033203" xlink:href="#DejaVuSans-74"/>
     <use x="198.242188" xlink:href="#DejaVuSans-61"/>
     <use x="259.521484" xlink:href="#DejaVuSans-72"/>
     <use x="300.619141" xlink:href="#DejaVuSans-67"/>
     <use x="364.095703" xlink:href="#DejaVuSans-65"/>
     <use x="425.619141" xlink:href="#DejaVuSans-74"/>
     <use x="464.828125" xlink:href="#DejaVuSans-73"/>
     <use x="516.927734" xlink:href="#DejaVuSans-20"/>
     <use x="548.714844" xlink:href="#DejaVuSans-69"/>
     <use x="576.498047" xlink:href="#DejaVuSans-6e"/>
     <use x="639.876953" xlink:href="#DejaVuSans-20"/>
     <use x="671.664062" xlink:href="#DejaVuSans-31"/>
     <use x="735.287109" xlink:href="#DejaVuSans-30"/>
     <use x="798.910156" xlink:href="#DejaVuSans-30"/>
     <use x="862.533203" xlink:href="#DejaVuSans-2e"/>
     <use x="894.320312" xlink:href="#DejaVuSans-2e"/>
     <use x="926.107422" xlink:href="#DejaVuSans-31"/>
     <use x="989.730469" xlink:href="#DejaVuSans-65"/>
     <use x="1051.253906" xlink:href="#DejaVuSans-2d"/>
     <use x="1087.337891" xlink:href="#DejaVuSans-30"/>
     <use x="1150.960938" xlink:href="#DejaVuSans-38"/>
    </g>
    <!-- 15 instances -->
    <g transform="translate(74.3712 87.425723)scale(0.1666 -0.1666)">
     <use xlink:href="#DejaVuSans-31"/>
     <use x="63.623047" xlink:href="#DejaVuSans-35"/>
     <use x="127.246094" xlink:href="#DejaVuSans-20"/>
     <use x="159.033203" xlink:href="#DejaVuSans-69"/>
     <use x="186.816406" xlink:href="#DejaVuSans-6e"/>
     <use x="250.195312" xlink:href="#DejaVuSans-73"/>
     <use x="302.294922" xlink:href="#DejaVuSans-74"/>
     <use x="341.503906" xlink:href="#DejaVuSans-61"/>
     <use x="402.783203" xlink:href="#DejaVuSans-6e"/>
     <use x="466.162109" xlink:href="#DejaVuSans-63"/>
     <use x="521.142578" xlink:href="#DejaVuSans-65"/>
     <use x="582.666016" xlink:href="#DejaVuSans-73"/>
    </g>
   </g>
   <g id="text_21">
    <!-- v2.0.1 -->
    <g style="fill:#808080;" transform="translate(233.67875 293.504568)scale(0.1 -0.1)">
     <use xlink:href="#DejaVuSans-76"/>
     <use x="59.179688" xlink:href="#DejaVuSans-32"/>
     <use x="122.802734" xlink:href="#DejaVuSans-2e"/>
     <use x="154.589844" xlink:href="#DejaVuSans-30"/>
     <use x="218.212891" xlink:href="#DejaVuSans-2e"/>
     <use x="250" xlink:href="#DejaVuSans-31"/>
    </g>
   </g>
   <g id="text_22">
    <!-- 3 Rastrigin separable -->
    <defs>
     <path d="M 44.390625 34.1875 
Q 47.5625 33.109375 50.5625 29.59375 
Q 53.5625 26.078125 56.59375 19.921875 
L 66.609375 0 
L 56 0 
L 46.6875 18.703125 
Q 43.0625 26.03125 39.671875 28.421875 
Q 36.28125 30.8125 30.421875 30.8125 
L 19.671875 30.8125 
L 19.671875 0 
L 9.8125 0 
L 9.8125 72.90625 
L 32.078125 72.90625 
Q 44.578125 72.90625 50.734375 67.671875 
Q 56.890625 62.453125 56.890625 51.90625 
Q 56.890625 45.015625 53.6875 40.46875 
Q 50.484375 35.9375 44.390625 34.1875 
M 19.671875 64.796875 
L 19.671875 38.921875 
L 32.078125 38.921875 
Q 39.203125 38.921875 42.84375 42.21875 
Q 46.484375 45.515625 46.484375 51.90625 
Q 46.484375 58.296875 42.84375 61.546875 
Q 39.203125 64.796875 32.078125 64.796875 
z
" id="DejaVuSans-52"/>
    </defs>
    <g transform="translate(121.400625 26.133375)scale(0.24 -0.24)">
     <use xlink:href="#DejaVuSans-33"/>
     <use x="63.623047" xlink:href="#DejaVuSans-20"/>
     <use x="95.410156" xlink:href="#DejaVuSans-52"/>
     <use x="164.861328" xlink:href="#DejaVuSans-61"/>
     <use x="226.140625" xlink:href="#DejaVuSans-73"/>
     <use x="278.240234" xlink:href="#DejaVuSans-74"/>
     <use x="317.449219" xlink:href="#DejaVuSans-72"/>
     <use x="358.5625" xlink:href="#DejaVuSans-69"/>
     <use x="386.345703" xlink:href="#DejaVuSans-67"/>
     <use x="449.822266" xlink:href="#DejaVuSans-69"/>
     <use x="477.605469" xlink:href="#DejaVuSans-6e"/>
     <use x="540.984375" xlink:href="#DejaVuSans-20"/>
     <use x="572.771484" xlink:href="#DejaVuSans-73"/>
     <use x="624.871094" xlink:href="#DejaVuSans-65"/>
     <use x="686.394531" xlink:href="#DejaVuSans-70"/>
     <use x="749.871094" xlink:href="#DejaVuSans-61"/>
     <use x="811.150391" xlink:href="#DejaVuSans-72"/>
     <use x="852.263672" xlink:href="#DejaVuSans-61"/>
     <use x="913.542969" xlink:href="#DejaVuSans-62"/>
     <use x="977.019531" xlink:href="#DejaVuSans-6c"/>
     <use x="1004.802734" xlink:href="#DejaVuSans-65"/>
    </g>
   </g>
  </g>
 </g>
 <defs>
  <clipPath id="p53137d96b4">
   <rect height="266.112" width="357.12" x="70.8" y="32.133375"/>
  </clipPath>
 </defs>
</svg>
