<?xml version="1.0" encoding="utf-8" standalone="no"?>
<!DOCTYPE svg PUBLIC "-//W3C//DTD SVG 1.1//EN"
  "http://www.w3.org/Graphics/SVG/1.1/DTD/svg11.dtd">
<!-- Created with matplotlib (http://matplotlib.org/) -->
<svg height="353pt" version="1.1" viewBox="0 0 439 353" width="439pt" xmlns="http://www.w3.org/2000/svg" xmlns:xlink="http://www.w3.org/1999/xlink">
 <defs>
  <style type="text/css">
*{stroke-linecap:butt;stroke-linejoin:round;}
  </style>
 </defs>
 <g id="figure_1">
  <g id="patch_1">
   <path d="M 0 353.22225 
L 439.489219 353.22225 
L 439.489219 0 
L 0 0 
z
" style="fill:#ffffff;"/>
  </g>
  <g id="axes_1">
   <g id="patch_2">
    <path d="M 70.8 298.245375 
L 427.92 298.245375 
L 427.92 32.133375 
L 70.8 32.133375 
z
" style="fill:#ffffff;"/>
   </g>
   <g id="matplotlib.axis_1">
    <g id="xtick_1">
     <g id="line2d_1">
      <path clip-path="url(#pe5479bdaee)" d="M 70.8 298.245375 
L 70.8 32.133375 
" style="fill:none;stroke:#b0b0b0;stroke-linecap:square;stroke-width:0.8;"/>
     </g>
     <g id="line2d_2">
      <defs>
       <path d="M 0 0 
L 0 3.5 
" id="m7dd911d28d" style="stroke:#000000;stroke-width:0.8;"/>
      </defs>
      <g>
       <use style="stroke:#000000;stroke-width:0.8;" x="70.8" xlink:href="#m7dd911d28d" y="298.245375"/>
      </g>
     </g>
     <g id="text_1">
      <!-- 0 -->
      <defs>
       <path d="M 31.78125 66.40625 
Q 24.171875 66.40625 20.328125 58.90625 
Q 16.5 51.421875 16.5 36.375 
Q 16.5 21.390625 20.328125 13.890625 
Q 24.171875 6.390625 31.78125 6.390625 
Q 39.453125 6.390625 43.28125 13.890625 
Q 47.125 21.390625 47.125 36.375 
Q 47.125 51.421875 43.28125 58.90625 
Q 39.453125 66.40625 31.78125 66.40625 
M 31.78125 74.21875 
Q 44.046875 74.21875 50.515625 64.515625 
Q 56.984375 54.828125 56.984375 36.375 
Q 56.984375 17.96875 50.515625 8.265625 
Q 44.046875 -1.421875 31.78125 -1.421875 
Q 19.53125 -1.421875 13.0625 8.265625 
Q 6.59375 17.96875 6.59375 36.375 
Q 6.59375 54.828125 13.0625 64.515625 
Q 19.53125 74.21875 31.78125 74.21875 
" id="DejaVuSans-30"/>
      </defs>
      <g transform="translate(64.4375 320.44225)scale(0.2 -0.2)">
       <use xlink:href="#DejaVuSans-30"/>
      </g>
     </g>
    </g>
    <g id="xtick_2">
     <g id="line2d_3">
      <path clip-path="url(#pe5479bdaee)" d="M 153.085714 298.245375 
L 153.085714 32.133375 
" style="fill:none;stroke:#b0b0b0;stroke-linecap:square;stroke-width:0.8;"/>
     </g>
     <g id="line2d_4">
      <g>
       <use style="stroke:#000000;stroke-width:0.8;" x="153.085714" xlink:href="#m7dd911d28d" y="298.245375"/>
      </g>
     </g>
     <g id="text_2">
      <!-- 2 -->
      <defs>
       <path d="M 19.1875 8.296875 
L 53.609375 8.296875 
L 53.609375 0 
L 7.328125 0 
L 7.328125 8.296875 
Q 12.9375 14.109375 22.625 23.890625 
Q 32.328125 33.6875 34.8125 36.53125 
Q 39.546875 41.84375 41.421875 45.53125 
Q 43.3125 49.21875 43.3125 52.78125 
Q 43.3125 58.59375 39.234375 62.25 
Q 35.15625 65.921875 28.609375 65.921875 
Q 23.96875 65.921875 18.8125 64.3125 
Q 13.671875 62.703125 7.8125 59.421875 
L 7.8125 69.390625 
Q 13.765625 71.78125 18.9375 73 
Q 24.125 74.21875 28.421875 74.21875 
Q 39.75 74.21875 46.484375 68.546875 
Q 53.21875 62.890625 53.21875 53.421875 
Q 53.21875 48.921875 51.53125 44.890625 
Q 49.859375 40.875 45.40625 35.40625 
Q 44.1875 33.984375 37.640625 27.21875 
Q 31.109375 20.453125 19.1875 8.296875 
" id="DejaVuSans-32"/>
      </defs>
      <g transform="translate(146.723214 320.44225)scale(0.2 -0.2)">
       <use xlink:href="#DejaVuSans-32"/>
      </g>
     </g>
    </g>
    <g id="xtick_3">
     <g id="line2d_5">
      <path clip-path="url(#pe5479bdaee)" d="M 235.371429 298.245375 
L 235.371429 32.133375 
" style="fill:none;stroke:#b0b0b0;stroke-linecap:square;stroke-width:0.8;"/>
     </g>
     <g id="line2d_6">
      <g>
       <use style="stroke:#000000;stroke-width:0.8;" x="235.371429" xlink:href="#m7dd911d28d" y="298.245375"/>
      </g>
     </g>
     <g id="text_3">
      <!-- 4 -->
      <defs>
       <path d="M 37.796875 64.3125 
L 12.890625 25.390625 
L 37.796875 25.390625 
z
M 35.203125 72.90625 
L 47.609375 72.90625 
L 47.609375 25.390625 
L 58.015625 25.390625 
L 58.015625 17.1875 
L 47.609375 17.1875 
L 47.609375 0 
L 37.796875 0 
L 37.796875 17.1875 
L 4.890625 17.1875 
L 4.890625 26.703125 
z
" id="DejaVuSans-34"/>
      </defs>
      <g transform="translate(229.008929 320.44225)scale(0.2 -0.2)">
       <use xlink:href="#DejaVuSans-34"/>
      </g>
     </g>
    </g>
    <g id="xtick_4">
     <g id="line2d_7">
      <path clip-path="url(#pe5479bdaee)" d="M 317.657143 298.245375 
L 317.657143 32.133375 
" style="fill:none;stroke:#b0b0b0;stroke-linecap:square;stroke-width:0.8;"/>
     </g>
     <g id="line2d_8">
      <g>
       <use style="stroke:#000000;stroke-width:0.8;" x="317.657143" xlink:href="#m7dd911d28d" y="298.245375"/>
      </g>
     </g>
     <g id="text_4">
      <!-- 6 -->
      <defs>
       <path d="M 33.015625 40.375 
Q 26.375 40.375 22.484375 35.828125 
Q 18.609375 31.296875 18.609375 23.390625 
Q 18.609375 15.53125 22.484375 10.953125 
Q 26.375 6.390625 33.015625 6.390625 
Q 39.65625 6.390625 43.53125 10.953125 
Q 47.40625 15.53125 47.40625 23.390625 
Q 47.40625 31.296875 43.53125 35.828125 
Q 39.65625 40.375 33.015625 40.375 
M 52.59375 71.296875 
L 52.59375 62.3125 
Q 48.875 64.0625 45.09375 64.984375 
Q 41.3125 65.921875 37.59375 65.921875 
Q 27.828125 65.921875 22.671875 59.328125 
Q 17.53125 52.734375 16.796875 39.40625 
Q 19.671875 43.65625 24.015625 45.921875 
Q 28.375 48.1875 33.59375 48.1875 
Q 44.578125 48.1875 50.953125 41.515625 
Q 57.328125 34.859375 57.328125 23.390625 
Q 57.328125 12.15625 50.6875 5.359375 
Q 44.046875 -1.421875 33.015625 -1.421875 
Q 20.359375 -1.421875 13.671875 8.265625 
Q 6.984375 17.96875 6.984375 36.375 
Q 6.984375 53.65625 15.1875 63.9375 
Q 23.390625 74.21875 37.203125 74.21875 
Q 40.921875 74.21875 44.703125 73.484375 
Q 48.484375 72.75 52.59375 71.296875 
" id="DejaVuSans-36"/>
      </defs>
      <g transform="translate(311.294643 320.44225)scale(0.2 -0.2)">
       <use xlink:href="#DejaVuSans-36"/>
      </g>
     </g>
    </g>
    <g id="xtick_5">
     <g id="line2d_9">
      <path clip-path="url(#pe5479bdaee)" d="M 399.942857 298.245375 
L 399.942857 32.133375 
" style="fill:none;stroke:#b0b0b0;stroke-linecap:square;stroke-width:0.8;"/>
     </g>
     <g id="line2d_10">
      <g>
       <use style="stroke:#000000;stroke-width:0.8;" x="399.942857" xlink:href="#m7dd911d28d" y="298.245375"/>
      </g>
     </g>
     <g id="text_5">
      <!-- 8 -->
      <defs>
       <path d="M 31.78125 34.625 
Q 24.75 34.625 20.71875 30.859375 
Q 16.703125 27.09375 16.703125 20.515625 
Q 16.703125 13.921875 20.71875 10.15625 
Q 24.75 6.390625 31.78125 6.390625 
Q 38.8125 6.390625 42.859375 10.171875 
Q 46.921875 13.96875 46.921875 20.515625 
Q 46.921875 27.09375 42.890625 30.859375 
Q 38.875 34.625 31.78125 34.625 
M 21.921875 38.8125 
Q 15.578125 40.375 12.03125 44.71875 
Q 8.5 49.078125 8.5 55.328125 
Q 8.5 64.0625 14.71875 69.140625 
Q 20.953125 74.21875 31.78125 74.21875 
Q 42.671875 74.21875 48.875 69.140625 
Q 55.078125 64.0625 55.078125 55.328125 
Q 55.078125 49.078125 51.53125 44.71875 
Q 48 40.375 41.703125 38.8125 
Q 48.828125 37.15625 52.796875 32.3125 
Q 56.78125 27.484375 56.78125 20.515625 
Q 56.78125 9.90625 50.3125 4.234375 
Q 43.84375 -1.421875 31.78125 -1.421875 
Q 19.734375 -1.421875 13.25 4.234375 
Q 6.78125 9.90625 6.78125 20.515625 
Q 6.78125 27.484375 10.78125 32.3125 
Q 14.796875 37.15625 21.921875 38.8125 
M 18.3125 54.390625 
Q 18.3125 48.734375 21.84375 45.5625 
Q 25.390625 42.390625 31.78125 42.390625 
Q 38.140625 42.390625 41.71875 45.5625 
Q 45.3125 48.734375 45.3125 54.390625 
Q 45.3125 60.0625 41.71875 63.234375 
Q 38.140625 66.40625 31.78125 66.40625 
Q 25.390625 66.40625 21.84375 63.234375 
Q 18.3125 60.0625 18.3125 54.390625 
" id="DejaVuSans-38"/>
      </defs>
      <g transform="translate(393.580357 320.44225)scale(0.2 -0.2)">
       <use xlink:href="#DejaVuSans-38"/>
      </g>
     </g>
    </g>
    <g id="xtick_6">
     <g id="line2d_11">
      <defs>
       <path d="M 0 0 
L 0 2 
" id="mabacf38720" style="stroke:#000000;stroke-width:0.6;"/>
      </defs>
      <g>
       <use style="stroke:#000000;stroke-width:0.6;" x="83.185234" xlink:href="#mabacf38720" y="298.245375"/>
      </g>
     </g>
    </g>
    <g id="xtick_7">
     <g id="line2d_12">
      <g>
       <use style="stroke:#000000;stroke-width:0.6;" x="95.570468" xlink:href="#mabacf38720" y="298.245375"/>
      </g>
     </g>
    </g>
    <g id="xtick_8">
     <g id="line2d_13">
      <g>
       <use style="stroke:#000000;stroke-width:0.6;" x="102.815366" xlink:href="#mabacf38720" y="298.245375"/>
      </g>
     </g>
    </g>
    <g id="xtick_9">
     <g id="line2d_14">
      <g>
       <use style="stroke:#000000;stroke-width:0.6;" x="107.955702" xlink:href="#mabacf38720" y="298.245375"/>
      </g>
     </g>
    </g>
    <g id="xtick_10">
     <g id="line2d_15">
      <g>
       <use style="stroke:#000000;stroke-width:0.6;" x="165.470948" xlink:href="#mabacf38720" y="298.245375"/>
      </g>
     </g>
    </g>
    <g id="xtick_11">
     <g id="line2d_16">
      <g>
       <use style="stroke:#000000;stroke-width:0.6;" x="177.856183" xlink:href="#mabacf38720" y="298.245375"/>
      </g>
     </g>
    </g>
    <g id="xtick_12">
     <g id="line2d_17">
      <g>
       <use style="stroke:#000000;stroke-width:0.6;" x="185.10108" xlink:href="#mabacf38720" y="298.245375"/>
      </g>
     </g>
    </g>
    <g id="xtick_13">
     <g id="line2d_18">
      <g>
       <use style="stroke:#000000;stroke-width:0.6;" x="190.241417" xlink:href="#mabacf38720" y="298.245375"/>
      </g>
     </g>
    </g>
    <g id="xtick_14">
     <g id="line2d_19">
      <g>
       <use style="stroke:#000000;stroke-width:0.6;" x="247.756663" xlink:href="#mabacf38720" y="298.245375"/>
      </g>
     </g>
    </g>
    <g id="xtick_15">
     <g id="line2d_20">
      <g>
       <use style="stroke:#000000;stroke-width:0.6;" x="260.141897" xlink:href="#mabacf38720" y="298.245375"/>
      </g>
     </g>
    </g>
    <g id="xtick_16">
     <g id="line2d_21">
      <g>
       <use style="stroke:#000000;stroke-width:0.6;" x="267.386794" xlink:href="#mabacf38720" y="298.245375"/>
      </g>
     </g>
    </g>
    <g id="xtick_17">
     <g id="line2d_22">
      <g>
       <use style="stroke:#000000;stroke-width:0.6;" x="272.527131" xlink:href="#mabacf38720" y="298.245375"/>
      </g>
     </g>
    </g>
    <g id="xtick_18">
     <g id="line2d_23">
      <g>
       <use style="stroke:#000000;stroke-width:0.6;" x="330.042377" xlink:href="#mabacf38720" y="298.245375"/>
      </g>
     </g>
    </g>
    <g id="xtick_19">
     <g id="line2d_24">
      <g>
       <use style="stroke:#000000;stroke-width:0.6;" x="342.427611" xlink:href="#mabacf38720" y="298.245375"/>
      </g>
     </g>
    </g>
    <g id="xtick_20">
     <g id="line2d_25">
      <g>
       <use style="stroke:#000000;stroke-width:0.6;" x="349.672509" xlink:href="#mabacf38720" y="298.245375"/>
      </g>
     </g>
    </g>
    <g id="xtick_21">
     <g id="line2d_26">
      <g>
       <use style="stroke:#000000;stroke-width:0.6;" x="354.812845" xlink:href="#mabacf38720" y="298.245375"/>
      </g>
     </g>
    </g>
    <g id="xtick_22">
     <g id="line2d_27">
      <g>
       <use style="stroke:#000000;stroke-width:0.6;" x="412.328091" xlink:href="#mabacf38720" y="298.245375"/>
      </g>
     </g>
    </g>
    <g id="xtick_23">
     <g id="line2d_28">
      <g>
       <use style="stroke:#000000;stroke-width:0.6;" x="424.713325" xlink:href="#mabacf38720" y="298.245375"/>
      </g>
     </g>
    </g>
    <g id="text_6">
     <!-- log10 of (# f-evals / dimension) -->
     <defs>
      <path d="M 9.421875 75.984375 
L 18.40625 75.984375 
L 18.40625 0 
L 9.421875 0 
z
" id="DejaVuSans-6c"/>
      <path d="M 30.609375 48.390625 
Q 23.390625 48.390625 19.1875 42.75 
Q 14.984375 37.109375 14.984375 27.296875 
Q 14.984375 17.484375 19.15625 11.84375 
Q 23.34375 6.203125 30.609375 6.203125 
Q 37.796875 6.203125 41.984375 11.859375 
Q 46.1875 17.53125 46.1875 27.296875 
Q 46.1875 37.015625 41.984375 42.703125 
Q 37.796875 48.390625 30.609375 48.390625 
M 30.609375 56 
Q 42.328125 56 49.015625 48.375 
Q 55.71875 40.765625 55.71875 27.296875 
Q 55.71875 13.875 49.015625 6.21875 
Q 42.328125 -1.421875 30.609375 -1.421875 
Q 18.84375 -1.421875 12.171875 6.21875 
Q 5.515625 13.875 5.515625 27.296875 
Q 5.515625 40.765625 12.171875 48.375 
Q 18.84375 56 30.609375 56 
" id="DejaVuSans-6f"/>
      <path d="M 45.40625 27.984375 
Q 45.40625 37.75 41.375 43.109375 
Q 37.359375 48.484375 30.078125 48.484375 
Q 22.859375 48.484375 18.828125 43.109375 
Q 14.796875 37.75 14.796875 27.984375 
Q 14.796875 18.265625 18.828125 12.890625 
Q 22.859375 7.515625 30.078125 7.515625 
Q 37.359375 7.515625 41.375 12.890625 
Q 45.40625 18.265625 45.40625 27.984375 
M 54.390625 6.78125 
Q 54.390625 -7.171875 48.1875 -13.984375 
Q 42 -20.796875 29.203125 -20.796875 
Q 24.46875 -20.796875 20.265625 -20.09375 
Q 16.0625 -19.390625 12.109375 -17.921875 
L 12.109375 -9.1875 
Q 16.0625 -11.328125 19.921875 -12.34375 
Q 23.78125 -13.375 27.78125 -13.375 
Q 36.625 -13.375 41.015625 -8.765625 
Q 45.40625 -4.15625 45.40625 5.171875 
L 45.40625 9.625 
Q 42.625 4.78125 38.28125 2.390625 
Q 33.9375 0 27.875 0 
Q 17.828125 0 11.671875 7.65625 
Q 5.515625 15.328125 5.515625 27.984375 
Q 5.515625 40.671875 11.671875 48.328125 
Q 17.828125 56 27.875 56 
Q 33.9375 56 38.28125 53.609375 
Q 42.625 51.21875 45.40625 46.390625 
L 45.40625 54.6875 
L 54.390625 54.6875 
z
" id="DejaVuSans-67"/>
      <path d="M 12.40625 8.296875 
L 28.515625 8.296875 
L 28.515625 63.921875 
L 10.984375 60.40625 
L 10.984375 69.390625 
L 28.421875 72.90625 
L 38.28125 72.90625 
L 38.28125 8.296875 
L 54.390625 8.296875 
L 54.390625 0 
L 12.40625 0 
z
" id="DejaVuSans-31"/>
      <path id="DejaVuSans-20"/>
      <path d="M 37.109375 75.984375 
L 37.109375 68.5 
L 28.515625 68.5 
Q 23.6875 68.5 21.796875 66.546875 
Q 19.921875 64.59375 19.921875 59.515625 
L 19.921875 54.6875 
L 34.71875 54.6875 
L 34.71875 47.703125 
L 19.921875 47.703125 
L 19.921875 0 
L 10.890625 0 
L 10.890625 47.703125 
L 2.296875 47.703125 
L 2.296875 54.6875 
L 10.890625 54.6875 
L 10.890625 58.5 
Q 10.890625 67.625 15.140625 71.796875 
Q 19.390625 75.984375 28.609375 75.984375 
z
" id="DejaVuSans-66"/>
      <path d="M 31 75.875 
Q 24.46875 64.65625 21.28125 53.65625 
Q 18.109375 42.671875 18.109375 31.390625 
Q 18.109375 20.125 21.3125 9.0625 
Q 24.515625 -2 31 -13.1875 
L 23.1875 -13.1875 
Q 15.875 -1.703125 12.234375 9.375 
Q 8.59375 20.453125 8.59375 31.390625 
Q 8.59375 42.28125 12.203125 53.3125 
Q 15.828125 64.359375 23.1875 75.875 
z
" id="DejaVuSans-28"/>
      <path d="M 51.125 44 
L 36.921875 44 
L 32.8125 27.6875 
L 47.125 27.6875 
z
M 43.796875 71.78125 
L 38.71875 51.515625 
L 52.984375 51.515625 
L 58.109375 71.78125 
L 65.921875 71.78125 
L 60.890625 51.515625 
L 76.125 51.515625 
L 76.125 44 
L 58.984375 44 
L 54.984375 27.6875 
L 70.515625 27.6875 
L 70.515625 20.21875 
L 53.078125 20.21875 
L 48 0 
L 40.1875 0 
L 45.21875 20.21875 
L 30.90625 20.21875 
L 25.875 0 
L 18.015625 0 
L 23.09375 20.21875 
L 7.71875 20.21875 
L 7.71875 27.6875 
L 24.90625 27.6875 
L 29 44 
L 13.28125 44 
L 13.28125 51.515625 
L 30.90625 51.515625 
L 35.890625 71.78125 
z
" id="DejaVuSans-23"/>
      <path d="M 4.890625 31.390625 
L 31.203125 31.390625 
L 31.203125 23.390625 
L 4.890625 23.390625 
z
" id="DejaVuSans-2d"/>
      <path d="M 56.203125 29.59375 
L 56.203125 25.203125 
L 14.890625 25.203125 
Q 15.484375 15.921875 20.484375 11.0625 
Q 25.484375 6.203125 34.421875 6.203125 
Q 39.59375 6.203125 44.453125 7.46875 
Q 49.3125 8.734375 54.109375 11.28125 
L 54.109375 2.78125 
Q 49.265625 0.734375 44.1875 -0.34375 
Q 39.109375 -1.421875 33.890625 -1.421875 
Q 20.796875 -1.421875 13.15625 6.1875 
Q 5.515625 13.8125 5.515625 26.8125 
Q 5.515625 40.234375 12.765625 48.109375 
Q 20.015625 56 32.328125 56 
Q 43.359375 56 49.78125 48.890625 
Q 56.203125 41.796875 56.203125 29.59375 
M 47.21875 32.234375 
Q 47.125 39.59375 43.09375 43.984375 
Q 39.0625 48.390625 32.421875 48.390625 
Q 24.90625 48.390625 20.390625 44.140625 
Q 15.875 39.890625 15.1875 32.171875 
z
" id="DejaVuSans-65"/>
      <path d="M 2.984375 54.6875 
L 12.5 54.6875 
L 29.59375 8.796875 
L 46.6875 54.6875 
L 56.203125 54.6875 
L 35.6875 0 
L 23.484375 0 
z
" id="DejaVuSans-76"/>
      <path d="M 34.28125 27.484375 
Q 23.390625 27.484375 19.1875 25 
Q 14.984375 22.515625 14.984375 16.5 
Q 14.984375 11.71875 18.140625 8.90625 
Q 21.296875 6.109375 26.703125 6.109375 
Q 34.1875 6.109375 38.703125 11.40625 
Q 43.21875 16.703125 43.21875 25.484375 
L 43.21875 27.484375 
z
M 52.203125 31.203125 
L 52.203125 0 
L 43.21875 0 
L 43.21875 8.296875 
Q 40.140625 3.328125 35.546875 0.953125 
Q 30.953125 -1.421875 24.3125 -1.421875 
Q 15.921875 -1.421875 10.953125 3.296875 
Q 6 8.015625 6 15.921875 
Q 6 25.140625 12.171875 29.828125 
Q 18.359375 34.515625 30.609375 34.515625 
L 43.21875 34.515625 
L 43.21875 35.40625 
Q 43.21875 41.609375 39.140625 45 
Q 35.0625 48.390625 27.6875 48.390625 
Q 23 48.390625 18.546875 47.265625 
Q 14.109375 46.140625 10.015625 43.890625 
L 10.015625 52.203125 
Q 14.9375 54.109375 19.578125 55.046875 
Q 24.21875 56 28.609375 56 
Q 40.484375 56 46.34375 49.84375 
Q 52.203125 43.703125 52.203125 31.203125 
" id="DejaVuSans-61"/>
      <path d="M 44.28125 53.078125 
L 44.28125 44.578125 
Q 40.484375 46.53125 36.375 47.5 
Q 32.28125 48.484375 27.875 48.484375 
Q 21.1875 48.484375 17.84375 46.4375 
Q 14.5 44.390625 14.5 40.28125 
Q 14.5 37.15625 16.890625 35.375 
Q 19.28125 33.59375 26.515625 31.984375 
L 29.59375 31.296875 
Q 39.15625 29.25 43.1875 25.515625 
Q 47.21875 21.78125 47.21875 15.09375 
Q 47.21875 7.46875 41.1875 3.015625 
Q 35.15625 -1.421875 24.609375 -1.421875 
Q 20.21875 -1.421875 15.453125 -0.5625 
Q 10.6875 0.296875 5.421875 2 
L 5.421875 11.28125 
Q 10.40625 8.6875 15.234375 7.390625 
Q 20.0625 6.109375 24.8125 6.109375 
Q 31.15625 6.109375 34.5625 8.28125 
Q 37.984375 10.453125 37.984375 14.40625 
Q 37.984375 18.0625 35.515625 20.015625 
Q 33.0625 21.96875 24.703125 23.78125 
L 21.578125 24.515625 
Q 13.234375 26.265625 9.515625 29.90625 
Q 5.8125 33.546875 5.8125 39.890625 
Q 5.8125 47.609375 11.28125 51.796875 
Q 16.75 56 26.8125 56 
Q 31.78125 56 36.171875 55.265625 
Q 40.578125 54.546875 44.28125 53.078125 
" id="DejaVuSans-73"/>
      <path d="M 25.390625 72.90625 
L 33.6875 72.90625 
L 8.296875 -9.28125 
L 0 -9.28125 
z
" id="DejaVuSans-2f"/>
      <path d="M 45.40625 46.390625 
L 45.40625 75.984375 
L 54.390625 75.984375 
L 54.390625 0 
L 45.40625 0 
L 45.40625 8.203125 
Q 42.578125 3.328125 38.25 0.953125 
Q 33.9375 -1.421875 27.875 -1.421875 
Q 17.96875 -1.421875 11.734375 6.484375 
Q 5.515625 14.40625 5.515625 27.296875 
Q 5.515625 40.1875 11.734375 48.09375 
Q 17.96875 56 27.875 56 
Q 33.9375 56 38.25 53.625 
Q 42.578125 51.265625 45.40625 46.390625 
M 14.796875 27.296875 
Q 14.796875 17.390625 18.875 11.75 
Q 22.953125 6.109375 30.078125 6.109375 
Q 37.203125 6.109375 41.296875 11.75 
Q 45.40625 17.390625 45.40625 27.296875 
Q 45.40625 37.203125 41.296875 42.84375 
Q 37.203125 48.484375 30.078125 48.484375 
Q 22.953125 48.484375 18.875 42.84375 
Q 14.796875 37.203125 14.796875 27.296875 
" id="DejaVuSans-64"/>
      <path d="M 9.421875 54.6875 
L 18.40625 54.6875 
L 18.40625 0 
L 9.421875 0 
z
M 9.421875 75.984375 
L 18.40625 75.984375 
L 18.40625 64.59375 
L 9.421875 64.59375 
z
" id="DejaVuSans-69"/>
      <path d="M 52 44.1875 
Q 55.375 50.25 60.0625 53.125 
Q 64.75 56 71.09375 56 
Q 79.640625 56 84.28125 50.015625 
Q 88.921875 44.046875 88.921875 33.015625 
L 88.921875 0 
L 79.890625 0 
L 79.890625 32.71875 
Q 79.890625 40.578125 77.09375 44.375 
Q 74.3125 48.1875 68.609375 48.1875 
Q 61.625 48.1875 57.5625 43.546875 
Q 53.515625 38.921875 53.515625 30.90625 
L 53.515625 0 
L 44.484375 0 
L 44.484375 32.71875 
Q 44.484375 40.625 41.703125 44.40625 
Q 38.921875 48.1875 33.109375 48.1875 
Q 26.21875 48.1875 22.15625 43.53125 
Q 18.109375 38.875 18.109375 30.90625 
L 18.109375 0 
L 9.078125 0 
L 9.078125 54.6875 
L 18.109375 54.6875 
L 18.109375 46.1875 
Q 21.1875 51.21875 25.484375 53.609375 
Q 29.78125 56 35.6875 56 
Q 41.65625 56 45.828125 52.96875 
Q 50 49.953125 52 44.1875 
" id="DejaVuSans-6d"/>
      <path d="M 54.890625 33.015625 
L 54.890625 0 
L 45.90625 0 
L 45.90625 32.71875 
Q 45.90625 40.484375 42.875 44.328125 
Q 39.84375 48.1875 33.796875 48.1875 
Q 26.515625 48.1875 22.3125 43.546875 
Q 18.109375 38.921875 18.109375 30.90625 
L 18.109375 0 
L 9.078125 0 
L 9.078125 54.6875 
L 18.109375 54.6875 
L 18.109375 46.1875 
Q 21.34375 51.125 25.703125 53.5625 
Q 30.078125 56 35.796875 56 
Q 45.21875 56 50.046875 50.171875 
Q 54.890625 44.34375 54.890625 33.015625 
" id="DejaVuSans-6e"/>
      <path d="M 8.015625 75.875 
L 15.828125 75.875 
Q 23.140625 64.359375 26.78125 53.3125 
Q 30.421875 42.28125 30.421875 31.390625 
Q 30.421875 20.453125 26.78125 9.375 
Q 23.140625 -1.703125 15.828125 -13.1875 
L 8.015625 -13.1875 
Q 14.5 -2 17.703125 9.0625 
Q 20.90625 20.125 20.90625 31.390625 
Q 20.90625 42.671875 17.703125 53.65625 
Q 14.5 64.65625 8.015625 75.875 
" id="DejaVuSans-29"/>
     </defs>
     <g transform="translate(107.015156 342.278812)scale(0.18 -0.18)">
      <use xlink:href="#DejaVuSans-6c"/>
      <use x="27.783203" xlink:href="#DejaVuSans-6f"/>
      <use x="88.964844" xlink:href="#DejaVuSans-67"/>
      <use x="152.441406" xlink:href="#DejaVuSans-31"/>
      <use x="216.064453" xlink:href="#DejaVuSans-30"/>
      <use x="279.6875" xlink:href="#DejaVuSans-20"/>
      <use x="311.474609" xlink:href="#DejaVuSans-6f"/>
      <use x="372.65625" xlink:href="#DejaVuSans-66"/>
      <use x="407.861328" xlink:href="#DejaVuSans-20"/>
      <use x="439.648438" xlink:href="#DejaVuSans-28"/>
      <use x="478.662109" xlink:href="#DejaVuSans-23"/>
      <use x="562.451172" xlink:href="#DejaVuSans-20"/>
      <use x="594.238281" xlink:href="#DejaVuSans-66"/>
      <use x="629.365234" xlink:href="#DejaVuSans-2d"/>
      <use x="665.449219" xlink:href="#DejaVuSans-65"/>
      <use x="726.972656" xlink:href="#DejaVuSans-76"/>
      <use x="786.152344" xlink:href="#DejaVuSans-61"/>
      <use x="847.431641" xlink:href="#DejaVuSans-6c"/>
      <use x="875.214844" xlink:href="#DejaVuSans-73"/>
      <use x="927.314453" xlink:href="#DejaVuSans-20"/>
      <use x="959.101562" xlink:href="#DejaVuSans-2f"/>
      <use x="992.792969" xlink:href="#DejaVuSans-20"/>
      <use x="1024.580078" xlink:href="#DejaVuSans-64"/>
      <use x="1088.056641" xlink:href="#DejaVuSans-69"/>
      <use x="1115.839844" xlink:href="#DejaVuSans-6d"/>
      <use x="1213.251953" xlink:href="#DejaVuSans-65"/>
      <use x="1274.775391" xlink:href="#DejaVuSans-6e"/>
      <use x="1338.154297" xlink:href="#DejaVuSans-73"/>
      <use x="1390.253906" xlink:href="#DejaVuSans-69"/>
      <use x="1418.037109" xlink:href="#DejaVuSans-6f"/>
      <use x="1479.21875" xlink:href="#DejaVuSans-6e"/>
      <use x="1542.597656" xlink:href="#DejaVuSans-29"/>
     </g>
    </g>
   </g>
   <g id="matplotlib.axis_2">
    <g id="ytick_1">
     <g id="line2d_29">
      <path clip-path="url(#pe5479bdaee)" d="M 70.8 298.245375 
L 427.92 298.245375 
" style="fill:none;stroke:#b0b0b0;stroke-linecap:square;stroke-width:0.8;"/>
     </g>
     <g id="line2d_30">
      <defs>
       <path d="M 0 0 
L -3.5 0 
" id="mcbf1f9b5bd" style="stroke:#000000;stroke-width:0.8;"/>
      </defs>
      <g>
       <use style="stroke:#000000;stroke-width:0.8;" x="70.8" xlink:href="#mcbf1f9b5bd" y="298.245375"/>
      </g>
     </g>
     <g id="text_7">
      <!-- 0.0 -->
      <defs>
       <path d="M 10.6875 12.40625 
L 21 12.40625 
L 21 0 
L 10.6875 0 
z
" id="DejaVuSans-2e"/>
      </defs>
      <g transform="translate(31.99375 305.843812)scale(0.2 -0.2)">
       <use xlink:href="#DejaVuSans-30"/>
       <use x="63.623047" xlink:href="#DejaVuSans-2e"/>
       <use x="95.410156" xlink:href="#DejaVuSans-30"/>
      </g>
     </g>
    </g>
    <g id="ytick_2">
     <g id="line2d_31">
      <path clip-path="url(#pe5479bdaee)" d="M 70.8 245.549929 
L 427.92 245.549929 
" style="fill:none;stroke:#b0b0b0;stroke-linecap:square;stroke-width:0.8;"/>
     </g>
     <g id="line2d_32">
      <g>
       <use style="stroke:#000000;stroke-width:0.8;" x="70.8" xlink:href="#mcbf1f9b5bd" y="245.549929"/>
      </g>
     </g>
     <g id="text_8">
      <!-- 0.2 -->
      <g transform="translate(31.99375 253.148367)scale(0.2 -0.2)">
       <use xlink:href="#DejaVuSans-30"/>
       <use x="63.623047" xlink:href="#DejaVuSans-2e"/>
       <use x="95.410156" xlink:href="#DejaVuSans-32"/>
      </g>
     </g>
    </g>
    <g id="ytick_3">
     <g id="line2d_33">
      <path clip-path="url(#pe5479bdaee)" d="M 70.8 192.854484 
L 427.92 192.854484 
" style="fill:none;stroke:#b0b0b0;stroke-linecap:square;stroke-width:0.8;"/>
     </g>
     <g id="line2d_34">
      <g>
       <use style="stroke:#000000;stroke-width:0.8;" x="70.8" xlink:href="#mcbf1f9b5bd" y="192.854484"/>
      </g>
     </g>
     <g id="text_9">
      <!-- 0.4 -->
      <g transform="translate(31.99375 200.452921)scale(0.2 -0.2)">
       <use xlink:href="#DejaVuSans-30"/>
       <use x="63.623047" xlink:href="#DejaVuSans-2e"/>
       <use x="95.410156" xlink:href="#DejaVuSans-34"/>
      </g>
     </g>
    </g>
    <g id="ytick_4">
     <g id="line2d_35">
      <path clip-path="url(#pe5479bdaee)" d="M 70.8 140.159038 
L 427.92 140.159038 
" style="fill:none;stroke:#b0b0b0;stroke-linecap:square;stroke-width:0.8;"/>
     </g>
     <g id="line2d_36">
      <g>
       <use style="stroke:#000000;stroke-width:0.8;" x="70.8" xlink:href="#mcbf1f9b5bd" y="140.159038"/>
      </g>
     </g>
     <g id="text_10">
      <!-- 0.6 -->
      <g transform="translate(31.99375 147.757476)scale(0.2 -0.2)">
       <use xlink:href="#DejaVuSans-30"/>
       <use x="63.623047" xlink:href="#DejaVuSans-2e"/>
       <use x="95.410156" xlink:href="#DejaVuSans-36"/>
      </g>
     </g>
    </g>
    <g id="ytick_5">
     <g id="line2d_37">
      <path clip-path="url(#pe5479bdaee)" d="M 70.8 87.463593 
L 427.92 87.463593 
" style="fill:none;stroke:#b0b0b0;stroke-linecap:square;stroke-width:0.8;"/>
     </g>
     <g id="line2d_38">
      <g>
       <use style="stroke:#000000;stroke-width:0.8;" x="70.8" xlink:href="#mcbf1f9b5bd" y="87.463593"/>
      </g>
     </g>
     <g id="text_11">
      <!-- 0.8 -->
      <g transform="translate(31.99375 95.06203)scale(0.2 -0.2)">
       <use xlink:href="#DejaVuSans-30"/>
       <use x="63.623047" xlink:href="#DejaVuSans-2e"/>
       <use x="95.410156" xlink:href="#DejaVuSans-38"/>
      </g>
     </g>
    </g>
    <g id="ytick_6">
     <g id="line2d_39">
      <path clip-path="url(#pe5479bdaee)" d="M 70.8 34.768147 
L 427.92 34.768147 
" style="fill:none;stroke:#b0b0b0;stroke-linecap:square;stroke-width:0.8;"/>
     </g>
     <g id="line2d_40">
      <g>
       <use style="stroke:#000000;stroke-width:0.8;" x="70.8" xlink:href="#mcbf1f9b5bd" y="34.768147"/>
      </g>
     </g>
     <g id="text_12">
      <!-- 1.0 -->
      <g transform="translate(31.99375 42.366585)scale(0.2 -0.2)">
       <use xlink:href="#DejaVuSans-31"/>
       <use x="63.623047" xlink:href="#DejaVuSans-2e"/>
       <use x="95.410156" xlink:href="#DejaVuSans-30"/>
      </g>
     </g>
    </g>
    <g id="text_13">
     <!-- Proportion of function+target pairs -->
     <defs>
      <path d="M 19.671875 64.796875 
L 19.671875 37.40625 
L 32.078125 37.40625 
Q 38.96875 37.40625 42.71875 40.96875 
Q 46.484375 44.53125 46.484375 51.125 
Q 46.484375 57.671875 42.71875 61.234375 
Q 38.96875 64.796875 32.078125 64.796875 
z
M 9.8125 72.90625 
L 32.078125 72.90625 
Q 44.34375 72.90625 50.609375 67.359375 
Q 56.890625 61.8125 56.890625 51.125 
Q 56.890625 40.328125 50.609375 34.8125 
Q 44.34375 29.296875 32.078125 29.296875 
L 19.671875 29.296875 
L 19.671875 0 
L 9.8125 0 
z
" id="DejaVuSans-50"/>
      <path d="M 41.109375 46.296875 
Q 39.59375 47.171875 37.8125 47.578125 
Q 36.03125 48 33.890625 48 
Q 26.265625 48 22.1875 43.046875 
Q 18.109375 38.09375 18.109375 28.8125 
L 18.109375 0 
L 9.078125 0 
L 9.078125 54.6875 
L 18.109375 54.6875 
L 18.109375 46.1875 
Q 20.953125 51.171875 25.484375 53.578125 
Q 30.03125 56 36.53125 56 
Q 37.453125 56 38.578125 55.875 
Q 39.703125 55.765625 41.0625 55.515625 
z
" id="DejaVuSans-72"/>
      <path d="M 18.109375 8.203125 
L 18.109375 -20.796875 
L 9.078125 -20.796875 
L 9.078125 54.6875 
L 18.109375 54.6875 
L 18.109375 46.390625 
Q 20.953125 51.265625 25.265625 53.625 
Q 29.59375 56 35.59375 56 
Q 45.5625 56 51.78125 48.09375 
Q 58.015625 40.1875 58.015625 27.296875 
Q 58.015625 14.40625 51.78125 6.484375 
Q 45.5625 -1.421875 35.59375 -1.421875 
Q 29.59375 -1.421875 25.265625 0.953125 
Q 20.953125 3.328125 18.109375 8.203125 
M 48.6875 27.296875 
Q 48.6875 37.203125 44.609375 42.84375 
Q 40.53125 48.484375 33.40625 48.484375 
Q 26.265625 48.484375 22.1875 42.84375 
Q 18.109375 37.203125 18.109375 27.296875 
Q 18.109375 17.390625 22.1875 11.75 
Q 26.265625 6.109375 33.40625 6.109375 
Q 40.53125 6.109375 44.609375 11.75 
Q 48.6875 17.390625 48.6875 27.296875 
" id="DejaVuSans-70"/>
      <path d="M 18.3125 70.21875 
L 18.3125 54.6875 
L 36.8125 54.6875 
L 36.8125 47.703125 
L 18.3125 47.703125 
L 18.3125 18.015625 
Q 18.3125 11.328125 20.140625 9.421875 
Q 21.96875 7.515625 27.59375 7.515625 
L 36.8125 7.515625 
L 36.8125 0 
L 27.59375 0 
Q 17.1875 0 13.234375 3.875 
Q 9.28125 7.765625 9.28125 18.015625 
L 9.28125 47.703125 
L 2.6875 47.703125 
L 2.6875 54.6875 
L 9.28125 54.6875 
L 9.28125 70.21875 
z
" id="DejaVuSans-74"/>
      <path d="M 8.5 21.578125 
L 8.5 54.6875 
L 17.484375 54.6875 
L 17.484375 21.921875 
Q 17.484375 14.15625 20.5 10.265625 
Q 23.53125 6.390625 29.59375 6.390625 
Q 36.859375 6.390625 41.078125 11.03125 
Q 45.3125 15.671875 45.3125 23.6875 
L 45.3125 54.6875 
L 54.296875 54.6875 
L 54.296875 0 
L 45.3125 0 
L 45.3125 8.40625 
Q 42.046875 3.421875 37.71875 1 
Q 33.40625 -1.421875 27.6875 -1.421875 
Q 18.265625 -1.421875 13.375 4.4375 
Q 8.5 10.296875 8.5 21.578125 
M 31.109375 56 
z
" id="DejaVuSans-75"/>
      <path d="M 48.78125 52.59375 
L 48.78125 44.1875 
Q 44.96875 46.296875 41.140625 47.34375 
Q 37.3125 48.390625 33.40625 48.390625 
Q 24.65625 48.390625 19.8125 42.84375 
Q 14.984375 37.3125 14.984375 27.296875 
Q 14.984375 17.28125 19.8125 11.734375 
Q 24.65625 6.203125 33.40625 6.203125 
Q 37.3125 6.203125 41.140625 7.25 
Q 44.96875 8.296875 48.78125 10.40625 
L 48.78125 2.09375 
Q 45.015625 0.34375 40.984375 -0.53125 
Q 36.96875 -1.421875 32.421875 -1.421875 
Q 20.0625 -1.421875 12.78125 6.34375 
Q 5.515625 14.109375 5.515625 27.296875 
Q 5.515625 40.671875 12.859375 48.328125 
Q 20.21875 56 33.015625 56 
Q 37.15625 56 41.109375 55.140625 
Q 45.0625 54.296875 48.78125 52.59375 
" id="DejaVuSans-63"/>
      <path d="M 46 62.703125 
L 46 35.5 
L 73.1875 35.5 
L 73.1875 27.203125 
L 46 27.203125 
L 46 0 
L 37.796875 0 
L 37.796875 27.203125 
L 10.59375 27.203125 
L 10.59375 35.5 
L 37.796875 35.5 
L 37.796875 62.703125 
z
" id="DejaVuSans-2b"/>
     </defs>
     <g transform="translate(24.250312 323.17875)rotate(-90)scale(0.18 -0.18)">
      <use xlink:href="#DejaVuSans-50"/>
      <use x="60.287109" xlink:href="#DejaVuSans-72"/>
      <use x="101.369141" xlink:href="#DejaVuSans-6f"/>
      <use x="162.550781" xlink:href="#DejaVuSans-70"/>
      <use x="226.027344" xlink:href="#DejaVuSans-6f"/>
      <use x="287.208984" xlink:href="#DejaVuSans-72"/>
      <use x="328.322266" xlink:href="#DejaVuSans-74"/>
      <use x="367.53125" xlink:href="#DejaVuSans-69"/>
      <use x="395.314453" xlink:href="#DejaVuSans-6f"/>
      <use x="456.496094" xlink:href="#DejaVuSans-6e"/>
      <use x="519.875" xlink:href="#DejaVuSans-20"/>
      <use x="551.662109" xlink:href="#DejaVuSans-6f"/>
      <use x="612.84375" xlink:href="#DejaVuSans-66"/>
      <use x="648.048828" xlink:href="#DejaVuSans-20"/>
      <use x="679.835938" xlink:href="#DejaVuSans-66"/>
      <use x="715.041016" xlink:href="#DejaVuSans-75"/>
      <use x="778.419922" xlink:href="#DejaVuSans-6e"/>
      <use x="841.798828" xlink:href="#DejaVuSans-63"/>
      <use x="896.779297" xlink:href="#DejaVuSans-74"/>
      <use x="935.988281" xlink:href="#DejaVuSans-69"/>
      <use x="963.771484" xlink:href="#DejaVuSans-6f"/>
      <use x="1024.953125" xlink:href="#DejaVuSans-6e"/>
      <use x="1088.332031" xlink:href="#DejaVuSans-2b"/>
      <use x="1172.121094" xlink:href="#DejaVuSans-74"/>
      <use x="1211.330078" xlink:href="#DejaVuSans-61"/>
      <use x="1272.609375" xlink:href="#DejaVuSans-72"/>
      <use x="1313.707031" xlink:href="#DejaVuSans-67"/>
      <use x="1377.183594" xlink:href="#DejaVuSans-65"/>
      <use x="1438.707031" xlink:href="#DejaVuSans-74"/>
      <use x="1477.916016" xlink:href="#DejaVuSans-20"/>
      <use x="1509.703125" xlink:href="#DejaVuSans-70"/>
      <use x="1573.179688" xlink:href="#DejaVuSans-61"/>
      <use x="1634.458984" xlink:href="#DejaVuSans-69"/>
      <use x="1662.242188" xlink:href="#DejaVuSans-72"/>
      <use x="1703.355469" xlink:href="#DejaVuSans-73"/>
     </g>
    </g>
   </g>
   <g id="line2d_41">
    <defs>
     <path d="M 0 1.5 
C 0.397805 1.5 0.77937 1.341951 1.06066 1.06066 
C 1.341951 0.77937 1.5 0.397805 1.5 0 
C 1.5 -0.397805 1.341951 -0.77937 1.06066 -1.06066 
C 0.77937 -1.341951 0.397805 -1.5 0 -1.5 
C -0.397805 -1.5 -0.77937 -1.341951 -1.06066 -1.06066 
C -1.341951 -0.77937 -1.5 -0.397805 -1.5 0 
C -1.5 0.397805 -1.341951 0.77937 -1.06066 1.06066 
C -0.77937 1.341951 -0.397805 1.5 0 1.5 
z
" id="me9a5198224" style="stroke:#00bfbf;"/>
    </defs>
    <g>
     <use style="fill:#00bfbf;stroke:#00bfbf;" x="228.081805" xlink:href="#me9a5198224" y="34.768147"/>
     <use style="fill:#00bfbf;stroke:#00bfbf;" x="228.081805" xlink:href="#me9a5198224" y="34.768147"/>
    </g>
   </g>
   <g id="line2d_42">
    <path d="M 58.414766 298.245375 
L 58.414766 196.470838 
L 153.085714 196.470838 
L 153.085714 184.588532 
L 160.330612 184.588532 
L 160.330612 183.555288 
L 165.470948 183.555288 
L 165.470948 183.038666 
L 169.458103 183.038666 
L 169.458103 182.005422 
L 172.715846 182.005422 
L 172.715846 174.256091 
L 175.470228 174.256091 
L 175.470228 171.672981 
L 179.960743 171.672981 
L 179.960743 171.156359 
L 181.843337 171.156359 
L 181.843337 165.990139 
L 183.546351 165.990139 
L 183.546351 165.473517 
L 185.10108 165.473517 
L 185.10108 162.373785 
L 194.228571 162.373785 
L 194.228571 159.274053 
L 195.10036 159.274053 
L 195.10036 156.690943 
L 195.931585 156.690943 
L 195.931585 156.174321 
L 196.725854 156.174321 
L 196.725854 154.107833 
L 198.916526 154.107833 
L 198.916526 152.041345 
L 202.626651 152.041345 
L 202.626651 150.491479 
L 203.176482 150.491479 
L 203.176482 146.358503 
L 204.227851 146.358503 
L 204.227851 142.742148 
L 205.22078 142.742148 
L 205.22078 141.708904 
L 207.485594 141.708904 
L 207.485594 139.642416 
L 218.316099 139.642416 
L 218.316099 137.575928 
L 218.99904 137.575928 
L 218.99904 136.026062 
L 219.221007 136.026062 
L 219.221007 134.992818 
L 219.656836 134.992818 
L 219.656836 133.442952 
L 219.870828 133.442952 
L 219.870828 130.34322 
L 220.082287 130.34322 
L 220.082287 128.276732 
L 220.291274 128.276732 
L 220.291274 127.243488 
L 220.497844 127.243488 
L 220.497844 126.210244 
L 220.702053 126.210244 
L 220.702053 124.660378 
L 221.103601 124.660378 
L 221.103601 121.560646 
L 221.30104 121.560646 
L 221.30104 119.494158 
L 221.496322 119.494158 
L 221.496322 113.811316 
L 221.689493 113.811316 
L 221.689493 103.478875 
L 221.880598 103.478875 
L 221.880598 96.246167 
L 222.06968 96.246167 
L 222.06968 87.463593 
L 222.256782 87.463593 
L 222.256782 84.363861 
L 222.441946 84.363861 
L 222.441946 83.847239 
L 222.62521 83.847239 
L 222.62521 71.44831 
L 222.806614 71.44831 
L 222.806614 60.599248 
L 222.986194 60.599248 
L 222.986194 52.333296 
L 223.163988 52.333296 
L 223.163988 46.650454 
L 223.34003 46.650454 
L 223.34003 41.484233 
L 223.514355 41.484233 
L 223.514355 40.967611 
L 223.686995 40.967611 
L 223.686995 38.901123 
L 224.526028 38.901123 
L 224.526028 37.867879 
L 226.094412 37.867879 
L 226.094412 37.351257 
L 226.539285 37.351257 
L 226.539285 36.318013 
L 226.82983 36.318013 
L 226.82983 35.801391 
L 228.081805 35.801391 
L 228.081805 34.768147 
L 358.8 34.768147 
" style="fill:none;stroke:#00bfbf;stroke-linecap:square;stroke-width:1.5;"/>
   </g>
   <g id="line2d_43">
    <defs>
     <path d="M -6 0 
L 6 0 
M 0 6 
L 0 -6 
" id="m996b9a8d9a" style="stroke:#00bfbf;stroke-width:1.5;"/>
    </defs>
    <g>
     <use style="fill:none;stroke:#00bfbf;stroke-width:1.5;" x="358.8" xlink:href="#m996b9a8d9a" y="34.768147"/>
    </g>
   </g>
   <g id="line2d_44"/>
   <g id="line2d_45">
    <defs>
     <path d="M 0 1.5 
C 0.397805 1.5 0.77937 1.341951 1.06066 1.06066 
C 1.341951 0.77937 1.5 0.397805 1.5 0 
C 1.5 -0.397805 1.341951 -0.77937 1.06066 -1.06066 
C 0.77937 -1.341951 0.397805 -1.5 0 -1.5 
C -0.397805 -1.5 -0.77937 -1.341951 -1.06066 -1.06066 
C -1.341951 -0.77937 -1.5 -0.397805 -1.5 0 
C -1.5 0.397805 -1.341951 0.77937 -1.06066 1.06066 
C -0.77937 1.341951 -0.397805 1.5 0 1.5 
z
" id="mdeaf9ac8c8" style="stroke:#008000;"/>
    </defs>
    <g>
     <use style="fill:#008000;stroke:#008000;" x="222.503243" xlink:href="#mdeaf9ac8c8" y="34.768147"/>
     <use style="fill:#008000;stroke:#008000;" x="222.503243" xlink:href="#mdeaf9ac8c8" y="34.768147"/>
    </g>
   </g>
   <g id="line2d_46">
    <path d="M 51.169868 298.245375 
L 51.169868 229.534647 
L 145.840817 229.534647 
L 145.840817 220.752073 
L 153.085714 220.752073 
L 153.085714 214.552609 
L 158.226051 214.552609 
L 158.226051 209.386388 
L 162.213206 209.386388 
L 162.213206 204.220168 
L 165.470948 204.220168 
L 165.470948 203.703546 
L 168.225331 203.703546 
L 168.225331 200.087192 
L 170.611285 200.087192 
L 170.611285 198.020704 
L 174.59844 198.020704 
L 174.59844 195.437594 
L 177.856183 195.437594 
L 177.856183 193.887728 
L 179.286395 193.887728 
L 179.286395 190.787996 
L 181.843337 190.787996 
L 181.843337 184.588532 
L 182.996519 184.588532 
L 182.996519 183.555288 
L 184.079767 183.555288 
L 184.079767 181.4888 
L 185.10108 181.4888 
L 185.10108 178.90569 
L 186.067159 178.90569 
L 186.067159 176.839201 
L 186.983674 176.839201 
L 186.983674 176.322579 
L 187.855462 176.322579 
L 187.855462 174.256091 
L 188.686687 174.256091 
L 188.686687 172.189603 
L 189.480956 172.189603 
L 189.480956 171.672981 
L 190.241417 171.672981 
L 190.241417 169.606493 
L 190.970829 169.606493 
L 190.970829 169.089871 
L 195.931585 169.089871 
L 195.931585 167.023383 
L 197.486314 167.023383 
L 197.486314 166.506761 
L 197.975882 166.506761 
L 197.975882 165.990139 
L 198.452393 165.990139 
L 198.452393 162.890407 
L 198.916526 162.890407 
L 198.916526 162.373785 
L 200.240696 162.373785 
L 200.240696 159.790675 
L 201.473469 159.790675 
L 201.473469 158.757431 
L 201.866191 158.757431 
L 201.866191 156.174321 
L 211.529383 156.174321 
L 211.529383 153.591211 
L 212.83739 153.591211 
L 212.83739 151.524723 
L 213.457155 151.524723 
L 213.457155 149.458235 
L 213.659057 149.458235 
L 213.659057 148.424991 
L 213.858703 148.424991 
L 213.858703 143.775392 
L 214.056143 143.775392 
L 214.056143 141.192282 
L 214.251425 141.192282 
L 214.251425 140.67566 
L 214.444595 140.67566 
L 214.444595 137.059306 
L 214.6357 137.059306 
L 214.6357 133.442952 
L 214.824782 133.442952 
L 214.824782 127.243488 
L 215.011885 127.243488 
L 215.011885 121.044024 
L 215.197048 121.044024 
L 215.197048 114.84456 
L 215.380313 114.84456 
L 215.380313 107.095229 
L 215.561716 107.095229 
L 215.561716 98.829277 
L 215.741297 98.829277 
L 215.741297 87.980215 
L 215.919091 87.980215 
L 215.919091 85.913727 
L 216.095133 85.913727 
L 216.095133 77.647775 
L 216.269457 77.647775 
L 216.269457 75.064664 
L 216.442097 75.064664 
L 216.442097 72.998176 
L 216.782453 72.998176 
L 216.782453 72.481554 
L 216.95023 72.481554 
L 216.95023 70.931688 
L 217.116446 70.931688 
L 217.116446 66.798712 
L 217.766267 66.798712 
L 217.766267 66.28209 
L 217.925096 66.28209 
L 217.925096 65.765468 
L 218.393283 65.765468 
L 218.393283 65.248846 
L 218.698728 65.248846 
L 218.698728 64.732224 
L 219.147324 64.732224 
L 219.147324 63.69898 
L 219.294387 63.69898 
L 219.294387 62.665736 
L 219.584932 62.665736 
L 219.584932 62.149114 
L 219.728452 62.149114 
L 219.728452 60.599248 
L 219.870828 60.599248 
L 219.870828 59.049382 
L 220.012079 59.049382 
L 220.012079 57.499516 
L 220.152221 57.499516 
L 220.152221 56.466272 
L 220.291274 56.466272 
L 220.291274 55.94965 
L 220.429252 55.94965 
L 220.429252 54.399784 
L 220.566173 54.399784 
L 220.566173 53.36654 
L 220.702053 53.36654 
L 220.702053 51.816674 
L 220.836907 51.816674 
L 220.836907 48.716942 
L 220.970752 48.716942 
L 220.970752 47.683698 
L 221.103601 47.683698 
L 221.103601 42.517478 
L 221.366372 42.517478 
L 221.366372 42.000855 
L 221.496322 42.000855 
L 221.496322 41.484233 
L 221.880598 41.484233 
L 221.880598 36.318013 
L 222.132265 36.318013 
L 222.132265 35.284769 
L 222.503243 35.284769 
L 222.503243 34.768147 
L 358.8 34.768147 
L 358.8 34.768147 
" style="fill:none;stroke:#008000;stroke-linecap:square;stroke-width:1.5;"/>
   </g>
   <g id="line2d_47">
    <defs>
     <path d="M -0 6 
L 6 -6 
L -6 -6 
z
" id="m6983366611" style="stroke:#008000;stroke-linejoin:miter;stroke-width:1.5;"/>
    </defs>
    <g>
     <use style="fill:none;stroke:#008000;stroke-linejoin:miter;stroke-width:1.5;" x="358.8" xlink:href="#m6983366611" y="34.768147"/>
    </g>
   </g>
   <g id="line2d_48"/>
   <g id="line2d_49">
    <defs>
     <path d="M 0 1.5 
C 0.397805 1.5 0.77937 1.341951 1.06066 1.06066 
C 1.341951 0.77937 1.5 0.397805 1.5 0 
C 1.5 -0.397805 1.341951 -0.77937 1.06066 -1.06066 
C 0.77937 -1.341951 0.397805 -1.5 0 -1.5 
C -0.397805 -1.5 -0.77937 -1.341951 -1.06066 -1.06066 
C -1.341951 -0.77937 -1.5 -0.397805 -1.5 0 
C -1.5 0.397805 -1.341951 0.77937 -1.06066 1.06066 
C -0.77937 1.341951 -0.397805 1.5 0 1.5 
z
" id="m5cc4f6023e" style="stroke:#0000ff;"/>
    </defs>
    <g>
     <use style="fill:#0000ff;stroke:#0000ff;" x="228.427736" xlink:href="#m5cc4f6023e" y="34.768147"/>
     <use style="fill:#0000ff;stroke:#0000ff;" x="228.427736" xlink:href="#m5cc4f6023e" y="34.768147"/>
    </g>
   </g>
   <g id="line2d_50">
    <path d="M 42.042377 298.245375 
L 42.042377 254.332504 
L 136.713325 254.332504 
L 136.713325 248.649662 
L 143.958223 248.649662 
L 143.958223 242.450197 
L 149.098559 242.450197 
L 149.098559 237.800599 
L 153.085714 237.800599 
L 153.085714 234.184245 
L 156.343457 234.184245 
L 156.343457 231.084513 
L 159.097839 231.084513 
L 159.097839 224.885049 
L 161.483794 224.885049 
L 161.483794 222.818561 
L 163.588354 222.818561 
L 163.588354 220.752073 
L 167.173962 220.752073 
L 167.173962 216.102475 
L 168.728691 216.102475 
L 168.728691 210.936254 
L 170.158903 210.936254 
L 170.158903 210.419632 
L 171.483073 210.419632 
L 171.483073 209.90301 
L 172.715846 209.90301 
L 172.715846 208.353144 
L 173.869028 208.353144 
L 173.869028 206.286656 
L 174.952275 206.286656 
L 174.952275 204.220168 
L 175.973589 204.220168 
L 175.973589 202.670302 
L 176.939668 202.670302 
L 176.939668 196.98746 
L 177.856183 196.98746 
L 177.856183 196.470838 
L 178.727971 196.470838 
L 178.727971 195.437594 
L 179.559196 195.437594 
L 179.559196 193.887728 
L 180.353465 193.887728 
L 180.353465 191.304618 
L 181.113925 191.304618 
L 181.113925 187.688264 
L 181.843337 187.688264 
L 181.843337 187.171642 
L 184.495323 187.171642 
L 184.495323 185.621776 
L 185.10108 185.621776 
L 185.10108 184.588532 
L 185.686972 184.588532 
L 185.686972 183.555288 
L 187.33751 183.555288 
L 187.33751 183.038666 
L 188.358823 183.038666 
L 188.358823 179.938934 
L 188.848391 179.938934 
L 188.848391 175.805957 
L 189.324902 175.805957 
L 189.324902 175.289335 
L 189.789035 175.289335 
L 189.789035 174.772713 
L 190.682627 174.772713 
L 190.682627 174.256091 
L 191.113205 174.256091 
L 191.113205 171.156359 
L 191.533651 171.156359 
L 191.533651 169.606493 
L 192.345978 169.606493 
L 192.345978 168.056627 
L 193.122975 168.056627 
L 193.122975 164.956895 
L 193.867587 164.956895 
L 193.867587 163.923651 
L 194.228571 163.923651 
L 194.228571 162.373785 
L 198.358102 162.373785 
L 198.358102 160.823919 
L 200.240696 160.823919 
L 200.240696 160.307297 
L 200.990517 160.307297 
L 200.990517 159.274053 
L 203.067861 159.274053 
L 203.067861 158.240809 
L 203.709898 158.240809 
L 203.709898 157.724187 
L 204.329664 157.724187 
L 204.329664 156.174321 
L 204.531566 156.174321 
L 204.531566 155.657699 
L 205.317104 155.657699 
L 205.317104 155.141077 
L 205.697291 155.141077 
L 205.697291 153.074589 
L 206.967641 153.074589 
L 206.967641 152.557967 
L 208.478522 152.557967 
L 208.478522 152.041345 
L 209.571237 152.041345 
L 209.571237 151.524723 
L 209.871548 151.524723 
L 209.871548 149.458235 
L 211.163782 149.458235 
L 211.163782 147.908369 
L 211.574562 147.908369 
L 211.574562 147.391747 
L 211.976109 147.391747 
L 211.976109 145.841881 
L 212.107978 145.841881 
L 212.107978 143.25877 
L 212.368831 143.25877 
L 212.368831 141.708904 
L 212.62593 141.708904 
L 212.62593 140.67566 
L 212.879383 140.67566 
L 212.879383 139.125794 
L 213.004774 139.125794 
L 213.004774 136.026062 
L 213.129291 136.026062 
L 213.129291 135.50944 
L 213.252946 135.50944 
L 213.252946 132.92633 
L 213.375752 132.92633 
L 213.375752 130.859842 
L 213.618859 130.859842 
L 213.618859 127.76011 
L 213.739183 127.76011 
L 213.739183 126.726866 
L 213.858703 126.726866 
L 213.858703 124.143756 
L 214.899859 124.143756 
L 214.899859 123.110512 
L 217.411793 123.110512 
L 217.411793 122.077268 
L 217.798146 122.077268 
L 217.893443 118.460914 
L 218.082525 118.460914 
L 218.176321 110.711584 
L 218.269628 110.711584 
L 218.362449 107.611851 
L 218.454791 107.611851 
L 218.546658 105.545363 
L 218.638055 105.545363 
L 218.728987 101.412387 
L 218.819459 101.412387 
L 218.909475 95.729545 
L 218.99904 95.729545 
L 219.088158 88.496837 
L 219.176833 88.496837 
L 219.265071 83.330617 
L 219.44025 83.330617 
L 219.44025 82.813995 
L 219.870828 82.813995 
L 219.870828 81.780751 
L 220.124281 81.780751 
L 220.124281 79.197641 
L 220.291274 79.197641 
L 220.291274 78.164397 
L 220.538873 78.164397 
L 220.620649 76.614531 
L 221.103601 76.614531 
L 221.103601 76.097908 
L 221.418465 76.097908 
L 221.496322 74.03142 
L 221.573841 74.03142 
L 221.573841 70.931688 
L 221.880598 70.931688 
L 221.956471 66.28209 
L 222.032023 66.28209 
L 222.107257 63.182358 
L 222.182176 63.182358 
L 222.256782 59.566004 
L 222.405066 59.566004 
L 222.478749 56.466272 
L 222.55213 56.466272 
L 222.62521 53.36654 
L 222.697993 53.36654 
L 222.77048 50.78343 
L 222.842675 50.78343 
L 222.914579 45.100588 
L 222.986194 45.100588 
L 222.986194 44.583966 
L 223.128571 44.583966 
L 223.128571 42.517478 
L 224.558783 42.517478 
L 224.558783 42.000855 
L 225.390008 42.000855 
L 225.390008 40.450989 
L 226.064357 40.450989 
L 226.064357 39.934367 
L 226.714178 39.934367 
L 226.714178 38.901123 
L 226.82983 38.901123 
L 226.82983 38.384501 
L 227.619086 38.384501 
L 227.67415 37.351257 
L 228.108654 37.351257 
L 228.108654 36.834635 
L 228.268907 36.834635 
L 228.37495 35.801391 
L 228.427736 35.801391 
L 228.427736 34.768147 
L 358.8 34.768147 
L 358.8 34.768147 
" style="fill:none;stroke:#0000ff;stroke-linecap:square;stroke-width:1.5;"/>
   </g>
   <g id="line2d_51">
    <defs>
     <path d="M 0 -6 
L -1.347084 -1.854102 
L -5.706339 -1.854102 
L -2.179628 0.708204 
L -3.526712 4.854102 
L -0 2.291796 
L 3.526712 4.854102 
L 2.179628 0.708204 
L 5.706339 -1.854102 
L 1.347084 -1.854102 
z
" id="m6bf59a5299" style="stroke:#0000ff;stroke-linejoin:bevel;stroke-width:1.5;"/>
    </defs>
    <g>
     <use style="fill:none;stroke:#0000ff;stroke-linejoin:bevel;stroke-width:1.5;" x="358.8" xlink:href="#m6bf59a5299" y="34.768147"/>
    </g>
   </g>
   <g id="line2d_52"/>
   <g id="line2d_53">
    <defs>
     <path d="M 0 1.5 
C 0.397805 1.5 0.77937 1.341951 1.06066 1.06066 
C 1.341951 0.77937 1.5 0.397805 1.5 0 
C 1.5 -0.397805 1.341951 -0.77937 1.06066 -1.06066 
C 0.77937 -1.341951 0.397805 -1.5 0 -1.5 
C -0.397805 -1.5 -0.77937 -1.341951 -1.06066 -1.06066 
C -1.341951 -0.77937 -1.5 -0.397805 -1.5 0 
C -1.5 0.397805 -1.341951 0.77937 -1.06066 1.06066 
C -0.77937 1.341951 -0.397805 1.5 0 1.5 
z
" id="m7dcfcbba16" style="stroke:#000000;"/>
    </defs>
    <g>
     <use style="stroke:#000000;" x="239.41567" xlink:href="#m7dcfcbba16" y="34.768147"/>
     <use style="stroke:#000000;" x="239.41567" xlink:href="#m7dcfcbba16" y="34.768147"/>
    </g>
   </g>
   <g id="line2d_54">
    <path d="M 29.657143 298.245375 
L 29.657143 277.580494 
L 136.713325 277.580494 
L 136.713325 268.79792 
L 143.958223 268.79792 
L 143.958223 266.21481 
L 149.098559 266.21481 
L 149.098559 260.531968 
L 153.085714 260.531968 
L 153.085714 256.398992 
L 156.343457 256.398992 
L 156.343457 253.29926 
L 159.097839 253.29926 
L 159.097839 250.199528 
L 161.483794 250.199528 
L 161.483794 246.066551 
L 163.588354 246.066551 
L 163.588354 243.483441 
L 165.470948 243.483441 
L 165.470948 241.416953 
L 167.173962 241.416953 
L 167.173962 239.350465 
L 168.728691 239.350465 
L 168.728691 234.184245 
L 170.158903 234.184245 
L 170.158903 230.051269 
L 171.483073 230.051269 
L 171.483073 227.468159 
L 172.715846 227.468159 
L 172.715846 224.368427 
L 173.869028 224.368427 
L 173.869028 223.335183 
L 174.952275 223.335183 
L 174.952275 220.235451 
L 175.973589 220.235451 
L 175.973589 219.202207 
L 176.939668 219.202207 
L 176.939668 217.652341 
L 177.856183 217.652341 
L 177.856183 214.035987 
L 178.727971 214.035987 
L 178.727971 211.969498 
L 179.559196 211.969498 
L 179.559196 208.353144 
L 180.353465 208.353144 
L 180.353465 207.836522 
L 181.113925 207.836522 
L 181.113925 206.286656 
L 181.843337 206.286656 
L 181.843337 205.770034 
L 182.544138 205.770034 
L 182.544138 203.186924 
L 183.218486 203.186924 
L 183.218486 201.637058 
L 183.868307 201.637058 
L 183.868307 199.57057 
L 184.495323 199.57057 
L 184.495323 199.053948 
L 185.10108 199.053948 
L 185.10108 194.40435 
L 185.686972 194.40435 
L 185.686972 193.371106 
L 186.254262 193.371106 
L 186.254262 191.304618 
L 187.33751 191.304618 
L 187.33751 190.787996 
L 187.855462 190.787996 
L 187.855462 189.754752 
L 189.789035 189.754752 
L 189.789035 188.721508 
L 190.241417 188.721508 
L 190.241417 186.65502 
L 190.682627 186.65502 
L 190.682627 186.138398 
L 191.113205 186.138398 
L 191.113205 183.555288 
L 192.345978 183.555288 
L 192.345978 182.522044 
L 192.738699 182.522044 
L 192.738699 180.972178 
L 193.122975 180.972178 
L 193.122975 179.938934 
L 193.867587 179.938934 
L 193.867587 177.872445 
L 204.531566 177.872445 
L 204.531566 177.355823 
L 211.163782 177.355823 
L 211.163782 176.839201 
L 211.976109 176.839201 
L 211.976109 176.322579 
L 212.107978 176.322579 
L 212.107978 175.805957 
L 212.23888 175.805957 
L 212.23888 174.256091 
L 214.09537 174.256091 
L 214.09537 173.739469 
L 214.212539 173.739469 
L 214.212539 172.706225 
L 214.787126 172.706225 
L 214.787126 172.189603 
L 215.453095 172.189603 
L 215.453095 171.672981 
L 216.199931 171.672981 
L 216.199931 171.156359 
L 217.215438 171.156359 
L 217.215438 170.123115 
L 217.893443 170.123115 
L 217.988234 167.023383 
L 218.082525 167.023383 
L 218.176321 162.373785 
L 218.269628 162.373785 
L 218.362449 155.141077 
L 218.454791 155.141077 
L 218.546658 146.875125 
L 218.638055 146.875125 
L 218.728987 142.742148 
L 218.819459 142.742148 
L 218.909475 136.542684 
L 218.99904 136.542684 
L 218.99904 132.409708 
L 222.256782 132.409708 
L 222.256782 131.893086 
L 222.478749 131.893086 
L 222.478749 131.376464 
L 222.697993 131.376464 
L 222.77048 128.276732 
L 222.842675 128.276732 
L 222.914579 126.210244 
L 222.986194 126.210244 
L 222.986194 124.660378 
L 224.754065 124.660378 
L 224.754065 124.143756 
L 225.514525 124.143756 
L 225.514525 123.627134 
L 225.760986 123.627134 
L 225.760986 123.110512 
L 225.943626 123.110512 
L 225.943626 122.59389 
L 226.362663 122.59389 
L 226.362663 122.077268 
L 226.887376 122.077268 
L 226.887376 121.560646 
L 227.058911 121.560646 
L 227.058911 121.044024 
L 227.285093 121.044024 
L 227.285093 119.494158 
L 227.563852 119.494158 
L 227.563852 118.460914 
L 227.729044 118.460914 
L 227.78377 115.877804 
L 228.108654 115.877804 
L 228.162232 113.811316 
L 228.322007 113.811316 
L 228.427736 109.161717 
L 228.480367 109.161717 
L 228.585165 100.895765 
L 228.637335 100.895765 
L 228.74122 97.279411 
L 228.792936 97.279411 
L 228.895923 90.046703 
L 228.947195 90.046703 
L 228.998319 85.913727 
L 229.150822 85.913727 
L 229.150822 84.880483 
L 230.278677 84.880483 
L 230.278677 83.847239 
L 230.747683 83.847239 
L 230.793914 81.264129 
L 230.886018 81.264129 
L 230.886018 80.230885 
L 231.068813 80.230885 
L 231.159515 75.064664 
L 231.204693 75.064664 
L 231.294709 71.964932 
L 231.339548 71.964932 
L 231.384274 70.415066 
L 233.528498 70.415066 
L 233.568073 68.348578 
L 233.646961 68.348578 
L 233.646961 67.831956 
L 233.84267 67.831956 
L 233.84267 67.315334 
L 234.341705 67.315334 
L 234.341705 65.248846 
L 234.604752 65.248846 
L 234.604752 63.182358 
L 234.716312 63.182358 
L 234.753345 62.149114 
L 234.863983 62.149114 
L 234.973941 58.016138 
L 235.010444 58.016138 
L 235.119507 53.883162 
L 235.155714 53.883162 
L 235.227909 47.683698 
L 235.299813 47.683698 
L 235.407129 42.517478 
L 235.442758 42.517478 
L 235.442758 42.000855 
L 235.619847 42.000855 
L 235.619847 40.967611 
L 236.580361 40.967611 
L 236.613728 38.384501 
L 236.713458 38.384501 
L 236.779636 35.801391 
L 237.074442 35.801391 
L 237.074442 35.284769 
L 239.41567 35.284769 
L 239.41567 34.768147 
L 358.8 34.768147 
L 358.8 34.768147 
" style="fill:none;stroke:#000000;stroke-linecap:square;stroke-width:1.5;"/>
   </g>
   <g id="line2d_55">
    <defs>
     <path d="M 0 6 
C 1.591219 6 3.117479 5.367802 4.242641 4.242641 
C 5.367802 3.117479 6 1.591219 6 0 
C 6 -1.591219 5.367802 -3.117479 4.242641 -4.242641 
C 3.117479 -5.367802 1.591219 -6 0 -6 
C -1.591219 -6 -3.117479 -5.367802 -4.242641 -4.242641 
C -5.367802 -3.117479 -6 -1.591219 -6 0 
C -6 1.591219 -5.367802 3.117479 -4.242641 4.242641 
C -3.117479 5.367802 -1.591219 6 0 6 
z
" id="m53d6bb7cbe" style="stroke:#000000;stroke-width:1.5;"/>
    </defs>
    <g>
     <use style="fill:none;stroke:#000000;stroke-width:1.5;" x="358.8" xlink:href="#m53d6bb7cbe" y="34.768147"/>
    </g>
   </g>
   <g id="line2d_56"/>
   <g id="line2d_57">
    <defs>
     <path d="M 0 1.5 
C 0.397805 1.5 0.77937 1.341951 1.06066 1.06066 
C 1.341951 0.77937 1.5 0.397805 1.5 0 
C 1.5 -0.397805 1.341951 -0.77937 1.06066 -1.06066 
C 0.77937 -1.341951 0.397805 -1.5 0 -1.5 
C -0.397805 -1.5 -0.77937 -1.341951 -1.06066 -1.06066 
C -1.341951 -0.77937 -1.5 -0.397805 -1.5 0 
C -1.5 0.397805 -1.341951 0.77937 -1.06066 1.06066 
C -0.77937 1.341951 -0.397805 1.5 0 1.5 
z
" id="m82d3a86cf4" style="stroke:#ff0000;"/>
    </defs>
    <g>
     <use style="fill:#ff0000;stroke:#ff0000;" x="249.861224" xlink:href="#m82d3a86cf4" y="34.768147"/>
     <use style="fill:#ff0000;stroke:#ff0000;" x="249.861224" xlink:href="#m82d3a86cf4" y="34.768147"/>
    </g>
   </g>
   <g id="line2d_58">
    <path d="M 17.271909 298.245375 
L 17.271909 292.045911 
L 124.328091 292.045911 
L 124.328091 288.429557 
L 131.572989 288.429557 
L 131.572989 285.846447 
L 136.713325 285.846447 
L 136.713325 282.746715 
L 140.70048 282.746715 
L 140.70048 280.680226 
L 143.958223 280.680226 
L 143.958223 277.580494 
L 146.712605 277.580494 
L 146.712605 275.514006 
L 149.098559 275.514006 
L 149.098559 273.96414 
L 151.20312 273.96414 
L 151.20312 270.864408 
L 153.085714 270.864408 
L 153.085714 270.347786 
L 154.788728 270.347786 
L 154.788728 267.764676 
L 156.343457 267.764676 
L 156.343457 266.21481 
L 157.773669 266.21481 
L 157.773669 265.181566 
L 159.097839 265.181566 
L 159.097839 263.6317 
L 160.330612 263.6317 
L 160.330612 262.081834 
L 161.483794 262.081834 
L 161.483794 257.432236 
L 162.567041 257.432236 
L 162.567041 255.365748 
L 163.588354 255.365748 
L 163.588354 253.29926 
L 164.554434 253.29926 
L 164.554434 252.266016 
L 165.470948 252.266016 
L 165.470948 251.749394 
L 166.342737 251.749394 
L 166.342737 249.166284 
L 167.968231 249.166284 
L 167.968231 247.616418 
L 169.458103 247.616418 
L 169.458103 245.033307 
L 170.158903 245.033307 
L 170.158903 241.416953 
L 170.833252 241.416953 
L 170.833252 238.317221 
L 171.483073 238.317221 
L 171.483073 237.283977 
L 172.110089 237.283977 
L 172.110089 233.151001 
L 172.715846 233.151001 
L 172.715846 232.634379 
L 173.301738 232.634379 
L 173.301738 231.084513 
L 173.869028 231.084513 
L 173.869028 229.534647 
L 174.418859 229.534647 
L 174.418859 228.501403 
L 175.470228 228.501403 
L 175.470228 225.918293 
L 175.973589 225.918293 
L 175.973589 222.301939 
L 176.463157 222.301939 
L 176.463157 221.785317 
L 176.939668 221.785317 
L 176.939668 218.685585 
L 177.403801 218.685585 
L 177.403801 218.168963 
L 177.856183 218.168963 
L 177.856183 217.652341 
L 178.297393 217.652341 
L 178.297393 216.619097 
L 178.727971 216.619097 
L 178.727971 214.035987 
L 179.148416 214.035987 
L 179.148416 213.002743 
L 179.559196 213.002743 
L 179.559196 211.452876 
L 180.353465 211.452876 
L 180.353465 208.869766 
L 181.113925 208.869766 
L 181.113925 208.353144 
L 181.482353 208.353144 
L 181.482353 207.3199 
L 181.843337 207.3199 
L 181.843337 206.803278 
L 191.533651 206.803278 
L 191.533651 206.286656 
L 192.543417 206.286656 
L 192.543417 205.770034 
L 193.122975 205.770034 
L 193.122975 204.73679 
L 193.312057 204.73679 
L 193.312057 204.220168 
L 193.499159 204.220168 
L 193.499159 203.186924 
L 193.684323 203.186924 
L 193.684323 202.670302 
L 193.867587 202.670302 
L 193.867587 202.15368 
L 194.228571 202.15368 
L 194.228571 201.637058 
L 201.592194 201.637058 
L 201.592194 201.120436 
L 202.174269 201.120436 
L 202.174269 200.087192 
L 202.514625 200.087192 
L 202.514625 199.57057 
L 202.626651 199.57057 
L 202.626651 199.053948 
L 202.848618 199.053948 
L 202.848618 198.537326 
L 203.391763 198.537326 
L 203.391763 197.504082 
L 203.709898 197.504082 
L 203.709898 196.470838 
L 203.918885 196.470838 
L 204.022468 192.854484 
L 204.631668 192.854484 
L 204.631668 192.337862 
L 205.22078 192.337862 
L 205.317104 190.271374 
L 205.603 190.271374 
L 205.697291 188.204886 
L 205.884393 188.204886 
L 205.884393 186.65502 
L 206.343753 186.65502 
L 206.434225 184.588532 
L 207.055016 184.588532 
L 207.055016 184.07191 
L 208.316819 184.07191 
L 208.316819 183.555288 
L 208.718366 183.555288 
L 208.797604 182.005422 
L 209.342644 182.005422 
L 209.419167 180.455556 
L 209.646789 180.455556 
L 209.646789 179.938934 
L 210.60096 179.938934 
L 210.60096 178.389067 
L 212.753106 178.389067 
L 212.753106 177.872445 
L 213.314454 177.872445 
L 213.314454 177.355823 
L 213.618859 177.355823 
L 213.618859 176.839201 
L 216.095133 176.839201 
L 216.147609 175.805957 
L 216.252101 175.805957 
L 216.252101 174.772713 
L 216.510689 174.772713 
L 216.510689 173.739469 
L 216.714898 173.739469 
L 216.714898 172.706225 
L 217.893443 172.706225 
L 217.893443 172.189603 
L 218.129485 172.189603 
L 218.129485 171.156359 
L 218.454791 171.156359 
L 218.546658 169.606493 
L 218.864524 169.606493 
L 218.954313 167.023383 
L 218.99904 167.023383 
L 218.99904 164.440273 
L 220.332779 164.440273 
L 220.332779 163.923651 
L 220.661397 163.923651 
L 220.702053 162.373785 
L 220.863756 162.373785 
L 220.863756 161.340541 
L 220.984081 161.340541 
L 221.063849 159.790675 
L 222.588707 159.790675 
L 222.588707 159.274053 
L 222.77048 159.274053 
L 222.878663 156.690943 
L 222.914579 156.690943 
L 222.914579 155.657699 
L 223.093083 155.657699 
L 223.093083 155.141077 
L 224.493212 155.141077 
L 224.558783 153.591211 
L 224.624114 153.591211 
L 224.689208 152.041345 
L 226.184277 152.041345 
L 226.214132 150.491479 
L 227.563852 150.491479 
L 227.563852 148.941613 
L 228.895923 148.941613 
L 228.972775 146.875125 
L 230.13554 146.875125 
L 230.231092 143.25877 
L 231.068813 143.25877 
L 231.068813 140.67566 
L 231.294709 140.67566 
L 231.384274 136.026062 
L 231.847261 136.026062 
L 231.847261 135.50944 
L 232.256062 135.50944 
L 232.362105 132.409708 
L 232.425429 132.409708 
L 232.446488 131.376464 
L 233.329297 131.376464 
L 233.429175 128.276732 
L 233.449084 128.276732 
L 233.488835 124.143756 
L 234.436096 124.143756 
L 234.454914 123.110512 
L 235.281864 123.110512 
L 235.335657 120.527402 
L 236.226192 120.527402 
L 236.243217 118.460914 
L 236.993038 118.460914 
L 236.993038 117.944292 
L 237.555227 117.944292 
L 237.618366 116.911048 
L 237.681282 116.911048 
L 237.775242 114.84456 
L 237.806453 114.84456 
L 237.884242 110.711584 
L 238.479646 110.711584 
L 238.584445 106.578607 
L 238.599366 106.578607 
L 238.629171 103.995497 
L 239.27261 103.995497 
L 239.358583 99.862521 
L 239.921405 99.862521 
L 239.935251 98.829277 
L 240.045634 98.829277 
L 240.059384 96.246167 
L 240.627532 96.246167 
L 240.707241 94.696301 
L 241.306811 94.696301 
L 241.358009 93.663057 
L 241.434532 93.663057 
L 241.434532 93.146435 
L 241.824764 93.146435 
L 241.911714 87.980215 
L 241.948849 87.980215 
L 242.010569 83.330617 
L 242.436746 83.330617 
L 242.54471 77.647775 
L 242.580554 77.647775 
L 242.616326 74.548042 
L 243.167601 74.548042 
L 243.225259 71.44831 
L 243.623736 71.44831 
L 243.724782 69.381822 
L 243.735974 69.381822 
L 243.769508 67.315334 
L 244.22161 67.315334 
L 244.308507 65.765468 
L 244.78958 65.765468 
L 244.852756 63.69898 
L 245.32982 63.69898 
L 245.391117 61.11587 
L 245.814409 61.11587 
L 245.874069 58.016138 
L 246.286202 58.016138 
L 246.363637 53.36654 
L 246.670064 53.36654 
L 246.670064 52.333296 
L 246.802491 52.333296 
L 246.82133 51.300052 
L 247.230825 51.300052 
L 247.304281 46.650454 
L 247.747726 46.650454 
L 247.747726 46.133832 
L 248.162974 46.133832 
L 248.197873 43.550722 
L 248.551709 43.550722 
L 248.594384 41.484233 
L 248.990626 41.484233 
L 249.007294 39.934367 
L 249.329251 39.934367 
L 249.435294 36.834635 
L 249.451552 36.834635 
L 249.451552 35.801391 
L 249.805547 35.801391 
L 249.861224 34.768147 
L 358.8 34.768147 
L 358.8 34.768147 
" style="fill:none;stroke:#ff0000;stroke-linecap:square;stroke-width:1.5;"/>
   </g>
   <g id="line2d_59">
    <defs>
     <path d="M -6 6 
L 6 6 
L 6 -6 
L -6 -6 
z
" id="m18bf0c37ed" style="stroke:#ff0000;stroke-linejoin:miter;stroke-width:1.5;"/>
    </defs>
    <g>
     <use style="fill:none;stroke:#ff0000;stroke-linejoin:miter;stroke-width:1.5;" x="358.8" xlink:href="#m18bf0c37ed" y="34.768147"/>
    </g>
   </g>
   <g id="line2d_60"/>
   <g id="line2d_61">
    <defs>
     <path d="M 0 1.5 
C 0.397805 1.5 0.77937 1.341951 1.06066 1.06066 
C 1.341951 0.77937 1.5 0.397805 1.5 0 
C 1.5 -0.397805 1.341951 -0.77937 1.06066 -1.06066 
C 0.77937 -1.341951 0.397805 -1.5 0 -1.5 
C -0.397805 -1.5 -0.77937 -1.341951 -1.06066 -1.06066 
C -1.341951 -0.77937 -1.5 -0.397805 -1.5 0 
C -1.5 0.397805 -1.341951 0.77937 -1.06066 1.06066 
C -0.77937 1.341951 -0.397805 1.5 0 1.5 
z
" id="m0c41166914" style="stroke:#bf00bf;"/>
    </defs>
    <g>
     <use style="fill:#bf00bf;stroke:#bf00bf;" x="266.777956" xlink:href="#m0c41166914" y="34.768147"/>
     <use style="fill:#bf00bf;stroke:#bf00bf;" x="266.777956" xlink:href="#m0c41166914" y="34.768147"/>
    </g>
   </g>
   <g id="line2d_62">
    <path d="M 128.315246 298.245375 
L 128.315246 296.695509 
L 131.572989 296.695509 
L 131.572989 294.629021 
L 134.327371 294.629021 
L 134.327371 293.079155 
L 138.817886 293.079155 
L 138.817886 289.979423 
L 140.70048 289.979423 
L 140.70048 288.429557 
L 142.403494 288.429557 
L 142.403494 287.912935 
L 143.958223 287.912935 
L 143.958223 286.363069 
L 146.712605 286.363069 
L 146.712605 285.846447 
L 147.945378 285.846447 
L 147.945378 284.813203 
L 149.098559 284.813203 
L 149.098559 284.296581 
L 151.20312 284.296581 
L 151.20312 283.263337 
L 152.1692 283.263337 
L 152.1692 282.230093 
L 153.085714 282.230093 
L 153.085714 281.196849 
L 154.788728 281.196849 
L 154.788728 280.163604 
L 156.343457 280.163604 
L 156.343457 278.097116 
L 157.072869 278.097116 
L 157.072869 275.514006 
L 159.097839 275.514006 
L 159.097839 273.96414 
L 159.724855 273.96414 
L 159.724855 272.414274 
L 161.483794 272.414274 
L 161.483794 271.38103 
L 162.033625 271.38103 
L 162.033625 270.864408 
L 162.567041 270.864408 
L 162.567041 269.831164 
L 163.084994 269.831164 
L 163.084994 268.79792 
L 163.588354 268.79792 
L 163.588354 266.731432 
L 164.554434 266.731432 
L 164.554434 264.664944 
L 165.018567 264.664944 
L 165.018567 264.148322 
L 165.470948 264.148322 
L 165.470948 263.115078 
L 165.912159 263.115078 
L 165.912159 262.598456 
L 166.342737 262.598456 
L 166.342737 261.04859 
L 167.173962 261.04859 
L 167.173962 259.498724 
L 167.575509 259.498724 
L 167.575509 257.948858 
L 167.968231 257.948858 
L 167.968231 256.915614 
L 168.728691 256.915614 
L 168.728691 253.29926 
L 179.148416 253.29926 
L 179.148416 252.782638 
L 179.960743 252.782638 
L 179.960743 251.749394 
L 180.546636 251.749394 
L 180.546636 251.232772 
L 180.926823 251.232772 
L 180.926823 249.682906 
L 181.482353 249.682906 
L 181.482353 248.649662 
L 181.663757 248.649662 
L 181.663757 247.099796 
L 181.843337 247.099796 
L 181.843337 246.583173 
L 188.108915 246.583173 
L 188.108915 246.066551 
L 188.727251 246.066551 
L 188.727251 245.549929 
L 188.968715 245.549929 
L 188.968715 244.000063 
L 193.958519 244.000063 
L 193.958519 243.483441 
L 194.317689 243.483441 
L 194.317689 242.450197 
L 194.494603 242.450197 
L 194.494603 241.933575 
L 194.929372 241.933575 
L 194.929372 240.900331 
L 195.10036 240.900331 
L 195.10036 240.383709 
L 195.269727 240.383709 
L 195.353812 238.317221 
L 195.60372 238.317221 
L 195.60372 237.800599 
L 195.768404 237.800599 
L 195.850181 236.250733 
L 196.012619 236.250733 
L 196.093288 235.217489 
L 196.253542 235.217489 
L 196.333132 233.667623 
L 196.41237 233.667623 
L 196.41237 232.117757 
L 196.5698 232.117757 
L 196.5698 231.601135 
L 196.803373 231.601135 
L 196.880557 229.534647 
L 196.95741 229.534647 
L 197.033933 227.468159 
L 197.110129 227.468159 
L 197.110129 226.951537 
L 197.261555 226.951537 
L 197.336789 224.885049 
L 197.411708 224.885049 
L 197.486314 223.851805 
L 197.56061 223.851805 
L 197.634598 222.301939 
L 197.781662 222.301939 
L 197.854742 220.752073 
L 199.983597 220.752073 
L 199.983597 220.235451 
L 200.367872 220.235451 
L 200.367872 219.202207 
L 200.744057 219.202207 
L 200.805991 217.652341 
L 200.990517 217.652341 
L 200.990517 217.135719 
L 201.233625 217.135719 
L 201.233625 216.102475 
L 201.413809 216.102475 
L 201.473469 214.552609 
L 203.918885 214.552609 
L 204.022468 211.969498 
L 206.161424 211.969498 
L 206.161424 211.452876 
L 206.298345 211.452876 
L 206.298345 210.936254 
L 206.524241 210.936254 
L 206.524241 210.419632 
L 209.304259 210.419632 
L 209.304259 209.90301 
L 209.871548 209.90301 
L 209.871548 209.386388 
L 210.529345 209.386388 
L 210.529345 208.869766 
L 212.042165 208.869766 
L 212.042165 208.353144 
L 213.406322 208.353144 
L 213.406322 207.836522 
L 215.067636 207.836522 
L 215.067636 207.3199 
L 215.206256 207.3199 
L 215.206256 206.286656 
L 216.042502 206.286656 
L 216.042502 205.253412 
L 216.304119 205.253412 
L 216.304119 204.73679 
L 217.557656 204.73679 
L 217.557656 204.220168 
L 217.774242 204.220168 
L 217.798146 203.186924 
L 219.265071 203.186924 
L 219.265071 202.15368 
L 219.5272 202.15368 
L 219.5272 201.637058 
L 219.656836 201.637058 
L 219.656836 201.120436 
L 220.082287 201.120436 
L 220.082287 198.537326 
L 221.84254 198.537326 
L 221.84254 197.504082 
L 222.050861 197.504082 
L 222.050861 196.98746 
L 222.331078 196.98746 
L 222.331078 195.954216 
L 222.734273 195.954216 
L 222.806614 194.920972 
L 222.986194 194.920972 
L 222.986194 193.371106 
L 223.789784 193.371106 
L 223.789784 192.854484 
L 224.476781 192.854484 
L 224.476781 191.82124 
L 225.483477 191.82124 
L 225.483477 191.304618 
L 226.169331 191.304618 
L 226.243937 189.23813 
L 229.302034 189.23813 
L 229.302034 188.721508 
L 229.514084 188.721508 
L 229.514084 188.204886 
L 229.918662 188.204886 
L 229.94289 187.171642 
L 230.219176 187.171642 
L 230.219176 186.65502 
L 230.782367 186.65502 
L 230.816984 185.621776 
L 231.361925 185.621776 
L 231.361925 185.105154 
L 231.869012 185.105154 
L 231.869012 184.588532 
L 232.81105 184.588532 
L 232.81105 183.555288 
L 232.975261 183.555288 
L 232.975261 183.038666 
L 233.279148 183.038666 
L 233.279148 182.005422 
L 233.910665 182.005422 
L 233.959075 179.938934 
L 234.919047 179.938934 
L 234.919047 179.422312 
L 235.335657 179.422312 
L 235.335657 178.90569 
L 236.370393 178.90569 
L 236.370393 177.872445 
L 237.05006 177.872445 
L 237.066318 176.839201 
L 237.436238 176.839201 
L 237.436238 175.289335 
L 237.84539 175.289335 
L 237.84539 174.772713 
L 238.487152 174.772713 
L 238.487152 174.256091 
L 238.614275 174.256091 
L 238.614275 173.739469 
L 238.85849 173.739469 
L 238.85849 173.222847 
L 238.975706 173.222847 
L 238.975706 172.706225 
L 239.358583 172.706225 
L 239.358583 171.672981 
L 239.712419 171.672981 
L 239.712419 170.639737 
L 239.990528 170.639737 
L 240.059384 169.089871 
L 240.399739 169.089871 
L 240.46032 167.540005 
L 240.799788 167.540005 
L 240.799788 166.506761 
L 241.048597 166.506761 
L 241.126454 164.440273 
L 241.293989 164.440273 
L 241.377171 162.890407 
L 241.498052 162.890407 
L 241.498052 161.857163 
L 241.680993 161.857163 
L 241.78737 160.823919 
L 242.316015 160.823919 
L 242.316015 159.790675 
L 243.488114 159.790675 
L 243.488114 158.757431 
L 243.70798 158.757431 
L 243.70798 158.240809 
L 244.139759 158.240809 
L 244.139759 157.207565 
L 244.582703 157.207565 
L 244.582703 156.690943 
L 244.8475 156.690943 
L 244.905232 154.624455 
L 245.077318 154.624455 
L 245.077318 154.107833 
L 245.319583 154.107833 
L 245.319583 153.074589 
L 245.859172 153.074589 
L 245.874069 151.524723 
L 246.042031 151.524723 
L 246.120529 148.424991 
L 246.397409 148.424991 
L 246.397409 147.908369 
L 247.189373 147.908369 
L 247.299699 146.875125 
L 247.304281 146.875125 
L 247.304281 146.358503 
L 247.509271 146.358503 
L 247.509271 145.841881 
L 247.631146 145.841881 
L 247.631146 145.325259 
L 248.031494 145.325259 
L 248.031494 144.808637 
L 248.615683 144.808637 
L 248.615683 144.292014 
L 248.83991 144.292014 
L 248.83991 143.25877 
L 249.036426 143.25877 
L 249.123537 141.708904 
L 249.41902 141.708904 
L 249.48808 139.642416 
L 249.649528 139.642416 
L 249.709697 138.09255 
L 249.857252 138.09255 
L 249.857252 137.575928 
L 250.058663 137.575928 
L 250.058663 136.026062 
L 250.246175 136.026062 
L 250.246175 135.50944 
L 250.630616 135.50944 
L 250.630616 134.992818 
L 250.879889 134.992818 
L 250.980871 133.442952 
L 251.192199 133.442952 
L 251.192199 131.893086 
L 251.379186 131.893086 
L 251.379186 131.376464 
L 251.546179 131.376464 
L 251.546179 130.859842 
L 251.733093 130.859842 
L 251.783084 128.276732 
L 251.974606 128.276732 
L 251.974606 126.210244 
L 252.615606 126.210244 
L 252.615606 124.143756 
L 252.761358 124.143756 
L 252.818655 123.110512 
L 252.939386 123.110512 
L 252.95275 121.560646 
L 253.280372 121.560646 
L 253.280372 121.044024 
L 253.414314 121.044024 
L 253.414314 120.01078 
L 253.531099 120.01078 
L 253.608534 118.460914 
L 253.765597 118.460914 
L 253.765597 117.42767 
L 254.066227 117.42767 
L 254.081911 116.394426 
L 254.272148 116.394426 
L 254.272148 115.877804 
L 254.395803 115.877804 
L 254.395803 115.361182 
L 254.992624 115.361182 
L 254.992624 114.84456 
L 255.140982 114.84456 
L 255.140982 113.811316 
L 255.285187 113.811316 
L 255.296908 112.26145 
L 255.419512 112.26145 
L 255.442771 109.678339 
L 255.601857 109.678339 
L 255.627754 108.128473 
L 255.748117 108.128473 
L 255.748117 107.611851 
L 255.870512 107.611851 
L 255.898856 105.545363 
L 256.149157 105.545363 
L 256.154742 103.995497 
L 256.293794 103.995497 
L 256.293794 103.478875 
L 257.361065 103.478875 
L 257.470335 101.929009 
L 257.478114 101.929009 
L 257.519547 100.379143 
L 257.614996 100.379143 
L 257.614996 99.345899 
L 257.76615 99.345899 
L 257.872977 97.279411 
L 257.903383 97.279411 
L 257.999326 94.696301 
L 258.162254 94.696301 
L 258.162254 93.663057 
L 258.382958 93.663057 
L 258.382958 93.146435 
L 258.770589 93.146435 
L 258.770589 92.629813 
L 258.897953 92.629813 
L 258.897953 92.113191 
L 259.022038 92.113191 
L 259.102707 90.563325 
L 259.223031 90.563325 
L 259.333205 86.946971 
L 259.597648 86.946971 
L 259.687224 85.397105 
L 259.819615 85.397105 
L 259.819615 84.363861 
L 259.932963 84.363861 
L 260.038859 83.330617 
L 260.054577 83.330617 
L 260.161987 82.297373 
L 260.173139 82.297373 
L 260.173139 81.780751 
L 260.39472 81.780751 
L 260.5023 79.197641 
L 260.691728 79.197641 
L 260.799693 76.097908 
L 260.896307 76.097908 
L 260.896307 75.581286 
L 261.119728 75.581286 
L 261.223042 72.481554 
L 261.327853 72.481554 
L 261.329943 70.415066 
L 261.568673 70.415066 
L 261.568673 69.898444 
L 261.779817 69.898444 
L 261.840849 68.348578 
L 261.917858 68.348578 
L 261.938068 67.315334 
L 262.160883 67.315334 
L 262.244472 66.28209 
L 262.335576 66.28209 
L 262.34545 64.215602 
L 262.539852 64.215602 
L 262.631409 63.182358 
L 262.830429 63.182358 
L 262.926247 60.082626 
L 263.236971 60.082626 
L 263.304462 58.53276 
L 263.390331 58.53276 
L 263.490609 56.466272 
L 263.67667 56.466272 
L 263.67667 55.94965 
L 263.789933 55.94965 
L 263.855371 54.399784 
L 264.037691 54.399784 
L 264.129052 51.816674 
L 264.209278 51.816674 
L 264.305076 50.78343 
L 264.391562 50.78343 
L 264.482887 47.683698 
L 264.672818 47.683698 
L 264.728196 45.100588 
L 264.822978 45.100588 
L 264.822978 42.517478 
L 264.992329 42.517478 
L 264.995734 41.484233 
L 265.14828 41.484233 
L 265.252615 39.934367 
L 265.421286 39.934367 
L 265.421286 39.417745 
L 265.585085 39.417745 
L 265.657406 37.867879 
L 265.744133 37.867879 
L 265.744133 37.351257 
L 265.927647 37.351257 
L 265.927647 36.834635 
L 266.252662 36.834635 
L 266.252662 35.284769 
L 266.777956 35.284769 
L 266.777956 34.768147 
L 358.8 34.768147 
L 358.8 34.768147 
" style="fill:none;stroke:#bf00bf;stroke-linecap:square;stroke-width:1.5;"/>
   </g>
   <g id="line2d_63">
    <defs>
     <path d="M -0 8.485281 
L 8.485281 0 
L 0 -8.485281 
L -8.485281 -0 
z
" id="m05d40cae3f" style="stroke:#bf00bf;stroke-linejoin:miter;stroke-width:1.5;"/>
    </defs>
    <g>
     <use style="fill:none;stroke:#bf00bf;stroke-linejoin:miter;stroke-width:1.5;" x="358.8" xlink:href="#m05d40cae3f" y="34.768147"/>
    </g>
   </g>
   <g id="line2d_64"/>
   <g id="line2d_65">
    <path d="M 358.8 34.768147 
L 390.48 292.97583 
" style="fill:none;stroke:#bf00bf;stroke-linecap:square;stroke-width:1.5;"/>
    <g>
     <use style="fill:none;stroke:#bf00bf;stroke-linejoin:miter;stroke-width:1.5;" x="358.8" xlink:href="#m05d40cae3f" y="34.768147"/>
     <use style="fill:none;stroke:#bf00bf;stroke-linejoin:miter;stroke-width:1.5;" x="390.48" xlink:href="#m05d40cae3f" y="292.97583"/>
    </g>
   </g>
   <g id="line2d_66">
    <path d="M 358.8 34.768147 
L 390.48 242.388203 
" style="fill:none;stroke:#ff0000;stroke-linecap:square;stroke-width:1.5;"/>
    <g>
     <use style="fill:none;stroke:#ff0000;stroke-linejoin:miter;stroke-width:1.5;" x="358.8" xlink:href="#m18bf0c37ed" y="34.768147"/>
     <use style="fill:none;stroke:#ff0000;stroke-linejoin:miter;stroke-width:1.5;" x="390.48" xlink:href="#m18bf0c37ed" y="242.388203"/>
    </g>
   </g>
   <g id="line2d_67">
    <path d="M 358.8 34.768147 
L 390.48 191.800575 
" style="fill:none;stroke:#000000;stroke-linecap:square;stroke-width:1.5;"/>
    <g>
     <use style="fill:none;stroke:#000000;stroke-width:1.5;" x="358.8" xlink:href="#m53d6bb7cbe" y="34.768147"/>
     <use style="fill:none;stroke:#000000;stroke-width:1.5;" x="390.48" xlink:href="#m53d6bb7cbe" y="191.800575"/>
    </g>
   </g>
   <g id="line2d_68">
    <path d="M 358.8 34.768147 
L 390.48 141.212947 
" style="fill:none;stroke:#0000ff;stroke-linecap:square;stroke-width:1.5;"/>
    <g>
     <use style="fill:none;stroke:#0000ff;stroke-linejoin:bevel;stroke-width:1.5;" x="358.8" xlink:href="#m6bf59a5299" y="34.768147"/>
     <use style="fill:none;stroke:#0000ff;stroke-linejoin:bevel;stroke-width:1.5;" x="390.48" xlink:href="#m6bf59a5299" y="141.212947"/>
    </g>
   </g>
   <g id="line2d_69">
    <path d="M 358.8 34.768147 
L 390.48 90.62532 
" style="fill:none;stroke:#00bfbf;stroke-linecap:square;stroke-width:1.5;"/>
    <g>
     <use style="fill:none;stroke:#00bfbf;stroke-width:1.5;" x="358.8" xlink:href="#m996b9a8d9a" y="34.768147"/>
     <use style="fill:none;stroke:#00bfbf;stroke-width:1.5;" x="390.48" xlink:href="#m996b9a8d9a" y="90.62532"/>
    </g>
   </g>
   <g id="line2d_70">
    <path d="M 358.8 34.768147 
L 390.48 40.037692 
" style="fill:none;stroke:#008000;stroke-linecap:square;stroke-width:1.5;"/>
    <g>
     <use style="fill:none;stroke:#008000;stroke-linejoin:miter;stroke-width:1.5;" x="358.8" xlink:href="#m6983366611" y="34.768147"/>
     <use style="fill:none;stroke:#008000;stroke-linejoin:miter;stroke-width:1.5;" x="390.48" xlink:href="#m6983366611" y="40.037692"/>
    </g>
   </g>
   <g id="line2d_71">
    <path d="M 358.8 298.245375 
L 358.8 34.768147 
" style="fill:none;stroke:#000000;stroke-linecap:square;stroke-width:1.5;"/>
   </g>
   <g id="patch_3">
    <path d="M 70.8 298.245375 
L 70.8 32.133375 
" style="fill:none;stroke:#000000;stroke-linecap:square;stroke-linejoin:miter;stroke-width:0.8;"/>
   </g>
   <g id="patch_4">
    <path d="M 427.92 298.245375 
L 427.92 32.133375 
" style="fill:none;stroke:#000000;stroke-linecap:square;stroke-linejoin:miter;stroke-width:0.8;"/>
   </g>
   <g id="patch_5">
    <path d="M 70.8 298.245375 
L 427.92 298.245375 
" style="fill:none;stroke:#000000;stroke-linecap:square;stroke-linejoin:miter;stroke-width:0.8;"/>
   </g>
   <g id="patch_6">
    <path d="M 70.8 32.133375 
L 427.92 32.133375 
" style="fill:none;stroke:#000000;stroke-linecap:square;stroke-linejoin:miter;stroke-width:0.8;"/>
   </g>
   <g id="text_14">
    <!-- 40-D -->
    <defs>
     <path d="M 19.671875 64.796875 
L 19.671875 8.109375 
L 31.59375 8.109375 
Q 46.6875 8.109375 53.6875 14.9375 
Q 60.6875 21.78125 60.6875 36.53125 
Q 60.6875 51.171875 53.6875 57.984375 
Q 46.6875 64.796875 31.59375 64.796875 
z
M 9.8125 72.90625 
L 30.078125 72.90625 
Q 51.265625 72.90625 61.171875 64.09375 
Q 71.09375 55.28125 71.09375 36.53125 
Q 71.09375 17.671875 61.125 8.828125 
Q 51.171875 0 30.078125 0 
L 9.8125 0 
z
" id="DejaVuSans-44"/>
    </defs>
    <g transform="translate(396.24 297.114893)scale(0.15 -0.15)">
     <use xlink:href="#DejaVuSans-34"/>
     <use x="63.623047" xlink:href="#DejaVuSans-30"/>
     <use x="127.246094" xlink:href="#DejaVuSans-2d"/>
     <use x="163.330078" xlink:href="#DejaVuSans-44"/>
    </g>
   </g>
   <g id="text_15">
    <!-- 20-D -->
    <g transform="translate(396.24 246.527265)scale(0.15 -0.15)">
     <use xlink:href="#DejaVuSans-32"/>
     <use x="63.623047" xlink:href="#DejaVuSans-30"/>
     <use x="127.246094" xlink:href="#DejaVuSans-2d"/>
     <use x="163.330078" xlink:href="#DejaVuSans-44"/>
    </g>
   </g>
   <g id="text_16">
    <!-- 10-D -->
    <g transform="translate(396.24 195.939637)scale(0.15 -0.15)">
     <use xlink:href="#DejaVuSans-31"/>
     <use x="63.623047" xlink:href="#DejaVuSans-30"/>
     <use x="127.246094" xlink:href="#DejaVuSans-2d"/>
     <use x="163.330078" xlink:href="#DejaVuSans-44"/>
    </g>
   </g>
   <g id="text_17">
    <!-- 5-D -->
    <defs>
     <path d="M 10.796875 72.90625 
L 49.515625 72.90625 
L 49.515625 64.59375 
L 19.828125 64.59375 
L 19.828125 46.734375 
Q 21.96875 47.46875 24.109375 47.828125 
Q 26.265625 48.1875 28.421875 48.1875 
Q 40.625 48.1875 47.75 41.5 
Q 54.890625 34.8125 54.890625 23.390625 
Q 54.890625 11.625 47.5625 5.09375 
Q 40.234375 -1.421875 26.90625 -1.421875 
Q 22.3125 -1.421875 17.546875 -0.640625 
Q 12.796875 0.140625 7.71875 1.703125 
L 7.71875 11.625 
Q 12.109375 9.234375 16.796875 8.0625 
Q 21.484375 6.890625 26.703125 6.890625 
Q 35.15625 6.890625 40.078125 11.328125 
Q 45.015625 15.765625 45.015625 23.390625 
Q 45.015625 31 40.078125 35.4375 
Q 35.15625 39.890625 26.703125 39.890625 
Q 22.75 39.890625 18.8125 39.015625 
Q 14.890625 38.140625 10.796875 36.28125 
z
" id="DejaVuSans-35"/>
    </defs>
    <g transform="translate(396.24 145.35201)scale(0.15 -0.15)">
     <use xlink:href="#DejaVuSans-35"/>
     <use x="63.623047" xlink:href="#DejaVuSans-2d"/>
     <use x="99.707031" xlink:href="#DejaVuSans-44"/>
    </g>
   </g>
   <g id="text_18">
    <!-- 2-D -->
    <g transform="translate(396.24 94.764382)scale(0.15 -0.15)">
     <use xlink:href="#DejaVuSans-32"/>
     <use x="63.623047" xlink:href="#DejaVuSans-2d"/>
     <use x="99.707031" xlink:href="#DejaVuSans-44"/>
    </g>
   </g>
   <g id="text_19">
    <!-- 3-D -->
    <defs>
     <path d="M 40.578125 39.3125 
Q 47.65625 37.796875 51.625 33 
Q 55.609375 28.21875 55.609375 21.1875 
Q 55.609375 10.40625 48.1875 4.484375 
Q 40.765625 -1.421875 27.09375 -1.421875 
Q 22.515625 -1.421875 17.65625 -0.515625 
Q 12.796875 0.390625 7.625 2.203125 
L 7.625 11.71875 
Q 11.71875 9.328125 16.59375 8.109375 
Q 21.484375 6.890625 26.8125 6.890625 
Q 36.078125 6.890625 40.9375 10.546875 
Q 45.796875 14.203125 45.796875 21.1875 
Q 45.796875 27.640625 41.28125 31.265625 
Q 36.765625 34.90625 28.71875 34.90625 
L 20.21875 34.90625 
L 20.21875 43.015625 
L 29.109375 43.015625 
Q 36.375 43.015625 40.234375 45.921875 
Q 44.09375 48.828125 44.09375 54.296875 
Q 44.09375 59.90625 40.109375 62.90625 
Q 36.140625 65.921875 28.71875 65.921875 
Q 24.65625 65.921875 20.015625 65.03125 
Q 15.375 64.15625 9.8125 62.3125 
L 9.8125 71.09375 
Q 15.4375 72.65625 20.34375 73.4375 
Q 25.25 74.21875 29.59375 74.21875 
Q 40.828125 74.21875 47.359375 69.109375 
Q 53.90625 64.015625 53.90625 55.328125 
Q 53.90625 49.265625 50.4375 45.09375 
Q 46.96875 40.921875 40.578125 39.3125 
" id="DejaVuSans-33"/>
    </defs>
    <g transform="translate(396.24 44.176754)scale(0.15 -0.15)">
     <use xlink:href="#DejaVuSans-33"/>
     <use x="63.623047" xlink:href="#DejaVuSans-2d"/>
     <use x="99.707031" xlink:href="#DejaVuSans-44"/>
    </g>
   </g>
   <g id="text_20">
    <!-- bbob - f1 -->
    <defs>
     <path d="M 48.6875 27.296875 
Q 48.6875 37.203125 44.609375 42.84375 
Q 40.53125 48.484375 33.40625 48.484375 
Q 26.265625 48.484375 22.1875 42.84375 
Q 18.109375 37.203125 18.109375 27.296875 
Q 18.109375 17.390625 22.1875 11.75 
Q 26.265625 6.109375 33.40625 6.109375 
Q 40.53125 6.109375 44.609375 11.75 
Q 48.6875 17.390625 48.6875 27.296875 
M 18.109375 46.390625 
Q 20.953125 51.265625 25.265625 53.625 
Q 29.59375 56 35.59375 56 
Q 45.5625 56 51.78125 48.09375 
Q 58.015625 40.1875 58.015625 27.296875 
Q 58.015625 14.40625 51.78125 6.484375 
Q 45.5625 -1.421875 35.59375 -1.421875 
Q 29.59375 -1.421875 25.265625 0.953125 
Q 20.953125 3.328125 18.109375 8.203125 
L 18.109375 0 
L 9.078125 0 
L 9.078125 75.984375 
L 18.109375 75.984375 
z
" id="DejaVuSans-62"/>
    </defs>
    <g transform="translate(74.3712 50.114612)scale(0.1666 -0.1666)">
     <use xlink:href="#DejaVuSans-62"/>
     <use x="63.476562" xlink:href="#DejaVuSans-62"/>
     <use x="126.953125" xlink:href="#DejaVuSans-6f"/>
     <use x="188.134766" xlink:href="#DejaVuSans-62"/>
     <use x="251.611328" xlink:href="#DejaVuSans-20"/>
     <use x="283.398438" xlink:href="#DejaVuSans-2d"/>
     <use x="319.482422" xlink:href="#DejaVuSans-20"/>
     <use x="351.269531" xlink:href="#DejaVuSans-66"/>
     <use x="386.474609" xlink:href="#DejaVuSans-31"/>
    </g>
    <!-- 51 targets in 100..1e-08 -->
    <g transform="translate(74.3712 68.770168)scale(0.1666 -0.1666)">
     <use xlink:href="#DejaVuSans-35"/>
     <use x="63.623047" xlink:href="#DejaVuSans-31"/>
     <use x="127.246094" xlink:href="#DejaVuSans-20"/>
     <use x="159.033203" xlink:href="#DejaVuSans-74"/>
     <use x="198.242188" xlink:href="#DejaVuSans-61"/>
     <use x="259.521484" xlink:href="#DejaVuSans-72"/>
     <use x="300.619141" xlink:href="#DejaVuSans-67"/>
     <use x="364.095703" xlink:href="#DejaVuSans-65"/>
     <use x="425.619141" xlink:href="#DejaVuSans-74"/>
     <use x="464.828125" xlink:href="#DejaVuSans-73"/>
     <use x="516.927734" xlink:href="#DejaVuSans-20"/>
     <use x="548.714844" xlink:href="#DejaVuSans-69"/>
     <use x="576.498047" xlink:href="#DejaVuSans-6e"/>
     <use x="639.876953" xlink:href="#DejaVuSans-20"/>
     <use x="671.664062" xlink:href="#DejaVuSans-31"/>
     <use x="735.287109" xlink:href="#DejaVuSans-30"/>
     <use x="798.910156" xlink:href="#DejaVuSans-30"/>
     <use x="862.533203" xlink:href="#DejaVuSans-2e"/>
     <use x="894.320312" xlink:href="#DejaVuSans-2e"/>
     <use x="926.107422" xlink:href="#DejaVuSans-31"/>
     <use x="989.730469" xlink:href="#DejaVuSans-65"/>
     <use x="1051.253906" xlink:href="#DejaVuSans-2d"/>
     <use x="1087.337891" xlink:href="#DejaVuSans-30"/>
     <use x="1150.960938" xlink:href="#DejaVuSans-38"/>
    </g>
    <!-- 15 instances -->
    <g transform="translate(74.3712 87.425723)scale(0.1666 -0.1666)">
     <use xlink:href="#DejaVuSans-31"/>
     <use x="63.623047" xlink:href="#DejaVuSans-35"/>
     <use x="127.246094" xlink:href="#DejaVuSans-20"/>
     <use x="159.033203" xlink:href="#DejaVuSans-69"/>
     <use x="186.816406" xlink:href="#DejaVuSans-6e"/>
     <use x="250.195312" xlink:href="#DejaVuSans-73"/>
     <use x="302.294922" xlink:href="#DejaVuSans-74"/>
     <use x="341.503906" xlink:href="#DejaVuSans-61"/>
     <use x="402.783203" xlink:href="#DejaVuSans-6e"/>
     <use x="466.162109" xlink:href="#DejaVuSans-63"/>
     <use x="521.142578" xlink:href="#DejaVuSans-65"/>
     <use x="582.666016" xlink:href="#DejaVuSans-73"/>
    </g>
   </g>
   <g id="text_21">
    <!-- v2.0.1 -->
    <g style="fill:#808080;" transform="translate(233.67875 293.504568)scale(0.1 -0.1)">
     <use xlink:href="#DejaVuSans-76"/>
     <use x="59.179688" xlink:href="#DejaVuSans-32"/>
     <use x="122.802734" xlink:href="#DejaVuSans-2e"/>
     <use x="154.589844" xlink:href="#DejaVuSans-30"/>
     <use x="218.212891" xlink:href="#DejaVuSans-2e"/>
     <use x="250" xlink:href="#DejaVuSans-31"/>
    </g>
   </g>
   <g id="text_22">
    <!-- 1 Sphere -->
    <defs>
     <path d="M 53.515625 70.515625 
L 53.515625 60.890625 
Q 47.90625 63.578125 42.921875 64.890625 
Q 37.9375 66.21875 33.296875 66.21875 
Q 25.25 66.21875 20.875 63.09375 
Q 16.5 59.96875 16.5 54.203125 
Q 16.5 49.359375 19.40625 46.890625 
Q 22.3125 44.4375 30.421875 42.921875 
L 36.375 41.703125 
Q 47.40625 39.59375 52.65625 34.296875 
Q 57.90625 29 57.90625 20.125 
Q 57.90625 9.515625 50.796875 4.046875 
Q 43.703125 -1.421875 29.984375 -1.421875 
Q 24.8125 -1.421875 18.96875 -0.25 
Q 13.140625 0.921875 6.890625 3.21875 
L 6.890625 13.375 
Q 12.890625 10.015625 18.65625 8.296875 
Q 24.421875 6.59375 29.984375 6.59375 
Q 38.421875 6.59375 43.015625 9.90625 
Q 47.609375 13.234375 47.609375 19.390625 
Q 47.609375 24.75 44.3125 27.78125 
Q 41.015625 30.8125 33.5 32.328125 
L 27.484375 33.5 
Q 16.453125 35.6875 11.515625 40.375 
Q 6.59375 45.0625 6.59375 53.421875 
Q 6.59375 63.09375 13.40625 68.65625 
Q 20.21875 74.21875 32.171875 74.21875 
Q 37.3125 74.21875 42.625 73.28125 
Q 47.953125 72.359375 53.515625 70.515625 
" id="DejaVuSans-53"/>
     <path d="M 54.890625 33.015625 
L 54.890625 0 
L 45.90625 0 
L 45.90625 32.71875 
Q 45.90625 40.484375 42.875 44.328125 
Q 39.84375 48.1875 33.796875 48.1875 
Q 26.515625 48.1875 22.3125 43.546875 
Q 18.109375 38.921875 18.109375 30.90625 
L 18.109375 0 
L 9.078125 0 
L 9.078125 75.984375 
L 18.109375 75.984375 
L 18.109375 46.1875 
Q 21.34375 51.125 25.703125 53.5625 
Q 30.078125 56 35.796875 56 
Q 45.21875 56 50.046875 50.171875 
Q 54.890625 44.34375 54.890625 33.015625 
" id="DejaVuSans-68"/>
    </defs>
    <g transform="translate(195.373125 26.133375)scale(0.24 -0.24)">
     <use xlink:href="#DejaVuSans-31"/>
     <use x="63.623047" xlink:href="#DejaVuSans-20"/>
     <use x="95.410156" xlink:href="#DejaVuSans-53"/>
     <use x="158.886719" xlink:href="#DejaVuSans-70"/>
     <use x="222.363281" xlink:href="#DejaVuSans-68"/>
     <use x="285.742188" xlink:href="#DejaVuSans-65"/>
     <use x="347.265625" xlink:href="#DejaVuSans-72"/>
     <use x="388.347656" xlink:href="#DejaVuSans-65"/>
    </g>
   </g>
  </g>
 </g>
 <defs>
  <clipPath id="pe5479bdaee">
   <rect height="266.112" width="357.12" x="70.8" y="32.133375"/>
  </clipPath>
 </defs>
</svg>
