<?xml version="1.0" encoding="utf-8" standalone="no"?>
<!DOCTYPE svg PUBLIC "-//W3C//DTD SVG 1.1//EN"
  "http://www.w3.org/Graphics/SVG/1.1/DTD/svg11.dtd">
<!-- Created with matplotlib (http://matplotlib.org/) -->
<svg height="415pt" version="1.1" viewBox="0 0 538 415" width="538pt" xmlns="http://www.w3.org/2000/svg" xmlns:xlink="http://www.w3.org/1999/xlink">
 <defs>
  <style type="text/css">
*{stroke-linecap:butt;stroke-linejoin:round;}
  </style>
 </defs>
 <g id="figure_1">
  <g id="patch_1">
   <path d="
M0 415.456
L538.8 415.456
L538.8 0
L0 0
z
" style="fill:#ffffff;"/>
  </g>
  <g id="axes_1">
   <g id="patch_2">
    <path d="
M85.2 359.056
L531.6 359.056
L531.6 13.4563
L85.2 13.4563
z
" style="fill:#ffffff;"/>
   </g>
   <g id="line2d_1">
    <defs>
     <path d="
M0 1.5
C0.397805 1.5 0.77937 1.34195 1.06066 1.06066
C1.34195 0.77937 1.5 0.397805 1.5 0
C1.5 -0.397805 1.34195 -0.77937 1.06066 -1.06066
C0.77937 -1.34195 0.397805 -1.5 0 -1.5
C-0.397805 -1.5 -0.77937 -1.34195 -1.06066 -1.06066
C-1.34195 -0.77937 -1.5 -0.397805 -1.5 0
C-1.5 0.397805 -1.34195 0.77937 -1.06066 1.06066
C-0.77937 1.34195 -0.397805 1.5 0 1.5
z
" id="ma8fc8663ec" style="stroke:#000080;stroke-width:0.5;"/>
    </defs>
    <g>
     <use style="fill:#000080;stroke:#000080;stroke-width:0.5;" x="303.019384581" xlink:href="#ma8fc8663ec" y="16.878125"/>
     <use style="fill:#000080;stroke:#000080;stroke-width:0.5;" x="303.019384581" xlink:href="#ma8fc8663ec" y="16.878125"/>
    </g>
   </g>
   <g id="line2d_2">
    <path d="
M69.7185 359.056
L69.7185 357.044
L168.414 357.044
L168.414 348.992
L169.207 348.992
L169.207 345.638
L170.222 345.638
L170.222 343.625
L170.469 343.625
L170.469 341.612
L171.194 341.612
L171.194 326.851
L172.124 326.851
L172.124 322.826
L172.576 322.826
L172.576 309.407
L187.029 309.407
L187.029 306.052
L187.492 306.052
L187.492 303.369
L187.833 303.369
L187.833 293.975
L188.057 293.975
L188.057 282.569
L196.433 282.569
L196.433 281.899
L196.662 281.899
L196.662 281.228
L196.813 281.228
L196.813 279.886
L196.964 279.886
L196.964 279.215
L207.33 279.215
L207.33 278.544
L209.697 278.544
L209.697 275.189
L212.445 275.189
L212.445 273.847
L215.91 273.847
L215.91 273.176
L221.376 273.176
L221.376 271.834
L222.069 271.834
L222.069 269.822
L223.462 269.822
L223.462 267.809
L224.446 267.809
L224.446 266.467
L229.36 266.467
L229.413 264.454
L236.567 264.454
L236.567 263.783
L236.744 263.783
L236.744 261.099
L239.295 261.099
L239.295 260.429
L241.907 260.429
L241.907 259.758
L253.075 259.758
L253.075 259.087
L257.424 259.087
L257.424 258.416
L257.918 258.416
L257.918 256.403
L258.829 256.403
L258.829 255.732
L259.459 255.732
L259.459 253.719
L259.844 253.719
L259.844 253.048
L260.249 253.048
L260.249 251.706
L260.407 251.706
L260.407 251.035
L262.08 251.035
L262.08 249.023
L262.685 249.023
L262.685 237.617
L263.278 237.617
L263.278 236.275
L264.116 236.275
L264.116 235.604
L265.409 235.604
L265.416 231.578
L265.897 231.578
L265.993 229.565
L266.435 229.565
L266.435 228.223
L266.789 228.223
L266.789 226.882
L267.177 226.882
L267.177 225.54
L267.354 225.54
L267.39 222.185
L267.546 222.185
L267.546 218.159
L267.755 218.159
L267.755 216.818
L267.949 216.818
L267.949 216.147
L268.302 216.147
L268.404 214.134
L268.909 214.134
L268.909 211.45
L269.037 211.45
L269.037 209.437
L269.595 209.437
L269.668 207.424
L270.069 207.424
L270.069 206.753
L271.068 206.753
L271.068 204.741
L271.539 204.741
L271.539 201.386
L271.779 201.386
L271.811 199.373
L272.041 199.373
L272.041 198.702
L272.299 198.702
L272.299 198.031
L272.537 198.031
L272.537 196.689
L272.747 196.689
L272.747 195.348
L273.057 195.348
L273.057 193.335
L273.267 193.335
L273.267 192.664
L273.699 192.664
L273.728 190.651
L273.872 190.651
L273.967 187.967
L274.013 187.967
L274.013 186.625
L274.172 186.625
L274.172 185.954
L274.465 185.954
L274.465 185.283
L274.639 185.283
L274.716 183.271
L274.879 183.271
L274.879 179.916
L275.038 179.916
L275.129 165.826
L275.265 165.826
L275.265 161.801
L275.433 161.801
L275.517 158.446
L275.776 158.446
L275.882 156.433
L276.147 156.433
L276.147 154.42
L276.39 154.42
L276.488 150.395
L276.925 150.395
L276.925 149.724
L277.325 149.724
L277.325 147.04
L279.23 147.04
L279.23 146.369
L279.414 146.369
L279.479 142.343
L279.848 142.343
L279.848 136.305
L280.552 136.305
L280.552 134.292
L280.755 134.292
L280.755 133.621
L280.952 133.621
L280.952 131.608
L281.437 131.608
L281.529 127.583
L281.557 127.583
L281.557 126.912
L282.317 126.912
L282.384 120.873
L282.464 120.873
L282.464 120.203
L282.601 120.203
L282.612 118.19
L282.876 118.19
L282.876 117.519
L283.069 117.519
L283.093 116.177
L283.191 116.177
L283.24 114.164
L283.421 114.164
L283.421 111.48
L283.577 111.48
L283.577 108.797
L283.747 108.797
L283.747 106.784
L284.042 106.784
L284.095 103.429
L284.489 103.429
L284.571 100.074
L284.713 100.074
L284.718 97.3906
L285.156 97.3906
L285.156 92.6941
L289.474 92.6941
L289.474 92.0231
L289.777 92.0231
L289.777 87.9975
L289.945 87.9975
L289.945 87.3266
L290.412 87.3266
L290.412 86.6556
L290.526 86.6556
L290.611 79.9463
L290.699 79.9463
L290.699 79.2753
L290.889 79.2753
L290.889 78.6044
L291.465 78.6044
L291.465 77.9335
L291.69 77.9335
L291.799 75.9206
L291.906 75.9206
L291.906 74.5788
L292.105 74.5788
L292.119 72.566
L292.34 72.566
L292.35 70.5531
L292.538 70.5531
L292.538 66.5275
L292.858 66.5275
L292.915 64.5147
L293.042 64.5147
L293.042 63.8438
L293.423 63.8438
L293.423 63.1728
L293.717 63.1728
L293.72 59.8181
L293.83 59.8181
L293.83 59.1472
L293.968 59.1472
L293.968 58.4763
L294.132 58.4763
L294.132 57.1344
L294.315 57.1344
L294.333 54.4506
L294.428 54.4506
L294.533 48.4122
L294.869 48.4122
L294.942 43.7156
L294.994 43.7156
L295.055 41.0319
L295.22 41.0319
L295.27 35.6644
L295.355 35.6644
L295.463 33.6516
L295.528 33.6516
L295.528 32.9806
L295.836 32.9806
L295.836 32.3097
L295.978 32.3097
L295.978 31.6388
L296.142 31.6388
L296.142 30.2969
L296.408 30.2969
L296.408 28.2841
L296.712 28.2841
L296.712 27.6131
L297.106 27.6131
L297.206 24.2584
L297.942 24.2584
L297.951 21.5747
L298.647 21.5747
L298.647 20.2328
L299.406 20.2328
L299.406 19.5619
L303.019 19.5619
L303.019 16.8781
L445.2 16.8781
L445.2 16.8781" style="fill:none;stroke:#000080;stroke-linecap:square;stroke-width:1.5;"/>
   </g>
   <g id="line2d_3">
    <defs>
     <path d="
M0 6
C1.59122 6 3.11748 5.3678 4.24264 4.24264
C5.3678 3.11748 6 1.59122 6 0
C6 -1.59122 5.3678 -3.11748 4.24264 -4.24264
C3.11748 -5.3678 1.59122 -6 0 -6
C-1.59122 -6 -3.11748 -5.3678 -4.24264 -4.24264
C-5.3678 -3.11748 -6 -1.59122 -6 0
C-6 1.59122 -5.3678 3.11748 -4.24264 4.24264
C-3.11748 5.3678 -1.59122 6 0 6
z
" id="mae466deef1" style="stroke:#000080;stroke-width:1.5;"/>
    </defs>
    <g>
     <use style="fill:none;stroke:#000080;stroke-width:1.5;" x="170.469157542" xlink:href="#mae466deef1" y="341.61196309"/>
     <use style="fill:none;stroke:#000080;stroke-width:1.5;" x="229.360228537" xlink:href="#mae466deef1" y="265.796005023"/>
     <use style="fill:none;stroke:#000080;stroke-width:1.5;" x="280.755386491" xlink:href="#mae466deef1" y="133.621281669"/>
     <use style="fill:none;stroke:#000080;stroke-width:1.5;" x="303.019384581" xlink:href="#mae466deef1" y="19.561875728"/>
     <use style="fill:none;stroke:#000080;stroke-width:1.5;" x="303.019384581" xlink:href="#mae466deef1" y="16.878125"/>
     <use style="fill:none;stroke:#000080;stroke-width:1.5;" x="445.2" xlink:href="#mae466deef1" y="16.878125"/>
    </g>
   </g>
   <g id="line2d_4"/>
   <g id="line2d_5">
    <defs>
     <path d="
M0 1.5
C0.397805 1.5 0.77937 1.34195 1.06066 1.06066
C1.34195 0.77937 1.5 0.397805 1.5 0
C1.5 -0.397805 1.34195 -0.77937 1.06066 -1.06066
C0.77937 -1.34195 0.397805 -1.5 0 -1.5
C-0.397805 -1.5 -0.77937 -1.34195 -1.06066 -1.06066
C-1.34195 -0.77937 -1.5 -0.397805 -1.5 0
C-1.5 0.397805 -1.34195 0.77937 -1.06066 1.06066
C-0.77937 1.34195 -0.397805 1.5 0 1.5
z
" id="m62d5190e8e" style="stroke:#ff00ff;stroke-width:0.5;"/>
    </defs>
    <g>
     <use style="fill:#ff00ff;stroke:#ff00ff;stroke-width:0.5;" x="298.902996212" xlink:href="#m62d5190e8e" y="16.878125"/>
     <use style="fill:#ff00ff;stroke:#ff00ff;stroke-width:0.5;" x="298.902996212" xlink:href="#m62d5190e8e" y="16.878125"/>
    </g>
   </g>
   <g id="line2d_6">
    <path d="
M168.143 359.056
L168.143 353.018
L169.72 353.018
L169.72 346.979
L170.469 346.979
L170.469 342.283
L171.194 342.283
L171.194 335.574
L171.43 335.574
L171.43 319.471
L171.664 319.471
L171.664 313.433
L172.124 313.433
L172.124 310.749
L172.351 310.749
L172.351 302.698
L172.576 302.698
L172.576 290.621
L185.704 290.621
L185.704 285.253
L186.195 285.253
L186.195 279.215
L187.029 279.215
L187.029 275.86
L187.833 275.86
L187.833 268.48
L194.594 268.48
L194.594 267.138
L196.124 267.138
L196.124 265.796
L196.662 265.796
L196.662 264.454
L211.133 264.454
L211.133 263.783
L217.399 263.783
L217.399 262.441
L225.285 262.441
L225.285 261.77
L228.97 261.77
L228.97 261.099
L242.529 261.099
L242.529 260.429
L245.661 260.429
L245.661 259.087
L245.788 259.087
L245.788 257.074
L246.205 257.074
L246.205 253.048
L247.938 253.048
L247.938 251.035
L252.922 251.035
L252.922 248.352
L257.662 248.352
L257.662 244.326
L259.559 244.326
L259.559 242.313
L260.009 242.313
L260.009 240.971
L260.213 240.971
L260.262 237.617
L260.551 237.617
L260.551 236.946
L260.698 236.946
L260.698 235.604
L261.404 235.604
L261.404 234.262
L262.442 234.262
L262.442 233.591
L263.15 233.591
L263.15 229.565
L263.784 229.565
L263.784 228.894
L265.777 228.894
L265.777 228.223
L266.156 228.223
L266.156 225.54
L266.515 225.54
L266.531 221.514
L267.508 221.514
L267.508 220.843
L268.583 220.843
L268.641 216.818
L269.256 216.818
L269.256 214.805
L270.748 214.805
L270.748 213.463
L270.94 213.463
L270.94 212.792
L271.634 212.792
L271.634 212.121
L271.824 212.121
L271.837 206.753
L272.067 206.753
L272.067 204.741
L272.297 204.741
L272.297 202.728
L272.461 202.728
L272.555 198.031
L272.611 198.031
L272.611 195.348
L272.86 195.348
L272.86 194.677
L273.082 194.677
L273.082 192.664
L273.253 192.664
L273.287 189.309
L273.6 189.309
L273.6 187.967
L273.831 187.967
L273.841 181.929
L273.953 181.929
L273.998 178.574
L274.19 178.574
L274.19 177.903
L274.451 177.903
L274.551 168.51
L274.605 168.51
L274.683 166.497
L274.835 166.497
L274.835 165.826
L275.063 165.826
L275.063 165.155
L275.33 165.155
L275.33 162.472
L275.462 162.472
L275.462 161.801
L275.877 161.801
L275.903 157.775
L276.244 157.775
L276.326 151.066
L276.762 151.066
L276.848 147.711
L277.019 147.711
L277.019 147.04
L277.312 147.04
L277.312 146.369
L277.431 146.369
L277.431 145.698
L277.669 145.698
L277.669 145.027
L277.99 145.027
L277.99 144.356
L278.385 144.356
L278.385 143.685
L279.099 143.685
L279.099 141.002
L279.527 141.002
L279.527 140.331
L280.078 140.331
L280.078 139.66
L280.239 139.66
L280.302 137.647
L280.401 137.647
L280.401 132.95
L281.255 132.95
L281.255 132.279
L281.384 132.279
L281.437 128.254
L281.635 128.254
L281.654 125.57
L281.775 125.57
L281.824 121.544
L281.983 121.544
L282.068 115.506
L282.119 115.506
L282.119 113.493
L282.428 113.493
L282.523 100.745
L282.55 100.745
L282.648 98.7325
L282.712 98.7325
L282.712 98.0616
L282.874 98.0616
L282.967 92.0231
L283.005 92.0231
L283.005 91.3522
L283.127 91.3522
L283.127 89.3394
L283.24 89.3394
L283.24 88.6685
L283.406 88.6685
L283.478 85.3138
L283.579 85.3138
L283.685 80.6172
L283.75 80.6172
L283.75 77.9335
L283.905 77.9335
L283.966 69.8822
L284.359 69.8822
L284.359 69.2113
L284.752 69.2113
L284.804 65.8566
L286.177 65.8566
L286.177 65.1856
L287.776 65.1856
L287.776 63.8438
L288.658 63.8438
L288.658 61.16
L289.309 61.16
L289.309 60.4891
L290.249 60.4891
L290.325 58.4763
L290.43 58.4763
L290.526 56.4634
L290.563 56.4634
L290.563 55.7925
L290.752 55.7925
L290.752 51.0959
L290.893 51.0959
L290.982 48.4122
L291.561 48.4122
L291.649 45.7284
L292.901 45.7284
L292.901 44.3866
L293.11 44.3866
L293.11 41.7028
L293.427 41.7028
L293.427 41.0319
L293.605 41.0319
L293.615 39.0191
L293.874 39.0191
L293.874 38.3481
L294.089 38.3481
L294.166 36.3353
L294.201 36.3353
L294.245 30.9678
L294.487 30.9678
L294.568 28.2841
L294.959 28.2841
L294.959 27.6131
L295.145 27.6131
L295.149 24.2584
L295.333 24.2584
L295.43 20.2328
L295.602 20.2328
L295.602 18.22
L297.268 18.22
L297.268 17.5491
L298.903 17.5491
L298.903 16.8781
L445.2 16.8781
L445.2 16.8781" style="fill:none;stroke:#ff00ff;stroke-linecap:square;stroke-width:1.5;"/>
   </g>
   <g id="line2d_7">
    <defs>
     <path d="
M-3.9968e-16 8.48528
L5.09117 0
L4.88498e-16 -8.48528
L-5.09117 -1.77636e-15
z
" id="mf6640c921f" style="stroke:#ff00ff;stroke-linejoin:miter;stroke-width:1.5;"/>
    </defs>
    <g>
     <use style="fill:none;stroke:#ff00ff;stroke-linejoin:miter;stroke-width:1.5;" x="211.133467881" xlink:href="#mf6640c921f" y="263.783191977"/>
     <use style="fill:none;stroke:#ff00ff;stroke-linejoin:miter;stroke-width:1.5;" x="276.847681549" xlink:href="#mf6640c921f" y="149.723786037"/>
     <use style="fill:none;stroke:#ff00ff;stroke-linejoin:miter;stroke-width:1.5;" x="295.332752333" xlink:href="#mf6640c921f" y="21.574688774"/>
     <use style="fill:none;stroke:#ff00ff;stroke-linejoin:miter;stroke-width:1.5;" x="298.902996212" xlink:href="#mf6640c921f" y="16.878125"/>
     <use style="fill:none;stroke:#ff00ff;stroke-linejoin:miter;stroke-width:1.5;" x="445.2" xlink:href="#mf6640c921f" y="16.878125"/>
    </g>
   </g>
   <g id="line2d_8"/>
   <g id="line2d_9">
    <defs>
     <path d="
M0 1.5
C0.397805 1.5 0.77937 1.34195 1.06066 1.06066
C1.34195 0.77937 1.5 0.397805 1.5 0
C1.5 -0.397805 1.34195 -0.77937 1.06066 -1.06066
C0.77937 -1.34195 0.397805 -1.5 0 -1.5
C-0.397805 -1.5 -0.77937 -1.34195 -1.06066 -1.06066
C-1.34195 -0.77937 -1.5 -0.397805 -1.5 0
C-1.5 0.397805 -1.34195 0.77937 -1.06066 1.06066
C-0.77937 1.34195 -0.397805 1.5 0 1.5
z
" id="m3747452efa" style="stroke:#ffa500;stroke-width:0.5;"/>
    </defs>
    <g>
     <use style="fill:#ffa500;stroke:#ffa500;stroke-width:0.5;" x="290.752890951" xlink:href="#m3747452efa" y="16.878125"/>
     <use style="fill:#ffa500;stroke:#ffa500;stroke-width:0.5;" x="290.752890951" xlink:href="#m3747452efa" y="16.878125"/>
    </g>
   </g>
   <g id="line2d_10">
    <path d="
M69.7185 359.056
L69.7185 355.031
L167.869 355.031
L167.869 345.638
L169.207 345.638
L169.207 340.941
L170.469 340.941
L170.469 336.244
L171.664 336.244
L171.664 329.535
L172.124 329.535
L172.124 316.116
L186.073 316.116
L186.073 311.42
L186.436 311.42
L186.436 308.065
L186.675 308.065
L186.675 304.039
L186.911 304.039
L186.911 302.027
L187.833 302.027
L187.833 293.975
L187.945 293.975
L187.945 286.595
L188.057 286.595
L188.057 279.215
L194.594 279.215
L194.594 278.544
L195.81 278.544
L195.81 277.873
L197.113 277.873
L197.113 277.202
L201.858 277.202
L201.918 273.847
L203.201 273.847
L203.201 272.505
L217.845 272.505
L217.845 269.822
L220.868 269.822
L220.868 269.151
L221.626 269.151
L221.626 268.48
L222.906 268.48
L222.906 267.809
L223.667 267.809
L223.667 267.138
L226.092 267.138
L226.092 266.467
L228.899 266.467
L228.899 265.796
L229.5 265.796
L229.5 265.125
L234.136 265.125
L234.136 263.783
L238.281 263.783
L238.281 262.441
L240.66 262.441
L240.66 261.77
L240.945 261.77
L240.945 261.099
L241.726 261.099
L241.726 258.416
L244.371 258.416
L244.371 257.745
L244.999 257.745
L244.999 255.732
L245.234 255.732
L245.234 253.048
L250.582 253.048
L250.582 251.035
L251.073 251.035
L251.073 249.023
L252.371 249.023
L252.371 248.352
L256.738 248.352
L256.738 246.339
L258.195 246.339
L258.195 241.642
L258.674 241.642
L258.674 237.617
L258.946 237.617
L258.998 233.591
L259.749 233.591
L259.749 232.249
L259.875 232.249
L259.875 229.565
L260.196 229.565
L260.196 228.223
L260.633 228.223
L260.633 226.211
L261.062 226.211
L261.062 223.527
L261.185 223.527
L261.185 222.856
L261.896 222.856
L261.896 222.185
L262.084 222.185
L262.084 220.843
L262.302 220.843
L262.302 219.501
L262.486 219.501
L262.55 217.488
L262.815 217.488
L262.882 216.147
L263.204 216.147
L263.204 215.476
L263.332 215.476
L263.351 213.463
L263.587 213.463
L263.606 208.095
L263.982 208.095
L263.982 205.412
L265.409 205.412
L265.433 202.728
L265.604 202.728
L265.604 202.057
L266.621 202.057
L266.621 201.386
L266.95 201.386
L266.999 196.018
L267.412 196.018
L267.412 194.006
L267.594 194.006
L267.594 193.335
L268.376 193.335
L268.376 189.309
L268.948 189.309
L268.948 187.296
L269.271 187.296
L269.35 185.954
L269.488 185.954
L269.549 184.613
L269.644 184.613
L269.711 182.6
L269.826 182.6
L269.826 180.587
L270.04 180.587
L270.063 169.181
L270.213 169.181
L270.216 165.155
L270.477 165.155
L270.477 164.484
L270.954 164.484
L271.028 161.801
L271.217 161.801
L271.298 156.433
L271.496 156.433
L271.515 151.066
L271.75 151.066
L271.861 145.698
L271.908 145.698
L271.908 145.027
L272.09 145.027
L272.09 142.343
L272.206 142.343
L272.294 137.647
L272.366 137.647
L272.463 132.95
L272.55 132.95
L272.618 128.925
L272.679 128.925
L272.679 128.254
L272.885 128.254
L272.885 127.583
L273.03 127.583
L273.042 124.228
L273.368 124.228
L273.368 123.557
L273.836 123.557
L273.85 120.873
L274.053 120.873
L274.053 120.203
L274.24 120.203
L274.327 114.835
L274.486 114.835
L274.5 108.797
L274.732 108.797
L274.775 104.1
L274.943 104.1
L274.945 98.7325
L275.125 98.7325
L275.125 98.0616
L275.397 98.0616
L275.471 95.3778
L275.776 95.3778
L275.776 94.7069
L277.731 94.7069
L277.731 92.6941
L279.792 92.6941
L279.792 92.0231
L280.04 92.0231
L280.04 90.6813
L280.336 90.6813
L280.336 86.6556
L281.105 86.6556
L281.105 85.9847
L282.109 85.9847
L282.109 83.301
L283.194 83.301
L283.194 81.9591
L283.624 81.9591
L283.624 75.9206
L283.818 75.9206
L283.818 73.9078
L284.233 73.9078
L284.242 70.5531
L284.532 70.5531
L284.532 67.1985
L284.857 67.1985
L284.857 66.5275
L285.25 66.5275
L285.25 63.8438
L285.719 63.8438
L285.719 63.1728
L285.855 63.1728
L285.855 62.5019
L286.061 62.5019
L286.061 61.8309
L287.213 61.8309
L287.217 58.4763
L287.345 58.4763
L287.379 49.0831
L287.488 49.0831
L287.492 46.3994
L287.747 46.3994
L287.747 45.7284
L287.896 45.7284
L287.896 45.0575
L288.154 45.0575
L288.154 44.3866
L288.28 44.3866
L288.385 41.7028
L288.405 41.7028
L288.473 37.0063
L288.526 37.0063
L288.622 31.6388
L288.654 31.6388
L288.654 30.9678
L288.876 30.9678
L288.973 27.6131
L289.022 27.6131
L289.076 25.6003
L289.244 25.6003
L289.352 24.2584
L289.364 24.2584
L289.448 20.9038
L290.09 20.9038
L290.183 18.22
L290.753 18.22
L290.753 16.8781
L445.2 16.8781
L445.2 16.8781" style="fill:none;stroke:#ffa500;stroke-linecap:square;stroke-width:1.5;"/>
   </g>
   <g id="line2d_11">
    <defs>
     <path d="
M3.67394e-16 -6
L-1.34708 -1.8541
L-5.70634 -1.8541
L-2.17963 0.708204
L-3.52671 4.8541
L-4.20996e-16 2.2918
L3.52671 4.8541
L2.17963 0.708204
L5.70634 -1.8541
L1.34708 -1.8541
z
" id="m73d367cfb6" style="stroke:#ffa500;stroke-linejoin:bevel;stroke-width:1.5;"/>
    </defs>
    <g>
     <use style="fill:none;stroke:#ffa500;stroke-linejoin:bevel;stroke-width:1.5;" x="188.057142857" xlink:href="#m73d367cfb6" y="286.595073165"/>
     <use style="fill:none;stroke:#ffa500;stroke-linejoin:bevel;stroke-width:1.5;" x="262.302209192" xlink:href="#m73d367cfb6" y="220.843180329"/>
     <use style="fill:none;stroke:#ffa500;stroke-linejoin:bevel;stroke-width:1.5;" x="286.061177211" xlink:href="#m73d367cfb6" y="62.5018873762"/>
     <use style="fill:none;stroke:#ffa500;stroke-linejoin:bevel;stroke-width:1.5;" x="290.752890951" xlink:href="#m73d367cfb6" y="18.220000364"/>
     <use style="fill:none;stroke:#ffa500;stroke-linejoin:bevel;stroke-width:1.5;" x="290.752890951" xlink:href="#m73d367cfb6" y="16.878125"/>
     <use style="fill:none;stroke:#ffa500;stroke-linejoin:bevel;stroke-width:1.5;" x="445.2" xlink:href="#m73d367cfb6" y="16.878125"/>
    </g>
   </g>
   <g id="line2d_12"/>
   <g id="line2d_13">
    <defs>
     <path d="
M0 1.5
C0.397805 1.5 0.77937 1.34195 1.06066 1.06066
C1.34195 0.77937 1.5 0.397805 1.5 0
C1.5 -0.397805 1.34195 -0.77937 1.06066 -1.06066
C0.77937 -1.34195 0.397805 -1.5 0 -1.5
C-0.397805 -1.5 -0.77937 -1.34195 -1.06066 -1.06066
C-1.34195 -0.77937 -1.5 -0.397805 -1.5 0
C-1.5 0.397805 -1.34195 0.77937 -1.06066 1.06066
C-0.77937 1.34195 -0.397805 1.5 0 1.5
z
" id="m03dd694df9" style="stroke:#6495ed;stroke-width:0.5;"/>
    </defs>
    <g>
     <use style="fill:#6495ed;stroke:#6495ed;stroke-width:0.5;" x="274.754734745" xlink:href="#m03dd694df9" y="16.878125"/>
     <use style="fill:#6495ed;stroke:#6495ed;stroke-width:0.5;" x="274.754734745" xlink:href="#m03dd694df9" y="16.878125"/>
    </g>
   </g>
   <g id="line2d_14">
    <path d="
M69.7185 359.056
L69.7185 351.676
L168.681 351.676
L168.681 328.864
L168.946 328.864
L168.946 325.509
L169.72 325.509
L169.72 314.774
L169.973 314.774
L169.973 307.394
L170.222 307.394
L170.222 299.343
L170.713 299.343
L170.713 295.988
L171.194 295.988
L171.194 289.95
L171.43 289.95
L171.43 287.937
L172.576 287.937
L172.576 260.429
L185.828 260.429
L185.828 255.061
L188.057 255.061
L188.057 247.01
L194.427 247.01
L194.427 246.339
L197.113 246.339
L197.113 245.668
L211.449 245.668
L211.449 240.971
L212.595 240.971
L212.595 239.629
L216.197 239.629
L216.197 237.617
L219.977 237.617
L219.977 236.946
L221.651 236.946
L221.651 234.933
L226.133 234.933
L226.133 234.262
L228.076 234.262
L228.076 222.856
L229.864 222.856
L229.864 207.424
L231.519 207.424
L231.519 185.283
L232.639 185.283
L232.639 183.942
L247.001 183.942
L247.001 172.536
L249.274 172.536
L249.274 169.852
L249.439 169.852
L249.439 159.788
L252.614 159.788
L252.614 157.104
L254.967 157.104
L254.967 155.091
L255.519 155.091
L255.519 153.749
L256.057 153.749
L256.057 153.078
L256.583 153.078
L256.583 151.737
L257.618 151.737
L257.618 149.053
L258.089 149.053
L258.089 147.711
L258.89 147.711
L258.89 146.369
L259.039 146.369
L259.039 145.027
L259.839 145.027
L259.839 144.356
L260.398 144.356
L260.398 142.343
L263.049 142.343
L263.049 141.002
L263.606 141.002
L263.606 139.66
L264.914 139.66
L264.914 138.318
L266.044 138.318
L266.044 136.976
L266.491 136.976
L266.491 135.634
L266.921 135.634
L266.921 134.963
L267.041 134.963
L267.041 134.292
L267.47 134.292
L267.47 125.57
L267.606 125.57
L267.606 123.557
L268.099 123.557
L268.099 122.886
L268.37 122.886
L268.37 121.544
L268.711 121.544
L268.711 120.203
L268.975 120.203
L268.975 118.19
L269.522 118.19
L269.522 107.455
L269.852 107.455
L269.886 94.7069
L270.077 94.7069
L270.077 85.3138
L270.351 85.3138
L270.46 73.2369
L270.696 73.2369
L270.729 67.1985
L270.913 67.1985
L270.913 63.8438
L271.087 63.8438
L271.087 61.8309
L271.389 61.8309
L271.389 52.4378
L271.509 52.4378
L271.509 51.7669
L271.655 51.7669
L271.655 49.0831
L271.973 49.0831
L271.999 45.0575
L272.144 45.0575
L272.144 44.3866
L272.258 44.3866
L272.333 31.6388
L272.496 31.6388
L272.55 28.955
L272.689 28.955
L272.689 26.9422
L272.802 26.9422
L272.802 25.6003
L273.082 25.6003
L273.082 23.5875
L273.299 23.5875
L273.336 20.9038
L273.544 20.9038
L273.58 18.22
L273.821 18.22
L273.821 17.5491
L274.755 17.5491
L274.755 16.8781
L445.2 16.8781
L445.2 16.8781" style="fill:none;stroke:#6495ed;stroke-linecap:square;stroke-width:1.5;"/>
   </g>
   <g id="line2d_15">
    <defs>
     <path d="
M-7.34788e-16 6
L6 -6
L-6 -6
z
" id="md7b19447de" style="stroke:#6495ed;stroke-linejoin:miter;stroke-width:1.5;"/>
    </defs>
    <g>
     <use style="fill:none;stroke:#6495ed;stroke-linejoin:miter;stroke-width:1.5;" x="171.193604122" xlink:href="#md7b19447de" y="295.988200713"/>
     <use style="fill:none;stroke:#6495ed;stroke-linejoin:miter;stroke-width:1.5;" x="216.196754811" xlink:href="#md7b19447de" y="237.616622379"/>
     <use style="fill:none;stroke:#6495ed;stroke-linejoin:miter;stroke-width:1.5;" x="268.974540082" xlink:href="#md7b19447de" y="118.189714983"/>
     <use style="fill:none;stroke:#6495ed;stroke-linejoin:miter;stroke-width:1.5;" x="274.754734745" xlink:href="#md7b19447de" y="16.878125"/>
     <use style="fill:none;stroke:#6495ed;stroke-linejoin:miter;stroke-width:1.5;" x="274.754734745" xlink:href="#md7b19447de" y="16.878125"/>
     <use style="fill:none;stroke:#6495ed;stroke-linejoin:miter;stroke-width:1.5;" x="445.2" xlink:href="#md7b19447de" y="16.878125"/>
    </g>
   </g>
   <g id="line2d_16"/>
   <g id="line2d_17">
    <path d="
M445.2 16.8781
L484.8 352.213" style="fill:none;stroke:#000080;stroke-linecap:square;stroke-width:1.5;"/>
    <g>
     <use style="fill:none;stroke:#000080;stroke-width:1.5;" x="445.2" xlink:href="#mae466deef1" y="16.878125"/>
     <use style="fill:none;stroke:#000080;stroke-width:1.5;" x="484.8" xlink:href="#mae466deef1" y="352.212778465"/>
    </g>
   </g>
   <g id="line2d_18">
    <path d="
M445.2 16.8781
L484.8 242.716" style="fill:none;stroke:#ff00ff;stroke-linecap:square;stroke-width:1.5;"/>
    <g>
     <use style="fill:none;stroke:#ff00ff;stroke-linejoin:miter;stroke-width:1.5;" x="445.2" xlink:href="#mf6640c921f" y="16.878125"/>
     <use style="fill:none;stroke:#ff00ff;stroke-linejoin:miter;stroke-width:1.5;" x="484.8" xlink:href="#mf6640c921f" y="242.715748762"/>
    </g>
   </g>
   <g id="line2d_19">
    <path d="
M445.2 16.8781
L484.8 133.219" style="fill:none;stroke:#ffa500;stroke-linecap:square;stroke-width:1.5;"/>
    <g>
     <use style="fill:none;stroke:#ffa500;stroke-linejoin:bevel;stroke-width:1.5;" x="445.2" xlink:href="#m73d367cfb6" y="16.878125"/>
     <use style="fill:none;stroke:#ffa500;stroke-linejoin:bevel;stroke-width:1.5;" x="484.8" xlink:href="#m73d367cfb6" y="133.218719059"/>
    </g>
   </g>
   <g id="line2d_20">
    <path d="
M445.2 16.8781
L484.8 23.7217" style="fill:none;stroke:#6495ed;stroke-linecap:square;stroke-width:1.5;"/>
    <g>
     <use style="fill:none;stroke:#6495ed;stroke-linejoin:miter;stroke-width:1.5;" x="445.2" xlink:href="#md7b19447de" y="16.878125"/>
     <use style="fill:none;stroke:#6495ed;stroke-linejoin:miter;stroke-width:1.5;" x="484.8" xlink:href="#md7b19447de" y="23.7216893564"/>
    </g>
   </g>
   <g id="line2d_21">
    <path d="
M445.2 359.056
L445.2 16.8781" style="fill:none;stroke:#000000;stroke-linecap:square;"/>
   </g>
   <g id="patch_3">
    <path d="
M85.2 13.4563
L531.6 13.4563" style="fill:none;stroke:#000000;stroke-linecap:square;stroke-linejoin:miter;"/>
   </g>
   <g id="patch_4">
    <path d="
M531.6 359.056
L531.6 13.4563" style="fill:none;stroke:#000000;stroke-linecap:square;stroke-linejoin:miter;"/>
   </g>
   <g id="patch_5">
    <path d="
M85.2 359.056
L531.6 359.056" style="fill:none;stroke:#000000;stroke-linecap:square;stroke-linejoin:miter;"/>
   </g>
   <g id="patch_6">
    <path d="
M85.2 359.056
L85.2 13.4563" style="fill:none;stroke:#000000;stroke-linecap:square;stroke-linejoin:miter;"/>
   </g>
   <g id="matplotlib.axis_1">
    <g id="xtick_1">
     <g id="line2d_22">
      <path clip-path="url(#p54ce849065)" d="
M85.2 359.056
L85.2 13.4563" style="fill:none;stroke:#000000;stroke-dasharray:1.000000,3.000000;stroke-dashoffset:0.0;stroke-width:0.5;"/>
     </g>
     <g id="line2d_23">
      <defs>
       <path d="
M0 0
L0 -4" id="m93b0483c22" style="stroke:#000000;stroke-width:0.5;"/>
      </defs>
      <g>
       <use style="stroke:#000000;stroke-width:0.5;" x="85.2" xlink:href="#m93b0483c22" y="359.056342822"/>
      </g>
     </g>
     <g id="line2d_24">
      <defs>
       <path d="
M0 0
L0 4" id="m741efc42ff" style="stroke:#000000;stroke-width:0.5;"/>
      </defs>
      <g>
       <use style="stroke:#000000;stroke-width:0.5;" x="85.2" xlink:href="#m741efc42ff" y="13.4563428218"/>
      </g>
     </g>
     <g id="text_1">
      <!-- 0 -->
      <defs>
       <path d="
M31.7812 66.4062
Q24.1719 66.4062 20.3281 58.9062
Q16.5 51.4219 16.5 36.375
Q16.5 21.3906 20.3281 13.8906
Q24.1719 6.39062 31.7812 6.39062
Q39.4531 6.39062 43.2812 13.8906
Q47.125 21.3906 47.125 36.375
Q47.125 51.4219 43.2812 58.9062
Q39.4531 66.4062 31.7812 66.4062
M31.7812 74.2188
Q44.0469 74.2188 50.5156 64.5156
Q56.9844 54.8281 56.9844 36.375
Q56.9844 17.9688 50.5156 8.26562
Q44.0469 -1.42188 31.7812 -1.42188
Q19.5312 -1.42188 13.0625 8.26562
Q6.59375 17.9688 6.59375 36.375
Q6.59375 54.8281 13.0625 64.5156
Q19.5312 74.2188 31.7812 74.2188" id="BitstreamVeraSans-Roman-30"/>
      </defs>
      <g transform="translate(80.1609375 378.253217822)scale(0.2 -0.2)">
       <use xlink:href="#BitstreamVeraSans-Roman-30"/>
      </g>
     </g>
    </g>
    <g id="xtick_2">
     <g id="line2d_25">
      <path clip-path="url(#p54ce849065)" d="
M136.629 359.056
L136.629 13.4563" style="fill:none;stroke:#000000;stroke-dasharray:1.000000,3.000000;stroke-dashoffset:0.0;stroke-width:0.5;"/>
     </g>
     <g id="line2d_26">
      <g>
       <use style="stroke:#000000;stroke-width:0.5;" x="136.628571429" xlink:href="#m93b0483c22" y="359.056342822"/>
      </g>
     </g>
     <g id="line2d_27">
      <g>
       <use style="stroke:#000000;stroke-width:0.5;" x="136.628571429" xlink:href="#m741efc42ff" y="13.4563428218"/>
      </g>
     </g>
     <g id="text_2">
      <!-- 1 -->
      <defs>
       <path d="
M12.4062 8.29688
L28.5156 8.29688
L28.5156 63.9219
L10.9844 60.4062
L10.9844 69.3906
L28.4219 72.9062
L38.2812 72.9062
L38.2812 8.29688
L54.3906 8.29688
L54.3906 0
L12.4062 0
z
" id="BitstreamVeraSans-Roman-31"/>
      </defs>
      <g transform="translate(132.287946429 378.253217822)scale(0.2 -0.2)">
       <use xlink:href="#BitstreamVeraSans-Roman-31"/>
      </g>
     </g>
    </g>
    <g id="xtick_3">
     <g id="line2d_28">
      <path clip-path="url(#p54ce849065)" d="
M188.057 359.056
L188.057 13.4563" style="fill:none;stroke:#000000;stroke-dasharray:1.000000,3.000000;stroke-dashoffset:0.0;stroke-width:0.5;"/>
     </g>
     <g id="line2d_29">
      <g>
       <use style="stroke:#000000;stroke-width:0.5;" x="188.057142857" xlink:href="#m93b0483c22" y="359.056342822"/>
      </g>
     </g>
     <g id="line2d_30">
      <g>
       <use style="stroke:#000000;stroke-width:0.5;" x="188.057142857" xlink:href="#m741efc42ff" y="13.4563428218"/>
      </g>
     </g>
     <g id="text_3">
      <!-- 2 -->
      <defs>
       <path d="
M19.1875 8.29688
L53.6094 8.29688
L53.6094 0
L7.32812 0
L7.32812 8.29688
Q12.9375 14.1094 22.625 23.8906
Q32.3281 33.6875 34.8125 36.5312
Q39.5469 41.8438 41.4219 45.5312
Q43.3125 49.2188 43.3125 52.7812
Q43.3125 58.5938 39.2344 62.25
Q35.1562 65.9219 28.6094 65.9219
Q23.9688 65.9219 18.8125 64.3125
Q13.6719 62.7031 7.8125 59.4219
L7.8125 69.3906
Q13.7656 71.7812 18.9375 73
Q24.125 74.2188 28.4219 74.2188
Q39.75 74.2188 46.4844 68.5469
Q53.2188 62.8906 53.2188 53.4219
Q53.2188 48.9219 51.5312 44.8906
Q49.8594 40.875 45.4062 35.4062
Q44.1875 33.9844 37.6406 27.2188
Q31.1094 20.4531 19.1875 8.29688" id="BitstreamVeraSans-Roman-32"/>
      </defs>
      <g transform="translate(183.429017857 378.253217822)scale(0.2 -0.2)">
       <use xlink:href="#BitstreamVeraSans-Roman-32"/>
      </g>
     </g>
    </g>
    <g id="xtick_4">
     <g id="line2d_31">
      <path clip-path="url(#p54ce849065)" d="
M239.486 359.056
L239.486 13.4563" style="fill:none;stroke:#000000;stroke-dasharray:1.000000,3.000000;stroke-dashoffset:0.0;stroke-width:0.5;"/>
     </g>
     <g id="line2d_32">
      <g>
       <use style="stroke:#000000;stroke-width:0.5;" x="239.485714286" xlink:href="#m93b0483c22" y="359.056342822"/>
      </g>
     </g>
     <g id="line2d_33">
      <g>
       <use style="stroke:#000000;stroke-width:0.5;" x="239.485714286" xlink:href="#m741efc42ff" y="13.4563428218"/>
      </g>
     </g>
     <g id="text_4">
      <!-- 3 -->
      <defs>
       <path d="
M40.5781 39.3125
Q47.6562 37.7969 51.625 33
Q55.6094 28.2188 55.6094 21.1875
Q55.6094 10.4062 48.1875 4.48438
Q40.7656 -1.42188 27.0938 -1.42188
Q22.5156 -1.42188 17.6562 -0.515625
Q12.7969 0.390625 7.625 2.20312
L7.625 11.7188
Q11.7188 9.32812 16.5938 8.10938
Q21.4844 6.89062 26.8125 6.89062
Q36.0781 6.89062 40.9375 10.5469
Q45.7969 14.2031 45.7969 21.1875
Q45.7969 27.6406 41.2812 31.2656
Q36.7656 34.9062 28.7188 34.9062
L20.2188 34.9062
L20.2188 43.0156
L29.1094 43.0156
Q36.375 43.0156 40.2344 45.9219
Q44.0938 48.8281 44.0938 54.2969
Q44.0938 59.9062 40.1094 62.9062
Q36.1406 65.9219 28.7188 65.9219
Q24.6562 65.9219 20.0156 65.0312
Q15.375 64.1562 9.8125 62.3125
L9.8125 71.0938
Q15.4375 72.6562 20.3438 73.4375
Q25.25 74.2188 29.5938 74.2188
Q40.8281 74.2188 47.3594 69.1094
Q53.9062 64.0156 53.9062 55.3281
Q53.9062 49.2656 50.4375 45.0938
Q46.9688 40.9219 40.5781 39.3125" id="BitstreamVeraSans-Roman-33"/>
      </defs>
      <g transform="translate(234.687276786 378.253217822)scale(0.2 -0.2)">
       <use xlink:href="#BitstreamVeraSans-Roman-33"/>
      </g>
     </g>
    </g>
    <g id="xtick_5">
     <g id="line2d_34">
      <path clip-path="url(#p54ce849065)" d="
M290.914 359.056
L290.914 13.4563" style="fill:none;stroke:#000000;stroke-dasharray:1.000000,3.000000;stroke-dashoffset:0.0;stroke-width:0.5;"/>
     </g>
     <g id="line2d_35">
      <g>
       <use style="stroke:#000000;stroke-width:0.5;" x="290.914285714" xlink:href="#m93b0483c22" y="359.056342822"/>
      </g>
     </g>
     <g id="line2d_36">
      <g>
       <use style="stroke:#000000;stroke-width:0.5;" x="290.914285714" xlink:href="#m741efc42ff" y="13.4563428218"/>
      </g>
     </g>
     <g id="text_5">
      <!-- 4 -->
      <defs>
       <path d="
M37.7969 64.3125
L12.8906 25.3906
L37.7969 25.3906
z

M35.2031 72.9062
L47.6094 72.9062
L47.6094 25.3906
L58.0156 25.3906
L58.0156 17.1875
L47.6094 17.1875
L47.6094 0
L37.7969 0
L37.7969 17.1875
L4.89062 17.1875
L4.89062 26.7031
z
" id="BitstreamVeraSans-Roman-34"/>
      </defs>
      <g transform="translate(285.601785714 378.253217822)scale(0.2 -0.2)">
       <use xlink:href="#BitstreamVeraSans-Roman-34"/>
      </g>
     </g>
    </g>
    <g id="xtick_6">
     <g id="line2d_37">
      <path clip-path="url(#p54ce849065)" d="
M342.343 359.056
L342.343 13.4563" style="fill:none;stroke:#000000;stroke-dasharray:1.000000,3.000000;stroke-dashoffset:0.0;stroke-width:0.5;"/>
     </g>
     <g id="line2d_38">
      <g>
       <use style="stroke:#000000;stroke-width:0.5;" x="342.342857143" xlink:href="#m93b0483c22" y="359.056342822"/>
      </g>
     </g>
     <g id="line2d_39">
      <g>
       <use style="stroke:#000000;stroke-width:0.5;" x="342.342857143" xlink:href="#m741efc42ff" y="13.4563428218"/>
      </g>
     </g>
     <g id="text_6">
      <!-- 5 -->
      <defs>
       <path d="
M10.7969 72.9062
L49.5156 72.9062
L49.5156 64.5938
L19.8281 64.5938
L19.8281 46.7344
Q21.9688 47.4688 24.1094 47.8281
Q26.2656 48.1875 28.4219 48.1875
Q40.625 48.1875 47.75 41.5
Q54.8906 34.8125 54.8906 23.3906
Q54.8906 11.625 47.5625 5.09375
Q40.2344 -1.42188 26.9062 -1.42188
Q22.3125 -1.42188 17.5469 -0.640625
Q12.7969 0.140625 7.71875 1.70312
L7.71875 11.625
Q12.1094 9.23438 16.7969 8.0625
Q21.4844 6.89062 26.7031 6.89062
Q35.1562 6.89062 40.0781 11.3281
Q45.0156 15.7656 45.0156 23.3906
Q45.0156 31 40.0781 35.4375
Q35.1562 39.8906 26.7031 39.8906
Q22.75 39.8906 18.8125 39.0156
Q14.8906 38.1406 10.7969 36.2812
z
" id="BitstreamVeraSans-Roman-35"/>
      </defs>
      <g transform="translate(337.625669643 378.253217822)scale(0.2 -0.2)">
       <use xlink:href="#BitstreamVeraSans-Roman-35"/>
      </g>
     </g>
    </g>
    <g id="xtick_7">
     <g id="line2d_40">
      <path clip-path="url(#p54ce849065)" d="
M393.771 359.056
L393.771 13.4563" style="fill:none;stroke:#000000;stroke-dasharray:1.000000,3.000000;stroke-dashoffset:0.0;stroke-width:0.5;"/>
     </g>
     <g id="line2d_41">
      <g>
       <use style="stroke:#000000;stroke-width:0.5;" x="393.771428571" xlink:href="#m93b0483c22" y="359.056342822"/>
      </g>
     </g>
     <g id="line2d_42">
      <g>
       <use style="stroke:#000000;stroke-width:0.5;" x="393.771428571" xlink:href="#m741efc42ff" y="13.4563428218"/>
      </g>
     </g>
     <g id="text_7">
      <!-- 6 -->
      <defs>
       <path d="
M33.0156 40.375
Q26.375 40.375 22.4844 35.8281
Q18.6094 31.2969 18.6094 23.3906
Q18.6094 15.5312 22.4844 10.9531
Q26.375 6.39062 33.0156 6.39062
Q39.6562 6.39062 43.5312 10.9531
Q47.4062 15.5312 47.4062 23.3906
Q47.4062 31.2969 43.5312 35.8281
Q39.6562 40.375 33.0156 40.375
M52.5938 71.2969
L52.5938 62.3125
Q48.875 64.0625 45.0938 64.9844
Q41.3125 65.9219 37.5938 65.9219
Q27.8281 65.9219 22.6719 59.3281
Q17.5312 52.7344 16.7969 39.4062
Q19.6719 43.6562 24.0156 45.9219
Q28.375 48.1875 33.5938 48.1875
Q44.5781 48.1875 50.9531 41.5156
Q57.3281 34.8594 57.3281 23.3906
Q57.3281 12.1562 50.6875 5.35938
Q44.0469 -1.42188 33.0156 -1.42188
Q20.3594 -1.42188 13.6719 8.26562
Q6.98438 17.9688 6.98438 36.375
Q6.98438 53.6562 15.1875 63.9375
Q23.3906 74.2188 37.2031 74.2188
Q40.9219 74.2188 44.7031 73.4844
Q48.4844 72.75 52.5938 71.2969" id="BitstreamVeraSans-Roman-36"/>
      </defs>
      <g transform="translate(388.737053571 378.253217822)scale(0.2 -0.2)">
       <use xlink:href="#BitstreamVeraSans-Roman-36"/>
      </g>
     </g>
    </g>
    <g id="xtick_8">
     <g id="line2d_43">
      <path clip-path="url(#p54ce849065)" d="
M445.2 359.056
L445.2 13.4563" style="fill:none;stroke:#000000;stroke-dasharray:1.000000,3.000000;stroke-dashoffset:0.0;stroke-width:0.5;"/>
     </g>
     <g id="line2d_44">
      <g>
       <use style="stroke:#000000;stroke-width:0.5;" x="445.2" xlink:href="#m93b0483c22" y="359.056342822"/>
      </g>
     </g>
     <g id="line2d_45">
      <g>
       <use style="stroke:#000000;stroke-width:0.5;" x="445.2" xlink:href="#m741efc42ff" y="13.4563428218"/>
      </g>
     </g>
     <g id="text_8">
      <!-- 7 -->
      <defs>
       <path d="
M8.20312 72.9062
L55.0781 72.9062
L55.0781 68.7031
L28.6094 0
L18.3125 0
L43.2188 64.5938
L8.20312 64.5938
z
" id="BitstreamVeraSans-Roman-37"/>
      </defs>
      <g transform="translate(440.5125 378.253217822)scale(0.2 -0.2)">
       <use xlink:href="#BitstreamVeraSans-Roman-37"/>
      </g>
     </g>
    </g>
    <g id="xtick_9">
     <g id="line2d_46">
      <path clip-path="url(#p54ce849065)" d="
M496.629 359.056
L496.629 13.4563" style="fill:none;stroke:#000000;stroke-dasharray:1.000000,3.000000;stroke-dashoffset:0.0;stroke-width:0.5;"/>
     </g>
     <g id="line2d_47">
      <g>
       <use style="stroke:#000000;stroke-width:0.5;" x="496.628571429" xlink:href="#m93b0483c22" y="359.056342822"/>
      </g>
     </g>
     <g id="line2d_48">
      <g>
       <use style="stroke:#000000;stroke-width:0.5;" x="496.628571429" xlink:href="#m741efc42ff" y="13.4563428218"/>
      </g>
     </g>
     <g id="text_9">
      <!-- 8 -->
      <defs>
       <path d="
M31.7812 34.625
Q24.75 34.625 20.7188 30.8594
Q16.7031 27.0938 16.7031 20.5156
Q16.7031 13.9219 20.7188 10.1562
Q24.75 6.39062 31.7812 6.39062
Q38.8125 6.39062 42.8594 10.1719
Q46.9219 13.9688 46.9219 20.5156
Q46.9219 27.0938 42.8906 30.8594
Q38.875 34.625 31.7812 34.625
M21.9219 38.8125
Q15.5781 40.375 12.0312 44.7188
Q8.5 49.0781 8.5 55.3281
Q8.5 64.0625 14.7188 69.1406
Q20.9531 74.2188 31.7812 74.2188
Q42.6719 74.2188 48.875 69.1406
Q55.0781 64.0625 55.0781 55.3281
Q55.0781 49.0781 51.5312 44.7188
Q48 40.375 41.7031 38.8125
Q48.8281 37.1562 52.7969 32.3125
Q56.7812 27.4844 56.7812 20.5156
Q56.7812 9.90625 50.3125 4.23438
Q43.8438 -1.42188 31.7812 -1.42188
Q19.7344 -1.42188 13.25 4.23438
Q6.78125 9.90625 6.78125 20.5156
Q6.78125 27.4844 10.7812 32.3125
Q14.7969 37.1562 21.9219 38.8125
M18.3125 54.3906
Q18.3125 48.7344 21.8438 45.5625
Q25.3906 42.3906 31.7812 42.3906
Q38.1406 42.3906 41.7188 45.5625
Q45.3125 48.7344 45.3125 54.3906
Q45.3125 60.0625 41.7188 63.2344
Q38.1406 66.4062 31.7812 66.4062
Q25.3906 66.4062 21.8438 63.2344
Q18.3125 60.0625 18.3125 54.3906" id="BitstreamVeraSans-Roman-38"/>
      </defs>
      <g transform="translate(491.628571429 378.253217822)scale(0.2 -0.2)">
       <use xlink:href="#BitstreamVeraSans-Roman-38"/>
      </g>
     </g>
    </g>
    <g id="xtick_10">
     <g id="line2d_49">
      <defs>
       <path d="
M0 0
L0 -2" id="m177f7580d0" style="stroke:#000000;stroke-width:0.5;"/>
      </defs>
      <g>
       <use style="stroke:#000000;stroke-width:0.5;" x="100.681542634" xlink:href="#m177f7580d0" y="359.056342822"/>
      </g>
     </g>
     <g id="line2d_50">
      <defs>
       <path d="
M0 0
L0 2" id="m5284c7e2a0" style="stroke:#000000;stroke-width:0.5;"/>
      </defs>
      <g>
       <use style="stroke:#000000;stroke-width:0.5;" x="100.681542634" xlink:href="#m5284c7e2a0" y="13.4563428218"/>
      </g>
     </g>
    </g>
    <g id="xtick_11">
     <g id="line2d_51">
      <g>
       <use style="stroke:#000000;stroke-width:0.5;" x="116.163085268" xlink:href="#m177f7580d0" y="359.056342822"/>
      </g>
     </g>
     <g id="line2d_52">
      <g>
       <use style="stroke:#000000;stroke-width:0.5;" x="116.163085268" xlink:href="#m5284c7e2a0" y="13.4563428218"/>
      </g>
     </g>
    </g>
    <g id="xtick_12">
     <g id="line2d_53">
      <g>
       <use style="stroke:#000000;stroke-width:0.5;" x="125.219207163" xlink:href="#m177f7580d0" y="359.056342822"/>
      </g>
     </g>
     <g id="line2d_54">
      <g>
       <use style="stroke:#000000;stroke-width:0.5;" x="125.219207163" xlink:href="#m5284c7e2a0" y="13.4563428218"/>
      </g>
     </g>
    </g>
    <g id="xtick_13">
     <g id="line2d_55">
      <g>
       <use style="stroke:#000000;stroke-width:0.5;" x="131.644627902" xlink:href="#m177f7580d0" y="359.056342822"/>
      </g>
     </g>
     <g id="line2d_56">
      <g>
       <use style="stroke:#000000;stroke-width:0.5;" x="131.644627902" xlink:href="#m5284c7e2a0" y="13.4563428218"/>
      </g>
     </g>
    </g>
    <g id="xtick_14">
     <g id="line2d_57">
      <g>
       <use style="stroke:#000000;stroke-width:0.5;" x="152.110114063" xlink:href="#m177f7580d0" y="359.056342822"/>
      </g>
     </g>
     <g id="line2d_58">
      <g>
       <use style="stroke:#000000;stroke-width:0.5;" x="152.110114063" xlink:href="#m5284c7e2a0" y="13.4563428218"/>
      </g>
     </g>
    </g>
    <g id="xtick_15">
     <g id="line2d_59">
      <g>
       <use style="stroke:#000000;stroke-width:0.5;" x="167.591656697" xlink:href="#m177f7580d0" y="359.056342822"/>
      </g>
     </g>
     <g id="line2d_60">
      <g>
       <use style="stroke:#000000;stroke-width:0.5;" x="167.591656697" xlink:href="#m5284c7e2a0" y="13.4563428218"/>
      </g>
     </g>
    </g>
    <g id="xtick_16">
     <g id="line2d_61">
      <g>
       <use style="stroke:#000000;stroke-width:0.5;" x="176.647778591" xlink:href="#m177f7580d0" y="359.056342822"/>
      </g>
     </g>
     <g id="line2d_62">
      <g>
       <use style="stroke:#000000;stroke-width:0.5;" x="176.647778591" xlink:href="#m5284c7e2a0" y="13.4563428218"/>
      </g>
     </g>
    </g>
    <g id="xtick_17">
     <g id="line2d_63">
      <g>
       <use style="stroke:#000000;stroke-width:0.5;" x="183.073199331" xlink:href="#m177f7580d0" y="359.056342822"/>
      </g>
     </g>
     <g id="line2d_64">
      <g>
       <use style="stroke:#000000;stroke-width:0.5;" x="183.073199331" xlink:href="#m5284c7e2a0" y="13.4563428218"/>
      </g>
     </g>
    </g>
    <g id="xtick_18">
     <g id="line2d_65">
      <g>
       <use style="stroke:#000000;stroke-width:0.5;" x="203.538685491" xlink:href="#m177f7580d0" y="359.056342822"/>
      </g>
     </g>
     <g id="line2d_66">
      <g>
       <use style="stroke:#000000;stroke-width:0.5;" x="203.538685491" xlink:href="#m5284c7e2a0" y="13.4563428218"/>
      </g>
     </g>
    </g>
    <g id="xtick_19">
     <g id="line2d_67">
      <g>
       <use style="stroke:#000000;stroke-width:0.5;" x="219.020228125" xlink:href="#m177f7580d0" y="359.056342822"/>
      </g>
     </g>
     <g id="line2d_68">
      <g>
       <use style="stroke:#000000;stroke-width:0.5;" x="219.020228125" xlink:href="#m5284c7e2a0" y="13.4563428218"/>
      </g>
     </g>
    </g>
    <g id="xtick_20">
     <g id="line2d_69">
      <g>
       <use style="stroke:#000000;stroke-width:0.5;" x="228.07635002" xlink:href="#m177f7580d0" y="359.056342822"/>
      </g>
     </g>
     <g id="line2d_70">
      <g>
       <use style="stroke:#000000;stroke-width:0.5;" x="228.07635002" xlink:href="#m5284c7e2a0" y="13.4563428218"/>
      </g>
     </g>
    </g>
    <g id="xtick_21">
     <g id="line2d_71">
      <g>
       <use style="stroke:#000000;stroke-width:0.5;" x="234.50177076" xlink:href="#m177f7580d0" y="359.056342822"/>
      </g>
     </g>
     <g id="line2d_72">
      <g>
       <use style="stroke:#000000;stroke-width:0.5;" x="234.50177076" xlink:href="#m5284c7e2a0" y="13.4563428218"/>
      </g>
     </g>
    </g>
    <g id="xtick_22">
     <g id="line2d_73">
      <g>
       <use style="stroke:#000000;stroke-width:0.5;" x="254.96725692" xlink:href="#m177f7580d0" y="359.056342822"/>
      </g>
     </g>
     <g id="line2d_74">
      <g>
       <use style="stroke:#000000;stroke-width:0.5;" x="254.96725692" xlink:href="#m5284c7e2a0" y="13.4563428218"/>
      </g>
     </g>
    </g>
    <g id="xtick_23">
     <g id="line2d_75">
      <g>
       <use style="stroke:#000000;stroke-width:0.5;" x="270.448799554" xlink:href="#m177f7580d0" y="359.056342822"/>
      </g>
     </g>
     <g id="line2d_76">
      <g>
       <use style="stroke:#000000;stroke-width:0.5;" x="270.448799554" xlink:href="#m5284c7e2a0" y="13.4563428218"/>
      </g>
     </g>
    </g>
    <g id="xtick_24">
     <g id="line2d_77">
      <g>
       <use style="stroke:#000000;stroke-width:0.5;" x="279.504921448" xlink:href="#m177f7580d0" y="359.056342822"/>
      </g>
     </g>
     <g id="line2d_78">
      <g>
       <use style="stroke:#000000;stroke-width:0.5;" x="279.504921448" xlink:href="#m5284c7e2a0" y="13.4563428218"/>
      </g>
     </g>
    </g>
    <g id="xtick_25">
     <g id="line2d_79">
      <g>
       <use style="stroke:#000000;stroke-width:0.5;" x="285.930342188" xlink:href="#m177f7580d0" y="359.056342822"/>
      </g>
     </g>
     <g id="line2d_80">
      <g>
       <use style="stroke:#000000;stroke-width:0.5;" x="285.930342188" xlink:href="#m5284c7e2a0" y="13.4563428218"/>
      </g>
     </g>
    </g>
    <g id="xtick_26">
     <g id="line2d_81">
      <g>
       <use style="stroke:#000000;stroke-width:0.5;" x="306.395828348" xlink:href="#m177f7580d0" y="359.056342822"/>
      </g>
     </g>
     <g id="line2d_82">
      <g>
       <use style="stroke:#000000;stroke-width:0.5;" x="306.395828348" xlink:href="#m5284c7e2a0" y="13.4563428218"/>
      </g>
     </g>
    </g>
    <g id="xtick_27">
     <g id="line2d_83">
      <g>
       <use style="stroke:#000000;stroke-width:0.5;" x="321.877370983" xlink:href="#m177f7580d0" y="359.056342822"/>
      </g>
     </g>
     <g id="line2d_84">
      <g>
       <use style="stroke:#000000;stroke-width:0.5;" x="321.877370983" xlink:href="#m5284c7e2a0" y="13.4563428218"/>
      </g>
     </g>
    </g>
    <g id="xtick_28">
     <g id="line2d_85">
      <g>
       <use style="stroke:#000000;stroke-width:0.5;" x="330.933492877" xlink:href="#m177f7580d0" y="359.056342822"/>
      </g>
     </g>
     <g id="line2d_86">
      <g>
       <use style="stroke:#000000;stroke-width:0.5;" x="330.933492877" xlink:href="#m5284c7e2a0" y="13.4563428218"/>
      </g>
     </g>
    </g>
    <g id="xtick_29">
     <g id="line2d_87">
      <g>
       <use style="stroke:#000000;stroke-width:0.5;" x="337.358913617" xlink:href="#m177f7580d0" y="359.056342822"/>
      </g>
     </g>
     <g id="line2d_88">
      <g>
       <use style="stroke:#000000;stroke-width:0.5;" x="337.358913617" xlink:href="#m5284c7e2a0" y="13.4563428218"/>
      </g>
     </g>
    </g>
    <g id="xtick_30">
     <g id="line2d_89">
      <g>
       <use style="stroke:#000000;stroke-width:0.5;" x="357.824399777" xlink:href="#m177f7580d0" y="359.056342822"/>
      </g>
     </g>
     <g id="line2d_90">
      <g>
       <use style="stroke:#000000;stroke-width:0.5;" x="357.824399777" xlink:href="#m5284c7e2a0" y="13.4563428218"/>
      </g>
     </g>
    </g>
    <g id="xtick_31">
     <g id="line2d_91">
      <g>
       <use style="stroke:#000000;stroke-width:0.5;" x="373.305942411" xlink:href="#m177f7580d0" y="359.056342822"/>
      </g>
     </g>
     <g id="line2d_92">
      <g>
       <use style="stroke:#000000;stroke-width:0.5;" x="373.305942411" xlink:href="#m5284c7e2a0" y="13.4563428218"/>
      </g>
     </g>
    </g>
    <g id="xtick_32">
     <g id="line2d_93">
      <g>
       <use style="stroke:#000000;stroke-width:0.5;" x="382.362064305" xlink:href="#m177f7580d0" y="359.056342822"/>
      </g>
     </g>
     <g id="line2d_94">
      <g>
       <use style="stroke:#000000;stroke-width:0.5;" x="382.362064305" xlink:href="#m5284c7e2a0" y="13.4563428218"/>
      </g>
     </g>
    </g>
    <g id="xtick_33">
     <g id="line2d_95">
      <g>
       <use style="stroke:#000000;stroke-width:0.5;" x="388.787485045" xlink:href="#m177f7580d0" y="359.056342822"/>
      </g>
     </g>
     <g id="line2d_96">
      <g>
       <use style="stroke:#000000;stroke-width:0.5;" x="388.787485045" xlink:href="#m5284c7e2a0" y="13.4563428218"/>
      </g>
     </g>
    </g>
    <g id="xtick_34">
     <g id="line2d_97">
      <g>
       <use style="stroke:#000000;stroke-width:0.5;" x="409.252971206" xlink:href="#m177f7580d0" y="359.056342822"/>
      </g>
     </g>
     <g id="line2d_98">
      <g>
       <use style="stroke:#000000;stroke-width:0.5;" x="409.252971206" xlink:href="#m5284c7e2a0" y="13.4563428218"/>
      </g>
     </g>
    </g>
    <g id="xtick_35">
     <g id="line2d_99">
      <g>
       <use style="stroke:#000000;stroke-width:0.5;" x="424.73451384" xlink:href="#m177f7580d0" y="359.056342822"/>
      </g>
     </g>
     <g id="line2d_100">
      <g>
       <use style="stroke:#000000;stroke-width:0.5;" x="424.73451384" xlink:href="#m5284c7e2a0" y="13.4563428218"/>
      </g>
     </g>
    </g>
    <g id="xtick_36">
     <g id="line2d_101">
      <g>
       <use style="stroke:#000000;stroke-width:0.5;" x="433.790635734" xlink:href="#m177f7580d0" y="359.056342822"/>
      </g>
     </g>
     <g id="line2d_102">
      <g>
       <use style="stroke:#000000;stroke-width:0.5;" x="433.790635734" xlink:href="#m5284c7e2a0" y="13.4563428218"/>
      </g>
     </g>
    </g>
    <g id="xtick_37">
     <g id="line2d_103">
      <g>
       <use style="stroke:#000000;stroke-width:0.5;" x="440.216056474" xlink:href="#m177f7580d0" y="359.056342822"/>
      </g>
     </g>
     <g id="line2d_104">
      <g>
       <use style="stroke:#000000;stroke-width:0.5;" x="440.216056474" xlink:href="#m5284c7e2a0" y="13.4563428218"/>
      </g>
     </g>
    </g>
    <g id="xtick_38">
     <g id="line2d_105">
      <g>
       <use style="stroke:#000000;stroke-width:0.5;" x="460.681542634" xlink:href="#m177f7580d0" y="359.056342822"/>
      </g>
     </g>
     <g id="line2d_106">
      <g>
       <use style="stroke:#000000;stroke-width:0.5;" x="460.681542634" xlink:href="#m5284c7e2a0" y="13.4563428218"/>
      </g>
     </g>
    </g>
    <g id="xtick_39">
     <g id="line2d_107">
      <g>
       <use style="stroke:#000000;stroke-width:0.5;" x="476.163085268" xlink:href="#m177f7580d0" y="359.056342822"/>
      </g>
     </g>
     <g id="line2d_108">
      <g>
       <use style="stroke:#000000;stroke-width:0.5;" x="476.163085268" xlink:href="#m5284c7e2a0" y="13.4563428218"/>
      </g>
     </g>
    </g>
    <g id="xtick_40">
     <g id="line2d_109">
      <g>
       <use style="stroke:#000000;stroke-width:0.5;" x="485.219207163" xlink:href="#m177f7580d0" y="359.056342822"/>
      </g>
     </g>
     <g id="line2d_110">
      <g>
       <use style="stroke:#000000;stroke-width:0.5;" x="485.219207163" xlink:href="#m5284c7e2a0" y="13.4563428218"/>
      </g>
     </g>
    </g>
    <g id="xtick_41">
     <g id="line2d_111">
      <g>
       <use style="stroke:#000000;stroke-width:0.5;" x="491.644627902" xlink:href="#m177f7580d0" y="359.056342822"/>
      </g>
     </g>
     <g id="line2d_112">
      <g>
       <use style="stroke:#000000;stroke-width:0.5;" x="491.644627902" xlink:href="#m5284c7e2a0" y="13.4563428218"/>
      </g>
     </g>
    </g>
    <g id="xtick_42">
     <g id="line2d_113">
      <g>
       <use style="stroke:#000000;stroke-width:0.5;" x="512.110114063" xlink:href="#m177f7580d0" y="359.056342822"/>
      </g>
     </g>
     <g id="line2d_114">
      <g>
       <use style="stroke:#000000;stroke-width:0.5;" x="512.110114063" xlink:href="#m5284c7e2a0" y="13.4563428218"/>
      </g>
     </g>
    </g>
    <g id="xtick_43">
     <g id="line2d_115">
      <g>
       <use style="stroke:#000000;stroke-width:0.5;" x="527.591656697" xlink:href="#m177f7580d0" y="359.056342822"/>
      </g>
     </g>
     <g id="line2d_116">
      <g>
       <use style="stroke:#000000;stroke-width:0.5;" x="527.591656697" xlink:href="#m5284c7e2a0" y="13.4563428218"/>
      </g>
     </g>
    </g>
    <g id="text_10">
     <!-- log10 of (# f-evals / dimension) -->
     <defs>
      <path id="BitstreamVeraSans-Roman-20"/>
      <path d="
M51.125 44
L36.9219 44
L32.8125 27.6875
L47.125 27.6875
z

M43.7969 71.7812
L38.7188 51.5156
L52.9844 51.5156
L58.1094 71.7812
L65.9219 71.7812
L60.8906 51.5156
L76.125 51.5156
L76.125 44
L58.9844 44
L54.9844 27.6875
L70.5156 27.6875
L70.5156 20.2188
L53.0781 20.2188
L48 0
L40.1875 0
L45.2188 20.2188
L30.9062 20.2188
L25.875 0
L18.0156 0
L23.0938 20.2188
L7.71875 20.2188
L7.71875 27.6875
L24.9062 27.6875
L29 44
L13.2812 44
L13.2812 51.5156
L30.9062 51.5156
L35.8906 71.7812
z
" id="BitstreamVeraSans-Roman-23"/>
      <path d="
M52 44.1875
Q55.375 50.25 60.0625 53.125
Q64.75 56 71.0938 56
Q79.6406 56 84.2812 50.0156
Q88.9219 44.0469 88.9219 33.0156
L88.9219 0
L79.8906 0
L79.8906 32.7188
Q79.8906 40.5781 77.0938 44.375
Q74.3125 48.1875 68.6094 48.1875
Q61.625 48.1875 57.5625 43.5469
Q53.5156 38.9219 53.5156 30.9062
L53.5156 0
L44.4844 0
L44.4844 32.7188
Q44.4844 40.625 41.7031 44.4062
Q38.9219 48.1875 33.1094 48.1875
Q26.2188 48.1875 22.1562 43.5312
Q18.1094 38.875 18.1094 30.9062
L18.1094 0
L9.07812 0
L9.07812 54.6875
L18.1094 54.6875
L18.1094 46.1875
Q21.1875 51.2188 25.4844 53.6094
Q29.7812 56 35.6875 56
Q41.6562 56 45.8281 52.9688
Q50 49.9531 52 44.1875" id="BitstreamVeraSans-Roman-6d"/>
      <path d="
M54.8906 33.0156
L54.8906 0
L45.9062 0
L45.9062 32.7188
Q45.9062 40.4844 42.875 44.3281
Q39.8438 48.1875 33.7969 48.1875
Q26.5156 48.1875 22.3125 43.5469
Q18.1094 38.9219 18.1094 30.9062
L18.1094 0
L9.07812 0
L9.07812 54.6875
L18.1094 54.6875
L18.1094 46.1875
Q21.3438 51.125 25.7031 53.5625
Q30.0781 56 35.7969 56
Q45.2188 56 50.0469 50.1719
Q54.8906 44.3438 54.8906 33.0156" id="BitstreamVeraSans-Roman-6e"/>
      <path d="
M31 75.875
Q24.4688 64.6562 21.2812 53.6562
Q18.1094 42.6719 18.1094 31.3906
Q18.1094 20.125 21.3125 9.0625
Q24.5156 -2 31 -13.1875
L23.1875 -13.1875
Q15.875 -1.70312 12.2344 9.375
Q8.59375 20.4531 8.59375 31.3906
Q8.59375 42.2812 12.2031 53.3125
Q15.8281 64.3594 23.1875 75.875
z
" id="BitstreamVeraSans-Roman-28"/>
      <path d="
M30.6094 48.3906
Q23.3906 48.3906 19.1875 42.75
Q14.9844 37.1094 14.9844 27.2969
Q14.9844 17.4844 19.1562 11.8438
Q23.3438 6.20312 30.6094 6.20312
Q37.7969 6.20312 41.9844 11.8594
Q46.1875 17.5312 46.1875 27.2969
Q46.1875 37.0156 41.9844 42.7031
Q37.7969 48.3906 30.6094 48.3906
M30.6094 56
Q42.3281 56 49.0156 48.375
Q55.7188 40.7656 55.7188 27.2969
Q55.7188 13.875 49.0156 6.21875
Q42.3281 -1.42188 30.6094 -1.42188
Q18.8438 -1.42188 12.1719 6.21875
Q5.51562 13.875 5.51562 27.2969
Q5.51562 40.7656 12.1719 48.375
Q18.8438 56 30.6094 56" id="BitstreamVeraSans-Roman-6f"/>
      <path d="
M9.42188 75.9844
L18.4062 75.9844
L18.4062 0
L9.42188 0
z
" id="BitstreamVeraSans-Roman-6c"/>
      <path d="
M2.98438 54.6875
L12.5 54.6875
L29.5938 8.79688
L46.6875 54.6875
L56.2031 54.6875
L35.6875 0
L23.4844 0
z
" id="BitstreamVeraSans-Roman-76"/>
      <path d="
M9.42188 54.6875
L18.4062 54.6875
L18.4062 0
L9.42188 0
z

M9.42188 75.9844
L18.4062 75.9844
L18.4062 64.5938
L9.42188 64.5938
z
" id="BitstreamVeraSans-Roman-69"/>
      <path d="
M4.89062 31.3906
L31.2031 31.3906
L31.2031 23.3906
L4.89062 23.3906
z
" id="BitstreamVeraSans-Roman-2d"/>
      <path d="
M25.3906 72.9062
L33.6875 72.9062
L8.29688 -9.28125
L0 -9.28125
z
" id="BitstreamVeraSans-Roman-2f"/>
      <path d="
M56.2031 29.5938
L56.2031 25.2031
L14.8906 25.2031
Q15.4844 15.9219 20.4844 11.0625
Q25.4844 6.20312 34.4219 6.20312
Q39.5938 6.20312 44.4531 7.46875
Q49.3125 8.73438 54.1094 11.2812
L54.1094 2.78125
Q49.2656 0.734375 44.1875 -0.34375
Q39.1094 -1.42188 33.8906 -1.42188
Q20.7969 -1.42188 13.1562 6.1875
Q5.51562 13.8125 5.51562 26.8125
Q5.51562 40.2344 12.7656 48.1094
Q20.0156 56 32.3281 56
Q43.3594 56 49.7812 48.8906
Q56.2031 41.7969 56.2031 29.5938
M47.2188 32.2344
Q47.125 39.5938 43.0938 43.9844
Q39.0625 48.3906 32.4219 48.3906
Q24.9062 48.3906 20.3906 44.1406
Q15.875 39.8906 15.1875 32.1719
z
" id="BitstreamVeraSans-Roman-65"/>
      <path d="
M45.4062 46.3906
L45.4062 75.9844
L54.3906 75.9844
L54.3906 0
L45.4062 0
L45.4062 8.20312
Q42.5781 3.32812 38.25 0.953125
Q33.9375 -1.42188 27.875 -1.42188
Q17.9688 -1.42188 11.7344 6.48438
Q5.51562 14.4062 5.51562 27.2969
Q5.51562 40.1875 11.7344 48.0938
Q17.9688 56 27.875 56
Q33.9375 56 38.25 53.625
Q42.5781 51.2656 45.4062 46.3906
M14.7969 27.2969
Q14.7969 17.3906 18.875 11.75
Q22.9531 6.10938 30.0781 6.10938
Q37.2031 6.10938 41.2969 11.75
Q45.4062 17.3906 45.4062 27.2969
Q45.4062 37.2031 41.2969 42.8438
Q37.2031 48.4844 30.0781 48.4844
Q22.9531 48.4844 18.875 42.8438
Q14.7969 37.2031 14.7969 27.2969" id="BitstreamVeraSans-Roman-64"/>
      <path d="
M45.4062 27.9844
Q45.4062 37.75 41.375 43.1094
Q37.3594 48.4844 30.0781 48.4844
Q22.8594 48.4844 18.8281 43.1094
Q14.7969 37.75 14.7969 27.9844
Q14.7969 18.2656 18.8281 12.8906
Q22.8594 7.51562 30.0781 7.51562
Q37.3594 7.51562 41.375 12.8906
Q45.4062 18.2656 45.4062 27.9844
M54.3906 6.78125
Q54.3906 -7.17188 48.1875 -13.9844
Q42 -20.7969 29.2031 -20.7969
Q24.4688 -20.7969 20.2656 -20.0938
Q16.0625 -19.3906 12.1094 -17.9219
L12.1094 -9.1875
Q16.0625 -11.3281 19.9219 -12.3438
Q23.7812 -13.375 27.7812 -13.375
Q36.625 -13.375 41.0156 -8.76562
Q45.4062 -4.15625 45.4062 5.17188
L45.4062 9.625
Q42.625 4.78125 38.2812 2.39062
Q33.9375 0 27.875 0
Q17.8281 0 11.6719 7.65625
Q5.51562 15.3281 5.51562 27.9844
Q5.51562 40.6719 11.6719 48.3281
Q17.8281 56 27.875 56
Q33.9375 56 38.2812 53.6094
Q42.625 51.2188 45.4062 46.3906
L45.4062 54.6875
L54.3906 54.6875
z
" id="BitstreamVeraSans-Roman-67"/>
      <path d="
M37.1094 75.9844
L37.1094 68.5
L28.5156 68.5
Q23.6875 68.5 21.7969 66.5469
Q19.9219 64.5938 19.9219 59.5156
L19.9219 54.6875
L34.7188 54.6875
L34.7188 47.7031
L19.9219 47.7031
L19.9219 0
L10.8906 0
L10.8906 47.7031
L2.29688 47.7031
L2.29688 54.6875
L10.8906 54.6875
L10.8906 58.5
Q10.8906 67.625 15.1406 71.7969
Q19.3906 75.9844 28.6094 75.9844
z
" id="BitstreamVeraSans-Roman-66"/>
      <path d="
M34.2812 27.4844
Q23.3906 27.4844 19.1875 25
Q14.9844 22.5156 14.9844 16.5
Q14.9844 11.7188 18.1406 8.90625
Q21.2969 6.10938 26.7031 6.10938
Q34.1875 6.10938 38.7031 11.4062
Q43.2188 16.7031 43.2188 25.4844
L43.2188 27.4844
z

M52.2031 31.2031
L52.2031 0
L43.2188 0
L43.2188 8.29688
Q40.1406 3.32812 35.5469 0.953125
Q30.9531 -1.42188 24.3125 -1.42188
Q15.9219 -1.42188 10.9531 3.29688
Q6 8.01562 6 15.9219
Q6 25.1406 12.1719 29.8281
Q18.3594 34.5156 30.6094 34.5156
L43.2188 34.5156
L43.2188 35.4062
Q43.2188 41.6094 39.1406 45
Q35.0625 48.3906 27.6875 48.3906
Q23 48.3906 18.5469 47.2656
Q14.1094 46.1406 10.0156 43.8906
L10.0156 52.2031
Q14.9375 54.1094 19.5781 55.0469
Q24.2188 56 28.6094 56
Q40.4844 56 46.3438 49.8438
Q52.2031 43.7031 52.2031 31.2031" id="BitstreamVeraSans-Roman-61"/>
      <path d="
M44.2812 53.0781
L44.2812 44.5781
Q40.4844 46.5312 36.375 47.5
Q32.2812 48.4844 27.875 48.4844
Q21.1875 48.4844 17.8438 46.4375
Q14.5 44.3906 14.5 40.2812
Q14.5 37.1562 16.8906 35.375
Q19.2812 33.5938 26.5156 31.9844
L29.5938 31.2969
Q39.1562 29.25 43.1875 25.5156
Q47.2188 21.7812 47.2188 15.0938
Q47.2188 7.46875 41.1875 3.01562
Q35.1562 -1.42188 24.6094 -1.42188
Q20.2188 -1.42188 15.4531 -0.5625
Q10.6875 0.296875 5.42188 2
L5.42188 11.2812
Q10.4062 8.6875 15.2344 7.39062
Q20.0625 6.10938 24.8125 6.10938
Q31.1562 6.10938 34.5625 8.28125
Q37.9844 10.4531 37.9844 14.4062
Q37.9844 18.0625 35.5156 20.0156
Q33.0625 21.9688 24.7031 23.7812
L21.5781 24.5156
Q13.2344 26.2656 9.51562 29.9062
Q5.8125 33.5469 5.8125 39.8906
Q5.8125 47.6094 11.2812 51.7969
Q16.75 56 26.8125 56
Q31.7812 56 36.1719 55.2656
Q40.5781 54.5469 44.2812 53.0781" id="BitstreamVeraSans-Roman-73"/>
      <path d="
M8.01562 75.875
L15.8281 75.875
Q23.1406 64.3594 26.7812 53.3125
Q30.4219 42.2812 30.4219 31.3906
Q30.4219 20.4531 26.7812 9.375
Q23.1406 -1.70312 15.8281 -13.1875
L8.01562 -13.1875
Q14.5 -2 17.7031 9.0625
Q20.9062 20.125 20.9062 31.3906
Q20.9062 42.6719 17.7031 53.6562
Q14.5 64.6562 8.01562 75.875" id="BitstreamVeraSans-Roman-29"/>
     </defs>
     <g transform="translate(167.3165625 401.089780322)scale(0.18 -0.18)">
      <use xlink:href="#BitstreamVeraSans-Roman-6c"/>
      <use x="27.783203125" xlink:href="#BitstreamVeraSans-Roman-6f"/>
      <use x="88.96484375" xlink:href="#BitstreamVeraSans-Roman-67"/>
      <use x="152.44140625" xlink:href="#BitstreamVeraSans-Roman-31"/>
      <use x="216.064453125" xlink:href="#BitstreamVeraSans-Roman-30"/>
      <use x="279.6875" xlink:href="#BitstreamVeraSans-Roman-20"/>
      <use x="311.474609375" xlink:href="#BitstreamVeraSans-Roman-6f"/>
      <use x="372.65625" xlink:href="#BitstreamVeraSans-Roman-66"/>
      <use x="407.861328125" xlink:href="#BitstreamVeraSans-Roman-20"/>
      <use x="439.6484375" xlink:href="#BitstreamVeraSans-Roman-28"/>
      <use x="478.662109375" xlink:href="#BitstreamVeraSans-Roman-23"/>
      <use x="562.451171875" xlink:href="#BitstreamVeraSans-Roman-20"/>
      <use x="594.23828125" xlink:href="#BitstreamVeraSans-Roman-66"/>
      <use x="623.943359375" xlink:href="#BitstreamVeraSans-Roman-2d"/>
      <use x="660.02734375" xlink:href="#BitstreamVeraSans-Roman-65"/>
      <use x="721.55078125" xlink:href="#BitstreamVeraSans-Roman-76"/>
      <use x="780.73046875" xlink:href="#BitstreamVeraSans-Roman-61"/>
      <use x="842.009765625" xlink:href="#BitstreamVeraSans-Roman-6c"/>
      <use x="869.79296875" xlink:href="#BitstreamVeraSans-Roman-73"/>
      <use x="921.892578125" xlink:href="#BitstreamVeraSans-Roman-20"/>
      <use x="953.6796875" xlink:href="#BitstreamVeraSans-Roman-2f"/>
      <use x="987.37109375" xlink:href="#BitstreamVeraSans-Roman-20"/>
      <use x="1019.15820312" xlink:href="#BitstreamVeraSans-Roman-64"/>
      <use x="1082.63476562" xlink:href="#BitstreamVeraSans-Roman-69"/>
      <use x="1110.41796875" xlink:href="#BitstreamVeraSans-Roman-6d"/>
      <use x="1207.83007812" xlink:href="#BitstreamVeraSans-Roman-65"/>
      <use x="1269.35351562" xlink:href="#BitstreamVeraSans-Roman-6e"/>
      <use x="1332.73242188" xlink:href="#BitstreamVeraSans-Roman-73"/>
      <use x="1384.83203125" xlink:href="#BitstreamVeraSans-Roman-69"/>
      <use x="1412.61523438" xlink:href="#BitstreamVeraSans-Roman-6f"/>
      <use x="1473.796875" xlink:href="#BitstreamVeraSans-Roman-6e"/>
      <use x="1537.17578125" xlink:href="#BitstreamVeraSans-Roman-29"/>
     </g>
    </g>
   </g>
   <g id="matplotlib.axis_2">
    <g id="ytick_1">
     <g id="line2d_117">
      <path clip-path="url(#p54ce849065)" d="
M85.2 359.056
L531.6 359.056" style="fill:none;stroke:#000000;stroke-dasharray:1.000000,3.000000;stroke-dashoffset:0.0;stroke-width:0.5;"/>
     </g>
     <g id="line2d_118">
      <defs>
       <path d="
M0 0
L4 0" id="m728421d6d4" style="stroke:#000000;stroke-width:0.5;"/>
      </defs>
      <g>
       <use style="stroke:#000000;stroke-width:0.5;" x="85.2" xlink:href="#m728421d6d4" y="359.056342822"/>
      </g>
     </g>
     <g id="line2d_119">
      <defs>
       <path d="
M0 0
L-4 0" id="mcb0005524f" style="stroke:#000000;stroke-width:0.5;"/>
      </defs>
      <g>
       <use style="stroke:#000000;stroke-width:0.5;" x="531.6" xlink:href="#mcb0005524f" y="359.056342822"/>
      </g>
     </g>
     <g id="text_11">
      <!-- 0.0 -->
      <defs>
       <path d="
M10.6875 12.4062
L21 12.4062
L21 0
L10.6875 0
z
" id="BitstreamVeraSans-Roman-2e"/>
      </defs>
      <g transform="translate(52.040625 364.575092822)scale(0.2 -0.2)">
       <use xlink:href="#BitstreamVeraSans-Roman-30"/>
       <use x="63.623046875" xlink:href="#BitstreamVeraSans-Roman-2e"/>
       <use x="95.41015625" xlink:href="#BitstreamVeraSans-Roman-30"/>
      </g>
     </g>
    </g>
    <g id="ytick_2">
     <g id="line2d_120">
      <path clip-path="url(#p54ce849065)" d="
M85.2 290.621
L531.6 290.621" style="fill:none;stroke:#000000;stroke-dasharray:1.000000,3.000000;stroke-dashoffset:0.0;stroke-width:0.5;"/>
     </g>
     <g id="line2d_121">
      <g>
       <use style="stroke:#000000;stroke-width:0.5;" x="85.2" xlink:href="#m728421d6d4" y="290.620699257"/>
      </g>
     </g>
     <g id="line2d_122">
      <g>
       <use style="stroke:#000000;stroke-width:0.5;" x="531.6" xlink:href="#mcb0005524f" y="290.620699257"/>
      </g>
     </g>
     <g id="text_12">
      <!-- 0.2 -->
      <g transform="translate(52.715625 296.139449257)scale(0.2 -0.2)">
       <use xlink:href="#BitstreamVeraSans-Roman-30"/>
       <use x="63.623046875" xlink:href="#BitstreamVeraSans-Roman-2e"/>
       <use x="95.41015625" xlink:href="#BitstreamVeraSans-Roman-32"/>
      </g>
     </g>
    </g>
    <g id="ytick_3">
     <g id="line2d_123">
      <path clip-path="url(#p54ce849065)" d="
M85.2 222.185
L531.6 222.185" style="fill:none;stroke:#000000;stroke-dasharray:1.000000,3.000000;stroke-dashoffset:0.0;stroke-width:0.5;"/>
     </g>
     <g id="line2d_124">
      <g>
       <use style="stroke:#000000;stroke-width:0.5;" x="85.2" xlink:href="#m728421d6d4" y="222.185055693"/>
      </g>
     </g>
     <g id="line2d_125">
      <g>
       <use style="stroke:#000000;stroke-width:0.5;" x="531.6" xlink:href="#mcb0005524f" y="222.185055693"/>
      </g>
     </g>
     <g id="text_13">
      <!-- 0.4 -->
      <g transform="translate(51.834375 227.703805693)scale(0.2 -0.2)">
       <use xlink:href="#BitstreamVeraSans-Roman-30"/>
       <use x="63.623046875" xlink:href="#BitstreamVeraSans-Roman-2e"/>
       <use x="95.41015625" xlink:href="#BitstreamVeraSans-Roman-34"/>
      </g>
     </g>
    </g>
    <g id="ytick_4">
     <g id="line2d_126">
      <path clip-path="url(#p54ce849065)" d="
M85.2 153.749
L531.6 153.749" style="fill:none;stroke:#000000;stroke-dasharray:1.000000,3.000000;stroke-dashoffset:0.0;stroke-width:0.5;"/>
     </g>
     <g id="line2d_127">
      <g>
       <use style="stroke:#000000;stroke-width:0.5;" x="85.2" xlink:href="#m728421d6d4" y="153.749412129"/>
      </g>
     </g>
     <g id="line2d_128">
      <g>
       <use style="stroke:#000000;stroke-width:0.5;" x="531.6" xlink:href="#mcb0005524f" y="153.749412129"/>
      </g>
     </g>
     <g id="text_14">
      <!-- 0.6 -->
      <g transform="translate(51.971875 159.268162129)scale(0.2 -0.2)">
       <use xlink:href="#BitstreamVeraSans-Roman-30"/>
       <use x="63.623046875" xlink:href="#BitstreamVeraSans-Roman-2e"/>
       <use x="95.41015625" xlink:href="#BitstreamVeraSans-Roman-36"/>
      </g>
     </g>
    </g>
    <g id="ytick_5">
     <g id="line2d_129">
      <path clip-path="url(#p54ce849065)" d="
M85.2 85.3138
L531.6 85.3138" style="fill:none;stroke:#000000;stroke-dasharray:1.000000,3.000000;stroke-dashoffset:0.0;stroke-width:0.5;"/>
     </g>
     <g id="line2d_130">
      <g>
       <use style="stroke:#000000;stroke-width:0.5;" x="85.2" xlink:href="#m728421d6d4" y="85.3137685644"/>
      </g>
     </g>
     <g id="line2d_131">
      <g>
       <use style="stroke:#000000;stroke-width:0.5;" x="531.6" xlink:href="#mcb0005524f" y="85.3137685644"/>
      </g>
     </g>
     <g id="text_15">
      <!-- 0.8 -->
      <g transform="translate(52.08125 90.8325185644)scale(0.2 -0.2)">
       <use xlink:href="#BitstreamVeraSans-Roman-30"/>
       <use x="63.623046875" xlink:href="#BitstreamVeraSans-Roman-2e"/>
       <use x="95.41015625" xlink:href="#BitstreamVeraSans-Roman-38"/>
      </g>
     </g>
    </g>
    <g id="ytick_6">
     <g id="line2d_132">
      <path clip-path="url(#p54ce849065)" d="
M85.2 16.8781
L531.6 16.8781" style="fill:none;stroke:#000000;stroke-dasharray:1.000000,3.000000;stroke-dashoffset:0.0;stroke-width:0.5;"/>
     </g>
     <g id="line2d_133">
      <g>
       <use style="stroke:#000000;stroke-width:0.5;" x="85.2" xlink:href="#m728421d6d4" y="16.878125"/>
      </g>
     </g>
     <g id="line2d_134">
      <g>
       <use style="stroke:#000000;stroke-width:0.5;" x="531.6" xlink:href="#mcb0005524f" y="16.878125"/>
      </g>
     </g>
     <g id="text_16">
      <!-- 1.0 -->
      <g transform="translate(52.91875 22.396875)scale(0.2 -0.2)">
       <use xlink:href="#BitstreamVeraSans-Roman-31"/>
       <use x="63.623046875" xlink:href="#BitstreamVeraSans-Roman-2e"/>
       <use x="95.41015625" xlink:href="#BitstreamVeraSans-Roman-30"/>
      </g>
     </g>
    </g>
    <g id="text_17">
     <!-- Proportion of function+target pairs -->
     <defs>
      <path d="
M19.6719 64.7969
L19.6719 37.4062
L32.0781 37.4062
Q38.9688 37.4062 42.7188 40.9688
Q46.4844 44.5312 46.4844 51.125
Q46.4844 57.6719 42.7188 61.2344
Q38.9688 64.7969 32.0781 64.7969
z

M9.8125 72.9062
L32.0781 72.9062
Q44.3438 72.9062 50.6094 67.3594
Q56.8906 61.8125 56.8906 51.125
Q56.8906 40.3281 50.6094 34.8125
Q44.3438 29.2969 32.0781 29.2969
L19.6719 29.2969
L19.6719 0
L9.8125 0
z
" id="BitstreamVeraSans-Roman-50"/>
      <path d="
M46 62.7031
L46 35.5
L73.1875 35.5
L73.1875 27.2031
L46 27.2031
L46 0
L37.7969 0
L37.7969 27.2031
L10.5938 27.2031
L10.5938 35.5
L37.7969 35.5
L37.7969 62.7031
z
" id="BitstreamVeraSans-Roman-2b"/>
      <path d="
M18.1094 8.20312
L18.1094 -20.7969
L9.07812 -20.7969
L9.07812 54.6875
L18.1094 54.6875
L18.1094 46.3906
Q20.9531 51.2656 25.2656 53.625
Q29.5938 56 35.5938 56
Q45.5625 56 51.7812 48.0938
Q58.0156 40.1875 58.0156 27.2969
Q58.0156 14.4062 51.7812 6.48438
Q45.5625 -1.42188 35.5938 -1.42188
Q29.5938 -1.42188 25.2656 0.953125
Q20.9531 3.32812 18.1094 8.20312
M48.6875 27.2969
Q48.6875 37.2031 44.6094 42.8438
Q40.5312 48.4844 33.4062 48.4844
Q26.2656 48.4844 22.1875 42.8438
Q18.1094 37.2031 18.1094 27.2969
Q18.1094 17.3906 22.1875 11.75
Q26.2656 6.10938 33.4062 6.10938
Q40.5312 6.10938 44.6094 11.75
Q48.6875 17.3906 48.6875 27.2969" id="BitstreamVeraSans-Roman-70"/>
      <path d="
M18.3125 70.2188
L18.3125 54.6875
L36.8125 54.6875
L36.8125 47.7031
L18.3125 47.7031
L18.3125 18.0156
Q18.3125 11.3281 20.1406 9.42188
Q21.9688 7.51562 27.5938 7.51562
L36.8125 7.51562
L36.8125 0
L27.5938 0
Q17.1875 0 13.2344 3.875
Q9.28125 7.76562 9.28125 18.0156
L9.28125 47.7031
L2.6875 47.7031
L2.6875 54.6875
L9.28125 54.6875
L9.28125 70.2188
z
" id="BitstreamVeraSans-Roman-74"/>
      <path d="
M8.5 21.5781
L8.5 54.6875
L17.4844 54.6875
L17.4844 21.9219
Q17.4844 14.1562 20.5 10.2656
Q23.5312 6.39062 29.5938 6.39062
Q36.8594 6.39062 41.0781 11.0312
Q45.3125 15.6719 45.3125 23.6875
L45.3125 54.6875
L54.2969 54.6875
L54.2969 0
L45.3125 0
L45.3125 8.40625
Q42.0469 3.42188 37.7188 1
Q33.4062 -1.42188 27.6875 -1.42188
Q18.2656 -1.42188 13.375 4.4375
Q8.5 10.2969 8.5 21.5781" id="BitstreamVeraSans-Roman-75"/>
      <path d="
M41.1094 46.2969
Q39.5938 47.1719 37.8125 47.5781
Q36.0312 48 33.8906 48
Q26.2656 48 22.1875 43.0469
Q18.1094 38.0938 18.1094 28.8125
L18.1094 0
L9.07812 0
L9.07812 54.6875
L18.1094 54.6875
L18.1094 46.1875
Q20.9531 51.1719 25.4844 53.5781
Q30.0312 56 36.5312 56
Q37.4531 56 38.5781 55.875
Q39.7031 55.7656 41.0625 55.5156
z
" id="BitstreamVeraSans-Roman-72"/>
      <path d="
M48.7812 52.5938
L48.7812 44.1875
Q44.9688 46.2969 41.1406 47.3438
Q37.3125 48.3906 33.4062 48.3906
Q24.6562 48.3906 19.8125 42.8438
Q14.9844 37.3125 14.9844 27.2969
Q14.9844 17.2812 19.8125 11.7344
Q24.6562 6.20312 33.4062 6.20312
Q37.3125 6.20312 41.1406 7.25
Q44.9688 8.29688 48.7812 10.4062
L48.7812 2.09375
Q45.0156 0.34375 40.9844 -0.53125
Q36.9688 -1.42188 32.4219 -1.42188
Q20.0625 -1.42188 12.7812 6.34375
Q5.51562 14.1094 5.51562 27.2969
Q5.51562 40.6719 12.8594 48.3281
Q20.2188 56 33.0156 56
Q37.1562 56 41.1094 55.1406
Q45.0625 54.2969 48.7812 52.5938" id="BitstreamVeraSans-Roman-63"/>
     </defs>
     <g transform="translate(43.0909375 343.295092822)rotate(-90.0)scale(0.18 -0.18)">
      <use xlink:href="#BitstreamVeraSans-Roman-50"/>
      <use x="58.552734375" xlink:href="#BitstreamVeraSans-Roman-72"/>
      <use x="97.416015625" xlink:href="#BitstreamVeraSans-Roman-6f"/>
      <use x="158.59765625" xlink:href="#BitstreamVeraSans-Roman-70"/>
      <use x="222.07421875" xlink:href="#BitstreamVeraSans-Roman-6f"/>
      <use x="283.255859375" xlink:href="#BitstreamVeraSans-Roman-72"/>
      <use x="324.369140625" xlink:href="#BitstreamVeraSans-Roman-74"/>
      <use x="363.578125" xlink:href="#BitstreamVeraSans-Roman-69"/>
      <use x="391.361328125" xlink:href="#BitstreamVeraSans-Roman-6f"/>
      <use x="452.54296875" xlink:href="#BitstreamVeraSans-Roman-6e"/>
      <use x="515.921875" xlink:href="#BitstreamVeraSans-Roman-20"/>
      <use x="547.708984375" xlink:href="#BitstreamVeraSans-Roman-6f"/>
      <use x="608.890625" xlink:href="#BitstreamVeraSans-Roman-66"/>
      <use x="644.095703125" xlink:href="#BitstreamVeraSans-Roman-20"/>
      <use x="675.8828125" xlink:href="#BitstreamVeraSans-Roman-66"/>
      <use x="711.087890625" xlink:href="#BitstreamVeraSans-Roman-75"/>
      <use x="774.466796875" xlink:href="#BitstreamVeraSans-Roman-6e"/>
      <use x="837.845703125" xlink:href="#BitstreamVeraSans-Roman-63"/>
      <use x="892.826171875" xlink:href="#BitstreamVeraSans-Roman-74"/>
      <use x="932.03515625" xlink:href="#BitstreamVeraSans-Roman-69"/>
      <use x="959.818359375" xlink:href="#BitstreamVeraSans-Roman-6f"/>
      <use x="1021.0" xlink:href="#BitstreamVeraSans-Roman-6e"/>
      <use x="1084.37890625" xlink:href="#BitstreamVeraSans-Roman-2b"/>
      <use x="1168.16796875" xlink:href="#BitstreamVeraSans-Roman-74"/>
      <use x="1207.37695312" xlink:href="#BitstreamVeraSans-Roman-61"/>
      <use x="1268.65625" xlink:href="#BitstreamVeraSans-Roman-72"/>
      <use x="1308.01953125" xlink:href="#BitstreamVeraSans-Roman-67"/>
      <use x="1371.49609375" xlink:href="#BitstreamVeraSans-Roman-65"/>
      <use x="1433.01953125" xlink:href="#BitstreamVeraSans-Roman-74"/>
      <use x="1472.22851562" xlink:href="#BitstreamVeraSans-Roman-20"/>
      <use x="1504.015625" xlink:href="#BitstreamVeraSans-Roman-70"/>
      <use x="1567.4921875" xlink:href="#BitstreamVeraSans-Roman-61"/>
      <use x="1628.77148438" xlink:href="#BitstreamVeraSans-Roman-69"/>
      <use x="1656.5546875" xlink:href="#BitstreamVeraSans-Roman-72"/>
      <use x="1697.66796875" xlink:href="#BitstreamVeraSans-Roman-73"/>
     </g>
    </g>
   </g>
   <g id="text_18">
    <!-- f8 -->
    <g transform="translate(492.0 356.351840965)scale(0.15 -0.15)">
     <use xlink:href="#BitstreamVeraSans-Roman-66"/>
     <use x="35.205078125" xlink:href="#BitstreamVeraSans-Roman-38"/>
    </g>
   </g>
   <g id="text_19">
    <!-- f9 -->
    <defs>
     <path d="
M10.9844 1.51562
L10.9844 10.5
Q14.7031 8.73438 18.5 7.8125
Q22.3125 6.89062 25.9844 6.89062
Q35.75 6.89062 40.8906 13.4531
Q46.0469 20.0156 46.7812 33.4062
Q43.9531 29.2031 39.5938 26.9531
Q35.25 24.7031 29.9844 24.7031
Q19.0469 24.7031 12.6719 31.3125
Q6.29688 37.9375 6.29688 49.4219
Q6.29688 60.6406 12.9375 67.4219
Q19.5781 74.2188 30.6094 74.2188
Q43.2656 74.2188 49.9219 64.5156
Q56.5938 54.8281 56.5938 36.375
Q56.5938 19.1406 48.4062 8.85938
Q40.2344 -1.42188 26.4219 -1.42188
Q22.7031 -1.42188 18.8906 -0.6875
Q15.0938 0.046875 10.9844 1.51562
M30.6094 32.4219
Q37.25 32.4219 41.125 36.9531
Q45.0156 41.5 45.0156 49.4219
Q45.0156 57.2812 41.125 61.8438
Q37.25 66.4062 30.6094 66.4062
Q23.9688 66.4062 20.0938 61.8438
Q16.2188 57.2812 16.2188 49.4219
Q16.2188 41.5 20.0938 36.9531
Q23.9688 32.4219 30.6094 32.4219" id="BitstreamVeraSans-Roman-39"/>
    </defs>
    <g transform="translate(492.0 246.854811262)scale(0.15 -0.15)">
     <use xlink:href="#BitstreamVeraSans-Roman-66"/>
     <use x="35.205078125" xlink:href="#BitstreamVeraSans-Roman-39"/>
    </g>
   </g>
   <g id="text_20">
    <!-- f6 -->
    <g transform="translate(492.0 137.357781559)scale(0.15 -0.15)">
     <use xlink:href="#BitstreamVeraSans-Roman-66"/>
     <use x="35.205078125" xlink:href="#BitstreamVeraSans-Roman-36"/>
    </g>
   </g>
   <g id="text_21">
    <!-- f7 -->
    <g transform="translate(492.0 27.8607518564)scale(0.15 -0.15)">
     <use xlink:href="#BitstreamVeraSans-Roman-66"/>
     <use x="35.205078125" xlink:href="#BitstreamVeraSans-Roman-37"/>
    </g>
   </g>
   <g id="text_22">
    <!-- bbob -->
    <defs>
     <path d="
M48.6875 27.2969
Q48.6875 37.2031 44.6094 42.8438
Q40.5312 48.4844 33.4062 48.4844
Q26.2656 48.4844 22.1875 42.8438
Q18.1094 37.2031 18.1094 27.2969
Q18.1094 17.3906 22.1875 11.75
Q26.2656 6.10938 33.4062 6.10938
Q40.5312 6.10938 44.6094 11.75
Q48.6875 17.3906 48.6875 27.2969
M18.1094 46.3906
Q20.9531 51.2656 25.2656 53.625
Q29.5938 56 35.5938 56
Q45.5625 56 51.7812 48.0938
Q58.0156 40.1875 58.0156 27.2969
Q58.0156 14.4062 51.7812 6.48438
Q45.5625 -1.42188 35.5938 -1.42188
Q29.5938 -1.42188 25.2656 0.953125
Q20.9531 3.32812 18.1094 8.20312
L18.1094 0
L9.07812 0
L9.07812 75.9844
L18.1094 75.9844
z
" id="BitstreamVeraSans-Roman-62"/>
    </defs>
    <g transform="translate(89.664 33.0273396968)scale(0.1666 -0.1666)">
     <use xlink:href="#BitstreamVeraSans-Roman-62"/>
     <use x="63.4765625" xlink:href="#BitstreamVeraSans-Roman-62"/>
     <use x="126.953125" xlink:href="#BitstreamVeraSans-Roman-6f"/>
     <use x="188.134765625" xlink:href="#BitstreamVeraSans-Roman-62"/>
    </g>
    <!-- Misc. moderate functions, 2-D -->
    <defs>
     <path d="
M19.6719 64.7969
L19.6719 8.10938
L31.5938 8.10938
Q46.6875 8.10938 53.6875 14.9375
Q60.6875 21.7812 60.6875 36.5312
Q60.6875 51.1719 53.6875 57.9844
Q46.6875 64.7969 31.5938 64.7969
z

M9.8125 72.9062
L30.0781 72.9062
Q51.2656 72.9062 61.1719 64.0938
Q71.0938 55.2812 71.0938 36.5312
Q71.0938 17.6719 61.125 8.82812
Q51.1719 0 30.0781 0
L9.8125 0
z
" id="BitstreamVeraSans-Roman-44"/>
     <path d="
M11.7188 12.4062
L22.0156 12.4062
L22.0156 4
L14.0156 -11.625
L7.71875 -11.625
L11.7188 4
z
" id="BitstreamVeraSans-Roman-2c"/>
     <path d="
M9.8125 72.9062
L24.5156 72.9062
L43.1094 23.2969
L61.8125 72.9062
L76.5156 72.9062
L76.5156 0
L66.8906 0
L66.8906 64.0156
L48.0938 14.0156
L38.1875 14.0156
L19.3906 64.0156
L19.3906 0
L9.8125 0
z
" id="BitstreamVeraSans-Roman-4d"/>
    </defs>
    <g transform="translate(89.664 51.6828953218)scale(0.1666 -0.1666)">
     <use xlink:href="#BitstreamVeraSans-Roman-4d"/>
     <use x="86.279296875" xlink:href="#BitstreamVeraSans-Roman-69"/>
     <use x="114.0625" xlink:href="#BitstreamVeraSans-Roman-73"/>
     <use x="166.162109375" xlink:href="#BitstreamVeraSans-Roman-63"/>
     <use x="221.142578125" xlink:href="#BitstreamVeraSans-Roman-2e"/>
     <use x="252.9296875" xlink:href="#BitstreamVeraSans-Roman-20"/>
     <use x="284.716796875" xlink:href="#BitstreamVeraSans-Roman-6d"/>
     <use x="382.12890625" xlink:href="#BitstreamVeraSans-Roman-6f"/>
     <use x="443.310546875" xlink:href="#BitstreamVeraSans-Roman-64"/>
     <use x="506.787109375" xlink:href="#BitstreamVeraSans-Roman-65"/>
     <use x="568.310546875" xlink:href="#BitstreamVeraSans-Roman-72"/>
     <use x="609.423828125" xlink:href="#BitstreamVeraSans-Roman-61"/>
     <use x="670.703125" xlink:href="#BitstreamVeraSans-Roman-74"/>
     <use x="709.912109375" xlink:href="#BitstreamVeraSans-Roman-65"/>
     <use x="771.435546875" xlink:href="#BitstreamVeraSans-Roman-20"/>
     <use x="803.22265625" xlink:href="#BitstreamVeraSans-Roman-66"/>
     <use x="838.427734375" xlink:href="#BitstreamVeraSans-Roman-75"/>
     <use x="901.806640625" xlink:href="#BitstreamVeraSans-Roman-6e"/>
     <use x="965.185546875" xlink:href="#BitstreamVeraSans-Roman-63"/>
     <use x="1020.16601562" xlink:href="#BitstreamVeraSans-Roman-74"/>
     <use x="1059.375" xlink:href="#BitstreamVeraSans-Roman-69"/>
     <use x="1087.15820312" xlink:href="#BitstreamVeraSans-Roman-6f"/>
     <use x="1148.33984375" xlink:href="#BitstreamVeraSans-Roman-6e"/>
     <use x="1211.71875" xlink:href="#BitstreamVeraSans-Roman-73"/>
     <use x="1263.81835938" xlink:href="#BitstreamVeraSans-Roman-2c"/>
     <use x="1295.60546875" xlink:href="#BitstreamVeraSans-Roman-20"/>
     <use x="1327.39257812" xlink:href="#BitstreamVeraSans-Roman-32"/>
     <use x="1391.015625" xlink:href="#BitstreamVeraSans-Roman-2d"/>
     <use x="1427.09960938" xlink:href="#BitstreamVeraSans-Roman-44"/>
    </g>
    <!-- 51 targets in 100..1e-08 -->
    <g transform="translate(89.664 70.3384509468)scale(0.1666 -0.1666)">
     <use xlink:href="#BitstreamVeraSans-Roman-35"/>
     <use x="63.623046875" xlink:href="#BitstreamVeraSans-Roman-31"/>
     <use x="127.24609375" xlink:href="#BitstreamVeraSans-Roman-20"/>
     <use x="159.033203125" xlink:href="#BitstreamVeraSans-Roman-74"/>
     <use x="198.2421875" xlink:href="#BitstreamVeraSans-Roman-61"/>
     <use x="259.521484375" xlink:href="#BitstreamVeraSans-Roman-72"/>
     <use x="298.884765625" xlink:href="#BitstreamVeraSans-Roman-67"/>
     <use x="362.361328125" xlink:href="#BitstreamVeraSans-Roman-65"/>
     <use x="423.884765625" xlink:href="#BitstreamVeraSans-Roman-74"/>
     <use x="463.09375" xlink:href="#BitstreamVeraSans-Roman-73"/>
     <use x="515.193359375" xlink:href="#BitstreamVeraSans-Roman-20"/>
     <use x="546.98046875" xlink:href="#BitstreamVeraSans-Roman-69"/>
     <use x="574.763671875" xlink:href="#BitstreamVeraSans-Roman-6e"/>
     <use x="638.142578125" xlink:href="#BitstreamVeraSans-Roman-20"/>
     <use x="669.9296875" xlink:href="#BitstreamVeraSans-Roman-31"/>
     <use x="733.552734375" xlink:href="#BitstreamVeraSans-Roman-30"/>
     <use x="797.17578125" xlink:href="#BitstreamVeraSans-Roman-30"/>
     <use x="860.798828125" xlink:href="#BitstreamVeraSans-Roman-2e"/>
     <use x="892.5859375" xlink:href="#BitstreamVeraSans-Roman-2e"/>
     <use x="924.373046875" xlink:href="#BitstreamVeraSans-Roman-31"/>
     <use x="987.99609375" xlink:href="#BitstreamVeraSans-Roman-65"/>
     <use x="1049.51953125" xlink:href="#BitstreamVeraSans-Roman-2d"/>
     <use x="1085.60351562" xlink:href="#BitstreamVeraSans-Roman-30"/>
     <use x="1149.2265625" xlink:href="#BitstreamVeraSans-Roman-38"/>
    </g>
    <!-- 15 instances -->
    <g transform="translate(89.664 88.9940065718)scale(0.1666 -0.1666)">
     <use xlink:href="#BitstreamVeraSans-Roman-31"/>
     <use x="63.623046875" xlink:href="#BitstreamVeraSans-Roman-35"/>
     <use x="127.24609375" xlink:href="#BitstreamVeraSans-Roman-20"/>
     <use x="159.033203125" xlink:href="#BitstreamVeraSans-Roman-69"/>
     <use x="186.81640625" xlink:href="#BitstreamVeraSans-Roman-6e"/>
     <use x="250.1953125" xlink:href="#BitstreamVeraSans-Roman-73"/>
     <use x="302.294921875" xlink:href="#BitstreamVeraSans-Roman-74"/>
     <use x="341.50390625" xlink:href="#BitstreamVeraSans-Roman-61"/>
     <use x="402.783203125" xlink:href="#BitstreamVeraSans-Roman-6e"/>
     <use x="466.162109375" xlink:href="#BitstreamVeraSans-Roman-63"/>
     <use x="521.142578125" xlink:href="#BitstreamVeraSans-Roman-65"/>
     <use x="582.666015625" xlink:href="#BitstreamVeraSans-Roman-73"/>
    </g>
   </g>
   <g id="text_23">
    <!-- v2.1 -->
    <g style="fill:#808080;" transform="translate(298.1 353.520655322)scale(0.1 -0.1)">
     <use xlink:href="#BitstreamVeraSans-Roman-76"/>
     <use x="59.1796875" xlink:href="#BitstreamVeraSans-Roman-32"/>
     <use x="122.802734375" xlink:href="#BitstreamVeraSans-Roman-2e"/>
     <use x="154.58984375" xlink:href="#BitstreamVeraSans-Roman-31"/>
    </g>
   </g>
  </g>
 </g>
 <defs>
  <clipPath id="p54ce849065">
   <rect height="345.6" width="446.4" x="85.2" y="13.4563428218"/>
  </clipPath>
 </defs>
</svg>
