<?xml version="1.0" encoding="utf-8" standalone="no"?>
<!DOCTYPE svg PUBLIC "-//W3C//DTD SVG 1.1//EN"
  "http://www.w3.org/Graphics/SVG/1.1/DTD/svg11.dtd">
<!-- Created with matplotlib (http://matplotlib.org/) -->
<svg height="353pt" version="1.1" viewBox="0 0 439 353" width="439pt" xmlns="http://www.w3.org/2000/svg" xmlns:xlink="http://www.w3.org/1999/xlink">
 <defs>
  <style type="text/css">
*{stroke-linecap:butt;stroke-linejoin:round;}
  </style>
 </defs>
 <g id="figure_1">
  <g id="patch_1">
   <path d="M 0 353.22225 
L 439.489219 353.22225 
L 439.489219 0 
L 0 0 
z
" style="fill:#ffffff;"/>
  </g>
  <g id="axes_1">
   <g id="patch_2">
    <path d="M 70.8 298.245375 
L 427.92 298.245375 
L 427.92 32.133375 
L 70.8 32.133375 
z
" style="fill:#ffffff;"/>
   </g>
   <g id="matplotlib.axis_1">
    <g id="xtick_1">
     <g id="line2d_1">
      <path clip-path="url(#pa4e64fd83d)" d="M 70.8 298.245375 
L 70.8 32.133375 
" style="fill:none;stroke:#b0b0b0;stroke-linecap:square;stroke-width:0.8;"/>
     </g>
     <g id="line2d_2">
      <defs>
       <path d="M 0 0 
L 0 3.5 
" id="m8af854c9ac" style="stroke:#000000;stroke-width:0.8;"/>
      </defs>
      <g>
       <use style="stroke:#000000;stroke-width:0.8;" x="70.8" xlink:href="#m8af854c9ac" y="298.245375"/>
      </g>
     </g>
     <g id="text_1">
      <!-- 0 -->
      <defs>
       <path d="M 31.78125 66.40625 
Q 24.171875 66.40625 20.328125 58.90625 
Q 16.5 51.421875 16.5 36.375 
Q 16.5 21.390625 20.328125 13.890625 
Q 24.171875 6.390625 31.78125 6.390625 
Q 39.453125 6.390625 43.28125 13.890625 
Q 47.125 21.390625 47.125 36.375 
Q 47.125 51.421875 43.28125 58.90625 
Q 39.453125 66.40625 31.78125 66.40625 
M 31.78125 74.21875 
Q 44.046875 74.21875 50.515625 64.515625 
Q 56.984375 54.828125 56.984375 36.375 
Q 56.984375 17.96875 50.515625 8.265625 
Q 44.046875 -1.421875 31.78125 -1.421875 
Q 19.53125 -1.421875 13.0625 8.265625 
Q 6.59375 17.96875 6.59375 36.375 
Q 6.59375 54.828125 13.0625 64.515625 
Q 19.53125 74.21875 31.78125 74.21875 
" id="DejaVuSans-30"/>
      </defs>
      <g transform="translate(64.4375 320.44225)scale(0.2 -0.2)">
       <use xlink:href="#DejaVuSans-30"/>
      </g>
     </g>
    </g>
    <g id="xtick_2">
     <g id="line2d_3">
      <path clip-path="url(#pa4e64fd83d)" d="M 153.085714 298.245375 
L 153.085714 32.133375 
" style="fill:none;stroke:#b0b0b0;stroke-linecap:square;stroke-width:0.8;"/>
     </g>
     <g id="line2d_4">
      <g>
       <use style="stroke:#000000;stroke-width:0.8;" x="153.085714" xlink:href="#m8af854c9ac" y="298.245375"/>
      </g>
     </g>
     <g id="text_2">
      <!-- 2 -->
      <defs>
       <path d="M 19.1875 8.296875 
L 53.609375 8.296875 
L 53.609375 0 
L 7.328125 0 
L 7.328125 8.296875 
Q 12.9375 14.109375 22.625 23.890625 
Q 32.328125 33.6875 34.8125 36.53125 
Q 39.546875 41.84375 41.421875 45.53125 
Q 43.3125 49.21875 43.3125 52.78125 
Q 43.3125 58.59375 39.234375 62.25 
Q 35.15625 65.921875 28.609375 65.921875 
Q 23.96875 65.921875 18.8125 64.3125 
Q 13.671875 62.703125 7.8125 59.421875 
L 7.8125 69.390625 
Q 13.765625 71.78125 18.9375 73 
Q 24.125 74.21875 28.421875 74.21875 
Q 39.75 74.21875 46.484375 68.546875 
Q 53.21875 62.890625 53.21875 53.421875 
Q 53.21875 48.921875 51.53125 44.890625 
Q 49.859375 40.875 45.40625 35.40625 
Q 44.1875 33.984375 37.640625 27.21875 
Q 31.109375 20.453125 19.1875 8.296875 
" id="DejaVuSans-32"/>
      </defs>
      <g transform="translate(146.723214 320.44225)scale(0.2 -0.2)">
       <use xlink:href="#DejaVuSans-32"/>
      </g>
     </g>
    </g>
    <g id="xtick_3">
     <g id="line2d_5">
      <path clip-path="url(#pa4e64fd83d)" d="M 235.371429 298.245375 
L 235.371429 32.133375 
" style="fill:none;stroke:#b0b0b0;stroke-linecap:square;stroke-width:0.8;"/>
     </g>
     <g id="line2d_6">
      <g>
       <use style="stroke:#000000;stroke-width:0.8;" x="235.371429" xlink:href="#m8af854c9ac" y="298.245375"/>
      </g>
     </g>
     <g id="text_3">
      <!-- 4 -->
      <defs>
       <path d="M 37.796875 64.3125 
L 12.890625 25.390625 
L 37.796875 25.390625 
z
M 35.203125 72.90625 
L 47.609375 72.90625 
L 47.609375 25.390625 
L 58.015625 25.390625 
L 58.015625 17.1875 
L 47.609375 17.1875 
L 47.609375 0 
L 37.796875 0 
L 37.796875 17.1875 
L 4.890625 17.1875 
L 4.890625 26.703125 
z
" id="DejaVuSans-34"/>
      </defs>
      <g transform="translate(229.008929 320.44225)scale(0.2 -0.2)">
       <use xlink:href="#DejaVuSans-34"/>
      </g>
     </g>
    </g>
    <g id="xtick_4">
     <g id="line2d_7">
      <path clip-path="url(#pa4e64fd83d)" d="M 317.657143 298.245375 
L 317.657143 32.133375 
" style="fill:none;stroke:#b0b0b0;stroke-linecap:square;stroke-width:0.8;"/>
     </g>
     <g id="line2d_8">
      <g>
       <use style="stroke:#000000;stroke-width:0.8;" x="317.657143" xlink:href="#m8af854c9ac" y="298.245375"/>
      </g>
     </g>
     <g id="text_4">
      <!-- 6 -->
      <defs>
       <path d="M 33.015625 40.375 
Q 26.375 40.375 22.484375 35.828125 
Q 18.609375 31.296875 18.609375 23.390625 
Q 18.609375 15.53125 22.484375 10.953125 
Q 26.375 6.390625 33.015625 6.390625 
Q 39.65625 6.390625 43.53125 10.953125 
Q 47.40625 15.53125 47.40625 23.390625 
Q 47.40625 31.296875 43.53125 35.828125 
Q 39.65625 40.375 33.015625 40.375 
M 52.59375 71.296875 
L 52.59375 62.3125 
Q 48.875 64.0625 45.09375 64.984375 
Q 41.3125 65.921875 37.59375 65.921875 
Q 27.828125 65.921875 22.671875 59.328125 
Q 17.53125 52.734375 16.796875 39.40625 
Q 19.671875 43.65625 24.015625 45.921875 
Q 28.375 48.1875 33.59375 48.1875 
Q 44.578125 48.1875 50.953125 41.515625 
Q 57.328125 34.859375 57.328125 23.390625 
Q 57.328125 12.15625 50.6875 5.359375 
Q 44.046875 -1.421875 33.015625 -1.421875 
Q 20.359375 -1.421875 13.671875 8.265625 
Q 6.984375 17.96875 6.984375 36.375 
Q 6.984375 53.65625 15.1875 63.9375 
Q 23.390625 74.21875 37.203125 74.21875 
Q 40.921875 74.21875 44.703125 73.484375 
Q 48.484375 72.75 52.59375 71.296875 
" id="DejaVuSans-36"/>
      </defs>
      <g transform="translate(311.294643 320.44225)scale(0.2 -0.2)">
       <use xlink:href="#DejaVuSans-36"/>
      </g>
     </g>
    </g>
    <g id="xtick_5">
     <g id="line2d_9">
      <path clip-path="url(#pa4e64fd83d)" d="M 399.942857 298.245375 
L 399.942857 32.133375 
" style="fill:none;stroke:#b0b0b0;stroke-linecap:square;stroke-width:0.8;"/>
     </g>
     <g id="line2d_10">
      <g>
       <use style="stroke:#000000;stroke-width:0.8;" x="399.942857" xlink:href="#m8af854c9ac" y="298.245375"/>
      </g>
     </g>
     <g id="text_5">
      <!-- 8 -->
      <defs>
       <path d="M 31.78125 34.625 
Q 24.75 34.625 20.71875 30.859375 
Q 16.703125 27.09375 16.703125 20.515625 
Q 16.703125 13.921875 20.71875 10.15625 
Q 24.75 6.390625 31.78125 6.390625 
Q 38.8125 6.390625 42.859375 10.171875 
Q 46.921875 13.96875 46.921875 20.515625 
Q 46.921875 27.09375 42.890625 30.859375 
Q 38.875 34.625 31.78125 34.625 
M 21.921875 38.8125 
Q 15.578125 40.375 12.03125 44.71875 
Q 8.5 49.078125 8.5 55.328125 
Q 8.5 64.0625 14.71875 69.140625 
Q 20.953125 74.21875 31.78125 74.21875 
Q 42.671875 74.21875 48.875 69.140625 
Q 55.078125 64.0625 55.078125 55.328125 
Q 55.078125 49.078125 51.53125 44.71875 
Q 48 40.375 41.703125 38.8125 
Q 48.828125 37.15625 52.796875 32.3125 
Q 56.78125 27.484375 56.78125 20.515625 
Q 56.78125 9.90625 50.3125 4.234375 
Q 43.84375 -1.421875 31.78125 -1.421875 
Q 19.734375 -1.421875 13.25 4.234375 
Q 6.78125 9.90625 6.78125 20.515625 
Q 6.78125 27.484375 10.78125 32.3125 
Q 14.796875 37.15625 21.921875 38.8125 
M 18.3125 54.390625 
Q 18.3125 48.734375 21.84375 45.5625 
Q 25.390625 42.390625 31.78125 42.390625 
Q 38.140625 42.390625 41.71875 45.5625 
Q 45.3125 48.734375 45.3125 54.390625 
Q 45.3125 60.0625 41.71875 63.234375 
Q 38.140625 66.40625 31.78125 66.40625 
Q 25.390625 66.40625 21.84375 63.234375 
Q 18.3125 60.0625 18.3125 54.390625 
" id="DejaVuSans-38"/>
      </defs>
      <g transform="translate(393.580357 320.44225)scale(0.2 -0.2)">
       <use xlink:href="#DejaVuSans-38"/>
      </g>
     </g>
    </g>
    <g id="xtick_6">
     <g id="line2d_11">
      <defs>
       <path d="M 0 0 
L 0 2 
" id="m0defe2cb57" style="stroke:#000000;stroke-width:0.6;"/>
      </defs>
      <g>
       <use style="stroke:#000000;stroke-width:0.6;" x="83.185234" xlink:href="#m0defe2cb57" y="298.245375"/>
      </g>
     </g>
    </g>
    <g id="xtick_7">
     <g id="line2d_12">
      <g>
       <use style="stroke:#000000;stroke-width:0.6;" x="95.570468" xlink:href="#m0defe2cb57" y="298.245375"/>
      </g>
     </g>
    </g>
    <g id="xtick_8">
     <g id="line2d_13">
      <g>
       <use style="stroke:#000000;stroke-width:0.6;" x="102.815366" xlink:href="#m0defe2cb57" y="298.245375"/>
      </g>
     </g>
    </g>
    <g id="xtick_9">
     <g id="line2d_14">
      <g>
       <use style="stroke:#000000;stroke-width:0.6;" x="107.955702" xlink:href="#m0defe2cb57" y="298.245375"/>
      </g>
     </g>
    </g>
    <g id="xtick_10">
     <g id="line2d_15">
      <g>
       <use style="stroke:#000000;stroke-width:0.6;" x="165.470948" xlink:href="#m0defe2cb57" y="298.245375"/>
      </g>
     </g>
    </g>
    <g id="xtick_11">
     <g id="line2d_16">
      <g>
       <use style="stroke:#000000;stroke-width:0.6;" x="177.856183" xlink:href="#m0defe2cb57" y="298.245375"/>
      </g>
     </g>
    </g>
    <g id="xtick_12">
     <g id="line2d_17">
      <g>
       <use style="stroke:#000000;stroke-width:0.6;" x="185.10108" xlink:href="#m0defe2cb57" y="298.245375"/>
      </g>
     </g>
    </g>
    <g id="xtick_13">
     <g id="line2d_18">
      <g>
       <use style="stroke:#000000;stroke-width:0.6;" x="190.241417" xlink:href="#m0defe2cb57" y="298.245375"/>
      </g>
     </g>
    </g>
    <g id="xtick_14">
     <g id="line2d_19">
      <g>
       <use style="stroke:#000000;stroke-width:0.6;" x="247.756663" xlink:href="#m0defe2cb57" y="298.245375"/>
      </g>
     </g>
    </g>
    <g id="xtick_15">
     <g id="line2d_20">
      <g>
       <use style="stroke:#000000;stroke-width:0.6;" x="260.141897" xlink:href="#m0defe2cb57" y="298.245375"/>
      </g>
     </g>
    </g>
    <g id="xtick_16">
     <g id="line2d_21">
      <g>
       <use style="stroke:#000000;stroke-width:0.6;" x="267.386794" xlink:href="#m0defe2cb57" y="298.245375"/>
      </g>
     </g>
    </g>
    <g id="xtick_17">
     <g id="line2d_22">
      <g>
       <use style="stroke:#000000;stroke-width:0.6;" x="272.527131" xlink:href="#m0defe2cb57" y="298.245375"/>
      </g>
     </g>
    </g>
    <g id="xtick_18">
     <g id="line2d_23">
      <g>
       <use style="stroke:#000000;stroke-width:0.6;" x="330.042377" xlink:href="#m0defe2cb57" y="298.245375"/>
      </g>
     </g>
    </g>
    <g id="xtick_19">
     <g id="line2d_24">
      <g>
       <use style="stroke:#000000;stroke-width:0.6;" x="342.427611" xlink:href="#m0defe2cb57" y="298.245375"/>
      </g>
     </g>
    </g>
    <g id="xtick_20">
     <g id="line2d_25">
      <g>
       <use style="stroke:#000000;stroke-width:0.6;" x="349.672509" xlink:href="#m0defe2cb57" y="298.245375"/>
      </g>
     </g>
    </g>
    <g id="xtick_21">
     <g id="line2d_26">
      <g>
       <use style="stroke:#000000;stroke-width:0.6;" x="354.812845" xlink:href="#m0defe2cb57" y="298.245375"/>
      </g>
     </g>
    </g>
    <g id="xtick_22">
     <g id="line2d_27">
      <g>
       <use style="stroke:#000000;stroke-width:0.6;" x="412.328091" xlink:href="#m0defe2cb57" y="298.245375"/>
      </g>
     </g>
    </g>
    <g id="xtick_23">
     <g id="line2d_28">
      <g>
       <use style="stroke:#000000;stroke-width:0.6;" x="424.713325" xlink:href="#m0defe2cb57" y="298.245375"/>
      </g>
     </g>
    </g>
    <g id="text_6">
     <!-- log10 of (# f-evals / dimension) -->
     <defs>
      <path d="M 9.421875 75.984375 
L 18.40625 75.984375 
L 18.40625 0 
L 9.421875 0 
z
" id="DejaVuSans-6c"/>
      <path d="M 30.609375 48.390625 
Q 23.390625 48.390625 19.1875 42.75 
Q 14.984375 37.109375 14.984375 27.296875 
Q 14.984375 17.484375 19.15625 11.84375 
Q 23.34375 6.203125 30.609375 6.203125 
Q 37.796875 6.203125 41.984375 11.859375 
Q 46.1875 17.53125 46.1875 27.296875 
Q 46.1875 37.015625 41.984375 42.703125 
Q 37.796875 48.390625 30.609375 48.390625 
M 30.609375 56 
Q 42.328125 56 49.015625 48.375 
Q 55.71875 40.765625 55.71875 27.296875 
Q 55.71875 13.875 49.015625 6.21875 
Q 42.328125 -1.421875 30.609375 -1.421875 
Q 18.84375 -1.421875 12.171875 6.21875 
Q 5.515625 13.875 5.515625 27.296875 
Q 5.515625 40.765625 12.171875 48.375 
Q 18.84375 56 30.609375 56 
" id="DejaVuSans-6f"/>
      <path d="M 45.40625 27.984375 
Q 45.40625 37.75 41.375 43.109375 
Q 37.359375 48.484375 30.078125 48.484375 
Q 22.859375 48.484375 18.828125 43.109375 
Q 14.796875 37.75 14.796875 27.984375 
Q 14.796875 18.265625 18.828125 12.890625 
Q 22.859375 7.515625 30.078125 7.515625 
Q 37.359375 7.515625 41.375 12.890625 
Q 45.40625 18.265625 45.40625 27.984375 
M 54.390625 6.78125 
Q 54.390625 -7.171875 48.1875 -13.984375 
Q 42 -20.796875 29.203125 -20.796875 
Q 24.46875 -20.796875 20.265625 -20.09375 
Q 16.0625 -19.390625 12.109375 -17.921875 
L 12.109375 -9.1875 
Q 16.0625 -11.328125 19.921875 -12.34375 
Q 23.78125 -13.375 27.78125 -13.375 
Q 36.625 -13.375 41.015625 -8.765625 
Q 45.40625 -4.15625 45.40625 5.171875 
L 45.40625 9.625 
Q 42.625 4.78125 38.28125 2.390625 
Q 33.9375 0 27.875 0 
Q 17.828125 0 11.671875 7.65625 
Q 5.515625 15.328125 5.515625 27.984375 
Q 5.515625 40.671875 11.671875 48.328125 
Q 17.828125 56 27.875 56 
Q 33.9375 56 38.28125 53.609375 
Q 42.625 51.21875 45.40625 46.390625 
L 45.40625 54.6875 
L 54.390625 54.6875 
z
" id="DejaVuSans-67"/>
      <path d="M 12.40625 8.296875 
L 28.515625 8.296875 
L 28.515625 63.921875 
L 10.984375 60.40625 
L 10.984375 69.390625 
L 28.421875 72.90625 
L 38.28125 72.90625 
L 38.28125 8.296875 
L 54.390625 8.296875 
L 54.390625 0 
L 12.40625 0 
z
" id="DejaVuSans-31"/>
      <path id="DejaVuSans-20"/>
      <path d="M 37.109375 75.984375 
L 37.109375 68.5 
L 28.515625 68.5 
Q 23.6875 68.5 21.796875 66.546875 
Q 19.921875 64.59375 19.921875 59.515625 
L 19.921875 54.6875 
L 34.71875 54.6875 
L 34.71875 47.703125 
L 19.921875 47.703125 
L 19.921875 0 
L 10.890625 0 
L 10.890625 47.703125 
L 2.296875 47.703125 
L 2.296875 54.6875 
L 10.890625 54.6875 
L 10.890625 58.5 
Q 10.890625 67.625 15.140625 71.796875 
Q 19.390625 75.984375 28.609375 75.984375 
z
" id="DejaVuSans-66"/>
      <path d="M 31 75.875 
Q 24.46875 64.65625 21.28125 53.65625 
Q 18.109375 42.671875 18.109375 31.390625 
Q 18.109375 20.125 21.3125 9.0625 
Q 24.515625 -2 31 -13.1875 
L 23.1875 -13.1875 
Q 15.875 -1.703125 12.234375 9.375 
Q 8.59375 20.453125 8.59375 31.390625 
Q 8.59375 42.28125 12.203125 53.3125 
Q 15.828125 64.359375 23.1875 75.875 
z
" id="DejaVuSans-28"/>
      <path d="M 51.125 44 
L 36.921875 44 
L 32.8125 27.6875 
L 47.125 27.6875 
z
M 43.796875 71.78125 
L 38.71875 51.515625 
L 52.984375 51.515625 
L 58.109375 71.78125 
L 65.921875 71.78125 
L 60.890625 51.515625 
L 76.125 51.515625 
L 76.125 44 
L 58.984375 44 
L 54.984375 27.6875 
L 70.515625 27.6875 
L 70.515625 20.21875 
L 53.078125 20.21875 
L 48 0 
L 40.1875 0 
L 45.21875 20.21875 
L 30.90625 20.21875 
L 25.875 0 
L 18.015625 0 
L 23.09375 20.21875 
L 7.71875 20.21875 
L 7.71875 27.6875 
L 24.90625 27.6875 
L 29 44 
L 13.28125 44 
L 13.28125 51.515625 
L 30.90625 51.515625 
L 35.890625 71.78125 
z
" id="DejaVuSans-23"/>
      <path d="M 4.890625 31.390625 
L 31.203125 31.390625 
L 31.203125 23.390625 
L 4.890625 23.390625 
z
" id="DejaVuSans-2d"/>
      <path d="M 56.203125 29.59375 
L 56.203125 25.203125 
L 14.890625 25.203125 
Q 15.484375 15.921875 20.484375 11.0625 
Q 25.484375 6.203125 34.421875 6.203125 
Q 39.59375 6.203125 44.453125 7.46875 
Q 49.3125 8.734375 54.109375 11.28125 
L 54.109375 2.78125 
Q 49.265625 0.734375 44.1875 -0.34375 
Q 39.109375 -1.421875 33.890625 -1.421875 
Q 20.796875 -1.421875 13.15625 6.1875 
Q 5.515625 13.8125 5.515625 26.8125 
Q 5.515625 40.234375 12.765625 48.109375 
Q 20.015625 56 32.328125 56 
Q 43.359375 56 49.78125 48.890625 
Q 56.203125 41.796875 56.203125 29.59375 
M 47.21875 32.234375 
Q 47.125 39.59375 43.09375 43.984375 
Q 39.0625 48.390625 32.421875 48.390625 
Q 24.90625 48.390625 20.390625 44.140625 
Q 15.875 39.890625 15.1875 32.171875 
z
" id="DejaVuSans-65"/>
      <path d="M 2.984375 54.6875 
L 12.5 54.6875 
L 29.59375 8.796875 
L 46.6875 54.6875 
L 56.203125 54.6875 
L 35.6875 0 
L 23.484375 0 
z
" id="DejaVuSans-76"/>
      <path d="M 34.28125 27.484375 
Q 23.390625 27.484375 19.1875 25 
Q 14.984375 22.515625 14.984375 16.5 
Q 14.984375 11.71875 18.140625 8.90625 
Q 21.296875 6.109375 26.703125 6.109375 
Q 34.1875 6.109375 38.703125 11.40625 
Q 43.21875 16.703125 43.21875 25.484375 
L 43.21875 27.484375 
z
M 52.203125 31.203125 
L 52.203125 0 
L 43.21875 0 
L 43.21875 8.296875 
Q 40.140625 3.328125 35.546875 0.953125 
Q 30.953125 -1.421875 24.3125 -1.421875 
Q 15.921875 -1.421875 10.953125 3.296875 
Q 6 8.015625 6 15.921875 
Q 6 25.140625 12.171875 29.828125 
Q 18.359375 34.515625 30.609375 34.515625 
L 43.21875 34.515625 
L 43.21875 35.40625 
Q 43.21875 41.609375 39.140625 45 
Q 35.0625 48.390625 27.6875 48.390625 
Q 23 48.390625 18.546875 47.265625 
Q 14.109375 46.140625 10.015625 43.890625 
L 10.015625 52.203125 
Q 14.9375 54.109375 19.578125 55.046875 
Q 24.21875 56 28.609375 56 
Q 40.484375 56 46.34375 49.84375 
Q 52.203125 43.703125 52.203125 31.203125 
" id="DejaVuSans-61"/>
      <path d="M 44.28125 53.078125 
L 44.28125 44.578125 
Q 40.484375 46.53125 36.375 47.5 
Q 32.28125 48.484375 27.875 48.484375 
Q 21.1875 48.484375 17.84375 46.4375 
Q 14.5 44.390625 14.5 40.28125 
Q 14.5 37.15625 16.890625 35.375 
Q 19.28125 33.59375 26.515625 31.984375 
L 29.59375 31.296875 
Q 39.15625 29.25 43.1875 25.515625 
Q 47.21875 21.78125 47.21875 15.09375 
Q 47.21875 7.46875 41.1875 3.015625 
Q 35.15625 -1.421875 24.609375 -1.421875 
Q 20.21875 -1.421875 15.453125 -0.5625 
Q 10.6875 0.296875 5.421875 2 
L 5.421875 11.28125 
Q 10.40625 8.6875 15.234375 7.390625 
Q 20.0625 6.109375 24.8125 6.109375 
Q 31.15625 6.109375 34.5625 8.28125 
Q 37.984375 10.453125 37.984375 14.40625 
Q 37.984375 18.0625 35.515625 20.015625 
Q 33.0625 21.96875 24.703125 23.78125 
L 21.578125 24.515625 
Q 13.234375 26.265625 9.515625 29.90625 
Q 5.8125 33.546875 5.8125 39.890625 
Q 5.8125 47.609375 11.28125 51.796875 
Q 16.75 56 26.8125 56 
Q 31.78125 56 36.171875 55.265625 
Q 40.578125 54.546875 44.28125 53.078125 
" id="DejaVuSans-73"/>
      <path d="M 25.390625 72.90625 
L 33.6875 72.90625 
L 8.296875 -9.28125 
L 0 -9.28125 
z
" id="DejaVuSans-2f"/>
      <path d="M 45.40625 46.390625 
L 45.40625 75.984375 
L 54.390625 75.984375 
L 54.390625 0 
L 45.40625 0 
L 45.40625 8.203125 
Q 42.578125 3.328125 38.25 0.953125 
Q 33.9375 -1.421875 27.875 -1.421875 
Q 17.96875 -1.421875 11.734375 6.484375 
Q 5.515625 14.40625 5.515625 27.296875 
Q 5.515625 40.1875 11.734375 48.09375 
Q 17.96875 56 27.875 56 
Q 33.9375 56 38.25 53.625 
Q 42.578125 51.265625 45.40625 46.390625 
M 14.796875 27.296875 
Q 14.796875 17.390625 18.875 11.75 
Q 22.953125 6.109375 30.078125 6.109375 
Q 37.203125 6.109375 41.296875 11.75 
Q 45.40625 17.390625 45.40625 27.296875 
Q 45.40625 37.203125 41.296875 42.84375 
Q 37.203125 48.484375 30.078125 48.484375 
Q 22.953125 48.484375 18.875 42.84375 
Q 14.796875 37.203125 14.796875 27.296875 
" id="DejaVuSans-64"/>
      <path d="M 9.421875 54.6875 
L 18.40625 54.6875 
L 18.40625 0 
L 9.421875 0 
z
M 9.421875 75.984375 
L 18.40625 75.984375 
L 18.40625 64.59375 
L 9.421875 64.59375 
z
" id="DejaVuSans-69"/>
      <path d="M 52 44.1875 
Q 55.375 50.25 60.0625 53.125 
Q 64.75 56 71.09375 56 
Q 79.640625 56 84.28125 50.015625 
Q 88.921875 44.046875 88.921875 33.015625 
L 88.921875 0 
L 79.890625 0 
L 79.890625 32.71875 
Q 79.890625 40.578125 77.09375 44.375 
Q 74.3125 48.1875 68.609375 48.1875 
Q 61.625 48.1875 57.5625 43.546875 
Q 53.515625 38.921875 53.515625 30.90625 
L 53.515625 0 
L 44.484375 0 
L 44.484375 32.71875 
Q 44.484375 40.625 41.703125 44.40625 
Q 38.921875 48.1875 33.109375 48.1875 
Q 26.21875 48.1875 22.15625 43.53125 
Q 18.109375 38.875 18.109375 30.90625 
L 18.109375 0 
L 9.078125 0 
L 9.078125 54.6875 
L 18.109375 54.6875 
L 18.109375 46.1875 
Q 21.1875 51.21875 25.484375 53.609375 
Q 29.78125 56 35.6875 56 
Q 41.65625 56 45.828125 52.96875 
Q 50 49.953125 52 44.1875 
" id="DejaVuSans-6d"/>
      <path d="M 54.890625 33.015625 
L 54.890625 0 
L 45.90625 0 
L 45.90625 32.71875 
Q 45.90625 40.484375 42.875 44.328125 
Q 39.84375 48.1875 33.796875 48.1875 
Q 26.515625 48.1875 22.3125 43.546875 
Q 18.109375 38.921875 18.109375 30.90625 
L 18.109375 0 
L 9.078125 0 
L 9.078125 54.6875 
L 18.109375 54.6875 
L 18.109375 46.1875 
Q 21.34375 51.125 25.703125 53.5625 
Q 30.078125 56 35.796875 56 
Q 45.21875 56 50.046875 50.171875 
Q 54.890625 44.34375 54.890625 33.015625 
" id="DejaVuSans-6e"/>
      <path d="M 8.015625 75.875 
L 15.828125 75.875 
Q 23.140625 64.359375 26.78125 53.3125 
Q 30.421875 42.28125 30.421875 31.390625 
Q 30.421875 20.453125 26.78125 9.375 
Q 23.140625 -1.703125 15.828125 -13.1875 
L 8.015625 -13.1875 
Q 14.5 -2 17.703125 9.0625 
Q 20.90625 20.125 20.90625 31.390625 
Q 20.90625 42.671875 17.703125 53.65625 
Q 14.5 64.65625 8.015625 75.875 
" id="DejaVuSans-29"/>
     </defs>
     <g transform="translate(107.015156 342.278812)scale(0.18 -0.18)">
      <use xlink:href="#DejaVuSans-6c"/>
      <use x="27.783203" xlink:href="#DejaVuSans-6f"/>
      <use x="88.964844" xlink:href="#DejaVuSans-67"/>
      <use x="152.441406" xlink:href="#DejaVuSans-31"/>
      <use x="216.064453" xlink:href="#DejaVuSans-30"/>
      <use x="279.6875" xlink:href="#DejaVuSans-20"/>
      <use x="311.474609" xlink:href="#DejaVuSans-6f"/>
      <use x="372.65625" xlink:href="#DejaVuSans-66"/>
      <use x="407.861328" xlink:href="#DejaVuSans-20"/>
      <use x="439.648438" xlink:href="#DejaVuSans-28"/>
      <use x="478.662109" xlink:href="#DejaVuSans-23"/>
      <use x="562.451172" xlink:href="#DejaVuSans-20"/>
      <use x="594.238281" xlink:href="#DejaVuSans-66"/>
      <use x="629.365234" xlink:href="#DejaVuSans-2d"/>
      <use x="665.449219" xlink:href="#DejaVuSans-65"/>
      <use x="726.972656" xlink:href="#DejaVuSans-76"/>
      <use x="786.152344" xlink:href="#DejaVuSans-61"/>
      <use x="847.431641" xlink:href="#DejaVuSans-6c"/>
      <use x="875.214844" xlink:href="#DejaVuSans-73"/>
      <use x="927.314453" xlink:href="#DejaVuSans-20"/>
      <use x="959.101562" xlink:href="#DejaVuSans-2f"/>
      <use x="992.792969" xlink:href="#DejaVuSans-20"/>
      <use x="1024.580078" xlink:href="#DejaVuSans-64"/>
      <use x="1088.056641" xlink:href="#DejaVuSans-69"/>
      <use x="1115.839844" xlink:href="#DejaVuSans-6d"/>
      <use x="1213.251953" xlink:href="#DejaVuSans-65"/>
      <use x="1274.775391" xlink:href="#DejaVuSans-6e"/>
      <use x="1338.154297" xlink:href="#DejaVuSans-73"/>
      <use x="1390.253906" xlink:href="#DejaVuSans-69"/>
      <use x="1418.037109" xlink:href="#DejaVuSans-6f"/>
      <use x="1479.21875" xlink:href="#DejaVuSans-6e"/>
      <use x="1542.597656" xlink:href="#DejaVuSans-29"/>
     </g>
    </g>
   </g>
   <g id="matplotlib.axis_2">
    <g id="ytick_1">
     <g id="line2d_29">
      <path clip-path="url(#pa4e64fd83d)" d="M 70.8 298.245375 
L 427.92 298.245375 
" style="fill:none;stroke:#b0b0b0;stroke-linecap:square;stroke-width:0.8;"/>
     </g>
     <g id="line2d_30">
      <defs>
       <path d="M 0 0 
L -3.5 0 
" id="ma9a811f307" style="stroke:#000000;stroke-width:0.8;"/>
      </defs>
      <g>
       <use style="stroke:#000000;stroke-width:0.8;" x="70.8" xlink:href="#ma9a811f307" y="298.245375"/>
      </g>
     </g>
     <g id="text_7">
      <!-- 0.0 -->
      <defs>
       <path d="M 10.6875 12.40625 
L 21 12.40625 
L 21 0 
L 10.6875 0 
z
" id="DejaVuSans-2e"/>
      </defs>
      <g transform="translate(31.99375 305.843812)scale(0.2 -0.2)">
       <use xlink:href="#DejaVuSans-30"/>
       <use x="63.623047" xlink:href="#DejaVuSans-2e"/>
       <use x="95.410156" xlink:href="#DejaVuSans-30"/>
      </g>
     </g>
    </g>
    <g id="ytick_2">
     <g id="line2d_31">
      <path clip-path="url(#pa4e64fd83d)" d="M 70.8 245.549929 
L 427.92 245.549929 
" style="fill:none;stroke:#b0b0b0;stroke-linecap:square;stroke-width:0.8;"/>
     </g>
     <g id="line2d_32">
      <g>
       <use style="stroke:#000000;stroke-width:0.8;" x="70.8" xlink:href="#ma9a811f307" y="245.549929"/>
      </g>
     </g>
     <g id="text_8">
      <!-- 0.2 -->
      <g transform="translate(31.99375 253.148367)scale(0.2 -0.2)">
       <use xlink:href="#DejaVuSans-30"/>
       <use x="63.623047" xlink:href="#DejaVuSans-2e"/>
       <use x="95.410156" xlink:href="#DejaVuSans-32"/>
      </g>
     </g>
    </g>
    <g id="ytick_3">
     <g id="line2d_33">
      <path clip-path="url(#pa4e64fd83d)" d="M 70.8 192.854484 
L 427.92 192.854484 
" style="fill:none;stroke:#b0b0b0;stroke-linecap:square;stroke-width:0.8;"/>
     </g>
     <g id="line2d_34">
      <g>
       <use style="stroke:#000000;stroke-width:0.8;" x="70.8" xlink:href="#ma9a811f307" y="192.854484"/>
      </g>
     </g>
     <g id="text_9">
      <!-- 0.4 -->
      <g transform="translate(31.99375 200.452921)scale(0.2 -0.2)">
       <use xlink:href="#DejaVuSans-30"/>
       <use x="63.623047" xlink:href="#DejaVuSans-2e"/>
       <use x="95.410156" xlink:href="#DejaVuSans-34"/>
      </g>
     </g>
    </g>
    <g id="ytick_4">
     <g id="line2d_35">
      <path clip-path="url(#pa4e64fd83d)" d="M 70.8 140.159038 
L 427.92 140.159038 
" style="fill:none;stroke:#b0b0b0;stroke-linecap:square;stroke-width:0.8;"/>
     </g>
     <g id="line2d_36">
      <g>
       <use style="stroke:#000000;stroke-width:0.8;" x="70.8" xlink:href="#ma9a811f307" y="140.159038"/>
      </g>
     </g>
     <g id="text_10">
      <!-- 0.6 -->
      <g transform="translate(31.99375 147.757476)scale(0.2 -0.2)">
       <use xlink:href="#DejaVuSans-30"/>
       <use x="63.623047" xlink:href="#DejaVuSans-2e"/>
       <use x="95.410156" xlink:href="#DejaVuSans-36"/>
      </g>
     </g>
    </g>
    <g id="ytick_5">
     <g id="line2d_37">
      <path clip-path="url(#pa4e64fd83d)" d="M 70.8 87.463593 
L 427.92 87.463593 
" style="fill:none;stroke:#b0b0b0;stroke-linecap:square;stroke-width:0.8;"/>
     </g>
     <g id="line2d_38">
      <g>
       <use style="stroke:#000000;stroke-width:0.8;" x="70.8" xlink:href="#ma9a811f307" y="87.463593"/>
      </g>
     </g>
     <g id="text_11">
      <!-- 0.8 -->
      <g transform="translate(31.99375 95.06203)scale(0.2 -0.2)">
       <use xlink:href="#DejaVuSans-30"/>
       <use x="63.623047" xlink:href="#DejaVuSans-2e"/>
       <use x="95.410156" xlink:href="#DejaVuSans-38"/>
      </g>
     </g>
    </g>
    <g id="ytick_6">
     <g id="line2d_39">
      <path clip-path="url(#pa4e64fd83d)" d="M 70.8 34.768147 
L 427.92 34.768147 
" style="fill:none;stroke:#b0b0b0;stroke-linecap:square;stroke-width:0.8;"/>
     </g>
     <g id="line2d_40">
      <g>
       <use style="stroke:#000000;stroke-width:0.8;" x="70.8" xlink:href="#ma9a811f307" y="34.768147"/>
      </g>
     </g>
     <g id="text_12">
      <!-- 1.0 -->
      <g transform="translate(31.99375 42.366585)scale(0.2 -0.2)">
       <use xlink:href="#DejaVuSans-31"/>
       <use x="63.623047" xlink:href="#DejaVuSans-2e"/>
       <use x="95.410156" xlink:href="#DejaVuSans-30"/>
      </g>
     </g>
    </g>
    <g id="text_13">
     <!-- Proportion of function+target pairs -->
     <defs>
      <path d="M 19.671875 64.796875 
L 19.671875 37.40625 
L 32.078125 37.40625 
Q 38.96875 37.40625 42.71875 40.96875 
Q 46.484375 44.53125 46.484375 51.125 
Q 46.484375 57.671875 42.71875 61.234375 
Q 38.96875 64.796875 32.078125 64.796875 
z
M 9.8125 72.90625 
L 32.078125 72.90625 
Q 44.34375 72.90625 50.609375 67.359375 
Q 56.890625 61.8125 56.890625 51.125 
Q 56.890625 40.328125 50.609375 34.8125 
Q 44.34375 29.296875 32.078125 29.296875 
L 19.671875 29.296875 
L 19.671875 0 
L 9.8125 0 
z
" id="DejaVuSans-50"/>
      <path d="M 41.109375 46.296875 
Q 39.59375 47.171875 37.8125 47.578125 
Q 36.03125 48 33.890625 48 
Q 26.265625 48 22.1875 43.046875 
Q 18.109375 38.09375 18.109375 28.8125 
L 18.109375 0 
L 9.078125 0 
L 9.078125 54.6875 
L 18.109375 54.6875 
L 18.109375 46.1875 
Q 20.953125 51.171875 25.484375 53.578125 
Q 30.03125 56 36.53125 56 
Q 37.453125 56 38.578125 55.875 
Q 39.703125 55.765625 41.0625 55.515625 
z
" id="DejaVuSans-72"/>
      <path d="M 18.109375 8.203125 
L 18.109375 -20.796875 
L 9.078125 -20.796875 
L 9.078125 54.6875 
L 18.109375 54.6875 
L 18.109375 46.390625 
Q 20.953125 51.265625 25.265625 53.625 
Q 29.59375 56 35.59375 56 
Q 45.5625 56 51.78125 48.09375 
Q 58.015625 40.1875 58.015625 27.296875 
Q 58.015625 14.40625 51.78125 6.484375 
Q 45.5625 -1.421875 35.59375 -1.421875 
Q 29.59375 -1.421875 25.265625 0.953125 
Q 20.953125 3.328125 18.109375 8.203125 
M 48.6875 27.296875 
Q 48.6875 37.203125 44.609375 42.84375 
Q 40.53125 48.484375 33.40625 48.484375 
Q 26.265625 48.484375 22.1875 42.84375 
Q 18.109375 37.203125 18.109375 27.296875 
Q 18.109375 17.390625 22.1875 11.75 
Q 26.265625 6.109375 33.40625 6.109375 
Q 40.53125 6.109375 44.609375 11.75 
Q 48.6875 17.390625 48.6875 27.296875 
" id="DejaVuSans-70"/>
      <path d="M 18.3125 70.21875 
L 18.3125 54.6875 
L 36.8125 54.6875 
L 36.8125 47.703125 
L 18.3125 47.703125 
L 18.3125 18.015625 
Q 18.3125 11.328125 20.140625 9.421875 
Q 21.96875 7.515625 27.59375 7.515625 
L 36.8125 7.515625 
L 36.8125 0 
L 27.59375 0 
Q 17.1875 0 13.234375 3.875 
Q 9.28125 7.765625 9.28125 18.015625 
L 9.28125 47.703125 
L 2.6875 47.703125 
L 2.6875 54.6875 
L 9.28125 54.6875 
L 9.28125 70.21875 
z
" id="DejaVuSans-74"/>
      <path d="M 8.5 21.578125 
L 8.5 54.6875 
L 17.484375 54.6875 
L 17.484375 21.921875 
Q 17.484375 14.15625 20.5 10.265625 
Q 23.53125 6.390625 29.59375 6.390625 
Q 36.859375 6.390625 41.078125 11.03125 
Q 45.3125 15.671875 45.3125 23.6875 
L 45.3125 54.6875 
L 54.296875 54.6875 
L 54.296875 0 
L 45.3125 0 
L 45.3125 8.40625 
Q 42.046875 3.421875 37.71875 1 
Q 33.40625 -1.421875 27.6875 -1.421875 
Q 18.265625 -1.421875 13.375 4.4375 
Q 8.5 10.296875 8.5 21.578125 
M 31.109375 56 
z
" id="DejaVuSans-75"/>
      <path d="M 48.78125 52.59375 
L 48.78125 44.1875 
Q 44.96875 46.296875 41.140625 47.34375 
Q 37.3125 48.390625 33.40625 48.390625 
Q 24.65625 48.390625 19.8125 42.84375 
Q 14.984375 37.3125 14.984375 27.296875 
Q 14.984375 17.28125 19.8125 11.734375 
Q 24.65625 6.203125 33.40625 6.203125 
Q 37.3125 6.203125 41.140625 7.25 
Q 44.96875 8.296875 48.78125 10.40625 
L 48.78125 2.09375 
Q 45.015625 0.34375 40.984375 -0.53125 
Q 36.96875 -1.421875 32.421875 -1.421875 
Q 20.0625 -1.421875 12.78125 6.34375 
Q 5.515625 14.109375 5.515625 27.296875 
Q 5.515625 40.671875 12.859375 48.328125 
Q 20.21875 56 33.015625 56 
Q 37.15625 56 41.109375 55.140625 
Q 45.0625 54.296875 48.78125 52.59375 
" id="DejaVuSans-63"/>
      <path d="M 46 62.703125 
L 46 35.5 
L 73.1875 35.5 
L 73.1875 27.203125 
L 46 27.203125 
L 46 0 
L 37.796875 0 
L 37.796875 27.203125 
L 10.59375 27.203125 
L 10.59375 35.5 
L 37.796875 35.5 
L 37.796875 62.703125 
z
" id="DejaVuSans-2b"/>
     </defs>
     <g transform="translate(24.250312 323.17875)rotate(-90)scale(0.18 -0.18)">
      <use xlink:href="#DejaVuSans-50"/>
      <use x="60.287109" xlink:href="#DejaVuSans-72"/>
      <use x="101.369141" xlink:href="#DejaVuSans-6f"/>
      <use x="162.550781" xlink:href="#DejaVuSans-70"/>
      <use x="226.027344" xlink:href="#DejaVuSans-6f"/>
      <use x="287.208984" xlink:href="#DejaVuSans-72"/>
      <use x="328.322266" xlink:href="#DejaVuSans-74"/>
      <use x="367.53125" xlink:href="#DejaVuSans-69"/>
      <use x="395.314453" xlink:href="#DejaVuSans-6f"/>
      <use x="456.496094" xlink:href="#DejaVuSans-6e"/>
      <use x="519.875" xlink:href="#DejaVuSans-20"/>
      <use x="551.662109" xlink:href="#DejaVuSans-6f"/>
      <use x="612.84375" xlink:href="#DejaVuSans-66"/>
      <use x="648.048828" xlink:href="#DejaVuSans-20"/>
      <use x="679.835938" xlink:href="#DejaVuSans-66"/>
      <use x="715.041016" xlink:href="#DejaVuSans-75"/>
      <use x="778.419922" xlink:href="#DejaVuSans-6e"/>
      <use x="841.798828" xlink:href="#DejaVuSans-63"/>
      <use x="896.779297" xlink:href="#DejaVuSans-74"/>
      <use x="935.988281" xlink:href="#DejaVuSans-69"/>
      <use x="963.771484" xlink:href="#DejaVuSans-6f"/>
      <use x="1024.953125" xlink:href="#DejaVuSans-6e"/>
      <use x="1088.332031" xlink:href="#DejaVuSans-2b"/>
      <use x="1172.121094" xlink:href="#DejaVuSans-74"/>
      <use x="1211.330078" xlink:href="#DejaVuSans-61"/>
      <use x="1272.609375" xlink:href="#DejaVuSans-72"/>
      <use x="1313.707031" xlink:href="#DejaVuSans-67"/>
      <use x="1377.183594" xlink:href="#DejaVuSans-65"/>
      <use x="1438.707031" xlink:href="#DejaVuSans-74"/>
      <use x="1477.916016" xlink:href="#DejaVuSans-20"/>
      <use x="1509.703125" xlink:href="#DejaVuSans-70"/>
      <use x="1573.179688" xlink:href="#DejaVuSans-61"/>
      <use x="1634.458984" xlink:href="#DejaVuSans-69"/>
      <use x="1662.242188" xlink:href="#DejaVuSans-72"/>
      <use x="1703.355469" xlink:href="#DejaVuSans-73"/>
     </g>
    </g>
   </g>
   <g id="line2d_41">
    <defs>
     <path d="M 0 1.5 
C 0.397805 1.5 0.77937 1.341951 1.06066 1.06066 
C 1.341951 0.77937 1.5 0.397805 1.5 0 
C 1.5 -0.397805 1.341951 -0.77937 1.06066 -1.06066 
C 0.77937 -1.341951 0.397805 -1.5 0 -1.5 
C -0.397805 -1.5 -0.77937 -1.341951 -1.06066 -1.06066 
C -1.341951 -0.77937 -1.5 -0.397805 -1.5 0 
C -1.5 0.397805 -1.341951 0.77937 -1.06066 1.06066 
C -0.77937 1.341951 -0.397805 1.5 0 1.5 
z
" id="ma01ee9b97f" style="stroke:#00bfbf;"/>
    </defs>
    <g>
     <use style="fill:#00bfbf;stroke:#00bfbf;" x="237.555227" xlink:href="#ma01ee9b97f" y="34.768147"/>
     <use style="fill:#00bfbf;stroke:#00bfbf;" x="237.555227" xlink:href="#ma01ee9b97f" y="34.768147"/>
    </g>
   </g>
   <g id="line2d_42">
    <path d="M 58.414766 298.245375 
L 58.414766 256.398992 
L 153.085714 256.398992 
L 153.085714 252.782638 
L 172.715846 252.782638 
L 172.715846 251.232772 
L 175.470228 251.232772 
L 175.470228 250.71615 
L 177.856183 250.71615 
L 177.856183 249.682906 
L 179.960743 249.682906 
L 179.960743 245.033307 
L 185.10108 245.033307 
L 185.10108 242.450197 
L 189.088235 242.450197 
L 189.088235 241.933575 
L 190.241417 241.933575 
L 190.241417 241.416953 
L 192.345978 241.416953 
L 192.345978 239.867087 
L 195.10036 239.867087 
L 195.10036 239.350465 
L 198.215726 239.350465 
L 198.215726 237.800599 
L 198.916526 237.800599 
L 198.916526 235.734111 
L 200.240696 235.734111 
L 200.240696 233.151001 
L 200.867712 233.151001 
L 200.867712 231.601135 
L 207.055016 231.601135 
L 207.055016 229.534647 
L 207.485594 229.534647 
L 207.485594 225.401671 
L 207.906039 225.401671 
L 207.906039 221.785317 
L 208.718366 221.785317 
L 208.718366 221.268695 
L 209.495363 221.268695 
L 209.495363 220.752073 
L 209.871548 220.752073 
L 209.871548 218.168963 
L 210.60096 218.168963 
L 210.60096 217.135719 
L 210.954796 217.135719 
L 210.954796 216.102475 
L 213.252946 216.102475 
L 213.252946 213.002743 
L 215.561716 213.002743 
L 215.561716 211.969498 
L 216.095133 211.969498 
L 216.095133 209.90301 
L 219.221007 209.90301 
L 219.221007 209.386388 
L 219.656836 209.386388 
L 219.656836 206.803278 
L 219.870828 206.803278 
L 219.870828 203.186924 
L 220.291274 203.186924 
L 220.291274 200.603814 
L 220.497844 200.603814 
L 220.497844 199.053948 
L 220.702053 199.053948 
L 220.702053 193.887728 
L 221.103601 193.887728 
L 221.103601 191.304618 
L 221.30104 191.304618 
L 221.30104 186.138398 
L 221.496322 186.138398 
L 221.496322 183.555288 
L 221.689493 183.555288 
L 221.689493 179.938934 
L 221.880598 179.938934 
L 221.880598 178.90569 
L 222.06968 178.90569 
L 222.06968 170.123115 
L 222.256782 170.123115 
L 222.256782 163.923651 
L 222.441946 163.923651 
L 222.441946 157.724187 
L 222.62521 157.724187 
L 222.62521 153.074589 
L 222.806614 153.074589 
L 222.806614 149.458235 
L 222.986194 149.458235 
L 222.986194 142.742148 
L 223.163988 142.742148 
L 223.163988 141.708904 
L 223.34003 141.708904 
L 223.34003 134.992818 
L 223.686995 134.992818 
L 223.686995 130.859842 
L 223.857983 130.859842 
L 223.857983 129.309976 
L 224.02735 129.309976 
L 224.02735 128.276732 
L 224.195127 128.276732 
L 224.195127 127.76011 
L 224.361343 127.76011 
L 224.361343 123.627134 
L 224.526028 123.627134 
L 224.526028 122.59389 
L 224.689208 122.59389 
L 224.689208 121.044024 
L 225.011165 121.044024 
L 225.011165 118.460914 
L 225.483477 118.460914 
L 225.483477 116.394426 
L 225.791556 116.394426 
L 225.791556 115.877804 
L 225.943626 115.877804 
L 225.943626 115.361182 
L 226.243937 115.361182 
L 226.243937 113.294694 
L 226.685148 113.294694 
L 226.685148 110.194961 
L 226.973349 110.194961 
L 226.973349 108.645095 
L 227.397119 108.645095 
L 227.397119 106.061985 
L 227.536171 106.061985 
L 227.536171 103.478875 
L 227.67415 103.478875 
L 227.67415 100.895765 
L 227.811071 100.895765 
L 227.811071 99.345899 
L 227.94695 99.345899 
L 227.94695 98.829277 
L 228.081805 98.829277 
L 228.081805 97.279411 
L 228.215649 97.279411 
L 228.215649 92.113191 
L 228.348498 92.113191 
L 228.348498 90.563325 
L 228.480367 90.563325 
L 228.480367 83.847239 
L 228.611269 83.847239 
L 228.611269 80.230885 
L 228.74122 80.230885 
L 228.74122 78.681019 
L 228.870232 78.681019 
L 228.870232 75.064664 
L 228.998319 75.064664 
L 228.998319 70.931688 
L 229.125495 70.931688 
L 229.125495 63.69898 
L 229.251772 63.69898 
L 229.251772 59.566004 
L 229.377163 59.566004 
L 229.377163 58.016138 
L 229.50168 58.016138 
L 229.50168 54.399784 
L 229.625335 54.399784 
L 229.625335 50.78343 
L 229.748141 50.78343 
L 229.748141 48.716942 
L 229.991248 48.716942 
L 229.991248 48.20032 
L 230.231092 48.20032 
L 230.231092 46.650454 
L 235.460547 46.650454 
L 235.549222 42.517478 
L 235.63746 42.517478 
L 235.63746 41.484233 
L 235.986117 41.484233 
L 235.986117 38.384501 
L 237.316452 38.384501 
L 237.316452 35.284769 
L 237.555227 35.284769 
L 237.555227 34.768147 
L 358.8 34.768147 
L 358.8 34.768147 
" style="fill:none;stroke:#00bfbf;stroke-linecap:square;stroke-width:1.5;"/>
   </g>
   <g id="line2d_43">
    <defs>
     <path d="M -6 0 
L 6 0 
M 0 6 
L 0 -6 
" id="m05d58dda7f" style="stroke:#00bfbf;stroke-width:1.5;"/>
    </defs>
    <g>
     <use style="fill:none;stroke:#00bfbf;stroke-width:1.5;" x="358.8" xlink:href="#m05d58dda7f" y="34.768147"/>
    </g>
   </g>
   <g id="line2d_44"/>
   <g id="line2d_45">
    <defs>
     <path d="M 0 1.5 
C 0.397805 1.5 0.77937 1.341951 1.06066 1.06066 
C 1.341951 0.77937 1.5 0.397805 1.5 0 
C 1.5 -0.397805 1.341951 -0.77937 1.06066 -1.06066 
C 0.77937 -1.341951 0.397805 -1.5 0 -1.5 
C -0.397805 -1.5 -0.77937 -1.341951 -1.06066 -1.06066 
C -1.341951 -0.77937 -1.5 -0.397805 -1.5 0 
C -1.5 0.397805 -1.341951 0.77937 -1.06066 1.06066 
C -0.77937 1.341951 -0.397805 1.5 0 1.5 
z
" id="m86b9469177" style="stroke:#008000;"/>
    </defs>
    <g>
     <use style="fill:#008000;stroke:#008000;" x="237.396399" xlink:href="#m86b9469177" y="34.768147"/>
     <use style="fill:#008000;stroke:#008000;" x="237.396399" xlink:href="#m86b9469177" y="34.768147"/>
    </g>
   </g>
   <g id="line2d_46">
    <path d="M 51.169868 298.245375 
L 51.169868 270.347786 
L 145.840817 270.347786 
L 145.840817 263.6317 
L 153.085714 263.6317 
L 153.085714 262.081834 
L 158.226051 262.081834 
L 158.226051 260.531968 
L 162.213206 260.531968 
L 162.213206 259.498724 
L 165.470948 259.498724 
L 165.470948 258.46548 
L 168.225331 258.46548 
L 168.225331 257.948858 
L 170.611285 257.948858 
L 170.611285 256.915614 
L 176.301453 256.915614 
L 176.301453 254.849126 
L 179.286395 254.849126 
L 179.286395 254.332504 
L 180.610565 254.332504 
L 180.610565 253.29926 
L 181.843337 253.29926 
L 181.843337 251.749394 
L 184.079767 251.749394 
L 184.079767 250.71615 
L 185.10108 250.71615 
L 185.10108 248.649662 
L 186.067159 248.649662 
L 186.067159 247.616418 
L 186.983674 247.616418 
L 186.983674 247.099796 
L 190.241417 247.099796 
L 190.241417 246.583173 
L 191.671629 246.583173 
L 191.671629 245.033307 
L 192.345978 245.033307 
L 192.345978 244.516685 
L 193.622815 244.516685 
L 193.622815 244.000063 
L 195.381753 244.000063 
L 195.381753 241.933575 
L 199.368908 241.933575 
L 199.368908 238.317221 
L 199.810118 238.317221 
L 199.810118 237.283977 
L 200.240696 237.283977 
L 200.240696 235.734111 
L 200.661142 235.734111 
L 200.661142 235.217489 
L 201.866191 235.217489 
L 201.866191 234.184245 
L 202.250466 234.184245 
L 202.250466 233.151001 
L 202.626651 233.151001 
L 202.626651 231.084513 
L 202.995079 231.084513 
L 202.995079 230.567891 
L 203.356063 230.567891 
L 203.356063 229.534647 
L 211.071201 229.534647 
L 211.071201 229.018025 
L 214.251425 229.018025 
L 214.251425 227.984781 
L 215.741297 227.984781 
L 215.741297 226.951537 
L 216.095133 226.951537 
L 216.095133 226.434915 
L 216.269457 226.434915 
L 216.269457 225.918293 
L 216.442097 225.918293 
L 216.442097 224.885049 
L 217.116446 224.885049 
L 217.116446 224.368427 
L 217.28113 224.368427 
L 217.28113 221.785317 
L 217.44431 221.785317 
L 217.44431 221.268695 
L 217.766267 221.268695 
L 217.766267 220.752073 
L 218.23858 220.752073 
L 218.23858 218.168963 
L 218.546658 218.168963 
L 218.546658 217.135719 
L 218.698728 217.135719 
L 218.698728 215.585853 
L 218.849515 215.585853 
L 218.849515 214.552609 
L 219.147324 214.552609 
L 219.147324 210.936254 
L 219.294387 210.936254 
L 219.294387 209.90301 
L 219.44025 209.90301 
L 219.44025 207.3199 
L 220.012079 207.3199 
L 220.012079 206.286656 
L 220.152221 206.286656 
L 220.152221 205.253412 
L 220.291274 205.253412 
L 220.291274 200.087192 
L 220.429252 200.087192 
L 220.429252 198.537326 
L 220.566173 198.537326 
L 220.566173 198.020704 
L 220.702053 198.020704 
L 220.702053 193.371106 
L 220.836907 193.371106 
L 220.836907 191.82124 
L 220.970752 191.82124 
L 220.970752 189.754752 
L 221.103601 189.754752 
L 221.103601 183.038666 
L 221.235469 183.038666 
L 221.235469 179.938934 
L 221.366372 179.938934 
L 221.366372 178.389067 
L 221.496322 178.389067 
L 221.496322 171.672981 
L 221.625334 171.672981 
L 221.625334 168.056627 
L 221.753422 168.056627 
L 221.753422 167.023383 
L 221.880598 167.023383 
L 221.880598 162.890407 
L 222.006875 162.890407 
L 222.006875 158.240809 
L 222.132265 158.240809 
L 222.132265 151.524723 
L 222.256782 151.524723 
L 222.256782 144.292014 
L 222.380438 144.292014 
L 222.380438 143.25877 
L 222.503243 143.25877 
L 222.503243 140.67566 
L 222.62521 140.67566 
L 222.62521 136.542684 
L 222.74635 136.542684 
L 222.74635 126.210244 
L 222.866675 126.210244 
L 222.866675 112.26145 
L 222.986194 112.26145 
L 222.986194 106.578607 
L 228.215649 106.578607 
L 228.304325 97.279411 
L 228.392563 97.279411 
L 228.480367 92.629813 
L 228.567742 92.629813 
L 228.567742 90.046703 
L 228.827331 90.046703 
L 228.827331 88.496837 
L 229.083204 88.496837 
L 229.083204 87.463593 
L 229.418765 87.463593 
L 229.50168 85.397105 
L 229.666364 85.397105 
L 229.748141 83.847239 
L 229.829544 83.847239 
L 229.910579 75.064664 
L 230.071554 75.064664 
L 230.151501 72.998176 
L 230.231092 72.998176 
L 230.31033 69.898444 
L 230.389218 69.898444 
L 230.467759 63.182358 
L 230.701333 63.182358 
L 230.778517 61.11587 
L 230.855369 61.11587 
L 230.931892 58.016138 
L 231.008089 58.016138 
L 231.083962 56.466272 
L 231.159515 56.466272 
L 231.234749 53.883162 
L 231.309668 53.883162 
L 231.384274 50.78343 
L 231.45857 50.78343 
L 231.532558 45.100588 
L 231.606241 45.100588 
L 231.679621 42.517478 
L 231.825484 42.517478 
L 231.897972 38.901123 
L 231.970166 38.901123 
L 232.04207 36.834635 
L 232.113686 36.834635 
L 232.113686 35.284769 
L 237.396399 35.284769 
L 237.396399 34.768147 
L 358.8 34.768147 
L 358.8 34.768147 
" style="fill:none;stroke:#008000;stroke-linecap:square;stroke-width:1.5;"/>
   </g>
   <g id="line2d_47">
    <defs>
     <path d="M -0 6 
L 6 -6 
L -6 -6 
z
" id="m60628f5ce6" style="stroke:#008000;stroke-linejoin:miter;stroke-width:1.5;"/>
    </defs>
    <g>
     <use style="fill:none;stroke:#008000;stroke-linejoin:miter;stroke-width:1.5;" x="358.8" xlink:href="#m60628f5ce6" y="34.768147"/>
    </g>
   </g>
   <g id="line2d_48"/>
   <g id="line2d_49">
    <defs>
     <path d="M 0 1.5 
C 0.397805 1.5 0.77937 1.341951 1.06066 1.06066 
C 1.341951 0.77937 1.5 0.397805 1.5 0 
C 1.5 -0.397805 1.341951 -0.77937 1.06066 -1.06066 
C 0.77937 -1.341951 0.397805 -1.5 0 -1.5 
C -0.397805 -1.5 -0.77937 -1.341951 -1.06066 -1.06066 
C -1.341951 -0.77937 -1.5 -0.397805 -1.5 0 
C -1.5 0.397805 -1.341951 0.77937 -1.06066 1.06066 
C -0.77937 1.341951 -0.397805 1.5 0 1.5 
z
" id="m10346d388f" style="stroke:#0000ff;"/>
    </defs>
    <g>
     <use style="fill:#0000ff;stroke:#0000ff;" x="241.434532" xlink:href="#m10346d388f" y="34.768147"/>
     <use style="fill:#0000ff;stroke:#0000ff;" x="241.434532" xlink:href="#m10346d388f" y="34.768147"/>
    </g>
   </g>
   <g id="line2d_50">
    <path d="M 42.042377 298.245375 
L 42.042377 287.396313 
L 136.713325 287.396313 
L 136.713325 283.779959 
L 143.958223 283.779959 
L 143.958223 277.063872 
L 149.098559 277.063872 
L 149.098559 274.997384 
L 153.085714 274.997384 
L 153.085714 272.930896 
L 156.343457 272.930896 
L 156.343457 271.897652 
L 159.097839 271.897652 
L 159.097839 270.347786 
L 161.483794 270.347786 
L 161.483794 269.314542 
L 163.588354 269.314542 
L 163.588354 268.281298 
L 167.173962 268.281298 
L 167.173962 267.764676 
L 168.728691 267.764676 
L 168.728691 266.21481 
L 172.715846 266.21481 
L 172.715846 264.664944 
L 173.869028 264.664944 
L 173.869028 263.6317 
L 174.952275 263.6317 
L 174.952275 263.115078 
L 175.973589 263.115078 
L 175.973589 262.598456 
L 176.939668 262.598456 
L 176.939668 262.081834 
L 178.727971 262.081834 
L 178.727971 260.015346 
L 179.559196 260.015346 
L 179.559196 258.982102 
L 181.843337 258.982102 
L 181.843337 257.948858 
L 182.544138 257.948858 
L 182.544138 257.432236 
L 183.218486 257.432236 
L 183.218486 256.915614 
L 184.495323 256.915614 
L 184.495323 256.398992 
L 186.254262 256.398992 
L 186.254262 254.849126 
L 186.804093 254.849126 
L 186.804093 254.332504 
L 188.848391 254.332504 
L 188.848391 251.749394 
L 189.789035 251.749394 
L 189.789035 250.199528 
L 190.241417 250.199528 
L 190.241417 249.166284 
L 190.682627 249.166284 
L 190.682627 248.649662 
L 191.94443 248.649662 
L 191.94443 247.099796 
L 192.345978 247.099796 
L 192.345978 246.583173 
L 192.738699 246.583173 
L 192.738699 245.549929 
L 199.458026 245.549929 
L 199.458026 244.516685 
L 199.983597 244.516685 
L 199.983597 242.966819 
L 201.233625 242.966819 
L 201.233625 241.933575 
L 201.473469 241.933575 
L 201.473469 239.867087 
L 201.710136 239.867087 
L 201.710136 239.350465 
L 201.94371 239.350465 
L 201.94371 238.833843 
L 202.174269 238.833843 
L 202.174269 237.800599 
L 204.731212 237.800599 
L 204.731212 236.767355 
L 205.317104 236.767355 
L 205.317104 236.250733 
L 205.697291 236.250733 
L 205.697291 235.734111 
L 205.884393 235.734111 
L 205.884393 235.217489 
L 206.069557 235.217489 
L 206.069557 234.700867 
L 211.574562 234.700867 
L 211.574562 234.184245 
L 212.753106 234.184245 
L 212.753106 231.601135 
L 212.879383 231.601135 
L 212.879383 230.051269 
L 213.004774 230.051269 
L 213.004774 229.534647 
L 213.129291 229.534647 
L 213.129291 229.018025 
L 213.252946 229.018025 
L 213.252946 225.918293 
L 213.497719 225.918293 
L 213.497719 222.818561 
L 213.618859 222.818561 
L 213.618859 222.301939 
L 213.739183 222.301939 
L 213.739183 221.785317 
L 213.858703 221.785317 
L 213.858703 221.268695 
L 214.328944 221.268695 
L 214.328944 219.202207 
L 214.787126 219.202207 
L 214.787126 218.168963 
L 216.304119 218.168963 
L 216.304119 217.652341 
L 217.702338 217.652341 
L 217.702338 216.619097 
L 218.728987 216.619097 
L 218.819459 215.069231 
L 219.44025 215.069231 
L 219.44025 214.552609 
L 220.374188 214.552609 
L 220.45672 210.419632 
L 221.418465 210.419632 
L 221.496322 208.353144 
L 221.573841 208.353144 
L 221.651025 206.803278 
L 221.804401 206.803278 
L 221.804401 206.286656 
L 222.107257 206.286656 
L 222.182176 204.73679 
L 222.256782 204.73679 
L 222.331078 201.120436 
L 222.478749 201.120436 
L 222.55213 195.437594 
L 222.697993 195.437594 
L 222.77048 191.82124 
L 222.842675 191.82124 
L 222.914579 188.721508 
L 222.986194 188.721508 
L 222.986194 183.555288 
L 223.199336 183.555288 
L 223.199336 182.522044 
L 223.618139 182.522044 
L 223.618139 182.005422 
L 224.09465 182.005422 
L 224.09465 181.4888 
L 224.624114 181.4888 
L 224.624114 180.972178 
L 225.011165 180.972178 
L 225.011165 180.455556 
L 225.13834 180.455556 
L 225.13834 178.90569 
L 225.264617 178.90569 
L 225.327423 175.805957 
L 225.390008 175.805957 
L 225.390008 175.289335 
L 225.699689 175.289335 
L 225.699689 174.772713 
L 225.822073 174.772713 
L 225.822073 173.222847 
L 226.004093 173.222847 
L 226.064357 171.156359 
L 226.124418 171.156359 
L 226.184277 165.473517 
L 226.243937 165.473517 
L 226.243937 163.407029 
L 228.162232 163.407029 
L 228.162232 162.890407 
L 229.049298 162.890407 
L 229.100132 160.823919 
L 229.251772 160.823919 
L 229.251772 158.757431 
L 229.402136 158.757431 
L 229.402136 158.240809 
L 229.551245 158.240809 
L 229.551245 157.207565 
L 229.894402 157.207565 
L 229.894402 156.174321 
L 230.13554 156.174321 
L 230.13554 155.657699 
L 230.278677 155.657699 
L 230.373468 152.557967 
L 230.467759 152.557967 
L 230.561555 149.974857 
L 230.608269 149.974857 
L 230.701333 146.358503 
L 230.747683 146.358503 
L 230.840025 141.192282 
L 230.886018 141.192282 
L 230.977649 134.992818 
L 231.023289 134.992818 
L 231.114222 129.309976 
L 231.159515 129.309976 
L 231.249758 118.977536 
L 231.294709 118.977536 
L 231.384274 112.26145 
L 232.425429 112.26145 
L 232.425429 110.711584 
L 232.800736 110.711584 
L 232.883078 109.161717 
L 232.924107 109.161717 
L 232.965042 105.545363 
L 233.046632 105.545363 
L 233.087287 103.478875 
L 233.168322 103.478875 
L 233.208702 101.412387 
L 233.289189 101.412387 
L 233.369315 97.279411 
L 233.409244 97.279411 
L 233.488835 93.663057 
L 233.528498 93.663057 
L 233.528498 93.146435 
L 233.686274 93.146435 
L 233.686274 92.629813 
L 234.03626 92.629813 
L 234.113112 91.596569 
L 234.56741 91.596569 
L 234.56741 91.079947 
L 234.753345 91.079947 
L 234.863983 89.530081 
L 234.900711 89.530081 
L 234.973941 84.363861 
L 235.046873 84.363861 
L 235.083227 82.813995 
L 235.191848 82.813995 
L 235.299813 79.714263 
L 235.371429 79.714263 
L 235.442758 75.581286 
L 236.277219 75.581286 
L 236.311157 73.514798 
L 236.613728 73.514798 
L 236.713458 70.415066 
L 236.746577 70.415066 
L 236.84557 67.831956 
L 236.878446 67.831956 
L 236.976713 63.182358 
L 237.009349 63.182358 
L 237.074442 59.049382 
L 237.139299 59.049382 
L 237.139299 58.016138 
L 237.618366 58.016138 
L 237.618366 57.499516 
L 237.992581 57.499516 
L 238.054195 53.883162 
L 238.207307 53.883162 
L 238.298549 52.333296 
L 238.32886 52.333296 
L 238.359119 50.266808 
L 238.569511 50.266808 
L 238.658927 47.167076 
L 238.688633 47.167076 
L 238.718289 44.067344 
L 239.128395 44.067344 
L 239.128395 43.550722 
L 239.41567 43.550722 
L 239.472575 42.517478 
L 239.726428 42.517478 
L 239.726428 42.000855 
L 239.838104 42.000855 
L 239.949086 38.901123 
L 240.031873 38.901123 
L 240.031873 37.351257 
L 240.839305 37.351257 
L 240.839305 36.318013 
L 241.434532 36.318013 
L 241.434532 34.768147 
L 358.8 34.768147 
L 358.8 34.768147 
" style="fill:none;stroke:#0000ff;stroke-linecap:square;stroke-width:1.5;"/>
   </g>
   <g id="line2d_51">
    <defs>
     <path d="M 0 -6 
L -1.347084 -1.854102 
L -5.706339 -1.854102 
L -2.179628 0.708204 
L -3.526712 4.854102 
L -0 2.291796 
L 3.526712 4.854102 
L 2.179628 0.708204 
L 5.706339 -1.854102 
L 1.347084 -1.854102 
z
" id="m0c2c7042f5" style="stroke:#0000ff;stroke-linejoin:bevel;stroke-width:1.5;"/>
    </defs>
    <g>
     <use style="fill:none;stroke:#0000ff;stroke-linejoin:bevel;stroke-width:1.5;" x="358.8" xlink:href="#m0c2c7042f5" y="34.768147"/>
    </g>
   </g>
   <g id="line2d_52"/>
   <g id="line2d_53">
    <defs>
     <path d="M 0 1.5 
C 0.397805 1.5 0.77937 1.341951 1.06066 1.06066 
C 1.341951 0.77937 1.5 0.397805 1.5 0 
C 1.5 -0.397805 1.341951 -0.77937 1.06066 -1.06066 
C 0.77937 -1.341951 0.397805 -1.5 0 -1.5 
C -0.397805 -1.5 -0.77937 -1.341951 -1.06066 -1.06066 
C -1.341951 -0.77937 -1.5 -0.397805 -1.5 0 
C -1.5 0.397805 -1.341951 0.77937 -1.06066 1.06066 
C -0.77937 1.341951 -0.397805 1.5 0 1.5 
z
" id="mbcd542281b" style="stroke:#000000;"/>
    </defs>
    <g>
     <use style="stroke:#000000;" x="250.969679" xlink:href="#mbcd542281b" y="34.768147"/>
     <use style="stroke:#000000;" x="250.969679" xlink:href="#mbcd542281b" y="34.768147"/>
    </g>
   </g>
   <g id="line2d_54">
    <path d="M 136.713325 298.245375 
L 136.713325 297.728753 
L 143.958223 297.728753 
L 143.958223 293.595777 
L 149.098559 293.595777 
L 149.098559 290.496045 
L 153.085714 290.496045 
L 153.085714 287.396313 
L 156.343457 287.396313 
L 156.343457 283.263337 
L 159.097839 283.263337 
L 159.097839 282.746715 
L 161.483794 282.746715 
L 161.483794 282.230093 
L 163.588354 282.230093 
L 163.588354 281.196849 
L 165.470948 281.196849 
L 165.470948 280.680226 
L 167.173962 280.680226 
L 167.173962 279.13036 
L 168.728691 279.13036 
L 168.728691 278.613738 
L 170.158903 278.613738 
L 170.158903 276.030628 
L 171.483073 276.030628 
L 171.483073 273.447518 
L 173.869028 273.447518 
L 173.869028 272.414274 
L 175.973589 272.414274 
L 175.973589 270.864408 
L 177.856183 270.864408 
L 177.856183 269.831164 
L 179.559196 269.831164 
L 179.559196 268.79792 
L 180.353465 268.79792 
L 180.353465 267.764676 
L 181.113925 267.764676 
L 181.113925 267.248054 
L 181.843337 267.248054 
L 181.843337 266.21481 
L 182.544138 266.21481 
L 182.544138 265.181566 
L 183.218486 265.181566 
L 183.218486 264.664944 
L 184.495323 264.664944 
L 184.495323 264.148322 
L 185.10108 264.148322 
L 185.10108 262.081834 
L 186.254262 262.081834 
L 186.254262 261.565212 
L 187.33751 261.565212 
L 187.33751 260.531968 
L 187.855462 260.531968 
L 187.855462 259.498724 
L 188.358823 259.498724 
L 188.358823 258.982102 
L 188.848391 258.982102 
L 188.848391 257.948858 
L 189.789035 257.948858 
L 189.789035 256.915614 
L 190.241417 256.915614 
L 190.241417 255.88237 
L 191.533651 255.88237 
L 191.533651 253.815882 
L 192.345978 253.815882 
L 192.345978 252.266016 
L 192.738699 252.266016 
L 192.738699 251.749394 
L 193.122975 251.749394 
L 193.122975 251.232772 
L 193.499159 251.232772 
L 193.499159 250.71615 
L 193.867587 250.71615 
L 193.867587 250.199528 
L 194.228571 250.199528 
L 194.228571 249.166284 
L 210.457441 249.166284 
L 210.457441 248.649662 
L 210.884587 248.649662 
L 210.884587 248.13304 
L 211.301761 248.13304 
L 211.301761 247.616418 
L 212.107978 247.616418 
L 212.107978 247.099796 
L 212.368831 247.099796 
L 212.368831 246.066551 
L 212.62593 246.066551 
L 212.62593 245.549929 
L 213.004774 245.549929 
L 213.004774 244.000063 
L 213.129291 244.000063 
L 213.129291 243.483441 
L 213.497719 243.483441 
L 213.497719 242.966819 
L 219.265071 242.966819 
L 219.265071 241.416953 
L 219.44025 241.416953 
L 219.5272 239.867087 
L 222.331078 239.867087 
L 222.405066 237.283977 
L 222.55213 237.283977 
L 222.55213 235.217489 
L 222.697993 235.217489 
L 222.697993 234.184245 
L 222.842675 234.184245 
L 222.842675 232.634379 
L 222.986194 232.634379 
L 222.986194 231.084513 
L 224.754065 231.084513 
L 224.754065 230.051269 
L 225.264617 230.051269 
L 225.264617 229.534647 
L 225.57646 229.534647 
L 225.57646 227.984781 
L 225.699689 227.984781 
L 225.760986 226.434915 
L 225.943626 226.434915 
L 225.943626 224.368427 
L 226.480604 224.368427 
L 226.480604 223.335183 
L 226.944737 223.335183 
L 226.944737 222.301939 
L 228.427736 222.301939 
L 228.532843 217.135719 
L 228.585165 217.135719 
L 228.637335 213.519365 
L 228.74122 213.519365 
L 228.844504 209.90301 
L 228.895923 209.90301 
L 228.998319 205.770034 
L 229.451977 205.770034 
L 229.451977 205.253412 
L 229.69912 205.253412 
L 229.69912 204.73679 
L 230.654862 204.73679 
L 230.701333 203.186924 
L 232.55141 203.186924 
L 232.55141 202.670302 
L 232.800736 202.670302 
L 232.883078 200.087192 
L 233.087287 200.087192 
L 233.168322 198.020704 
L 233.248991 198.020704 
L 233.329297 193.371106 
L 233.369315 193.371106 
L 233.449084 190.271374 
L 233.488835 190.271374 
L 233.568073 188.204886 
L 233.686274 188.204886 
L 233.686274 185.621776 
L 233.803699 185.621776 
L 233.84267 183.555288 
L 234.113112 183.555288 
L 234.189635 182.522044 
L 234.265832 182.522044 
L 234.265832 182.005422 
L 234.492492 182.005422 
L 234.52999 179.938934 
L 234.604752 179.938934 
L 234.604752 179.422312 
L 234.716312 179.422312 
L 234.82718 177.872445 
L 234.900711 177.872445 
L 235.010444 173.222847 
L 235.046873 173.222847 
L 235.119507 169.089871 
L 235.191848 169.089871 
L 235.299813 163.407029 
L 235.335657 163.407029 
L 235.371429 157.724187 
L 238.389327 157.724187 
L 238.389327 157.207565 
L 239.557594 157.207565 
L 239.557594 156.690943 
L 239.670327 156.690943 
L 239.726428 154.624455 
L 239.782353 154.624455 
L 239.865914 150.491479 
L 239.893681 150.491479 
L 240.00432 146.358503 
L 240.031873 146.358503 
L 240.141662 139.642416 
L 240.196305 139.642416 
L 240.196305 139.125794 
L 240.386249 139.125794 
L 240.386249 138.09255 
L 240.627532 138.09255 
L 240.707241 136.542684 
L 240.786596 136.542684 
L 240.865601 134.992818 
L 240.970399 134.992818 
L 241.048597 132.409708 
L 241.100539 132.409708 
L 241.203973 126.726866 
L 241.229738 126.726866 
L 241.332429 117.944292 
L 241.358009 117.944292 
L 241.383553 115.877804 
L 242.448774 115.877804 
L 242.496806 114.84456 
L 242.568614 114.84456 
L 242.616326 113.811316 
L 242.735052 113.811316 
L 242.735052 113.294694 
L 242.852993 113.294694 
L 242.852993 112.778072 
L 243.016815 112.778072 
L 243.063346 111.744828 
L 243.24827 111.744828 
L 243.34002 110.194961 
L 243.454047 110.194961 
L 243.544749 105.545363 
L 243.567352 105.545363 
L 243.657482 100.379143 
L 243.679943 100.379143 
L 243.769508 90.046703 
L 243.880836 90.046703 
L 243.880836 89.530081 
L 244.013521 89.530081 
L 244.013521 89.013459 
L 244.427304 89.013459 
L 244.427304 88.496837 
L 244.72618 88.496837 
L 244.831722 80.230885 
L 244.873765 80.230885 
L 244.894749 77.131153 
L 245.573757 77.131153 
L 245.674423 70.415066 
L 245.714531 70.415066 
L 245.794478 65.765468 
L 245.854204 65.765468 
L 245.913732 61.632492 
L 246.110736 61.632492 
L 246.110736 61.11587 
L 246.363637 61.11587 
L 246.440738 59.566004 
L 246.498346 59.566004 
L 246.593949 56.982894 
L 246.613008 56.982894 
L 246.670064 53.883162 
L 246.745857 53.883162 
L 246.840148 46.650454 
L 247.340896 46.650454 
L 247.395678 45.100588 
L 247.522854 45.100588 
L 247.631146 43.550722 
L 247.667098 43.550722 
L 247.738786 41.484233 
L 247.845781 41.484233 
L 247.845781 40.450989 
L 248.543161 40.450989 
L 248.543161 39.934367 
L 249.924642 39.934367 
L 250.035085 37.867879 
L 250.08221 37.867879 
L 250.176088 35.801391 
L 250.969679 35.801391 
L 250.969679 34.768147 
L 358.8 34.768147 
L 358.8 34.768147 
" style="fill:none;stroke:#000000;stroke-linecap:square;stroke-width:1.5;"/>
   </g>
   <g id="line2d_55">
    <defs>
     <path d="M 0 6 
C 1.591219 6 3.117479 5.367802 4.242641 4.242641 
C 5.367802 3.117479 6 1.591219 6 0 
C 6 -1.591219 5.367802 -3.117479 4.242641 -4.242641 
C 3.117479 -5.367802 1.591219 -6 0 -6 
C -1.591219 -6 -3.117479 -5.367802 -4.242641 -4.242641 
C -5.367802 -3.117479 -6 -1.591219 -6 0 
C -6 1.591219 -5.367802 3.117479 -4.242641 4.242641 
C -3.117479 5.367802 -1.591219 6 0 6 
z
" id="m267265e982" style="stroke:#000000;stroke-width:1.5;"/>
    </defs>
    <g>
     <use style="fill:none;stroke:#000000;stroke-width:1.5;" x="358.8" xlink:href="#m267265e982" y="34.768147"/>
    </g>
   </g>
   <g id="line2d_56"/>
   <g id="line2d_57">
    <defs>
     <path d="M 0 1.5 
C 0.397805 1.5 0.77937 1.341951 1.06066 1.06066 
C 1.341951 0.77937 1.5 0.397805 1.5 0 
C 1.5 -0.397805 1.341951 -0.77937 1.06066 -1.06066 
C 0.77937 -1.341951 0.397805 -1.5 0 -1.5 
C -0.397805 -1.5 -0.77937 -1.341951 -1.06066 -1.06066 
C -1.341951 -0.77937 -1.5 -0.397805 -1.5 0 
C -1.5 0.397805 -1.341951 0.77937 -1.06066 1.06066 
C -0.77937 1.341951 -0.397805 1.5 0 1.5 
z
" id="m080ac763d5" style="stroke:#ff0000;"/>
    </defs>
    <g>
     <use style="fill:#ff0000;stroke:#ff0000;" x="261.624263" xlink:href="#m080ac763d5" y="34.768147"/>
     <use style="fill:#ff0000;stroke:#ff0000;" x="261.624263" xlink:href="#m080ac763d5" y="34.768147"/>
    </g>
   </g>
   <g id="line2d_58">
    <path d="M 157.773669 298.245375 
L 157.773669 297.728753 
L 159.097839 297.728753 
L 159.097839 296.695509 
L 160.330612 296.695509 
L 160.330612 296.178887 
L 161.483794 296.178887 
L 161.483794 295.145643 
L 162.567041 295.145643 
L 162.567041 294.629021 
L 164.554434 294.629021 
L 164.554434 293.595777 
L 165.470948 293.595777 
L 165.470948 293.079155 
L 166.342737 293.079155 
L 166.342737 292.562533 
L 167.173962 292.562533 
L 167.173962 291.012667 
L 169.458103 291.012667 
L 169.458103 287.912935 
L 170.158903 287.912935 
L 170.158903 287.396313 
L 173.301738 287.396313 
L 173.301738 286.363069 
L 174.418859 286.363069 
L 174.418859 285.329825 
L 175.470228 285.329825 
L 175.470228 284.296581 
L 175.973589 284.296581 
L 175.973589 283.263337 
L 176.463157 283.263337 
L 176.463157 281.713471 
L 176.939668 281.713471 
L 176.939668 281.196849 
L 177.856183 281.196849 
L 177.856183 280.163604 
L 178.727971 280.163604 
L 178.727971 279.646982 
L 179.559196 279.646982 
L 179.559196 279.13036 
L 179.960743 279.13036 
L 179.960743 278.097116 
L 180.353465 278.097116 
L 180.353465 276.54725 
L 191.740221 276.54725 
L 191.740221 276.030628 
L 192.146332 276.030628 
L 192.146332 274.997384 
L 192.93187 274.997384 
L 192.93187 274.480762 
L 194.048991 274.480762 
L 194.048991 273.96414 
L 194.228571 273.96414 
L 194.228571 273.447518 
L 200.61954 273.447518 
L 200.61954 272.930896 
L 201.233625 272.930896 
L 201.233625 272.414274 
L 201.473469 272.414274 
L 201.473469 270.864408 
L 205.884393 270.864408 
L 205.884393 270.347786 
L 206.252821 270.347786 
L 206.252821 269.831164 
L 206.434225 269.831164 
L 206.434225 269.314542 
L 212.879383 269.314542 
L 212.942189 267.764676 
L 213.129291 267.764676 
L 213.191226 266.731432 
L 213.314454 266.731432 
L 213.314454 266.21481 
L 213.436839 266.21481 
L 213.497719 265.181566 
L 213.618859 265.181566 
L 213.618859 264.664944 
L 214.843581 264.664944 
L 214.843581 264.148322 
L 215.067636 264.148322 
L 215.067636 263.6317 
L 215.669681 263.6317 
L 215.669681 263.115078 
L 216.510689 263.115078 
L 216.510689 262.598456 
L 217.016902 262.598456 
L 217.016902 262.081834 
L 217.411793 262.081834 
L 217.411793 260.531968 
L 217.606014 260.531968 
L 217.606014 259.498724 
L 217.940901 259.498724 
L 217.940901 258.46548 
L 218.316099 258.46548 
L 218.40868 256.915614 
L 218.774281 256.915614 
L 218.774281 256.398992 
L 218.99904 256.398992 
L 218.99904 255.88237 
L 220.415502 255.88237 
L 220.415502 255.365748 
L 220.742616 255.365748 
L 220.742616 253.29926 
L 221.103601 253.29926 
L 221.103601 252.266016 
L 222.182176 252.266016 
L 222.182176 251.232772 
L 222.331078 251.232772 
L 222.368111 249.682906 
L 222.986194 249.682906 
L 222.986194 249.166284 
L 224.195127 249.166284 
L 224.195127 247.616418 
L 224.328223 247.616418 
L 224.394402 244.516685 
L 228.689353 244.516685 
L 228.792936 242.966819 
L 228.921577 242.966819 
L 228.921577 241.416953 
L 229.302034 241.416953 
L 229.302034 240.900331 
L 229.575976 240.900331 
L 229.575976 239.350465 
L 229.845781 239.350465 
L 229.845781 238.833843 
L 230.18338 238.833843 
L 230.231092 237.283977 
L 232.277321 237.283977 
L 232.277321 236.767355 
L 232.404346 236.767355 
L 232.404346 236.250733 
L 232.73873 236.250733 
L 232.821357 235.217489 
L 233.449084 235.217489 
L 233.449084 234.184245 
L 234.265832 234.184245 
L 234.265832 233.667623 
L 234.52999 233.667623 
L 234.52999 233.151001 
L 234.992202 233.151001 
L 235.101376 231.084513 
L 235.119507 231.084513 
L 235.119507 230.051269 
L 235.245912 230.051269 
L 235.353552 227.984781 
L 235.442758 227.984781 
L 235.442758 227.468159 
L 236.003373 227.468159 
L 236.089401 226.434915 
L 236.243217 226.434915 
L 236.243217 225.401671 
L 236.927647 225.401671 
L 236.927647 224.885049 
L 237.041925 224.885049 
L 237.139299 222.818561 
L 237.602602 222.818561 
L 237.602602 222.301939 
L 238.268187 222.301939 
L 238.313711 220.752073 
L 238.464625 220.752073 
L 238.539607 219.202207 
L 238.614275 219.202207 
L 238.614275 218.685585 
L 239.401415 218.685585 
L 239.401415 218.168963 
L 239.684369 218.168963 
L 239.684369 217.652341 
L 239.796307 217.652341 
L 239.893681 215.585853 
L 239.949086 215.585853 
L 239.949086 214.552609 
L 240.693981 214.552609 
L 240.733732 212.48612 
L 240.944257 212.48612 
L 240.944257 211.452876 
L 241.178171 211.452876 
L 241.242607 209.90301 
L 241.332429 209.90301 
L 241.370786 207.836522 
L 241.459967 207.836522 
L 241.459967 207.3199 
L 241.886914 207.3199 
L 241.948849 203.186924 
L 241.998242 203.186924 
L 241.998242 202.670302 
L 242.267493 202.670302 
L 242.267493 201.120436 
L 242.412664 201.120436 
L 242.412664 200.603814 
L 242.54471 200.603814 
L 242.616326 196.98746 
L 242.876489 196.98746 
L 242.876489 196.470838 
L 243.121341 196.470838 
L 243.213743 193.887728 
L 243.259765 193.887728 
L 243.259765 193.371106 
L 243.735974 193.371106 
L 243.769508 192.337862 
L 244.254246 192.337862 
L 244.319339 188.721508 
L 244.768472 188.721508 
L 244.842242 186.65502 
L 245.299092 186.65502 
L 245.32982 183.038666 
L 245.724544 183.038666 
L 245.834318 179.422312 
L 245.844264 179.422312 
L 245.874069 177.355823 
L 246.061688 177.355823 
L 246.061688 176.839201 
L 246.20843 176.839201 
L 246.315279 173.739469 
L 246.334638 173.739469 
L 246.363637 171.672981 
L 246.764755 171.672981 
L 246.840148 169.089871 
L 247.166303 169.089871 
L 247.276771 167.023383 
L 247.295116 167.023383 
L 247.304281 164.956895 
L 247.711936 164.956895 
L 247.756663 163.407029 
L 248.162974 163.407029 
L 248.197873 159.790675 
L 248.53461 159.790675 
L 248.611426 157.207565 
L 249.023947 157.207565 
L 249.040584 155.657699 
L 249.353779 155.657699 
L 249.459676 151.008101 
L 249.781633 151.008101 
L 249.885032 147.391747 
L 250.011476 147.391747 
L 250.011476 146.875125 
L 250.176088 146.875125 
L 250.253945 140.67566 
L 250.977141 140.67566 
L 251.006959 138.09255 
L 251.243724 138.09255 
L 251.353637 135.50944 
L 251.375539 135.50944 
L 251.382833 133.959574 
L 251.693717 133.959574 
L 251.722363 130.34322 
L 251.985186 130.34322 
L 252.083633 128.276732 
L 252.097653 128.276732 
L 252.097653 127.76011 
L 252.403336 127.76011 
L 252.444618 121.560646 
L 252.656401 121.560646 
L 252.757982 119.494158 
L 252.778229 119.494158 
L 252.852273 116.394426 
L 252.9327 116.394426 
L 253.039375 114.84456 
L 253.092475 114.84456 
L 253.112347 113.294694 
L 253.394775 113.294694 
L 253.440332 108.645095 
L 253.730458 108.645095 
L 253.75602 107.095229 
L 254.334083 107.095229 
L 254.395803 105.028741 
L 254.658799 105.028741 
L 254.701249 100.895765 
L 254.929944 100.895765 
L 254.995603 95.212923 
L 255.279324 95.212923 
L 255.279324 93.663057 
L 255.587453 93.663057 
L 255.587453 93.146435 
L 255.844964 93.146435 
L 255.896024 90.046703 
L 256.110016 90.046703 
L 256.199357 86.430349 
L 256.360157 86.430349 
L 256.431773 82.297373 
L 256.672056 82.297373 
L 256.709987 78.164397 
L 256.946583 78.164397 
L 256.973272 75.064664 
L 257.148425 75.064664 
L 257.232734 69.381822 
L 257.441781 69.381822 
L 257.472928 68.348578 
L 257.730398 68.348578 
L 257.755942 66.28209 
L 257.913506 66.28209 
L 258.004361 62.665736 
L 258.224526 62.665736 
L 258.249373 61.11587 
L 258.486171 61.11587 
L 258.505764 58.016138 
L 258.676285 58.016138 
L 258.73921 53.883162 
L 258.941003 53.883162 
L 258.98395 51.300052 
L 259.412485 51.300052 
L 259.454314 48.20032 
L 259.662005 48.20032 
L 259.68035 45.100588 
L 259.908088 45.100588 
L 259.908088 44.067344 
L 260.088212 44.067344 
L 260.12402 42.000855 
L 260.451884 42.000855 
L 260.539473 40.450989 
L 260.565666 40.450989 
L 260.565666 39.934367 
L 260.803998 39.934367 
L 260.803998 39.417745 
L 260.92412 39.417745 
L 261.022192 35.284769 
L 261.624263 35.284769 
L 261.624263 34.768147 
L 358.8 34.768147 
L 358.8 34.768147 
" style="fill:none;stroke:#ff0000;stroke-linecap:square;stroke-width:1.5;"/>
   </g>
   <g id="line2d_59">
    <defs>
     <path d="M -6 6 
L 6 6 
L 6 -6 
L -6 -6 
z
" id="m3b3ad3b48a" style="stroke:#ff0000;stroke-linejoin:miter;stroke-width:1.5;"/>
    </defs>
    <g>
     <use style="fill:none;stroke:#ff0000;stroke-linejoin:miter;stroke-width:1.5;" x="358.8" xlink:href="#m3b3ad3b48a" y="34.768147"/>
    </g>
   </g>
   <g id="line2d_60"/>
   <g id="line2d_61">
    <defs>
     <path d="M 0 1.5 
C 0.397805 1.5 0.77937 1.341951 1.06066 1.06066 
C 1.341951 0.77937 1.5 0.397805 1.5 0 
C 1.5 -0.397805 1.341951 -0.77937 1.06066 -1.06066 
C 0.77937 -1.341951 0.397805 -1.5 0 -1.5 
C -0.397805 -1.5 -0.77937 -1.341951 -1.06066 -1.06066 
C -1.341951 -0.77937 -1.5 -0.397805 -1.5 0 
C -1.5 0.397805 -1.341951 0.77937 -1.06066 1.06066 
C -0.77937 1.341951 -0.397805 1.5 0 1.5 
z
" id="mf2a0c4ec75" style="stroke:#bf00bf;"/>
    </defs>
    <g>
     <use style="fill:#bf00bf;stroke:#bf00bf;" x="273.963184" xlink:href="#mf2a0c4ec75" y="34.768147"/>
     <use style="fill:#bf00bf;stroke:#bf00bf;" x="273.963184" xlink:href="#mf2a0c4ec75" y="34.768147"/>
    </g>
   </g>
   <g id="line2d_62">
    <path d="M 181.843337 298.245375 
L 181.843337 297.212131 
L 189.088235 297.212131 
L 189.088235 296.695509 
L 199.458026 296.695509 
L 199.458026 296.178887 
L 199.983597 296.178887 
L 200.048219 294.629021 
L 200.61954 294.629021 
L 200.681907 293.079155 
L 201.051605 293.079155 
L 201.051605 292.045911 
L 202.116908 292.045911 
L 202.116908 291.529289 
L 203.013302 291.529289 
L 203.067861 290.496045 
L 203.445181 290.496045 
L 203.445181 289.462801 
L 203.657268 289.462801 
L 203.657268 288.946179 
L 204.227851 288.946179 
L 204.227851 288.429557 
L 205.555667 288.429557 
L 205.555667 287.396313 
L 207.739047 287.396313 
L 207.739047 286.879691 
L 208.678615 286.879691 
L 208.678615 285.846447 
L 209.53334 285.846447 
L 209.53334 285.329825 
L 209.796942 285.329825 
L 209.796942 284.813203 
L 210.60096 284.813203 
L 210.60096 284.296581 
L 212.107978 284.296581 
L 212.107978 283.263337 
L 214.983944 283.263337 
L 215.011885 281.713471 
L 216.433505 281.713471 
L 216.433505 281.196849 
L 218.909475 281.196849 
L 218.909475 280.163604 
L 220.040195 280.163604 
L 220.040195 279.646982 
L 224.328223 279.646982 
L 224.328223 278.613738 
L 225.090755 278.613738 
L 225.090755 278.097116 
L 225.327423 278.097116 
L 225.327423 277.063872 
L 225.913315 277.063872 
L 225.913315 276.54725 
L 226.139401 276.54725 
L 226.214132 274.480762 
L 226.91608 274.480762 
L 226.91608 273.96414 
L 227.438948 273.96414 
L 227.438948 272.930896 
L 227.646639 272.930896 
L 227.646639 272.414274 
L 228.20231 272.414274 
L 228.308747 271.38103 
L 228.348498 271.38103 
L 228.348498 270.864408 
L 229.600672 270.864408 
L 229.600672 270.347786 
L 231.749055 270.347786 
L 231.749055 269.831164 
L 233.823196 269.831164 
L 233.823196 268.281298 
L 234.045884 268.281298 
L 234.045884 266.731432 
L 234.265832 266.731432 
L 234.265832 266.21481 
L 234.407831 266.21481 
L 234.407831 264.148322 
L 234.873173 264.148322 
L 234.873173 263.6317 
L 235.317744 263.6317 
L 235.317744 263.115078 
L 235.812639 263.115078 
L 235.812639 262.081834 
L 236.20915 262.081834 
L 236.260226 261.04859 
L 236.336567 261.04859 
L 236.370393 258.982102 
L 236.65535 258.982102 
L 236.65535 258.46548 
L 236.919456 258.46548 
L 236.919456 257.948858 
L 237.284372 257.948858 
L 237.308437 256.915614 
L 238.222547 256.915614 
L 238.222547 255.88237 
L 239.27979 255.88237 
L 239.351435 254.332504 
L 239.852014 254.332504 
L 239.879803 253.29926 
L 239.983627 253.29926 
L 239.983627 252.782638 
L 240.250781 252.782638 
L 240.250781 252.266016 
L 240.963867 252.266016 
L 240.989981 249.682906 
L 242.133375 249.682906 
L 242.133375 248.649662 
L 242.285704 248.649662 
L 242.285704 248.13304 
L 242.870618 248.13304 
L 242.870618 247.099796 
L 243.11555 247.099796 
L 243.11555 245.033307 
L 243.231015 245.033307 
L 243.231015 244.516685 
L 244.04104 244.516685 
L 244.068516 243.483441 
L 244.232495 243.483441 
L 244.319339 242.450197 
L 244.384197 242.450197 
L 244.384197 241.933575 
L 244.539969 241.933575 
L 244.539969 241.416953 
L 245.134313 241.416953 
L 245.134313 240.900331 
L 245.252902 240.900331 
L 245.324703 239.867087 
L 245.548502 239.867087 
L 245.548502 239.350465 
L 245.859172 239.350465 
L 245.859172 238.833843 
L 246.223038 238.833843 
L 246.315279 237.800599 
L 246.797779 237.800599 
L 246.797779 236.767355 
L 247.073722 236.767355 
L 247.073722 236.250733 
L 247.418455 236.250733 
L 247.527379 235.217489 
L 247.531904 235.217489 
L 247.531904 233.667623 
L 247.921183 233.667623 
L 247.965389 231.084513 
L 248.049081 231.084513 
L 248.154239 230.051269 
L 248.197873 230.051269 
L 248.197873 229.018025 
L 248.431673 229.018025 
L 248.508931 227.984781 
L 248.624196 227.984781 
L 248.624196 227.468159 
L 248.835706 227.468159 
L 248.835706 226.951537 
L 249.255467 226.951537 
L 249.255467 226.434915 
L 249.492134 226.434915 
L 249.520486 224.368427 
L 249.857252 224.368427 
L 249.857252 223.851805 
L 250.042948 223.851805 
L 250.042948 222.818561 
L 250.234513 222.818561 
L 250.234513 222.301939 
L 250.439429 222.301939 
L 250.447116 221.268695 
L 250.816014 221.268695 
L 250.827303 219.718829 
L 251.181139 219.718829 
L 251.181139 219.202207 
L 251.368241 219.202207 
L 251.382833 217.652341 
L 251.560627 217.652341 
L 251.582276 216.619097 
L 252.087139 216.619097 
L 252.136151 215.069231 
L 252.271978 215.069231 
L 252.271978 214.035987 
L 252.430868 214.035987 
L 252.482376 211.969498 
L 252.612202 211.969498 
L 252.646211 210.936254 
L 252.91932 210.936254 
L 252.986117 209.90301 
L 253.316406 209.90301 
L 253.316406 209.386388 
L 253.456574 209.386388 
L 253.456574 208.869766 
L 253.65355 208.869766 
L 253.65355 208.353144 
L 253.911797 208.353144 
L 253.911797 207.836522 
L 254.078775 207.836522 
L 254.116366 206.803278 
L 254.27525 206.803278 
L 254.27525 206.286656 
L 254.509428 206.286656 
L 254.549179 204.73679 
L 254.692161 204.73679 
L 254.69822 201.120436 
L 255.140982 201.120436 
L 255.149844 200.087192 
L 255.273459 200.087192 
L 255.273459 199.57057 
L 255.436959 199.57057 
L 255.436959 199.053948 
L 255.578805 199.053948 
L 255.58457 197.504082 
L 255.725254 197.504082 
L 255.768099 194.40435 
L 255.870512 194.40435 
L 255.870512 193.887728 
L 256.533195 193.887728 
L 256.565965 191.304618 
L 256.825988 191.304618 
L 256.836741 190.271374 
L 257.153706 190.271374 
L 257.227476 189.23813 
L 257.350624 189.23813 
L 257.350624 188.204886 
L 257.776351 188.204886 
L 257.883118 185.621776 
L 257.905914 185.621776 
L 257.905914 185.105154 
L 258.395277 185.105154 
L 258.505764 183.038666 
L 258.530224 183.038666 
L 258.530224 181.4888 
L 258.746456 181.4888 
L 258.746456 180.972178 
L 258.988715 180.972178 
L 258.988715 180.455556 
L 259.10744 180.455556 
L 259.135818 178.90569 
L 259.225382 178.90569 
L 259.225382 175.805957 
L 259.36356 175.805957 
L 259.36356 175.289335 
L 259.574607 175.289335 
L 259.684933 171.156359 
L 259.917138 171.156359 
L 260.025375 169.606493 
L 260.368275 169.606493 
L 260.456274 168.573249 
L 260.497922 168.573249 
L 260.497922 168.056627 
L 260.825508 168.056627 
L 260.926258 165.990139 
L 261.113383 165.990139 
L 261.202006 161.340541 
L 261.321582 161.340541 
L 261.348742 159.790675 
L 261.506702 159.790675 
L 261.556296 157.724187 
L 261.743097 157.724187 
L 261.743097 157.207565 
L 262.046812 157.207565 
L 262.130935 156.174321 
L 262.331624 156.174321 
L 262.43997 154.624455 
L 262.541805 154.624455 
L 262.635295 151.524723 
L 262.73023 151.524723 
L 262.736026 150.491479 
L 262.849633 150.491479 
L 262.954892 148.941613 
L 263.227578 148.941613 
L 263.302591 147.391747 
L 263.33998 147.391747 
L 263.399639 145.841881 
L 263.488757 145.841881 
L 263.577433 142.742148 
L 263.76442 142.742148 
L 263.848112 141.192282 
L 264.062817 141.192282 
L 264.062817 140.67566 
L 264.227057 140.67566 
L 264.305076 138.09255 
L 264.395083 138.09255 
L 264.503896 136.026062 
L 264.566775 136.026062 
L 264.6468 133.959574 
L 264.679749 133.959574 
L 264.679749 133.442952 
L 264.91213 133.442952 
L 264.999138 131.376464 
L 265.16009 131.376464 
L 265.249259 130.34322 
L 265.354676 130.34322 
L 265.354676 129.826598 
L 265.5042 129.826598 
L 265.525695 128.276732 
L 265.665606 128.276732 
L 265.732702 127.243488 
L 265.832065 127.243488 
L 265.832065 126.726866 
L 266.006642 126.726866 
L 266.093295 123.110512 
L 266.304942 123.110512 
L 266.391738 120.527402 
L 266.467145 120.527402 
L 266.487513 119.494158 
L 266.626334 119.494158 
L 266.699212 116.911048 
L 266.793356 116.911048 
L 266.85789 115.877804 
L 266.932886 115.877804 
L 266.932886 114.327938 
L 267.095566 114.327938 
L 267.181627 113.294694 
L 267.291243 113.294694 
L 267.385305 109.678339 
L 267.403166 109.678339 
L 267.46109 108.645095 
L 267.604349 108.645095 
L 267.604349 107.095229 
L 267.755222 107.095229 
L 267.838171 104.512119 
L 267.96548 104.512119 
L 268.058937 103.478875 
L 268.110488 103.478875 
L 268.183265 99.862521 
L 268.344878 99.862521 
L 268.344878 99.345899 
L 268.606856 99.345899 
L 268.606856 98.829277 
L 268.748151 98.829277 
L 268.748151 98.312655 
L 268.884229 98.312655 
L 268.967562 96.762789 
L 269.007044 96.762789 
L 269.089808 92.113191 
L 269.149269 92.113191 
L 269.168147 89.013459 
L 269.358506 89.013459 
L 269.425054 87.463593 
L 269.564003 87.463593 
L 269.62191 85.913727 
L 269.751518 85.913727 
L 269.751518 85.397105 
L 269.882782 85.397105 
L 269.882782 84.880483 
L 270.024655 84.880483 
L 270.066998 82.813995 
L 270.141177 82.813995 
L 270.19979 80.230885 
L 270.327814 80.230885 
L 270.385819 77.131153 
L 270.469969 77.131153 
L 270.528764 76.097908 
L 270.582387 76.097908 
L 270.659421 74.03142 
L 270.699051 74.03142 
L 270.713889 70.931688 
L 270.8297 70.931688 
L 270.8297 70.415066 
L 270.949646 70.415066 
L 270.949646 69.381822 
L 271.070003 69.381822 
L 271.084537 66.798712 
L 271.187148 66.798712 
L 271.25443 63.69898 
L 271.311899 63.69898 
L 271.371567 62.665736 
L 271.491491 62.665736 
L 271.547025 60.599248 
L 271.605914 60.599248 
L 271.666953 59.566004 
L 271.723113 59.566004 
L 271.831422 58.016138 
L 271.971366 58.016138 
L 272.070167 56.982894 
L 272.12736 56.982894 
L 272.233254 53.36654 
L 272.245737 53.36654 
L 272.245737 52.849918 
L 272.358827 52.849918 
L 272.431953 50.266808 
L 272.575087 50.266808 
L 272.648445 46.650454 
L 272.690545 46.650454 
L 272.690545 46.133832 
L 272.907224 46.133832 
L 272.929076 44.583966 
L 273.182774 44.583966 
L 273.292244 42.000855 
L 273.340326 42.000855 
L 273.393601 37.867879 
L 273.46262 37.867879 
L 273.504962 36.318013 
L 273.715177 36.318013 
L 273.715177 35.284769 
L 273.963184 35.284769 
L 273.963184 34.768147 
L 358.8 34.768147 
L 358.8 34.768147 
" style="fill:none;stroke:#bf00bf;stroke-linecap:square;stroke-width:1.5;"/>
   </g>
   <g id="line2d_63">
    <defs>
     <path d="M -0 8.485281 
L 8.485281 0 
L 0 -8.485281 
L -8.485281 -0 
z
" id="m56ba1dcffe" style="stroke:#bf00bf;stroke-linejoin:miter;stroke-width:1.5;"/>
    </defs>
    <g>
     <use style="fill:none;stroke:#bf00bf;stroke-linejoin:miter;stroke-width:1.5;" x="358.8" xlink:href="#m56ba1dcffe" y="34.768147"/>
    </g>
   </g>
   <g id="line2d_64"/>
   <g id="line2d_65">
    <path d="M 358.8 34.768147 
L 390.48 292.97583 
" style="fill:none;stroke:#bf00bf;stroke-linecap:square;stroke-width:1.5;"/>
    <g>
     <use style="fill:none;stroke:#bf00bf;stroke-linejoin:miter;stroke-width:1.5;" x="358.8" xlink:href="#m56ba1dcffe" y="34.768147"/>
     <use style="fill:none;stroke:#bf00bf;stroke-linejoin:miter;stroke-width:1.5;" x="390.48" xlink:href="#m56ba1dcffe" y="292.97583"/>
    </g>
   </g>
   <g id="line2d_66">
    <path d="M 358.8 34.768147 
L 390.48 242.388203 
" style="fill:none;stroke:#ff0000;stroke-linecap:square;stroke-width:1.5;"/>
    <g>
     <use style="fill:none;stroke:#ff0000;stroke-linejoin:miter;stroke-width:1.5;" x="358.8" xlink:href="#m3b3ad3b48a" y="34.768147"/>
     <use style="fill:none;stroke:#ff0000;stroke-linejoin:miter;stroke-width:1.5;" x="390.48" xlink:href="#m3b3ad3b48a" y="242.388203"/>
    </g>
   </g>
   <g id="line2d_67">
    <path d="M 358.8 34.768147 
L 390.48 191.800575 
" style="fill:none;stroke:#000000;stroke-linecap:square;stroke-width:1.5;"/>
    <g>
     <use style="fill:none;stroke:#000000;stroke-width:1.5;" x="358.8" xlink:href="#m267265e982" y="34.768147"/>
     <use style="fill:none;stroke:#000000;stroke-width:1.5;" x="390.48" xlink:href="#m267265e982" y="191.800575"/>
    </g>
   </g>
   <g id="line2d_68">
    <path d="M 358.8 34.768147 
L 390.48 141.212947 
" style="fill:none;stroke:#0000ff;stroke-linecap:square;stroke-width:1.5;"/>
    <g>
     <use style="fill:none;stroke:#0000ff;stroke-linejoin:bevel;stroke-width:1.5;" x="358.8" xlink:href="#m0c2c7042f5" y="34.768147"/>
     <use style="fill:none;stroke:#0000ff;stroke-linejoin:bevel;stroke-width:1.5;" x="390.48" xlink:href="#m0c2c7042f5" y="141.212947"/>
    </g>
   </g>
   <g id="line2d_69">
    <path d="M 358.8 34.768147 
L 390.48 90.62532 
" style="fill:none;stroke:#00bfbf;stroke-linecap:square;stroke-width:1.5;"/>
    <g>
     <use style="fill:none;stroke:#00bfbf;stroke-width:1.5;" x="358.8" xlink:href="#m05d58dda7f" y="34.768147"/>
     <use style="fill:none;stroke:#00bfbf;stroke-width:1.5;" x="390.48" xlink:href="#m05d58dda7f" y="90.62532"/>
    </g>
   </g>
   <g id="line2d_70">
    <path d="M 358.8 34.768147 
L 390.48 40.037692 
" style="fill:none;stroke:#008000;stroke-linecap:square;stroke-width:1.5;"/>
    <g>
     <use style="fill:none;stroke:#008000;stroke-linejoin:miter;stroke-width:1.5;" x="358.8" xlink:href="#m60628f5ce6" y="34.768147"/>
     <use style="fill:none;stroke:#008000;stroke-linejoin:miter;stroke-width:1.5;" x="390.48" xlink:href="#m60628f5ce6" y="40.037692"/>
    </g>
   </g>
   <g id="line2d_71">
    <path d="M 358.8 298.245375 
L 358.8 34.768147 
" style="fill:none;stroke:#000000;stroke-linecap:square;stroke-width:1.5;"/>
   </g>
   <g id="patch_3">
    <path d="M 70.8 298.245375 
L 70.8 32.133375 
" style="fill:none;stroke:#000000;stroke-linecap:square;stroke-linejoin:miter;stroke-width:0.8;"/>
   </g>
   <g id="patch_4">
    <path d="M 427.92 298.245375 
L 427.92 32.133375 
" style="fill:none;stroke:#000000;stroke-linecap:square;stroke-linejoin:miter;stroke-width:0.8;"/>
   </g>
   <g id="patch_5">
    <path d="M 70.8 298.245375 
L 427.92 298.245375 
" style="fill:none;stroke:#000000;stroke-linecap:square;stroke-linejoin:miter;stroke-width:0.8;"/>
   </g>
   <g id="patch_6">
    <path d="M 70.8 32.133375 
L 427.92 32.133375 
" style="fill:none;stroke:#000000;stroke-linecap:square;stroke-linejoin:miter;stroke-width:0.8;"/>
   </g>
   <g id="text_14">
    <!-- 40-D -->
    <defs>
     <path d="M 19.671875 64.796875 
L 19.671875 8.109375 
L 31.59375 8.109375 
Q 46.6875 8.109375 53.6875 14.9375 
Q 60.6875 21.78125 60.6875 36.53125 
Q 60.6875 51.171875 53.6875 57.984375 
Q 46.6875 64.796875 31.59375 64.796875 
z
M 9.8125 72.90625 
L 30.078125 72.90625 
Q 51.265625 72.90625 61.171875 64.09375 
Q 71.09375 55.28125 71.09375 36.53125 
Q 71.09375 17.671875 61.125 8.828125 
Q 51.171875 0 30.078125 0 
L 9.8125 0 
z
" id="DejaVuSans-44"/>
    </defs>
    <g transform="translate(396.24 297.114893)scale(0.15 -0.15)">
     <use xlink:href="#DejaVuSans-34"/>
     <use x="63.623047" xlink:href="#DejaVuSans-30"/>
     <use x="127.246094" xlink:href="#DejaVuSans-2d"/>
     <use x="163.330078" xlink:href="#DejaVuSans-44"/>
    </g>
   </g>
   <g id="text_15">
    <!-- 20-D -->
    <g transform="translate(396.24 246.527265)scale(0.15 -0.15)">
     <use xlink:href="#DejaVuSans-32"/>
     <use x="63.623047" xlink:href="#DejaVuSans-30"/>
     <use x="127.246094" xlink:href="#DejaVuSans-2d"/>
     <use x="163.330078" xlink:href="#DejaVuSans-44"/>
    </g>
   </g>
   <g id="text_16">
    <!-- 10-D -->
    <g transform="translate(396.24 195.939637)scale(0.15 -0.15)">
     <use xlink:href="#DejaVuSans-31"/>
     <use x="63.623047" xlink:href="#DejaVuSans-30"/>
     <use x="127.246094" xlink:href="#DejaVuSans-2d"/>
     <use x="163.330078" xlink:href="#DejaVuSans-44"/>
    </g>
   </g>
   <g id="text_17">
    <!-- 5-D -->
    <defs>
     <path d="M 10.796875 72.90625 
L 49.515625 72.90625 
L 49.515625 64.59375 
L 19.828125 64.59375 
L 19.828125 46.734375 
Q 21.96875 47.46875 24.109375 47.828125 
Q 26.265625 48.1875 28.421875 48.1875 
Q 40.625 48.1875 47.75 41.5 
Q 54.890625 34.8125 54.890625 23.390625 
Q 54.890625 11.625 47.5625 5.09375 
Q 40.234375 -1.421875 26.90625 -1.421875 
Q 22.3125 -1.421875 17.546875 -0.640625 
Q 12.796875 0.140625 7.71875 1.703125 
L 7.71875 11.625 
Q 12.109375 9.234375 16.796875 8.0625 
Q 21.484375 6.890625 26.703125 6.890625 
Q 35.15625 6.890625 40.078125 11.328125 
Q 45.015625 15.765625 45.015625 23.390625 
Q 45.015625 31 40.078125 35.4375 
Q 35.15625 39.890625 26.703125 39.890625 
Q 22.75 39.890625 18.8125 39.015625 
Q 14.890625 38.140625 10.796875 36.28125 
z
" id="DejaVuSans-35"/>
    </defs>
    <g transform="translate(396.24 145.35201)scale(0.15 -0.15)">
     <use xlink:href="#DejaVuSans-35"/>
     <use x="63.623047" xlink:href="#DejaVuSans-2d"/>
     <use x="99.707031" xlink:href="#DejaVuSans-44"/>
    </g>
   </g>
   <g id="text_18">
    <!-- 2-D -->
    <g transform="translate(396.24 94.764382)scale(0.15 -0.15)">
     <use xlink:href="#DejaVuSans-32"/>
     <use x="63.623047" xlink:href="#DejaVuSans-2d"/>
     <use x="99.707031" xlink:href="#DejaVuSans-44"/>
    </g>
   </g>
   <g id="text_19">
    <!-- 3-D -->
    <defs>
     <path d="M 40.578125 39.3125 
Q 47.65625 37.796875 51.625 33 
Q 55.609375 28.21875 55.609375 21.1875 
Q 55.609375 10.40625 48.1875 4.484375 
Q 40.765625 -1.421875 27.09375 -1.421875 
Q 22.515625 -1.421875 17.65625 -0.515625 
Q 12.796875 0.390625 7.625 2.203125 
L 7.625 11.71875 
Q 11.71875 9.328125 16.59375 8.109375 
Q 21.484375 6.890625 26.8125 6.890625 
Q 36.078125 6.890625 40.9375 10.546875 
Q 45.796875 14.203125 45.796875 21.1875 
Q 45.796875 27.640625 41.28125 31.265625 
Q 36.765625 34.90625 28.71875 34.90625 
L 20.21875 34.90625 
L 20.21875 43.015625 
L 29.109375 43.015625 
Q 36.375 43.015625 40.234375 45.921875 
Q 44.09375 48.828125 44.09375 54.296875 
Q 44.09375 59.90625 40.109375 62.90625 
Q 36.140625 65.921875 28.71875 65.921875 
Q 24.65625 65.921875 20.015625 65.03125 
Q 15.375 64.15625 9.8125 62.3125 
L 9.8125 71.09375 
Q 15.4375 72.65625 20.34375 73.4375 
Q 25.25 74.21875 29.59375 74.21875 
Q 40.828125 74.21875 47.359375 69.109375 
Q 53.90625 64.015625 53.90625 55.328125 
Q 53.90625 49.265625 50.4375 45.09375 
Q 46.96875 40.921875 40.578125 39.3125 
" id="DejaVuSans-33"/>
    </defs>
    <g transform="translate(396.24 44.176754)scale(0.15 -0.15)">
     <use xlink:href="#DejaVuSans-33"/>
     <use x="63.623047" xlink:href="#DejaVuSans-2d"/>
     <use x="99.707031" xlink:href="#DejaVuSans-44"/>
    </g>
   </g>
   <g id="text_20">
    <!-- bbob - f3 -->
    <defs>
     <path d="M 48.6875 27.296875 
Q 48.6875 37.203125 44.609375 42.84375 
Q 40.53125 48.484375 33.40625 48.484375 
Q 26.265625 48.484375 22.1875 42.84375 
Q 18.109375 37.203125 18.109375 27.296875 
Q 18.109375 17.390625 22.1875 11.75 
Q 26.265625 6.109375 33.40625 6.109375 
Q 40.53125 6.109375 44.609375 11.75 
Q 48.6875 17.390625 48.6875 27.296875 
M 18.109375 46.390625 
Q 20.953125 51.265625 25.265625 53.625 
Q 29.59375 56 35.59375 56 
Q 45.5625 56 51.78125 48.09375 
Q 58.015625 40.1875 58.015625 27.296875 
Q 58.015625 14.40625 51.78125 6.484375 
Q 45.5625 -1.421875 35.59375 -1.421875 
Q 29.59375 -1.421875 25.265625 0.953125 
Q 20.953125 3.328125 18.109375 8.203125 
L 18.109375 0 
L 9.078125 0 
L 9.078125 75.984375 
L 18.109375 75.984375 
z
" id="DejaVuSans-62"/>
    </defs>
    <g transform="translate(74.3712 50.114612)scale(0.1666 -0.1666)">
     <use xlink:href="#DejaVuSans-62"/>
     <use x="63.476562" xlink:href="#DejaVuSans-62"/>
     <use x="126.953125" xlink:href="#DejaVuSans-6f"/>
     <use x="188.134766" xlink:href="#DejaVuSans-62"/>
     <use x="251.611328" xlink:href="#DejaVuSans-20"/>
     <use x="283.398438" xlink:href="#DejaVuSans-2d"/>
     <use x="319.482422" xlink:href="#DejaVuSans-20"/>
     <use x="351.269531" xlink:href="#DejaVuSans-66"/>
     <use x="386.474609" xlink:href="#DejaVuSans-33"/>
    </g>
    <!-- 51 targets in 100..1e-08 -->
    <g transform="translate(74.3712 68.770168)scale(0.1666 -0.1666)">
     <use xlink:href="#DejaVuSans-35"/>
     <use x="63.623047" xlink:href="#DejaVuSans-31"/>
     <use x="127.246094" xlink:href="#DejaVuSans-20"/>
     <use x="159.033203" xlink:href="#DejaVuSans-74"/>
     <use x="198.242188" xlink:href="#DejaVuSans-61"/>
     <use x="259.521484" xlink:href="#DejaVuSans-72"/>
     <use x="300.619141" xlink:href="#DejaVuSans-67"/>
     <use x="364.095703" xlink:href="#DejaVuSans-65"/>
     <use x="425.619141" xlink:href="#DejaVuSans-74"/>
     <use x="464.828125" xlink:href="#DejaVuSans-73"/>
     <use x="516.927734" xlink:href="#DejaVuSans-20"/>
     <use x="548.714844" xlink:href="#DejaVuSans-69"/>
     <use x="576.498047" xlink:href="#DejaVuSans-6e"/>
     <use x="639.876953" xlink:href="#DejaVuSans-20"/>
     <use x="671.664062" xlink:href="#DejaVuSans-31"/>
     <use x="735.287109" xlink:href="#DejaVuSans-30"/>
     <use x="798.910156" xlink:href="#DejaVuSans-30"/>
     <use x="862.533203" xlink:href="#DejaVuSans-2e"/>
     <use x="894.320312" xlink:href="#DejaVuSans-2e"/>
     <use x="926.107422" xlink:href="#DejaVuSans-31"/>
     <use x="989.730469" xlink:href="#DejaVuSans-65"/>
     <use x="1051.253906" xlink:href="#DejaVuSans-2d"/>
     <use x="1087.337891" xlink:href="#DejaVuSans-30"/>
     <use x="1150.960938" xlink:href="#DejaVuSans-38"/>
    </g>
    <!-- 15 instances -->
    <g transform="translate(74.3712 87.425723)scale(0.1666 -0.1666)">
     <use xlink:href="#DejaVuSans-31"/>
     <use x="63.623047" xlink:href="#DejaVuSans-35"/>
     <use x="127.246094" xlink:href="#DejaVuSans-20"/>
     <use x="159.033203" xlink:href="#DejaVuSans-69"/>
     <use x="186.816406" xlink:href="#DejaVuSans-6e"/>
     <use x="250.195312" xlink:href="#DejaVuSans-73"/>
     <use x="302.294922" xlink:href="#DejaVuSans-74"/>
     <use x="341.503906" xlink:href="#DejaVuSans-61"/>
     <use x="402.783203" xlink:href="#DejaVuSans-6e"/>
     <use x="466.162109" xlink:href="#DejaVuSans-63"/>
     <use x="521.142578" xlink:href="#DejaVuSans-65"/>
     <use x="582.666016" xlink:href="#DejaVuSans-73"/>
    </g>
   </g>
   <g id="text_21">
    <!-- v2.0.1 -->
    <g style="fill:#808080;" transform="translate(233.67875 293.504568)scale(0.1 -0.1)">
     <use xlink:href="#DejaVuSans-76"/>
     <use x="59.179688" xlink:href="#DejaVuSans-32"/>
     <use x="122.802734" xlink:href="#DejaVuSans-2e"/>
     <use x="154.589844" xlink:href="#DejaVuSans-30"/>
     <use x="218.212891" xlink:href="#DejaVuSans-2e"/>
     <use x="250" xlink:href="#DejaVuSans-31"/>
    </g>
   </g>
   <g id="text_22">
    <!-- 3 Rastrigin separable -->
    <defs>
     <path d="M 44.390625 34.1875 
Q 47.5625 33.109375 50.5625 29.59375 
Q 53.5625 26.078125 56.59375 19.921875 
L 66.609375 0 
L 56 0 
L 46.6875 18.703125 
Q 43.0625 26.03125 39.671875 28.421875 
Q 36.28125 30.8125 30.421875 30.8125 
L 19.671875 30.8125 
L 19.671875 0 
L 9.8125 0 
L 9.8125 72.90625 
L 32.078125 72.90625 
Q 44.578125 72.90625 50.734375 67.671875 
Q 56.890625 62.453125 56.890625 51.90625 
Q 56.890625 45.015625 53.6875 40.46875 
Q 50.484375 35.9375 44.390625 34.1875 
M 19.671875 64.796875 
L 19.671875 38.921875 
L 32.078125 38.921875 
Q 39.203125 38.921875 42.84375 42.21875 
Q 46.484375 45.515625 46.484375 51.90625 
Q 46.484375 58.296875 42.84375 61.546875 
Q 39.203125 64.796875 32.078125 64.796875 
z
" id="DejaVuSans-52"/>
    </defs>
    <g transform="translate(121.400625 26.133375)scale(0.24 -0.24)">
     <use xlink:href="#DejaVuSans-33"/>
     <use x="63.623047" xlink:href="#DejaVuSans-20"/>
     <use x="95.410156" xlink:href="#DejaVuSans-52"/>
     <use x="164.861328" xlink:href="#DejaVuSans-61"/>
     <use x="226.140625" xlink:href="#DejaVuSans-73"/>
     <use x="278.240234" xlink:href="#DejaVuSans-74"/>
     <use x="317.449219" xlink:href="#DejaVuSans-72"/>
     <use x="358.5625" xlink:href="#DejaVuSans-69"/>
     <use x="386.345703" xlink:href="#DejaVuSans-67"/>
     <use x="449.822266" xlink:href="#DejaVuSans-69"/>
     <use x="477.605469" xlink:href="#DejaVuSans-6e"/>
     <use x="540.984375" xlink:href="#DejaVuSans-20"/>
     <use x="572.771484" xlink:href="#DejaVuSans-73"/>
     <use x="624.871094" xlink:href="#DejaVuSans-65"/>
     <use x="686.394531" xlink:href="#DejaVuSans-70"/>
     <use x="749.871094" xlink:href="#DejaVuSans-61"/>
     <use x="811.150391" xlink:href="#DejaVuSans-72"/>
     <use x="852.263672" xlink:href="#DejaVuSans-61"/>
     <use x="913.542969" xlink:href="#DejaVuSans-62"/>
     <use x="977.019531" xlink:href="#DejaVuSans-6c"/>
     <use x="1004.802734" xlink:href="#DejaVuSans-65"/>
    </g>
   </g>
  </g>
 </g>
 <defs>
  <clipPath id="pa4e64fd83d">
   <rect height="266.112" width="357.12" x="70.8" y="32.133375"/>
  </clipPath>
 </defs>
</svg>
