<?xml version="1.0" encoding="utf-8" standalone="no"?>
<!DOCTYPE svg PUBLIC "-//W3C//DTD SVG 1.1//EN"
  "http://www.w3.org/Graphics/SVG/1.1/DTD/svg11.dtd">
<!-- Created with matplotlib (http://matplotlib.org/) -->
<svg height="353pt" version="1.1" viewBox="0 0 439 353" width="439pt" xmlns="http://www.w3.org/2000/svg" xmlns:xlink="http://www.w3.org/1999/xlink">
 <defs>
  <style type="text/css">
*{stroke-linecap:butt;stroke-linejoin:round;}
  </style>
 </defs>
 <g id="figure_1">
  <g id="patch_1">
   <path d="M 0 353.22225 
L 439.489219 353.22225 
L 439.489219 0 
L 0 0 
z
" style="fill:#ffffff;"/>
  </g>
  <g id="axes_1">
   <g id="patch_2">
    <path d="M 70.8 298.245375 
L 427.92 298.245375 
L 427.92 32.133375 
L 70.8 32.133375 
z
" style="fill:#ffffff;"/>
   </g>
   <g id="matplotlib.axis_1">
    <g id="xtick_1">
     <g id="line2d_1">
      <path clip-path="url(#p074a79ef3e)" d="M 70.8 298.245375 
L 70.8 32.133375 
" style="fill:none;stroke:#b0b0b0;stroke-linecap:square;stroke-width:0.8;"/>
     </g>
     <g id="line2d_2">
      <defs>
       <path d="M 0 0 
L 0 3.5 
" id="ma5cdba56bd" style="stroke:#000000;stroke-width:0.8;"/>
      </defs>
      <g>
       <use style="stroke:#000000;stroke-width:0.8;" x="70.8" xlink:href="#ma5cdba56bd" y="298.245375"/>
      </g>
     </g>
     <g id="text_1">
      <!-- 0 -->
      <defs>
       <path d="M 31.78125 66.40625 
Q 24.171875 66.40625 20.328125 58.90625 
Q 16.5 51.421875 16.5 36.375 
Q 16.5 21.390625 20.328125 13.890625 
Q 24.171875 6.390625 31.78125 6.390625 
Q 39.453125 6.390625 43.28125 13.890625 
Q 47.125 21.390625 47.125 36.375 
Q 47.125 51.421875 43.28125 58.90625 
Q 39.453125 66.40625 31.78125 66.40625 
M 31.78125 74.21875 
Q 44.046875 74.21875 50.515625 64.515625 
Q 56.984375 54.828125 56.984375 36.375 
Q 56.984375 17.96875 50.515625 8.265625 
Q 44.046875 -1.421875 31.78125 -1.421875 
Q 19.53125 -1.421875 13.0625 8.265625 
Q 6.59375 17.96875 6.59375 36.375 
Q 6.59375 54.828125 13.0625 64.515625 
Q 19.53125 74.21875 31.78125 74.21875 
" id="DejaVuSans-30"/>
      </defs>
      <g transform="translate(64.4375 320.44225)scale(0.2 -0.2)">
       <use xlink:href="#DejaVuSans-30"/>
      </g>
     </g>
    </g>
    <g id="xtick_2">
     <g id="line2d_3">
      <path clip-path="url(#p074a79ef3e)" d="M 153.085714 298.245375 
L 153.085714 32.133375 
" style="fill:none;stroke:#b0b0b0;stroke-linecap:square;stroke-width:0.8;"/>
     </g>
     <g id="line2d_4">
      <g>
       <use style="stroke:#000000;stroke-width:0.8;" x="153.085714" xlink:href="#ma5cdba56bd" y="298.245375"/>
      </g>
     </g>
     <g id="text_2">
      <!-- 2 -->
      <defs>
       <path d="M 19.1875 8.296875 
L 53.609375 8.296875 
L 53.609375 0 
L 7.328125 0 
L 7.328125 8.296875 
Q 12.9375 14.109375 22.625 23.890625 
Q 32.328125 33.6875 34.8125 36.53125 
Q 39.546875 41.84375 41.421875 45.53125 
Q 43.3125 49.21875 43.3125 52.78125 
Q 43.3125 58.59375 39.234375 62.25 
Q 35.15625 65.921875 28.609375 65.921875 
Q 23.96875 65.921875 18.8125 64.3125 
Q 13.671875 62.703125 7.8125 59.421875 
L 7.8125 69.390625 
Q 13.765625 71.78125 18.9375 73 
Q 24.125 74.21875 28.421875 74.21875 
Q 39.75 74.21875 46.484375 68.546875 
Q 53.21875 62.890625 53.21875 53.421875 
Q 53.21875 48.921875 51.53125 44.890625 
Q 49.859375 40.875 45.40625 35.40625 
Q 44.1875 33.984375 37.640625 27.21875 
Q 31.109375 20.453125 19.1875 8.296875 
" id="DejaVuSans-32"/>
      </defs>
      <g transform="translate(146.723214 320.44225)scale(0.2 -0.2)">
       <use xlink:href="#DejaVuSans-32"/>
      </g>
     </g>
    </g>
    <g id="xtick_3">
     <g id="line2d_5">
      <path clip-path="url(#p074a79ef3e)" d="M 235.371429 298.245375 
L 235.371429 32.133375 
" style="fill:none;stroke:#b0b0b0;stroke-linecap:square;stroke-width:0.8;"/>
     </g>
     <g id="line2d_6">
      <g>
       <use style="stroke:#000000;stroke-width:0.8;" x="235.371429" xlink:href="#ma5cdba56bd" y="298.245375"/>
      </g>
     </g>
     <g id="text_3">
      <!-- 4 -->
      <defs>
       <path d="M 37.796875 64.3125 
L 12.890625 25.390625 
L 37.796875 25.390625 
z
M 35.203125 72.90625 
L 47.609375 72.90625 
L 47.609375 25.390625 
L 58.015625 25.390625 
L 58.015625 17.1875 
L 47.609375 17.1875 
L 47.609375 0 
L 37.796875 0 
L 37.796875 17.1875 
L 4.890625 17.1875 
L 4.890625 26.703125 
z
" id="DejaVuSans-34"/>
      </defs>
      <g transform="translate(229.008929 320.44225)scale(0.2 -0.2)">
       <use xlink:href="#DejaVuSans-34"/>
      </g>
     </g>
    </g>
    <g id="xtick_4">
     <g id="line2d_7">
      <path clip-path="url(#p074a79ef3e)" d="M 317.657143 298.245375 
L 317.657143 32.133375 
" style="fill:none;stroke:#b0b0b0;stroke-linecap:square;stroke-width:0.8;"/>
     </g>
     <g id="line2d_8">
      <g>
       <use style="stroke:#000000;stroke-width:0.8;" x="317.657143" xlink:href="#ma5cdba56bd" y="298.245375"/>
      </g>
     </g>
     <g id="text_4">
      <!-- 6 -->
      <defs>
       <path d="M 33.015625 40.375 
Q 26.375 40.375 22.484375 35.828125 
Q 18.609375 31.296875 18.609375 23.390625 
Q 18.609375 15.53125 22.484375 10.953125 
Q 26.375 6.390625 33.015625 6.390625 
Q 39.65625 6.390625 43.53125 10.953125 
Q 47.40625 15.53125 47.40625 23.390625 
Q 47.40625 31.296875 43.53125 35.828125 
Q 39.65625 40.375 33.015625 40.375 
M 52.59375 71.296875 
L 52.59375 62.3125 
Q 48.875 64.0625 45.09375 64.984375 
Q 41.3125 65.921875 37.59375 65.921875 
Q 27.828125 65.921875 22.671875 59.328125 
Q 17.53125 52.734375 16.796875 39.40625 
Q 19.671875 43.65625 24.015625 45.921875 
Q 28.375 48.1875 33.59375 48.1875 
Q 44.578125 48.1875 50.953125 41.515625 
Q 57.328125 34.859375 57.328125 23.390625 
Q 57.328125 12.15625 50.6875 5.359375 
Q 44.046875 -1.421875 33.015625 -1.421875 
Q 20.359375 -1.421875 13.671875 8.265625 
Q 6.984375 17.96875 6.984375 36.375 
Q 6.984375 53.65625 15.1875 63.9375 
Q 23.390625 74.21875 37.203125 74.21875 
Q 40.921875 74.21875 44.703125 73.484375 
Q 48.484375 72.75 52.59375 71.296875 
" id="DejaVuSans-36"/>
      </defs>
      <g transform="translate(311.294643 320.44225)scale(0.2 -0.2)">
       <use xlink:href="#DejaVuSans-36"/>
      </g>
     </g>
    </g>
    <g id="xtick_5">
     <g id="line2d_9">
      <path clip-path="url(#p074a79ef3e)" d="M 399.942857 298.245375 
L 399.942857 32.133375 
" style="fill:none;stroke:#b0b0b0;stroke-linecap:square;stroke-width:0.8;"/>
     </g>
     <g id="line2d_10">
      <g>
       <use style="stroke:#000000;stroke-width:0.8;" x="399.942857" xlink:href="#ma5cdba56bd" y="298.245375"/>
      </g>
     </g>
     <g id="text_5">
      <!-- 8 -->
      <defs>
       <path d="M 31.78125 34.625 
Q 24.75 34.625 20.71875 30.859375 
Q 16.703125 27.09375 16.703125 20.515625 
Q 16.703125 13.921875 20.71875 10.15625 
Q 24.75 6.390625 31.78125 6.390625 
Q 38.8125 6.390625 42.859375 10.171875 
Q 46.921875 13.96875 46.921875 20.515625 
Q 46.921875 27.09375 42.890625 30.859375 
Q 38.875 34.625 31.78125 34.625 
M 21.921875 38.8125 
Q 15.578125 40.375 12.03125 44.71875 
Q 8.5 49.078125 8.5 55.328125 
Q 8.5 64.0625 14.71875 69.140625 
Q 20.953125 74.21875 31.78125 74.21875 
Q 42.671875 74.21875 48.875 69.140625 
Q 55.078125 64.0625 55.078125 55.328125 
Q 55.078125 49.078125 51.53125 44.71875 
Q 48 40.375 41.703125 38.8125 
Q 48.828125 37.15625 52.796875 32.3125 
Q 56.78125 27.484375 56.78125 20.515625 
Q 56.78125 9.90625 50.3125 4.234375 
Q 43.84375 -1.421875 31.78125 -1.421875 
Q 19.734375 -1.421875 13.25 4.234375 
Q 6.78125 9.90625 6.78125 20.515625 
Q 6.78125 27.484375 10.78125 32.3125 
Q 14.796875 37.15625 21.921875 38.8125 
M 18.3125 54.390625 
Q 18.3125 48.734375 21.84375 45.5625 
Q 25.390625 42.390625 31.78125 42.390625 
Q 38.140625 42.390625 41.71875 45.5625 
Q 45.3125 48.734375 45.3125 54.390625 
Q 45.3125 60.0625 41.71875 63.234375 
Q 38.140625 66.40625 31.78125 66.40625 
Q 25.390625 66.40625 21.84375 63.234375 
Q 18.3125 60.0625 18.3125 54.390625 
" id="DejaVuSans-38"/>
      </defs>
      <g transform="translate(393.580357 320.44225)scale(0.2 -0.2)">
       <use xlink:href="#DejaVuSans-38"/>
      </g>
     </g>
    </g>
    <g id="xtick_6">
     <g id="line2d_11">
      <defs>
       <path d="M 0 0 
L 0 2 
" id="m53cc14b22d" style="stroke:#000000;stroke-width:0.6;"/>
      </defs>
      <g>
       <use style="stroke:#000000;stroke-width:0.6;" x="83.185234" xlink:href="#m53cc14b22d" y="298.245375"/>
      </g>
     </g>
    </g>
    <g id="xtick_7">
     <g id="line2d_12">
      <g>
       <use style="stroke:#000000;stroke-width:0.6;" x="95.570468" xlink:href="#m53cc14b22d" y="298.245375"/>
      </g>
     </g>
    </g>
    <g id="xtick_8">
     <g id="line2d_13">
      <g>
       <use style="stroke:#000000;stroke-width:0.6;" x="102.815366" xlink:href="#m53cc14b22d" y="298.245375"/>
      </g>
     </g>
    </g>
    <g id="xtick_9">
     <g id="line2d_14">
      <g>
       <use style="stroke:#000000;stroke-width:0.6;" x="107.955702" xlink:href="#m53cc14b22d" y="298.245375"/>
      </g>
     </g>
    </g>
    <g id="xtick_10">
     <g id="line2d_15">
      <g>
       <use style="stroke:#000000;stroke-width:0.6;" x="165.470948" xlink:href="#m53cc14b22d" y="298.245375"/>
      </g>
     </g>
    </g>
    <g id="xtick_11">
     <g id="line2d_16">
      <g>
       <use style="stroke:#000000;stroke-width:0.6;" x="177.856183" xlink:href="#m53cc14b22d" y="298.245375"/>
      </g>
     </g>
    </g>
    <g id="xtick_12">
     <g id="line2d_17">
      <g>
       <use style="stroke:#000000;stroke-width:0.6;" x="185.10108" xlink:href="#m53cc14b22d" y="298.245375"/>
      </g>
     </g>
    </g>
    <g id="xtick_13">
     <g id="line2d_18">
      <g>
       <use style="stroke:#000000;stroke-width:0.6;" x="190.241417" xlink:href="#m53cc14b22d" y="298.245375"/>
      </g>
     </g>
    </g>
    <g id="xtick_14">
     <g id="line2d_19">
      <g>
       <use style="stroke:#000000;stroke-width:0.6;" x="247.756663" xlink:href="#m53cc14b22d" y="298.245375"/>
      </g>
     </g>
    </g>
    <g id="xtick_15">
     <g id="line2d_20">
      <g>
       <use style="stroke:#000000;stroke-width:0.6;" x="260.141897" xlink:href="#m53cc14b22d" y="298.245375"/>
      </g>
     </g>
    </g>
    <g id="xtick_16">
     <g id="line2d_21">
      <g>
       <use style="stroke:#000000;stroke-width:0.6;" x="267.386794" xlink:href="#m53cc14b22d" y="298.245375"/>
      </g>
     </g>
    </g>
    <g id="xtick_17">
     <g id="line2d_22">
      <g>
       <use style="stroke:#000000;stroke-width:0.6;" x="272.527131" xlink:href="#m53cc14b22d" y="298.245375"/>
      </g>
     </g>
    </g>
    <g id="xtick_18">
     <g id="line2d_23">
      <g>
       <use style="stroke:#000000;stroke-width:0.6;" x="330.042377" xlink:href="#m53cc14b22d" y="298.245375"/>
      </g>
     </g>
    </g>
    <g id="xtick_19">
     <g id="line2d_24">
      <g>
       <use style="stroke:#000000;stroke-width:0.6;" x="342.427611" xlink:href="#m53cc14b22d" y="298.245375"/>
      </g>
     </g>
    </g>
    <g id="xtick_20">
     <g id="line2d_25">
      <g>
       <use style="stroke:#000000;stroke-width:0.6;" x="349.672509" xlink:href="#m53cc14b22d" y="298.245375"/>
      </g>
     </g>
    </g>
    <g id="xtick_21">
     <g id="line2d_26">
      <g>
       <use style="stroke:#000000;stroke-width:0.6;" x="354.812845" xlink:href="#m53cc14b22d" y="298.245375"/>
      </g>
     </g>
    </g>
    <g id="xtick_22">
     <g id="line2d_27">
      <g>
       <use style="stroke:#000000;stroke-width:0.6;" x="412.328091" xlink:href="#m53cc14b22d" y="298.245375"/>
      </g>
     </g>
    </g>
    <g id="xtick_23">
     <g id="line2d_28">
      <g>
       <use style="stroke:#000000;stroke-width:0.6;" x="424.713325" xlink:href="#m53cc14b22d" y="298.245375"/>
      </g>
     </g>
    </g>
    <g id="text_6">
     <!-- log10 of (# f-evals / dimension) -->
     <defs>
      <path d="M 9.421875 75.984375 
L 18.40625 75.984375 
L 18.40625 0 
L 9.421875 0 
z
" id="DejaVuSans-6c"/>
      <path d="M 30.609375 48.390625 
Q 23.390625 48.390625 19.1875 42.75 
Q 14.984375 37.109375 14.984375 27.296875 
Q 14.984375 17.484375 19.15625 11.84375 
Q 23.34375 6.203125 30.609375 6.203125 
Q 37.796875 6.203125 41.984375 11.859375 
Q 46.1875 17.53125 46.1875 27.296875 
Q 46.1875 37.015625 41.984375 42.703125 
Q 37.796875 48.390625 30.609375 48.390625 
M 30.609375 56 
Q 42.328125 56 49.015625 48.375 
Q 55.71875 40.765625 55.71875 27.296875 
Q 55.71875 13.875 49.015625 6.21875 
Q 42.328125 -1.421875 30.609375 -1.421875 
Q 18.84375 -1.421875 12.171875 6.21875 
Q 5.515625 13.875 5.515625 27.296875 
Q 5.515625 40.765625 12.171875 48.375 
Q 18.84375 56 30.609375 56 
" id="DejaVuSans-6f"/>
      <path d="M 45.40625 27.984375 
Q 45.40625 37.75 41.375 43.109375 
Q 37.359375 48.484375 30.078125 48.484375 
Q 22.859375 48.484375 18.828125 43.109375 
Q 14.796875 37.75 14.796875 27.984375 
Q 14.796875 18.265625 18.828125 12.890625 
Q 22.859375 7.515625 30.078125 7.515625 
Q 37.359375 7.515625 41.375 12.890625 
Q 45.40625 18.265625 45.40625 27.984375 
M 54.390625 6.78125 
Q 54.390625 -7.171875 48.1875 -13.984375 
Q 42 -20.796875 29.203125 -20.796875 
Q 24.46875 -20.796875 20.265625 -20.09375 
Q 16.0625 -19.390625 12.109375 -17.921875 
L 12.109375 -9.1875 
Q 16.0625 -11.328125 19.921875 -12.34375 
Q 23.78125 -13.375 27.78125 -13.375 
Q 36.625 -13.375 41.015625 -8.765625 
Q 45.40625 -4.15625 45.40625 5.171875 
L 45.40625 9.625 
Q 42.625 4.78125 38.28125 2.390625 
Q 33.9375 0 27.875 0 
Q 17.828125 0 11.671875 7.65625 
Q 5.515625 15.328125 5.515625 27.984375 
Q 5.515625 40.671875 11.671875 48.328125 
Q 17.828125 56 27.875 56 
Q 33.9375 56 38.28125 53.609375 
Q 42.625 51.21875 45.40625 46.390625 
L 45.40625 54.6875 
L 54.390625 54.6875 
z
" id="DejaVuSans-67"/>
      <path d="M 12.40625 8.296875 
L 28.515625 8.296875 
L 28.515625 63.921875 
L 10.984375 60.40625 
L 10.984375 69.390625 
L 28.421875 72.90625 
L 38.28125 72.90625 
L 38.28125 8.296875 
L 54.390625 8.296875 
L 54.390625 0 
L 12.40625 0 
z
" id="DejaVuSans-31"/>
      <path id="DejaVuSans-20"/>
      <path d="M 37.109375 75.984375 
L 37.109375 68.5 
L 28.515625 68.5 
Q 23.6875 68.5 21.796875 66.546875 
Q 19.921875 64.59375 19.921875 59.515625 
L 19.921875 54.6875 
L 34.71875 54.6875 
L 34.71875 47.703125 
L 19.921875 47.703125 
L 19.921875 0 
L 10.890625 0 
L 10.890625 47.703125 
L 2.296875 47.703125 
L 2.296875 54.6875 
L 10.890625 54.6875 
L 10.890625 58.5 
Q 10.890625 67.625 15.140625 71.796875 
Q 19.390625 75.984375 28.609375 75.984375 
z
" id="DejaVuSans-66"/>
      <path d="M 31 75.875 
Q 24.46875 64.65625 21.28125 53.65625 
Q 18.109375 42.671875 18.109375 31.390625 
Q 18.109375 20.125 21.3125 9.0625 
Q 24.515625 -2 31 -13.1875 
L 23.1875 -13.1875 
Q 15.875 -1.703125 12.234375 9.375 
Q 8.59375 20.453125 8.59375 31.390625 
Q 8.59375 42.28125 12.203125 53.3125 
Q 15.828125 64.359375 23.1875 75.875 
z
" id="DejaVuSans-28"/>
      <path d="M 51.125 44 
L 36.921875 44 
L 32.8125 27.6875 
L 47.125 27.6875 
z
M 43.796875 71.78125 
L 38.71875 51.515625 
L 52.984375 51.515625 
L 58.109375 71.78125 
L 65.921875 71.78125 
L 60.890625 51.515625 
L 76.125 51.515625 
L 76.125 44 
L 58.984375 44 
L 54.984375 27.6875 
L 70.515625 27.6875 
L 70.515625 20.21875 
L 53.078125 20.21875 
L 48 0 
L 40.1875 0 
L 45.21875 20.21875 
L 30.90625 20.21875 
L 25.875 0 
L 18.015625 0 
L 23.09375 20.21875 
L 7.71875 20.21875 
L 7.71875 27.6875 
L 24.90625 27.6875 
L 29 44 
L 13.28125 44 
L 13.28125 51.515625 
L 30.90625 51.515625 
L 35.890625 71.78125 
z
" id="DejaVuSans-23"/>
      <path d="M 4.890625 31.390625 
L 31.203125 31.390625 
L 31.203125 23.390625 
L 4.890625 23.390625 
z
" id="DejaVuSans-2d"/>
      <path d="M 56.203125 29.59375 
L 56.203125 25.203125 
L 14.890625 25.203125 
Q 15.484375 15.921875 20.484375 11.0625 
Q 25.484375 6.203125 34.421875 6.203125 
Q 39.59375 6.203125 44.453125 7.46875 
Q 49.3125 8.734375 54.109375 11.28125 
L 54.109375 2.78125 
Q 49.265625 0.734375 44.1875 -0.34375 
Q 39.109375 -1.421875 33.890625 -1.421875 
Q 20.796875 -1.421875 13.15625 6.1875 
Q 5.515625 13.8125 5.515625 26.8125 
Q 5.515625 40.234375 12.765625 48.109375 
Q 20.015625 56 32.328125 56 
Q 43.359375 56 49.78125 48.890625 
Q 56.203125 41.796875 56.203125 29.59375 
M 47.21875 32.234375 
Q 47.125 39.59375 43.09375 43.984375 
Q 39.0625 48.390625 32.421875 48.390625 
Q 24.90625 48.390625 20.390625 44.140625 
Q 15.875 39.890625 15.1875 32.171875 
z
" id="DejaVuSans-65"/>
      <path d="M 2.984375 54.6875 
L 12.5 54.6875 
L 29.59375 8.796875 
L 46.6875 54.6875 
L 56.203125 54.6875 
L 35.6875 0 
L 23.484375 0 
z
" id="DejaVuSans-76"/>
      <path d="M 34.28125 27.484375 
Q 23.390625 27.484375 19.1875 25 
Q 14.984375 22.515625 14.984375 16.5 
Q 14.984375 11.71875 18.140625 8.90625 
Q 21.296875 6.109375 26.703125 6.109375 
Q 34.1875 6.109375 38.703125 11.40625 
Q 43.21875 16.703125 43.21875 25.484375 
L 43.21875 27.484375 
z
M 52.203125 31.203125 
L 52.203125 0 
L 43.21875 0 
L 43.21875 8.296875 
Q 40.140625 3.328125 35.546875 0.953125 
Q 30.953125 -1.421875 24.3125 -1.421875 
Q 15.921875 -1.421875 10.953125 3.296875 
Q 6 8.015625 6 15.921875 
Q 6 25.140625 12.171875 29.828125 
Q 18.359375 34.515625 30.609375 34.515625 
L 43.21875 34.515625 
L 43.21875 35.40625 
Q 43.21875 41.609375 39.140625 45 
Q 35.0625 48.390625 27.6875 48.390625 
Q 23 48.390625 18.546875 47.265625 
Q 14.109375 46.140625 10.015625 43.890625 
L 10.015625 52.203125 
Q 14.9375 54.109375 19.578125 55.046875 
Q 24.21875 56 28.609375 56 
Q 40.484375 56 46.34375 49.84375 
Q 52.203125 43.703125 52.203125 31.203125 
" id="DejaVuSans-61"/>
      <path d="M 44.28125 53.078125 
L 44.28125 44.578125 
Q 40.484375 46.53125 36.375 47.5 
Q 32.28125 48.484375 27.875 48.484375 
Q 21.1875 48.484375 17.84375 46.4375 
Q 14.5 44.390625 14.5 40.28125 
Q 14.5 37.15625 16.890625 35.375 
Q 19.28125 33.59375 26.515625 31.984375 
L 29.59375 31.296875 
Q 39.15625 29.25 43.1875 25.515625 
Q 47.21875 21.78125 47.21875 15.09375 
Q 47.21875 7.46875 41.1875 3.015625 
Q 35.15625 -1.421875 24.609375 -1.421875 
Q 20.21875 -1.421875 15.453125 -0.5625 
Q 10.6875 0.296875 5.421875 2 
L 5.421875 11.28125 
Q 10.40625 8.6875 15.234375 7.390625 
Q 20.0625 6.109375 24.8125 6.109375 
Q 31.15625 6.109375 34.5625 8.28125 
Q 37.984375 10.453125 37.984375 14.40625 
Q 37.984375 18.0625 35.515625 20.015625 
Q 33.0625 21.96875 24.703125 23.78125 
L 21.578125 24.515625 
Q 13.234375 26.265625 9.515625 29.90625 
Q 5.8125 33.546875 5.8125 39.890625 
Q 5.8125 47.609375 11.28125 51.796875 
Q 16.75 56 26.8125 56 
Q 31.78125 56 36.171875 55.265625 
Q 40.578125 54.546875 44.28125 53.078125 
" id="DejaVuSans-73"/>
      <path d="M 25.390625 72.90625 
L 33.6875 72.90625 
L 8.296875 -9.28125 
L 0 -9.28125 
z
" id="DejaVuSans-2f"/>
      <path d="M 45.40625 46.390625 
L 45.40625 75.984375 
L 54.390625 75.984375 
L 54.390625 0 
L 45.40625 0 
L 45.40625 8.203125 
Q 42.578125 3.328125 38.25 0.953125 
Q 33.9375 -1.421875 27.875 -1.421875 
Q 17.96875 -1.421875 11.734375 6.484375 
Q 5.515625 14.40625 5.515625 27.296875 
Q 5.515625 40.1875 11.734375 48.09375 
Q 17.96875 56 27.875 56 
Q 33.9375 56 38.25 53.625 
Q 42.578125 51.265625 45.40625 46.390625 
M 14.796875 27.296875 
Q 14.796875 17.390625 18.875 11.75 
Q 22.953125 6.109375 30.078125 6.109375 
Q 37.203125 6.109375 41.296875 11.75 
Q 45.40625 17.390625 45.40625 27.296875 
Q 45.40625 37.203125 41.296875 42.84375 
Q 37.203125 48.484375 30.078125 48.484375 
Q 22.953125 48.484375 18.875 42.84375 
Q 14.796875 37.203125 14.796875 27.296875 
" id="DejaVuSans-64"/>
      <path d="M 9.421875 54.6875 
L 18.40625 54.6875 
L 18.40625 0 
L 9.421875 0 
z
M 9.421875 75.984375 
L 18.40625 75.984375 
L 18.40625 64.59375 
L 9.421875 64.59375 
z
" id="DejaVuSans-69"/>
      <path d="M 52 44.1875 
Q 55.375 50.25 60.0625 53.125 
Q 64.75 56 71.09375 56 
Q 79.640625 56 84.28125 50.015625 
Q 88.921875 44.046875 88.921875 33.015625 
L 88.921875 0 
L 79.890625 0 
L 79.890625 32.71875 
Q 79.890625 40.578125 77.09375 44.375 
Q 74.3125 48.1875 68.609375 48.1875 
Q 61.625 48.1875 57.5625 43.546875 
Q 53.515625 38.921875 53.515625 30.90625 
L 53.515625 0 
L 44.484375 0 
L 44.484375 32.71875 
Q 44.484375 40.625 41.703125 44.40625 
Q 38.921875 48.1875 33.109375 48.1875 
Q 26.21875 48.1875 22.15625 43.53125 
Q 18.109375 38.875 18.109375 30.90625 
L 18.109375 0 
L 9.078125 0 
L 9.078125 54.6875 
L 18.109375 54.6875 
L 18.109375 46.1875 
Q 21.1875 51.21875 25.484375 53.609375 
Q 29.78125 56 35.6875 56 
Q 41.65625 56 45.828125 52.96875 
Q 50 49.953125 52 44.1875 
" id="DejaVuSans-6d"/>
      <path d="M 54.890625 33.015625 
L 54.890625 0 
L 45.90625 0 
L 45.90625 32.71875 
Q 45.90625 40.484375 42.875 44.328125 
Q 39.84375 48.1875 33.796875 48.1875 
Q 26.515625 48.1875 22.3125 43.546875 
Q 18.109375 38.921875 18.109375 30.90625 
L 18.109375 0 
L 9.078125 0 
L 9.078125 54.6875 
L 18.109375 54.6875 
L 18.109375 46.1875 
Q 21.34375 51.125 25.703125 53.5625 
Q 30.078125 56 35.796875 56 
Q 45.21875 56 50.046875 50.171875 
Q 54.890625 44.34375 54.890625 33.015625 
" id="DejaVuSans-6e"/>
      <path d="M 8.015625 75.875 
L 15.828125 75.875 
Q 23.140625 64.359375 26.78125 53.3125 
Q 30.421875 42.28125 30.421875 31.390625 
Q 30.421875 20.453125 26.78125 9.375 
Q 23.140625 -1.703125 15.828125 -13.1875 
L 8.015625 -13.1875 
Q 14.5 -2 17.703125 9.0625 
Q 20.90625 20.125 20.90625 31.390625 
Q 20.90625 42.671875 17.703125 53.65625 
Q 14.5 64.65625 8.015625 75.875 
" id="DejaVuSans-29"/>
     </defs>
     <g transform="translate(107.015156 342.278812)scale(0.18 -0.18)">
      <use xlink:href="#DejaVuSans-6c"/>
      <use x="27.783203" xlink:href="#DejaVuSans-6f"/>
      <use x="88.964844" xlink:href="#DejaVuSans-67"/>
      <use x="152.441406" xlink:href="#DejaVuSans-31"/>
      <use x="216.064453" xlink:href="#DejaVuSans-30"/>
      <use x="279.6875" xlink:href="#DejaVuSans-20"/>
      <use x="311.474609" xlink:href="#DejaVuSans-6f"/>
      <use x="372.65625" xlink:href="#DejaVuSans-66"/>
      <use x="407.861328" xlink:href="#DejaVuSans-20"/>
      <use x="439.648438" xlink:href="#DejaVuSans-28"/>
      <use x="478.662109" xlink:href="#DejaVuSans-23"/>
      <use x="562.451172" xlink:href="#DejaVuSans-20"/>
      <use x="594.238281" xlink:href="#DejaVuSans-66"/>
      <use x="629.365234" xlink:href="#DejaVuSans-2d"/>
      <use x="665.449219" xlink:href="#DejaVuSans-65"/>
      <use x="726.972656" xlink:href="#DejaVuSans-76"/>
      <use x="786.152344" xlink:href="#DejaVuSans-61"/>
      <use x="847.431641" xlink:href="#DejaVuSans-6c"/>
      <use x="875.214844" xlink:href="#DejaVuSans-73"/>
      <use x="927.314453" xlink:href="#DejaVuSans-20"/>
      <use x="959.101562" xlink:href="#DejaVuSans-2f"/>
      <use x="992.792969" xlink:href="#DejaVuSans-20"/>
      <use x="1024.580078" xlink:href="#DejaVuSans-64"/>
      <use x="1088.056641" xlink:href="#DejaVuSans-69"/>
      <use x="1115.839844" xlink:href="#DejaVuSans-6d"/>
      <use x="1213.251953" xlink:href="#DejaVuSans-65"/>
      <use x="1274.775391" xlink:href="#DejaVuSans-6e"/>
      <use x="1338.154297" xlink:href="#DejaVuSans-73"/>
      <use x="1390.253906" xlink:href="#DejaVuSans-69"/>
      <use x="1418.037109" xlink:href="#DejaVuSans-6f"/>
      <use x="1479.21875" xlink:href="#DejaVuSans-6e"/>
      <use x="1542.597656" xlink:href="#DejaVuSans-29"/>
     </g>
    </g>
   </g>
   <g id="matplotlib.axis_2">
    <g id="ytick_1">
     <g id="line2d_29">
      <path clip-path="url(#p074a79ef3e)" d="M 70.8 298.245375 
L 427.92 298.245375 
" style="fill:none;stroke:#b0b0b0;stroke-linecap:square;stroke-width:0.8;"/>
     </g>
     <g id="line2d_30">
      <defs>
       <path d="M 0 0 
L -3.5 0 
" id="m4b21195054" style="stroke:#000000;stroke-width:0.8;"/>
      </defs>
      <g>
       <use style="stroke:#000000;stroke-width:0.8;" x="70.8" xlink:href="#m4b21195054" y="298.245375"/>
      </g>
     </g>
     <g id="text_7">
      <!-- 0.0 -->
      <defs>
       <path d="M 10.6875 12.40625 
L 21 12.40625 
L 21 0 
L 10.6875 0 
z
" id="DejaVuSans-2e"/>
      </defs>
      <g transform="translate(31.99375 305.843812)scale(0.2 -0.2)">
       <use xlink:href="#DejaVuSans-30"/>
       <use x="63.623047" xlink:href="#DejaVuSans-2e"/>
       <use x="95.410156" xlink:href="#DejaVuSans-30"/>
      </g>
     </g>
    </g>
    <g id="ytick_2">
     <g id="line2d_31">
      <path clip-path="url(#p074a79ef3e)" d="M 70.8 245.549929 
L 427.92 245.549929 
" style="fill:none;stroke:#b0b0b0;stroke-linecap:square;stroke-width:0.8;"/>
     </g>
     <g id="line2d_32">
      <g>
       <use style="stroke:#000000;stroke-width:0.8;" x="70.8" xlink:href="#m4b21195054" y="245.549929"/>
      </g>
     </g>
     <g id="text_8">
      <!-- 0.2 -->
      <g transform="translate(31.99375 253.148367)scale(0.2 -0.2)">
       <use xlink:href="#DejaVuSans-30"/>
       <use x="63.623047" xlink:href="#DejaVuSans-2e"/>
       <use x="95.410156" xlink:href="#DejaVuSans-32"/>
      </g>
     </g>
    </g>
    <g id="ytick_3">
     <g id="line2d_33">
      <path clip-path="url(#p074a79ef3e)" d="M 70.8 192.854484 
L 427.92 192.854484 
" style="fill:none;stroke:#b0b0b0;stroke-linecap:square;stroke-width:0.8;"/>
     </g>
     <g id="line2d_34">
      <g>
       <use style="stroke:#000000;stroke-width:0.8;" x="70.8" xlink:href="#m4b21195054" y="192.854484"/>
      </g>
     </g>
     <g id="text_9">
      <!-- 0.4 -->
      <g transform="translate(31.99375 200.452921)scale(0.2 -0.2)">
       <use xlink:href="#DejaVuSans-30"/>
       <use x="63.623047" xlink:href="#DejaVuSans-2e"/>
       <use x="95.410156" xlink:href="#DejaVuSans-34"/>
      </g>
     </g>
    </g>
    <g id="ytick_4">
     <g id="line2d_35">
      <path clip-path="url(#p074a79ef3e)" d="M 70.8 140.159038 
L 427.92 140.159038 
" style="fill:none;stroke:#b0b0b0;stroke-linecap:square;stroke-width:0.8;"/>
     </g>
     <g id="line2d_36">
      <g>
       <use style="stroke:#000000;stroke-width:0.8;" x="70.8" xlink:href="#m4b21195054" y="140.159038"/>
      </g>
     </g>
     <g id="text_10">
      <!-- 0.6 -->
      <g transform="translate(31.99375 147.757476)scale(0.2 -0.2)">
       <use xlink:href="#DejaVuSans-30"/>
       <use x="63.623047" xlink:href="#DejaVuSans-2e"/>
       <use x="95.410156" xlink:href="#DejaVuSans-36"/>
      </g>
     </g>
    </g>
    <g id="ytick_5">
     <g id="line2d_37">
      <path clip-path="url(#p074a79ef3e)" d="M 70.8 87.463593 
L 427.92 87.463593 
" style="fill:none;stroke:#b0b0b0;stroke-linecap:square;stroke-width:0.8;"/>
     </g>
     <g id="line2d_38">
      <g>
       <use style="stroke:#000000;stroke-width:0.8;" x="70.8" xlink:href="#m4b21195054" y="87.463593"/>
      </g>
     </g>
     <g id="text_11">
      <!-- 0.8 -->
      <g transform="translate(31.99375 95.06203)scale(0.2 -0.2)">
       <use xlink:href="#DejaVuSans-30"/>
       <use x="63.623047" xlink:href="#DejaVuSans-2e"/>
       <use x="95.410156" xlink:href="#DejaVuSans-38"/>
      </g>
     </g>
    </g>
    <g id="ytick_6">
     <g id="line2d_39">
      <path clip-path="url(#p074a79ef3e)" d="M 70.8 34.768147 
L 427.92 34.768147 
" style="fill:none;stroke:#b0b0b0;stroke-linecap:square;stroke-width:0.8;"/>
     </g>
     <g id="line2d_40">
      <g>
       <use style="stroke:#000000;stroke-width:0.8;" x="70.8" xlink:href="#m4b21195054" y="34.768147"/>
      </g>
     </g>
     <g id="text_12">
      <!-- 1.0 -->
      <g transform="translate(31.99375 42.366585)scale(0.2 -0.2)">
       <use xlink:href="#DejaVuSans-31"/>
       <use x="63.623047" xlink:href="#DejaVuSans-2e"/>
       <use x="95.410156" xlink:href="#DejaVuSans-30"/>
      </g>
     </g>
    </g>
    <g id="text_13">
     <!-- Proportion of function+target pairs -->
     <defs>
      <path d="M 19.671875 64.796875 
L 19.671875 37.40625 
L 32.078125 37.40625 
Q 38.96875 37.40625 42.71875 40.96875 
Q 46.484375 44.53125 46.484375 51.125 
Q 46.484375 57.671875 42.71875 61.234375 
Q 38.96875 64.796875 32.078125 64.796875 
z
M 9.8125 72.90625 
L 32.078125 72.90625 
Q 44.34375 72.90625 50.609375 67.359375 
Q 56.890625 61.8125 56.890625 51.125 
Q 56.890625 40.328125 50.609375 34.8125 
Q 44.34375 29.296875 32.078125 29.296875 
L 19.671875 29.296875 
L 19.671875 0 
L 9.8125 0 
z
" id="DejaVuSans-50"/>
      <path d="M 41.109375 46.296875 
Q 39.59375 47.171875 37.8125 47.578125 
Q 36.03125 48 33.890625 48 
Q 26.265625 48 22.1875 43.046875 
Q 18.109375 38.09375 18.109375 28.8125 
L 18.109375 0 
L 9.078125 0 
L 9.078125 54.6875 
L 18.109375 54.6875 
L 18.109375 46.1875 
Q 20.953125 51.171875 25.484375 53.578125 
Q 30.03125 56 36.53125 56 
Q 37.453125 56 38.578125 55.875 
Q 39.703125 55.765625 41.0625 55.515625 
z
" id="DejaVuSans-72"/>
      <path d="M 18.109375 8.203125 
L 18.109375 -20.796875 
L 9.078125 -20.796875 
L 9.078125 54.6875 
L 18.109375 54.6875 
L 18.109375 46.390625 
Q 20.953125 51.265625 25.265625 53.625 
Q 29.59375 56 35.59375 56 
Q 45.5625 56 51.78125 48.09375 
Q 58.015625 40.1875 58.015625 27.296875 
Q 58.015625 14.40625 51.78125 6.484375 
Q 45.5625 -1.421875 35.59375 -1.421875 
Q 29.59375 -1.421875 25.265625 0.953125 
Q 20.953125 3.328125 18.109375 8.203125 
M 48.6875 27.296875 
Q 48.6875 37.203125 44.609375 42.84375 
Q 40.53125 48.484375 33.40625 48.484375 
Q 26.265625 48.484375 22.1875 42.84375 
Q 18.109375 37.203125 18.109375 27.296875 
Q 18.109375 17.390625 22.1875 11.75 
Q 26.265625 6.109375 33.40625 6.109375 
Q 40.53125 6.109375 44.609375 11.75 
Q 48.6875 17.390625 48.6875 27.296875 
" id="DejaVuSans-70"/>
      <path d="M 18.3125 70.21875 
L 18.3125 54.6875 
L 36.8125 54.6875 
L 36.8125 47.703125 
L 18.3125 47.703125 
L 18.3125 18.015625 
Q 18.3125 11.328125 20.140625 9.421875 
Q 21.96875 7.515625 27.59375 7.515625 
L 36.8125 7.515625 
L 36.8125 0 
L 27.59375 0 
Q 17.1875 0 13.234375 3.875 
Q 9.28125 7.765625 9.28125 18.015625 
L 9.28125 47.703125 
L 2.6875 47.703125 
L 2.6875 54.6875 
L 9.28125 54.6875 
L 9.28125 70.21875 
z
" id="DejaVuSans-74"/>
      <path d="M 8.5 21.578125 
L 8.5 54.6875 
L 17.484375 54.6875 
L 17.484375 21.921875 
Q 17.484375 14.15625 20.5 10.265625 
Q 23.53125 6.390625 29.59375 6.390625 
Q 36.859375 6.390625 41.078125 11.03125 
Q 45.3125 15.671875 45.3125 23.6875 
L 45.3125 54.6875 
L 54.296875 54.6875 
L 54.296875 0 
L 45.3125 0 
L 45.3125 8.40625 
Q 42.046875 3.421875 37.71875 1 
Q 33.40625 -1.421875 27.6875 -1.421875 
Q 18.265625 -1.421875 13.375 4.4375 
Q 8.5 10.296875 8.5 21.578125 
M 31.109375 56 
z
" id="DejaVuSans-75"/>
      <path d="M 48.78125 52.59375 
L 48.78125 44.1875 
Q 44.96875 46.296875 41.140625 47.34375 
Q 37.3125 48.390625 33.40625 48.390625 
Q 24.65625 48.390625 19.8125 42.84375 
Q 14.984375 37.3125 14.984375 27.296875 
Q 14.984375 17.28125 19.8125 11.734375 
Q 24.65625 6.203125 33.40625 6.203125 
Q 37.3125 6.203125 41.140625 7.25 
Q 44.96875 8.296875 48.78125 10.40625 
L 48.78125 2.09375 
Q 45.015625 0.34375 40.984375 -0.53125 
Q 36.96875 -1.421875 32.421875 -1.421875 
Q 20.0625 -1.421875 12.78125 6.34375 
Q 5.515625 14.109375 5.515625 27.296875 
Q 5.515625 40.671875 12.859375 48.328125 
Q 20.21875 56 33.015625 56 
Q 37.15625 56 41.109375 55.140625 
Q 45.0625 54.296875 48.78125 52.59375 
" id="DejaVuSans-63"/>
      <path d="M 46 62.703125 
L 46 35.5 
L 73.1875 35.5 
L 73.1875 27.203125 
L 46 27.203125 
L 46 0 
L 37.796875 0 
L 37.796875 27.203125 
L 10.59375 27.203125 
L 10.59375 35.5 
L 37.796875 35.5 
L 37.796875 62.703125 
z
" id="DejaVuSans-2b"/>
     </defs>
     <g transform="translate(24.250312 323.17875)rotate(-90)scale(0.18 -0.18)">
      <use xlink:href="#DejaVuSans-50"/>
      <use x="60.287109" xlink:href="#DejaVuSans-72"/>
      <use x="101.369141" xlink:href="#DejaVuSans-6f"/>
      <use x="162.550781" xlink:href="#DejaVuSans-70"/>
      <use x="226.027344" xlink:href="#DejaVuSans-6f"/>
      <use x="287.208984" xlink:href="#DejaVuSans-72"/>
      <use x="328.322266" xlink:href="#DejaVuSans-74"/>
      <use x="367.53125" xlink:href="#DejaVuSans-69"/>
      <use x="395.314453" xlink:href="#DejaVuSans-6f"/>
      <use x="456.496094" xlink:href="#DejaVuSans-6e"/>
      <use x="519.875" xlink:href="#DejaVuSans-20"/>
      <use x="551.662109" xlink:href="#DejaVuSans-6f"/>
      <use x="612.84375" xlink:href="#DejaVuSans-66"/>
      <use x="648.048828" xlink:href="#DejaVuSans-20"/>
      <use x="679.835938" xlink:href="#DejaVuSans-66"/>
      <use x="715.041016" xlink:href="#DejaVuSans-75"/>
      <use x="778.419922" xlink:href="#DejaVuSans-6e"/>
      <use x="841.798828" xlink:href="#DejaVuSans-63"/>
      <use x="896.779297" xlink:href="#DejaVuSans-74"/>
      <use x="935.988281" xlink:href="#DejaVuSans-69"/>
      <use x="963.771484" xlink:href="#DejaVuSans-6f"/>
      <use x="1024.953125" xlink:href="#DejaVuSans-6e"/>
      <use x="1088.332031" xlink:href="#DejaVuSans-2b"/>
      <use x="1172.121094" xlink:href="#DejaVuSans-74"/>
      <use x="1211.330078" xlink:href="#DejaVuSans-61"/>
      <use x="1272.609375" xlink:href="#DejaVuSans-72"/>
      <use x="1313.707031" xlink:href="#DejaVuSans-67"/>
      <use x="1377.183594" xlink:href="#DejaVuSans-65"/>
      <use x="1438.707031" xlink:href="#DejaVuSans-74"/>
      <use x="1477.916016" xlink:href="#DejaVuSans-20"/>
      <use x="1509.703125" xlink:href="#DejaVuSans-70"/>
      <use x="1573.179688" xlink:href="#DejaVuSans-61"/>
      <use x="1634.458984" xlink:href="#DejaVuSans-69"/>
      <use x="1662.242188" xlink:href="#DejaVuSans-72"/>
      <use x="1703.355469" xlink:href="#DejaVuSans-73"/>
     </g>
    </g>
   </g>
   <g id="line2d_41">
    <defs>
     <path d="M 0 1.5 
C 0.397805 1.5 0.77937 1.341951 1.06066 1.06066 
C 1.341951 0.77937 1.5 0.397805 1.5 0 
C 1.5 -0.397805 1.341951 -0.77937 1.06066 -1.06066 
C 0.77937 -1.341951 0.397805 -1.5 0 -1.5 
C -0.397805 -1.5 -0.77937 -1.341951 -1.06066 -1.06066 
C -1.341951 -0.77937 -1.5 -0.397805 -1.5 0 
C -1.5 0.397805 -1.341951 0.77937 -1.06066 1.06066 
C -0.77937 1.341951 -0.397805 1.5 0 1.5 
z
" id="m329eca5481" style="stroke:#00bfbf;"/>
    </defs>
    <g>
     <use style="fill:#00bfbf;stroke:#00bfbf;" x="223.514355" xlink:href="#m329eca5481" y="34.768147"/>
     <use style="fill:#00bfbf;stroke:#00bfbf;" x="223.514355" xlink:href="#m329eca5481" y="34.768147"/>
    </g>
   </g>
   <g id="line2d_42">
    <path d="M 58.414766 298.245375 
L 58.414766 231.084513 
L 153.085714 231.084513 
L 153.085714 222.301939 
L 160.330612 222.301939 
L 160.330612 219.718829 
L 165.470948 219.718829 
L 165.470948 214.035987 
L 172.715846 214.035987 
L 172.715846 202.15368 
L 177.856183 202.15368 
L 177.856183 201.637058 
L 179.960743 201.637058 
L 179.960743 199.053948 
L 189.088235 199.053948 
L 189.088235 198.020704 
L 192.345978 198.020704 
L 192.345978 196.98746 
L 195.10036 196.98746 
L 195.10036 195.954216 
L 195.931585 195.954216 
L 195.931585 194.40435 
L 196.725854 194.40435 
L 196.725854 193.371106 
L 197.486314 193.371106 
L 197.486314 192.854484 
L 198.916526 192.854484 
L 198.916526 191.82124 
L 199.590875 191.82124 
L 199.590875 184.07191 
L 201.473469 184.07191 
L 201.473469 177.355823 
L 202.626651 177.355823 
L 202.626651 176.322579 
L 203.176482 176.322579 
L 203.176482 173.739469 
L 204.227851 173.739469 
L 204.227851 159.274053 
L 204.731212 159.274053 
L 204.731212 139.642416 
L 205.22078 139.642416 
L 205.22078 138.09255 
L 206.613806 138.09255 
L 206.613806 127.76011 
L 207.055016 127.76011 
L 207.055016 127.243488 
L 207.485594 127.243488 
L 207.485594 123.627134 
L 207.906039 123.627134 
L 207.906039 123.110512 
L 208.316819 123.110512 
L 208.316819 122.077268 
L 211.642116 122.077268 
L 211.642116 110.711584 
L 212.942189 110.711584 
L 212.942189 109.161717 
L 215.011885 109.161717 
L 215.011885 106.578607 
L 216.095133 106.578607 
L 216.095133 96.762789 
L 216.613085 96.762789 
L 216.613085 93.663057 
L 216.866538 93.663057 
L 216.866538 87.463593 
L 217.116446 87.463593 
L 217.116446 80.747507 
L 217.606014 80.747507 
L 217.606014 79.714263 
L 218.546658 79.714263 
L 218.546658 79.197641 
L 218.774281 79.197641 
L 218.774281 77.131153 
L 219.221007 77.131153 
L 219.221007 76.097908 
L 219.44025 76.097908 
L 219.44025 74.03142 
L 219.656836 74.03142 
L 219.656836 67.315334 
L 219.870828 67.315334 
L 219.870828 59.049382 
L 220.082287 59.049382 
L 220.082287 58.53276 
L 220.702053 58.53276 
L 220.702053 52.849918 
L 220.903955 52.849918 
L 220.903955 46.650454 
L 221.103601 46.650454 
L 221.103601 43.0341 
L 221.496322 43.0341 
L 221.496322 40.967611 
L 221.689493 40.967611 
L 221.689493 38.901123 
L 221.880598 38.901123 
L 221.880598 38.384501 
L 222.256782 38.384501 
L 222.256782 36.834635 
L 222.441946 36.834635 
L 222.441946 36.318013 
L 222.62521 36.318013 
L 222.62521 35.284769 
L 223.514355 35.284769 
L 223.514355 34.768147 
L 358.8 34.768147 
" style="fill:none;stroke:#00bfbf;stroke-linecap:square;stroke-width:1.5;"/>
   </g>
   <g id="line2d_43">
    <defs>
     <path d="M -6 0 
L 6 0 
M 0 6 
L 0 -6 
" id="m90121061da" style="stroke:#00bfbf;stroke-width:1.5;"/>
    </defs>
    <g>
     <use style="fill:none;stroke:#00bfbf;stroke-width:1.5;" x="358.8" xlink:href="#m90121061da" y="34.768147"/>
    </g>
   </g>
   <g id="line2d_44"/>
   <g id="line2d_45">
    <defs>
     <path d="M 0 1.5 
C 0.397805 1.5 0.77937 1.341951 1.06066 1.06066 
C 1.341951 0.77937 1.5 0.397805 1.5 0 
C 1.5 -0.397805 1.341951 -0.77937 1.06066 -1.06066 
C 0.77937 -1.341951 0.397805 -1.5 0 -1.5 
C -0.397805 -1.5 -0.77937 -1.341951 -1.06066 -1.06066 
C -1.341951 -0.77937 -1.5 -0.397805 -1.5 0 
C -1.5 0.397805 -1.341951 0.77937 -1.06066 1.06066 
C -0.77937 1.341951 -0.397805 1.5 0 1.5 
z
" id="m0b7882bd60" style="stroke:#008000;"/>
    </defs>
    <g>
     <use style="fill:#008000;stroke:#008000;" x="222.62521" xlink:href="#m0b7882bd60" y="34.768147"/>
     <use style="fill:#008000;stroke:#008000;" x="222.62521" xlink:href="#m0b7882bd60" y="34.768147"/>
    </g>
   </g>
   <g id="line2d_46">
    <path d="M 51.169868 298.245375 
L 51.169868 257.948858 
L 145.840817 257.948858 
L 145.840817 245.549929 
L 153.085714 245.549929 
L 153.085714 243.483441 
L 172.715846 243.483441 
L 172.715846 242.966819 
L 174.59844 242.966819 
L 174.59844 241.416953 
L 176.301453 241.416953 
L 176.301453 240.900331 
L 177.856183 240.900331 
L 177.856183 238.833843 
L 179.286395 238.833843 
L 179.286395 237.283977 
L 184.079767 237.283977 
L 184.079767 236.250733 
L 186.067159 236.250733 
L 186.067159 235.734111 
L 186.983674 235.734111 
L 186.983674 234.184245 
L 187.855462 234.184245 
L 187.855462 232.634379 
L 188.686687 232.634379 
L 188.686687 231.601135 
L 190.970829 231.601135 
L 190.970829 231.084513 
L 191.671629 231.084513 
L 191.671629 229.018025 
L 192.995799 229.018025 
L 192.995799 225.401671 
L 193.622815 225.401671 
L 193.622815 222.301939 
L 194.228571 222.301939 
L 194.228571 220.235451 
L 194.814464 220.235451 
L 194.814464 216.619097 
L 195.931585 216.619097 
L 195.931585 208.353144 
L 196.465001 208.353144 
L 196.465001 207.836522 
L 197.975882 207.836522 
L 197.975882 200.603814 
L 198.452393 200.603814 
L 198.452393 200.087192 
L 198.916526 200.087192 
L 198.916526 189.23813 
L 199.810118 189.23813 
L 199.810118 182.005422 
L 200.240696 182.005422 
L 200.240696 180.972178 
L 200.661142 180.972178 
L 200.661142 178.90569 
L 201.473469 178.90569 
L 201.473469 171.672981 
L 201.866191 171.672981 
L 201.866191 170.123115 
L 202.250466 170.123115 
L 202.250466 169.089871 
L 202.626651 169.089871 
L 202.626651 167.023383 
L 203.356063 167.023383 
L 203.356063 165.990139 
L 204.056863 165.990139 
L 204.056863 164.956895 
L 205.059076 164.956895 
L 205.059076 163.923651 
L 205.381033 163.923651 
L 205.381033 162.890407 
L 205.697291 162.890407 
L 205.697291 159.274053 
L 208.316819 159.274053 
L 208.316819 158.757431 
L 208.585517 158.757431 
L 208.585517 155.657699 
L 209.111088 155.657699 
L 209.111088 155.141077 
L 209.62164 155.141077 
L 209.62164 154.107833 
L 210.361116 154.107833 
L 210.361116 153.591211 
L 210.60096 153.591211 
L 210.60096 152.041345 
L 211.976109 152.041345 
L 211.976109 151.524723 
L 212.411938 151.524723 
L 212.411938 151.008101 
L 212.62593 151.008101 
L 212.62593 149.974857 
L 212.83739 149.974857 
L 212.83739 131.893086 
L 213.046376 131.893086 
L 213.046376 131.376464 
L 213.252946 131.376464 
L 213.252946 130.34322 
L 213.457155 130.34322 
L 213.457155 118.977536 
L 213.659057 118.977536 
L 213.659057 118.460914 
L 213.858703 118.460914 
L 213.858703 117.42767 
L 214.056143 117.42767 
L 214.056143 107.611851 
L 214.251425 107.611851 
L 214.251425 107.095229 
L 214.444595 107.095229 
L 214.444595 106.578607 
L 214.6357 106.578607 
L 214.6357 104.512119 
L 214.824782 104.512119 
L 214.824782 92.113191 
L 215.011885 92.113191 
L 215.011885 90.563325 
L 215.197048 90.563325 
L 215.197048 74.03142 
L 215.380313 74.03142 
L 215.380313 73.514798 
L 215.561716 73.514798 
L 215.561716 70.931688 
L 215.741297 70.931688 
L 215.741297 66.798712 
L 216.095133 66.798712 
L 216.095133 66.28209 
L 216.269457 66.28209 
L 216.269457 65.248846 
L 216.782453 65.248846 
L 216.782453 55.94965 
L 217.44431 55.94965 
L 217.44431 55.433028 
L 219.294387 55.433028 
L 219.294387 53.36654 
L 219.728452 53.36654 
L 219.728452 52.849918 
L 219.870828 52.849918 
L 219.870828 46.133832 
L 220.291274 46.133832 
L 220.291274 45.100588 
L 220.702053 45.100588 
L 220.702053 43.0341 
L 220.970752 43.0341 
L 220.970752 41.484233 
L 221.496322 41.484233 
L 221.496322 36.834635 
L 222.503243 36.834635 
L 222.503243 35.801391 
L 222.62521 35.801391 
L 222.62521 34.768147 
L 358.8 34.768147 
L 358.8 34.768147 
" style="fill:none;stroke:#008000;stroke-linecap:square;stroke-width:1.5;"/>
   </g>
   <g id="line2d_47">
    <defs>
     <path d="M -0 6 
L 6 -6 
L -6 -6 
z
" id="m3c59f16e10" style="stroke:#008000;stroke-linejoin:miter;stroke-width:1.5;"/>
    </defs>
    <g>
     <use style="fill:none;stroke:#008000;stroke-linejoin:miter;stroke-width:1.5;" x="358.8" xlink:href="#m3c59f16e10" y="34.768147"/>
    </g>
   </g>
   <g id="line2d_48"/>
   <g id="line2d_49">
    <defs>
     <path d="M 0 1.5 
C 0.397805 1.5 0.77937 1.341951 1.06066 1.06066 
C 1.341951 0.77937 1.5 0.397805 1.5 0 
C 1.5 -0.397805 1.341951 -0.77937 1.06066 -1.06066 
C 0.77937 -1.341951 0.397805 -1.5 0 -1.5 
C -0.397805 -1.5 -0.77937 -1.341951 -1.06066 -1.06066 
C -1.341951 -0.77937 -1.5 -0.397805 -1.5 0 
C -1.5 0.397805 -1.341951 0.77937 -1.06066 1.06066 
C -0.77937 1.341951 -0.397805 1.5 0 1.5 
z
" id="mc52a5bc3a7" style="stroke:#0000ff;"/>
    </defs>
    <g>
     <use style="fill:#0000ff;stroke:#0000ff;" x="301.546384" xlink:href="#mc52a5bc3a7" y="34.768147"/>
     <use style="fill:#0000ff;stroke:#0000ff;" x="301.546384" xlink:href="#mc52a5bc3a7" y="34.768147"/>
    </g>
   </g>
   <g id="line2d_50">
    <path d="M 42.042377 298.245375 
L 42.042377 269.831164 
L 136.713325 269.831164 
L 136.713325 266.21481 
L 143.958223 266.21481 
L 143.958223 263.115078 
L 149.098559 263.115078 
L 149.098559 262.598456 
L 156.343457 262.598456 
L 156.343457 261.565212 
L 159.097839 261.565212 
L 159.097839 257.948858 
L 163.588354 257.948858 
L 163.588354 255.365748 
L 165.470948 255.365748 
L 165.470948 252.782638 
L 170.158903 252.782638 
L 170.158903 252.266016 
L 173.869028 252.266016 
L 173.869028 251.749394 
L 178.727971 251.749394 
L 178.727971 251.232772 
L 180.353465 251.232772 
L 180.353465 250.71615 
L 188.358823 250.71615 
L 188.358823 250.199528 
L 194.582407 250.199528 
L 194.582407 249.682906 
L 195.269727 249.682906 
L 195.269727 247.616418 
L 195.60372 247.616418 
L 195.60372 247.099796 
L 197.186003 247.099796 
L 197.186003 245.033307 
L 202.848618 245.033307 
L 202.848618 244.516685 
L 204.125455 244.516685 
L 204.125455 244.000063 
L 204.531566 244.000063 
L 204.531566 243.483441 
L 205.697291 243.483441 
L 205.697291 242.450197 
L 206.252821 242.450197 
L 206.252821 241.933575 
L 206.967641 241.933575 
L 206.967641 240.383709 
L 208.478522 240.383709 
L 208.478522 239.350465 
L 208.638776 239.350465 
L 208.638776 237.800599 
L 208.955034 237.800599 
L 208.955034 236.250733 
L 209.419167 236.250733 
L 209.419167 235.734111 
L 209.722023 235.734111 
L 209.722023 235.217489 
L 210.019832 235.217489 
L 210.019832 231.601135 
L 210.166896 231.601135 
L 210.166896 231.084513 
L 211.438682 231.084513 
L 211.438682 230.051269 
L 211.709416 230.051269 
L 211.709416 228.501403 
L 211.84326 228.501403 
L 211.84326 227.984781 
L 211.976109 227.984781 
L 211.976109 226.951537 
L 212.107978 226.951537 
L 212.107978 225.918293 
L 212.497843 225.918293 
L 212.497843 225.401671 
L 212.62593 225.401671 
L 212.62593 224.885049 
L 212.753106 224.885049 
L 212.753106 224.368427 
L 212.879383 224.368427 
L 212.879383 223.851805 
L 213.129291 223.851805 
L 213.129291 222.818561 
L 213.618859 222.818561 
L 213.618859 215.069231 
L 213.739183 215.069231 
L 213.739183 214.035987 
L 213.858703 214.035987 
L 213.858703 213.002743 
L 217.702338 213.002743 
L 217.702338 212.48612 
L 217.988234 212.48612 
L 217.988234 211.969498 
L 218.546658 211.969498 
L 218.546658 210.936254 
L 221.956471 210.936254 
L 221.956471 209.90301 
L 222.182176 209.90301 
L 222.182176 208.869766 
L 222.331078 208.869766 
L 222.331078 207.836522 
L 222.62521 207.836522 
L 222.62521 207.3199 
L 222.986194 207.3199 
L 223.057524 198.537326 
L 223.128571 198.537326 
L 223.128571 197.504082 
L 224.818687 197.504082 
L 224.818687 190.787996 
L 224.947236 190.787996 
L 224.947236 189.754752 
L 225.074866 189.754752 
L 225.074866 188.721508 
L 225.327423 188.721508 
L 225.327423 188.204886 
L 225.699689 188.204886 
L 225.760986 179.938934 
L 225.943626 179.938934 
L 225.943626 171.672981 
L 226.064357 171.672981 
L 226.124418 162.890407 
L 226.243937 162.890407 
L 226.243937 160.823919 
L 229.150822 160.823919 
L 229.201368 156.690943 
L 230.326135 156.690943 
L 230.326135 151.008101 
L 230.608269 151.008101 
L 230.608269 150.491479 
L 230.793914 150.491479 
L 230.793914 148.941613 
L 231.114222 148.941613 
L 231.204693 142.225526 
L 231.249758 142.225526 
L 231.249758 141.192282 
L 231.428888 141.192282 
L 231.517785 129.309976 
L 231.606241 129.309976 
L 231.606241 128.793354 
L 232.924107 128.793354 
L 233.005883 126.726866 
L 233.046632 126.726866 
L 233.046632 126.210244 
L 233.289189 126.210244 
L 233.289189 125.693622 
L 233.449084 125.693622 
L 233.488835 124.143756 
L 235.442758 124.143756 
L 235.442758 115.877804 
L 235.760265 115.877804 
L 235.760265 114.84456 
L 236.140821 114.84456 
L 236.175018 113.294694 
L 236.34503 113.294694 
L 236.34503 112.778072 
L 236.976713 112.778072 
L 236.976713 111.744828 
L 237.139299 111.744828 
L 237.17164 102.445631 
L 237.33247 102.445631 
L 237.33247 99.862521 
L 240.413219 99.862521 
L 240.413219 98.312655 
L 241.409061 98.312655 
L 241.409061 97.796033 
L 243.814122 97.796033 
L 243.814122 96.762789 
L 244.556007 96.762789 
L 244.662555 84.363861 
L 244.78958 84.363861 
L 244.78958 83.847239 
L 246.971325 83.847239 
L 246.971325 78.681019 
L 247.249218 78.681019 
L 247.249218 78.164397 
L 247.48661 78.164397 
L 247.577082 67.315334 
L 276.861113 67.315334 
L 276.861113 66.798712 
L 277.035505 66.798712 
L 277.035505 66.28209 
L 277.348597 66.28209 
L 277.389477 63.69898 
L 277.477732 63.69898 
L 277.555441 53.883162 
L 277.736573 53.883162 
L 277.846367 51.816674 
L 277.872882 51.816674 
L 277.899358 47.683698 
L 278.223795 47.683698 
L 278.223795 47.167076 
L 278.38544 47.167076 
L 278.40474 44.067344 
L 278.858648 44.067344 
L 278.858648 43.550722 
L 279.286017 43.550722 
L 279.286017 43.0341 
L 279.643513 43.0341 
L 279.73924 38.384501 
L 289.16203 38.384501 
L 289.16203 37.351257 
L 289.387736 37.351257 
L 289.41206 36.318013 
L 289.605474 36.318013 
L 289.684309 35.284769 
L 301.546384 35.284769 
L 301.546384 34.768147 
L 358.8 34.768147 
L 358.8 34.768147 
" style="fill:none;stroke:#0000ff;stroke-linecap:square;stroke-width:1.5;"/>
   </g>
   <g id="line2d_51">
    <defs>
     <path d="M 0 -6 
L -1.347084 -1.854102 
L -5.706339 -1.854102 
L -2.179628 0.708204 
L -3.526712 4.854102 
L -0 2.291796 
L 3.526712 4.854102 
L 2.179628 0.708204 
L 5.706339 -1.854102 
L 1.347084 -1.854102 
z
" id="m20fc572555" style="stroke:#0000ff;stroke-linejoin:bevel;stroke-width:1.5;"/>
    </defs>
    <g>
     <use style="fill:none;stroke:#0000ff;stroke-linejoin:bevel;stroke-width:1.5;" x="358.8" xlink:href="#m20fc572555" y="34.768147"/>
    </g>
   </g>
   <g id="line2d_52"/>
   <g id="line2d_53">
    <path clip-path="url(#p074a79ef3e)" d="M 276.514286 67.315334 
" style="fill:none;stroke:#0000ff;stroke-linecap:square;stroke-width:1.5;"/>
    <defs>
     <path d="M -12 12 
L 12 -12 
M -12 -12 
L 12 12 
" id="m5073f55a34" style="stroke:#0000ff;stroke-width:3;"/>
    </defs>
    <g clip-path="url(#p074a79ef3e)">
     <use style="fill:#0000ff;stroke:#0000ff;stroke-width:3;" x="276.514286" xlink:href="#m5073f55a34" y="67.315334"/>
    </g>
   </g>
   <g id="line2d_54">
    <defs>
     <path d="M 0 1.5 
C 0.397805 1.5 0.77937 1.341951 1.06066 1.06066 
C 1.341951 0.77937 1.5 0.397805 1.5 0 
C 1.5 -0.397805 1.341951 -0.77937 1.06066 -1.06066 
C 0.77937 -1.341951 0.397805 -1.5 0 -1.5 
C -0.397805 -1.5 -0.77937 -1.341951 -1.06066 -1.06066 
C -1.341951 -0.77937 -1.5 -0.397805 -1.5 0 
C -1.5 0.397805 -1.341951 0.77937 -1.06066 1.06066 
C -0.77937 1.341951 -0.397805 1.5 0 1.5 
z
" id="mbbb4993ec2" style="stroke:#000000;"/>
    </defs>
    <g>
     <use style="stroke:#000000;" x="333.410856" xlink:href="#mbbb4993ec2" y="34.768147"/>
     <use style="stroke:#000000;" x="333.410856" xlink:href="#mbbb4993ec2" y="34.768147"/>
    </g>
   </g>
   <g id="line2d_55">
    <path d="M 29.657143 298.245375 
L 29.657143 293.079155 
L 136.713325 293.079155 
L 136.713325 287.912935 
L 143.958223 287.912935 
L 143.958223 284.296581 
L 149.098559 284.296581 
L 149.098559 282.230093 
L 153.085714 282.230093 
L 153.085714 276.030628 
L 156.343457 276.030628 
L 156.343457 274.997384 
L 159.097839 274.997384 
L 159.097839 272.930896 
L 161.483794 272.930896 
L 161.483794 271.897652 
L 163.588354 271.897652 
L 163.588354 271.38103 
L 165.470948 271.38103 
L 165.470948 269.831164 
L 170.158903 269.831164 
L 170.158903 269.314542 
L 171.483073 269.314542 
L 171.483073 268.281298 
L 172.715846 268.281298 
L 172.715846 266.21481 
L 173.869028 266.21481 
L 173.869028 265.698188 
L 175.973589 265.698188 
L 175.973589 264.148322 
L 179.559196 264.148322 
L 179.559196 263.115078 
L 180.353465 263.115078 
L 180.353465 262.598456 
L 181.843337 262.598456 
L 181.843337 262.081834 
L 188.358823 262.081834 
L 188.358823 261.04859 
L 191.113205 261.04859 
L 191.113205 260.015346 
L 203.709898 260.015346 
L 203.709898 258.46548 
L 205.123933 258.46548 
L 205.123933 257.432236 
L 205.697291 257.432236 
L 205.697291 256.915614 
L 205.884393 256.915614 
L 205.884393 256.398992 
L 209.111088 256.398992 
L 209.111088 255.365748 
L 210.743337 255.365748 
L 210.743337 254.849126 
L 213.497719 254.849126 
L 213.497719 254.332504 
L 218.362449 254.332504 
L 218.362449 253.815882 
L 218.638055 253.815882 
L 218.638055 253.29926 
L 220.374188 253.29926 
L 220.374188 252.782638 
L 220.783088 252.782638 
L 220.783088 252.266016 
L 221.103601 252.266016 
L 221.103601 251.749394 
L 221.880598 251.749394 
L 221.880598 250.71615 
L 222.77048 250.71615 
L 222.77048 250.199528 
L 224.295042 250.199528 
L 224.295042 249.682906 
L 225.452375 249.682906 
L 225.452375 248.13304 
L 225.57646 248.13304 
L 225.57646 247.616418 
L 225.760986 247.616418 
L 225.760986 247.099796 
L 225.882953 247.099796 
L 225.882953 245.549929 
L 226.064357 245.549929 
L 226.064357 244.516685 
L 226.243937 244.516685 
L 226.243937 244.000063 
L 228.480367 244.000063 
L 228.480367 242.966819 
L 231.428888 242.966819 
L 231.473392 241.933575 
L 232.55141 241.933575 
L 232.55141 241.416953 
L 233.087287 241.416953 
L 233.087287 240.383709 
L 233.248991 240.383709 
L 233.329297 238.317221 
L 233.369315 238.317221 
L 233.369315 237.800599 
L 234.454914 237.800599 
L 234.454914 236.767355 
L 235.083227 236.767355 
L 235.191848 235.734111 
L 235.263897 235.734111 
L 235.263897 234.700867 
L 237.139299 234.700867 
L 237.139299 233.667623 
L 237.649851 233.667623 
L 237.649851 233.151001 
L 237.837609 233.151001 
L 237.837609 232.634379 
L 238.084923 232.634379 
L 238.084923 232.117757 
L 238.268187 232.117757 
L 238.268187 231.601135 
L 238.658927 231.601135 
L 238.658927 231.084513 
L 238.777455 231.084513 
L 238.777455 230.567891 
L 242.108881 230.567891 
L 242.108881 230.051269 
L 242.328124 230.051269 
L 242.400612 229.018025 
L 242.448774 229.018025 
L 242.54471 218.685585 
L 242.592486 218.685585 
L 242.592486 218.168963 
L 242.876489 218.168963 
L 242.899953 217.135719 
L 243.454047 217.135719 
L 243.454047 216.102475 
L 243.589927 216.102475 
L 243.589927 215.585853 
L 246.670064 215.585853 
L 246.670064 215.069231 
L 247.377436 215.069231 
L 247.377436 214.552609 
L 247.577082 214.552609 
L 247.577082 213.519365 
L 248.508931 213.519365 
L 248.508931 213.002743 
L 251.484646 213.002743 
L 251.484646 204.220168 
L 251.600298 204.220168 
L 251.629094 201.637058 
L 251.758106 201.637058 
L 251.758106 201.120436 
L 254.91798 201.120436 
L 255.00156 200.087192 
L 255.07289 200.087192 
L 255.07289 199.053948 
L 256.098817 199.053948 
L 256.098817 198.537326 
L 267.351022 198.537326 
L 267.386794 189.23813 
L 277.55207 189.23813 
L 277.55207 188.721508 
L 277.896051 188.721508 
L 277.896051 188.204886 
L 278.034437 188.204886 
L 278.063952 186.138398 
L 278.2108 186.138398 
L 278.2108 185.621776 
L 278.38544 185.621776 
L 278.456103 183.555288 
L 278.529681 183.555288 
L 278.529681 182.005422 
L 278.946191 182.005422 
L 279.008461 173.739469 
L 279.141609 173.739469 
L 279.141609 173.222847 
L 280.449906 173.222847 
L 280.478555 164.440273 
L 281.182988 164.440273 
L 281.182988 163.923651 
L 284.896724 163.923651 
L 284.907897 152.557967 
L 289.337243 152.557967 
L 289.337243 151.524723 
L 289.762797 151.524723 
L 289.762797 151.008101 
L 289.896794 151.008101 
L 289.942361 149.974857 
L 290.111792 149.974857 
L 290.190092 142.225526 
L 290.248178 142.225526 
L 290.251491 140.67566 
L 290.506437 140.67566 
L 290.506437 140.159038 
L 290.975469 140.159038 
L 290.99137 134.476196 
L 291.385923 134.476196 
L 291.385923 133.959574 
L 293.579226 133.959574 
L 293.587475 128.276732 
L 293.750293 128.276732 
L 293.750293 127.76011 
L 296.665637 127.76011 
L 296.667951 126.210244 
L 296.824589 126.210244 
L 296.846363 125.177 
L 296.961667 125.177 
L 297.054737 117.944292 
L 297.231589 117.944292 
L 297.296482 116.394426 
L 297.554826 116.394426 
L 297.563631 111.228206 
L 299.396203 111.228206 
L 299.40216 104.512119 
L 301.498778 104.512119 
L 301.498778 103.995497 
L 301.937383 103.995497 
L 301.973524 99.345899 
L 302.35286 99.345899 
L 302.359591 93.146435 
L 303.776598 93.146435 
L 303.782037 89.530081 
L 305.556239 89.530081 
L 305.586461 88.496837 
L 305.76673 88.496837 
L 305.825032 86.946971 
L 306.13144 86.946971 
L 306.138251 83.330617 
L 307.29305 83.330617 
L 307.296879 78.164397 
L 308.793922 78.164397 
L 308.881735 77.131153 
L 308.967375 77.131153 
L 308.969119 71.964932 
L 309.248769 71.964932 
L 309.248769 68.8652 
L 310.229416 68.8652 
L 310.229416 67.831956 
L 311.509278 67.831956 
L 311.581724 66.28209 
L 311.659878 66.28209 
L 311.680362 64.215602 
L 311.902175 64.215602 
L 311.90612 62.149114 
L 312.750652 62.149114 
L 312.753474 60.082626 
L 313.89019 60.082626 
L 314.000159 58.016138 
L 314.016815 58.016138 
L 314.016815 57.499516 
L 314.212021 57.499516 
L 314.215487 55.433028 
L 314.959729 55.433028 
L 314.959729 54.916406 
L 315.970418 54.916406 
L 316.068334 53.36654 
L 316.083951 53.36654 
L 316.083951 52.849918 
L 316.257162 52.849918 
L 316.257162 50.78343 
L 317.935141 50.78343 
L 317.935845 49.750186 
L 318.092077 49.750186 
L 318.092077 49.233564 
L 319.600243 49.233564 
L 319.600243 48.20032 
L 319.755985 48.20032 
L 319.755985 46.650454 
L 320.30728 46.650454 
L 320.30728 46.133832 
L 321.135088 46.133832 
L 321.135088 44.583966 
L 321.278062 44.583966 
L 321.278062 44.067344 
L 321.784972 44.067344 
L 321.784972 43.0341 
L 322.548457 43.0341 
L 322.559597 42.000855 
L 322.680598 42.000855 
L 322.680598 41.484233 
L 323.149738 41.484233 
L 323.149738 40.450989 
L 323.771588 40.450989 
L 323.858178 38.901123 
L 323.981011 38.901123 
L 323.981011 38.384501 
L 325.193169 38.384501 
L 325.193169 37.867879 
L 326.328294 37.867879 
L 326.328294 37.351257 
L 326.711727 37.351257 
L 326.711727 36.834635 
L 327.757017 36.834635 
L 327.757017 36.318013 
L 330.262579 36.318013 
L 330.262579 35.801391 
L 333.41056 35.801391 
L 333.410856 34.768147 
L 358.8 34.768147 
L 358.8 34.768147 
" style="fill:none;stroke:#000000;stroke-linecap:square;stroke-width:1.5;"/>
   </g>
   <g id="line2d_56">
    <defs>
     <path d="M 0 6 
C 1.591219 6 3.117479 5.367802 4.242641 4.242641 
C 5.367802 3.117479 6 1.591219 6 0 
C 6 -1.591219 5.367802 -3.117479 4.242641 -4.242641 
C 3.117479 -5.367802 1.591219 -6 0 -6 
C -1.591219 -6 -3.117479 -5.367802 -4.242641 -4.242641 
C -5.367802 -3.117479 -6 -1.591219 -6 0 
C -6 1.591219 -5.367802 3.117479 -4.242641 4.242641 
C -3.117479 5.367802 -1.591219 6 0 6 
z
" id="med9552cad7" style="stroke:#000000;stroke-width:1.5;"/>
    </defs>
    <g>
     <use style="fill:none;stroke:#000000;stroke-width:1.5;" x="358.8" xlink:href="#med9552cad7" y="34.768147"/>
    </g>
   </g>
   <g id="line2d_57"/>
   <g id="line2d_58">
    <path clip-path="url(#p074a79ef3e)" d="M 276.514286 189.23813 
" style="fill:none;stroke:#000000;stroke-linecap:square;stroke-width:1.5;"/>
    <defs>
     <path d="M -12 12 
L 12 -12 
M -12 -12 
L 12 12 
" id="m2c654e97e0" style="stroke:#000000;stroke-width:3;"/>
    </defs>
    <g clip-path="url(#p074a79ef3e)">
     <use style="stroke:#000000;stroke-width:3;" x="276.514286" xlink:href="#m2c654e97e0" y="189.23813"/>
    </g>
   </g>
   <g id="line2d_59">
    <defs>
     <path d="M 0 1.5 
C 0.397805 1.5 0.77937 1.341951 1.06066 1.06066 
C 1.341951 0.77937 1.5 0.397805 1.5 0 
C 1.5 -0.397805 1.341951 -0.77937 1.06066 -1.06066 
C 0.77937 -1.341951 0.397805 -1.5 0 -1.5 
C -0.397805 -1.5 -0.77937 -1.341951 -1.06066 -1.06066 
C -1.341951 -0.77937 -1.5 -0.397805 -1.5 0 
C -1.5 0.397805 -1.341951 0.77937 -1.06066 1.06066 
C -0.77937 1.341951 -0.397805 1.5 0 1.5 
z
" id="m4d39df6a79" style="stroke:#ff0000;"/>
    </defs>
    <g>
     <use style="fill:#ff0000;stroke:#ff0000;" x="309.645942" xlink:href="#m4d39df6a79" y="251.749394"/>
     <use style="fill:#ff0000;stroke:#ff0000;" x="309.645942" xlink:href="#m4d39df6a79" y="251.749394"/>
    </g>
   </g>
   <g id="line2d_60">
    <path d="M 143.958223 298.245375 
L 143.958223 297.728753 
L 146.712605 297.728753 
L 146.712605 296.695509 
L 149.098559 296.695509 
L 149.098559 295.662265 
L 151.20312 295.662265 
L 151.20312 293.595777 
L 153.085714 293.595777 
L 153.085714 293.079155 
L 154.788728 293.079155 
L 154.788728 292.045911 
L 156.343457 292.045911 
L 156.343457 289.979423 
L 160.330612 289.979423 
L 160.330612 288.946179 
L 161.483794 288.946179 
L 161.483794 288.429557 
L 162.567041 288.429557 
L 162.567041 287.912935 
L 163.588354 287.912935 
L 163.588354 287.396313 
L 164.554434 287.396313 
L 164.554434 286.879691 
L 165.470948 286.879691 
L 165.470948 286.363069 
L 167.173962 286.363069 
L 167.173962 285.846447 
L 169.458103 285.846447 
L 169.458103 284.813203 
L 173.869028 284.813203 
L 173.869028 282.746715 
L 175.973589 282.746715 
L 175.973589 281.713471 
L 181.113925 281.713471 
L 181.113925 281.196849 
L 185.972868 281.196849 
L 185.972868 280.680226 
L 188.358823 280.680226 
L 188.358823 280.163604 
L 192.738699 280.163604 
L 192.738699 279.13036 
L 194.228571 279.13036 
L 194.228571 278.613738 
L 209.265791 278.613738 
L 209.265791 278.097116 
L 213.067141 278.097116 
L 213.067141 277.580494 
L 213.436839 277.580494 
L 213.436839 276.54725 
L 213.739183 276.54725 
L 213.739183 275.514006 
L 215.883673 275.514006 
L 215.883673 274.480762 
L 220.783088 274.480762 
L 220.783088 273.447518 
L 221.496322 273.447518 
L 221.496322 272.930896 
L 222.914579 272.930896 
L 222.986194 271.38103 
L 224.061032 271.38103 
L 224.061032 270.864408 
L 228.818739 270.864408 
L 228.818739 270.347786 
L 230.015378 270.347786 
L 230.015378 269.831164 
L 231.361925 269.831164 
L 231.361925 269.314542 
L 233.881556 269.314542 
L 233.881556 268.281298 
L 235.916928 268.281298 
L 235.916928 267.248054 
L 236.123697 267.248054 
L 236.123697 266.731432 
L 237.041925 266.731432 
L 237.041925 266.21481 
L 241.319625 266.21481 
L 241.370786 265.181566 
L 241.985907 265.181566 
L 241.985907 264.664944 
L 243.167601 264.664944 
L 243.167601 263.6317 
L 243.958355 263.6317 
L 243.958355 263.115078 
L 244.319339 263.115078 
L 244.319339 262.598456 
L 244.800125 262.598456 
L 244.800125 262.081834 
L 249.797579 262.081834 
L 249.797579 261.565212 
L 252.396446 261.565212 
L 252.396446 261.04859 
L 254.09758 261.04859 
L 254.153878 260.015346 
L 278.93059 260.015346 
L 278.93059 259.498724 
L 279.243124 259.498724 
L 279.243124 258.982102 
L 280.128783 258.982102 
L 280.128783 258.46548 
L 280.633887 258.46548 
L 280.633887 257.432236 
L 281.255765 257.432236 
L 281.255765 256.915614 
L 290.148486 256.915614 
L 290.148486 256.398992 
L 291.077783 256.398992 
L 291.077783 255.88237 
L 292.058717 255.88237 
L 292.058717 255.365748 
L 297.454926 255.365748 
L 297.454926 254.849126 
L 297.767115 254.849126 
L 297.868535 253.815882 
L 302.407059 253.815882 
L 302.407059 253.29926 
L 302.934082 253.29926 
L 302.934082 252.782638 
L 305.840616 252.782638 
L 305.840616 252.266016 
L 309.645942 252.266016 
L 309.645942 251.749394 
L 358.8 251.749394 
L 358.8 251.749394 
" style="fill:none;stroke:#ff0000;stroke-linecap:square;stroke-width:1.5;"/>
   </g>
   <g id="line2d_61">
    <defs>
     <path d="M -6 6 
L 6 6 
L 6 -6 
L -6 -6 
z
" id="m1c47afac9d" style="stroke:#ff0000;stroke-linejoin:miter;stroke-width:1.5;"/>
    </defs>
    <g>
     <use style="fill:none;stroke:#ff0000;stroke-linejoin:miter;stroke-width:1.5;" x="358.8" xlink:href="#m1c47afac9d" y="251.749394"/>
    </g>
   </g>
   <g id="line2d_62"/>
   <g id="line2d_63">
    <path clip-path="url(#p074a79ef3e)" d="M 276.514286 260.015346 
" style="fill:none;stroke:#ff0000;stroke-linecap:square;stroke-width:1.5;"/>
    <defs>
     <path d="M -12 12 
L 12 -12 
M -12 -12 
L 12 12 
" id="md9be60a6f9" style="stroke:#ff0000;stroke-width:3;"/>
    </defs>
    <g clip-path="url(#p074a79ef3e)">
     <use style="fill:#ff0000;stroke:#ff0000;stroke-width:3;" x="276.514286" xlink:href="#md9be60a6f9" y="260.015346"/>
    </g>
   </g>
   <g id="line2d_64">
    <defs>
     <path d="M 0 1.5 
C 0.397805 1.5 0.77937 1.341951 1.06066 1.06066 
C 1.341951 0.77937 1.5 0.397805 1.5 0 
C 1.5 -0.397805 1.341951 -0.77937 1.06066 -1.06066 
C 0.77937 -1.341951 0.397805 -1.5 0 -1.5 
C -0.397805 -1.5 -0.77937 -1.341951 -1.06066 -1.06066 
C -1.341951 -0.77937 -1.5 -0.397805 -1.5 0 
C -1.5 0.397805 -1.341951 0.77937 -1.06066 1.06066 
C -0.77937 1.341951 -0.397805 1.5 0 1.5 
z
" id="mc33d694946" style="stroke:#bf00bf;"/>
    </defs>
    <g>
     <use style="fill:#bf00bf;stroke:#bf00bf;" x="338.957744" xlink:href="#mc33d694946" y="272.414274"/>
     <use style="fill:#bf00bf;stroke:#bf00bf;" x="338.957744" xlink:href="#mc33d694946" y="272.414274"/>
    </g>
   </g>
   <g id="line2d_65">
    <path d="M 175.213128 298.245375 
L 175.213128 297.728753 
L 177.173241 297.728753 
L 177.173241 296.178887 
L 193.499159 296.178887 
L 193.499159 295.145643 
L 194.84326 295.145643 
L 194.84326 294.112399 
L 209.571237 294.112399 
L 209.571237 293.595777 
L 213.467305 293.595777 
L 213.467305 292.045911 
L 217.436187 292.045911 
L 217.436187 291.529289 
L 220.641035 291.529289 
L 220.641035 291.012667 
L 228.228978 291.012667 
L 228.228978 288.946179 
L 228.322007 288.946179 
L 228.322007 288.429557 
L 231.879877 288.429557 
L 231.879877 287.912935 
L 240.640842 287.912935 
L 240.640842 287.396313 
L 242.065936 287.396313 
L 242.065936 286.879691 
L 247.198593 286.879691 
L 247.198593 286.363069 
L 249.869163 286.363069 
L 249.869163 285.329825 
L 250.797184 285.329825 
L 250.797184 283.779959 
L 251.740244 283.779959 
L 251.740244 283.263337 
L 257.596977 283.263337 
L 257.596977 282.230093 
L 260.900589 282.230093 
L 260.900589 281.713471 
L 261.098569 281.713471 
L 261.098569 281.196849 
L 266.232024 281.196849 
L 266.232024 280.163604 
L 267.956829 280.163604 
L 267.956829 279.646982 
L 281.367782 279.646982 
L 281.367782 279.13036 
L 281.835512 279.13036 
L 281.835512 278.613738 
L 285.128265 278.613738 
L 285.128265 278.097116 
L 285.511401 278.097116 
L 285.511401 277.580494 
L 304.174864 277.580494 
L 304.174864 277.063872 
L 308.34992 277.063872 
L 308.34992 276.54725 
L 311.130089 276.54725 
L 311.130089 276.030628 
L 317.028975 276.030628 
L 317.028975 275.514006 
L 320.825246 275.514006 
L 320.825246 274.997384 
L 325.665213 274.997384 
L 325.665213 273.96414 
L 326.771639 273.96414 
L 326.771639 273.447518 
L 334.491335 273.447518 
L 334.491335 272.930896 
L 338.957744 272.930896 
L 338.957744 272.414274 
L 358.8 272.414274 
" style="fill:none;stroke:#bf00bf;stroke-linecap:square;stroke-width:1.5;"/>
   </g>
   <g id="line2d_66">
    <defs>
     <path d="M -0 8.485281 
L 8.485281 0 
L 0 -8.485281 
L -8.485281 -0 
z
" id="m73e9c8fa14" style="stroke:#bf00bf;stroke-linejoin:miter;stroke-width:1.5;"/>
    </defs>
    <g>
     <use style="fill:none;stroke:#bf00bf;stroke-linejoin:miter;stroke-width:1.5;" x="358.8" xlink:href="#m73e9c8fa14" y="272.414274"/>
    </g>
   </g>
   <g id="line2d_67"/>
   <g id="line2d_68">
    <path clip-path="url(#p074a79ef3e)" d="M 276.514286 279.646982 
" style="fill:none;stroke:#bf00bf;stroke-linecap:square;stroke-width:1.5;"/>
    <defs>
     <path d="M -12 12 
L 12 -12 
M -12 -12 
L 12 12 
" id="ma0df22df28" style="stroke:#bf00bf;stroke-width:3;"/>
    </defs>
    <g clip-path="url(#p074a79ef3e)">
     <use style="fill:#bf00bf;stroke:#bf00bf;stroke-width:3;" x="276.514286" xlink:href="#ma0df22df28" y="279.646982"/>
    </g>
   </g>
   <g id="line2d_69">
    <path d="M 358.8 272.414274 
L 390.48 292.97583 
" style="fill:none;stroke:#bf00bf;stroke-linecap:square;stroke-width:1.5;"/>
    <g>
     <use style="fill:none;stroke:#bf00bf;stroke-linejoin:miter;stroke-width:1.5;" x="358.8" xlink:href="#m73e9c8fa14" y="272.414274"/>
     <use style="fill:none;stroke:#bf00bf;stroke-linejoin:miter;stroke-width:1.5;" x="390.48" xlink:href="#m73e9c8fa14" y="292.97583"/>
    </g>
   </g>
   <g id="line2d_70">
    <path d="M 358.8 251.749394 
L 390.48 242.388203 
" style="fill:none;stroke:#ff0000;stroke-linecap:square;stroke-width:1.5;"/>
    <g>
     <use style="fill:none;stroke:#ff0000;stroke-linejoin:miter;stroke-width:1.5;" x="358.8" xlink:href="#m1c47afac9d" y="251.749394"/>
     <use style="fill:none;stroke:#ff0000;stroke-linejoin:miter;stroke-width:1.5;" x="390.48" xlink:href="#m1c47afac9d" y="242.388203"/>
    </g>
   </g>
   <g id="line2d_71">
    <path d="M 358.8 34.768147 
L 390.48 191.800575 
" style="fill:none;stroke:#000000;stroke-linecap:square;stroke-width:1.5;"/>
    <g>
     <use style="fill:none;stroke:#000000;stroke-width:1.5;" x="358.8" xlink:href="#med9552cad7" y="34.768147"/>
     <use style="fill:none;stroke:#000000;stroke-width:1.5;" x="390.48" xlink:href="#med9552cad7" y="191.800575"/>
    </g>
   </g>
   <g id="line2d_72">
    <path d="M 358.8 34.768147 
L 390.48 141.212947 
" style="fill:none;stroke:#0000ff;stroke-linecap:square;stroke-width:1.5;"/>
    <g>
     <use style="fill:none;stroke:#0000ff;stroke-linejoin:bevel;stroke-width:1.5;" x="358.8" xlink:href="#m20fc572555" y="34.768147"/>
     <use style="fill:none;stroke:#0000ff;stroke-linejoin:bevel;stroke-width:1.5;" x="390.48" xlink:href="#m20fc572555" y="141.212947"/>
    </g>
   </g>
   <g id="line2d_73">
    <path d="M 358.8 34.768147 
L 390.48 90.62532 
" style="fill:none;stroke:#00bfbf;stroke-linecap:square;stroke-width:1.5;"/>
    <g>
     <use style="fill:none;stroke:#00bfbf;stroke-width:1.5;" x="358.8" xlink:href="#m90121061da" y="34.768147"/>
     <use style="fill:none;stroke:#00bfbf;stroke-width:1.5;" x="390.48" xlink:href="#m90121061da" y="90.62532"/>
    </g>
   </g>
   <g id="line2d_74">
    <path d="M 358.8 34.768147 
L 390.48 40.037692 
" style="fill:none;stroke:#008000;stroke-linecap:square;stroke-width:1.5;"/>
    <g>
     <use style="fill:none;stroke:#008000;stroke-linejoin:miter;stroke-width:1.5;" x="358.8" xlink:href="#m3c59f16e10" y="34.768147"/>
     <use style="fill:none;stroke:#008000;stroke-linejoin:miter;stroke-width:1.5;" x="390.48" xlink:href="#m3c59f16e10" y="40.037692"/>
    </g>
   </g>
   <g id="line2d_75">
    <path d="M 358.8 298.245375 
L 358.8 34.768147 
" style="fill:none;stroke:#000000;stroke-linecap:square;stroke-width:1.5;"/>
   </g>
   <g id="patch_3">
    <path d="M 70.8 298.245375 
L 70.8 32.133375 
" style="fill:none;stroke:#000000;stroke-linecap:square;stroke-linejoin:miter;stroke-width:0.8;"/>
   </g>
   <g id="patch_4">
    <path d="M 427.92 298.245375 
L 427.92 32.133375 
" style="fill:none;stroke:#000000;stroke-linecap:square;stroke-linejoin:miter;stroke-width:0.8;"/>
   </g>
   <g id="patch_5">
    <path d="M 70.8 298.245375 
L 427.92 298.245375 
" style="fill:none;stroke:#000000;stroke-linecap:square;stroke-linejoin:miter;stroke-width:0.8;"/>
   </g>
   <g id="patch_6">
    <path d="M 70.8 32.133375 
L 427.92 32.133375 
" style="fill:none;stroke:#000000;stroke-linecap:square;stroke-linejoin:miter;stroke-width:0.8;"/>
   </g>
   <g id="text_14">
    <!-- 40-D -->
    <defs>
     <path d="M 19.671875 64.796875 
L 19.671875 8.109375 
L 31.59375 8.109375 
Q 46.6875 8.109375 53.6875 14.9375 
Q 60.6875 21.78125 60.6875 36.53125 
Q 60.6875 51.171875 53.6875 57.984375 
Q 46.6875 64.796875 31.59375 64.796875 
z
M 9.8125 72.90625 
L 30.078125 72.90625 
Q 51.265625 72.90625 61.171875 64.09375 
Q 71.09375 55.28125 71.09375 36.53125 
Q 71.09375 17.671875 61.125 8.828125 
Q 51.171875 0 30.078125 0 
L 9.8125 0 
z
" id="DejaVuSans-44"/>
    </defs>
    <g transform="translate(396.24 297.114893)scale(0.15 -0.15)">
     <use xlink:href="#DejaVuSans-34"/>
     <use x="63.623047" xlink:href="#DejaVuSans-30"/>
     <use x="127.246094" xlink:href="#DejaVuSans-2d"/>
     <use x="163.330078" xlink:href="#DejaVuSans-44"/>
    </g>
   </g>
   <g id="text_15">
    <!-- 20-D -->
    <g transform="translate(396.24 246.527265)scale(0.15 -0.15)">
     <use xlink:href="#DejaVuSans-32"/>
     <use x="63.623047" xlink:href="#DejaVuSans-30"/>
     <use x="127.246094" xlink:href="#DejaVuSans-2d"/>
     <use x="163.330078" xlink:href="#DejaVuSans-44"/>
    </g>
   </g>
   <g id="text_16">
    <!-- 10-D -->
    <g transform="translate(396.24 195.939637)scale(0.15 -0.15)">
     <use xlink:href="#DejaVuSans-31"/>
     <use x="63.623047" xlink:href="#DejaVuSans-30"/>
     <use x="127.246094" xlink:href="#DejaVuSans-2d"/>
     <use x="163.330078" xlink:href="#DejaVuSans-44"/>
    </g>
   </g>
   <g id="text_17">
    <!-- 5-D -->
    <defs>
     <path d="M 10.796875 72.90625 
L 49.515625 72.90625 
L 49.515625 64.59375 
L 19.828125 64.59375 
L 19.828125 46.734375 
Q 21.96875 47.46875 24.109375 47.828125 
Q 26.265625 48.1875 28.421875 48.1875 
Q 40.625 48.1875 47.75 41.5 
Q 54.890625 34.8125 54.890625 23.390625 
Q 54.890625 11.625 47.5625 5.09375 
Q 40.234375 -1.421875 26.90625 -1.421875 
Q 22.3125 -1.421875 17.546875 -0.640625 
Q 12.796875 0.140625 7.71875 1.703125 
L 7.71875 11.625 
Q 12.109375 9.234375 16.796875 8.0625 
Q 21.484375 6.890625 26.703125 6.890625 
Q 35.15625 6.890625 40.078125 11.328125 
Q 45.015625 15.765625 45.015625 23.390625 
Q 45.015625 31 40.078125 35.4375 
Q 35.15625 39.890625 26.703125 39.890625 
Q 22.75 39.890625 18.8125 39.015625 
Q 14.890625 38.140625 10.796875 36.28125 
z
" id="DejaVuSans-35"/>
    </defs>
    <g transform="translate(396.24 145.35201)scale(0.15 -0.15)">
     <use xlink:href="#DejaVuSans-35"/>
     <use x="63.623047" xlink:href="#DejaVuSans-2d"/>
     <use x="99.707031" xlink:href="#DejaVuSans-44"/>
    </g>
   </g>
   <g id="text_18">
    <!-- 2-D -->
    <g transform="translate(396.24 94.764382)scale(0.15 -0.15)">
     <use xlink:href="#DejaVuSans-32"/>
     <use x="63.623047" xlink:href="#DejaVuSans-2d"/>
     <use x="99.707031" xlink:href="#DejaVuSans-44"/>
    </g>
   </g>
   <g id="text_19">
    <!-- 3-D -->
    <defs>
     <path d="M 40.578125 39.3125 
Q 47.65625 37.796875 51.625 33 
Q 55.609375 28.21875 55.609375 21.1875 
Q 55.609375 10.40625 48.1875 4.484375 
Q 40.765625 -1.421875 27.09375 -1.421875 
Q 22.515625 -1.421875 17.65625 -0.515625 
Q 12.796875 0.390625 7.625 2.203125 
L 7.625 11.71875 
Q 11.71875 9.328125 16.59375 8.109375 
Q 21.484375 6.890625 26.8125 6.890625 
Q 36.078125 6.890625 40.9375 10.546875 
Q 45.796875 14.203125 45.796875 21.1875 
Q 45.796875 27.640625 41.28125 31.265625 
Q 36.765625 34.90625 28.71875 34.90625 
L 20.21875 34.90625 
L 20.21875 43.015625 
L 29.109375 43.015625 
Q 36.375 43.015625 40.234375 45.921875 
Q 44.09375 48.828125 44.09375 54.296875 
Q 44.09375 59.90625 40.109375 62.90625 
Q 36.140625 65.921875 28.71875 65.921875 
Q 24.65625 65.921875 20.015625 65.03125 
Q 15.375 64.15625 9.8125 62.3125 
L 9.8125 71.09375 
Q 15.4375 72.65625 20.34375 73.4375 
Q 25.25 74.21875 29.59375 74.21875 
Q 40.828125 74.21875 47.359375 69.109375 
Q 53.90625 64.015625 53.90625 55.328125 
Q 53.90625 49.265625 50.4375 45.09375 
Q 46.96875 40.921875 40.578125 39.3125 
" id="DejaVuSans-33"/>
    </defs>
    <g transform="translate(396.24 44.176754)scale(0.15 -0.15)">
     <use xlink:href="#DejaVuSans-33"/>
     <use x="63.623047" xlink:href="#DejaVuSans-2d"/>
     <use x="99.707031" xlink:href="#DejaVuSans-44"/>
    </g>
   </g>
   <g id="text_20">
    <!-- bbob - f7 -->
    <defs>
     <path d="M 48.6875 27.296875 
Q 48.6875 37.203125 44.609375 42.84375 
Q 40.53125 48.484375 33.40625 48.484375 
Q 26.265625 48.484375 22.1875 42.84375 
Q 18.109375 37.203125 18.109375 27.296875 
Q 18.109375 17.390625 22.1875 11.75 
Q 26.265625 6.109375 33.40625 6.109375 
Q 40.53125 6.109375 44.609375 11.75 
Q 48.6875 17.390625 48.6875 27.296875 
M 18.109375 46.390625 
Q 20.953125 51.265625 25.265625 53.625 
Q 29.59375 56 35.59375 56 
Q 45.5625 56 51.78125 48.09375 
Q 58.015625 40.1875 58.015625 27.296875 
Q 58.015625 14.40625 51.78125 6.484375 
Q 45.5625 -1.421875 35.59375 -1.421875 
Q 29.59375 -1.421875 25.265625 0.953125 
Q 20.953125 3.328125 18.109375 8.203125 
L 18.109375 0 
L 9.078125 0 
L 9.078125 75.984375 
L 18.109375 75.984375 
z
" id="DejaVuSans-62"/>
     <path d="M 8.203125 72.90625 
L 55.078125 72.90625 
L 55.078125 68.703125 
L 28.609375 0 
L 18.3125 0 
L 43.21875 64.59375 
L 8.203125 64.59375 
z
" id="DejaVuSans-37"/>
    </defs>
    <g transform="translate(74.3712 50.114612)scale(0.1666 -0.1666)">
     <use xlink:href="#DejaVuSans-62"/>
     <use x="63.476562" xlink:href="#DejaVuSans-62"/>
     <use x="126.953125" xlink:href="#DejaVuSans-6f"/>
     <use x="188.134766" xlink:href="#DejaVuSans-62"/>
     <use x="251.611328" xlink:href="#DejaVuSans-20"/>
     <use x="283.398438" xlink:href="#DejaVuSans-2d"/>
     <use x="319.482422" xlink:href="#DejaVuSans-20"/>
     <use x="351.269531" xlink:href="#DejaVuSans-66"/>
     <use x="386.474609" xlink:href="#DejaVuSans-37"/>
    </g>
    <!-- 51 targets in 100..1e-08 -->
    <g transform="translate(74.3712 68.770168)scale(0.1666 -0.1666)">
     <use xlink:href="#DejaVuSans-35"/>
     <use x="63.623047" xlink:href="#DejaVuSans-31"/>
     <use x="127.246094" xlink:href="#DejaVuSans-20"/>
     <use x="159.033203" xlink:href="#DejaVuSans-74"/>
     <use x="198.242188" xlink:href="#DejaVuSans-61"/>
     <use x="259.521484" xlink:href="#DejaVuSans-72"/>
     <use x="300.619141" xlink:href="#DejaVuSans-67"/>
     <use x="364.095703" xlink:href="#DejaVuSans-65"/>
     <use x="425.619141" xlink:href="#DejaVuSans-74"/>
     <use x="464.828125" xlink:href="#DejaVuSans-73"/>
     <use x="516.927734" xlink:href="#DejaVuSans-20"/>
     <use x="548.714844" xlink:href="#DejaVuSans-69"/>
     <use x="576.498047" xlink:href="#DejaVuSans-6e"/>
     <use x="639.876953" xlink:href="#DejaVuSans-20"/>
     <use x="671.664062" xlink:href="#DejaVuSans-31"/>
     <use x="735.287109" xlink:href="#DejaVuSans-30"/>
     <use x="798.910156" xlink:href="#DejaVuSans-30"/>
     <use x="862.533203" xlink:href="#DejaVuSans-2e"/>
     <use x="894.320312" xlink:href="#DejaVuSans-2e"/>
     <use x="926.107422" xlink:href="#DejaVuSans-31"/>
     <use x="989.730469" xlink:href="#DejaVuSans-65"/>
     <use x="1051.253906" xlink:href="#DejaVuSans-2d"/>
     <use x="1087.337891" xlink:href="#DejaVuSans-30"/>
     <use x="1150.960938" xlink:href="#DejaVuSans-38"/>
    </g>
    <!-- 15 instances -->
    <g transform="translate(74.3712 87.425723)scale(0.1666 -0.1666)">
     <use xlink:href="#DejaVuSans-31"/>
     <use x="63.623047" xlink:href="#DejaVuSans-35"/>
     <use x="127.246094" xlink:href="#DejaVuSans-20"/>
     <use x="159.033203" xlink:href="#DejaVuSans-69"/>
     <use x="186.816406" xlink:href="#DejaVuSans-6e"/>
     <use x="250.195312" xlink:href="#DejaVuSans-73"/>
     <use x="302.294922" xlink:href="#DejaVuSans-74"/>
     <use x="341.503906" xlink:href="#DejaVuSans-61"/>
     <use x="402.783203" xlink:href="#DejaVuSans-6e"/>
     <use x="466.162109" xlink:href="#DejaVuSans-63"/>
     <use x="521.142578" xlink:href="#DejaVuSans-65"/>
     <use x="582.666016" xlink:href="#DejaVuSans-73"/>
    </g>
   </g>
   <g id="text_21">
    <!-- v2.0.1 -->
    <g style="fill:#808080;" transform="translate(233.67875 293.504568)scale(0.1 -0.1)">
     <use xlink:href="#DejaVuSans-76"/>
     <use x="59.179688" xlink:href="#DejaVuSans-32"/>
     <use x="122.802734" xlink:href="#DejaVuSans-2e"/>
     <use x="154.589844" xlink:href="#DejaVuSans-30"/>
     <use x="218.212891" xlink:href="#DejaVuSans-2e"/>
     <use x="250" xlink:href="#DejaVuSans-31"/>
    </g>
   </g>
   <g id="text_22">
    <!-- 7 Step-ellipsoid -->
    <defs>
     <path d="M 53.515625 70.515625 
L 53.515625 60.890625 
Q 47.90625 63.578125 42.921875 64.890625 
Q 37.9375 66.21875 33.296875 66.21875 
Q 25.25 66.21875 20.875 63.09375 
Q 16.5 59.96875 16.5 54.203125 
Q 16.5 49.359375 19.40625 46.890625 
Q 22.3125 44.4375 30.421875 42.921875 
L 36.375 41.703125 
Q 47.40625 39.59375 52.65625 34.296875 
Q 57.90625 29 57.90625 20.125 
Q 57.90625 9.515625 50.796875 4.046875 
Q 43.703125 -1.421875 29.984375 -1.421875 
Q 24.8125 -1.421875 18.96875 -0.25 
Q 13.140625 0.921875 6.890625 3.21875 
L 6.890625 13.375 
Q 12.890625 10.015625 18.65625 8.296875 
Q 24.421875 6.59375 29.984375 6.59375 
Q 38.421875 6.59375 43.015625 9.90625 
Q 47.609375 13.234375 47.609375 19.390625 
Q 47.609375 24.75 44.3125 27.78125 
Q 41.015625 30.8125 33.5 32.328125 
L 27.484375 33.5 
Q 16.453125 35.6875 11.515625 40.375 
Q 6.59375 45.0625 6.59375 53.421875 
Q 6.59375 63.09375 13.40625 68.65625 
Q 20.21875 74.21875 32.171875 74.21875 
Q 37.3125 74.21875 42.625 73.28125 
Q 47.953125 72.359375 53.515625 70.515625 
" id="DejaVuSans-53"/>
    </defs>
    <g transform="translate(156.70875 26.133375)scale(0.24 -0.24)">
     <use xlink:href="#DejaVuSans-37"/>
     <use x="63.623047" xlink:href="#DejaVuSans-20"/>
     <use x="95.410156" xlink:href="#DejaVuSans-53"/>
     <use x="158.886719" xlink:href="#DejaVuSans-74"/>
     <use x="198.095703" xlink:href="#DejaVuSans-65"/>
     <use x="259.619141" xlink:href="#DejaVuSans-70"/>
     <use x="323.095703" xlink:href="#DejaVuSans-2d"/>
     <use x="359.179688" xlink:href="#DejaVuSans-65"/>
     <use x="420.703125" xlink:href="#DejaVuSans-6c"/>
     <use x="448.486328" xlink:href="#DejaVuSans-6c"/>
     <use x="476.269531" xlink:href="#DejaVuSans-69"/>
     <use x="504.052734" xlink:href="#DejaVuSans-70"/>
     <use x="567.529297" xlink:href="#DejaVuSans-73"/>
     <use x="619.628906" xlink:href="#DejaVuSans-6f"/>
     <use x="680.810547" xlink:href="#DejaVuSans-69"/>
     <use x="708.59375" xlink:href="#DejaVuSans-64"/>
    </g>
   </g>
  </g>
 </g>
 <defs>
  <clipPath id="p074a79ef3e">
   <rect height="266.112" width="357.12" x="70.8" y="32.133375"/>
  </clipPath>
 </defs>
</svg>
