<?xml version="1.0" encoding="utf-8" standalone="no"?>
<!DOCTYPE svg PUBLIC "-//W3C//DTD SVG 1.1//EN"
  "http://www.w3.org/Graphics/SVG/1.1/DTD/svg11.dtd">
<!-- Created with matplotlib (http://matplotlib.org/) -->
<svg height="353pt" version="1.1" viewBox="0 0 438 353" width="438pt" xmlns="http://www.w3.org/2000/svg" xmlns:xlink="http://www.w3.org/1999/xlink">
 <defs>
  <style type="text/css">
*{stroke-linecap:butt;stroke-linejoin:round;}
  </style>
 </defs>
 <g id="figure_1">
  <g id="patch_1">
   <path d="M 0 353.22225 
L 438.62 353.22225 
L 438.62 0 
L 0 0 
z
" style="fill:#ffffff;"/>
  </g>
  <g id="axes_1">
   <g id="patch_2">
    <path d="M 70.8 298.245375 
L 427.92 298.245375 
L 427.92 32.133375 
L 70.8 32.133375 
z
" style="fill:#ffffff;"/>
   </g>
   <g id="matplotlib.axis_1">
    <g id="xtick_1">
     <g id="line2d_1">
      <path clip-path="url(#p9662b0f29e)" d="M 70.8 298.245375 
L 70.8 32.133375 
" style="fill:none;stroke:#b0b0b0;stroke-linecap:square;stroke-width:0.8;"/>
     </g>
     <g id="line2d_2">
      <defs>
       <path d="M 0 0 
L 0 3.5 
" id="me4b8827088" style="stroke:#000000;stroke-width:0.8;"/>
      </defs>
      <g>
       <use style="stroke:#000000;stroke-width:0.8;" x="70.8" xlink:href="#me4b8827088" y="298.245375"/>
      </g>
     </g>
     <g id="text_1">
      <!-- 0 -->
      <defs>
       <path d="M 31.78125 66.40625 
Q 24.171875 66.40625 20.328125 58.90625 
Q 16.5 51.421875 16.5 36.375 
Q 16.5 21.390625 20.328125 13.890625 
Q 24.171875 6.390625 31.78125 6.390625 
Q 39.453125 6.390625 43.28125 13.890625 
Q 47.125 21.390625 47.125 36.375 
Q 47.125 51.421875 43.28125 58.90625 
Q 39.453125 66.40625 31.78125 66.40625 
M 31.78125 74.21875 
Q 44.046875 74.21875 50.515625 64.515625 
Q 56.984375 54.828125 56.984375 36.375 
Q 56.984375 17.96875 50.515625 8.265625 
Q 44.046875 -1.421875 31.78125 -1.421875 
Q 19.53125 -1.421875 13.0625 8.265625 
Q 6.59375 17.96875 6.59375 36.375 
Q 6.59375 54.828125 13.0625 64.515625 
Q 19.53125 74.21875 31.78125 74.21875 
" id="DejaVuSans-30"/>
      </defs>
      <g transform="translate(64.4375 320.44225)scale(0.2 -0.2)">
       <use xlink:href="#DejaVuSans-30"/>
      </g>
     </g>
    </g>
    <g id="xtick_2">
     <g id="line2d_3">
      <path clip-path="url(#p9662b0f29e)" d="M 153.085714 298.245375 
L 153.085714 32.133375 
" style="fill:none;stroke:#b0b0b0;stroke-linecap:square;stroke-width:0.8;"/>
     </g>
     <g id="line2d_4">
      <g>
       <use style="stroke:#000000;stroke-width:0.8;" x="153.085714" xlink:href="#me4b8827088" y="298.245375"/>
      </g>
     </g>
     <g id="text_2">
      <!-- 2 -->
      <defs>
       <path d="M 19.1875 8.296875 
L 53.609375 8.296875 
L 53.609375 0 
L 7.328125 0 
L 7.328125 8.296875 
Q 12.9375 14.109375 22.625 23.890625 
Q 32.328125 33.6875 34.8125 36.53125 
Q 39.546875 41.84375 41.421875 45.53125 
Q 43.3125 49.21875 43.3125 52.78125 
Q 43.3125 58.59375 39.234375 62.25 
Q 35.15625 65.921875 28.609375 65.921875 
Q 23.96875 65.921875 18.8125 64.3125 
Q 13.671875 62.703125 7.8125 59.421875 
L 7.8125 69.390625 
Q 13.765625 71.78125 18.9375 73 
Q 24.125 74.21875 28.421875 74.21875 
Q 39.75 74.21875 46.484375 68.546875 
Q 53.21875 62.890625 53.21875 53.421875 
Q 53.21875 48.921875 51.53125 44.890625 
Q 49.859375 40.875 45.40625 35.40625 
Q 44.1875 33.984375 37.640625 27.21875 
Q 31.109375 20.453125 19.1875 8.296875 
" id="DejaVuSans-32"/>
      </defs>
      <g transform="translate(146.723214 320.44225)scale(0.2 -0.2)">
       <use xlink:href="#DejaVuSans-32"/>
      </g>
     </g>
    </g>
    <g id="xtick_3">
     <g id="line2d_5">
      <path clip-path="url(#p9662b0f29e)" d="M 235.371429 298.245375 
L 235.371429 32.133375 
" style="fill:none;stroke:#b0b0b0;stroke-linecap:square;stroke-width:0.8;"/>
     </g>
     <g id="line2d_6">
      <g>
       <use style="stroke:#000000;stroke-width:0.8;" x="235.371429" xlink:href="#me4b8827088" y="298.245375"/>
      </g>
     </g>
     <g id="text_3">
      <!-- 4 -->
      <defs>
       <path d="M 37.796875 64.3125 
L 12.890625 25.390625 
L 37.796875 25.390625 
z
M 35.203125 72.90625 
L 47.609375 72.90625 
L 47.609375 25.390625 
L 58.015625 25.390625 
L 58.015625 17.1875 
L 47.609375 17.1875 
L 47.609375 0 
L 37.796875 0 
L 37.796875 17.1875 
L 4.890625 17.1875 
L 4.890625 26.703125 
z
" id="DejaVuSans-34"/>
      </defs>
      <g transform="translate(229.008929 320.44225)scale(0.2 -0.2)">
       <use xlink:href="#DejaVuSans-34"/>
      </g>
     </g>
    </g>
    <g id="xtick_4">
     <g id="line2d_7">
      <path clip-path="url(#p9662b0f29e)" d="M 317.657143 298.245375 
L 317.657143 32.133375 
" style="fill:none;stroke:#b0b0b0;stroke-linecap:square;stroke-width:0.8;"/>
     </g>
     <g id="line2d_8">
      <g>
       <use style="stroke:#000000;stroke-width:0.8;" x="317.657143" xlink:href="#me4b8827088" y="298.245375"/>
      </g>
     </g>
     <g id="text_4">
      <!-- 6 -->
      <defs>
       <path d="M 33.015625 40.375 
Q 26.375 40.375 22.484375 35.828125 
Q 18.609375 31.296875 18.609375 23.390625 
Q 18.609375 15.53125 22.484375 10.953125 
Q 26.375 6.390625 33.015625 6.390625 
Q 39.65625 6.390625 43.53125 10.953125 
Q 47.40625 15.53125 47.40625 23.390625 
Q 47.40625 31.296875 43.53125 35.828125 
Q 39.65625 40.375 33.015625 40.375 
M 52.59375 71.296875 
L 52.59375 62.3125 
Q 48.875 64.0625 45.09375 64.984375 
Q 41.3125 65.921875 37.59375 65.921875 
Q 27.828125 65.921875 22.671875 59.328125 
Q 17.53125 52.734375 16.796875 39.40625 
Q 19.671875 43.65625 24.015625 45.921875 
Q 28.375 48.1875 33.59375 48.1875 
Q 44.578125 48.1875 50.953125 41.515625 
Q 57.328125 34.859375 57.328125 23.390625 
Q 57.328125 12.15625 50.6875 5.359375 
Q 44.046875 -1.421875 33.015625 -1.421875 
Q 20.359375 -1.421875 13.671875 8.265625 
Q 6.984375 17.96875 6.984375 36.375 
Q 6.984375 53.65625 15.1875 63.9375 
Q 23.390625 74.21875 37.203125 74.21875 
Q 40.921875 74.21875 44.703125 73.484375 
Q 48.484375 72.75 52.59375 71.296875 
" id="DejaVuSans-36"/>
      </defs>
      <g transform="translate(311.294643 320.44225)scale(0.2 -0.2)">
       <use xlink:href="#DejaVuSans-36"/>
      </g>
     </g>
    </g>
    <g id="xtick_5">
     <g id="line2d_9">
      <path clip-path="url(#p9662b0f29e)" d="M 399.942857 298.245375 
L 399.942857 32.133375 
" style="fill:none;stroke:#b0b0b0;stroke-linecap:square;stroke-width:0.8;"/>
     </g>
     <g id="line2d_10">
      <g>
       <use style="stroke:#000000;stroke-width:0.8;" x="399.942857" xlink:href="#me4b8827088" y="298.245375"/>
      </g>
     </g>
     <g id="text_5">
      <!-- 8 -->
      <defs>
       <path d="M 31.78125 34.625 
Q 24.75 34.625 20.71875 30.859375 
Q 16.703125 27.09375 16.703125 20.515625 
Q 16.703125 13.921875 20.71875 10.15625 
Q 24.75 6.390625 31.78125 6.390625 
Q 38.8125 6.390625 42.859375 10.171875 
Q 46.921875 13.96875 46.921875 20.515625 
Q 46.921875 27.09375 42.890625 30.859375 
Q 38.875 34.625 31.78125 34.625 
M 21.921875 38.8125 
Q 15.578125 40.375 12.03125 44.71875 
Q 8.5 49.078125 8.5 55.328125 
Q 8.5 64.0625 14.71875 69.140625 
Q 20.953125 74.21875 31.78125 74.21875 
Q 42.671875 74.21875 48.875 69.140625 
Q 55.078125 64.0625 55.078125 55.328125 
Q 55.078125 49.078125 51.53125 44.71875 
Q 48 40.375 41.703125 38.8125 
Q 48.828125 37.15625 52.796875 32.3125 
Q 56.78125 27.484375 56.78125 20.515625 
Q 56.78125 9.90625 50.3125 4.234375 
Q 43.84375 -1.421875 31.78125 -1.421875 
Q 19.734375 -1.421875 13.25 4.234375 
Q 6.78125 9.90625 6.78125 20.515625 
Q 6.78125 27.484375 10.78125 32.3125 
Q 14.796875 37.15625 21.921875 38.8125 
M 18.3125 54.390625 
Q 18.3125 48.734375 21.84375 45.5625 
Q 25.390625 42.390625 31.78125 42.390625 
Q 38.140625 42.390625 41.71875 45.5625 
Q 45.3125 48.734375 45.3125 54.390625 
Q 45.3125 60.0625 41.71875 63.234375 
Q 38.140625 66.40625 31.78125 66.40625 
Q 25.390625 66.40625 21.84375 63.234375 
Q 18.3125 60.0625 18.3125 54.390625 
" id="DejaVuSans-38"/>
      </defs>
      <g transform="translate(393.580357 320.44225)scale(0.2 -0.2)">
       <use xlink:href="#DejaVuSans-38"/>
      </g>
     </g>
    </g>
    <g id="xtick_6">
     <g id="line2d_11">
      <defs>
       <path d="M 0 0 
L 0 2 
" id="me88a9c19af" style="stroke:#000000;stroke-width:0.6;"/>
      </defs>
      <g>
       <use style="stroke:#000000;stroke-width:0.6;" x="83.185234" xlink:href="#me88a9c19af" y="298.245375"/>
      </g>
     </g>
    </g>
    <g id="xtick_7">
     <g id="line2d_12">
      <g>
       <use style="stroke:#000000;stroke-width:0.6;" x="95.570468" xlink:href="#me88a9c19af" y="298.245375"/>
      </g>
     </g>
    </g>
    <g id="xtick_8">
     <g id="line2d_13">
      <g>
       <use style="stroke:#000000;stroke-width:0.6;" x="102.815366" xlink:href="#me88a9c19af" y="298.245375"/>
      </g>
     </g>
    </g>
    <g id="xtick_9">
     <g id="line2d_14">
      <g>
       <use style="stroke:#000000;stroke-width:0.6;" x="107.955702" xlink:href="#me88a9c19af" y="298.245375"/>
      </g>
     </g>
    </g>
    <g id="xtick_10">
     <g id="line2d_15">
      <g>
       <use style="stroke:#000000;stroke-width:0.6;" x="165.470948" xlink:href="#me88a9c19af" y="298.245375"/>
      </g>
     </g>
    </g>
    <g id="xtick_11">
     <g id="line2d_16">
      <g>
       <use style="stroke:#000000;stroke-width:0.6;" x="177.856183" xlink:href="#me88a9c19af" y="298.245375"/>
      </g>
     </g>
    </g>
    <g id="xtick_12">
     <g id="line2d_17">
      <g>
       <use style="stroke:#000000;stroke-width:0.6;" x="185.10108" xlink:href="#me88a9c19af" y="298.245375"/>
      </g>
     </g>
    </g>
    <g id="xtick_13">
     <g id="line2d_18">
      <g>
       <use style="stroke:#000000;stroke-width:0.6;" x="190.241417" xlink:href="#me88a9c19af" y="298.245375"/>
      </g>
     </g>
    </g>
    <g id="xtick_14">
     <g id="line2d_19">
      <g>
       <use style="stroke:#000000;stroke-width:0.6;" x="247.756663" xlink:href="#me88a9c19af" y="298.245375"/>
      </g>
     </g>
    </g>
    <g id="xtick_15">
     <g id="line2d_20">
      <g>
       <use style="stroke:#000000;stroke-width:0.6;" x="260.141897" xlink:href="#me88a9c19af" y="298.245375"/>
      </g>
     </g>
    </g>
    <g id="xtick_16">
     <g id="line2d_21">
      <g>
       <use style="stroke:#000000;stroke-width:0.6;" x="267.386794" xlink:href="#me88a9c19af" y="298.245375"/>
      </g>
     </g>
    </g>
    <g id="xtick_17">
     <g id="line2d_22">
      <g>
       <use style="stroke:#000000;stroke-width:0.6;" x="272.527131" xlink:href="#me88a9c19af" y="298.245375"/>
      </g>
     </g>
    </g>
    <g id="xtick_18">
     <g id="line2d_23">
      <g>
       <use style="stroke:#000000;stroke-width:0.6;" x="330.042377" xlink:href="#me88a9c19af" y="298.245375"/>
      </g>
     </g>
    </g>
    <g id="xtick_19">
     <g id="line2d_24">
      <g>
       <use style="stroke:#000000;stroke-width:0.6;" x="342.427611" xlink:href="#me88a9c19af" y="298.245375"/>
      </g>
     </g>
    </g>
    <g id="xtick_20">
     <g id="line2d_25">
      <g>
       <use style="stroke:#000000;stroke-width:0.6;" x="349.672509" xlink:href="#me88a9c19af" y="298.245375"/>
      </g>
     </g>
    </g>
    <g id="xtick_21">
     <g id="line2d_26">
      <g>
       <use style="stroke:#000000;stroke-width:0.6;" x="354.812845" xlink:href="#me88a9c19af" y="298.245375"/>
      </g>
     </g>
    </g>
    <g id="xtick_22">
     <g id="line2d_27">
      <g>
       <use style="stroke:#000000;stroke-width:0.6;" x="412.328091" xlink:href="#me88a9c19af" y="298.245375"/>
      </g>
     </g>
    </g>
    <g id="xtick_23">
     <g id="line2d_28">
      <g>
       <use style="stroke:#000000;stroke-width:0.6;" x="424.713325" xlink:href="#me88a9c19af" y="298.245375"/>
      </g>
     </g>
    </g>
    <g id="text_6">
     <!-- log10 of (# f-evals / dimension) -->
     <defs>
      <path d="M 9.421875 75.984375 
L 18.40625 75.984375 
L 18.40625 0 
L 9.421875 0 
z
" id="DejaVuSans-6c"/>
      <path d="M 30.609375 48.390625 
Q 23.390625 48.390625 19.1875 42.75 
Q 14.984375 37.109375 14.984375 27.296875 
Q 14.984375 17.484375 19.15625 11.84375 
Q 23.34375 6.203125 30.609375 6.203125 
Q 37.796875 6.203125 41.984375 11.859375 
Q 46.1875 17.53125 46.1875 27.296875 
Q 46.1875 37.015625 41.984375 42.703125 
Q 37.796875 48.390625 30.609375 48.390625 
M 30.609375 56 
Q 42.328125 56 49.015625 48.375 
Q 55.71875 40.765625 55.71875 27.296875 
Q 55.71875 13.875 49.015625 6.21875 
Q 42.328125 -1.421875 30.609375 -1.421875 
Q 18.84375 -1.421875 12.171875 6.21875 
Q 5.515625 13.875 5.515625 27.296875 
Q 5.515625 40.765625 12.171875 48.375 
Q 18.84375 56 30.609375 56 
" id="DejaVuSans-6f"/>
      <path d="M 45.40625 27.984375 
Q 45.40625 37.75 41.375 43.109375 
Q 37.359375 48.484375 30.078125 48.484375 
Q 22.859375 48.484375 18.828125 43.109375 
Q 14.796875 37.75 14.796875 27.984375 
Q 14.796875 18.265625 18.828125 12.890625 
Q 22.859375 7.515625 30.078125 7.515625 
Q 37.359375 7.515625 41.375 12.890625 
Q 45.40625 18.265625 45.40625 27.984375 
M 54.390625 6.78125 
Q 54.390625 -7.171875 48.1875 -13.984375 
Q 42 -20.796875 29.203125 -20.796875 
Q 24.46875 -20.796875 20.265625 -20.09375 
Q 16.0625 -19.390625 12.109375 -17.921875 
L 12.109375 -9.1875 
Q 16.0625 -11.328125 19.921875 -12.34375 
Q 23.78125 -13.375 27.78125 -13.375 
Q 36.625 -13.375 41.015625 -8.765625 
Q 45.40625 -4.15625 45.40625 5.171875 
L 45.40625 9.625 
Q 42.625 4.78125 38.28125 2.390625 
Q 33.9375 0 27.875 0 
Q 17.828125 0 11.671875 7.65625 
Q 5.515625 15.328125 5.515625 27.984375 
Q 5.515625 40.671875 11.671875 48.328125 
Q 17.828125 56 27.875 56 
Q 33.9375 56 38.28125 53.609375 
Q 42.625 51.21875 45.40625 46.390625 
L 45.40625 54.6875 
L 54.390625 54.6875 
z
" id="DejaVuSans-67"/>
      <path d="M 12.40625 8.296875 
L 28.515625 8.296875 
L 28.515625 63.921875 
L 10.984375 60.40625 
L 10.984375 69.390625 
L 28.421875 72.90625 
L 38.28125 72.90625 
L 38.28125 8.296875 
L 54.390625 8.296875 
L 54.390625 0 
L 12.40625 0 
z
" id="DejaVuSans-31"/>
      <path id="DejaVuSans-20"/>
      <path d="M 37.109375 75.984375 
L 37.109375 68.5 
L 28.515625 68.5 
Q 23.6875 68.5 21.796875 66.546875 
Q 19.921875 64.59375 19.921875 59.515625 
L 19.921875 54.6875 
L 34.71875 54.6875 
L 34.71875 47.703125 
L 19.921875 47.703125 
L 19.921875 0 
L 10.890625 0 
L 10.890625 47.703125 
L 2.296875 47.703125 
L 2.296875 54.6875 
L 10.890625 54.6875 
L 10.890625 58.5 
Q 10.890625 67.625 15.140625 71.796875 
Q 19.390625 75.984375 28.609375 75.984375 
z
" id="DejaVuSans-66"/>
      <path d="M 31 75.875 
Q 24.46875 64.65625 21.28125 53.65625 
Q 18.109375 42.671875 18.109375 31.390625 
Q 18.109375 20.125 21.3125 9.0625 
Q 24.515625 -2 31 -13.1875 
L 23.1875 -13.1875 
Q 15.875 -1.703125 12.234375 9.375 
Q 8.59375 20.453125 8.59375 31.390625 
Q 8.59375 42.28125 12.203125 53.3125 
Q 15.828125 64.359375 23.1875 75.875 
z
" id="DejaVuSans-28"/>
      <path d="M 51.125 44 
L 36.921875 44 
L 32.8125 27.6875 
L 47.125 27.6875 
z
M 43.796875 71.78125 
L 38.71875 51.515625 
L 52.984375 51.515625 
L 58.109375 71.78125 
L 65.921875 71.78125 
L 60.890625 51.515625 
L 76.125 51.515625 
L 76.125 44 
L 58.984375 44 
L 54.984375 27.6875 
L 70.515625 27.6875 
L 70.515625 20.21875 
L 53.078125 20.21875 
L 48 0 
L 40.1875 0 
L 45.21875 20.21875 
L 30.90625 20.21875 
L 25.875 0 
L 18.015625 0 
L 23.09375 20.21875 
L 7.71875 20.21875 
L 7.71875 27.6875 
L 24.90625 27.6875 
L 29 44 
L 13.28125 44 
L 13.28125 51.515625 
L 30.90625 51.515625 
L 35.890625 71.78125 
z
" id="DejaVuSans-23"/>
      <path d="M 4.890625 31.390625 
L 31.203125 31.390625 
L 31.203125 23.390625 
L 4.890625 23.390625 
z
" id="DejaVuSans-2d"/>
      <path d="M 56.203125 29.59375 
L 56.203125 25.203125 
L 14.890625 25.203125 
Q 15.484375 15.921875 20.484375 11.0625 
Q 25.484375 6.203125 34.421875 6.203125 
Q 39.59375 6.203125 44.453125 7.46875 
Q 49.3125 8.734375 54.109375 11.28125 
L 54.109375 2.78125 
Q 49.265625 0.734375 44.1875 -0.34375 
Q 39.109375 -1.421875 33.890625 -1.421875 
Q 20.796875 -1.421875 13.15625 6.1875 
Q 5.515625 13.8125 5.515625 26.8125 
Q 5.515625 40.234375 12.765625 48.109375 
Q 20.015625 56 32.328125 56 
Q 43.359375 56 49.78125 48.890625 
Q 56.203125 41.796875 56.203125 29.59375 
M 47.21875 32.234375 
Q 47.125 39.59375 43.09375 43.984375 
Q 39.0625 48.390625 32.421875 48.390625 
Q 24.90625 48.390625 20.390625 44.140625 
Q 15.875 39.890625 15.1875 32.171875 
z
" id="DejaVuSans-65"/>
      <path d="M 2.984375 54.6875 
L 12.5 54.6875 
L 29.59375 8.796875 
L 46.6875 54.6875 
L 56.203125 54.6875 
L 35.6875 0 
L 23.484375 0 
z
" id="DejaVuSans-76"/>
      <path d="M 34.28125 27.484375 
Q 23.390625 27.484375 19.1875 25 
Q 14.984375 22.515625 14.984375 16.5 
Q 14.984375 11.71875 18.140625 8.90625 
Q 21.296875 6.109375 26.703125 6.109375 
Q 34.1875 6.109375 38.703125 11.40625 
Q 43.21875 16.703125 43.21875 25.484375 
L 43.21875 27.484375 
z
M 52.203125 31.203125 
L 52.203125 0 
L 43.21875 0 
L 43.21875 8.296875 
Q 40.140625 3.328125 35.546875 0.953125 
Q 30.953125 -1.421875 24.3125 -1.421875 
Q 15.921875 -1.421875 10.953125 3.296875 
Q 6 8.015625 6 15.921875 
Q 6 25.140625 12.171875 29.828125 
Q 18.359375 34.515625 30.609375 34.515625 
L 43.21875 34.515625 
L 43.21875 35.40625 
Q 43.21875 41.609375 39.140625 45 
Q 35.0625 48.390625 27.6875 48.390625 
Q 23 48.390625 18.546875 47.265625 
Q 14.109375 46.140625 10.015625 43.890625 
L 10.015625 52.203125 
Q 14.9375 54.109375 19.578125 55.046875 
Q 24.21875 56 28.609375 56 
Q 40.484375 56 46.34375 49.84375 
Q 52.203125 43.703125 52.203125 31.203125 
" id="DejaVuSans-61"/>
      <path d="M 44.28125 53.078125 
L 44.28125 44.578125 
Q 40.484375 46.53125 36.375 47.5 
Q 32.28125 48.484375 27.875 48.484375 
Q 21.1875 48.484375 17.84375 46.4375 
Q 14.5 44.390625 14.5 40.28125 
Q 14.5 37.15625 16.890625 35.375 
Q 19.28125 33.59375 26.515625 31.984375 
L 29.59375 31.296875 
Q 39.15625 29.25 43.1875 25.515625 
Q 47.21875 21.78125 47.21875 15.09375 
Q 47.21875 7.46875 41.1875 3.015625 
Q 35.15625 -1.421875 24.609375 -1.421875 
Q 20.21875 -1.421875 15.453125 -0.5625 
Q 10.6875 0.296875 5.421875 2 
L 5.421875 11.28125 
Q 10.40625 8.6875 15.234375 7.390625 
Q 20.0625 6.109375 24.8125 6.109375 
Q 31.15625 6.109375 34.5625 8.28125 
Q 37.984375 10.453125 37.984375 14.40625 
Q 37.984375 18.0625 35.515625 20.015625 
Q 33.0625 21.96875 24.703125 23.78125 
L 21.578125 24.515625 
Q 13.234375 26.265625 9.515625 29.90625 
Q 5.8125 33.546875 5.8125 39.890625 
Q 5.8125 47.609375 11.28125 51.796875 
Q 16.75 56 26.8125 56 
Q 31.78125 56 36.171875 55.265625 
Q 40.578125 54.546875 44.28125 53.078125 
" id="DejaVuSans-73"/>
      <path d="M 25.390625 72.90625 
L 33.6875 72.90625 
L 8.296875 -9.28125 
L 0 -9.28125 
z
" id="DejaVuSans-2f"/>
      <path d="M 45.40625 46.390625 
L 45.40625 75.984375 
L 54.390625 75.984375 
L 54.390625 0 
L 45.40625 0 
L 45.40625 8.203125 
Q 42.578125 3.328125 38.25 0.953125 
Q 33.9375 -1.421875 27.875 -1.421875 
Q 17.96875 -1.421875 11.734375 6.484375 
Q 5.515625 14.40625 5.515625 27.296875 
Q 5.515625 40.1875 11.734375 48.09375 
Q 17.96875 56 27.875 56 
Q 33.9375 56 38.25 53.625 
Q 42.578125 51.265625 45.40625 46.390625 
M 14.796875 27.296875 
Q 14.796875 17.390625 18.875 11.75 
Q 22.953125 6.109375 30.078125 6.109375 
Q 37.203125 6.109375 41.296875 11.75 
Q 45.40625 17.390625 45.40625 27.296875 
Q 45.40625 37.203125 41.296875 42.84375 
Q 37.203125 48.484375 30.078125 48.484375 
Q 22.953125 48.484375 18.875 42.84375 
Q 14.796875 37.203125 14.796875 27.296875 
" id="DejaVuSans-64"/>
      <path d="M 9.421875 54.6875 
L 18.40625 54.6875 
L 18.40625 0 
L 9.421875 0 
z
M 9.421875 75.984375 
L 18.40625 75.984375 
L 18.40625 64.59375 
L 9.421875 64.59375 
z
" id="DejaVuSans-69"/>
      <path d="M 52 44.1875 
Q 55.375 50.25 60.0625 53.125 
Q 64.75 56 71.09375 56 
Q 79.640625 56 84.28125 50.015625 
Q 88.921875 44.046875 88.921875 33.015625 
L 88.921875 0 
L 79.890625 0 
L 79.890625 32.71875 
Q 79.890625 40.578125 77.09375 44.375 
Q 74.3125 48.1875 68.609375 48.1875 
Q 61.625 48.1875 57.5625 43.546875 
Q 53.515625 38.921875 53.515625 30.90625 
L 53.515625 0 
L 44.484375 0 
L 44.484375 32.71875 
Q 44.484375 40.625 41.703125 44.40625 
Q 38.921875 48.1875 33.109375 48.1875 
Q 26.21875 48.1875 22.15625 43.53125 
Q 18.109375 38.875 18.109375 30.90625 
L 18.109375 0 
L 9.078125 0 
L 9.078125 54.6875 
L 18.109375 54.6875 
L 18.109375 46.1875 
Q 21.1875 51.21875 25.484375 53.609375 
Q 29.78125 56 35.6875 56 
Q 41.65625 56 45.828125 52.96875 
Q 50 49.953125 52 44.1875 
" id="DejaVuSans-6d"/>
      <path d="M 54.890625 33.015625 
L 54.890625 0 
L 45.90625 0 
L 45.90625 32.71875 
Q 45.90625 40.484375 42.875 44.328125 
Q 39.84375 48.1875 33.796875 48.1875 
Q 26.515625 48.1875 22.3125 43.546875 
Q 18.109375 38.921875 18.109375 30.90625 
L 18.109375 0 
L 9.078125 0 
L 9.078125 54.6875 
L 18.109375 54.6875 
L 18.109375 46.1875 
Q 21.34375 51.125 25.703125 53.5625 
Q 30.078125 56 35.796875 56 
Q 45.21875 56 50.046875 50.171875 
Q 54.890625 44.34375 54.890625 33.015625 
" id="DejaVuSans-6e"/>
      <path d="M 8.015625 75.875 
L 15.828125 75.875 
Q 23.140625 64.359375 26.78125 53.3125 
Q 30.421875 42.28125 30.421875 31.390625 
Q 30.421875 20.453125 26.78125 9.375 
Q 23.140625 -1.703125 15.828125 -13.1875 
L 8.015625 -13.1875 
Q 14.5 -2 17.703125 9.0625 
Q 20.90625 20.125 20.90625 31.390625 
Q 20.90625 42.671875 17.703125 53.65625 
Q 14.5 64.65625 8.015625 75.875 
" id="DejaVuSans-29"/>
     </defs>
     <g transform="translate(107.015156 342.278812)scale(0.18 -0.18)">
      <use xlink:href="#DejaVuSans-6c"/>
      <use x="27.783203" xlink:href="#DejaVuSans-6f"/>
      <use x="88.964844" xlink:href="#DejaVuSans-67"/>
      <use x="152.441406" xlink:href="#DejaVuSans-31"/>
      <use x="216.064453" xlink:href="#DejaVuSans-30"/>
      <use x="279.6875" xlink:href="#DejaVuSans-20"/>
      <use x="311.474609" xlink:href="#DejaVuSans-6f"/>
      <use x="372.65625" xlink:href="#DejaVuSans-66"/>
      <use x="407.861328" xlink:href="#DejaVuSans-20"/>
      <use x="439.648438" xlink:href="#DejaVuSans-28"/>
      <use x="478.662109" xlink:href="#DejaVuSans-23"/>
      <use x="562.451172" xlink:href="#DejaVuSans-20"/>
      <use x="594.238281" xlink:href="#DejaVuSans-66"/>
      <use x="629.365234" xlink:href="#DejaVuSans-2d"/>
      <use x="665.449219" xlink:href="#DejaVuSans-65"/>
      <use x="726.972656" xlink:href="#DejaVuSans-76"/>
      <use x="786.152344" xlink:href="#DejaVuSans-61"/>
      <use x="847.431641" xlink:href="#DejaVuSans-6c"/>
      <use x="875.214844" xlink:href="#DejaVuSans-73"/>
      <use x="927.314453" xlink:href="#DejaVuSans-20"/>
      <use x="959.101562" xlink:href="#DejaVuSans-2f"/>
      <use x="992.792969" xlink:href="#DejaVuSans-20"/>
      <use x="1024.580078" xlink:href="#DejaVuSans-64"/>
      <use x="1088.056641" xlink:href="#DejaVuSans-69"/>
      <use x="1115.839844" xlink:href="#DejaVuSans-6d"/>
      <use x="1213.251953" xlink:href="#DejaVuSans-65"/>
      <use x="1274.775391" xlink:href="#DejaVuSans-6e"/>
      <use x="1338.154297" xlink:href="#DejaVuSans-73"/>
      <use x="1390.253906" xlink:href="#DejaVuSans-69"/>
      <use x="1418.037109" xlink:href="#DejaVuSans-6f"/>
      <use x="1479.21875" xlink:href="#DejaVuSans-6e"/>
      <use x="1542.597656" xlink:href="#DejaVuSans-29"/>
     </g>
    </g>
   </g>
   <g id="matplotlib.axis_2">
    <g id="ytick_1">
     <g id="line2d_29">
      <path clip-path="url(#p9662b0f29e)" d="M 70.8 298.245375 
L 427.92 298.245375 
" style="fill:none;stroke:#b0b0b0;stroke-linecap:square;stroke-width:0.8;"/>
     </g>
     <g id="line2d_30">
      <defs>
       <path d="M 0 0 
L -3.5 0 
" id="mad2d0b233b" style="stroke:#000000;stroke-width:0.8;"/>
      </defs>
      <g>
       <use style="stroke:#000000;stroke-width:0.8;" x="70.8" xlink:href="#mad2d0b233b" y="298.245375"/>
      </g>
     </g>
     <g id="text_7">
      <!-- 0.0 -->
      <defs>
       <path d="M 10.6875 12.40625 
L 21 12.40625 
L 21 0 
L 10.6875 0 
z
" id="DejaVuSans-2e"/>
      </defs>
      <g transform="translate(31.99375 305.843812)scale(0.2 -0.2)">
       <use xlink:href="#DejaVuSans-30"/>
       <use x="63.623047" xlink:href="#DejaVuSans-2e"/>
       <use x="95.410156" xlink:href="#DejaVuSans-30"/>
      </g>
     </g>
    </g>
    <g id="ytick_2">
     <g id="line2d_31">
      <path clip-path="url(#p9662b0f29e)" d="M 70.8 245.549929 
L 427.92 245.549929 
" style="fill:none;stroke:#b0b0b0;stroke-linecap:square;stroke-width:0.8;"/>
     </g>
     <g id="line2d_32">
      <g>
       <use style="stroke:#000000;stroke-width:0.8;" x="70.8" xlink:href="#mad2d0b233b" y="245.549929"/>
      </g>
     </g>
     <g id="text_8">
      <!-- 0.2 -->
      <g transform="translate(31.99375 253.148367)scale(0.2 -0.2)">
       <use xlink:href="#DejaVuSans-30"/>
       <use x="63.623047" xlink:href="#DejaVuSans-2e"/>
       <use x="95.410156" xlink:href="#DejaVuSans-32"/>
      </g>
     </g>
    </g>
    <g id="ytick_3">
     <g id="line2d_33">
      <path clip-path="url(#p9662b0f29e)" d="M 70.8 192.854484 
L 427.92 192.854484 
" style="fill:none;stroke:#b0b0b0;stroke-linecap:square;stroke-width:0.8;"/>
     </g>
     <g id="line2d_34">
      <g>
       <use style="stroke:#000000;stroke-width:0.8;" x="70.8" xlink:href="#mad2d0b233b" y="192.854484"/>
      </g>
     </g>
     <g id="text_9">
      <!-- 0.4 -->
      <g transform="translate(31.99375 200.452921)scale(0.2 -0.2)">
       <use xlink:href="#DejaVuSans-30"/>
       <use x="63.623047" xlink:href="#DejaVuSans-2e"/>
       <use x="95.410156" xlink:href="#DejaVuSans-34"/>
      </g>
     </g>
    </g>
    <g id="ytick_4">
     <g id="line2d_35">
      <path clip-path="url(#p9662b0f29e)" d="M 70.8 140.159038 
L 427.92 140.159038 
" style="fill:none;stroke:#b0b0b0;stroke-linecap:square;stroke-width:0.8;"/>
     </g>
     <g id="line2d_36">
      <g>
       <use style="stroke:#000000;stroke-width:0.8;" x="70.8" xlink:href="#mad2d0b233b" y="140.159038"/>
      </g>
     </g>
     <g id="text_10">
      <!-- 0.6 -->
      <g transform="translate(31.99375 147.757476)scale(0.2 -0.2)">
       <use xlink:href="#DejaVuSans-30"/>
       <use x="63.623047" xlink:href="#DejaVuSans-2e"/>
       <use x="95.410156" xlink:href="#DejaVuSans-36"/>
      </g>
     </g>
    </g>
    <g id="ytick_5">
     <g id="line2d_37">
      <path clip-path="url(#p9662b0f29e)" d="M 70.8 87.463593 
L 427.92 87.463593 
" style="fill:none;stroke:#b0b0b0;stroke-linecap:square;stroke-width:0.8;"/>
     </g>
     <g id="line2d_38">
      <g>
       <use style="stroke:#000000;stroke-width:0.8;" x="70.8" xlink:href="#mad2d0b233b" y="87.463593"/>
      </g>
     </g>
     <g id="text_11">
      <!-- 0.8 -->
      <g transform="translate(31.99375 95.06203)scale(0.2 -0.2)">
       <use xlink:href="#DejaVuSans-30"/>
       <use x="63.623047" xlink:href="#DejaVuSans-2e"/>
       <use x="95.410156" xlink:href="#DejaVuSans-38"/>
      </g>
     </g>
    </g>
    <g id="ytick_6">
     <g id="line2d_39">
      <path clip-path="url(#p9662b0f29e)" d="M 70.8 34.768147 
L 427.92 34.768147 
" style="fill:none;stroke:#b0b0b0;stroke-linecap:square;stroke-width:0.8;"/>
     </g>
     <g id="line2d_40">
      <g>
       <use style="stroke:#000000;stroke-width:0.8;" x="70.8" xlink:href="#mad2d0b233b" y="34.768147"/>
      </g>
     </g>
     <g id="text_12">
      <!-- 1.0 -->
      <g transform="translate(31.99375 42.366585)scale(0.2 -0.2)">
       <use xlink:href="#DejaVuSans-31"/>
       <use x="63.623047" xlink:href="#DejaVuSans-2e"/>
       <use x="95.410156" xlink:href="#DejaVuSans-30"/>
      </g>
     </g>
    </g>
    <g id="text_13">
     <!-- Proportion of function+target pairs -->
     <defs>
      <path d="M 19.671875 64.796875 
L 19.671875 37.40625 
L 32.078125 37.40625 
Q 38.96875 37.40625 42.71875 40.96875 
Q 46.484375 44.53125 46.484375 51.125 
Q 46.484375 57.671875 42.71875 61.234375 
Q 38.96875 64.796875 32.078125 64.796875 
z
M 9.8125 72.90625 
L 32.078125 72.90625 
Q 44.34375 72.90625 50.609375 67.359375 
Q 56.890625 61.8125 56.890625 51.125 
Q 56.890625 40.328125 50.609375 34.8125 
Q 44.34375 29.296875 32.078125 29.296875 
L 19.671875 29.296875 
L 19.671875 0 
L 9.8125 0 
z
" id="DejaVuSans-50"/>
      <path d="M 41.109375 46.296875 
Q 39.59375 47.171875 37.8125 47.578125 
Q 36.03125 48 33.890625 48 
Q 26.265625 48 22.1875 43.046875 
Q 18.109375 38.09375 18.109375 28.8125 
L 18.109375 0 
L 9.078125 0 
L 9.078125 54.6875 
L 18.109375 54.6875 
L 18.109375 46.1875 
Q 20.953125 51.171875 25.484375 53.578125 
Q 30.03125 56 36.53125 56 
Q 37.453125 56 38.578125 55.875 
Q 39.703125 55.765625 41.0625 55.515625 
z
" id="DejaVuSans-72"/>
      <path d="M 18.109375 8.203125 
L 18.109375 -20.796875 
L 9.078125 -20.796875 
L 9.078125 54.6875 
L 18.109375 54.6875 
L 18.109375 46.390625 
Q 20.953125 51.265625 25.265625 53.625 
Q 29.59375 56 35.59375 56 
Q 45.5625 56 51.78125 48.09375 
Q 58.015625 40.1875 58.015625 27.296875 
Q 58.015625 14.40625 51.78125 6.484375 
Q 45.5625 -1.421875 35.59375 -1.421875 
Q 29.59375 -1.421875 25.265625 0.953125 
Q 20.953125 3.328125 18.109375 8.203125 
M 48.6875 27.296875 
Q 48.6875 37.203125 44.609375 42.84375 
Q 40.53125 48.484375 33.40625 48.484375 
Q 26.265625 48.484375 22.1875 42.84375 
Q 18.109375 37.203125 18.109375 27.296875 
Q 18.109375 17.390625 22.1875 11.75 
Q 26.265625 6.109375 33.40625 6.109375 
Q 40.53125 6.109375 44.609375 11.75 
Q 48.6875 17.390625 48.6875 27.296875 
" id="DejaVuSans-70"/>
      <path d="M 18.3125 70.21875 
L 18.3125 54.6875 
L 36.8125 54.6875 
L 36.8125 47.703125 
L 18.3125 47.703125 
L 18.3125 18.015625 
Q 18.3125 11.328125 20.140625 9.421875 
Q 21.96875 7.515625 27.59375 7.515625 
L 36.8125 7.515625 
L 36.8125 0 
L 27.59375 0 
Q 17.1875 0 13.234375 3.875 
Q 9.28125 7.765625 9.28125 18.015625 
L 9.28125 47.703125 
L 2.6875 47.703125 
L 2.6875 54.6875 
L 9.28125 54.6875 
L 9.28125 70.21875 
z
" id="DejaVuSans-74"/>
      <path d="M 8.5 21.578125 
L 8.5 54.6875 
L 17.484375 54.6875 
L 17.484375 21.921875 
Q 17.484375 14.15625 20.5 10.265625 
Q 23.53125 6.390625 29.59375 6.390625 
Q 36.859375 6.390625 41.078125 11.03125 
Q 45.3125 15.671875 45.3125 23.6875 
L 45.3125 54.6875 
L 54.296875 54.6875 
L 54.296875 0 
L 45.3125 0 
L 45.3125 8.40625 
Q 42.046875 3.421875 37.71875 1 
Q 33.40625 -1.421875 27.6875 -1.421875 
Q 18.265625 -1.421875 13.375 4.4375 
Q 8.5 10.296875 8.5 21.578125 
M 31.109375 56 
z
" id="DejaVuSans-75"/>
      <path d="M 48.78125 52.59375 
L 48.78125 44.1875 
Q 44.96875 46.296875 41.140625 47.34375 
Q 37.3125 48.390625 33.40625 48.390625 
Q 24.65625 48.390625 19.8125 42.84375 
Q 14.984375 37.3125 14.984375 27.296875 
Q 14.984375 17.28125 19.8125 11.734375 
Q 24.65625 6.203125 33.40625 6.203125 
Q 37.3125 6.203125 41.140625 7.25 
Q 44.96875 8.296875 48.78125 10.40625 
L 48.78125 2.09375 
Q 45.015625 0.34375 40.984375 -0.53125 
Q 36.96875 -1.421875 32.421875 -1.421875 
Q 20.0625 -1.421875 12.78125 6.34375 
Q 5.515625 14.109375 5.515625 27.296875 
Q 5.515625 40.671875 12.859375 48.328125 
Q 20.21875 56 33.015625 56 
Q 37.15625 56 41.109375 55.140625 
Q 45.0625 54.296875 48.78125 52.59375 
" id="DejaVuSans-63"/>
      <path d="M 46 62.703125 
L 46 35.5 
L 73.1875 35.5 
L 73.1875 27.203125 
L 46 27.203125 
L 46 0 
L 37.796875 0 
L 37.796875 27.203125 
L 10.59375 27.203125 
L 10.59375 35.5 
L 37.796875 35.5 
L 37.796875 62.703125 
z
" id="DejaVuSans-2b"/>
     </defs>
     <g transform="translate(24.250312 323.17875)rotate(-90)scale(0.18 -0.18)">
      <use xlink:href="#DejaVuSans-50"/>
      <use x="60.287109" xlink:href="#DejaVuSans-72"/>
      <use x="101.369141" xlink:href="#DejaVuSans-6f"/>
      <use x="162.550781" xlink:href="#DejaVuSans-70"/>
      <use x="226.027344" xlink:href="#DejaVuSans-6f"/>
      <use x="287.208984" xlink:href="#DejaVuSans-72"/>
      <use x="328.322266" xlink:href="#DejaVuSans-74"/>
      <use x="367.53125" xlink:href="#DejaVuSans-69"/>
      <use x="395.314453" xlink:href="#DejaVuSans-6f"/>
      <use x="456.496094" xlink:href="#DejaVuSans-6e"/>
      <use x="519.875" xlink:href="#DejaVuSans-20"/>
      <use x="551.662109" xlink:href="#DejaVuSans-6f"/>
      <use x="612.84375" xlink:href="#DejaVuSans-66"/>
      <use x="648.048828" xlink:href="#DejaVuSans-20"/>
      <use x="679.835938" xlink:href="#DejaVuSans-66"/>
      <use x="715.041016" xlink:href="#DejaVuSans-75"/>
      <use x="778.419922" xlink:href="#DejaVuSans-6e"/>
      <use x="841.798828" xlink:href="#DejaVuSans-63"/>
      <use x="896.779297" xlink:href="#DejaVuSans-74"/>
      <use x="935.988281" xlink:href="#DejaVuSans-69"/>
      <use x="963.771484" xlink:href="#DejaVuSans-6f"/>
      <use x="1024.953125" xlink:href="#DejaVuSans-6e"/>
      <use x="1088.332031" xlink:href="#DejaVuSans-2b"/>
      <use x="1172.121094" xlink:href="#DejaVuSans-74"/>
      <use x="1211.330078" xlink:href="#DejaVuSans-61"/>
      <use x="1272.609375" xlink:href="#DejaVuSans-72"/>
      <use x="1313.707031" xlink:href="#DejaVuSans-67"/>
      <use x="1377.183594" xlink:href="#DejaVuSans-65"/>
      <use x="1438.707031" xlink:href="#DejaVuSans-74"/>
      <use x="1477.916016" xlink:href="#DejaVuSans-20"/>
      <use x="1509.703125" xlink:href="#DejaVuSans-70"/>
      <use x="1573.179688" xlink:href="#DejaVuSans-61"/>
      <use x="1634.458984" xlink:href="#DejaVuSans-69"/>
      <use x="1662.242188" xlink:href="#DejaVuSans-72"/>
      <use x="1703.355469" xlink:href="#DejaVuSans-73"/>
     </g>
    </g>
   </g>
   <g id="line2d_41">
    <defs>
     <path d="M 0 1.5 
C 0.397805 1.5 0.77937 1.341951 1.06066 1.06066 
C 1.341951 0.77937 1.5 0.397805 1.5 0 
C 1.5 -0.397805 1.341951 -0.77937 1.06066 -1.06066 
C 0.77937 -1.341951 0.397805 -1.5 0 -1.5 
C -0.397805 -1.5 -0.77937 -1.341951 -1.06066 -1.06066 
C -1.341951 -0.77937 -1.5 -0.397805 -1.5 0 
C -1.5 0.397805 -1.341951 0.77937 -1.06066 1.06066 
C -0.77937 1.341951 -0.397805 1.5 0 1.5 
z
" id="mc1cb85e66e" style="stroke:#000080;"/>
    </defs>
    <g>
     <use style="fill:#000080;stroke:#000080;" x="266.777956" xlink:href="#mc1cb85e66e" y="34.768147"/>
     <use style="fill:#000080;stroke:#000080;" x="266.777956" xlink:href="#mc1cb85e66e" y="34.768147"/>
    </g>
   </g>
   <g id="line2d_42">
    <path d="M 128.315246 298.245375 
L 128.315246 296.695509 
L 131.572989 296.695509 
L 131.572989 294.629021 
L 134.327371 294.629021 
L 134.327371 294.112399 
L 136.713325 294.112399 
L 136.713325 293.079155 
L 138.817886 293.079155 
L 138.817886 291.012667 
L 140.70048 291.012667 
L 140.70048 290.496045 
L 142.403494 290.496045 
L 142.403494 288.946179 
L 147.945378 288.946179 
L 147.945378 288.429557 
L 149.098559 288.429557 
L 149.098559 287.912935 
L 150.181807 287.912935 
L 150.181807 285.846447 
L 151.20312 285.846447 
L 151.20312 284.296581 
L 152.1692 284.296581 
L 152.1692 283.263337 
L 153.085714 283.263337 
L 153.085714 282.230093 
L 153.957503 282.230093 
L 153.957503 281.713471 
L 154.788728 281.713471 
L 154.788728 280.163604 
L 155.582997 280.163604 
L 155.582997 279.13036 
L 157.072869 279.13036 
L 157.072869 278.613738 
L 159.097839 278.613738 
L 159.097839 276.030628 
L 159.724855 276.030628 
L 159.724855 272.930896 
L 160.916504 272.930896 
L 160.916504 271.897652 
L 161.483794 271.897652 
L 161.483794 271.38103 
L 163.084994 271.38103 
L 163.084994 270.864408 
L 163.588354 270.864408 
L 163.588354 268.79792 
L 164.077923 268.79792 
L 164.077923 267.764676 
L 164.554434 267.764676 
L 164.554434 264.148322 
L 165.018567 264.148322 
L 165.018567 263.6317 
L 165.912159 263.6317 
L 165.912159 263.115078 
L 166.342737 263.115078 
L 166.342737 260.531968 
L 166.763182 260.531968 
L 166.763182 260.015346 
L 167.173962 260.015346 
L 167.173962 258.982102 
L 167.575509 258.982102 
L 167.575509 257.948858 
L 167.968231 257.948858 
L 167.968231 255.88237 
L 168.728691 255.88237 
L 168.728691 251.749394 
L 169.097119 251.749394 
L 169.097119 251.232772 
L 169.458103 251.232772 
L 169.458103 250.199528 
L 179.148416 250.199528 
L 179.148416 249.682906 
L 179.960743 249.682906 
L 179.960743 249.166284 
L 180.926823 249.166284 
L 180.926823 248.13304 
L 181.113925 248.13304 
L 181.113925 247.616418 
L 181.482353 247.616418 
L 181.482353 246.066551 
L 181.843337 246.066551 
L 181.843337 245.549929 
L 188.108915 245.549929 
L 188.108915 245.033307 
L 188.968715 245.033307 
L 188.968715 244.000063 
L 193.867587 244.000063 
L 193.958519 242.966819 
L 194.228571 242.966819 
L 194.317689 241.933575 
L 194.929372 241.933575 
L 194.929372 240.383709 
L 195.269727 240.383709 
L 195.353812 237.283977 
L 195.768404 237.283977 
L 195.768404 235.734111 
L 196.093288 235.734111 
L 196.173595 234.184245 
L 196.253542 234.184245 
L 196.253542 232.634379 
L 196.41237 232.634379 
L 196.41237 232.117757 
L 196.5698 232.117757 
L 196.5698 231.084513 
L 196.803373 231.084513 
L 196.880557 229.018025 
L 196.95741 229.018025 
L 196.95741 227.468159 
L 197.186003 227.468159 
L 197.186003 226.434915 
L 197.336789 226.434915 
L 197.411708 224.368427 
L 197.486314 224.368427 
L 197.56061 221.785317 
L 197.634598 221.785317 
L 197.708281 220.752073 
L 197.781662 220.752073 
L 197.854742 219.202207 
L 198.215726 219.202207 
L 198.215726 218.685585 
L 199.983597 218.685585 
L 199.983597 218.168963 
L 200.367872 218.168963 
L 200.367872 217.135719 
L 200.990517 217.135719 
L 200.990517 215.069231 
L 201.413809 215.069231 
L 201.413809 214.552609 
L 204.022468 214.552609 
L 204.022468 214.035987 
L 206.161424 214.035987 
L 206.161424 213.519365 
L 206.298345 213.519365 
L 206.343753 212.48612 
L 206.524241 212.48612 
L 206.524241 211.969498 
L 209.304259 211.969498 
L 209.304259 211.452876 
L 210.349039 211.452876 
L 210.457441 209.90301 
L 212.206244 209.90301 
L 212.206244 209.386388 
L 213.406322 209.386388 
L 213.406322 208.869766 
L 213.649016 208.869766 
L 213.649016 208.353144 
L 215.123213 208.353144 
L 215.206256 207.3199 
L 215.288915 207.3199 
L 215.288915 206.286656 
L 216.016128 206.286656 
L 216.016128 205.770034 
L 216.304119 205.770034 
L 216.355986 203.703546 
L 216.45927 203.703546 
L 216.45927 202.670302 
L 216.587541 202.670302 
L 216.587541 201.637058 
L 217.557656 201.637058 
L 217.557656 201.120436 
L 217.702338 201.120436 
L 217.798146 200.087192 
L 217.845858 200.087192 
L 217.845858 199.57057 
L 219.265071 199.57057 
L 219.265071 199.053948 
L 221.515734 199.053948 
L 221.515734 198.537326 
L 221.67027 198.537326 
L 221.67027 197.504082 
L 221.84254 197.504082 
L 221.899596 195.954216 
L 221.994287 195.954216 
L 222.032023 194.40435 
L 222.331078 194.40435 
L 222.331078 193.887728 
L 222.806614 193.887728 
L 222.806614 193.371106 
L 224.361343 193.371106 
L 224.361343 192.854484 
L 225.40562 192.854484 
L 225.40562 191.82124 
L 228.242298 191.82124 
L 228.242298 191.304618 
L 229.514084 191.304618 
L 229.514084 190.787996 
L 230.13554 190.787996 
L 230.219176 188.204886 
L 230.782367 188.204886 
L 230.816984 185.621776 
L 231.204693 185.621776 
L 231.204693 185.105154 
L 232.446488 185.105154 
L 232.446488 184.588532 
L 232.944586 184.588532 
L 232.985474 181.4888 
L 233.279148 181.4888 
L 233.279148 180.972178 
L 233.959075 180.972178 
L 233.959075 179.938934 
L 234.891536 179.938934 
L 234.919047 178.389067 
L 235.335657 178.389067 
L 235.335657 177.872445 
L 235.760265 177.872445 
L 235.760265 177.355823 
L 236.175018 177.355823 
L 236.175018 176.839201 
L 236.370393 176.839201 
L 236.370393 176.322579 
L 237.066318 176.322579 
L 237.066318 175.805957 
L 237.436238 175.805957 
L 237.475989 174.256091 
L 238.614275 174.256091 
L 238.629171 172.706225 
L 239.157331 172.706225 
L 239.157331 172.189603 
L 239.329972 172.189603 
L 239.329972 171.672981 
L 239.990528 171.672981 
L 240.059384 170.639737 
L 240.399739 170.639737 
L 240.46032 169.089871 
L 240.700612 169.089871 
L 240.700612 168.573249 
L 241.048597 168.573249 
L 241.126454 164.956895 
L 241.293989 164.956895 
L 241.338827 163.923651 
L 241.498052 163.923651 
L 241.498052 163.407029 
L 241.680993 163.407029 
L 241.78737 161.340541 
L 242.316015 161.340541 
L 242.316015 160.307297 
L 243.034278 160.307297 
L 243.034278 159.274053 
L 243.184918 159.274053 
L 243.184918 158.240809 
L 244.588038 158.240809 
L 244.588038 156.690943 
L 244.8475 156.690943 
L 244.8475 156.174321 
L 245.108429 156.174321 
L 245.108429 155.141077 
L 245.355386 155.141077 
L 245.355386 154.624455 
L 245.614092 154.624455 
L 245.624161 151.008101 
L 246.042031 151.008101 
L 246.120529 147.908369 
L 246.358807 147.908369 
L 246.363637 146.875125 
L 247.299699 146.875125 
L 247.368308 145.325259 
L 247.631146 145.325259 
L 247.631146 144.808637 
L 248.401538 144.808637 
L 248.414459 143.775392 
L 248.615683 143.775392 
L 248.615683 143.25877 
L 248.83991 143.25877 
L 248.83991 142.225526 
L 249.036426 142.225526 
L 249.123537 140.67566 
L 249.239029 140.67566 
L 249.239029 140.159038 
L 249.41495 140.159038 
L 249.51239 138.609172 
L 249.649528 138.609172 
L 249.661578 137.575928 
L 249.861224 137.575928 
L 249.904848 136.542684 
L 250.042948 136.542684 
L 250.058663 135.50944 
L 250.246175 135.50944 
L 250.246175 134.992818 
L 250.879889 134.992818 
L 250.980871 132.92633 
L 251.192199 132.92633 
L 251.192199 131.893086 
L 251.549792 131.893086 
L 251.549792 130.859842 
L 251.718785 130.859842 
L 251.743817 129.826598 
L 252.254621 129.826598 
L 252.254621 129.309976 
L 252.591766 129.309976 
L 252.615606 126.726866 
L 252.761358 126.726866 
L 252.835472 123.110512 
L 252.91932 123.110512 
L 252.95275 121.560646 
L 253.115657 121.560646 
L 253.115657 121.044024 
L 253.32295 121.044024 
L 253.414314 119.494158 
L 253.585984 119.494158 
L 253.585984 118.977536 
L 253.75602 118.977536 
L 253.75602 118.460914 
L 254.081911 118.460914 
L 254.081911 117.944292 
L 254.262839 117.944292 
L 254.272148 116.394426 
L 254.722436 116.394426 
L 254.722436 115.877804 
L 254.888036 115.877804 
L 254.888036 115.361182 
L 255.140982 115.361182 
L 255.140982 113.811316 
L 255.285187 113.811316 
L 255.334947 112.26145 
L 255.419512 112.26145 
L 255.442771 108.128473 
L 255.601857 108.128473 
L 255.613371 106.578607 
L 255.898856 106.578607 
L 256.006156 105.545363 
L 256.149157 105.545363 
L 256.149157 105.028741 
L 256.288253 105.028741 
L 256.293794 103.478875 
L 256.601399 103.478875 
L 256.604122 101.929009 
L 257.253749 101.929009 
L 257.361065 100.895765 
L 257.478114 100.895765 
L 257.527305 98.312655 
L 257.627855 98.312655 
L 257.627855 97.796033 
L 257.743175 97.796033 
L 257.76615 96.762789 
L 257.867905 96.762789 
L 257.872977 95.212923 
L 258.006878 95.212923 
L 258.006878 94.696301 
L 258.382958 94.696301 
L 258.382958 94.179679 
L 258.770589 94.179679 
L 258.869195 92.629813 
L 258.897953 92.629813 
L 258.897953 92.113191 
L 259.010144 92.113191 
L 259.102707 88.496837 
L 259.323855 88.496837 
L 259.323855 87.980215 
L 259.563076 87.980215 
L 259.597648 86.430349 
L 259.819615 86.430349 
L 259.819615 85.913727 
L 259.932963 85.913727 
L 260.025375 84.363861 
L 260.054577 84.363861 
L 260.135195 82.813995 
L 260.168679 82.813995 
L 260.168679 82.297373 
L 260.359451 82.297373 
L 260.359451 81.264129 
L 260.471629 81.264129 
L 260.473822 80.230885 
L 260.691728 80.230885 
L 260.691728 79.714263 
L 260.819058 79.714263 
L 260.902729 75.064664 
L 261.117613 75.064664 
L 261.223042 72.481554 
L 261.432053 72.481554 
L 261.432053 71.964932 
L 261.779817 71.964932 
L 261.84288 69.381822 
L 261.917858 69.381822 
L 261.964308 66.798712 
L 262.130935 66.798712 
L 262.160883 65.248846 
L 262.244472 65.248846 
L 262.244472 64.215602 
L 262.73023 64.215602 
L 262.83235 61.632492 
L 262.91095 61.632492 
L 262.926247 60.082626 
L 263.210656 60.082626 
L 263.304462 57.499516 
L 263.395917 57.499516 
L 263.488757 54.916406 
L 263.76442 54.916406 
L 263.793575 53.36654 
L 264.035895 53.36654 
L 264.035895 52.849918 
L 264.209278 52.849918 
L 264.305076 50.266808 
L 264.328062 50.266808 
L 264.407402 49.233564 
L 264.475879 49.233564 
L 264.475879 48.20032 
L 264.648536 48.20032 
L 264.728196 46.650454 
L 264.91555 46.650454 
L 264.992329 44.067344 
L 265.14828 44.067344 
L 265.245902 42.517478 
L 265.272738 42.517478 
L 265.358012 40.450989 
L 265.421286 40.450989 
L 265.421286 39.417745 
L 265.677079 39.417745 
L 265.744133 38.384501 
L 265.823941 38.384501 
L 265.927647 36.834635 
L 266.138061 36.834635 
L 266.16678 35.284769 
L 266.777956 35.284769 
L 266.777956 34.768147 
L 358.8 34.768147 
L 358.8 34.768147 
" style="fill:none;stroke:#000080;stroke-linecap:square;stroke-width:1.5;"/>
   </g>
   <g id="line2d_43">
    <defs>
     <path d="M 0 6 
C 1.591219 6 3.117479 5.367802 4.242641 4.242641 
C 5.367802 3.117479 6 1.591219 6 0 
C 6 -1.591219 5.367802 -3.117479 4.242641 -4.242641 
C 3.117479 -5.367802 1.591219 -6 0 -6 
C -1.591219 -6 -3.117479 -5.367802 -4.242641 -4.242641 
C -5.367802 -3.117479 -6 -1.591219 -6 0 
C -6 1.591219 -5.367802 3.117479 -4.242641 4.242641 
C -3.117479 5.367802 -1.591219 6 0 6 
z
" id="m10f3826e0e" style="stroke:#000080;stroke-width:1.5;"/>
    </defs>
    <g>
     <use style="fill:none;stroke:#000080;stroke-width:1.5;" x="358.8" xlink:href="#m10f3826e0e" y="34.768147"/>
    </g>
   </g>
   <g id="line2d_44"/>
   <g id="line2d_45">
    <defs>
     <path d="M 0 1.5 
C 0.397805 1.5 0.77937 1.341951 1.06066 1.06066 
C 1.341951 0.77937 1.5 0.397805 1.5 0 
C 1.5 -0.397805 1.341951 -0.77937 1.06066 -1.06066 
C 0.77937 -1.341951 0.397805 -1.5 0 -1.5 
C -0.397805 -1.5 -0.77937 -1.341951 -1.06066 -1.06066 
C -1.341951 -0.77937 -1.5 -0.397805 -1.5 0 
C -1.5 0.397805 -1.341951 0.77937 -1.06066 1.06066 
C -0.77937 1.341951 -0.397805 1.5 0 1.5 
z
" id="mca5c25dbd9" style="stroke:#ff00ff;"/>
    </defs>
    <g>
     <use style="fill:#ff00ff;stroke:#ff00ff;" x="274.126289" xlink:href="#mca5c25dbd9" y="34.768147"/>
     <use style="fill:#ff00ff;stroke:#ff00ff;" x="274.126289" xlink:href="#mca5c25dbd9" y="34.768147"/>
    </g>
   </g>
   <g id="line2d_46">
    <path d="M 222.697993 298.245375 
L 222.697993 297.728753 
L 226.973349 297.728753 
L 226.973349 297.212131 
L 227.341194 297.212131 
L 227.341194 296.695509 
L 227.550017 296.695509 
L 227.550017 296.178887 
L 227.67415 296.178887 
L 227.67415 294.629021 
L 228.228978 294.629021 
L 228.268907 293.595777 
L 231.328348 293.595777 
L 231.328348 293.079155 
L 231.683282 293.079155 
L 231.683282 292.562533 
L 231.923273 292.562533 
L 231.934105 291.529289 
L 232.862528 291.529289 
L 232.862528 291.012667 
L 233.577953 291.012667 
L 233.577953 290.496045 
L 233.774415 290.496045 
L 233.774415 289.979423 
L 233.930045 289.979423 
L 233.968742 287.912935 
L 234.322767 287.912935 
L 234.379521 286.879691 
L 234.80875 286.879691 
L 234.919047 284.813203 
L 235.010444 284.813203 
L 235.065059 283.263337 
L 235.504939 283.263337 
L 235.504939 282.230093 
L 235.734021 282.230093 
L 235.830063 280.680226 
L 235.84747 280.680226 
L 235.84747 280.163604 
L 236.029225 280.163604 
L 236.063636 278.097116 
L 236.302678 278.097116 
L 236.412584 277.063872 
L 236.605392 277.063872 
L 236.663663 275.514006 
L 237.4601 275.514006 
L 237.4601 274.480762 
L 237.860941 274.480762 
L 237.860941 273.96414 
L 238.975706 273.96414 
L 238.983007 272.930896 
L 239.508049 272.930896 
L 239.508049 272.414274 
L 239.74742 272.414274 
L 239.74742 271.897652 
L 240.332185 271.897652 
L 240.332185 271.38103 
L 240.547466 271.38103 
L 240.547466 270.864408 
L 240.733732 270.864408 
L 240.799788 268.79792 
L 241.074587 268.79792 
L 241.074587 268.281298 
L 241.358009 268.281298 
L 241.415432 263.115078 
L 241.693541 263.115078 
L 241.693541 262.598456 
L 241.886914 262.598456 
L 241.992075 259.498724 
L 242.084354 259.498724 
L 242.084354 258.982102 
L 242.616326 258.982102 
L 242.616326 258.46548 
L 243.476766 258.46548 
L 243.476766 257.948858 
L 243.769508 257.948858 
L 243.769508 256.398992 
L 244.308507 256.398992 
L 244.308507 255.88237 
L 245.05135 255.88237 
L 245.05135 254.849126 
L 245.588893 254.849126 
L 245.669403 252.782638 
L 245.898868 252.782638 
L 245.918683 251.232772 
L 246.042031 251.232772 
L 246.120529 249.166284 
L 246.184056 249.166284 
L 246.184056 248.13304 
L 246.305592 248.13304 
L 246.324961 246.066551 
L 246.464764 246.066551 
L 246.464764 245.549929 
L 246.603481 245.549929 
L 246.603481 244.516685 
L 246.840148 244.516685 
L 246.840148 244.000063 
L 247.027251 244.000063 
L 247.087639 242.966819 
L 247.345468 242.966819 
L 247.454837 241.933575 
L 247.572569 241.933575 
L 247.572569 241.416953 
L 247.707458 241.416953 
L 247.752195 239.867087 
L 247.97863 239.867087 
L 248.018293 238.833843 
L 248.184794 238.833843 
L 248.184794 238.317221 
L 248.44887 238.317221 
L 248.478926 236.767355 
L 248.873513 236.767355 
L 248.965595 235.734111 
L 249.082109 235.734111 
L 249.082109 235.217489 
L 249.222576 235.217489 
L 249.255467 232.634379 
L 249.504291 232.634379 
L 249.504291 232.117757 
L 249.657562 232.117757 
L 249.661578 231.084513 
L 250.011476 231.084513 
L 250.011476 230.567891 
L 250.277236 230.567891 
L 250.284993 229.018025 
L 250.439429 229.018025 
L 250.508492 227.468159 
L 251.014405 227.468159 
L 251.014405 226.434915 
L 251.192199 226.434915 
L 251.192199 225.401671 
L 251.408341 225.401671 
L 251.408341 224.368427 
L 251.921611 224.368427 
L 251.921611 223.851805 
L 252.090645 223.851805 
L 252.090645 222.818561 
L 252.265037 222.818561 
L 252.265037 222.301939 
L 252.427429 222.301939 
L 252.427429 221.785317 
L 252.59858 221.785317 
L 252.612202 219.202207 
L 252.764734 219.202207 
L 252.778229 217.652341 
L 252.94941 217.652341 
L 252.94941 217.135719 
L 253.476046 217.135719 
L 253.479289 215.069231 
L 253.59243 215.069231 
L 253.59243 214.552609 
L 253.911797 214.552609 
L 253.911797 214.035987 
L 254.110106 214.035987 
L 254.116366 212.48612 
L 254.530843 212.48612 
L 254.530843 211.969498 
L 254.69822 211.969498 
L 254.69822 210.419632 
L 254.843024 210.419632 
L 254.843024 209.90301 
L 254.989644 209.90301 
L 255.019419 208.353144 
L 255.431145 208.353144 
L 255.439865 207.3199 
L 255.552836 207.3199 
L 255.570152 205.253412 
L 255.710949 205.253412 
L 255.765246 203.186924 
L 255.867675 203.186924 
L 255.901688 201.637058 
L 256.011785 201.637058 
L 256.011785 201.120436 
L 256.143571 201.120436 
L 256.15195 200.087192 
L 256.304872 200.087192 
L 256.304872 199.053948 
L 256.497626 199.053948 
L 256.497626 198.020704 
L 256.699158 198.020704 
L 256.758637 196.98746 
L 256.825988 196.98746 
L 256.825988 196.470838 
L 256.959933 196.470838 
L 256.970605 194.920972 
L 257.222217 194.920972 
L 257.222217 194.40435 
L 257.355845 194.40435 
L 257.355845 193.887728 
L 257.617568 193.887728 
L 257.617568 192.854484 
L 257.748283 192.854484 
L 257.748283 192.337862 
L 257.898319 192.337862 
L 258.009395 189.23813 
L 258.037057 189.23813 
L 258.132287 187.688264 
L 258.279145 187.688264 
L 258.279145 186.138398 
L 258.402664 186.138398 
L 258.500868 185.105154 
L 258.530224 185.105154 
L 258.627731 182.522044 
L 258.744041 182.522044 
L 258.801914 180.455556 
L 259.097971 180.455556 
L 259.105074 178.90569 
L 259.223031 178.90569 
L 259.244181 176.839201 
L 259.451993 176.839201 
L 259.451993 175.805957 
L 259.574607 175.805957 
L 259.574607 175.289335 
L 259.71012 175.289335 
L 259.803689 174.256091 
L 259.901298 174.256091 
L 259.917138 173.222847 
L 260.056821 173.222847 
L 260.056821 172.706225 
L 260.355038 172.706225 
L 260.355038 172.189603 
L 260.563485 172.189603 
L 260.596177 169.606493 
L 260.719862 169.606493 
L 260.799693 167.023383 
L 260.904869 167.023383 
L 261.00943 164.440273 
L 261.115498 164.440273 
L 261.22094 161.857163 
L 261.531516 161.857163 
L 261.531516 160.823919 
L 261.759426 160.823919 
L 261.759426 160.307297 
L 262.010638 160.307297 
L 262.010638 159.790675 
L 262.222618 159.790675 
L 262.242487 157.724187 
L 262.629466 157.724187 
L 262.732162 156.690943 
L 262.826585 156.690943 
L 262.928158 154.107833 
L 263.013948 154.107833 
L 263.118246 149.458235 
L 263.125808 149.458235 
L 263.137144 147.908369 
L 263.673004 147.908369 
L 263.673004 147.391747 
L 263.855371 147.391747 
L 263.949471 144.808637 
L 263.967511 144.808637 
L 264.041283 143.25877 
L 264.118328 143.25877 
L 264.21817 142.225526 
L 264.305076 142.225526 
L 264.395083 139.642416 
L 264.655477 139.642416 
L 264.655477 139.125794 
L 264.990627 139.125794 
L 265.022949 137.059306 
L 265.168521 137.059306 
L 265.274414 135.50944 
L 265.336314 135.50944 
L 265.419623 132.92633 
L 265.48268 132.92633 
L 265.586732 130.34322 
L 265.663966 130.34322 
L 265.7425 129.309976 
L 265.911483 129.309976 
L 265.992159 127.76011 
L 266.069267 127.76011 
L 266.069267 126.726866 
L 266.327076 126.726866 
L 266.327076 125.693622 
L 266.548477 125.693622 
L 266.63876 121.560646 
L 266.686828 121.560646 
L 266.781037 117.42767 
L 266.85789 117.42767 
L 266.934413 114.84456 
L 267.103132 114.84456 
L 267.181627 113.294694 
L 267.264276 113.294694 
L 267.307702 111.744828 
L 267.385305 111.744828 
L 267.385305 111.228206 
L 267.546888 111.228206 
L 267.546888 110.711584 
L 267.671887 110.711584 
L 267.755222 108.645095 
L 267.828005 108.645095 
L 267.894704 106.578607 
L 268.056068 106.578607 
L 268.056068 105.545363 
L 268.183265 105.545363 
L 268.264254 104.512119 
L 268.342055 104.512119 
L 268.418114 101.929009 
L 268.48265 101.929009 
L 268.48265 101.412387 
L 268.606856 101.412387 
L 268.606856 100.379143 
L 268.744011 100.379143 
L 268.822504 97.796033 
L 268.906125 97.796033 
L 269.016561 96.246167 
L 269.021997 96.246167 
L 269.089808 93.663057 
L 269.205844 93.663057 
L 269.223318 92.629813 
L 269.363839 92.629813 
L 269.423726 91.079947 
L 269.490032 91.079947 
L 269.573228 89.530081 
L 269.610081 89.530081 
L 269.620596 87.980215 
L 269.748909 87.980215 
L 269.83221 84.363861 
L 269.878897 84.363861 
L 269.878897 83.847239 
L 270.077248 83.847239 
L 270.130963 82.813995 
L 270.202334 82.813995 
L 270.202334 82.297373 
L 270.393371 82.297373 
L 270.452418 81.264129 
L 270.50752 81.264129 
L 270.592346 77.131153 
L 270.634608 77.131153 
L 270.644537 74.03142 
L 270.765728 74.03142 
L 270.765728 73.514798 
L 270.890998 73.514798 
L 270.950866 72.481554 
L 271.009318 72.481554 
L 271.088168 70.931688 
L 271.25323 70.931688 
L 271.309508 68.348578 
L 271.429848 68.348578 
L 271.500956 67.315334 
L 271.605914 67.315334 
L 271.668125 63.69898 
L 271.776767 63.69898 
L 271.84303 62.665736 
L 271.898639 62.665736 
L 271.959841 59.566004 
L 272.015089 59.566004 
L 272.125076 58.016138 
L 272.185508 58.016138 
L 272.185508 57.499516 
L 272.30011 57.499516 
L 272.367843 54.916406 
L 272.465603 54.916406 
L 272.465603 53.883162 
L 272.582882 53.883162 
L 272.645117 51.816674 
L 272.738065 51.816674 
L 272.761226 49.233564 
L 272.868919 49.233564 
L 272.979233 47.167076 
L 273.019476 47.167076 
L 273.021648 46.133832 
L 273.145056 46.133832 
L 273.233299 43.550722 
L 273.290104 43.550722 
L 273.290104 42.517478 
L 273.50179 42.517478 
L 273.570393 39.934367 
L 273.624037 39.934367 
L 273.660759 38.384501 
L 273.911584 38.384501 
L 273.970396 36.318013 
L 274.023881 36.318013 
L 274.126289 34.768147 
L 358.8 34.768147 
L 358.8 34.768147 
" style="fill:none;stroke:#ff00ff;stroke-linecap:square;stroke-width:1.5;"/>
   </g>
   <g id="line2d_47">
    <defs>
     <path d="M -0 8.485281 
L 5.091169 0 
L 0 -8.485281 
L -5.091169 -0 
z
" id="med329da928" style="stroke:#ff00ff;stroke-linejoin:miter;stroke-width:1.5;"/>
    </defs>
    <g>
     <use style="fill:none;stroke:#ff00ff;stroke-linejoin:miter;stroke-width:1.5;" x="358.8" xlink:href="#med329da928" y="34.768147"/>
    </g>
   </g>
   <g id="line2d_48"/>
   <g id="line2d_49">
    <defs>
     <path d="M 0 1.5 
C 0.397805 1.5 0.77937 1.341951 1.06066 1.06066 
C 1.341951 0.77937 1.5 0.397805 1.5 0 
C 1.5 -0.397805 1.341951 -0.77937 1.06066 -1.06066 
C 0.77937 -1.341951 0.397805 -1.5 0 -1.5 
C -0.397805 -1.5 -0.77937 -1.341951 -1.06066 -1.06066 
C -1.341951 -0.77937 -1.5 -0.397805 -1.5 0 
C -1.5 0.397805 -1.341951 0.77937 -1.06066 1.06066 
C -0.77937 1.341951 -0.397805 1.5 0 1.5 
z
" id="mb138f201d2" style="stroke:#ffa500;"/>
    </defs>
    <g>
     <use style="fill:#ffa500;stroke:#ffa500;" x="273.880552" xlink:href="#mb138f201d2" y="34.768147"/>
     <use style="fill:#ffa500;stroke:#ffa500;" x="273.880552" xlink:href="#mb138f201d2" y="34.768147"/>
    </g>
   </g>
   <g id="line2d_50">
    <path d="M 168.728691 298.245375 
L 168.728691 297.212131 
L 180.546636 297.212131 
L 180.546636 296.695509 
L 181.299089 296.695509 
L 181.299089 295.145643 
L 189.088235 295.145643 
L 189.088235 294.629021 
L 200.681907 294.629021 
L 200.681907 294.112399 
L 201.112485 294.112399 
L 201.112485 293.595777 
L 203.013302 293.595777 
L 203.067861 292.045911 
L 203.445181 292.045911 
L 203.445181 291.529289 
L 203.918885 291.529289 
L 203.918885 290.496045 
L 204.227851 290.496045 
L 204.27883 289.462801 
L 204.780776 289.462801 
L 204.780776 288.946179 
L 205.460624 288.946179 
L 205.460624 288.429557 
L 206.252821 288.429557 
L 206.252821 287.912935 
L 207.739047 287.912935 
L 207.739047 287.396313 
L 208.678615 287.396313 
L 208.678615 286.879691 
L 209.53334 286.879691 
L 209.53334 285.846447 
L 210.42138 285.846447 
L 210.42138 285.329825 
L 210.565188 285.329825 
L 210.60096 284.296581 
L 211.370352 284.296581 
L 211.370352 283.779959 
L 212.107978 283.779959 
L 212.107978 282.746715 
L 213.649016 282.746715 
L 213.649016 282.230093 
L 214.983944 282.230093 
L 214.983944 281.196849 
L 218.909475 281.196849 
L 218.909475 280.680226 
L 220.040195 280.680226 
L 220.040195 280.163604 
L 223.686995 280.163604 
L 223.686995 279.646982 
L 225.090755 279.646982 
L 225.090755 278.097116 
L 225.327423 278.097116 
L 225.327423 277.063872 
L 225.483477 277.063872 
L 225.483477 276.54725 
L 226.685148 276.54725 
L 226.714178 274.480762 
L 227.383154 274.480762 
L 227.383154 273.447518 
L 227.605294 273.447518 
L 227.605294 270.864408 
L 228.081805 270.864408 
L 228.081805 270.347786 
L 228.20231 270.347786 
L 228.20231 269.831164 
L 228.322007 269.831164 
L 228.322007 269.314542 
L 229.600672 269.314542 
L 229.600672 268.79792 
L 231.22724 268.79792 
L 231.328348 267.248054 
L 233.823196 267.248054 
L 233.900968 264.664944 
L 234.045884 264.664944 
L 234.045884 264.148322 
L 234.265832 264.148322 
L 234.265832 263.6317 
L 235.317744 263.6317 
L 235.317744 263.115078 
L 235.487195 263.115078 
L 235.487195 262.598456 
L 235.690194 262.598456 
L 235.690194 262.081834 
L 235.812639 262.081834 
L 235.812639 261.565212 
L 236.157927 261.565212 
L 236.157927 261.04859 
L 236.353488 261.04859 
L 236.370393 260.015346 
L 236.49667 260.015346 
L 236.49667 259.498724 
L 236.65535 259.498724 
L 236.65535 258.982102 
L 236.919456 258.982102 
L 237.001195 257.948858 
L 237.308437 257.948858 
L 237.308437 257.432236 
L 238.696051 257.432236 
L 238.696051 256.915614 
L 239.852014 256.915614 
L 239.879803 255.365748 
L 239.983627 255.365748 
L 239.983627 254.849126 
L 240.250781 254.849126 
L 240.250781 254.332504 
L 240.547466 254.332504 
L 240.654141 251.749394 
L 241.319625 251.749394 
L 241.383553 250.71615 
L 241.998242 250.71615 
L 241.998242 250.199528 
L 242.133375 250.199528 
L 242.133375 249.166284 
L 242.285704 249.166284 
L 242.285704 248.13304 
L 242.870618 248.13304 
L 242.888225 247.099796 
L 243.11555 247.099796 
L 243.202218 246.066551 
L 243.231015 246.066551 
L 243.231015 245.033307 
L 243.67433 245.033307 
L 243.763923 243.483441 
L 244.079495 243.483441 
L 244.079495 242.966819 
L 244.539969 242.966819 
L 244.539969 242.450197 
L 244.800125 242.450197 
L 244.800125 241.933575 
L 244.962778 241.933575 
L 244.962778 241.416953 
L 245.252902 241.416953 
L 245.324703 240.383709 
L 245.492814 240.383709 
L 245.492814 238.833843 
L 245.859172 238.833843 
L 245.859172 238.317221 
L 246.315279 238.317221 
L 246.402229 235.734111 
L 247.073722 235.734111 
L 247.073722 234.700867 
L 247.418455 234.700867 
L 247.527379 233.667623 
L 247.921183 233.667623 
L 247.965389 231.084513 
L 248.154239 231.084513 
L 248.197873 229.534647 
L 248.405846 229.534647 
L 248.405846 228.501403 
L 248.624196 228.501403 
L 248.624196 227.984781 
L 248.747176 227.984781 
L 248.747176 227.468159 
L 249.206107 227.468159 
L 249.24725 225.918293 
L 249.492134 225.918293 
L 249.520486 224.368427 
L 249.629426 224.368427 
L 249.629426 223.851805 
L 249.857252 223.851805 
L 249.857252 223.335183 
L 250.042948 223.335183 
L 250.042948 222.818561 
L 250.234513 222.818561 
L 250.234513 221.785317 
L 250.634418 221.785317 
L 250.634418 221.268695 
L 250.819778 221.268695 
L 250.827303 220.235451 
L 251.006959 220.235451 
L 251.006959 219.718829 
L 251.368241 219.718829 
L 251.382833 218.685585 
L 251.582276 218.685585 
L 251.593091 217.652341 
L 251.779518 217.652341 
L 251.779518 217.135719 
L 251.910993 217.135719 
L 252.016889 215.585853 
L 252.090645 215.585853 
L 252.090645 214.552609 
L 252.601987 214.552609 
L 252.601987 214.035987 
L 252.751228 214.035987 
L 252.751228 212.48612 
L 252.91932 212.48612 
L 252.986117 210.936254 
L 253.316406 210.936254 
L 253.316406 210.419632 
L 253.59243 210.419632 
L 253.65355 208.869766 
L 253.911797 208.869766 
L 253.943422 207.3199 
L 254.078775 207.3199 
L 254.078775 206.803278 
L 254.509428 206.803278 
L 254.579696 204.220168 
L 254.69822 204.220168 
L 254.773785 202.670302 
L 254.849032 202.670302 
L 254.849032 202.15368 
L 255.143936 202.15368 
L 255.143936 201.637058 
L 255.273459 201.637058 
L 255.288118 200.087192 
L 255.434052 200.087192 
L 255.436959 199.053948 
L 255.742404 199.053948 
L 255.768099 198.020704 
L 255.870512 198.020704 
L 255.870512 197.504082 
L 256.042716 197.504082 
L 256.042716 196.98746 
L 256.288253 196.98746 
L 256.288253 195.437594 
L 256.825988 195.437594 
L 256.839428 192.854484 
L 257.076979 192.854484 
L 257.092881 191.82124 
L 257.350624 191.82124 
L 257.363675 189.754752 
L 257.527305 189.754752 
L 257.612423 188.721508 
L 257.883118 188.721508 
L 257.905914 186.65502 
L 258.009395 186.65502 
L 258.009395 186.138398 
L 258.134786 186.138398 
L 258.134786 185.621776 
L 258.251856 185.621776 
L 258.279145 184.588532 
L 258.380493 184.588532 
L 258.407587 182.522044 
L 258.505764 182.522044 
L 258.505764 182.005422 
L 258.746456 182.005422 
L 258.746456 181.4888 
L 258.861999 181.4888 
L 258.861999 180.455556 
L 258.988715 180.455556 
L 259.093235 178.389067 
L 259.123999 178.389067 
L 259.225382 176.322579 
L 259.361227 176.322579 
L 259.36356 174.772713 
L 259.574607 174.772713 
L 259.597648 172.706225 
L 259.799136 172.706225 
L 259.799136 172.189603 
L 259.917138 172.189603 
L 259.917138 171.156359 
L 260.164218 171.156359 
L 260.164218 170.639737 
L 260.368275 170.639737 
L 260.368275 169.089871 
L 260.497922 169.089871 
L 260.607061 167.023383 
L 260.737153 167.023383 
L 260.825508 165.473517 
L 260.898448 165.473517 
L 260.926258 163.923651 
L 261.119728 163.923651 
L 261.151418 162.890407 
L 261.325763 162.890407 
L 261.348742 161.340541 
L 261.508771 161.340541 
L 261.568673 157.724187 
L 261.84288 157.724187 
L 261.84288 157.207565 
L 262.046812 157.207565 
L 262.14292 155.141077 
L 262.238515 155.141077 
L 262.331624 153.074589 
L 262.443897 153.074589 
L 262.541805 151.524723 
L 262.557421 151.524723 
L 262.557421 151.008101 
L 262.849633 151.008101 
L 262.954892 147.908369 
L 263.114464 147.908369 
L 263.220059 146.875125 
L 263.235093 146.875125 
L 263.306333 145.325259 
L 263.399639 145.325259 
L 263.42382 144.292014 
L 263.57559 144.292014 
L 263.57559 143.775392 
L 263.786291 143.775392 
L 263.848112 142.742148 
L 263.947666 142.742148 
L 264.025115 141.708904 
L 264.062817 141.708904 
L 264.062817 141.192282 
L 264.203941 141.192282 
L 264.234164 139.642416 
L 264.395083 139.642416 
L 264.496896 137.575928 
L 264.566775 137.575928 
L 264.566775 137.059306 
L 264.679749 137.059306 
L 264.759271 135.50944 
L 264.900155 135.50944 
L 264.999138 132.92633 
L 265.168521 132.92633 
L 265.274414 130.859842 
L 265.336314 130.859842 
L 265.416298 128.793354 
L 265.5042 128.793354 
L 265.585085 127.76011 
L 265.660686 127.76011 
L 265.765341 125.177 
L 265.822316 125.177 
L 265.932493 122.59389 
L 266.006642 122.59389 
L 266.093295 121.044024 
L 266.228847 121.044024 
L 266.304942 120.01078 
L 266.390164 120.01078 
L 266.487513 117.944292 
L 266.548477 117.944292 
L 266.548477 117.42767 
L 266.694569 117.42767 
L 266.699212 115.877804 
L 266.853288 115.877804 
L 266.929831 113.294694 
L 267.007568 113.294694 
L 267.007568 112.778072 
L 267.181627 112.778072 
L 267.181627 112.26145 
L 267.312188 112.26145 
L 267.327134 109.678339 
L 267.46109 109.678339 
L 267.46109 109.161717 
L 267.604349 109.161717 
L 267.677747 108.128473 
L 267.755222 108.128473 
L 267.845429 106.578607 
L 267.899045 106.578607 
L 267.96548 104.512119 
L 268.058937 104.512119 
L 268.116206 100.895765 
L 268.337821 100.895765 
L 268.387166 99.862521 
L 268.688722 99.862521 
L 268.748151 97.796033 
L 268.884229 97.796033 
L 268.967562 95.212923 
L 269.016561 95.212923 
L 269.089808 92.113191 
L 269.151967 92.113191 
L 269.220631 90.046703 
L 269.302414 90.046703 
L 269.358506 88.496837 
L 269.425054 88.496837 
L 269.425054 87.980215 
L 269.620596 87.980215 
L 269.697956 85.913727 
L 269.751518 85.913727 
L 269.751518 84.880483 
L 269.946119 84.880483 
L 269.946119 83.847239 
L 270.066998 83.847239 
L 270.151384 79.714263 
L 270.201062 79.714263 
L 270.259479 78.164397 
L 270.331602 78.164397 
L 270.385819 77.131153 
L 270.457435 77.131153 
L 270.528764 76.097908 
L 270.582387 76.097908 
L 270.660661 75.064664 
L 270.699051 75.064664 
L 270.713889 70.415066 
L 270.8297 70.415066 
L 270.8297 69.898444 
L 271.070003 69.898444 
L 271.070003 69.381822 
L 271.187148 69.381822 
L 271.25443 65.248846 
L 271.428661 65.248846 
L 271.491491 63.182358 
L 271.547025 63.182358 
L 271.608265 61.632492 
L 271.664609 61.632492 
L 271.740627 58.53276 
L 271.84303 58.53276 
L 271.84303 58.016138 
L 272.0862 58.016138 
L 272.188923 53.883162 
L 272.302372 53.883162 
L 272.370097 50.78343 
L 272.427462 50.78343 
L 272.431953 48.716942 
L 272.540527 48.716942 
L 272.638459 46.650454 
L 272.756817 46.650454 
L 272.815154 45.61721 
L 272.911596 45.61721 
L 272.929076 44.583966 
L 273.022734 44.583966 
L 273.022734 43.550722 
L 273.182774 43.550722 
L 273.292244 39.934367 
L 273.35206 39.934367 
L 273.46262 37.867879 
L 273.494386 37.867879 
L 273.5725 36.318013 
L 273.715177 36.318013 
L 273.715177 35.801391 
L 273.880552 35.801391 
L 273.880552 34.768147 
L 358.8 34.768147 
L 358.8 34.768147 
" style="fill:none;stroke:#ffa500;stroke-linecap:square;stroke-width:1.5;"/>
   </g>
   <g id="line2d_51">
    <defs>
     <path d="M 0 -6 
L -1.347084 -1.854102 
L -5.706339 -1.854102 
L -2.179628 0.708204 
L -3.526712 4.854102 
L -0 2.291796 
L 3.526712 4.854102 
L 2.179628 0.708204 
L 5.706339 -1.854102 
L 1.347084 -1.854102 
z
" id="m1f83ddb853" style="stroke:#ffa500;stroke-linejoin:bevel;stroke-width:1.5;"/>
    </defs>
    <g>
     <use style="fill:none;stroke:#ffa500;stroke-linejoin:bevel;stroke-width:1.5;" x="358.8" xlink:href="#m1f83ddb853" y="34.768147"/>
    </g>
   </g>
   <g id="line2d_52"/>
   <g id="line2d_53">
    <path d="M 358.8 34.768147 
L 390.48 292.97583 
" style="fill:none;stroke:#ff00ff;stroke-linecap:square;stroke-width:1.5;"/>
    <g>
     <use style="fill:none;stroke:#ff00ff;stroke-linejoin:miter;stroke-width:1.5;" x="358.8" xlink:href="#med329da928" y="34.768147"/>
     <use style="fill:none;stroke:#ff00ff;stroke-linejoin:miter;stroke-width:1.5;" x="390.48" xlink:href="#med329da928" y="292.97583"/>
    </g>
   </g>
   <g id="line2d_54">
    <path d="M 358.8 34.768147 
L 390.48 166.506761 
" style="fill:none;stroke:#ffa500;stroke-linecap:square;stroke-width:1.5;"/>
    <g>
     <use style="fill:none;stroke:#ffa500;stroke-linejoin:bevel;stroke-width:1.5;" x="358.8" xlink:href="#m1f83ddb853" y="34.768147"/>
     <use style="fill:none;stroke:#ffa500;stroke-linejoin:bevel;stroke-width:1.5;" x="390.48" xlink:href="#m1f83ddb853" y="166.506761"/>
    </g>
   </g>
   <g id="line2d_55">
    <path d="M 358.8 34.768147 
L 390.48 40.037692 
" style="fill:none;stroke:#000080;stroke-linecap:square;stroke-width:1.5;"/>
    <g>
     <use style="fill:none;stroke:#000080;stroke-width:1.5;" x="358.8" xlink:href="#m10f3826e0e" y="34.768147"/>
     <use style="fill:none;stroke:#000080;stroke-width:1.5;" x="390.48" xlink:href="#m10f3826e0e" y="40.037692"/>
    </g>
   </g>
   <g id="line2d_56">
    <path d="M 358.8 298.245375 
L 358.8 34.768147 
" style="fill:none;stroke:#000000;stroke-linecap:square;stroke-width:1.5;"/>
   </g>
   <g id="patch_3">
    <path d="M 70.8 298.245375 
L 70.8 32.133375 
" style="fill:none;stroke:#000000;stroke-linecap:square;stroke-linejoin:miter;stroke-width:0.8;"/>
   </g>
   <g id="patch_4">
    <path d="M 427.92 298.245375 
L 427.92 32.133375 
" style="fill:none;stroke:#000000;stroke-linecap:square;stroke-linejoin:miter;stroke-width:0.8;"/>
   </g>
   <g id="patch_5">
    <path d="M 70.8 298.245375 
L 427.92 298.245375 
" style="fill:none;stroke:#000000;stroke-linecap:square;stroke-linejoin:miter;stroke-width:0.8;"/>
   </g>
   <g id="patch_6">
    <path d="M 70.8 32.133375 
L 427.92 32.133375 
" style="fill:none;stroke:#000000;stroke-linecap:square;stroke-linejoin:miter;stroke-width:0.8;"/>
   </g>
   <g id="text_14">
    <!-- f2 -->
    <g transform="translate(396.24 297.114893)scale(0.15 -0.15)">
     <use xlink:href="#DejaVuSans-66"/>
     <use x="35.205078" xlink:href="#DejaVuSans-32"/>
    </g>
   </g>
   <g id="text_15">
    <!-- f3 -->
    <defs>
     <path d="M 40.578125 39.3125 
Q 47.65625 37.796875 51.625 33 
Q 55.609375 28.21875 55.609375 21.1875 
Q 55.609375 10.40625 48.1875 4.484375 
Q 40.765625 -1.421875 27.09375 -1.421875 
Q 22.515625 -1.421875 17.65625 -0.515625 
Q 12.796875 0.390625 7.625 2.203125 
L 7.625 11.71875 
Q 11.71875 9.328125 16.59375 8.109375 
Q 21.484375 6.890625 26.8125 6.890625 
Q 36.078125 6.890625 40.9375 10.546875 
Q 45.796875 14.203125 45.796875 21.1875 
Q 45.796875 27.640625 41.28125 31.265625 
Q 36.765625 34.90625 28.71875 34.90625 
L 20.21875 34.90625 
L 20.21875 43.015625 
L 29.109375 43.015625 
Q 36.375 43.015625 40.234375 45.921875 
Q 44.09375 48.828125 44.09375 54.296875 
Q 44.09375 59.90625 40.109375 62.90625 
Q 36.140625 65.921875 28.71875 65.921875 
Q 24.65625 65.921875 20.015625 65.03125 
Q 15.375 64.15625 9.8125 62.3125 
L 9.8125 71.09375 
Q 15.4375 72.65625 20.34375 73.4375 
Q 25.25 74.21875 29.59375 74.21875 
Q 40.828125 74.21875 47.359375 69.109375 
Q 53.90625 64.015625 53.90625 55.328125 
Q 53.90625 49.265625 50.4375 45.09375 
Q 46.96875 40.921875 40.578125 39.3125 
" id="DejaVuSans-33"/>
    </defs>
    <g transform="translate(396.24 170.645824)scale(0.15 -0.15)">
     <use xlink:href="#DejaVuSans-66"/>
     <use x="35.205078" xlink:href="#DejaVuSans-33"/>
    </g>
   </g>
   <g id="text_16">
    <!-- f1 -->
    <g transform="translate(396.24 44.176754)scale(0.15 -0.15)">
     <use xlink:href="#DejaVuSans-66"/>
     <use x="35.205078" xlink:href="#DejaVuSans-31"/>
    </g>
   </g>
   <g id="text_17">
    <!-- bbob -->
    <defs>
     <path d="M 48.6875 27.296875 
Q 48.6875 37.203125 44.609375 42.84375 
Q 40.53125 48.484375 33.40625 48.484375 
Q 26.265625 48.484375 22.1875 42.84375 
Q 18.109375 37.203125 18.109375 27.296875 
Q 18.109375 17.390625 22.1875 11.75 
Q 26.265625 6.109375 33.40625 6.109375 
Q 40.53125 6.109375 44.609375 11.75 
Q 48.6875 17.390625 48.6875 27.296875 
M 18.109375 46.390625 
Q 20.953125 51.265625 25.265625 53.625 
Q 29.59375 56 35.59375 56 
Q 45.5625 56 51.78125 48.09375 
Q 58.015625 40.1875 58.015625 27.296875 
Q 58.015625 14.40625 51.78125 6.484375 
Q 45.5625 -1.421875 35.59375 -1.421875 
Q 29.59375 -1.421875 25.265625 0.953125 
Q 20.953125 3.328125 18.109375 8.203125 
L 18.109375 0 
L 9.078125 0 
L 9.078125 75.984375 
L 18.109375 75.984375 
z
" id="DejaVuSans-62"/>
    </defs>
    <g transform="translate(74.3712 50.114612)scale(0.1666 -0.1666)">
     <use xlink:href="#DejaVuSans-62"/>
     <use x="63.476562" xlink:href="#DejaVuSans-62"/>
     <use x="126.953125" xlink:href="#DejaVuSans-6f"/>
     <use x="188.134766" xlink:href="#DejaVuSans-62"/>
    </g>
    <!-- Separable functions, 40-D -->
    <defs>
     <path d="M 53.515625 70.515625 
L 53.515625 60.890625 
Q 47.90625 63.578125 42.921875 64.890625 
Q 37.9375 66.21875 33.296875 66.21875 
Q 25.25 66.21875 20.875 63.09375 
Q 16.5 59.96875 16.5 54.203125 
Q 16.5 49.359375 19.40625 46.890625 
Q 22.3125 44.4375 30.421875 42.921875 
L 36.375 41.703125 
Q 47.40625 39.59375 52.65625 34.296875 
Q 57.90625 29 57.90625 20.125 
Q 57.90625 9.515625 50.796875 4.046875 
Q 43.703125 -1.421875 29.984375 -1.421875 
Q 24.8125 -1.421875 18.96875 -0.25 
Q 13.140625 0.921875 6.890625 3.21875 
L 6.890625 13.375 
Q 12.890625 10.015625 18.65625 8.296875 
Q 24.421875 6.59375 29.984375 6.59375 
Q 38.421875 6.59375 43.015625 9.90625 
Q 47.609375 13.234375 47.609375 19.390625 
Q 47.609375 24.75 44.3125 27.78125 
Q 41.015625 30.8125 33.5 32.328125 
L 27.484375 33.5 
Q 16.453125 35.6875 11.515625 40.375 
Q 6.59375 45.0625 6.59375 53.421875 
Q 6.59375 63.09375 13.40625 68.65625 
Q 20.21875 74.21875 32.171875 74.21875 
Q 37.3125 74.21875 42.625 73.28125 
Q 47.953125 72.359375 53.515625 70.515625 
" id="DejaVuSans-53"/>
     <path d="M 11.71875 12.40625 
L 22.015625 12.40625 
L 22.015625 4 
L 14.015625 -11.625 
L 7.71875 -11.625 
L 11.71875 4 
z
" id="DejaVuSans-2c"/>
     <path d="M 19.671875 64.796875 
L 19.671875 8.109375 
L 31.59375 8.109375 
Q 46.6875 8.109375 53.6875 14.9375 
Q 60.6875 21.78125 60.6875 36.53125 
Q 60.6875 51.171875 53.6875 57.984375 
Q 46.6875 64.796875 31.59375 64.796875 
z
M 9.8125 72.90625 
L 30.078125 72.90625 
Q 51.265625 72.90625 61.171875 64.09375 
Q 71.09375 55.28125 71.09375 36.53125 
Q 71.09375 17.671875 61.125 8.828125 
Q 51.171875 0 30.078125 0 
L 9.8125 0 
z
" id="DejaVuSans-44"/>
    </defs>
    <g transform="translate(74.3712 68.770168)scale(0.1666 -0.1666)">
     <use xlink:href="#DejaVuSans-53"/>
     <use x="63.476562" xlink:href="#DejaVuSans-65"/>
     <use x="125" xlink:href="#DejaVuSans-70"/>
     <use x="188.476562" xlink:href="#DejaVuSans-61"/>
     <use x="249.755859" xlink:href="#DejaVuSans-72"/>
     <use x="290.869141" xlink:href="#DejaVuSans-61"/>
     <use x="352.148438" xlink:href="#DejaVuSans-62"/>
     <use x="415.625" xlink:href="#DejaVuSans-6c"/>
     <use x="443.408203" xlink:href="#DejaVuSans-65"/>
     <use x="504.931641" xlink:href="#DejaVuSans-20"/>
     <use x="536.71875" xlink:href="#DejaVuSans-66"/>
     <use x="571.923828" xlink:href="#DejaVuSans-75"/>
     <use x="635.302734" xlink:href="#DejaVuSans-6e"/>
     <use x="698.681641" xlink:href="#DejaVuSans-63"/>
     <use x="753.662109" xlink:href="#DejaVuSans-74"/>
     <use x="792.871094" xlink:href="#DejaVuSans-69"/>
     <use x="820.654297" xlink:href="#DejaVuSans-6f"/>
     <use x="881.835938" xlink:href="#DejaVuSans-6e"/>
     <use x="945.214844" xlink:href="#DejaVuSans-73"/>
     <use x="997.314453" xlink:href="#DejaVuSans-2c"/>
     <use x="1029.101562" xlink:href="#DejaVuSans-20"/>
     <use x="1060.888672" xlink:href="#DejaVuSans-34"/>
     <use x="1124.511719" xlink:href="#DejaVuSans-30"/>
     <use x="1188.134766" xlink:href="#DejaVuSans-2d"/>
     <use x="1224.21875" xlink:href="#DejaVuSans-44"/>
    </g>
    <!-- 51 targets in 100..1e-08 -->
    <defs>
     <path d="M 10.796875 72.90625 
L 49.515625 72.90625 
L 49.515625 64.59375 
L 19.828125 64.59375 
L 19.828125 46.734375 
Q 21.96875 47.46875 24.109375 47.828125 
Q 26.265625 48.1875 28.421875 48.1875 
Q 40.625 48.1875 47.75 41.5 
Q 54.890625 34.8125 54.890625 23.390625 
Q 54.890625 11.625 47.5625 5.09375 
Q 40.234375 -1.421875 26.90625 -1.421875 
Q 22.3125 -1.421875 17.546875 -0.640625 
Q 12.796875 0.140625 7.71875 1.703125 
L 7.71875 11.625 
Q 12.109375 9.234375 16.796875 8.0625 
Q 21.484375 6.890625 26.703125 6.890625 
Q 35.15625 6.890625 40.078125 11.328125 
Q 45.015625 15.765625 45.015625 23.390625 
Q 45.015625 31 40.078125 35.4375 
Q 35.15625 39.890625 26.703125 39.890625 
Q 22.75 39.890625 18.8125 39.015625 
Q 14.890625 38.140625 10.796875 36.28125 
z
" id="DejaVuSans-35"/>
    </defs>
    <g transform="translate(74.3712 87.425723)scale(0.1666 -0.1666)">
     <use xlink:href="#DejaVuSans-35"/>
     <use x="63.623047" xlink:href="#DejaVuSans-31"/>
     <use x="127.246094" xlink:href="#DejaVuSans-20"/>
     <use x="159.033203" xlink:href="#DejaVuSans-74"/>
     <use x="198.242188" xlink:href="#DejaVuSans-61"/>
     <use x="259.521484" xlink:href="#DejaVuSans-72"/>
     <use x="300.619141" xlink:href="#DejaVuSans-67"/>
     <use x="364.095703" xlink:href="#DejaVuSans-65"/>
     <use x="425.619141" xlink:href="#DejaVuSans-74"/>
     <use x="464.828125" xlink:href="#DejaVuSans-73"/>
     <use x="516.927734" xlink:href="#DejaVuSans-20"/>
     <use x="548.714844" xlink:href="#DejaVuSans-69"/>
     <use x="576.498047" xlink:href="#DejaVuSans-6e"/>
     <use x="639.876953" xlink:href="#DejaVuSans-20"/>
     <use x="671.664062" xlink:href="#DejaVuSans-31"/>
     <use x="735.287109" xlink:href="#DejaVuSans-30"/>
     <use x="798.910156" xlink:href="#DejaVuSans-30"/>
     <use x="862.533203" xlink:href="#DejaVuSans-2e"/>
     <use x="894.320312" xlink:href="#DejaVuSans-2e"/>
     <use x="926.107422" xlink:href="#DejaVuSans-31"/>
     <use x="989.730469" xlink:href="#DejaVuSans-65"/>
     <use x="1051.253906" xlink:href="#DejaVuSans-2d"/>
     <use x="1087.337891" xlink:href="#DejaVuSans-30"/>
     <use x="1150.960938" xlink:href="#DejaVuSans-38"/>
    </g>
    <!-- 15 instances -->
    <g transform="translate(74.3712 106.081279)scale(0.1666 -0.1666)">
     <use xlink:href="#DejaVuSans-31"/>
     <use x="63.623047" xlink:href="#DejaVuSans-35"/>
     <use x="127.246094" xlink:href="#DejaVuSans-20"/>
     <use x="159.033203" xlink:href="#DejaVuSans-69"/>
     <use x="186.816406" xlink:href="#DejaVuSans-6e"/>
     <use x="250.195312" xlink:href="#DejaVuSans-73"/>
     <use x="302.294922" xlink:href="#DejaVuSans-74"/>
     <use x="341.503906" xlink:href="#DejaVuSans-61"/>
     <use x="402.783203" xlink:href="#DejaVuSans-6e"/>
     <use x="466.162109" xlink:href="#DejaVuSans-63"/>
     <use x="521.142578" xlink:href="#DejaVuSans-65"/>
     <use x="582.666016" xlink:href="#DejaVuSans-73"/>
    </g>
   </g>
   <g id="text_18">
    <!-- v2.0.1 -->
    <g style="fill:#808080;" transform="translate(233.67875 293.504568)scale(0.1 -0.1)">
     <use xlink:href="#DejaVuSans-76"/>
     <use x="59.179688" xlink:href="#DejaVuSans-32"/>
     <use x="122.802734" xlink:href="#DejaVuSans-2e"/>
     <use x="154.589844" xlink:href="#DejaVuSans-30"/>
     <use x="218.212891" xlink:href="#DejaVuSans-2e"/>
     <use x="250" xlink:href="#DejaVuSans-31"/>
    </g>
   </g>
  </g>
 </g>
 <defs>
  <clipPath id="p9662b0f29e">
   <rect height="266.112" width="357.12" x="70.8" y="32.133375"/>
  </clipPath>
 </defs>
</svg>
