<?xml version="1.0" encoding="utf-8" standalone="no"?>
<!DOCTYPE svg PUBLIC "-//W3C//DTD SVG 1.1//EN"
  "http://www.w3.org/Graphics/SVG/1.1/DTD/svg11.dtd">
<!-- Created with matplotlib (http://matplotlib.org/) -->
<svg height="353pt" version="1.1" viewBox="0 0 439 353" width="439pt" xmlns="http://www.w3.org/2000/svg" xmlns:xlink="http://www.w3.org/1999/xlink">
 <defs>
  <style type="text/css">
*{stroke-linecap:butt;stroke-linejoin:round;}
  </style>
 </defs>
 <g id="figure_1">
  <g id="patch_1">
   <path d="M 0 353.22225 
L 439.489219 353.22225 
L 439.489219 0 
L 0 0 
z
" style="fill:#ffffff;"/>
  </g>
  <g id="axes_1">
   <g id="patch_2">
    <path d="M 70.8 298.245375 
L 427.92 298.245375 
L 427.92 32.133375 
L 70.8 32.133375 
z
" style="fill:#ffffff;"/>
   </g>
   <g id="matplotlib.axis_1">
    <g id="xtick_1">
     <g id="line2d_1">
      <path clip-path="url(#pa764252482)" d="M 70.8 298.245375 
L 70.8 32.133375 
" style="fill:none;stroke:#b0b0b0;stroke-linecap:square;stroke-width:0.8;"/>
     </g>
     <g id="line2d_2">
      <defs>
       <path d="M 0 0 
L 0 3.5 
" id="m60db0fce3f" style="stroke:#000000;stroke-width:0.8;"/>
      </defs>
      <g>
       <use style="stroke:#000000;stroke-width:0.8;" x="70.8" xlink:href="#m60db0fce3f" y="298.245375"/>
      </g>
     </g>
     <g id="text_1">
      <!-- 0 -->
      <defs>
       <path d="M 31.78125 66.40625 
Q 24.171875 66.40625 20.328125 58.90625 
Q 16.5 51.421875 16.5 36.375 
Q 16.5 21.390625 20.328125 13.890625 
Q 24.171875 6.390625 31.78125 6.390625 
Q 39.453125 6.390625 43.28125 13.890625 
Q 47.125 21.390625 47.125 36.375 
Q 47.125 51.421875 43.28125 58.90625 
Q 39.453125 66.40625 31.78125 66.40625 
M 31.78125 74.21875 
Q 44.046875 74.21875 50.515625 64.515625 
Q 56.984375 54.828125 56.984375 36.375 
Q 56.984375 17.96875 50.515625 8.265625 
Q 44.046875 -1.421875 31.78125 -1.421875 
Q 19.53125 -1.421875 13.0625 8.265625 
Q 6.59375 17.96875 6.59375 36.375 
Q 6.59375 54.828125 13.0625 64.515625 
Q 19.53125 74.21875 31.78125 74.21875 
" id="DejaVuSans-30"/>
      </defs>
      <g transform="translate(64.4375 320.44225)scale(0.2 -0.2)">
       <use xlink:href="#DejaVuSans-30"/>
      </g>
     </g>
    </g>
    <g id="xtick_2">
     <g id="line2d_3">
      <path clip-path="url(#pa764252482)" d="M 153.085714 298.245375 
L 153.085714 32.133375 
" style="fill:none;stroke:#b0b0b0;stroke-linecap:square;stroke-width:0.8;"/>
     </g>
     <g id="line2d_4">
      <g>
       <use style="stroke:#000000;stroke-width:0.8;" x="153.085714" xlink:href="#m60db0fce3f" y="298.245375"/>
      </g>
     </g>
     <g id="text_2">
      <!-- 2 -->
      <defs>
       <path d="M 19.1875 8.296875 
L 53.609375 8.296875 
L 53.609375 0 
L 7.328125 0 
L 7.328125 8.296875 
Q 12.9375 14.109375 22.625 23.890625 
Q 32.328125 33.6875 34.8125 36.53125 
Q 39.546875 41.84375 41.421875 45.53125 
Q 43.3125 49.21875 43.3125 52.78125 
Q 43.3125 58.59375 39.234375 62.25 
Q 35.15625 65.921875 28.609375 65.921875 
Q 23.96875 65.921875 18.8125 64.3125 
Q 13.671875 62.703125 7.8125 59.421875 
L 7.8125 69.390625 
Q 13.765625 71.78125 18.9375 73 
Q 24.125 74.21875 28.421875 74.21875 
Q 39.75 74.21875 46.484375 68.546875 
Q 53.21875 62.890625 53.21875 53.421875 
Q 53.21875 48.921875 51.53125 44.890625 
Q 49.859375 40.875 45.40625 35.40625 
Q 44.1875 33.984375 37.640625 27.21875 
Q 31.109375 20.453125 19.1875 8.296875 
" id="DejaVuSans-32"/>
      </defs>
      <g transform="translate(146.723214 320.44225)scale(0.2 -0.2)">
       <use xlink:href="#DejaVuSans-32"/>
      </g>
     </g>
    </g>
    <g id="xtick_3">
     <g id="line2d_5">
      <path clip-path="url(#pa764252482)" d="M 235.371429 298.245375 
L 235.371429 32.133375 
" style="fill:none;stroke:#b0b0b0;stroke-linecap:square;stroke-width:0.8;"/>
     </g>
     <g id="line2d_6">
      <g>
       <use style="stroke:#000000;stroke-width:0.8;" x="235.371429" xlink:href="#m60db0fce3f" y="298.245375"/>
      </g>
     </g>
     <g id="text_3">
      <!-- 4 -->
      <defs>
       <path d="M 37.796875 64.3125 
L 12.890625 25.390625 
L 37.796875 25.390625 
z
M 35.203125 72.90625 
L 47.609375 72.90625 
L 47.609375 25.390625 
L 58.015625 25.390625 
L 58.015625 17.1875 
L 47.609375 17.1875 
L 47.609375 0 
L 37.796875 0 
L 37.796875 17.1875 
L 4.890625 17.1875 
L 4.890625 26.703125 
z
" id="DejaVuSans-34"/>
      </defs>
      <g transform="translate(229.008929 320.44225)scale(0.2 -0.2)">
       <use xlink:href="#DejaVuSans-34"/>
      </g>
     </g>
    </g>
    <g id="xtick_4">
     <g id="line2d_7">
      <path clip-path="url(#pa764252482)" d="M 317.657143 298.245375 
L 317.657143 32.133375 
" style="fill:none;stroke:#b0b0b0;stroke-linecap:square;stroke-width:0.8;"/>
     </g>
     <g id="line2d_8">
      <g>
       <use style="stroke:#000000;stroke-width:0.8;" x="317.657143" xlink:href="#m60db0fce3f" y="298.245375"/>
      </g>
     </g>
     <g id="text_4">
      <!-- 6 -->
      <defs>
       <path d="M 33.015625 40.375 
Q 26.375 40.375 22.484375 35.828125 
Q 18.609375 31.296875 18.609375 23.390625 
Q 18.609375 15.53125 22.484375 10.953125 
Q 26.375 6.390625 33.015625 6.390625 
Q 39.65625 6.390625 43.53125 10.953125 
Q 47.40625 15.53125 47.40625 23.390625 
Q 47.40625 31.296875 43.53125 35.828125 
Q 39.65625 40.375 33.015625 40.375 
M 52.59375 71.296875 
L 52.59375 62.3125 
Q 48.875 64.0625 45.09375 64.984375 
Q 41.3125 65.921875 37.59375 65.921875 
Q 27.828125 65.921875 22.671875 59.328125 
Q 17.53125 52.734375 16.796875 39.40625 
Q 19.671875 43.65625 24.015625 45.921875 
Q 28.375 48.1875 33.59375 48.1875 
Q 44.578125 48.1875 50.953125 41.515625 
Q 57.328125 34.859375 57.328125 23.390625 
Q 57.328125 12.15625 50.6875 5.359375 
Q 44.046875 -1.421875 33.015625 -1.421875 
Q 20.359375 -1.421875 13.671875 8.265625 
Q 6.984375 17.96875 6.984375 36.375 
Q 6.984375 53.65625 15.1875 63.9375 
Q 23.390625 74.21875 37.203125 74.21875 
Q 40.921875 74.21875 44.703125 73.484375 
Q 48.484375 72.75 52.59375 71.296875 
" id="DejaVuSans-36"/>
      </defs>
      <g transform="translate(311.294643 320.44225)scale(0.2 -0.2)">
       <use xlink:href="#DejaVuSans-36"/>
      </g>
     </g>
    </g>
    <g id="xtick_5">
     <g id="line2d_9">
      <path clip-path="url(#pa764252482)" d="M 399.942857 298.245375 
L 399.942857 32.133375 
" style="fill:none;stroke:#b0b0b0;stroke-linecap:square;stroke-width:0.8;"/>
     </g>
     <g id="line2d_10">
      <g>
       <use style="stroke:#000000;stroke-width:0.8;" x="399.942857" xlink:href="#m60db0fce3f" y="298.245375"/>
      </g>
     </g>
     <g id="text_5">
      <!-- 8 -->
      <defs>
       <path d="M 31.78125 34.625 
Q 24.75 34.625 20.71875 30.859375 
Q 16.703125 27.09375 16.703125 20.515625 
Q 16.703125 13.921875 20.71875 10.15625 
Q 24.75 6.390625 31.78125 6.390625 
Q 38.8125 6.390625 42.859375 10.171875 
Q 46.921875 13.96875 46.921875 20.515625 
Q 46.921875 27.09375 42.890625 30.859375 
Q 38.875 34.625 31.78125 34.625 
M 21.921875 38.8125 
Q 15.578125 40.375 12.03125 44.71875 
Q 8.5 49.078125 8.5 55.328125 
Q 8.5 64.0625 14.71875 69.140625 
Q 20.953125 74.21875 31.78125 74.21875 
Q 42.671875 74.21875 48.875 69.140625 
Q 55.078125 64.0625 55.078125 55.328125 
Q 55.078125 49.078125 51.53125 44.71875 
Q 48 40.375 41.703125 38.8125 
Q 48.828125 37.15625 52.796875 32.3125 
Q 56.78125 27.484375 56.78125 20.515625 
Q 56.78125 9.90625 50.3125 4.234375 
Q 43.84375 -1.421875 31.78125 -1.421875 
Q 19.734375 -1.421875 13.25 4.234375 
Q 6.78125 9.90625 6.78125 20.515625 
Q 6.78125 27.484375 10.78125 32.3125 
Q 14.796875 37.15625 21.921875 38.8125 
M 18.3125 54.390625 
Q 18.3125 48.734375 21.84375 45.5625 
Q 25.390625 42.390625 31.78125 42.390625 
Q 38.140625 42.390625 41.71875 45.5625 
Q 45.3125 48.734375 45.3125 54.390625 
Q 45.3125 60.0625 41.71875 63.234375 
Q 38.140625 66.40625 31.78125 66.40625 
Q 25.390625 66.40625 21.84375 63.234375 
Q 18.3125 60.0625 18.3125 54.390625 
" id="DejaVuSans-38"/>
      </defs>
      <g transform="translate(393.580357 320.44225)scale(0.2 -0.2)">
       <use xlink:href="#DejaVuSans-38"/>
      </g>
     </g>
    </g>
    <g id="xtick_6">
     <g id="line2d_11">
      <defs>
       <path d="M 0 0 
L 0 2 
" id="m35337fff5c" style="stroke:#000000;stroke-width:0.6;"/>
      </defs>
      <g>
       <use style="stroke:#000000;stroke-width:0.6;" x="83.185234" xlink:href="#m35337fff5c" y="298.245375"/>
      </g>
     </g>
    </g>
    <g id="xtick_7">
     <g id="line2d_12">
      <g>
       <use style="stroke:#000000;stroke-width:0.6;" x="95.570468" xlink:href="#m35337fff5c" y="298.245375"/>
      </g>
     </g>
    </g>
    <g id="xtick_8">
     <g id="line2d_13">
      <g>
       <use style="stroke:#000000;stroke-width:0.6;" x="102.815366" xlink:href="#m35337fff5c" y="298.245375"/>
      </g>
     </g>
    </g>
    <g id="xtick_9">
     <g id="line2d_14">
      <g>
       <use style="stroke:#000000;stroke-width:0.6;" x="107.955702" xlink:href="#m35337fff5c" y="298.245375"/>
      </g>
     </g>
    </g>
    <g id="xtick_10">
     <g id="line2d_15">
      <g>
       <use style="stroke:#000000;stroke-width:0.6;" x="165.470948" xlink:href="#m35337fff5c" y="298.245375"/>
      </g>
     </g>
    </g>
    <g id="xtick_11">
     <g id="line2d_16">
      <g>
       <use style="stroke:#000000;stroke-width:0.6;" x="177.856183" xlink:href="#m35337fff5c" y="298.245375"/>
      </g>
     </g>
    </g>
    <g id="xtick_12">
     <g id="line2d_17">
      <g>
       <use style="stroke:#000000;stroke-width:0.6;" x="185.10108" xlink:href="#m35337fff5c" y="298.245375"/>
      </g>
     </g>
    </g>
    <g id="xtick_13">
     <g id="line2d_18">
      <g>
       <use style="stroke:#000000;stroke-width:0.6;" x="190.241417" xlink:href="#m35337fff5c" y="298.245375"/>
      </g>
     </g>
    </g>
    <g id="xtick_14">
     <g id="line2d_19">
      <g>
       <use style="stroke:#000000;stroke-width:0.6;" x="247.756663" xlink:href="#m35337fff5c" y="298.245375"/>
      </g>
     </g>
    </g>
    <g id="xtick_15">
     <g id="line2d_20">
      <g>
       <use style="stroke:#000000;stroke-width:0.6;" x="260.141897" xlink:href="#m35337fff5c" y="298.245375"/>
      </g>
     </g>
    </g>
    <g id="xtick_16">
     <g id="line2d_21">
      <g>
       <use style="stroke:#000000;stroke-width:0.6;" x="267.386794" xlink:href="#m35337fff5c" y="298.245375"/>
      </g>
     </g>
    </g>
    <g id="xtick_17">
     <g id="line2d_22">
      <g>
       <use style="stroke:#000000;stroke-width:0.6;" x="272.527131" xlink:href="#m35337fff5c" y="298.245375"/>
      </g>
     </g>
    </g>
    <g id="xtick_18">
     <g id="line2d_23">
      <g>
       <use style="stroke:#000000;stroke-width:0.6;" x="330.042377" xlink:href="#m35337fff5c" y="298.245375"/>
      </g>
     </g>
    </g>
    <g id="xtick_19">
     <g id="line2d_24">
      <g>
       <use style="stroke:#000000;stroke-width:0.6;" x="342.427611" xlink:href="#m35337fff5c" y="298.245375"/>
      </g>
     </g>
    </g>
    <g id="xtick_20">
     <g id="line2d_25">
      <g>
       <use style="stroke:#000000;stroke-width:0.6;" x="349.672509" xlink:href="#m35337fff5c" y="298.245375"/>
      </g>
     </g>
    </g>
    <g id="xtick_21">
     <g id="line2d_26">
      <g>
       <use style="stroke:#000000;stroke-width:0.6;" x="354.812845" xlink:href="#m35337fff5c" y="298.245375"/>
      </g>
     </g>
    </g>
    <g id="xtick_22">
     <g id="line2d_27">
      <g>
       <use style="stroke:#000000;stroke-width:0.6;" x="412.328091" xlink:href="#m35337fff5c" y="298.245375"/>
      </g>
     </g>
    </g>
    <g id="xtick_23">
     <g id="line2d_28">
      <g>
       <use style="stroke:#000000;stroke-width:0.6;" x="424.713325" xlink:href="#m35337fff5c" y="298.245375"/>
      </g>
     </g>
    </g>
    <g id="text_6">
     <!-- log10 of (# f-evals / dimension) -->
     <defs>
      <path d="M 9.421875 75.984375 
L 18.40625 75.984375 
L 18.40625 0 
L 9.421875 0 
z
" id="DejaVuSans-6c"/>
      <path d="M 30.609375 48.390625 
Q 23.390625 48.390625 19.1875 42.75 
Q 14.984375 37.109375 14.984375 27.296875 
Q 14.984375 17.484375 19.15625 11.84375 
Q 23.34375 6.203125 30.609375 6.203125 
Q 37.796875 6.203125 41.984375 11.859375 
Q 46.1875 17.53125 46.1875 27.296875 
Q 46.1875 37.015625 41.984375 42.703125 
Q 37.796875 48.390625 30.609375 48.390625 
M 30.609375 56 
Q 42.328125 56 49.015625 48.375 
Q 55.71875 40.765625 55.71875 27.296875 
Q 55.71875 13.875 49.015625 6.21875 
Q 42.328125 -1.421875 30.609375 -1.421875 
Q 18.84375 -1.421875 12.171875 6.21875 
Q 5.515625 13.875 5.515625 27.296875 
Q 5.515625 40.765625 12.171875 48.375 
Q 18.84375 56 30.609375 56 
" id="DejaVuSans-6f"/>
      <path d="M 45.40625 27.984375 
Q 45.40625 37.75 41.375 43.109375 
Q 37.359375 48.484375 30.078125 48.484375 
Q 22.859375 48.484375 18.828125 43.109375 
Q 14.796875 37.75 14.796875 27.984375 
Q 14.796875 18.265625 18.828125 12.890625 
Q 22.859375 7.515625 30.078125 7.515625 
Q 37.359375 7.515625 41.375 12.890625 
Q 45.40625 18.265625 45.40625 27.984375 
M 54.390625 6.78125 
Q 54.390625 -7.171875 48.1875 -13.984375 
Q 42 -20.796875 29.203125 -20.796875 
Q 24.46875 -20.796875 20.265625 -20.09375 
Q 16.0625 -19.390625 12.109375 -17.921875 
L 12.109375 -9.1875 
Q 16.0625 -11.328125 19.921875 -12.34375 
Q 23.78125 -13.375 27.78125 -13.375 
Q 36.625 -13.375 41.015625 -8.765625 
Q 45.40625 -4.15625 45.40625 5.171875 
L 45.40625 9.625 
Q 42.625 4.78125 38.28125 2.390625 
Q 33.9375 0 27.875 0 
Q 17.828125 0 11.671875 7.65625 
Q 5.515625 15.328125 5.515625 27.984375 
Q 5.515625 40.671875 11.671875 48.328125 
Q 17.828125 56 27.875 56 
Q 33.9375 56 38.28125 53.609375 
Q 42.625 51.21875 45.40625 46.390625 
L 45.40625 54.6875 
L 54.390625 54.6875 
z
" id="DejaVuSans-67"/>
      <path d="M 12.40625 8.296875 
L 28.515625 8.296875 
L 28.515625 63.921875 
L 10.984375 60.40625 
L 10.984375 69.390625 
L 28.421875 72.90625 
L 38.28125 72.90625 
L 38.28125 8.296875 
L 54.390625 8.296875 
L 54.390625 0 
L 12.40625 0 
z
" id="DejaVuSans-31"/>
      <path id="DejaVuSans-20"/>
      <path d="M 37.109375 75.984375 
L 37.109375 68.5 
L 28.515625 68.5 
Q 23.6875 68.5 21.796875 66.546875 
Q 19.921875 64.59375 19.921875 59.515625 
L 19.921875 54.6875 
L 34.71875 54.6875 
L 34.71875 47.703125 
L 19.921875 47.703125 
L 19.921875 0 
L 10.890625 0 
L 10.890625 47.703125 
L 2.296875 47.703125 
L 2.296875 54.6875 
L 10.890625 54.6875 
L 10.890625 58.5 
Q 10.890625 67.625 15.140625 71.796875 
Q 19.390625 75.984375 28.609375 75.984375 
z
" id="DejaVuSans-66"/>
      <path d="M 31 75.875 
Q 24.46875 64.65625 21.28125 53.65625 
Q 18.109375 42.671875 18.109375 31.390625 
Q 18.109375 20.125 21.3125 9.0625 
Q 24.515625 -2 31 -13.1875 
L 23.1875 -13.1875 
Q 15.875 -1.703125 12.234375 9.375 
Q 8.59375 20.453125 8.59375 31.390625 
Q 8.59375 42.28125 12.203125 53.3125 
Q 15.828125 64.359375 23.1875 75.875 
z
" id="DejaVuSans-28"/>
      <path d="M 51.125 44 
L 36.921875 44 
L 32.8125 27.6875 
L 47.125 27.6875 
z
M 43.796875 71.78125 
L 38.71875 51.515625 
L 52.984375 51.515625 
L 58.109375 71.78125 
L 65.921875 71.78125 
L 60.890625 51.515625 
L 76.125 51.515625 
L 76.125 44 
L 58.984375 44 
L 54.984375 27.6875 
L 70.515625 27.6875 
L 70.515625 20.21875 
L 53.078125 20.21875 
L 48 0 
L 40.1875 0 
L 45.21875 20.21875 
L 30.90625 20.21875 
L 25.875 0 
L 18.015625 0 
L 23.09375 20.21875 
L 7.71875 20.21875 
L 7.71875 27.6875 
L 24.90625 27.6875 
L 29 44 
L 13.28125 44 
L 13.28125 51.515625 
L 30.90625 51.515625 
L 35.890625 71.78125 
z
" id="DejaVuSans-23"/>
      <path d="M 4.890625 31.390625 
L 31.203125 31.390625 
L 31.203125 23.390625 
L 4.890625 23.390625 
z
" id="DejaVuSans-2d"/>
      <path d="M 56.203125 29.59375 
L 56.203125 25.203125 
L 14.890625 25.203125 
Q 15.484375 15.921875 20.484375 11.0625 
Q 25.484375 6.203125 34.421875 6.203125 
Q 39.59375 6.203125 44.453125 7.46875 
Q 49.3125 8.734375 54.109375 11.28125 
L 54.109375 2.78125 
Q 49.265625 0.734375 44.1875 -0.34375 
Q 39.109375 -1.421875 33.890625 -1.421875 
Q 20.796875 -1.421875 13.15625 6.1875 
Q 5.515625 13.8125 5.515625 26.8125 
Q 5.515625 40.234375 12.765625 48.109375 
Q 20.015625 56 32.328125 56 
Q 43.359375 56 49.78125 48.890625 
Q 56.203125 41.796875 56.203125 29.59375 
M 47.21875 32.234375 
Q 47.125 39.59375 43.09375 43.984375 
Q 39.0625 48.390625 32.421875 48.390625 
Q 24.90625 48.390625 20.390625 44.140625 
Q 15.875 39.890625 15.1875 32.171875 
z
" id="DejaVuSans-65"/>
      <path d="M 2.984375 54.6875 
L 12.5 54.6875 
L 29.59375 8.796875 
L 46.6875 54.6875 
L 56.203125 54.6875 
L 35.6875 0 
L 23.484375 0 
z
" id="DejaVuSans-76"/>
      <path d="M 34.28125 27.484375 
Q 23.390625 27.484375 19.1875 25 
Q 14.984375 22.515625 14.984375 16.5 
Q 14.984375 11.71875 18.140625 8.90625 
Q 21.296875 6.109375 26.703125 6.109375 
Q 34.1875 6.109375 38.703125 11.40625 
Q 43.21875 16.703125 43.21875 25.484375 
L 43.21875 27.484375 
z
M 52.203125 31.203125 
L 52.203125 0 
L 43.21875 0 
L 43.21875 8.296875 
Q 40.140625 3.328125 35.546875 0.953125 
Q 30.953125 -1.421875 24.3125 -1.421875 
Q 15.921875 -1.421875 10.953125 3.296875 
Q 6 8.015625 6 15.921875 
Q 6 25.140625 12.171875 29.828125 
Q 18.359375 34.515625 30.609375 34.515625 
L 43.21875 34.515625 
L 43.21875 35.40625 
Q 43.21875 41.609375 39.140625 45 
Q 35.0625 48.390625 27.6875 48.390625 
Q 23 48.390625 18.546875 47.265625 
Q 14.109375 46.140625 10.015625 43.890625 
L 10.015625 52.203125 
Q 14.9375 54.109375 19.578125 55.046875 
Q 24.21875 56 28.609375 56 
Q 40.484375 56 46.34375 49.84375 
Q 52.203125 43.703125 52.203125 31.203125 
" id="DejaVuSans-61"/>
      <path d="M 44.28125 53.078125 
L 44.28125 44.578125 
Q 40.484375 46.53125 36.375 47.5 
Q 32.28125 48.484375 27.875 48.484375 
Q 21.1875 48.484375 17.84375 46.4375 
Q 14.5 44.390625 14.5 40.28125 
Q 14.5 37.15625 16.890625 35.375 
Q 19.28125 33.59375 26.515625 31.984375 
L 29.59375 31.296875 
Q 39.15625 29.25 43.1875 25.515625 
Q 47.21875 21.78125 47.21875 15.09375 
Q 47.21875 7.46875 41.1875 3.015625 
Q 35.15625 -1.421875 24.609375 -1.421875 
Q 20.21875 -1.421875 15.453125 -0.5625 
Q 10.6875 0.296875 5.421875 2 
L 5.421875 11.28125 
Q 10.40625 8.6875 15.234375 7.390625 
Q 20.0625 6.109375 24.8125 6.109375 
Q 31.15625 6.109375 34.5625 8.28125 
Q 37.984375 10.453125 37.984375 14.40625 
Q 37.984375 18.0625 35.515625 20.015625 
Q 33.0625 21.96875 24.703125 23.78125 
L 21.578125 24.515625 
Q 13.234375 26.265625 9.515625 29.90625 
Q 5.8125 33.546875 5.8125 39.890625 
Q 5.8125 47.609375 11.28125 51.796875 
Q 16.75 56 26.8125 56 
Q 31.78125 56 36.171875 55.265625 
Q 40.578125 54.546875 44.28125 53.078125 
" id="DejaVuSans-73"/>
      <path d="M 25.390625 72.90625 
L 33.6875 72.90625 
L 8.296875 -9.28125 
L 0 -9.28125 
z
" id="DejaVuSans-2f"/>
      <path d="M 45.40625 46.390625 
L 45.40625 75.984375 
L 54.390625 75.984375 
L 54.390625 0 
L 45.40625 0 
L 45.40625 8.203125 
Q 42.578125 3.328125 38.25 0.953125 
Q 33.9375 -1.421875 27.875 -1.421875 
Q 17.96875 -1.421875 11.734375 6.484375 
Q 5.515625 14.40625 5.515625 27.296875 
Q 5.515625 40.1875 11.734375 48.09375 
Q 17.96875 56 27.875 56 
Q 33.9375 56 38.25 53.625 
Q 42.578125 51.265625 45.40625 46.390625 
M 14.796875 27.296875 
Q 14.796875 17.390625 18.875 11.75 
Q 22.953125 6.109375 30.078125 6.109375 
Q 37.203125 6.109375 41.296875 11.75 
Q 45.40625 17.390625 45.40625 27.296875 
Q 45.40625 37.203125 41.296875 42.84375 
Q 37.203125 48.484375 30.078125 48.484375 
Q 22.953125 48.484375 18.875 42.84375 
Q 14.796875 37.203125 14.796875 27.296875 
" id="DejaVuSans-64"/>
      <path d="M 9.421875 54.6875 
L 18.40625 54.6875 
L 18.40625 0 
L 9.421875 0 
z
M 9.421875 75.984375 
L 18.40625 75.984375 
L 18.40625 64.59375 
L 9.421875 64.59375 
z
" id="DejaVuSans-69"/>
      <path d="M 52 44.1875 
Q 55.375 50.25 60.0625 53.125 
Q 64.75 56 71.09375 56 
Q 79.640625 56 84.28125 50.015625 
Q 88.921875 44.046875 88.921875 33.015625 
L 88.921875 0 
L 79.890625 0 
L 79.890625 32.71875 
Q 79.890625 40.578125 77.09375 44.375 
Q 74.3125 48.1875 68.609375 48.1875 
Q 61.625 48.1875 57.5625 43.546875 
Q 53.515625 38.921875 53.515625 30.90625 
L 53.515625 0 
L 44.484375 0 
L 44.484375 32.71875 
Q 44.484375 40.625 41.703125 44.40625 
Q 38.921875 48.1875 33.109375 48.1875 
Q 26.21875 48.1875 22.15625 43.53125 
Q 18.109375 38.875 18.109375 30.90625 
L 18.109375 0 
L 9.078125 0 
L 9.078125 54.6875 
L 18.109375 54.6875 
L 18.109375 46.1875 
Q 21.1875 51.21875 25.484375 53.609375 
Q 29.78125 56 35.6875 56 
Q 41.65625 56 45.828125 52.96875 
Q 50 49.953125 52 44.1875 
" id="DejaVuSans-6d"/>
      <path d="M 54.890625 33.015625 
L 54.890625 0 
L 45.90625 0 
L 45.90625 32.71875 
Q 45.90625 40.484375 42.875 44.328125 
Q 39.84375 48.1875 33.796875 48.1875 
Q 26.515625 48.1875 22.3125 43.546875 
Q 18.109375 38.921875 18.109375 30.90625 
L 18.109375 0 
L 9.078125 0 
L 9.078125 54.6875 
L 18.109375 54.6875 
L 18.109375 46.1875 
Q 21.34375 51.125 25.703125 53.5625 
Q 30.078125 56 35.796875 56 
Q 45.21875 56 50.046875 50.171875 
Q 54.890625 44.34375 54.890625 33.015625 
" id="DejaVuSans-6e"/>
      <path d="M 8.015625 75.875 
L 15.828125 75.875 
Q 23.140625 64.359375 26.78125 53.3125 
Q 30.421875 42.28125 30.421875 31.390625 
Q 30.421875 20.453125 26.78125 9.375 
Q 23.140625 -1.703125 15.828125 -13.1875 
L 8.015625 -13.1875 
Q 14.5 -2 17.703125 9.0625 
Q 20.90625 20.125 20.90625 31.390625 
Q 20.90625 42.671875 17.703125 53.65625 
Q 14.5 64.65625 8.015625 75.875 
" id="DejaVuSans-29"/>
     </defs>
     <g transform="translate(107.015156 342.278812)scale(0.18 -0.18)">
      <use xlink:href="#DejaVuSans-6c"/>
      <use x="27.783203" xlink:href="#DejaVuSans-6f"/>
      <use x="88.964844" xlink:href="#DejaVuSans-67"/>
      <use x="152.441406" xlink:href="#DejaVuSans-31"/>
      <use x="216.064453" xlink:href="#DejaVuSans-30"/>
      <use x="279.6875" xlink:href="#DejaVuSans-20"/>
      <use x="311.474609" xlink:href="#DejaVuSans-6f"/>
      <use x="372.65625" xlink:href="#DejaVuSans-66"/>
      <use x="407.861328" xlink:href="#DejaVuSans-20"/>
      <use x="439.648438" xlink:href="#DejaVuSans-28"/>
      <use x="478.662109" xlink:href="#DejaVuSans-23"/>
      <use x="562.451172" xlink:href="#DejaVuSans-20"/>
      <use x="594.238281" xlink:href="#DejaVuSans-66"/>
      <use x="629.365234" xlink:href="#DejaVuSans-2d"/>
      <use x="665.449219" xlink:href="#DejaVuSans-65"/>
      <use x="726.972656" xlink:href="#DejaVuSans-76"/>
      <use x="786.152344" xlink:href="#DejaVuSans-61"/>
      <use x="847.431641" xlink:href="#DejaVuSans-6c"/>
      <use x="875.214844" xlink:href="#DejaVuSans-73"/>
      <use x="927.314453" xlink:href="#DejaVuSans-20"/>
      <use x="959.101562" xlink:href="#DejaVuSans-2f"/>
      <use x="992.792969" xlink:href="#DejaVuSans-20"/>
      <use x="1024.580078" xlink:href="#DejaVuSans-64"/>
      <use x="1088.056641" xlink:href="#DejaVuSans-69"/>
      <use x="1115.839844" xlink:href="#DejaVuSans-6d"/>
      <use x="1213.251953" xlink:href="#DejaVuSans-65"/>
      <use x="1274.775391" xlink:href="#DejaVuSans-6e"/>
      <use x="1338.154297" xlink:href="#DejaVuSans-73"/>
      <use x="1390.253906" xlink:href="#DejaVuSans-69"/>
      <use x="1418.037109" xlink:href="#DejaVuSans-6f"/>
      <use x="1479.21875" xlink:href="#DejaVuSans-6e"/>
      <use x="1542.597656" xlink:href="#DejaVuSans-29"/>
     </g>
    </g>
   </g>
   <g id="matplotlib.axis_2">
    <g id="ytick_1">
     <g id="line2d_29">
      <path clip-path="url(#pa764252482)" d="M 70.8 298.245375 
L 427.92 298.245375 
" style="fill:none;stroke:#b0b0b0;stroke-linecap:square;stroke-width:0.8;"/>
     </g>
     <g id="line2d_30">
      <defs>
       <path d="M 0 0 
L -3.5 0 
" id="m305285c890" style="stroke:#000000;stroke-width:0.8;"/>
      </defs>
      <g>
       <use style="stroke:#000000;stroke-width:0.8;" x="70.8" xlink:href="#m305285c890" y="298.245375"/>
      </g>
     </g>
     <g id="text_7">
      <!-- 0.0 -->
      <defs>
       <path d="M 10.6875 12.40625 
L 21 12.40625 
L 21 0 
L 10.6875 0 
z
" id="DejaVuSans-2e"/>
      </defs>
      <g transform="translate(31.99375 305.843812)scale(0.2 -0.2)">
       <use xlink:href="#DejaVuSans-30"/>
       <use x="63.623047" xlink:href="#DejaVuSans-2e"/>
       <use x="95.410156" xlink:href="#DejaVuSans-30"/>
      </g>
     </g>
    </g>
    <g id="ytick_2">
     <g id="line2d_31">
      <path clip-path="url(#pa764252482)" d="M 70.8 245.549929 
L 427.92 245.549929 
" style="fill:none;stroke:#b0b0b0;stroke-linecap:square;stroke-width:0.8;"/>
     </g>
     <g id="line2d_32">
      <g>
       <use style="stroke:#000000;stroke-width:0.8;" x="70.8" xlink:href="#m305285c890" y="245.549929"/>
      </g>
     </g>
     <g id="text_8">
      <!-- 0.2 -->
      <g transform="translate(31.99375 253.148367)scale(0.2 -0.2)">
       <use xlink:href="#DejaVuSans-30"/>
       <use x="63.623047" xlink:href="#DejaVuSans-2e"/>
       <use x="95.410156" xlink:href="#DejaVuSans-32"/>
      </g>
     </g>
    </g>
    <g id="ytick_3">
     <g id="line2d_33">
      <path clip-path="url(#pa764252482)" d="M 70.8 192.854484 
L 427.92 192.854484 
" style="fill:none;stroke:#b0b0b0;stroke-linecap:square;stroke-width:0.8;"/>
     </g>
     <g id="line2d_34">
      <g>
       <use style="stroke:#000000;stroke-width:0.8;" x="70.8" xlink:href="#m305285c890" y="192.854484"/>
      </g>
     </g>
     <g id="text_9">
      <!-- 0.4 -->
      <g transform="translate(31.99375 200.452921)scale(0.2 -0.2)">
       <use xlink:href="#DejaVuSans-30"/>
       <use x="63.623047" xlink:href="#DejaVuSans-2e"/>
       <use x="95.410156" xlink:href="#DejaVuSans-34"/>
      </g>
     </g>
    </g>
    <g id="ytick_4">
     <g id="line2d_35">
      <path clip-path="url(#pa764252482)" d="M 70.8 140.159038 
L 427.92 140.159038 
" style="fill:none;stroke:#b0b0b0;stroke-linecap:square;stroke-width:0.8;"/>
     </g>
     <g id="line2d_36">
      <g>
       <use style="stroke:#000000;stroke-width:0.8;" x="70.8" xlink:href="#m305285c890" y="140.159038"/>
      </g>
     </g>
     <g id="text_10">
      <!-- 0.6 -->
      <g transform="translate(31.99375 147.757476)scale(0.2 -0.2)">
       <use xlink:href="#DejaVuSans-30"/>
       <use x="63.623047" xlink:href="#DejaVuSans-2e"/>
       <use x="95.410156" xlink:href="#DejaVuSans-36"/>
      </g>
     </g>
    </g>
    <g id="ytick_5">
     <g id="line2d_37">
      <path clip-path="url(#pa764252482)" d="M 70.8 87.463593 
L 427.92 87.463593 
" style="fill:none;stroke:#b0b0b0;stroke-linecap:square;stroke-width:0.8;"/>
     </g>
     <g id="line2d_38">
      <g>
       <use style="stroke:#000000;stroke-width:0.8;" x="70.8" xlink:href="#m305285c890" y="87.463593"/>
      </g>
     </g>
     <g id="text_11">
      <!-- 0.8 -->
      <g transform="translate(31.99375 95.06203)scale(0.2 -0.2)">
       <use xlink:href="#DejaVuSans-30"/>
       <use x="63.623047" xlink:href="#DejaVuSans-2e"/>
       <use x="95.410156" xlink:href="#DejaVuSans-38"/>
      </g>
     </g>
    </g>
    <g id="ytick_6">
     <g id="line2d_39">
      <path clip-path="url(#pa764252482)" d="M 70.8 34.768147 
L 427.92 34.768147 
" style="fill:none;stroke:#b0b0b0;stroke-linecap:square;stroke-width:0.8;"/>
     </g>
     <g id="line2d_40">
      <g>
       <use style="stroke:#000000;stroke-width:0.8;" x="70.8" xlink:href="#m305285c890" y="34.768147"/>
      </g>
     </g>
     <g id="text_12">
      <!-- 1.0 -->
      <g transform="translate(31.99375 42.366585)scale(0.2 -0.2)">
       <use xlink:href="#DejaVuSans-31"/>
       <use x="63.623047" xlink:href="#DejaVuSans-2e"/>
       <use x="95.410156" xlink:href="#DejaVuSans-30"/>
      </g>
     </g>
    </g>
    <g id="text_13">
     <!-- Proportion of function+target pairs -->
     <defs>
      <path d="M 19.671875 64.796875 
L 19.671875 37.40625 
L 32.078125 37.40625 
Q 38.96875 37.40625 42.71875 40.96875 
Q 46.484375 44.53125 46.484375 51.125 
Q 46.484375 57.671875 42.71875 61.234375 
Q 38.96875 64.796875 32.078125 64.796875 
z
M 9.8125 72.90625 
L 32.078125 72.90625 
Q 44.34375 72.90625 50.609375 67.359375 
Q 56.890625 61.8125 56.890625 51.125 
Q 56.890625 40.328125 50.609375 34.8125 
Q 44.34375 29.296875 32.078125 29.296875 
L 19.671875 29.296875 
L 19.671875 0 
L 9.8125 0 
z
" id="DejaVuSans-50"/>
      <path d="M 41.109375 46.296875 
Q 39.59375 47.171875 37.8125 47.578125 
Q 36.03125 48 33.890625 48 
Q 26.265625 48 22.1875 43.046875 
Q 18.109375 38.09375 18.109375 28.8125 
L 18.109375 0 
L 9.078125 0 
L 9.078125 54.6875 
L 18.109375 54.6875 
L 18.109375 46.1875 
Q 20.953125 51.171875 25.484375 53.578125 
Q 30.03125 56 36.53125 56 
Q 37.453125 56 38.578125 55.875 
Q 39.703125 55.765625 41.0625 55.515625 
z
" id="DejaVuSans-72"/>
      <path d="M 18.109375 8.203125 
L 18.109375 -20.796875 
L 9.078125 -20.796875 
L 9.078125 54.6875 
L 18.109375 54.6875 
L 18.109375 46.390625 
Q 20.953125 51.265625 25.265625 53.625 
Q 29.59375 56 35.59375 56 
Q 45.5625 56 51.78125 48.09375 
Q 58.015625 40.1875 58.015625 27.296875 
Q 58.015625 14.40625 51.78125 6.484375 
Q 45.5625 -1.421875 35.59375 -1.421875 
Q 29.59375 -1.421875 25.265625 0.953125 
Q 20.953125 3.328125 18.109375 8.203125 
M 48.6875 27.296875 
Q 48.6875 37.203125 44.609375 42.84375 
Q 40.53125 48.484375 33.40625 48.484375 
Q 26.265625 48.484375 22.1875 42.84375 
Q 18.109375 37.203125 18.109375 27.296875 
Q 18.109375 17.390625 22.1875 11.75 
Q 26.265625 6.109375 33.40625 6.109375 
Q 40.53125 6.109375 44.609375 11.75 
Q 48.6875 17.390625 48.6875 27.296875 
" id="DejaVuSans-70"/>
      <path d="M 18.3125 70.21875 
L 18.3125 54.6875 
L 36.8125 54.6875 
L 36.8125 47.703125 
L 18.3125 47.703125 
L 18.3125 18.015625 
Q 18.3125 11.328125 20.140625 9.421875 
Q 21.96875 7.515625 27.59375 7.515625 
L 36.8125 7.515625 
L 36.8125 0 
L 27.59375 0 
Q 17.1875 0 13.234375 3.875 
Q 9.28125 7.765625 9.28125 18.015625 
L 9.28125 47.703125 
L 2.6875 47.703125 
L 2.6875 54.6875 
L 9.28125 54.6875 
L 9.28125 70.21875 
z
" id="DejaVuSans-74"/>
      <path d="M 8.5 21.578125 
L 8.5 54.6875 
L 17.484375 54.6875 
L 17.484375 21.921875 
Q 17.484375 14.15625 20.5 10.265625 
Q 23.53125 6.390625 29.59375 6.390625 
Q 36.859375 6.390625 41.078125 11.03125 
Q 45.3125 15.671875 45.3125 23.6875 
L 45.3125 54.6875 
L 54.296875 54.6875 
L 54.296875 0 
L 45.3125 0 
L 45.3125 8.40625 
Q 42.046875 3.421875 37.71875 1 
Q 33.40625 -1.421875 27.6875 -1.421875 
Q 18.265625 -1.421875 13.375 4.4375 
Q 8.5 10.296875 8.5 21.578125 
M 31.109375 56 
z
" id="DejaVuSans-75"/>
      <path d="M 48.78125 52.59375 
L 48.78125 44.1875 
Q 44.96875 46.296875 41.140625 47.34375 
Q 37.3125 48.390625 33.40625 48.390625 
Q 24.65625 48.390625 19.8125 42.84375 
Q 14.984375 37.3125 14.984375 27.296875 
Q 14.984375 17.28125 19.8125 11.734375 
Q 24.65625 6.203125 33.40625 6.203125 
Q 37.3125 6.203125 41.140625 7.25 
Q 44.96875 8.296875 48.78125 10.40625 
L 48.78125 2.09375 
Q 45.015625 0.34375 40.984375 -0.53125 
Q 36.96875 -1.421875 32.421875 -1.421875 
Q 20.0625 -1.421875 12.78125 6.34375 
Q 5.515625 14.109375 5.515625 27.296875 
Q 5.515625 40.671875 12.859375 48.328125 
Q 20.21875 56 33.015625 56 
Q 37.15625 56 41.109375 55.140625 
Q 45.0625 54.296875 48.78125 52.59375 
" id="DejaVuSans-63"/>
      <path d="M 46 62.703125 
L 46 35.5 
L 73.1875 35.5 
L 73.1875 27.203125 
L 46 27.203125 
L 46 0 
L 37.796875 0 
L 37.796875 27.203125 
L 10.59375 27.203125 
L 10.59375 35.5 
L 37.796875 35.5 
L 37.796875 62.703125 
z
" id="DejaVuSans-2b"/>
     </defs>
     <g transform="translate(24.250312 323.17875)rotate(-90)scale(0.18 -0.18)">
      <use xlink:href="#DejaVuSans-50"/>
      <use x="60.287109" xlink:href="#DejaVuSans-72"/>
      <use x="101.369141" xlink:href="#DejaVuSans-6f"/>
      <use x="162.550781" xlink:href="#DejaVuSans-70"/>
      <use x="226.027344" xlink:href="#DejaVuSans-6f"/>
      <use x="287.208984" xlink:href="#DejaVuSans-72"/>
      <use x="328.322266" xlink:href="#DejaVuSans-74"/>
      <use x="367.53125" xlink:href="#DejaVuSans-69"/>
      <use x="395.314453" xlink:href="#DejaVuSans-6f"/>
      <use x="456.496094" xlink:href="#DejaVuSans-6e"/>
      <use x="519.875" xlink:href="#DejaVuSans-20"/>
      <use x="551.662109" xlink:href="#DejaVuSans-6f"/>
      <use x="612.84375" xlink:href="#DejaVuSans-66"/>
      <use x="648.048828" xlink:href="#DejaVuSans-20"/>
      <use x="679.835938" xlink:href="#DejaVuSans-66"/>
      <use x="715.041016" xlink:href="#DejaVuSans-75"/>
      <use x="778.419922" xlink:href="#DejaVuSans-6e"/>
      <use x="841.798828" xlink:href="#DejaVuSans-63"/>
      <use x="896.779297" xlink:href="#DejaVuSans-74"/>
      <use x="935.988281" xlink:href="#DejaVuSans-69"/>
      <use x="963.771484" xlink:href="#DejaVuSans-6f"/>
      <use x="1024.953125" xlink:href="#DejaVuSans-6e"/>
      <use x="1088.332031" xlink:href="#DejaVuSans-2b"/>
      <use x="1172.121094" xlink:href="#DejaVuSans-74"/>
      <use x="1211.330078" xlink:href="#DejaVuSans-61"/>
      <use x="1272.609375" xlink:href="#DejaVuSans-72"/>
      <use x="1313.707031" xlink:href="#DejaVuSans-67"/>
      <use x="1377.183594" xlink:href="#DejaVuSans-65"/>
      <use x="1438.707031" xlink:href="#DejaVuSans-74"/>
      <use x="1477.916016" xlink:href="#DejaVuSans-20"/>
      <use x="1509.703125" xlink:href="#DejaVuSans-70"/>
      <use x="1573.179688" xlink:href="#DejaVuSans-61"/>
      <use x="1634.458984" xlink:href="#DejaVuSans-69"/>
      <use x="1662.242188" xlink:href="#DejaVuSans-72"/>
      <use x="1703.355469" xlink:href="#DejaVuSans-73"/>
     </g>
    </g>
   </g>
   <g id="line2d_41">
    <defs>
     <path d="M 0 1.5 
C 0.397805 1.5 0.77937 1.341951 1.06066 1.06066 
C 1.341951 0.77937 1.5 0.397805 1.5 0 
C 1.5 -0.397805 1.341951 -0.77937 1.06066 -1.06066 
C 0.77937 -1.341951 0.397805 -1.5 0 -1.5 
C -0.397805 -1.5 -0.77937 -1.341951 -1.06066 -1.06066 
C -1.341951 -0.77937 -1.5 -0.397805 -1.5 0 
C -1.5 0.397805 -1.341951 0.77937 -1.06066 1.06066 
C -0.77937 1.341951 -0.397805 1.5 0 1.5 
z
" id="m61ed2231e6" style="stroke:#00bfbf;"/>
    </defs>
    <g>
     <use style="fill:#00bfbf;stroke:#00bfbf;" x="237.316452" xlink:href="#m61ed2231e6" y="34.768147"/>
     <use style="fill:#00bfbf;stroke:#00bfbf;" x="237.316452" xlink:href="#m61ed2231e6" y="34.768147"/>
    </g>
   </g>
   <g id="line2d_42">
    <path d="M 58.414766 298.245375 
L 58.414766 295.145643 
L 153.085714 295.145643 
L 153.085714 294.112399 
L 160.330612 294.112399 
L 160.330612 291.529289 
L 172.715846 291.529289 
L 172.715846 288.946179 
L 179.960743 288.946179 
L 179.960743 288.429557 
L 181.843337 288.429557 
L 181.843337 286.879691 
L 191.324664 286.879691 
L 191.324664 286.363069 
L 196.725854 286.363069 
L 196.725854 284.813203 
L 197.486314 284.813203 
L 197.486314 284.296581 
L 200.240696 284.296581 
L 200.240696 283.263337 
L 203.709898 283.263337 
L 203.709898 278.097116 
L 206.613806 278.097116 
L 206.613806 275.514006 
L 207.055016 275.514006 
L 207.055016 273.96414 
L 207.906039 273.96414 
L 207.906039 270.864408 
L 210.239976 270.864408 
L 210.239976 270.347786 
L 210.60096 270.347786 
L 210.60096 269.831164 
L 210.954796 269.831164 
L 210.954796 269.314542 
L 211.301761 269.314542 
L 211.301761 267.248054 
L 211.642116 267.248054 
L 211.642116 265.698188 
L 212.62593 265.698188 
L 212.62593 264.148322 
L 212.942189 264.148322 
L 212.942189 260.531968 
L 213.252946 260.531968 
L 213.252946 257.948858 
L 213.858703 257.948858 
L 213.858703 255.88237 
L 214.444595 255.88237 
L 214.444595 253.29926 
L 215.288915 253.29926 
L 215.288915 252.266016 
L 215.561716 252.266016 
L 215.561716 251.749394 
L 215.830415 251.749394 
L 215.830415 251.232772 
L 217.116446 251.232772 
L 217.116446 250.199528 
L 218.082525 250.199528 
L 218.082525 249.682906 
L 218.774281 249.682906 
L 218.774281 248.649662 
L 218.99904 248.649662 
L 218.99904 248.13304 
L 219.44025 248.13304 
L 219.44025 245.033307 
L 219.656836 245.033307 
L 219.656836 244.516685 
L 219.870828 244.516685 
L 219.870828 242.450197 
L 220.082287 242.450197 
L 220.082287 239.867087 
L 220.291274 239.867087 
L 220.291274 236.767355 
L 220.702053 236.767355 
L 220.702053 236.250733 
L 220.903955 236.250733 
L 220.903955 234.700867 
L 221.103601 234.700867 
L 221.103601 230.051269 
L 221.30104 230.051269 
L 221.30104 226.434915 
L 221.496322 226.434915 
L 221.496322 222.301939 
L 221.689493 222.301939 
L 221.689493 216.102475 
L 221.880598 216.102475 
L 221.880598 209.386388 
L 222.06968 209.386388 
L 222.06968 200.603814 
L 222.256782 200.603814 
L 222.256782 198.020704 
L 222.441946 198.020704 
L 222.441946 194.920972 
L 222.62521 194.920972 
L 222.62521 191.304618 
L 222.806614 191.304618 
L 222.806614 187.688264 
L 222.986194 187.688264 
L 222.986194 183.038666 
L 223.163988 183.038666 
L 223.163988 177.355823 
L 223.34003 177.355823 
L 223.34003 162.890407 
L 223.514355 162.890407 
L 223.514355 162.373785 
L 223.686995 162.373785 
L 223.686995 158.240809 
L 223.857983 158.240809 
L 223.857983 157.724187 
L 224.02735 157.724187 
L 224.02735 155.657699 
L 224.361343 155.657699 
L 224.361343 150.491479 
L 224.850911 150.491479 
L 224.850911 148.424991 
L 225.011165 148.424991 
L 225.011165 147.391747 
L 225.169993 147.391747 
L 225.169993 145.841881 
L 225.943626 145.841881 
L 225.943626 144.808637 
L 226.094412 144.808637 
L 226.094412 142.225526 
L 226.243937 142.225526 
L 226.243937 141.192282 
L 226.392221 141.192282 
L 226.392221 138.09255 
L 226.685148 138.09255 
L 226.685148 137.059306 
L 226.82983 137.059306 
L 226.82983 134.992818 
L 226.973349 134.992818 
L 226.973349 134.476196 
L 227.115725 134.476196 
L 227.115725 133.442952 
L 227.256976 133.442952 
L 227.256976 129.826598 
L 227.397119 129.826598 
L 227.397119 129.309976 
L 227.67415 129.309976 
L 227.67415 128.793354 
L 227.811071 128.793354 
L 227.811071 126.726866 
L 227.94695 126.726866 
L 227.94695 124.660378 
L 228.081805 124.660378 
L 228.081805 123.627134 
L 228.215649 123.627134 
L 228.215649 117.42767 
L 228.348498 117.42767 
L 228.348498 115.361182 
L 228.480367 115.361182 
L 228.480367 106.578607 
L 228.611269 106.578607 
L 228.611269 105.545363 
L 228.74122 105.545363 
L 228.74122 102.445631 
L 228.870232 102.445631 
L 228.870232 95.729545 
L 228.998319 95.729545 
L 228.998319 84.880483 
L 229.125495 84.880483 
L 229.125495 81.264129 
L 229.251772 81.264129 
L 229.251772 76.614531 
L 229.377163 76.614531 
L 229.377163 75.581286 
L 229.50168 75.581286 
L 229.50168 72.481554 
L 229.625335 72.481554 
L 229.625335 70.931688 
L 229.748141 70.931688 
L 229.748141 67.831956 
L 229.870108 67.831956 
L 229.870108 60.082626 
L 229.991248 60.082626 
L 229.991248 55.94965 
L 230.111572 55.94965 
L 230.111572 50.78343 
L 230.231092 50.78343 
L 230.231092 48.20032 
L 231.934105 48.20032 
L 232.04207 46.133832 
L 232.149386 46.133832 
L 232.149386 45.100588 
L 232.467522 45.100588 
L 232.467522 43.550722 
L 235.460547 43.550722 
L 235.549222 37.867879 
L 235.812639 37.867879 
L 235.812639 37.351257 
L 236.072229 37.351257 
L 236.072229 36.318013 
L 236.49667 36.318013 
L 236.49667 35.801391 
L 237.316452 35.801391 
L 237.316452 34.768147 
L 358.8 34.768147 
L 358.8 34.768147 
" style="fill:none;stroke:#00bfbf;stroke-linecap:square;stroke-width:1.5;"/>
   </g>
   <g id="line2d_43">
    <defs>
     <path d="M -6 0 
L 6 0 
M 0 6 
L 0 -6 
" id="me6ebe34cc0" style="stroke:#00bfbf;stroke-width:1.5;"/>
    </defs>
    <g>
     <use style="fill:none;stroke:#00bfbf;stroke-width:1.5;" x="358.8" xlink:href="#me6ebe34cc0" y="34.768147"/>
    </g>
   </g>
   <g id="line2d_44"/>
   <g id="line2d_45">
    <defs>
     <path d="M 0 1.5 
C 0.397805 1.5 0.77937 1.341951 1.06066 1.06066 
C 1.341951 0.77937 1.5 0.397805 1.5 0 
C 1.5 -0.397805 1.341951 -0.77937 1.06066 -1.06066 
C 0.77937 -1.341951 0.397805 -1.5 0 -1.5 
C -0.397805 -1.5 -0.77937 -1.341951 -1.06066 -1.06066 
C -1.341951 -0.77937 -1.5 -0.397805 -1.5 0 
C -1.5 0.397805 -1.341951 0.77937 -1.06066 1.06066 
C -0.77937 1.341951 -0.397805 1.5 0 1.5 
z
" id="m02cf451a03" style="stroke:#008000;"/>
    </defs>
    <g>
     <use style="fill:#008000;stroke:#008000;" x="231.606241" xlink:href="#m02cf451a03" y="34.768147"/>
     <use style="fill:#008000;stroke:#008000;" x="231.606241" xlink:href="#m02cf451a03" y="34.768147"/>
    </g>
   </g>
   <g id="line2d_46">
    <path d="M 145.840817 298.245375 
L 145.840817 297.212131 
L 153.085714 297.212131 
L 153.085714 295.662265 
L 158.226051 295.662265 
L 158.226051 293.079155 
L 165.470948 293.079155 
L 165.470948 289.979423 
L 168.225331 289.979423 
L 168.225331 285.846447 
L 172.715846 285.846447 
L 172.715846 284.813203 
L 176.301453 284.813203 
L 176.301453 283.779959 
L 179.286395 283.779959 
L 179.286395 282.746715 
L 185.10108 282.746715 
L 185.10108 281.196849 
L 186.983674 281.196849 
L 186.983674 280.163604 
L 187.855462 280.163604 
L 187.855462 277.063872 
L 190.241417 277.063872 
L 190.241417 276.030628 
L 191.671629 276.030628 
L 191.671629 273.447518 
L 197.975882 273.447518 
L 197.975882 272.930896 
L 199.810118 272.930896 
L 199.810118 270.864408 
L 206.613806 270.864408 
L 206.613806 270.347786 
L 208.316819 270.347786 
L 208.316819 269.314542 
L 209.62164 269.314542 
L 209.62164 268.281298 
L 210.837628 268.281298 
L 210.837628 267.248054 
L 212.411938 267.248054 
L 212.411938 266.731432 
L 212.83739 266.731432 
L 212.83739 265.698188 
L 213.046376 265.698188 
L 213.046376 264.664944 
L 213.457155 264.664944 
L 213.457155 263.115078 
L 213.659057 263.115078 
L 213.659057 260.531968 
L 213.858703 260.531968 
L 213.858703 258.982102 
L 214.056143 258.982102 
L 214.056143 258.46548 
L 214.251425 258.46548 
L 214.251425 257.432236 
L 214.444595 257.432236 
L 214.444595 254.332504 
L 214.6357 254.332504 
L 214.6357 250.199528 
L 214.824782 250.199528 
L 214.824782 244.000063 
L 215.011885 244.000063 
L 215.011885 237.283977 
L 215.197048 237.283977 
L 215.197048 235.734111 
L 215.380313 235.734111 
L 215.380313 227.984781 
L 215.561716 227.984781 
L 215.561716 224.368427 
L 215.741297 224.368427 
L 215.741297 222.818561 
L 215.919091 222.818561 
L 215.919091 218.685585 
L 216.095133 218.685585 
L 216.095133 207.3199 
L 216.269457 207.3199 
L 216.269457 203.703546 
L 216.442097 203.703546 
L 216.442097 202.670302 
L 216.782453 202.670302 
L 216.782453 202.15368 
L 217.44431 202.15368 
L 217.44431 201.637058 
L 217.766267 201.637058 
L 217.766267 197.504082 
L 217.925096 197.504082 
L 217.925096 195.437594 
L 218.23858 195.437594 
L 218.23858 194.920972 
L 218.698728 194.920972 
L 218.698728 193.887728 
L 218.849515 193.887728 
L 218.849515 193.371106 
L 219.147324 193.371106 
L 219.147324 189.23813 
L 219.44025 189.23813 
L 219.44025 188.204886 
L 219.584932 188.204886 
L 219.584932 185.621776 
L 219.728452 185.621776 
L 219.728452 184.07191 
L 220.012079 184.07191 
L 220.012079 182.522044 
L 220.152221 182.522044 
L 220.152221 181.4888 
L 220.291274 181.4888 
L 220.291274 179.422312 
L 220.429252 179.422312 
L 220.429252 176.839201 
L 220.566173 176.839201 
L 220.566173 176.322579 
L 220.702053 176.322579 
L 220.702053 170.123115 
L 220.836907 170.123115 
L 220.836907 163.923651 
L 220.970752 163.923651 
L 220.970752 161.857163 
L 221.103601 161.857163 
L 221.103601 161.340541 
L 221.235469 161.340541 
L 221.235469 159.790675 
L 221.366372 159.790675 
L 221.366372 153.074589 
L 221.496322 153.074589 
L 221.496322 147.391747 
L 221.625334 147.391747 
L 221.625334 146.358503 
L 221.753422 146.358503 
L 221.753422 142.742148 
L 221.880598 142.742148 
L 221.880598 142.225526 
L 222.006875 142.225526 
L 222.006875 135.50944 
L 222.132265 135.50944 
L 222.132265 130.34322 
L 222.256782 130.34322 
L 222.256782 126.210244 
L 222.380438 126.210244 
L 222.380438 120.527402 
L 222.503243 120.527402 
L 222.503243 115.361182 
L 222.62521 115.361182 
L 222.62521 107.095229 
L 222.74635 107.095229 
L 222.74635 97.796033 
L 222.866675 97.796033 
L 222.866675 95.729545 
L 222.986194 95.729545 
L 222.986194 95.212923 
L 228.215649 95.212923 
L 228.304325 72.481554 
L 228.392563 72.481554 
L 228.480367 70.415066 
L 228.567742 70.415066 
L 228.654691 67.315334 
L 228.74122 67.315334 
L 228.74122 66.798712 
L 229.50168 66.798712 
L 229.584212 65.765468 
L 229.748141 65.765468 
L 229.748141 64.732224 
L 229.991248 64.732224 
L 230.071554 63.182358 
L 230.151501 63.182358 
L 230.231092 60.082626 
L 230.31033 60.082626 
L 230.31033 58.53276 
L 230.467759 58.53276 
L 230.467759 57.499516 
L 230.623814 57.499516 
L 230.701333 54.399784 
L 230.778517 54.399784 
L 230.855369 52.849918 
L 231.008089 52.849918 
L 231.083962 47.683698 
L 231.159515 47.683698 
L 231.234749 44.583966 
L 231.309668 44.583966 
L 231.384274 42.517478 
L 231.45857 42.517478 
L 231.532558 35.801391 
L 231.606241 35.801391 
L 231.606241 34.768147 
L 358.8 34.768147 
L 358.8 34.768147 
" style="fill:none;stroke:#008000;stroke-linecap:square;stroke-width:1.5;"/>
   </g>
   <g id="line2d_47">
    <defs>
     <path d="M -0 6 
L 6 -6 
L -6 -6 
z
" id="m6b5e09f576" style="stroke:#008000;stroke-linejoin:miter;stroke-width:1.5;"/>
    </defs>
    <g>
     <use style="fill:none;stroke:#008000;stroke-linejoin:miter;stroke-width:1.5;" x="358.8" xlink:href="#m6b5e09f576" y="34.768147"/>
    </g>
   </g>
   <g id="line2d_48"/>
   <g id="line2d_49">
    <defs>
     <path d="M 0 1.5 
C 0.397805 1.5 0.77937 1.341951 1.06066 1.06066 
C 1.341951 0.77937 1.5 0.397805 1.5 0 
C 1.5 -0.397805 1.341951 -0.77937 1.06066 -1.06066 
C 0.77937 -1.341951 0.397805 -1.5 0 -1.5 
C -0.397805 -1.5 -0.77937 -1.341951 -1.06066 -1.06066 
C -1.341951 -0.77937 -1.5 -0.397805 -1.5 0 
C -1.5 0.397805 -1.341951 0.77937 -1.06066 1.06066 
C -0.77937 1.341951 -0.397805 1.5 0 1.5 
z
" id="mcfab375a73" style="stroke:#0000ff;"/>
    </defs>
    <g>
     <use style="fill:#0000ff;stroke:#0000ff;" x="236.647033" xlink:href="#mcfab375a73" y="34.768147"/>
     <use style="fill:#0000ff;stroke:#0000ff;" x="236.647033" xlink:href="#mcfab375a73" y="34.768147"/>
    </g>
   </g>
   <g id="line2d_50">
    <path d="M 159.097839 298.245375 
L 159.097839 296.695509 
L 161.483794 296.695509 
L 161.483794 295.662265 
L 170.158903 295.662265 
L 170.158903 295.145643 
L 173.869028 295.145643 
L 173.869028 293.595777 
L 175.973589 293.595777 
L 175.973589 291.529289 
L 176.939668 291.529289 
L 176.939668 291.012667 
L 182.544138 291.012667 
L 182.544138 290.496045 
L 183.218486 290.496045 
L 183.218486 289.979423 
L 184.495323 289.979423 
L 184.495323 288.946179 
L 185.10108 288.946179 
L 185.10108 288.429557 
L 186.254262 288.429557 
L 186.254262 287.912935 
L 187.855462 287.912935 
L 187.855462 287.396313 
L 188.358823 287.396313 
L 188.358823 285.846447 
L 188.848391 285.846447 
L 188.848391 285.329825 
L 190.241417 285.329825 
L 190.241417 283.263337 
L 193.122975 283.263337 
L 193.122975 282.746715 
L 194.228571 282.746715 
L 194.228571 282.230093 
L 204.125455 282.230093 
L 204.125455 281.196849 
L 204.329664 281.196849 
L 204.329664 280.163604 
L 204.731212 280.163604 
L 204.731212 276.030628 
L 204.928651 276.030628 
L 204.928651 273.96414 
L 205.508209 273.96414 
L 205.508209 269.831164 
L 206.252821 269.831164 
L 206.252821 267.764676 
L 206.967641 267.764676 
L 206.967641 264.664944 
L 207.654961 264.664944 
L 207.654961 264.148322 
L 209.722023 264.148322 
L 209.722023 260.531968 
L 209.871548 260.531968 
L 209.871548 259.498724 
L 210.457441 259.498724 
L 210.457441 258.982102 
L 210.60096 258.982102 
L 210.60096 258.46548 
L 210.743337 258.46548 
L 210.743337 255.365748 
L 211.163782 255.365748 
L 211.163782 254.849126 
L 211.574562 254.849126 
L 211.574562 253.815882 
L 211.709416 253.815882 
L 211.709416 253.29926 
L 211.84326 253.29926 
L 211.84326 249.682906 
L 211.976109 249.682906 
L 211.976109 247.616418 
L 212.107978 247.616418 
L 212.107978 247.099796 
L 212.23888 247.099796 
L 212.23888 243.483441 
L 212.368831 243.483441 
L 212.368831 241.933575 
L 212.497843 241.933575 
L 212.497843 240.900331 
L 212.62593 240.900331 
L 212.62593 238.833843 
L 212.753106 238.833843 
L 212.753106 234.700867 
L 212.879383 234.700867 
L 212.879383 232.117757 
L 213.004774 232.117757 
L 213.004774 227.468159 
L 213.129291 227.468159 
L 213.129291 223.851805 
L 213.252946 223.851805 
L 213.252946 221.785317 
L 213.375752 221.785317 
L 213.375752 216.619097 
L 213.497719 216.619097 
L 213.497719 213.002743 
L 213.618859 213.002743 
L 213.618859 207.836522 
L 213.739183 207.836522 
L 213.739183 201.637058 
L 213.858703 201.637058 
L 213.858703 198.020704 
L 214.899859 198.020704 
L 214.899859 196.98746 
L 215.453095 196.98746 
L 215.453095 196.470838 
L 216.199931 196.470838 
L 216.199931 194.40435 
L 218.176321 194.40435 
L 218.269628 191.304618 
L 218.362449 191.304618 
L 218.362449 189.754752 
L 218.638055 189.754752 
L 218.728987 187.688264 
L 218.819459 187.688264 
L 218.909475 186.138398 
L 218.99904 186.138398 
L 219.088158 183.555288 
L 219.176833 183.555288 
L 219.265071 179.422312 
L 219.352875 179.422312 
L 219.352875 178.90569 
L 219.69984 178.90569 
L 219.69984 176.839201 
L 219.955712 176.839201 
L 220.040195 174.772713 
L 220.374188 174.772713 
L 220.374188 173.739469 
L 220.783088 173.739469 
L 220.783088 172.706225 
L 221.418465 172.706225 
L 221.418465 170.639737 
L 221.804401 170.639737 
L 221.880598 168.056627 
L 221.956471 168.056627 
L 221.956471 167.023383 
L 222.107257 167.023383 
L 222.182176 162.373785 
L 222.256782 162.373785 
L 222.331078 158.757431 
L 222.405066 158.757431 
L 222.405066 158.240809 
L 222.55213 158.240809 
L 222.62521 152.041345 
L 222.697993 152.041345 
L 222.77048 139.642416 
L 222.842675 139.642416 
L 222.914579 134.476196 
L 222.986194 134.476196 
L 223.057524 127.76011 
L 223.269821 127.76011 
L 223.269821 126.726866 
L 223.755586 126.726866 
L 223.755586 126.210244 
L 224.624114 126.210244 
L 224.624114 125.177 
L 224.883077 125.177 
L 224.883077 124.660378 
L 225.074866 124.660378 
L 225.074866 124.143756 
L 225.390008 124.143756 
L 225.452375 122.077268 
L 225.57646 122.077268 
L 225.63818 119.494158 
L 225.760986 119.494158 
L 225.822073 118.460914 
L 225.882953 118.460914 
L 225.943626 116.394426 
L 226.004093 116.394426 
L 226.064357 113.294694 
L 226.124418 113.294694 
L 226.184277 109.678339 
L 226.243937 109.678339 
L 226.243937 108.128473 
L 229.049298 108.128473 
L 229.150822 106.061985 
L 229.352155 106.061985 
L 229.451977 102.445631 
L 229.797027 102.445631 
L 229.797027 101.929009 
L 229.94289 101.929009 
L 229.991248 99.862521 
L 230.231092 99.862521 
L 230.231092 98.312655 
L 230.373468 98.312655 
L 230.467759 91.079947 
L 230.514719 91.079947 
L 230.608269 88.496837 
L 230.654862 88.496837 
L 230.747683 85.397105 
L 230.886018 85.397105 
L 230.931892 82.297373 
L 231.068813 82.297373 
L 231.159515 75.064664 
L 231.204693 75.064664 
L 231.294709 70.415066 
L 231.339548 70.415066 
L 231.384274 63.69898 
L 231.517785 63.69898 
L 231.517785 62.665736 
L 232.213468 62.665736 
L 232.213468 62.149114 
L 232.425429 62.149114 
L 232.425429 60.599248 
L 232.593206 60.599248 
L 232.634906 59.049382 
L 232.841954 59.049382 
L 232.841954 57.499516 
L 232.965042 57.499516 
L 233.046632 52.333296 
L 233.12785 52.333296 
L 233.208702 48.716942 
L 233.369315 48.716942 
L 233.409244 46.650454 
L 233.488835 46.650454 
L 233.568073 44.067344 
L 234.492492 44.067344 
L 234.492492 43.550722 
L 234.7903 43.550722 
L 234.863983 39.934367 
L 234.973941 39.934367 
L 234.973941 38.901123 
L 235.227909 38.901123 
L 235.299813 37.351257 
L 235.371429 37.351257 
L 235.371429 36.834635 
L 235.690194 36.834635 
L 235.690194 35.801391 
L 236.446266 35.801391 
L 236.446266 35.284769 
L 236.647033 35.284769 
L 236.647033 34.768147 
L 358.8 34.768147 
L 358.8 34.768147 
" style="fill:none;stroke:#0000ff;stroke-linecap:square;stroke-width:1.5;"/>
   </g>
   <g id="line2d_51">
    <defs>
     <path d="M 0 -6 
L -1.347084 -1.854102 
L -5.706339 -1.854102 
L -2.179628 0.708204 
L -3.526712 4.854102 
L -0 2.291796 
L 3.526712 4.854102 
L 2.179628 0.708204 
L 5.706339 -1.854102 
L 1.347084 -1.854102 
z
" id="m77c74cee9a" style="stroke:#0000ff;stroke-linejoin:bevel;stroke-width:1.5;"/>
    </defs>
    <g>
     <use style="fill:none;stroke:#0000ff;stroke-linejoin:bevel;stroke-width:1.5;" x="358.8" xlink:href="#m77c74cee9a" y="34.768147"/>
    </g>
   </g>
   <g id="line2d_52"/>
   <g id="line2d_53">
    <defs>
     <path d="M 0 1.5 
C 0.397805 1.5 0.77937 1.341951 1.06066 1.06066 
C 1.341951 0.77937 1.5 0.397805 1.5 0 
C 1.5 -0.397805 1.341951 -0.77937 1.06066 -1.06066 
C 0.77937 -1.341951 0.397805 -1.5 0 -1.5 
C -0.397805 -1.5 -0.77937 -1.341951 -1.06066 -1.06066 
C -1.341951 -0.77937 -1.5 -0.397805 -1.5 0 
C -1.5 0.397805 -1.341951 0.77937 -1.06066 1.06066 
C -0.77937 1.341951 -0.397805 1.5 0 1.5 
z
" id="m7276e6476b" style="stroke:#000000;"/>
    </defs>
    <g>
     <use style="stroke:#000000;" x="249.148348" xlink:href="#m7276e6476b" y="34.768147"/>
     <use style="stroke:#000000;" x="249.148348" xlink:href="#m7276e6476b" y="34.768147"/>
    </g>
   </g>
   <g id="line2d_54">
    <path d="M 180.353465 298.245375 
L 180.353465 297.728753 
L 181.113925 297.728753 
L 181.113925 297.212131 
L 182.544138 297.212131 
L 182.544138 296.695509 
L 185.10108 296.695509 
L 185.10108 296.178887 
L 186.804093 296.178887 
L 186.804093 295.145643 
L 188.358823 295.145643 
L 188.358823 294.629021 
L 189.789035 294.629021 
L 189.789035 293.079155 
L 190.682627 293.079155 
L 190.682627 292.562533 
L 191.94443 292.562533 
L 191.94443 291.529289 
L 193.867587 291.529289 
L 193.867587 288.946179 
L 194.228571 288.946179 
L 194.228571 287.396313 
L 203.709898 287.396313 
L 203.709898 286.879691 
L 212.23888 286.879691 
L 212.23888 286.363069 
L 212.753106 286.363069 
L 212.753106 285.329825 
L 212.879383 285.329825 
L 212.879383 284.813203 
L 213.004774 284.813203 
L 213.004774 283.263337 
L 213.252946 283.263337 
L 213.252946 282.230093 
L 213.375752 282.230093 
L 213.375752 281.196849 
L 219.176833 281.196849 
L 219.265071 278.097116 
L 219.352875 278.097116 
L 219.352875 277.580494 
L 219.613728 277.580494 
L 219.613728 276.54725 
L 219.785538 276.54725 
L 219.785538 276.030628 
L 220.040195 276.030628 
L 220.040195 273.96414 
L 220.207972 273.96414 
L 220.207972 272.414274 
L 220.45672 272.414274 
L 220.45672 270.864408 
L 220.702053 270.864408 
L 220.783088 267.764676 
L 220.863756 267.764676 
L 220.863756 267.248054 
L 221.418465 267.248054 
L 221.418465 264.664944 
L 221.573841 264.664944 
L 221.651025 263.6317 
L 221.727878 263.6317 
L 221.727878 261.04859 
L 221.880598 261.04859 
L 221.956471 256.915614 
L 222.032023 256.915614 
L 222.032023 255.88237 
L 222.182176 255.88237 
L 222.182176 253.29926 
L 222.405066 253.29926 
L 222.478749 247.616418 
L 222.55213 247.616418 
L 222.62521 245.549929 
L 222.697993 245.549929 
L 222.77048 240.900331 
L 222.842675 240.900331 
L 222.914579 233.151001 
L 222.986194 233.151001 
L 222.986194 228.501403 
L 223.549016 228.501403 
L 223.549016 227.984781 
L 225.011165 227.984781 
L 225.011165 226.951537 
L 225.20159 226.951537 
L 225.20159 226.434915 
L 225.452375 226.434915 
L 225.452375 225.918293 
L 225.822073 225.918293 
L 225.822073 224.885049 
L 226.064357 224.885049 
L 226.064357 223.851805 
L 226.243937 223.851805 
L 226.243937 222.818561 
L 226.421731 222.818561 
L 226.421731 222.301939 
L 228.268907 222.301939 
L 228.268907 221.785317 
L 228.427736 221.785317 
L 228.532843 219.718829 
L 228.637335 219.718829 
L 228.74122 215.585853 
L 228.792936 215.585853 
L 228.844504 211.452876 
L 228.947195 211.452876 
L 228.998319 207.3199 
L 231.428888 207.3199 
L 231.473392 204.73679 
L 231.738109 204.73679 
L 231.738109 204.220168 
L 232.383238 204.220168 
L 232.383238 203.703546 
L 232.593206 203.703546 
L 232.593206 203.186924 
L 232.718013 203.186924 
L 232.800736 201.637058 
L 232.883078 201.637058 
L 232.965042 199.57057 
L 233.005883 199.57057 
L 233.087287 196.470838 
L 233.12785 196.470838 
L 233.208702 190.271374 
L 233.248991 190.271374 
L 233.329297 185.105154 
L 233.369315 185.105154 
L 233.449084 177.355823 
L 233.488835 177.355823 
L 233.488835 176.839201 
L 233.881556 176.839201 
L 233.881556 175.805957 
L 234.52999 175.805957 
L 234.604752 174.772713 
L 234.863983 174.772713 
L 234.900711 171.672981 
L 235.010444 171.672981 
L 235.119507 169.089871 
L 235.191848 169.089871 
L 235.299813 160.823919 
L 235.335657 160.823919 
L 235.371429 151.524723 
L 237.1069 151.524723 
L 237.203922 148.941613 
L 237.428278 148.941613 
L 237.4601 147.908369 
L 237.930753 147.908369 
L 237.930753 146.358503 
L 238.14622 146.358503 
L 238.237773 143.25877 
L 238.359119 143.25877 
L 238.449591 138.609172 
L 238.479646 138.609172 
L 238.569511 133.442952 
L 238.599366 133.442952 
L 238.658927 129.309976 
L 238.953787 129.309976 
L 238.953787 128.793354 
L 239.329972 128.793354 
L 239.329972 127.243488 
L 239.614049 127.243488 
L 239.64221 126.210244 
L 239.893681 126.210244 
L 239.949086 124.660378 
L 240.031873 124.660378 
L 240.059384 122.59389 
L 240.305091 122.59389 
L 240.305091 121.560646 
L 240.865601 121.560646 
L 240.944257 118.977536 
L 241.074587 118.977536 
L 241.178171 111.744828 
L 241.229738 111.744828 
L 241.306811 109.161717 
L 241.358009 109.161717 
L 241.434532 102.445631 
L 241.611822 102.445631 
L 241.611822 101.929009 
L 241.936479 101.929009 
L 242.010569 100.895765 
L 242.182261 100.895765 
L 242.182261 99.862521 
L 242.328124 99.862521 
L 242.424709 96.246167 
L 242.472806 96.246167 
L 242.568614 85.397105 
L 242.592486 85.397105 
L 242.616326 79.714263 
L 242.758702 79.714263 
L 242.758702 78.681019 
L 243.385718 78.681019 
L 243.454047 77.131153 
L 243.499456 77.131153 
L 243.544749 75.581286 
L 243.612474 75.581286 
L 243.679943 73.514798 
L 243.724782 73.514798 
L 243.769508 71.44831 
L 244.319339 71.44831 
L 244.319339 70.415066 
L 244.491771 70.415066 
L 244.598702 69.381822 
L 244.620012 69.381822 
L 244.72618 61.632492 
L 244.768472 61.632492 
L 244.852756 58.016138 
L 244.894749 58.016138 
L 244.894749 56.982894 
L 245.913732 56.982894 
L 245.93353 55.433028 
L 246.459961 55.433028 
L 246.459961 54.916406 
L 246.574869 54.916406 
L 246.651066 50.266808 
L 246.689043 50.266808 
L 246.783633 44.067344 
L 246.802491 44.067344 
L 246.840148 39.417745 
L 247.359176 39.417745 
L 247.377436 37.867879 
L 247.522854 37.867879 
L 247.577082 36.834635 
L 247.649131 36.834635 
L 247.738786 35.801391 
L 249.148348 35.801391 
L 249.148348 34.768147 
L 358.8 34.768147 
L 358.8 34.768147 
" style="fill:none;stroke:#000000;stroke-linecap:square;stroke-width:1.5;"/>
   </g>
   <g id="line2d_55">
    <defs>
     <path d="M 0 6 
C 1.591219 6 3.117479 5.367802 4.242641 4.242641 
C 5.367802 3.117479 6 1.591219 6 0 
C 6 -1.591219 5.367802 -3.117479 4.242641 -4.242641 
C 3.117479 -5.367802 1.591219 -6 0 -6 
C -1.591219 -6 -3.117479 -5.367802 -4.242641 -4.242641 
C -5.367802 -3.117479 -6 -1.591219 -6 0 
C -6 1.591219 -5.367802 3.117479 -4.242641 4.242641 
C -3.117479 5.367802 -1.591219 6 0 6 
z
" id="me4642ec76d" style="stroke:#000000;stroke-width:1.5;"/>
    </defs>
    <g>
     <use style="fill:none;stroke:#000000;stroke-width:1.5;" x="358.8" xlink:href="#me4642ec76d" y="34.768147"/>
    </g>
   </g>
   <g id="line2d_56"/>
   <g id="line2d_57">
    <defs>
     <path d="M 0 1.5 
C 0.397805 1.5 0.77937 1.341951 1.06066 1.06066 
C 1.341951 0.77937 1.5 0.397805 1.5 0 
C 1.5 -0.397805 1.341951 -0.77937 1.06066 -1.06066 
C 0.77937 -1.341951 0.397805 -1.5 0 -1.5 
C -0.397805 -1.5 -0.77937 -1.341951 -1.06066 -1.06066 
C -1.341951 -0.77937 -1.5 -0.397805 -1.5 0 
C -1.5 0.397805 -1.341951 0.77937 -1.06066 1.06066 
C -0.77937 1.341951 -0.397805 1.5 0 1.5 
z
" id="m3c52ccb193" style="stroke:#ff0000;"/>
    </defs>
    <g>
     <use style="fill:#ff0000;stroke:#ff0000;" x="259.912614" xlink:href="#m3c52ccb193" y="34.768147"/>
     <use style="fill:#ff0000;stroke:#ff0000;" x="259.912614" xlink:href="#m3c52ccb193" y="34.768147"/>
    </g>
   </g>
   <g id="line2d_58">
    <path d="M 202.059361 298.245375 
L 202.059361 296.695509 
L 204.830204 296.695509 
L 204.830204 296.178887 
L 206.161424 296.178887 
L 206.161424 295.145643 
L 206.343753 295.145643 
L 206.434225 293.595777 
L 208.397854 293.595777 
L 208.397854 293.079155 
L 208.718366 293.079155 
L 208.718366 292.562533 
L 209.722023 292.562533 
L 209.722023 292.045911 
L 209.945844 292.045911 
L 209.945844 290.496045 
L 210.166896 290.496045 
L 210.166896 288.946179 
L 212.62593 288.946179 
L 212.62593 288.429557 
L 213.497719 288.429557 
L 213.497719 287.912935 
L 213.618859 287.912935 
L 213.679122 286.363069 
L 213.739183 286.363069 
L 213.799043 284.813203 
L 215.011885 284.813203 
L 215.011885 284.296581 
L 215.936773 284.296581 
L 215.936773 283.779959 
L 216.199931 283.779959 
L 216.252101 282.230093 
L 216.407702 282.230093 
L 216.407702 281.713471 
L 216.613085 281.713471 
L 216.613085 280.163604 
L 218.546658 280.163604 
L 218.546658 279.646982 
L 218.864524 279.646982 
L 218.864524 279.13036 
L 221.612475 279.13036 
L 221.612475 278.613738 
L 222.588707 278.613738 
L 222.588707 278.097116 
L 222.806614 278.097116 
L 222.914579 276.54725 
L 222.986194 276.54725 
L 222.986194 276.030628 
L 224.493212 276.030628 
L 224.558783 274.480762 
L 224.689208 274.480762 
L 224.689208 273.96414 
L 225.822073 273.96414 
L 225.822073 273.447518 
L 226.184277 273.447518 
L 226.214132 272.414274 
L 226.597773 272.414274 
L 226.597773 271.38103 
L 227.20061 271.38103 
L 227.20061 270.864408 
L 227.48068 270.864408 
L 227.59149 268.281298 
L 227.619086 268.281298 
L 227.67415 264.148322 
L 227.865547 264.148322 
L 227.865547 263.115078 
L 228.611269 263.115078 
L 228.637335 262.081834 
L 228.818739 262.081834 
L 228.921577 258.982102 
L 228.947195 258.982102 
L 228.998319 257.948858 
L 229.451977 257.948858 
L 229.451977 256.915614 
L 229.772601 256.915614 
L 229.772601 256.398992 
L 229.991248 256.398992 
L 230.06354 254.332504 
L 230.18338 254.332504 
L 230.231092 251.232772 
L 231.114222 251.232772 
L 231.114222 250.199528 
L 231.339548 250.199528 
L 231.339548 249.166284 
L 232.063585 249.166284 
L 232.063585 248.649662 
L 232.213468 248.649662 
L 232.213468 248.13304 
L 232.383238 248.13304 
L 232.446488 245.549929 
L 232.634906 245.549929 
L 232.655719 243.483441 
L 233.269101 243.483441 
L 233.269101 242.450197 
L 233.46897 242.450197 
L 233.46897 241.933575 
L 234.379521 241.933575 
L 234.454914 239.867087 
L 235.191848 239.867087 
L 235.299813 238.833843 
L 235.317744 238.833843 
L 235.353552 237.283977 
L 235.742773 237.283977 
L 235.812639 236.250733 
L 236.089401 236.250733 
L 236.192092 232.634379 
L 236.226192 232.634379 
L 236.294196 231.601135 
L 236.39572 231.601135 
L 236.39572 231.084513 
L 236.927647 231.084513 
L 237.009349 229.018025 
L 237.058191 229.018025 
L 237.058191 228.501403 
L 237.712657 228.501403 
L 237.822038 224.368427 
L 238.32886 224.368427 
L 238.32886 223.851805 
L 238.569511 223.851805 
L 238.629171 221.785317 
L 238.836426 221.785317 
L 238.909867 219.718829 
L 239.128395 219.718829 
L 239.171782 218.685585 
L 239.258241 218.685585 
L 239.358583 214.035987 
L 239.921405 214.035987 
L 239.921405 213.519365 
L 240.059384 213.519365 
L 240.059384 213.002743 
L 240.627532 213.002743 
L 240.693981 211.452876 
L 240.786596 211.452876 
L 240.786596 210.936254 
L 241.21686 210.936254 
L 241.281157 209.386388 
L 241.332429 209.386388 
L 241.383553 207.836522 
L 241.674716 207.836522 
L 241.674716 207.3199 
L 241.78737 207.3199 
L 241.86208 206.286656 
L 241.899318 206.286656 
L 241.998242 201.637058 
L 242.010569 201.637058 
L 242.010569 200.087192 
L 242.532746 200.087192 
L 242.616326 199.053948 
L 243.156048 199.053948 
L 243.213743 195.437594 
L 243.589927 195.437594 
L 243.691163 193.887728 
L 243.713583 193.887728 
L 243.791829 189.754752 
L 244.243374 189.754752 
L 244.319339 188.204886 
L 244.416537 188.204886 
L 244.416537 187.688264 
L 244.704997 187.688264 
L 244.810663 184.07191 
L 244.821196 184.07191 
L 244.821196 183.555288 
L 245.268312 183.555288 
L 245.370708 178.90569 
L 245.804446 178.90569 
L 245.864139 173.739469 
L 246.698524 173.739469 
L 246.698524 173.222847 
L 246.811913 173.222847 
L 246.830741 171.156359 
L 247.230825 171.156359 
L 247.340896 167.023383 
L 247.577082 167.023383 
L 247.667098 165.990139 
L 247.702978 165.990139 
L 247.747726 160.823919 
L 248.101737 160.823919 
L 248.206587 158.757431 
L 248.483216 158.757431 
L 248.585857 153.591211 
L 248.594384 153.591211 
L 248.628451 150.491479 
L 248.940529 150.491479 
L 249.040584 147.391747 
L 249.435294 147.391747 
L 249.459676 146.358503 
L 249.813512 146.358503 
L 249.85328 145.325259 
L 250.246175 145.325259 
L 250.246175 144.292014 
L 250.523803 144.292014 
L 250.623007 142.742148 
L 250.638221 142.742148 
L 250.638221 140.67566 
L 250.969679 140.67566 
L 251.014405 138.609172 
L 251.317074 138.609172 
L 251.382833 132.409708 
L 251.557016 132.409708 
L 251.607501 130.34322 
L 251.679376 130.34322 
L 251.743817 124.143756 
L 252.041508 124.143756 
L 252.097653 121.560646 
L 252.174566 121.560646 
L 252.174566 121.044024 
L 252.382659 121.044024 
L 252.444618 115.361182 
L 252.784973 115.361182 
L 252.784973 113.811316 
L 253.105726 113.811316 
L 253.118966 112.778072 
L 253.414314 112.778072 
L 253.440332 111.228206 
L 253.711262 111.228206 
L 253.768788 109.161717 
L 253.946581 109.161717 
L 254.009653 108.128473 
L 254.072502 108.128473 
L 254.085046 103.478875 
L 254.284552 103.478875 
L 254.389641 97.279411 
L 254.395803 97.279411 
L 254.395803 95.212923 
L 254.658799 95.212923 
L 254.701249 91.079947 
L 254.971755 91.079947 
L 255.00156 87.980215 
L 255.279324 87.980215 
L 255.291048 86.946971 
L 255.575921 86.946971 
L 255.575921 86.430349 
L 255.748117 86.430349 
L 255.856323 79.714263 
L 255.867675 79.714263 
L 255.873348 78.681019 
L 256.093215 78.681019 
L 256.143571 77.131153 
L 256.409767 77.131153 
L 256.409767 76.097908 
L 256.644914 76.097908 
L 256.704574 67.315334 
L 256.935897 67.315334 
L 256.973272 63.182358 
L 257.216956 63.182358 
L 257.23799 61.11587 
L 257.52472 61.11587 
L 257.52472 60.082626 
L 257.694575 60.082626 
L 257.755942 53.883162 
L 257.964038 53.883162 
L 258.009395 51.816674 
L 258.244407 51.816674 
L 258.259303 48.20032 
L 258.48127 48.20032 
L 258.515552 44.583966 
L 258.671436 44.583966 
L 258.748871 41.484233 
L 258.960103 41.484233 
L 258.960103 40.967611 
L 259.225382 40.967611 
L 259.225382 39.934367 
L 259.426439 39.934367 
L 259.458956 37.351257 
L 259.662005 37.351257 
L 259.689515 35.284769 
L 259.912614 35.284769 
L 259.912614 34.768147 
L 358.8 34.768147 
L 358.8 34.768147 
" style="fill:none;stroke:#ff0000;stroke-linecap:square;stroke-width:1.5;"/>
   </g>
   <g id="line2d_59">
    <defs>
     <path d="M -6 6 
L 6 6 
L 6 -6 
L -6 -6 
z
" id="m8d7575c940" style="stroke:#ff0000;stroke-linejoin:miter;stroke-width:1.5;"/>
    </defs>
    <g>
     <use style="fill:none;stroke:#ff0000;stroke-linejoin:miter;stroke-width:1.5;" x="358.8" xlink:href="#m8d7575c940" y="34.768147"/>
    </g>
   </g>
   <g id="line2d_60"/>
   <g id="line2d_61">
    <defs>
     <path d="M 0 1.5 
C 0.397805 1.5 0.77937 1.341951 1.06066 1.06066 
C 1.341951 0.77937 1.5 0.397805 1.5 0 
C 1.5 -0.397805 1.341951 -0.77937 1.06066 -1.06066 
C 0.77937 -1.341951 0.397805 -1.5 0 -1.5 
C -0.397805 -1.5 -0.77937 -1.341951 -1.06066 -1.06066 
C -1.341951 -0.77937 -1.5 -0.397805 -1.5 0 
C -1.5 0.397805 -1.341951 0.77937 -1.06066 1.06066 
C -0.77937 1.341951 -0.397805 1.5 0 1.5 
z
" id="m5457e28976" style="stroke:#bf00bf;"/>
    </defs>
    <g>
     <use style="fill:#bf00bf;stroke:#bf00bf;" x="274.72871" xlink:href="#m5457e28976" y="34.768147"/>
     <use style="fill:#bf00bf;stroke:#bf00bf;" x="274.72871" xlink:href="#m5457e28976" y="34.768147"/>
    </g>
   </g>
   <g id="line2d_62">
    <path d="M 222.697993 298.245375 
L 222.697993 297.728753 
L 222.860678 297.728753 
L 222.860678 297.212131 
L 226.019178 297.212131 
L 226.019178 296.178887 
L 227.341194 296.178887 
L 227.341194 295.145643 
L 228.998319 295.145643 
L 228.998319 294.112399 
L 231.373103 294.112399 
L 231.373103 293.595777 
L 231.628287 293.595777 
L 231.628287 293.079155 
L 231.879877 293.079155 
L 231.934105 290.496045 
L 232.362105 290.496045 
L 232.362105 289.979423 
L 232.862528 289.979423 
L 232.862528 289.462801 
L 233.548296 289.462801 
L 233.548296 287.912935 
L 233.774415 287.912935 
L 233.774415 287.396313 
L 233.930045 287.396313 
L 233.930045 286.879691 
L 234.379521 286.879691 
L 234.445507 284.813203 
L 234.80875 284.813203 
L 234.80875 283.779959 
L 235.065059 283.779959 
L 235.065059 283.263337 
L 235.182821 283.263337 
L 235.182821 282.746715 
L 235.734021 282.746715 
L 235.830063 281.196849 
L 235.84747 281.196849 
L 235.84747 280.680226 
L 236.029225 280.680226 
L 236.029225 279.646982 
L 236.234706 279.646982 
L 236.234706 278.613738 
L 236.454676 278.613738 
L 236.454676 278.097116 
L 236.605392 278.097116 
L 236.630389 274.997384 
L 238.865839 274.997384 
L 238.975706 273.447518 
L 239.508049 273.447518 
L 239.508049 272.930896 
L 239.656274 272.930896 
L 239.74742 271.897652 
L 239.852014 271.897652 
L 239.852014 271.38103 
L 240.291529 271.38103 
L 240.332185 270.347786 
L 240.480469 270.347786 
L 240.480469 269.831164 
L 240.700612 269.831164 
L 240.799788 267.248054 
L 240.970399 267.248054 
L 240.970399 266.731432 
L 241.358009 266.731432 
L 241.440895 262.081834 
L 241.674716 262.081834 
L 241.712346 260.015346 
L 241.992075 260.015346 
L 242.084354 258.46548 
L 242.243182 258.46548 
L 242.303896 257.432236 
L 242.85887 257.432236 
L 242.882358 256.398992 
L 243.476766 256.398992 
L 243.488114 254.332504 
L 243.769508 254.332504 
L 243.769508 253.29926 
L 244.308507 253.29926 
L 244.308507 252.782638 
L 245.066935 252.782638 
L 245.066935 251.749394 
L 245.426777 251.749394 
L 245.426777 251.232772 
L 245.588893 251.232772 
L 245.669403 249.682906 
L 245.918683 249.682906 
L 245.918683 249.166284 
L 246.174298 249.166284 
L 246.261934 248.13304 
L 246.324961 248.13304 
L 246.324961 247.099796 
L 246.830741 247.099796 
L 246.840148 244.516685 
L 247.027251 244.516685 
L 247.087639 243.483441 
L 247.345468 243.483441 
L 247.454837 241.416953 
L 247.5138 241.416953 
L 247.559024 239.350465 
L 248.018293 239.350465 
L 248.088588 237.800599 
L 248.397228 237.800599 
L 248.453167 236.767355 
L 248.873513 236.767355 
L 248.873513 235.734111 
L 249.239029 235.734111 
L 249.255467 234.700867 
L 249.479969 234.700867 
L 249.504291 233.667623 
L 249.661578 233.667623 
L 249.661578 233.151001 
L 249.857252 233.151001 
L 249.857252 232.634379 
L 250.011476 232.634379 
L 250.058663 230.567891 
L 250.439429 230.567891 
L 250.439429 229.534647 
L 250.969679 229.534647 
L 251.014405 226.434915 
L 251.375539 226.434915 
L 251.379186 224.885049 
L 251.553404 224.885049 
L 251.600298 222.818561 
L 251.768815 222.818561 
L 251.772384 221.785317 
L 251.939294 221.785317 
L 251.939294 221.268695 
L 252.090645 221.268695 
L 252.090645 220.235451 
L 252.265037 220.235451 
L 252.265037 219.718829 
L 252.427429 219.718829 
L 252.427429 219.202207 
L 252.612202 219.202207 
L 252.615606 217.652341 
L 252.768108 217.652341 
L 252.778229 216.102475 
L 252.94941 216.102475 
L 253.036051 215.069231 
L 253.911797 215.069231 
L 253.993906 213.002743 
L 254.075639 213.002743 
L 254.116366 210.936254 
L 254.237992 210.936254 
L 254.2411 209.90301 
L 254.530843 209.90301 
L 254.530843 209.386388 
L 254.69822 209.386388 
L 254.69822 207.836522 
L 254.989644 207.836522 
L 255.037261 206.286656 
L 255.431145 206.286656 
L 255.431145 205.770034 
L 255.552836 205.770034 
L 255.607615 203.703546 
L 255.710949 203.703546 
L 255.765246 201.120436 
L 255.867675 201.120436 
L 255.901688 200.087192 
L 256.140777 200.087192 
L 256.15195 199.053948 
L 256.304872 199.053948 
L 256.313175 198.020704 
L 256.699158 198.020704 
L 256.758637 196.470838 
L 256.959933 196.470838 
L 257.007908 194.40435 
L 257.355845 194.40435 
L 257.355845 193.887728 
L 257.483299 193.887728 
L 257.498843 191.82124 
L 257.612423 191.82124 
L 257.617568 190.271374 
L 257.872977 190.271374 
L 257.872977 189.754752 
L 258.037057 189.754752 
L 258.089747 188.204886 
L 258.402664 188.204886 
L 258.500868 187.171642 
L 258.801914 187.171642 
L 258.869195 184.07191 
L 259.095603 184.07191 
L 259.10744 181.4888 
L 259.223031 181.4888 
L 259.225382 179.422312 
L 259.456635 179.422312 
L 259.456635 178.389067 
L 259.574607 178.389067 
L 259.574607 177.872445 
L 259.901298 177.872445 
L 259.917138 176.322579 
L 260.047842 176.322579 
L 260.056821 174.772713 
L 260.563485 174.772713 
L 260.596177 171.672981 
L 260.719862 171.672981 
L 260.799693 169.606493 
L 260.892024 169.606493 
L 260.926258 167.023383 
L 261.013685 167.023383 
L 261.013685 166.506761 
L 261.319491 166.506761 
L 261.419581 165.473517 
L 261.434131 165.473517 
L 261.537714 163.407029 
L 261.661227 163.407029 
L 261.661227 162.890407 
L 261.832723 162.890407 
L 261.832723 162.373785 
L 262.044804 162.373785 
L 262.044804 161.857163 
L 262.222618 161.857163 
L 262.244472 160.307297 
L 262.335576 160.307297 
L 262.343476 158.757431 
L 262.459599 158.757431 
L 262.541805 157.207565 
L 262.613913 157.207565 
L 262.629466 155.657699 
L 262.73023 155.657699 
L 262.826585 154.107833 
L 262.9186 154.107833 
L 262.928158 153.074589 
L 263.031057 153.074589 
L 263.137144 150.491479 
L 263.582961 150.491479 
L 263.673004 148.941613 
L 263.855371 148.941613 
L 263.949471 145.325259 
L 263.967511 145.325259 
L 264.034099 144.292014 
L 264.118328 144.292014 
L 264.21817 142.742148 
L 264.305076 142.742148 
L 264.395083 140.67566 
L 264.652007 140.67566 
L 264.652007 139.642416 
L 264.994032 139.642416 
L 265.019549 137.059306 
L 265.168521 137.059306 
L 265.249259 135.50944 
L 265.326291 135.50944 
L 265.419623 132.92633 
L 265.48268 132.92633 
L 265.586732 130.34322 
L 265.662326 130.34322 
L 265.7425 128.276732 
L 265.911483 128.276732 
L 266.00825 127.243488 
L 266.080484 127.243488 
L 266.165186 125.693622 
L 266.30336 125.693622 
L 266.327076 124.143756 
L 266.548477 124.143756 
L 266.634101 120.01078 
L 266.686828 120.01078 
L 266.781037 117.42767 
L 266.85789 117.42767 
L 266.86709 116.394426 
L 267.181627 116.394426 
L 267.264276 114.327938 
L 267.458124 114.327938 
L 267.546888 112.26145 
L 267.755222 112.26145 
L 267.848331 110.711584 
L 267.899045 110.711584 
L 267.971246 107.611851 
L 268.038849 107.611851 
L 268.056068 106.578607 
L 268.183265 106.578607 
L 268.264254 105.028741 
L 268.342055 105.028741 
L 268.409679 102.962253 
L 268.48265 102.962253 
L 268.53858 101.412387 
L 268.606856 101.412387 
L 268.606856 100.895765 
L 268.810133 100.895765 
L 268.834866 97.796033 
L 269.016561 97.796033 
L 269.0871 94.696301 
L 269.205844 94.696301 
L 269.205844 94.179679 
L 269.363839 94.179679 
L 269.422397 92.629813 
L 269.490032 92.629813 
L 269.573228 90.563325 
L 269.683558 90.563325 
L 269.748909 89.013459 
L 269.80492 89.013459 
L 269.810121 87.463593 
L 270.010518 87.463593 
L 270.0208 85.913727 
L 270.130963 85.913727 
L 270.130963 84.880483 
L 270.385819 84.880483 
L 270.453672 81.264129 
L 270.527516 81.264129 
L 270.634608 79.197641 
L 270.640814 79.197641 
L 270.706472 76.614531 
L 270.890998 76.614531 
L 270.950866 74.548042 
L 271.00567 74.548042 
L 271.088168 70.415066 
L 271.25323 70.415066 
L 271.309508 68.8652 
L 271.371567 68.8652 
L 271.429848 67.315334 
L 271.500956 67.315334 
L 271.605914 64.732224 
L 271.665781 64.732224 
L 271.776767 62.665736 
L 271.786082 62.665736 
L 271.789574 61.632492 
L 271.898639 61.632492 
L 271.958689 58.53276 
L 272.011641 58.53276 
L 272.011641 58.016138 
L 272.125076 58.016138 
L 272.185508 55.94965 
L 272.243468 55.94965 
L 272.312547 52.849918 
L 272.367843 52.849918 
L 272.406112 51.300052 
L 272.692758 51.300052 
L 272.761226 48.716942 
L 272.817352 48.716942 
L 272.90941 46.650454 
L 272.979233 46.650454 
L 273.087788 42.517478 
L 273.129947 42.517478 
L 273.145056 40.967611 
L 273.290104 40.967611 
L 273.345661 39.934367 
L 273.471097 39.934367 
L 273.568286 38.901123 
L 273.620886 38.901123 
L 273.620886 38.384501 
L 273.91985 38.384501 
L 274.023881 35.801391 
L 274.17931 35.801391 
L 274.17931 35.284769 
L 274.72871 35.284769 
L 274.72871 34.768147 
L 358.8 34.768147 
L 358.8 34.768147 
" style="fill:none;stroke:#bf00bf;stroke-linecap:square;stroke-width:1.5;"/>
   </g>
   <g id="line2d_63">
    <defs>
     <path d="M -0 8.485281 
L 8.485281 0 
L 0 -8.485281 
L -8.485281 -0 
z
" id="m7c4fdec6bd" style="stroke:#bf00bf;stroke-linejoin:miter;stroke-width:1.5;"/>
    </defs>
    <g>
     <use style="fill:none;stroke:#bf00bf;stroke-linejoin:miter;stroke-width:1.5;" x="358.8" xlink:href="#m7c4fdec6bd" y="34.768147"/>
    </g>
   </g>
   <g id="line2d_64"/>
   <g id="line2d_65">
    <path d="M 358.8 34.768147 
L 390.48 292.97583 
" style="fill:none;stroke:#bf00bf;stroke-linecap:square;stroke-width:1.5;"/>
    <g>
     <use style="fill:none;stroke:#bf00bf;stroke-linejoin:miter;stroke-width:1.5;" x="358.8" xlink:href="#m7c4fdec6bd" y="34.768147"/>
     <use style="fill:none;stroke:#bf00bf;stroke-linejoin:miter;stroke-width:1.5;" x="390.48" xlink:href="#m7c4fdec6bd" y="292.97583"/>
    </g>
   </g>
   <g id="line2d_66">
    <path d="M 358.8 34.768147 
L 390.48 242.388203 
" style="fill:none;stroke:#ff0000;stroke-linecap:square;stroke-width:1.5;"/>
    <g>
     <use style="fill:none;stroke:#ff0000;stroke-linejoin:miter;stroke-width:1.5;" x="358.8" xlink:href="#m8d7575c940" y="34.768147"/>
     <use style="fill:none;stroke:#ff0000;stroke-linejoin:miter;stroke-width:1.5;" x="390.48" xlink:href="#m8d7575c940" y="242.388203"/>
    </g>
   </g>
   <g id="line2d_67">
    <path d="M 358.8 34.768147 
L 390.48 191.800575 
" style="fill:none;stroke:#000000;stroke-linecap:square;stroke-width:1.5;"/>
    <g>
     <use style="fill:none;stroke:#000000;stroke-width:1.5;" x="358.8" xlink:href="#me4642ec76d" y="34.768147"/>
     <use style="fill:none;stroke:#000000;stroke-width:1.5;" x="390.48" xlink:href="#me4642ec76d" y="191.800575"/>
    </g>
   </g>
   <g id="line2d_68">
    <path d="M 358.8 34.768147 
L 390.48 141.212947 
" style="fill:none;stroke:#00bfbf;stroke-linecap:square;stroke-width:1.5;"/>
    <g>
     <use style="fill:none;stroke:#00bfbf;stroke-width:1.5;" x="358.8" xlink:href="#me6ebe34cc0" y="34.768147"/>
     <use style="fill:none;stroke:#00bfbf;stroke-width:1.5;" x="390.48" xlink:href="#me6ebe34cc0" y="141.212947"/>
    </g>
   </g>
   <g id="line2d_69">
    <path d="M 358.8 34.768147 
L 390.48 90.62532 
" style="fill:none;stroke:#0000ff;stroke-linecap:square;stroke-width:1.5;"/>
    <g>
     <use style="fill:none;stroke:#0000ff;stroke-linejoin:bevel;stroke-width:1.5;" x="358.8" xlink:href="#m77c74cee9a" y="34.768147"/>
     <use style="fill:none;stroke:#0000ff;stroke-linejoin:bevel;stroke-width:1.5;" x="390.48" xlink:href="#m77c74cee9a" y="90.62532"/>
    </g>
   </g>
   <g id="line2d_70">
    <path d="M 358.8 34.768147 
L 390.48 40.037692 
" style="fill:none;stroke:#008000;stroke-linecap:square;stroke-width:1.5;"/>
    <g>
     <use style="fill:none;stroke:#008000;stroke-linejoin:miter;stroke-width:1.5;" x="358.8" xlink:href="#m6b5e09f576" y="34.768147"/>
     <use style="fill:none;stroke:#008000;stroke-linejoin:miter;stroke-width:1.5;" x="390.48" xlink:href="#m6b5e09f576" y="40.037692"/>
    </g>
   </g>
   <g id="line2d_71">
    <path d="M 358.8 298.245375 
L 358.8 34.768147 
" style="fill:none;stroke:#000000;stroke-linecap:square;stroke-width:1.5;"/>
   </g>
   <g id="patch_3">
    <path d="M 70.8 298.245375 
L 70.8 32.133375 
" style="fill:none;stroke:#000000;stroke-linecap:square;stroke-linejoin:miter;stroke-width:0.8;"/>
   </g>
   <g id="patch_4">
    <path d="M 427.92 298.245375 
L 427.92 32.133375 
" style="fill:none;stroke:#000000;stroke-linecap:square;stroke-linejoin:miter;stroke-width:0.8;"/>
   </g>
   <g id="patch_5">
    <path d="M 70.8 298.245375 
L 427.92 298.245375 
" style="fill:none;stroke:#000000;stroke-linecap:square;stroke-linejoin:miter;stroke-width:0.8;"/>
   </g>
   <g id="patch_6">
    <path d="M 70.8 32.133375 
L 427.92 32.133375 
" style="fill:none;stroke:#000000;stroke-linecap:square;stroke-linejoin:miter;stroke-width:0.8;"/>
   </g>
   <g id="text_14">
    <!-- 40-D -->
    <defs>
     <path d="M 19.671875 64.796875 
L 19.671875 8.109375 
L 31.59375 8.109375 
Q 46.6875 8.109375 53.6875 14.9375 
Q 60.6875 21.78125 60.6875 36.53125 
Q 60.6875 51.171875 53.6875 57.984375 
Q 46.6875 64.796875 31.59375 64.796875 
z
M 9.8125 72.90625 
L 30.078125 72.90625 
Q 51.265625 72.90625 61.171875 64.09375 
Q 71.09375 55.28125 71.09375 36.53125 
Q 71.09375 17.671875 61.125 8.828125 
Q 51.171875 0 30.078125 0 
L 9.8125 0 
z
" id="DejaVuSans-44"/>
    </defs>
    <g transform="translate(396.24 297.114893)scale(0.15 -0.15)">
     <use xlink:href="#DejaVuSans-34"/>
     <use x="63.623047" xlink:href="#DejaVuSans-30"/>
     <use x="127.246094" xlink:href="#DejaVuSans-2d"/>
     <use x="163.330078" xlink:href="#DejaVuSans-44"/>
    </g>
   </g>
   <g id="text_15">
    <!-- 20-D -->
    <g transform="translate(396.24 246.527265)scale(0.15 -0.15)">
     <use xlink:href="#DejaVuSans-32"/>
     <use x="63.623047" xlink:href="#DejaVuSans-30"/>
     <use x="127.246094" xlink:href="#DejaVuSans-2d"/>
     <use x="163.330078" xlink:href="#DejaVuSans-44"/>
    </g>
   </g>
   <g id="text_16">
    <!-- 10-D -->
    <g transform="translate(396.24 195.939637)scale(0.15 -0.15)">
     <use xlink:href="#DejaVuSans-31"/>
     <use x="63.623047" xlink:href="#DejaVuSans-30"/>
     <use x="127.246094" xlink:href="#DejaVuSans-2d"/>
     <use x="163.330078" xlink:href="#DejaVuSans-44"/>
    </g>
   </g>
   <g id="text_17">
    <!-- 2-D -->
    <g transform="translate(396.24 145.35201)scale(0.15 -0.15)">
     <use xlink:href="#DejaVuSans-32"/>
     <use x="63.623047" xlink:href="#DejaVuSans-2d"/>
     <use x="99.707031" xlink:href="#DejaVuSans-44"/>
    </g>
   </g>
   <g id="text_18">
    <!-- 5-D -->
    <defs>
     <path d="M 10.796875 72.90625 
L 49.515625 72.90625 
L 49.515625 64.59375 
L 19.828125 64.59375 
L 19.828125 46.734375 
Q 21.96875 47.46875 24.109375 47.828125 
Q 26.265625 48.1875 28.421875 48.1875 
Q 40.625 48.1875 47.75 41.5 
Q 54.890625 34.8125 54.890625 23.390625 
Q 54.890625 11.625 47.5625 5.09375 
Q 40.234375 -1.421875 26.90625 -1.421875 
Q 22.3125 -1.421875 17.546875 -0.640625 
Q 12.796875 0.140625 7.71875 1.703125 
L 7.71875 11.625 
Q 12.109375 9.234375 16.796875 8.0625 
Q 21.484375 6.890625 26.703125 6.890625 
Q 35.15625 6.890625 40.078125 11.328125 
Q 45.015625 15.765625 45.015625 23.390625 
Q 45.015625 31 40.078125 35.4375 
Q 35.15625 39.890625 26.703125 39.890625 
Q 22.75 39.890625 18.8125 39.015625 
Q 14.890625 38.140625 10.796875 36.28125 
z
" id="DejaVuSans-35"/>
    </defs>
    <g transform="translate(396.24 94.764382)scale(0.15 -0.15)">
     <use xlink:href="#DejaVuSans-35"/>
     <use x="63.623047" xlink:href="#DejaVuSans-2d"/>
     <use x="99.707031" xlink:href="#DejaVuSans-44"/>
    </g>
   </g>
   <g id="text_19">
    <!-- 3-D -->
    <defs>
     <path d="M 40.578125 39.3125 
Q 47.65625 37.796875 51.625 33 
Q 55.609375 28.21875 55.609375 21.1875 
Q 55.609375 10.40625 48.1875 4.484375 
Q 40.765625 -1.421875 27.09375 -1.421875 
Q 22.515625 -1.421875 17.65625 -0.515625 
Q 12.796875 0.390625 7.625 2.203125 
L 7.625 11.71875 
Q 11.71875 9.328125 16.59375 8.109375 
Q 21.484375 6.890625 26.8125 6.890625 
Q 36.078125 6.890625 40.9375 10.546875 
Q 45.796875 14.203125 45.796875 21.1875 
Q 45.796875 27.640625 41.28125 31.265625 
Q 36.765625 34.90625 28.71875 34.90625 
L 20.21875 34.90625 
L 20.21875 43.015625 
L 29.109375 43.015625 
Q 36.375 43.015625 40.234375 45.921875 
Q 44.09375 48.828125 44.09375 54.296875 
Q 44.09375 59.90625 40.109375 62.90625 
Q 36.140625 65.921875 28.71875 65.921875 
Q 24.65625 65.921875 20.015625 65.03125 
Q 15.375 64.15625 9.8125 62.3125 
L 9.8125 71.09375 
Q 15.4375 72.65625 20.34375 73.4375 
Q 25.25 74.21875 29.59375 74.21875 
Q 40.828125 74.21875 47.359375 69.109375 
Q 53.90625 64.015625 53.90625 55.328125 
Q 53.90625 49.265625 50.4375 45.09375 
Q 46.96875 40.921875 40.578125 39.3125 
" id="DejaVuSans-33"/>
    </defs>
    <g transform="translate(396.24 44.176754)scale(0.15 -0.15)">
     <use xlink:href="#DejaVuSans-33"/>
     <use x="63.623047" xlink:href="#DejaVuSans-2d"/>
     <use x="99.707031" xlink:href="#DejaVuSans-44"/>
    </g>
   </g>
   <g id="text_20">
    <!-- bbob - f2 -->
    <defs>
     <path d="M 48.6875 27.296875 
Q 48.6875 37.203125 44.609375 42.84375 
Q 40.53125 48.484375 33.40625 48.484375 
Q 26.265625 48.484375 22.1875 42.84375 
Q 18.109375 37.203125 18.109375 27.296875 
Q 18.109375 17.390625 22.1875 11.75 
Q 26.265625 6.109375 33.40625 6.109375 
Q 40.53125 6.109375 44.609375 11.75 
Q 48.6875 17.390625 48.6875 27.296875 
M 18.109375 46.390625 
Q 20.953125 51.265625 25.265625 53.625 
Q 29.59375 56 35.59375 56 
Q 45.5625 56 51.78125 48.09375 
Q 58.015625 40.1875 58.015625 27.296875 
Q 58.015625 14.40625 51.78125 6.484375 
Q 45.5625 -1.421875 35.59375 -1.421875 
Q 29.59375 -1.421875 25.265625 0.953125 
Q 20.953125 3.328125 18.109375 8.203125 
L 18.109375 0 
L 9.078125 0 
L 9.078125 75.984375 
L 18.109375 75.984375 
z
" id="DejaVuSans-62"/>
    </defs>
    <g transform="translate(74.3712 50.114612)scale(0.1666 -0.1666)">
     <use xlink:href="#DejaVuSans-62"/>
     <use x="63.476562" xlink:href="#DejaVuSans-62"/>
     <use x="126.953125" xlink:href="#DejaVuSans-6f"/>
     <use x="188.134766" xlink:href="#DejaVuSans-62"/>
     <use x="251.611328" xlink:href="#DejaVuSans-20"/>
     <use x="283.398438" xlink:href="#DejaVuSans-2d"/>
     <use x="319.482422" xlink:href="#DejaVuSans-20"/>
     <use x="351.269531" xlink:href="#DejaVuSans-66"/>
     <use x="386.474609" xlink:href="#DejaVuSans-32"/>
    </g>
    <!-- 51 targets in 100..1e-08 -->
    <g transform="translate(74.3712 68.770168)scale(0.1666 -0.1666)">
     <use xlink:href="#DejaVuSans-35"/>
     <use x="63.623047" xlink:href="#DejaVuSans-31"/>
     <use x="127.246094" xlink:href="#DejaVuSans-20"/>
     <use x="159.033203" xlink:href="#DejaVuSans-74"/>
     <use x="198.242188" xlink:href="#DejaVuSans-61"/>
     <use x="259.521484" xlink:href="#DejaVuSans-72"/>
     <use x="300.619141" xlink:href="#DejaVuSans-67"/>
     <use x="364.095703" xlink:href="#DejaVuSans-65"/>
     <use x="425.619141" xlink:href="#DejaVuSans-74"/>
     <use x="464.828125" xlink:href="#DejaVuSans-73"/>
     <use x="516.927734" xlink:href="#DejaVuSans-20"/>
     <use x="548.714844" xlink:href="#DejaVuSans-69"/>
     <use x="576.498047" xlink:href="#DejaVuSans-6e"/>
     <use x="639.876953" xlink:href="#DejaVuSans-20"/>
     <use x="671.664062" xlink:href="#DejaVuSans-31"/>
     <use x="735.287109" xlink:href="#DejaVuSans-30"/>
     <use x="798.910156" xlink:href="#DejaVuSans-30"/>
     <use x="862.533203" xlink:href="#DejaVuSans-2e"/>
     <use x="894.320312" xlink:href="#DejaVuSans-2e"/>
     <use x="926.107422" xlink:href="#DejaVuSans-31"/>
     <use x="989.730469" xlink:href="#DejaVuSans-65"/>
     <use x="1051.253906" xlink:href="#DejaVuSans-2d"/>
     <use x="1087.337891" xlink:href="#DejaVuSans-30"/>
     <use x="1150.960938" xlink:href="#DejaVuSans-38"/>
    </g>
    <!-- 15 instances -->
    <g transform="translate(74.3712 87.425723)scale(0.1666 -0.1666)">
     <use xlink:href="#DejaVuSans-31"/>
     <use x="63.623047" xlink:href="#DejaVuSans-35"/>
     <use x="127.246094" xlink:href="#DejaVuSans-20"/>
     <use x="159.033203" xlink:href="#DejaVuSans-69"/>
     <use x="186.816406" xlink:href="#DejaVuSans-6e"/>
     <use x="250.195312" xlink:href="#DejaVuSans-73"/>
     <use x="302.294922" xlink:href="#DejaVuSans-74"/>
     <use x="341.503906" xlink:href="#DejaVuSans-61"/>
     <use x="402.783203" xlink:href="#DejaVuSans-6e"/>
     <use x="466.162109" xlink:href="#DejaVuSans-63"/>
     <use x="521.142578" xlink:href="#DejaVuSans-65"/>
     <use x="582.666016" xlink:href="#DejaVuSans-73"/>
    </g>
   </g>
   <g id="text_21">
    <!-- v2.0.1 -->
    <g style="fill:#808080;" transform="translate(233.67875 293.504568)scale(0.1 -0.1)">
     <use xlink:href="#DejaVuSans-76"/>
     <use x="59.179688" xlink:href="#DejaVuSans-32"/>
     <use x="122.802734" xlink:href="#DejaVuSans-2e"/>
     <use x="154.589844" xlink:href="#DejaVuSans-30"/>
     <use x="218.212891" xlink:href="#DejaVuSans-2e"/>
     <use x="250" xlink:href="#DejaVuSans-31"/>
    </g>
   </g>
   <g id="text_22">
    <!-- 2 Ellipsoid separable -->
    <defs>
     <path d="M 9.8125 72.90625 
L 55.90625 72.90625 
L 55.90625 64.59375 
L 19.671875 64.59375 
L 19.671875 43.015625 
L 54.390625 43.015625 
L 54.390625 34.71875 
L 19.671875 34.71875 
L 19.671875 8.296875 
L 56.78125 8.296875 
L 56.78125 0 
L 9.8125 0 
z
" id="DejaVuSans-45"/>
    </defs>
    <g transform="translate(125.120625 26.133375)scale(0.24 -0.24)">
     <use xlink:href="#DejaVuSans-32"/>
     <use x="63.623047" xlink:href="#DejaVuSans-20"/>
     <use x="95.410156" xlink:href="#DejaVuSans-45"/>
     <use x="158.59375" xlink:href="#DejaVuSans-6c"/>
     <use x="186.376953" xlink:href="#DejaVuSans-6c"/>
     <use x="214.160156" xlink:href="#DejaVuSans-69"/>
     <use x="241.943359" xlink:href="#DejaVuSans-70"/>
     <use x="305.419922" xlink:href="#DejaVuSans-73"/>
     <use x="357.519531" xlink:href="#DejaVuSans-6f"/>
     <use x="418.701172" xlink:href="#DejaVuSans-69"/>
     <use x="446.484375" xlink:href="#DejaVuSans-64"/>
     <use x="509.960938" xlink:href="#DejaVuSans-20"/>
     <use x="541.748047" xlink:href="#DejaVuSans-73"/>
     <use x="593.847656" xlink:href="#DejaVuSans-65"/>
     <use x="655.371094" xlink:href="#DejaVuSans-70"/>
     <use x="718.847656" xlink:href="#DejaVuSans-61"/>
     <use x="780.126953" xlink:href="#DejaVuSans-72"/>
     <use x="821.240234" xlink:href="#DejaVuSans-61"/>
     <use x="882.519531" xlink:href="#DejaVuSans-62"/>
     <use x="945.996094" xlink:href="#DejaVuSans-6c"/>
     <use x="973.779297" xlink:href="#DejaVuSans-65"/>
    </g>
   </g>
  </g>
 </g>
 <defs>
  <clipPath id="pa764252482">
   <rect height="266.112" width="357.12" x="70.8" y="32.133375"/>
  </clipPath>
 </defs>
</svg>
